start_time,end_time,note_value,velocity,instrument_program_number
2.142855,2.7380924,67,127,40
2.85714,3.4523776,79,127,40
3.571425,4.999995,77,127,40
4.999995,5.3571377,75,127,40
5.3571377,5.535709,74,127,40
5.535709,5.7068396,72,127,40
5.71428,6.428565,75,127,40
6.428565,7.6785636,74,127,40
7.857135,8.214277,72,127,40
8.214277,8.392849,70,127,40
8.392849,8.563979,72,127,40
8.57142,9.813978,74,127,40
9.821419,9.99255,74,127,40
9.99999,10.357133,75,127,40
10.357133,10.535704,74,127,40
10.535704,10.706835,75,127,40
10.714275,11.071418,76,127,40
11.071418,11.249989,75,127,40
11.249989,11.42112,76,127,40
11.42856,11.964273,79,127,40
11.964273,12.135405,78,127,40
12.142845,13.921117,74,127,40
13.928557,14.278259,74,127,40
14.2857,14.999985,82,127,40
14.999985,16.428555,80,127,40
16.428555,16.785698,79,127,40
16.785698,16.96427,77,127,40
16.96427,17.14284,75,127,40
17.14284,17.857124,79,127,40
17.857124,19.285694,77,127,40
19.285694,19.642838,75,127,40
19.642838,19.82141,74,127,40
19.82141,19.99998,72,127,40
19.99998,21.242538,71,127,40
21.249979,21.42111,71,127,40
21.42855,21.785692,72,127,40
21.785692,21.964264,70,127,40
21.964264,22.135395,67,127,40
22.142836,22.499977,68,127,40
22.499977,22.678549,70,127,40
22.678549,22.84968,72,127,40
22.85712,24.099678,71,127,40
24.107119,24.27825,71,127,40
24.28569,24.642832,72,127,40
24.642832,24.821404,70,127,40
24.821404,24.992535,67,127,40
24.999975,25.357117,68,127,40
25.357117,25.535688,70,127,40
25.535688,25.70682,72,127,40
25.71426,26.956818,66,127,40
26.964258,27.13539,74,127,40
27.14283,27.678543,70,127,40
27.678543,27.857115,62,127,40
27.857115,28.5714,69,127,40
28.5714,30.349672,67,127,40
32.142826,32.85711,62,127,40
32.85711,33.571396,74,127,40
33.571396,34.28568,72,127,40
34.28568,34.999966,71,127,40
34.999966,35.35711,70,127,40
35.35711,35.53568,69,127,40
35.53568,35.71425,67,127,40
35.71425,36.78568,65,127,40
36.78568,36.96425,64,127,40
36.96425,37.14282,65,127,40
37.14282,37.49996,66,127,40
37.49996,37.678535,65,127,40
37.678535,37.857105,66,127,40
37.857105,39.285675,67,127,40
39.285675,39.99996,68,127,40
39.99996,41.07139,69,127,40
41.07139,41.249958,70,127,40
41.249958,41.42853,72,127,40
41.42853,41.78567,74,127,40
41.78567,41.964245,75,127,40
41.964245,42.142815,76,127,40
42.142815,42.321384,77,127,40
42.321384,42.499958,78,127,40
42.499958,42.678528,79,127,40
42.678528,42.8571,81,127,40
42.8571,43.921085,82,127,40
44.821384,44.992516,60,127,40
44.999954,45.178528,62,127,40
45.178528,45.349655,65,127,40
45.357098,45.535667,65,127,40
45.535667,45.7068,74,127,40
45.71424,46.428524,82,127,40
46.428524,47.49251,81,127,40
50.535664,50.714233,58,127,40
50.714233,50.892807,60,127,40
50.892807,51.071377,63,127,40
51.071377,51.24995,63,127,40
51.24995,51.42852,72,127,40
51.42852,52.142803,80,127,40
52.142803,53.20679,79,127,40
66.24993,66.42107,65,127,40
66.428505,66.60708,67,127,40
66.60708,66.785645,70,127,40
66.785645,66.96422,70,127,40
66.96422,67.14279,79,127,40
67.14279,67.85708,87,127,40
67.85708,68.92106,86,127,40
88.41199,88.78699,67,127,40
88.78699,89.16199,65,127,40
89.16199,89.529175,63,127,40
89.53699,89.72449,62,127,40
89.72449,89.904175,63,127,40
89.91199,90.28699,65,127,40
90.28699,90.84949,67,127,40
90.84949,91.03699,67,127,40
91.03699,91.78699,67,127,40
91.78699,92.34949,72,127,40
92.34949,92.53699,67,127,40
92.53699,93.91199,67,127,40
94.41199,94.78699,67,127,40
94.78699,95.16199,65,127,40
95.16199,95.53699,63,127,40
95.53699,95.72449,62,127,40
95.72449,95.91199,63,127,40
95.91199,96.28699,65,127,40
96.28699,96.84949,67,127,40
96.84949,97.03699,67,127,40
97.03699,97.78699,67,127,40
97.78699,98.34949,73,127,40
98.34949,98.53699,67,127,40
98.53699,99.654175,67,127,40
99.66199,100.03699,64,127,40
100.03699,100.41199,65,127,40
100.41199,100.78699,67,127,40
100.78699,101.16199,70,127,40
101.16199,101.53699,68,127,40
101.53699,101.91199,68,127,40
101.91199,102.28699,67,127,40
102.28699,102.84949,67,127,40
102.84949,103.03699,63,127,40
103.03699,103.78699,63,127,40
103.78699,104.34949,67,127,40
104.34949,104.53699,63,127,40
104.53699,105.654175,63,127,40
105.66199,106.03699,65,127,40
106.03699,106.41199,67,127,40
106.41199,106.78699,69,127,40
106.78699,107.16199,70,127,40
107.16199,107.53699,72,127,40
107.53699,107.81824,74,127,40
107.81824,107.91199,77,127,40
107.91199,108.279175,75,127,40
108.28699,108.84949,75,127,40
108.84949,109.03699,71,127,40
109.03699,109.78699,71,127,40
109.78699,110.34949,75,127,40
110.34949,110.53699,71,127,40
110.53699,111.66199,71,127,40
111.66199,112.03699,75,127,40
112.03699,112.41199,73,127,40
112.41199,112.78699,71,127,40
112.78699,112.97449,73,127,40
112.97449,113.16199,75,127,40
113.16199,113.53699,76,127,40
113.53699,114.091675,78,127,40
114.09949,114.279175,78,127,40
114.28699,114.66199,78,127,40
114.66199,115.03699,80,127,40
115.03699,115.591675,82,127,40
115.59949,115.779175,82,127,40
115.78699,116.53699,82,127,40
116.53699,117.09949,85,127,40
117.09949,117.279175,82,127,40
117.28699,119.53699,82,127,40
119.53699,120.09949,85,127,40
120.09949,120.279175,82,127,40
120.28699,122.53699,82,127,40
122.53699,123.09949,85,127,40
123.09949,123.279175,82,127,40
123.28699,124.03699,82,127,40
124.03699,124.59949,87,127,40
124.59949,124.779175,82,127,40
124.78699,125.53699,82,127,40
125.53699,126.09949,89,127,40
126.09949,126.279175,82,127,40
126.28699,127.41199,89,127,40
127.41199,127.78699,88,127,40
127.78699,128.16199,87,127,40
128.16199,128.53699,85,127,40
128.53699,128.91199,84,127,40
128.91199,129.28699,82,127,40
129.28699,130.03699,80,127,40
130.03699,131.15417,81,127,40
132.28699,133.41199,89,127,40
133.41199,133.78699,88,127,40
133.78699,134.16199,87,127,40
134.16199,134.53699,85,127,40
134.53699,134.91199,84,127,40
134.91199,135.27917,82,127,40
135.28699,136.03699,80,127,40
136.03699,137.15417,81,127,40
138.28699,139.41199,89,127,40
139.41199,139.78699,88,127,40
139.78699,140.16199,87,127,40
140.16199,140.53699,85,127,40
140.53699,140.91199,84,127,40
140.91199,141.28699,82,127,40
141.28699,141.66199,80,127,40
141.66199,142.03699,75,127,40
142.03699,142.41199,78,127,40
142.41199,142.78699,76,127,40
142.78699,143.16199,75,127,40
143.16199,143.53699,73,127,40
143.53699,143.91199,71,127,40
143.91199,144.28699,70,127,40
144.28699,144.66199,68,127,40
144.66199,145.03699,67,127,40
145.03699,145.41199,65,127,40
145.41199,145.78699,63,127,40
145.78699,146.16199,62,127,40
146.16199,146.53699,60,127,40
146.53699,146.91199,58,127,40
146.91199,147.28699,56,127,40
147.28699,149.34949,55,127,40
149.53699,150.16199,63,127,40
150.28699,151.03699,75,127,40
151.03699,152.53699,74,127,40
152.53699,152.91199,71,127,40
152.91199,153.09949,69,127,40
153.09949,153.27917,67,127,40
153.28699,155.53699,67,127,40
155.53699,156.16199,67,127,40
156.28699,157.03699,79,127,40
157.03699,158.53699,78,127,40
158.53699,160.03699,75,127,40
160.03699,161.53699,74,127,40
161.53699,161.91199,71,127,40
161.91199,162.09949,69,127,40
162.09949,162.27917,67,127,40
162.28699,165.91199,67,127,40
189.9336,190.64787,88,127,40
190.64787,192.07645,87,127,40
192.07645,192.4336,85,127,40
192.4336,192.61215,83,127,40
192.61215,192.7833,82,127,40
192.79073,193.50502,85,127,40
193.50502,194.93358,83,127,40
194.93358,195.29073,81,127,40
195.29073,195.4693,80,127,40
195.4693,195.64043,81,127,40
195.64787,196.7193,83,127,40
196.7193,196.89787,82,127,40
196.89787,197.07645,83,127,40
197.07645,197.43358,84,127,40
197.43358,197.61215,83,127,40
197.61215,197.79073,84,127,40
197.79073,198.14787,85,127,40
198.14787,198.32645,84,127,40
198.32645,198.49757,85,127,40
198.505,199.04073,88,127,40
199.04073,199.2193,87,127,40
199.2193,200.4693,83,127,40
220.00874,220.72304,85,127,40
220.72304,222.15161,84,127,40
222.15161,222.50874,82,127,40
222.50874,222.68732,80,127,40
222.68732,222.86589,79,127,40
222.86589,223.58017,82,127,40
223.58017,225.00874,80,127,40
225.00874,225.36589,78,127,40
225.36589,225.54446,77,127,40
225.54446,225.71559,78,127,40
225.72304,226.79446,80,127,40
226.79446,226.97302,79,127,40
226.97302,227.1516,80,127,40
227.1516,227.50874,81,127,40
227.50874,227.68732,80,127,40
227.68732,227.86589,81,127,40
227.86589,228.22302,82,127,40
228.22302,228.4016,81,127,40
228.4016,228.57272,82,127,40
228.58017,229.11589,85,127,40
229.11589,229.29445,84,127,40
229.29445,230.54445,80,127,40
230.54445,230.72302,89,127,40
230.72302,231.31827,87,127,40
231.43732,232.1516,87,127,40
232.1516,233.58017,85,127,40
233.58017,233.9373,83,127,40
233.9373,234.11588,82,127,40
234.11588,234.287,80,127,40
234.29445,235.00873,83,127,40
235.00873,236.4373,82,127,40
236.4373,236.79445,80,127,40
236.79445,236.97302,79,127,40
236.97302,237.14415,80,127,40
237.1516,238.22302,82,127,40
238.22302,238.58015,84,127,40
238.58015,238.9373,85,127,40
238.9373,239.29445,87,127,40
239.29445,239.65158,89,127,40
239.65158,240.00873,77,127,40
240.00873,240.72302,77,127,40
240.72302,241.08015,76,127,40
241.08015,241.4373,72,127,40
241.4373,242.50873,84,127,40
242.50873,242.85843,72,127,40
242.86588,243.58015,70,127,40
243.58015,244.64415,69,127,40
260.0087,260.723,72,127,40
260.723,261.4373,70,127,40
261.4373,262.15155,68,127,40
262.15155,262.50128,67,127,40
262.86584,263.58014,75,127,40
263.58014,264.29443,73,127,40
264.29443,265.0087,71,127,40
265.0087,265.36584,70,127,40
265.36584,265.54443,68,127,40
265.54443,265.71555,66,127,40
265.723,266.4373,78,127,40
266.4373,267.15155,76,127,40
267.15155,267.86584,74,127,40
267.86584,268.223,73,127,40
268.223,268.40155,71,127,40
268.40155,268.5727,69,127,40
268.58014,268.92984,66,127,40
268.58014,268.92984,74,127,40
268.58014,268.92984,81,127,40
270.723,271.31824,69,127,40
271.43726,272.15155,81,127,40
272.15155,273.58014,80,127,40
273.58014,273.93726,78,127,40
273.93726,274.11584,76,127,40
274.11584,274.28696,74,127,40
274.2944,275.0087,78,127,40
275.0087,276.43726,77,127,40
276.43726,277.15155,78,127,40
277.15155,277.7468,81,127,40
279.2944,279.88965,69,127,40
280.0087,280.72296,81,127,40
280.72296,282.15155,80,127,40
282.15155,282.5087,78,127,40
282.5087,282.68726,76,127,40
282.68726,282.86584,74,127,40
282.86584,283.5801,78,127,40
283.5801,284.2944,77,127,40
284.2944,285.0087,76,127,40
285.0087,285.3658,74,127,40
285.3658,285.5444,73,127,40
285.5444,285.72296,71,127,40
285.72296,286.3182,70,127,40
287.8658,288.46106,66,127,40
288.5801,289.2944,78,127,40
289.2944,290.72296,79,127,40
290.72296,291.0801,78,127,40
291.0801,291.25867,74,127,40
291.25867,291.4298,76,127,40
291.43726,292.68726,78,127,40
297.15152,297.8658,62,127,40
297.8658,299.29437,63,127,40
299.29437,299.65152,62,127,40
299.65152,299.8301,58,127,40
299.8301,300.00122,60,127,40
300.00867,301.25867,62,127,40
311.43723,314.40247,63,127,40
314.40247,317.56033,64,127,40
311.43723,319.13928,57,127,40
317.56033,319.13928,66,127,40
319.13928,320.71823,55,127,40
319.13928,320.71823,64,127,40
320.71823,322.29718,57,127,40
320.71823,322.29718,66,127,40
322.29718,323.87613,55,127,40
322.29718,323.87613,64,127,40
323.87613,326.24454,57,127,40
323.87613,326.24454,66,127,40
326.24454,326.63928,69,127,40
326.63928,327.03403,73,127,40
327.03403,327.78403,80,127,40
327.78403,328.53403,76,127,40
328.53403,329.28403,71,127,40
329.28403,330.03403,68,127,40
330.03403,330.78403,73,127,40
330.78403,331.53403,80,127,40
331.53403,332.65903,83,127,40
332.65903,333.03403,74,127,40
333.03403,333.78403,73,127,40
333.78403,334.53403,80,127,40
334.53403,335.65903,83,127,40
335.65903,336.0262,74,127,40
336.03403,337.15903,73,127,40
337.15903,337.53403,80,127,40
337.53403,339.03403,80,127,40
339.03403,340.15903,72,127,40
340.15903,340.53403,80,127,40
340.53403,341.84653,80,127,40
342.03403,342.59653,79,127,40
342.59653,342.78403,74,127,40
342.78403,343.9012,74,127,40
346.53403,346.90903,74,127,40
346.90903,347.28403,70,127,40
347.28403,347.65903,65,127,40
347.65903,348.0262,62,127,40
348.03403,348.40903,67,127,40
348.40903,348.78403,74,127,40
348.78403,349.34653,77,127,40
349.34653,349.5262,68,127,40
349.53403,349.90903,67,127,40
349.90903,350.28403,74,127,40
350.28403,350.84653,77,127,40
350.84653,351.0262,68,127,40
351.03403,351.59653,67,127,40
351.59653,351.68246,79,127,40
351.78403,353.2655,79,127,40
353.2655,353.63586,77,127,40
353.63586,353.99854,68,127,40
354.00623,354.74698,79,127,40
354.74698,355.11734,77,127,40
355.11734,355.48,68,127,40
355.48773,355.8581,66,127,40
355.8581,356.22845,59,127,40
356.22845,356.59882,63,127,40
356.59882,356.9615,66,127,40
356.9692,357.33185,67,127,40
357.33957,357.70993,79,127,40
357.70993,358.08032,77,127,40
358.08032,358.44296,68,127,40
358.45068,358.82104,66,127,40
358.82104,359.1914,59,127,40
359.1914,359.5618,63,127,40
359.5618,359.92444,66,127,40
359.93216,360.2948,67,127,40
360.30252,360.6729,79,127,40
360.6729,361.04327,77,127,40
361.04327,361.4059,73,127,40
361.41364,361.77948,71,127,40
361.77948,362.14536,78,127,40
362.14536,362.69412,81,127,40
362.69412,362.86945,72,127,40
362.87704,363.24292,71,127,40
363.24292,363.60876,78,127,40
363.60876,364.15753,81,127,40
364.15753,364.33286,72,127,40
364.34045,364.88162,71,127,40
364.88925,364.97308,83,127,40
365.07217,366.1621,83,127,40
366.16974,366.53558,78,127,40
366.53558,367.08438,81,127,40
367.08438,367.25967,72,127,40
367.2673,367.80844,71,127,40
367.81607,367.89993,83,127,40
367.999,369.08893,83,127,40
369.09656,369.4624,78,127,40
369.4624,370.0112,81,127,40
370.0112,370.1865,72,127,40
370.19412,370.7353,71,127,40
370.74292,370.82675,83,127,40
370.92584,371.52823,83,127,40
371.6487,372.18335,72,127,40
372.1909,372.2737,84,127,40
372.3716,372.97403,84,127,40
373.0945,373.62915,73,127,40
373.63666,373.7195,85,127,40
373.81738,374.8942,85,127,40
374.90173,375.26318,82,127,40
375.26318,375.62463,79,127,40
375.62463,375.97855,75,127,40
375.98605,376.3475,73,127,40
376.3475,376.70142,70,127,40
376.70895,377.2436,67,127,40
377.25113,377.33395,79,127,40
377.43185,378.6969,77,127,40
379.60052,380.20294,67,127,40
380.32343,380.91864,79,127,40
381.0377,382.10168,77,127,40
382.46628,383.0615,67,127,40
383.18054,383.7758,79,127,40
383.89484,384.49008,67,127,40
384.60913,385.20438,79,127,40
385.3234,385.91864,67,127,40
386.0377,386.63293,79,127,40
386.75198,388.18054,77,127,40
388.18054,388.5377,75,127,40
388.5377,388.71628,74,127,40
388.71628,388.8874,72,127,40
388.89484,389.60913,75,127,40
389.60913,390.85913,74,127,40
391.0377,391.39484,72,127,40
391.39484,391.5734,70,127,40
391.5734,391.74454,72,127,40
391.75198,392.99454,74,127,40
393.00198,393.1731,74,127,40
393.18054,393.5377,75,127,40
393.5377,393.71625,74,127,40
393.71625,393.8874,75,127,40
393.89484,394.25198,76,127,40
394.25198,394.43054,75,127,40
394.43054,394.60168,76,127,40
394.6091,395.14484,79,127,40
395.14484,395.31595,78,127,40
395.3234,397.10168,74,127,40
397.1091,397.4588,74,127,40
397.46625,398.18054,82,127,40
398.18054,399.6091,80,127,40
399.6091,399.96625,79,127,40
399.96625,400.14484,77,127,40
400.14484,400.3234,75,127,40
400.3234,401.0377,79,127,40
401.0377,402.46625,77,127,40
402.46625,402.8234,75,127,40
402.8234,403.00195,74,127,40
403.00195,403.18054,72,127,40
403.18054,404.4231,71,127,40
404.43054,404.60165,71,127,40
404.6091,404.96625,72,127,40
404.96625,405.1448,70,127,40
405.1448,405.31595,67,127,40
405.3234,405.68054,68,127,40
405.68054,405.8591,70,127,40
405.8591,406.03024,72,127,40
406.0377,407.28024,71,127,40
407.28766,407.4588,71,127,40
407.46625,407.8234,72,127,40
407.8234,408.00195,70,127,40
408.00195,408.1731,67,127,40
408.18054,408.53766,68,127,40
408.53766,408.71625,70,127,40
408.71625,408.88736,72,127,40
408.8948,410.13736,66,127,40
410.1448,410.31595,74,127,40
410.3234,410.8591,70,127,40
410.8591,411.03766,62,127,40
411.03766,411.75195,69,127,40
411.75195,413.5302,67,127,40
415.32336,416.03766,62,127,40
416.03766,416.75195,74,127,40
416.75195,417.46625,72,127,40
417.46625,418.1805,71,127,40
418.1805,418.53766,70,127,40
418.53766,418.71625,69,127,40
418.71625,418.8948,67,127,40
418.8948,419.96622,65,127,40
419.96622,420.1448,64,127,40
420.1448,420.32336,65,127,40
420.32336,420.6805,66,127,40
420.6805,420.8591,65,127,40
420.8591,421.03766,66,127,40
421.03766,422.46622,67,127,40
422.46622,423.1805,68,127,40
423.1805,424.07336,69,127,40
424.07336,424.25195,70,127,40
424.25195,424.4305,72,127,40
424.4305,424.60165,74,127,40
424.60907,424.78766,75,127,40
424.78766,424.96622,69,127,40
424.96622,425.1448,70,127,40
425.1448,425.32336,72,127,40
425.32336,425.50195,74,127,40
425.50195,425.6805,76,127,40
425.6805,425.85907,77,127,40
425.85907,426.0302,79,127,40
426.03766,427.10165,81,127,40
428.00195,428.1805,59,127,40
428.1805,428.35907,61,127,40
428.35907,428.5302,64,127,40
428.53766,428.71622,64,127,40
428.71622,428.88736,73,127,40
428.8948,429.60907,81,127,40
429.60907,430.67307,80,127,40
433.71622,433.89478,57,127,40
433.89478,434.07336,59,127,40
434.07336,434.24448,62,127,40
434.25192,434.4305,62,127,40
434.4305,434.60162,71,127,40
434.60907,435.32336,79,127,40
435.32336,436.38736,78,127,40
459.23444,459.98444,56,127,40
459.98444,461.35944,55,127,40
467.89566,468.27066,55,127,40
468.27066,468.64566,59,127,40
468.64566,469.02066,60,127,40
469.02066,469.77066,62,127,40
469.77066,470.39566,61,127,40
470.52066,471.27066,60,127,40
471.27066,472.02066,61,127,40
472.02066,472.77066,60,127,40
472.77066,473.13785,61,127,40
479.14566,479.52066,79,127,40
479.52066,479.89566,77,127,40
479.89566,480.27066,75,127,40
480.27066,480.45816,77,127,40
480.45816,480.64566,79,127,40
480.64566,481.02066,80,127,40
481.02066,481.57535,82,127,40
481.58316,481.76285,82,127,40
481.77066,482.14566,82,127,40
482.14566,482.52066,84,127,40
482.52066,483.07535,86,127,40
483.08316,483.26285,86,127,40
483.27066,484.02066,86,127,40
484.02066,484.58316,89,127,40
484.58316,484.77066,86,127,40
484.77066,487.02066,86,127,40
487.02066,487.58316,89,127,40
487.58316,487.76285,86,127,40
487.77066,489.83316,86,127,40
490.02066,490.58316,77,127,40
490.58316,490.76285,74,127,40
490.77066,491.39566,74,127,40
491.52066,492.08316,79,127,40
492.08316,492.26285,74,127,40
492.27066,492.89566,74,127,40
493.02066,493.58316,81,127,40
493.58316,493.76285,74,127,40
493.77066,494.89566,81,127,40
494.89566,495.27066,80,127,40
495.27066,495.64566,79,127,40
495.64566,496.02066,77,127,40
496.02066,496.39566,76,127,40
496.39566,496.76285,74,127,40
496.77066,497.52066,72,127,40
497.52066,498.63785,73,127,40
499.77066,500.89566,81,127,40
500.89566,501.27066,80,127,40
501.27066,501.64566,79,127,40
501.64566,502.02066,77,127,40
502.02066,502.39566,76,127,40
502.39566,502.76285,74,127,40
502.77066,503.52066,72,127,40
503.52066,504.63785,73,127,40
505.77066,506.13785,81,127,40
506.14566,506.89566,93,127,40
506.89566,507.27066,92,127,40
507.27066,507.64566,91,127,40
507.64566,508.02066,89,127,40
508.02066,508.39566,88,127,40
508.39566,508.76285,86,127,40
508.77066,509.14566,84,127,40
509.14566,509.52066,79,127,40
509.52066,509.89566,82,127,40
509.89566,510.27066,80,127,40
510.27066,510.64566,79,127,40
510.64566,511.02066,77,127,40
511.02066,511.39566,75,127,40
511.39566,511.77066,74,127,40
511.77066,512.1456,72,127,40
512.1456,512.5206,71,127,40
512.5206,512.8956,69,127,40
512.8956,513.2706,67,127,40
513.2706,513.6456,66,127,40
513.6456,514.0206,64,127,40
514.0206,514.3956,62,127,40
514.3956,514.7628,60,127,40
514.7706,516.8331,59,127,40
517.0206,517.6456,67,127,40
517.7706,518.5206,79,127,40
518.5206,520.0206,78,127,40
520.0206,520.3956,75,127,40
520.3956,520.5831,73,127,40
520.5831,520.7706,71,127,40
520.7706,522.8331,71,127,40
523.0206,523.6456,71,127,40
523.7706,524.5206,83,127,40
524.5206,526.0206,82,127,40
526.0206,527.5206,79,127,40
527.5206,529.0206,78,127,40
529.0206,529.3956,75,127,40
529.3956,529.5831,73,127,40
529.5831,529.7628,71,127,40
529.7706,532.0206,71,127,40
532.0206,532.3956,75,127,40
532.3956,532.5831,73,127,40
532.5831,532.7628,71,127,40
532.7706,535.0206,71,127,40
535.0206,535.3956,74,127,40
535.3956,535.5831,72,127,40
535.5831,535.7628,71,127,40
535.7706,538.0206,71,127,40
538.0206,538.2081,76,127,40
538.2081,538.3956,75,127,40
538.3956,538.5831,73,127,40
538.5831,538.7628,71,127,40
538.7706,541.0206,71,127,40
541.0206,541.3956,74,127,40
541.3956,541.5831,72,127,40
541.5831,541.7628,71,127,40
541.7706,542.1378,71,127,40
550.9318,551.5568,83,127,40
551.6818,552.9943,81,127,40
553.1818,553.5568,79,127,40
553.5568,553.7443,78,127,40
553.7443,553.924,76,127,40
553.9318,554.6818,79,127,40
554.6818,555.4318,78,127,40
555.4318,556.1818,76,127,40
556.1818,556.5568,66,127,40
556.5568,557.299,67,127,40
557.3068,557.674,69,127,40
557.6818,558.83954,71,127,40
558.848,559.2493,72,127,40
559.258,559.6729,74,127,40
559.6818,560.1113,66,127,40
560.12054,560.87054,69,127,40
560.87054,562.37054,67,127,40
562.37054,562.74554,66,127,40
562.74554,562.93304,64,127,40
562.93304,563.12054,62,127,40
563.12054,563.87054,71,127,40
563.87054,564.98773,69,127,40
564.99554,565.37054,71,127,40
565.37054,565.74554,72,127,40
565.74554,566.12054,74,127,40
566.12054,566.87054,76,127,40
566.87054,568.74554,74,127,40
568.74554,568.93304,73,127,40
568.93304,569.11273,71,127,40
569.12054,569.87054,78,127,40
569.87054,570.98773,76,127,40
570.99554,571.37054,74,127,40
571.37054,571.74554,76,127,40
571.74554,572.12054,78,127,40
572.12054,572.87054,81,127,40
572.87054,574.37054,79,127,40
574.37054,574.74554,78,127,40
574.74554,574.93304,76,127,40
574.93304,575.11273,74,127,40
575.12054,575.87054,83,127,40
575.87054,576.99554,81,127,40
576.99554,577.36273,83,127,40
577.37054,577.99554,84,127,40
578.12054,581.74713,83,127,40
581.8753,582.52313,85,127,40
582.65466,588.9934,86,127,40
589.00085,589.35803,83,127,40
589.35803,589.71515,79,127,40
589.71515,590.0649,74,127,40
590.0723,590.42944,76,127,40
590.42944,590.78656,79,127,40
590.78656,591.3223,83,127,40
591.3223,591.4934,78,127,40
591.50085,591.85803,76,127,40
591.85803,592.21515,79,127,40
592.21515,592.75085,83,127,40
592.75085,592.922,78,127,40
592.92944,593.46515,76,127,40
593.46515,593.6363,83,127,40
593.64374,594.23895,83,127,40
595.78656,596.14374,87,127,40
596.14374,596.50085,86,127,40
596.50085,596.85803,83,127,40
596.85803,597.03656,81,127,40
597.03656,597.21515,79,127,40
597.21515,597.92944,78,127,40
597.92944,598.52466,79,127,40
600.78656,601.38184,67,127,40
601.50085,602.09607,79,127,40
602.21515,603.64374,77,127,40
603.64374,604.00085,75,127,40
604.00085,604.17944,74,127,40
604.17944,604.3506,72,127,40
604.358,604.95325,75,127,40
605.07227,606.50085,74,127,40
606.50085,606.858,72,127,40
606.858,607.03656,70,127,40
607.03656,607.2077,68,127,40
607.21515,607.81036,72,127,40
607.92944,609.358,71,127,40
609.358,609.71515,68,127,40
609.71515,609.8937,66,127,40
609.8937,610.0648,64,127,40
610.07227,610.66754,64,127,40
610.78656,612.21515,63,127,40
612.21515,612.57227,59,127,40
612.57227,612.75085,58,127,40
612.75085,612.922,56,127,40
612.92944,613.52466,63,127,40
613.6437,615.07227,62,127,40
615.07227,615.42944,59,127,40
615.42944,615.608,57,127,40
615.608,615.7791,55,127,40
615.78656,616.3818,64,127,40
616.50085,617.9294,63,127,40
617.9294,618.28656,59,127,40
618.28656,618.46515,58,127,40
618.46515,618.6437,56,127,40
618.6437,619.358,63,127,40
619.358,620.608,62,127,40
620.78656,621.1437,59,127,40
621.1437,621.32227,57,127,40
621.32227,621.50085,55,127,40
621.50085,622.21515,63,127,40
622.21515,623.46515,62,127,40
623.6437,624.00085,59,127,40
624.00085,624.1794,57,127,40
624.1794,624.358,55,127,40
624.358,625.78656,55,127,40
625.78656,626.50085,56,127,40
626.50085,627.09607,57,127,40
627.2151,628.6437,55,127,40
628.6437,629.358,56,127,40
629.358,629.9532,57,127,40
630.07227,632.2151,59,127,40
632.2151,635.07227,59,127,40
635.07227,642.67145,59,127,40
2.142855,2.7380924,55,127,41
2.85714,3.4523776,67,127,41
3.571425,4.999995,65,127,41
4.999995,5.3571377,63,127,41
5.3571377,5.535709,62,127,41
5.535709,5.7068396,60,127,41
5.71428,6.428565,63,127,41
6.428565,7.6785636,62,127,41
7.857135,8.214277,60,127,41
8.214277,8.392849,58,127,41
8.392849,8.563979,60,127,41
8.57142,9.813978,62,127,41
9.821419,9.99255,62,127,41
9.99999,10.357133,63,127,41
10.357133,10.535704,62,127,41
10.535704,10.706835,63,127,41
10.714275,11.071418,64,127,41
11.071418,11.249989,63,127,41
11.249989,11.42112,64,127,41
11.42856,11.964273,67,127,41
11.964273,12.135405,66,127,41
12.142845,13.921117,62,127,41
13.928557,14.278259,62,127,41
14.2857,14.999985,70,127,41
14.999985,16.428555,68,127,41
16.428555,16.785698,67,127,41
16.785698,16.96427,65,127,41
16.96427,17.14284,63,127,41
17.14284,17.857124,67,127,41
17.857124,19.285694,65,127,41
19.285694,19.642838,63,127,41
19.642838,19.82141,62,127,41
19.82141,19.99998,60,127,41
19.99998,21.242538,59,127,41
21.249979,21.42111,59,127,41
21.42855,21.785692,60,127,41
21.785692,21.964264,58,127,41
21.964264,22.135395,55,127,41
22.142836,22.499977,56,127,41
22.499977,22.678549,58,127,41
22.678549,22.84968,60,127,41
22.85712,24.099678,59,127,41
24.107119,24.27825,59,127,41
24.28569,24.642832,60,127,41
24.642832,24.821404,58,127,41
24.821404,24.992535,55,127,41
24.999975,25.357117,56,127,41
25.357117,25.535688,58,127,41
25.535688,25.70682,60,127,41
25.71426,26.956818,54,127,41
26.964258,27.13539,62,127,41
27.14283,27.678543,58,127,41
27.678543,27.857115,50,127,41
27.857115,28.5714,57,127,41
28.5714,30.349672,55,127,41
32.142826,32.85711,62,127,41
32.85711,33.571396,74,127,41
33.571396,34.28568,72,127,41
34.28568,34.999966,71,127,41
34.999966,35.35711,70,127,41
35.35711,35.53568,69,127,41
35.53568,35.71425,67,127,41
35.71425,36.78568,65,127,41
36.78568,36.96425,64,127,41
36.96425,37.14282,65,127,41
37.14282,37.49996,66,127,41
37.49996,37.678535,65,127,41
37.678535,37.857105,66,127,41
37.857105,39.285675,67,127,41
39.285675,39.99996,68,127,41
39.99996,41.07139,69,127,41
41.07139,41.249958,70,127,41
41.249958,41.42853,72,127,41
41.42853,41.78567,74,127,41
41.78567,41.964245,75,127,41
41.964245,42.142815,76,127,41
42.142815,42.499958,77,127,41
42.499958,42.8571,65,127,41
42.8571,43.571384,63,127,41
43.571384,44.166622,62,127,41
44.28567,44.999954,57,127,41
44.999954,45.357098,58,127,41
45.357098,45.7068,57,127,41
45.71424,46.428524,55,127,41
46.428524,47.49251,57,127,41
47.678524,47.849655,48,127,41
47.857094,48.035667,53,127,41
48.035667,48.214237,57,127,41
48.214237,48.392807,60,127,41
48.392807,48.56394,65,127,41
48.57138,49.285664,61,127,41
49.285664,49.99995,60,127,41
49.99995,50.714233,55,127,41
50.714233,51.071377,56,127,41
51.071377,51.42852,55,127,41
51.42852,52.142803,53,127,41
52.142803,53.20679,55,127,41
53.928516,54.28566,58,127,41
54.28566,55.71423,67,127,41
55.71423,56.428516,65,127,41
56.428516,57.1428,63,127,41
57.1428,57.678513,62,127,41
57.678513,57.857086,63,127,41
57.857086,58.57137,65,127,41
58.57137,59.099644,67,127,41
59.107082,59.18893,67,127,41
59.285656,59.99994,67,127,41
59.99994,61.242496,72,127,41
61.24994,61.331783,67,127,41
61.42851,63.206783,67,127,41
65.35708,65.71422,58,127,41
65.71422,66.428505,72,127,41
66.428505,67.14279,70,127,41
67.14279,67.85708,69,127,41
67.85708,68.92106,70,127,41
69.642784,69.99249,58,127,41
69.99993,71.4285,67,127,41
71.4285,72.142784,65,127,41
72.142784,72.85707,63,127,41
72.85707,73.392784,62,127,41
73.392784,73.57136,63,127,41
73.57136,74.28564,65,127,41
74.28564,74.81391,67,127,41
74.82135,74.992485,67,127,41
74.99992,75.71421,67,127,41
75.71421,76.95677,72,127,41
76.96421,77.04605,67,127,41
77.14278,78.206764,67,127,41
78.21421,78.57135,67,127,41
78.57135,79.81391,73,127,41
79.82135,79.90319,67,127,41
79.99992,83.4523,67,127,41
91.78699,93.91199,58,127,41
99.28699,100.03699,58,127,41
100.03699,100.41199,56,127,41
100.41199,100.78699,51,127,41
100.78699,101.16199,55,127,41
101.16199,101.53699,56,127,41
101.53699,102.16199,58,127,41
102.28699,103.03699,57,127,41
103.03699,103.78699,56,127,41
103.78699,104.53699,57,127,41
104.53699,105.28699,56,127,41
105.28699,105.91199,57,127,41
108.28699,109.03699,65,127,41
109.03699,109.78699,64,127,41
109.78699,110.53699,65,127,41
110.53699,111.28699,64,127,41
111.28699,111.91199,65,127,41
118.41199,118.779175,70,127,41
118.78699,119.34949,68,127,41
119.34949,119.529175,58,127,41
119.53699,120.654175,58,127,41
120.66199,121.03699,51,127,41
121.03699,121.404175,58,127,41
121.41199,121.78699,70,127,41
121.78699,122.34949,68,127,41
122.34949,122.529175,58,127,41
122.53699,123.654175,58,127,41
123.66199,124.03699,51,127,41
124.03699,124.404175,58,127,41
124.41199,124.78699,70,127,41
124.78699,125.34949,68,127,41
125.34949,125.529175,58,127,41
125.53699,125.91199,58,127,41
125.91199,126.279175,68,127,41
126.28699,129.28699,67,127,41
129.28699,130.03699,68,127,41
130.03699,130.78699,66,127,41
130.78699,131.16199,62,127,41
131.16199,131.53699,64,127,41
131.53699,132.28699,66,127,41
132.28699,135.28699,67,127,41
135.28699,136.03699,68,127,41
136.03699,136.78699,66,127,41
136.78699,137.16199,62,127,41
137.16199,137.53699,64,127,41
137.53699,138.16199,66,127,41
138.28699,141.28699,67,127,41
141.28699,142.78699,68,127,41
142.78699,143.53699,70,127,41
143.53699,144.28699,71,127,41
144.28699,145.41199,72,127,41
145.41199,145.78699,56,127,41
145.78699,146.16199,58,127,41
146.16199,146.53699,60,127,41
146.53699,147.28699,62,127,41
147.28699,149.34949,63,127,41
149.53699,150.16199,63,127,41
150.28699,151.03699,75,127,41
151.03699,152.53699,74,127,41
152.53699,152.91199,71,127,41
152.91199,153.09949,69,127,41
153.09949,153.27917,67,127,41
153.28699,155.53699,67,127,41
155.53699,156.16199,67,127,41
156.28699,157.03699,79,127,41
157.03699,158.53699,78,127,41
158.53699,160.03699,75,127,41
160.03699,161.53699,74,127,41
161.53699,161.91199,71,127,41
161.91199,162.09949,69,127,41
162.09949,162.27917,67,127,41
162.28699,171.94489,67,127,41
172.07646,172.86594,63,127,41
172.86594,173.65541,58,127,41
173.65541,174.44489,55,127,41
174.44489,175.10278,60,127,41
175.23436,176.02383,67,127,41
176.02383,177.20804,70,127,41
177.20804,177.60277,61,127,41
177.60277,178.26067,60,127,41
178.39224,179.18172,67,127,41
179.18172,180.36594,70,127,41
180.36594,180.75244,61,127,41
180.76067,181.94487,60,127,41
181.94487,182.33139,67,127,41
182.33961,187.07645,67,127,41
187.07645,192.79073,68,127,41
192.79073,194.81454,69,127,41
198.505,201.36215,59,127,41
201.36215,202.15163,60,127,41
202.15163,202.9411,56,127,41
202.9411,203.73058,51,127,41
203.73058,204.52005,48,127,41
204.52005,205.30951,53,127,41
205.30951,206.09898,60,127,41
206.09898,207.2832,63,127,41
207.2832,207.67793,54,127,41
207.67793,208.33583,53,127,41
208.4674,209.25688,60,127,41
209.25688,210.44109,63,127,41
210.44109,210.83583,54,127,41
210.83583,212.02003,53,127,41
212.02003,212.40656,60,127,41
212.41478,215.17793,60,127,41
215.17793,215.56444,64,127,41
215.57266,217.15161,64,127,41
217.15161,222.86589,65,127,41
222.86589,224.8897,66,127,41
241.973,242.15158,69,127,41
242.15158,242.74683,67,127,41
242.86588,243.58015,67,127,41
243.58015,245.00873,65,127,41
245.00873,245.36588,63,127,41
245.36588,245.54443,62,127,41
245.54443,245.71558,60,127,41
245.723,246.4373,63,127,41
246.4373,247.86586,62,127,41
247.86586,248.223,60,127,41
248.223,248.40158,58,127,41
248.40158,248.57271,60,127,41
248.58015,250.723,62,127,41
250.723,251.08015,63,127,41
251.08015,251.25871,62,127,41
251.25871,251.42986,60,127,41
251.43729,253.58014,62,127,41
253.58014,253.93729,63,127,41
253.93729,254.11586,62,127,41
254.11586,254.28699,60,127,41
254.29443,256.4373,65,127,41
256.4373,256.79443,66,127,41
256.79443,256.973,65,127,41
256.973,257.14413,63,127,41
257.15158,259.29443,65,127,41
259.29443,259.65158,66,127,41
259.65158,259.83014,65,127,41
259.83014,260.00128,63,127,41
260.0087,262.15155,62,127,41
262.15155,262.5087,63,127,41
262.5087,262.6873,62,127,41
262.6873,262.8584,60,127,41
262.86584,265.0087,65,127,41
265.0087,265.36584,66,127,41
265.36584,265.54443,65,127,41
265.54443,265.71555,63,127,41
265.723,267.86584,68,127,41
267.86584,268.223,69,127,41
268.223,268.40155,68,127,41
268.40155,268.5727,66,127,41
268.58014,268.92984,57,127,41
268.58014,268.92984,62,127,41
268.58014,268.92984,69,127,41
272.15155,272.7468,50,127,41
272.86584,273.4611,62,127,41
273.58014,275.0087,59,127,41
275.0087,275.723,56,127,41
275.723,277.15155,61,127,41
277.15155,277.7468,57,127,41
280.72296,281.43726,50,127,41
281.43726,282.15155,62,127,41
282.15155,285.3658,59,127,41
285.3658,285.5444,61,127,41
285.5444,285.72296,62,127,41
285.72296,286.3182,61,127,41
294.2944,295.00867,66,127,41
295.00867,296.43726,67,127,41
296.43726,296.7944,66,127,41
296.7944,296.97296,62,127,41
296.97296,297.1441,64,127,41
297.15152,298.40152,66,127,41
300.00867,300.72296,54,127,41
300.72296,302.15152,55,127,41
302.15152,302.50867,54,127,41
302.50867,302.68723,50,127,41
302.68723,302.85837,52,127,41
302.8658,303.46106,54,127,41
311.43723,319.13928,61,127,41
319.13928,320.71823,59,127,41
320.71823,322.29718,61,127,41
322.29718,323.87613,59,127,41
323.87613,325.25772,61,127,41
325.45508,325.84982,49,127,41
325.84982,326.24454,54,127,41
326.24454,326.63928,57,127,41
326.63928,327.03403,61,127,41
327.03403,331.53403,56,127,41
327.03403,331.53403,64,127,41
331.53403,333.03403,62,127,41
331.53403,333.03403,66,127,41
333.03403,334.53403,56,127,41
333.03403,334.53403,64,127,41
334.53403,336.03403,62,127,41
334.53403,336.03403,66,127,41
336.03403,338.84653,56,127,41
336.03403,338.84653,64,127,41
340.53403,342.03403,48,127,41
342.03403,342.65903,50,127,41
339.03403,342.65903,58,127,41
351.03403,351.40903,71,127,41
351.40903,351.78403,67,127,41
351.78403,352.1544,62,127,41
352.1544,352.51706,58,127,41
352.52475,352.89514,63,127,41
352.89514,353.2655,70,127,41
353.2655,353.82104,73,127,41
353.82104,353.99854,65,127,41
354.00623,354.37662,63,127,41
354.37662,354.74698,70,127,41
354.74698,355.30252,73,127,41
355.30252,355.48,65,127,41
355.48773,356.04327,63,127,41
356.04327,356.12814,75,127,41
356.22845,357.33185,75,127,41
357.33957,357.70993,70,127,41
357.70993,358.2655,73,127,41
358.2655,358.44296,65,127,41
358.45068,359.00623,63,127,41
359.00623,359.09113,75,127,41
359.1914,360.2948,75,127,41
360.30252,360.6729,70,127,41
360.6729,361.22845,73,127,41
361.22845,361.4059,65,127,41
361.41364,361.77948,66,127,41
361.77948,362.14536,57,127,41
362.14536,362.5112,60,127,41
362.5112,362.86945,65,127,41
362.87704,363.2353,66,127,41
363.24292,363.60876,57,127,41
363.60876,363.96698,60,127,41
363.9746,364.33286,65,127,41
364.34045,364.70633,66,127,41
364.70633,365.07217,62,127,41
365.07217,365.43802,59,127,41
365.43802,365.79626,54,127,41
365.8039,366.16974,57,127,41
366.16974,366.53558,59,127,41
366.53558,366.90143,60,127,41
366.90143,367.25967,65,127,41
367.2673,367.63315,66,127,41
367.63315,367.999,62,127,41
367.999,368.36487,59,127,41
368.36487,368.72308,54,127,41
368.7307,369.09656,57,127,41
369.09656,369.4624,59,127,41
369.4624,369.82828,60,127,41
369.82828,370.1865,65,127,41
370.19412,370.55237,66,127,41
370.55997,370.92584,54,127,41
370.92584,371.28726,59,127,41
371.28726,372.00262,67,127,41
372.01016,372.3716,55,127,41
372.3716,372.73306,60,127,41
372.73306,373.44843,68,127,41
373.45596,373.81738,56,127,41
373.81738,374.17883,61,127,41
374.17883,374.53275,69,127,41
374.54028,374.8942,67,127,41
374.54028,374.8942,70,127,41
374.90173,375.26318,70,127,41
375.26318,375.62463,67,127,41
375.62463,375.97855,63,127,41
375.98605,376.3475,61,127,41
376.3475,376.70142,58,127,41
376.70895,377.2436,55,127,41
377.25113,377.33395,67,127,41
377.43185,378.6969,65,127,41
379.60052,380.20294,55,127,41
380.32343,380.91864,67,127,41
381.0377,382.10168,65,127,41
382.46628,383.0615,55,127,41
383.18054,383.7758,67,127,41
383.89484,384.49008,55,127,41
384.60913,385.20438,67,127,41
385.3234,385.91864,55,127,41
386.0377,386.63293,67,127,41
386.75198,388.18054,65,127,41
388.18054,388.5377,63,127,41
388.5377,388.71628,62,127,41
388.71628,388.8874,60,127,41
388.89484,389.60913,63,127,41
389.60913,390.85913,62,127,41
391.0377,391.39484,60,127,41
391.39484,391.5734,58,127,41
391.5734,391.74454,60,127,41
391.75198,392.99454,62,127,41
393.00198,393.1731,62,127,41
393.18054,393.5377,63,127,41
393.5377,393.71625,62,127,41
393.71625,393.8874,63,127,41
393.89484,394.25198,64,127,41
394.25198,394.43054,63,127,41
394.43054,394.60168,64,127,41
394.6091,395.14484,67,127,41
395.14484,395.31595,66,127,41
395.3234,397.10168,62,127,41
397.1091,397.4588,62,127,41
397.46625,398.18054,70,127,41
398.18054,399.6091,68,127,41
399.6091,399.96625,67,127,41
399.96625,400.14484,65,127,41
400.14484,400.3234,63,127,41
400.3234,401.0377,67,127,41
401.0377,402.46625,65,127,41
402.46625,402.8234,63,127,41
402.8234,403.00195,62,127,41
403.00195,403.18054,60,127,41
403.18054,404.4231,59,127,41
404.43054,404.60165,59,127,41
404.6091,404.96625,60,127,41
404.96625,405.1448,58,127,41
405.1448,405.31595,55,127,41
405.3234,405.68054,56,127,41
405.68054,405.8591,58,127,41
405.8591,406.03024,60,127,41
406.0377,407.28024,59,127,41
407.28766,407.4588,59,127,41
407.46625,407.8234,60,127,41
407.8234,408.00195,58,127,41
408.00195,408.1731,55,127,41
408.18054,408.53766,56,127,41
408.53766,408.71625,58,127,41
408.71625,408.88736,60,127,41
408.8948,410.13736,54,127,41
410.1448,410.31595,62,127,41
410.3234,410.8591,58,127,41
410.8591,411.03766,50,127,41
411.03766,411.75195,57,127,41
411.75195,413.5302,55,127,41
415.32336,416.03766,62,127,41
416.03766,416.75195,74,127,41
416.75195,417.46625,72,127,41
417.46625,418.1805,71,127,41
418.1805,418.53766,70,127,41
418.53766,418.71625,69,127,41
418.71625,418.8948,67,127,41
418.8948,419.96622,65,127,41
419.96622,420.1448,64,127,41
420.1448,420.32336,65,127,41
420.32336,420.6805,66,127,41
420.6805,420.8591,65,127,41
420.8591,421.03766,66,127,41
421.03766,422.46622,67,127,41
422.46622,423.1805,68,127,41
423.1805,424.9588,69,127,41
424.96622,425.32336,67,127,41
425.32336,425.6805,65,127,41
425.6805,426.0302,64,127,41
426.03766,426.75195,52,127,41
426.03766,426.75195,62,127,41
426.75195,427.34717,61,127,41
427.46622,428.1805,56,127,41
428.1805,428.53766,57,127,41
428.53766,428.88736,56,127,41
428.8948,429.60907,54,127,41
429.60907,430.67307,56,127,41
430.85907,431.03766,59,127,41
431.03766,431.21622,52,127,41
431.21622,431.3948,56,127,41
431.3948,431.57336,59,127,41
431.57336,431.7445,64,127,41
431.75192,432.46622,60,127,41
432.46622,433.06146,59,127,41
433.1805,433.89478,54,127,41
433.89478,434.25192,55,127,41
434.25192,434.60162,54,127,41
434.60907,435.32336,52,127,41
435.32336,436.38736,54,127,41
437.10907,437.46622,50,127,41
437.46622,438.89478,59,127,41
438.89478,439.60907,57,127,41
439.60907,440.2043,55,127,41
440.32336,440.85907,54,127,41
440.85907,441.03763,55,127,41
441.03763,441.75192,57,127,41
441.75192,442.19092,59,127,41
442.28763,442.45877,59,127,41
442.46622,443.18048,59,127,41
443.18048,444.33377,64,127,41
444.43048,444.60162,59,127,41
444.60907,445.67307,59,127,41
445.68048,446.03763,59,127,41
446.03763,447.19092,65,127,41
447.28763,447.45877,59,127,41
447.46622,450.91858,59,127,41
459.23444,461.35944,50,127,41
469.02066,469.77066,55,127,41
469.77066,470.39566,52,127,41
470.52066,471.27066,51,127,41
471.27066,472.02066,52,127,41
472.02066,472.77066,51,127,41
472.77066,473.13785,52,127,41
473.14566,473.52066,57,127,41
473.52066,473.89566,59,127,41
473.89566,474.27066,61,127,41
474.27066,474.64566,62,127,41
474.64566,475.02066,64,127,41
475.02066,475.3019,66,127,41
475.3019,475.39566,69,127,41
475.39566,475.76285,67,127,41
475.77066,476.33316,67,127,41
476.33316,476.51285,63,127,41
476.52066,477.27066,63,127,41
477.27066,477.83316,67,127,41
477.83316,478.01285,63,127,41
478.02066,478.77066,63,127,41
478.77066,479.39566,63,127,41
484.39566,484.77066,70,127,41
484.77066,485.33316,69,127,41
485.33316,485.51285,62,127,41
485.52066,486.14566,62,127,41
486.27066,486.64566,68,127,41
486.64566,487.02066,74,127,41
487.02066,487.39566,72,127,41
487.39566,487.76285,70,127,41
487.77066,488.33316,69,127,41
488.33316,488.51285,62,127,41
488.52066,489.14566,62,127,41
489.27066,489.64566,68,127,41
489.64566,490.02066,74,127,41
490.02066,490.39566,72,127,41
490.39566,490.76285,68,127,41
490.77066,491.33316,67,127,41
491.33316,491.51285,62,127,41
491.52066,492.27066,62,127,41
492.27066,492.89566,68,127,41
493.02066,493.64566,69,127,41
493.77066,496.58316,65,127,41
496.77066,498.83316,66,127,41
499.02066,502.77066,65,127,41
502.77066,505.02066,66,127,41
505.02066,507.27066,65,127,41
507.27066,508.77066,71,127,41
508.77066,510.27066,72,127,41
510.27066,511.02066,74,127,41
511.02066,511.64566,75,127,41
511.77066,512.8956,76,127,41
512.8956,513.2706,60,127,41
513.2706,513.6456,62,127,41
513.6456,514.0206,64,127,41
514.0206,514.6456,66,127,41
514.7706,516.8331,67,127,41
517.0206,517.6456,55,127,41
517.7706,518.5206,67,127,41
518.5206,520.0206,66,127,41
520.0206,520.3956,63,127,41
520.3956,520.5831,61,127,41
520.5831,520.7706,59,127,41
520.7706,522.8331,59,127,41
523.0206,523.6456,59,127,41
523.7706,524.5206,71,127,41
524.5206,526.0206,70,127,41
526.0206,527.5206,67,127,41
527.5206,529.0206,66,127,41
529.0206,529.6456,63,127,41
529.7706,530.1456,62,127,41
530.1456,530.5206,64,127,41
530.5206,530.8956,66,127,41
530.8956,531.2628,67,127,41
531.2706,531.6456,70,127,41
531.6456,532.0206,68,127,41
532.0206,532.6456,67,127,41
532.7706,533.1456,62,127,41
533.1456,533.5206,63,127,41
533.5206,533.8956,64,127,41
533.8956,534.2628,66,127,41
534.2706,534.6456,69,127,41
534.6456,535.0206,67,127,41
535.0206,535.6456,66,127,41
535.7706,536.1456,62,127,41
536.1456,536.5206,64,127,41
536.5206,536.8956,66,127,41
536.8956,537.2628,67,127,41
537.2706,537.6456,70,127,41
537.6456,538.0206,68,127,41
538.0206,538.6456,67,127,41
538.7706,539.1456,62,127,41
539.1456,539.5206,63,127,41
539.5206,539.8956,64,127,41
539.8956,540.2706,66,127,41
540.2706,540.6456,69,127,41
540.6456,541.0206,67,127,41
541.0206,541.7706,66,127,41
541.7706,542.1378,65,127,41
547.9318,548.6818,74,127,41
548.6818,549.2443,72,127,41
549.2443,549.33026,71,127,41
549.4318,550.7443,71,127,41
550.9318,551.6818,68,127,41
551.6818,552.0568,69,127,41
552.0568,552.424,71,127,41
552.4318,552.8068,72,127,41
552.8068,553.1818,74,127,41
553.1818,554.3068,72,127,41
554.3068,554.6818,71,127,41
554.6818,555.0568,69,127,41
555.0568,555.2443,67,127,41
555.2443,555.424,66,127,41
555.4318,555.8068,69,127,41
555.8068,556.1818,67,127,41
556.1818,556.5568,66,127,41
556.5568,556.7443,64,127,41
556.7443,556.9318,63,127,41
556.9318,557.3068,66,127,41
557.3068,557.6818,64,127,41
557.6818,558.0664,62,127,41
558.0664,558.45105,64,127,41
558.45105,559.258,65,127,41
559.258,559.6818,66,127,41
559.6818,560.12054,60,127,41
560.12054,560.74554,59,127,41
560.87054,561.62054,55,127,41
561.62054,562.37054,64,127,41
562.37054,563.74554,62,127,41
563.87054,564.24554,61,127,41
564.24554,564.43304,59,127,41
564.43304,564.61273,57,127,41
564.62054,565.37054,67,127,41
565.37054,565.99554,66,127,41
566.12054,566.74554,67,127,41
566.87054,567.62054,62,127,41
567.62054,568.37054,69,127,41
568.37054,568.99554,68,127,41
569.12054,570.24554,67,127,41
570.24554,570.42523,66,127,41
570.43304,570.61273,64,127,41
570.62054,571.37054,71,127,41
571.37054,572.87054,69,127,41
572.87054,574.37054,67,127,41
574.37054,574.74554,66,127,41
574.74554,574.93304,64,127,41
574.93304,575.11273,62,127,41
575.12054,575.87054,71,127,41
575.87054,576.98773,69,127,41
576.99554,577.37054,71,127,41
577.37054,577.74554,72,127,41
577.74554,578.11273,74,127,41
578.12054,578.87054,76,127,41
578.87054,580.74554,74,127,41
580.74554,580.93304,73,127,41
580.93304,581.11273,71,127,41
581.12054,581.8753,78,127,41
581.8753,583.0463,76,127,41
583.05475,583.46014,74,127,41
583.46014,583.889,76,127,41
583.889,584.34796,78,127,41
584.35803,588.9934,74,127,41
589.00085,589.35803,71,127,41
589.35803,589.71515,67,127,41
589.71515,590.0649,62,127,41
590.0723,590.78656,60,127,41
590.78656,591.50085,62,127,41
591.50085,592.21515,60,127,41
592.21515,592.81036,62,127,41
592.92944,593.64374,60,127,41
593.64374,593.9934,62,127,41
594.00085,594.35803,66,127,41
594.35803,594.7077,71,127,41
594.71515,595.07227,70,127,41
595.07227,595.42944,67,127,41
595.42944,595.60803,65,127,41
595.60803,595.7791,63,127,41
595.78656,596.50085,58,127,41
596.50085,596.8506,59,127,41
596.85803,597.21515,62,127,41
597.21515,597.5648,71,127,41
597.57227,597.922,70,127,41
597.92944,598.2791,67,127,41
598.28656,598.4577,65,127,41
598.46515,598.6363,63,127,41
598.64374,599.35803,58,127,41
599.35803,599.7077,59,127,41
599.71515,600.07227,62,127,41
600.07227,600.422,71,127,41
600.42944,600.78656,70,127,41
600.78656,601.14374,67,127,41
601.14374,601.32227,65,127,41
601.32227,601.4934,63,127,41
601.50085,602.09607,67,127,41
601.50085,602.09607,79,127,41
602.21515,603.64374,65,127,41
602.21515,603.64374,77,127,41
603.64374,604.00085,75,127,41
604.00085,604.17944,74,127,41
604.17944,604.3506,72,127,41
604.358,604.95325,75,127,41
605.07227,606.50085,74,127,41
606.50085,606.858,72,127,41
606.858,607.03656,70,127,41
607.03656,607.2077,68,127,41
607.21515,607.81036,72,127,41
607.92944,609.358,71,127,41
609.358,609.71515,68,127,41
609.71515,609.8937,66,127,41
609.8937,610.0648,64,127,41
610.07227,610.66754,64,127,41
610.78656,612.21515,63,127,41
612.21515,612.57227,59,127,41
612.57227,612.75085,58,127,41
612.75085,612.922,56,127,41
612.92944,613.52466,63,127,41
613.6437,615.07227,62,127,41
615.07227,615.42944,59,127,41
615.42944,615.608,57,127,41
615.608,615.7791,55,127,41
615.78656,616.3818,64,127,41
616.50085,617.9294,63,127,41
617.9294,618.28656,59,127,41
618.28656,618.46515,58,127,41
618.46515,618.6437,56,127,41
618.6437,619.358,63,127,41
619.358,620.608,62,127,41
620.78656,621.1437,59,127,41
621.1437,621.32227,57,127,41
621.32227,621.50085,55,127,41
621.50085,622.21515,63,127,41
622.21515,623.46515,62,127,41
623.6437,625.07227,50,127,41
625.07227,627.03656,52,127,41
627.2151,627.9294,50,127,41
627.9294,629.8937,52,127,41
630.07227,632.2151,55,127,41
632.2151,635.07227,50,127,41
632.2151,635.07227,55,127,41
635.07227,642.67145,50,127,41
635.07227,642.67145,55,127,41
2.142855,2.7380924,55,127,42
2.85714,3.4523776,67,127,42
3.571425,4.999995,65,127,42
4.999995,5.3571377,63,127,42
5.3571377,5.535709,62,127,42
5.535709,5.7068396,60,127,42
5.71428,6.428565,63,127,42
6.428565,7.6785636,62,127,42
7.857135,8.214277,60,127,42
8.214277,8.392849,58,127,42
8.392849,8.563979,60,127,42
8.57142,9.813978,62,127,42
9.821419,9.99255,62,127,42
9.99999,10.357133,63,127,42
10.357133,10.535704,62,127,42
10.535704,10.706835,63,127,42
10.714275,11.071418,64,127,42
11.071418,11.249989,63,127,42
11.249989,11.42112,64,127,42
11.42856,11.964273,67,127,42
11.964273,12.135405,66,127,42
12.142845,13.921117,62,127,42
13.928557,14.278259,62,127,42
14.2857,14.999985,70,127,42
14.999985,16.428555,68,127,42
16.428555,16.785698,67,127,42
16.785698,16.96427,65,127,42
16.96427,17.14284,63,127,42
17.14284,17.857124,67,127,42
17.857124,19.285694,65,127,42
19.285694,19.642838,63,127,42
19.642838,19.82141,62,127,42
19.82141,19.99998,60,127,42
19.99998,21.242538,59,127,42
21.249979,21.42111,59,127,42
21.42855,21.785692,60,127,42
21.785692,21.964264,58,127,42
21.964264,22.135395,55,127,42
22.142836,22.499977,56,127,42
22.499977,22.678549,58,127,42
22.678549,22.84968,60,127,42
22.85712,24.099678,59,127,42
24.107119,24.27825,59,127,42
24.28569,24.642832,60,127,42
24.642832,24.821404,58,127,42
24.821404,24.992535,55,127,42
24.999975,25.357117,56,127,42
25.357117,25.535688,58,127,42
25.535688,25.70682,60,127,42
25.71426,26.956818,54,127,42
26.964258,27.13539,62,127,42
27.14283,27.678543,58,127,42
27.678543,27.857115,50,127,42
27.857115,28.5714,57,127,42
28.5714,30.349672,55,127,42
38.57139,39.99996,38,127,42
39.99996,40.714245,36,127,42
40.714245,41.42853,39,127,42
41.42853,42.142815,38,127,42
42.142815,42.8571,36,127,42
42.8571,43.45234,46,127,42
43.928528,44.27823,53,127,42
44.28567,44.999954,67,127,42
44.999954,45.71424,65,127,42
45.71424,46.428524,64,127,42
46.428524,47.49251,65,127,42
49.642807,49.992508,51,127,42
49.99995,50.714233,65,127,42
50.714233,51.42852,63,127,42
51.42852,52.142803,62,127,42
52.142803,53.20679,63,127,42
63.92851,64.278206,60,127,42
64.28565,64.99993,68,127,42
64.99993,65.71422,67,127,42
65.71422,66.428505,62,127,42
66.428505,66.785645,63,127,42
66.785645,67.14279,62,127,42
67.14279,67.85708,60,127,42
67.85708,68.92106,62,127,42
91.78699,92.53699,52,127,42
92.53699,93.91199,51,127,42
102.28699,105.91199,51,127,42
108.28699,111.91199,59,127,42
116.91199,117.28699,66,127,42
117.28699,117.84949,65,127,42
117.84949,118.029175,58,127,42
118.03699,118.66199,58,127,42
118.78699,119.16199,64,127,42
119.16199,119.53699,70,127,42
119.53699,119.91199,68,127,42
119.91199,120.279175,66,127,42
120.28699,120.84949,65,127,42
120.84949,121.029175,58,127,42
121.03699,121.66199,58,127,42
121.78699,122.16199,64,127,42
122.16199,122.53699,70,127,42
122.53699,122.91199,68,127,42
122.91199,123.28699,64,127,42
123.28699,123.84949,63,127,42
123.84949,124.029175,58,127,42
124.03699,124.78699,58,127,42
124.78699,125.53699,64,127,42
125.53699,126.28699,65,127,42
126.28699,129.28699,61,127,42
129.28699,130.78699,62,127,42
130.78699,131.53699,57,127,42
131.53699,135.28699,61,127,42
135.28699,136.78699,62,127,42
136.78699,137.53699,57,127,42
137.53699,141.28699,61,127,42
141.28699,142.03699,64,127,42
142.03699,143.53699,59,127,42
143.53699,144.28699,63,127,42
144.28699,145.41199,62,127,42
145.41199,145.78699,60,127,42
145.78699,146.16199,58,127,42
146.16199,146.53699,56,127,42
146.53699,146.91199,55,127,42
146.91199,147.28699,53,127,42
147.28699,149.34949,51,127,42
149.53699,150.16199,51,127,42
150.28699,151.03699,63,127,42
151.03699,152.53699,62,127,42
152.53699,152.91199,59,127,42
152.91199,153.09949,57,127,42
153.09949,153.27917,55,127,42
153.28699,155.53699,55,127,42
155.53699,156.16199,55,127,42
156.28699,157.03699,67,127,42
157.03699,158.53699,66,127,42
158.53699,160.03699,63,127,42
160.03699,161.53699,62,127,42
161.53699,161.91199,59,127,42
161.91199,162.09949,57,127,42
162.09949,162.27917,55,127,42
162.28699,171.94489,55,127,42
172.07646,172.86594,51,127,42
172.86594,173.65541,46,127,42
173.65541,174.44489,43,127,42
174.44489,175.10278,48,127,42
175.23436,176.02383,55,127,42
176.02383,177.20804,58,127,42
177.20804,177.60277,49,127,42
177.60277,178.26067,48,127,42
178.39224,179.18172,55,127,42
179.18172,180.36594,58,127,42
180.36594,180.75244,49,127,42
180.76067,181.94487,48,127,42
181.94487,182.33139,55,127,42
182.33961,187.07645,55,127,42
187.07645,192.79073,56,127,42
192.79073,194.81454,57,127,42
198.505,201.36215,59,127,42
201.36215,202.15163,60,127,42
202.15163,202.9411,56,127,42
202.9411,203.73058,51,127,42
203.73058,204.38846,48,127,42
204.52005,205.30951,53,127,42
205.30951,206.09898,60,127,42
206.09898,207.2832,63,127,42
207.2832,207.67793,54,127,42
207.67793,208.4674,53,127,42
208.4674,209.25688,60,127,42
209.25688,210.44109,63,127,42
210.44109,210.83583,54,127,42
210.83583,212.02003,53,127,42
212.02003,212.40656,60,127,42
212.41478,215.17793,60,127,42
215.17793,215.56444,52,127,42
215.57266,217.15161,52,127,42
217.15161,222.86589,53,127,42
222.86589,224.8897,54,127,42
236.25873,236.4373,67,127,42
236.4373,237.03255,65,127,42
237.1516,237.86588,65,127,42
237.86588,239.29445,63,127,42
239.29445,239.65158,61,127,42
239.65158,239.83015,60,127,42
239.83015,240.00873,58,127,42
240.00873,240.72302,61,127,42
240.72302,242.15158,60,127,42
242.15158,242.50873,58,127,42
242.50873,242.6873,57,127,42
242.6873,242.85843,58,127,42
242.86588,243.9373,60,127,42
243.9373,244.29443,62,127,42
244.29443,244.65158,63,127,42
244.65158,245.00873,65,127,42
245.00873,245.35843,67,127,42
245.36588,245.71558,55,127,42
245.723,246.4373,55,127,42
246.4373,246.79443,54,127,42
246.79443,247.14413,50,127,42
247.15158,247.74681,62,127,42
260.0087,260.723,56,127,42
260.723,261.4373,58,127,42
261.4373,262.15155,59,127,42
262.15155,262.50128,60,127,42
262.86584,263.58014,59,127,42
263.58014,264.29443,61,127,42
264.29443,265.0087,62,127,42
265.0087,265.36584,63,127,42
265.36584,265.54443,65,127,42
265.54443,265.71555,66,127,42
265.723,266.4373,62,127,42
266.4373,267.15155,64,127,42
267.15155,267.86584,65,127,42
267.86584,268.223,66,127,42
268.223,268.40155,68,127,42
268.40155,268.5727,69,127,42
268.58014,268.92984,57,127,42
268.58014,268.92984,66,127,42
269.2944,269.88965,38,127,42
270.0087,270.60394,50,127,42
270.723,272.0325,49,127,42
272.15155,273.58014,47,127,42
273.58014,274.17535,45,127,42
274.2944,275.0087,44,127,42
275.0087,275.723,47,127,42
275.723,276.43726,45,127,42
276.43726,277.15155,49,127,42
277.15155,277.7468,42,127,42
277.86584,278.46106,38,127,42
278.5801,279.17535,50,127,42
279.2944,280.60394,49,127,42
280.72296,282.15155,47,127,42
282.15155,283.5801,45,127,42
283.5801,284.2944,43,127,42
284.2944,285.0087,44,127,42
285.0087,285.72296,37,127,42
285.72296,286.3182,42,127,42
290.72296,291.3182,50,127,42
291.43726,292.15155,62,127,42
292.15155,293.5801,63,127,42
293.5801,293.93726,62,127,42
293.93726,294.1158,58,127,42
294.1158,294.28696,60,127,42
294.2944,295.5444,62,127,42
302.8658,303.5801,42,127,42
303.5801,305.00867,43,127,42
305.00867,305.24677,42,127,42
305.24677,305.48486,38,127,42
305.48486,305.7155,40,127,42
305.72296,306.43723,42,127,42
306.43723,307.8658,43,127,42
307.8658,308.1039,42,127,42
308.1039,308.342,38,127,42
308.342,308.57266,40,127,42
308.58008,314.40247,42,127,42
314.40247,317.56033,40,127,42
317.56033,325.84158,37,127,42
325.84982,326.24454,42,127,42
326.24454,326.63928,45,127,42
326.63928,327.03403,49,127,42
327.03403,329.84653,47,127,42
330.03403,335.84653,40,127,42
336.03403,341.84653,40,127,42
342.03403,342.40903,62,127,42
342.40903,342.78403,58,127,42
342.78403,343.15903,53,127,42
343.15903,343.5262,50,127,42
343.53403,343.90903,55,127,42
343.90903,344.28403,62,127,42
344.28403,344.84653,65,127,42
344.84653,345.0262,56,127,42
345.03403,345.40903,55,127,42
345.40903,345.78403,62,127,42
345.78403,346.34653,65,127,42
346.34653,346.5262,56,127,42
346.53403,347.09653,55,127,42
347.09653,347.2762,62,127,42
347.28403,348.4012,62,127,42
348.40903,348.78403,55,127,42
348.78403,349.15903,56,127,42
349.15903,349.9012,62,127,42
349.90903,350.28403,55,127,42
350.28403,350.65903,56,127,42
350.65903,351.40903,62,127,42
351.40903,351.7762,59,127,42
351.78403,352.1544,58,127,42
352.1544,352.51706,55,127,42
352.52475,352.89514,61,127,42
352.89514,353.2655,51,127,42
353.2655,353.62814,53,127,42
353.63586,354.3689,61,127,42
354.37662,354.74698,51,127,42
354.74698,355.11734,53,127,42
355.11734,355.48,61,127,42
355.48773,355.8581,59,127,42
355.8581,356.22845,54,127,42
356.22845,356.59882,51,127,42
356.59882,356.9615,47,127,42
356.9692,357.33957,46,127,42
357.33957,357.70993,52,127,42
357.70993,358.08032,53,127,42
358.08032,358.44296,61,127,42
358.45068,358.82104,59,127,42
358.82104,359.1914,54,127,42
359.1914,359.5618,51,127,42
359.5618,359.92444,47,127,42
359.93216,360.30252,46,127,42
360.30252,360.6729,52,127,42
360.6729,361.04327,53,127,42
361.04327,361.4059,56,127,42
361.41364,361.77948,57,127,42
361.77948,362.14536,47,127,42
362.14536,362.5112,53,127,42
362.5112,363.2353,57,127,42
363.24292,363.60876,47,127,42
363.60876,363.9746,53,127,42
363.9746,364.33286,57,127,42
364.34045,365.07217,59,127,42
365.07217,366.1621,54,127,42
366.16974,366.52795,47,127,42
366.53558,366.89383,53,127,42
366.90143,367.25967,57,127,42
367.2673,367.999,59,127,42
367.999,369.08893,54,127,42
369.09656,369.4624,47,127,42
369.4624,369.82828,53,127,42
369.82828,370.1865,57,127,42
370.19412,370.92584,59,127,42
370.92584,371.28726,55,127,42
371.28726,371.6412,50,127,42
372.01016,372.3716,60,127,42
372.3716,372.73306,56,127,42
372.73306,373.08698,51,127,42
373.45596,373.81738,61,127,42
373.81738,374.17883,57,127,42
374.17883,374.53275,52,127,42
374.54028,374.8942,51,127,42
376.70895,377.2436,55,127,42
377.25113,377.33395,67,127,42
377.43185,378.6969,65,127,42
379.60052,380.20294,55,127,42
380.32343,380.91864,67,127,42
381.0377,382.10168,65,127,42
382.46628,383.0615,55,127,42
383.18054,383.7758,67,127,42
383.89484,384.49008,55,127,42
384.60913,385.20438,67,127,42
385.3234,385.91864,55,127,42
386.0377,386.63293,67,127,42
386.75198,388.18054,65,127,42
388.18054,388.5377,63,127,42
388.5377,388.71628,62,127,42
388.71628,388.8874,60,127,42
388.89484,389.60913,63,127,42
389.60913,390.85913,62,127,42
391.0377,391.39484,60,127,42
391.39484,391.5734,58,127,42
391.5734,391.74454,60,127,42
391.75198,392.99454,62,127,42
393.00198,393.1731,62,127,42
393.18054,393.5377,63,127,42
393.5377,393.71625,62,127,42
393.71625,393.8874,63,127,42
393.89484,394.25198,64,127,42
394.25198,394.43054,63,127,42
394.43054,394.60168,64,127,42
394.6091,395.14484,67,127,42
395.14484,395.31595,66,127,42
395.3234,397.10168,62,127,42
397.1091,397.4588,62,127,42
397.46625,398.18054,70,127,42
398.18054,399.6091,68,127,42
399.6091,399.96625,67,127,42
399.96625,400.14484,65,127,42
400.14484,400.3234,63,127,42
400.3234,401.0377,67,127,42
401.0377,402.46625,65,127,42
402.46625,402.8234,63,127,42
402.8234,403.00195,62,127,42
403.00195,403.18054,60,127,42
403.18054,404.4231,59,127,42
404.43054,404.60165,59,127,42
404.6091,404.96625,60,127,42
404.96625,405.1448,58,127,42
405.1448,405.31595,55,127,42
405.3234,405.68054,56,127,42
405.68054,405.8591,58,127,42
405.8591,406.03024,60,127,42
406.0377,407.28024,59,127,42
407.28766,407.4588,59,127,42
407.46625,407.8234,60,127,42
407.8234,408.00195,58,127,42
408.00195,408.1731,55,127,42
408.18054,408.53766,56,127,42
408.53766,408.71625,58,127,42
408.71625,408.88736,60,127,42
408.8948,410.13736,54,127,42
410.1448,410.31595,62,127,42
410.3234,410.8591,58,127,42
410.8591,411.03766,50,127,42
411.03766,411.75195,57,127,42
411.75195,413.5302,55,127,42
421.75195,423.1805,38,127,42
423.1805,423.8948,39,127,42
423.8948,424.49005,38,127,42
424.60907,424.96622,36,127,42
424.96622,425.32336,48,127,42
425.32336,425.9186,47,127,42
426.03766,426.99002,45,127,42
427.10907,427.45877,52,127,42
427.46622,428.1805,66,127,42
428.1805,428.77576,64,127,42
428.8948,429.60907,63,127,42
429.60907,430.67307,64,127,42
432.82336,433.17307,50,127,42
433.1805,433.89478,64,127,42
433.89478,434.49002,62,127,42
434.60907,435.32336,61,127,42
435.32336,436.38736,62,127,42
455.85944,456.23444,59,127,42
456.23444,456.60944,57,127,42
456.60944,456.97662,55,127,42
456.98444,457.17194,54,127,42
457.17194,457.35162,55,127,42
457.35944,457.73444,57,127,42
457.73444,458.28912,59,127,42
458.29694,458.42975,59,127,42
458.48444,459.23444,59,127,42
459.23444,459.79694,64,127,42
459.79694,459.92975,59,127,42
459.98444,461.35944,59,127,42
461.85944,462.23444,59,127,42
462.23444,462.60944,57,127,42
462.60944,462.97662,55,127,42
462.98444,463.17194,54,127,42
463.17194,463.35162,55,127,42
463.35944,463.73444,57,127,42
463.73444,464.28912,59,127,42
464.29694,464.42975,59,127,42
464.48444,465.23444,59,127,42
465.23444,465.79813,65,127,42
465.79813,465.93262,59,127,42
465.988,467.13754,59,127,42
467.14566,467.52066,56,127,42
467.52066,467.89566,57,127,42
467.89566,468.26285,59,127,42
468.27066,468.64566,62,127,42
468.64566,469.01285,60,127,42
469.02066,469.39566,60,127,42
469.39566,469.76285,59,127,42
469.77066,470.33316,59,127,42
470.33316,470.46597,55,127,42
470.52066,471.27066,55,127,42
471.27066,471.83316,59,127,42
471.83316,471.96597,55,127,42
472.02066,473.13785,55,127,42
475.77066,476.52066,51,127,42
475.77066,476.52066,57,127,42
476.52066,477.27066,56,127,42
477.27066,478.02066,51,127,42
477.27066,478.02066,57,127,42
478.02066,478.77066,56,127,42
478.77066,479.39566,51,127,42
478.77066,479.39566,57,127,42
485.89566,486.27066,62,127,42
486.27066,486.83316,60,127,42
486.83316,487.01285,50,127,42
487.02066,488.13785,50,127,42
488.14566,488.52066,50,127,42
488.52066,488.88785,55,127,42
488.89566,489.26285,62,127,42
489.27066,489.83316,60,127,42
489.83316,490.01285,50,127,42
490.02066,491.13785,50,127,42
491.14566,491.52066,50,127,42
491.52066,491.88785,55,127,42
491.89566,492.26285,62,127,42
492.27066,492.83316,60,127,42
492.83316,493.01285,50,127,42
493.02066,493.39566,50,127,42
493.39566,493.76285,60,127,42
493.77066,496.58316,59,127,42
496.77066,497.52066,60,127,42
497.52066,498.27066,58,127,42
498.27066,498.64566,54,127,42
498.64566,499.02066,56,127,42
499.02066,499.64566,58,127,42
499.77066,502.77066,59,127,42
502.77066,503.52066,60,127,42
503.52066,504.27066,58,127,42
504.27066,504.64566,54,127,42
504.64566,505.02066,56,127,42
505.02066,505.64566,58,127,42
505.77066,507.27066,59,127,42
507.27066,508.77066,65,127,42
508.77066,509.52066,68,127,42
509.52066,511.02066,63,127,42
511.02066,511.64566,67,127,42
511.77066,512.8956,66,127,42
512.8956,513.2706,64,127,42
513.2706,513.6456,62,127,42
513.6456,514.0206,60,127,42
514.0206,514.3956,59,127,42
514.3956,514.7628,57,127,42
514.7706,516.8331,55,127,42
517.0206,517.6456,55,127,42
517.7706,518.5206,67,127,42
518.5206,520.0206,66,127,42
520.0206,520.3956,63,127,42
520.3956,520.5831,61,127,42
520.5831,520.7706,59,127,42
520.7706,522.8331,59,127,42
523.0206,523.6456,59,127,42
523.7706,524.5206,71,127,42
524.5206,526.0206,70,127,42
526.0206,527.5206,67,127,42
527.5206,529.0206,66,127,42
529.0206,529.3956,63,127,42
529.3956,529.5831,61,127,42
529.5831,529.7628,59,127,42
529.7706,532.3956,59,127,42
532.3956,532.7628,58,127,42
532.7706,535.3956,59,127,42
535.3956,535.7628,57,127,42
535.7706,538.3956,59,127,42
538.3956,538.7628,58,127,42
538.7706,541.3956,59,127,42
541.3956,542.1378,57,127,42
549.4318,550.1818,65,127,42
550.1818,550.7443,64,127,42
550.7443,550.83026,62,127,42
550.9318,551.6818,62,127,42
551.6818,552.0568,60,127,42
552.0568,552.424,62,127,42
552.4318,552.8068,64,127,42
552.8068,553.1818,66,127,42
553.1818,553.8068,64,127,42
553.9318,555.4318,63,127,42
555.4318,556.0568,64,127,42
556.1818,556.9318,57,127,42
556.9318,557.3068,59,127,42
557.3068,557.6818,60,127,42
557.6818,558.848,62,127,42
558.848,559.258,60,127,42
559.258,559.6818,59,127,42
559.6818,560.12054,57,127,42
560.12054,561.62054,50,127,42
561.62054,562.37054,55,127,42
562.37054,563.12054,56,127,42
563.12054,563.87054,55,127,42
563.87054,564.24554,57,127,42
564.24554,564.62054,59,127,42
564.62054,566.12054,60,127,42
566.12054,569.87054,59,127,42
569.87054,570.62054,61,127,42
570.62054,572.87054,62,127,42
572.87054,573.62054,55,127,42
573.62054,574.37054,64,127,42
574.37054,575.74554,62,127,42
575.87054,576.24554,61,127,42
576.24554,576.43304,59,127,42
576.43304,576.61273,57,127,42
576.62054,577.37054,67,127,42
577.37054,577.99554,66,127,42
578.12054,578.74554,67,127,42
578.87054,579.62054,62,127,42
579.62054,580.37054,69,127,42
580.37054,580.99554,68,127,42
581.12054,582.25995,67,127,42
582.25995,582.45734,66,127,42
582.45734,582.6465,64,127,42
582.65466,583.46014,71,127,42
583.46014,583.87976,69,127,42
583.889,588.9934,62,127,42
589.00085,589.3506,59,127,42
589.35803,590.78656,55,127,42
590.78656,591.38184,54,127,42
591.50085,592.21515,55,127,42
592.21515,592.92944,54,127,42
592.92944,593.64374,55,127,42
593.64374,595.07227,54,127,42
595.07227,595.66754,55,127,42
598.28656,598.6363,58,127,42
598.64374,599.00085,63,127,42
599.00085,599.35803,62,127,42
599.35803,599.71515,59,127,42
599.71515,599.89374,57,127,42
599.89374,600.07227,55,127,42
600.07227,600.78656,54,127,42
600.78656,601.38184,55,127,42
601.50085,602.09607,67,127,42
602.21515,603.64374,65,127,42
603.64374,604.00085,63,127,42
604.00085,604.17944,62,127,42
604.17944,604.3506,60,127,42
604.358,604.95325,63,127,42
605.07227,606.50085,62,127,42
606.50085,606.858,60,127,42
606.858,607.03656,58,127,42
607.03656,607.2077,56,127,42
607.21515,607.81036,60,127,42
607.92944,609.358,59,127,42
609.358,609.71515,56,127,42
609.71515,609.8937,54,127,42
609.8937,610.0648,52,127,42
610.07227,610.66754,52,127,42
610.78656,612.21515,51,127,42
612.21515,612.57227,47,127,42
612.57227,612.75085,46,127,42
612.75085,612.922,44,127,42
612.92944,613.52466,51,127,42
613.6437,615.07227,50,127,42
615.07227,615.42944,47,127,42
615.42944,615.608,45,127,42
615.608,615.7791,43,127,42
615.78656,616.3818,52,127,42
616.50085,617.9294,51,127,42
617.9294,618.28656,47,127,42
618.28656,618.46515,46,127,42
618.46515,618.6437,44,127,42
618.6437,619.358,51,127,42
619.358,620.608,50,127,42
620.78656,621.1437,47,127,42
621.1437,621.32227,45,127,42
621.32227,621.50085,43,127,42
621.50085,622.21515,51,127,42
622.21515,623.46515,50,127,42
623.6437,626.50085,47,127,42
626.50085,627.09607,49,127,42
627.2151,629.358,47,127,42
629.358,629.9532,49,127,42
630.07227,632.2151,50,127,42
632.2151,635.07227,43,127,42
632.2151,635.07227,50,127,42
635.07227,642.67145,43,127,42
635.07227,642.67145,50,127,42
0.0,0.08184516,67,127,0
0.08928563,0.17113078,74,127,0
0.17857125,0.26041642,70,127,0
0.26785687,0.34970203,74,127,0
0.3571425,0.43898764,67,127,0
0.44642812,0.5282733,74,127,0
0.53571373,0.6175589,62,127,0
0.6249994,0.7068445,74,127,0
0.714285,0.7961302,67,127,0
0.8035706,0.8854158,74,127,0
0.89285624,0.9747014,70,127,0
0.98214185,1.063987,74,127,0
1.0714275,1.1532726,67,127,0
1.1607131,1.2425582,74,127,0
1.2499988,1.3318439,62,127,0
1.3392844,1.4211296,74,127,0
1.42857,1.5104152,67,127,0
1.5178556,1.5997008,74,127,0
1.6071413,1.6889864,70,127,0
1.6964269,1.778272,74,127,0
1.7857125,1.8675576,67,127,0
1.8749981,1.9568433,74,127,0
1.9642837,2.046129,62,127,0
2.0535693,2.1354146,74,127,0
2.142855,2.2247002,67,127,0
2.2321405,2.3139858,74,127,0
2.3214262,2.4032714,70,127,0
2.4107118,2.492557,74,127,0
2.4999976,2.5818427,67,127,0
2.5892832,2.6711283,74,127,0
2.6785688,2.760414,62,127,0
2.7678545,2.8496995,74,127,0
2.85714,2.938985,67,127,0
2.9464257,3.0282707,74,127,0
3.0357113,3.1175563,70,127,0
3.124997,3.206842,74,127,0
3.2142825,3.2961276,67,127,0
3.3035681,3.3854132,74,127,0
3.3928537,3.474699,62,127,0
3.4821393,3.5639846,74,127,0
3.571425,3.6532702,69,127,0
3.6607106,3.7425559,74,127,0
3.7499962,3.8318415,72,127,0
3.8392818,3.921127,74,127,0
3.9285674,4.0104127,69,127,0
4.0178533,4.099698,74,127,0
4.1071386,4.188984,62,127,0
4.1964245,4.27827,74,127,0
4.28571,4.367555,69,127,0
4.3749957,4.456841,74,127,0
4.464281,4.5461264,72,127,0
4.553567,4.635412,74,127,0
4.6428523,4.7246976,69,127,0
4.732138,4.8139834,74,127,0
4.8214235,4.903269,62,127,0
4.9107094,4.9925547,74,127,0
4.999995,5.08184,69,127,0
5.0892806,5.171126,74,127,0
5.1785665,5.2604113,72,127,0
5.267852,5.349697,74,127,0
5.3571377,5.4389825,69,127,0
5.446423,5.5282683,74,127,0
5.535709,5.6175537,62,127,0
5.6249943,5.7068396,74,127,0
5.71428,5.796125,67,127,0
5.8035655,5.885411,74,127,0
5.8928514,5.9746966,69,127,0
5.9821367,6.063982,74,127,0
6.0714226,6.153268,67,127,0
6.160708,6.242553,74,127,0
6.249994,6.331839,62,127,0
6.339279,6.4211245,74,127,0
6.428565,6.5104103,65,127,0
6.5178504,6.5996957,74,127,0
6.6071362,6.6889815,69,127,0
6.696422,6.778267,74,127,0
6.7857075,6.8675528,65,127,0
6.8749933,6.956838,74,127,0
6.9642787,7.046124,62,127,0
7.0535645,7.1354094,74,127,0
7.14285,7.224695,65,127,0
7.232136,7.3139806,74,127,0
7.321421,7.4032664,69,127,0
7.410707,7.492552,74,127,0
7.4999924,7.5818377,65,127,0
7.589278,7.6711235,74,127,0
7.6785636,7.760409,62,127,0
7.7678494,7.8496947,74,127,0
7.857135,7.93898,63,127,0
7.9464207,8.028266,74,127,0
8.0357065,8.117552,67,127,0
8.124991,8.206837,74,127,0
8.214277,8.296123,63,127,0
8.303563,8.385408,74,127,0
8.392849,8.474694,62,127,0
8.482135,8.563979,74,127,0
8.57142,8.653265,64,127,0
8.660706,8.742551,74,127,0
8.749991,8.831837,67,127,0
8.839277,8.921122,74,127,0
8.928562,9.010407,64,127,0
9.017848,9.099693,74,127,0
9.107134,9.188979,62,127,0
9.19642,9.278265,74,127,0
9.285705,9.36755,65,127,0
9.37499,9.456836,74,127,0
9.464276,9.546122,68,127,0
9.553562,9.635407,74,127,0
9.642847,9.724692,65,127,0
9.732133,9.813978,74,127,0
9.821419,9.903264,62,127,0
9.910705,9.99255,74,127,0
9.99999,10.081835,66,127,0
10.089275,10.171121,74,127,0
10.178561,10.2604065,69,127,0
10.267847,10.349692,74,127,0
10.357133,10.438977,66,127,0
10.446418,10.528263,74,127,0
10.535704,10.617549,62,127,0
10.6249895,10.706835,74,127,0
10.714275,10.79612,67,127,0
10.80356,10.885406,74,127,0
10.892846,10.974691,70,127,0
10.982132,11.063977,74,127,0
11.071418,11.153263,67,127,0
11.160703,11.242548,74,127,0
11.249989,11.331834,62,127,0
11.339274,11.42112,74,127,0
11.42856,11.510406,68,127,0
11.517845,11.59969,74,127,0
11.607131,11.688976,71,127,0
11.696417,11.778262,74,127,0
11.785703,11.867548,68,127,0
11.874989,11.956833,74,127,0
11.964273,12.046119,62,127,0
12.053559,12.135405,74,127,0
12.142845,12.22469,69,127,0
12.232131,12.313975,74,127,0
12.321416,12.403261,72,127,0
12.410702,12.492547,74,127,0
12.499988,12.581833,69,127,0
12.589273,12.671119,74,127,0
12.678558,12.760404,62,127,0
12.767844,12.8496895,74,127,0
12.85713,12.938975,69,127,0
12.946416,13.028261,74,127,0
13.035701,13.117546,72,127,0
13.124987,13.206832,74,127,0
13.2142725,13.296118,69,127,0
13.303558,13.385404,74,127,0
13.392844,13.474689,62,127,0
13.482129,13.563974,74,127,0
13.571415,13.65326,69,127,0
13.660701,13.742546,74,127,0
13.749987,13.831831,72,127,0
13.839272,13.921117,74,127,0
13.928557,14.010403,69,127,0
14.017843,14.099689,74,127,0
14.107129,14.188974,62,127,0
14.196414,14.278259,74,127,0
14.2857,14.367545,65,127,0
14.374986,14.456831,74,127,0
14.464272,14.546117,70,127,0
14.553556,14.635402,74,127,0
14.642842,14.724688,65,127,0
14.732128,14.813973,74,127,0
14.821414,14.903259,62,127,0
14.9107,14.992544,74,127,0
14.999985,15.08183,65,127,0
15.089271,15.171116,74,127,0
15.178556,15.260402,72,127,0
15.267842,15.349687,74,127,0
15.357127,15.438972,65,127,0
15.446413,15.528258,74,127,0
15.535699,15.617544,62,127,0
15.624985,15.706829,74,127,0
15.71427,15.796115,65,127,0
15.8035555,15.885401,74,127,0
15.892841,15.974687,72,127,0
15.982127,16.063972,74,127,0
16.071413,16.153257,65,127,0
16.160698,16.242544,74,127,0
16.249983,16.33183,62,127,0
16.33927,16.421114,74,127,0
16.428555,16.5104,67,127,0
16.517841,16.599686,74,127,0
16.607126,16.68897,72,127,0
16.696411,16.778257,74,127,0
16.785698,16.867542,67,127,0
16.874983,16.95683,74,127,0
16.96427,17.046114,62,127,0
17.053555,17.135399,74,127,0
17.14284,17.224686,68,127,0
17.232126,17.31397,74,127,0
17.321411,17.403255,72,127,0
17.410696,17.492542,74,127,0
17.499983,17.581827,68,127,0
17.589268,17.671114,74,127,0
17.678555,17.760399,62,127,0
17.76784,17.849684,74,127,0
17.857124,17.93897,67,127,0
17.946411,18.028255,74,127,0
18.035696,18.117542,72,127,0
18.12498,18.206827,74,127,0
18.214268,18.296112,67,127,0
18.303553,18.385399,74,127,0
18.39284,18.474684,62,127,0
18.482124,18.563969,74,127,0
18.57141,18.653255,67,127,0
18.660696,18.74254,74,127,0
18.74998,18.831827,72,127,0
18.839268,18.921112,74,127,0
18.928553,19.010397,67,127,0
19.017838,19.099684,74,127,0
19.107124,19.188969,62,127,0
19.19641,19.278255,74,127,0
19.285694,19.36754,69,127,0
19.37498,19.456825,74,127,0
19.464266,19.546112,72,127,0
19.553553,19.635397,74,127,0
19.642838,19.724682,69,127,0
19.732122,19.813969,74,127,0
19.82141,19.903254,62,127,0
19.910694,19.99254,74,127,0
19.99998,20.081825,68,127,0
20.089266,20.17111,76,127,0
20.17855,20.260397,71,127,0
20.267838,20.349682,76,127,0
20.357122,20.438967,68,127,0
20.446407,20.528254,76,127,0
20.535694,20.617538,62,127,0
20.624979,20.706825,76,127,0
20.714266,20.79611,68,127,0
20.80355,20.885395,76,127,0
20.892836,20.974682,71,127,0
20.982122,21.063967,76,127,0
21.071407,21.153254,68,127,0
21.160692,21.242538,76,127,0
21.249979,21.331823,62,127,0
21.339264,21.42111,76,127,0
21.42855,21.510395,68,127,0
21.517836,21.59968,75,127,0
21.60712,21.688967,72,127,0
21.696407,21.778252,75,127,0
21.785692,21.867538,68,127,0
21.874979,21.956823,75,127,0
21.964264,22.046108,62,127,0
22.053549,22.135395,75,127,0
22.142836,22.22468,67,127,0
22.23212,22.313965,75,127,0
22.321405,22.403252,72,127,0
22.410692,22.492537,75,127,0
22.499977,22.581823,67,127,0
22.589264,22.671108,75,127,0
22.678549,22.760393,62,127,0
22.767834,22.84968,75,127,0
22.85712,22.938965,68,127,0
22.946405,23.028252,76,127,0
23.03569,23.117537,71,127,0
23.124977,23.206821,76,127,0
23.214262,23.296108,68,127,0
23.303549,23.385393,76,127,0
23.392834,23.474678,62,127,0
23.482119,23.563965,76,127,0
23.571405,23.65325,68,127,0
23.66069,23.742537,76,127,0
23.749977,23.831821,71,127,0
23.839262,23.921106,76,127,0
23.928547,24.010393,68,127,0
24.017834,24.099678,76,127,0
24.107119,24.188965,62,127,0
24.196404,24.27825,76,127,0
24.28569,24.367535,68,127,0
24.374975,24.456821,75,127,0
24.464262,24.546106,72,127,0
24.553547,24.635391,75,127,0
24.642832,24.724678,68,127,0
24.732119,24.813963,75,127,0
24.821404,24.90325,62,127,0
24.91069,24.992535,75,127,0
24.999975,25.08182,67,127,0
25.08926,25.171106,75,127,0
25.178547,25.260391,72,127,0
25.267832,25.349676,75,127,0
25.357117,25.438963,67,127,0
25.446404,25.528248,75,127,0
25.535688,25.617535,62,127,0
25.624975,25.70682,75,127,0
25.71426,25.796104,66,127,0
25.803545,25.885391,74,127,0
25.892832,25.974676,71,127,0
25.982117,26.063963,74,127,0
26.071402,26.153248,66,127,0
26.160688,26.242533,74,127,0
26.249973,26.33182,62,127,0
26.33926,26.421104,74,127,0
26.428545,26.51039,66,127,0
26.51783,26.599676,74,127,0
26.607117,26.688961,71,127,0
26.696402,26.778248,74,127,0
26.785688,26.867533,66,127,0
26.874973,26.956818,74,127,0
26.964258,27.046104,62,127,0
27.053545,27.13539,74,127,0
27.14283,27.224674,66,127,0
27.232115,27.313961,74,127,0
27.321402,27.403246,70,127,0
27.410686,27.492533,74,127,0
27.499973,27.581818,66,127,0
27.589258,27.671103,74,127,0
27.678543,27.76039,62,127,0
27.76783,27.849674,74,127,0
27.857115,27.938961,66,127,0
27.9464,28.028246,74,127,0
28.035686,28.11753,72,127,0
28.124971,28.206818,74,127,0
28.214258,28.296103,66,127,0
28.303543,28.385387,74,127,0
28.392828,28.474674,62,127,0
28.482115,28.56396,74,127,0
28.5714,28.653246,67,127,0
28.660686,28.74253,74,127,0
28.749971,28.831816,70,127,0
28.839256,28.921103,74,127,0
28.928543,29.010387,67,127,0
29.017828,29.099674,74,127,0
29.107113,29.18896,62,127,0
29.1964,29.278244,74,127,0
30.714254,31.42854,67,127,0
30.714254,31.42854,79,127,0
31.42854,32.142826,79,127,0
31.42854,32.142826,91,127,0
32.142826,33.571396,77,127,0
32.142826,33.571396,89,127,0
33.571396,33.92854,75,127,0
33.571396,33.92854,87,127,0
33.92854,34.10711,74,127,0
33.92854,34.10711,86,127,0
34.10711,34.28568,72,127,0
34.10711,34.28568,84,127,0
34.28568,34.999966,75,127,0
34.28568,34.999966,87,127,0
34.999966,36.428535,74,127,0
34.999966,36.428535,86,127,0
36.428535,37.14282,82,127,0
36.428535,37.14282,94,127,0
37.14282,38.21425,74,127,0
37.14282,38.21425,86,127,0
38.21425,38.39282,73,127,0
38.21425,38.39282,85,127,0
38.39282,38.57139,74,127,0
38.39282,38.57139,86,127,0
38.57139,38.92853,75,127,0
38.57139,38.92853,87,127,0
38.92853,39.107105,74,127,0
38.92853,39.107105,86,127,0
39.107105,39.285675,75,127,0
39.107105,39.285675,87,127,0
39.285675,39.64282,76,127,0
39.285675,39.64282,88,127,0
39.64282,39.82139,75,127,0
39.64282,39.82139,87,127,0
39.82139,39.99252,76,127,0
39.82139,39.99252,88,127,0
39.99996,40.535675,79,127,0
39.99996,40.535675,91,127,0
40.535675,40.706806,75,127,0
40.535675,40.706806,87,127,0
40.714245,41.778233,77,127,0
40.714245,41.778233,89,127,0
42.142815,42.738052,81,127,0
42.8571,43.571384,79,127,0
42.8571,43.571384,91,127,0
43.571384,44.64281,77,127,0
43.571384,44.64281,89,127,0
44.64281,44.999954,75,127,0
44.64281,44.999954,87,127,0
44.999954,45.357098,74,127,0
44.999954,45.357098,86,127,0
45.357098,45.535667,72,127,0
45.357098,45.535667,84,127,0
45.535667,45.7068,70,127,0
45.535667,45.7068,82,127,0
45.71424,46.428524,74,127,0
45.71424,46.428524,86,127,0
46.428524,47.49251,72,127,0
46.428524,47.49251,84,127,0
48.214237,48.56394,65,127,0
48.214237,48.56394,77,127,0
48.57138,49.285664,77,127,0
48.57138,49.285664,89,127,0
49.285664,50.357094,75,127,0
49.285664,50.357094,87,127,0
50.357094,50.714233,73,127,0
50.357094,50.714233,85,127,0
50.714233,51.071377,72,127,0
50.714233,51.071377,84,127,0
51.071377,51.24995,70,127,0
51.071377,51.24995,82,127,0
51.24995,51.421078,68,127,0
51.24995,51.421078,80,127,0
51.42852,52.142803,72,127,0
51.42852,52.142803,84,127,0
52.142803,53.20679,70,127,0
52.142803,53.20679,82,127,0
54.999947,56.428516,70,127,0
56.428516,57.1428,72,127,0
57.1428,57.857086,74,127,0
57.857086,58.57137,72,127,0
58.57137,59.099644,71,127,0
59.107082,59.813927,62,127,0
59.166607,59.813927,67,127,0
59.22613,59.813927,71,127,0
59.285656,59.813927,74,127,0
59.82137,62.023746,64,127,0
59.880894,62.023746,67,127,0
59.940414,62.023746,72,127,0
59.99994,62.023746,76,127,0
62.85708,63.02821,67,127,0
63.035652,63.206783,72,127,0
63.214222,63.385353,76,127,0
63.392796,63.563923,79,127,0
63.571365,63.742496,79,127,0
63.749935,63.921066,84,127,0
63.92851,64.09964,88,127,0
64.10708,64.278206,91,127,0
64.28565,64.99993,84,127,0
64.28565,64.99993,96,127,0
64.99993,66.071365,82,127,0
64.99993,66.071365,94,127,0
66.071365,66.428505,80,127,0
66.071365,66.428505,92,127,0
66.428505,66.785645,79,127,0
66.428505,66.785645,91,127,0
66.785645,66.96422,77,127,0
66.785645,66.96422,89,127,0
66.96422,67.13535,75,127,0
66.96422,67.13535,87,127,0
67.14279,67.85708,79,127,0
67.14279,67.85708,91,127,0
67.85708,68.92106,77,127,0
67.85708,68.92106,89,127,0
70.71422,71.4285,58,127,0
70.71422,71.96421,70,127,0
71.4285,72.142784,56,127,0
72.142784,72.85707,72,127,0
72.85707,73.57136,74,127,0
73.57136,74.166595,60,127,0
73.57136,74.28564,72,127,0
74.28564,74.880875,62,127,0
74.28564,74.880875,71,127,0
74.99992,75.5282,62,127,0
74.99992,75.5282,67,127,0
74.99992,75.5282,71,127,0
74.99992,75.5282,74,127,0
75.53564,77.6785,64,127,0
75.59516,77.6785,67,127,0
75.654686,77.6785,72,127,0
75.71421,77.6785,76,127,0
77.85706,78.38534,64,127,0
77.85706,78.38534,67,127,0
77.85706,78.38534,72,127,0
77.85706,78.38534,76,127,0
78.43742,78.57135,67,127,0
78.57135,82.02373,67,127,0
78.48206,82.02373,70,127,0
82.85706,83.03563,56,127,0
83.03563,83.2142,55,127,0
83.2142,83.39278,52,127,0
83.39278,83.5639,49,127,0
84.28563,84.4642,56,127,0
84.4642,84.64277,55,127,0
84.64277,84.82134,52,127,0
84.82134,85.00207,49,127,0
85.00207,85.18279,60,127,0
85.18279,85.36351,58,127,0
85.36351,85.54644,55,127,0
85.54644,85.72936,52,127,0
85.72936,85.91229,58,127,0
85.91229,86.09748,56,127,0
86.09748,86.28266,53,127,0
86.28266,86.46785,50,127,0
86.46785,86.65851,48,127,0
87.47449,87.66199,58,127,0
87.66199,87.841675,63,127,0
87.66199,87.841675,67,127,0
87.66199,87.841675,70,127,0
88.22449,88.41199,58,127,0
88.41199,88.591675,63,127,0
88.41199,88.591675,67,127,0
88.97449,89.16199,56,127,0
89.16199,89.341675,60,127,0
89.16199,89.341675,63,127,0
89.72449,89.91199,53,127,0
89.91199,90.091675,60,127,0
89.91199,90.091675,62,127,0
90.47449,90.66199,51,127,0
90.66199,90.841675,55,127,0
90.66199,90.841675,63,127,0
91.22449,91.41199,52,127,0
91.41199,91.591675,55,127,0
78.39278,91.591675,64,127,0
91.41199,91.591675,64,127,0
91.97449,92.16199,52,127,0
92.16199,92.341675,58,127,0
92.16199,92.341675,64,127,0
92.72449,92.91199,51,127,0
92.91199,93.091675,55,127,0
92.91199,93.091675,58,127,0
92.91199,93.091675,63,127,0
93.47449,93.66199,58,127,0
93.66199,93.841675,63,127,0
93.66199,93.841675,67,127,0
93.66199,93.841675,70,127,0
94.22449,94.41199,58,127,0
94.41199,94.591675,63,127,0
94.41199,94.591675,67,127,0
94.97449,95.16199,56,127,0
95.16199,95.341675,60,127,0
95.16199,95.341675,63,127,0
95.72449,95.91199,53,127,0
95.91199,96.091675,60,127,0
95.91199,96.091675,62,127,0
96.47449,96.66199,51,127,0
96.66199,96.841675,55,127,0
96.66199,96.841675,63,127,0
97.22449,97.41199,52,127,0
97.41199,97.591675,55,127,0
97.41199,97.591675,64,127,0
97.97449,98.16199,52,127,0
98.16199,98.341675,58,127,0
98.16199,98.341675,61,127,0
98.16199,98.341675,64,127,0
98.72449,98.91199,52,127,0
98.91199,99.091675,55,127,0
98.91199,99.091675,61,127,0
98.91199,99.091675,64,127,0
99.47449,99.66199,52,127,0
99.66199,99.841675,55,127,0
99.66199,99.841675,58,127,0
99.66199,99.841675,64,127,0
100.22449,100.41199,51,127,0
100.41199,100.591675,55,127,0
100.41199,100.591675,63,127,0
100.97449,101.16199,51,127,0
101.16199,101.341675,56,127,0
101.16199,101.341675,63,127,0
101.72449,101.91199,51,127,0
101.91199,102.091675,58,127,0
101.91199,102.091675,63,127,0
102.47449,102.66199,51,127,0
102.66199,102.841675,57,127,0
102.66199,102.841675,63,127,0
103.22449,103.41199,51,127,0
103.41199,103.591675,56,127,0
103.41199,103.591675,63,127,0
103.97449,104.16199,51,127,0
104.16199,104.341675,57,127,0
104.16199,104.341675,63,127,0
104.72449,104.91199,51,127,0
104.91199,105.091675,56,127,0
104.91199,105.091675,63,127,0
105.47449,105.66199,51,127,0
105.66199,105.841675,57,127,0
105.66199,105.841675,63,127,0
106.22449,106.41199,53,127,0
106.41199,106.591675,60,127,0
106.41199,106.591675,65,127,0
106.97449,107.16199,53,127,0
107.16199,107.341675,58,127,0
107.16199,107.341675,65,127,0
107.72449,107.91199,54,127,0
107.91199,108.091675,57,127,0
107.91199,108.091675,66,127,0
108.47449,108.66199,53,127,0
108.66199,108.841675,59,127,0
108.66199,108.841675,65,127,0
109.22449,109.41199,59,127,0
109.41199,109.591675,64,127,0
109.41199,109.591675,71,127,0
109.97449,110.16199,53,127,0
110.16199,110.341675,59,127,0
110.16199,110.341675,65,127,0
110.72449,110.91199,59,127,0
110.91199,111.091675,64,127,0
110.91199,111.091675,71,127,0
111.47449,111.66199,53,127,0
111.66199,111.841675,59,127,0
111.66199,111.841675,65,127,0
112.22449,112.41199,59,127,0
112.41199,112.591675,64,127,0
112.41199,112.591675,71,127,0
112.97449,113.16199,64,127,0
112.97449,113.16199,71,127,0
113.16199,113.341675,59,127,0
113.72449,113.91199,63,127,0
113.91199,114.091675,66,127,0
113.91199,114.091675,75,127,0
114.47449,114.66199,58,127,0
114.66199,114.841675,66,127,0
114.66199,114.841675,70,127,0
115.22449,115.41199,58,127,0
115.41199,115.591675,65,127,0
115.41199,115.591675,70,127,0
115.97449,116.16199,53,127,0
116.16199,116.341675,58,127,0
116.16199,116.341675,65,127,0
116.72449,116.91199,54,127,0
116.91199,117.091675,58,127,0
116.91199,117.091675,61,127,0
116.91199,117.091675,66,127,0
118.41199,118.78699,82,127,0
118.78699,119.34949,80,127,0
119.34949,119.529175,70,127,0
119.53699,120.16199,70,127,0
121.41199,121.78699,82,127,0
121.78699,122.34949,80,127,0
122.34949,122.529175,70,127,0
122.53699,123.16199,70,127,0
123.47449,123.66199,58,127,0
123.66199,123.841675,63,127,0
123.66199,123.841675,67,127,0
123.66199,123.841675,70,127,0
124.22449,124.41199,63,127,0
124.22449,124.41199,67,127,0
124.22449,124.41199,70,127,0
124.41199,124.591675,58,127,0
124.97449,125.16199,58,127,0
125.16199,125.341675,64,127,0
125.16199,125.341675,68,127,0
125.16199,125.341675,70,127,0
125.72449,125.91199,65,127,0
125.72449,125.91199,68,127,0
125.72449,125.91199,70,127,0
125.91199,126.091675,58,127,0
127.22449,127.41199,67,127,0
127.41199,127.59949,70,127,0
78.52671,127.78699,73,127,0
127.59949,127.78699,73,127,0
127.78699,127.97449,79,127,0
127.97449,128.16199,73,127,0
128.16199,128.34949,70,127,0
128.34949,128.53699,67,127,0
129.28699,130.03699,68,127,0
129.28699,130.03699,80,127,0
130.03699,130.41199,69,127,0
130.03699,130.41199,81,127,0
130.41199,130.78699,71,127,0
130.41199,130.78699,83,127,0
130.78699,131.53699,73,127,0
130.78699,131.53699,85,127,0
131.53699,131.91199,74,127,0
131.53699,131.91199,86,127,0
78.57135,132.28699,76,127,0
131.91199,132.28699,76,127,0
131.91199,132.28699,88,127,0
132.28699,132.65417,77,127,0
132.28699,132.65417,89,127,0
133.22449,133.41199,67,127,0
133.41199,133.59949,70,127,0
133.59949,133.78699,73,127,0
133.78699,133.97449,79,127,0
133.97449,134.16199,73,127,0
134.16199,134.34949,70,127,0
134.34949,134.53699,67,127,0
135.28699,136.03699,68,127,0
135.28699,136.03699,80,127,0
136.03699,136.41199,69,127,0
136.03699,136.41199,81,127,0
136.41199,136.78699,71,127,0
136.41199,136.78699,83,127,0
136.78699,137.53699,73,127,0
136.78699,137.53699,85,127,0
137.53699,137.91199,74,127,0
137.53699,137.91199,86,127,0
137.91199,138.27917,76,127,0
137.91199,138.27917,88,127,0
138.28699,138.65417,77,127,0
138.28699,138.65417,89,127,0
139.03699,139.22449,63,127,0
139.22449,139.41199,67,127,0
139.41199,139.59949,70,127,0
139.59949,139.78699,73,127,0
139.78699,140.15417,79,127,0
141.84949,142.03699,60,127,0
142.03699,142.40417,64,127,0
142.03699,142.40417,71,127,0
143.34949,143.53699,59,127,0
143.53699,143.90417,63,127,0
143.53699,143.90417,71,127,0
144.66199,144.84949,56,127,0
144.84949,145.03699,58,127,0
145.03699,145.40417,62,127,0
147.28699,147.37292,55,127,0
147.38074,147.46667,63,127,0
147.47449,147.56042,58,127,0
147.56824,147.65417,63,127,0
147.66199,147.74792,55,127,0
147.75574,147.84167,63,127,0
147.84949,147.93542,51,127,0
147.94324,148.02917,63,127,0
148.03699,148.12292,55,127,0
148.13074,148.21667,63,127,0
148.22449,148.31042,58,127,0
148.31824,148.40417,63,127,0
148.41199,148.49792,55,127,0
148.50574,148.59167,63,127,0
148.59949,148.68542,51,127,0
148.69324,148.77917,63,127,0
148.78699,148.87292,55,127,0
148.88074,148.96667,63,127,0
148.97449,149.06042,58,127,0
149.06824,149.15417,63,127,0
149.16199,149.24792,55,127,0
149.25574,149.34167,63,127,0
149.34949,149.43542,51,127,0
149.44324,149.52917,63,127,0
149.53699,149.62292,55,127,0
149.63074,149.71667,63,127,0
149.72449,149.81042,58,127,0
149.81824,149.90417,63,127,0
149.91199,149.99792,55,127,0
150.00574,150.09167,63,127,0
150.09949,150.18542,51,127,0
150.19324,150.27917,63,127,0
150.28699,150.37292,63,127,0
150.38074,150.46667,71,127,0
150.47449,150.56042,67,127,0
150.56824,150.65417,71,127,0
150.66199,150.74792,63,127,0
150.75574,150.84167,71,127,0
150.84949,150.93542,59,127,0
150.94324,151.02917,71,127,0
151.03699,151.12292,62,127,0
151.13074,151.21667,71,127,0
151.22449,151.31042,67,127,0
151.31824,151.40417,71,127,0
151.41199,151.49792,62,127,0
151.50574,151.59167,71,127,0
151.59949,151.68542,59,127,0
151.69324,151.77917,71,127,0
151.78699,151.87292,62,127,0
151.88074,151.96667,71,127,0
151.97449,152.06042,67,127,0
152.06824,152.15417,71,127,0
152.16199,152.24792,62,127,0
152.25574,152.34167,71,127,0
152.34949,152.43542,59,127,0
152.44324,152.52917,71,127,0
152.53699,152.62292,62,127,0
152.63074,152.71667,71,127,0
152.72449,152.81042,67,127,0
152.81824,152.90417,71,127,0
152.91199,152.99792,62,127,0
153.00574,153.09167,71,127,0
153.09949,153.18542,59,127,0
153.19324,153.27917,71,127,0
153.28699,153.37292,55,127,0
153.38074,153.46667,63,127,0
153.47449,153.56042,58,127,0
153.56824,153.65417,63,127,0
153.66199,153.74792,55,127,0
153.75574,153.84167,63,127,0
153.84949,153.93542,51,127,0
153.94324,154.02917,63,127,0
154.03699,154.12292,55,127,0
154.13074,154.21667,63,127,0
154.22449,154.31042,58,127,0
154.31824,154.40417,63,127,0
154.41199,154.49792,55,127,0
154.50574,154.59167,63,127,0
154.59949,154.68542,51,127,0
154.69324,154.77917,63,127,0
154.78699,154.87292,55,127,0
154.88074,154.96667,63,127,0
154.97449,155.06042,58,127,0
155.06824,155.15417,63,127,0
155.16199,155.24792,55,127,0
155.25574,155.34167,63,127,0
155.34949,155.43542,51,127,0
155.44324,155.52917,63,127,0
155.53699,155.62292,55,127,0
155.63074,155.71667,63,127,0
155.72449,155.81042,58,127,0
155.81824,155.90417,63,127,0
155.91199,155.99792,55,127,0
156.00574,156.09167,63,127,0
156.09949,156.18542,51,127,0
156.19324,156.27917,63,127,0
156.28699,156.37292,63,127,0
156.38074,156.46667,71,127,0
156.47449,156.56042,67,127,0
156.56824,156.65417,71,127,0
156.66199,156.74792,63,127,0
156.75574,156.84167,71,127,0
156.84949,156.93542,59,127,0
156.94324,157.02917,71,127,0
157.03699,157.12292,63,127,0
157.13074,157.21667,71,127,0
157.22449,157.31042,66,127,0
157.31824,157.40417,71,127,0
157.41199,157.49792,63,127,0
157.50574,157.59167,71,127,0
157.59949,157.68542,59,127,0
157.69324,157.77917,71,127,0
157.78699,157.87292,63,127,0
157.88074,157.96667,71,127,0
157.97449,158.06042,66,127,0
158.06824,158.15417,71,127,0
158.16199,158.24792,63,127,0
158.25574,158.34167,71,127,0
158.34949,158.43542,59,127,0
158.44324,158.52917,71,127,0
158.53699,158.62292,63,127,0
158.63074,158.71667,71,127,0
158.72449,158.81042,66,127,0
158.81824,158.90417,71,127,0
158.91199,158.99792,63,127,0
159.00574,159.09167,71,127,0
159.09949,159.18542,59,127,0
159.19324,159.27917,71,127,0
159.28699,159.37292,63,127,0
159.38074,159.46667,71,127,0
159.47449,159.56042,67,127,0
159.56824,159.65417,71,127,0
159.66199,159.74792,63,127,0
159.75574,159.84167,71,127,0
159.84949,159.93542,59,127,0
159.94324,160.02917,71,127,0
160.03699,160.12292,62,127,0
160.13074,160.21667,71,127,0
160.22449,160.31042,67,127,0
160.31824,160.40417,71,127,0
160.41199,160.49792,62,127,0
160.50574,160.59167,71,127,0
160.59949,160.68542,59,127,0
160.69324,160.77917,71,127,0
160.78699,160.87292,62,127,0
160.88074,160.96667,71,127,0
160.97449,161.06042,67,127,0
161.06824,161.15417,71,127,0
161.16199,161.24792,62,127,0
161.25574,161.34167,71,127,0
161.34949,161.43542,59,127,0
161.44324,161.52917,71,127,0
161.53699,161.62292,62,127,0
161.63074,161.71667,71,127,0
161.72449,161.81042,67,127,0
161.81824,161.90417,71,127,0
161.91199,161.99792,62,127,0
162.00574,162.09167,71,127,0
162.09949,162.18542,59,127,0
162.19324,162.27917,71,127,0
162.28699,162.37292,55,127,0
162.38074,162.46667,63,127,0
162.47449,162.56042,58,127,0
162.56824,162.65417,63,127,0
162.66199,162.74792,55,127,0
162.75574,162.84167,63,127,0
162.84949,162.93542,51,127,0
162.94324,163.02917,63,127,0
163.03699,163.12292,55,127,0
163.13074,163.21667,63,127,0
163.22449,163.31042,58,127,0
163.31824,163.40417,63,127,0
163.41199,163.49792,55,127,0
163.50574,163.59167,63,127,0
163.59949,163.68542,51,127,0
163.69324,163.77917,63,127,0
163.78699,163.87292,55,127,0
163.88074,163.96667,63,127,0
163.97449,164.06042,58,127,0
164.06824,164.15417,63,127,0
164.16199,164.24792,55,127,0
164.25574,164.34167,63,127,0
164.34949,164.43542,51,127,0
164.44324,164.52917,63,127,0
164.53699,164.62292,55,127,0
164.63074,164.71667,63,127,0
164.72449,164.81042,58,127,0
164.81824,164.90417,63,127,0
164.91199,164.99792,55,127,0
165.00574,165.09167,63,127,0
165.09949,165.18542,51,127,0
165.19324,165.27917,63,127,0
165.28699,165.37292,55,127,0
165.38074,165.46667,63,127,0
165.47449,165.56042,58,127,0
165.56824,165.65417,63,127,0
165.66199,165.74792,55,127,0
165.75574,165.84167,63,127,0
165.84949,165.93542,51,127,0
165.94324,166.02917,63,127,0
166.03699,166.12292,55,127,0
166.13074,166.21667,63,127,0
166.22449,166.31042,58,127,0
166.31824,166.40417,63,127,0
166.41199,166.49792,55,127,0
166.50574,166.59167,63,127,0
166.59949,166.68542,51,127,0
166.69324,166.77917,63,127,0
166.78699,166.87292,55,127,0
166.88074,166.96667,63,127,0
166.97449,167.06042,58,127,0
167.06824,167.15417,63,127,0
167.16199,167.24792,55,127,0
167.25574,167.34167,63,127,0
167.34949,167.43542,51,127,0
167.44324,167.52917,63,127,0
167.53699,167.62292,55,127,0
167.63074,167.71667,63,127,0
167.72449,167.81042,58,127,0
167.81824,167.90417,63,127,0
167.91199,167.99792,55,127,0
168.00574,168.09167,63,127,0
168.09949,169.59949,51,127,0
168.16199,169.59949,55,127,0
168.22449,169.59949,58,127,0
168.28699,169.59949,63,127,0
174.24751,175.10278,55,127,0
174.31331,175.10278,60,127,0
174.37909,175.10278,63,127,0
174.44489,175.10278,67,127,0
175.82646,176.68172,55,127,0
175.89224,176.68172,61,127,0
175.95804,176.68172,65,127,0
176.02383,176.68172,67,127,0
177.40541,178.26067,55,127,0
177.47119,178.26067,60,127,0
177.53699,178.26067,63,127,0
177.60277,178.26067,67,127,0
178.98436,179.83961,55,127,0
179.05014,179.83961,61,127,0
179.11594,179.83961,65,127,0
179.18172,179.83961,67,127,0
180.5633,181.41856,55,127,0
180.62909,181.41856,60,127,0
180.69487,181.41856,63,127,0
180.76067,181.41856,67,127,0
185.10277,186.1554,59,127,0
185.23434,186.1554,63,127,0
185.36592,186.1554,67,127,0
185.4975,186.1554,71,127,0
187.07645,187.24757,64,127,0
187.07645,187.24757,68,127,0
187.25502,187.42615,71,127,0
187.4336,187.60472,64,127,0
187.4336,187.60472,68,127,0
187.61217,187.7833,59,127,0
187.79074,187.96187,64,127,0
187.79074,187.96187,68,127,0
187.9693,188.14044,71,127,0
188.14787,188.31902,64,127,0
188.14787,188.31902,68,127,0
188.32645,188.49757,59,127,0
188.50502,188.67615,64,127,0
188.50502,188.67615,68,127,0
188.6836,188.85472,71,127,0
188.86217,189.0333,64,127,0
188.86217,189.0333,68,127,0
189.04074,189.21187,59,127,0
189.2193,189.39044,64,127,0
189.2193,189.39044,68,127,0
189.39787,189.569,71,127,0
189.57645,189.74757,64,127,0
189.57645,189.74757,68,127,0
189.75502,189.92615,59,127,0
189.9336,190.10472,64,127,0
189.9336,190.10472,68,127,0
190.11217,190.2833,71,127,0
190.29073,190.46187,64,127,0
190.29073,190.46187,68,127,0
190.4693,190.64044,59,127,0
190.64787,190.819,63,127,0
190.64787,190.819,68,127,0
190.82645,190.99757,71,127,0
191.00502,191.17615,63,127,0
191.00502,191.17615,68,127,0
191.1836,191.35472,59,127,0
191.36217,191.5333,63,127,0
191.36217,191.5333,68,127,0
191.54073,191.71187,71,127,0
191.7193,191.89043,63,127,0
191.7193,191.89043,68,127,0
191.89787,192.069,59,127,0
192.07645,192.24757,61,127,0
192.07645,192.24757,68,127,0
192.25502,192.42615,71,127,0
192.4336,192.60472,61,127,0
192.4336,192.60472,68,127,0
192.61215,192.7833,59,127,0
192.79073,192.96187,62,127,0
192.79073,192.96187,69,127,0
192.9693,193.14043,71,127,0
193.14787,193.319,62,127,0
193.14787,193.319,69,127,0
193.32645,193.49757,59,127,0
193.50502,193.67615,62,127,0
193.50502,193.67615,69,127,0
193.6836,193.85472,71,127,0
193.86215,194.0333,62,127,0
193.86215,194.0333,69,127,0
194.04073,194.21185,59,127,0
194.2193,194.39043,63,127,0
194.2193,194.39043,69,127,0
194.39787,194.569,71,127,0
194.57645,194.74757,63,127,0
194.57645,194.74757,69,127,0
194.75502,194.92615,59,127,0
194.93358,195.10472,63,127,0
194.93358,195.10472,66,127,0
195.11215,195.2833,71,127,0
195.29073,195.46185,63,127,0
195.29073,195.46185,66,127,0
195.4693,195.64043,59,127,0
195.64787,195.819,64,127,0
195.82645,195.99757,71,127,0
196.00502,196.17615,64,127,0
196.18358,196.35472,59,127,0
196.36215,196.53328,65,127,0
196.54073,196.71185,71,127,0
196.7193,196.89043,65,127,0
196.89787,197.069,59,127,0
197.07645,197.24757,66,127,0
197.255,197.42615,72,127,0
197.43358,197.60472,66,127,0
197.61215,197.78328,59,127,0
197.79073,197.96185,67,127,0
197.9693,198.14043,73,127,0
198.14787,198.319,68,127,0
198.32645,198.49757,59,127,0
198.505,198.67615,64,127,0
198.505,198.67615,69,127,0
198.68358,198.8547,71,127,0
198.86215,199.03328,64,127,0
198.86215,199.03328,69,127,0
199.04073,199.21185,59,127,0
199.2193,199.39043,63,127,0
199.2193,199.39043,69,127,0
199.39787,199.569,71,127,0
199.57643,199.74757,63,127,0
199.57643,199.74757,69,127,0
199.755,199.92615,59,127,0
199.93358,200.1047,64,127,0
199.93358,200.1047,68,127,0
200.11215,200.28328,71,127,0
200.29073,200.46185,64,127,0
200.29073,200.46185,68,127,0
200.4693,200.64043,59,127,0
200.64787,200.82643,63,127,0
200.64787,200.82643,67,127,0
200.82643,201.005,71,127,0
201.005,201.18358,63,127,0
201.005,201.18358,67,127,0
201.18358,202.02005,60,127,0
201.2431,202.02005,63,127,0
201.30263,202.02005,68,127,0
201.36215,202.02005,72,127,0
204.32268,205.17793,60,127,0
204.38846,205.17793,65,127,0
204.45425,205.17793,68,127,0
204.52005,205.17793,72,127,0
205.90163,206.75688,60,127,0
206.0332,206.75688,70,127,0
205.9674,206.75688,66,127,0
206.09898,206.75688,72,127,0
207.48056,208.33583,60,127,0
207.54636,208.33583,65,127,0
207.61215,208.33583,68,127,0
207.67793,208.33583,72,127,0
209.19109,209.25688,70,127,0
209.05951,209.91478,60,127,0
209.1253,209.91478,66,127,0
209.25688,209.91478,70,127,0
209.25688,209.91478,72,127,0
210.63846,211.49371,60,127,0
210.70425,211.49371,65,127,0
210.77003,211.49371,68,127,0
210.83583,211.49371,72,127,0
213.59898,214.65161,60,127,0
213.73056,214.65161,64,127,0
213.86214,214.65161,68,127,0
213.99371,214.65161,72,127,0
217.15161,217.32274,61,127,0
217.15161,217.32274,65,127,0
217.33018,217.50131,68,127,0
217.50876,217.67989,61,127,0
217.50876,217.67989,65,127,0
217.68732,217.85846,56,127,0
217.86589,218.03703,61,127,0
217.86589,218.03703,65,127,0
218.04446,218.21559,68,127,0
218.22304,218.39417,61,127,0
218.22304,218.39417,65,127,0
218.40161,218.57274,56,127,0
218.58018,218.75131,61,127,0
218.58018,218.75131,65,127,0
218.75876,218.92989,68,127,0
218.93732,219.10846,61,127,0
218.93732,219.10846,65,127,0
219.11589,219.28702,56,127,0
219.29446,219.46559,61,127,0
219.29446,219.46559,65,127,0
219.47304,219.64417,68,127,0
219.65161,219.82274,61,127,0
219.65161,219.82274,65,127,0
219.83018,220.00131,56,127,0
220.00874,220.17989,61,127,0
220.00874,220.17989,65,127,0
220.18732,220.35846,68,127,0
220.36589,220.53702,61,127,0
220.36589,220.53702,65,127,0
220.54446,220.71559,56,127,0
220.72304,220.89417,60,127,0
220.72304,220.89417,65,127,0
220.90161,221.07274,68,127,0
221.08018,221.25131,60,127,0
221.08018,221.25131,65,127,0
221.25874,221.42989,56,127,0
221.43732,221.60844,60,127,0
221.43732,221.60844,65,127,0
221.61589,221.78702,68,127,0
221.79446,221.96559,60,127,0
221.79446,221.96559,65,127,0
221.97304,222.14417,56,127,0
222.15161,222.32274,58,127,0
222.15161,222.32274,65,127,0
222.33017,222.50131,68,127,0
222.50874,222.67989,58,127,0
222.50874,222.67989,65,127,0
222.68732,222.85844,56,127,0
222.86589,223.03702,59,127,0
222.86589,223.03702,66,127,0
223.04446,223.21559,68,127,0
223.22304,223.39417,59,127,0
223.22304,223.39417,66,127,0
223.40161,223.57274,56,127,0
223.58017,223.75131,59,127,0
223.58017,223.75131,66,127,0
223.75874,223.92987,68,127,0
223.93732,224.10844,59,127,0
223.93732,224.10844,66,127,0
224.11589,224.28702,56,127,0
224.29446,224.46559,60,127,0
224.29446,224.46559,66,127,0
224.47304,224.64417,68,127,0
224.6516,224.82274,60,127,0
224.6516,224.82274,66,127,0
224.83017,225.00131,56,127,0
225.00874,225.17987,60,127,0
225.00874,225.17987,63,127,0
225.18732,225.35844,68,127,0
225.36589,225.53702,60,127,0
225.36589,225.53702,63,127,0
225.54446,225.71559,56,127,0
225.72304,225.89417,61,127,0
225.9016,226.07274,68,127,0
226.08017,226.2513,61,127,0
226.25874,226.42987,56,127,0
226.43732,226.60844,62,127,0
226.61589,226.78702,68,127,0
226.79446,226.96559,62,127,0
226.97302,227.14417,56,127,0
227.1516,227.32274,63,127,0
227.33017,227.5013,69,127,0
227.50874,227.67987,63,127,0
227.68732,227.85844,56,127,0
227.86589,228.03702,64,127,0
228.04446,228.21559,70,127,0
228.22302,228.39417,65,127,0
228.4016,228.57272,56,127,0
228.58017,228.7513,61,127,0
228.58017,228.7513,66,127,0
228.75874,228.92987,68,127,0
228.93732,229.10844,61,127,0
228.93732,229.10844,66,127,0
229.11589,229.28702,56,127,0
229.29445,229.46559,60,127,0
229.29445,229.46559,66,127,0
229.47302,229.64417,68,127,0
229.6516,229.82272,60,127,0
229.6516,229.82272,66,127,0
229.83017,230.0013,56,127,0
230.00874,230.17987,61,127,0
230.00874,230.17987,65,127,0
230.18732,230.35844,68,127,0
230.36589,230.53702,61,127,0
230.36589,230.53702,65,127,0
230.54445,230.71559,56,127,0
230.72302,230.89415,63,127,0
230.72302,230.89415,66,127,0
230.9016,231.07272,68,127,0
231.08017,231.2513,63,127,0
231.08017,231.2513,66,127,0
231.25874,231.42987,56,127,0
231.43732,231.60844,59,127,0
231.43732,231.60844,66,127,0
231.61588,231.78702,68,127,0
231.79445,231.96558,59,127,0
231.79445,231.96558,66,127,0
231.97302,232.14415,56,127,0
232.1516,232.32272,59,127,0
232.1516,232.32272,65,127,0
232.33017,232.5013,68,127,0
232.50874,232.67987,59,127,0
232.50874,232.67987,65,127,0
232.6873,232.85844,56,127,0
232.86588,233.03702,59,127,0
233.04445,233.21558,65,127,0
233.22302,233.39415,59,127,0
233.4016,233.57272,53,127,0
233.58017,233.7513,59,127,0
233.58017,233.7513,63,127,0
233.75874,233.92987,66,127,0
233.9373,234.10844,59,127,0
233.9373,234.10844,63,127,0
234.11588,234.287,54,127,0
234.29445,234.46558,59,127,0
234.29445,234.46558,63,127,0
234.47302,234.64415,68,127,0
234.6516,234.82272,59,127,0
234.6516,234.82272,63,127,0
234.83017,235.0013,56,127,0
235.00873,235.17987,58,127,0
235.00873,235.17987,62,127,0
235.1873,235.35844,68,127,0
235.36588,235.537,58,127,0
235.36588,235.537,62,127,0
235.54445,235.71558,56,127,0
235.72302,235.89415,63,127,0
235.72302,235.89415,67,127,0
235.9016,236.07272,70,127,0
236.08017,236.2513,63,127,0
236.08017,236.2513,67,127,0
236.25873,236.42987,58,127,0
236.4373,236.60843,65,127,0
236.4373,236.60843,68,127,0
236.61588,236.787,70,127,0
236.79445,236.96558,65,127,0
236.79445,236.96558,68,127,0
236.97302,237.14415,58,127,0
237.1516,237.32272,61,127,0
237.1516,237.32272,68,127,0
237.33015,237.5013,70,127,0
237.50873,237.67987,61,127,0
237.50873,237.67987,68,127,0
237.6873,237.85843,58,127,0
237.86588,238.037,61,127,0
237.86588,238.037,67,127,0
238.04445,238.21558,70,127,0
238.22302,238.39415,61,127,0
238.22302,238.39415,67,127,0
238.4016,238.57272,58,127,0
238.58015,238.7513,61,127,0
238.75873,238.92986,67,127,0
238.9373,239.10843,61,127,0
239.11588,239.287,55,127,0
239.29445,239.46558,61,127,0
239.29445,239.46558,65,127,0
239.47302,239.64415,68,127,0
239.65158,239.82272,61,127,0
239.65158,239.82272,65,127,0
239.83015,240.0013,56,127,0
240.00873,240.17986,61,127,0
240.00873,240.17986,65,127,0
240.1873,240.35843,70,127,0
240.36588,240.537,61,127,0
240.36588,240.537,65,127,0
240.54445,240.71558,58,127,0
240.72302,240.89415,60,127,0
240.72302,240.89415,64,127,0
240.90158,241.07272,70,127,0
241.08015,241.25128,60,127,0
241.08015,241.25128,64,127,0
241.25873,241.42986,58,127,0
241.4373,241.60843,65,127,0
241.4373,241.60843,69,127,0
241.61588,241.787,72,127,0
241.79445,241.96558,65,127,0
241.79445,241.96558,69,127,0
241.973,242.14415,60,127,0
242.15158,242.32272,67,127,0
242.15158,242.32272,70,127,0
242.33015,242.50128,72,127,0
242.50873,242.67986,67,127,0
242.50873,242.67986,70,127,0
242.6873,242.85843,60,127,0
242.86588,243.037,63,127,0
242.86588,243.037,70,127,0
243.04445,243.21558,72,127,0
243.223,243.39415,63,127,0
243.223,243.39415,70,127,0
243.40158,243.57271,60,127,0
243.58015,243.75128,63,127,0
243.58015,243.75128,69,127,0
243.75873,243.92986,72,127,0
243.9373,244.10843,63,127,0
243.9373,244.10843,69,127,0
244.11588,244.287,60,127,0
244.29443,244.46558,63,127,0
244.473,244.64415,69,127,0
244.65158,244.82271,63,127,0
244.83015,245.00128,57,127,0
245.00873,245.17986,63,127,0
245.00873,245.17986,67,127,0
245.1873,245.35843,70,127,0
245.36588,245.537,63,127,0
245.36588,245.537,67,127,0
245.54443,245.71558,58,127,0
245.723,245.89413,63,127,0
245.723,245.89413,67,127,0
245.90158,246.07271,72,127,0
246.08015,246.25128,63,127,0
246.08015,246.25128,67,127,0
246.25873,246.42986,60,127,0
246.4373,246.60843,62,127,0
246.4373,246.60843,66,127,0
246.61586,246.787,72,127,0
246.79443,246.96558,62,127,0
246.79443,246.96558,66,127,0
246.973,247.14413,60,127,0
247.15158,247.32271,62,127,0
247.15158,247.32271,67,127,0
247.33015,247.50128,72,127,0
247.50873,247.67986,62,127,0
247.50873,247.67986,67,127,0
247.6873,247.85843,60,127,0
247.86586,248.037,63,127,0
247.86586,248.037,69,127,0
248.04443,248.21556,72,127,0
248.223,248.39413,63,127,0
248.223,248.39413,69,127,0
248.40158,248.57271,60,127,0
248.58015,248.75873,72,127,0
248.75873,248.93729,68,127,0
248.93729,249.11586,56,127,0
249.11586,249.29443,62,127,0
249.29443,249.473,70,127,0
249.473,249.65158,67,127,0
249.65158,249.83015,58,127,0
249.83015,250.00873,62,127,0
250.00873,250.18729,68,127,0
250.18729,250.36586,65,127,0
250.36586,250.54443,59,127,0
250.54443,250.723,62,127,0
250.723,251.07271,67,127,0
250.90158,251.08015,60,127,0
251.08015,251.25128,65,127,0
251.08015,251.25871,62,127,0
251.25871,251.42986,63,127,0
251.25871,251.42986,63,127,0
251.43729,251.61586,72,127,0
251.61586,251.79443,68,127,0
251.79443,251.973,56,127,0
251.973,252.15158,62,127,0
252.15158,252.33014,70,127,0
252.33014,252.50871,67,127,0
252.50871,252.68729,58,127,0
252.68729,252.86586,62,127,0
252.86586,253.04443,68,127,0
253.04443,253.223,65,127,0
253.223,253.40158,59,127,0
253.40158,253.58014,62,127,0
253.58014,253.92984,67,127,0
253.75871,253.93729,60,127,0
253.93729,254.10841,65,127,0
253.93729,254.11586,62,127,0
254.11586,254.28699,63,127,0
254.11586,254.28699,63,127,0
254.29443,254.473,75,127,0
254.473,254.65157,71,127,0
254.65157,254.83014,59,127,0
254.83014,255.00871,65,127,0
255.00871,255.18729,73,127,0
255.18729,255.36586,70,127,0
255.36586,255.54443,61,127,0
255.54443,255.723,65,127,0
255.723,255.90157,71,127,0
255.90157,256.08014,68,127,0
256.08014,256.25873,62,127,0
256.25873,256.4373,65,127,0
256.4373,256.787,70,127,0
256.61584,256.79443,63,127,0
256.79443,256.96555,68,127,0
256.79443,256.973,65,127,0
256.973,257.14413,66,127,0
256.973,257.14413,66,127,0
257.15158,257.33014,75,127,0
257.33014,257.50873,71,127,0
257.50873,257.6873,59,127,0
257.6873,257.86584,65,127,0
257.86584,258.04443,73,127,0
258.04443,258.223,70,127,0
258.223,258.40158,61,127,0
258.40158,258.58014,65,127,0
258.58014,258.7587,71,127,0
258.7587,258.9373,68,127,0
258.9373,259.11584,62,127,0
259.11584,259.29443,65,127,0
259.29443,259.64413,70,127,0
259.473,259.65158,63,127,0
259.65158,259.8227,68,127,0
259.65158,259.83014,65,127,0
259.83014,260.00128,66,127,0
259.83014,260.00128,66,127,0
260.1873,260.3584,68,127,0
260.1873,260.3584,68,127,0
260.36584,260.537,56,127,0
260.54443,260.71555,62,127,0
260.90158,261.0727,67,127,0
260.90158,261.0727,67,127,0
261.08014,261.25128,58,127,0
261.2587,261.42984,62,127,0
261.61584,261.787,65,127,0
261.61584,261.787,65,127,0
261.79443,261.96555,59,127,0
261.973,262.14413,62,127,0
262.33014,262.5087,60,127,0
262.33014,262.5087,63,127,0
262.5087,262.6873,62,127,0
262.5087,262.6873,65,127,0
262.6873,262.8584,63,127,0
262.6873,262.8584,67,127,0
263.04443,263.21555,71,127,0
263.04443,263.21555,71,127,0
263.223,263.39413,59,127,0
263.40155,263.5727,63,127,0
263.7587,263.92984,70,127,0
263.7587,263.92984,70,127,0
263.9373,264.1084,61,127,0
264.11584,264.287,65,127,0
264.473,264.64413,68,127,0
264.473,264.64413,68,127,0
264.65155,264.8227,62,127,0
264.83014,265.00125,65,127,0
265.1873,265.36584,63,127,0
265.1873,265.36584,66,127,0
265.36584,265.54443,65,127,0
265.36584,265.54443,68,127,0
265.54443,265.71555,66,127,0
265.54443,265.71555,70,127,0
265.90155,266.0727,74,127,0
265.90155,266.0727,74,127,0
266.08014,266.25125,62,127,0
266.2587,266.42984,68,127,0
266.61584,266.787,73,127,0
266.61584,266.787,73,127,0
266.7944,266.96555,64,127,0
266.973,267.14413,68,127,0
267.33014,267.50125,71,127,0
267.33014,267.50125,71,127,0
267.5087,267.67984,65,127,0
267.6873,267.8584,68,127,0
268.0444,268.223,66,127,0
268.0444,268.223,69,127,0
268.223,268.40155,68,127,0
268.223,268.40155,71,127,0
268.40155,268.5727,69,127,0
268.40155,268.5727,73,127,0
268.58014,268.662,62,127,0
268.6694,268.75125,69,127,0
268.7587,268.84055,66,127,0
268.848,268.92984,69,127,0
268.9373,269.0191,62,127,0
269.02655,269.1084,69,127,0
269.11584,269.1977,57,127,0
269.20514,269.287,69,127,0
269.2944,269.37625,62,127,0
269.3837,269.46555,69,127,0
269.473,269.55484,66,127,0
269.5623,269.6441,69,127,0
269.65155,269.7334,62,127,0
269.74084,269.8227,69,127,0
269.83014,269.912,57,127,0
269.9194,270.00125,69,127,0
270.0087,270.09055,62,127,0
270.098,270.17984,69,127,0
270.1873,270.2691,66,127,0
270.27655,270.3584,69,127,0
270.36584,270.4477,62,127,0
270.45514,270.537,69,127,0
270.5444,270.62625,57,127,0
270.6337,270.71555,69,127,0
270.723,270.80484,62,127,0
270.81226,270.8941,69,127,0
270.90155,270.9834,66,127,0
270.99084,271.0727,69,127,0
271.08014,271.162,62,127,0
271.1694,271.25125,69,127,0
271.2587,271.34055,57,127,0
271.348,271.42984,69,127,0
271.7944,271.973,66,127,0
271.973,272.1441,62,127,0
272.5087,272.68726,68,127,0
272.68726,272.8584,62,127,0
273.223,273.40155,69,127,0
273.40155,273.5727,62,127,0
273.93726,274.11584,71,127,0
273.58014,274.17535,59,127,0
274.11584,274.28696,62,127,0
274.11584,274.28696,66,127,0
274.65155,274.83014,73,127,0
274.2944,274.88965,61,127,0
274.83014,275.00125,66,127,0
274.83014,275.00125,71,127,0
275.36584,275.5444,74,127,0
275.0087,275.60394,62,127,0
275.5444,275.71555,65,127,0
275.5444,275.71555,68,127,0
276.0801,276.2587,73,127,0
275.723,276.3182,61,127,0
276.2587,276.42984,65,127,0
276.2587,276.42984,69,127,0
276.7944,276.96555,69,127,0
276.7944,276.96555,69,127,0
276.43726,277.7468,57,127,0
276.973,277.7468,61,127,0
276.973,277.7468,66,127,0
277.86584,277.9477,62,127,0
277.9551,278.03696,69,127,0
278.0444,278.12625,66,127,0
278.1337,278.21555,69,127,0
278.223,278.3048,62,127,0
278.31226,278.3941,69,127,0
278.40155,278.4834,57,127,0
278.49084,278.5727,69,127,0
278.5801,278.66196,62,127,0
278.6694,278.75125,69,127,0
278.7587,278.84055,66,127,0
278.848,278.9298,69,127,0
278.93726,279.0191,62,127,0
279.02655,279.1084,69,127,0
279.11584,279.1977,57,127,0
279.2051,279.28696,69,127,0
279.2944,279.37625,62,127,0
279.3837,279.46555,69,127,0
279.473,279.5548,66,127,0
279.56226,279.6441,69,127,0
279.65155,279.7334,62,127,0
279.74084,279.8227,69,127,0
279.8301,279.91196,57,127,0
279.9194,280.00125,69,127,0
280.36584,280.5444,66,127,0
280.5444,280.71555,62,127,0
281.0801,281.2587,68,127,0
281.2587,281.4298,62,127,0
281.7944,281.97296,69,127,0
281.97296,282.1441,62,127,0
282.5087,282.68726,71,127,0
282.15155,282.7468,59,127,0
282.68726,282.8584,62,127,0
282.68726,282.8584,66,127,0
283.22296,283.40155,73,127,0
282.86584,283.46106,61,127,0
283.40155,283.57266,66,127,0
283.40155,283.57266,71,127,0
283.93726,284.1158,74,127,0
283.5801,284.17535,62,127,0
284.1158,284.28696,65,127,0
284.1158,284.28696,71,127,0
284.65155,284.8301,73,127,0
284.2944,284.88965,64,127,0
284.8301,284.88965,64,127,0
284.8301,285.00125,69,127,0
285.3658,285.5444,77,127,0
285.0087,285.6039,65,127,0
285.5444,285.7155,71,127,0
285.5444,285.7155,74,127,0
285.72296,286.3182,70,127,0
285.72296,286.3182,73,127,0
285.72296,286.3182,78,127,0
285.72296,286.3182,82,127,0
286.43726,286.5191,61,127,0
286.52655,286.6084,70,127,0
286.6158,286.69766,66,127,0
286.7051,286.78696,70,127,0
286.7944,286.87625,61,127,0
286.8837,286.9655,70,127,0
286.97296,287.0548,58,127,0
287.06226,287.1441,70,127,0
287.15155,287.2334,61,127,0
287.2408,287.32266,70,127,0
287.3301,287.41196,66,127,0
287.4194,287.50125,70,127,0
287.5087,287.5905,61,127,0
287.59796,287.6798,70,127,0
287.68726,287.7691,58,127,0
287.77655,287.8584,70,127,0
287.8658,287.94766,61,127,0
287.9551,288.03696,70,127,0
288.0444,288.12625,66,127,0
288.1337,288.2155,70,127,0
288.22296,288.3048,61,127,0
288.31226,288.3941,70,127,0
288.40155,288.4834,58,127,0
288.4908,288.57266,70,127,0
288.5801,288.75125,54,127,0
288.75867,288.9298,58,127,0
288.93726,289.1084,62,127,0
289.1158,289.28696,66,127,0
289.2944,289.4655,58,127,0
289.47296,289.6441,62,127,0
289.65155,289.82266,70,127,0
290.00867,290.1798,50,127,0
290.18726,290.35837,55,127,0
290.3658,290.53696,58,127,0
290.5444,290.7155,62,127,0
290.72296,290.8941,54,127,0
290.90155,291.07266,59,127,0
291.0801,291.25125,66,127,0
291.43726,291.60837,50,127,0
291.6158,291.78696,54,127,0
291.7944,291.9655,58,127,0
291.97296,292.1441,62,127,0
292.15155,292.32266,54,127,0
292.3301,292.50125,58,127,0
292.50867,292.6798,66,127,0
292.8658,293.03696,46,127,0
293.0444,293.2155,51,127,0
293.22296,293.3941,54,127,0
293.40152,293.57266,58,127,0
293.5801,293.75125,50,127,0
293.75867,293.9298,55,127,0
293.93726,294.10837,62,127,0
294.2944,294.4655,54,127,0
294.47296,294.6441,58,127,0
294.65152,294.82266,62,127,0
294.8301,295.00122,66,127,0
295.00867,295.1798,58,127,0
295.18726,295.35837,62,127,0
295.3658,295.53696,70,127,0
295.72296,295.8941,50,127,0
295.90152,296.07266,55,127,0
296.0801,296.25122,58,127,0
296.25867,296.4298,62,127,0
296.43726,296.60837,54,127,0
296.6158,296.78696,59,127,0
296.7944,296.9655,66,127,0
297.15152,297.32266,50,127,0
297.3301,297.50122,54,127,0
297.50867,297.6798,58,127,0
297.68726,297.85837,62,127,0
297.8658,298.03696,54,127,0
298.04437,298.2155,58,127,0
298.22296,298.3941,66,127,0
298.5801,298.75122,46,127,0
298.75867,298.9298,51,127,0
298.93726,299.10837,54,127,0
299.1158,299.28696,58,127,0
299.29437,299.4655,50,127,0
299.47296,299.64407,55,127,0
299.65152,299.82266,62,127,0
300.00867,300.1798,54,127,0
300.18726,300.35837,58,127,0
300.3658,300.53696,62,127,0
300.54437,300.7155,66,127,0
300.72296,300.89407,58,127,0
300.90152,301.07266,62,127,0
301.0801,301.25122,70,127,0
301.43723,301.60837,50,127,0
301.6158,301.78696,55,127,0
301.79437,301.9655,58,127,0
301.97296,302.14407,62,127,0
302.15152,302.32266,54,127,0
302.3301,302.50122,59,127,0
302.50867,302.6798,66,127,0
302.8658,303.09647,49,127,0
303.1039,303.33456,58,127,0
303.342,303.57266,61,127,0
303.5801,303.81076,52,127,0
303.81818,304.04886,61,127,0
304.05627,304.28693,64,127,0
304.29437,304.52502,50,127,0
304.53247,304.76312,59,127,0
304.77057,305.00122,62,127,0
306.43723,307.15152,58,127,0
306.43723,307.15152,61,127,0
307.15152,307.74677,59,127,0
307.15152,307.74677,62,127,0
310.00867,310.24677,57,127,0
310.24677,310.48486,61,127,0
310.48486,310.72293,70,127,0
310.72293,311.31818,73,127,0
311.67532,311.90598,61,127,0
311.91342,312.14407,69,127,0
312.15152,312.3878,73,127,0
312.39542,312.63168,69,127,0
312.6393,312.8756,61,127,0
312.8832,313.1254,69,127,0
313.1332,313.3754,73,127,0
313.3832,313.6254,81,127,0
313.6332,315.19193,85,127,0
315.19193,315.98138,81,127,0
315.98138,316.77087,76,127,0
316.77087,317.56033,73,127,0
317.56033,318.34982,78,127,0
318.34982,319.13928,85,127,0
319.13928,320.3235,88,127,0
320.3235,320.71002,79,127,0
320.71823,321.50772,78,127,0
321.50772,322.29718,85,127,0
322.29718,323.48138,88,127,0
323.48138,323.87613,79,127,0
323.87613,324.92877,78,127,0
325.06033,325.44684,85,127,0
325.45508,326.83664,85,127,0
327.03403,327.12778,73,127,0
327.12778,328.15903,73,127,0
327.12778,328.15903,85,127,0
328.15903,328.5262,68,127,0
328.15903,328.5262,80,127,0
328.53403,329.84653,68,127,0
328.53403,329.84653,80,127,0
330.78403,331.53403,73,127,0
330.78403,331.53403,85,127,0
331.53403,332.28403,68,127,0
331.53403,332.28403,80,127,0
332.28403,332.90903,71,127,0
332.28403,332.90903,83,127,0
333.03403,333.12778,73,127,0
333.12778,334.15903,73,127,0
333.12778,334.15903,85,127,0
334.15903,334.5262,68,127,0
334.15903,334.5262,80,127,0
334.53403,335.28403,68,127,0
334.53403,335.28403,80,127,0
335.28403,336.03403,71,127,0
335.28403,336.03403,83,127,0
336.03403,336.78403,73,127,0
336.03403,336.78403,85,127,0
336.78403,337.53403,80,127,0
337.53403,338.28403,76,127,0
338.28403,338.90903,73,127,0
339.28403,339.5262,68,127,0
339.53403,339.7762,72,127,0
339.78403,340.0262,70,127,0
340.03403,340.2762,72,127,0
340.28403,340.5262,68,127,0
340.53403,340.7762,60,127,0
340.78403,341.0262,68,127,0
341.03403,341.2762,72,127,0
341.28403,341.5262,70,127,0
341.53403,341.7762,72,127,0
341.78403,342.0262,68,127,0
342.03403,342.2137,67,127,0
342.22153,342.4012,70,127,0
342.22153,342.4012,74,127,0
342.40903,342.5887,67,127,0
342.59653,342.7762,62,127,0
342.78403,342.9637,65,127,0
342.97153,343.1512,70,127,0
342.97153,343.1512,74,127,0
343.15903,343.3387,65,127,0
343.34653,343.5262,62,127,0
343.53403,343.7137,67,127,0
343.72153,343.9012,70,127,0
343.72153,343.9012,74,127,0
343.90903,344.0887,67,127,0
344.09653,344.2762,62,127,0
344.28403,344.4637,68,127,0
344.47153,344.6512,71,127,0
344.47153,344.6512,74,127,0
344.65903,344.8387,68,127,0
344.84653,345.0262,62,127,0
345.03403,345.2137,67,127,0
345.22153,345.4012,70,127,0
345.22153,345.4012,74,127,0
345.40903,345.5887,67,127,0
345.59653,345.7762,62,127,0
345.78403,345.9637,68,127,0
345.97153,346.1512,71,127,0
345.97153,346.1512,74,127,0
346.15903,346.3387,68,127,0
346.34653,346.5262,62,127,0
346.53403,346.7137,67,127,0
346.72153,346.9012,70,127,0
346.72153,346.9012,74,127,0
346.90903,347.0887,67,127,0
347.09653,347.2762,62,127,0
347.28403,347.4637,65,127,0
347.47153,347.6512,70,127,0
347.47153,347.6512,74,127,0
347.65903,347.8387,65,127,0
347.84653,348.0262,62,127,0
348.03403,348.2137,59,127,0
348.22153,348.4012,67,127,0
348.40903,348.5887,59,127,0
348.59653,348.7762,55,127,0
348.78403,348.9637,62,127,0
348.97153,349.1512,68,127,0
349.15903,349.3387,62,127,0
349.34653,349.5262,56,127,0
349.53403,349.7137,59,127,0
349.72153,349.9012,67,127,0
349.90903,350.0887,59,127,0
350.09653,350.2762,55,127,0
350.28403,350.4637,62,127,0
350.47153,350.6512,68,127,0
350.65903,350.8387,62,127,0
350.84653,351.0262,56,127,0
351.03403,351.2137,59,127,0
351.22153,351.4012,67,127,0
351.40903,351.5887,59,127,0
351.59653,351.7762,55,127,0
351.78403,351.9615,58,127,0
351.9692,352.14667,67,127,0
352.1544,352.33185,58,127,0
352.33957,352.51706,55,127,0
352.52475,352.70224,61,127,0
352.52475,352.70224,63,127,0
352.70993,352.88742,67,127,0
352.89514,353.0726,61,127,0
352.89514,353.0726,63,127,0
353.08032,353.25778,55,127,0
353.2655,353.44296,61,127,0
353.2655,353.44296,65,127,0
353.45068,353.62814,68,127,0
353.63586,353.81335,61,127,0
353.63586,353.81335,65,127,0
353.82104,353.99854,56,127,0
354.00623,354.18372,61,127,0
354.00623,354.18372,63,127,0
354.19144,354.3689,67,127,0
354.37662,354.55408,61,127,0
354.37662,354.55408,63,127,0
354.5618,354.73926,55,127,0
354.74698,354.92444,61,127,0
354.74698,354.92444,65,127,0
354.93216,355.10965,68,127,0
355.11734,355.29483,61,127,0
355.11734,355.29483,65,127,0
355.30252,355.48,56,127,0
355.48773,355.6652,63,127,0
355.48773,355.6652,66,127,0
355.6729,355.85037,71,127,0
355.8581,356.03555,63,127,0
355.8581,356.03555,66,127,0
356.04327,356.22073,59,127,0
356.22845,356.4059,59,127,0
356.22845,356.4059,63,127,0
356.41364,356.59113,66,127,0
356.59882,356.7763,59,127,0
356.59882,356.7763,63,127,0
356.78403,356.9615,54,127,0
356.9692,357.14667,61,127,0
356.9692,357.14667,63,127,0
357.1544,357.33185,67,127,0
357.33957,357.51703,61,127,0
357.33957,357.51703,64,127,0
357.52475,357.7022,55,127,0
357.70993,357.88742,61,127,0
357.70993,357.88742,65,127,0
357.8951,358.0726,68,127,0
358.08032,358.25778,61,127,0
358.08032,358.25778,65,127,0
358.2655,358.44296,56,127,0
358.45068,358.62814,63,127,0
358.45068,358.62814,66,127,0
358.63586,358.81332,71,127,0
358.82104,358.9985,63,127,0
358.82104,358.9985,66,127,0
359.00623,359.18372,59,127,0
359.1914,359.3689,59,127,0
359.1914,359.3689,63,127,0
359.37662,359.55408,66,127,0
359.5618,359.73926,59,127,0
359.5618,359.73926,63,127,0
359.74698,359.92444,54,127,0
359.93216,360.10962,61,127,0
359.93216,360.10962,63,127,0
360.11734,360.2948,67,127,0
360.30252,360.48,61,127,0
360.30252,360.48,64,127,0
360.4877,360.6652,55,127,0
360.6729,360.85037,61,127,0
360.6729,360.85037,65,127,0
360.8581,361.03555,68,127,0
361.04327,361.22073,61,127,0
361.04327,361.22073,65,127,0
361.22845,361.4059,56,127,0
361.41364,361.58896,57,127,0
361.59656,361.77188,66,127,0
361.77948,361.9548,57,127,0
361.96243,362.13773,54,127,0
362.14536,362.32065,60,127,0
362.14536,362.32065,65,127,0
362.32828,362.50357,69,127,0
362.5112,362.6865,60,127,0
362.5112,362.6865,65,127,0
362.69412,362.86945,57,127,0
362.87704,363.05237,57,127,0
363.05997,363.2353,66,127,0
363.24292,363.4182,57,127,0
363.42584,363.60114,54,127,0
363.60876,363.78406,60,127,0
363.60876,363.78406,65,127,0
363.7917,363.96698,69,127,0
363.9746,364.14993,60,127,0
363.9746,364.14993,65,127,0
364.15753,364.33286,57,127,0
364.34045,364.51578,66,127,0
364.5234,364.6987,71,127,0
364.70633,364.88162,66,127,0
364.88925,365.06454,59,127,0
365.07217,365.24747,59,127,0
365.2551,365.43042,66,127,0
365.43802,365.61334,59,127,0
365.62094,365.79626,54,127,0
365.8039,365.9792,57,127,0
365.98682,366.1621,66,127,0
366.16974,366.34503,57,127,0
366.35266,366.52795,54,127,0
366.53558,366.7109,60,127,0
366.53558,366.7109,65,127,0
366.7185,366.89383,69,127,0
366.90143,367.07675,60,127,0
366.90143,367.07675,65,127,0
367.08438,367.25967,57,127,0
367.2673,367.4426,66,127,0
367.45023,367.62552,71,127,0
367.63315,367.80844,66,127,0
367.81607,367.9914,59,127,0
367.999,368.17432,59,127,0
368.18192,368.35724,66,127,0
368.36487,368.54016,59,127,0
368.5478,368.72308,54,127,0
368.7307,368.906,57,127,0
368.91364,369.08893,66,127,0
369.09656,369.27188,57,127,0
369.27948,369.4548,54,127,0
369.4624,369.63773,60,127,0
369.4624,369.63773,65,127,0
369.64536,369.82065,69,127,0
369.82828,370.00357,60,127,0
369.82828,370.00357,65,127,0
370.0112,370.1865,57,127,0
370.19412,370.36942,66,127,0
370.37704,370.55237,71,127,0
370.55997,370.7353,66,127,0
370.74292,370.9182,59,127,0
370.92584,371.09903,59,127,0
371.10657,371.27975,67,127,0
371.28726,371.46048,59,127,0
371.468,371.6412,55,127,0
371.6487,371.82193,67,127,0
371.82944,372.00262,72,127,0
372.01016,372.18335,67,127,0
372.1909,372.36407,60,127,0
372.3716,372.5448,60,127,0
372.55234,372.72552,68,127,0
372.73306,372.90625,60,127,0
372.9138,373.08698,56,127,0
373.0945,373.2677,68,127,0
373.27524,373.44843,73,127,0
373.45596,373.62915,68,127,0
373.63666,373.80988,61,127,0
373.81738,373.9906,61,127,0
373.9981,374.17133,69,127,0
374.17883,374.35202,61,127,0
374.35956,374.53275,57,127,0
374.54028,374.8942,58,127,0
374.54028,374.8942,61,127,0
374.54028,374.8942,67,127,0
374.54028,374.8942,70,127,0
377.7933,377.9665,57,127,0
377.97403,378.14722,60,127,0
377.97403,378.14722,65,127,0
377.97403,378.14722,69,127,0
378.15475,378.32794,60,127,0
378.33545,378.50867,65,127,0
378.33545,378.50867,69,127,0
378.33545,378.50867,72,127,0
378.51617,378.6894,65,127,0
378.6969,378.87012,69,127,0
378.6969,378.87012,72,127,0
378.6969,378.87012,77,127,0
378.87762,379.0508,69,127,0
379.05835,379.23154,72,127,0
379.05835,379.23154,77,127,0
379.05835,379.23154,81,127,0
379.23907,379.41226,72,127,0
379.4198,379.593,77,127,0
379.4198,379.593,81,127,0
379.4198,379.593,84,127,0
379.60052,379.95444,73,127,0
379.60052,379.95444,79,127,0
379.60052,379.95444,82,127,0
379.60052,379.95444,85,127,0
379.96198,380.3159,61,127,0
379.96198,380.3159,70,127,0
379.96198,380.3159,73,127,0
380.68054,381.03027,70,127,0
380.68054,381.03027,73,127,0
381.0377,381.3874,69,127,0
381.0377,381.3874,72,127,0
381.39484,381.56598,65,127,0
381.57343,381.74454,69,127,0
381.57343,381.74454,72,127,0
381.57343,381.74454,77,127,0
381.75198,381.92313,69,127,0
381.93054,382.10168,72,127,0
381.93054,382.10168,77,127,0
381.93054,382.10168,81,127,0
382.10913,382.28024,72,127,0
382.2877,382.45883,77,127,0
382.2877,382.45883,81,127,0
382.2877,382.45883,84,127,0
382.46628,382.81598,73,127,0
382.46628,382.81598,79,127,0
382.46628,382.81598,82,127,0
382.46628,382.81598,85,127,0
382.82343,383.17313,61,127,0
382.82343,383.17313,70,127,0
382.82343,383.17313,73,127,0
383.18054,383.53024,69,127,0
383.18054,383.53024,72,127,0
383.5377,383.8874,51,127,0
384.25198,384.60168,70,127,0
384.25198,384.60168,73,127,0
384.60913,384.95883,69,127,0
384.60913,384.95883,72,127,0
384.96628,385.31598,51,127,0
385.68054,386.03024,70,127,0
385.68054,386.03024,73,127,0
386.0377,386.3874,62,127,0
386.0377,386.3874,67,127,0
386.0377,386.3874,70,127,0
386.0377,386.3874,74,127,0
386.39484,386.47668,70,127,0
386.48413,386.56598,74,127,0
386.5734,386.65524,67,127,0
386.6627,386.74454,74,127,0
386.75198,386.83383,69,127,0
386.84128,386.9231,74,127,0
386.93054,387.0124,72,127,0
387.01984,387.10168,74,127,0
387.10913,387.19098,69,127,0
387.1984,387.28024,74,127,0
387.2877,387.36954,62,127,0
387.37698,387.45883,74,127,0
387.46628,387.5481,69,127,0
387.55554,387.6374,74,127,0
387.64484,387.72668,72,127,0
387.73413,387.81598,74,127,0
387.8234,387.90524,69,127,0
387.9127,387.99454,74,127,0
388.00198,388.08383,62,127,0
388.09128,388.1731,74,127,0
388.18054,388.2624,69,127,0
388.26984,388.35168,74,127,0
388.35913,388.44098,72,127,0
388.4484,388.53024,74,127,0
388.5377,388.61954,69,127,0
388.62698,388.70883,74,127,0
388.71628,388.7981,62,127,0
388.80554,388.8874,74,127,0
388.89484,388.97668,67,127,0
388.98413,389.06598,74,127,0
389.0734,389.15524,69,127,0
389.1627,389.24454,74,127,0
389.25198,389.33383,67,127,0
389.34125,389.4231,74,127,0
389.43054,389.5124,62,127,0
389.51984,389.60168,74,127,0
389.60913,389.69098,65,127,0
389.6984,389.78024,74,127,0
389.7877,389.86954,69,127,0
389.87698,389.95883,74,127,0
389.96625,390.0481,65,127,0
390.05554,390.1374,74,127,0
390.14484,390.22668,62,127,0
390.23413,390.31598,74,127,0
390.3234,390.40524,65,127,0
390.4127,390.49454,74,127,0
390.50198,390.58383,69,127,0
390.59125,390.6731,74,127,0
390.68054,390.7624,65,127,0
390.76984,390.85168,74,127,0
390.85913,390.94095,62,127,0
390.9484,391.03024,74,127,0
391.0377,391.11954,63,127,0
391.12698,391.20883,74,127,0
391.21625,391.2981,67,127,0
391.30554,391.3874,74,127,0
391.39484,391.47668,63,127,0
391.48413,391.56595,74,127,0
391.5734,391.65524,62,127,0
391.6627,391.74454,74,127,0
391.75198,391.83383,64,127,0
391.84125,391.9231,74,127,0
391.93054,392.0124,67,127,0
392.01984,392.10168,74,127,0
392.10913,392.19095,64,127,0
392.1984,392.28024,74,127,0
392.2877,392.36954,62,127,0
392.37698,392.45883,74,127,0
392.46625,392.5481,65,127,0
392.55554,392.6374,74,127,0
392.64484,392.72668,68,127,0
392.73413,392.81595,74,127,0
392.8234,392.90524,65,127,0
392.9127,392.99454,74,127,0
393.00198,393.08383,62,127,0
393.09125,393.1731,74,127,0
393.18054,393.2624,66,127,0
393.26984,393.35168,74,127,0
393.35913,393.44095,69,127,0
393.4484,393.53024,74,127,0
393.5377,393.61954,66,127,0
393.62698,393.70883,74,127,0
393.71625,393.7981,62,127,0
393.80554,393.8874,74,127,0
393.89484,393.97668,67,127,0
393.9841,394.06595,74,127,0
394.0734,394.15524,70,127,0
394.1627,394.24454,74,127,0
394.25198,394.33383,67,127,0
394.34125,394.4231,74,127,0
394.43054,394.5124,62,127,0
394.51984,394.60168,74,127,0
394.6091,394.69095,68,127,0
394.6984,394.78024,74,127,0
394.7877,394.86954,71,127,0
394.87698,394.9588,74,127,0
394.96625,395.0481,68,127,0
395.05554,395.1374,74,127,0
395.14484,395.22668,62,127,0
395.2341,395.31595,74,127,0
395.3234,395.40524,69,127,0
395.4127,395.49454,74,127,0
395.50198,395.5838,72,127,0
395.59125,395.6731,74,127,0
395.68054,395.7624,69,127,0
395.76984,395.85168,74,127,0
395.8591,395.94095,62,127,0
395.9484,396.03024,74,127,0
396.0377,396.11954,69,127,0
396.12698,396.2088,74,127,0
396.21625,396.2981,72,127,0
396.30554,396.3874,74,127,0
396.39484,396.47668,69,127,0
396.4841,396.56595,74,127,0
396.5734,396.65524,62,127,0
396.6627,396.74454,74,127,0
396.75198,396.8338,69,127,0
396.84125,396.9231,74,127,0
396.93054,397.0124,72,127,0
397.01984,397.10168,74,127,0
397.1091,397.19095,69,127,0
397.1984,397.28024,74,127,0
397.2877,397.36954,62,127,0
397.37698,397.4588,74,127,0
397.46625,397.5481,65,127,0
397.55554,397.6374,74,127,0
397.64484,397.72668,70,127,0
397.7341,397.81595,74,127,0
397.8234,397.90524,65,127,0
397.9127,397.99454,74,127,0
398.00195,398.0838,62,127,0
398.09125,398.1731,74,127,0
398.18054,398.2624,65,127,0
398.26984,398.35168,74,127,0
398.3591,398.44095,72,127,0
398.4484,398.53024,74,127,0
398.5377,398.61954,65,127,0
398.62695,398.7088,74,127,0
398.71625,398.7981,62,127,0
398.80554,398.8874,74,127,0
398.89484,398.97668,65,127,0
398.9841,399.06595,74,127,0
399.0734,399.15524,72,127,0
399.1627,399.24454,74,127,0
399.25195,399.3338,65,127,0
399.34125,399.4231,74,127,0
399.43054,399.5124,62,127,0
399.51984,399.60165,74,127,0
399.6091,399.69095,67,127,0
399.6984,399.78024,74,127,0
399.7877,399.86954,72,127,0
399.87695,399.9588,74,127,0
399.96625,400.0481,67,127,0
400.05554,400.1374,74,127,0
400.14484,400.22665,62,127,0
400.2341,400.31595,74,127,0
400.3234,400.40524,68,127,0
400.4127,400.49454,74,127,0
400.50195,400.5838,72,127,0
400.59125,400.6731,74,127,0
400.68054,400.7624,68,127,0
400.76984,400.85165,74,127,0
400.8591,400.94095,62,127,0
400.9484,401.03024,74,127,0
401.0377,401.11954,67,127,0
401.12695,401.2088,74,127,0
401.21625,401.2981,72,127,0
401.30554,401.3874,74,127,0
401.39484,401.47665,67,127,0
401.4841,401.56595,74,127,0
401.5734,401.65524,62,127,0
401.6627,401.74454,74,127,0
401.75195,401.8338,67,127,0
401.84125,401.9231,74,127,0
401.93054,402.0124,72,127,0
402.01984,402.10165,74,127,0
402.1091,402.19095,67,127,0
402.1984,402.28024,74,127,0
402.2877,402.36954,62,127,0
402.37695,402.4588,74,127,0
402.46625,402.5481,69,127,0
402.55554,402.6374,74,127,0
402.6448,402.72665,72,127,0
402.7341,402.81595,74,127,0
402.8234,402.90524,69,127,0
402.9127,402.99454,74,127,0
403.00195,403.0838,62,127,0
403.09125,403.1731,74,127,0
403.18054,403.2624,68,127,0
403.2698,403.35165,76,127,0
403.3591,403.44095,71,127,0
403.4484,403.53024,76,127,0
403.5377,403.61954,68,127,0
403.62695,403.7088,76,127,0
403.71625,403.7981,62,127,0
403.80554,403.8874,76,127,0
403.8948,403.97665,68,127,0
403.9841,404.06595,76,127,0
404.0734,404.15524,71,127,0
404.1627,404.2445,76,127,0
404.25195,404.3338,68,127,0
404.34125,404.4231,76,127,0
404.43054,404.5124,62,127,0
404.5198,404.60165,76,127,0
404.6091,404.69095,68,127,0
404.6984,404.78024,75,127,0
404.7877,404.8695,72,127,0
404.87695,404.9588,75,127,0
404.96625,405.0481,68,127,0
405.05554,405.1374,75,127,0
405.1448,405.22665,62,127,0
405.2341,405.31595,75,127,0
405.3234,405.40524,67,127,0
405.4127,405.4945,75,127,0
405.50195,405.5838,72,127,0
405.59125,405.6731,75,127,0
405.68054,405.7624,67,127,0
405.7698,405.85165,75,127,0
405.8591,405.94095,62,127,0
405.9484,406.03024,75,127,0
406.0377,406.1195,68,127,0
406.12695,406.2088,76,127,0
406.21625,406.2981,71,127,0
406.30554,406.3874,76,127,0
406.3948,406.47665,68,127,0
406.4841,406.56595,76,127,0
406.5734,406.65524,62,127,0
406.66266,406.7445,76,127,0
406.75195,406.8338,68,127,0
406.84125,406.9231,76,127,0
406.93054,407.0124,71,127,0
407.0198,407.10165,76,127,0
407.1091,407.19095,68,127,0
407.1984,407.28024,76,127,0
407.28766,407.3695,62,127,0
407.37695,407.4588,76,127,0
407.46625,407.5481,68,127,0
407.55554,407.6374,75,127,0
407.6448,407.72665,72,127,0
407.7341,407.81595,75,127,0
407.8234,407.90524,68,127,0
407.91266,407.9945,75,127,0
408.00195,408.0838,62,127,0
408.09125,408.1731,75,127,0
408.18054,408.26236,67,127,0
408.2698,408.35165,75,127,0
408.3591,408.44095,72,127,0
408.4484,408.53024,75,127,0
408.53766,408.6195,67,127,0
408.62695,408.7088,75,127,0
408.71625,408.7981,62,127,0
408.80554,408.88736,75,127,0
408.8948,408.97665,66,127,0
408.9841,409.06595,74,127,0
409.0734,409.15524,71,127,0
409.16266,409.2445,74,127,0
409.25195,409.3338,66,127,0
409.34125,409.4231,74,127,0
409.43054,409.51236,62,127,0
409.5198,409.60165,74,127,0
409.6091,409.69095,66,127,0
409.6984,409.78024,74,127,0
409.78766,409.8695,71,127,0
409.87695,409.9588,74,127,0
409.96625,410.0481,66,127,0
410.05554,410.13736,74,127,0
410.1448,410.22665,62,127,0
410.2341,410.31595,74,127,0
410.3234,410.40524,66,127,0
410.41266,410.4945,74,127,0
410.50195,410.5838,70,127,0
410.59125,410.6731,74,127,0
410.68054,410.76236,66,127,0
410.7698,410.85165,74,127,0
410.8591,410.94095,62,127,0
410.9484,411.03024,74,127,0
411.03766,411.1195,66,127,0
411.12695,411.2088,74,127,0
411.21625,411.2981,72,127,0
411.3055,411.38736,74,127,0
411.3948,411.47665,66,127,0
411.4841,411.56595,74,127,0
411.5734,411.65524,62,127,0
411.66266,411.7445,74,127,0
411.75195,411.8338,67,127,0
411.84125,411.9231,74,127,0
411.9305,412.01236,70,127,0
412.0198,412.10165,74,127,0
412.1091,412.19095,67,127,0
412.1984,412.28024,74,127,0
412.28766,412.3695,62,127,0
412.37695,412.4588,74,127,0
413.8948,414.6091,67,127,0
413.8948,414.6091,79,127,0
414.6091,415.32336,79,127,0
414.6091,415.32336,91,127,0
415.32336,416.75195,77,127,0
415.32336,416.75195,89,127,0
416.75195,417.1091,75,127,0
416.75195,417.1091,87,127,0
417.1091,417.28766,74,127,0
417.1091,417.28766,86,127,0
417.28766,417.46625,72,127,0
417.28766,417.46625,84,127,0
417.46625,418.1805,75,127,0
417.46625,418.1805,87,127,0
418.1805,419.6091,74,127,0
418.1805,419.6091,86,127,0
419.6091,420.32336,82,127,0
419.6091,420.32336,94,127,0
420.32336,421.3948,74,127,0
420.32336,421.3948,86,127,0
421.3948,421.57336,73,127,0
421.3948,421.57336,85,127,0
421.57336,421.75195,74,127,0
421.57336,421.75195,86,127,0
421.75195,422.1091,75,127,0
421.75195,422.1091,87,127,0
422.1091,422.28766,74,127,0
422.1091,422.28766,86,127,0
422.28766,422.46622,75,127,0
422.28766,422.46622,87,127,0
422.46622,422.82336,76,127,0
422.46622,422.82336,88,127,0
422.82336,423.00195,75,127,0
422.82336,423.00195,87,127,0
423.00195,423.17307,76,127,0
423.00195,423.17307,88,127,0
423.1805,423.71622,79,127,0
423.1805,423.71622,91,127,0
423.71622,423.88736,75,127,0
423.71622,423.88736,87,127,0
423.8948,424.9588,77,127,0
423.8948,424.9588,89,127,0
425.32336,425.9186,77,127,0
425.32336,425.9186,89,127,0
426.03766,426.75195,78,127,0
426.03766,426.75195,90,127,0
426.75195,427.82336,76,127,0
426.75195,427.82336,88,127,0
427.82336,428.1805,74,127,0
427.82336,428.1805,86,127,0
428.1805,428.53766,73,127,0
428.1805,428.53766,85,127,0
428.53766,428.71622,71,127,0
428.53766,428.71622,83,127,0
428.71622,428.8948,69,127,0
428.71622,428.8948,81,127,0
428.8948,429.60907,73,127,0
428.8948,429.60907,85,127,0
429.60907,430.67307,71,127,0
429.60907,430.67307,83,127,0
431.3948,431.7445,64,127,0
431.3948,431.7445,76,127,0
431.75192,431.84122,76,127,0
431.84122,432.46622,76,127,0
431.84122,432.46622,88,127,0
432.46622,433.53766,74,127,0
432.46622,433.53766,86,127,0
433.53766,433.89478,72,127,0
433.53766,433.89478,84,127,0
433.89478,434.25192,71,127,0
433.89478,434.25192,83,127,0
434.25192,434.4305,69,127,0
434.25192,434.4305,81,127,0
434.4305,434.60162,67,127,0
434.4305,434.60162,79,127,0
434.60907,435.32336,71,127,0
434.60907,435.32336,83,127,0
435.32336,436.38736,69,127,0
435.32336,436.38736,81,127,0
438.1805,439.60907,62,127,0
439.60907,440.32336,64,127,0
440.32336,441.03763,66,127,0
441.03763,441.75192,64,127,0
441.75192,442.34717,63,127,0
442.46622,442.99448,54,127,0
442.46622,442.99448,59,127,0
442.46622,442.99448,63,127,0
442.46622,442.99448,66,127,0
443.00192,445.14478,56,127,0
443.06143,445.14478,59,127,0
443.12097,445.14478,64,127,0
443.18048,445.14478,68,127,0
445.32336,445.85162,56,127,0
445.32336,445.85162,59,127,0
445.32336,445.85162,64,127,0
445.32336,445.85162,68,127,0
445.85907,449.49002,56,127,0
445.91858,449.49002,59,127,0
445.97812,449.49002,65,127,0
446.03763,449.49002,68,127,0
450.32333,450.49448,60,127,0
450.50192,450.67303,59,127,0
450.68048,450.85162,56,127,0
450.85907,451.03018,53,127,0
451.75192,451.92303,60,127,0
451.93048,452.10162,59,127,0
452.10907,452.28018,56,127,0
452.28763,452.45877,52,127,0
452.4662,452.63733,64,127,0
452.64478,452.8159,62,127,0
452.82333,452.99866,59,127,0
453.00626,453.18158,56,127,0
453.1892,453.3645,62,127,0
453.37213,453.54742,60,127,0
453.55505,453.73035,57,127,0
453.73798,453.91327,54,127,0
453.9209,454.10248,52,127,0
454.92194,455.10944,62,127,0
455.10944,455.28912,67,127,0
455.10944,455.28912,71,127,0
455.10944,455.28912,74,127,0
455.67194,455.85944,62,127,0
455.85944,456.03912,67,127,0
455.85944,456.03912,71,127,0
456.42194,456.60944,60,127,0
456.60944,456.78912,64,127,0
456.60944,456.78912,67,127,0
457.17194,457.35944,57,127,0
457.35944,457.53912,64,127,0
457.35944,457.53912,66,127,0
457.92194,458.10944,55,127,0
458.10944,458.28912,59,127,0
458.10944,458.28912,67,127,0
458.67194,458.85944,56,127,0
458.85944,459.03912,59,127,0
458.85944,459.03912,68,127,0
459.42194,459.60944,56,127,0
459.60944,459.78912,62,127,0
459.60944,459.78912,68,127,0
460.17194,460.35944,55,127,0
460.35944,460.53912,59,127,0
460.35944,460.53912,62,127,0
460.35944,460.53912,67,127,0
460.92194,461.10944,62,127,0
461.10944,461.28912,67,127,0
461.10944,461.28912,71,127,0
461.10944,461.28912,74,127,0
461.67194,461.85944,62,127,0
461.85944,462.03912,67,127,0
461.85944,462.03912,71,127,0
462.42194,462.60944,60,127,0
462.60944,462.78912,64,127,0
462.60944,462.78912,67,127,0
463.17194,463.35944,57,127,0
463.35944,463.53912,64,127,0
463.35944,463.53912,66,127,0
463.92194,464.10944,55,127,0
464.10944,464.28912,59,127,0
464.10944,464.28912,67,127,0
464.67194,464.85944,56,127,0
464.85944,465.03912,59,127,0
464.85944,465.03912,68,127,0
465.42194,465.60944,56,127,0
465.60944,465.79022,62,127,0
465.60944,465.79022,65,127,0
465.60944,465.79022,68,127,0
466.17786,466.37018,56,127,0
466.37018,466.55447,59,127,0
466.37018,466.55447,65,127,0
466.37018,466.55447,68,127,0
466.95084,467.14566,56,127,0
467.14566,467.32535,59,127,0
467.14566,467.32535,62,127,0
467.14566,467.32535,68,127,0
467.70816,467.89566,55,127,0
467.89566,468.07535,59,127,0
467.89566,468.07535,67,127,0
468.45816,468.64566,55,127,0
468.64566,468.82535,60,127,0
468.64566,468.82535,67,127,0
469.20816,469.39566,55,127,0
469.39566,469.57535,62,127,0
469.39566,469.57535,67,127,0
469.95816,470.14566,55,127,0
470.14566,470.32535,61,127,0
470.14566,470.32535,67,127,0
470.70816,470.89566,55,127,0
470.89566,471.07535,60,127,0
470.89566,471.07535,67,127,0
471.45816,471.64566,55,127,0
471.64566,471.82535,61,127,0
471.64566,471.82535,67,127,0
472.20816,472.39566,55,127,0
472.39566,472.57535,60,127,0
472.39566,472.57535,67,127,0
472.95816,473.14566,55,127,0
473.14566,473.32535,61,127,0
473.14566,473.32535,67,127,0
473.70816,473.89566,57,127,0
473.89566,474.07535,64,127,0
473.89566,474.07535,69,127,0
474.45816,474.64566,57,127,0
474.64566,474.82535,62,127,0
474.64566,474.82535,69,127,0
475.20816,475.39566,58,127,0
475.39566,475.57535,61,127,0
475.39566,475.57535,70,127,0
475.95816,476.14566,57,127,0
476.14566,476.32535,63,127,0
476.14566,476.32535,69,127,0
476.70816,476.89566,63,127,0
476.89566,477.07535,68,127,0
476.89566,477.07535,75,127,0
477.45816,477.64566,57,127,0
477.64566,477.82535,63,127,0
477.64566,477.82535,69,127,0
478.20816,478.39566,63,127,0
478.39566,478.57535,68,127,0
478.39566,478.57535,75,127,0
478.95816,479.14566,57,127,0
479.14566,479.32535,63,127,0
479.14566,479.32535,69,127,0
479.70816,479.89566,63,127,0
479.89566,480.07535,68,127,0
479.89566,480.07535,75,127,0
480.45816,480.64566,68,127,0
480.45816,480.64566,75,127,0
480.64566,480.82535,63,127,0
481.20816,481.39566,67,127,0
481.39566,481.57535,70,127,0
481.39566,481.57535,79,127,0
481.95816,482.14566,62,127,0
482.14566,482.32535,70,127,0
482.14566,482.32535,74,127,0
482.70816,482.89566,62,127,0
482.89566,483.07535,69,127,0
482.89566,483.07535,74,127,0
483.45816,483.64566,57,127,0
483.64566,483.82535,62,127,0
483.64566,483.82535,69,127,0
484.20816,484.39566,58,127,0
484.39566,484.57535,62,127,0
484.39566,484.57535,65,127,0
484.39566,484.57535,70,127,0
485.89566,486.27066,86,127,0
486.27066,486.83316,84,127,0
486.83316,487.01285,74,127,0
487.02066,488.13785,74,127,0
488.14566,488.52066,74,127,0
488.52066,488.89566,79,127,0
488.89566,489.27066,86,127,0
489.27066,489.83316,84,127,0
489.83316,490.01285,74,127,0
490.02066,490.64566,74,127,0
490.95816,491.14566,62,127,0
491.14566,491.32535,67,127,0
491.14566,491.32535,71,127,0
491.14566,491.32535,74,127,0
491.70816,491.89566,67,127,0
491.70816,491.89566,71,127,0
491.70816,491.89566,74,127,0
491.89566,492.07535,62,127,0
492.45816,492.64566,62,127,0
492.64566,492.82535,68,127,0
492.64566,492.82535,72,127,0
492.64566,492.82535,74,127,0
493.20816,493.39566,69,127,0
493.20816,493.39566,72,127,0
493.20816,493.39566,74,127,0
493.39566,493.57535,62,127,0
495.27066,495.45035,71,127,0
495.45816,495.63785,67,127,0
495.64566,495.82535,62,127,0
495.83316,496.01285,59,127,0
496.77066,497.52066,72,127,0
496.77066,497.52066,84,127,0
497.52066,497.89566,73,127,0
497.52066,497.89566,85,127,0
497.89566,498.27066,75,127,0
497.89566,498.27066,87,127,0
498.27066,499.02066,77,127,0
498.27066,499.02066,89,127,0
499.02066,499.39566,78,127,0
499.02066,499.39566,90,127,0
499.39566,499.77066,80,127,0
499.39566,499.77066,92,127,0
499.77066,500.13785,81,127,0
499.77066,500.13785,93,127,0
501.27066,501.45816,71,127,0
501.45816,501.64566,67,127,0
501.64566,501.83316,62,127,0
501.83316,502.02066,59,127,0
502.77066,503.52066,72,127,0
502.77066,503.52066,84,127,0
503.52066,503.89566,73,127,0
503.52066,503.89566,85,127,0
503.89566,504.27066,75,127,0
503.89566,504.27066,87,127,0
504.27066,505.02066,77,127,0
504.27066,505.02066,89,127,0
505.02066,505.39566,78,127,0
505.02066,505.39566,90,127,0
505.39566,505.77066,80,127,0
505.39566,505.77066,92,127,0
505.77066,506.13785,81,127,0
505.77066,506.13785,93,127,0
507.27066,507.63785,71,127,0
509.33316,509.52066,63,127,0
509.52066,509.88785,68,127,0
509.52066,509.88785,75,127,0
510.83316,511.02066,63,127,0
511.02066,511.38785,67,127,0
511.02066,511.38785,75,127,0
512.1456,512.3331,60,127,0
512.3331,512.5206,62,127,0
512.5206,512.8878,66,127,0
512.5206,512.8878,72,127,0
514.7706,514.85657,59,127,0
514.8644,514.9503,67,127,0
514.9581,515.04407,62,127,0
515.0519,515.1378,67,127,0
515.1456,515.23157,59,127,0
515.2394,515.3253,67,127,0
515.3331,515.41907,55,127,0
515.4269,515.5128,67,127,0
515.5206,515.60657,59,127,0
515.6144,515.7003,67,127,0
515.7081,515.79407,62,127,0
515.8019,515.8878,67,127,0
515.8956,515.98157,59,127,0
515.9894,516.0753,67,127,0
516.0831,516.16907,55,127,0
516.1769,516.2628,67,127,0
516.2706,516.35657,59,127,0
516.3644,516.4503,67,127,0
516.4581,516.54407,62,127,0
516.5519,516.6378,67,127,0
516.6456,516.73157,59,127,0
516.7394,516.8253,67,127,0
516.8331,516.91907,55,127,0
516.9269,517.0128,67,127,0
517.0206,517.10657,59,127,0
517.1144,517.2003,67,127,0
517.2081,517.29407,62,127,0
517.3019,517.3878,67,127,0
517.3956,517.48157,59,127,0
517.4894,517.5753,67,127,0
517.5831,517.66907,55,127,0
517.6769,517.7628,67,127,0
517.7706,517.85657,67,127,0
517.8644,517.9503,75,127,0
517.9581,518.04407,71,127,0
518.0519,518.1378,75,127,0
518.1456,518.23157,67,127,0
518.2394,518.3253,75,127,0
518.3331,518.41907,63,127,0
518.4269,518.5128,75,127,0
518.5206,518.60657,66,127,0
518.6144,518.7003,75,127,0
518.7081,518.79407,71,127,0
518.8019,518.8878,75,127,0
518.8956,518.98157,66,127,0
518.9894,519.0753,75,127,0
519.0831,519.16907,63,127,0
519.1769,519.2628,75,127,0
519.2706,519.35657,66,127,0
519.3644,519.4503,75,127,0
519.4581,519.54407,71,127,0
519.5519,519.6378,75,127,0
519.6456,519.73157,66,127,0
519.7394,519.8253,75,127,0
519.8331,519.91907,63,127,0
519.9269,520.0128,75,127,0
520.0206,520.10657,66,127,0
520.1144,520.2003,75,127,0
520.2081,520.29407,71,127,0
520.3019,520.3878,75,127,0
520.3956,520.48157,66,127,0
520.4894,520.5753,75,127,0
520.5831,520.66907,63,127,0
520.6769,520.7628,75,127,0
520.7706,520.85657,59,127,0
520.8644,520.9503,67,127,0
520.9581,521.04407,62,127,0
521.0519,521.1378,67,127,0
521.1456,521.23157,59,127,0
521.2394,521.3253,67,127,0
521.3331,521.41907,55,127,0
521.4269,521.5128,67,127,0
521.5206,521.60657,59,127,0
521.6144,521.7003,67,127,0
521.7081,521.79407,62,127,0
521.8019,521.8878,67,127,0
521.8956,521.98157,59,127,0
521.9894,522.0753,67,127,0
522.0831,522.16907,55,127,0
522.1769,522.2628,67,127,0
522.2706,522.35657,59,127,0
522.3644,522.4503,67,127,0
522.4581,522.54407,62,127,0
522.5519,522.6378,67,127,0
522.6456,522.73157,59,127,0
522.7394,522.8253,67,127,0
522.8331,522.91907,55,127,0
522.9269,523.0128,67,127,0
523.0206,523.10657,59,127,0
523.1144,523.2003,67,127,0
523.2081,523.29407,62,127,0
523.3019,523.3878,67,127,0
523.3956,523.48157,59,127,0
523.4894,523.5753,67,127,0
523.5831,523.66907,55,127,0
523.6769,523.7628,67,127,0
523.7706,523.85657,67,127,0
523.8644,523.9503,75,127,0
523.9581,524.04407,71,127,0
524.0519,524.1378,75,127,0
524.1456,524.23157,67,127,0
524.2394,524.3253,75,127,0
524.3331,524.41907,63,127,0
524.4269,524.5128,75,127,0
524.5206,524.60657,67,127,0
524.6144,524.7003,75,127,0
524.7081,524.79407,70,127,0
524.8019,524.8878,75,127,0
524.8956,524.98157,67,127,0
524.9894,525.0753,75,127,0
525.0831,525.16907,63,127,0
525.1769,525.2628,75,127,0
525.2706,525.35657,67,127,0
525.3644,525.4503,75,127,0
525.4581,525.54407,70,127,0
525.5519,525.6378,75,127,0
525.6456,525.73157,67,127,0
525.7394,525.8253,75,127,0
525.8331,525.91907,63,127,0
525.9269,526.0128,75,127,0
526.0206,526.10657,67,127,0
526.1144,526.2003,75,127,0
526.2081,526.29407,70,127,0
526.3019,526.3878,75,127,0
526.3956,526.48157,67,127,0
526.4894,526.5753,75,127,0
526.5831,526.66907,63,127,0
526.6769,526.7628,75,127,0
526.7706,526.85657,67,127,0
526.8644,526.9503,75,127,0
526.9581,527.04407,71,127,0
527.0519,527.1378,75,127,0
527.1456,527.23157,67,127,0
527.2394,527.3253,75,127,0
527.3331,527.41907,63,127,0
527.4269,527.5128,75,127,0
527.5206,527.60657,66,127,0
527.6144,527.7003,75,127,0
527.7081,527.79407,71,127,0
527.8019,527.8878,75,127,0
527.8956,527.98157,66,127,0
527.9894,528.0753,75,127,0
528.0831,528.16907,63,127,0
528.1769,528.2628,75,127,0
528.2706,528.35657,66,127,0
528.3644,528.4503,75,127,0
528.4581,528.54407,71,127,0
528.5519,528.6378,75,127,0
528.6456,528.73157,66,127,0
528.7394,528.8253,75,127,0
528.8331,528.91907,63,127,0
528.9269,529.0128,75,127,0
529.0206,529.10657,66,127,0
529.1144,529.2003,75,127,0
529.2081,529.29407,71,127,0
529.3019,529.3878,75,127,0
529.3956,529.48157,66,127,0
529.4894,529.5753,75,127,0
529.5831,529.66907,63,127,0
529.6769,529.7628,75,127,0
529.9581,530.1378,59,127,0
530.1456,530.3253,64,127,0
530.3331,530.5128,71,127,0
530.5206,530.7003,66,127,0
530.7081,530.8878,59,127,0
530.8956,531.0753,67,127,0
531.0831,531.2628,71,127,0
531.2706,531.4503,70,127,0
531.4581,531.6378,59,127,0
531.6456,531.8253,68,127,0
531.8331,532.0128,71,127,0
532.0206,532.2003,67,127,0
532.2081,532.3878,59,127,0
532.3956,532.5753,63,127,0
532.5831,532.7628,67,127,0
532.9581,533.1378,59,127,0
533.1456,533.3253,63,127,0
533.3331,533.5128,71,127,0
533.5206,533.7003,64,127,0
533.7081,533.8878,59,127,0
533.8956,534.0753,66,127,0
534.0831,534.2628,71,127,0
534.2706,534.4503,69,127,0
534.4581,534.6378,59,127,0
534.6456,534.8253,67,127,0
534.8331,535.0128,71,127,0
535.0206,535.2003,66,127,0
535.2081,535.3878,59,127,0
535.3956,535.5753,62,127,0
535.5831,535.7628,66,127,0
535.9581,536.1378,59,127,0
536.1456,536.3253,64,127,0
536.3331,536.5128,71,127,0
536.5206,536.7003,66,127,0
536.7081,536.8878,59,127,0
536.8956,537.0753,67,127,0
537.0831,537.2628,71,127,0
537.2706,537.4503,70,127,0
537.4581,537.6378,59,127,0
537.6456,537.8253,68,127,0
537.8331,538.0128,71,127,0
538.0206,538.2003,67,127,0
538.2081,538.3878,59,127,0
538.3956,538.5753,63,127,0
538.5831,538.7628,67,127,0
538.9581,539.1378,59,127,0
539.1456,539.3253,63,127,0
539.3331,539.5128,71,127,0
539.5206,539.7003,64,127,0
539.7081,539.8878,59,127,0
539.8956,540.0753,66,127,0
540.0831,540.2628,71,127,0
540.2706,540.4503,69,127,0
540.4581,540.6378,59,127,0
540.6456,540.8253,67,127,0
540.8331,541.0128,71,127,0
541.0206,541.2003,66,127,0
541.2081,541.3878,59,127,0
541.3956,541.5753,62,127,0
541.5831,541.7628,66,127,0
541.7706,542.1456,74,127,0
542.1456,542.3331,72,127,0
542.3331,542.5206,71,127,0
542.1456,542.8956,65,127,0
542.8956,543.0831,64,127,0
542.5206,543.1456,71,127,0
543.0831,543.2706,62,127,0
543.2706,543.6278,60,127,0
543.6278,543.80634,62,127,0
543.80634,543.9849,64,127,0
543.2706,544.1933,69,127,0
544.1933,544.4016,72,127,0
544.4016,544.6099,71,127,0
543.9849,544.6794,64,127,0
544.6099,544.8096,69,127,0
544.8183,545.213,74,127,0
545.213,545.4104,72,127,0
545.4104,545.6077,71,127,0
544.8183,545.9781,65,127,0
545.9781,546.16327,64,127,0
545.6077,546.22504,71,127,0
546.16327,546.3485,62,127,0
546.3485,546.7235,60,127,0
546.7235,546.911,62,127,0
546.911,547.0985,64,127,0
546.3485,547.3068,69,127,0
547.3068,547.51514,72,127,0
547.51514,547.7235,71,127,0
547.0985,547.7929,64,127,0
547.7235,547.92316,69,127,0
548.3068,548.4865,74,127,0
548.4943,548.674,65,127,0
549.0568,549.2365,72,127,0
549.2443,549.424,65,127,0
549.6193,549.799,56,127,0
549.8068,549.9865,65,127,0
549.8068,549.9865,68,127,0
549.9943,550.174,56,127,0
550.3693,550.549,56,127,0
550.5568,550.7365,64,127,0
550.5568,550.7365,68,127,0
550.7443,550.924,56,127,0
551.1193,551.299,56,127,0
551.3068,551.4865,62,127,0
551.3068,551.4865,68,127,0
551.4943,551.674,56,127,0
551.8693,552.049,57,127,0
552.0568,552.2365,62,127,0
552.0568,552.2365,69,127,0
552.2443,552.424,57,127,0
552.6193,552.799,57,127,0
552.8068,552.9865,66,127,0
552.8068,552.9865,69,127,0
552.9943,553.174,57,127,0
553.3693,553.549,60,127,0
553.5568,553.7365,68,127,0
553.5568,553.7365,72,127,0
553.7443,553.924,60,127,0
554.1193,554.299,63,127,0
554.3068,554.4865,71,127,0
554.3068,554.4865,75,127,0
554.4943,554.674,63,127,0
554.8693,555.049,63,127,0
555.0568,555.2365,69,127,0
555.0568,555.2365,75,127,0
555.2443,555.424,63,127,0
555.6193,555.799,64,127,0
555.8068,555.9865,67,127,0
555.8068,555.9865,76,127,0
555.9943,556.174,64,127,0
556.3693,556.549,57,127,0
556.5568,556.7365,67,127,0
556.7443,556.924,57,127,0
557.1193,557.299,59,127,0
557.3068,557.4865,67,127,0
557.4943,557.674,59,127,0
560.12054,560.30023,50,127,0
560.30804,560.48773,59,127,0
560.49554,560.67523,62,127,0
560.68304,560.86273,59,127,0
560.87054,561.05023,50,127,0
561.05804,561.23773,59,127,0
561.24554,561.42523,62,127,0
561.43304,561.61273,59,127,0
561.62054,561.80023,55,127,0
561.80804,561.98773,64,127,0
561.99554,562.17523,67,127,0
562.18304,562.36273,64,127,0
562.37054,562.55023,56,127,0
562.55804,562.73773,62,127,0
562.74554,562.92523,66,127,0
562.93304,563.11273,62,127,0
563.12054,563.30023,55,127,0
563.30804,563.48773,62,127,0
563.49554,563.67523,64,127,0
563.68304,563.86273,62,127,0
563.87054,564.05023,57,127,0
563.87054,564.05023,61,127,0
564.05804,564.23773,69,127,0
564.24554,564.42523,59,127,0
564.43304,564.61273,69,127,0
564.62054,564.80023,60,127,0
564.80804,564.98773,67,127,0
564.99554,565.17523,71,127,0
565.18304,565.36273,67,127,0
565.37054,565.55023,60,127,0
565.55804,565.73773,66,127,0
565.74554,565.92523,72,127,0
565.93304,566.11273,66,127,0
566.12054,566.30023,59,127,0
566.30804,566.48773,67,127,0
566.49554,566.67523,71,127,0
566.68304,566.86273,67,127,0
566.87054,567.05023,59,127,0
567.05804,567.23773,67,127,0
567.24554,567.42523,71,127,0
567.43304,567.61273,67,127,0
567.62054,567.80023,59,127,0
567.80804,567.98773,62,127,0
567.99554,568.17523,69,127,0
568.18304,568.36273,62,127,0
568.37054,568.55023,59,127,0
568.55804,568.73773,62,127,0
568.74554,568.92523,68,127,0
568.93304,569.11273,62,127,0
569.12054,569.30023,59,127,0
569.30804,569.48773,67,127,0
569.49554,569.67523,71,127,0
569.68304,569.86273,67,127,0
569.87054,570.05023,61,127,0
570.05804,570.23773,67,127,0
570.24554,570.42523,73,127,0
570.43304,570.61273,67,127,0
570.62054,570.80023,62,127,0
570.80804,570.98773,71,127,0
570.99554,571.17523,74,127,0
571.18304,571.36273,71,127,0
571.37054,571.55023,62,127,0
571.55804,571.73773,69,127,0
571.74554,571.92523,74,127,0
571.93304,572.11273,69,127,0
572.12054,572.30023,62,127,0
572.30804,572.48773,69,127,0
572.49554,572.67523,74,127,0
572.68304,572.86273,69,127,0
572.87054,573.05023,62,127,0
573.05804,573.23773,67,127,0
573.24554,573.42523,74,127,0
573.43304,573.61273,67,127,0
573.62054,573.80023,55,127,0
573.80804,573.98773,64,127,0
573.99554,574.17523,67,127,0
574.18304,574.36273,64,127,0
574.37054,574.55023,56,127,0
574.55804,574.73773,62,127,0
574.74554,574.92523,66,127,0
574.93304,575.11273,62,127,0
575.12054,575.30023,55,127,0
575.30804,575.48773,62,127,0
575.49554,575.67523,64,127,0
575.68304,575.86273,62,127,0
575.87054,576.05023,57,127,0
575.87054,576.05023,61,127,0
576.05804,576.23773,69,127,0
576.24554,576.42523,59,127,0
576.43304,576.61273,69,127,0
576.62054,576.80023,60,127,0
576.80804,576.98773,67,127,0
576.99554,577.17523,71,127,0
577.18304,577.36273,67,127,0
577.37054,577.55023,72,127,0
577.55804,577.73773,66,127,0
577.74554,577.92523,60,127,0
577.93304,578.11273,72,127,0
578.12054,578.30023,71,127,0
578.30804,578.48773,67,127,0
578.49554,578.67523,64,127,0
578.68304,578.86273,59,127,0
578.87054,579.05023,71,127,0
579.05804,579.23773,67,127,0
579.24554,579.42523,62,127,0
579.43304,579.61273,59,127,0
579.62054,579.80023,71,127,0
579.80804,579.98773,69,127,0
579.99554,580.17523,62,127,0
580.18304,580.36273,59,127,0
580.37054,580.55023,71,127,0
580.55804,580.73773,68,127,0
580.74554,580.92523,62,127,0
580.93304,581.11273,59,127,0
581.12054,581.30023,71,127,0
581.30804,581.48773,67,127,0
581.49554,581.67523,59,127,0
581.68304,581.8673,67,127,0
581.8753,582.05963,73,127,0
582.0676,582.25195,67,127,0
582.25995,582.4491,61,127,0
582.45734,582.6465,67,127,0
582.65466,582.8438,62,127,0
582.85205,583.0463,71,127,0
583.05475,583.249,74,127,0
583.25745,583.4517,62,127,0
583.46014,583.66156,69,127,0
583.6705,583.87976,74,127,0
583.889,584.1088,78,127,0
584.1186,584.34796,81,127,0
584.35803,584.71515,86,127,0
584.71515,585.0723,82,127,0
585.0723,585.42944,77,127,0
585.42944,585.78656,74,127,0
585.78656,586.14374,79,127,0
586.14374,586.50085,86,127,0
586.50085,587.03656,89,127,0
587.03656,587.21515,80,127,0
587.21515,587.5723,79,127,0
587.5723,587.92944,86,127,0
587.92944,588.46515,89,127,0
588.46515,588.64374,80,127,0
588.64374,589.17944,79,127,0
589.17944,589.3506,86,127,0
589.35803,589.95325,86,127,0
590.25085,590.422,55,127,0
590.42944,590.6006,60,127,0
590.60803,590.7791,64,127,0
590.96515,591.1363,59,127,0
591.14374,591.3149,62,127,0
591.3223,591.4934,66,127,0
591.67944,591.8506,55,127,0
591.85803,592.0291,60,127,0
592.03656,592.2077,64,127,0
592.39374,592.5649,59,127,0
592.57227,592.7434,62,127,0
592.75085,592.922,66,127,0
593.10803,593.2791,55,127,0
593.28656,593.4577,60,127,0
593.46515,593.6363,64,127,0
593.82227,593.9934,59,127,0
594.00085,594.172,62,127,0
594.17944,594.3506,66,127,0
594.53656,594.7077,66,127,0
594.71515,594.8863,54,127,0
594.89374,595.0649,63,127,0
595.07227,595.2434,55,127,0
595.25085,595.422,63,127,0
595.42944,595.6006,67,127,0
595.60803,595.7791,55,127,0
595.96515,596.1363,70,127,0
596.14374,596.3149,58,127,0
596.32227,596.4934,67,127,0
596.50085,596.672,59,127,0
596.67944,596.8506,67,127,0
596.85803,597.0291,71,127,0
597.03656,597.2077,59,127,0
597.39374,597.5648,66,127,0
597.57227,597.7434,54,127,0
597.75085,597.922,63,127,0
597.92944,598.1006,55,127,0
598.10803,598.2791,63,127,0
598.28656,598.4577,67,127,0
598.46515,598.6363,55,127,0
598.82227,598.9934,70,127,0
599.00085,599.172,58,127,0
599.17944,599.3506,67,127,0
599.35803,599.5291,59,127,0
599.53656,599.7077,67,127,0
599.71515,599.8863,71,127,0
599.89374,600.0648,59,127,0
600.25085,600.422,66,127,0
600.42944,600.6006,54,127,0
600.608,600.7791,63,127,0
600.78656,600.9577,55,127,0
600.96515,601.1363,63,127,0
601.14374,601.3148,67,127,0
601.32227,601.4934,55,127,0
601.50085,601.5827,58,127,0
601.59015,601.672,67,127,0
601.67944,601.7613,63,127,0
601.76874,601.8506,67,127,0
601.858,601.9398,58,127,0
601.94727,602.0291,67,127,0
602.03656,602.1184,55,127,0
602.12585,602.2077,67,127,0
602.21515,602.297,63,127,0
602.30444,602.3863,69,127,0
602.39374,602.4756,65,127,0
602.483,602.5648,69,127,0
602.57227,602.6541,63,127,0
602.66156,602.7434,69,127,0
602.75085,602.8327,57,127,0
602.84015,602.922,69,127,0
602.92944,603.0113,63,127,0
603.01874,603.1006,70,127,0
603.108,603.1898,65,127,0
603.19727,603.2791,70,127,0
603.28656,603.3684,63,127,0
603.37585,603.4577,70,127,0
603.46515,603.547,58,127,0
603.55444,603.6363,70,127,0
603.64374,603.7256,63,127,0
603.733,603.8148,72,127,0
603.82227,603.9041,67,127,0
603.91156,603.9934,72,127,0
604.00085,604.0827,63,127,0
604.09015,604.172,72,127,0
604.17944,604.2613,60,127,0
604.26874,604.3506,72,127,0
604.358,604.4398,63,127,0
604.44727,604.5291,72,127,0
604.53656,604.6184,68,127,0
604.62585,604.7077,72,127,0
604.71515,604.797,63,127,0
604.80444,604.8863,72,127,0
604.89374,604.9756,60,127,0
604.983,605.0648,72,127,0
605.07227,605.1541,68,127,0
605.16156,605.2434,74,127,0
605.25085,605.3327,72,127,0
605.34015,605.422,74,127,0
605.42944,605.5113,68,127,0
605.51874,605.6006,74,127,0
605.608,605.6898,62,127,0
605.69727,605.7791,74,127,0
605.78656,605.8684,68,127,0
605.87585,605.9577,75,127,0
605.96515,606.047,72,127,0
606.05444,606.1363,75,127,0
606.14374,606.2255,68,127,0
606.233,606.3148,75,127,0
606.32227,606.4041,63,127,0
606.41156,606.4934,75,127,0
606.50085,606.5827,68,127,0
606.59015,606.672,77,127,0
606.67944,606.7613,72,127,0
606.76874,606.8505,77,127,0
606.858,606.9398,68,127,0
606.94727,607.0291,77,127,0
607.03656,607.1184,65,127,0
607.12585,607.2077,77,127,0
607.21515,607.297,69,127,0
607.30444,607.3863,78,127,0
607.39374,607.4755,72,127,0
607.483,607.5648,78,127,0
607.57227,607.6541,69,127,0
607.66156,607.7434,78,127,0
607.75085,607.8327,66,127,0
607.84015,607.922,78,127,0
607.92944,608.0113,69,127,0
608.01874,608.1005,78,127,0
608.108,608.1898,71,127,0
608.19727,608.2791,78,127,0
608.28656,608.3684,69,127,0
608.37585,608.4577,78,127,0
608.46515,608.547,66,127,0
608.55444,608.6363,78,127,0
608.64374,608.7255,68,127,0
608.733,608.8148,76,127,0
608.82227,608.9041,71,127,0
608.91156,608.9934,76,127,0
609.00085,609.0827,68,127,0
609.09015,609.172,76,127,0
609.17944,609.2613,64,127,0
609.2687,609.3505,76,127,0
609.358,609.4398,64,127,0
609.44727,609.5291,71,127,0
609.53656,609.6184,68,127,0
609.62585,609.7077,71,127,0
609.71515,609.797,64,127,0
609.80444,609.8863,71,127,0
609.8937,609.9755,59,127,0
609.983,610.0648,71,127,0
610.07227,610.1541,64,127,0
610.16156,610.2434,71,127,0
610.25085,610.3327,68,127,0
610.34015,610.422,71,127,0
610.42944,610.5113,64,127,0
610.5187,610.6005,71,127,0
610.608,610.6898,59,127,0
610.69727,610.7791,71,127,0
610.78656,610.8684,63,127,0
610.87585,610.9577,71,127,0
610.96515,611.047,68,127,0
611.05444,611.1363,71,127,0
611.1437,611.2255,63,127,0
611.233,611.3148,71,127,0
611.32227,611.4041,59,127,0
611.41156,611.4934,71,127,0
611.50085,611.5827,63,127,0
611.59015,611.672,71,127,0
611.67944,611.7613,68,127,0
611.7687,611.8505,71,127,0
611.858,611.9398,63,127,0
611.94727,612.0291,71,127,0
612.03656,612.1184,59,127,0
612.12585,612.2077,71,127,0
612.21515,612.297,63,127,0
612.30444,612.3863,71,127,0
612.3937,612.4755,68,127,0
612.483,612.5648,71,127,0
612.57227,612.6541,63,127,0
612.66156,612.7434,71,127,0
612.75085,612.8327,59,127,0
612.84015,612.922,71,127,0
612.92944,613.0113,59,127,0
613.0187,613.1005,67,127,0
613.108,613.1898,63,127,0
613.19727,613.2791,67,127,0
613.28656,613.3684,59,127,0
613.37585,613.4577,67,127,0
613.46515,613.547,55,127,0
613.55444,613.6363,67,127,0
613.6437,613.7255,59,127,0
613.733,613.8148,67,127,0
613.82227,613.9041,62,127,0
613.91156,613.9934,67,127,0
614.00085,614.0827,59,127,0
614.09015,614.172,67,127,0
614.17944,614.2613,55,127,0
614.2687,614.3505,67,127,0
614.358,614.4398,59,127,0
614.44727,614.5291,67,127,0
614.53656,614.6184,62,127,0
614.62585,614.7077,67,127,0
614.71515,614.797,59,127,0
614.80444,614.8862,67,127,0
614.8937,614.9755,55,127,0
614.983,615.0648,67,127,0
615.07227,615.1541,59,127,0
615.16156,615.2434,67,127,0
615.25085,615.3327,62,127,0
615.34015,615.422,67,127,0
615.42944,615.5112,59,127,0
615.5187,615.6005,67,127,0
615.608,615.6898,55,127,0
615.69727,615.7791,67,127,0
615.78656,615.8684,64,127,0
615.87585,615.9577,71,127,0
615.96515,616.047,67,127,0
616.05444,616.1362,71,127,0
616.1437,616.2255,64,127,0
616.233,616.3148,71,127,0
616.32227,616.4041,59,127,0
616.41156,616.4934,71,127,0
616.50085,616.5827,63,127,0
616.59015,616.672,71,127,0
616.67944,616.7612,68,127,0
616.7687,616.8505,71,127,0
616.858,616.9398,63,127,0
616.94727,617.0291,71,127,0
617.03656,617.1184,59,127,0
617.12585,617.2077,71,127,0
617.21515,617.297,63,127,0
617.30444,617.3862,71,127,0
617.3937,617.4755,68,127,0
617.483,617.5648,71,127,0
617.57227,617.6541,63,127,0
617.66156,617.7434,71,127,0
617.75085,617.8327,59,127,0
617.84015,617.922,71,127,0
617.9294,618.0112,63,127,0
618.0187,618.1005,71,127,0
618.108,618.1898,68,127,0
618.19727,618.2791,71,127,0
618.28656,618.3684,63,127,0
618.37585,618.4577,71,127,0
618.46515,618.547,59,127,0
618.5544,618.6362,71,127,0
618.6437,618.7255,59,127,0
618.733,618.8148,67,127,0
618.82227,618.9041,63,127,0
618.91156,618.9934,67,127,0
619.00085,619.0827,59,127,0
619.09015,619.172,67,127,0
619.1794,619.2612,55,127,0
619.2687,619.3505,67,127,0
619.358,619.4398,59,127,0
619.44727,619.5291,67,127,0
619.53656,619.6184,62,127,0
619.62585,619.7077,67,127,0
619.71515,619.797,59,127,0
619.8044,619.8862,67,127,0
619.8937,619.9755,55,127,0
619.983,620.0648,67,127,0
620.07227,620.1541,59,127,0
620.16156,620.2434,67,127,0
620.25085,620.3327,62,127,0
620.34015,620.422,67,127,0
620.4294,620.5112,59,127,0
620.5187,620.6005,67,127,0
620.608,620.6898,55,127,0
620.69727,620.7791,67,127,0
620.78656,620.8684,59,127,0
620.87585,620.9577,67,127,0
620.96515,621.047,62,127,0
621.0544,621.1362,67,127,0
621.1437,621.2255,59,127,0
621.233,621.3148,67,127,0
621.32227,621.4041,55,127,0
621.41156,621.4934,67,127,0
621.50085,621.5827,59,127,0
621.59015,621.672,67,127,0
621.6794,621.7612,63,127,0
621.7687,621.8505,67,127,0
621.858,621.9398,59,127,0
621.94727,622.0291,67,127,0
622.03656,622.1184,55,127,0
622.12585,622.2077,67,127,0
622.21515,622.297,59,127,0
622.3044,622.3862,67,127,0
622.3937,622.4755,62,127,0
622.483,622.5648,67,127,0
622.57227,622.6541,59,127,0
622.66156,622.7434,67,127,0
622.75085,622.8327,55,127,0
622.84015,622.922,67,127,0
622.9294,623.0112,59,127,0
623.0187,623.1005,67,127,0
623.108,623.1898,62,127,0
623.19727,623.2791,67,127,0
623.28656,623.3684,59,127,0
623.37585,623.4577,67,127,0
623.46515,623.54694,55,127,0
623.5544,623.6362,67,127,0
623.6437,623.7255,59,127,0
623.733,623.8148,67,127,0
623.82227,623.9041,62,127,0
623.91156,623.9934,67,127,0
624.00085,624.0827,59,127,0
624.09015,624.17194,67,127,0
624.1794,624.2612,55,127,0
624.2687,624.3505,67,127,0
624.53656,624.71515,55,127,0
624.71515,624.8937,59,127,0
624.8937,625.0648,62,127,0
625.25085,625.4294,55,127,0
625.4294,625.608,59,127,0
625.608,625.7791,64,127,0
625.96515,626.1437,56,127,0
626.1437,626.32227,59,127,0
626.32227,626.4934,64,127,0
627.3937,627.57227,55,127,0
627.57227,627.75085,59,127,0
627.75085,627.92194,62,127,0
628.108,628.28656,55,127,0
628.28656,628.4651,59,127,0
628.4651,628.6362,64,127,0
628.82227,629.00085,56,127,0
629.00085,629.1794,59,127,0
629.1794,629.3505,64,127,0
630.4294,630.608,59,127,0
630.608,630.7791,62,127,0
630.608,630.7791,67,127,0
631.1437,631.32227,59,127,0
631.32227,631.4934,62,127,0
631.32227,631.4934,71,127,0
631.858,632.03656,62,127,0
632.03656,632.20764,67,127,0
632.03656,632.20764,74,127,0
633.28656,633.4651,67,127,0
633.4651,633.6362,71,127,0
633.4651,633.6362,79,127,0
634.00085,634.1794,71,127,0
634.1794,634.3505,74,127,0
634.1794,634.3505,83,127,0
634.7151,634.8937,74,127,0
634.8937,635.0648,79,127,0
634.8937,635.0648,86,127,0
637.03656,637.81036,74,127,0
637.09607,637.81036,79,127,0
637.1556,637.81036,83,127,0
637.2151,637.81036,86,127,0
639.8937,641.00476,74,127,0
640.0326,641.00476,79,127,0
640.17145,641.00476,83,127,0
640.31036,641.00476,86,127,0
641.977,642.67145,55,127,0
0.0,0.17113078,43,127,0
0.17857125,0.34970203,46,127,0
0.3571425,0.5282733,43,127,0
0.53571373,0.7068445,38,127,0
0.714285,0.8854158,43,127,0
0.89285624,1.063987,46,127,0
1.0714275,1.2425582,43,127,0
1.2499988,1.4211296,38,127,0
1.42857,1.5997008,43,127,0
1.6071413,1.778272,46,127,0
1.7857125,1.9568433,43,127,0
1.9642837,2.1354146,38,127,0
2.142855,2.3139858,43,127,0
2.3214262,2.492557,46,127,0
2.4999976,2.6711283,43,127,0
2.6785688,2.8496995,38,127,0
2.85714,3.0282707,43,127,0
3.0357113,3.206842,46,127,0
3.2142825,3.3854132,43,127,0
3.3928537,3.5639846,38,127,0
3.571425,3.7425559,45,127,0
3.7499962,3.921127,48,127,0
3.9285674,4.099698,45,127,0
4.1071386,4.27827,38,127,0
4.28571,4.456841,45,127,0
4.464281,4.635412,48,127,0
4.6428523,4.8139834,45,127,0
4.8214235,4.9925547,38,127,0
4.999995,5.171126,43,127,0
5.1785665,5.349697,46,127,0
5.3571377,5.5282683,43,127,0
5.535709,5.7068396,38,127,0
5.71428,5.885411,43,127,0
5.8928514,6.063982,45,127,0
6.0714226,6.242553,43,127,0
6.249994,6.4211245,38,127,0
6.428565,6.5996957,41,127,0
6.6071362,6.778267,45,127,0
6.7857075,6.956838,41,127,0
6.9642787,7.1354094,38,127,0
7.14285,7.3139806,41,127,0
7.321421,7.492552,45,127,0
7.4999924,7.6711235,41,127,0
7.6785636,7.8496947,38,127,0
7.857135,8.028266,39,127,0
8.0357065,8.206837,43,127,0
8.214277,8.385408,39,127,0
8.392849,8.563979,38,127,0
8.57142,8.742551,40,127,0
8.749991,8.921122,43,127,0
8.928562,9.099693,40,127,0
9.107134,9.278265,38,127,0
9.285705,9.456836,41,127,0
9.464276,9.635407,44,127,0
9.642847,9.813978,41,127,0
9.821419,9.99255,38,127,0
9.99999,10.171121,42,127,0
10.178561,10.349692,45,127,0
10.357133,10.528263,42,127,0
10.535704,10.706835,38,127,0
10.714275,10.885406,43,127,0
10.892846,11.063977,46,127,0
11.071418,11.242548,43,127,0
11.249989,11.42112,38,127,0
11.42856,11.59969,44,127,0
11.607131,11.778262,47,127,0
11.785703,11.956833,44,127,0
11.964273,12.135405,38,127,0
12.142845,12.313975,45,127,0
12.321416,12.492547,48,127,0
12.499988,12.671119,45,127,0
12.678558,12.8496895,38,127,0
12.85713,13.028261,45,127,0
13.035701,13.206832,48,127,0
13.2142725,13.385404,45,127,0
13.392844,13.563974,38,127,0
13.571415,13.742546,45,127,0
13.749987,13.921117,48,127,0
13.928557,14.099689,45,127,0
14.107129,14.278259,38,127,0
14.2857,14.456831,41,127,0
14.2857,14.456831,46,127,0
14.464272,14.635402,50,127,0
14.642842,14.813973,41,127,0
14.642842,14.813973,46,127,0
14.821414,14.992544,38,127,0
14.999985,15.171116,41,127,0
14.999985,15.171116,48,127,0
15.178556,15.349687,50,127,0
15.357127,15.528258,41,127,0
15.357127,15.528258,48,127,0
15.535699,15.706829,38,127,0
15.71427,15.885401,41,127,0
15.71427,15.885401,48,127,0
15.892841,16.063972,50,127,0
16.071413,16.242544,41,127,0
16.071413,16.242544,48,127,0
16.249983,16.421114,38,127,0
16.428555,16.599686,43,127,0
16.428555,16.599686,48,127,0
16.607126,16.778257,50,127,0
16.785698,16.95683,43,127,0
16.785698,16.95683,48,127,0
16.96427,17.135399,38,127,0
17.14284,17.31397,44,127,0
17.14284,17.31397,48,127,0
17.321411,17.492542,50,127,0
17.499983,17.671114,44,127,0
17.499983,17.671114,48,127,0
17.678555,17.849684,38,127,0
17.857124,18.028255,44,127,0
17.857124,18.028255,48,127,0
18.035696,18.206827,50,127,0
18.214268,18.385399,44,127,0
18.214268,18.385399,48,127,0
18.39284,18.563969,38,127,0
18.57141,18.74254,44,127,0
18.57141,18.74254,48,127,0
18.74998,18.921112,50,127,0
18.928553,19.099684,44,127,0
18.928553,19.099684,48,127,0
19.107124,19.278255,38,127,0
19.285694,19.456825,45,127,0
19.285694,19.456825,48,127,0
19.464266,19.635397,50,127,0
19.642838,19.813969,45,127,0
19.642838,19.813969,48,127,0
19.82141,19.99254,38,127,0
19.99998,20.17111,44,127,0
19.99998,20.17111,47,127,0
20.17855,20.349682,52,127,0
20.357122,20.528254,44,127,0
20.357122,20.528254,47,127,0
20.535694,20.706825,38,127,0
20.714266,20.885395,44,127,0
20.714266,20.885395,47,127,0
20.892836,21.063967,52,127,0
21.071407,21.242538,44,127,0
21.071407,21.242538,47,127,0
21.249979,21.42111,38,127,0
21.42855,21.59968,44,127,0
21.42855,21.59968,48,127,0
21.60712,21.778252,51,127,0
21.785692,21.956823,44,127,0
21.785692,21.956823,48,127,0
21.964264,22.135395,38,127,0
22.142836,22.313965,43,127,0
22.142836,22.313965,48,127,0
22.321405,22.492537,51,127,0
22.499977,22.671108,43,127,0
22.499977,22.671108,48,127,0
22.678549,22.84968,38,127,0
22.85712,23.028252,44,127,0
22.85712,23.028252,47,127,0
23.03569,23.206821,52,127,0
23.214262,23.385393,44,127,0
23.214262,23.385393,47,127,0
23.392834,23.563965,38,127,0
23.571405,23.742537,44,127,0
23.571405,23.742537,47,127,0
23.749977,23.921106,52,127,0
23.928547,24.099678,44,127,0
23.928547,24.099678,47,127,0
24.107119,24.27825,38,127,0
24.28569,24.456821,44,127,0
24.28569,24.456821,48,127,0
24.464262,24.635391,51,127,0
24.642832,24.813963,44,127,0
24.642832,24.813963,48,127,0
24.821404,24.992535,38,127,0
24.999975,25.171106,43,127,0
24.999975,25.171106,48,127,0
25.178547,25.349676,51,127,0
25.357117,25.528248,43,127,0
25.357117,25.528248,48,127,0
25.535688,25.70682,38,127,0
25.71426,25.885391,42,127,0
25.71426,25.885391,47,127,0
25.892832,26.063963,50,127,0
26.071402,26.242533,42,127,0
26.071402,26.242533,47,127,0
26.249973,26.421104,38,127,0
26.428545,26.599676,42,127,0
26.428545,26.599676,47,127,0
26.607117,26.778248,50,127,0
26.785688,26.956818,42,127,0
26.785688,26.956818,47,127,0
26.964258,27.13539,38,127,0
27.14283,27.313961,42,127,0
27.14283,27.313961,46,127,0
27.321402,27.492533,50,127,0
27.499973,27.671103,42,127,0
27.499973,27.671103,46,127,0
27.678543,27.849674,38,127,0
27.857115,28.028246,42,127,0
27.857115,28.028246,48,127,0
28.035686,28.206818,50,127,0
28.214258,28.385387,42,127,0
28.214258,28.385387,48,127,0
28.392828,28.56396,38,127,0
28.5714,28.74253,43,127,0
28.749971,28.921103,46,127,0
28.928543,29.099674,43,127,0
29.107113,29.278244,38,127,0
29.285685,29.36753,55,127,0
29.374971,29.456816,62,127,0
29.464256,29.5461,58,127,0
29.553541,29.635387,62,127,0
29.642828,29.724672,55,127,0
29.732113,29.81396,62,127,0
29.8214,29.903244,50,127,0
29.910685,29.992529,62,127,0
29.99997,30.081816,55,127,0
30.089256,30.1711,62,127,0
30.178541,30.260386,58,127,0
30.267826,30.349672,62,127,0
30.357113,30.438957,55,127,0
30.446398,30.528244,62,127,0
30.535685,30.617529,50,127,0
30.62497,30.706814,62,127,0
30.714254,30.7961,55,127,0
30.803541,30.885386,62,127,0
30.892826,30.974672,58,127,0
30.982111,31.063957,62,127,0
31.071398,31.153242,55,127,0
31.160683,31.242529,62,127,0
31.24997,31.331814,50,127,0
31.339254,31.421099,62,127,0
31.42854,31.510386,55,127,0
31.517826,31.59967,62,127,0
31.607111,31.688957,58,127,0
31.696398,31.778242,62,127,0
31.785683,31.867527,55,127,0
31.874968,31.956814,62,127,0
31.964254,32.0461,50,127,0
32.05354,32.135384,62,127,0
32.142826,32.22467,56,127,0
32.23211,32.313957,62,127,0
32.321396,32.40324,60,127,0
32.410683,32.492527,62,127,0
32.499966,32.581814,56,127,0
32.589252,32.671097,62,127,0
32.67854,32.760384,50,127,0
32.767826,32.84967,62,127,0
32.85711,32.938953,56,127,0
32.946396,33.02824,62,127,0
33.035683,33.117527,60,127,0
33.124966,33.206814,62,127,0
33.214252,33.296097,56,127,0
33.30354,33.385384,62,127,0
33.392822,33.47467,50,127,0
33.48211,33.563953,62,127,0
33.571396,33.65324,54,127,0
33.66068,33.742527,63,127,0
33.749966,33.83181,60,127,0
33.839252,33.921097,63,127,0
33.92854,34.010384,54,127,0
34.017822,34.099667,63,127,0
34.10711,34.188953,50,127,0
34.196396,34.27824,63,127,0
34.28568,34.367527,55,127,0
34.374966,34.45681,63,127,0
34.464252,34.546097,59,127,0
34.553535,34.635384,63,127,0
34.642822,34.724667,55,127,0
34.73211,34.813953,63,127,0
34.821392,34.90324,50,127,0
34.91068,34.992523,63,127,0
34.999966,35.08181,55,127,0
35.089252,35.171097,62,127,0
35.178535,35.26038,58,127,0
35.267822,35.349667,62,127,0
35.35711,35.438953,55,127,0
35.446392,35.528236,62,127,0
35.53568,35.617523,50,127,0
35.624966,35.70681,62,127,0
35.71425,35.796097,53,127,0
35.803535,35.88538,62,127,0
35.892822,35.974667,58,127,0
35.982105,36.063953,62,127,0
36.071392,36.153236,53,127,0
36.16068,36.242523,62,127,0
36.24996,36.33181,50,127,0
36.33925,36.421093,62,127,0
36.428535,36.51038,53,127,0
36.517822,36.599667,62,127,0
36.607105,36.68895,58,127,0
36.696392,36.778236,62,127,0
36.78568,36.867523,53,127,0
36.87496,36.95681,62,127,0
36.96425,37.046093,50,127,0
37.053535,37.13538,62,127,0
37.14282,37.224667,54,127,0
37.232105,37.31395,62,127,0
37.321392,37.403236,58,127,0
37.410675,37.492523,62,127,0
37.49996,37.581806,54,127,0
37.58925,37.671093,62,127,0
37.678535,37.76038,50,127,0
37.76782,37.849663,62,127,0
37.857105,37.93895,55,127,0
37.946392,38.028236,62,127,0
38.035675,38.117523,58,127,0
38.12496,38.206806,62,127,0
38.21425,38.296093,55,127,0
38.30353,38.38538,62,127,0
38.39282,38.474663,50,127,0
38.482105,38.56395,62,127,0
38.57139,38.653236,55,127,0
38.660675,38.74252,63,127,0
38.74996,38.831806,58,127,0
38.83925,38.921093,63,127,0
38.92853,39.010376,55,127,0
39.01782,39.099663,63,127,0
39.107105,39.18895,50,127,0
39.19639,39.278236,63,127,0
39.285675,39.36752,56,127,0
39.37496,39.456806,64,127,0
39.464245,39.546093,59,127,0
39.55353,39.635376,64,127,0
39.64282,39.724663,56,127,0
39.7321,39.81395,64,127,0
39.82139,39.903233,50,127,0
39.910675,39.99252,64,127,0
39.99996,40.081806,63,127,0
40.089245,40.17109,69,127,0
40.17853,40.260376,65,127,0
40.26782,40.349663,69,127,0
40.3571,40.438946,63,127,0
40.44639,40.528233,69,127,0
40.535675,40.61752,57,127,0
40.624958,40.706806,69,127,0
40.714245,40.79609,60,127,0
40.80353,40.885376,69,127,0
40.892815,40.974663,65,127,0
40.9821,41.063946,69,127,0
41.07139,41.153233,60,127,0
41.16067,41.24252,69,127,0
41.249958,41.331802,57,127,0
41.339245,41.42109,69,127,0
41.42853,41.510376,62,127,0
41.517815,41.59966,69,127,0
41.6071,41.688946,65,127,0
41.69639,41.778233,69,127,0
41.78567,41.86752,62,127,0
41.874958,41.956802,69,127,0
41.964245,42.04609,57,127,0
42.053528,42.135376,69,127,0
42.142815,42.22466,63,127,0
42.2321,42.313946,69,127,0
42.321384,42.403233,65,127,0
42.41067,42.492516,69,127,0
42.499958,42.581802,63,127,0
42.589245,42.67109,69,127,0
42.678528,42.760372,57,127,0
42.767815,42.84966,69,127,0
42.8571,43.028233,46,127,0
43.03567,43.206802,53,127,0
43.21424,43.385372,58,127,0
43.392815,43.563946,63,127,0
43.749958,43.921085,53,127,0
43.928528,44.09966,58,127,0
44.107098,44.27823,62,127,0
44.28567,44.456802,46,127,0
44.46424,44.635372,57,127,0
44.64281,44.813942,63,127,0
44.821384,44.992516,67,127,0
45.178528,45.349655,58,127,0
45.178528,45.349655,65,127,0
45.357098,45.52823,57,127,0
45.535667,45.7068,65,127,0
45.71424,45.885372,48,127,0
45.89281,46.063942,55,127,0
46.07138,46.24251,58,127,0
46.249954,46.421085,64,127,0
46.428524,46.599655,41,127,0
46.607098,46.77823,48,127,0
46.785667,46.9568,53,127,0
46.964237,47.13537,57,127,0
47.14281,47.313942,60,127,0
47.32138,47.49251,69,127,0
47.499954,47.67108,65,127,0
47.678524,47.849655,60,127,0
47.857094,48.028225,57,127,0
48.035667,48.2068,53,127,0
48.214237,48.38537,48,127,0
48.392807,48.56394,41,127,0
48.57138,48.74251,44,127,0
48.74995,48.92108,51,127,0
48.928524,49.099655,56,127,0
49.107094,49.278225,61,127,0
49.464237,49.63537,51,127,0
49.642807,49.81394,56,127,0
49.82138,49.992508,60,127,0
49.99995,50.17108,44,127,0
50.17852,50.34965,55,127,0
50.357094,50.528225,61,127,0
50.535664,50.706795,65,127,0
50.892807,51.06394,56,127,0
50.892807,51.06394,63,127,0
51.071377,51.242508,55,127,0
51.24995,51.421078,63,127,0
51.42852,51.59965,46,127,0
51.60709,51.77822,53,127,0
51.785664,51.956795,56,127,0
51.964233,52.135365,62,127,0
52.142803,52.313934,39,127,0
52.321377,52.492508,46,127,0
52.499947,52.671078,51,127,0
52.67852,52.84965,55,127,0
52.85709,53.02822,58,127,0
53.03566,53.20679,67,127,0
53.214233,53.385365,63,127,0
53.392803,53.563934,58,127,0
53.571377,53.742504,55,127,0
53.749947,53.921078,51,127,0
53.928516,54.099648,46,127,0
54.10709,54.27822,39,127,0
54.999947,55.71423,48,127,0
55.71423,56.428516,50,127,0
56.428516,57.1428,51,127,0
57.1428,57.857086,59,127,0
57.1428,58.3928,56,127,0
57.857086,58.57137,60,127,0
58.57137,58.921074,55,127,0
58.57137,58.921074,62,127,0
58.928513,59.813927,43,127,0
59.0178,59.813927,50,127,0
59.107082,59.813927,59,127,0
59.82137,59.880894,36,127,0
59.880894,62.023746,48,127,0
59.940414,62.023746,55,127,0
59.99994,62.023746,60,127,0
62.142796,62.313927,55,127,0
62.321365,62.492496,60,127,0
62.49994,62.67107,64,127,0
62.67851,62.84964,67,127,0
64.28565,64.45678,51,127,0
64.46422,64.63535,58,127,0
64.64279,64.81393,63,127,0
64.821365,64.99249,68,127,0
65.178505,65.34964,58,127,0
65.35708,65.528206,63,127,0
65.53565,65.70678,67,127,0
65.71422,65.88535,51,127,0
65.89279,66.06392,65,127,0
66.071365,66.24249,68,127,0
66.24993,66.42107,72,127,0
66.60708,66.778206,63,127,0
66.60708,66.778206,70,127,0
66.785645,66.95678,62,127,0
66.96422,67.13535,70,127,0
67.14279,67.31392,53,127,0
67.32136,67.49249,60,127,0
67.49993,67.67107,63,127,0
67.678505,67.84963,69,127,0
67.85708,68.028206,46,127,0
68.035645,68.20678,53,127,0
68.21422,68.385345,58,127,0
68.39279,68.56392,62,127,0
68.57136,68.74249,65,127,0
68.74993,68.92106,74,127,0
68.928505,69.09963,70,127,0
69.10707,69.278206,65,127,0
69.285645,69.45678,62,127,0
69.46422,69.635345,58,127,0
69.642784,69.81392,53,127,0
69.82136,69.99249,46,127,0
70.71422,71.4285,36,127,0
71.4285,72.0535,38,127,0
72.142784,72.760345,55,127,0
72.0535,72.767784,39,127,0
72.85707,73.57136,59,127,0
72.767784,74.28564,44,127,0
74.28564,74.880875,43,127,0
74.99992,75.5282,43,127,0
74.99992,75.5282,50,127,0
74.99992,75.5282,59,127,0
75.53564,75.59516,36,127,0
75.59516,77.6785,48,127,0
75.654686,77.6785,55,127,0
75.71421,77.6785,60,127,0
77.85706,78.206764,48,127,0
77.85706,78.206764,55,127,0
77.85706,78.206764,60,127,0
78.21421,82.02373,46,127,0
78.273735,82.02373,52,127,0
78.33325,82.02373,55,127,0
78.39278,82.02373,61,127,0
82.14278,82.32134,46,127,0
82.32134,82.499916,53,127,0
82.499916,82.67849,52,127,0
82.67849,82.84962,49,127,0
83.57134,83.749916,46,127,0
83.749916,83.92849,53,127,0
83.92849,84.107056,52,127,0
84.107056,84.27819,49,127,0
85.72936,86.34439,34,127,0
86.65851,86.85788,46,127,0
86.85788,87.06716,44,127,0
87.06716,87.277664,41,127,0
87.28699,88.78699,39,127,0
88.78699,89.53699,41,127,0
89.53699,90.28699,44,127,0
90.28699,91.03699,47,127,0
91.03699,91.78699,48,127,0
91.78699,92.41199,43,127,0
92.53699,93.09949,46,127,0
93.09949,93.279175,39,127,0
93.28699,94.78699,39,127,0
94.78699,95.53699,41,127,0
95.53699,96.28699,44,127,0
96.28699,97.03699,47,127,0
97.03699,97.78699,48,127,0
97.78699,98.53699,43,127,0
98.53699,99.091675,46,127,0
99.09949,99.279175,37,127,0
99.28699,100.03699,37,127,0
100.03699,101.53699,35,127,0
101.53699,102.28699,36,127,0
102.28699,102.91199,29,127,0
102.28699,102.91199,41,127,0
103.03699,103.59949,35,127,0
103.03699,103.59949,47,127,0
103.59949,103.779175,29,127,0
103.59949,103.779175,41,127,0
103.78699,104.41199,29,127,0
103.78699,104.41199,41,127,0
104.53699,105.09949,35,127,0
104.53699,105.09949,47,127,0
105.09949,105.279175,29,127,0
105.09949,105.279175,41,127,0
105.28699,106.03699,29,127,0
105.28699,106.03699,41,127,0
106.03699,106.78699,39,127,0
106.03699,106.78699,51,127,0
106.78699,107.53699,38,127,0
106.78699,107.53699,50,127,0
107.53699,108.28699,36,127,0
107.53699,108.28699,48,127,0
108.28699,109.03699,37,127,0
108.28699,109.03699,49,127,0
109.03699,109.59949,43,127,0
109.03699,109.59949,55,127,0
109.59949,109.78699,37,127,0
109.59949,109.78699,49,127,0
109.78699,110.53699,37,127,0
109.78699,110.53699,49,127,0
110.53699,111.09949,43,127,0
110.53699,111.09949,55,127,0
111.09949,111.28699,37,127,0
111.09949,111.28699,49,127,0
111.28699,112.03699,37,127,0
111.28699,112.03699,49,127,0
112.03699,113.53699,43,127,0
112.03699,113.53699,55,127,0
113.53699,114.28699,35,127,0
113.53699,114.28699,47,127,0
114.28699,115.78699,38,127,0
114.28699,115.78699,50,127,0
115.78699,116.53699,37,127,0
115.78699,116.53699,49,127,0
116.53699,117.16199,30,127,0
116.53699,117.16199,42,127,0
117.28699,117.47449,31,127,0
117.28699,117.47449,43,127,0
117.47449,117.66199,46,127,0
117.66199,117.841675,58,127,0
118.22449,118.41199,51,127,0
118.22449,118.41199,58,127,0
118.41199,118.591675,46,127,0
118.78699,118.97449,30,127,0
118.78699,118.97449,42,127,0
118.97449,119.16199,52,127,0
119.16199,119.341675,58,127,0
119.16199,119.341675,64,127,0
119.72449,119.91199,58,127,0
119.72449,119.91199,64,127,0
119.91199,120.091675,52,127,0
120.28699,120.47449,31,127,0
120.28699,120.47449,43,127,0
120.47449,120.66199,46,127,0
120.66199,120.841675,58,127,0
121.22449,121.41199,51,127,0
121.22449,121.41199,58,127,0
121.41199,121.591675,46,127,0
121.78699,121.97449,30,127,0
121.78699,121.97449,42,127,0
121.97449,122.16199,52,127,0
122.16199,122.341675,58,127,0
122.16199,122.341675,64,127,0
122.72449,122.91199,58,127,0
122.72449,122.91199,64,127,0
122.91199,123.091675,52,127,0
123.28699,123.91199,36,127,0
123.28699,123.91199,48,127,0
124.03699,125.34949,37,127,0
124.03699,125.34949,49,127,0
125.53699,126.16199,38,127,0
125.53699,126.16199,50,127,0
126.28699,126.47449,39,127,0
126.47449,126.66199,51,127,0
126.66199,126.84949,58,127,0
126.84949,127.03699,61,127,0
127.03699,127.216675,63,127,0
128.53699,128.72449,63,127,0
128.72449,128.91199,61,127,0
128.91199,129.09949,58,127,0
129.09949,129.27917,51,127,0
129.28699,129.47449,42,127,0
129.47449,129.65417,54,127,0
129.66199,129.84949,54,127,0
129.84949,130.03699,57,127,0
130.03699,130.40417,62,127,0
130.78699,130.97449,42,127,0
130.97449,131.16199,54,127,0
131.16199,131.34167,57,127,0
131.53699,131.72449,40,127,0
131.72449,131.91199,52,127,0
131.91199,132.09167,57,127,0
132.28699,132.47449,39,127,0
132.47449,132.66199,51,127,0
132.66199,132.84949,58,127,0
132.84949,133.03699,61,127,0
133.03699,133.22449,63,127,0
134.53699,134.72449,63,127,0
134.72449,134.91199,61,127,0
134.91199,135.09949,58,127,0
135.09949,135.27917,51,127,0
135.28699,135.47449,42,127,0
135.47449,135.65417,54,127,0
135.66199,135.84949,54,127,0
135.84949,136.03699,57,127,0
136.03699,136.40417,62,127,0
136.78699,136.97449,42,127,0
136.97449,137.16199,54,127,0
137.16199,137.34167,57,127,0
137.53699,137.72449,40,127,0
137.72449,137.91199,52,127,0
137.91199,138.09167,57,127,0
138.28699,138.47449,41,127,0
138.47449,138.66199,53,127,0
138.66199,138.84949,58,127,0
138.84949,139.03699,61,127,0
141.28699,141.47449,47,127,0
141.47449,141.65417,52,127,0
141.66199,141.84167,56,127,0
142.78699,142.97449,44,127,0
142.97449,143.15417,52,127,0
143.16199,143.34167,56,127,0
144.28699,144.47449,34,127,0
144.47449,144.66199,46,127,0
147.28699,150.09949,27,127,0
147.28699,150.09949,39,127,0
150.28699,150.46667,47,127,0
150.28699,150.46667,51,127,0
150.47449,150.65417,55,127,0
150.66199,150.84167,47,127,0
150.66199,150.84167,51,127,0
150.84949,151.02917,43,127,0
151.03699,151.21667,47,127,0
151.03699,151.21667,50,127,0
151.22449,151.40417,55,127,0
151.41199,151.59167,47,127,0
151.41199,151.59167,50,127,0
151.59949,151.77917,43,127,0
151.78699,151.96667,47,127,0
151.78699,151.96667,50,127,0
151.97449,152.15417,55,127,0
152.16199,152.34167,47,127,0
152.16199,152.34167,50,127,0
152.34949,152.52917,43,127,0
152.53699,152.71667,47,127,0
152.53699,152.71667,50,127,0
152.72449,152.90417,55,127,0
152.91199,153.09167,47,127,0
152.91199,153.09167,50,127,0
153.09949,153.27917,43,127,0
153.28699,156.09949,27,127,0
153.28699,156.09949,39,127,0
156.28699,156.46667,51,127,0
156.47449,156.65417,55,127,0
156.66199,156.84167,51,127,0
156.84949,157.02917,47,127,0
157.03699,157.21667,51,127,0
157.22449,157.40417,54,127,0
157.41199,157.59167,51,127,0
157.59949,157.77917,47,127,0
157.78699,157.96667,51,127,0
157.97449,158.15417,54,127,0
158.16199,158.34167,51,127,0
158.34949,158.52917,47,127,0
158.53699,158.71667,51,127,0
158.72449,158.90417,54,127,0
158.91199,159.09167,51,127,0
159.09949,159.27917,47,127,0
159.28699,159.46667,47,127,0
159.28699,159.46667,51,127,0
159.47449,159.65417,55,127,0
159.66199,159.84167,47,127,0
159.66199,159.84167,51,127,0
159.84949,160.02917,43,127,0
160.03699,160.21667,47,127,0
160.03699,160.21667,50,127,0
160.22449,160.40417,55,127,0
160.41199,160.59167,47,127,0
160.41199,160.59167,50,127,0
160.59949,160.77917,43,127,0
160.78699,160.96667,47,127,0
160.78699,160.96667,50,127,0
160.97449,161.15417,55,127,0
161.16199,161.34167,47,127,0
161.16199,161.34167,50,127,0
161.34949,161.52917,43,127,0
161.53699,161.71667,47,127,0
161.53699,161.71667,50,127,0
161.72449,161.90417,55,127,0
161.91199,162.09167,47,127,0
161.91199,162.09167,50,127,0
162.09949,162.27917,43,127,0
162.28699,164.34949,27,127,0
162.28699,164.34949,39,127,0
164.53699,165.16199,34,127,0
164.53699,165.16199,46,127,0
165.28699,165.91199,27,127,0
165.28699,165.91199,39,127,0
166.41199,166.77917,34,127,0
166.41199,166.77917,46,127,0
166.78699,167.41199,27,127,0
166.78699,167.41199,39,127,0
167.91199,168.09167,34,127,0
167.91199,168.09167,46,127,0
168.09949,169.59949,27,127,0
168.28699,169.59949,39,127,0
174.05014,175.10278,39,127,0
174.14883,175.10278,48,127,0
174.24751,175.10278,51,127,0
175.62909,176.68172,39,127,0
175.72778,176.68172,46,127,0
175.82646,176.68172,51,127,0
177.20804,178.26067,39,127,0
177.30672,178.26067,48,127,0
177.40541,178.26067,51,127,0
178.78699,179.83961,39,127,0
178.88567,179.83961,46,127,0
178.98436,179.83961,51,127,0
180.36594,181.41856,39,127,0
180.46461,181.41856,48,127,0
180.5633,181.41856,51,127,0
184.70804,186.1554,47,127,0
184.9054,186.1554,51,127,0
185.4975,186.1554,55,127,0
187.07645,187.42615,28,127,0
187.07645,187.42615,40,127,0
187.4336,187.7833,56,127,0
187.79074,188.14044,52,127,0
188.14787,188.49757,47,127,0
188.50502,188.85472,52,127,0
188.86217,189.21187,56,127,0
189.2193,189.569,52,127,0
189.57645,189.92615,47,127,0
189.9336,190.2833,52,127,0
190.29073,190.64044,56,127,0
190.64787,190.99757,52,127,0
191.00502,191.35472,47,127,0
191.36217,191.71187,53,127,0
191.7193,192.069,56,127,0
192.07645,192.42615,53,127,0
192.4336,192.7833,47,127,0
192.79073,193.14043,53,127,0
193.14787,193.49757,57,127,0
193.50502,193.85472,53,127,0
193.86215,194.21185,47,127,0
194.2193,194.569,54,127,0
194.57645,194.92615,57,127,0
194.93358,195.2833,47,127,0
195.29073,195.64043,45,127,0
195.64787,195.99757,44,127,0
196.00502,196.35472,47,127,0
196.36215,196.71185,38,127,0
196.7193,197.069,47,127,0
197.07645,197.42615,39,127,0
197.43358,197.78328,47,127,0
197.79073,198.14043,40,127,0
198.14787,198.49757,47,127,0
198.505,198.8547,41,127,0
198.86215,199.21185,47,127,0
199.2193,199.569,42,127,0
199.57643,199.92615,35,127,0
199.93358,200.28328,47,127,0
200.29073,200.64043,49,127,0
200.64787,200.99757,51,127,0
201.005,201.06453,39,127,0
201.06453,202.02005,44,127,0
201.12405,202.02005,51,127,0
201.18358,202.02005,56,127,0
204.1253,205.17793,44,127,0
204.22398,205.17793,53,127,0
204.32268,205.17793,56,127,0
205.70425,206.75688,44,127,0
205.80293,206.75688,51,127,0
205.90163,206.75688,56,127,0
207.48056,208.33583,44,127,0
207.57925,208.33583,53,127,0
207.67793,208.33583,56,127,0
208.86214,209.91478,44,127,0
208.96083,209.91478,51,127,0
209.05951,209.91478,56,127,0
210.44109,211.49371,44,127,0
210.53978,211.49371,53,127,0
210.63846,211.49371,56,127,0
213.20424,213.40161,32,127,0
213.40161,214.65161,44,127,0
213.5003,214.65161,51,127,0
213.59898,214.65161,56,127,0
217.15161,217.50131,25,127,0
217.15161,217.50131,37,127,0
217.50876,217.85846,53,127,0
217.86589,218.21559,49,127,0
218.22304,218.57274,44,127,0
218.58018,218.92989,49,127,0
218.93732,219.28702,53,127,0
219.29446,219.64417,49,127,0
219.65161,220.00131,44,127,0
220.00874,220.35846,49,127,0
220.36589,220.71559,53,127,0
220.72304,221.07274,49,127,0
221.08018,221.42989,44,127,0
221.43732,221.78702,50,127,0
221.79446,222.14417,53,127,0
222.15161,222.50131,50,127,0
222.50874,222.85844,44,127,0
222.86589,223.21559,50,127,0
223.22304,223.57274,54,127,0
223.58017,223.92987,50,127,0
223.93732,224.28702,44,127,0
224.29446,224.64417,51,127,0
224.6516,225.00131,54,127,0
225.00874,225.35844,44,127,0
225.36589,225.71559,42,127,0
225.72304,226.07274,41,127,0
226.08017,226.42987,44,127,0
226.43732,226.78702,35,127,0
226.79446,227.14417,44,127,0
227.1516,227.5013,36,127,0
227.50874,227.85844,44,127,0
227.86589,228.21559,37,127,0
228.22302,228.57272,44,127,0
228.58017,228.92987,38,127,0
228.93732,229.28702,44,127,0
229.29445,229.64417,39,127,0
229.6516,230.0013,44,127,0
230.00874,230.35844,46,127,0
230.36589,230.71559,44,127,0
230.72302,231.07272,48,127,0
231.08017,231.42987,44,127,0
231.43732,232.86588,49,127,0
232.86588,234.29445,44,127,0
234.29445,235.00873,42,127,0
235.00873,235.60397,41,127,0
235.72302,236.07272,48,127,0
236.08017,236.42987,46,127,0
236.4373,236.787,50,127,0
236.79445,237.14415,46,127,0
237.1516,238.4016,51,127,0
238.58015,239.83015,46,127,0
240.00873,240.60397,44,127,0
240.72302,241.31825,43,127,0
241.4373,241.787,50,127,0
241.79445,242.14415,48,127,0
242.15158,242.50128,52,127,0
242.50873,242.85843,48,127,0
242.86588,244.29443,41,127,0
242.86588,244.29443,53,127,0
244.29443,245.723,36,127,0
244.29443,245.723,48,127,0
245.723,246.4373,34,127,0
245.723,246.4373,46,127,0
246.4373,247.86586,33,127,0
246.4373,247.86586,45,127,0
247.86586,248.58015,43,127,0
248.58015,250.00873,41,127,0
250.00873,251.43729,43,127,0
251.43729,252.86586,41,127,0
252.86586,254.29443,43,127,0
254.29443,255.723,44,127,0
255.723,257.15158,46,127,0
257.15158,258.58014,44,127,0
258.58014,260.0087,46,127,0
260.0087,261.4373,29,127,0
260.0087,261.4373,41,127,0
261.4373,262.86584,31,127,0
261.4373,262.86584,43,127,0
262.86584,264.29443,32,127,0
262.86584,264.29443,44,127,0
264.29443,265.723,34,127,0
264.29443,265.723,46,127,0
265.723,267.15155,35,127,0
265.723,267.15155,47,127,0
267.15155,268.40155,37,127,0
267.15155,268.40155,49,127,0
269.2944,269.88965,26,127,0
269.2944,269.88965,38,127,0
270.0087,270.60394,38,127,0
270.0087,270.60394,50,127,0
270.723,271.43726,37,127,0
270.723,271.43726,49,127,0
271.43726,272.0325,49,127,0
271.43726,272.15155,54,127,0
272.15155,272.86584,56,127,0
272.15155,273.40155,47,127,0
272.86584,273.58014,57,127,0
273.58014,274.2944,45,127,0
274.2944,275.0087,44,127,0
275.0087,275.723,47,127,0
275.723,276.43726,45,127,0
276.43726,277.0325,49,127,0
277.15155,277.7468,42,127,0
277.86584,278.46106,26,127,0
277.86584,278.46106,38,127,0
278.5801,279.17535,38,127,0
278.5801,279.17535,50,127,0
279.2944,280.0087,37,127,0
279.2944,280.0087,49,127,0
280.0087,280.60394,49,127,0
280.0087,280.60394,54,127,0
280.72296,281.3182,56,127,0
280.72296,281.97296,47,127,0
281.43726,282.0325,57,127,0
282.15155,283.5801,45,127,0
283.5801,284.2944,43,127,0
284.2944,285.0087,44,127,0
285.0087,285.72296,37,127,0
285.72296,286.3182,42,127,0
286.43726,287.0325,30,127,0
286.43726,287.0325,42,127,0
287.15155,287.74677,42,127,0
287.15155,287.74677,54,127,0
287.8658,288.3941,40,127,0
287.8658,288.3941,52,127,0
288.40155,288.5801,38,127,0
288.5801,289.5325,50,127,0
289.65155,290.00125,48,127,0
290.00867,290.6039,46,127,0
290.72296,291.3182,44,127,0
291.43726,292.50867,46,127,0
292.50867,292.8658,44,127,0
292.8658,293.5801,42,127,0
293.5801,294.2944,40,127,0
294.2944,295.00867,38,127,0
295.00867,295.3658,50,127,0
295.3658,295.72296,48,127,0
295.72296,296.43726,46,127,0
296.43726,297.15152,44,127,0
297.15152,298.22296,46,127,0
298.22296,298.5801,44,127,0
298.5801,299.29437,42,127,0
299.29437,300.00867,40,127,0
300.00867,300.72296,38,127,0
300.72296,301.0801,50,127,0
301.0801,301.43723,48,127,0
301.43723,302.15152,46,127,0
302.15152,302.74677,44,127,0
302.8658,303.5801,42,127,0
303.5801,305.00867,43,127,0
305.00867,305.24677,42,127,0
305.24677,305.48486,38,127,0
305.48486,305.72296,40,127,0
305.72296,306.43723,42,127,0
306.43723,307.15152,49,127,0
307.15152,307.74677,50,127,0
308.81818,309.05627,49,127,0
309.05627,309.29437,58,127,0
309.29437,309.53247,61,127,0
309.53247,309.77057,58,127,0
309.77057,310.00867,49,127,0
314.66562,314.92053,64,127,0
314.92877,315.18372,69,127,0
315.19193,315.44687,64,127,0
315.45508,315.71002,61,127,0
315.71823,315.97318,57,127,0
315.98138,316.23633,52,127,0
316.24457,316.49948,57,127,0
316.50772,316.76263,61,127,0
316.77087,317.02582,57,127,0
317.03403,317.28897,52,127,0
317.29718,317.55212,49,127,0
317.56033,317.81528,54,127,0
317.82352,318.07843,57,127,0
318.08667,318.34158,61,127,0
318.34982,318.60474,66,127,0
318.61298,318.86792,61,127,0
318.87613,319.13107,69,127,0
319.13928,319.39423,64,127,0
319.40244,319.65738,71,127,0
319.66562,319.92053,67,127,0
319.92877,320.1837,64,127,0
320.19193,320.44687,59,127,0
320.45508,320.71002,55,127,0
320.71823,320.97318,54,127,0
320.98138,321.23633,57,127,0
321.24454,321.49948,61,127,0
321.50772,321.76263,66,127,0
321.77087,322.0258,61,127,0
322.03403,322.28897,69,127,0
322.29718,322.55212,64,127,0
322.56033,322.81528,71,127,0
322.8235,323.07843,67,127,0
323.08667,323.34158,64,127,0
323.34982,323.60474,59,127,0
323.61298,323.86792,55,127,0
323.87613,324.13107,54,127,0
324.13928,324.39423,61,127,0
324.40244,324.65738,66,127,0
324.6656,324.92053,69,127,0
324.92877,325.1837,73,127,0
325.19193,325.44684,78,127,0
325.45508,325.71002,73,127,0
325.71823,325.97318,69,127,0
325.98138,326.23633,66,127,0
326.24454,326.49948,61,127,0
326.5077,326.76263,57,127,0
326.77087,327.0258,54,127,0
327.03403,327.2762,35,127,0
327.03403,327.2762,47,127,0
327.53403,327.7762,52,127,0
327.78403,328.0262,56,127,0
328.03403,328.2762,59,127,0
328.28403,328.5262,56,127,0
328.53403,328.7762,64,127,0
328.78403,329.0262,59,127,0
329.03403,329.2762,56,127,0
329.28403,329.5262,52,127,0
329.53403,329.7762,47,127,0
329.78403,330.0262,44,127,0
330.03403,330.2762,40,127,0
330.28403,330.5262,49,127,0
330.53403,330.7762,52,127,0
330.78403,331.0262,56,127,0
331.03403,331.2762,61,127,0
331.28403,331.5262,64,127,0
331.53403,331.7762,56,127,0
331.78403,332.0262,66,127,0
332.03403,332.2762,62,127,0
332.28403,332.5262,59,127,0
332.53403,332.7762,56,127,0
332.78403,333.0262,47,127,0
333.03403,333.2762,40,127,0
333.28403,333.5262,49,127,0
333.53403,333.7762,52,127,0
333.78403,334.0262,56,127,0
334.03403,334.2762,61,127,0
334.28403,334.5262,64,127,0
334.53403,334.7762,56,127,0
334.78403,335.0262,66,127,0
335.03403,335.2762,62,127,0
335.28403,335.5262,59,127,0
335.53403,335.7762,56,127,0
335.78403,336.0262,47,127,0
336.03403,336.2762,40,127,0
336.28403,336.5262,49,127,0
336.53403,336.7762,52,127,0
336.78403,337.0262,56,127,0
337.03403,337.2762,61,127,0
337.28403,337.5262,64,127,0
337.53403,337.7762,56,127,0
337.78403,338.0262,64,127,0
338.03403,338.2762,61,127,0
338.28403,338.5262,56,127,0
338.53403,338.7762,52,127,0
338.78403,339.0262,49,127,0
339.03403,339.2762,40,127,0
339.28403,339.5262,48,127,0
339.53403,339.7762,58,127,0
339.78403,340.0262,48,127,0
340.03403,340.2762,58,127,0
340.28403,340.5262,48,127,0
340.53403,340.7762,40,127,0
340.78403,341.0262,48,127,0
341.03403,341.2762,58,127,0
341.28403,341.5262,48,127,0
341.53403,341.7762,58,127,0
341.78403,342.0262,48,127,0
342.03403,344.09653,41,127,0
344.28403,344.90903,40,127,0
345.03403,345.65903,41,127,0
345.78403,346.40903,40,127,0
346.53403,347.15903,41,127,0
347.28403,347.90903,34,127,0
348.03403,348.65903,38,127,0
348.78403,349.40903,34,127,0
349.53403,350.15903,38,127,0
350.28403,350.90903,34,127,0
351.03403,351.78403,38,127,0
351.78403,352.52475,50,127,0
352.52475,353.2655,46,127,0
353.2655,354.00623,39,127,0
354.00623,354.74698,46,127,0
355.48773,357.5865,27,127,0
354.74698,357.5865,39,127,0
357.70993,358.3272,39,127,0
358.45068,360.54944,27,127,0
358.45068,360.54944,39,127,0
360.6729,361.41364,39,127,0
360.6729,361.41364,51,127,0
361.41364,362.0234,39,127,0
361.41364,362.0234,51,127,0
362.14536,362.7551,39,127,0
362.87704,363.48682,51,127,0
363.60876,364.2185,39,127,0
364.34045,364.95023,38,127,0
365.07217,365.68195,50,127,0
365.8039,366.41364,51,127,0
366.53558,367.14536,39,127,0
367.2673,367.87704,38,127,0
367.999,368.60876,38,127,0
367.999,368.60876,50,127,0
368.7307,369.34045,39,127,0
368.7307,369.34045,51,127,0
369.4624,370.07217,27,127,0
369.4624,370.07217,39,127,0
370.19412,370.8039,26,127,0
370.19412,370.8039,38,127,0
370.92584,371.52823,38,127,0
370.92584,371.52823,50,127,0
371.6487,372.25113,27,127,0
371.6487,372.25113,39,127,0
372.3716,372.97403,39,127,0
372.3716,372.97403,51,127,0
373.0945,373.6969,28,127,0
373.0945,373.6969,40,127,0
373.81738,374.4198,40,127,0
373.81738,374.4198,52,127,0
374.54028,374.8942,39,127,0
374.54028,374.8942,51,127,0
377.7933,378.14722,53,127,0
378.15475,378.50867,51,127,0
378.51617,378.87012,48,127,0
378.87762,379.23154,45,127,0
379.23907,379.593,41,127,0
379.60052,379.95444,39,127,0
379.96198,380.3159,27,127,0
379.96198,380.3159,39,127,0
380.68054,381.03027,58,127,0
380.68054,381.03027,61,127,0
381.0377,381.3874,57,127,0
381.0377,381.3874,60,127,0
381.39484,381.56598,57,127,0
381.57343,381.74454,53,127,0
381.75198,381.92313,51,127,0
381.93054,382.10168,48,127,0
382.10913,382.28024,45,127,0
382.2877,382.45883,41,127,0
382.46628,382.81598,39,127,0
382.82343,383.17313,27,127,0
382.82343,383.17313,39,127,0
383.18054,383.53024,57,127,0
383.18054,383.53024,60,127,0
383.5377,383.8874,27,127,0
383.5377,383.8874,39,127,0
384.25198,384.60168,58,127,0
384.25198,384.60168,61,127,0
384.60913,384.95883,57,127,0
384.60913,384.95883,60,127,0
384.96628,385.31598,27,127,0
384.96628,385.31598,39,127,0
385.68054,386.03024,58,127,0
385.68054,386.03024,61,127,0
386.0377,386.3874,26,127,0
386.0377,386.3874,38,127,0
386.39484,386.56598,46,127,0
386.5734,386.74454,43,127,0
386.75198,386.9231,45,127,0
386.93054,387.10168,48,127,0
387.10913,387.28024,45,127,0
387.2877,387.45883,38,127,0
387.46628,387.6374,45,127,0
387.64484,387.81598,48,127,0
387.8234,387.99454,45,127,0
388.00198,388.1731,38,127,0
388.18054,388.35168,43,127,0
388.35913,388.53024,46,127,0
388.5377,388.70883,43,127,0
388.71628,388.8874,38,127,0
388.89484,389.06598,43,127,0
389.0734,389.24454,45,127,0
389.25198,389.4231,43,127,0
389.43054,389.60168,38,127,0
389.60913,389.78024,41,127,0
389.7877,389.95883,45,127,0
389.96625,390.1374,41,127,0
390.14484,390.31598,38,127,0
390.3234,390.49454,41,127,0
390.50198,390.6731,45,127,0
390.68054,390.85168,41,127,0
390.85913,391.03024,38,127,0
391.0377,391.20883,39,127,0
391.21625,391.3874,43,127,0
391.39484,391.56595,39,127,0
391.5734,391.74454,38,127,0
391.75198,391.9231,40,127,0
391.93054,392.10168,43,127,0
392.10913,392.28024,40,127,0
392.2877,392.45883,38,127,0
392.46625,392.6374,41,127,0
392.64484,392.81595,44,127,0
392.8234,392.99454,41,127,0
393.00198,393.1731,38,127,0
393.18054,393.35168,42,127,0
393.35913,393.53024,45,127,0
393.5377,393.70883,42,127,0
393.71625,393.8874,38,127,0
393.89484,394.06595,43,127,0
394.0734,394.24454,46,127,0
394.25198,394.4231,43,127,0
394.43054,394.60168,38,127,0
394.6091,394.78024,44,127,0
394.7877,394.9588,47,127,0
394.96625,395.1374,44,127,0
395.14484,395.31595,38,127,0
395.3234,395.49454,45,127,0
395.50198,395.6731,48,127,0
395.68054,395.85168,45,127,0
395.8591,396.03024,38,127,0
396.0377,396.2088,45,127,0
396.21625,396.3874,48,127,0
396.39484,396.56595,45,127,0
396.5734,396.74454,38,127,0
396.75198,396.9231,45,127,0
396.93054,397.10168,48,127,0
397.1091,397.28024,45,127,0
397.2877,397.4588,38,127,0
397.46625,397.6374,41,127,0
397.46625,397.6374,46,127,0
397.64484,397.81595,50,127,0
397.8234,397.99454,41,127,0
397.8234,397.99454,46,127,0
398.00195,398.1731,38,127,0
398.18054,398.35168,41,127,0
398.18054,398.35168,48,127,0
398.3591,398.53024,50,127,0
398.5377,398.7088,41,127,0
398.5377,398.7088,48,127,0
398.71625,398.8874,38,127,0
398.89484,399.06595,41,127,0
398.89484,399.06595,48,127,0
399.0734,399.24454,50,127,0
399.25195,399.4231,41,127,0
399.25195,399.4231,48,127,0
399.43054,399.60165,38,127,0
399.6091,399.78024,43,127,0
399.6091,399.78024,48,127,0
399.7877,399.9588,50,127,0
399.96625,400.1374,43,127,0
399.96625,400.1374,48,127,0
400.14484,400.31595,38,127,0
400.3234,400.49454,44,127,0
400.3234,400.49454,48,127,0
400.50195,400.6731,50,127,0
400.68054,400.85165,44,127,0
400.68054,400.85165,48,127,0
400.8591,401.03024,38,127,0
401.0377,401.2088,44,127,0
401.0377,401.2088,48,127,0
401.21625,401.3874,50,127,0
401.39484,401.56595,44,127,0
401.39484,401.56595,48,127,0
401.5734,401.74454,38,127,0
401.75195,401.9231,44,127,0
401.75195,401.9231,48,127,0
401.93054,402.10165,50,127,0
402.1091,402.28024,44,127,0
402.1091,402.28024,48,127,0
402.2877,402.4588,38,127,0
402.46625,402.6374,45,127,0
402.46625,402.6374,48,127,0
402.6448,402.81595,50,127,0
402.8234,402.99454,45,127,0
402.8234,402.99454,48,127,0
403.00195,403.1731,38,127,0
403.18054,403.35165,44,127,0
403.18054,403.35165,47,127,0
403.3591,403.53024,52,127,0
403.5377,403.7088,44,127,0
403.5377,403.7088,47,127,0
403.71625,403.8874,38,127,0
403.8948,404.06595,44,127,0
403.8948,404.06595,47,127,0
404.0734,404.2445,52,127,0
404.25195,404.4231,44,127,0
404.25195,404.4231,47,127,0
404.43054,404.60165,38,127,0
404.6091,404.78024,44,127,0
404.6091,404.78024,48,127,0
404.7877,404.9588,51,127,0
404.96625,405.1374,44,127,0
404.96625,405.1374,48,127,0
405.1448,405.31595,38,127,0
405.3234,405.4945,43,127,0
405.3234,405.4945,48,127,0
405.50195,405.6731,51,127,0
405.68054,405.85165,43,127,0
405.68054,405.85165,48,127,0
405.8591,406.03024,38,127,0
406.0377,406.2088,44,127,0
406.0377,406.2088,47,127,0
406.21625,406.3874,52,127,0
406.3948,406.56595,44,127,0
406.3948,406.56595,47,127,0
406.5734,406.7445,38,127,0
406.75195,406.9231,44,127,0
406.75195,406.9231,47,127,0
406.93054,407.10165,52,127,0
407.1091,407.28024,44,127,0
407.1091,407.28024,47,127,0
407.28766,407.4588,38,127,0
407.46625,407.6374,44,127,0
407.46625,407.6374,48,127,0
407.6448,407.81595,51,127,0
407.8234,407.9945,44,127,0
407.8234,407.9945,48,127,0
408.00195,408.1731,38,127,0
408.18054,408.35165,43,127,0
408.18054,408.35165,48,127,0
408.3591,408.53024,51,127,0
408.53766,408.7088,43,127,0
408.53766,408.7088,48,127,0
408.71625,408.88736,38,127,0
408.8948,409.06595,42,127,0
408.8948,409.06595,47,127,0
409.0734,409.2445,50,127,0
409.25195,409.4231,42,127,0
409.25195,409.4231,47,127,0
409.43054,409.60165,38,127,0
409.6091,409.78024,42,127,0
409.6091,409.78024,47,127,0
409.78766,409.9588,50,127,0
409.96625,410.13736,42,127,0
409.96625,410.13736,47,127,0
410.1448,410.31595,38,127,0
410.3234,410.4945,42,127,0
410.3234,410.4945,46,127,0
410.50195,410.6731,50,127,0
410.68054,410.85165,42,127,0
410.68054,410.85165,46,127,0
410.8591,411.03024,38,127,0
411.03766,411.2088,42,127,0
411.03766,411.2088,48,127,0
411.21625,411.38736,50,127,0
411.3948,411.56595,42,127,0
411.3948,411.56595,48,127,0
411.5734,411.7445,38,127,0
411.75195,411.9231,43,127,0
411.9305,412.10165,46,127,0
412.1091,412.28024,43,127,0
412.28766,412.4588,38,127,0
412.46625,412.5481,55,127,0
412.5555,412.63736,62,127,0
412.6448,412.72665,58,127,0
412.7341,412.81595,62,127,0
412.8234,412.9052,55,127,0
412.91266,412.9945,62,127,0
413.00195,413.0838,50,127,0
413.09125,413.1731,62,127,0
413.1805,413.26236,55,127,0
413.2698,413.35165,62,127,0
413.3591,413.44095,58,127,0
413.4484,413.5302,62,127,0
413.53766,413.6195,55,127,0
413.62695,413.7088,62,127,0
413.71625,413.7981,50,127,0
413.8055,413.88736,62,127,0
413.8948,413.97665,55,127,0
413.9841,414.06595,62,127,0
414.0734,414.1552,58,127,0
414.16266,414.2445,62,127,0
414.25195,414.3338,55,127,0
414.34125,414.4231,62,127,0
414.4305,414.51236,50,127,0
414.5198,414.60165,62,127,0
414.6091,414.69095,55,127,0
414.6984,414.7802,62,127,0
414.78766,414.8695,58,127,0
414.87695,414.9588,62,127,0
414.96625,415.0481,55,127,0
415.0555,415.13736,62,127,0
415.1448,415.22665,50,127,0
415.2341,415.31595,62,127,0
415.32336,415.4052,56,127,0
415.41266,415.4945,62,127,0
415.50195,415.5838,60,127,0
415.59125,415.6731,62,127,0
415.6805,415.76236,56,127,0
415.7698,415.85165,62,127,0
415.8591,415.94095,50,127,0
415.94836,416.0302,62,127,0
416.03766,416.1195,56,127,0
416.12695,416.2088,62,127,0
416.21625,416.2981,60,127,0
416.3055,416.38736,62,127,0
416.3948,416.47665,56,127,0
416.4841,416.56595,62,127,0
416.57336,416.6552,50,127,0
416.66266,416.7445,62,127,0
416.75195,416.8338,54,127,0
416.84125,416.92307,63,127,0
416.9305,417.01236,60,127,0
417.0198,417.10165,63,127,0
417.1091,417.19095,54,127,0
417.19836,417.2802,63,127,0
417.28766,417.3695,50,127,0
417.37695,417.4588,63,127,0
417.46625,417.54807,55,127,0
417.5555,417.63736,63,127,0
417.6448,417.72665,59,127,0
417.7341,417.81595,63,127,0
417.82336,417.9052,55,127,0
417.91266,417.9945,63,127,0
418.00195,418.0838,50,127,0
418.09125,418.17307,63,127,0
418.1805,418.26236,55,127,0
418.2698,418.35165,62,127,0
418.3591,418.44095,58,127,0
418.44836,418.5302,62,127,0
418.53766,418.6195,55,127,0
418.62695,418.7088,62,127,0
418.71625,418.79807,50,127,0
418.8055,418.88736,62,127,0
418.8948,418.97665,53,127,0
418.9841,419.06595,62,127,0
419.07336,419.1552,58,127,0
419.16266,419.2445,62,127,0
419.25195,419.3338,53,127,0
419.34125,419.42307,62,127,0
419.4305,419.51236,50,127,0
419.5198,419.60165,62,127,0
419.6091,419.69095,53,127,0
419.69836,419.7802,62,127,0
419.78766,419.8695,58,127,0
419.87695,419.9588,62,127,0
419.96622,420.04807,53,127,0
420.0555,420.13736,62,127,0
420.1448,420.22665,50,127,0
420.2341,420.31595,62,127,0
420.32336,420.4052,54,127,0
420.41266,420.4945,62,127,0
420.50195,420.5838,58,127,0
420.59122,420.67307,62,127,0
420.6805,420.76236,54,127,0
420.7698,420.85165,62,127,0
420.8591,420.94095,50,127,0
420.94836,421.0302,62,127,0
421.03766,421.1195,55,127,0
421.12695,421.2088,62,127,0
421.21622,421.29807,58,127,0
421.3055,421.38736,62,127,0
421.3948,421.47665,55,127,0
421.4841,421.56592,62,127,0
421.57336,421.6552,50,127,0
421.66266,421.7445,62,127,0
421.75195,421.8338,55,127,0
421.84122,421.92307,63,127,0
421.9305,422.01236,58,127,0
422.0198,422.10165,63,127,0
422.1091,422.19092,55,127,0
422.19836,422.2802,63,127,0
422.28766,422.3695,50,127,0
422.37695,422.4588,63,127,0
422.46622,422.54807,56,127,0
422.5555,422.63736,64,127,0
422.6448,422.72665,59,127,0
422.7341,422.81592,64,127,0
422.82336,422.9052,56,127,0
422.91266,422.9945,64,127,0
423.00195,423.0838,50,127,0
423.09122,423.17307,64,127,0
423.1805,423.26236,57,127,0
423.2698,423.35165,65,127,0
423.3591,423.44092,60,127,0
423.44836,423.5302,65,127,0
423.53766,423.6195,57,127,0
423.62695,423.7088,65,127,0
423.71622,423.79807,53,127,0
423.8055,423.88736,65,127,0
423.8948,423.97665,57,127,0
423.9841,424.06592,65,127,0
424.07336,424.1552,62,127,0
424.16266,424.2445,65,127,0
424.25195,424.3338,57,127,0
424.34122,424.42307,65,127,0
424.4305,424.51236,53,127,0
424.5198,424.60165,65,127,0
424.60907,424.69092,57,127,0
424.69836,424.7802,65,127,0
424.78766,424.8695,63,127,0
424.87695,424.9588,65,127,0
424.96622,425.04807,57,127,0
425.0555,425.13736,65,127,0
425.1448,425.22665,53,127,0
425.23407,425.31592,65,127,0
425.32336,425.4052,57,127,0
425.41266,425.4945,65,127,0
425.50195,425.58377,62,127,0
425.59122,425.67307,65,127,0
425.6805,425.76236,57,127,0
425.7698,425.85165,65,127,0
425.85907,425.94092,53,127,0
425.94836,426.0302,65,127,0
426.03766,426.20877,45,127,0
426.21622,426.38736,52,127,0
426.3948,426.56592,57,127,0
426.57336,426.7445,62,127,0
426.9305,427.10165,52,127,0
427.10907,427.2802,57,127,0
427.28766,427.45877,61,127,0
427.46622,427.63736,45,127,0
427.6448,427.81592,56,127,0
427.82336,427.9945,62,127,0
428.00195,428.17307,66,127,0
428.35907,428.5302,57,127,0
428.35907,428.5302,64,127,0
428.53766,428.70877,56,127,0
428.71622,428.88736,64,127,0
428.8948,429.06592,47,127,0
429.07336,429.2445,54,127,0
429.25192,429.42307,57,127,0
429.4305,429.60165,63,127,0
429.60907,429.7802,40,127,0
429.78766,429.95877,47,127,0
429.96622,430.13736,52,127,0
430.1448,430.31592,56,127,0
430.32336,430.4945,59,127,0
430.50192,430.67307,68,127,0
430.6805,430.85162,64,127,0
430.85907,431.0302,59,127,0
431.03766,431.20877,56,127,0
431.21622,431.38736,52,127,0
431.3948,431.56592,47,127,0
431.57336,431.7445,40,127,0
431.75192,431.92307,43,127,0
431.9305,432.10162,50,127,0
432.10907,432.2802,55,127,0
432.28766,432.45877,60,127,0
432.6448,432.81592,50,127,0
432.82336,432.9945,55,127,0
433.00192,433.17307,58,127,0
433.1805,433.35162,43,127,0
433.35907,433.5302,54,127,0
433.53766,433.70877,60,127,0
433.71622,433.88736,64,127,0
434.07336,434.24448,55,127,0
434.07336,434.24448,62,127,0
434.25192,434.42307,54,127,0
434.4305,434.60162,62,127,0
434.60907,434.7802,45,127,0
434.78766,434.95877,52,127,0
434.96622,435.13736,55,127,0
435.14478,435.31592,61,127,0
435.32336,435.49448,38,127,0
435.50192,435.67307,45,127,0
435.6805,435.85162,50,127,0
435.85907,436.0302,54,127,0
436.03766,436.20877,57,127,0
436.21622,436.38736,66,127,0
436.39478,436.56592,62,127,0
436.57336,436.74448,57,127,0
436.75192,436.92307,54,127,0
436.9305,437.10162,50,127,0
437.10907,437.2802,45,127,0
437.28763,437.45877,38,127,0
438.1805,438.89478,40,127,0
438.89478,439.60907,42,127,0
439.60907,440.32336,43,127,0
440.32336,441.03763,51,127,0
440.32336,441.57336,48,127,0
441.03763,441.75192,52,127,0
441.75192,442.34717,47,127,0
441.75192,442.34717,54,127,0
442.46622,442.90518,47,127,0
442.46622,442.90518,54,127,0
442.91263,445.14478,40,127,0
442.95728,445.14478,47,127,0
445.32336,445.76233,40,127,0
445.32336,445.76233,47,127,0
445.76978,449.49002,38,127,0
445.81442,449.49002,50,127,0
449.60907,449.78018,50,127,0
449.78763,449.95877,57,127,0
449.96622,450.13733,56,127,0
450.14478,450.31592,53,127,0
451.03763,451.20877,50,127,0
451.2162,451.38733,57,127,0
451.39478,451.56592,56,127,0
451.57333,451.74448,53,127,0
453.1892,453.79895,26,127,0
453.1892,453.79895,38,127,0
454.1105,454.30035,50,127,0
454.3088,454.50754,48,127,0
454.51648,454.72525,45,127,0
454.73444,456.23444,43,127,0
456.23444,456.98444,45,127,0
456.98444,457.73444,48,127,0
457.73444,458.48444,51,127,0
458.48444,459.23444,52,127,0
459.23444,459.98444,47,127,0
459.98444,460.54694,50,127,0
460.54694,460.72662,43,127,0
460.73444,462.23444,43,127,0
462.23444,462.98444,45,127,0
462.98444,463.73444,48,127,0
463.73444,464.48444,51,127,0
464.48444,465.23444,52,127,0
465.23444,465.988,47,127,0
465.988,466.56247,50,127,0
466.56247,466.74792,41,127,0
466.75604,467.39566,41,127,0
467.52066,468.83316,39,127,0
469.02066,469.64566,40,127,0
469.77066,470.39566,45,127,0
470.52066,471.08316,51,127,0
471.08316,471.26285,45,127,0
471.27066,471.89566,45,127,0
472.02066,472.58316,51,127,0
472.58316,472.76285,45,127,0
472.77066,473.39566,45,127,0
473.52066,474.14566,43,127,0
473.52066,474.14566,55,127,0
474.27066,474.89566,42,127,0
474.27066,474.89566,54,127,0
475.02066,475.64566,40,127,0
475.02066,475.64566,52,127,0
475.77066,476.39566,41,127,0
475.77066,476.39566,53,127,0
476.52066,477.07535,47,127,0
476.52066,477.07535,59,127,0
477.08316,477.26285,41,127,0
477.08316,477.26285,53,127,0
477.27066,477.89566,41,127,0
477.27066,477.89566,53,127,0
478.02066,478.57535,47,127,0
478.02066,478.57535,59,127,0
478.58316,478.76285,41,127,0
478.58316,478.76285,53,127,0
478.77066,479.39566,41,127,0
478.77066,479.39566,53,127,0
479.52066,480.83316,47,127,0
479.52066,480.83316,59,127,0
481.02066,481.64566,39,127,0
481.02066,481.64566,51,127,0
481.77066,483.08316,42,127,0
481.77066,483.08316,54,127,0
483.27066,483.89566,41,127,0
483.27066,483.89566,53,127,0
484.02066,484.64566,34,127,0
484.02066,484.64566,46,127,0
484.77066,484.95816,35,127,0
484.77066,484.95816,47,127,0
484.95816,485.14566,50,127,0
485.14566,485.32535,62,127,0
485.70816,485.89566,55,127,0
485.70816,485.89566,62,127,0
485.89566,486.07535,50,127,0
486.27066,486.45816,34,127,0
486.27066,486.45816,46,127,0
486.45816,486.64566,56,127,0
486.64566,486.82535,62,127,0
486.64566,486.82535,68,127,0
487.20816,487.39566,62,127,0
487.20816,487.39566,68,127,0
487.39566,487.57535,56,127,0
487.77066,487.95816,35,127,0
487.77066,487.95816,47,127,0
487.95816,488.14566,50,127,0
488.14566,488.32535,62,127,0
488.70816,488.89566,55,127,0
488.70816,488.89566,62,127,0
488.89566,489.07535,50,127,0
489.27066,489.45816,34,127,0
489.27066,489.45816,46,127,0
489.45816,489.64566,56,127,0
489.64566,489.82535,62,127,0
489.64566,489.82535,68,127,0
490.20816,490.39566,62,127,0
490.20816,490.39566,68,127,0
490.39566,490.57535,56,127,0
490.77066,491.39566,40,127,0
490.77066,491.39566,52,127,0
491.52066,492.83316,41,127,0
491.52066,492.83316,53,127,0
493.02066,493.64566,42,127,0
493.02066,493.64566,54,127,0
493.77066,493.95035,31,127,0
493.95816,494.13785,43,127,0
494.14566,494.32535,50,127,0
494.33316,494.51285,53,127,0
494.52066,494.70035,55,127,0
494.70816,494.88785,59,127,0
494.89566,495.07535,62,127,0
495.08316,495.26285,65,127,0
496.02066,496.20035,55,127,0
496.20816,496.38785,53,127,0
496.39566,496.57535,50,127,0
496.58316,496.76285,43,127,0
496.77066,496.95816,34,127,0
496.95816,497.14566,46,127,0
497.14566,497.33316,49,127,0
497.33316,497.51285,54,127,0
497.52066,497.88785,61,127,0
498.27066,498.45816,46,127,0
498.45816,498.64566,49,127,0
498.64566,498.82535,61,127,0
499.02066,499.20816,44,127,0
499.20816,499.39566,49,127,0
499.39566,499.57535,61,127,0
499.77066,499.95816,31,127,0
499.95816,500.14566,43,127,0
500.14566,500.33316,50,127,0
500.33316,500.52066,53,127,0
500.52066,500.70816,55,127,0
500.70816,500.89566,59,127,0
500.89566,501.08316,62,127,0
501.08316,501.27066,65,127,0
502.02066,502.20816,55,127,0
502.20816,502.39566,53,127,0
502.39566,502.58316,50,127,0
502.58316,502.77066,43,127,0
502.77066,502.95035,34,127,0
502.95816,503.13785,46,127,0
503.14566,503.32535,49,127,0
503.33316,503.51285,54,127,0
503.52066,503.88785,61,127,0
504.27066,504.45816,46,127,0
504.45816,504.64566,49,127,0
504.64566,504.82535,61,127,0
505.02066,505.20816,44,127,0
505.20816,505.39566,49,127,0
505.39566,505.57535,61,127,0
505.77066,505.95816,31,127,0
505.95816,506.14566,43,127,0
506.14566,506.33316,50,127,0
506.33316,506.52066,53,127,0
506.52066,506.70816,55,127,0
506.70816,506.89566,59,127,0
506.89566,507.08316,62,127,0
507.08316,507.27066,65,127,0
508.77066,508.95816,39,127,0
508.77066,508.95816,51,127,0
508.95816,509.14566,56,127,0
509.14566,509.33316,60,127,0
510.27066,510.45816,39,127,0
510.27066,510.45816,51,127,0
510.45816,510.64566,56,127,0
510.64566,510.83316,60,127,0
511.77066,511.95816,38,127,0
511.95816,512.1456,50,127,0
514.7706,517.5831,31,127,0
514.7706,517.5831,43,127,0
517.7706,517.9503,51,127,0
517.7706,517.9503,55,127,0
517.9581,518.1378,59,127,0
518.1456,518.3253,51,127,0
518.1456,518.3253,55,127,0
518.3331,518.5128,47,127,0
518.5206,518.7003,51,127,0
518.5206,518.7003,54,127,0
518.7081,518.8878,59,127,0
518.8956,519.0753,51,127,0
518.8956,519.0753,54,127,0
519.0831,519.2628,47,127,0
519.2706,519.4503,51,127,0
519.2706,519.4503,54,127,0
519.4581,519.6378,59,127,0
519.6456,519.8253,51,127,0
519.6456,519.8253,54,127,0
519.8331,520.0128,47,127,0
520.0206,520.2003,51,127,0
520.0206,520.2003,54,127,0
520.2081,520.3878,59,127,0
520.3956,520.5753,51,127,0
520.3956,520.5753,54,127,0
520.5831,520.7628,47,127,0
520.7706,523.5831,31,127,0
520.7706,523.5831,43,127,0
523.7706,523.9503,55,127,0
523.9581,524.1378,59,127,0
524.1456,524.3253,55,127,0
524.3331,524.5128,51,127,0
524.5206,524.7003,55,127,0
524.7081,524.8878,58,127,0
524.8956,525.0753,55,127,0
525.0831,525.2628,51,127,0
525.2706,525.4503,55,127,0
525.4581,525.6378,58,127,0
525.6456,525.8253,55,127,0
525.8331,526.0128,51,127,0
526.0206,526.2003,55,127,0
526.2081,526.3878,58,127,0
526.3956,526.5753,55,127,0
526.5831,526.7628,51,127,0
526.7706,526.9503,51,127,0
526.7706,526.9503,55,127,0
526.9581,527.1378,59,127,0
527.1456,527.3253,51,127,0
527.1456,527.3253,55,127,0
527.3331,527.5128,47,127,0
527.5206,527.7003,51,127,0
527.5206,527.7003,54,127,0
527.7081,527.8878,59,127,0
527.8956,528.0753,51,127,0
527.8956,528.0753,54,127,0
528.0831,528.2628,47,127,0
528.2706,528.4503,51,127,0
528.2706,528.4503,54,127,0
528.4581,528.6378,59,127,0
528.6456,528.8253,51,127,0
528.6456,528.8253,54,127,0
528.8331,529.0128,47,127,0
529.0206,529.2003,51,127,0
529.0206,529.2003,54,127,0
529.2081,529.3878,59,127,0
529.3956,529.5753,51,127,0
529.3956,529.5753,54,127,0
529.5831,529.7628,47,127,0
529.7706,530.5206,43,127,0
530.5206,531.2706,42,127,0
531.2706,532.0206,40,127,0
532.0206,532.6456,39,127,0
532.7706,533.5206,43,127,0
533.5206,534.2706,42,127,0
534.2706,535.0206,40,127,0
535.0206,535.6456,38,127,0
535.7706,536.5206,43,127,0
536.5206,537.2706,42,127,0
537.2706,538.0206,40,127,0
538.0206,538.6456,39,127,0
538.7706,539.5206,43,127,0
539.5206,540.2706,42,127,0
540.2706,541.0206,40,127,0
541.0206,542.3956,38,127,0
542.1456,542.5128,57,127,0
542.5206,542.8956,50,127,0
542.5206,543.1456,56,127,0
542.8956,543.2706,52,127,0
543.2706,543.6278,53,127,0
543.2706,543.6278,57,127,0
543.6278,543.9849,52,127,0
543.6278,543.9849,55,127,0
543.9849,544.4016,50,127,0
543.9849,544.4016,54,127,0
544.4016,544.8096,48,127,0
544.4016,544.8096,55,127,0
544.8183,545.213,47,127,0
544.8183,545.47614,56,127,0
545.213,545.6077,48,127,0
545.6077,545.9781,50,127,0
545.9781,546.3485,52,127,0
546.3485,546.7235,53,127,0
546.3485,546.7235,57,127,0
546.7235,547.0985,52,127,0
546.7235,547.0985,55,127,0
547.0985,547.51514,50,127,0
547.0985,547.51514,54,127,0
547.51514,547.92316,48,127,0
547.51514,547.92316,55,127,0
547.9318,548.1115,48,127,0
548.1193,548.299,56,127,0
547.9318,548.5568,47,127,0
548.6818,548.8615,48,127,0
548.6818,548.8615,48,127,0
548.8693,549.049,56,127,0
549.4318,550.0568,38,127,0
549.4318,550.0568,50,127,0
550.1818,550.8068,40,127,0
550.1818,550.8068,52,127,0
550.9318,551.5568,29,127,0
550.9318,551.5568,41,127,0
551.6818,552.3068,30,127,0
551.6818,552.3068,42,127,0
552.4318,553.0568,38,127,0
552.4318,553.0568,50,127,0
553.1818,553.8068,40,127,0
553.1818,553.8068,52,127,0
553.9318,554.5568,35,127,0
553.9318,554.5568,47,127,0
554.6818,555.9943,36,127,0
554.6818,555.9943,48,127,0
556.1818,556.8068,37,127,0
556.9318,557.6818,38,127,0
557.6818,558.0584,50,127,0
559.258,559.6729,38,127,0
559.258,559.6729,50,127,0
560.12054,561.24554,43,127,0
561.24554,561.62054,38,127,0
561.62054,562.74554,47,127,0
562.74554,563.12054,40,127,0
563.12054,564.43304,45,127,0
564.62054,565.37054,52,127,0
565.37054,567.23773,50,127,0
567.24554,567.43304,49,127,0
567.43304,567.62054,47,127,0
567.62054,568.37054,54,127,0
568.37054,568.99554,52,127,0
569.12054,570.43304,45,127,0
570.62054,571.93304,48,127,0
572.12054,573.12054,47,127,0
573.24554,573.62054,26,127,0
573.24554,573.62054,38,127,0
573.62054,574.74554,35,127,0
573.62054,574.74554,47,127,0
574.74554,575.12054,28,127,0
574.74554,575.12054,40,127,0
575.12054,576.43304,33,127,0
575.12054,576.43304,45,127,0
576.62054,577.37054,40,127,0
576.62054,577.37054,52,127,0
577.37054,579.24554,38,127,0
577.37054,579.24554,50,127,0
579.24554,579.43304,37,127,0
579.24554,579.43304,49,127,0
579.43304,579.62054,35,127,0
579.43304,579.62054,47,127,0
579.62054,580.37054,42,127,0
579.62054,580.37054,54,127,0
580.37054,580.99554,40,127,0
580.37054,580.99554,52,127,0
581.12054,582.45734,33,127,0
581.12054,582.45734,45,127,0
582.65466,584.1186,36,127,0
582.65466,584.1186,48,127,0
584.35803,584.7077,34,127,0
584.35803,584.7077,46,127,0
584.71515,584.8863,46,127,0
584.89374,585.0649,53,127,0
585.0723,585.2434,58,127,0
585.25085,585.422,62,127,0
585.42944,585.6006,58,127,0
585.60803,585.7792,53,127,0
585.78656,585.9577,46,127,0
585.96515,586.1363,55,127,0
586.14374,586.3149,58,127,0
586.3223,586.4934,62,127,0
586.50085,586.672,56,127,0
586.67944,586.8506,62,127,0
586.85803,587.0292,65,127,0
587.21515,587.3863,46,127,0
587.39374,587.5649,55,127,0
587.5723,587.7434,58,127,0
587.75085,587.922,62,127,0
587.92944,588.1006,56,127,0
588.10803,588.2792,62,127,0
588.28656,588.4577,65,127,0
588.64374,588.8149,35,127,0
588.8223,588.9934,47,127,0
589.00085,589.172,50,127,0
589.17944,589.3506,55,127,0
589.35803,589.5291,59,127,0
589.53656,589.7077,55,127,0
589.71515,589.8863,50,127,0
589.89374,590.0649,47,127,0
590.0723,590.78656,45,127,0
590.78656,591.50085,38,127,0
591.50085,592.21515,45,127,0
592.21515,592.92944,38,127,0
592.92944,593.64374,45,127,0
593.64374,594.35803,38,127,0
594.35803,595.07227,27,127,0
594.35803,595.07227,39,127,0
595.07227,595.78656,34,127,0
595.07227,595.78656,46,127,0
595.78656,596.50085,31,127,0
595.78656,596.50085,43,127,0
596.50085,597.21515,38,127,0
596.50085,597.21515,50,127,0
597.21515,597.92944,27,127,0
597.21515,597.92944,39,127,0
597.92944,598.64374,34,127,0
597.92944,598.64374,46,127,0
598.64374,599.35803,31,127,0
598.64374,599.35803,43,127,0
599.35803,600.07227,38,127,0
599.35803,600.07227,50,127,0
600.07227,600.78656,27,127,0
600.07227,600.78656,39,127,0
600.78656,601.50085,34,127,0
600.78656,601.50085,46,127,0
601.50085,602.92944,36,127,0
601.50085,602.92944,48,127,0
602.92944,603.64374,34,127,0
602.92944,603.64374,46,127,0
603.64374,604.358,33,127,0
603.64374,604.358,45,127,0
604.358,605.07227,31,127,0
604.358,605.07227,43,127,0
605.07227,605.78656,41,127,0
605.07227,605.78656,53,127,0
605.78656,606.50085,39,127,0
605.78656,606.50085,51,127,0
606.50085,607.92944,38,127,0
606.50085,607.92944,50,127,0
607.92944,608.64374,39,127,0
607.92944,608.64374,51,127,0
608.64374,609.358,40,127,0
608.64374,609.358,52,127,0
609.358,610.07227,35,127,0
609.358,610.07227,47,127,0
610.07227,610.78656,32,127,0
610.07227,610.78656,44,127,0
610.78656,611.50085,35,127,0
610.78656,611.50085,47,127,0
611.50085,612.21515,39,127,0
611.50085,612.21515,51,127,0
612.21515,612.92944,27,127,0
612.21515,612.92944,39,127,0
612.92944,613.6437,31,127,0
612.92944,613.6437,43,127,0
613.6437,614.358,35,127,0
613.6437,614.358,47,127,0
614.358,615.07227,38,127,0
614.358,615.07227,50,127,0
615.07227,615.78656,26,127,0
615.07227,615.78656,38,127,0
615.78656,616.50085,31,127,0
615.78656,616.50085,43,127,0
616.50085,617.21515,35,127,0
616.50085,617.21515,47,127,0
617.21515,617.9294,39,127,0
617.21515,617.9294,51,127,0
617.9294,618.6437,27,127,0
617.9294,618.6437,39,127,0
618.6437,619.23895,31,127,0
618.6437,619.23895,43,127,0
619.358,619.95325,35,127,0
619.358,619.95325,47,127,0
620.07227,620.6675,38,127,0
620.07227,620.6675,50,127,0
620.78656,621.3818,26,127,0
620.78656,621.3818,38,127,0
621.50085,622.09607,31,127,0
621.50085,622.09607,43,127,0
622.21515,622.81036,35,127,0
622.21515,622.81036,47,127,0
622.9294,623.52466,38,127,0
622.9294,623.52466,50,127,0
623.6437,624.23895,26,127,0
623.6437,624.23895,38,127,0
624.358,624.9532,29,127,0
624.358,624.9532,41,127,0
625.07227,626.32227,28,127,0
625.07227,626.32227,40,127,0
626.50085,626.858,37,127,0
626.858,627.03656,35,127,0
627.03656,627.2077,33,127,0
627.2151,627.81036,29,127,0
627.2151,627.81036,41,127,0
627.9294,629.1794,28,127,0
627.9294,629.1794,40,127,0
629.358,629.7151,37,127,0
629.7151,629.8937,35,127,0
629.8937,630.0648,33,127,0
630.07227,630.42194,31,127,0
630.07227,630.42194,43,127,0
630.78656,631.1362,50,127,0
630.78656,631.1362,55,127,0
631.50085,631.8505,55,127,0
631.50085,631.8505,59,127,0
632.9294,633.2791,31,127,0
632.9294,633.2791,43,127,0
633.6437,633.9934,62,127,0
633.6437,633.9934,67,127,0
634.358,634.70764,67,127,0
634.358,634.70764,71,127,0
635.78656,636.3818,31,127,0
635.78656,636.3818,43,127,0
636.858,637.81036,59,127,0
636.9175,637.81036,62,127,0
636.977,637.81036,67,127,0
637.03656,637.81036,71,127,0
638.6437,639.33813,31,127,0
638.6437,639.33813,43,127,0
639.68536,641.00476,59,127,0
639.75476,641.00476,62,127,0
639.8242,641.00476,67,127,0
639.8937,641.00476,71,127,0
641.977,642.67145,31,127,0
641.977,642.67145,43,127,0
