start_time,end_time,note_value,velocity,instrument_program_number
1.42857,1.5451373,60,127,45
1.7857125,1.9022799,55,127,45
2.142855,2.2594223,60,127,45
2.142855,2.2594223,67,127,45
2.4999976,2.6165648,55,127,45
2.85714,2.9737074,60,127,45
4.28571,4.4022775,60,127,45
4.6428523,4.75942,55,127,45
4.999995,5.1165624,60,127,45
4.999995,5.1165624,67,127,45
5.3571377,5.473705,55,127,45
5.71428,5.8308473,60,127,45
7.14285,7.2594175,60,127,45
7.4999924,7.61656,55,127,45
7.857135,7.9737024,60,127,45
7.857135,7.9737024,67,127,45
8.214277,8.330845,55,127,45
8.57142,8.687987,60,127,45
9.642847,9.759415,55,127,45
9.99999,10.116557,60,127,45
10.357133,10.4737,55,127,45
10.714275,10.830842,60,127,45
10.714275,10.830842,67,127,45
11.071418,11.187984,55,127,45
11.42856,11.545127,60,127,45
13.2142725,13.33084,65,127,45
13.571415,13.687983,60,127,45
14.642842,14.75941,65,127,45
14.999985,15.11812,60,127,45
15.375416,15.507347,60,127,45
15.796574,15.913141,60,127,45
16.153717,16.270285,60,127,45
16.510859,16.627426,61,127,45
17.582287,17.698854,61,127,45
17.939428,18.055996,62,127,45
18.296572,18.41314,62,127,45
19.367998,19.484566,62,127,45
23.37887,23.495438,55,127,45
23.736013,23.852581,60,127,45
23.736013,23.852581,67,127,45
24.093155,24.209723,55,127,45
24.450298,24.566866,60,127,45
25.521725,25.638292,55,127,45
25.878868,25.995436,60,127,45
26.236012,26.352577,55,127,45
26.593153,26.70972,60,127,45
26.593153,26.70972,67,127,45
26.950296,27.066862,55,127,45
27.307438,27.424006,60,127,45
29.093151,29.209719,65,127,45
29.450293,29.56686,60,127,45
30.52172,30.638288,65,127,45
30.878862,30.99543,60,127,45
31.236006,31.352573,60,127,45
31.593147,31.709715,60,127,45
31.95029,32.066856,60,127,45
32.307434,32.424,61,127,45
33.021717,33.138287,63,127,45
33.37886,33.495426,63,127,45
33.736004,33.85257,62,127,45
34.093147,34.209713,62,127,45
34.450287,34.566856,61,127,45
35.164574,35.281918,61,127,45
83.60029,83.71686,60,127,45
83.957436,84.074005,55,127,45
84.314575,84.431145,60,127,45
84.314575,84.431145,67,127,45
84.67172,84.788284,55,127,45
85.02886,85.14543,60,127,45
86.10029,86.21686,55,127,45
86.45743,86.574,60,127,45
86.814575,86.931145,55,127,45
87.171715,87.288284,60,127,45
87.171715,87.288284,67,127,45
87.52886,87.645424,55,127,45
87.886,88.00257,60,127,45
89.671715,89.788284,65,127,45
90.028854,90.145424,60,127,45
91.10028,91.21685,65,127,45
91.45743,91.574,60,127,45
91.81457,91.93114,60,127,45
92.171715,92.28828,60,127,45
92.528854,92.645424,60,127,45
92.885994,93.00256,61,127,45
93.95742,94.07399,62,127,45
94.67171,94.78828,61,127,45
95.385994,95.50256,60,127,45
143.24309,143.41917,57,127,45
143.24309,143.41917,62,127,45
143.24309,143.41917,69,127,45
144.67166,144.84775,57,127,45
144.67166,144.84775,62,127,45
144.67166,144.84775,69,127,45
146.10023,146.27632,57,127,45
146.10023,146.27632,62,127,45
146.10023,146.27632,69,127,45
147.5288,147.7049,57,127,45
147.5288,147.7049,62,127,45
147.5288,147.7049,69,127,45
148.95737,149.13345,57,127,45
148.95737,149.13345,62,127,45
148.95737,149.13345,69,127,45
150.38594,150.56203,60,127,45
150.38594,150.56203,69,127,45
151.81451,151.9906,60,127,45
151.81451,151.9906,69,127,45
155.0288,155.20488,58,127,45
157.88593,158.06203,58,127,45
210.73708,210.8694,60,127,45
21.153711,21.270279,62,127,40
21.510855,21.686945,63,127,40
35.916943,36.155037,70,127,40
36.155037,36.39313,68,127,40
36.39313,36.631226,66,127,40
36.631226,36.86932,65,127,40
36.86932,37.107418,66,127,40
37.107418,37.345512,68,127,40
37.345512,37.8217,70,127,40
37.8217,38.059795,70,127,40
38.059795,38.535988,75,127,40
38.535988,38.734398,70,127,40
38.774082,39.488365,70,127,40
39.488365,40.143127,69,127,40
40.202652,41.571697,66,127,40
48.059788,48.297882,70,127,40
48.297882,48.535976,68,127,40
48.535976,48.77407,66,127,40
48.77407,49.012165,65,127,40
49.012165,49.250263,66,127,40
49.250263,49.488358,68,127,40
49.488358,49.90502,70,127,40
49.964546,50.20264,70,127,40
50.20264,50.678833,75,127,40
50.678833,50.877243,70,127,40
50.916927,51.63121,70,127,40
51.63121,52.285973,69,127,40
52.345497,53.714542,66,127,40
62.345486,63.71453,57,127,40
62.345486,63.71453,63,127,40
65.20263,68.08872,57,127,40
65.20263,69.77791,63,127,40
69.77791,71.39953,69,127,40
71.39953,73.02115,63,127,40
73.02115,74.64277,69,127,40
74.64277,77.81844,63,127,40
96.45742,97.17171,71,127,40
97.17171,98.60027,70,127,40
98.60027,98.95742,67,127,40
98.95742,99.135994,66,127,40
99.135994,99.31456,64,127,40
99.31456,100.74313,68,127,40
100.74313,101.45741,67,127,40
101.45741,101.81456,68,127,40
101.81456,102.13202,70,127,40
102.1717,102.88599,71,127,40
102.88599,103.95741,70,127,40
103.95741,104.31456,69,127,40
104.31456,104.6717,67,127,40
104.6717,104.85027,66,127,40
104.85027,105.02884,64,127,40
105.02884,106.45741,68,127,40
106.45741,107.1717,67,127,40
107.1717,107.52884,68,127,40
107.52884,107.8463,70,127,40
107.88598,108.95741,71,127,40
108.95741,109.13598,70,127,40
109.13598,109.31207,71,127,40
109.31455,109.67169,72,127,40
109.67169,109.850266,71,127,40
109.850266,110.02636,72,127,40
110.02884,110.38598,73,127,40
110.38598,110.56455,72,127,40
110.56455,110.74064,73,127,40
110.74312,111.27883,76,127,40
111.27883,111.457405,73,127,40
111.457405,112.88598,74,127,40
112.88598,113.60026,72,127,40
113.60026,116.39788,71,127,40
116.457405,117.52883,71,127,40
117.52883,117.7074,70,127,40
117.7074,117.88349,71,127,40
117.88597,118.24311,72,127,40
118.24311,118.421684,71,127,40
118.421684,118.59778,72,127,40
118.60026,118.9574,73,127,40
118.9574,119.13597,72,127,40
119.13597,119.312065,73,127,40
119.314545,119.85026,76,127,40
119.85026,120.026344,73,127,40
120.028824,121.4574,74,127,40
121.4574,122.11216,72,127,40
122.171684,124.25501,71,127,40
126.45739,127.82644,60,127,40
127.88596,129.9693,59,127,40
127.88596,129.9693,71,127,40
132.88596,133.60023,66,127,40
133.60023,136.06056,63,127,40
133.60023,136.06056,72,127,40
136.10023,136.45738,66,127,40
136.45738,140.68356,55,127,40
136.45738,140.68356,71,127,40
158.71927,158.83832,72,127,40
158.83832,158.95735,70,127,40
158.95735,159.0764,68,127,40
159.0764,159.19545,67,127,40
159.19545,159.31203,65,127,40
159.3145,159.43355,65,127,40
159.43355,159.5526,62,127,40
159.5526,159.67165,63,127,40
159.67165,159.7907,65,127,40
159.7907,159.90974,67,127,40
159.90974,160.0263,68,127,40
160.0288,160.14783,68,127,40
160.14783,160.26688,70,127,40
160.26688,160.38593,72,127,40
160.38593,160.50497,74,127,40
160.50497,160.62402,75,127,40
160.62402,160.74059,77,127,40
160.74307,160.86212,79,127,40
160.86212,160.98117,80,127,40
160.98117,161.41768,79,127,40
161.5764,161.69545,72,127,40
161.69545,161.8145,70,127,40
161.8145,161.93355,68,127,40
161.93355,162.0526,67,127,40
162.0526,162.16916,65,127,40
162.17165,162.2907,65,127,40
162.2907,162.40973,62,127,40
162.40973,162.52878,63,127,40
162.52878,162.64783,65,127,40
162.64783,162.76688,67,127,40
162.76688,162.88345,68,127,40
162.88593,163.00497,68,127,40
163.00497,163.12402,70,127,40
163.12402,163.24307,72,127,40
163.24307,163.36212,74,127,40
163.36212,163.48117,75,127,40
163.48117,163.59773,77,127,40
163.6002,163.71925,79,127,40
163.71925,163.8383,80,127,40
163.8383,164.27481,79,127,40
164.3145,164.43355,82,127,40
164.43355,164.55011,81,127,40
164.5526,164.66916,79,127,40
164.79068,164.90726,77,127,40
165.02878,165.14783,79,127,40
165.14783,165.26688,77,127,40
165.26688,165.38593,75,127,40
165.38593,165.50497,77,127,40
165.50497,165.62402,79,127,40
165.62402,165.74059,80,127,40
165.74307,165.86212,82,127,40
165.86212,165.97868,81,127,40
165.98116,166.09773,79,127,40
166.21925,166.33583,77,127,40
166.45735,166.5764,79,127,40
166.5764,166.69545,77,127,40
166.69545,166.8145,75,127,40
166.8145,166.93355,77,127,40
166.93355,167.05258,79,127,40
167.05258,167.16916,80,127,40
167.17163,167.29068,82,127,40
167.29068,167.40973,84,127,40
167.40973,167.84624,82,127,40
168.12402,168.24059,86,127,40
168.3621,168.47868,74,127,40
168.6002,169.43106,74,127,40
169.43353,169.49059,74,127,40
169.55258,169.60963,74,127,40
169.67163,169.72868,74,127,40
169.79068,169.84773,74,127,40
169.90973,169.96677,74,127,40
170.02878,170.85963,74,127,40
170.8621,170.91916,74,127,40
170.98116,171.0382,74,127,40
171.1002,171.15724,74,127,40
171.21925,171.27629,74,127,40
171.3383,171.39534,74,127,40
174.31448,174.55258,75,127,40
174.55258,174.79068,74,127,40
174.79068,175.02878,72,127,40
175.02878,175.26686,71,127,40
175.26686,175.50496,72,127,40
175.50496,175.74306,74,127,40
175.74306,176.21925,75,127,40
176.21925,176.45734,75,127,40
176.45734,176.93353,80,127,40
176.93353,177.13194,75,127,40
177.17163,178.3621,75,127,40
178.3621,178.60019,73,127,40
178.60019,178.83829,72,127,40
178.83829,179.07639,70,127,40
179.07639,179.31448,68,127,40
179.31448,179.55258,66,127,40
179.55258,179.79066,69,127,40
179.79066,179.98909,72,127,40
180.02876,180.26933,75,127,40
180.26933,180.5001,74,127,40
180.5001,180.73088,72,127,40
180.73088,180.96164,71,127,40
180.96164,181.19241,72,127,40
181.19241,181.42319,74,127,40
181.42319,181.88472,75,127,40
181.88472,182.1155,75,127,40
182.1155,182.57703,80,127,40
182.57703,183.26933,75,127,40
183.26933,183.5001,75,127,40
183.5001,183.96164,80,127,40
183.96164,184.15395,75,127,40
184.19241,184.88472,75,127,40
184.88472,185.51933,74,127,40
185.57703,186.26933,73,127,40
186.26933,186.90395,72,127,40
186.96164,189.67317,63,127,40
186.96164,189.67317,71,127,40
189.73087,190.42317,63,127,40
190.42317,191.05779,62,127,40
191.11548,191.80779,61,127,40
191.80779,192.4424,60,127,40
192.50009,195.21162,59,127,40
195.26932,195.96162,63,127,40
195.96162,196.59624,62,127,40
196.65393,197.34624,61,127,40
197.34624,197.98085,60,127,40
198.03854,210.0586,60,127,40
211.48032,211.5479,67,127,40
211.5479,211.6802,75,127,40
211.5479,211.6802,84,127,40
1.42857,1.5451373,48,127,45
1.42857,1.5451373,55,127,45
1.7857125,1.9022799,55,127,45
2.142855,2.2594223,48,127,45
2.142855,2.2594223,55,127,45
2.4999976,2.6165648,55,127,45
2.85714,2.9737074,48,127,45
2.85714,2.9737074,55,127,45
4.28571,4.4022775,48,127,45
4.28571,4.4022775,55,127,45
4.6428523,4.75942,55,127,45
4.999995,5.1165624,48,127,45
4.999995,5.1165624,55,127,45
5.3571377,5.473705,55,127,45
5.71428,5.8308473,48,127,45
5.71428,5.8308473,55,127,45
7.14285,7.2594175,55,127,45
7.4999924,7.61656,55,127,45
7.857135,7.9737024,48,127,45
7.857135,7.9737024,55,127,45
8.214277,8.330845,55,127,45
8.57142,8.687987,48,127,45
8.57142,8.687987,55,127,45
9.642847,9.759415,55,127,45
9.99999,10.116557,48,127,45
9.99999,10.116557,55,127,45
10.357133,10.4737,55,127,45
10.714275,10.830842,48,127,45
10.714275,10.830842,55,127,45
11.071418,11.187984,55,127,45
11.42856,11.545127,48,127,45
11.42856,11.545127,55,127,45
12.499988,12.616555,60,127,45
12.85713,12.973698,53,127,45
13.2142725,13.33084,53,127,45
13.571415,13.687983,48,127,45
13.571415,13.687983,55,127,45
13.928557,14.045125,60,127,45
14.2857,14.402267,53,127,45
14.642842,14.75941,53,127,45
14.999985,15.11812,48,127,45
14.999985,15.11812,55,127,45
15.375416,15.507347,48,127,45
15.375416,15.507347,60,127,45
15.796574,15.913141,48,127,45
15.796574,15.913141,55,127,45
16.153717,16.270285,48,127,45
16.153717,16.270285,60,127,45
16.510859,16.627426,49,127,45
17.225143,17.341711,49,127,45
17.582287,17.698854,61,127,45
17.939428,18.055996,50,127,45
18.296572,18.41314,62,127,45
19.367998,19.484566,50,127,45
22.600569,22.732502,51,127,45
23.021729,23.138296,48,127,45
23.021729,23.138296,55,127,45
23.37887,23.495438,55,127,45
23.736013,23.852581,48,127,45
23.736013,23.852581,55,127,45
24.093155,24.209723,55,127,45
24.450298,24.566866,48,127,45
24.450298,24.566866,55,127,45
25.521725,25.638292,55,127,45
25.878868,25.995436,48,127,45
25.878868,25.995436,55,127,45
26.236012,26.352577,55,127,45
26.593153,26.70972,48,127,45
26.593153,26.70972,55,127,45
26.950296,27.066862,55,127,45
27.307438,27.424006,48,127,45
27.307438,27.424006,55,127,45
28.378866,28.495434,60,127,45
28.736008,28.852575,53,127,45
29.093151,29.209719,53,127,45
29.450293,29.56686,48,127,45
29.450293,29.56686,55,127,45
29.807436,29.924004,60,127,45
30.164577,30.281145,53,127,45
30.52172,30.638288,53,127,45
30.878862,30.99543,48,127,45
30.878862,30.99543,55,127,45
31.236006,31.352573,48,127,45
31.236006,31.352573,60,127,45
31.593147,31.709715,48,127,45
31.593147,31.709715,55,127,45
31.95029,32.066856,48,127,45
31.95029,32.066856,60,127,45
32.307434,32.424,49,127,45
33.021717,33.138287,51,127,45
33.37886,33.495426,63,127,45
33.736004,33.85257,50,127,45
34.093147,34.209713,62,127,45
34.450287,34.566856,49,127,45
35.164574,35.281918,61,127,45
83.60029,83.71686,48,127,45
83.60029,83.71686,55,127,45
83.957436,84.074005,55,127,45
84.314575,84.431145,48,127,45
84.314575,84.431145,55,127,45
84.67172,84.788284,55,127,45
85.02886,85.14543,48,127,45
85.02886,85.14543,55,127,45
86.10029,86.21686,55,127,45
86.45743,86.574,48,127,45
86.45743,86.574,55,127,45
86.814575,86.931145,55,127,45
87.171715,87.288284,48,127,45
87.171715,87.288284,55,127,45
87.52886,87.645424,55,127,45
87.886,88.00257,48,127,45
87.886,88.00257,55,127,45
88.95743,89.074,60,127,45
89.314575,89.43114,53,127,45
89.671715,89.788284,53,127,45
90.028854,90.145424,48,127,45
90.028854,90.145424,55,127,45
90.386,90.50256,60,127,45
90.74314,90.85971,53,127,45
91.10028,91.21685,53,127,45
91.45743,91.574,48,127,45
91.45743,91.574,55,127,45
91.81457,91.93114,48,127,45
91.81457,91.93114,60,127,45
92.171715,92.28828,48,127,45
92.171715,92.28828,55,127,45
92.528854,92.645424,48,127,45
92.528854,92.645424,60,127,45
92.885994,93.00256,49,127,45
93.60028,93.71685,50,127,45
93.95742,94.07399,62,127,45
94.31457,94.43114,49,127,45
94.67171,94.78828,61,127,45
95.028854,95.14542,48,127,45
95.385994,95.50256,60,127,45
210.73708,210.8694,48,127,45
210.73708,210.8694,60,127,45
21.153711,21.270279,62,127,41
21.510855,21.686945,63,127,41
35.916943,36.155037,70,127,41
36.155037,36.39313,68,127,41
36.39313,36.631226,66,127,41
36.631226,36.86932,65,127,41
36.86932,37.107418,66,127,41
37.107418,37.345512,68,127,41
37.345512,37.8217,70,127,41
37.8217,38.059795,70,127,41
38.059795,38.535988,63,127,41
38.059795,38.535988,75,127,41
38.535988,38.734398,70,127,41
38.774082,39.488365,70,127,41
39.488365,40.143127,69,127,41
40.202652,40.916935,66,127,41
40.916935,48.000263,54,127,41
48.059788,48.297882,70,127,41
48.297882,48.535976,68,127,41
48.535976,48.77407,66,127,41
48.77407,49.012165,65,127,41
49.012165,49.250263,66,127,41
49.250263,49.488358,68,127,41
49.488358,49.90502,70,127,41
49.964546,50.20264,70,127,41
50.20264,50.678833,63,127,41
50.20264,50.678833,75,127,41
50.678833,50.877243,70,127,41
50.916927,51.63121,70,127,41
51.63121,52.285973,69,127,41
52.345497,53.05978,66,127,41
53.05978,59.42882,54,127,41
62.345486,62.5439,48,127,41
62.345486,63.71453,57,127,41
62.345486,63.71453,63,127,41
65.20263,68.08872,63,127,41
65.20263,69.77791,57,127,41
69.77791,71.39953,60,127,41
71.39953,73.02115,57,127,41
73.02115,74.64277,60,127,41
74.64277,77.81844,57,127,41
96.45742,97.17171,56,127,41
97.17171,97.885994,54,127,41
97.885994,98.60027,55,127,41
98.60027,98.95742,58,127,41
98.95742,99.31456,59,127,41
99.31456,100.02885,64,127,41
100.02885,101.45741,63,127,41
101.45741,101.81456,59,127,41
101.81456,101.99313,58,127,41
101.99313,102.1717,56,127,41
102.1717,103.95741,55,127,41
103.95741,104.31456,57,127,41
104.31456,104.6717,58,127,41
104.6717,105.02884,59,127,41
105.02884,105.743126,64,127,41
105.743126,106.81455,63,127,41
106.81455,107.1717,61,127,41
107.1717,107.52884,59,127,41
107.52884,107.70741,58,127,41
107.70741,107.8835,56,127,41
107.88598,110.6836,55,127,41
110.74312,111.100266,56,127,41
111.100266,111.27883,55,127,41
111.27883,111.457405,56,127,41
111.457405,111.81455,57,127,41
111.81455,111.99312,56,127,41
111.99312,112.17169,57,127,41
112.17169,112.52883,58,127,41
112.52883,112.707405,60,127,41
112.707405,112.88598,62,127,41
112.88598,113.24312,64,127,41
113.24312,113.42169,62,127,41
113.42169,113.60026,64,127,41
113.60026,114.13598,66,127,41
114.13598,114.314545,62,127,41
114.314545,117.11216,64,127,41
117.171684,117.82645,55,127,41
117.88597,118.60026,57,127,41
118.60026,119.25502,58,127,41
119.314545,120.028824,59,127,41
120.028824,120.74311,65,127,41
120.74311,121.4574,53,127,41
121.4574,122.171684,54,127,41
122.171684,124.25501,55,127,41
126.45739,127.82644,51,127,41
126.45739,127.82644,60,127,41
127.88596,129.13596,66,127,41
129.13596,129.31206,62,127,41
129.31453,129.9693,64,127,41
132.88596,133.60023,60,127,41
133.60023,136.06056,63,127,41
136.10023,136.45738,60,127,41
136.45738,138.95738,66,127,41
138.95738,139.31451,62,127,41
139.31451,140.68356,64,127,41
143.71928,143.83833,64,127,41
143.83833,143.95737,62,127,41
143.95737,144.07642,60,127,41
144.07642,144.19547,59,127,41
144.19547,144.31204,57,127,41
144.31451,144.43356,57,127,41
144.43356,144.55261,53,127,41
144.55261,144.67166,55,127,41
144.67166,144.79071,57,127,41
144.79071,144.90976,59,127,41
144.90976,145.02632,60,127,41
145.02881,145.14784,60,127,41
145.14784,145.26689,62,127,41
145.26689,145.38594,64,127,41
145.38594,145.50499,65,127,41
145.50499,145.62404,67,127,41
145.62404,145.7406,69,127,41
145.74309,145.86214,69,127,41
145.86214,145.98119,71,127,41
145.98119,146.4177,69,127,41
146.57642,146.69547,64,127,41
146.69547,146.81451,62,127,41
146.81451,146.93356,60,127,41
146.93356,147.05261,59,127,41
147.05261,147.16917,57,127,41
147.17166,147.29071,57,127,41
147.29071,147.40974,53,127,41
147.40974,147.5288,55,127,41
147.5288,147.64784,57,127,41
147.64784,147.76689,59,127,41
147.76689,147.88347,60,127,41
147.88594,148.00499,60,127,41
148.00499,148.12404,62,127,41
148.12404,148.24309,64,127,41
148.24309,148.36214,65,127,41
148.36214,148.48119,67,127,41
148.48119,148.59775,69,127,41
148.60022,148.71927,69,127,41
148.71927,148.83832,71,127,41
148.83832,149.27483,69,127,41
149.31451,149.43356,72,127,41
149.43356,149.55261,71,127,41
149.55261,149.75102,69,127,41
149.7907,149.98912,67,127,41
150.0288,150.14784,69,127,41
150.14784,150.26689,71,127,41
150.26689,150.7034,69,127,41
150.74309,150.86212,72,127,41
150.86212,150.98117,71,127,41
150.98117,151.1796,69,127,41
151.21927,151.41768,67,127,41
151.45737,151.57642,69,127,41
151.57642,151.69547,71,127,41
151.69547,152.13197,69,127,41
152.17165,152.2907,72,127,41
152.2907,152.40974,74,127,41
152.40974,152.84625,72,127,41
153.12404,153.2406,71,127,41
153.36212,153.4787,63,127,41
153.60022,154.43108,63,127,41
154.43355,154.4906,63,127,41
154.5526,154.60965,63,127,41
154.67165,154.7287,63,127,41
154.7907,154.84773,63,127,41
154.90974,154.96678,63,127,41
155.0288,155.08583,63,127,41
155.14784,155.20488,63,127,41
155.26689,155.32393,63,127,41
155.38594,155.44298,63,127,41
155.50497,155.56203,63,127,41
155.62402,155.68108,63,127,41
155.74307,157.28821,63,127,41
157.2907,157.34773,63,127,41
157.40974,157.46678,63,127,41
157.5288,157.58583,63,127,41
157.64784,157.70488,63,127,41
157.76689,157.82393,63,127,41
157.88593,157.94298,63,127,41
158.00497,158.06203,63,127,41
158.12402,158.18108,63,127,41
158.24307,158.30013,63,127,41
158.36212,158.41916,63,127,41
158.48117,158.53821,63,127,41
158.60022,158.71678,60,127,41
159.43355,159.5526,60,127,41
159.5526,159.67165,58,127,41
159.67165,159.7907,56,127,41
159.7907,159.90974,55,127,41
159.90974,160.0263,53,127,41
160.0288,160.14783,53,127,41
160.14783,160.26688,50,127,41
160.26688,160.38593,51,127,41
160.38593,160.50497,53,127,41
160.50497,160.62402,55,127,41
160.62402,160.74059,56,127,41
160.74307,160.86212,58,127,41
160.86212,160.98117,59,127,41
160.98117,161.10022,60,127,41
161.10022,161.21927,62,127,41
161.21927,161.3383,63,127,41
161.3383,161.45488,65,127,41
161.45735,161.5764,67,127,41
161.5764,161.69545,68,127,41
161.69545,162.13196,67,127,41
162.2907,162.40973,60,127,41
162.40973,162.52878,58,127,41
162.52878,162.64783,56,127,41
162.64783,162.76688,55,127,41
162.76688,162.88345,53,127,41
162.88593,163.00497,53,127,41
163.00497,163.12402,50,127,41
163.12402,163.24307,51,127,41
163.24307,163.36212,53,127,41
163.36212,163.48117,55,127,41
163.48117,163.59773,56,127,41
163.6002,163.71925,58,127,41
163.71925,163.8383,59,127,41
163.8383,163.95735,60,127,41
163.95735,164.0764,62,127,41
164.0764,164.19545,63,127,41
164.19545,164.31201,65,127,41
164.3145,164.43355,67,127,41
164.43355,164.5526,65,127,41
164.5526,164.67165,63,127,41
164.67165,164.79068,65,127,41
164.79068,164.90973,67,127,41
164.90973,165.0263,69,127,41
165.02878,165.14783,70,127,41
165.14783,165.26439,68,127,41
165.26688,165.46529,67,127,41
165.50497,165.70338,65,127,41
165.74307,165.86212,67,127,41
165.86212,165.98116,65,127,41
165.98116,166.1002,63,127,41
166.1002,166.21925,65,127,41
166.21925,166.3383,67,127,41
166.3383,166.45486,69,127,41
166.45735,166.5764,70,127,41
166.5764,166.69296,68,127,41
166.69545,166.89386,67,127,41
166.93355,167.13196,65,127,41
167.17163,167.29068,67,127,41
167.29068,167.40973,65,127,41
167.40973,167.52878,64,127,41
167.52878,167.64783,65,127,41
167.64783,167.76688,67,127,41
167.76688,167.88344,69,127,41
167.88593,168.00497,70,127,41
168.00497,168.12402,72,127,41
168.12402,168.56053,70,127,41
168.8383,168.95486,74,127,41
169.0764,169.19296,62,127,41
169.3145,170.14534,62,127,41
170.14783,170.20486,62,127,41
170.26688,170.32391,62,127,41
170.38593,170.44296,62,127,41
170.50496,170.56201,62,127,41
170.62401,170.68106,62,127,41
170.74306,171.39783,62,127,41
174.31448,174.55258,63,127,41
174.55258,174.79068,62,127,41
174.79068,175.02878,60,127,41
175.02878,175.26686,59,127,41
175.26686,175.50496,60,127,41
175.50496,175.74306,62,127,41
175.74306,176.21925,63,127,41
176.21925,176.45734,63,127,41
176.45734,176.93353,68,127,41
176.93353,177.13194,63,127,41
177.17163,178.3621,63,127,41
178.3621,178.60019,61,127,41
178.60019,178.83829,60,127,41
178.83829,179.07639,58,127,41
179.07639,179.31448,56,127,41
179.31448,179.55258,54,127,41
179.55258,179.79066,57,127,41
179.79066,179.98909,60,127,41
180.02876,180.26933,63,127,41
180.26933,180.5001,62,127,41
180.5001,180.73088,60,127,41
180.73088,180.96164,59,127,41
180.96164,181.19241,60,127,41
181.19241,181.42319,62,127,41
181.42319,181.88472,63,127,41
181.88472,182.1155,63,127,41
182.1155,182.57703,68,127,41
182.57703,183.26933,63,127,41
183.26933,183.5001,65,127,41
183.5001,183.96164,68,127,41
183.96164,184.15395,63,127,41
184.19241,184.88472,63,127,41
184.88472,185.51933,62,127,41
185.57703,186.26933,61,127,41
186.26933,186.90395,60,127,41
186.96164,189.67317,59,127,41
186.96164,189.67317,68,127,41
189.73087,190.42317,63,127,41
190.42317,191.05779,62,127,41
191.11548,191.80779,61,127,41
191.80779,192.4424,60,127,41
192.50009,195.21162,51,127,41
192.50009,195.21162,59,127,41
195.26932,195.96162,51,127,41
195.96162,196.65393,50,127,41
196.65393,197.34624,49,127,41
197.34624,197.98085,48,127,41
198.03854,202.1347,51,127,41
202.19238,202.53854,53,127,41
202.53854,202.84624,50,127,41
202.8847,203.51932,51,127,41
203.57701,203.92316,53,127,41
203.92316,204.23085,50,127,41
204.26932,204.90393,51,127,41
204.96162,205.30777,53,127,41
205.30777,205.61546,50,127,41
205.65393,206.28854,51,127,41
206.34624,206.69238,53,127,41
206.69238,207.00008,50,127,41
207.03854,210.0586,51,127,41
198.03854,210.0586,55,127,41
211.48032,211.5141,48,127,41
211.5141,211.5479,55,127,41
211.5479,211.6802,63,127,41
211.5479,211.6802,72,127,41
1.42857,1.5451373,36,127,45
1.42857,1.5451373,43,127,45
1.7857125,1.9022799,43,127,45
2.142855,2.2594223,48,127,45
2.142855,2.2594223,55,127,45
2.4999976,2.6165648,43,127,45
2.85714,2.9737074,36,127,45
2.85714,2.9737074,43,127,45
4.28571,4.4022775,36,127,45
4.28571,4.4022775,43,127,45
4.6428523,4.75942,43,127,45
4.999995,5.1165624,48,127,45
4.999995,5.1165624,55,127,45
5.3571377,5.473705,43,127,45
5.71428,5.8308473,36,127,45
5.71428,5.8308473,43,127,45
7.14285,7.2594175,36,127,45
7.14285,7.2594175,43,127,45
7.4999924,7.61656,43,127,45
7.857135,7.9737024,48,127,45
7.857135,7.9737024,55,127,45
8.214277,8.330845,43,127,45
8.57142,8.687987,36,127,45
8.57142,8.687987,43,127,45
9.642847,9.759415,43,127,45
9.99999,10.116557,36,127,45
9.99999,10.116557,43,127,45
10.357133,10.4737,43,127,45
10.714275,10.830842,48,127,45
10.714275,10.830842,55,127,45
11.071418,11.187984,43,127,45
11.42856,11.545127,36,127,45
11.42856,11.545127,43,127,45
12.499988,12.616555,48,127,45
12.85713,12.973698,41,127,45
13.2142725,13.33084,41,127,45
13.571415,13.687983,36,127,45
13.571415,13.687983,43,127,45
13.928557,14.045125,48,127,45
14.2857,14.402267,41,127,45
14.642842,14.75941,41,127,45
14.999985,15.11812,36,127,45
14.999985,15.11812,43,127,45
15.375416,15.507347,48,127,45
15.796574,15.913141,36,127,45
15.796574,15.913141,43,127,45
16.153717,16.270285,48,127,45
16.510859,16.627426,37,127,45
17.225143,17.341711,37,127,45
17.582287,17.698854,49,127,45
17.939428,18.055996,38,127,45
18.296572,18.41314,50,127,45
19.367998,19.484566,38,127,45
22.600569,22.732502,39,127,45
23.021729,23.138296,36,127,45
23.021729,23.138296,43,127,45
23.37887,23.495438,43,127,45
23.736013,23.852581,48,127,45
23.736013,23.852581,55,127,45
24.093155,24.209723,43,127,45
24.450298,24.566866,36,127,45
24.450298,24.566866,43,127,45
25.521725,25.638292,43,127,45
25.878868,25.995436,36,127,45
25.878868,25.995436,43,127,45
26.236012,26.352577,43,127,45
26.593153,26.70972,48,127,45
26.593153,26.70972,55,127,45
26.950296,27.066862,43,127,45
27.307438,27.424006,36,127,45
27.307438,27.424006,43,127,45
28.378866,28.495434,48,127,45
28.736008,28.852575,41,127,45
29.093151,29.209719,41,127,45
29.450293,29.56686,36,127,45
29.450293,29.56686,43,127,45
29.807436,29.924004,48,127,45
30.164577,30.281145,41,127,45
30.52172,30.638288,41,127,45
30.878862,30.99543,36,127,45
30.878862,30.99543,43,127,45
31.236006,31.352573,48,127,45
31.593147,31.709715,36,127,45
31.593147,31.709715,43,127,45
31.95029,32.066856,48,127,45
32.307434,32.424,37,127,45
33.021717,33.138287,39,127,45
33.37886,33.495426,51,127,45
33.736004,33.85257,38,127,45
34.093147,34.209713,50,127,45
34.450287,34.566856,37,127,45
35.164574,35.281918,49,127,45
83.60029,83.71686,36,127,45
83.60029,83.71686,43,127,45
83.957436,84.074005,43,127,45
84.314575,84.431145,48,127,45
84.314575,84.431145,55,127,45
84.67172,84.788284,43,127,45
85.02886,85.14543,36,127,45
85.02886,85.14543,43,127,45
86.10029,86.21686,43,127,45
86.45743,86.574,36,127,45
86.45743,86.574,43,127,45
86.814575,86.931145,43,127,45
87.171715,87.288284,48,127,45
87.171715,87.288284,55,127,45
87.52886,87.645424,43,127,45
87.886,88.00257,36,127,45
87.886,88.00257,43,127,45
88.95743,89.074,48,127,45
89.314575,89.43114,41,127,45
89.671715,89.788284,41,127,45
90.028854,90.145424,36,127,45
90.028854,90.145424,43,127,45
90.386,90.50256,43,127,45
90.74314,90.85971,41,127,45
91.10028,91.21685,41,127,45
91.45743,91.574,36,127,45
91.45743,91.574,43,127,45
91.81457,91.93114,48,127,45
92.171715,92.28828,36,127,45
92.171715,92.28828,43,127,45
92.528854,92.645424,48,127,45
92.885994,93.00256,37,127,45
93.60028,93.71685,38,127,45
93.95742,94.07399,50,127,45
94.31457,94.43114,37,127,45
94.67171,94.78828,49,127,45
95.028854,95.14542,36,127,45
95.385994,95.50256,48,127,45
142.17166,142.34775,45,127,45
142.52881,142.7049,52,127,45
142.88594,143.06204,53,127,45
143.24309,143.41917,41,127,45
143.24309,143.41917,48,127,45
143.60023,143.77632,45,127,45
143.95737,144.13347,52,127,45
144.31451,144.4906,53,127,45
144.67166,144.84775,41,127,45
144.67166,144.84775,48,127,45
145.02881,145.2049,45,127,45
145.38594,145.56204,52,127,45
145.74309,145.91917,53,127,45
146.10023,146.27632,41,127,45
146.10023,146.27632,48,127,45
146.45737,146.63347,45,127,45
146.81451,146.9906,52,127,45
147.17166,147.34775,53,127,45
147.5288,147.7049,41,127,45
147.5288,147.7049,48,127,45
147.88594,148.06203,45,127,45
148.24309,148.41917,52,127,45
148.60022,148.77632,53,127,45
148.95737,149.13345,41,127,45
148.95737,149.13345,48,127,45
149.31451,149.4906,48,127,45
149.67166,149.84775,50,127,45
150.0288,150.2049,45,127,45
150.38594,150.56203,45,127,45
150.38594,150.56203,52,127,45
150.74309,150.91917,48,127,45
151.10022,151.27632,50,127,45
151.45737,151.63345,45,127,45
151.81451,151.9906,45,127,45
151.81451,151.9906,52,127,45
155.0288,155.20488,42,127,45
157.88593,158.06203,43,127,45
160.0288,160.14536,36,127,45
160.0288,160.14536,43,127,45
160.38593,160.5025,43,127,45
160.74307,160.85963,48,127,45
160.74307,160.85963,55,127,45
161.10022,161.21678,43,127,45
161.45735,161.57393,36,127,45
161.45735,161.57393,43,127,45
162.52878,162.64536,43,127,45
162.88593,163.00249,36,127,45
162.88593,163.00249,43,127,45
163.24307,163.35963,43,127,45
163.6002,163.71678,48,127,45
163.6002,163.71678,55,127,45
163.95735,164.07393,36,127,45
164.67165,164.78821,41,127,45
165.38593,165.50249,48,127,45
166.1002,166.21678,41,127,45
166.8145,166.93106,48,127,45
167.52878,167.64534,49,127,45
168.24306,168.35963,41,127,45
169.3145,169.43106,41,127,45
170.02878,170.14534,44,127,45
170.74306,170.85963,43,127,45
210.73708,210.8694,36,127,45
210.73708,210.8694,48,127,45
21.153711,21.270279,62,127,42
21.510855,21.686945,63,127,42
35.916943,36.155037,58,127,42
36.155037,36.39313,56,127,42
36.39313,36.631226,54,127,42
36.631226,36.86932,53,127,42
36.86932,37.107418,54,127,42
37.107418,37.345512,56,127,42
37.345512,37.8217,58,127,42
37.8217,38.059795,58,127,42
38.059795,38.535988,63,127,42
38.535988,38.734398,58,127,42
38.774082,39.488365,58,127,42
39.488365,40.143127,57,127,42
40.202652,41.63122,54,127,42
41.63122,48.000263,42,127,42
48.059788,48.297882,58,127,42
48.297882,48.535976,56,127,42
48.535976,48.77407,54,127,42
48.77407,49.012165,53,127,42
49.012165,49.250263,54,127,42
49.250263,49.488358,56,127,42
49.488358,49.90502,58,127,42
49.964546,50.20264,58,127,42
50.20264,50.678833,63,127,42
50.678833,50.877243,58,127,42
50.916927,51.63121,58,127,42
51.63121,52.285973,57,127,42
52.345497,53.774067,54,127,42
53.774067,59.42882,42,127,42
62.345486,63.71453,48,127,42
62.345486,63.71453,57,127,42
65.20263,68.08872,57,127,42
65.20263,69.77791,48,127,42
69.77791,71.39953,52,127,42
71.39953,73.02115,48,127,42
73.02115,74.64277,52,127,42
74.64277,77.81844,48,127,42
96.45742,97.17171,47,127,42
97.17171,97.885994,49,127,42
97.885994,98.60027,50,127,42
98.60027,98.95742,55,127,42
98.95742,99.31456,56,127,42
99.31456,100.02885,56,127,42
100.02885,100.74313,58,127,42
100.74313,101.45741,59,127,42
101.45741,102.1717,51,127,42
102.1717,102.88599,47,127,42
102.88599,103.60027,49,127,42
103.60027,104.31456,50,127,42
104.31456,104.6717,55,127,42
104.6717,105.02884,56,127,42
105.02884,105.743126,56,127,42
105.743126,106.45741,58,127,42
106.45741,106.81455,59,127,42
106.81455,107.1717,58,127,42
107.1717,107.826454,51,127,42
107.88598,108.600266,47,127,42
108.600266,109.31455,43,127,42
109.31455,110.02884,45,127,42
110.02884,110.74312,46,127,42
110.74312,111.457405,47,127,42
111.457405,112.88598,53,127,42
112.88598,113.60026,54,127,42
113.60026,119.25502,55,127,42
119.314545,119.671684,56,127,42
119.671684,119.85026,55,127,42
119.85026,120.028824,56,127,42
120.028824,120.38597,57,127,42
120.38597,120.56454,56,127,42
120.56454,120.74063,57,127,42
120.74311,121.10025,58,127,42
121.10025,121.278824,60,127,42
121.278824,121.45492,62,127,42
121.4574,121.81454,64,127,42
121.81454,121.99311,62,127,42
121.99311,122.169205,64,127,42
122.171684,122.7074,66,127,42
122.7074,122.883484,62,127,42
122.88596,124.25501,64,127,42
126.45739,127.82644,66,127,42
127.88596,129.9693,55,127,42
132.88596,133.60023,51,127,42
133.60023,136.06056,54,127,42
136.10023,136.45738,51,127,42
136.45738,140.68356,47,127,42
171.45735,172.1121,47,127,42
172.17163,172.82639,51,127,42
172.88591,173.54068,44,127,42
173.6002,174.25496,39,127,42
174.31448,174.96925,36,127,42
175.02878,175.68353,38,127,42
175.74306,176.39781,43,127,42
176.45734,177.1121,39,127,42
177.17163,177.82639,47,127,42
177.88591,178.54068,51,127,42
178.60019,179.25496,44,127,42
179.31448,179.96924,39,127,42
180.02876,180.67319,36,127,42
180.73088,181.3655,38,127,42
181.42319,182.1155,43,127,42
182.1155,182.8078,41,127,42
182.8078,183.5001,36,127,42
183.5001,184.13472,41,127,42
184.19241,184.88472,63,127,42
184.88472,185.51933,62,127,42
185.57703,186.26933,61,127,42
186.26933,186.90395,60,127,42
186.96164,189.67317,59,127,42
189.73087,190.42317,51,127,42
190.42317,191.05779,50,127,42
191.11548,191.80779,49,127,42
191.80779,192.4424,48,127,42
192.50009,195.21162,47,127,42
192.50009,195.21162,56,127,42
195.26932,195.96162,36,127,42
195.96162,196.65393,38,127,42
196.65393,197.34624,39,127,42
197.34624,197.98085,44,127,42
198.03854,210.0586,36,127,42
198.03854,210.0586,43,127,42
211.48032,211.5479,36,127,42
211.5479,211.6802,43,127,42
211.5479,211.6802,51,127,42
7.2618976,7.3784647,72,127,0
7.380945,7.4975123,70,127,0
7.4999924,7.61656,68,127,0
7.61904,7.735607,67,127,0
7.7380877,7.9737024,65,127,0
7.9761825,8.09275,62,127,0
8.09523,8.211798,63,127,0
8.214277,8.330845,65,127,0
8.333325,8.449892,67,127,0
8.452373,8.687987,68,127,0
8.690468,8.8070345,70,127,0
8.809515,8.926083,72,127,0
8.928562,9.04513,74,127,0
9.04761,9.164177,75,127,0
9.166657,9.283225,77,127,0
9.285705,9.402272,67,127,0
9.285705,9.402272,79,127,0
9.404753,9.521319,68,127,0
9.404753,9.521319,80,127,0
9.5238,9.960307,67,127,0
9.5238,9.960307,79,127,0
10.119038,10.235605,72,127,0
10.238085,10.354652,70,127,0
10.357133,10.4737,68,127,0
10.47618,10.592748,67,127,0
10.595227,10.830842,65,127,0
10.833323,10.94989,62,127,0
10.95237,11.068937,63,127,0
11.071418,11.187984,65,127,0
11.190465,11.307033,67,127,0
11.309512,11.545127,68,127,0
11.547607,11.664175,70,127,0
11.666655,11.783222,72,127,0
11.785703,11.90227,74,127,0
11.90475,12.0213175,75,127,0
12.023797,12.140365,77,127,0
12.142845,12.259413,67,127,0
12.142845,12.259413,79,127,0
12.261892,12.37846,68,127,0
12.261892,12.37846,80,127,0
12.38094,12.817448,67,127,0
12.38094,12.817448,79,127,0
12.85713,12.973698,70,127,0
12.85713,12.973698,82,127,0
12.976177,13.092745,68,127,0
12.976177,13.092745,80,127,0
13.095225,13.293637,67,127,0
13.095225,13.293637,79,127,0
13.33332,13.531733,65,127,0
13.33332,13.531733,77,127,0
13.571415,13.687983,67,127,0
13.571415,13.687983,79,127,0
13.690462,13.80703,68,127,0
13.690462,13.80703,80,127,0
13.80951,14.246017,67,127,0
13.80951,14.246017,79,127,0
14.2857,14.402267,70,127,0
14.2857,14.402267,82,127,0
14.404748,14.521315,68,127,0
14.404748,14.521315,80,127,0
14.523795,14.722207,67,127,0
14.523795,14.722207,79,127,0
14.76189,14.960302,65,127,0
14.76189,14.960302,77,127,0
14.999985,15.11812,67,127,0
14.999985,15.11812,79,127,0
15.120682,15.243069,68,127,0
15.120682,15.243069,80,127,0
15.245717,15.747206,67,127,0
15.245717,15.747206,79,127,0
15.796574,15.913141,70,127,0
15.796574,15.913141,82,127,0
15.915622,16.032188,72,127,0
15.915622,16.032188,84,127,0
16.03467,16.471176,70,127,0
16.03467,16.471176,82,127,0
16.748955,16.947367,77,127,0
16.748955,16.947367,89,127,0
16.98705,17.185461,70,127,0
16.98705,17.185461,82,127,0
17.225143,18.852127,70,127,0
17.225143,18.852127,82,127,0
18.89181,19.129904,70,127,0
18.89181,19.129904,82,127,0
19.129904,19.367998,70,127,0
19.129904,19.367998,82,127,0
19.367998,19.606094,70,127,0
19.367998,19.606094,82,127,0
19.606094,19.844189,70,127,0
19.606094,19.844189,82,127,0
19.844189,20.082285,70,127,0
19.844189,20.082285,82,127,0
20.082285,20.19885,67,127,0
20.201332,20.3179,70,127,0
20.32038,20.436947,67,127,0
20.439426,20.555994,70,127,0
20.558474,20.675041,79,127,0
20.67752,20.794088,70,127,0
20.79657,20.913136,67,127,0
20.915617,21.032185,70,127,0
21.034664,21.151232,67,127,0
21.153711,21.270279,70,127,0
21.272758,21.389326,79,127,0
21.391806,21.508373,70,127,0
21.510855,21.627422,67,127,0
21.629902,21.74647,71,127,0
21.74895,21.865517,67,127,0
21.867996,21.984564,71,127,0
21.987043,22.103611,79,127,0
22.106092,22.222658,71,127,0
22.22514,22.343273,67,127,0
22.345835,22.468224,71,127,0
22.470871,22.597828,67,127,0
22.600569,22.732502,71,127,0
22.735369,22.872625,79,127,0
22.875603,23.018635,71,127,0
23.140776,23.257343,72,127,0
23.259823,23.37639,70,127,0
23.37887,23.495438,68,127,0
23.497917,23.614485,67,127,0
23.616966,23.852581,65,127,0
23.85506,23.971628,62,127,0
23.974108,24.090675,63,127,0
24.093155,24.209723,65,127,0
24.212204,24.32877,67,127,0
24.331251,24.566866,68,127,0
24.569345,24.685913,70,127,0
24.688393,24.80496,72,127,0
24.80744,24.924007,74,127,0
24.926489,25.043055,75,127,0
25.045536,25.162104,77,127,0
25.164583,25.28115,67,127,0
25.164583,25.28115,79,127,0
25.28363,25.400198,68,127,0
25.28363,25.400198,80,127,0
25.402678,25.839186,67,127,0
25.402678,25.839186,79,127,0
25.997915,26.114483,72,127,0
26.116962,26.23353,70,127,0
26.236012,26.352577,68,127,0
26.355059,26.471626,67,127,0
26.474106,26.70972,65,127,0
26.7122,26.828768,62,127,0
26.831247,26.947815,63,127,0
26.950296,27.066862,65,127,0
27.069344,27.185911,67,127,0
27.18839,27.424006,68,127,0
27.426485,27.543053,70,127,0
27.545532,27.6621,72,127,0
27.664581,27.781147,74,127,0
27.783628,27.900196,75,127,0
27.902676,28.019243,77,127,0
28.021723,28.13829,67,127,0
28.021723,28.13829,79,127,0
28.14077,28.257338,68,127,0
28.14077,28.257338,80,127,0
28.259819,28.696325,67,127,0
28.259819,28.696325,79,127,0
28.736008,28.852575,70,127,0
28.736008,28.852575,82,127,0
28.855055,28.971622,68,127,0
28.855055,28.971622,80,127,0
28.974104,29.172516,67,127,0
28.974104,29.172516,79,127,0
29.212198,29.41061,65,127,0
29.212198,29.41061,77,127,0
29.450293,29.56686,67,127,0
29.450293,29.56686,79,127,0
29.56934,29.685907,68,127,0
29.56934,29.685907,80,127,0
29.688389,30.124895,67,127,0
29.688389,30.124895,79,127,0
30.164577,30.281145,70,127,0
30.164577,30.281145,82,127,0
30.283625,30.400192,68,127,0
30.283625,30.400192,80,127,0
30.402674,30.638288,67,127,0
30.402674,30.638288,79,127,0
30.640768,30.83918,65,127,0
30.640768,30.83918,77,127,0
30.878862,30.99543,67,127,0
30.878862,30.99543,79,127,0
30.997911,31.114477,68,127,0
30.997911,31.114477,80,127,0
31.116959,31.553465,67,127,0
31.116959,31.553465,79,127,0
31.593147,31.709715,70,127,0
31.593147,31.709715,82,127,0
31.712196,31.828762,72,127,0
31.712196,31.828762,84,127,0
31.831244,32.26775,70,127,0
31.831244,32.26775,82,127,0
32.54553,32.605053,77,127,0
32.54553,32.605053,89,127,0
32.783623,32.843147,70,127,0
32.783623,32.843147,82,127,0
33.021717,34.6487,69,127,0
33.021717,34.6487,81,127,0
34.68838,34.866955,69,127,0
34.68838,34.866955,81,127,0
34.92648,35.10505,69,127,0
34.92648,35.10505,81,127,0
35.164574,35.345154,69,127,0
35.164574,35.345154,81,127,0
35.4064,35.593468,69,127,0
35.4064,35.593468,81,127,0
35.65697,35.851032,69,127,0
35.65697,35.851032,81,127,0
36.035988,36.152557,49,127,0
36.155037,36.271603,54,127,0
36.155037,36.271603,58,127,0
36.155037,36.271603,61,127,0
36.39313,36.5097,54,127,0
36.39313,36.5097,58,127,0
36.39313,36.5097,61,127,0
36.51218,36.628746,49,127,0
36.750275,36.86684,56,127,0
36.86932,36.98589,58,127,0
36.86932,36.98589,62,127,0
37.107418,37.223984,58,127,0
37.107418,37.223984,62,127,0
37.226463,37.343033,56,127,0
37.464558,37.581127,51,127,0
37.583607,37.700172,55,127,0
37.583607,37.700172,58,127,0
37.583607,37.700172,63,127,0
37.8217,37.93827,55,127,0
37.8217,37.93827,58,127,0
37.8217,37.93827,63,127,0
37.94075,38.057316,51,127,0
38.178844,38.29541,51,127,0
38.29789,38.41446,55,127,0
38.29789,38.41446,61,127,0
38.29789,38.41446,63,127,0
38.535988,38.652554,55,127,0
38.535988,38.652554,61,127,0
38.535988,38.652554,63,127,0
38.655033,38.771603,51,127,0
38.893127,39.009697,50,127,0
39.012177,39.128742,55,127,0
39.012177,39.128742,58,127,0
39.012177,39.128742,62,127,0
39.25027,39.36684,55,127,0
39.25027,39.36684,58,127,0
39.25027,39.36684,62,127,0
39.36932,39.485886,50,127,0
39.607414,39.72398,52,127,0
39.726463,39.84303,55,127,0
39.726463,39.84303,57,127,0
39.726463,39.84303,61,127,0
39.964558,40.081123,55,127,0
39.964558,40.081123,57,127,0
39.964558,40.081123,61,127,0
40.083603,40.200172,52,127,0
40.321697,40.438267,45,127,0
40.440746,40.557312,50,127,0
40.440746,40.557312,54,127,0
40.440746,40.557312,57,127,0
40.67884,40.79541,50,127,0
40.67884,40.79541,54,127,0
40.67884,40.79541,57,127,0
40.79789,40.914455,45,127,0
41.035984,41.15255,45,127,0
41.155033,41.2716,50,127,0
41.155033,41.2716,54,127,0
41.155033,41.2716,57,127,0
41.393127,41.509693,50,127,0
41.393127,41.509693,54,127,0
41.393127,41.509693,57,127,0
41.512173,41.628742,45,127,0
41.75027,41.866837,74,127,0
41.869316,41.985886,73,127,0
41.988365,42.10493,71,127,0
42.10741,42.22398,69,127,0
42.22646,42.462074,68,127,0
42.464554,42.58112,65,127,0
42.583603,42.70017,66,127,0
42.70265,42.819218,68,127,0
42.821697,42.938263,69,127,0
42.940742,43.176357,71,127,0
43.17884,43.295406,73,127,0
43.297886,43.414455,74,127,0
43.416935,43.5335,76,127,0
43.53598,43.65255,78,127,0
43.65503,43.771595,80,127,0
43.77408,43.890644,81,127,0
43.893124,44.009693,83,127,0
44.012173,44.44868,81,127,0
44.60741,44.723976,74,127,0
44.726456,44.843025,73,127,0
44.845505,44.96207,71,127,0
44.96455,45.08112,69,127,0
45.0836,45.319214,68,127,0
45.321693,45.438263,65,127,0
45.440742,45.55731,66,127,0
45.559788,45.676357,68,127,0
45.678837,45.795403,69,127,0
45.797886,46.0335,71,127,0
46.03598,46.152546,73,127,0
46.155025,46.271595,74,127,0
46.274075,46.39064,76,127,0
46.39312,46.50969,78,127,0
46.51217,46.628735,80,127,0
46.631218,46.747784,81,127,0
46.750263,46.866833,83,127,0
46.869312,48.000263,81,127,0
48.178833,48.295403,49,127,0
48.297882,48.414448,54,127,0
48.297882,48.414448,58,127,0
48.297882,48.414448,61,127,0
48.535976,48.652542,54,127,0
48.535976,48.652542,58,127,0
48.535976,48.652542,61,127,0
48.655025,48.77159,49,127,0
48.89312,49.009686,56,127,0
49.012165,49.128735,58,127,0
49.012165,49.128735,62,127,0
49.250263,49.36683,58,127,0
49.250263,49.36683,62,127,0
49.36931,49.485878,56,127,0
49.607403,49.723972,51,127,0
49.72645,49.843018,55,127,0
49.72645,49.843018,58,127,0
49.72645,49.843018,63,127,0
49.964546,50.081116,55,127,0
49.964546,50.081116,58,127,0
49.964546,50.081116,63,127,0
50.083595,50.20016,51,127,0
50.32169,50.438255,51,127,0
50.440735,50.557304,55,127,0
50.440735,50.557304,61,127,0
50.440735,50.557304,63,127,0
50.678833,50.7954,55,127,0
50.678833,50.7954,61,127,0
50.678833,50.7954,63,127,0
50.79788,50.914448,51,127,0
51.035973,51.152542,50,127,0
51.15502,51.271587,55,127,0
51.15502,51.271587,58,127,0
51.15502,51.271587,62,127,0
51.393116,51.509686,55,127,0
51.393116,51.509686,58,127,0
51.393116,51.509686,62,127,0
51.512165,51.62873,50,127,0
51.75026,51.866825,52,127,0
51.869305,51.985874,55,127,0
51.869305,51.985874,57,127,0
51.869305,51.985874,61,127,0
52.107403,52.22397,55,127,0
52.107403,52.22397,57,127,0
52.107403,52.22397,61,127,0
52.226448,52.343018,52,127,0
52.464542,52.581112,45,127,0
52.58359,52.700157,50,127,0
52.58359,52.700157,54,127,0
52.58359,52.700157,57,127,0
52.821686,52.938255,50,127,0
52.821686,52.938255,54,127,0
52.821686,52.938255,57,127,0
52.940735,53.0573,45,127,0
53.17883,53.295395,45,127,0
53.29788,53.414444,50,127,0
53.29788,53.414444,54,127,0
53.29788,53.414444,57,127,0
53.535973,53.65254,50,127,0
53.535973,53.65254,54,127,0
53.535973,53.65254,57,127,0
53.655018,53.771587,45,127,0
53.893112,54.00968,74,127,0
54.01216,54.12873,73,127,0
54.13121,54.247776,71,127,0
54.250256,54.366825,69,127,0
54.369305,54.60492,68,127,0
54.6074,54.723965,65,127,0
54.726448,54.843014,66,127,0
54.845493,54.962063,68,127,0
54.964542,55.08111,69,127,0
55.083588,55.319202,71,127,0
55.321686,55.43825,73,127,0
55.44073,55.5573,74,127,0
55.55978,55.676346,76,127,0
55.678825,55.795395,78,127,0
55.797874,55.91444,80,127,0
55.91692,56.03349,81,127,0
56.03597,56.152534,83,127,0
56.155018,56.591522,81,127,0
56.750256,56.86682,74,127,0
56.8693,56.98587,73,127,0
56.98835,57.104916,71,127,0
57.107395,57.223965,69,127,0
57.226444,57.46206,68,127,0
57.46454,57.58111,65,127,0
57.583588,57.700153,66,127,0
57.702633,57.819202,68,127,0
57.821682,57.938248,69,127,0
57.940727,58.176342,71,127,0
58.178825,58.29539,73,127,0
58.29787,58.41444,74,127,0
58.41692,58.533485,76,127,0
58.535965,58.652534,78,127,0
58.655014,58.77158,80,127,0
58.774063,58.89063,81,127,0
58.89311,59.009678,83,127,0
59.012157,59.448666,81,127,0
60.916916,61.033485,83,127,0
61.27406,61.390625,77,127,0
61.631203,61.74777,68,127,0
63.774055,63.890625,84,127,0
64.1312,64.247765,77,127,0
64.48834,64.60491,68,127,0
68.5617,68.60674,63,127,0
68.9671,69.012146,75,127,0
70.18332,70.22836,63,127,0
70.58872,70.633766,75,127,0
71.80494,71.84998,63,127,0
72.21034,72.25539,75,127,0
73.42656,73.4716,63,127,0
73.83196,73.87701,75,127,0
75.04818,75.09322,63,127,0
75.45358,75.49863,75,127,0
76.6698,76.71484,63,127,0
77.0752,77.12025,75,127,0
83.71934,83.83591,72,127,0
83.83839,83.954956,70,127,0
83.957436,84.074005,68,127,0
84.076485,84.19305,67,127,0
84.195526,84.431145,65,127,0
84.433624,84.55019,62,127,0
84.55267,84.669235,63,127,0
84.67172,84.788284,65,127,0
84.790764,84.90733,67,127,0
84.90981,85.14543,68,127,0
85.14791,85.26447,70,127,0
85.26696,85.38352,72,127,0
85.386,85.50257,74,127,0
85.50505,85.62162,75,127,0
85.6241,85.74067,77,127,0
85.74315,85.85971,67,127,0
85.74315,85.85971,79,127,0
85.86219,85.97876,68,127,0
85.86219,85.97876,80,127,0
85.98124,86.41775,67,127,0
85.98124,86.41775,79,127,0
86.57648,86.69305,72,127,0
86.695526,86.812096,70,127,0
86.814575,86.931145,68,127,0
86.933624,87.050186,67,127,0
87.052666,87.288284,65,127,0
87.290764,87.40733,62,127,0
87.40981,87.52638,63,127,0
87.52886,87.645424,65,127,0
87.6479,87.76447,67,127,0
87.76695,88.00257,68,127,0
88.00505,88.12162,70,127,0
88.1241,88.24066,72,127,0
88.24314,88.35971,74,127,0
88.36219,88.47876,75,127,0
88.48124,88.59781,77,127,0
88.60029,88.71685,67,127,0
88.60029,88.71685,79,127,0
88.71934,88.8359,68,127,0
88.71934,88.8359,80,127,0
88.83838,89.27489,67,127,0
88.83838,89.27489,79,127,0
89.314575,89.43114,70,127,0
89.314575,89.43114,82,127,0
89.43362,89.550186,68,127,0
89.43362,89.550186,80,127,0
89.552666,89.751076,67,127,0
89.552666,89.751076,79,127,0
89.790764,89.989174,65,127,0
89.790764,89.989174,77,127,0
90.028854,90.145424,67,127,0
90.028854,90.145424,79,127,0
90.1479,90.26447,68,127,0
90.1479,90.26447,80,127,0
90.26695,90.70346,67,127,0
90.26695,90.70346,79,127,0
90.74314,90.85971,70,127,0
90.74314,90.85971,82,127,0
90.86219,90.97876,68,127,0
90.86219,90.97876,80,127,0
90.98124,91.17965,67,127,0
90.98124,91.17965,79,127,0
91.21933,91.41775,65,127,0
91.21933,91.41775,77,127,0
91.45743,91.574,67,127,0
91.45743,91.574,79,127,0
91.57648,91.69304,68,127,0
91.57648,91.69304,80,127,0
91.69552,92.13203,67,127,0
91.69552,92.13203,79,127,0
92.171715,92.28828,70,127,0
92.171715,92.28828,82,127,0
92.29076,92.407326,72,127,0
92.29076,92.407326,84,127,0
92.409805,92.84631,70,127,0
92.409805,92.84631,82,127,0
93.12409,93.3225,77,127,0
93.12409,93.3225,89,127,0
93.36219,93.5606,70,127,0
93.36219,93.5606,82,127,0
93.60028,95.227264,70,127,0
93.60028,95.227264,82,127,0
95.266945,95.50504,70,127,0
95.266945,95.50504,82,127,0
95.50504,95.74313,70,127,0
95.50504,95.74313,82,127,0
95.74313,95.98123,70,127,0
95.74313,95.98123,82,127,0
95.98123,96.21933,70,127,0
95.98123,96.21933,82,127,0
96.21933,96.45742,70,127,0
96.21933,96.45742,82,127,0
96.57647,96.69304,71,127,0
96.69552,96.81208,69,127,0
96.81457,96.93113,68,127,0
96.93361,97.05018,66,127,0
97.05266,97.28828,64,127,0
97.29076,97.40732,63,127,0
97.409805,97.52637,64,127,0
97.52885,97.64542,66,127,0
97.647896,97.764465,68,127,0
97.766945,98.002556,70,127,0
98.005035,98.121605,72,127,0
98.124084,98.240654,74,127,0
98.24313,98.3597,76,127,0
98.36218,98.47875,78,127,0
98.48123,98.71684,79,127,0
98.71932,98.83589,86,127,0
98.83837,98.95494,84,127,0
98.95742,99.07399,83,127,0
99.07647,99.19303,81,127,0
99.19551,99.43113,80,127,0
99.43361,99.55018,78,127,0
99.55266,99.66923,76,127,0
99.67171,99.78827,74,127,0
99.79075,99.90732,72,127,0
99.9098,100.02637,71,127,0
100.02885,100.14542,70,127,0
100.147896,100.26446,63,127,0
100.266945,100.38351,65,127,0
100.38599,100.502556,67,127,0
100.505035,100.621605,68,127,0
100.624084,100.740654,70,127,0
100.74313,100.859695,71,127,0
100.86218,100.978745,73,127,0
100.981224,101.09779,75,127,0
101.10027,101.21684,77,127,0
101.21932,101.33589,79,127,0
101.33837,101.45493,80,127,0
101.45741,101.57398,82,127,0
101.57646,101.69303,83,127,0
101.69551,101.81208,85,127,0
101.81456,101.93113,87,127,0
102.29075,102.40732,71,127,0
102.4098,102.52637,69,127,0
102.52885,102.64541,67,127,0
102.64789,102.76446,66,127,0
102.76694,103.002556,64,127,0
103.005035,103.121605,63,127,0
103.124084,103.24065,64,127,0
103.243126,103.359695,66,127,0
103.362175,103.478745,67,127,0
103.481224,103.59779,69,127,0
103.60027,103.71684,70,127,0
103.71932,103.835884,72,127,0
103.83836,103.95493,74,127,0
103.95741,104.07398,76,127,0
104.07646,104.19303,78,127,0
104.19551,104.43112,79,127,0
104.4336,104.55017,86,127,0
104.55265,104.66922,84,127,0
104.6717,104.78827,83,127,0
104.79075,104.90731,81,127,0
104.9098,105.14541,80,127,0
105.14789,105.26446,78,127,0
105.26694,105.38351,76,127,0
105.38599,105.50255,74,127,0
105.50503,105.6216,72,127,0
105.62408,105.74065,71,127,0
105.743126,105.859695,70,127,0
105.862175,105.978745,63,127,0
105.981224,106.097786,65,127,0
106.100266,106.216835,67,127,0
106.219315,106.335884,68,127,0
106.33836,106.45493,70,127,0
106.45741,106.57398,71,127,0
106.57646,106.69302,73,127,0
106.6955,106.81207,75,127,0
106.81455,106.93112,77,127,0
106.9336,107.05017,79,127,0
107.05265,107.16922,80,127,0
107.1717,107.28826,82,127,0
107.29074,107.40731,83,127,0
107.40979,107.52636,85,127,0
107.52884,107.64541,87,127,0
107.88598,108.00255,52,127,0
108.00503,108.1216,55,127,0
108.12408,108.24065,52,127,0
108.243126,108.35969,55,127,0
108.362175,108.47874,64,127,0
108.48122,108.597786,55,127,0
108.600266,108.716835,52,127,0
108.719315,108.835884,55,127,0
108.83836,108.954926,52,127,0
108.95741,109.073975,55,127,0
109.076454,109.19302,64,127,0
109.1955,109.31207,55,127,0
109.31455,109.43112,52,127,0
109.4336,109.55016,55,127,0
109.55264,109.66921,52,127,0
109.67169,109.78826,55,127,0
109.79074,109.90731,64,127,0
109.90979,110.02636,55,127,0
110.02884,110.1454,52,127,0
110.14788,110.26445,55,127,0
110.26693,110.3835,52,127,0
110.38598,110.50255,55,127,0
110.50503,110.6216,64,127,0
110.62408,110.74064,55,127,0
110.74312,110.85969,52,127,0
110.86217,110.97874,56,127,0
110.98122,111.097786,52,127,0
111.100266,111.216835,56,127,0
111.219315,111.33588,64,127,0
111.338356,111.454926,56,127,0
111.457405,111.573975,53,127,0
111.576454,111.69302,62,127,0
111.6955,111.812065,53,127,0
111.81455,111.931114,62,127,0
111.93359,112.05016,65,127,0
112.05264,112.16921,62,127,0
112.17169,112.28826,53,127,0
112.29074,112.4073,62,127,0
112.40979,112.52635,53,127,0
112.52883,112.6454,62,127,0
112.64788,112.76445,65,127,0
112.76693,112.8835,62,127,0
112.88598,113.00254,54,127,0
113.00503,113.12159,60,127,0
113.12407,113.24064,54,127,0
113.24312,113.35969,60,127,0
113.36217,113.47874,66,127,0
113.48122,113.59778,60,127,0
113.71931,113.83588,83,127,0
113.838356,113.954926,81,127,0
113.957405,114.073975,79,127,0
114.076454,114.193016,78,127,0
114.195496,114.312065,76,127,0
114.314545,114.431114,74,127,0
114.43359,114.55016,72,127,0
114.55264,114.66921,71,127,0
114.67169,114.78825,69,127,0
114.79073,114.9073,67,127,0
114.90978,115.02635,66,127,0
115.14788,115.26445,67,127,0
115.26693,115.38349,66,127,0
115.38597,115.50254,64,127,0
115.50502,115.62159,62,127,0
115.62407,115.74064,60,127,0
115.86217,115.97873,60,127,0
115.98121,116.09778,59,127,0
116.10026,116.21683,57,127,0
116.21931,116.33588,55,127,0
116.338356,116.45492,54,127,0
116.457405,116.57397,52,127,0
116.57645,116.693016,55,127,0
116.695496,116.812065,52,127,0
116.814545,116.931114,55,127,0
116.93359,117.050156,64,127,0
117.05264,117.169205,55,127,0
117.171684,117.28825,52,127,0
117.29073,117.4073,55,127,0
117.40978,117.52635,52,127,0
117.52883,117.64539,55,127,0
117.64787,117.76444,64,127,0
117.76692,117.88349,55,127,0
117.88597,118.00254,52,127,0
118.00502,118.12159,55,127,0
118.12407,118.24063,52,127,0
118.24311,118.35968,55,127,0
118.36216,118.47873,64,127,0
118.48121,118.59778,55,127,0
118.60026,118.71683,52,127,0
118.71931,118.83587,55,127,0
118.83835,118.95492,52,127,0
118.9574,119.07397,55,127,0
119.07645,119.193016,64,127,0
119.195496,119.312065,55,127,0
119.314545,119.43111,52,127,0
119.433586,119.550156,56,127,0
119.552635,119.669205,52,127,0
119.671684,119.78825,56,127,0
119.79073,119.907295,64,127,0
119.90978,120.026344,56,127,0
120.028824,120.14539,53,127,0
120.14787,120.26444,62,127,0
120.26692,120.38349,53,127,0
120.38597,120.50253,62,127,0
120.50502,120.62158,65,127,0
120.62406,120.74063,62,127,0
120.74311,120.85968,53,127,0
120.86216,120.97873,62,127,0
120.98121,121.09777,53,127,0
121.10025,121.21682,62,127,0
121.2193,121.33587,65,127,0
121.33835,121.45492,62,127,0
121.4574,121.57397,54,127,0
121.57645,121.69301,60,127,0
121.69549,121.81206,55,127,0
121.81454,121.93111,60,127,0
121.933586,122.050156,66,127,0
122.052635,122.169205,60,127,0
122.290726,122.407295,83,127,0
122.409775,122.526344,81,127,0
122.528824,122.64539,79,127,0
122.64787,122.76444,78,127,0
122.76692,122.883484,76,127,0
122.88596,123.00253,74,127,0
123.00501,123.12158,72,127,0
123.12406,123.24063,71,127,0
123.24311,123.35968,69,127,0
123.36216,123.47872,67,127,0
123.4812,123.59777,66,127,0
123.7193,123.83587,67,127,0
123.83835,123.95491,66,127,0
123.9574,124.07396,64,127,0
124.07644,124.19301,62,127,0
124.19549,124.31206,60,127,0
124.433586,124.55015,60,127,0
124.552635,124.6692,59,127,0
124.67168,124.788246,57,127,0
124.790726,124.907295,55,127,0
124.909775,125.026344,54,127,0
125.7431,125.85967,66,127,0
126.10025,126.21682,60,127,0
126.45739,126.57396,51,127,0
127.52882,127.645386,45,127,0
127.647865,127.764435,57,127,0
127.766914,127.883484,45,127,0
127.88596,128.00253,55,127,0
128.005,128.12158,59,127,0
128.12405,128.24063,55,127,0
128.2431,128.35966,59,127,0
128.36215,128.47871,67,127,0
128.4812,128.59776,59,127,0
128.60025,128.71681,55,127,0
128.7193,128.83586,59,127,0
128.83835,128.95491,55,127,0
128.95738,129.07396,59,127,0
129.07643,129.19301,67,127,0
129.19548,129.31206,59,127,0
129.43358,129.55014,71,127,0
129.55263,129.66919,69,127,0
129.67168,129.78824,67,127,0
129.79073,129.90729,66,127,0
129.90977,130.02634,64,127,0
130.14786,130.26443,60,127,0
130.2669,130.38348,59,127,0
130.38596,130.50253,57,127,0
130.505,130.62157,55,127,0
130.62405,130.74062,54,127,0
131.45738,131.57396,66,127,0
131.81453,131.93109,60,127,0
132.17168,132.28824,51,127,0
133.2431,133.35966,45,127,0
133.36215,133.47871,57,127,0
133.4812,133.59776,45,127,0
133.95738,134.07394,45,127,0
134.07643,134.193,57,127,0
134.19548,134.31204,45,127,0
134.67168,134.78824,45,127,0
134.79071,134.90729,57,127,0
134.90976,135.02634,45,127,0
135.38596,135.50252,45,127,0
135.505,135.62157,57,127,0
135.62405,135.74062,45,127,0
136.10023,136.21681,45,127,0
136.21928,136.33586,57,127,0
136.33833,136.4549,45,127,0
136.45738,136.57394,55,127,0
136.57643,136.693,59,127,0
136.69548,136.81204,55,127,0
136.81453,136.93109,59,127,0
136.93358,137.05014,67,127,0
137.05261,137.16919,59,127,0
137.17166,137.28824,55,127,0
137.29071,137.40729,59,127,0
137.40976,137.52632,55,127,0
137.52881,137.64537,59,127,0
137.64786,137.76442,67,127,0
137.7669,137.88347,59,127,0
137.88596,138.00252,55,127,0
138.005,138.12157,59,127,0
138.12405,138.24062,55,127,0
138.24309,138.35966,59,127,0
138.36214,138.47871,67,127,0
138.48119,138.59776,59,127,0
138.60023,138.7168,55,127,0
138.71928,138.83585,59,127,0
138.83833,138.9549,55,127,0
138.95738,139.07394,59,127,0
139.07643,139.193,67,127,0
139.19548,139.31204,59,127,0
139.43356,139.55014,83,127,0
139.55261,139.66919,81,127,0
139.67166,139.78824,79,127,0
139.79071,139.90727,78,127,0
139.90976,140.02632,76,127,0
140.02881,140.14537,74,127,0
140.14786,140.26442,72,127,0
140.2669,140.38347,71,127,0
140.38596,140.50252,69,127,0
140.50499,140.62157,67,127,0
140.62404,140.74062,66,127,0
140.86214,140.97871,67,127,0
140.98119,141.09775,66,127,0
141.10023,141.2168,64,127,0
141.21928,141.33585,62,127,0
141.33833,141.4549,60,127,0
141.57643,141.693,57,127,0
141.69547,141.81204,55,127,0
141.81451,141.93109,54,127,0
141.93356,142.05014,52,127,0
142.05261,142.16917,50,127,0
142.17166,142.28822,48,127,0
142.29071,142.40727,52,127,0
142.40976,142.52632,48,127,0
142.52881,142.64537,52,127,0
142.64786,142.76442,57,127,0
142.76689,142.88347,60,127,0
142.88594,143.00252,48,127,0
143.00499,143.12157,50,127,0
143.12404,143.24062,48,127,0
143.24309,143.35965,50,127,0
143.36214,143.4787,57,127,0
143.48119,143.59775,60,127,0
143.60023,143.7168,48,127,0
143.71928,143.83585,52,127,0
143.83833,143.9549,48,127,0
143.95737,144.07394,52,127,0
144.07642,144.193,57,127,0
144.19547,144.31204,60,127,0
144.31451,144.43109,48,127,0
144.43356,144.55013,50,127,0
144.55261,144.66917,48,127,0
144.67166,144.78822,50,127,0
144.79071,144.90727,57,127,0
144.90976,145.02632,60,127,0
145.02881,145.14537,48,127,0
145.14784,145.26442,52,127,0
145.26689,145.38347,48,127,0
145.38594,145.50252,52,127,0
145.50499,145.62155,57,127,0
145.62404,145.7406,60,127,0
145.74309,145.85965,48,127,0
145.86214,145.9787,50,127,0
145.98119,146.09775,48,127,0
146.10023,146.2168,50,127,0
146.21928,146.33585,57,127,0
146.33832,146.4549,60,127,0
146.45737,146.57394,48,127,0
146.57642,146.693,52,127,0
146.69547,146.81203,48,127,0
146.81451,146.93108,52,127,0
146.93356,147.05013,57,127,0
147.05261,147.16917,60,127,0
147.17166,147.28822,48,127,0
147.29071,147.40727,50,127,0
147.40974,147.52632,48,127,0
147.5288,147.64537,50,127,0
147.64784,147.76442,57,127,0
147.76689,147.88347,60,127,0
147.88594,148.0025,48,127,0
148.00499,148.12155,52,127,0
148.12404,148.2406,48,127,0
148.24309,148.35965,52,127,0
148.36214,148.4787,57,127,0
148.48119,148.59775,60,127,0
148.60022,148.7168,48,127,0
148.71927,148.83585,50,127,0
148.83832,148.9549,48,127,0
148.95737,149.07393,50,127,0
149.07642,149.19298,57,127,0
149.19547,149.31203,60,127,0
149.31451,149.43108,55,127,0
149.43356,149.55013,57,127,0
149.55261,149.66917,61,127,0
149.67166,149.78822,53,127,0
149.7907,149.90727,59,127,0
149.90974,150.02632,62,127,0
150.0288,150.14537,48,127,0
150.14784,150.2644,52,127,0
150.26689,150.38345,48,127,0
150.38594,150.5025,52,127,0
150.50499,150.62155,57,127,0
150.62404,150.7406,60,127,0
150.74309,150.85965,55,127,0
150.86212,150.9787,57,127,0
150.98117,151.09775,63,127,0
151.10022,151.2168,53,127,0
151.21927,151.33585,59,127,0
151.33832,151.45488,62,127,0
151.45737,151.57393,48,127,0
151.57642,151.69298,52,127,0
151.69547,151.81203,48,127,0
151.81451,151.93108,52,127,0
151.93356,152.05013,57,127,0
152.0526,152.16917,60,127,0
152.17165,152.28822,52,127,0
152.2907,152.40727,55,127,0
152.40974,152.52632,52,127,0
152.5288,152.64536,55,127,0
152.64784,152.7644,60,127,0
152.76689,152.88345,64,127,0
152.88594,153.0025,51,127,0
153.00499,153.12155,54,127,0
153.12404,153.2406,51,127,0
153.24307,153.35965,54,127,0
153.36212,153.4787,59,127,0
153.48117,153.59775,63,127,0
153.71927,153.83583,71,127,0
153.83832,153.95488,66,127,0
153.95737,154.07393,71,127,0
154.07642,154.19298,75,127,0
154.19547,154.2525,78,127,0
154.25499,154.28474,70,127,0
154.28474,154.43108,70,127,0
154.28474,154.43108,75,127,0
154.3145,154.43108,82,127,0
154.96927,155.14536,58,127,0
154.99902,155.14536,63,127,0
155.0288,155.14536,70,127,0
155.86212,155.9787,63,127,0
155.98117,156.09773,59,127,0
156.10022,156.21678,63,127,0
156.21927,156.33583,66,127,0
156.33832,156.45488,71,127,0
156.57642,156.69298,71,127,0
156.69545,156.81203,66,127,0
156.8145,156.93108,71,127,0
156.93355,157.05013,75,127,0
157.0526,157.10965,78,127,0
157.11212,157.28821,71,127,0
157.14189,157.28821,75,127,0
157.17165,157.28821,83,127,0
157.8264,158.0025,59,127,0
157.85617,158.0025,63,127,0
157.88593,158.0025,71,127,0
158.60022,158.71678,51,127,0
158.71927,158.83583,63,127,0
158.83832,158.95488,51,127,0
158.95735,159.07393,63,127,0
159.0764,159.19298,51,127,0
159.19545,159.31203,63,127,0
159.3145,159.43108,51,127,0
159.43355,159.55011,63,127,0
159.5526,159.66916,51,127,0
159.67165,159.78821,63,127,0
159.7907,159.90726,51,127,0
159.90974,160.0263,63,127,0
160.0288,160.14536,51,127,0
160.14783,160.2644,55,127,0
160.26688,160.38345,51,127,0
160.38593,160.5025,55,127,0
160.50497,160.62154,63,127,0
160.62402,160.74059,55,127,0
160.74307,160.85963,51,127,0
160.86212,160.97868,55,127,0
160.98117,161.09773,51,127,0
161.10022,161.21678,55,127,0
161.21927,161.33583,63,127,0
161.3383,161.45488,55,127,0
161.45735,161.57393,51,127,0
161.5764,161.69298,63,127,0
161.69545,161.81201,51,127,0
161.8145,161.93106,63,127,0
161.93355,162.05011,51,127,0
162.0526,162.16916,63,127,0
162.17165,162.28821,51,127,0
162.2907,162.40726,63,127,0
162.40973,162.5263,51,127,0
162.52878,162.64536,63,127,0
162.64783,162.7644,51,127,0
162.76688,162.88345,63,127,0
162.88593,163.00249,51,127,0
163.00497,163.12154,55,127,0
163.12402,163.24059,51,127,0
163.24307,163.35963,55,127,0
163.36212,163.47868,63,127,0
163.48117,163.59773,55,127,0
163.6002,163.71678,51,127,0
163.71925,163.83583,55,127,0
163.8383,163.95488,51,127,0
163.95735,164.07393,55,127,0
164.0764,164.19296,63,127,0
164.19545,164.31201,55,127,0
164.3145,164.43106,51,127,0
164.43355,164.55011,55,127,0
164.5526,164.66916,63,127,0
164.67165,164.78821,51,127,0
164.79068,164.90726,57,127,0
164.90973,165.0263,63,127,0
165.02878,165.14536,51,127,0
165.14783,165.26439,55,127,0
165.26688,165.38344,63,127,0
165.38593,165.50249,51,127,0
165.50497,165.62154,56,127,0
165.62402,165.74059,63,127,0
165.74307,165.85963,51,127,0
165.86212,165.97868,55,127,0
165.98116,166.09773,63,127,0
166.1002,166.21678,51,127,0
166.21925,166.33583,57,127,0
166.3383,166.45486,63,127,0
166.45735,166.57391,51,127,0
166.5764,166.69296,55,127,0
166.69545,166.81201,63,127,0
166.8145,166.93106,51,127,0
166.93355,167.05011,56,127,0
167.05258,167.16916,63,127,0
167.17163,167.28821,52,127,0
167.29068,167.40726,58,127,0
167.40973,167.5263,64,127,0
167.52878,167.64534,58,127,0
167.64783,167.76439,52,127,0
167.76688,167.88344,58,127,0
167.88593,168.00249,53,127,0
168.00497,168.12154,58,127,0
168.12402,168.24059,65,127,0
168.24306,168.35963,58,127,0
168.3621,168.47868,50,127,0
168.48116,168.59773,58,127,0
168.6002,168.71677,54,127,0
168.71925,168.83582,58,127,0
168.8383,168.95486,66,127,0
168.95735,169.07391,58,127,0
169.0764,169.19296,54,127,0
169.19545,169.31201,58,127,0
169.3145,169.43106,55,127,0
169.43353,169.55011,58,127,0
169.55258,169.66916,67,127,0
169.67163,169.78821,58,127,0
169.79068,169.90724,55,127,0
169.90973,170.02629,58,127,0
170.02878,170.14534,53,127,0
170.14783,170.26439,60,127,0
170.26688,170.38344,65,127,0
170.38593,170.50249,60,127,0
170.50496,170.62154,53,127,0
170.62401,170.74059,60,127,0
170.74306,170.85963,53,127,0
170.8621,170.97868,59,127,0
170.98116,171.09772,65,127,0
171.1002,171.21677,59,127,0
171.21925,171.33582,53,127,0
171.3383,171.45486,59,127,0
171.45735,171.69543,75,127,0
171.45735,171.69543,87,127,0
171.69543,171.93353,73,127,0
171.69543,171.93353,85,127,0
171.93353,172.17163,71,127,0
171.93353,172.17163,83,127,0
172.17163,172.40973,70,127,0
172.17163,172.40973,82,127,0
172.40973,172.64783,71,127,0
172.40973,172.64783,83,127,0
172.64783,172.88591,73,127,0
172.64783,172.88591,85,127,0
172.88591,173.3621,75,127,0
172.88591,173.3621,87,127,0
173.3621,173.6002,75,127,0
173.3621,173.6002,87,127,0
173.6002,174.07639,80,127,0
173.6002,174.07639,92,127,0
174.07639,174.27481,75,127,0
174.07639,174.27481,87,127,0
174.31448,175.02878,75,127,0
174.31448,175.02878,87,127,0
175.02878,175.74306,74,127,0
175.02878,175.74306,86,127,0
175.74306,176.45734,72,127,0
175.74306,176.45734,84,127,0
176.45734,177.1121,71,127,0
176.45734,177.1121,83,127,0
177.17163,177.40973,75,127,0
177.17163,177.40973,87,127,0
177.40973,177.64781,73,127,0
177.40973,177.64781,85,127,0
177.64781,177.88591,71,127,0
177.64781,177.88591,83,127,0
177.88591,178.12401,70,127,0
177.88591,178.12401,82,127,0
178.12401,178.3621,71,127,0
178.12401,178.3621,83,127,0
178.3621,178.60019,73,127,0
178.3621,178.60019,85,127,0
178.60019,179.01686,75,127,0
178.60019,179.01686,87,127,0
179.07639,179.31448,75,127,0
179.07639,179.31448,87,127,0
179.31448,179.79066,81,127,0
179.31448,179.79066,93,127,0
179.79066,179.98909,75,127,0
179.79066,179.98909,87,127,0
180.02876,180.73088,75,127,0
180.02876,180.73088,87,127,0
180.73088,181.42319,74,127,0
180.73088,181.42319,86,127,0
181.42319,182.1155,72,127,0
181.42319,182.1155,84,127,0
182.1155,182.7501,71,127,0
182.1155,182.7501,83,127,0
182.8078,183.44241,72,127,0
182.8078,183.44241,84,127,0
183.5001,184.13472,71,127,0
183.5001,184.13472,83,127,0
184.3078,184.42078,67,127,0
184.42317,184.53616,60,127,0
184.53856,184.65154,67,127,0
184.65395,184.76692,72,127,0
184.76933,184.88231,67,127,0
185.0001,185.11308,66,127,0
185.11548,185.22847,57,127,0
185.23087,185.34386,66,127,0
185.34625,185.45923,69,127,0
185.46164,185.57462,66,127,0
185.69241,185.80539,66,127,0
185.80779,185.92078,57,127,0
185.92317,186.03616,66,127,0
186.03856,186.15154,69,127,0
186.15395,186.26692,66,127,0
186.38472,186.4977,63,127,0
186.50009,186.61308,56,127,0
186.61548,186.72847,63,127,0
186.73087,186.84384,68,127,0
186.84625,186.95923,63,127,0
187.07703,187.19,92,127,0
187.1924,187.30539,90,127,0
187.30779,187.42078,88,127,0
187.42317,187.53615,87,127,0
187.53856,187.65154,85,127,0
188.34625,188.45923,88,127,0
188.46164,188.57462,90,127,0
188.57703,188.69,92,127,0
188.6924,188.80539,94,127,0
188.80779,188.92078,95,127,0
188.92317,189.03615,97,127,0
189.03856,189.15154,98,127,0
189.15395,189.26692,99,127,0
189.26933,189.38231,100,127,0
189.3847,189.4977,101,127,0
189.50009,189.61308,103,127,0
189.61548,189.72845,104,127,0
189.84625,189.95923,60,127,0
189.96164,190.07462,55,127,0
190.07701,190.19,60,127,0
190.1924,190.30539,67,127,0
190.30779,190.42076,60,127,0
190.53856,190.65154,57,127,0
190.65395,190.76692,54,127,0
190.76932,190.88231,57,127,0
190.8847,190.9977,66,127,0
191.00009,191.11307,57,127,0
191.23087,191.34384,57,127,0
191.34625,191.45923,54,127,0
191.46164,191.57462,57,127,0
191.57701,191.69,66,127,0
191.6924,191.80537,57,127,0
191.92317,192.03615,56,127,0
192.03856,192.15154,51,127,0
192.15395,192.26692,56,127,0
192.26932,192.38231,63,127,0
192.3847,192.4977,56,127,0
192.61548,192.72845,80,127,0
192.73087,192.84384,78,127,0
192.84625,192.95923,76,127,0
192.96162,193.07462,75,127,0
193.07701,193.19,73,127,0
193.8847,193.99768,76,127,0
194.00009,194.11307,78,127,0
194.11548,194.22845,80,127,0
194.23087,194.34384,82,127,0
194.34624,194.45923,83,127,0
194.46162,194.57462,85,127,0
194.57701,194.68999,86,127,0
194.6924,194.80537,87,127,0
194.80779,194.92076,88,127,0
194.92317,195.03615,89,127,0
195.03856,195.15154,91,127,0
195.15393,195.26692,92,127,0
195.3847,195.49768,55,127,0
195.50009,195.61307,58,127,0
195.61548,195.72845,55,127,0
195.73087,195.84384,48,127,0
195.84624,195.95923,55,127,0
196.07701,196.18999,54,127,0
196.1924,196.30537,57,127,0
196.30779,196.42076,55,127,0
196.42317,196.53615,50,127,0
196.53854,196.65154,55,127,0
196.76932,196.8823,54,127,0
196.8847,196.99768,57,127,0
197.00009,197.11307,54,127,0
197.11548,197.22845,51,127,0
197.23085,197.34384,54,127,0
197.46162,197.5746,51,127,0
197.57701,197.68999,56,127,0
197.6924,197.80537,51,127,0
197.80779,197.92076,44,127,0
197.92316,198.03615,51,127,0
198.15393,198.2669,72,127,0
198.26932,198.3823,70,127,0
198.3847,198.49768,68,127,0
198.50009,198.61307,67,127,0
198.61548,198.72845,65,127,0
199.42316,199.53615,68,127,0
199.53854,199.65154,70,127,0
199.65393,199.7669,72,127,0
199.76932,199.8823,74,127,0
199.8847,199.99768,75,127,0
200.00009,200.11307,77,127,0
200.80777,200.92076,86,127,0
200.92316,201.03615,87,127,0
201.03854,201.15152,89,127,0
201.15393,201.2669,91,127,0
201.26932,201.3823,92,127,0
201.3847,201.49768,94,127,0
201.50008,201.61307,96,127,0
202.30777,202.42076,75,127,0
202.42316,202.53613,77,127,0
202.53854,202.65152,79,127,0
202.65393,202.7669,80,127,0
202.76932,202.8823,82,127,0
202.8847,202.99768,84,127,0
203.69238,203.80537,63,127,0
203.80777,203.92076,65,127,0
203.92316,204.03613,67,127,0
204.03854,204.15152,68,127,0
204.15393,204.2669,70,127,0
204.26932,204.3823,72,127,0
205.077,205.18999,51,127,0
205.19238,205.30537,53,127,0
205.30777,205.42075,55,127,0
205.42316,205.53613,56,127,0
205.53854,205.65152,58,127,0
205.65393,205.7669,60,127,0
206.46162,206.5746,39,127,0
206.577,206.68999,41,127,0
206.69238,206.80537,43,127,0
206.80777,206.92075,44,127,0
206.92316,207.03613,46,127,0
207.03854,207.15152,48,127,0
207.15393,207.2669,50,127,0
207.2693,207.3823,51,127,0
207.38469,207.49768,55,127,0
207.50008,207.61305,60,127,0
207.61546,207.72844,63,127,0
207.73085,207.84383,62,127,0
207.84624,207.95921,60,127,0
207.96161,208.0746,63,127,0
208.077,208.18999,67,127,0
208.19238,208.30536,72,127,0
208.30777,208.42075,75,127,0
208.42316,208.53613,74,127,0
208.53854,208.65152,72,127,0
208.65392,208.7669,75,127,0
208.7693,208.8823,79,127,0
208.88469,208.99767,84,127,0
209.00008,209.11305,87,127,0
209.11546,209.24779,86,127,0
209.2506,209.38292,84,127,0
209.38573,209.51805,87,127,0
209.52086,209.65318,91,127,0
209.656,209.78831,96,127,0
209.79114,209.92346,99,127,0
209.92627,210.0586,91,127,0
209.92627,210.0586,96,127,0
209.92627,210.0586,103,127,0
211.5479,211.6802,72,127,0
211.5479,211.6802,75,127,0
211.5479,211.6802,79,127,0
211.5479,211.6802,84,127,0
0.0,0.11656734,51,127,0
0.1190475,0.23561485,55,127,0
0.238095,0.35466233,51,127,0
0.3571425,0.47370985,55,127,0
0.47619,0.59275734,63,127,0
0.5952375,0.71180487,55,127,0
0.714285,0.8308523,51,127,0
0.8333325,0.94989985,55,127,0
0.95238,1.0689473,51,127,0
1.0714275,1.1879948,55,127,0
1.190475,1.3070424,63,127,0
1.3095225,1.4260899,55,127,0
1.42857,1.5451373,51,127,0
1.5476176,1.6641848,55,127,0
1.666665,1.7832323,51,127,0
1.7857125,1.9022799,55,127,0
1.90476,2.0213273,63,127,0
2.0238075,2.140375,55,127,0
2.142855,2.2594223,51,127,0
2.2619026,2.37847,55,127,0
2.38095,2.4975173,51,127,0
2.4999976,2.6165648,55,127,0
2.619045,2.7356124,63,127,0
2.7380924,2.8546598,55,127,0
2.85714,2.9737074,51,127,0
2.9761875,3.0927548,55,127,0
3.095235,3.2118022,51,127,0
3.2142825,3.33085,55,127,0
3.33333,3.4498973,63,127,0
3.4523776,3.568945,55,127,0
3.571425,3.6879923,51,127,0
3.6904726,3.8070397,55,127,0
3.80952,3.9260874,51,127,0
3.9285674,4.045135,55,127,0
4.047615,4.164182,63,127,0
4.1666627,4.28323,55,127,0
4.28571,4.4022775,51,127,0
4.4047575,4.5213246,55,127,0
4.523805,4.6403723,51,127,0
4.6428523,4.75942,55,127,0
4.7619,4.8784676,63,127,0
4.8809476,4.9975147,55,127,0
4.999995,5.1165624,51,127,0
5.1190424,5.23561,55,127,0
5.23809,5.354657,51,127,0
5.3571377,5.473705,55,127,0
5.476185,5.5927525,63,127,0
5.5952325,5.7117996,55,127,0
5.71428,5.8308473,51,127,0
5.8333273,5.949895,55,127,0
5.952375,6.0689425,51,127,0
6.0714226,6.1879897,55,127,0
6.19047,6.3070374,63,127,0
6.3095174,6.426085,55,127,0
6.428565,6.545132,51,127,0
6.5476127,6.66418,55,127,0
6.66666,6.7832274,51,127,0
6.7857075,6.9022746,55,127,0
6.904755,7.0213223,63,127,0
7.0238023,7.14037,55,127,0
7.14285,7.2594175,51,127,0
7.2618976,7.3784647,55,127,0
7.380945,7.4975123,51,127,0
7.4999924,7.61656,55,127,0
7.61904,7.735607,63,127,0
7.7380877,7.854655,55,127,0
7.857135,7.9737024,51,127,0
7.9761825,8.09275,55,127,0
8.09523,8.211798,51,127,0
8.214277,8.330845,55,127,0
8.333325,8.449892,63,127,0
8.452373,8.56894,55,127,0
8.57142,8.687987,51,127,0
8.690468,8.8070345,55,127,0
8.809515,8.926083,51,127,0
8.928562,9.04513,55,127,0
9.04761,9.164177,63,127,0
9.166657,9.283225,55,127,0
9.285705,9.402272,51,127,0
9.404753,9.521319,55,127,0
9.5238,9.6403675,51,127,0
9.642847,9.759415,55,127,0
9.761895,9.878463,63,127,0
9.880942,9.99751,55,127,0
9.99999,10.116557,51,127,0
10.119038,10.235605,55,127,0
10.238085,10.354652,51,127,0
10.357133,10.4737,55,127,0
10.47618,10.592748,63,127,0
10.595227,10.711795,55,127,0
10.714275,10.830842,51,127,0
10.833323,10.94989,55,127,0
10.95237,11.068937,51,127,0
11.071418,11.187984,55,127,0
11.190465,11.307033,63,127,0
11.309512,11.42608,55,127,0
11.42856,11.545127,51,127,0
11.547607,11.664175,55,127,0
11.666655,11.783222,51,127,0
11.785703,11.90227,55,127,0
11.90475,12.0213175,63,127,0
12.023797,12.140365,55,127,0
12.142845,12.259413,51,127,0
12.261892,12.37846,55,127,0
12.38094,12.497507,51,127,0
12.499988,12.616555,55,127,0
12.619035,12.735602,63,127,0
12.738083,12.85465,55,127,0
12.85713,12.973698,51,127,0
12.976177,13.092745,55,127,0
13.095225,13.211792,51,127,0
13.2142725,13.33084,56,127,0
13.33332,13.449887,51,127,0
13.452368,13.568934,57,127,0
13.571415,13.687983,51,127,0
13.690462,13.80703,55,127,0
13.80951,13.926077,51,127,0
13.928557,14.045125,55,127,0
14.047605,14.164172,63,127,0
14.166653,14.28322,55,127,0
14.2857,14.402267,51,127,0
14.404748,14.521315,55,127,0
14.523795,14.640363,51,127,0
14.642842,14.75941,56,127,0
14.76189,14.878457,51,127,0
14.880938,14.997505,57,127,0
14.999985,15.11812,51,127,0
15.120682,15.243069,55,127,0
15.245717,15.372674,51,127,0
15.375416,15.507347,55,127,0
15.510214,15.647472,63,127,0
15.650448,15.79348,55,127,0
15.796574,15.913141,52,127,0
15.915622,16.032188,55,127,0
16.03467,16.151236,52,127,0
16.153717,16.270285,55,127,0
16.272764,16.389332,64,127,0
16.391811,16.508379,55,127,0
16.510859,16.627426,53,127,0
16.629906,16.746473,58,127,0
16.748955,16.86552,53,127,0
16.868002,16.98457,58,127,0
16.98705,17.103617,65,127,0
17.106096,17.222664,58,127,0
17.225143,17.341711,54,127,0
17.34419,17.460758,58,127,0
17.46324,17.579807,54,127,0
17.582287,17.698854,58,127,0
17.701334,17.817902,66,127,0
17.820381,17.936949,58,127,0
17.939428,18.055996,54,127,0
18.058477,18.175043,58,127,0
18.177525,18.294092,54,127,0
18.296572,18.41314,58,127,0
18.415619,18.532187,66,127,0
18.534666,18.651234,58,127,0
18.653713,18.77028,54,127,0
18.772762,18.889328,58,127,0
18.89181,19.008377,54,127,0
19.010857,19.127424,58,127,0
19.129904,19.246471,66,127,0
19.248951,19.365519,58,127,0
19.367998,19.484566,54,127,0
19.487047,19.603615,58,127,0
19.606094,19.722662,54,127,0
19.725142,19.84171,58,127,0
19.844189,19.960756,66,127,0
19.963236,20.079803,58,127,0
20.082285,20.19885,43,127,0
20.201332,20.3179,46,127,0
20.32038,20.436947,43,127,0
20.439426,20.555994,46,127,0
20.558474,20.675041,55,127,0
20.67752,20.794088,46,127,0
20.79657,20.913136,43,127,0
20.915617,21.032185,46,127,0
21.034664,21.151232,43,127,0
21.153711,21.270279,46,127,0
21.272758,21.389326,55,127,0
21.391806,21.508373,46,127,0
21.510855,21.627422,43,127,0
21.629902,21.74647,47,127,0
21.74895,21.865517,43,127,0
21.867996,21.984564,47,127,0
21.987043,22.103611,55,127,0
22.106092,22.222658,47,127,0
22.22514,22.343273,43,127,0
22.345835,22.468224,47,127,0
22.470871,22.597828,43,127,0
22.600569,22.732502,47,127,0
22.735369,22.872625,55,127,0
22.875603,23.018635,47,127,0
23.021729,23.138296,51,127,0
23.140776,23.257343,55,127,0
23.259823,23.37639,51,127,0
23.37887,23.495438,55,127,0
23.497917,23.614485,63,127,0
23.616966,23.733534,55,127,0
23.736013,23.852581,51,127,0
23.85506,23.971628,55,127,0
23.974108,24.090675,51,127,0
24.093155,24.209723,55,127,0
24.212204,24.32877,63,127,0
24.331251,24.447819,55,127,0
24.450298,24.566866,51,127,0
24.569345,24.685913,55,127,0
24.688393,24.80496,51,127,0
24.80744,24.924007,55,127,0
24.926489,25.043055,63,127,0
25.045536,25.162104,55,127,0
25.164583,25.28115,51,127,0
25.28363,25.400198,55,127,0
25.402678,25.519245,51,127,0
25.521725,25.638292,55,127,0
25.640774,25.757341,63,127,0
25.75982,25.876389,55,127,0
25.878868,25.995436,51,127,0
25.997915,26.114483,55,127,0
26.116962,26.23353,51,127,0
26.236012,26.352577,55,127,0
26.355059,26.471626,63,127,0
26.474106,26.590673,55,127,0
26.593153,26.70972,51,127,0
26.7122,26.828768,55,127,0
26.831247,26.947815,51,127,0
26.950296,27.066862,55,127,0
27.069344,27.185911,63,127,0
27.18839,27.304958,55,127,0
27.307438,27.424006,51,127,0
27.426485,27.543053,55,127,0
27.545532,27.6621,51,127,0
27.664581,27.781147,55,127,0
27.783628,27.900196,63,127,0
27.902676,28.019243,55,127,0
28.021723,28.13829,51,127,0
28.14077,28.257338,55,127,0
28.259819,28.376385,51,127,0
28.378866,28.495434,55,127,0
28.497913,28.614481,63,127,0
28.61696,28.733528,55,127,0
28.736008,28.852575,51,127,0
28.855055,28.971622,55,127,0
28.974104,29.09067,51,127,0
29.093151,29.209719,56,127,0
29.212198,29.328766,51,127,0
29.331245,29.447813,57,127,0
29.450293,29.56686,51,127,0
29.56934,29.685907,55,127,0
29.688389,29.804955,51,127,0
29.807436,29.924004,55,127,0
29.926483,30.04305,63,127,0
30.04553,30.162098,55,127,0
30.164577,30.281145,51,127,0
30.283625,30.400192,55,127,0
30.402674,30.519241,51,127,0
30.52172,30.638288,56,127,0
30.640768,30.757336,51,127,0
30.759815,30.876383,57,127,0
30.878862,30.99543,51,127,0
30.997911,31.114477,55,127,0
31.116959,31.233526,51,127,0
31.236006,31.352573,55,127,0
31.355053,31.47162,63,127,0
31.4741,31.590668,55,127,0
31.593147,31.709715,52,127,0
31.712196,31.828762,55,127,0
31.831244,31.947811,52,127,0
31.95029,32.066856,55,127,0
32.06934,32.185905,64,127,0
32.188385,32.304955,55,127,0
32.307434,32.424,53,127,0
32.42648,32.54305,58,127,0
32.54553,32.662094,53,127,0
32.664577,32.781143,58,127,0
32.783623,32.900192,65,127,0
32.90267,33.019238,58,127,0
33.021717,33.138287,54,127,0
33.140766,33.25733,60,127,0
33.25981,33.37638,54,127,0
33.37886,33.495426,60,127,0
33.49791,33.614475,66,127,0
33.616955,33.733524,60,127,0
33.736004,33.85257,54,127,0
33.85505,33.97162,60,127,0
33.9741,34.090664,54,127,0
34.093147,34.209713,60,127,0
34.212193,34.328762,66,127,0
34.33124,34.447807,60,127,0
34.450287,34.566856,53,127,0
34.569336,34.6859,59,127,0
34.68838,34.80495,53,127,0
34.80743,34.924,59,127,0
34.92648,35.043045,65,127,0
35.045525,35.162094,59,127,0
35.164574,35.281918,53,127,0
35.284435,35.40384,59,127,0
35.4064,35.52794,53,127,0
35.53054,35.654312,59,127,0
35.65697,35.783035,65,127,0
35.785744,35.91419,59,127,0
35.916943,36.03351,30,127,0
35.916943,36.03351,42,127,0
36.274082,36.39065,49,127,0
36.631226,36.747795,34,127,0
36.631226,36.747795,46,127,0
36.98837,37.104935,56,127,0
37.345512,37.46208,37,127,0
37.345512,37.46208,49,127,0
37.702656,37.81922,51,127,0
38.059795,38.176365,34,127,0
38.059795,38.176365,46,127,0
38.41694,38.533504,51,127,0
38.774082,38.890648,31,127,0
38.774082,38.890648,43,127,0
39.131226,39.24779,50,127,0
39.488365,39.604935,33,127,0
39.488365,39.604935,45,127,0
39.84551,39.96208,52,127,0
40.202652,40.319218,26,127,0
40.202652,40.319218,38,127,0
40.559795,40.67636,45,127,0
40.916935,41.033504,26,127,0
40.916935,41.033504,38,127,0
41.27408,41.390648,45,127,0
41.63122,41.747787,26,127,0
41.75027,41.866837,38,127,0
41.869316,41.985886,33,127,0
41.988365,42.10493,38,127,0
42.10741,42.22398,33,127,0
42.22646,42.343025,38,127,0
42.345505,42.462074,26,127,0
42.464554,42.58112,38,127,0
42.583603,42.70017,33,127,0
42.70265,42.819218,38,127,0
42.821697,42.938263,33,127,0
42.940742,43.057312,38,127,0
43.05979,43.176357,26,127,0
43.17884,43.295406,38,127,0
43.297886,43.414455,33,127,0
43.416935,43.5335,38,127,0
43.53598,43.65255,33,127,0
43.65503,43.771595,38,127,0
43.77408,43.890644,26,127,0
43.893124,44.009693,38,127,0
44.012173,44.12874,33,127,0
44.131218,44.247787,38,127,0
44.250267,44.366833,33,127,0
44.369312,44.48588,38,127,0
44.48836,44.604927,26,127,0
44.60741,44.723976,38,127,0
44.726456,44.843025,33,127,0
44.845505,44.96207,38,127,0
44.96455,45.08112,33,127,0
45.0836,45.200165,38,127,0
45.20265,45.319214,26,127,0
45.321693,45.438263,38,127,0
45.440742,45.55731,33,127,0
45.559788,45.676357,38,127,0
45.678837,45.795403,33,127,0
45.797886,45.91445,38,127,0
45.91693,46.0335,26,127,0
46.03598,46.152546,38,127,0
46.155025,46.271595,33,127,0
46.274075,46.39064,38,127,0
46.39312,46.50969,33,127,0
46.51217,46.628735,38,127,0
46.631218,46.747784,26,127,0
46.750263,46.866833,38,127,0
46.869312,46.985878,33,127,0
46.988358,47.104927,38,127,0
47.107407,47.223972,33,127,0
47.226456,47.34302,38,127,0
47.3455,47.46207,26,127,0
47.46455,47.581116,38,127,0
47.583595,47.700165,33,127,0
47.702644,47.81921,38,127,0
47.821693,47.93826,33,127,0
47.94074,48.05731,38,127,0
48.059788,48.176353,30,127,0
48.059788,48.176353,42,127,0
48.416927,48.533497,49,127,0
48.77407,48.89064,38,127,0
48.77407,48.89064,50,127,0
49.131214,49.24778,56,127,0
49.488358,49.604923,37,127,0
49.488358,49.604923,49,127,0
49.845497,49.962067,51,127,0
50.20264,50.31921,34,127,0
50.20264,50.31921,46,127,0
50.559784,50.67635,51,127,0
50.916927,51.033493,31,127,0
50.916927,51.033493,43,127,0
51.27407,51.390636,50,127,0
51.63121,51.74778,33,127,0
51.63121,51.74778,45,127,0
51.988354,52.104923,52,127,0
52.345497,52.462063,26,127,0
52.345497,52.462063,38,127,0
52.70264,52.819206,45,127,0
53.05978,53.17635,26,127,0
53.05978,53.17635,38,127,0
53.416924,53.533493,45,127,0
53.774067,53.890633,26,127,0
53.893112,54.00968,38,127,0
54.01216,54.12873,33,127,0
54.13121,54.247776,38,127,0
54.250256,54.366825,33,127,0
54.369305,54.48587,38,127,0
54.48835,54.60492,26,127,0
54.6074,54.723965,38,127,0
54.726448,54.843014,33,127,0
54.845493,54.962063,38,127,0
54.964542,55.08111,33,127,0
55.083588,55.200157,38,127,0
55.202637,55.319202,26,127,0
55.321686,55.43825,38,127,0
55.44073,55.5573,33,127,0
55.55978,55.676346,38,127,0
55.678825,55.795395,33,127,0
55.797874,55.91444,38,127,0
55.91692,56.03349,26,127,0
56.03597,56.152534,38,127,0
56.155018,56.271584,33,127,0
56.274063,56.390633,38,127,0
56.393112,56.509678,33,127,0
56.512157,56.628727,38,127,0
56.631207,56.747772,26,127,0
56.750256,56.86682,38,127,0
56.8693,56.98587,33,127,0
56.98835,57.104916,38,127,0
57.107395,57.223965,33,127,0
57.226444,57.34301,38,127,0
57.345493,57.46206,26,127,0
57.46454,57.58111,38,127,0
57.583588,57.700153,33,127,0
57.702633,57.819202,38,127,0
57.821682,57.938248,33,127,0
57.940727,58.057297,38,127,0
58.059776,58.176342,26,127,0
58.178825,58.29539,38,127,0
58.29787,58.41444,33,127,0
58.41692,58.533485,38,127,0
58.535965,58.652534,33,127,0
58.655014,58.77158,38,127,0
58.774063,58.89063,26,127,0
58.89311,59.009678,38,127,0
59.012157,59.128723,33,127,0
59.131203,59.247772,38,127,0
59.25025,59.366817,33,127,0
59.3693,59.485867,38,127,0
59.488346,59.604916,38,127,0
59.607395,59.72396,42,127,0
59.72644,59.84301,38,127,0
59.84549,59.962055,42,127,0
59.964535,60.081104,54,127,0
60.083584,60.20015,42,127,0
60.202633,60.3192,38,127,0
60.32168,60.438248,42,127,0
60.440727,60.557293,38,127,0
60.559772,60.676342,42,127,0
60.67882,60.795387,54,127,0
60.79787,60.914436,42,127,0
60.916916,61.033485,38,127,0
61.035965,61.15253,42,127,0
61.15501,61.27158,38,127,0
61.27406,61.390625,42,127,0
61.39311,61.509674,54,127,0
61.512154,61.628723,42,127,0
61.631203,61.74777,38,127,0
61.750248,61.866817,42,127,0
61.869297,61.985863,38,127,0
61.988342,62.10491,42,127,0
62.10739,62.223957,54,127,0
62.22644,62.343006,42,127,0
62.345486,62.462055,38,127,0
62.464535,62.5811,42,127,0
62.58358,62.70015,38,127,0
62.70263,62.819195,42,127,0
62.82168,62.938244,54,127,0
62.940723,63.057293,42,127,0
63.059772,63.17634,38,127,0
63.178818,63.295387,42,127,0
63.297867,63.414433,38,127,0
63.416916,63.53348,42,127,0
63.53596,63.65253,54,127,0
63.65501,63.771576,42,127,0
63.774055,63.890625,38,127,0
63.893105,64.009674,42,127,0
64.01215,64.128716,38,127,0
64.1312,64.247765,42,127,0
64.250244,64.36681,54,127,0
64.36929,64.48586,42,127,0
64.48834,64.60491,38,127,0
64.60739,64.72395,42,127,0
64.72643,64.843,38,127,0
64.84548,64.96205,42,127,0
64.96453,65.0811,54,127,0
65.08358,65.20015,42,127,0
65.20263,65.31919,38,127,0
65.32167,65.43824,42,127,0
65.44072,65.55729,38,127,0
65.55977,65.67634,42,127,0
65.67882,65.79539,54,127,0
65.79787,65.91443,42,127,0
65.91691,66.03348,38,127,0
66.03596,66.15253,42,127,0
66.15501,66.271576,38,127,0
66.274055,66.390625,42,127,0
66.393105,66.50967,54,127,0
66.512146,66.628716,42,127,0
66.631195,66.747765,38,127,0
66.750244,66.86681,42,127,0
66.86929,66.985855,38,127,0
66.98834,67.104904,42,127,0
67.10738,67.22395,54,127,0
67.22643,67.343,42,127,0
67.34548,67.4778,38,127,0
67.48061,67.61294,42,127,0
67.61575,67.74807,38,127,0
67.750885,67.88321,42,127,0
67.886024,68.01834,54,127,0
68.02116,68.15347,42,127,0
68.15629,69.09942,26,127,0
68.15629,69.09942,38,127,0
69.372505,69.41755,26,127,0
69.372505,69.41755,38,127,0
69.77791,70.72104,23,127,0
69.77791,70.72104,35,127,0
70.994125,71.12645,23,127,0
70.994125,71.12645,35,127,0
71.39953,72.34266,26,127,0
71.39953,72.34266,38,127,0
72.615746,72.74807,26,127,0
72.615746,72.74807,38,127,0
73.02115,73.96428,23,127,0
73.02115,73.96428,35,127,0
74.237366,74.36969,23,127,0
74.237366,74.36969,35,127,0
74.64277,77.81844,26,127,0
74.64277,77.81844,38,127,0
77.88601,78.00258,42,127,0
78.00506,78.12163,54,127,0
78.12411,78.24068,42,127,0
78.24316,78.35972,54,127,0
78.3622,78.47877,42,127,0
78.48125,78.59782,54,127,0
78.600296,78.716866,44,127,0
78.719345,78.835915,56,127,0
78.838394,78.954956,44,127,0
78.957436,79.074005,56,127,0
79.076485,79.193054,44,127,0
79.19553,79.3121,56,127,0
79.31458,79.43115,42,127,0
79.43363,79.55019,54,127,0
79.55267,79.66924,42,127,0
79.67172,79.78829,54,127,0
79.79077,79.90734,42,127,0
79.90982,80.02639,54,127,0
80.02887,80.14543,44,127,0
80.14791,80.26448,56,127,0
80.26696,80.38353,44,127,0
80.38601,80.50258,56,127,0
80.50506,80.62162,44,127,0
80.62411,80.74067,56,127,0
80.74315,80.85972,42,127,0
80.8622,80.97877,54,127,0
80.98125,81.09782,42,127,0
81.100296,81.21686,54,127,0
81.219345,81.33591,42,127,0
81.33839,81.454956,54,127,0
81.457436,81.574005,44,127,0
81.576485,81.693054,56,127,0
81.69553,81.812096,44,127,0
81.81458,81.931145,56,127,0
81.933624,82.05019,44,127,0
82.05267,82.16924,56,127,0
82.17172,82.28829,42,127,0
82.29077,82.40733,54,127,0
82.40981,82.52638,42,127,0
82.52886,82.64543,54,127,0
82.64791,82.76448,42,127,0
82.76696,82.88353,54,127,0
82.88601,83.00257,43,127,0
83.00505,83.12162,55,127,0
83.1241,83.24067,43,127,0
83.24315,83.35972,55,127,0
83.3622,83.47877,43,127,0
83.48125,83.59781,55,127,0
83.60029,83.71686,51,127,0
83.71934,83.83591,55,127,0
83.83839,83.954956,51,127,0
83.957436,84.074005,55,127,0
84.076485,84.19305,63,127,0
84.195526,84.312096,55,127,0
84.314575,84.431145,51,127,0
84.433624,84.55019,55,127,0
84.55267,84.669235,51,127,0
84.67172,84.788284,55,127,0
84.790764,84.90733,63,127,0
84.90981,85.02638,55,127,0
85.02886,85.14543,51,127,0
85.14791,85.26447,55,127,0
85.26696,85.38352,51,127,0
85.386,85.50257,55,127,0
85.50505,85.62162,63,127,0
85.6241,85.74067,55,127,0
85.74315,85.85971,51,127,0
85.86219,85.97876,55,127,0
85.98124,86.09781,51,127,0
86.10029,86.21686,55,127,0
86.21934,86.33591,63,127,0
86.33839,86.45495,55,127,0
86.45743,86.574,51,127,0
86.57648,86.69305,55,127,0
86.695526,86.812096,51,127,0
86.814575,86.931145,55,127,0
86.933624,87.050186,63,127,0
87.052666,87.169235,55,127,0
87.171715,87.288284,51,127,0
87.290764,87.40733,55,127,0
87.40981,87.52638,51,127,0
87.52886,87.645424,55,127,0
87.6479,87.76447,63,127,0
87.76695,87.88352,55,127,0
87.886,88.00257,51,127,0
88.00505,88.12162,55,127,0
88.1241,88.24066,51,127,0
88.24314,88.35971,55,127,0
88.36219,88.47876,63,127,0
88.48124,88.59781,55,127,0
88.60029,88.71685,51,127,0
88.71934,88.8359,55,127,0
88.83838,88.95495,51,127,0
88.95743,89.074,55,127,0
89.07648,89.19305,63,127,0
89.195526,89.31209,55,127,0
89.314575,89.43114,51,127,0
89.43362,89.550186,55,127,0
89.552666,89.669235,51,127,0
89.671715,89.788284,56,127,0
89.790764,89.907326,51,127,0
89.909805,90.026375,57,127,0
90.028854,90.145424,51,127,0
90.1479,90.26447,55,127,0
90.26695,90.38352,51,127,0
90.386,90.50256,55,127,0
90.50504,90.62161,63,127,0
90.62409,90.74066,55,127,0
90.74314,90.85971,51,127,0
90.86219,90.97876,55,127,0
90.98124,91.0978,51,127,0
91.10028,91.21685,56,127,0
91.21933,91.3359,51,127,0
91.33838,91.45495,57,127,0
91.45743,91.574,51,127,0
91.57648,91.69304,55,127,0
91.69552,91.81209,51,127,0
91.81457,91.93114,55,127,0
91.93362,92.050186,63,127,0
92.052666,92.16923,55,127,0
92.171715,92.28828,52,127,0
92.29076,92.407326,55,127,0
92.409805,92.526375,52,127,0
92.528854,92.645424,55,127,0
92.6479,92.764465,64,127,0
92.76695,92.883514,55,127,0
92.885994,93.00256,53,127,0
93.00504,93.12161,58,127,0
93.12409,93.24066,53,127,0
93.24314,93.3597,58,127,0
93.36219,93.47875,65,127,0
93.48123,93.5978,58,127,0
93.60028,93.71685,54,127,0
93.71933,93.8359,58,127,0
93.83838,93.95494,54,127,0
93.95742,94.07399,58,127,0
94.07647,94.19304,66,127,0
94.19552,94.31209,58,127,0
94.31457,94.43114,53,127,0
94.43362,94.55018,58,127,0
94.55266,94.66923,53,127,0
94.67171,94.78828,58,127,0
94.79076,94.907326,65,127,0
94.909805,95.026375,58,127,0
95.028854,95.14542,52,127,0
95.147896,95.264465,58,127,0
95.266945,95.383514,52,127,0
95.385994,95.50256,58,127,0
95.50504,95.62161,64,127,0
95.62409,95.740654,58,127,0
95.74313,95.8597,52,127,0
95.86218,95.97875,58,127,0
95.98123,96.0978,52,127,0
96.10028,96.21684,58,127,0
96.21933,96.33589,64,127,0
96.33837,96.45494,58,127,0
96.45742,96.57399,28,127,0
96.45742,96.57399,40,127,0
96.81457,96.93113,52,127,0
97.17171,97.28828,40,127,0
97.17171,97.28828,52,127,0
97.885994,98.002556,28,127,0
97.885994,98.002556,40,127,0
98.24313,98.3597,52,127,0
98.60027,98.71684,40,127,0
98.60027,98.71684,52,127,0
99.31456,99.43113,36,127,0
99.31456,99.43113,48,127,0
99.67171,99.78827,48,127,0
100.02885,100.14542,37,127,0
100.02885,100.14542,49,127,0
100.38599,100.502556,49,127,0
100.74313,100.859695,39,127,0
100.74313,100.859695,51,127,0
101.10027,101.21684,51,127,0
101.45741,101.57398,32,127,0
101.45741,101.57398,44,127,0
101.81456,101.93113,44,127,0
102.1717,102.28827,28,127,0
102.1717,102.28827,40,127,0
102.52885,102.64541,52,127,0
102.88599,103.002556,40,127,0
102.88599,103.002556,52,127,0
103.60027,103.71684,28,127,0
103.60027,103.71684,40,127,0
103.95741,104.07398,52,127,0
104.31456,104.43112,40,127,0
104.31456,104.43112,52,127,0
105.02884,105.14541,36,127,0
105.02884,105.14541,48,127,0
105.38599,105.50255,48,127,0
105.743126,105.859695,37,127,0
105.743126,105.859695,49,127,0
106.100266,106.216835,49,127,0
106.45741,106.57398,39,127,0
106.45741,106.57398,51,127,0
106.81455,106.93112,51,127,0
107.1717,107.28826,32,127,0
107.1717,107.28826,44,127,0
107.52884,107.64541,44,127,0
107.88598,108.00255,28,127,0
107.88598,108.00255,40,127,0
108.243126,108.35969,40,127,0
108.600266,108.716835,28,127,0
108.600266,108.716835,40,127,0
109.31455,109.43112,28,127,0
109.31455,109.43112,40,127,0
109.67169,109.78826,40,127,0
110.02884,110.1454,28,127,0
110.02884,110.1454,40,127,0
110.74312,110.85969,38,127,0
110.74312,110.85969,50,127,0
111.100266,111.216835,50,127,0
111.457405,111.573975,36,127,0
111.457405,111.573975,48,127,0
111.81455,111.931114,48,127,0
112.17169,112.28826,31,127,0
112.17169,112.28826,43,127,0
112.52883,112.6454,43,127,0
112.88598,113.00254,32,127,0
112.88598,113.00254,46,127,0
113.24312,113.35969,45,127,0
113.60026,113.71683,28,127,0
113.60026,113.71683,40,127,0
113.957405,114.073975,40,127,0
114.314545,114.431114,28,127,0
114.314545,114.431114,40,127,0
115.02883,115.1454,55,127,0
115.02883,115.1454,67,127,0
115.74312,115.85968,50,127,0
115.74312,115.85968,62,127,0
116.457405,116.57397,28,127,0
116.457405,116.57397,40,127,0
116.814545,116.931114,40,127,0
117.171684,117.28825,28,127,0
117.171684,117.28825,40,127,0
117.88597,118.00254,28,127,0
117.88597,118.00254,40,127,0
118.24311,118.35968,40,127,0
118.60026,118.71683,28,127,0
118.60026,118.71683,40,127,0
119.314545,119.43111,38,127,0
119.314545,119.43111,50,127,0
119.671684,119.78825,50,127,0
120.028824,120.14539,36,127,0
120.028824,120.14539,48,127,0
120.38597,120.50253,48,127,0
120.74311,120.85968,31,127,0
120.74311,120.85968,43,127,0
121.10025,121.21682,43,127,0
121.4574,121.57397,33,127,0
121.4574,121.57397,45,127,0
121.81454,121.93111,45,127,0
122.171684,122.288246,28,127,0
122.171684,122.288246,40,127,0
122.528824,122.64539,40,127,0
122.88596,123.00253,28,127,0
122.88596,123.00253,40,127,0
123.60025,123.71682,55,127,0
123.60025,123.71682,67,127,0
124.31454,124.43111,50,127,0
124.31454,124.43111,62,127,0
125.028824,125.145386,41,127,0
125.147865,125.264435,45,127,0
125.266914,125.383484,41,127,0
125.38596,125.50253,45,127,0
125.50501,125.62158,57,127,0
125.62406,125.74062,45,127,0
125.7431,125.85967,41,127,0
125.86215,125.97872,45,127,0
125.9812,126.09777,41,127,0
126.10025,126.21682,45,127,0
126.2193,126.33586,57,127,0
126.33834,126.45491,45,127,0
126.45739,126.57396,41,127,0
126.57644,126.69301,45,127,0
126.69549,126.81206,41,127,0
126.81454,126.9311,45,127,0
126.93358,127.05015,57,127,0
127.05263,127.1692,45,127,0
127.17168,127.288246,41,127,0
127.290726,127.40729,45,127,0
127.409775,127.52634,41,127,0
127.88596,128.00253,28,127,0
127.88596,128.00253,40,127,0
128.2431,128.35966,40,127,0
128.60025,128.71681,28,127,0
128.60025,128.71681,40,127,0
129.31453,129.43109,28,127,0
129.31453,129.43109,40,127,0
130.02882,130.14539,50,127,0
130.02882,130.14539,62,127,0
130.7431,130.85966,41,127,0
130.86215,130.97871,45,127,0
130.9812,131.09776,41,127,0
131.10025,131.21681,45,127,0
131.21928,131.33586,57,127,0
131.33833,131.45491,45,127,0
131.45738,131.57396,41,127,0
131.57643,131.69301,45,127,0
131.69548,131.81204,41,127,0
131.81453,131.93109,45,127,0
131.93358,132.05014,57,127,0
132.05263,132.16919,45,127,0
132.17168,132.28824,41,127,0
132.29073,132.40729,45,127,0
132.40976,132.52634,41,127,0
132.52881,132.64539,45,127,0
132.64786,132.76443,57,127,0
132.7669,132.88348,45,127,0
132.88596,133.00252,41,127,0
133.005,133.12157,45,127,0
133.12405,133.24062,41,127,0
133.60023,133.71681,38,127,0
133.71928,133.83586,45,127,0
133.83833,133.95491,38,127,0
134.31453,134.43109,38,127,0
134.43358,134.55014,45,127,0
134.55263,134.66919,38,127,0
135.02881,135.14539,38,127,0
135.14786,135.26442,45,127,0
135.2669,135.38347,38,127,0
135.7431,135.85966,38,127,0
135.86214,135.97871,45,127,0
135.98119,136.09776,38,127,0
136.45738,136.57394,28,127,0
136.45738,136.57394,40,127,0
136.81453,136.93109,40,127,0
137.17166,137.28824,28,127,0
137.17166,137.28824,40,127,0
137.88596,138.00252,28,127,0
137.88596,138.00252,40,127,0
138.24309,138.35966,40,127,0
138.60023,138.7168,28,127,0
138.60023,138.7168,40,127,0
139.31451,139.43109,28,127,0
139.31451,139.43109,40,127,0
139.67166,139.78824,40,127,0
140.02881,140.14537,28,127,0
140.02881,140.14537,40,127,0
140.74309,140.85966,55,127,0
140.74309,140.85966,67,127,0
141.45738,141.57394,47,127,0
141.45738,141.57394,59,127,0
142.17166,142.28822,45,127,0
142.52881,142.64537,40,127,0
142.88594,143.00252,41,127,0
143.24309,143.35965,29,127,0
143.24309,143.35965,41,127,0
143.60023,143.7168,45,127,0
143.95737,144.07394,40,127,0
144.31451,144.43109,41,127,0
144.67166,144.78822,29,127,0
144.67166,144.78822,41,127,0
145.02881,145.14537,45,127,0
145.38594,145.50252,40,127,0
145.74309,145.85965,41,127,0
146.10023,146.2168,29,127,0
146.10023,146.2168,41,127,0
146.45737,146.57394,45,127,0
146.81451,146.93108,40,127,0
147.17166,147.28822,41,127,0
147.5288,147.64537,29,127,0
147.5288,147.64537,41,127,0
147.88594,148.0025,45,127,0
148.24309,148.35965,40,127,0
148.60022,148.7168,41,127,0
148.95737,149.07393,29,127,0
148.95737,149.07393,41,127,0
149.31451,149.43108,36,127,0
149.67166,149.78822,38,127,0
150.0288,150.14537,45,127,0
150.38594,150.5025,33,127,0
150.38594,150.5025,45,127,0
150.74309,150.85965,36,127,0
151.10022,151.2168,38,127,0
151.45737,151.57393,45,127,0
151.81451,151.93108,33,127,0
151.81451,151.93108,45,127,0
152.17165,152.28822,46,127,0
152.5288,152.64536,34,127,0
152.5288,152.64536,46,127,0
152.88594,153.0025,35,127,0
152.88594,153.0025,47,127,0
153.60022,153.71678,66,127,0
154.19547,154.43108,54,127,0
154.21034,154.43108,58,127,0
154.22522,154.43108,63,127,0
154.2401,154.43108,66,127,0
154.90974,155.14536,42,127,0
154.92958,155.14536,51,127,0
154.94943,155.14536,54,127,0
155.74307,155.85965,35,127,0
155.74307,155.85965,42,127,0
155.74307,155.85965,47,127,0
156.45737,156.57393,66,127,0
157.02284,157.28821,59,127,0
157.0526,157.28821,63,127,0
157.73712,158.0025,43,127,0
157.76689,158.0025,51,127,0
157.79665,158.0025,55,127,0
158.60022,158.71678,36,127,0
158.60022,158.71678,43,127,0
158.95735,159.07393,43,127,0
159.3145,159.43108,48,127,0
159.3145,159.43108,55,127,0
159.67165,159.78821,43,127,0
160.0288,160.14536,36,127,0
160.0288,160.14536,43,127,0
161.10022,161.21678,43,127,0
161.45735,161.57393,36,127,0
161.45735,161.57393,43,127,0
161.8145,161.93106,43,127,0
162.17165,162.28821,48,127,0
162.17165,162.28821,55,127,0
162.52878,162.64536,43,127,0
162.88593,163.00249,36,127,0
162.88593,163.00249,43,127,0
163.95735,164.07393,36,127,0
164.3145,164.43106,29,127,0
164.3145,164.43106,41,127,0
165.02878,165.14536,36,127,0
165.02878,165.14536,48,127,0
165.74307,165.85963,29,127,0
165.74307,165.85963,41,127,0
166.45735,166.57391,36,127,0
166.45735,166.57391,48,127,0
167.17163,167.28821,37,127,0
167.17163,167.28821,49,127,0
167.88593,168.00249,29,127,0
167.88593,168.00249,41,127,0
169.3145,169.43106,29,127,0
169.3145,169.43106,41,127,0
170.02878,170.14534,32,127,0
170.02878,170.14534,44,127,0
170.74306,170.85963,31,127,0
170.74306,170.85963,43,127,0
171.45735,171.57391,47,127,0
156.99307,171.69296,54,127,0
171.5764,171.69296,54,127,0
171.69543,171.81201,59,127,0
171.81448,171.93106,54,127,0
171.93353,172.05011,59,127,0
172.05258,172.16916,63,127,0
172.17163,172.2882,51,127,0
172.29068,172.40724,55,127,0
172.40973,172.52629,61,127,0
172.52878,172.64534,55,127,0
172.64783,172.76439,61,127,0
172.76688,172.88344,67,127,0
172.88591,173.00249,44,127,0
173.00496,173.12154,54,127,0
173.12401,173.24059,60,127,0
173.24306,173.35962,54,127,0
173.3621,173.47867,60,127,0
157.08237,173.59772,66,127,0
173.48116,173.59772,66,127,0
173.6002,173.71677,51,127,0
173.71925,173.83582,54,127,0
173.8383,173.95486,60,127,0
173.95734,174.07391,54,127,0
174.07639,174.19296,60,127,0
174.19543,174.31201,66,127,0
174.31448,174.43106,48,127,0
174.43353,174.5501,55,127,0
174.55258,174.66914,60,127,0
174.67163,174.7882,55,127,0
174.79068,174.90724,60,127,0
174.90973,175.02629,67,127,0
175.02878,175.14534,50,127,0
175.14781,175.26439,54,127,0
175.26686,175.38344,60,127,0
175.38591,175.50249,55,127,0
175.50496,175.62154,60,127,0
175.62401,175.74057,66,127,0
175.74306,175.85962,43,127,0
175.8621,175.97867,51,127,0
175.98116,176.09772,55,127,0
176.1002,176.21677,51,127,0
176.21925,176.33582,55,127,0
176.33829,176.45486,60,127,0
176.45734,176.57391,39,127,0
176.57639,176.69296,51,127,0
176.69543,176.812,56,127,0
176.81448,176.93105,51,127,0
176.93353,177.0501,56,127,0
177.05258,177.16914,59,127,0
177.05258,177.16914,63,127,0
177.17163,177.2882,47,127,0
177.29068,177.40724,54,127,0
177.40973,177.52629,59,127,0
177.52876,177.64534,54,127,0
177.64781,177.76439,59,127,0
177.76686,177.88344,63,127,0
177.88591,178.00247,51,127,0
178.00496,178.12152,55,127,0
178.12401,178.24057,61,127,0
178.24306,178.35962,55,127,0
178.3621,178.47867,61,127,0
178.48116,178.59772,63,127,0
178.60019,178.71677,44,127,0
178.71924,178.83582,54,127,0
178.83829,178.95486,60,127,0
178.95734,179.07391,54,127,0
179.07639,179.19295,60,127,0
179.19543,179.312,66,127,0
179.31448,179.43105,51,127,0
179.43353,179.5501,54,127,0
179.55258,179.66914,60,127,0
179.67163,179.7882,54,127,0
179.79066,179.90724,60,127,0
179.90971,180.02629,66,127,0
180.02876,180.14896,48,127,0
180.15146,180.26692,55,127,0
180.26933,180.38231,60,127,0
180.38472,180.4977,55,127,0
180.5001,180.61308,60,127,0
180.6155,180.72847,67,127,0
180.73088,180.84386,50,127,0
180.84625,180.95924,54,127,0
180.96164,181.07462,60,127,0
181.07703,181.19,55,127,0
181.19241,181.30539,60,127,0
181.3078,181.42078,67,127,0
181.42319,181.53616,43,127,0
181.53856,181.65155,51,127,0
181.65395,181.76694,55,127,0
181.76933,181.88231,51,127,0
181.88472,181.9977,55,127,0
182.0001,182.11308,60,127,0
182.1155,182.22847,41,127,0
182.23087,182.34386,51,127,0
182.34625,182.45924,56,127,0
182.46164,182.57462,51,127,0
182.57703,182.69,56,127,0
182.69241,182.80539,59,127,0
182.8078,182.92078,48,127,0
182.92317,183.03616,51,127,0
183.03856,183.15155,55,127,0
183.15395,183.26692,51,127,0
183.26933,183.38231,55,127,0
183.38472,183.4977,60,127,0
183.5001,183.61308,41,127,0
183.61548,183.72847,51,127,0
183.73087,183.84386,56,127,0
183.84625,183.95923,51,127,0
183.96164,184.07462,56,127,0
184.07703,184.19,59,127,0
184.19241,184.82703,36,127,0
184.19241,184.82703,48,127,0
184.88472,185.51933,38,127,0
184.88472,185.51933,50,127,0
185.57703,186.21164,39,127,0
185.57703,186.21164,51,127,0
186.26933,186.84384,32,127,0
186.26933,186.84384,44,127,0
186.84625,187.15395,51,127,0
186.88472,187.15395,56,127,0
186.92317,187.15395,59,127,0
186.96164,187.15395,63,127,0
187.65395,187.76692,85,127,0
187.76933,187.88231,82,127,0
187.88472,187.9977,83,127,0
188.00009,188.11308,85,127,0
188.11548,188.22845,87,127,0
188.23087,188.34384,88,127,0
189.73087,190.36548,24,127,0
189.73087,190.36548,36,127,0
190.42317,191.05779,26,127,0
190.42317,191.05779,38,127,0
191.11548,191.75009,27,127,0
191.11548,191.75009,39,127,0
191.80779,192.38231,32,127,0
191.80779,192.38231,44,127,0
192.3847,192.6924,51,127,0
192.42317,192.6924,56,127,0
192.46162,192.6924,59,127,0
192.50009,192.6924,63,127,0
193.1924,193.30537,73,127,0
193.30779,193.42076,70,127,0
193.42317,193.53615,71,127,0
193.53856,193.65154,73,127,0
193.65393,193.76692,75,127,0
193.76932,193.88231,76,127,0
195.26932,195.3823,24,127,0
195.26932,195.3823,36,127,0
195.96162,196.07462,26,127,0
195.96162,196.07462,38,127,0
196.65393,196.76692,27,127,0
196.65393,196.76692,39,127,0
197.34624,197.45923,32,127,0
197.34624,197.45923,44,127,0
198.03854,198.15154,24,127,0
198.03854,198.15154,36,127,0
198.73085,198.84384,65,127,0
198.84624,198.95921,62,127,0
198.96162,199.0746,63,127,0
199.07701,199.18999,65,127,0
199.1924,199.30537,67,127,0
199.30779,199.42076,68,127,0
200.11546,200.22845,77,127,0
200.23085,200.34384,79,127,0
200.34624,200.45921,80,127,0
200.46162,200.5746,82,127,0
200.57701,200.68999,84,127,0
200.6924,200.80537,86,127,0
201.50008,201.61307,84,127,0
201.61546,201.72845,82,127,0
201.73085,201.84383,80,127,0
201.84624,201.95921,79,127,0
201.96162,202.0746,77,127,0
202.07701,202.18999,75,127,0
202.19238,202.50008,73,127,0
202.53854,202.65152,75,127,0
202.65393,202.7669,77,127,0
202.76932,202.8823,74,127,0
202.8847,202.99768,72,127,0
203.00008,203.11307,70,127,0
203.11546,203.22845,68,127,0
203.23085,203.34383,67,127,0
203.34624,203.45921,65,127,0
203.46162,203.5746,63,127,0
203.57701,203.88469,61,127,0
203.92316,204.03613,63,127,0
204.03854,204.15152,65,127,0
204.15393,204.2669,62,127,0
204.26932,204.3823,60,127,0
204.38469,204.49768,58,127,0
204.50008,204.61307,56,127,0
204.61546,204.72844,55,127,0
204.73085,204.84383,53,127,0
204.84624,204.95921,51,127,0
204.96162,205.26932,49,127,0
205.30777,205.42075,51,127,0
205.42316,205.53613,53,127,0
205.53854,205.65152,50,127,0
205.65393,205.7669,48,127,0
205.7693,205.8823,46,127,0
205.88469,205.99768,44,127,0
206.00008,206.11305,43,127,0
206.11546,206.22844,41,127,0
206.23085,206.34383,39,127,0
206.34624,206.65393,37,127,0
206.69238,206.80537,39,127,0
206.80777,206.92075,41,127,0
206.92316,207.03613,38,127,0
207.03854,207.23085,36,127,0
207.2693,207.3823,43,127,0
207.38469,207.49768,48,127,0
207.50008,207.61305,51,127,0
207.61546,207.72844,55,127,0
207.73085,207.84383,53,127,0
207.84624,207.95921,51,127,0
207.96161,208.0746,55,127,0
208.077,208.18999,60,127,0
208.19238,208.30536,63,127,0
208.30777,208.42075,67,127,0
208.42316,208.53613,65,127,0
208.53854,208.65152,63,127,0
208.65392,208.7669,67,127,0
208.7693,208.8823,72,127,0
208.88469,208.99767,75,127,0
209.00008,209.11305,79,127,0
209.11546,209.24779,77,127,0
209.2506,209.38292,75,127,0
209.38573,209.51805,79,127,0
209.52086,209.65318,84,127,0
209.656,209.78831,87,127,0
209.79114,209.92346,91,127,0
209.92627,210.0586,79,127,0
209.92627,210.0586,87,127,0
211.27762,211.5479,36,127,0
211.27762,211.5479,48,127,0
211.5479,211.6802,55,127,0
211.5479,211.6802,60,127,0
211.5479,211.6802,63,127,0
211.5479,211.6802,67,127,0
