start_time,end_time,note_value,velocity,instrument_program_number
54.974365,55.41554,67,127,40
55.41554,56.297894,68,127,40
56.297894,56.739067,72,127,40
56.739067,58.944946,75,127,40
58.944946,59.376934,74,127,40
59.386124,60.709652,72,127,40
60.709652,63.788692,71,127,40
75.64637,76.308136,74,127,40
76.308136,76.528725,75,127,40
76.528725,76.9699,77,127,40
76.9699,77.85225,79,127,40
77.85225,78.29343,77,127,40
78.29343,79.17578,75,127,40
79.17578,79.61695,74,127,40
79.61695,80.79343,79,127,40
86.2346,86.89636,74,127,40
86.89636,87.11694,75,127,40
87.11694,87.55812,77,127,40
87.55812,88.440475,79,127,40
88.440475,88.88165,77,127,40
88.88165,89.764,75,127,40
89.764,90.20518,74,127,40
90.20518,91.381645,82,127,40
91.52871,92.41106,80,127,40
92.41106,92.852234,79,127,40
92.852234,93.514,77,127,40
93.514,93.73459,75,127,40
93.73459,94.16657,74,127,40
94.175766,95.05811,73,127,40
95.05811,95.49929,74,127,40
95.49929,96.67576,82,127,40
96.822815,97.70517,80,127,40
97.70517,98.14635,79,127,40
98.14635,98.80811,77,127,40
98.80811,99.0287,75,127,40
99.0287,99.46987,74,127,40
99.46987,100.35223,73,127,40
100.35223,100.7934,74,127,40
100.7934,102.85223,82,127,40
102.99928,103.44046,79,127,40
103.44046,104.32281,80,127,40
104.32281,104.7548,84,127,40
104.763985,106.969864,87,127,40
106.969864,107.40185,86,127,40
107.41104,111.38163,84,127,40
111.38163,116.14586,83,127,40
127.01934,127.901695,63,127,40
127.901695,128.77486,59,127,40
128.78404,129.6664,61,127,40
129.6664,130.40169,63,127,40
132.31346,133.1958,63,127,40
133.1958,134.07816,68,127,40
134.07816,134.51933,65,127,40
134.51933,134.95132,66,127,40
134.96051,135.84286,73,127,40
135.84286,136.71602,71,127,40
136.72522,137.1664,70,127,40
137.1664,137.60756,68,127,40
137.60756,138.48991,66,127,40
138.48991,138.93109,78,127,40
138.93109,139.37227,77,127,40
139.37227,139.81345,75,127,40
139.81345,140.24544,73,127,40
140.25462,142.90167,71,127,40
142.90167,144.2252,72,127,40
144.2252,145.10756,78,127,40
145.10756,145.53955,77,127,40
145.54874,148.19579,71,127,40
148.19579,149.51932,72,127,40
149.51932,150.40167,78,127,40
150.40167,150.83365,77,127,40
150.84285,152.16638,73,127,40
152.16638,153.04872,80,127,40
153.04872,153.48071,78,127,40
153.4899,154.81343,74,127,40
154.81343,155.69579,81,127,40
155.69579,156.12776,79,127,40
156.13696,157.46048,75,127,40
157.46048,158.34283,82,127,40
158.34283,158.78401,80,127,40
158.78401,159.66637,82,127,40
159.66637,160.09836,80,127,40
160.10754,160.9899,82,127,40
160.9899,161.43108,81,127,40
161.43108,162.31342,80,127,40
162.31342,162.7546,79,127,40
162.7546,163.19577,76,127,40
163.19577,163.63695,77,127,40
163.63695,164.06894,79,127,40
164.07812,165.40166,82,127,40
165.40166,166.28401,80,127,40
166.28401,166.71599,78,127,40
166.72519,167.60753,77,127,40
167.60753,168.0487,75,127,40
168.0487,168.48988,72,127,40
168.48988,168.93106,73,127,40
168.93106,169.36305,75,127,40
169.37224,170.69577,78,127,40
170.69577,171.57812,77,127,40
171.57812,172.0101,75,127,40
172.0193,172.90164,73,127,40
172.90164,173.34282,71,127,40
173.34282,173.784,67,127,40
173.784,174.66635,69,127,40
174.66635,175.98988,74,127,40
175.98988,176.87224,71,127,40
176.87224,177.3134,70,127,40
177.3134,177.74539,68,127,40
179.96046,181.284,59,127,40
181.284,182.60751,61,127,40
182.60751,183.78398,62,127,40
183.93105,184.37222,64,127,40
184.37222,184.8134,65,127,40
184.8134,185.25458,68,127,40
185.25458,186.57811,73,127,40
186.57811,187.75458,71,127,40
187.90163,188.78398,70,127,40
188.78398,189.22516,68,127,40
189.22516,190.10751,66,127,40
190.10751,190.54869,65,127,40
190.54869,191.43105,63,127,40
191.43105,191.87221,61,127,40
191.87221,192.75456,59,127,40
192.75456,193.18655,58,127,40
193.19574,200.0261,58,127,40
200.03528,200.47646,60,127,40
200.47646,200.91763,62,127,40
200.91763,201.35881,60,127,40
201.35881,201.79999,58,127,40
201.79999,202.24117,60,127,40
202.24117,202.68234,62,127,40
202.68234,203.12352,60,127,40
203.12352,203.5647,58,127,40
203.5647,204.00587,60,127,40
204.00587,204.44705,62,127,40
204.44705,204.87903,60,127,40
204.88821,210.61432,58,127,40
210.6235,211.06468,60,127,40
211.06468,211.50586,62,127,40
211.50586,211.94704,60,127,40
211.94704,212.38821,58,127,40
212.38821,212.82939,60,127,40
212.82939,213.27057,62,127,40
213.27057,213.71175,60,127,40
213.71175,214.15292,58,127,40
214.15292,214.59409,60,127,40
214.59409,215.03526,62,127,40
215.03526,215.46725,60,127,40
215.47644,220.54997,58,127,40
220.77055,221.21173,62,127,40
221.21173,221.65291,60,127,40
221.65291,222.09409,58,127,40
222.09409,222.53526,60,127,40
222.53526,222.97644,62,127,40
222.97644,223.41762,60,127,40
223.41762,223.8588,58,127,40
223.8588,224.29997,60,127,40
224.29997,224.74113,62,127,40
224.74113,225.18231,60,127,40
225.18231,225.62349,58,127,40
225.62349,226.06467,60,127,40
226.06467,226.49666,62,127,40
231.35878,231.79996,58,127,40
231.79996,232.24113,60,127,40
232.24113,232.68231,62,127,40
232.68231,233.12349,60,127,40
233.12349,233.56467,58,127,40
233.56467,234.00584,60,127,40
234.00584,234.447,62,127,40
234.447,234.88818,60,127,40
234.88818,235.32936,58,127,40
235.32936,235.77054,60,127,40
235.77054,236.20253,62,127,40
244.59406,245.03523,61,127,40
245.03523,245.47641,63,127,40
245.47641,245.91759,65,127,40
245.91759,246.35876,63,127,40
246.35876,246.79994,61,127,40
246.79994,247.24112,63,127,40
247.24112,248.41759,65,127,40
250.77052,251.2117,60,127,40
251.2117,251.65288,59,127,40
251.65288,252.09406,57,127,40
252.09406,252.53523,59,127,40
252.53523,252.97641,61,127,40
252.97641,253.41759,62,127,40
253.41759,253.85876,64,127,40
253.85876,254.29993,62,127,40
254.29993,254.7411,61,127,40
254.7411,255.18228,59,127,40
255.18228,255.61427,57,127,40
260.4764,261.35873,59,127,40
261.35873,261.79993,58,127,40
261.79993,262.68228,55,127,40
262.68228,263.12344,56,127,40
263.12344,265.54993,57,127,40
265.7705,266.65286,59,127,40
266.65286,267.09402,58,127,40
267.09402,267.97638,55,127,40
267.97638,268.41757,56,127,40
268.41757,270.84402,57,127,40
273.71167,274.59402,57,127,40
274.59402,275.03522,59,127,40
275.03522,275.47638,60,127,40
275.47638,275.91757,62,127,40
275.91757,276.35873,63,127,40
276.35873,277.68225,65,127,40
277.68225,278.5646,60,127,40
278.5646,279.0058,59,127,40
279.0058,281.43225,57,127,40
284.2999,285.18225,57,127,40
285.18225,285.62344,59,127,40
285.62344,286.0646,60,127,40
286.0646,286.50577,62,127,40
286.50577,286.93777,64,127,40
286.94696,288.71167,65,127,40
288.71167,289.15283,69,127,40
289.15283,289.5848,70,127,40
289.59402,290.47638,72,127,40
290.47638,290.91754,80,127,40
290.91754,291.7999,79,127,40
291.7999,292.23187,77,127,40
292.24106,293.1234,75,127,40
293.1234,293.5646,74,127,40
293.5646,294.00577,67,127,40
294.00577,294.44696,71,127,40
294.44696,294.87894,72,127,40
294.88812,295.77048,74,127,40
295.77048,296.21164,82,127,40
296.21164,297.094,81,127,40
297.094,297.5352,79,127,40
297.5352,298.41754,77,127,40
298.41754,298.8587,76,127,40
298.8587,299.2999,69,127,40
299.2999,299.74106,73,127,40
299.74106,300.17303,74,127,40
300.18225,301.06458,76,127,40
301.06458,301.50577,84,127,40
301.50577,302.38812,83,127,40
302.38812,302.8201,81,127,40
302.82928,303.71164,79,127,40
303.71164,304.15283,78,127,40
304.15283,304.594,71,127,40
304.594,305.0352,75,127,40
305.0352,305.46716,78,127,40
305.47635,306.79987,79,127,40
306.79987,307.68222,81,127,40
307.68222,308.1234,82,127,40
308.1234,309.44693,82,127,40
309.44693,310.6234,81,127,40
310.77045,312.094,79,127,40
312.094,312.97635,81,127,40
312.97635,313.40833,82,127,40
313.4175,314.74106,84,127,40
314.74106,315.62338,82,127,40
315.62338,316.0554,77,127,40
316.06458,317.3881,79,127,40
317.3881,318.56458,77,127,40
319.1528,319.594,70,127,40
319.594,320.03516,72,127,40
320.03516,320.47632,74,127,40
320.47632,320.9175,75,127,40
320.9175,321.35867,77,127,40
321.35867,321.79987,73,127,40
321.79987,322.24103,75,127,40
322.24103,322.68222,77,127,40
322.68222,323.12338,79,127,40
323.12338,323.56458,80,127,40
323.56458,323.99655,82,127,40
324.00574,325.32925,84,127,40
325.32925,326.2116,82,127,40
326.2116,326.64362,77,127,40
326.6528,327.97632,79,127,40
327.97632,328.85867,77,127,40
328.85867,329.29987,84,127,40
329.29987,330.62338,87,127,40
330.62338,331.50574,85,127,40
331.50574,331.9377,78,127,40
331.9469,333.37643,80,127,40
333.37643,334.39728,78,127,40
334.39728,334.91812,85,127,40
334.9293,336.64355,88,127,40
336.64355,337.07214,87,127,40
337.07214,337.49176,83,127,40
337.5007,338.7864,85,127,40
338.7864,340.7864,83,127,40
340.92926,341.35785,80,127,40
341.35785,341.7864,83,127,40
341.7864,342.215,82,127,40
342.215,342.6346,80,127,40
342.64355,343.92926,79,127,40
343.92926,345.64355,77,127,40
345.64355,346.0721,76,127,40
346.0721,346.5007,73,127,40
346.5007,348.20605,74,127,40
348.21497,348.6346,72,127,40
348.64355,349.0632,69,127,40
349.0721,349.49176,70,127,40
349.5007,349.92032,67,127,40
349.92926,350.3489,63,127,40
350.35782,350.77747,65,127,40
350.7864,351.20605,67,127,40
351.21497,351.6346,69,127,40
351.64355,352.92926,70,127,40
352.92926,354.0721,64,127,40
354.21497,354.64355,65,127,40
354.64355,355.0721,67,127,40
355.0721,355.50067,69,127,40
355.50067,356.7864,70,127,40
356.7864,357.64352,64,127,40
357.64352,358.0721,65,127,40
358.0721,358.50067,66,127,40
358.50067,358.92926,67,127,40
358.92926,359.35782,69,127,40
359.35782,360.68213,70,127,40
360.68213,361.94763,64,127,40
362.11157,362.60117,65,127,40
362.61157,363.10117,67,127,40
363.11157,363.60117,69,127,40
363.61157,366.25864,70,127,40
366.25864,370.90845,62,127,40
366.25864,370.90845,70,127,40
403.63312,404.06168,67,127,40
404.06168,404.91882,68,127,40
404.91882,405.3474,72,127,40
405.3474,407.49026,75,127,40
407.49026,407.9099,74,127,40
407.91882,409.20453,72,127,40
409.20453,413.77597,71,127,40
431.6184,432.50076,63,127,40
432.50076,433.37393,59,127,40
433.38312,434.26547,61,127,40
434.26547,435.00076,63,127,40
436.91254,437.79486,63,127,40
437.79486,438.67722,68,127,40
438.67722,439.1184,65,127,40
439.1184,439.55038,66,127,40
439.55957,440.41672,73,127,40
440.41672,441.2863,71,127,40
441.2863,441.72748,70,127,40
441.72748,442.15945,68,127,40
442.16864,442.91492,66,127,40
443.06415,443.5187,78,127,40
443.5187,443.96378,77,127,40
443.97324,444.42517,75,127,40
444.43478,444.88672,73,127,40
444.89633,445.313,71,127,40
445.313,445.72964,72,127,40
445.72964,446.563,73,127,40
446.563,446.97964,72,127,40
446.97964,447.39633,73,127,40
447.39633,448.22964,75,127,40
448.22964,448.64633,77,127,40
448.64633,449.47964,80,127,40
449.47964,449.89633,78,127,40
449.89633,450.313,71,127,40
450.313,450.72964,72,127,40
450.72964,451.563,73,127,40
451.563,451.97964,72,127,40
451.97964,452.38763,73,127,40
452.39633,453.22964,75,127,40
453.22964,453.64633,77,127,40
453.64633,454.47964,80,127,40
454.47964,454.88763,78,127,40
454.89633,455.72964,85,127,40
455.72964,456.14633,83,127,40
456.14633,456.77133,81,127,40
456.77133,456.97964,79,127,40
456.97964,457.38763,78,127,40
457.39633,458.22964,77,127,40
458.22964,458.64633,78,127,40
458.64633,459.47964,87,127,40
459.47964,459.88763,85,127,40
459.89633,461.563,67,127,40
461.563,461.97964,68,127,40
461.97964,462.39633,70,127,40
462.39633,463.22964,72,127,40
463.22964,464.75742,67,127,40
464.89633,465.72964,66,127,40
465.72964,466.14633,82,127,40
466.14633,466.97964,83,127,40
466.97964,467.38763,87,127,40
467.39633,469.47964,90,127,40
469.47964,469.89633,89,127,40
469.89633,471.1463,87,127,40
471.1463,479.688,86,127,40
510.6987,511.36047,74,127,40
511.36047,511.58105,75,127,40
511.58105,512.0222,77,127,40
512.0222,512.9046,79,127,40
512.9046,513.33655,77,127,40
513.34576,514.2281,75,127,40
514.2281,514.6693,73,127,40
514.6693,515.84576,82,127,40
515.9928,516.6546,74,127,40
516.6546,516.8752,75,127,40
516.8752,517.31635,77,127,40
517.31635,518.19867,79,127,40
518.19867,518.6307,77,127,40
518.6399,519.5222,75,127,40
519.5222,519.9634,73,127,40
519.9634,521.1399,82,127,40
526.58105,527.90454,64,127,40
527.90454,529.2281,63,127,40
529.2281,530.55164,61,127,40
530.55164,531.7281,62,127,40
531.8751,532.5001,74,127,40
532.5001,532.7085,75,127,40
532.7085,533.1251,77,127,40
533.1251,533.9585,79,127,40
533.9585,534.3751,77,127,40
534.3751,535.2085,75,127,40
535.2085,535.6251,73,127,40
535.6251,536.73627,82,127,40
536.8751,537.5001,74,127,40
537.5001,537.7085,75,127,40
537.7085,538.1251,77,127,40
538.1251,538.9585,79,127,40
538.9585,539.36646,77,127,40
539.3751,540.2085,75,127,40
540.2085,540.6251,73,127,40
540.6251,541.73627,82,127,40
546.8751,548.1251,64,127,40
548.1251,549.3751,63,127,40
549.3751,550.0001,65,127,40
550.0001,550.2085,66,127,40
550.2085,550.6251,68,127,40
550.6251,551.2501,70,127,40
551.2501,551.4585,72,127,40
551.4585,551.86646,74,127,40
551.8751,552.6751,75,127,40
552.6751,553.47516,76,127,40
553.47516,553.8751,74,127,40
553.8751,554.27515,75,127,40
554.27515,555.47516,80,127,40
555.47516,556.27515,78,127,40
556.27515,556.6668,76,127,40
556.6751,557.47516,75,127,40
557.47516,558.27515,76,127,40
558.27515,558.6751,74,127,40
558.6751,559.07513,75,127,40
559.07513,559.8751,80,127,40
559.8751,560.27515,78,127,40
560.27515,561.07513,76,127,40
561.07513,561.4668,75,127,40
561.47516,562.6751,73,127,40
562.6751,563.8751,71,127,40
563.8751,565.07513,70,127,40
565.07513,566.27515,71,127,40
566.27515,567.47516,73,127,40
567.47516,568.6751,71,127,40
568.6751,569.8751,70,127,40
569.8751,571.07513,71,127,40
571.07513,572.27515,73,127,40
572.27515,573.47516,71,127,40
573.47516,574.6751,70,127,40
574.6751,575.8751,71,127,40
575.8751,587.04175,70,127,40
9.8418665,13.5918665,62,112,41
13.5918665,13.8418665,63,112,41
13.8418665,14.3418665,65,112,41
14.3418665,15.3418665,67,112,41
15.3418665,15.8418665,65,112,41
15.8418665,16.841866,63,112,41
16.841866,17.341866,62,112,41
17.341866,21.6752,67,112,41
31.503788,35.253788,62,112,41
35.253788,35.503788,63,112,41
35.503788,36.003788,65,112,41
36.003788,37.003788,67,112,41
37.003788,37.503788,65,112,41
37.503788,38.503788,63,112,41
38.503788,39.003788,62,112,41
39.003788,43.33712,70,112,41
43.503788,44.38614,68,112,41
44.38614,44.827316,67,112,41
44.827316,45.48908,65,112,41
45.48908,45.709667,63,112,41
45.709667,46.150845,62,112,41
46.150845,47.033195,61,112,41
47.033195,47.474373,62,112,41
47.474373,48.65084,70,112,41
48.7979,49.680252,68,112,41
49.680252,50.12143,67,112,41
50.12143,50.78319,65,112,41
50.78319,51.00378,63,112,41
51.00378,51.444958,62,112,41
51.444958,52.32731,61,112,41
52.32731,52.768482,62,112,41
52.768482,54.974365,70,112,41
54.974365,55.41554,67,112,41
55.41554,56.297894,68,112,41
56.297894,56.739067,72,112,41
56.739067,58.944946,75,112,41
58.944946,59.376934,74,112,41
59.386124,60.709652,72,112,41
60.709652,64.68024,71,112,41
64.68024,69.12986,70,112,41
76.9699,80.79343,58,112,41
76.9699,80.79343,62,112,41
87.55812,91.381645,58,112,41
87.55812,91.381645,62,112,41
94.616936,95.05811,70,112,41
95.05811,95.49929,69,112,41
95.49929,95.94047,67,112,41
95.94047,96.381645,65,112,41
96.381645,96.81363,63,112,41
96.822815,98.14635,62,112,41
98.14635,99.46987,60,112,41
99.46987,100.35223,58,112,41
100.35223,100.7934,70,112,41
100.7934,101.23458,69,112,41
101.23458,101.67576,67,112,41
101.67576,102.11693,65,112,41
102.11693,103.44046,63,112,41
103.44046,103.88164,75,112,41
103.88164,104.32281,74,112,41
104.32281,104.763985,72,112,41
104.763985,105.20516,70,112,41
105.20516,105.64634,68,112,41
105.64634,106.07832,67,112,41
106.08752,108.73457,66,112,41
108.73457,110.0581,67,112,41
110.0581,112.705154,68,112,41
112.705154,116.14586,69,112,41
127.01934,127.901695,54,112,41
127.901695,128.77486,51,112,41
128.78404,129.6664,53,112,41
129.6664,130.40169,55,112,41
132.31346,133.1958,54,112,41
133.1958,134.81345,59,112,41
134.96051,136.28404,63,112,41
136.28404,137.46051,59,112,41
137.60756,139.37227,58,112,41
139.37227,139.81345,59,112,41
139.81345,140.24544,61,112,41
140.25462,141.57816,63,112,41
141.57816,142.01933,51,112,41
142.01933,142.46051,59,112,41
142.46051,142.90167,61,112,41
142.90167,144.07816,63,112,41
144.2252,144.66638,51,112,41
144.66638,146.87227,63,112,41
146.87227,147.31345,51,112,41
147.31345,147.75461,59,112,41
147.75461,148.19579,61,112,41
148.19579,149.37225,63,112,41
149.51932,149.9605,51,112,41
149.9605,150.84285,63,112,41
150.84285,152.01932,64,112,41
152.16638,152.60754,52,112,41
152.60754,153.4899,64,112,41
153.4899,154.66637,65,112,41
154.81343,155.25461,53,112,41
155.25461,156.13696,65,112,41
156.13696,157.46048,66,112,41
157.46048,157.90166,54,112,41
157.90166,158.78401,66,112,41
158.78401,159.66637,70,127,41
159.66637,160.09836,68,112,41
162.7546,164.07812,74,112,41
164.07812,165.2546,75,112,41
165.40166,165.84283,63,112,41
165.84283,166.28401,65,112,41
166.28401,166.72519,66,112,41
166.72519,167.16635,68,112,41
167.16635,167.60753,70,112,41
167.60753,171.12775,71,112,41
177.3134,178.19576,68,112,41
178.19576,178.63693,67,112,41
178.63693,179.07811,64,112,41
179.07811,179.51929,65,112,41
179.51929,179.95128,68,112,41
179.96046,181.284,73,112,41
181.284,182.16634,71,112,41
182.16634,182.59833,70,112,41
182.60751,183.48987,68,112,41
183.48987,183.93105,67,112,41
183.93105,184.37222,64,112,41
184.37222,184.80421,65,112,41
241.947,242.38818,61,112,41
242.38818,242.82936,63,112,41
242.82936,243.27054,65,112,41
243.27054,243.71172,63,112,41
243.71172,244.15288,61,112,41
244.15288,244.59406,63,112,41
244.59406,246.34958,65,112,41
247.24112,247.6823,57,112,41
247.6823,248.12347,59,112,41
248.12347,248.56465,60,112,41
248.56465,249.00581,59,112,41
249.00581,249.44699,57,112,41
249.44699,249.88817,59,112,41
249.88817,250.32935,60,112,41
250.32935,250.77052,62,112,41
250.77052,251.2117,64,112,41
251.2117,251.65288,62,112,41
251.65288,252.09406,60,112,41
252.09406,252.53523,62,112,41
252.53523,252.96721,64,112,41
253.41759,253.85876,61,112,41
253.85876,254.29993,62,112,41
254.29993,254.7411,64,112,41
254.7411,255.18228,62,112,41
255.18228,255.62346,61,112,41
255.62346,256.06464,59,112,41
256.06464,256.947,57,112,41
256.947,257.82935,57,112,41
257.82935,259.0058,57,112,41
260.4764,261.35873,59,112,41
261.35873,261.79993,58,112,41
261.79993,262.68228,55,112,41
262.68228,263.12344,56,112,41
263.12344,265.54993,57,112,41
265.7705,266.65286,59,112,41
266.65286,267.09402,58,112,41
267.09402,267.97638,55,112,41
267.97638,268.41757,56,112,41
268.41757,271.06464,57,112,41
271.06464,271.94696,62,112,41
271.94696,272.38815,60,112,41
272.38815,272.8293,57,112,41
272.8293,273.2705,53,112,41
273.2705,273.70248,55,112,41
273.71167,274.59402,57,112,41
274.59402,275.03522,59,112,41
275.03522,275.47638,60,112,41
275.47638,275.91757,62,112,41
275.91757,276.35873,63,112,41
276.35873,277.68225,65,112,41
277.68225,278.5646,60,112,41
278.5646,279.0058,59,112,41
279.0058,281.43225,57,112,41
281.65283,282.5352,62,112,41
282.5352,282.97638,60,112,41
282.97638,283.41754,57,112,41
283.41754,283.85873,53,112,41
283.85873,284.2907,55,112,41
284.2999,285.18225,57,112,41
285.18225,285.62344,59,112,41
285.62344,286.0646,60,112,41
286.0646,286.50577,62,112,41
286.50577,286.93777,64,112,41
286.94696,288.27048,65,112,41
288.27048,289.15283,60,112,41
289.15283,289.5848,58,112,41
289.59402,290.0352,56,112,41
290.0352,290.47638,58,112,41
290.47638,290.91754,60,112,41
290.91754,291.3587,62,112,41
291.3587,291.7999,63,112,41
291.7999,292.23187,65,112,41
292.24106,294.00577,67,112,41
294.00577,294.44696,59,112,41
294.44696,294.87894,57,112,41
294.88812,295.3293,55,112,41
295.3293,295.77048,57,112,41
295.77048,296.21164,58,112,41
296.21164,296.65283,60,112,41
296.65283,297.5352,62,112,41
297.5352,299.2999,61,112,41
299.2999,299.74106,57,112,41
299.74106,300.17303,59,112,41
300.18225,300.6234,60,112,41
300.6234,301.06458,62,112,41
301.06458,301.50577,64,112,41
301.50577,301.94693,66,112,41
301.94693,302.38812,67,112,41
302.38812,302.82928,69,112,41
302.82928,305.25577,71,112,41
305.47635,306.79987,72,112,41
306.79987,308.1234,73,112,41
308.1234,309.44693,74,112,41
309.44693,310.77045,73,112,41
310.77045,312.094,72,112,41
312.094,313.4175,73,112,41
313.4175,314.74106,74,112,41
314.74106,315.9175,70,112,41
316.06458,318.27045,68,112,41
318.27045,318.70242,67,112,41
318.71164,321.1381,65,112,41
321.35867,323.56458,68,112,41
323.56458,324.00574,67,112,41
324.00574,326.6528,65,112,41
326.6528,327.97632,71,112,41
327.97632,329.1528,72,112,41
329.29987,330.62338,66,112,41
330.62338,331.9469,73,112,41
331.9469,333.37643,75,112,41
333.37643,336.215,76,112,41
336.215,337.5007,71,112,41
337.5007,340.5007,68,112,41
340.5007,340.92926,64,112,41
340.92926,341.35785,66,112,41
341.35785,342.64355,68,112,41
342.64355,344.35785,70,112,41
344.35785,344.7864,69,112,41
344.7864,345.20605,65,112,41
345.21497,346.92926,67,112,41
346.92926,347.35785,65,112,41
347.35785,347.7864,62,112,41
347.7864,349.0721,64,112,41
349.0721,349.92926,63,112,41
349.92926,350.35782,58,112,41
350.35782,351.21497,62,112,41
351.21497,351.6346,60,112,41
351.64355,352.92926,64,112,41
352.92926,354.21497,62,112,41
354.21497,355.50067,60,112,41
355.50067,356.7864,64,112,41
356.7864,358.0721,62,112,41
358.0721,359.21497,60,112,41
359.35782,360.68213,64,112,41
360.68213,362.11157,62,112,41
362.11157,363.61157,60,112,41
363.61157,366.25864,58,112,41
366.25864,370.90845,58,112,41
377.0617,377.70456,62,112,41
377.70456,377.91885,63,112,41
377.91885,378.3474,65,112,41
378.3474,379.20456,67,112,41
379.20456,379.6242,65,112,41
379.63315,380.4903,63,112,41
380.4903,380.9099,62,112,41
380.91885,382.6242,67,112,41
387.3474,387.99026,62,112,41
387.99026,388.20456,63,112,41
388.20456,388.63312,65,112,41
388.63312,389.49026,67,112,41
389.49026,389.9099,65,112,41
389.91885,390.77597,63,112,41
390.77597,391.20456,62,112,41
391.20456,392.3474,70,112,41
392.49026,393.3474,68,112,41
393.3474,393.77597,67,112,41
393.77597,394.41885,65,112,41
394.41885,394.63312,63,112,41
394.63312,395.05276,62,112,41
395.0617,395.91882,61,112,41
395.91882,396.3474,62,112,41
396.3474,397.49026,70,112,41
397.63312,398.49026,68,112,41
398.49026,398.91882,67,112,41
398.91882,399.56168,65,112,41
399.56168,399.77597,63,112,41
399.77597,400.19562,62,112,41
400.20456,401.06168,61,112,41
401.06168,401.49026,62,112,41
401.49026,403.49026,70,112,41
403.63312,404.06168,67,112,41
404.06168,404.91882,68,112,41
404.91882,405.3474,72,112,41
405.3474,407.49026,75,112,41
407.49026,407.9099,74,112,41
407.91882,409.20453,72,112,41
409.20453,414.34738,71,112,41
414.34738,416.91882,70,112,41
416.91882,419.49023,68,112,41
419.49023,424.47937,67,112,41
431.6184,432.50076,54,112,41
432.50076,433.37393,51,112,41
433.38312,434.26547,53,112,41
434.26547,435.00076,55,112,41
436.91254,437.79486,54,112,41
437.79486,439.4125,59,112,41
439.55957,440.8515,63,112,41
440.8515,442.02158,59,112,41
442.16864,443.97324,58,112,41
443.97324,444.43478,59,112,41
444.43478,444.88672,61,112,41
444.89633,445.72964,63,112,41
445.72964,446.14633,64,112,41
446.14633,446.563,65,112,41
446.563,446.97964,64,112,41
446.97964,447.39633,65,112,41
447.39633,447.813,66,112,41
447.813,448.22964,70,112,41
448.22964,448.64633,61,112,41
448.64633,449.063,63,112,41
449.063,449.47964,65,112,41
449.47964,449.88763,66,112,41
449.89633,450.72964,63,112,41
450.72964,451.14633,64,112,41
451.14633,451.563,65,112,41
451.563,451.97964,64,112,41
451.97964,452.38763,65,112,41
452.39633,452.813,66,112,41
452.813,453.22964,70,112,41
453.22964,453.64633,61,112,41
453.64633,454.063,63,112,41
454.063,454.47964,65,112,41
454.47964,454.88763,66,112,41
454.89633,455.313,67,112,41
455.313,456.14633,73,112,41
456.14633,457.25745,71,112,41
457.39633,458.64633,70,112,41
458.64633,459.75745,69,112,41
459.89633,460.313,58,112,41
460.313,460.72964,60,112,41
460.72964,461.14633,61,112,41
461.14633,461.563,63,112,41
461.563,461.97964,64,112,41
461.97964,462.38763,65,112,41
462.39633,462.813,64,112,41
462.813,463.22964,65,112,41
463.22964,463.64633,64,112,41
463.64633,464.063,62,112,41
464.063,464.47964,60,112,41
464.47964,464.88763,59,112,41
464.89633,465.72964,58,112,41
465.72964,466.14633,70,112,41
466.14633,466.97964,71,112,41
466.97964,467.38763,75,112,41
467.39633,469.47964,78,112,41
469.47964,469.89633,77,112,41
469.89633,471.1463,75,112,41
471.1463,479.688,74,112,41
510.6987,512.0222,74,112,41
512.0222,513.34576,72,112,41
513.34576,514.6693,70,112,41
514.6693,515.84576,72,112,41
515.9928,517.31635,74,112,41
517.31635,518.6399,72,112,41
518.6399,519.9634,70,112,41
519.9634,521.1399,72,112,41
521.2869,522.6105,73,112,41
522.6105,523.93396,71,112,41
523.93396,525.2575,70,112,41
525.2575,526.43396,69,112,41
526.58105,527.90454,68,112,41
527.90454,529.2281,67,112,41
529.2281,530.55164,66,112,41
530.55164,531.7281,67,112,41
531.8751,533.1251,74,112,41
533.1251,534.3751,72,112,41
534.3751,535.6251,70,112,41
535.6251,536.73627,72,112,41
536.8751,538.1251,74,112,41
538.1251,539.3751,72,112,41
539.3751,540.6251,70,112,41
540.6251,541.73627,72,112,41
541.8751,543.1251,73,112,41
543.1251,544.3751,71,112,41
544.3751,545.6251,70,112,41
545.6251,546.8751,69,112,41
546.8751,548.1251,68,112,41
548.1251,549.3751,67,112,41
549.3751,550.6251,61,112,41
550.6251,551.73627,62,112,41
551.8751,553.07513,58,112,41
553.07513,554.27515,59,112,41
554.27515,555.47516,64,112,41
555.47516,556.5418,61,112,41
556.6751,557.8751,58,112,41
557.8751,559.07513,59,112,41
559.07513,560.27515,64,112,41
560.27515,561.07513,61,112,41
561.07513,561.4668,63,112,41
561.47516,562.6751,64,112,41
561.47516,563.6751,56,112,41
562.6751,563.8751,65,112,41
563.8751,564.94183,55,112,41
563.8751,565.07513,67,112,41
565.07513,566.1418,57,112,41
565.07513,566.27515,66,112,41
566.27515,567.47516,64,112,41
566.27515,568.47516,56,112,41
567.47516,568.6751,65,112,41
568.6751,569.7418,55,112,41
568.6751,569.8751,67,112,41
569.8751,570.94183,57,112,41
569.8751,571.07513,66,112,41
571.07513,572.27515,55,112,41
571.07513,572.27515,67,112,41
572.27515,573.47516,57,112,41
572.27515,573.47516,66,112,41
573.47516,574.6751,55,112,41
573.47516,574.6751,67,112,41
574.6751,575.8751,57,112,41
574.6751,575.8751,66,112,41
575.8751,587.04175,58,112,41
575.8751,587.04175,67,112,41
199.59412,200.0261,58,112,45
200.03528,200.46727,51,112,45
200.03528,200.46727,63,112,45
200.47646,200.90845,62,112,45
200.91763,201.34962,55,112,45
200.91763,201.34962,67,112,45
201.35881,201.7908,58,112,45
201.79999,202.23198,51,112,45
201.79999,202.23198,63,112,45
202.24117,202.67316,62,112,45
202.68234,203.11432,55,112,45
202.68234,203.11432,67,112,45
203.12352,203.5555,58,112,45
203.5647,203.99667,51,112,45
203.5647,203.99667,63,112,45
204.00587,204.43785,62,112,45
204.44705,204.87903,55,112,45
204.44705,204.87903,67,112,45
204.88821,205.3202,58,112,45
210.18233,210.61432,58,112,45
210.6235,211.0555,51,112,45
210.6235,211.0555,63,112,45
211.06468,211.49667,62,112,45
211.50586,211.93785,55,112,45
211.50586,211.93785,67,112,45
211.94704,212.37903,58,112,45
212.38821,212.82019,51,112,45
212.38821,212.82019,63,112,45
212.82939,213.26137,62,112,45
213.27057,213.70255,55,112,45
213.27057,213.70255,67,112,45
213.71175,214.14372,58,112,45
214.15292,214.5849,51,112,45
214.15292,214.5849,63,112,45
214.59409,215.02608,62,112,45
215.03526,215.46725,55,112,45
215.03526,215.46725,67,112,45
215.47644,215.90843,58,112,45
220.77055,221.20255,62,112,45
221.21173,221.64372,55,112,45
221.21173,221.64372,67,112,45
221.65291,222.0849,58,112,45
222.09409,222.52608,51,112,45
222.09409,222.52608,63,112,45
222.53526,222.96724,62,112,45
222.97644,223.40842,55,112,45
222.97644,223.40842,67,112,45
223.41762,223.8496,58,112,45
223.8588,224.29077,51,112,45
223.8588,224.29077,63,112,45
224.29997,224.73195,62,112,45
224.74113,225.17313,55,112,45
224.74113,225.17313,67,112,45
225.18231,225.6143,58,112,45
225.62349,226.05548,51,112,45
225.62349,226.05548,63,112,45
226.06467,226.49666,62,112,45
231.35878,231.79077,58,112,45
231.79996,232.23195,51,112,45
231.79996,232.23195,63,112,45
232.24113,232.67311,62,112,45
232.68231,233.11429,55,112,45
232.68231,233.11429,67,112,45
233.12349,233.55547,58,112,45
233.56467,233.99664,51,112,45
233.56467,233.99664,63,112,45
234.00584,234.43782,62,112,45
234.447,234.879,55,112,45
234.447,234.879,67,112,45
234.88818,235.32018,58,112,45
235.32936,235.76135,51,112,45
235.32936,235.76135,63,112,45
235.77054,236.20253,62,112,45
76.9699,80.79343,43,112,42
76.9699,80.79343,50,112,42
87.55812,91.381645,43,112,42
87.55812,91.381645,50,112,42
96.822815,98.14635,53,112,42
98.14635,99.46987,56,112,42
99.46987,102.11693,55,112,42
102.11693,106.08752,60,112,42
106.08752,107.41104,62,112,42
107.41104,116.14586,63,112,42
127.01934,127.901695,47,112,42
127.901695,128.77486,42,112,42
128.78404,129.6664,44,112,42
129.6664,130.40169,46,112,42
132.31346,133.1958,47,112,42
133.1958,134.07816,53,112,42
134.07816,134.81345,56,112,42
134.96051,136.28404,54,112,42
136.28404,137.60756,51,112,42
137.60756,138.93109,50,112,42
138.93109,140.25462,49,112,42
140.25462,142.90167,44,112,42
142.90167,145.54874,45,112,42
145.54874,148.19579,44,112,42
148.19579,150.84285,45,112,42
150.84285,153.4899,46,112,42
153.4899,155.91637,47,112,42
156.13696,158.56343,48,112,42
160.10754,160.9899,70,127,42
160.9899,161.43108,69,112,42
161.43108,162.31342,68,112,42
162.31342,162.7546,67,112,42
162.7546,163.19577,64,112,42
163.19577,163.63695,65,112,42
163.63695,164.06894,67,112,42
164.07812,165.40166,70,112,42
165.40166,166.28401,68,112,42
166.28401,166.71599,66,112,42
166.72519,167.60753,65,112,42
167.60753,168.0487,63,112,42
168.0487,168.48988,60,112,42
168.48988,168.93106,61,112,42
168.93106,169.37224,63,112,42
169.37224,170.2546,66,112,42
170.2546,171.13695,54,112,42
171.13695,171.57812,56,112,42
171.57812,172.0101,58,112,42
172.0193,175.98988,59,112,42
175.98988,177.3134,61,112,42
177.3134,179.73987,62,112,42
236.6529,237.09407,47,112,42
237.09407,237.53525,49,112,42
237.53525,237.97643,51,112,42
237.97643,238.4176,49,112,42
238.4176,238.85878,47,112,42
238.85878,239.29076,49,112,42
239.29994,239.74112,51,112,42
239.74112,240.1823,53,112,42
240.1823,240.62347,54,112,42
240.62347,241.06465,53,112,42
241.06465,241.50583,51,112,42
241.50583,241.93782,53,112,42
241.947,244.59406,54,112,42
244.59406,247.02052,57,112,42
247.24112,249.88817,48,112,42
249.88817,252.53523,52,112,42
252.53523,255.61427,45,112,42
260.4764,262.90286,41,112,42
265.7705,268.197,41,112,42
271.06464,271.94696,62,112,42
271.94696,272.38815,60,112,42
272.38815,272.8293,57,112,42
272.8293,273.2705,53,112,42
273.2705,273.70248,55,112,42
273.71167,274.44696,57,112,42
276.35873,280.7613,39,112,42
281.65283,282.5352,62,112,42
282.5352,282.97638,60,112,42
282.97638,283.41754,57,112,42
283.41754,283.85873,53,112,42
283.85873,284.2907,55,112,42
284.2999,289.00577,57,112,42
289.15283,289.5848,55,112,42
289.59402,290.0352,53,112,42
290.0352,290.47638,55,112,42
290.47638,290.91754,56,112,42
290.91754,291.3587,58,112,42
291.3587,292.09402,60,112,42
292.24106,294.00577,59,112,42
294.00577,294.44696,55,112,42
294.44696,294.87894,57,112,42
294.88812,295.3293,58,112,42
295.3293,295.77048,60,112,42
295.77048,296.21164,62,112,42
296.21164,296.65283,64,112,42
296.65283,297.094,65,112,42
297.094,297.526,67,112,42
297.5352,299.2999,69,112,42
299.2999,299.74106,61,112,42
299.74106,300.17303,59,112,42
300.18225,300.6234,57,112,42
300.6234,301.06458,59,112,42
301.06458,301.50577,60,112,42
301.50577,301.94693,62,112,42
301.94693,302.82928,64,112,42
302.82928,305.25577,63,112,42
305.47635,306.79987,63,112,42
306.79987,308.1234,64,112,42
308.1234,309.44693,65,112,42
309.44693,310.77045,64,112,42
310.77045,312.094,63,112,42
312.094,313.4175,64,112,42
313.4175,314.74106,65,112,42
314.74106,315.9175,62,112,42
316.06458,318.71164,61,112,42
318.71164,321.1381,62,112,42
321.35867,325.32925,61,112,42
325.32925,326.6528,62,112,42
326.6528,329.29987,63,112,42
329.29987,330.62338,60,112,42
330.62338,331.50574,61,112,42
331.50574,331.9377,63,112,42
331.9469,332.41138,64,112,42
332.41138,332.8877,66,112,42
332.8877,333.37643,68,112,42
333.37643,334.9293,70,112,42
334.9293,336.07214,68,112,42
336.215,337.07214,56,112,42
337.07214,337.5007,59,112,42
337.5007,338.7864,64,112,42
338.7864,339.215,64,112,42
339.215,339.64355,63,112,42
339.64355,340.0721,59,112,42
340.0721,341.35785,61,112,42
341.35785,345.0007,62,112,42
345.21497,346.0721,61,112,42
346.0721,346.5007,55,112,42
346.5007,347.35785,56,112,42
347.35785,347.77747,53,112,42
347.7864,350.35782,55,112,42
350.35782,351.21497,53,112,42
351.21497,351.6346,51,112,42
351.64355,352.5007,54,112,42
352.5007,352.92926,55,112,42
352.92926,354.21497,57,112,42
354.21497,355.0721,51,112,42
355.0721,355.50067,53,112,42
355.50067,356.35782,54,112,42
356.35782,356.7864,55,112,42
356.7864,358.0721,57,112,42
358.0721,358.92926,51,112,42
358.92926,359.35782,53,112,42
359.35782,360.2302,54,112,42
360.2302,360.68213,55,112,42
360.68213,362.11157,57,112,42
362.11157,363.61157,51,112,42
363.61157,366.25864,50,112,42
363.61157,366.25864,53,112,42
366.25864,370.90845,46,112,42
366.25864,370.90845,53,112,42
431.6184,432.50076,47,112,42
432.50076,433.37393,42,112,42
433.38312,434.26547,44,112,42
434.26547,435.00076,46,112,42
436.91254,437.79486,47,112,42
437.79486,438.67722,53,112,42
438.67722,439.4125,56,112,42
439.55957,440.8515,54,112,42
440.8515,442.02158,51,112,42
442.16864,443.5187,50,112,42
443.5187,444.7425,49,112,42
444.89633,446.14633,56,112,42
446.14633,447.39633,59,112,42
447.39633,448.64633,58,112,42
448.64633,449.47964,57,112,42
449.47964,449.88763,58,112,42
449.89633,451.14633,56,112,42
451.14633,452.25745,59,112,42
452.39633,453.64633,58,112,42
453.64633,454.47964,57,112,42
454.47964,454.88763,58,112,42
454.89633,455.72964,67,112,42
455.72964,456.14633,61,112,42
456.14633,456.563,62,112,42
456.563,456.97964,66,112,42
456.97964,457.38763,69,112,42
457.39633,458.22964,68,112,42
458.22964,458.64633,66,112,42
458.64633,459.47964,65,112,42
459.47964,459.88763,66,112,42
459.89633,461.14633,51,112,42
461.14633,462.39633,49,112,42
462.39633,463.50742,48,112,42
463.64633,464.75742,36,112,42
464.89633,468.50742,39,112,42
468.64633,471.00742,41,112,42
478.6463,481.1463,62,112,42
481.1463,482.3963,60,112,42
482.3963,483.6463,58,112,42
483.6463,484.8963,60,112,42
484.8963,491.1463,62,112,42
491.1463,492.3963,60,112,42
492.3963,493.6463,58,112,42
493.6463,494.8963,60,112,42
494.8963,501.1463,62,112,42
501.1463,502.3963,60,112,42
502.3963,503.6463,58,112,42
503.6463,504.8963,60,112,42
504.8963,506.26703,62,112,42
506.26703,507.68842,60,112,42
507.68842,509.1642,58,112,42
509.1642,510.52628,60,112,42
510.6987,512.0222,62,112,42
512.0222,513.34576,60,112,42
513.34576,514.6693,58,112,42
514.6693,515.84576,60,112,42
515.9928,517.31635,62,112,42
517.31635,518.6399,60,112,42
518.6399,519.9634,58,112,42
519.9634,521.1399,60,112,42
521.2869,522.6105,61,112,42
522.6105,523.93396,59,112,42
523.93396,525.2575,58,112,42
525.2575,526.43396,57,112,42
526.58105,527.90454,56,112,42
527.90454,529.2281,57,112,42
529.2281,530.55164,58,112,42
530.55164,531.7281,56,112,42
531.8751,533.1251,62,112,42
533.1251,534.3751,60,112,42
534.3751,535.6251,58,112,42
535.6251,536.73627,60,112,42
536.8751,538.1251,62,112,42
538.1251,539.3751,60,112,42
539.3751,540.6251,58,112,42
540.6251,541.73627,60,112,42
541.8751,543.1251,61,112,42
543.1251,544.3751,59,112,42
544.3751,545.6251,58,112,42
545.6251,546.8751,57,112,42
546.8751,548.1251,56,112,42
548.1251,549.3751,57,112,42
549.3751,550.6251,58,112,42
550.6251,551.73627,56,112,42
551.8751,553.07513,55,112,42
553.07513,554.27515,54,112,42
554.27515,555.47516,58,112,42
555.47516,556.5418,56,112,42
556.6751,557.8751,55,112,42
557.8751,559.07513,54,112,42
559.07513,560.27515,58,112,42
560.27515,561.3418,56,112,42
561.47516,562.27515,58,112,42
562.27515,563.47516,59,127,42
563.47516,563.8668,61,112,42
563.8751,564.6751,63,112,42
564.6751,565.8751,61,127,42
565.8751,566.27515,59,112,42
566.27515,567.07513,58,112,42
567.07513,568.27515,59,127,42
568.27515,568.6668,61,112,42
568.6751,569.47516,63,127,42
569.47516,570.6751,61,127,42
570.6751,571.06683,59,112,42
571.07513,571.8751,61,112,42
571.8751,572.6751,63,127,42
572.6751,573.07513,61,112,42
573.07513,573.4668,59,112,42
573.47516,574.27515,61,112,42
574.27515,575.07513,63,127,42
575.07513,575.47516,61,112,42
575.47516,575.8751,59,112,42
575.8751,587.04175,55,112,42
575.8751,587.04175,63,112,42
199.59412,200.0261,39,112,45
199.59412,200.0261,46,112,45
200.03528,200.46727,48,112,45
200.47646,200.90845,43,112,45
200.47646,200.90845,50,112,45
200.91763,201.34962,48,112,45
201.35881,201.7908,39,112,45
201.35881,201.7908,46,112,45
201.79999,202.23198,48,112,45
202.24117,202.67316,43,112,45
202.24117,202.67316,50,112,45
202.68234,203.11432,48,112,45
203.12352,203.5555,39,112,45
203.12352,203.5555,46,112,45
203.5647,203.99667,48,112,45
204.00587,204.43785,43,112,45
204.00587,204.43785,50,112,45
204.44705,204.87903,48,112,45
204.88821,205.3202,46,112,45
210.18233,210.61432,39,112,45
210.18233,210.61432,46,112,45
210.6235,211.0555,48,112,45
211.06468,211.49667,43,112,45
211.06468,211.49667,50,112,45
211.50586,211.93785,48,112,45
211.94704,212.37903,39,112,45
211.94704,212.37903,46,112,45
212.38821,212.82019,48,112,45
212.82939,213.26137,43,112,45
212.82939,213.26137,50,112,45
213.27057,213.70255,48,112,45
213.71175,214.14372,39,112,45
213.71175,214.14372,46,112,45
214.15292,214.5849,48,112,45
214.59409,215.02608,43,112,45
214.59409,215.02608,50,112,45
215.03526,215.46725,48,112,45
215.47644,215.90843,39,112,45
215.47644,215.90843,46,112,45
220.77055,221.20255,43,112,45
220.77055,221.20255,50,112,45
221.21173,221.64372,48,112,45
221.65291,222.0849,39,112,45
221.65291,222.0849,46,112,45
222.09409,222.52608,48,112,45
222.53526,222.96724,43,112,45
222.53526,222.96724,50,112,45
222.97644,223.40842,48,112,45
223.41762,223.8496,39,112,45
223.41762,223.8496,46,112,45
223.8588,224.29077,48,112,45
224.29997,224.73195,43,112,45
224.29997,224.73195,50,112,45
224.74113,225.17313,48,112,45
225.18231,225.6143,39,112,45
225.18231,225.6143,46,112,45
225.62349,226.05548,48,112,45
226.06467,226.49666,43,112,45
226.06467,226.49666,50,112,45
231.35878,231.79077,39,112,45
231.35878,231.79077,46,112,45
231.79996,232.23195,48,112,45
232.24113,232.67311,43,112,45
232.24113,232.67311,50,112,45
232.68231,233.11429,48,112,45
233.12349,233.55547,39,112,45
233.12349,233.55547,46,112,45
233.56467,233.99664,48,112,45
234.00584,234.43782,43,112,45
234.00584,234.43782,50,112,45
234.447,234.879,48,112,45
234.88818,235.32018,39,112,45
234.88818,235.32018,46,112,45
235.32936,235.76135,48,112,45
235.77054,236.20253,43,112,45
235.77054,236.20253,50,112,45
0.441176,0.992646,51,112,0
1.323528,1.874998,55,112,0
2.20588,2.75735,51,112,0
3.088232,3.639702,55,112,0
3.970584,4.5257583,51,112,0
4.865819,5.445762,55,112,0
5.801355,6.04217,51,112,0
6.78099,11.0918665,55,112,0
11.3418665,11.8314495,91,112,0
22.283043,22.834513,51,112,0
23.165394,23.716864,55,112,0
24.047747,24.599216,51,112,0
24.930098,25.481567,55,112,0
25.81245,26.364744,51,112,0
26.700563,27.26705,55,112,0
27.61233,27.843098,51,112,0
28.549013,32.753788,55,112,0
33.003788,33.49337,91,112,0
47.915546,48.136135,86,112,0
48.136135,48.356724,88,112,0
48.356724,48.577312,90,112,0
48.577312,48.7979,91,112,0
48.7979,49.01849,94,112,0
49.01849,49.239075,92,112,0
49.239075,49.459663,91,112,0
49.459663,49.680252,89,112,0
49.680252,49.90084,87,112,0
49.90084,50.12143,86,112,0
50.12143,50.342014,84,112,0
50.342014,50.562603,82,112,0
50.562603,50.78319,80,112,0
50.78319,51.00378,79,112,0
51.00378,51.22437,77,112,0
51.22437,51.444958,78,112,0
51.444958,51.665543,79,112,0
51.665543,51.88613,81,112,0
51.88613,52.10672,82,112,0
52.10672,52.32731,85,112,0
52.32731,52.547897,86,112,0
52.547897,52.768482,90,112,0
52.98907,53.20966,91,112,0
53.20966,53.43025,93,112,0
53.43025,53.650837,94,112,0
53.650837,53.871426,98,112,0
53.871426,54.09201,96,112,0
54.09201,54.3126,94,112,0
54.3126,54.533188,91,112,0
54.533188,54.753777,92,112,0
54.753777,54.974365,96,112,0
54.974365,55.19495,101,112,0
55.19495,55.41554,99,112,0
55.41554,55.636127,98,112,0
55.636127,55.856716,96,112,0
55.856716,56.077305,94,112,0
56.077305,56.297894,92,112,0
56.297894,56.51848,91,112,0
56.51848,56.739067,89,112,0
56.739067,56.959656,87,112,0
56.959656,57.180244,86,112,0
57.180244,57.400833,84,112,0
57.400833,57.62142,82,112,0
57.62142,57.842007,80,112,0
57.842007,58.062595,79,112,0
58.062595,58.283184,78,112,0
58.283184,58.503773,81,112,0
58.503773,58.72436,84,112,0
58.72436,58.944946,87,112,0
58.944946,59.165535,90,112,0
59.165535,59.376934,78,112,0
59.8273,60.04789,78,112,0
60.04789,60.268475,81,112,0
60.268475,60.489063,84,112,0
60.489063,60.700462,90,112,0
61.15083,61.371414,90,112,0
61.371414,61.592003,83,112,0
61.592003,61.81259,81,112,0
61.81259,62.02399,78,112,0
62.474358,62.694942,76,112,0
62.694942,62.91553,79,112,0
62.91553,63.13612,83,112,0
63.13612,63.347515,88,112,0
63.797886,64.01847,87,112,0
64.01847,64.23906,83,112,0
64.23906,64.45965,80,112,0
64.45965,64.67104,75,112,0
65.121414,65.342,74,112,0
65.342,65.56259,80,112,0
65.56259,65.78317,86,112,0
65.78317,66.00376,84,112,0
66.00376,66.22435,82,112,0
66.22435,66.44494,80,112,0
66.44494,66.66553,79,112,0
66.66553,66.886116,77,112,0
66.886116,67.106705,75,112,0
67.106705,67.32729,74,112,0
67.32729,67.54788,72,112,0
67.54788,67.76847,70,112,0
67.76847,67.98906,68,112,0
67.98906,68.21633,67,112,0
68.21633,68.4436,65,112,0
68.4436,68.670876,63,112,0
68.670876,68.90525,62,112,0
68.90525,69.139626,60,112,0
69.139626,69.374,58,112,0
69.374,69.70009,56,112,0
69.70009,70.02617,55,112,0
70.02617,70.33867,53,112,0
70.793434,71.3449,51,112,0
71.67579,72.22726,55,112,0
72.558136,73.10961,51,112,0
73.44049,73.99196,55,112,0
74.322845,74.87431,51,112,0
75.20519,76.82284,55,112,0
77.41107,77.558136,74,112,0
77.41107,77.558136,79,112,0
77.41107,77.558136,86,112,0
78.734604,78.88166,74,112,0
78.734604,78.88166,79,112,0
78.734604,78.88166,86,112,0
81.38166,81.93313,51,112,0
82.26401,82.81548,55,112,0
83.14636,83.69783,51,112,0
84.02872,84.580185,55,112,0
84.911064,85.46254,51,112,0
85.79342,87.411064,55,112,0
87.9993,88.146355,74,112,0
87.9993,88.146355,79,112,0
87.9993,88.146355,86,112,0
89.32283,89.46989,74,112,0
89.32283,89.46989,79,112,0
89.32283,89.46989,86,112,0
91.96988,92.11694,74,112,0
91.96988,92.11694,86,112,0
93.29341,93.44047,65,112,0
93.29341,93.44047,74,112,0
94.616936,95.04893,74,112,0
94.616936,95.04893,86,112,0
95.94047,96.087524,65,112,0
95.94047,96.087524,74,112,0
97.26399,97.41106,74,112,0
97.26399,97.41106,86,112,0
98.587524,98.73458,65,112,0
98.587524,98.73458,74,112,0
99.91105,100.34303,74,112,0
99.91105,100.34303,86,112,0
101.23458,101.38164,65,112,0
101.23458,101.38164,74,112,0
102.558105,102.70516,75,112,0
102.558105,102.70516,87,112,0
103.88164,104.028694,75,112,0
103.88164,104.028694,84,112,0
105.20516,105.637146,68,112,0
105.20516,105.637146,80,112,0
106.528694,106.67575,72,112,0
106.528694,106.67575,81,112,0
107.85222,108.07281,69,112,0
108.07281,108.293396,72,112,0
108.293396,108.513985,78,112,0
108.513985,108.72538,81,112,0
109.17574,109.39633,72,112,0
109.39633,109.61692,75,112,0
109.61692,109.83751,79,112,0
109.83751,110.048904,84,112,0
110.499275,110.719864,75,112,0
110.719864,110.94045,80,112,0
110.94045,111.16104,84,112,0
111.16104,111.37244,87,112,0
111.8228,112.04339,80,112,0
112.04339,112.26398,83,112,0
112.26398,112.484566,87,112,0
112.484566,112.69596,92,112,0
113.14633,113.36692,81,112,0
113.36692,113.58751,83,112,0
113.58751,113.8081,90,112,0
113.8081,114.02869,93,112,0
114.02869,114.24927,95,112,0
114.24927,114.46986,93,112,0
114.46986,114.690445,90,112,0
114.690445,114.91103,83,112,0
114.91103,115.13162,81,112,0
115.13162,115.35221,78,112,0
115.35221,115.59031,71,112,0
115.59031,115.8284,69,112,0
115.8284,116.0665,71,112,0
116.0665,116.30459,78,112,0
116.30459,116.54269,81,112,0
116.54269,116.78078,83,112,0
116.78078,117.0394,81,112,0
117.0394,117.29802,78,112,0
117.29802,117.55664,71,112,0
117.55664,117.81526,69,112,0
117.81526,118.07388,66,112,0
118.07388,118.32173,59,112,0
121.89749,122.359024,59,112,0
121.89749,122.359024,63,112,0
122.359024,122.820564,61,112,0
122.359024,122.820564,64,112,0
122.820564,123.33781,63,112,0
122.820564,123.33781,65,112,0
123.33781,123.85505,64,112,0
123.33781,123.85505,68,112,0
123.85505,124.36151,63,112,0
123.85505,124.36151,69,112,0
124.372284,125.25464,63,112,0
124.372284,125.25464,70,112,0
125.25464,126.1278,62,112,0
125.25464,126.1278,72,112,0
126.13699,126.56898,69,112,0
126.13699,126.872284,63,112,0
126.57816,127.010155,70,112,0
127.01934,128.34286,75,112,0
128.34286,129.22522,73,112,0
129.22522,129.65721,71,112,0
129.6664,130.40169,63,112,0
129.6664,130.54875,70,112,0
130.54875,131.4219,62,112,0
130.54875,131.4311,72,112,0
131.4311,131.87228,69,112,0
131.4311,132.1664,63,112,0
131.87228,132.31346,70,112,0
132.31346,134.73993,75,112,0
134.96051,136.28404,75,112,0
136.28404,137.1664,77,112,0
137.1664,137.59837,78,112,0
137.60756,138.34286,80,112,0
138.48991,139.36308,78,112,0
139.37227,139.80426,80,112,0
139.81345,140.24544,82,112,0
140.25462,141.13698,83,112,0
141.13698,141.57816,82,112,0
141.57816,142.23991,80,112,0
142.23991,142.46051,78,112,0
142.46051,142.90167,77,112,0
142.90167,143.78403,76,112,0
143.78403,144.2252,77,112,0
144.2252,145.40167,84,112,0
145.54874,146.43109,83,112,0
146.43109,146.87227,82,112,0
146.87227,147.53403,80,112,0
147.53403,147.75461,78,112,0
147.75461,148.19579,77,112,0
148.19579,149.07814,76,112,0
149.07814,149.51932,77,112,0
149.51932,150.69579,84,112,0
150.84285,151.7252,77,112,0
151.7252,152.16638,78,112,0
152.16638,153.34285,85,112,0
153.4899,154.37225,78,112,0
154.37225,154.81343,79,112,0
154.81343,155.9899,86,112,0
156.13696,157.01932,79,112,0
157.01932,157.46048,80,112,0
157.46048,158.63696,87,112,0
162.7546,163.63695,80,112,0
162.7546,163.63695,92,112,0
163.63695,164.07812,79,112,0
163.63695,164.07812,91,112,0
164.07812,164.5193,75,112,0
164.07812,164.5193,87,112,0
164.5193,164.96048,77,112,0
164.5193,164.96048,89,112,0
164.96048,165.40166,79,112,0
164.96048,165.40166,91,112,0
165.40166,165.84283,80,112,0
165.40166,165.84283,92,112,0
165.84283,166.72519,82,112,0
165.84283,166.72519,94,112,0
166.72519,167.15717,83,112,0
166.72519,167.15717,95,112,0
168.0487,168.93106,77,112,0
168.0487,168.93106,89,112,0
168.93106,169.37224,75,112,0
168.93106,169.37224,87,112,0
169.37224,169.81342,71,112,0
169.37224,169.81342,83,112,0
169.81342,170.2546,73,112,0
169.81342,170.2546,85,112,0
170.2546,170.69577,75,112,0
170.2546,170.69577,87,112,0
170.69577,171.13695,77,112,0
170.69577,171.13695,89,112,0
171.13695,172.0193,78,112,0
171.13695,172.0193,90,112,0
172.0193,172.45128,80,112,0
172.0193,172.45128,92,112,0
173.34282,174.22517,73,112,0
173.34282,174.22517,85,112,0
174.22517,174.66635,71,112,0
174.22517,174.66635,83,112,0
174.66635,175.10753,67,112,0
174.66635,175.10753,79,112,0
175.10753,175.5487,68,112,0
175.10753,175.5487,80,112,0
175.5487,175.98988,70,112,0
175.5487,175.98988,82,112,0
175.98988,176.30238,71,112,0
175.98988,176.30238,83,112,0
176.43106,176.74356,73,112,0
176.43106,176.74356,85,112,0
176.87224,177.18472,75,112,0
176.87224,177.18472,87,112,0
177.3134,177.46046,77,112,0
177.3134,177.46046,89,112,0
178.63693,179.51929,70,112,0
179.51929,179.96046,68,112,0
179.96046,180.40164,67,112,0
180.40164,180.84282,68,112,0
180.84282,181.284,70,112,0
181.284,181.5965,71,112,0
181.72517,182.03767,73,112,0
182.16634,182.47884,75,112,0
182.60751,182.75458,77,112,0
183.93105,184.8134,58,112,0
184.8134,185.24538,56,112,0
185.47516,185.68655,59,112,0
185.69576,185.90715,61,112,0
185.91634,186.12773,68,112,0
186.13693,186.34833,71,112,0
186.35751,186.56891,73,112,0
186.57811,187.01009,85,112,0
187.90163,188.21413,65,112,0
188.3428,188.6553,66,112,0
188.78398,189.09648,68,112,0
189.22516,189.53766,70,112,0
189.66634,189.97884,71,112,0
190.10751,190.42001,73,112,0
190.54869,190.86119,75,112,0
190.98987,191.30237,77,112,0
191.43105,191.74355,78,112,0
191.87221,192.18471,80,112,0
192.31339,192.62589,82,112,0
192.75456,193.06706,83,112,0
193.19574,193.54991,85,112,0
193.69574,194.04991,87,112,0
194.19934,194.47412,89,112,0
194.58727,195.08507,78,112,0
194.65192,195.08507,86,112,0
194.71657,195.08507,90,112,0
195.24132,195.62079,92,112,0
195.77704,195.95561,94,112,0
198.0299,198.44536,66,112,0
198.0299,198.44536,74,112,0
198.0299,198.44536,78,112,0
198.6074,198.97922,80,112,0
199.12506,199.28635,82,112,0
206.21175,206.87352,74,112,0
206.87352,207.0941,75,112,0
207.0941,207.53528,77,112,0
207.53528,208.41763,79,112,0
208.41763,208.85881,77,112,0
208.85881,209.74115,75,112,0
209.74115,210.06285,74,112,0
210.07204,210.61432,67,112,0
210.10881,210.61432,70,112,0
210.14557,210.61432,75,112,0
210.18233,210.61432,79,112,0
216.79997,217.68233,85,112,0
217.68233,218.1235,84,112,0
218.1235,218.78526,82,112,0
218.78526,219.00586,80,112,0
219.00586,219.44702,79,112,0
219.44702,220.18233,78,112,0
220.32938,220.65108,79,112,0
220.66026,221.20255,74,112,0
220.71541,221.20255,79,112,0
220.77055,221.20255,86,112,0
226.06467,226.94702,62,112,0
226.94702,227.3882,63,112,0
227.3882,227.82938,65,112,0
227.82938,228.27055,67,112,0
228.27055,228.71173,68,112,0
228.71173,229.59407,70,112,0
229.59407,230.47643,72,112,0
230.47643,230.9176,69,112,0
230.9176,231.3496,70,112,0
231.35878,233.78525,75,112,0
234.00584,234.74113,82,112,0
234.00584,234.88818,79,112,0
234.88818,235.76135,78,112,0
234.88818,235.77054,84,112,0
235.77054,236.21172,81,112,0
235.77054,236.50583,79,112,0
236.21172,236.6437,82,112,0
236.6529,239.29994,78,112,0
236.6529,239.29994,87,112,0
239.29994,240.62347,77,112,0
239.29994,240.62347,78,112,0
239.29994,240.62347,85,112,0
240.62347,241.79994,75,112,0
240.62347,241.79994,78,112,0
240.62347,241.79994,83,112,0
241.947,244.59406,73,112,0
241.947,244.59406,78,112,0
241.947,244.59406,82,112,0
244.59406,245.91759,85,112,0
244.59406,247.02052,73,112,0
244.59406,247.02052,77,112,0
245.91759,247.24112,81,112,0
247.24112,249.88817,69,112,0
247.24112,249.88817,77,112,0
247.24112,249.88817,81,112,0
249.88817,252.31464,68,112,0
249.88817,252.31464,76,112,0
249.88817,252.31464,80,112,0
252.53523,255.61427,69,112,0
252.53523,255.61427,76,112,0
252.53523,255.61427,81,112,0
257.82935,258.7117,69,112,0
257.82935,258.7117,72,112,0
257.82935,258.7117,81,112,0
258.7117,259.15286,75,112,0
258.7117,259.15286,79,112,0
258.7117,259.15286,87,112,0
259.15286,260.03522,74,112,0
259.15286,260.03522,77,112,0
259.15286,260.03522,86,112,0
260.03522,260.4672,72,112,0
260.03522,260.4672,75,112,0
260.03522,260.4672,84,112,0
260.4764,260.697,73,112,0
260.697,260.91757,75,112,0
260.91757,261.13815,77,112,0
261.13815,261.35873,80,112,0
261.35873,261.57935,85,112,0
261.57935,261.79993,84,112,0
260.4764,262.0205,83,112,0
261.79993,262.0205,83,112,0
262.0205,262.2411,77,112,0
262.2411,262.4617,75,112,0
262.4617,262.68228,73,112,0
262.68228,262.90286,70,112,0
262.90286,263.11426,71,112,0
263.12344,264.0058,69,112,0
263.12344,264.0058,72,112,0
263.12344,264.0058,81,112,0
264.0058,264.447,75,112,0
264.0058,264.447,79,112,0
264.0058,264.447,87,112,0
264.447,265.32935,74,112,0
264.447,265.32935,77,112,0
264.447,265.32935,86,112,0
265.32935,265.76132,72,112,0
265.32935,265.76132,75,112,0
265.32935,265.76132,84,112,0
265.7705,265.9911,73,112,0
265.9911,266.21167,75,112,0
266.21167,266.43228,77,112,0
266.43228,266.65286,80,112,0
266.65286,266.87344,85,112,0
266.87344,267.09402,84,112,0
265.7705,267.31464,83,112,0
267.09402,267.31464,83,112,0
267.31464,267.53522,77,112,0
267.53522,267.7558,75,112,0
267.7558,267.97638,73,112,0
267.97638,268.197,70,112,0
268.197,268.4084,71,112,0
268.41757,269.29993,71,112,0
268.41757,269.29993,83,112,0
269.29993,269.7411,81,112,0
269.29993,269.7411,93,112,0
269.7411,270.62344,80,112,0
269.7411,270.62344,92,112,0
270.62344,271.06464,78,112,0
270.62344,271.06464,90,112,0
271.06464,272.38815,77,112,0
271.06464,272.38815,89,112,0
272.38815,273.2705,74,112,0
272.38815,273.2705,86,112,0
273.2705,273.70248,72,112,0
273.2705,273.70248,84,112,0
273.71167,274.59402,71,112,0
273.71167,274.59402,83,112,0
274.59402,275.03522,79,112,0
274.59402,275.03522,91,112,0
275.03522,275.91757,77,112,0
275.03522,275.91757,89,112,0
275.91757,276.35873,77,112,0
275.91757,276.35873,89,112,0
276.35873,277.2411,74,112,0
276.35873,277.2411,86,112,0
277.2411,277.68225,72,112,0
277.2411,277.68225,84,112,0
277.68225,278.12344,65,112,0
277.68225,278.12344,77,112,0
278.12344,278.5646,67,112,0
278.12344,278.5646,79,112,0
278.5646,278.9966,68,112,0
278.5646,278.9966,80,112,0
279.0058,279.88815,71,112,0
279.0058,279.88815,83,112,0
279.88815,280.3293,81,112,0
279.88815,280.3293,93,112,0
280.3293,281.21167,80,112,0
280.3293,281.21167,92,112,0
281.21167,281.65283,78,112,0
281.21167,281.65283,90,112,0
281.65283,282.97638,77,112,0
281.65283,282.97638,89,112,0
282.97638,283.85873,74,112,0
282.97638,283.85873,86,112,0
283.85873,284.2907,72,112,0
283.85873,284.2907,84,112,0
284.2999,285.18225,71,112,0
284.2999,285.18225,83,112,0
285.18225,285.62344,79,112,0
285.18225,285.62344,91,112,0
285.62344,286.50577,77,112,0
285.62344,286.50577,89,112,0
286.50577,286.94696,76,112,0
286.50577,286.94696,88,112,0
286.94696,287.8293,74,112,0
286.94696,287.8293,86,112,0
287.8293,288.27048,72,112,0
287.8293,288.27048,84,112,0
288.27048,288.71167,65,112,0
288.27048,288.71167,77,112,0
288.71167,289.15283,69,112,0
288.71167,289.15283,81,112,0
289.15283,289.59402,70,112,0
289.15283,289.59402,82,112,0
289.59402,290.026,72,112,0
289.59402,290.026,84,112,0
291.7999,292.24106,80,112,0
291.7999,292.24106,92,112,0
292.24106,293.1234,79,112,0
292.24106,293.1234,91,112,0
293.1234,293.5646,77,112,0
293.1234,293.5646,89,112,0
293.5646,294.44696,75,112,0
293.5646,294.44696,87,112,0
294.44696,294.87894,74,112,0
294.44696,294.87894,86,112,0
297.094,297.5352,82,112,0
297.094,297.5352,94,112,0
297.5352,298.41754,81,112,0
297.5352,298.41754,93,112,0
298.41754,298.8587,79,112,0
298.41754,298.8587,91,112,0
298.8587,299.74106,77,112,0
298.8587,299.74106,89,112,0
299.74106,300.17303,76,112,0
299.74106,300.17303,88,112,0
302.38812,302.82928,84,112,0
302.38812,302.82928,96,112,0
302.82928,303.71164,83,112,0
302.82928,303.71164,95,112,0
303.71164,304.15283,81,112,0
303.71164,304.15283,93,112,0
304.15283,305.0352,79,112,0
304.15283,305.0352,91,112,0
305.0352,305.46716,78,112,0
305.0352,305.46716,90,112,0
305.69693,305.90833,60,112,0
305.9175,306.12894,63,112,0
306.13812,306.34952,67,112,0
306.3587,306.5701,72,112,0
306.57928,306.79068,60,112,0
307.02048,307.23187,61,112,0
307.24106,307.45245,64,112,0
307.46164,307.67303,69,112,0
307.68222,307.89362,73,112,0
307.90283,308.11423,70,112,0
308.344,308.5554,62,112,0
308.56458,308.77597,65,112,0
308.78516,308.99655,70,112,0
309.00577,309.21716,74,112,0
309.22635,309.43774,62,112,0
309.6675,309.8789,61,112,0
309.88812,310.09952,64,112,0
310.1087,310.3201,69,112,0
310.32928,310.54068,73,112,0
310.54987,310.76126,61,112,0
310.99106,311.20245,60,112,0
311.21164,311.42303,63,112,0
311.43222,311.64362,67,112,0
311.6528,311.8642,72,112,0
311.8734,312.0848,60,112,0
312.31458,312.52597,61,112,0
312.53516,312.74655,64,112,0
312.75577,312.96716,69,112,0
312.97635,313.18774,73,112,0
313.19693,313.40833,70,112,0
313.6381,313.8495,62,112,0
313.8587,314.0701,65,112,0
314.07928,314.29068,70,112,0
314.29987,314.51126,74,112,0
314.52045,314.73184,62,112,0
314.96164,315.17303,62,112,0
315.18222,315.39362,65,112,0
315.4028,315.6142,70,112,0
315.62338,315.8348,74,112,0
315.844,316.0554,62,112,0
316.06458,316.37708,73,112,0
316.50574,316.81824,75,112,0
316.94693,317.25943,77,112,0
317.3881,317.7006,79,112,0
317.82928,318.14178,80,112,0
318.27045,318.4175,82,112,0
318.71164,320.03516,84,112,0
318.71164,320.03516,96,112,0
320.03516,320.9175,82,112,0
320.03516,320.9175,94,112,0
320.9175,321.3495,77,112,0
320.9175,321.3495,89,112,0
321.35867,322.68222,79,112,0
321.35867,322.68222,91,112,0
322.68222,323.85867,77,112,0
322.68222,323.85867,89,112,0
324.44693,324.65833,72,112,0
324.6675,324.8789,77,112,0
324.8881,325.0995,80,112,0
325.10867,325.32007,84,112,0
325.77045,325.98184,70,112,0
325.99103,326.20242,74,112,0
326.2116,326.423,77,112,0
326.43222,326.64362,82,112,0
327.09396,327.30536,71,112,0
327.31458,327.52597,75,112,0
327.53516,327.74655,79,112,0
327.75574,327.96713,83,112,0
328.4175,328.6289,72,112,0
328.6381,328.8495,75,112,0
328.85867,329.07007,77,112,0
329.07925,329.29065,84,112,0
329.74103,329.95242,72,112,0
329.9616,330.173,75,112,0
330.1822,330.39362,78,112,0
330.4028,330.6142,84,112,0
331.06454,331.27594,73,112,0
331.28516,331.49655,78,112,0
331.50574,331.71713,83,112,0
331.72632,331.9377,85,112,0
332.41138,332.6381,75,112,0
332.648,332.87762,80,112,0
332.8877,333.1202,83,112,0
333.13046,333.36612,87,112,0
333.87988,334.126,76,112,0
334.13678,334.38632,78,112,0
334.39728,334.65027,82,112,0
334.6614,334.91812,88,112,0
335.35785,335.5632,52,112,0
335.35785,335.5632,56,112,0
335.57214,335.7775,59,112,0
335.7864,335.99176,64,112,0
336.0007,336.20605,59,112,0
336.64355,336.8489,56,112,0
336.64355,336.8489,59,112,0
336.85785,337.0632,64,112,0
337.07214,337.2775,68,112,0
337.2864,337.49176,64,112,0
337.92926,338.13464,59,112,0
337.92926,338.13464,61,112,0
338.14355,338.3489,68,112,0
338.35785,338.5632,71,112,0
338.57214,338.7775,68,112,0
339.215,339.42035,59,112,0
339.215,339.42035,64,112,0
339.42926,339.63464,68,112,0
339.64355,339.8489,71,112,0
339.85785,340.0632,68,112,0
340.5007,340.70605,59,112,0
340.5007,340.70605,61,112,0
340.715,340.92035,68,112,0
340.92926,341.1346,71,112,0
341.14355,341.3489,68,112,0
341.7864,341.99176,59,112,0
341.7864,341.99176,62,112,0
342.0007,342.20605,68,112,0
342.215,342.42035,71,112,0
342.42926,342.6346,68,112,0
342.85785,343.0632,62,112,0
343.0721,343.2775,70,112,0
343.2864,343.49176,62,112,0
343.5007,343.70605,58,112,0
343.715,343.92035,62,112,0
344.14355,344.3489,62,112,0
344.35785,344.5632,70,112,0
344.5721,344.77747,62,112,0
344.7864,344.99176,58,112,0
345.0007,345.20605,62,112,0
345.42926,345.6346,61,112,0
345.64355,345.8489,67,112,0
345.85785,346.0632,61,112,0
346.0721,346.27747,55,112,0
346.2864,346.49176,61,112,0
346.71497,346.92035,62,112,0
346.92926,347.1346,65,112,0
347.14355,347.3489,62,112,0
347.35785,347.5632,56,112,0
347.5721,347.77747,62,112,0
348.0007,348.20605,58,112,0
348.21497,348.42035,64,112,0
348.42926,348.6346,58,112,0
348.64355,348.8489,55,112,0
348.85782,349.0632,64,112,0
349.2864,349.49176,58,112,0
349.5007,349.70605,63,112,0
349.71497,349.92032,58,112,0
349.92926,350.1346,55,112,0
350.14355,350.3489,58,112,0
350.5721,350.77747,62,112,0
350.7864,350.99176,57,112,0
351.0007,351.20605,53,112,0
351.21497,351.42032,51,112,0
351.42926,351.6346,60,112,0
351.64355,351.8489,49,112,0
351.64355,351.8489,49,112,0
351.85782,352.0632,58,112,0
352.0721,352.27747,61,112,0
352.2864,352.49176,58,112,0
352.5007,352.70605,49,112,0
352.71497,352.92032,58,112,0
352.92926,353.1346,50,112,0
352.92926,353.1346,50,112,0
353.14355,353.3489,57,112,0
353.35782,353.56317,62,112,0
353.5721,353.77747,57,112,0
353.7864,353.99176,50,112,0
354.00067,354.20605,62,112,0
354.21497,354.42032,51,112,0
354.21497,354.42032,51,112,0
354.42926,354.6346,53,112,0
354.64355,354.8489,63,112,0
355.50067,355.70605,49,112,0
355.50067,355.70605,49,112,0
355.71497,355.92032,58,112,0
355.92926,356.1346,61,112,0
356.14355,356.3489,58,112,0
356.35782,356.56317,49,112,0
356.5721,356.77747,58,112,0
356.7864,356.99176,50,112,0
356.7864,356.99176,50,112,0
357.00067,357.20602,57,112,0
357.21497,357.42032,62,112,0
357.42926,357.6346,57,112,0
357.64352,357.8489,50,112,0
357.85782,358.06317,62,112,0
358.0721,358.27747,51,112,0
358.0721,358.27747,51,112,0
358.2864,358.49176,53,112,0
358.50067,358.70602,63,112,0
359.35782,359.56317,49,112,0
359.35782,359.56317,49,112,0
359.5721,359.77985,58,112,0
359.7889,359.99905,61,112,0
360.00824,360.2209,58,112,0
360.2302,360.4453,49,112,0
360.45477,360.67258,58,112,0
360.68213,360.9033,50,112,0
360.68213,360.9033,50,112,0
360.9129,361.13684,57,112,0
361.1466,361.3733,62,112,0
361.3832,361.61282,57,112,0
361.62292,361.85544,50,112,0
361.8657,362.10135,62,112,0
362.11157,362.35117,51,112,0
362.11157,362.35117,51,112,0
362.36157,362.60117,53,112,0
362.61157,362.85117,63,112,0
371.91885,372.3385,58,112,0
372.13315,372.3385,51,112,0
372.34744,372.5528,63,112,0
372.34744,372.7671,60,112,0
372.5617,372.7671,51,112,0
372.776,373.19565,62,112,0
372.9903,373.19565,55,112,0
373.20456,373.40994,67,112,0
373.20456,373.6242,60,112,0
373.41885,373.6242,55,112,0
373.63315,374.0528,58,112,0
373.84744,374.0528,51,112,0
374.0617,374.26706,63,112,0
374.0617,374.48135,60,112,0
374.276,374.48135,51,112,0
374.4903,374.90994,62,112,0
374.70456,374.90994,55,112,0
374.91885,375.1242,67,112,0
374.91885,375.3385,60,112,0
375.13315,375.3385,55,112,0
375.34744,375.76706,58,112,0
375.5617,375.76706,51,112,0
375.776,375.98135,63,112,0
375.776,376.19565,60,112,0
375.9903,376.19565,51,112,0
376.20456,376.6242,62,112,0
376.41885,376.6242,55,112,0
376.63315,376.8385,67,112,0
376.63315,377.0528,60,112,0
376.84744,377.0528,55,112,0
377.0617,377.26706,58,112,0
377.276,377.48135,50,112,0
377.4903,377.69565,55,112,0
377.70456,377.9099,58,112,0
377.91885,378.1242,62,112,0
378.13315,378.3385,67,112,0
378.3474,378.5528,70,112,0
378.5617,378.76706,74,112,0
378.776,378.98135,79,112,0
378.9903,379.19565,82,112,0
379.20456,379.4099,86,112,0
379.41885,379.6242,91,112,0
379.63315,380.0528,94,127,0
382.20456,382.6242,58,112,0
382.41885,382.6242,51,112,0
382.63315,382.8385,63,112,0
382.63315,383.05276,60,112,0
382.8474,383.05276,51,112,0
383.0617,383.48135,62,112,0
383.276,383.48135,55,112,0
383.49026,383.69565,67,112,0
383.49026,383.9099,60,112,0
383.70456,383.9099,55,112,0
383.91885,384.3385,58,112,0
384.13315,384.3385,51,112,0
384.3474,384.55276,63,112,0
384.3474,384.76706,60,112,0
384.5617,384.76706,51,112,0
384.776,385.19565,62,112,0
384.99026,385.19565,55,112,0
385.20456,385.4099,67,112,0
385.20456,385.6242,60,112,0
385.41885,385.6242,55,112,0
385.63315,386.05276,58,112,0
385.8474,386.05276,51,112,0
386.0617,386.26706,63,112,0
386.0617,386.48135,60,112,0
386.276,386.48135,51,112,0
386.49026,386.9099,62,112,0
386.70456,386.9099,55,112,0
386.91885,387.1242,67,112,0
386.91885,387.3385,60,112,0
387.13312,387.3385,55,112,0
387.3474,387.55276,58,112,0
387.5617,387.76706,50,112,0
387.776,387.98135,55,112,0
387.99026,388.19562,58,112,0
388.20456,388.4099,62,112,0
388.41885,388.6242,67,112,0
388.63312,388.8385,70,112,0
388.8474,389.05276,74,112,0
389.0617,389.26706,79,112,0
389.276,389.48135,82,112,0
389.49026,389.69562,86,112,0
389.70456,389.9099,91,112,0
389.91885,390.3385,94,112,0
389.91885,390.3385,98,112,0
396.77597,396.99026,86,112,0
396.99026,397.20456,88,112,0
397.20456,397.41882,90,112,0
397.41882,397.63312,91,112,0
397.63312,397.8474,94,112,0
397.8474,398.0617,92,112,0
398.0617,398.27597,91,112,0
398.27597,398.49026,89,112,0
398.49026,398.70456,87,112,0
398.70456,398.91882,86,112,0
398.91882,399.13312,84,112,0
399.13312,399.3474,82,112,0
399.3474,399.56168,80,112,0
399.56168,399.77597,79,112,0
399.77597,399.99026,77,112,0
399.99026,400.20456,78,112,0
400.20456,400.41882,79,112,0
400.41882,400.63312,81,112,0
400.63312,400.8474,82,112,0
400.8474,401.06168,85,112,0
401.06168,401.27597,86,112,0
401.27597,401.49026,90,112,0
401.70456,401.91882,91,112,0
401.91882,402.13312,93,112,0
402.13312,402.3474,94,112,0
402.3474,402.56168,98,112,0
402.56168,402.77597,96,112,0
402.77597,402.99026,94,112,0
402.99026,403.20456,91,112,0
403.20456,403.41882,92,112,0
403.41882,403.63312,96,112,0
403.63312,403.8474,101,112,0
403.8474,404.06168,99,112,0
404.06168,404.27597,98,112,0
404.27597,404.49026,96,112,0
404.49026,404.70453,94,112,0
404.70453,404.91882,92,112,0
404.91882,405.13312,91,112,0
405.13312,405.3474,89,112,0
405.3474,405.56168,87,112,0
405.56168,405.77597,86,112,0
405.77597,405.99026,84,112,0
405.99026,406.20453,82,112,0
406.20453,406.41882,80,112,0
406.41882,406.63312,79,112,0
406.63312,406.8474,78,112,0
406.8474,407.06168,81,112,0
407.06168,407.27597,84,112,0
407.27597,407.49026,87,112,0
407.49026,407.70453,90,112,0
407.70453,407.9099,78,112,0
408.34738,408.56168,78,112,0
408.56168,408.77597,81,112,0
408.77597,408.99026,84,112,0
408.99026,409.19562,90,112,0
409.63312,409.84738,90,112,0
409.84738,410.06168,83,112,0
410.06168,410.27597,81,112,0
410.27597,410.48132,78,112,0
410.91882,411.13312,76,112,0
411.13312,411.34738,80,112,0
411.34738,411.56168,83,112,0
411.56168,411.76703,88,112,0
412.20453,412.41882,87,112,0
412.41882,412.63312,83,112,0
412.63312,412.84738,79,112,0
412.84738,413.05273,75,112,0
413.49023,413.70453,74,112,0
413.70453,413.91882,78,112,0
413.91882,414.13312,83,112,0
414.13312,414.33847,86,112,0
414.77597,414.99023,86,112,0
414.99023,415.20453,82,112,0
415.20453,415.41882,77,112,0
415.41882,415.62418,74,112,0
416.06168,416.27597,73,112,0
416.27597,416.49023,76,112,0
416.49023,416.70453,82,112,0
416.70453,416.90988,85,112,0
417.34738,417.56168,83,112,0
417.56168,417.77597,81,112,0
417.77597,417.99023,76,112,0
417.99023,418.1956,71,112,0
418.6331,418.84738,71,112,0
418.84738,419.06168,75,112,0
419.06168,419.27597,80,112,0
419.27597,419.48132,83,112,0
419.91882,420.1331,83,112,0
420.1331,420.34738,79,112,0
420.34738,420.56168,74,112,0
420.56168,420.77597,71,112,0
420.77597,420.99023,67,112,0
420.99023,421.20453,62,112,0
421.20453,421.41882,71,112,0
421.41882,421.6331,67,112,0
421.6331,421.84738,62,112,0
421.84738,422.06168,59,112,0
424.6243,424.84488,54,112,0
424.84488,425.0671,55,112,0
425.0671,425.29102,57,112,0
425.29102,425.51828,59,112,0
425.51828,425.74728,60,112,0
425.74728,425.96844,61,112,0
425.97806,426.3101,62,112,0
426.44867,426.78757,63,112,0
426.9287,427.2751,64,112,0
427.41852,427.77365,66,112,0
427.92197,428.28662,67,112,0
428.43936,428.6148,69,112,0
428.97134,429.8537,63,112,0
428.97134,429.8537,70,112,0
429.8537,430.73605,62,112,0
429.8537,430.73605,72,112,0
430.73605,431.17725,69,112,0
430.73605,431.47134,63,112,0
431.17725,431.6184,70,112,0
431.6184,432.94193,75,112,0
432.94193,433.82428,73,112,0
433.82428,434.2563,71,112,0
434.26547,435.14783,63,112,0
434.26547,435.14783,70,112,0
435.14783,436.03018,62,112,0
435.14783,436.03018,72,112,0
436.03018,436.47134,69,112,0
436.03018,436.76547,63,112,0
436.47134,436.90332,70,112,0
436.91254,439.339,75,112,0
439.55957,440.8515,75,112,0
440.8515,441.72748,77,112,0
441.72748,442.16864,78,112,0
442.16864,443.06415,80,112,0
443.06415,443.97324,78,112,0
443.97324,444.43478,80,112,0
444.43478,444.88672,82,112,0
444.89633,445.72964,83,112,0
444.89633,445.72964,95,112,0
445.72964,446.14633,82,112,0
445.72964,446.14633,94,112,0
446.14633,446.77133,80,112,0
446.14633,446.77133,92,112,0
446.77133,446.97964,78,112,0
446.77133,446.97964,90,112,0
446.97964,447.39633,77,112,0
446.97964,447.39633,89,112,0
447.39633,448.22964,75,112,0
447.39633,448.22964,87,112,0
448.22964,448.64633,73,112,0
448.22964,448.64633,85,112,0
448.64633,449.47964,71,112,0
448.64633,449.47964,83,112,0
449.47964,449.88763,73,112,0
449.47964,449.88763,85,112,0
449.89633,450.72964,83,112,0
449.89633,450.72964,95,112,0
450.72964,451.14633,82,112,0
450.72964,451.14633,94,112,0
451.14633,451.77133,80,112,0
451.14633,451.77133,92,112,0
451.77133,451.97964,78,112,0
451.77133,451.97964,90,112,0
451.97964,452.39633,77,112,0
451.97964,452.39633,89,112,0
452.39633,453.22964,75,112,0
452.39633,453.22964,87,112,0
453.22964,453.64633,73,112,0
453.22964,453.64633,85,112,0
453.64633,454.47964,71,112,0
453.64633,454.47964,83,112,0
454.47964,454.88763,73,112,0
454.47964,454.88763,85,112,0
455.10464,455.30432,61,112,0
455.313,455.51263,64,112,0
455.52133,455.72098,67,112,0
455.72964,455.92932,61,112,0
455.938,456.13763,64,112,0
456.35464,456.55432,62,112,0
456.563,456.76263,66,112,0
456.77133,456.97098,69,112,0
456.97964,457.17932,62,112,0
457.188,457.38763,66,112,0
457.60464,457.80432,61,112,0
457.813,458.01263,68,112,0
458.02133,458.22098,70,112,0
458.22964,458.42932,61,112,0
458.438,458.63763,66,112,0
458.85464,459.05432,61,112,0
459.063,459.26263,65,112,0
459.27133,459.47098,69,112,0
459.47964,459.67932,61,112,0
459.688,459.88763,65,112,0
459.89633,460.72964,73,112,0
459.89633,460.72964,85,112,0
460.72964,461.14633,72,112,0
460.72964,461.14633,84,112,0
461.14633,461.77133,70,112,0
461.14633,461.77133,82,112,0
461.77133,461.97964,68,112,0
461.77133,461.97964,80,112,0
461.97964,462.39633,67,112,0
461.97964,462.39633,79,112,0
462.39633,463.22964,66,112,0
462.39633,463.22964,78,112,0
463.22964,463.64633,67,112,0
463.22964,463.64633,79,112,0
463.64633,464.063,78,112,0
463.64633,464.063,90,112,0
464.063,464.47964,76,112,0
464.063,464.47964,88,112,0
464.47964,464.88763,74,112,0
464.47964,464.88763,86,112,0
464.89633,465.72964,73,112,0
464.89633,465.72964,85,112,0
465.72964,466.13763,70,112,0
465.72964,466.13763,82,112,0
466.14633,466.34598,71,127,0
466.14633,466.34598,83,127,0
466.35464,466.5543,78,112,0
466.563,466.76263,75,112,0
466.77133,466.97098,71,112,0
466.97964,467.1793,66,112,0
467.188,467.38763,63,112,0
467.39633,467.60464,71,112,0
467.39633,467.60464,71,112,0
467.60464,467.813,66,112,0
467.813,468.02133,63,112,0
468.02133,468.22964,59,112,0
468.22964,468.4293,70,112,0
468.22964,468.4293,70,112,0
468.438,468.63763,58,112,0
468.64633,468.84598,69,112,0
468.64633,468.84598,69,112,0
468.85464,469.0543,63,112,0
469.063,469.26263,59,112,0
469.27133,469.47098,57,112,0
469.47964,469.6793,51,112,0
469.688,469.88763,47,112,0
469.89633,470.09598,47,112,0
470.10464,470.3043,51,112,0
470.313,470.51263,56,112,0
470.52133,470.72098,59,112,0
470.72964,470.9293,63,112,0
470.938,471.13763,68,112,0
471.1463,471.34598,62,112,0
471.35464,471.5543,68,112,0
471.563,471.76263,72,112,0
471.7713,471.97098,74,112,0
471.97964,472.1793,80,112,0
472.188,472.38763,84,112,0
472.3963,472.59598,86,112,0
472.60464,472.8043,84,112,0
472.813,473.01263,80,112,0
473.0213,473.22098,74,112,0
473.22964,473.4293,72,112,0
473.438,473.63763,68,112,0
473.6463,473.84598,62,112,0
473.85464,474.0543,60,112,0
474.063,474.26263,56,112,0
474.2713,474.47098,50,112,0
474.47964,474.6793,56,112,0
474.688,474.88763,60,112,0
474.8963,475.09598,50,112,0
475.10464,475.3043,57,112,0
475.313,475.51263,60,112,0
475.5213,475.72098,62,112,0
475.72964,475.9293,69,112,0
475.938,476.13763,72,112,0
476.1463,476.34598,74,112,0
476.35464,476.5543,72,112,0
476.563,476.76263,69,112,0
476.7713,476.97098,62,112,0
476.97964,477.1793,69,112,0
477.188,477.38763,72,112,0
477.3963,477.59598,74,112,0
477.60464,477.8043,81,112,0
477.813,478.01263,84,112,0
478.0213,478.22098,86,112,0
478.22964,478.4293,93,112,0
478.438,478.63763,96,112,0
478.6463,479.0543,98,112,0
484.8963,485.313,70,112,0
484.8963,485.313,74,112,0
485.313,485.72964,66,112,0
485.313,485.72964,72,112,0
485.72964,486.1463,62,112,0
485.72964,486.1463,70,112,0
486.1463,486.563,66,112,0
486.1463,486.563,72,112,0
486.563,486.97964,70,112,0
486.563,486.97964,74,112,0
486.97964,487.3963,66,112,0
486.97964,487.3963,72,112,0
487.3963,487.813,62,112,0
487.3963,487.813,70,112,0
487.813,488.22964,66,112,0
487.813,488.22964,72,112,0
488.22964,488.6463,70,112,0
488.22964,488.6463,74,112,0
488.6463,489.063,66,112,0
488.6463,489.063,72,112,0
489.063,489.47964,62,112,0
489.063,489.47964,70,112,0
489.47964,489.74875,66,112,0
489.47964,489.74875,72,112,0
489.75742,490.3043,66,112,0
489.82687,490.3043,70,112,0
489.8963,490.3043,74,112,0
494.8963,495.313,70,112,0
494.8963,495.313,74,112,0
495.313,495.72964,67,112,0
495.313,495.72964,72,112,0
495.72964,496.1463,64,112,0
495.72964,496.1463,70,112,0
496.1463,496.56296,67,112,0
496.1463,496.56296,72,112,0
496.56296,496.97964,70,112,0
496.56296,496.97964,74,112,0
496.97964,497.3963,67,112,0
496.97964,497.3963,72,112,0
497.3963,497.81296,64,112,0
497.3963,497.81296,70,112,0
497.81296,498.22964,67,112,0
497.81296,498.22964,72,112,0
498.22964,498.6463,70,112,0
498.22964,498.6463,74,112,0
498.6463,499.06296,67,112,0
498.6463,499.06296,72,112,0
499.06296,499.47964,64,112,0
499.06296,499.47964,70,112,0
499.47964,499.75742,67,112,0
499.47964,499.75742,72,112,0
499.75742,500.3043,68,112,0
499.82687,500.3043,70,112,0
499.8963,500.3043,74,112,0
502.81296,503.22964,70,112,0
502.81296,503.22964,74,112,0
503.22964,503.6463,67,112,0
503.22964,503.6463,72,112,0
503.6463,504.0543,64,112,0
503.6463,504.0543,70,112,0
508.17227,508.6642,70,112,0
508.17227,508.6642,74,112,0
508.6642,509.1642,72,112,0
509.1642,509.6538,65,112,0
509.1642,509.6538,70,112,0
512.0222,512.23364,63,112,0
512.2428,512.4542,67,112,0
512.4634,512.6748,70,112,0
512.684,512.8954,67,112,0
512.9046,513.11597,63,112,0
513.1252,513.33655,58,112,0
517.31635,517.5277,63,112,0
517.5369,517.74835,67,112,0
517.7575,517.96893,70,112,0
517.9781,518.1895,67,112,0
518.19867,518.4101,63,112,0
518.41925,518.6307,58,112,0
521.94867,522.16925,65,112,0
521.94867,522.16925,77,112,0
522.16925,522.6105,66,112,0
522.16925,522.6105,78,112,0
522.6105,523.4928,68,112,0
522.6105,523.4928,80,112,0
523.4928,523.9248,69,112,0
523.4928,523.9248,81,112,0
524.59576,524.81635,68,112,0
524.59576,524.81635,80,112,0
524.81635,525.2575,69,112,0
524.81635,525.2575,81,112,0
525.2575,526.13983,70,112,0
525.2575,526.13983,82,112,0
526.13983,526.57184,71,112,0
526.13983,526.57184,83,112,0
527.2428,527.4634,70,112,0
527.2428,527.4634,82,112,0
527.4634,527.90454,71,112,0
527.4634,527.90454,83,112,0
527.90454,528.56635,72,112,0
527.90454,528.56635,84,112,0
528.56635,528.7869,74,112,0
528.56635,528.7869,86,112,0
528.7869,529.2281,75,112,0
528.7869,529.2281,87,112,0
529.2281,529.88983,76,112,0
529.2281,529.88983,88,112,0
529.88983,530.1104,78,112,0
529.88983,530.1104,90,112,0
530.1104,530.55164,80,112,0
530.1104,530.55164,92,112,0
530.55164,531.2134,82,112,0
530.55164,531.2134,94,112,0
531.2134,531.43396,84,112,0
531.2134,531.43396,96,112,0
531.43396,531.86597,86,112,0
531.43396,531.86597,98,112,0
533.1251,533.3248,63,112,0
533.3335,533.53314,67,112,0
533.5418,533.74146,70,112,0
533.7501,533.94977,67,112,0
533.9585,534.15814,63,112,0
534.1668,534.36646,58,112,0
538.1251,538.32477,63,112,0
538.3335,538.53314,67,112,0
538.5418,538.74146,70,112,0
538.7501,538.94977,67,112,0
538.9585,539.15814,63,112,0
539.1668,539.36646,58,112,0
542.5001,542.7085,65,112,0
542.5001,542.7085,77,112,0
542.7085,543.1251,66,112,0
542.7085,543.1251,78,112,0
543.1251,543.9585,68,112,0
543.1251,543.9585,80,112,0
543.9585,544.36646,69,112,0
543.9585,544.36646,81,112,0
545.0001,545.2085,68,112,0
545.0001,545.2085,80,112,0
545.2085,545.6251,69,112,0
545.2085,545.6251,81,112,0
545.6251,546.4585,70,112,0
545.6251,546.4585,82,112,0
546.4585,546.86646,71,112,0
546.4585,546.86646,83,112,0
547.5001,547.7085,70,112,0
547.5001,547.7085,82,112,0
547.7085,548.1251,71,112,0
547.7085,548.1251,83,112,0
548.1251,548.7501,72,112,0
548.1251,548.7501,84,112,0
548.7501,548.9585,74,112,0
548.7501,548.9585,86,112,0
548.9585,549.3751,75,112,0
548.9585,549.3751,87,112,0
549.3751,550.2085,77,112,0
549.3751,550.2085,89,112,0
550.2085,550.6251,78,112,0
550.2085,550.6251,90,112,0
550.6251,551.03314,82,112,0
550.6251,551.03314,94,112,0
552.47516,552.6668,70,112,0
552.6751,552.8668,64,112,0
552.8751,553.06683,58,112,0
553.6751,553.8668,71,112,0
553.8751,554.06683,66,112,0
554.07513,554.2668,59,112,0
554.8751,555.06683,73,112,0
555.07513,555.2668,68,112,0
555.27515,555.4668,61,112,0
556.07513,556.2668,70,112,0
556.27515,556.4668,64,112,0
556.47516,556.6668,58,112,0
557.27515,557.4668,70,112,0
557.47516,557.6668,64,112,0
557.6751,557.8668,58,112,0
558.47516,558.6668,71,112,0
558.6751,558.8668,66,112,0
558.8751,559.06683,59,112,0
559.6751,559.8668,73,112,0
559.8751,560.06683,68,112,0
560.07513,560.2668,61,112,0
560.8751,561.06683,68,112,0
561.07513,561.2668,63,112,0
561.27515,561.4668,56,112,0
562.07513,562.2668,73,112,0
562.27515,562.4668,64,112,0
562.47516,562.6668,59,112,0
563.27515,563.4668,71,112,0
563.47516,563.6668,65,112,0
563.6751,563.8668,61,112,0
564.47516,564.6668,70,112,0
564.6751,564.8668,67,112,0
564.8751,565.06683,63,112,0
565.6751,565.8668,71,112,0
565.8751,566.06683,66,112,0
566.07513,566.2668,59,112,0
566.8751,567.06683,73,112,0
567.07513,567.2668,64,112,0
567.27515,567.4668,59,112,0
568.07513,568.2668,71,112,0
568.27515,568.4668,65,112,0
568.47516,568.6668,61,112,0
569.27515,569.4668,70,112,0
569.47516,569.6668,67,112,0
569.6751,569.8668,63,112,0
570.47516,570.6668,71,112,0
570.6751,570.8668,66,112,0
570.8751,571.06683,59,112,0
571.6751,571.8668,70,112,0
571.8751,572.06683,67,112,0
572.07513,572.2668,63,112,0
572.8751,573.06683,71,112,0
573.07513,573.2668,66,112,0
573.27515,573.4668,59,112,0
574.07513,574.2668,70,112,0
574.27515,574.4668,67,112,0
574.47516,574.6668,63,112,0
575.27515,575.4668,71,112,0
575.47516,575.6668,66,112,0
575.6751,575.8668,59,112,0
576.47516,576.6668,55,112,0
576.6751,576.8668,58,112,0
576.8751,577.06683,63,112,0
577.07513,577.2668,67,112,0
577.27515,577.4668,70,112,0
577.47516,577.6668,75,112,0
577.6751,577.8668,79,112,0
577.8751,578.06683,82,112,0
578.07513,578.2668,87,112,0
578.27515,578.4865,89,112,0
578.4957,578.70715,87,112,0
578.7163,578.93146,82,112,0
578.9409,579.15875,79,112,0
579.1682,579.3872,77,112,0
579.397,579.6216,75,112,0
579.63135,579.85596,70,112,0
579.8657,580.0961,67,112,0
580.10626,580.3381,65,112,0
580.34814,580.58307,63,112,0
580.59344,580.83307,58,112,0
580.84344,581.08307,55,112,0
583.9383,584.70337,55,112,0
584.0245,584.70337,58,112,0
584.1107,584.70337,63,112,0
584.1969,584.70337,67,112,0
0.0,0.43198484,46,112,0
0.0,0.7352933,39,112,0
0.441176,0.87316084,48,112,0
0.882352,1.3143368,50,112,0
0.882352,1.6176454,43,112,0
1.323528,1.7555128,48,112,0
1.764704,2.196689,46,112,0
1.764704,2.4999974,39,112,0
2.20588,2.6378648,48,112,0
2.647056,3.0790408,50,112,0
2.647056,3.3823493,43,112,0
3.088232,3.520217,48,112,0
3.529408,3.9613929,46,112,0
3.529408,4.4044895,39,112,0
3.970584,4.4044895,48,112,0
4.413818,4.856349,50,112,0
4.413818,5.173001,43,112,0
4.865819,5.318809,48,112,0
5.3285747,5.7914343,46,112,0
5.3285747,6.122815,39,112,0
5.801355,6.275099,48,112,0
6.2853446,6.770573,50,112,0
6.78099,7.2774773,48,112,0
7.288253,8.8314495,46,112,0
8.8418665,9.0814495,50,112,0
9.0918665,9.3314495,55,112,0
9.3418665,9.5814495,58,112,0
9.5918665,9.8314495,62,112,0
9.8418665,10.0814495,67,112,0
10.0918665,10.3314495,70,112,0
10.3418665,10.5814495,74,112,0
10.5918665,10.8314495,79,112,0
10.8418665,11.0814495,82,112,0
6.2853446,11.0918665,43,112,0
11.0918665,11.3314495,86,112,0
21.841866,22.273851,46,112,0
21.841866,22.57716,39,112,0
22.283043,22.715027,48,112,0
22.724218,23.156202,50,112,0
22.724218,23.45951,43,112,0
23.165394,23.59738,48,112,0
23.606571,24.038555,46,112,0
23.606571,24.341864,39,112,0
24.047747,24.47973,48,112,0
24.488922,24.920908,50,112,0
24.488922,25.224216,43,112,0
24.930098,25.362083,48,112,0
25.371275,25.803259,46,112,0
25.371275,26.244434,39,112,0
25.81245,26.244434,48,112,0
26.253626,26.691236,50,112,0
26.253626,27.001898,43,112,0
26.700563,27.143944,48,112,0
27.153414,27.602713,46,112,0
27.153414,27.921223,39,112,0
27.61233,28.067707,48,112,0
28.077473,28.539093,50,112,0
28.549013,29.017042,48,112,0
29.027122,30.493372,46,112,0
30.503788,30.743372,50,112,0
30.753788,30.993372,55,112,0
31.003788,31.243372,58,112,0
31.253788,31.493372,62,112,0
31.503788,31.743372,67,112,0
31.753788,31.993372,70,112,0
32.003788,32.24337,74,112,0
32.253788,32.49337,79,112,0
32.503788,32.74337,82,112,0
28.077473,32.753788,43,112,0
32.753788,32.99337,86,112,0
43.503788,44.680256,53,112,0
43.503788,44.680256,62,112,0
44.827316,46.003784,56,112,0
44.827316,46.003784,60,112,0
46.150845,47.327312,58,112,0
46.150845,48.577312,55,112,0
48.7979,49.97437,53,112,0
47.474373,49.97437,62,112,0
50.12143,51.297897,56,112,0
50.12143,51.297897,60,112,0
51.444958,52.621426,58,112,0
51.444958,53.871426,55,112,0
52.768482,53.944954,62,112,0
54.09201,57.91554,60,112,0
54.09201,57.91554,63,112,0
58.062595,59.239067,62,112,0
59.386124,61.81259,63,112,0
58.062595,61.81259,69,112,0
62.03318,63.20965,67,112,0
62.03318,64.45965,64,112,0
64.68024,67.106705,65,112,0
63.35671,67.106705,68,112,0
70.35226,70.78424,46,112,0
70.35226,71.087555,39,112,0
70.793434,71.22542,48,112,0
71.23461,71.666595,50,112,0
71.23461,71.9699,43,112,0
71.67579,72.10777,48,112,0
72.11697,72.54895,46,112,0
72.11697,72.85226,39,112,0
72.558136,72.99012,48,112,0
72.99931,73.4313,50,112,0
72.99931,73.73461,43,112,0
73.44049,73.872475,48,112,0
73.88167,74.31365,46,112,0
73.88167,74.61696,39,112,0
74.322845,74.75483,48,112,0
74.764015,75.19601,50,112,0
75.20519,75.63718,48,112,0
74.764015,76.82284,43,112,0
75.64637,76.82284,46,112,0
76.9699,77.41107,62,112,0
76.9699,77.41107,67,112,0
76.9699,77.41107,70,112,0
78.29343,78.734604,62,112,0
78.29343,78.734604,67,112,0
78.29343,78.734604,70,112,0
80.94048,81.37247,46,112,0
80.94048,81.67577,39,112,0
81.38166,81.813644,48,112,0
81.82284,82.25482,50,112,0
81.82284,82.55813,43,112,0
82.26401,82.696,48,112,0
82.705185,83.13717,46,112,0
82.705185,83.44048,39,112,0
83.14636,83.57835,48,112,0
83.58754,84.01952,50,112,0
83.58754,84.32283,43,112,0
84.02872,84.4607,48,112,0
84.469894,84.90188,46,112,0
84.469894,85.205185,39,112,0
84.911064,85.34305,48,112,0
85.35224,85.784225,50,112,0
85.79342,86.2254,48,112,0
85.35224,87.411064,43,112,0
86.2346,87.411064,46,112,0
87.55812,87.9993,62,112,0
87.55812,87.9993,67,112,0
87.55812,87.9993,70,112,0
88.88165,89.32283,62,112,0
88.88165,89.32283,67,112,0
88.88165,89.32283,70,112,0
91.52871,91.96988,53,112,0
91.52871,91.96988,60,112,0
92.852234,93.29341,56,112,0
92.852234,93.29341,60,112,0
94.175766,95.05811,61,112,0
94.175766,95.352234,55,112,0
94.175766,95.352234,58,112,0
95.05811,95.4901,62,112,0
95.49929,95.931274,62,112,0
96.822815,97.135315,74,112,0
98.14635,98.45885,62,112,0
99.46987,99.78237,74,112,0
100.7934,101.1059,62,112,0
102.11693,102.42943,75,112,0
103.44046,103.75296,72,112,0
104.763985,105.076485,68,112,0
106.08752,106.40002,69,112,0
107.41104,108.58751,63,112,0
107.41104,108.58751,66,112,0
108.73457,109.91104,67,112,0
110.0581,111.234566,72,112,0
108.73457,112.705154,63,112,0
110.0581,112.705154,68,112,0
111.38163,112.705154,71,112,0
112.705154,118.07388,63,112,0
112.705154,118.07388,69,112,0
112.705154,118.07388,71,112,0
118.332504,119.19457,57,112,0
119.36699,120.39069,57,112,0
120.40147,121.263535,57,112,0
121.43595,122.20518,57,112,0
122.359024,123.32703,56,112,0
123.33781,124.199875,54,112,0
124.372284,124.81346,46,112,0
124.372284,124.81346,46,112,0
124.372284,125.10758,55,112,0
124.81346,125.245445,34,112,0
125.25464,126.1278,54,112,0
126.13699,126.872284,55,112,0
127.01934,127.46052,35,112,0
127.46052,127.8925,47,112,0
127.901695,128.34286,30,112,0
128.34286,128.77486,42,112,0
128.78404,129.22522,32,112,0
129.22522,129.65721,44,112,0
129.6664,130.10757,46,112,0
129.6664,130.10757,46,112,0
129.6664,130.40169,55,112,0
130.10757,130.53957,34,112,0
130.54875,131.4219,54,112,0
131.4311,132.1664,55,112,0
132.31346,132.75462,35,112,0
132.75462,133.18661,47,112,0
133.1958,133.63698,41,112,0
133.63698,134.06897,53,112,0
134.07816,134.51933,44,112,0
134.51933,134.95132,56,112,0
134.96051,135.40169,42,112,0
135.40169,135.83368,54,112,0
136.28404,136.72522,39,112,0
136.72522,137.1572,51,112,0
137.60756,138.04874,38,112,0
138.04874,138.48073,50,112,0
138.93109,139.37227,37,112,0
139.37227,139.80426,49,112,0
140.25462,140.46602,44,112,0
140.4752,140.68661,51,112,0
140.6958,140.9072,53,112,0
140.91638,141.12778,59,112,0
141.13698,141.34837,63,112,0
141.35756,141.56895,65,112,0
141.57816,142.01013,71,112,0
142.90167,143.11308,45,112,0
143.12227,143.33366,51,112,0
143.34285,143.55424,53,112,0
143.56345,143.77484,60,112,0
143.78403,143.99542,63,112,0
144.00462,144.21602,65,112,0
144.2252,144.6572,72,112,0
145.54874,145.76013,44,112,0
145.76932,145.98071,51,112,0
145.98991,146.20131,53,112,0
146.2105,146.42189,59,112,0
146.43109,146.64249,63,112,0
146.65167,146.86307,65,112,0
146.87227,147.30424,71,112,0
148.19579,148.40718,45,112,0
148.41638,148.62778,51,112,0
148.63696,148.84836,53,112,0
148.85756,149.06895,60,112,0
149.07814,149.28954,63,112,0
149.29874,149.51013,65,112,0
149.51932,149.95131,72,112,0
150.84285,151.05424,46,112,0
151.06343,151.27483,52,112,0
151.28403,151.49542,54,112,0
151.50461,151.716,61,112,0
151.7252,151.9366,64,112,0
151.94579,152.15718,66,112,0
152.16638,152.59836,73,112,0
153.4899,153.7013,47,112,0
153.7105,153.92189,53,112,0
153.93108,154.14247,55,112,0
154.15167,154.36307,62,112,0
154.37225,154.58365,65,112,0
154.59285,154.80424,67,112,0
154.81343,155.24542,74,112,0
156.13696,156.34836,48,112,0
156.35754,156.56894,54,112,0
156.57814,156.78954,56,112,0
156.79872,157.01012,63,112,0
157.01932,157.23071,66,112,0
157.2399,157.4513,68,112,0
157.46048,157.89247,75,112,0
161.43108,161.64247,34,127,0
161.65166,161.86305,46,112,0
161.87225,162.08365,56,112,0
162.09283,162.30423,58,112,0
162.31342,162.52483,62,112,0
162.53401,162.7454,65,112,0
162.7546,163.18658,68,112,0
164.07812,164.28952,36,127,0
164.29872,164.51012,48,112,0
164.5193,164.7307,51,112,0
164.73988,164.9513,56,112,0
164.96048,165.17188,60,112,0
165.18106,165.39246,63,112,0
165.40166,165.83363,68,112,0
166.72519,166.93658,37,127,0
166.94577,167.15717,49,112,0
167.16635,167.37776,53,112,0
167.38695,167.59834,56,112,0
167.60753,167.81892,59,112,0
167.82812,168.03952,61,112,0
168.0487,168.4807,65,112,0
169.37224,169.58363,39,127,0
169.59282,169.80423,51,112,0
169.81342,170.02481,54,112,0
170.034,170.2454,59,112,0
170.2546,170.46599,63,112,0
170.47517,170.68657,66,112,0
170.69577,171.12775,71,112,0
172.0193,172.2307,40,127,0
172.23988,172.45128,49,112,0
172.46046,172.67188,52,112,0
172.68106,172.89246,56,112,0
172.90164,173.11304,59,112,0
173.12224,173.33363,61,112,0
173.34282,173.77481,64,112,0
174.66635,174.87775,41,127,0
174.88693,175.09834,49,112,0
175.10753,175.31892,53,112,0
175.32811,175.5395,56,112,0
175.5487,175.7601,59,112,0
175.76929,175.98068,61,112,0
175.98988,176.42186,65,112,0
177.3134,177.52481,34,127,0
177.534,177.74539,46,112,0
177.75458,177.96597,53,112,0
177.97517,178.18657,56,112,0
178.19576,178.40715,58,112,0
178.41635,178.62775,62,112,0
178.63693,179.06892,68,112,0
179.96046,180.17186,41,127,0
180.18105,180.39244,49,112,0
180.40164,180.61304,53,112,0
180.62222,180.83362,56,112,0
180.84282,181.05421,59,112,0
181.0634,181.2748,61,112,0
181.284,181.71597,65,112,0
182.60751,182.81891,34,127,0
182.82811,183.0395,46,112,0
183.04869,183.26009,53,112,0
183.26929,183.48068,56,112,0
183.48987,183.70126,58,112,0
183.71046,183.92186,62,112,0
185.25458,185.36487,41,112,0
185.36487,185.69576,55,127,0
185.69576,186.00826,56,112,0
186.13693,186.44943,58,112,0
186.57811,186.89061,59,112,0
187.01927,187.33177,61,112,0
187.46045,187.60751,63,112,0
185.36487,187.68105,41,112,0
194.45796,195.23016,70,112,0
194.52261,195.23016,74,112,0
198.0299,198.59583,58,112,0
198.0299,198.59583,62,112,0
204.88821,205.09962,43,112,0
205.10881,205.3202,50,112,0
205.32939,205.54079,55,112,0
205.54999,205.76138,58,112,0
205.77057,205.98196,62,112,0
205.99117,206.20256,67,112,0
206.43234,206.64374,58,112,0
206.65292,206.86432,62,112,0
206.87352,207.08492,67,112,0
207.0941,207.3055,70,112,0
207.31468,207.5261,67,112,0
207.75586,207.96725,50,112,0
207.97646,208.18785,55,112,0
208.19704,208.40843,58,112,0
208.41763,208.62903,62,112,0
208.63821,208.84961,58,112,0
209.07939,209.29079,55,112,0
209.29999,209.51138,58,112,0
209.52057,209.73196,62,112,0
209.74115,209.95256,67,112,0
209.96175,210.61432,51,112,0
209.9985,210.61432,58,112,0
210.03528,210.61432,63,112,0
215.47644,215.68784,39,112,0
215.69704,215.90843,46,112,0
215.91762,216.12901,51,112,0
216.13821,216.34961,55,112,0
216.3588,216.57019,58,112,0
216.57939,216.79079,63,112,0
217.02055,217.23196,55,112,0
217.24115,217.45255,58,112,0
217.46173,217.67314,63,112,0
217.68233,217.89372,67,112,0
217.90291,218.1143,63,112,0
218.34409,218.55548,58,112,0
218.56468,218.77608,63,112,0
218.78526,218.99666,67,112,0
219.00586,219.21725,70,112,0
219.22644,219.43784,67,112,0
219.66762,219.87901,60,112,0
219.8882,220.09961,63,112,0
220.1088,220.32019,67,112,0
220.32938,220.54077,73,112,0
220.54997,221.20255,55,112,0
220.58673,221.20255,62,112,0
220.6235,221.20255,70,112,0
226.06467,226.94702,58,112,0
226.94702,227.3882,60,112,0
227.3882,227.82938,62,112,0
227.82938,228.27055,63,112,0
228.27055,228.71173,65,112,0
228.71173,229.59407,67,112,0
229.59407,230.47643,66,112,0
230.47643,231.21172,67,112,0
231.35878,232.09407,66,112,0
232.24113,233.11429,67,112,0
233.12349,233.85878,66,112,0
234.00584,234.74113,67,112,0
234.00584,234.74113,70,112,0
234.88818,235.76135,66,112,0
234.88818,235.76135,72,112,0
235.77054,236.20253,69,112,0
235.77054,236.50583,67,112,0
236.21172,236.6437,70,112,0
236.6529,239.29994,66,112,0
236.6529,239.29994,75,112,0
239.29994,240.62347,65,112,0
239.29994,240.62347,66,112,0
239.29994,240.62347,73,112,0
240.62347,241.79994,63,112,0
240.62347,241.79994,66,112,0
240.62347,241.79994,71,112,0
241.947,244.59406,61,112,0
241.947,244.59406,66,112,0
241.947,244.59406,70,112,0
244.59406,245.91759,73,112,0
244.59406,247.02052,61,112,0
244.59406,247.02052,65,112,0
245.91759,247.24112,69,112,0
247.24112,249.88817,57,112,0
247.24112,249.88817,60,112,0
247.24112,249.88817,65,112,0
249.88817,252.31464,56,112,0
249.88817,252.31464,60,112,0
249.88817,252.31464,64,112,0
252.53523,255.61427,52,112,0
252.53523,255.61427,57,112,0
252.53523,255.61427,61,112,0
252.53523,255.61427,64,112,0
257.82935,258.04074,41,112,0
258.04993,258.26132,51,112,0
258.2705,258.4819,57,112,0
258.49112,258.7025,53,112,0
258.7117,258.9231,63,112,0
258.93228,259.14368,69,112,0
259.37344,259.58484,69,112,0
259.59406,259.80545,63,112,0
259.81464,260.02603,53,112,0
260.03522,260.2466,57,112,0
260.2558,260.4672,51,112,0
260.4764,260.9084,41,112,0
260.91757,261.34955,49,112,0
261.35873,262.53522,59,112,0
262.68228,263.11426,49,112,0
263.12344,263.33484,41,112,0
263.34406,263.55545,51,112,0
263.56464,263.77603,57,112,0
263.78522,263.9966,53,112,0
264.0058,264.2172,63,112,0
264.22638,264.43777,69,112,0
264.66757,264.87897,69,112,0
264.88815,265.09955,63,112,0
265.10873,265.32013,53,112,0
265.32935,265.54074,57,112,0
265.54993,265.76132,51,112,0
265.7705,266.20248,41,112,0
266.21167,266.64368,49,112,0
266.65286,267.8293,59,112,0
267.97638,268.4084,49,112,0
268.41757,268.62897,39,112,0
268.63815,268.84955,47,112,0
268.85873,269.07013,54,112,0
269.0793,269.29074,51,112,0
269.29993,269.51132,59,112,0
269.5205,269.7319,66,112,0
269.96167,270.17307,66,112,0
270.18228,270.39368,59,112,0
270.40286,270.61426,51,112,0
270.62344,270.83484,54,112,0
270.84402,271.05542,47,112,0
271.06464,271.4966,39,112,0
271.5058,271.7172,57,112,0
271.72638,271.93777,65,112,0
271.94696,272.15836,57,112,0
272.16757,272.37897,51,112,0
272.38815,272.82013,57,112,0
272.8293,273.26132,51,112,0
273.71167,273.92307,38,112,0
273.93225,274.14368,45,112,0
274.15286,274.36426,53,112,0
274.37344,274.58484,50,112,0
274.59402,274.80542,57,112,0
274.8146,275.026,65,112,0
275.2558,275.4672,65,112,0
275.47638,275.68777,57,112,0
275.69696,275.90836,50,112,0
275.91757,276.12897,53,112,0
276.13815,276.34955,45,112,0
276.35873,276.7907,39,112,0
276.7999,277.0113,57,112,0
277.0205,277.2319,65,112,0
277.2411,277.45248,57,112,0
277.46167,277.67307,51,112,0
277.68225,278.11426,57,112,0
278.12344,278.55542,51,112,0
279.0058,279.2172,39,112,0
279.22638,279.43777,47,112,0
279.44696,279.65836,54,112,0
279.66754,279.87894,51,112,0
279.88815,280.09955,59,112,0
280.10873,280.32013,66,112,0
280.5499,280.7613,66,112,0
280.7705,280.9819,59,112,0
280.9911,281.20248,51,112,0
281.21167,281.42307,54,112,0
281.43225,281.64365,47,112,0
281.65283,282.08484,39,112,0
282.09402,282.30542,57,112,0
282.3146,282.526,65,112,0
282.5352,282.74658,57,112,0
282.7558,282.9672,51,112,0
282.97638,283.40836,57,112,0
283.41754,283.84955,51,112,0
284.2999,284.5113,38,112,0
284.52048,284.73187,45,112,0
284.7411,284.95248,53,112,0
284.96167,285.17307,50,112,0
285.18225,285.39365,57,112,0
285.40283,285.61423,65,112,0
285.84402,286.05542,65,112,0
286.0646,286.276,57,112,0
286.2852,286.49658,50,112,0
286.50577,286.71716,53,112,0
286.72638,286.93777,45,112,0
286.94696,287.37894,39,112,0
287.38812,287.59952,57,112,0
287.60873,287.82013,65,112,0
287.8293,288.0407,57,112,0
288.0499,288.2613,51,112,0
288.27048,288.70248,57,112,0
288.71167,289.14365,51,112,0
289.59402,289.80542,51,112,0
289.8146,290.026,53,112,0
290.0352,290.24658,56,112,0
290.25577,290.46716,60,112,0
290.47638,290.68777,56,112,0
289.59402,290.77048,39,112,0
290.69696,290.90836,53,112,0
290.91754,291.34952,51,112,0
292.24106,292.45245,53,112,0
292.46167,292.67307,55,112,0
292.68225,292.89365,59,112,0
292.90283,293.11423,63,112,0
293.1234,293.3348,59,112,0
292.24106,293.41754,41,112,0
293.344,293.55542,55,112,0
293.5646,293.99658,53,112,0
294.88812,295.09952,53,112,0
295.1087,295.3201,55,112,0
295.3293,295.5407,58,112,0
295.5499,295.7613,62,112,0
295.77048,295.98187,58,112,0
294.88812,296.0646,41,112,0
295.99106,296.20245,55,112,0
296.21164,296.64365,53,112,0
297.5352,297.74658,55,112,0
297.75577,297.96716,57,112,0
297.97635,298.18774,61,112,0
298.19693,298.40836,65,112,0
298.41754,298.62894,61,112,0
297.5352,298.71164,43,112,0
298.63812,298.84952,57,112,0
298.8587,299.29068,55,112,0
300.18225,300.39365,55,112,0
300.40283,300.61423,57,112,0
300.6234,300.8348,60,112,0
300.844,301.0554,64,112,0
301.06458,301.276,60,112,0
300.18225,301.3587,43,112,0
301.2852,301.49658,57,112,0
301.50577,301.93774,55,112,0
302.82928,303.04068,57,112,0
303.0499,303.2613,59,112,0
303.27048,303.48187,63,112,0
303.49106,303.70245,67,112,0
303.71164,303.92303,63,112,0
302.82928,304.00577,45,112,0
303.93222,304.14362,59,112,0
304.15283,304.5848,57,112,0
305.47635,306.79987,45,112,0
306.79987,308.1234,43,112,0
308.1234,309.44693,41,112,0
309.44693,310.6234,43,112,0
310.77045,312.094,45,112,0
312.094,313.4175,43,112,0
313.4175,315.844,41,112,0
316.06458,316.27597,41,112,0
316.28516,316.49655,49,112,0
316.50574,316.71713,53,112,0
316.72635,316.93774,56,112,0
316.94693,317.15833,61,112,0
317.1675,317.3789,65,112,0
317.6087,317.8201,65,112,0
317.82928,318.04068,61,112,0
318.04987,318.26126,56,112,0
318.27045,318.48184,53,112,0
318.49103,318.70242,49,112,0
318.71164,318.92303,41,112,0
318.93222,319.14362,50,112,0
319.1528,319.3642,53,112,0
319.37338,319.58478,58,112,0
319.594,319.8054,62,112,0
319.81458,320.02597,65,112,0
320.25574,320.46713,65,112,0
320.47632,320.68774,62,112,0
320.69693,320.90833,58,112,0
320.9175,321.1289,53,112,0
321.1381,321.3495,50,112,0
321.35867,321.57007,41,112,0
321.57928,321.79068,49,112,0
321.79987,322.01126,53,112,0
322.02045,322.23184,56,112,0
322.24103,322.45242,61,112,0
322.46164,322.67303,65,112,0
322.9028,323.1142,65,112,0
323.12338,323.33478,68,112,0
323.34396,323.55536,73,112,0
323.56458,323.77597,77,112,0
323.78516,323.99655,80,112,0
324.00574,324.21713,61,112,0
324.22632,324.4377,65,112,0
325.32925,325.54068,62,112,0
325.54987,325.76126,65,112,0
324.00574,326.50574,56,112,0
326.6528,326.8642,63,112,0
326.87338,327.08478,67,112,0
326.6528,327.82925,56,112,0
327.97632,328.1877,63,112,0
328.1969,328.4083,65,112,0
327.97632,329.1528,57,112,0
329.29987,329.51126,60,112,0
329.52045,329.73184,66,112,0
329.29987,330.47632,58,112,0
330.62338,330.83478,61,112,0
330.84396,331.05536,66,112,0
330.62338,331.79984,58,112,0
331.50574,331.9377,63,112,0
331.9469,332.16806,64,112,0
332.17767,332.4016,68,112,0
331.9469,333.21243,59,112,0
333.37643,333.61603,66,112,0
333.62643,333.8693,70,112,0
333.37643,334.7507,61,112,0
334.9293,335.13464,35,112,0
334.9293,335.13464,35,112,0
335.14355,335.3489,47,112,0
336.215,336.42035,40,112,0
336.215,336.42035,40,112,0
336.42926,336.63464,52,112,0
337.5007,337.70605,44,112,0
337.5007,337.70605,44,112,0
337.715,337.92035,56,112,0
338.7864,338.99176,47,112,0
338.7864,338.99176,47,112,0
339.0007,339.20605,56,112,0
340.0721,340.2775,44,112,0
340.0721,340.2775,44,112,0
340.2864,340.49176,56,112,0
341.35785,341.5632,40,112,0
341.35785,341.5632,40,112,0
341.5721,341.7775,52,112,0
342.64355,343.7864,29,112,0
342.64355,343.7864,41,112,0
343.92926,345.0721,31,112,0
343.92926,345.0721,43,112,0
345.21497,346.35785,33,112,0
345.21497,346.35785,45,112,0
346.5007,347.64355,35,112,0
346.5007,347.64355,47,112,0
347.7864,350.14355,36,112,0
347.7864,350.14355,48,112,0
350.35782,355.35782,29,112,0
350.35782,355.35782,41,112,0
355.50067,359.21497,29,112,0
355.50067,359.21497,41,112,0
359.35782,363.47617,29,112,0
359.35782,363.47617,41,112,0
363.48657,363.61157,29,127,0
363.61157,364.49393,41,112,0
364.49393,364.93512,43,112,0
364.93512,365.37628,45,112,0
365.37628,365.81747,46,112,0
365.81747,366.25864,48,112,0
366.25864,366.6998,50,112,0
366.6998,367.141,51,112,0
367.141,367.57297,53,112,0
367.58215,367.90414,50,112,0
368.0367,368.36365,48,112,0
368.49826,368.8303,46,112,0
368.967,369.3043,48,112,0
369.44318,369.78592,50,112,0
369.92706,370.27542,51,112,0
370.41885,370.77304,53,112,0
370.91885,371.27304,55,112,0
371.41885,371.58554,56,112,0
371.91885,372.63315,27,112,0
371.91885,372.63315,39,112,0
372.776,373.4903,31,112,0
372.776,373.4903,43,112,0
373.63315,374.34744,27,112,0
373.63315,374.34744,39,112,0
374.4903,375.20456,31,112,0
374.4903,375.20456,43,112,0
375.34744,376.0617,27,112,0
375.34744,376.0617,39,112,0
376.20456,378.20456,31,112,0
376.20456,378.20456,43,112,0
378.3474,379.20456,50,112,0
378.3474,379.20456,55,112,0
378.3474,379.20456,58,112,0
379.63315,380.4903,55,112,0
379.63315,380.4903,58,112,0
379.63315,380.4903,62,112,0
380.91885,381.63315,50,112,0
380.91885,381.63315,55,112,0
380.91885,381.63315,58,112,0
382.20456,382.91885,27,112,0
382.20456,382.91885,39,112,0
383.0617,383.776,31,112,0
383.0617,383.776,43,112,0
383.91885,384.63315,27,112,0
383.91885,384.63315,39,112,0
384.776,385.49026,31,112,0
384.776,385.49026,43,112,0
385.63315,386.3474,27,112,0
385.63315,386.3474,39,112,0
386.49026,388.49026,31,112,0
386.49026,388.49026,43,112,0
388.63312,389.49026,50,112,0
388.63312,389.49026,55,112,0
388.63312,389.49026,58,112,0
389.91885,390.77597,55,112,0
389.91885,390.77597,58,112,0
389.91885,390.77597,62,112,0
391.20456,391.91885,50,112,0
391.20456,391.91885,55,112,0
391.20456,391.91885,58,112,0
392.49026,393.63312,53,112,0
392.49026,393.63312,62,112,0
393.77597,394.91882,56,112,0
393.77597,394.91882,60,112,0
395.0617,396.20456,58,112,0
395.0617,397.41882,55,112,0
397.63312,398.77597,53,112,0
396.3474,398.77597,62,112,0
398.91882,400.06168,56,112,0
398.91882,400.06168,60,112,0
400.20456,401.3474,58,112,0
400.20456,402.56168,55,112,0
401.49026,402.63312,62,112,0
402.77597,406.49026,60,112,0
402.77597,406.49026,63,112,0
406.63312,407.77597,62,112,0
406.63312,407.77597,69,112,0
407.91882,410.49026,63,112,0
407.91882,410.49026,69,112,0
410.49026,411.77597,64,112,0
410.49026,411.77597,68,112,0
411.77597,413.06168,59,112,0
411.77597,413.06168,63,112,0
411.77597,413.06168,67,112,0
413.06168,414.34738,66,112,0
413.06168,415.41882,62,112,0
414.34738,415.63312,65,112,0
413.06168,416.91882,56,112,0
415.63312,416.91882,61,112,0
415.63312,416.91882,64,112,0
416.91882,418.20453,57,112,0
416.91882,418.20453,60,112,0
416.91882,418.20453,64,112,0
418.20453,419.49023,53,112,0
418.20453,419.49023,59,112,0
418.20453,419.49023,63,112,0
419.49023,421.1956,55,112,0
419.49023,421.1956,59,112,0
419.49023,421.1956,62,112,0
422.06168,422.27594,55,112,0
422.27594,422.49023,50,112,0
422.49023,422.70453,59,112,0
422.70453,422.91882,55,112,0
422.91882,423.1331,50,112,0
423.1331,423.34738,47,112,0
423.34738,423.54703,43,112,0
423.55573,423.7655,45,112,0
423.7655,423.97678,47,112,0
423.97678,424.19107,48,112,0
424.19107,424.40692,50,112,0
424.40692,424.6243,52,112,0
426.21243,426.54788,59,112,0
426.68677,427.0295,60,112,0
427.1726,427.5956,61,112,0
427.66852,428.02798,62,112,0
428.17886,428.549,63,112,0
428.7035,428.88208,65,112,0
428.97134,429.41254,46,112,0
428.97134,429.41254,55,112,0
428.97134,429.41254,55,112,0
429.41254,429.8445,34,127,0
429.8537,430.72687,54,112,0
430.73605,431.47134,49,112,0
430.73605,431.47134,55,112,0
431.6184,432.0596,35,112,0
432.0596,432.49158,47,112,0
432.50076,432.94193,30,112,0
432.94193,433.37393,42,112,0
433.38312,433.82428,30,112,0
433.82428,434.2563,44,112,0
434.26547,434.70663,46,112,0
434.26547,434.70663,55,112,0
434.26547,434.70663,55,112,0
434.70663,435.13864,34,127,0
435.14783,436.02097,54,112,0
436.03018,436.76547,49,112,0
436.03018,436.76547,55,112,0
436.91254,437.3537,35,112,0
437.3537,437.78568,47,112,0
437.79486,438.23605,42,112,0
438.23605,438.66803,54,112,0
438.67722,439.1184,44,112,0
439.1184,439.55038,58,112,0
439.55957,439.97922,42,112,0
439.98816,440.4078,54,112,0
440.8515,441.27722,39,112,0
441.2863,441.71826,51,112,0
442.16864,442.6071,38,112,0
442.6164,443.05484,50,112,0
443.5187,443.96378,37,112,0
443.97324,444.42517,49,112,0
445.10468,445.30432,63,112,0
445.313,445.51263,68,112,0
445.52133,445.72098,71,112,0
445.72964,445.92932,68,112,0
445.938,446.13763,64,112,0
446.14633,446.563,65,112,0
446.563,446.97098,73,112,0
447.60464,447.80432,61,112,0
447.813,448.01263,66,112,0
448.02133,448.22098,70,112,0
448.22964,448.42932,66,112,0
448.438,448.63763,61,112,0
449.063,449.47964,63,112,0
449.47964,449.88763,61,112,0
450.10464,450.30432,63,112,0
450.313,450.51263,68,112,0
450.52133,450.72098,71,112,0
450.72964,450.92932,68,112,0
450.938,451.13763,64,112,0
451.14633,451.563,65,112,0
451.563,451.97098,73,112,0
452.60464,452.80432,61,112,0
452.813,453.01263,66,112,0
453.02133,453.22098,70,112,0
453.22964,453.42932,66,112,0
453.438,453.63763,61,112,0
454.063,454.47964,63,112,0
454.47964,454.88763,61,112,0
454.89633,456.00745,33,112,0
454.89633,456.00745,45,112,0
456.14633,457.25745,35,112,0
456.14633,457.25745,47,112,0
457.39633,459.688,37,112,0
457.39633,459.688,49,112,0
459.89633,460.09598,51,112,0
459.89633,460.09598,51,112,0
460.10464,460.30432,55,112,0
460.313,460.51263,58,112,0
460.52133,460.72098,63,112,0
461.14633,461.34598,49,112,0
461.14633,461.34598,49,112,0
461.35464,461.55432,51,112,0
461.563,461.76263,55,112,0
461.77133,461.97098,58,112,0
462.39633,462.59598,48,112,0
462.39633,462.59598,48,112,0
462.60464,462.8043,55,112,0
462.813,463.01263,60,112,0
463.02133,463.22098,64,112,0
463.64633,463.84598,55,112,0
463.85464,464.0543,60,112,0
464.063,464.26263,64,112,0
464.27133,464.47098,67,112,0
464.89633,465.09598,39,112,0
465.10464,465.3043,51,112,0
465.313,465.51263,54,112,0
465.52133,465.72098,58,112,0
465.72964,465.9293,61,112,0
466.14633,466.5543,51,112,0
466.14633,466.5543,54,112,0
466.14633,466.5543,59,112,0
466.14633,466.5543,66,112,0
467.39633,468.50742,27,127,0
467.39633,468.50742,39,127,0
468.64633,471.00742,29,127,0
468.64633,471.00742,41,127,0
471.1463,473.438,41,127,0
471.1463,473.438,53,127,0
473.6463,474.75742,29,127,0
473.6463,474.75742,41,127,0
474.8963,479.688,30,112,0
474.8963,479.688,42,112,0
484.8963,485.313,50,112,0
484.8963,485.313,54,112,0
484.8963,485.313,62,112,0
485.313,485.72964,60,112,0
485.72964,486.1463,54,112,0
485.72964,486.1463,58,112,0
486.1463,486.563,60,112,0
486.563,486.97964,50,112,0
486.563,486.97964,54,112,0
486.563,486.97964,62,112,0
486.97964,487.3963,60,112,0
487.3963,487.813,54,112,0
487.3963,487.813,58,112,0
487.813,488.22964,60,112,0
488.22964,488.6463,50,112,0
488.22964,488.6463,54,112,0
488.22964,488.6463,62,112,0
488.6463,489.063,60,112,0
489.063,489.47964,54,112,0
489.063,489.47964,58,112,0
489.47964,489.688,60,112,0
489.75742,489.8963,54,112,0
489.688,490.3043,51,112,0
489.8963,490.3043,54,112,0
489.82687,490.3043,58,112,0
489.8963,490.3043,62,112,0
494.8963,495.313,52,112,0
494.8963,495.313,55,112,0
494.8963,495.313,62,112,0
495.313,495.72964,60,112,0
495.72964,496.1463,55,112,0
495.72964,496.1463,58,112,0
496.1463,496.56296,60,112,0
496.56296,496.97964,52,112,0
496.56296,496.97964,55,112,0
496.56296,496.97964,62,112,0
496.97964,497.3963,60,112,0
497.3963,497.81296,55,112,0
497.3963,497.81296,58,112,0
497.81296,498.22964,60,112,0
498.22964,498.6463,52,112,0
498.22964,498.6463,55,112,0
498.22964,498.6463,62,112,0
498.6463,499.06296,60,112,0
499.06296,499.47964,55,112,0
499.06296,499.47964,58,112,0
499.47964,499.68796,60,112,0
499.68796,500.3043,53,112,0
499.75742,500.3043,56,112,0
499.82687,500.3043,58,112,0
499.8963,500.3043,62,112,0
502.81296,503.22964,52,112,0
502.81296,503.22964,55,112,0
502.81296,503.22964,62,112,0
503.22964,503.6463,60,112,0
503.6463,504.0543,55,112,0
503.6463,504.0543,58,112,0
508.17227,508.6642,53,112,0
508.17227,508.6642,56,112,0
508.17227,508.6642,62,112,0
508.6642,509.1642,60,112,0
509.1642,509.6538,56,112,0
509.1642,509.6538,58,112,0
510.6987,510.9101,46,112,0
510.6987,510.9101,46,112,0
510.91928,511.13068,39,112,0
511.13986,511.35126,46,112,0
511.36047,511.57187,51,112,0
511.58105,511.79245,55,112,0
511.80164,512.01306,58,112,0
513.34576,513.5571,49,112,0
513.34576,513.5571,49,112,0
513.56635,513.7777,42,112,0
513.7869,513.99835,49,112,0
514.0075,514.21893,54,112,0
514.2281,514.4395,58,112,0
514.44867,514.6601,61,112,0
514.6693,514.8807,51,112,0
514.6693,514.8807,51,112,0
514.8899,515.10126,54,112,0
515.1105,515.32184,58,112,0
515.33105,515.5424,63,112,0
515.55164,515.76306,66,112,0
515.7722,515.98364,70,112,0
515.9928,516.2042,46,112,0
515.9928,516.2042,46,112,0
516.2134,516.4248,39,112,0
516.43396,516.6454,46,112,0
516.6546,516.86597,51,112,0
516.8752,517.08655,55,112,0
517.09576,517.3071,58,112,0
518.6399,518.85126,49,112,0
518.6399,518.85126,49,112,0
518.8605,519.07184,42,112,0
519.08105,519.2924,49,112,0
519.30164,519.513,54,112,0
519.5222,519.73364,58,112,0
519.7428,519.9542,61,112,0
519.9634,520.1748,51,112,0
519.9634,520.1748,51,112,0
520.18396,520.3954,54,112,0
520.40454,520.61597,58,112,0
520.6252,520.83655,60,112,0
520.84576,521.0571,63,112,0
521.06635,521.2777,66,112,0
521.2869,521.4983,52,127,0
521.2869,521.4983,52,112,0
521.5075,521.71893,54,112,0
521.7281,521.9395,58,112,0
521.94867,522.1601,61,112,0
522.6105,522.82184,51,127,0
522.6105,522.82184,51,112,0
522.83105,523.0424,54,112,0
523.05164,523.263,59,112,0
523.2722,523.4836,63,112,0
523.93396,524.1454,56,112,0
523.93396,524.1454,56,112,0
524.15454,524.36597,58,112,0
524.3752,524.58655,62,112,0
524.59576,524.8071,64,112,0
525.2575,525.46893,54,127,0
525.2575,525.46893,54,112,0
525.4781,525.6895,57,112,0
525.69867,525.9101,63,112,0
525.91925,526.1307,69,112,0
526.58105,526.7924,56,112,0
526.58105,526.7924,56,112,0
526.80164,527.013,59,112,0
527.0222,527.2336,64,112,0
527.2428,527.4542,68,112,0
527.90454,528.11597,57,112,0
527.90454,528.11597,57,112,0
528.1251,528.33655,60,112,0
528.34576,528.5571,63,112,0
528.56635,528.7777,67,112,0
529.2281,529.4395,58,112,0
529.2281,529.4395,58,112,0
529.44867,529.6601,61,112,0
529.66925,529.8807,66,112,0
529.88983,530.10126,70,112,0
530.55164,530.763,34,112,0
530.55164,530.763,34,112,0
530.7722,530.9836,46,112,0
530.9928,531.20416,56,112,0
531.2134,531.4248,58,112,0
531.8751,532.0748,46,112,0
531.8751,532.0748,46,127,0
532.0835,532.28314,39,112,0
532.2918,532.49146,46,112,0
532.5001,532.6998,51,112,0
532.7085,532.90814,55,112,0
532.9168,533.11646,58,112,0
534.3751,534.57477,49,112,0
534.3751,534.57477,49,127,0
534.5835,534.78314,42,112,0
534.7918,534.99146,49,112,0
535.0001,535.19977,54,112,0
535.2085,535.40814,58,112,0
535.4168,535.61646,61,112,0
535.6251,535.82477,51,112,0
535.6251,535.82477,51,127,0
535.8335,536.03314,54,112,0
536.0418,536.24146,58,112,0
536.2501,536.44977,60,112,0
536.4585,536.65814,63,112,0
536.6668,536.86646,66,112,0
536.8751,537.07477,46,112,0
536.8751,537.07477,46,127,0
537.0835,537.28314,39,112,0
537.2918,537.49146,46,112,0
537.5001,537.69977,51,112,0
537.7085,537.90814,55,112,0
537.9168,538.11646,58,112,0
539.3751,539.57477,49,112,0
539.3751,539.57477,49,127,0
539.5835,539.78314,42,112,0
539.7918,539.99146,49,112,0
540.0001,540.19977,54,112,0
540.2085,540.40814,58,112,0
540.4168,540.61646,61,112,0
540.6251,540.82477,51,112,0
540.6251,540.82477,51,127,0
540.8335,541.03314,54,112,0
541.0418,541.24146,58,112,0
541.2501,541.44977,60,112,0
541.4585,541.65814,63,112,0
541.6668,541.86646,66,112,0
541.8751,542.07477,52,127,0
541.8751,542.07477,52,112,0
542.0835,542.28314,54,112,0
542.2918,542.49146,58,112,0
542.5001,542.69977,61,112,0
543.1251,543.32477,51,112,0
543.1251,543.32477,51,112,0
543.3335,543.53314,54,112,0
543.5418,543.74146,59,112,0
543.7501,543.94977,63,112,0
544.3751,544.57477,56,112,0
544.3751,544.57477,56,112,0
544.5835,544.78314,58,112,0
544.7918,544.99146,62,112,0
545.0001,545.19977,65,112,0
545.6251,545.82477,54,112,0
545.6251,545.82477,54,112,0
545.8335,546.03314,57,112,0
546.0418,546.24146,63,112,0
546.2501,546.44977,69,112,0
546.8751,547.07477,56,112,0
546.8751,547.07477,56,112,0
547.0835,547.28314,59,112,0
547.2918,547.49146,64,112,0
547.5001,547.69977,68,112,0
548.1251,548.32477,57,112,0
548.1251,548.32477,57,112,0
548.3335,548.53314,60,112,0
548.5418,548.74146,63,112,0
548.7501,548.94977,67,112,0
549.3751,549.57477,58,112,0
549.3751,549.57477,58,112,0
549.5835,549.78314,61,112,0
549.7918,549.99146,66,112,0
550.0001,550.19977,70,112,0
550.6251,550.82477,34,112,0
550.6251,550.82477,34,112,0
550.8335,551.03314,46,112,0
551.0418,551.24146,56,112,0
551.2501,551.44977,58,112,0
551.4585,551.86646,70,112,0
551.8751,552.06683,39,127,0
551.8751,552.06683,39,112,0
552.07513,552.2668,46,112,0
552.27515,552.4668,55,112,0
553.07513,553.2668,39,112,0
553.07513,553.2668,39,112,0
553.27515,553.4668,47,112,0
553.47516,553.6668,54,112,0
554.27515,554.4668,51,112,0
554.47516,554.6668,58,112,0
554.6751,554.8668,64,112,0
555.47516,555.6668,51,112,0
555.6751,555.8668,56,112,0
555.8751,556.06683,61,112,0
556.6751,556.8668,39,112,0
556.6751,556.8668,39,112,0
556.8751,557.06683,46,112,0
557.07513,557.2668,55,112,0
557.8751,558.06683,39,112,0
558.07513,558.2668,47,112,0
558.27515,558.4668,54,112,0
559.07513,559.2668,51,112,0
559.27515,559.4668,58,112,0
559.47516,559.6668,64,112,0
560.27515,560.4668,51,112,0
560.47516,560.6668,56,112,0
560.6751,560.8668,61,112,0
561.47516,561.6668,39,112,0
561.47516,561.6668,39,112,0
561.6751,561.8668,46,112,0
561.8751,562.06683,56,112,0
562.6751,562.8668,39,112,0
562.8751,563.06683,46,112,0
563.07513,563.2668,56,112,0
563.8751,564.06683,39,112,0
564.07513,564.2668,46,112,0
564.27515,564.4668,55,112,0
565.07513,565.2668,39,112,0
565.27515,565.4668,47,112,0
565.47516,565.6668,57,112,0
566.27515,566.4668,39,112,0
566.47516,566.6668,46,112,0
566.6751,566.8668,56,112,0
567.47516,567.6668,39,112,0
567.6751,567.8668,46,112,0
567.8751,568.06683,56,112,0
568.6751,568.8668,39,112,0
568.8751,569.06683,46,112,0
569.07513,569.2668,55,112,0
569.8751,570.06683,39,112,0
570.07513,570.2668,47,112,0
570.27515,570.4668,57,112,0
571.07513,571.2668,39,112,0
571.27515,571.4668,46,112,0
571.47516,571.6668,55,112,0
572.27515,572.4668,39,112,0
572.47516,572.6668,47,112,0
572.6751,572.8668,57,112,0
573.47516,573.6668,39,112,0
573.6751,573.8668,46,112,0
573.8751,574.06683,55,112,0
574.6751,574.8668,39,112,0
574.8751,575.06683,47,112,0
575.07513,575.2668,57,112,0
575.8751,576.06683,39,112,0
576.07513,576.2668,46,112,0
576.27515,576.4668,51,112,0
581.09344,581.5999,39,112,0
581.09344,581.5999,51,112,0
583.6797,584.70337,39,112,0
583.76587,584.70337,46,112,0
583.8521,584.70337,51,112,0
