start_time,end_time,note_value,velocity,instrument_program_number
1.73913,2.7053134,55,127,40
2.7053134,2.8019316,57,120,40
2.8019316,2.8955307,58,120,40
2.89855,3.768115,58,120,40
3.768115,4.541062,55,127,40
4.541062,4.63768,57,120,40
4.63768,4.734298,58,120,40
4.734298,4.830917,60,120,40
4.830917,4.9245157,62,120,40
4.927535,5.21739,62,120,40
5.21739,5.410627,58,127,40
5.410627,5.507245,60,120,40
5.507245,5.6038632,62,127,40
5.6038632,5.700482,63,120,40
5.700482,5.7971,65,120,40
5.7971,5.8937182,65,127,40
5.8937182,5.990337,67,120,40
5.990337,6.086955,68,120,40
6.086955,7.1014476,68,127,40
7.1014476,7.246375,67,120,40
7.246375,7.3913026,65,120,40
7.3913026,7.53623,63,120,40
7.53623,7.753621,62,120,40
7.753621,7.826085,62,120,40
7.826085,8.067631,62,120,40
16.56529,17.587725,67,127,40
17.59093,17.690289,69,120,40
17.693495,17.792852,70,120,40
17.796059,18.667852,70,127,40
18.719133,19.539646,67,127,40
19.539646,19.639006,69,120,40
19.64221,19.744774,70,120,40
19.744774,19.847338,72,120,40
19.847338,19.946697,74,120,40
19.949902,20.206312,74,127,40
20.257593,20.462723,70,127,40
20.462723,20.56208,72,120,40
20.565287,20.66785,74,120,40
20.66785,20.770414,75,120,40
20.770414,20.869772,77,120,40
20.872978,20.975542,77,120,40
20.975542,21.078106,79,120,40
21.078106,21.177465,80,120,40
21.18067,22.254387,80,127,40
22.257591,22.411438,79,120,40
22.411438,22.565285,77,120,40
22.565285,22.71913,75,120,40
22.71913,22.946693,74,120,40
22.9499,23.023617,74,120,40
23.026821,23.180668,74,120,40
23.180668,23.334515,72,120,40
23.334515,23.48836,70,120,40
23.48836,23.642206,69,120,40
23.642206,23.86977,67,120,40
23.872974,23.946693,67,120,40
23.949898,24.411436,67,120,40
24.411436,24.562077,65,120,40
24.565283,24.821692,70,120,40
24.872974,25.334513,69,120,40
25.334513,25.485153,67,120,40
25.488358,25.744768,63,120,40
25.79605,26.257587,67,120,40
26.257587,26.40823,65,120,40
26.411434,26.667845,70,120,40
26.719126,27.180664,69,120,40
27.180664,27.331305,67,120,40
27.33451,27.59092,74,120,40
27.642202,28.10374,72,120,40
28.10374,28.254381,70,120,40
28.257586,28.513996,77,120,40
28.565277,29.026815,76,120,40
29.026815,29.177458,74,120,40
29.180662,30.206303,81,127,40
30.206303,30.308867,80,120,40
30.308867,30.408224,78,120,40
30.41143,30.821686,78,127,40
30.821686,30.92425,76,120,40
30.92425,31.02361,74,120,40
31.026814,31.43707,74,127,40
31.43707,31.539635,69,120,40
31.539635,31.638992,67,120,40
31.642199,31.744762,66,120,40
31.744762,31.847326,64,120,40
31.847326,31.946686,62,120,40
31.94989,34.02681,62,127,40
35.334503,35.59091,58,120,40
36.25758,36.36014,58,120,40
36.36014,36.462708,60,120,40
36.462708,36.562065,62,120,40
36.56527,36.82168,62,120,40
37.180653,37.437065,58,120,40
38.10373,38.20309,58,120,40
38.206295,38.308857,58,120,40
38.308857,38.40822,60,120,40
38.411423,38.51078,62,120,40
38.513985,38.61655,62,120,40
38.61655,38.715908,63,120,40
38.719112,39.026806,65,120,40
39.026806,39.488342,56,120,40
39.488342,39.64219,58,120,40
39.64219,40.10373,62,120,40
40.10373,40.257572,65,120,40
40.257572,40.513985,68,120,40
40.565266,42.026802,67,120,40
42.103725,42.360134,62,120,40
42.71911,42.97552,63,120,40
43.642185,43.74475,59,120,40
43.74475,43.847313,61,120,40
43.847313,43.946674,62,120,40
43.94988,44.206287,62,120,40
44.56526,44.82167,63,120,40
45.48834,45.5909,59,120,40
45.5909,45.693466,61,120,40
45.693466,45.792824,62,120,40
45.79603,46.05244,62,120,40
46.411415,46.667824,63,120,40
47.33449,47.437054,63,120,40
47.437054,47.53962,65,120,40
47.53962,47.638977,66,120,40
47.64218,47.744747,66,120,40
47.744747,47.84731,68,120,40
47.84731,47.94667,70,120,40
47.949875,49.026794,58,120,40
49.026794,49.177437,67,120,40
49.18064,49.64218,70,120,40
49.64218,49.79282,74,120,40
49.796024,50.257565,79,120,40
50.257565,50.408203,81,120,40
50.41141,50.869743,79,120,40
50.872948,51.02359,76,120,40
51.026794,51.48833,74,120,40
51.48833,51.638973,69,120,40
51.642178,52.103718,67,120,40
52.103718,52.254356,74,120,40
52.25756,52.715897,74,120,40
52.7191,52.86974,67,120,40
52.872948,53.334484,70,120,40
53.334484,53.485126,74,120,40
53.48833,53.949867,79,120,40
53.949867,54.10051,81,120,40
54.103714,54.56525,79,120,40
54.56525,54.715893,76,120,40
54.719097,55.180637,74,120,40
55.180637,55.331276,70,120,40
55.33448,55.79602,69,120,40
55.79602,55.94666,81,120,40
55.949867,56.411404,81,120,40
56.411404,56.562046,72,120,40
56.56525,57.026787,76,120,40
57.026787,57.17743,81,120,40
57.180634,57.642174,82,120,40
57.642174,57.792812,84,120,40
57.796017,58.257557,82,120,40
58.257557,58.408195,79,120,40
58.411404,58.87294,77,120,40
58.87294,59.023582,72,120,40
59.026787,59.488323,71,120,40
59.488323,59.638966,83,120,40
59.64217,60.103706,83,120,40
60.103706,60.25435,74,120,40
60.257553,60.719093,77,120,40
60.719093,60.86973,83,120,40
61.18063,61.331272,57,120,40
61.488323,61.63896,60,120,40
62.103706,62.25435,62,127,40
62.4114,62.56204,65,127,40
63.026783,63.17742,67,127,40
63.334473,63.485115,64,127,40
63.94986,64.1005,60,127,40
64.25755,64.40819,64,127,40
64.87293,65.023575,65,127,40
65.180626,65.33127,69,127,40
65.79601,65.94665,67,127,40
66.1037,66.25434,64,127,40
66.41139,66.719086,69,120,40
66.44985,66.719086,76,127,40
66.44985,67.02678,84,127,40
67.02678,67.28319,81,120,40
67.33447,67.94985,77,120,40
67.94985,68.17742,74,120,40
68.257545,68.56524,64,120,40
68.296005,68.56524,71,120,40
68.296005,68.56524,76,120,40
68.56524,68.87293,79,120,40
68.87293,69.12934,83,120,40
69.18062,69.48831,67,120,40
69.219086,69.48831,76,127,40
69.219086,69.796005,88,127,40
69.796005,70.052414,84,120,40
70.1037,70.719086,81,120,40
70.719086,70.975494,77,120,40
71.02677,71.334465,64,120,40
71.06524,71.334465,71,120,40
71.06524,71.334465,76,120,40
71.334465,71.64216,79,120,40
71.64216,71.89857,83,120,40
102.41136,103.02674,77,120,40
103.02674,103.64213,87,120,40
103.64213,103.94982,86,120,40
103.94982,104.20623,82,120,40
104.25751,105.18059,81,120,40
105.18059,106.02674,79,120,40
106.10366,106.71905,77,120,40
106.71905,107.33443,87,120,40
107.33443,107.64212,86,120,40
107.64212,107.89853,82,120,40
107.949814,108.87289,81,120,40
108.87289,109.71904,79,120,40
109.79597,110.41135,79,120,40
110.41135,111.02673,90,120,40
111.02673,111.33443,89,120,40
111.33443,111.590836,85,120,40
111.64212,112.56519,82,120,40
112.56519,112.87289,80,120,40
112.87289,113.18058,82,120,40
113.18058,113.48827,83,120,40
113.48827,114.02673,85,120,40
124.565186,125.180565,74,120,40
125.180565,125.79595,84,120,40
125.79595,126.103645,83,120,40
126.103645,126.360054,79,120,40
126.41133,127.33441,78,120,40
127.33441,128.18056,76,120,40
128.25749,128.87286,75,120,40
128.87286,129.48825,87,120,40
129.48825,129.79594,86,120,40
129.79594,130.05235,82,120,40
130.10364,131.02672,79,120,40
131.02672,131.87286,78,120,40
131.94978,132.56517,77,120,40
132.56517,133.18056,89,120,40
133.18056,133.48825,88,120,40
133.48825,133.74466,86,120,40
133.79594,134.69641,81,120,40
134.69641,135.58578,80,120,40
135.66997,136.31393,79,120,40
136.31393,136.9016,91,120,40
136.9016,137.19145,90,120,40
137.19145,137.433,91,120,40
137.48131,137.77116,93,120,40
137.77116,138.061,81,120,40
138.061,138.30255,69,120,40
138.35086,138.64072,67,120,40
138.64072,138.93057,60,120,40
138.93057,139.17212,57,120,40
139.22043,140.8871,55,120,40
140.95956,141.10449,58,120,40
141.10449,141.24942,63,120,40
141.24942,141.39435,67,120,40
141.39435,141.53928,70,120,40
141.53928,141.6842,75,120,40
141.6842,141.82611,79,120,40
141.82913,142.11899,91,120,40
142.11899,142.40884,90,120,40
142.40884,142.69868,91,120,40
142.69868,142.98854,93,120,40
142.98854,143.2784,81,120,40
143.2784,143.51994,69,120,40
143.56825,143.85811,67,120,40
143.85811,144.14796,60,120,40
144.14796,144.38951,57,120,40
144.43782,146.10449,55,120,40
146.17696,146.32188,58,120,40
146.32188,146.46681,63,120,40
146.46681,146.61174,67,120,40
146.61174,146.75667,70,120,40
146.75667,146.9016,75,120,40
146.9016,147.0435,79,120,40
147.04652,147.28806,91,120,40
147.33636,147.62622,81,120,40
147.62622,147.91608,79,120,40
147.91608,148.49579,78,120,40
148.49579,148.78564,75,120,40
148.78564,149.36536,77,120,40
149.36536,149.6069,78,120,40
149.65521,151.10449,77,120,40
151.10449,151.34604,86,120,40
151.39435,151.97404,84,120,40
151.97404,152.21559,82,120,40
152.2639,152.84361,81,120,40
152.84361,153.13347,79,120,40
153.13347,153.71318,78,120,40
153.71318,154.00304,75,120,40
154.00304,154.58275,77,120,40
154.58275,154.8243,78,120,40
154.8726,156.32188,77,120,40
156.32188,156.56342,86,120,40
156.61172,157.19144,84,120,40
157.19144,157.43298,82,120,40
157.4813,158.93057,77,120,40
158.93057,159.17212,86,120,40
159.22043,159.80014,84,120,40
159.80014,160.04169,82,120,40
160.09,160.66971,77,120,40
160.66971,160.91125,74,120,40
160.95956,161.53926,72,120,40
161.53926,161.7808,70,120,40
161.82912,162.69868,65,120,40
162.69868,164.36536,62,120,40
164.43782,165.01753,60,120,40
165.01753,165.25908,58,120,40
165.30739,170.84279,58,120,40
170.94083,173.7269,58,120,40
173.7269,173.8264,60,120,40
173.8264,173.92279,62,120,40
173.9259,174.07205,64,120,40
175.71695,177.10997,58,127,40
177.10997,177.20947,60,120,40
177.20947,177.30898,62,120,40
177.30898,177.40848,64,120,40
177.40848,177.50488,65,120,40
177.50798,177.65413,67,120,40
179.29903,180.19455,58,127,40
180.19455,180.29405,60,120,40
180.29405,180.39355,62,120,40
180.39355,180.49306,64,120,40
180.49306,180.59256,65,120,40
180.59256,180.69206,67,120,40
180.69206,180.78845,69,120,40
180.79156,181.83322,70,127,40
184.37364,184.82141,60,120,40
184.82141,184.96754,58,120,40
184.97066,185.21942,70,120,40
185.26917,185.56767,72,120,40
185.56767,185.86618,73,120,40
185.86618,186.11494,65,120,40
186.16469,186.61244,63,120,40
186.61244,186.75859,61,120,40
186.7617,187.01045,73,120,40
187.06021,187.30896,75,120,40
187.35872,187.65723,76,120,40
187.65723,187.90598,68,120,40
187.95573,188.40349,66,120,40
188.40349,188.54964,63,120,40
188.55275,188.8015,76,120,40
188.85126,189.24927,80,120,40
189.24927,189.34877,78,120,40
189.34877,189.44516,76,120,40
189.44826,190.24428,76,127,40
190.24428,190.34068,74,120,40
190.34378,190.44328,72,120,40
190.44328,190.54279,71,120,40
190.54279,190.63919,69,120,40
190.64229,191.43831,69,127,40
191.43831,191.5347,67,120,40
191.53781,191.63731,65,120,40
191.63731,191.73682,64,120,40
191.73682,191.8332,62,120,40
191.83632,195.04527,62,120,40
196.01543,197.01044,70,120,40
197.01044,197.10994,72,120,40
197.10994,197.20944,74,120,40
197.20944,197.60745,76,120,40
199.00049,200.39352,70,127,40
200.39352,200.49303,72,120,40
200.49303,200.59253,74,120,40
200.59253,200.69203,76,120,40
200.69203,200.79153,77,120,40
200.79153,201.18954,79,120,40
202.58258,203.42834,70,127,40
203.47809,203.57759,72,120,40
203.57759,203.6771,74,120,40
203.6771,203.7766,76,120,40
203.7766,203.8761,77,120,40
203.8761,203.9756,79,120,40
203.9756,204.07199,81,120,40
204.0751,205.11989,82,127,40
205.11989,205.26913,81,120,40
205.26913,205.4184,79,120,40
205.4184,205.56764,78,120,40
205.56764,205.79152,76,120,40
205.79152,205.86304,74,120,40
205.86615,206.0123,74,120,40
206.0154,206.16154,73,120,40
206.16466,206.3108,71,120,40
206.3139,206.46005,69,120,40
206.46317,206.68393,67,120,40
206.68704,206.75856,66,120,40
206.76167,207.06018,66,120,40
207.06018,207.20943,64,120,40
207.20943,207.35869,66,120,40
207.35869,207.90594,68,120,40
207.9557,208.25421,63,120,40
208.25421,208.50296,65,120,40
208.55272,208.85123,66,120,40
208.85123,209.00047,64,120,40
209.00047,209.14973,66,120,40
209.14973,209.69699,68,120,40
209.74673,210.04524,65,120,40
210.04524,210.294,66,120,40
210.34375,210.64226,68,120,40
210.64226,210.79152,66,120,40
210.79152,210.94077,68,120,40
210.94077,211.48804,70,120,40
211.53778,211.83629,67,120,40
211.83629,212.08505,68,120,40
212.1348,212.4333,70,120,40
212.4333,212.57945,68,120,40
212.58255,212.73181,70,120,40
212.73181,213.27907,72,120,40
213.32883,213.62733,77,120,40
213.62733,213.87608,79,120,40
213.92584,214.62236,81,120,40
214.62236,214.72186,79,120,40
214.72186,214.81825,77,120,40
214.82137,215.34375,77,120,40
215.41838,215.66713,72,120,40
215.71689,216.01538,57,120,40
216.01538,216.31389,60,120,40
216.31389,216.86116,65,120,40
216.9109,217.20941,69,120,40
217.20941,217.45818,81,120,40
217.50792,218.20444,80,120,40
218.20444,218.30394,78,120,40
218.30394,218.40033,76,120,40
218.40344,218.92583,76,120,40
219.00046,219.2492,71,120,40
219.29897,219.59747,56,120,40
219.59747,219.89598,59,120,40
219.89598,220.44324,64,120,40
220.493,220.7915,68,120,40
220.7915,221.04025,80,120,40
221.09001,221.78653,79,120,40
221.78653,221.88603,77,120,40
221.88603,221.98242,75,120,40
221.98553,222.50792,75,120,40
222.58253,222.8313,70,120,40
222.88104,223.17955,55,120,40
223.17955,223.47806,58,120,40
223.47806,224.07507,63,120,40
224.07507,224.59746,67,120,40
224.67209,224.9706,56,120,40
224.9706,225.2691,56,120,40
225.2691,226.01537,58,120,40
226.01537,226.16463,56,120,40
226.16463,226.41338,60,120,40
226.46313,226.76164,59,120,40
226.76164,227.06015,60,120,40
227.06015,227.3089,62,120,40
227.35866,227.80641,61,120,40
227.80641,227.95567,60,120,40
227.95567,228.10492,63,120,40
228.10492,228.25107,68,120,40
228.25418,228.70193,72,120,40
228.70193,228.84808,70,120,40
228.8512,229.09995,75,120,40
229.14969,229.4482,76,120,40
229.4482,229.69696,77,120,40
229.7467,230.49298,75,120,40
230.49298,230.63911,74,120,40
230.64223,231.23924,79,120,40
231.23924,231.488,80,120,40
231.53775,232.13477,72,120,40
232.13477,232.43327,74,120,40
232.43327,232.68202,75,120,40
232.73178,233.03029,76,120,40
233.03029,233.3288,78,120,40
233.3288,233.57755,79,120,40
233.6273,233.92581,81,120,40
233.92581,234.22432,82,120,40
234.22432,234.52283,74,120,40
234.52283,234.82133,77,120,40
234.82133,235.11984,79,120,40
235.11984,235.36859,73,120,40
235.41835,235.8661,74,120,40
235.8661,236.01535,75,120,40
236.01535,236.31386,67,120,40
236.31386,236.61237,63,120,40
236.61237,236.91087,65,120,40
236.91087,237.15964,67,120,40
237.20938,237.65715,76,120,40
237.65715,237.8064,77,120,40
237.8064,238.1049,69,120,40
238.1049,238.40341,65,120,40
238.40341,238.70192,67,120,40
238.70192,238.95067,69,120,40
239.00043,239.44818,78,120,40
239.44818,239.59744,79,120,40
239.59744,239.89595,71,120,40
239.89595,240.19446,67,120,40
240.19446,240.49297,69,120,40
240.49297,240.74171,71,120,40
240.79147,241.08998,73,120,40
241.08998,241.38849,74,120,40
241.38849,241.687,76,120,40
241.687,241.9855,78,120,40
241.9855,242.284,79,120,40
242.284,242.53276,81,120,40
242.5825,242.88101,67,127,40
242.5825,242.88101,75,127,40
242.5825,243.03027,82,120,40
243.03027,243.17642,84,120,40
243.17952,243.42828,82,120,40
244.37355,244.67206,75,127,40
244.37355,244.82132,82,120,40
244.82132,244.96745,83,120,40
244.97057,245.21933,82,120,40
246.1646,246.41335,69,120,40
246.1646,246.61235,85,127,40
246.61235,246.7585,86,120,40
246.76161,247.01036,85,120,40
247.95564,248.25415,74,127,40
247.95564,248.4034,86,127,40
248.4034,248.54955,87,120,40
248.55266,248.8014,86,120,40
248.85115,249.14966,66,127,40
248.85115,249.29892,78,127,40
249.29892,249.44507,74,120,40
249.44817,249.69693,78,120,40
249.74667,250.04518,62,127,40
249.74667,250.19444,74,127,40
250.19444,250.34058,75,120,40
250.34369,250.59245,74,120,40
250.6422,251.08997,66,127,40
251.08997,251.2361,62,120,40
251.23921,251.48798,66,120,40
251.53772,251.98549,62,127,40
251.98549,252.13162,63,120,40
252.13474,252.57542,62,127,40
252.57848,252.72237,63,120,40
252.72545,253.17767,60,127,40
253.17767,253.32913,62,120,40
253.33237,253.8091,58,127,40
253.8091,253.96893,60,120,40
253.97235,254.47284,58,127,40
254.47641,254.64561,60,120,40
254.64923,255.18393,57,127,40
255.18393,255.36368,58,120,40
255.36751,256.36255,55,127,40
256.36255,256.46204,57,120,40
256.46204,256.55844,58,120,40
256.56155,257.45706,58,127,40
257.45706,258.25308,55,127,40
258.25308,258.3495,57,120,40
258.3526,258.4521,58,120,40
258.4521,258.5516,60,120,40
258.5516,258.64798,62,120,40
258.6511,258.89984,62,127,40
258.9496,259.1486,58,120,40
259.1486,259.245,60,120,40
259.2481,259.3476,62,120,40
259.3476,259.4471,63,120,40
259.4471,259.54352,65,120,40
259.5466,259.64612,65,120,40
259.64612,259.7456,67,120,40
259.7456,259.842,68,120,40
259.84512,260.88678,68,127,40
260.8899,261.03915,67,120,40
261.03915,261.18842,65,120,40
261.18842,261.33765,63,120,40
261.33765,261.55844,62,120,40
261.56152,261.63306,62,120,40
261.63617,261.88492,62,120,40
270.59137,271.58328,67,127,40
271.5864,271.6828,69,120,40
271.6859,271.7823,70,120,40
271.7854,272.63116,70,127,40
272.6809,273.47693,67,127,40
273.47693,273.57333,69,120,40
273.57645,273.67593,70,120,40
273.67593,273.77545,72,120,40
273.77545,273.87183,74,120,40
273.87494,274.12372,74,127,40
274.17346,274.37247,70,127,40
274.37247,274.46884,72,120,40
274.47195,274.57147,74,120,40
274.57147,274.67096,75,120,40
274.67096,274.76736,77,120,40
274.77048,274.86996,77,120,40
274.86996,274.96948,79,120,40
274.96948,275.06586,80,120,40
275.06897,276.11066,80,127,40
276.11374,276.263,79,120,40
276.263,276.41226,77,120,40
276.41226,276.56152,75,120,40
276.56152,276.7823,74,120,40
276.7854,276.8569,74,120,40
276.86002,277.00928,74,120,40
277.00928,277.15854,72,120,40
277.15854,277.30777,70,120,40
277.30777,277.45703,69,120,40
277.45703,277.6778,67,120,40
277.6809,277.75244,67,120,40
277.75555,278.2033,67,120,40
278.2033,278.34946,65,120,40
278.35257,278.60132,70,120,40
278.65106,279.09882,69,120,40
279.09882,279.24496,67,120,40
279.24808,279.49683,63,120,40
279.54657,279.99435,67,120,40
279.99435,280.14047,65,120,40
280.1436,280.39236,70,120,40
280.4421,280.88986,69,120,40
280.88986,281.036,67,120,40
281.03912,281.28787,74,120,40
281.33762,281.78537,72,120,40
281.78537,281.93152,70,120,40
281.93463,282.18338,77,120,40
282.23315,282.6809,76,120,40
282.6809,282.82706,74,120,40
282.83017,283.8252,81,127,40
283.8252,283.92468,80,120,40
283.92468,284.0211,78,120,40
284.0242,284.4222,78,127,40
284.4222,284.5217,76,120,40
284.5217,284.6181,74,120,40
284.62122,285.0192,74,127,40
285.0192,285.1187,69,120,40
285.1187,285.21512,67,120,40
285.2182,285.31772,66,120,40
285.31772,285.4172,64,120,40
285.4172,285.5136,62,120,40
285.51672,287.53165,62,127,40
288.8003,289.04904,58,120,40
289.69583,289.79532,58,120,40
289.79532,289.89484,60,120,40
289.89484,289.9912,62,120,40
289.99432,290.24307,62,120,40
290.59134,290.8401,58,120,40
291.48688,291.58325,58,120,40
291.58636,291.68585,58,120,40
291.68585,291.78226,60,120,40
291.78537,291.88177,62,120,40
291.88486,291.98438,62,120,40
291.98438,292.08078,63,120,40
292.08386,292.3824,65,120,40
292.3824,292.83014,56,120,40
292.83014,292.9794,58,120,40
292.9794,293.42715,62,120,40
293.42715,293.57642,65,120,40
293.57642,293.82516,68,120,40
293.8749,295.29282,67,120,40
295.36746,295.6162,62,120,40
295.96448,296.21323,63,120,40
296.86,296.9595,59,120,40
296.9595,297.059,61,120,40
297.059,297.1554,62,120,40
297.1585,297.40726,62,120,40
297.75552,298.00427,63,120,40
298.65103,298.75052,59,120,40
298.75052,298.85004,61,120,40
298.85004,298.94644,62,120,40
298.94952,299.1983,62,120,40
299.54654,299.79532,63,120,40
300.44208,300.64108,63,120,40
300.64108,300.74057,65,120,40
300.74057,300.8401,66,120,40
300.8401,300.93958,68,120,40
300.93958,301.03598,70,120,40
301.0391,301.56146,58,120,40
301.6361,302.08075,62,120,40
302.08386,302.23,67,120,40
302.23312,302.68088,70,120,40
302.68088,302.82703,74,120,40
302.83014,303.2779,79,120,40
303.2779,303.42404,81,120,40
303.42715,303.8718,79,120,40
303.8749,304.02106,76,120,40
304.02417,304.47192,74,120,40
304.47192,304.61807,69,120,40
304.6212,305.06894,67,120,40
305.06894,305.2151,74,120,40
305.21817,305.66284,74,120,40
305.66595,305.8121,70,120,40
305.8152,306.26297,74,120,40
306.26297,306.4091,77,120,40
306.4122,306.86,82,120,40
306.86,307.0061,84,120,40
307.00922,307.457,82,120,40
307.457,307.60623,79,120,40
307.60623,308.05402,75,120,40
308.05402,308.20013,70,120,40
308.20325,308.651,74,120,40
308.651,308.79715,86,120,40
308.80026,309.24493,86,120,40
309.24802,309.39728,77,120,40
309.39728,309.84503,81,120,40
309.84503,309.99118,86,120,40
309.9943,310.44205,89,120,40
310.44205,310.5913,91,120,40
310.5913,311.03906,89,120,40
311.03906,311.18832,86,120,40
311.18832,311.63608,83,120,40
311.63608,311.78223,77,120,40
311.78534,312.2331,76,120,40
312.2331,312.37924,88,120,40
312.38235,312.827,88,120,40
312.8301,312.97937,81,120,40
312.97937,313.42712,85,120,40
313.42712,313.57327,88,120,40
313.87488,314.02103,66,120,40
314.1734,314.31955,69,120,40
314.77042,314.91656,59,120,40
315.0689,315.21506,62,120,40
315.66592,315.81207,64,120,40
315.96445,316.1106,61,120,40
316.56146,316.70758,57,120,40
316.85995,317.0061,61,120,40
317.45697,317.60312,62,120,40
317.7555,317.9016,66,120,40
318.35248,318.49863,64,120,40
318.651,318.79715,61,120,40
318.9495,319.24802,66,127,40
318.9495,319.24802,73,127,40
318.9495,319.5465,81,127,40
319.5465,319.7953,78,120,40
319.84503,320.44205,74,120,40
320.44205,320.6908,71,120,40
320.74054,321.03906,61,120,40
320.74054,321.03906,73,120,40
321.03906,321.33755,76,120,40
321.33755,321.5863,80,120,40
321.63608,321.93457,69,127,40
321.63608,321.93457,76,127,40
321.63608,322.2331,85,127,40
322.2331,322.48184,81,120,40
322.5316,323.1286,78,120,40
323.1286,323.37735,74,120,40
323.42712,323.72562,61,120,40
323.42712,323.72562,73,120,40
323.72562,324.02414,76,120,40
324.02414,324.2729,80,120,40
324.32263,324.91965,60,120,40
324.91965,325.1684,56,120,40
325.21814,325.81516,58,120,40
325.81516,326.06393,61,120,40
326.11368,326.7107,63,120,40
326.7107,326.95944,60,120,40
327.0092,327.6062,56,120,40
327.6062,327.85498,60,120,40
327.90472,328.50174,61,120,40
328.50174,328.7505,65,120,40
328.80023,329.39725,63,120,40
329.39725,329.646,60,120,40
335.06888,335.6659,80,120,40
335.6659,335.91464,77,120,40
335.96442,336.56143,74,120,40
336.56143,336.81018,70,120,40
336.85992,337.15845,71,120,40
337.15845,337.45694,75,120,40
337.45694,337.7057,78,120,40
337.75546,338.35245,80,120,40
338.35245,338.60123,77,120,40
338.65097,339.248,74,120,40
339.248,339.49673,70,120,40
339.54648,339.845,71,120,40
339.845,340.1435,75,120,40
340.1435,340.39227,78,120,40
340.44202,341.33752,61,120,40
341.33752,342.15842,64,120,40
342.23306,343.12857,63,120,40
343.12857,343.94946,61,120,40
344.0241,344.91962,64,120,40
344.91962,345.7405,63,120,40
345.81512,351.437,61,120,40
354.77036,357.3823,62,120,40
357.4569,358.35242,61,120,40
358.35242,359.24796,60,120,40
359.24796,360.442,59,120,40
360.442,360.74048,60,120,40
360.74048,360.98923,62,120,40
361.039,361.3375,64,120,40
361.3375,361.63602,59,120,40
361.63602,361.9345,60,120,40
361.9345,362.7554,62,120,40
362.83005,363.42706,60,120,40
363.42706,363.6758,62,120,40
363.72556,364.62106,64,120,40
364.62106,365.8151,66,120,40
365.8151,366.11362,64,120,40
366.11362,366.36237,66,120,40
366.4121,366.71063,67,120,40
366.71063,367.00912,62,120,40
367.00912,367.30765,64,120,40
367.30765,368.12854,66,120,40
368.20316,368.80017,64,120,40
368.80017,369.04892,66,120,40
369.0987,369.6957,67,120,40
369.6957,369.94446,69,120,40
369.9942,371.18823,71,120,40
371.18823,371.48672,69,120,40
371.48672,371.78525,71,120,40
371.78525,372.08374,73,120,40
372.08374,372.38226,71,120,40
372.38226,372.631,73,120,40
372.68076,373.27777,74,120,40
373.27777,373.8748,84,120,40
373.8748,374.1733,83,120,40
374.1733,374.42206,79,120,40
374.4718,375.36734,78,120,40
375.36734,376.18823,76,120,40
376.26285,376.85986,74,120,40
376.85986,377.45688,84,120,40
377.45688,377.75537,83,120,40
377.75537,378.00415,79,120,40
378.0539,378.9494,78,120,40
378.9494,379.7703,76,120,40
379.84494,380.44196,75,120,40
380.44196,381.03897,87,120,40
381.03897,381.33746,86,120,40
381.33746,381.5862,82,120,40
381.636,382.5315,79,120,40
382.5315,382.83002,78,120,40
382.83002,383.1285,79,120,40
383.1285,383.37726,80,120,40
383.42703,383.9494,82,120,40
394.17328,394.7703,71,120,40
394.7703,395.3673,81,120,40
395.3673,395.6658,80,120,40
395.6658,395.91455,76,120,40
395.96432,396.85983,75,120,40
396.85983,397.68073,73,120,40
397.75534,398.35236,72,120,40
398.35236,398.94937,84,120,40
398.94937,399.2479,83,120,40
399.2479,399.49664,79,120,40
399.5464,400.44193,76,120,40
400.44193,401.26282,75,120,40
401.33743,401.9181,74,120,40
401.9181,402.5025,86,120,40
402.5025,402.79663,85,120,40
402.79663,403.04245,83,120,40
403.0917,403.9833,78,120,40
403.9833,404.80942,77,120,40
404.8848,405.49188,76,120,40
405.49188,406.08682,88,120,40
406.08682,406.39453,87,120,40
406.39453,406.65173,88,120,40
406.70328,407.0131,90,120,40
407.0131,407.32397,78,120,40
407.32397,407.58438,66,120,40
407.63647,407.95004,64,120,40
407.95004,408.26474,61,120,40
408.26474,408.5279,57,120,40
408.58054,410.64072,55,120,40
410.644,410.80276,60,120,40
410.80276,410.9615,64,120,40
410.9615,411.1202,67,120,40
411.1202,411.27893,72,120,40
411.27893,411.43436,76,120,40
411.43768,411.75513,88,120,40
411.75513,412.0726,87,120,40
412.0726,412.33713,88,120,40
412.39005,412.70752,90,120,40
412.70752,413.02496,78,120,40
413.02496,413.28952,66,120,40
413.34244,413.65988,64,120,40
413.65988,413.97736,61,120,40
413.97736,414.2419,57,120,40
414.2948,416.35498,55,120,40
416.3583,416.51703,60,120,40
416.51703,416.67575,64,120,40
416.67575,416.8345,67,120,40
416.8345,416.99323,72,120,40
416.99323,417.14865,76,120,40
417.15195,418.02496,78,120,40
418.10434,419.0567,79,120,40
419.0567,419.37418,75,120,40
419.37418,419.69162,77,120,40
419.69162,419.95618,79,120,40
420.0091,420.96146,81,120,40
420.96146,422.78687,83,120,40
422.86624,423.8186,78,120,40
423.8186,424.771,79,120,40
424.771,425.08844,75,120,40
425.08844,425.4059,77,120,40
425.4059,425.67047,79,120,40
425.72336,426.67575,81,120,40
426.67575,427.54877,83,120,40
427.62814,427.9456,79,120,40
427.9456,428.26306,81,120,40
428.26306,428.5276,83,120,40
428.5805,429.5329,85,120,40
429.5329,430.4059,86,120,40
430.48526,430.80273,83,120,40
430.80273,431.12018,85,120,40
431.12018,431.38474,86,120,40
431.43765,432.31067,88,120,40
432.39005,433.60696,89,120,40
433.65988,434.21542,88,120,40
434.2948,435.80273,86,120,40
435.88208,436.14664,81,120,40
436.19955,436.517,83,120,40
436.517,436.83447,84,120,40
436.83447,437.09903,86,120,40
437.15192,438.02493,88,120,40
438.1043,439.32123,89,120,40
439.37415,439.92972,88,120,40
440.00906,440.96146,86,120,40
440.96146,441.2789,81,120,40
441.2789,441.59637,83,120,40
441.59637,441.91382,84,120,40
441.91382,442.2313,86,120,40
442.2313,442.54874,88,120,40
442.54874,442.8133,90,120,40
442.8662,443.8186,91,120,40
443.8186,444.77097,90,120,40
444.77097,445.72336,89,120,40
445.72336,446.94028,88,120,40
446.9932,447.31064,87,120,40
447.31064,447.6281,88,120,40
447.6281,447.94556,89,120,40
447.94556,448.26303,88,120,40
448.26303,448.5276,89,120,40
448.5805,449.4535,93,120,40
449.53287,450.40588,92,120,40
450.48526,451.35828,91,120,40
451.43762,452.65457,90,120,40
452.70746,453.02493,89,120,40
453.02493,453.2895,90,120,40
453.34238,453.65985,91,120,40
453.65985,453.97733,90,120,40
453.97733,454.24185,91,120,40
454.29477,455.24716,95,120,40
455.24716,456.19952,94,120,40
456.19952,457.07254,93,120,40
457.15192,458.36884,92,120,40
458.42175,458.7392,91,120,40
458.7392,459.00375,92,120,40
459.05667,459.37415,93,120,40
459.37415,459.6916,92,120,40
459.6916,459.95615,93,120,40
460.00906,461.22598,89,120,40
461.2789,461.59634,88,120,40
461.59634,461.8609,89,120,40
461.91382,462.23126,90,120,40
462.23126,462.54874,89,120,40
462.54874,462.8133,90,120,40
462.86618,463.18365,86,120,40
463.18365,463.5011,71,120,40
463.5011,463.76566,72,120,40
463.81857,464.11462,74,120,40
464.11462,464.42517,76,120,40
464.42517,464.75183,78,120,40
464.75183,465.09628,79,120,40
465.09628,465.46066,83,120,40
465.46066,465.8473,86,120,40
465.8473,467.74728,88,120,40
467.8473,468.24728,88,120,40
468.24728,469.04727,86,120,40
469.04727,469.3806,85,120,40
469.4473,469.64313,83,120,40
469.64728,469.8473,83,120,40
469.8473,470.04727,79,120,40
470.04727,470.24313,74,120,40
470.24728,470.4473,74,120,40
470.4473,470.64313,71,120,40
470.64728,470.83603,67,120,40
470.83603,471.01923,62,120,40
471.01923,471.19238,59,120,40
471.19238,471.35654,60,120,40
471.35654,471.51257,62,120,40
471.51257,471.65823,64,120,40
471.66125,471.80618,66,120,40
471.80618,471.9511,67,120,40
471.9511,472.09604,69,120,40
472.09604,472.24097,71,120,40
472.24097,472.3859,72,120,40
472.3859,472.5278,74,120,40
472.53082,472.67575,76,120,40
472.67575,472.82068,78,120,40
472.82068,472.9656,79,120,40
472.9656,473.11053,81,120,40
473.11053,473.25546,83,120,40
473.25546,473.3962,84,120,40
473.3992,473.63843,86,120,40
474.26044,474.35315,67,120,40
474.35614,474.44885,67,120,40
474.45184,474.54453,67,120,40
474.54752,474.64023,66,120,40
474.64322,474.73593,66,120,40
474.73892,474.8316,66,120,40
474.8346,474.9273,64,120,40
474.9303,475.023,64,120,40
475.026,475.11868,64,120,40
475.12167,475.2144,62,120,40
475.21738,475.3101,62,120,40
475.31308,475.40576,62,120,40
475.40875,475.50146,60,120,40
475.50446,475.59717,60,120,40
475.60016,475.69287,60,120,40
475.69586,475.78806,72,120,40
475.79102,475.88284,72,120,40
475.8858,475.97763,72,120,40
475.9806,476.9255,80,127,40
476.92847,477.0203,78,120,40
477.02325,477.11508,76,120,40
477.11804,477.61566,74,127,40
477.68674,477.77856,67,120,40
477.78152,477.87335,67,120,40
477.8763,477.96814,67,120,40
477.9711,478.06293,66,120,40
478.0659,478.1577,66,120,40
478.16068,478.25177,66,120,40
478.2547,478.34567,64,120,40
478.3486,478.43958,64,120,40
478.4425,478.53345,64,120,40
478.5364,478.62735,62,120,40
478.63028,478.72125,62,120,40
478.72418,478.81516,62,120,40
478.81808,478.90906,60,120,40
478.912,479.00293,60,120,40
479.0059,479.09683,60,120,40
479.09976,479.19073,72,120,40
479.19366,479.28464,72,120,40
479.28757,479.37854,72,120,40
479.38147,480.3175,80,127,40
480.32043,480.4114,78,120,40
480.41434,480.50528,76,120,40
480.50824,480.99734,74,127,40
481.0671,481.99442,81,127,40
481.99734,482.08743,79,120,40
482.09036,482.18048,77,120,40
482.18338,482.67175,75,127,40
482.74152,482.83163,57,120,40
482.83453,482.92465,57,120,40
482.92755,483.01733,57,120,40
483.0202,483.1095,62,120,40
483.11237,483.20166,62,120,40
483.20453,483.29382,62,120,40
483.2967,483.386,64,120,40
483.3889,483.47815,64,120,40
483.48105,483.5703,64,120,40
483.5732,483.66248,65,120,40
483.66537,483.75464,65,120,40
483.75754,483.84683,65,120,40
483.8497,483.939,77,120,40
483.94186,484.03116,77,120,40
484.03403,484.12332,77,120,40
484.1262,484.21548,65,120,40
484.21835,484.30765,65,120,40
484.31052,484.3998,65,120,40
484.40268,485.32434,81,127,40
485.32434,485.41592,79,120,40
485.41592,485.5044,77,120,40
485.50723,485.73553,75,120,40
485.78122,485.87253,77,120,40
485.87253,485.96387,79,120,40
485.96387,486.05234,81,120,40
486.05518,486.9684,83,127,40
486.9684,487.05975,81,120,40
487.05975,487.14822,79,120,40
487.15106,487.37936,77,120,40
487.42505,487.51636,79,120,40
487.51636,487.6077,81,120,40
487.6077,487.69617,83,120,40
487.699,488.5999,85,127,40
488.5999,488.69,83,120,40
488.69,488.77728,81,120,40
488.7801,488.87018,81,120,40
488.87018,488.96027,79,120,40
488.96027,489.04755,78,120,40
489.05035,489.14044,79,120,40
489.14044,489.23053,81,120,40
489.23053,489.3178,83,120,40
489.32062,490.22153,85,127,40
490.22153,490.3116,83,120,40
490.3116,490.3989,81,120,40
490.4017,490.4918,81,120,40
490.4918,490.58188,79,120,40
490.58188,490.66916,78,120,40
490.67197,490.7621,79,120,40
490.7621,490.85217,83,120,40
490.85217,490.93942,86,120,40
490.94226,491.03235,86,127,40
491.03235,491.12244,84,120,40
491.12244,491.20972,82,120,40
491.21252,491.3026,82,120,40
491.3026,491.3927,80,120,40
491.3927,491.47998,79,120,40
491.4828,491.57288,80,120,40
491.57288,491.66296,84,120,40
491.66296,491.75024,87,120,40
491.75305,491.8433,87,127,40
491.8433,491.9341,85,120,40
491.9341,492.02277,83,120,40
492.02563,492.11777,83,120,40
492.11777,492.2106,81,120,40
492.2106,492.30115,80,120,40
492.30408,492.39822,81,120,40
492.39822,492.49313,85,120,40
492.49313,492.58566,88,120,40
492.58868,492.685,88,127,40
492.685,492.78198,86,120,40
492.78198,492.87668,84,120,40
492.87976,492.97824,84,120,40
492.97824,493.0775,82,120,40
493.0775,493.1744,81,120,40
493.17755,493.27835,82,120,40
493.27835,493.38,86,120,40
493.38,493.4792,89,120,40
493.4824,493.58566,89,127,40
493.58566,493.68973,87,120,40
493.68973,493.7914,85,120,40
493.79468,493.90048,85,120,40
493.90048,494.00717,83,120,40
494.00717,494.11136,82,120,40
494.11472,494.22318,83,120,40
494.22318,494.3326,87,120,40
494.3326,494.43945,90,120,40
494.4429,494.96527,91,120,40
495.03992,495.28867,79,120,40
495.3384,495.41306,60,120,40
495.41306,495.63382,69,120,40
495.41306,495.93542,77,120,40
495.93542,496.18417,72,120,40
496.23395,496.53244,59,120,40
496.23395,496.53244,71,120,40
496.53244,496.83096,74,120,40
496.83096,497.0797,78,120,40
497.12946,497.2041,62,120,40
497.12946,497.42798,71,120,40
497.2041,497.42798,86,120,40
497.42798,497.72647,83,120,40
497.72647,497.97522,79,120,40
498.025,498.0996,60,120,40
498.025,498.32037,69,120,40
498.0996,498.622,77,120,40
498.622,498.87076,72,120,40
498.9205,499.219,59,120,40
498.9205,499.219,71,120,40
499.219,499.51752,74,120,40
499.51752,499.76627,78,120,40
499.816,499.89066,62,120,40
499.816,500.11453,71,120,40
499.89066,500.11453,83,120,40
500.11453,500.41302,79,120,40
500.41302,500.6618,74,120,40
500.71155,501.01004,59,120,40
500.71155,501.01004,71,120,40
501.01004,501.30856,74,120,40
501.30856,501.5573,78,120,40
501.60706,501.6817,62,120,40
501.60706,501.90558,71,120,40
501.6817,501.90558,86,120,40
501.90558,502.20407,83,120,40
502.20407,502.45282,79,120,40
502.5026,502.8011,62,120,40
502.5026,502.8011,71,120,40
502.5026,502.8011,78,120,40
502.8011,503.0996,83,120,40
503.0996,503.34836,86,120,40
503.3981,503.47275,55,120,40
503.3981,503.47275,62,120,40
503.47275,503.6935,79,120,40
503.47275,503.6935,91,120,40
503.69662,504.39313,67,127,40
504.39313,504.49265,69,120,40
504.49265,504.58902,71,120,40
504.59213,505.28867,71,127,40
505.28867,505.38815,72,120,40
505.38815,505.48456,74,120,40
505.48767,505.88565,74,127,40
505.88565,505.98517,76,120,40
505.98517,506.08157,78,120,40
506.08466,506.18417,79,120,40
506.18417,506.28366,81,120,40
506.28366,506.38007,83,120,40
506.38318,506.48267,83,120,40
506.48267,506.58218,84,120,40
506.58218,506.6786,86,120,40
506.68167,506.7812,86,120,40
506.7812,506.88068,88,120,40
506.88068,506.97708,90,120,40
506.9802,507.22894,91,120,40
507.8757,508.12448,55,120,40
507.8757,508.12448,67,120,40
508.6966,508.77124,55,120,40
508.6966,508.77124,62,120,40
508.77124,509.16925,79,120,40
508.77124,509.16925,91,120,40
72.56523,72.82165,64,120,45
72.56523,72.82165,69,120,45
72.56523,72.82165,81,120,45
73.48831,73.74472,57,120,45
73.48831,73.74472,62,120,45
73.48831,73.74472,74,120,45
74.411385,74.66779,64,120,45
74.411385,74.66779,72,120,45
74.411385,74.66779,79,120,45
75.02677,75.28318,72,120,45
75.949844,76.20625,65,120,45
76.872925,77.12933,64,120,45
1.73913,2.7053134,55,127,41
2.7053134,2.8019316,57,112,41
2.8019316,2.89855,58,112,41
2.89855,3.768115,58,112,41
3.768115,4.541062,55,127,41
4.541062,4.63768,57,112,41
4.63768,4.734298,58,112,41
4.734298,4.830917,60,112,41
4.830917,4.927535,62,112,41
4.927535,5.21739,62,112,41
5.21739,5.410627,58,127,41
5.410627,5.507245,60,112,41
5.507245,5.6038632,62,127,41
5.6038632,5.700482,63,112,41
5.700482,5.7971,65,112,41
5.7971,5.8937182,65,127,41
5.8937182,5.990337,67,112,41
5.990337,6.0839357,68,112,41
6.086955,7.0984282,68,127,41
7.1014476,7.246375,67,112,41
7.246375,7.3913026,65,112,41
7.3913026,7.53623,63,112,41
7.53623,7.750602,62,112,41
7.753621,7.8230658,62,112,41
7.826085,7.9710126,62,127,41
7.9710126,8.11594,60,127,41
8.11594,8.260867,58,127,41
8.260867,8.405795,57,127,41
8.405795,8.620167,55,112,41
8.623186,8.692631,55,112,41
8.69565,9.130432,55,127,41
9.130432,9.272341,53,112,41
9.27536,9.516906,58,112,41
9.565215,9.999997,57,127,41
9.999997,10.141906,55,112,41
10.144925,10.386471,51,112,41
10.43478,10.869562,55,127,41
10.869562,11.011471,53,112,41
11.01449,11.256036,58,112,41
11.304345,11.739127,57,127,41
11.739127,11.881036,55,112,41
11.884055,12.125601,62,112,41
12.17391,12.608692,60,127,41
12.608692,12.750601,58,112,41
12.75362,12.995166,65,112,41
13.043475,13.429949,66,127,41
13.429949,13.5265665,64,112,41
13.5265665,13.620166,62,112,41
13.623185,14.0066395,62,127,41
14.009658,14.1062765,57,112,41
14.1062765,14.202895,55,112,41
14.202895,14.299513,54,112,41
14.299513,14.3961315,52,112,41
14.3961315,14.49275,50,112,41
14.49275,16.489147,50,127,41
16.56529,17.587725,55,127,41
17.59093,17.693495,57,112,41
17.693495,17.796059,58,112,41
17.796059,18.667852,58,127,41
18.719133,19.539646,55,127,41
19.539646,19.639006,57,112,41
19.64221,19.744774,58,112,41
19.744774,19.847338,60,112,41
19.847338,19.946697,62,112,41
19.949902,20.206312,62,127,41
20.257593,20.462723,58,127,41
20.462723,20.56208,60,112,41
20.565287,20.66785,62,112,41
20.66785,20.770414,63,112,41
20.770414,20.869772,65,112,41
20.872978,20.975542,65,112,41
20.975542,21.078106,67,112,41
21.078106,21.177465,68,112,41
21.18067,22.254387,68,112,41
22.257591,22.411438,67,112,41
22.411438,22.565285,65,112,41
22.565285,22.71913,63,112,41
22.71913,22.946693,62,112,41
22.9499,23.023617,62,112,41
23.026821,23.180668,62,112,41
23.180668,23.334515,60,112,41
23.334515,23.48836,58,112,41
23.48836,23.642206,57,112,41
23.642206,23.86977,55,112,41
23.872974,23.946693,55,112,41
23.949898,24.411436,55,112,41
24.411436,24.562077,53,112,41
24.565283,24.821692,58,112,41
24.872974,25.334513,57,112,41
25.334513,25.485153,55,112,41
25.488358,25.744768,51,112,41
25.79605,26.257587,55,112,41
26.257587,26.40823,53,112,41
26.411434,26.667845,58,112,41
26.719126,27.180664,57,112,41
27.180664,27.331305,55,112,41
27.33451,27.59092,62,112,41
27.642202,28.10374,60,112,41
28.10374,28.254381,58,112,41
28.257586,28.513996,65,112,41
28.565277,29.026815,64,112,41
29.026815,29.177458,62,112,41
29.180662,30.206303,69,127,41
30.206303,30.308867,68,112,41
30.308867,30.408224,66,112,41
30.41143,30.821686,66,127,41
30.821686,30.92425,64,112,41
30.92425,31.02361,62,112,41
31.026814,31.43707,62,127,41
31.43707,31.539635,57,112,41
31.539635,31.638992,55,112,41
31.642199,31.744762,54,112,41
31.744762,31.847326,52,112,41
31.847326,31.946686,50,112,41
31.94989,34.949886,50,127,41
35.02681,35.642193,52,112,41
35.642193,35.949886,51,112,41
35.949886,36.25758,61,112,41
36.25758,36.56527,62,112,41
36.56527,36.872963,50,112,41
36.872963,37.488346,52,112,41
37.488346,37.79604,51,112,41
37.79604,38.10373,61,112,41
38.10373,38.36014,62,112,41
38.411423,38.66783,50,112,41
38.719112,40.488342,56,112,41
40.565266,42.026802,62,112,41
42.103725,42.360134,53,112,41
42.41142,43.026802,54,112,41
43.026802,43.334496,57,112,41
43.334496,43.872955,55,112,41
43.94988,44.206287,53,112,41
44.25757,44.872955,54,112,41
44.872955,45.180645,57,112,41
45.180645,45.71911,55,112,41
45.79603,46.05244,53,112,41
46.10372,47.87295,54,112,41
47.949875,49.719105,50,112,41
49.796024,49.94987,48,112,41
49.94987,50.100513,58,112,41
50.103718,50.565254,62,112,41
50.565254,50.715897,64,112,41
50.7191,51.18064,62,112,41
51.18064,51.33128,58,112,41
51.334484,51.590897,48,112,41
51.642178,51.94987,50,112,41
51.94987,52.25756,51,112,41
52.25756,52.565254,50,112,41
52.565254,52.872948,53,112,41
52.872948,53.180637,51,112,41
53.180637,53.43705,50,112,41
53.48833,53.642178,48,112,41
53.642178,53.792816,58,112,41
53.79602,54.25756,62,112,41
54.25756,54.4082,64,112,41
54.411407,54.872944,62,112,41
54.872944,55.023586,58,112,41
55.02679,55.2832,48,112,41
55.33448,55.642174,52,112,41
55.642174,55.949867,53,112,41
55.949867,56.206276,52,112,41
56.257557,56.56525,55,112,41
56.56525,56.872944,53,112,41
56.872944,57.129353,52,112,41
57.180634,57.33448,50,112,41
57.33448,57.485123,58,112,41
57.488327,57.949863,62,112,41
57.949863,58.100506,64,112,41
58.10371,58.565247,62,112,41
58.565247,58.71589,52,112,41
58.719093,58.975506,50,112,41
59.026787,59.334476,53,112,41
59.334476,59.64217,55,112,41
59.64217,59.89858,53,112,41
59.949863,60.257553,56,112,41
60.257553,60.565247,55,112,41
60.565247,60.821655,53,112,41
61.18063,61.331272,57,112,41
61.488323,61.63896,48,112,41
62.103706,62.25435,50,112,41
62.4114,62.56204,53,112,41
63.026783,63.17742,55,112,41
63.334473,63.485115,52,112,41
63.94986,64.1005,48,112,41
64.25755,64.40819,52,112,41
64.87293,65.023575,53,112,41
65.180626,65.33127,57,112,41
65.79601,65.94665,55,112,41
66.1037,66.25434,52,112,41
66.41139,66.719086,57,112,41
66.44985,66.719086,64,127,41
66.44985,67.02678,72,127,41
67.02678,67.28319,69,112,41
67.33447,67.94985,65,112,41
67.94985,68.17742,62,112,41
68.257545,68.56524,59,112,41
68.257545,68.56524,64,112,41
68.56524,68.87293,67,112,41
68.87293,69.12934,71,112,41
69.18062,69.48831,60,112,41
69.219086,69.48831,67,127,41
69.219086,69.796005,76,127,41
69.796005,70.052414,72,112,41
70.1037,70.719086,69,112,41
70.719086,70.975494,65,112,41
71.02677,71.334465,55,112,41
71.02677,71.334465,64,112,41
71.334465,71.64216,67,112,41
71.64216,71.89857,71,112,41
83.026764,86.71906,65,112,41
86.71906,87.64214,64,112,41
87.64214,88.565216,63,112,41
88.565216,89.79598,62,112,41
89.79598,90.103676,63,112,41
90.103676,90.360085,65,112,41
90.41137,90.71906,67,112,41
90.71906,91.02676,62,112,41
91.02676,91.33445,63,112,41
91.33445,92.25752,65,112,41
92.25752,92.87291,63,112,41
92.87291,93.12932,65,112,41
93.180595,94.103676,67,112,41
94.103676,95.33444,69,112,41
95.33444,95.642136,67,112,41
95.642136,95.898544,69,112,41
95.94983,96.257515,70,112,41
96.257515,96.56521,65,112,41
96.56521,96.8729,67,112,41
96.8729,97.795975,69,112,41
97.795975,98.41136,67,127,41
98.41136,98.66777,69,112,41
98.719055,99.334435,70,127,41
99.334435,99.59085,72,112,41
99.64213,100.872894,74,112,41
100.872894,101.18059,72,112,41
101.18059,101.437,74,112,41
101.48828,101.795975,76,127,41
101.795975,102.10367,74,112,41
102.10367,102.41136,76,112,41
102.41136,103.25751,77,112,41
113.48827,114.41135,73,112,41
114.41135,115.33442,72,112,41
115.33442,116.18057,71,112,41
116.2575,117.488266,70,112,41
117.488266,117.79596,72,112,41
117.79596,118.05237,74,112,41
118.10365,118.41134,75,112,41
118.41134,118.71903,70,112,41
118.71903,118.97544,72,112,41
119.026726,119.9498,73,112,41
119.9498,120.87288,72,112,41
120.87288,121.71903,71,112,41
121.79595,122.71903,70,127,41
122.71903,123.026726,71,112,41
123.026726,123.33441,73,112,41
123.33441,123.59082,75,112,41
123.642105,123.9498,76,112,41
123.9498,124.25749,71,112,41
124.25749,124.565186,73,112,41
124.565186,125.41134,74,112,41
136.61174,137.40884,67,112,41
137.48131,138.2784,66,112,41
138.35086,139.14796,64,112,41
139.22043,140.33154,63,127,41
140.37985,140.66971,62,112,41
140.66971,140.95956,63,112,41
140.95956,141.24942,65,112,41
141.24942,141.53928,63,112,41
141.53928,141.82913,65,112,41
141.82913,142.62622,67,112,41
142.69868,143.49579,66,112,41
143.56825,144.36536,64,112,41
144.43782,145.23492,63,127,41
145.30739,145.59724,62,112,41
145.59724,145.8871,63,112,41
145.8871,146.12865,65,112,41
146.17696,146.46681,67,112,41
146.46681,146.75667,65,112,41
146.75667,146.99821,67,112,41
147.04652,147.84361,69,112,41
147.91608,148.71318,70,127,41
148.78564,149.0755,66,112,41
149.0755,149.36536,68,112,41
149.36536,149.6069,70,112,41
149.65521,150.52478,72,112,41
150.52478,152.19144,74,112,41
152.2639,153.061,69,112,41
153.13347,153.93057,70,127,41
154.00304,154.2929,66,112,41
154.2929,154.58275,68,112,41
154.58275,154.8243,70,112,41
154.8726,155.74217,72,112,41
155.74217,157.40883,74,112,41
157.4813,158.35086,72,112,41
158.35086,160.01753,74,112,41
160.09,160.95956,72,112,41
160.95956,161.75665,74,112,41
161.82912,162.40883,72,112,41
162.40883,162.65038,70,112,41
162.69868,163.2784,65,112,41
163.2784,163.51994,62,112,41
163.56825,164.14796,60,112,41
164.14796,164.38951,58,112,41
164.43782,165.23492,53,112,41
165.30739,170.84279,53,112,41
173.9259,175.51794,64,127,41
175.51794,175.61745,62,112,41
175.61745,175.71384,60,112,41
175.71695,175.86308,58,112,41
177.50798,178.90102,67,127,41
178.90102,179.00052,65,112,41
179.00052,179.10002,64,112,41
179.10002,179.19952,62,112,41
179.19952,179.29591,60,112,41
179.29903,179.44518,58,112,41
180.79156,181.83322,70,127,41
181.83633,181.9856,69,112,41
181.9856,182.13484,67,112,41
182.13484,182.2841,65,112,41
182.2841,182.50798,64,112,41
182.50798,182.5795,62,112,41
182.58261,182.73186,62,112,41
182.73186,182.8811,60,112,41
182.8811,183.03036,58,112,41
183.03036,183.17961,57,112,41
183.17961,183.4035,55,112,41
183.4035,183.47502,53,112,41
183.47812,183.92589,53,112,41
183.92589,184.07204,52,112,41
184.07513,184.3239,62,112,41
184.37364,184.67215,64,112,41
184.67215,184.92091,65,112,41
184.97066,185.21942,53,112,41
185.26917,185.71693,56,112,41
185.71693,185.86307,55,112,41
185.86618,186.11494,65,112,41
186.16469,186.4632,67,112,41
186.4632,186.71194,68,112,41
186.7617,187.01045,56,112,41
187.06021,187.50797,59,112,41
187.50797,187.65411,58,112,41
187.65723,187.90598,68,112,41
187.95573,188.25424,70,112,41
188.25424,188.50299,71,112,41
188.55275,188.8015,68,112,41
188.85126,189.14977,59,112,41
189.14977,189.44826,52,112,41
189.44826,189.69702,59,112,41
189.74677,190.04527,60,112,41
190.04527,190.34378,62,112,41
190.34378,190.59254,64,112,41
190.64229,191.0403,65,127,41
191.0403,191.1398,64,112,41
191.1398,191.23619,62,112,41
191.2393,191.78658,62,127,41
191.83632,191.93582,60,112,41
191.93582,192.03532,58,112,41
192.03532,192.13171,57,112,41
192.13483,192.63234,57,112,41
192.63234,192.72873,55,112,41
192.73184,192.83134,53,112,41
192.83134,192.93085,52,112,41
192.93085,193.02724,50,112,41
193.03035,195.04527,50,112,41
197.20944,198.80148,64,127,41
198.80148,198.90099,62,112,41
198.90099,199.00049,60,112,41
199.00049,199.14664,58,112,41
200.79153,202.18457,67,127,41
202.18457,202.28096,65,112,41
202.28407,202.38358,64,112,41
202.38358,202.48308,62,112,41
202.48308,202.58258,60,112,41
202.58258,202.72871,58,112,41
204.0751,205.11989,70,127,41
205.11989,205.26913,69,112,41
205.26913,205.4184,67,112,41
205.4184,205.56764,66,112,41
205.56764,205.79152,64,112,41
205.79152,205.86304,62,112,41
205.86615,207.01042,62,112,41
207.06018,207.35869,56,112,41
207.35869,207.60744,62,112,41
207.6572,208.10495,63,112,41
208.10495,208.25421,61,112,41
208.25421,208.50296,56,112,41
208.55272,208.85123,62,112,41
208.85123,209.14973,56,112,41
209.14973,209.39848,62,112,41
209.44823,209.896,63,112,41
209.896,210.04524,61,112,41
210.04524,210.294,56,112,41
210.34375,210.64226,64,112,41
210.64226,210.94077,58,112,41
210.94077,211.18953,64,112,41
211.23927,211.68704,65,112,41
211.68704,211.83629,63,112,41
211.83629,212.08505,58,112,41
212.1348,212.4333,66,112,41
212.4333,212.73181,60,112,41
212.73181,212.98056,66,112,41
213.03032,213.47807,67,112,41
213.47807,213.62733,65,112,41
213.62733,213.87608,60,112,41
213.92584,214.22435,53,112,41
214.22435,214.52286,57,112,41
214.52286,214.82137,60,112,41
214.82137,215.11987,65,112,41
215.11987,215.36862,69,112,41
215.41838,216.5129,72,112,41
216.5129,216.6093,70,112,41
216.6124,216.7119,69,112,41
216.7119,216.8114,67,112,41
216.8114,216.9078,65,112,41
216.9109,217.4333,65,112,41
217.50792,217.80643,52,112,41
217.80643,218.10493,56,112,41
218.10493,218.40344,59,112,41
218.40344,218.70195,64,112,41
218.70195,218.95071,68,112,41
219.00046,220.09499,71,112,41
220.09499,220.19138,69,112,41
220.19449,220.29399,68,112,41
220.29399,220.3935,66,112,41
220.3935,220.48988,64,112,41
220.493,221.01538,64,112,41
221.09001,221.38852,51,112,41
221.38852,221.68703,55,112,41
221.68703,221.98553,58,112,41
221.98553,222.28404,63,112,41
222.28404,222.53279,67,112,41
222.58253,223.67706,70,112,41
223.67706,223.77347,68,112,41
223.77657,223.87607,67,112,41
223.87607,223.97557,65,112,41
223.97557,224.07196,63,112,41
224.07507,224.32384,63,112,41
224.37358,224.9706,51,112,41
224.9706,225.2691,53,112,41
225.2691,225.86612,55,112,41
225.86612,226.16463,53,112,41
226.16463,226.41338,56,112,41
226.46313,226.76164,55,112,41
226.76164,227.06015,57,112,41
227.06015,227.3089,59,112,41
227.35866,227.65717,58,112,41
227.65717,227.95567,56,112,41
227.95567,228.20442,60,112,41
228.25418,228.55269,63,112,41
228.55269,228.8512,65,112,41
228.8512,229.59746,67,112,41
229.59746,229.7436,65,112,41
229.7467,229.99547,68,112,41
230.04521,230.34372,67,112,41
230.34372,230.64223,69,112,41
230.64223,230.89099,71,112,41
230.94073,231.23924,70,112,41
231.23924,231.53775,68,112,41
231.53775,232.28403,67,112,41
232.28403,232.43016,66,112,41
232.43327,232.68202,69,112,41
232.73178,233.03029,67,112,41
233.03029,233.3288,69,112,41
233.3288,233.57755,70,112,41
233.6273,234.07506,69,112,41
234.07506,234.2212,67,112,41
234.22432,234.82133,70,112,41
234.82133,235.11984,69,112,41
235.11984,235.36859,67,112,41
235.41835,236.01535,65,112,41
236.01535,236.31386,63,112,41
236.31386,236.61237,58,112,41
236.61237,236.76163,60,112,41
236.76163,236.91087,62,112,41
236.91087,237.15964,63,112,41
237.20938,237.8064,67,112,41
237.8064,238.1049,65,112,41
238.1049,238.40341,60,112,41
238.40341,238.55267,62,112,41
238.55267,238.70192,64,112,41
238.70192,238.95067,65,112,41
239.00043,239.59744,69,112,41
239.59744,239.89595,67,112,41
239.89595,240.19446,62,112,41
240.19446,240.3437,64,112,41
240.3437,240.49297,66,112,41
240.49297,241.04022,67,112,41
241.08998,241.23923,66,112,41
241.23923,241.38849,67,112,41
241.38849,241.9855,69,112,41
241.9855,242.13475,62,112,41
242.13475,242.284,64,112,41
242.284,242.53276,66,112,41
242.5825,242.83127,63,112,41
242.5825,243.03027,70,127,41
243.03027,243.17642,72,112,41
243.17952,243.42828,70,112,41
244.37355,244.62231,63,112,41
244.37355,244.82132,70,127,41
244.82132,244.96745,71,112,41
244.97057,245.21933,70,112,41
246.1646,246.41335,57,112,41
246.1646,246.41335,66,112,41
246.1646,246.61235,73,127,41
246.61235,246.7585,74,112,41
246.76161,247.01036,73,112,41
247.95564,248.25415,62,127,41
247.95564,248.4034,74,127,41
248.4034,248.54955,75,112,41
248.55266,248.8014,74,112,41
248.85115,249.14966,54,127,41
248.85115,249.29892,66,127,41
249.29892,249.44507,62,112,41
249.44817,249.69693,66,112,41
249.74667,250.19444,62,127,41
250.19444,250.34058,63,112,41
250.34369,250.59245,62,112,41
250.6422,251.08997,54,127,41
251.08997,251.2361,50,112,41
251.23921,251.48798,54,112,41
251.53772,251.98549,62,127,41
251.98549,252.13162,63,112,41
252.13474,252.57542,62,127,41
252.57848,252.72237,63,112,41
252.72545,253.17767,60,127,41
253.17767,253.32913,62,112,41
253.33237,253.8091,58,127,41
253.8091,253.96893,60,112,41
253.97235,254.47284,58,127,41
254.47641,254.64561,60,112,41
254.64923,255.18393,57,127,41
255.18393,255.36368,58,112,41
255.36751,256.36255,55,127,41
256.36255,256.46204,57,112,41
256.46204,256.55844,58,112,41
256.56155,257.45706,58,127,41
257.45706,258.25308,55,127,41
258.25308,258.3495,57,112,41
258.3526,258.4521,58,112,41
258.4521,258.5516,60,112,41
258.5516,258.64798,62,112,41
258.6511,258.89984,62,127,41
258.9496,259.1486,58,112,41
259.1486,259.245,60,112,41
259.2481,259.3476,62,112,41
259.3476,259.4471,63,112,41
259.4471,259.54352,65,112,41
259.5466,259.64612,65,112,41
259.64612,259.7456,67,112,41
259.7456,259.842,68,112,41
259.84512,260.88678,68,127,41
260.8899,261.03915,67,112,41
261.03915,261.18842,65,112,41
261.18842,261.33765,63,112,41
261.33765,261.55844,62,112,41
261.56152,261.63306,62,112,41
261.63617,261.78543,62,127,41
261.78543,261.93466,60,127,41
261.93466,262.08392,58,127,41
262.08392,262.2332,57,127,41
262.2332,262.45395,55,112,41
262.45706,262.52856,55,112,41
262.53168,262.97943,55,127,41
262.97943,263.12558,53,112,41
263.1287,263.37744,58,112,41
263.42722,263.87497,57,127,41
263.87497,264.02112,55,112,41
264.02423,264.27298,51,112,41
264.32272,264.77048,55,127,41
264.77048,264.91663,53,112,41
264.91974,265.1685,58,112,41
265.21823,265.66602,57,127,41
265.66602,265.81216,55,112,41
265.81525,266.06403,62,112,41
266.11377,266.56152,60,127,41
266.56152,266.70767,58,112,41
266.7108,266.95953,65,112,41
267.00928,267.4073,66,127,41
267.4073,267.5068,64,112,41
267.5068,267.60318,62,112,41
267.6063,268.0012,62,127,41
268.0043,268.10382,57,112,41
268.10382,268.2033,55,112,41
268.2033,268.30283,54,112,41
268.30283,268.4023,52,112,41
268.4023,268.50183,50,112,41
268.50183,270.51675,50,127,41
270.59137,271.58328,55,127,41
271.5864,271.6859,57,112,41
271.6859,271.7854,58,112,41
271.7854,272.6809,58,127,41
272.6809,273.47693,55,127,41
273.47693,273.57333,57,112,41
273.57645,273.67593,58,112,41
273.67593,273.77545,60,112,41
273.77545,273.87183,62,112,41
273.87494,274.12372,62,127,41
274.17346,274.37247,58,127,41
274.37247,274.46884,60,112,41
274.47195,274.57147,62,112,41
274.57147,274.67096,63,112,41
274.67096,274.76736,65,112,41
274.77048,274.86996,65,112,41
274.86996,274.96948,67,112,41
274.96948,275.06586,68,112,41
275.06897,276.11066,68,112,41
276.11374,276.263,67,112,41
276.263,276.41226,65,112,41
276.41226,276.56152,63,112,41
276.56152,276.7823,62,112,41
276.7854,276.8569,62,112,41
276.86002,277.00928,62,112,41
277.00928,277.15854,60,112,41
277.15854,277.30777,58,112,41
277.30777,277.45703,57,112,41
277.45703,277.6778,55,112,41
277.6809,277.75244,55,112,41
277.75555,278.2033,55,112,41
278.2033,278.34946,53,112,41
278.35257,278.60132,58,112,41
278.65106,279.09882,57,112,41
279.09882,279.24496,55,112,41
279.24808,279.49683,51,112,41
279.54657,279.99435,55,112,41
279.99435,280.14047,53,112,41
280.1436,280.39236,58,112,41
280.4421,280.88986,57,112,41
280.88986,281.036,55,112,41
281.03912,281.28787,62,112,41
281.33762,281.78537,60,112,41
281.78537,281.93152,58,112,41
281.93463,282.18338,65,112,41
282.23315,282.6809,64,112,41
282.6809,282.82706,62,112,41
282.83017,283.8252,69,127,41
283.8252,283.92468,68,112,41
283.92468,284.0211,66,112,41
284.0242,284.4222,66,127,41
284.4222,284.5217,64,112,41
284.5217,284.6181,62,112,41
284.62122,285.0192,62,127,41
285.0192,285.1187,57,112,41
285.1187,285.21512,55,112,41
285.2182,285.31772,54,112,41
285.31772,285.4172,52,112,41
285.4172,285.5136,50,112,41
285.51672,288.42715,50,127,41
288.5018,289.09882,52,112,41
289.09882,289.3973,51,112,41
289.3973,289.69583,61,112,41
289.69583,289.99432,62,112,41
289.99432,290.29285,50,112,41
290.29285,290.88986,52,112,41
290.88986,291.18835,51,112,41
291.18835,291.48688,61,112,41
291.48688,291.73563,62,112,41
291.78537,292.03412,50,112,41
292.08386,293.8003,56,112,41
293.8749,295.29282,62,112,41
295.36746,295.6162,53,112,41
295.66595,296.26297,54,112,41
296.26297,296.5615,57,112,41
296.5615,297.08386,55,112,41
297.1585,297.40726,53,112,41
297.457,298.05402,54,112,41
298.05402,298.3525,57,112,41
298.3525,298.8749,55,112,41
298.94952,299.1983,53,112,41
299.24805,300.96445,54,112,41
301.0391,302.7555,50,112,41
302.83014,302.97937,48,112,41
302.97937,303.12552,58,112,41
303.12863,303.5764,62,112,41
303.5764,303.72253,64,112,41
303.72565,304.1734,62,112,41
304.1734,304.32266,58,112,41
304.32266,304.5714,48,112,41
304.6212,304.91968,50,112,41
304.91968,305.21817,51,112,41
305.21817,305.46695,50,112,41
305.5167,305.8152,53,112,41
305.8152,306.1137,51,112,41
306.1137,306.36246,50,112,41
306.4122,306.56146,48,112,41
306.56146,306.71072,58,112,41
306.71072,307.15848,63,112,41
307.15848,307.30463,65,112,41
307.30774,307.7555,63,112,41
307.7555,307.90475,58,112,41
307.90475,308.1535,48,112,41
308.20325,308.50177,53,112,41
308.50177,308.80026,55,112,41
308.80026,309.049,53,112,41
309.0988,309.39728,57,112,41
309.39728,309.6958,55,112,41
309.6958,309.94455,53,112,41
309.9943,310.14355,56,112,41
310.14355,310.29282,62,112,41
310.29282,310.74057,71,112,41
310.74057,310.88672,72,112,41
310.88983,311.3376,71,112,41
311.3376,311.48682,62,112,41
311.48682,311.7356,56,112,41
311.78534,312.08383,61,112,41
312.08383,312.38235,62,112,41
312.38235,312.6311,61,112,41
312.68085,312.97937,64,112,41
312.97937,313.27786,62,112,41
313.27786,313.52664,61,112,41
313.87488,314.02103,54,112,41
314.1734,314.31955,57,112,41
314.77042,314.91656,59,112,41
315.0689,315.21506,62,112,41
315.66592,315.81207,64,112,41
315.96445,316.1106,61,112,41
316.56146,316.70758,57,112,41
316.85995,317.0061,61,112,41
317.45697,317.60312,62,112,41
317.7555,317.9016,66,112,41
318.35248,318.49863,64,112,41
318.651,318.79715,61,112,41
318.9495,319.24802,54,127,41
318.9495,319.24802,61,127,41
318.9495,319.5465,69,127,41
319.5465,319.7953,66,112,41
319.84503,320.44205,62,112,41
320.44205,320.6908,59,112,41
320.74054,321.03906,61,112,41
320.74054,321.03906,68,112,41
321.03906,321.33755,64,112,41
321.33755,321.5863,68,112,41
321.63608,321.93457,57,127,41
321.63608,321.93457,64,127,41
321.63608,322.2331,73,127,41
322.2331,322.48184,69,112,41
322.5316,323.1286,66,112,41
323.1286,323.37735,62,112,41
323.42712,323.72562,61,112,41
323.42712,323.72562,68,112,41
323.72562,324.02414,64,112,41
324.02414,324.2729,68,112,41
329.69577,330.59128,53,112,41
330.59128,331.1883,56,112,41
331.1883,331.43704,59,112,41
331.4868,332.0838,55,112,41
331.4868,332.0838,63,112,41
332.0838,332.33258,60,112,41
332.38232,333.27783,53,112,41
333.27783,333.87485,56,112,41
333.87485,334.12363,59,112,41
334.17337,334.7704,55,112,41
334.17337,334.7704,63,112,41
334.7704,335.01913,60,112,41
335.96442,336.56143,65,112,41
336.56143,336.81018,62,112,41
336.85992,337.45694,63,112,41
337.45694,337.7057,59,112,41
338.65097,339.248,65,112,41
339.248,339.49673,62,112,41
339.54648,340.1435,63,112,41
340.1435,340.39227,59,112,41
340.44202,341.33752,54,112,41
341.33752,342.15842,55,112,41
342.23306,343.94946,54,112,41
344.0241,344.845,55,112,41
344.91962,351.437,54,112,41
354.77036,357.3823,62,112,41
357.4569,358.35242,61,112,41
358.35242,359.24796,60,112,41
359.24796,360.442,59,112,41
360.442,360.74048,60,112,41
360.74048,360.98923,62,112,41
361.039,361.3375,64,112,41
361.3375,361.63602,59,112,41
361.63602,361.9345,60,112,41
361.9345,362.7554,62,112,41
362.83005,363.42706,60,112,41
363.42706,363.6758,62,112,41
363.72556,364.62106,64,112,41
364.62106,365.8151,66,112,41
365.8151,366.11362,64,112,41
366.11362,366.36237,66,112,41
366.4121,366.71063,67,112,41
366.71063,367.00912,62,112,41
367.00912,367.30765,64,112,41
367.30765,368.12854,66,112,41
368.20316,368.80017,64,112,41
368.80017,369.04892,66,112,41
369.0987,369.6957,67,112,41
369.6957,369.94446,69,112,41
369.9942,371.18823,71,112,41
371.18823,371.48672,69,112,41
371.48672,371.78525,71,112,41
371.78525,372.08374,73,112,41
372.08374,372.38226,71,112,41
372.38226,372.68076,73,112,41
372.68076,373.50165,74,112,41
383.42703,384.32254,70,112,41
384.32254,385.21805,69,112,41
385.21805,386.1136,68,112,41
386.1136,387.30762,67,127,41
387.30762,387.6061,69,112,41
387.6061,387.85486,71,112,41
387.90463,388.20312,72,112,41
388.20312,388.50165,67,112,41
388.50165,388.7504,69,112,41
388.80014,389.69568,70,112,41
389.69568,390.5912,69,112,41
390.5912,391.41208,68,112,41
391.4867,392.38223,67,127,41
392.38223,392.68073,68,112,41
392.68073,392.97925,70,112,41
392.97925,393.228,72,112,41
393.27774,393.57626,73,112,41
393.57626,393.87476,68,112,41
393.87476,394.17328,70,112,41
394.17328,394.99417,71,112,41
405.79697,406.62595,64,112,41
406.70328,407.55835,63,112,41
407.63647,408.5016,61,112,41
408.58054,409.79745,60,127,41
409.85037,410.16782,59,112,41
410.16782,410.43237,60,112,41
410.4853,410.80276,62,112,41
410.80276,411.1202,60,112,41
411.1202,411.38477,62,112,41
411.43768,412.3107,64,112,41
412.39005,413.26306,63,112,41
413.34244,414.21545,61,112,41
414.2948,415.2472,60,127,41
415.2472,415.56464,59,112,41
415.56464,415.8821,60,112,41
415.8821,416.14667,62,112,41
416.1996,416.51703,64,112,41
416.51703,416.8345,62,112,41
416.8345,417.09903,64,112,41
417.15195,417.78687,66,112,41
417.78687,418.05142,64,112,41
418.10434,418.73926,63,112,41
418.73926,419.0567,60,112,41
419.0567,419.69162,62,112,41
419.69162,419.95618,63,112,41
420.0091,421.5964,62,112,41
421.5964,421.86093,71,112,41
421.91385,422.54877,69,112,41
422.54877,422.81332,67,112,41
422.86624,423.50116,66,112,41
423.50116,423.8186,64,112,41
423.8186,424.45352,63,112,41
424.45352,424.771,60,112,41
424.771,425.4059,62,112,41
425.4059,425.67047,63,112,41
425.72336,427.31067,62,112,41
427.31067,427.57523,74,112,41
427.62814,428.26306,73,112,41
428.26306,428.5276,71,112,41
428.5805,429.5329,70,112,41
429.5329,430.16782,71,112,41
430.16782,430.43237,78,112,41
430.48526,431.12018,76,112,41
431.12018,431.38474,74,112,41
431.43765,432.31067,73,112,41
432.39005,432.7075,74,112,41
432.7075,433.02496,62,112,41
433.02496,433.2895,64,112,41
433.3424,433.65988,65,112,41
433.65988,433.97733,67,112,41
433.97733,434.2948,69,112,41
434.2948,435.24716,71,112,41
435.24716,436.12018,69,112,41
436.19955,436.83447,67,112,41
436.83447,437.09903,66,112,41
437.15192,437.7075,67,112,41
437.78687,438.42178,69,112,41
438.42178,438.73923,62,112,41
438.73923,439.0567,64,112,41
439.0567,439.37415,65,112,41
439.37415,439.69162,67,112,41
439.69162,439.95615,69,112,41
440.00906,440.96146,71,112,41
440.96146,441.59637,69,112,41
441.59637,441.91382,67,112,41
441.91382,442.2313,66,112,41
442.2313,442.54874,67,112,41
442.54874,444.08313,69,112,41
444.13605,444.45352,71,112,41
444.45352,444.71805,73,112,41
444.77097,445.72336,74,112,41
445.72336,446.67572,72,112,41
446.67572,447.54874,71,112,41
447.6281,448.5805,70,112,41
448.5805,448.84503,69,112,41
448.89795,449.1625,70,112,41
449.21542,449.85034,71,112,41
449.85034,450.1678,73,112,41
450.1678,450.48526,75,112,41
450.48526,451.43762,76,112,41
451.43762,452.39,74,112,41
452.39,453.26303,73,112,41
453.34238,454.29477,72,112,41
454.29477,454.55933,71,112,41
454.61224,454.87677,72,112,41
454.9297,455.5646,73,112,41
455.5646,455.88208,75,112,41
455.88208,456.1466,77,112,41
456.19952,457.15192,78,112,41
457.15192,458.10428,76,112,41
458.10428,458.9773,75,112,41
459.05667,460.88208,73,112,41
460.96143,461.91382,72,112,41
461.91382,462.78683,70,112,41
462.86618,463.81857,71,112,41
463.81857,464.75183,69,112,41
464.75183,465.7484,67,112,41
464.75183,465.7484,74,112,41
465.8473,468.14728,61,112,41
465.8473,468.14728,67,112,41
468.24728,469.3473,55,112,41
468.24728,469.3473,64,112,41
469.4473,469.64313,59,112,41
469.4473,469.64313,67,112,41
469.64728,469.8473,71,112,41
469.8473,470.04727,67,112,41
470.04727,470.24313,62,112,41
470.24728,470.4473,74,112,41
470.4473,470.64313,71,112,41
470.64728,470.83603,67,112,41
470.83603,471.01923,62,112,41
471.01923,471.19238,59,112,41
471.19238,471.35654,60,112,41
471.35654,471.51257,62,112,41
471.51257,471.65823,64,112,41
471.66125,471.80618,66,112,41
471.80618,471.9511,67,112,41
471.9511,472.09604,69,112,41
472.09604,472.24097,71,112,41
472.24097,472.3859,72,112,41
472.3859,472.5278,74,112,41
472.53082,472.67575,64,112,41
472.67575,472.82068,66,112,41
472.82068,472.9656,67,112,41
472.9656,473.11053,69,112,41
473.11053,473.25546,71,112,41
473.25546,473.3962,72,112,41
473.3992,473.63843,74,112,41
474.26044,475.21738,74,127,41
475.21738,475.31308,76,112,41
475.31308,475.40576,78,112,41
475.40875,475.9095,79,127,41
475.9806,476.07242,59,112,41
476.07538,476.1672,59,112,41
476.17017,476.262,59,112,41
476.26495,476.35678,56,112,41
476.35974,476.45157,56,112,41
476.45453,476.54636,56,112,41
476.54932,476.64114,57,112,41
476.6441,476.73593,57,112,41
476.7389,476.83072,57,112,41
476.83368,476.9255,59,112,41
476.92847,477.0203,59,112,41
477.02325,477.11508,59,112,41
477.11804,477.20984,60,112,41
477.21283,477.30463,60,112,41
477.30762,477.3994,60,112,41
477.40237,477.4942,50,112,41
477.49716,477.589,50,112,41
477.59195,477.68378,50,112,41
477.68674,478.63028,74,127,41
478.63028,478.72418,76,112,41
478.72418,478.81516,78,112,41
478.81808,479.31104,79,127,41
479.38147,479.4724,59,112,41
479.47537,479.5663,59,112,41
479.56924,479.66022,59,112,41
479.66315,479.75412,56,112,41
479.75705,479.84802,56,112,41
479.85095,479.94193,56,112,41
479.94485,480.0358,57,112,41
480.03873,480.1297,57,112,41
480.13263,480.2236,57,112,41
480.22653,480.3175,59,112,41
480.32043,480.4114,59,112,41
480.41434,480.50528,59,112,41
480.50824,480.5991,60,112,41
480.602,480.6921,60,112,41
480.695,480.78513,60,112,41
480.78802,480.87814,50,112,41
480.88104,480.97116,50,112,41
480.9741,481.06418,50,112,41
481.0671,481.15723,62,112,41
481.16013,481.25024,62,112,41
481.25314,481.34326,62,112,41
481.34616,481.43628,55,112,41
481.43918,481.5293,55,112,41
481.53223,481.62234,55,112,41
481.62524,481.71536,57,112,41
481.71826,481.80838,57,112,41
481.81128,481.9014,57,112,41
481.9043,481.99442,58,112,41
481.99734,482.08743,58,112,41
482.09036,482.18048,58,112,41
482.18338,482.2735,70,112,41
482.2764,482.36652,70,112,41
482.36942,482.45953,70,112,41
482.46243,482.55255,58,112,41
482.55548,482.64557,58,112,41
482.6485,482.73862,58,112,41
482.74152,483.66248,76,112,41
483.66537,483.75464,74,112,41
483.75754,483.84683,72,112,41
483.8497,484.33356,70,127,41
484.40268,484.49197,62,112,41
484.49487,484.58414,62,112,41
484.58704,484.6763,62,112,41
484.6792,484.76846,55,112,41
484.77136,484.86063,55,112,41
484.86353,484.95282,55,112,41
484.9557,485.04498,57,112,41
485.04785,485.13715,57,112,41
485.14,485.2293,57,112,41
485.23218,485.32147,58,112,41
485.32434,485.41306,58,112,41
485.41592,485.5044,58,112,41
485.50723,485.5957,70,112,41
485.59857,485.68704,70,112,41
485.68988,485.77835,70,112,41
485.78122,485.8697,58,112,41
485.87253,485.961,58,112,41
485.96387,486.05234,58,112,41
486.05518,486.14365,64,112,41
486.1465,486.235,64,112,41
486.23782,486.3263,64,112,41
486.32916,486.41763,57,112,41
486.42047,486.50894,57,112,41
486.5118,486.60028,57,112,41
486.60312,486.6916,59,112,41
486.69446,486.78293,59,112,41
486.78577,486.87424,59,112,41
486.8771,486.96558,60,112,41
486.9684,487.0569,60,112,41
487.05975,487.14822,60,112,41
487.15106,487.23953,72,112,41
487.2424,487.33087,72,112,41
487.3337,487.42218,72,112,41
487.42505,487.51352,60,112,41
487.51636,487.60483,60,112,41
487.6077,487.69617,60,112,41
487.699,488.5999,73,127,41
488.5999,488.69,71,112,41
488.69,488.77728,69,112,41
488.7801,488.87018,69,112,41
488.87018,488.96027,67,112,41
488.96027,489.04755,66,112,41
489.05035,489.14044,67,112,41
489.14044,489.23053,69,112,41
489.23053,489.3178,71,112,41
489.32062,490.22153,73,127,41
490.22153,490.3116,71,112,41
490.3116,490.3989,69,112,41
490.4017,490.4918,69,112,41
490.4918,490.58188,67,112,41
490.58188,490.66916,66,112,41
490.67197,490.7621,67,112,41
490.7621,490.85217,71,112,41
490.85217,490.93942,74,112,41
490.94226,491.3026,74,127,41
491.3026,491.3927,72,112,41
491.3927,491.47998,70,112,41
491.4828,491.57288,68,112,41
491.57288,491.66296,72,112,41
491.66296,491.75024,75,112,41
491.75305,492.11777,75,127,41
492.11777,492.2106,73,112,41
492.2106,492.30115,71,112,41
492.30408,492.39822,69,112,41
492.39822,492.49313,73,112,41
492.49313,492.58566,76,112,41
492.58868,492.97824,76,127,41
492.97824,493.0775,74,112,41
493.0775,493.1744,72,112,41
493.17755,493.27835,70,112,41
493.27835,493.38,74,112,41
493.38,493.4792,77,112,41
493.4824,493.90048,77,127,41
493.90048,494.00717,75,112,41
494.00717,494.11136,73,112,41
494.11472,494.22318,71,112,41
494.22318,494.3326,75,112,41
494.3326,494.43945,78,112,41
494.4429,494.96527,79,112,41
495.03992,495.28867,59,112,41
495.03992,495.28867,67,112,41
495.3384,495.93542,60,112,41
495.3384,495.93542,69,112,41
495.93542,496.18417,60,112,41
496.23395,496.83096,54,112,41
496.23395,496.83096,62,112,41
496.83096,497.0797,59,112,41
496.83096,497.0797,66,112,41
497.12946,497.2041,55,112,41
497.12946,497.42798,62,112,41
497.2041,497.42798,74,112,41
497.42798,497.72647,71,112,41
497.72647,497.97522,59,112,41
497.72647,497.97522,67,112,41
498.025,498.622,60,112,41
498.025,498.622,69,112,41
498.622,498.87076,60,112,41
498.9205,499.51752,54,112,41
498.9205,499.51752,62,112,41
499.51752,499.76627,59,112,41
499.51752,499.76627,66,112,41
499.816,499.89066,55,112,41
499.816,500.11453,62,112,41
499.89066,500.11453,71,112,41
500.11453,500.41302,67,112,41
500.41302,500.6618,59,112,41
500.71155,501.01004,59,112,41
501.01004,501.30856,62,112,41
501.30856,501.5573,66,112,41
501.60706,501.6817,55,112,41
501.60706,501.90558,62,112,41
501.6817,501.90558,74,112,41
501.90558,502.20407,71,112,41
502.20407,502.45282,59,112,41
502.20407,502.45282,67,112,41
502.5026,502.8011,59,112,41
502.5026,502.8011,66,112,41
502.8011,503.0996,71,112,41
503.0996,503.34836,74,112,41
503.3981,503.64685,55,112,41
503.3981,503.64685,71,112,41
503.69662,504.39313,55,127,41
504.39313,504.49265,57,112,41
504.49265,504.58902,59,112,41
504.59213,505.28867,59,127,41
505.28867,505.38815,60,112,41
505.38815,505.48456,62,112,41
505.48767,505.88565,62,127,41
505.88565,505.98517,64,112,41
505.98517,506.08157,66,112,41
506.08466,506.18417,67,112,41
506.18417,506.28366,69,112,41
506.28366,506.38007,71,112,41
506.38318,506.48267,71,112,41
506.48267,506.58218,72,112,41
506.58218,506.6786,74,112,41
506.68167,506.7812,74,112,41
506.7812,506.88068,76,112,41
506.88068,506.97708,78,112,41
506.9802,507.22894,79,112,41
507.8757,508.12448,55,112,41
507.8757,508.12448,67,112,41
508.6966,508.77124,55,112,41
508.6966,509.16925,62,112,41
508.77124,509.16925,71,112,41
72.56523,72.82165,57,112,45
72.56523,72.82165,64,112,45
72.56523,72.82165,69,112,45
73.48831,73.74472,57,112,45
73.48831,73.74472,62,112,45
73.48831,73.74472,69,112,45
74.411385,74.66779,52,112,45
74.411385,74.66779,60,112,45
74.411385,74.66779,67,112,45
75.02677,75.28318,60,112,45
75.949844,76.20625,53,112,45
76.872925,77.12933,52,112,45
7.826085,7.9710126,62,112,42
7.9710126,8.11594,60,112,42
8.11594,8.260867,58,112,42
8.260867,8.405795,57,112,42
8.405795,8.620167,55,112,42
8.623186,8.692631,55,112,42
8.69565,9.130432,55,112,42
9.130432,9.272341,53,112,42
9.27536,9.516906,58,112,42
9.565215,9.999997,57,112,42
9.999997,10.141906,55,112,42
10.144925,10.386471,51,112,42
10.43478,10.869562,55,112,42
10.869562,11.011471,53,112,42
11.01449,11.256036,58,112,42
11.304345,11.739127,57,112,42
11.739127,11.881036,55,112,42
11.884055,12.125601,62,112,42
12.17391,12.608692,60,112,42
12.608692,12.750601,58,112,42
12.75362,12.995166,65,112,42
13.043475,13.429949,66,127,42
13.429949,13.5265665,64,112,42
13.5265665,13.620166,62,112,42
13.623185,14.0066395,62,127,42
14.009658,14.1062765,57,112,42
14.1062765,14.202895,55,112,42
14.202895,14.299513,54,112,42
14.299513,14.3961315,52,112,42
14.3961315,14.489731,50,112,42
14.49275,16.489147,50,127,42
16.872982,17.180674,58,112,42
17.180674,17.437084,50,112,42
17.488365,17.796059,51,112,42
17.796059,18.052467,55,112,42
18.10375,18.206314,63,112,42
18.206314,18.308878,62,112,42
18.308878,18.408237,60,112,42
18.411442,18.667852,62,112,42
18.719133,19.026827,58,112,42
19.026827,19.283236,50,112,42
19.334518,19.590927,52,112,42
19.64221,20.052465,64,112,42
20.052465,20.151825,62,112,42
20.15503,20.254389,60,112,42
20.257593,21.103746,62,112,42
21.18067,21.334517,60,112,42
21.334517,21.488361,65,112,42
21.488361,21.642208,63,112,42
21.642208,21.796055,62,112,42
21.796055,21.9499,60,112,42
21.9499,22.10054,58,112,42
22.103746,22.360155,56,112,42
22.411438,22.71913,60,112,42
22.71913,22.97554,58,112,42
23.026821,23.283232,52,112,42
23.334515,23.642206,62,112,42
23.642206,23.898617,61,112,42
24.25759,24.565283,58,112,42
24.565283,24.821692,53,112,42
25.180666,25.488358,46,112,42
25.488358,25.744768,55,112,42
26.103743,26.411434,58,112,42
26.411434,26.667845,53,112,42
27.026817,27.33451,50,112,42
27.33451,27.59092,58,112,42
27.949894,28.257586,53,112,42
28.257586,28.513996,61,112,42
28.87297,29.180662,57,112,42
29.180662,29.437073,65,112,42
29.796045,30.103739,66,112,42
30.103739,30.360147,61,112,42
30.41143,30.719122,57,112,42
30.719122,31.257584,54,112,42
31.334505,31.94989,50,112,42
31.94989,32.513992,45,112,42
32.565273,32.872967,38,112,42
32.872967,33.129375,39,112,42
33.180656,33.43707,40,112,42
33.48835,33.796043,41,112,42
33.796043,34.052452,42,112,42
34.103733,34.360146,43,112,42
38.719112,40.488342,46,112,42
40.565266,41.026806,47,112,42
41.026806,41.177444,50,112,42
41.18065,41.64219,53,112,42
41.64219,41.792828,55,112,42
41.796036,42.334496,59,112,42
46.10372,46.719105,47,112,42
46.719105,47.0268,46,112,42
47.0268,47.64218,39,112,42
47.64218,47.949875,38,112,42
47.949875,49.719105,43,112,42
49.796024,51.565254,36,112,42
51.642178,53.411407,43,112,42
53.48833,58.949863,36,112,42
59.026787,60.796017,38,112,42
61.18063,61.331272,45,112,42
61.488323,61.63896,48,112,42
62.103706,62.25435,50,112,42
62.4114,62.56204,53,112,42
63.026783,63.17742,55,112,42
63.334473,63.485115,52,112,42
63.94986,64.1005,48,112,42
64.25755,64.40819,52,112,42
64.87293,65.023575,53,112,42
65.180626,65.33127,57,112,42
65.79601,65.94665,55,112,42
66.1037,66.25434,52,112,42
66.41139,66.719086,45,112,42
66.44985,66.719086,52,127,42
66.44985,67.02678,60,127,42
67.02678,67.28319,57,112,42
67.33447,67.94985,53,112,42
67.94985,68.17742,50,112,42
68.257545,68.56524,52,112,42
68.257545,68.56524,59,112,42
68.56524,68.87293,55,112,42
68.87293,69.12934,59,112,42
69.18062,69.48831,48,112,42
69.219086,69.48831,55,127,42
69.219086,69.796005,64,127,42
69.796005,70.052414,60,112,42
70.1037,70.719086,57,112,42
70.719086,70.975494,53,112,42
71.02677,71.334465,52,112,42
71.02677,71.334465,59,112,42
71.334465,71.64216,55,112,42
71.64216,71.89857,59,112,42
83.026764,86.71906,53,112,42
86.71906,87.64214,52,112,42
87.64214,88.565216,51,112,42
88.565216,89.79598,50,112,42
89.79598,90.103676,51,112,42
90.103676,90.360085,53,112,42
90.41137,90.71906,55,112,42
90.71906,91.02676,50,112,42
91.02676,91.33445,51,112,42
91.33445,92.25752,53,112,42
92.25752,92.87291,51,112,42
92.87291,93.12932,53,112,42
93.180595,94.103676,55,112,42
94.103676,95.33444,57,112,42
95.33444,95.642136,55,112,42
95.642136,95.898544,57,112,42
95.94983,96.257515,58,112,42
96.257515,96.56521,53,112,42
96.56521,96.8729,55,112,42
96.8729,97.795975,57,112,42
97.795975,98.41136,55,127,42
98.41136,98.66777,57,112,42
98.719055,99.334435,58,127,42
99.334435,99.59085,60,112,42
99.64213,100.872894,62,112,42
100.872894,101.18059,60,112,42
101.18059,101.437,62,112,42
101.48828,101.795975,64,127,42
101.795975,102.10367,62,112,42
102.10367,102.41136,64,112,42
102.41136,103.25751,65,112,42
113.48827,114.41135,61,112,42
114.41135,115.33442,60,112,42
115.33442,116.18057,59,112,42
116.2575,117.488266,58,112,42
117.488266,117.79596,60,112,42
117.79596,118.05237,62,112,42
118.10365,118.41134,63,112,42
118.41134,118.71903,58,112,42
118.71903,118.97544,60,112,42
119.026726,119.9498,61,112,42
119.9498,120.87288,60,112,42
120.87288,121.71903,59,112,42
121.79595,122.71903,58,127,42
122.71903,123.026726,59,112,42
123.026726,123.33441,61,112,42
123.33441,123.59082,63,112,42
123.642105,123.9498,64,112,42
123.9498,124.25749,59,112,42
124.25749,124.565186,61,112,42
124.565186,125.41134,62,112,42
136.61174,137.40884,67,112,42
137.48131,138.2784,66,112,42
138.35086,139.14796,64,112,42
139.22043,140.33154,63,127,42
140.37985,140.66971,62,112,42
140.66971,140.95956,63,112,42
140.95956,141.24942,65,112,42
141.24942,141.53928,63,112,42
141.53928,141.82913,65,112,42
141.82913,142.62622,67,112,42
142.69868,143.49579,66,112,42
143.56825,144.36536,64,112,42
144.43782,145.23492,63,127,42
145.30739,145.59724,62,112,42
145.59724,145.8871,63,112,42
145.8871,146.12865,65,112,42
146.17696,146.46681,67,112,42
146.46681,146.75667,65,112,42
146.75667,146.99821,67,112,42
147.04652,147.84361,69,112,42
147.91608,148.20593,70,127,42
148.20593,148.49579,68,112,42
148.49579,148.78564,66,112,42
148.78564,149.36536,65,112,42
149.36536,149.6069,63,112,42
149.65521,150.23492,62,112,42
150.23492,150.52478,53,112,42
150.52478,150.81464,58,112,42
150.81464,151.10449,60,112,42
151.10449,151.34604,62,112,42
151.39435,151.6842,63,112,42
151.6842,151.97404,65,112,42
151.97404,152.21559,67,112,42
152.2639,153.061,69,112,42
153.13347,153.42332,70,127,42
153.42332,153.71318,68,112,42
153.71318,154.00304,66,112,42
154.00304,154.58275,65,112,42
154.58275,154.8243,63,112,42
154.8726,155.45232,62,112,42
155.45232,156.03203,53,112,42
156.03203,156.32188,58,112,42
156.32188,156.61172,60,112,42
156.61172,156.90158,62,112,42
156.90158,157.19144,63,112,42
157.19144,157.43298,65,112,42
157.4813,158.061,62,112,42
158.061,158.64072,53,112,42
158.64072,158.93057,58,112,42
158.93057,159.22043,60,112,42
159.22043,159.51028,62,112,42
159.51028,159.80014,63,112,42
159.80014,160.04169,65,112,42
160.09,160.66971,62,112,42
160.66971,162.33636,53,112,42
162.40883,162.69868,62,112,42
162.69868,163.20593,60,112,42
163.2784,163.56825,58,112,42
163.56825,164.43782,53,112,42
164.43782,165.23492,50,112,42
165.30739,170.84279,50,112,42
213.32883,213.62733,45,112,42
213.62733,213.87608,46,112,42
213.92584,214.22435,48,112,42
214.22435,214.3736,47,112,42
214.3736,214.52286,48,112,42
214.52286,215.11987,50,112,42
215.11987,215.36862,48,112,42
215.41838,215.66713,50,112,42
215.71689,216.01538,51,112,42
216.01538,216.16464,53,112,42
216.16464,216.31389,55,112,42
216.31389,216.6124,57,112,42
216.6124,216.9109,58,112,42
216.9109,217.15967,60,112,42
217.20941,217.45818,48,112,42
217.50792,217.80643,50,112,42
217.80643,217.95569,46,112,42
217.95569,218.10493,47,112,42
218.10493,218.70195,49,112,42
218.70195,218.95071,47,112,42
219.00046,219.2492,49,112,42
219.29897,219.59747,50,112,42
219.59747,219.74672,52,112,42
219.74672,219.89598,54,112,42
219.89598,220.19449,56,112,42
220.19449,220.493,57,112,42
220.493,220.74174,59,112,42
220.7915,221.04025,47,112,42
221.09001,221.38852,49,112,42
221.38852,221.53777,44,112,42
221.53777,221.68703,46,112,42
221.68703,222.28404,48,112,42
222.28404,222.53279,46,112,42
222.58253,222.8313,48,112,42
222.88104,223.17955,49,112,42
223.17955,223.32881,51,112,42
223.32881,223.47806,53,112,42
223.47806,223.77657,55,112,42
223.77657,224.07507,56,112,42
224.07507,224.32384,58,112,42
224.37358,225.11986,60,127,42
225.11986,225.2691,58,112,42
225.2691,225.51787,63,112,42
225.56761,225.86612,64,112,42
225.86612,226.11487,65,112,42
226.16463,226.91089,63,127,42
226.91089,227.05704,62,112,42
227.06015,227.65717,67,112,42
227.65717,227.95567,68,112,42
227.95567,228.20442,63,112,42
228.25418,229.14969,61,112,42
229.14969,229.4482,60,112,42
229.4482,229.7467,56,112,42
229.7467,229.99547,60,112,42
230.04521,230.34372,59,112,42
230.34372,230.64223,60,112,42
230.64223,230.89099,62,112,42
230.94073,231.3885,61,112,42
231.3885,231.53464,60,112,42
231.53775,231.78651,63,112,42
231.83626,232.13477,57,112,42
232.13477,232.43327,58,112,42
232.43327,233.17953,60,112,42
233.17953,233.32568,58,112,42
233.3288,233.57755,62,112,42
233.6273,233.92581,61,112,42
233.92581,234.22432,62,112,42
234.22432,234.52283,65,112,42
234.52283,234.97058,62,112,42
234.97058,235.11673,61,112,42
235.11984,235.36859,64,112,42
235.41835,235.71684,57,112,42
235.71684,236.01535,55,112,42
236.01535,236.31386,58,112,42
236.31386,236.61237,55,112,42
236.61237,236.91087,57,112,42
236.91087,237.15964,58,112,42
237.20938,237.50789,59,112,42
237.50789,237.8064,57,112,42
237.8064,238.1049,60,112,42
238.1049,238.40341,57,112,42
238.40341,238.70192,59,112,42
238.70192,238.95067,60,112,42
239.00043,239.29893,61,112,42
239.29893,239.59744,59,112,42
239.59744,239.89595,62,112,42
239.89595,240.19446,59,112,42
240.19446,240.49297,61,112,42
240.49297,240.74171,62,112,42
240.79147,241.08998,64,112,42
241.08998,241.38849,62,112,42
241.38849,241.687,61,112,42
241.687,241.9855,60,112,42
241.9855,242.284,58,112,42
242.284,242.53276,60,112,42
242.5825,242.83127,67,112,42
242.5825,243.03027,58,127,42
243.03027,243.17642,60,112,42
243.17952,243.42828,58,112,42
244.37355,244.67206,51,112,42
244.37355,244.82132,58,112,42
244.82132,244.96745,59,112,42
244.97057,245.21933,58,112,42
246.1646,246.61235,61,127,42
246.61235,246.7585,62,112,42
246.76161,247.01036,61,112,42
247.95564,248.25415,50,127,42
247.95564,248.4034,62,127,42
248.4034,248.54955,63,112,42
248.55266,248.8014,62,112,42
248.85115,249.29892,66,127,42
249.29892,249.44507,62,112,42
249.44817,249.69693,66,112,42
249.74667,250.19444,62,127,42
250.19444,250.34058,63,112,42
250.34369,250.59245,62,112,42
250.6422,251.08997,54,127,42
251.08997,251.2361,50,112,42
251.23921,251.48798,54,112,42
251.53772,251.98549,50,127,42
251.98549,252.13162,51,112,42
252.13474,252.57542,50,127,42
252.57848,252.72237,51,112,42
252.72545,253.17767,48,127,42
253.17767,253.32913,50,112,42
253.33237,253.8091,46,127,42
253.8091,253.96893,48,112,42
253.97235,254.47284,46,127,42
254.47641,254.64561,48,112,42
254.64923,255.18393,45,127,42
255.18393,255.36368,46,112,42
255.36751,255.61627,43,112,42
261.63617,261.78543,62,112,42
261.78543,261.93466,60,112,42
261.93466,262.08392,58,112,42
262.08392,262.2332,57,112,42
262.2332,262.45395,55,112,42
262.45706,262.52856,55,112,42
262.53168,262.97943,55,112,42
262.97943,263.12558,53,112,42
263.1287,263.37744,58,112,42
263.42722,263.87497,57,112,42
263.87497,264.02112,55,112,42
264.02423,264.27298,51,112,42
264.32272,264.77048,55,112,42
264.77048,264.91663,53,112,42
264.91974,265.1685,58,112,42
265.21823,265.66602,57,112,42
265.66602,265.81216,55,112,42
265.81525,266.06403,62,112,42
266.11377,266.56152,60,112,42
266.56152,266.70767,58,112,42
266.7108,266.95953,65,112,42
267.00928,267.4073,66,127,42
267.4073,267.5068,64,112,42
267.5068,267.60318,62,112,42
267.6063,268.0012,62,127,42
268.0043,268.10382,57,112,42
268.10382,268.2033,55,112,42
268.2033,268.30283,54,112,42
268.30283,268.4023,52,112,42
268.4023,268.49872,50,112,42
268.50183,270.51675,50,127,42
270.8899,271.1884,58,112,42
271.1884,271.43713,50,112,42
271.4869,271.7854,51,112,42
271.7854,272.03415,55,112,42
272.0839,272.1834,63,112,42
272.1834,272.2829,62,112,42
272.2829,272.3793,60,112,42
272.38242,272.63116,62,112,42
272.6809,272.97943,58,112,42
272.97943,273.22818,50,112,42
273.27792,273.5267,52,112,42
273.57645,273.97446,64,112,42
273.97446,274.07083,62,112,42
274.07394,274.17035,60,112,42
274.17346,274.99435,62,112,42
275.06897,275.21823,60,112,42
275.21823,275.3675,65,112,42
275.3675,275.51672,63,112,42
275.51672,275.666,62,112,42
275.666,275.81525,60,112,42
275.81525,275.9614,58,112,42
275.9645,276.21326,56,112,42
276.263,276.56152,60,112,42
276.56152,276.81027,58,112,42
276.86002,277.10876,52,112,42
277.15854,277.45703,62,112,42
277.45703,277.70578,61,112,42
278.05405,278.35257,58,112,42
278.35257,278.60132,53,112,42
278.94955,279.24808,46,112,42
279.24808,279.49683,55,112,42
279.8451,280.1436,58,112,42
280.1436,280.39236,53,112,42
280.7406,281.03912,50,112,42
281.03912,281.28787,58,112,42
281.63614,281.93463,53,112,42
281.93463,282.18338,61,112,42
282.53165,282.83017,57,112,42
282.83017,283.07892,65,112,42
283.4272,283.72568,66,112,42
283.72568,283.97443,61,112,42
284.0242,284.3227,57,112,42
284.3227,284.8451,54,112,42
284.9197,285.51672,50,112,42
285.51672,286.064,45,112,42
286.11374,286.41223,38,112,42
286.41223,286.661,39,112,42
286.71075,286.9595,40,112,42
287.00925,287.30777,41,112,42
287.30777,287.55652,42,112,42
287.60626,287.85504,43,112,42
292.08386,293.8003,46,112,42
293.8749,294.3227,47,112,42
294.3227,294.4688,50,112,42
294.47192,294.91968,53,112,42
294.91968,295.06583,55,112,42
295.06894,295.59134,59,112,42
299.24805,299.84506,47,112,42
299.84506,300.14355,46,112,42
300.14355,300.74057,39,112,42
300.74057,301.0391,38,112,42
301.0391,302.7555,43,112,42
302.83014,304.54654,36,112,42
304.6212,306.3376,43,112,42
306.4122,308.12863,36,112,42
308.20325,309.91968,41,112,42
309.9943,311.71072,40,112,42
311.78534,313.50174,45,112,42
313.87488,314.02103,42,112,42
314.1734,314.31955,45,112,42
314.77042,314.91656,47,112,42
315.0689,315.21506,50,112,42
315.66592,315.81207,52,112,42
315.96445,316.1106,49,112,42
316.56146,316.70758,45,112,42
316.85995,317.0061,49,112,42
317.45697,317.60312,50,112,42
317.7555,317.9016,54,112,42
318.35248,318.49863,52,112,42
318.651,318.79715,49,112,42
318.9495,319.24802,54,127,42
318.9495,319.24802,61,127,42
318.9495,319.5465,69,127,42
319.5465,319.7953,66,112,42
319.84503,320.44205,62,112,42
320.44205,320.6908,59,112,42
320.74054,321.03906,52,112,42
320.74054,321.03906,61,112,42
321.03906,321.33755,64,112,42
321.33755,321.5863,68,112,42
321.63608,321.93457,57,127,42
321.63608,321.93457,64,127,42
321.63608,322.2331,73,127,42
322.2331,322.48184,69,112,42
322.5316,323.1286,66,112,42
323.1286,323.37735,62,112,42
323.42712,323.72562,52,112,42
323.42712,323.72562,61,112,42
323.72562,324.02414,64,112,42
324.02414,324.2729,68,112,42
324.32263,324.91965,48,112,42
324.91965,325.1684,44,112,42
325.21814,325.81516,46,112,42
325.81516,326.06393,49,112,42
326.11368,326.7107,51,112,42
326.7107,326.95944,48,112,42
327.0092,327.6062,44,112,42
327.6062,327.85498,48,112,42
327.90472,328.50174,49,112,42
328.50174,328.7505,53,112,42
328.80023,329.39725,51,112,42
329.39725,329.646,48,112,42
329.69577,330.59128,41,112,42
330.59128,331.1883,44,112,42
331.1883,331.43704,47,112,42
331.4868,332.0838,51,112,42
332.0838,332.33258,48,112,42
332.38232,333.27783,41,112,42
333.27783,333.87485,44,112,42
333.87485,334.12363,47,112,42
334.17337,334.7704,51,112,42
334.7704,335.01913,48,112,42
336.85992,337.45694,54,112,42
337.45694,337.7057,51,112,42
339.54648,340.1435,54,112,42
340.1435,340.39227,51,112,42
340.44202,351.437,45,112,42
354.77036,357.3823,62,112,42
357.4569,358.35242,61,112,42
358.35242,359.24796,60,112,42
359.24796,360.442,59,112,42
360.442,360.74048,60,112,42
360.74048,360.98923,62,112,42
361.039,361.3375,64,112,42
361.3375,361.63602,59,112,42
361.63602,361.9345,60,112,42
361.9345,362.7554,62,112,42
368.20316,368.80017,52,112,42
368.80017,369.04892,54,112,42
369.0987,369.6957,55,112,42
369.6957,369.94446,57,112,42
369.9942,371.18823,59,112,42
371.18823,371.48672,57,112,42
371.48672,371.78525,59,112,42
371.78525,372.08374,61,112,42
372.08374,372.60614,59,112,42
372.68076,375.06882,60,112,42
375.06882,375.31757,62,112,42
375.36734,375.66583,64,112,42
375.66583,375.96436,57,112,42
375.96436,376.2131,59,112,42
376.26285,378.6509,60,112,42
378.6509,378.89966,62,112,42
378.9494,379.24792,64,112,42
379.24792,379.54642,57,112,42
379.54642,379.7952,59,112,42
379.84494,380.74045,60,112,42
380.74045,381.636,58,112,42
381.636,381.93448,59,112,42
381.93448,382.233,60,112,42
382.233,382.5315,62,112,42
382.5315,382.83002,63,112,42
382.83002,383.1285,62,112,42
383.1285,383.37726,60,112,42
383.42703,384.32254,58,112,42
384.32254,385.21805,57,112,42
385.21805,386.1136,56,112,42
386.1136,387.30762,55,127,42
387.30762,387.6061,57,112,42
387.6061,387.85486,59,112,42
387.90463,388.20312,60,112,42
388.20312,388.50165,55,112,42
388.50165,388.7504,57,112,42
388.80014,389.69568,58,112,42
389.69568,390.5912,57,112,42
390.5912,391.41208,56,112,42
391.4867,392.38223,55,127,42
392.38223,392.68073,56,112,42
392.68073,392.97925,58,112,42
392.97925,393.228,60,112,42
393.27774,393.57626,61,112,42
393.57626,393.87476,56,112,42
393.87476,394.17328,58,112,42
394.17328,394.99417,59,112,42
405.79697,406.62595,64,112,42
406.70328,407.55835,63,112,42
407.63647,408.5016,61,112,42
408.58054,409.79745,60,127,42
409.85037,410.16782,59,112,42
410.16782,410.43237,60,112,42
410.4853,410.80276,62,112,42
410.80276,411.1202,60,112,42
411.1202,411.38477,62,112,42
411.43768,412.3107,64,112,42
412.39005,413.26306,63,112,42
413.34244,414.21545,61,112,42
414.2948,415.2472,60,127,42
415.2472,415.56464,59,112,42
415.56464,415.8821,60,112,42
415.8821,416.14667,62,112,42
416.1996,416.51703,64,112,42
416.51703,416.8345,62,112,42
416.8345,417.09903,64,112,42
417.15195,418.02496,66,112,42
418.10434,418.42178,67,112,42
418.42178,418.73926,65,112,42
418.73926,419.0567,63,112,42
419.0567,419.69162,62,112,42
419.69162,419.95618,60,112,42
420.0091,420.644,59,112,42
420.644,420.96146,50,112,42
420.96146,421.27893,55,112,42
421.27893,421.5964,57,112,42
421.5964,421.86093,59,112,42
421.91385,422.23132,60,112,42
422.23132,422.54877,62,112,42
422.54877,422.81332,64,112,42
422.86624,423.8186,66,112,42
423.8186,424.13608,67,112,42
424.13608,424.45352,65,112,42
424.45352,424.771,63,112,42
424.771,425.4059,62,112,42
425.4059,425.67047,60,112,42
425.72336,426.35828,59,112,42
426.35828,426.99323,50,112,42
426.99323,427.31067,55,112,42
427.31067,427.57523,57,112,42
427.62814,427.9456,59,112,42
427.9456,428.26306,60,112,42
428.26306,428.5276,62,112,42
428.5805,429.21542,64,112,42
429.21542,429.85034,66,112,42
429.85034,430.16782,59,112,42
430.16782,430.43237,61,112,42
430.48526,430.80273,62,112,42
430.80273,431.12018,64,112,42
431.12018,431.38474,66,112,42
431.43765,431.9932,67,112,42
432.07257,433.26306,69,112,42
433.3424,433.65988,62,112,42
433.65988,433.97733,64,112,42
433.97733,434.2948,65,112,42
434.2948,434.92972,66,112,42
434.92972,435.24716,67,112,42
435.24716,436.12018,66,112,42
436.19955,436.83447,64,112,42
436.83447,437.09903,62,112,42
437.15192,438.02493,61,112,42
438.1043,438.73923,62,112,42
438.73923,439.0567,57,112,42
439.0567,439.37415,62,112,42
439.37415,439.69162,64,112,42
439.69162,439.95615,65,112,42
440.00906,440.64398,66,112,42
440.64398,440.96146,67,112,42
440.96146,441.59637,66,112,42
441.59637,441.91382,64,112,42
441.91382,442.78683,62,112,42
442.8662,444.69162,63,112,42
444.77097,445.72336,62,112,42
445.72336,446.67572,60,112,42
446.67572,447.54874,59,112,42
447.6281,448.5805,58,112,42
448.5805,448.84503,57,112,42
448.89795,449.1625,58,112,42
449.21542,449.85034,59,112,42
449.85034,450.1678,61,112,42
450.1678,450.48526,63,112,42
450.48526,451.43762,64,112,42
451.43762,452.39,62,112,42
452.39,453.26303,61,112,42
453.34238,454.29477,60,112,42
454.29477,454.55933,59,112,42
454.61224,454.87677,60,112,42
454.9297,455.5646,61,112,42
455.5646,455.88208,63,112,42
455.88208,456.1466,65,112,42
456.19952,457.15192,66,112,42
457.15192,458.10428,64,112,42
458.10428,458.9773,63,112,42
459.05667,460.88208,61,112,42
460.96143,461.91382,60,112,42
461.91382,462.78683,58,112,42
462.86618,463.81857,59,112,42
463.81857,464.75183,57,112,42
464.75183,465.7484,52,112,42
465.8473,469.3473,45,112,42
469.4473,469.7806,50,112,42
470.24728,470.4473,62,112,42
470.4473,470.64313,59,112,42
470.64728,470.83603,55,112,42
470.83603,471.01923,50,112,42
471.01923,471.19238,47,112,42
471.19238,471.35654,48,112,42
471.35654,471.51257,50,112,42
471.51257,471.65823,52,112,42
471.66125,471.80618,54,112,42
471.80618,471.9511,55,112,42
471.9511,472.09604,57,112,42
472.09604,472.24097,59,112,42
472.24097,472.3859,60,112,42
472.3859,472.5278,62,112,42
472.53082,472.67575,64,112,42
472.67575,472.82068,66,112,42
472.82068,472.9656,67,112,42
472.9656,473.11053,69,112,42
473.11053,473.25546,71,112,42
473.25546,473.3962,72,112,42
473.3992,473.63843,74,112,42
487.699,487.83414,57,112,42
487.83414,487.96927,54,112,42
487.96927,488.1044,56,112,42
488.1044,488.23956,57,112,42
488.23956,488.3747,59,112,42
488.3747,488.50702,61,112,42
488.50983,488.91522,62,112,42
488.91522,489.04755,67,112,42
489.05035,489.27557,71,112,42
489.32062,489.45578,57,112,42
489.45578,489.5909,54,112,42
489.5909,489.72604,56,112,42
489.72604,489.86118,57,112,42
489.86118,489.9963,59,112,42
489.9963,490.12863,61,112,42
490.13144,490.53683,62,112,42
490.53683,490.66916,67,112,42
490.67197,490.89722,71,112,42
490.94226,491.16748,58,112,42
491.21252,491.43774,64,112,42
491.4828,491.61792,63,112,42
491.61792,491.75024,56,112,42
491.75305,491.9798,59,112,42
492.02563,492.25726,65,112,42
492.30408,492.4456,64,112,42
492.4456,492.58566,57,112,42
492.58868,492.83078,60,112,42
492.87976,493.12744,66,112,42
493.17755,493.32907,65,112,42
493.32907,493.4792,58,112,42
493.4824,493.7421,61,112,42
493.79468,494.06085,67,112,42
494.11472,494.27777,66,112,42
494.27777,494.43945,59,112,42
494.4429,494.96527,59,112,42
495.03992,495.28867,62,112,42
495.3384,495.93542,65,112,42
495.93542,496.18417,57,112,42
496.23395,496.53244,59,112,42
496.53244,496.83096,62,112,42
496.83096,497.0797,66,112,42
497.12946,497.72647,59,112,42
497.72647,497.97522,62,112,42
498.025,498.622,65,112,42
498.622,498.87076,57,112,42
498.9205,499.219,59,112,42
499.219,499.51752,62,112,42
499.51752,499.76627,66,112,42
499.816,500.41302,50,112,42
499.816,500.41302,59,112,42
500.41302,500.6618,62,112,42
500.71155,501.30856,59,112,42
500.71155,501.30856,66,112,42
501.30856,501.5573,62,112,42
501.60706,502.20407,50,112,42
501.60706,502.20407,59,112,42
502.20407,502.45282,62,112,42
502.5026,503.0996,54,112,42
502.5026,503.0996,62,112,42
503.0996,503.34836,66,112,42
503.3981,503.47275,43,112,42
503.3981,503.6935,50,112,42
503.47275,503.6935,59,112,42
505.78616,505.88565,50,112,42
505.88565,505.98517,52,112,42
505.98517,506.08157,54,112,42
506.08466,506.18417,55,112,42
506.18417,506.28366,57,112,42
506.28366,506.38007,59,112,42
506.38318,506.48267,59,112,42
506.48267,506.58218,60,112,42
506.58218,506.6786,62,112,42
506.68167,506.7812,62,112,42
506.7812,506.88068,64,112,42
506.88068,506.97708,66,112,42
506.9802,507.22894,67,112,42
507.8757,508.12448,55,112,42
508.6966,508.77124,43,112,42
508.6966,509.16925,50,112,42
508.77124,509.16925,59,112,42
35.949886,36.206295,43,112,45
37.79604,38.05245,43,112,45
43.334496,43.590904,47,112,45
45.180645,45.437057,47,112,45
72.56523,72.82165,48,112,45
72.56523,72.82165,57,112,45
73.48831,73.74472,53,112,45
73.48831,73.74472,57,112,45
74.411385,74.66779,48,112,45
74.411385,74.66779,55,112,45
196.01543,196.16156,46,112,45
196.91093,197.05708,46,112,45
197.80646,197.9526,45,112,45
198.70198,198.84813,46,112,45
199.5975,199.74365,39,112,45
200.49303,200.63918,40,112,45
201.38855,201.53468,41,112,45
202.28407,202.4302,43,112,45
203.17958,203.32573,46,112,45
204.0751,204.22125,45,112,45
204.97063,205.11678,38,112,45
205.86615,206.0123,42,112,45
206.76167,206.90782,47,112,45
207.35869,207.50482,40,112,45
207.6572,207.80333,41,112,45
208.25421,208.40034,49,112,45
208.55272,208.69885,47,112,45
209.14973,209.29587,40,112,45
209.44823,209.59438,41,112,45
210.04524,210.19139,49,112,45
210.34375,210.4899,37,112,45
210.94077,211.08691,42,112,45
211.23927,211.38542,43,112,45
211.83629,211.98244,51,112,45
212.1348,212.28094,39,112,45
212.73181,212.87796,44,112,45
213.03032,213.17647,45,112,45
289.3973,289.64606,43,112,45
291.18835,291.4371,43,112,45
296.5615,296.81024,47,112,45
298.3525,298.6013,47,112,45
474.26044,474.3322,55,112,45
474.54752,474.6193,54,112,45
474.8346,474.90637,52,112,45
475.12167,475.19345,50,112,45
475.40875,475.48053,48,112,45
475.69586,475.76733,60,112,45
475.9806,476.05167,47,112,45
476.26495,476.33603,44,112,45
476.54932,476.6204,45,112,45
476.83368,476.90475,47,112,45
477.11804,477.18912,48,112,45
477.40237,477.47348,38,112,45
477.68674,477.75784,55,112,45
477.9711,478.0422,54,112,45
478.2547,478.32513,52,112,45
478.5364,478.6068,50,112,45
478.81808,478.88852,48,112,45
479.09976,479.1702,60,112,45
479.38147,479.45187,47,112,45
479.66315,479.73358,44,112,45
479.94485,480.01526,45,112,45
480.22653,480.29697,47,112,45
480.50824,480.57864,48,112,45
480.78802,480.8578,38,112,45
481.0671,481.13687,50,112,45
481.34616,481.41592,43,112,45
481.62524,481.695,45,112,45
481.9043,481.97406,46,112,45
482.18338,482.25314,58,112,45
482.46243,482.53223,46,112,45
482.74152,482.81128,45,112,45
483.0202,483.08932,50,112,45
483.2967,483.3658,52,112,45
483.5732,483.64233,53,112,45
483.8497,483.91882,65,112,45
484.1262,484.1953,53,112,45
484.40268,484.4718,50,112,45
484.6792,484.74832,43,112,45
484.9557,485.0248,45,112,45
485.23218,485.3013,46,112,45
485.50723,485.5757,58,112,45
485.78122,485.8497,46,112,45
486.05518,486.12366,52,112,45
486.32916,486.39764,45,112,45
486.60312,486.6716,47,112,45
486.8771,486.9456,48,112,45
487.15106,487.21957,62,112,45
487.42505,487.49353,48,112,45
0.289855,0.38647333,50,108,0
0.38647333,0.48309165,58,108,0
0.48309165,0.5766907,62,108,0
0.57971,0.67632836,62,108,0
0.67632836,0.77294666,58,108,0
0.77294666,0.8665457,50,108,0
1.15942,1.2560383,50,108,0
1.2560383,1.3526567,58,108,0
1.3526567,1.4462557,62,108,0
1.449275,1.5458933,62,108,0
1.5458933,1.6425117,58,108,0
1.6425117,1.7361107,50,108,0
2.028985,2.1256034,50,108,0
2.1256034,2.2222216,58,108,0
2.2222216,2.3158207,62,108,0
2.31884,2.4154584,62,108,0
2.4154584,2.5120766,58,108,0
2.5120766,2.6056757,50,108,0
2.89855,2.9951684,51,108,0
2.9951684,3.0917866,55,108,0
3.0917866,3.1853857,63,108,0
3.188405,3.2850235,63,108,0
3.2850235,3.3816416,55,108,0
3.3816416,3.4752407,51,108,0
3.768115,3.8647332,50,108,0
3.8647332,3.9613516,58,108,0
3.9613516,4.0549507,62,108,0
4.05797,4.154588,62,108,0
4.154588,4.251207,58,108,0
4.251207,4.3448057,50,108,0
4.63768,4.734298,52,108,0
4.734298,4.830917,58,108,0
4.830917,4.9245157,64,108,0
4.927535,5.024153,64,108,0
5.024153,5.120772,58,108,0
5.120772,5.2143707,52,108,0
5.507245,5.6038632,50,108,0
5.6038632,5.700482,58,108,0
5.700482,5.7940807,62,108,0
5.7971,5.8937182,62,108,0
5.8937182,5.990337,58,108,0
5.990337,6.0839357,50,108,0
6.37681,6.4734282,53,108,0
6.4734282,6.570047,60,108,0
6.570047,6.6636457,65,108,0
6.666665,6.7632833,63,108,0
6.7632833,6.859902,60,108,0
6.859902,6.9535007,51,108,0
7.246375,7.3429933,50,108,0
7.3429933,7.4396114,56,108,0
7.4396114,7.5332108,60,108,0
7.53623,7.6328483,58,108,0
7.6328483,7.7294664,50,108,0
7.7294664,7.8230658,58,108,0
8.11594,8.212559,52,108,0
8.212559,8.309176,55,108,0
8.309176,8.402776,62,108,0
8.405795,8.502414,61,108,0
8.502414,8.599031,55,108,0
8.599031,8.692631,52,108,0
8.985505,9.227051,55,127,0
8.985505,9.227051,58,127,0
8.985505,9.227051,62,127,0
9.27536,9.420287,53,108,0
9.420287,9.562196,65,108,0
9.85507,10.096616,57,127,0
9.85507,10.096616,58,127,0
9.85507,10.096616,63,127,0
10.144925,10.289852,55,108,0
10.289852,10.431761,67,108,0
10.724635,10.966181,55,127,0
10.724635,10.966181,58,127,0
10.724635,10.966181,62,127,0
11.01449,11.159417,53,108,0
11.159417,11.301326,65,108,0
11.5942,11.835746,58,127,0
11.5942,11.835746,62,127,0
11.5942,11.835746,69,127,0
11.884055,12.028982,67,108,0
11.884055,12.028982,70,108,0
12.028982,12.170891,58,108,0
12.463765,12.705311,62,127,0
12.463765,12.705311,65,127,0
12.463765,12.705311,72,127,0
12.75362,12.898547,73,108,0
12.898547,13.040456,61,108,0
13.33333,13.429949,53,108,0
13.429949,13.5265665,57,108,0
13.5265665,13.620166,66,108,0
13.623185,13.719804,66,108,0
13.719804,13.8164215,57,108,0
13.8164215,13.910021,54,108,0
14.202895,14.299513,54,108,0
14.299513,14.3961315,62,108,0
14.3961315,14.489731,66,108,0
14.49275,14.589368,66,108,0
14.589368,14.6859865,62,108,0
14.6859865,14.779586,54,108,0
15.170021,15.267581,53,108,0
15.267581,15.362093,62,108,0
15.267581,15.362093,65,108,0
15.463664,15.562186,54,108,0
15.562186,15.657629,62,108,0
15.562186,15.657629,66,108,0
15.76021,15.859713,55,108,0
15.859713,15.956105,62,108,0
15.859713,15.956105,67,108,0
16.059717,16.16022,56,108,0
16.16022,16.257582,62,108,0
16.16022,16.257582,68,108,0
16.362246,16.463768,57,108,0
16.463768,16.562117,62,108,0
16.463768,16.562117,69,108,0
16.872982,16.972342,50,108,0
16.975546,17.074905,58,108,0
17.07811,17.17747,62,108,0
17.180674,17.280033,62,108,0
17.283237,17.382597,58,108,0
17.385801,17.48516,50,108,0
17.796059,17.895416,51,108,0
17.898623,17.99798,55,108,0
18.001186,18.100544,63,108,0
18.10375,18.20311,63,108,0
18.206314,18.305674,55,108,0
18.308878,18.408237,51,108,0
18.719133,18.818493,50,108,0
18.821697,18.921057,58,108,0
18.924261,19.02362,62,108,0
19.026827,19.126184,62,108,0
19.12939,19.228748,58,108,0
19.231955,19.331312,50,108,0
19.64221,19.74157,52,108,0
19.744774,19.844133,58,108,0
19.847338,19.946697,64,108,0
19.949902,20.049261,64,108,0
20.052465,20.151825,58,108,0
20.15503,20.254389,52,108,0
20.565287,20.664644,50,108,0
20.66785,20.767208,58,108,0
20.770414,20.869772,62,108,0
20.872978,20.972338,62,108,0
20.975542,21.074902,58,108,0
21.078106,21.177465,50,108,0
21.488361,21.58772,53,108,0
21.590925,21.690285,60,108,0
21.69349,21.792849,65,108,0
21.796055,21.895412,65,108,0
21.898619,21.997976,60,108,0
22.001183,22.10054,53,108,0
22.411438,22.510798,50,108,0
22.514002,22.613361,56,108,0
22.616566,22.715925,60,108,0
22.71913,22.81849,58,108,0
22.821693,22.921053,50,108,0
22.924257,23.023617,58,108,0
23.334515,23.433872,52,108,0
23.437078,23.536436,58,108,0
23.539642,23.639,62,108,0
23.642206,23.741566,61,108,0
23.74477,23.84413,55,108,0
23.847334,23.946693,52,108,0
24.25759,24.514,55,127,0
24.25759,24.514,58,127,0
24.25759,24.514,62,127,0
24.565283,24.719128,53,108,0
24.719128,24.869768,65,108,0
25.180666,25.437077,57,127,0
25.180666,25.437077,58,127,0
25.180666,25.437077,63,127,0
25.488358,25.642204,55,108,0
25.642204,25.792845,67,108,0
26.103743,26.360151,55,127,0
26.103743,26.360151,58,127,0
26.103743,26.360151,62,127,0
26.411434,26.56528,53,108,0
26.56528,26.715921,65,108,0
27.026817,27.283228,58,127,0
27.026817,27.283228,62,127,0
27.026817,27.283228,69,127,0
27.33451,27.488356,67,108,0
27.488356,27.638996,55,108,0
27.949894,28.206305,62,127,0
27.949894,28.206305,65,127,0
27.949894,28.206305,72,127,0
28.257586,28.411432,73,108,0
28.411432,28.562073,61,108,0
28.87297,29.12938,65,127,0
28.87297,29.12938,69,127,0
28.87297,29.12938,76,127,0
29.180662,29.334509,77,108,0
29.334509,29.48515,65,108,0
29.796045,29.895405,54,108,0
29.89861,29.997969,61,108,0
30.001175,30.100533,66,108,0
30.103739,30.203096,66,108,0
30.206303,30.30566,61,108,0
30.308867,30.408224,54,108,0
30.719122,30.818481,54,108,0
30.821686,30.921045,57,108,0
30.92425,31.02361,66,108,0
31.026814,31.126173,66,108,0
31.129377,31.228737,57,108,0
31.231941,31.3313,54,108,0
31.642199,31.741556,54,108,0
31.744762,31.84412,62,108,0
31.847326,31.946686,66,108,0
31.94989,32.049248,66,108,0
32.052456,32.151814,62,108,0
32.155018,32.254375,54,108,0
32.66784,32.767197,53,108,0
32.7704,32.869762,62,108,0
32.7704,32.869762,65,108,0
32.97553,33.07489,54,108,0
33.078094,33.177452,62,108,0
33.078094,33.177452,66,108,0
33.283222,33.38258,55,108,0
33.385784,33.485146,62,108,0
33.385784,33.485146,67,108,0
33.590916,33.690273,56,108,0
33.693478,33.792835,62,108,0
33.693478,33.792835,68,108,0
33.898605,33.997967,57,108,0
34.00117,34.10053,62,108,0
34.00117,34.10053,69,108,0
34.565273,34.719116,79,108,0
34.719116,35.02681,82,108,0
35.02681,35.488346,81,127,0
35.488346,35.642193,79,108,0
35.642193,35.949886,78,108,0
35.949886,36.411423,81,127,0
36.411423,36.56527,79,108,0
36.56527,36.872963,82,108,0
36.872963,37.3345,81,127,0
37.3345,37.488346,79,108,0
37.488346,37.79604,78,108,0
37.79604,38.257576,81,127,0
38.257576,38.411423,79,108,0
38.411423,38.719112,82,108,0
38.719112,39.180653,86,127,0
39.180653,39.3345,84,108,0
39.3345,39.796036,84,108,0
39.796036,39.949883,80,108,0
39.949883,40.41142,80,108,0
40.41142,40.56206,77,108,0
40.565266,41.898598,77,108,0
41.94988,42.103725,77,108,0
42.103725,42.41142,79,108,0
42.41142,42.872955,78,108,0
42.872955,43.026802,76,108,0
43.026802,43.334496,75,108,0
43.334496,43.796032,78,108,0
43.796032,43.94988,77,108,0
43.94988,44.25757,79,108,0
44.25757,44.71911,78,108,0
44.71911,44.872955,76,108,0
44.872955,45.180645,75,108,0
45.180645,45.642185,78,108,0
45.642185,45.79603,77,108,0
45.79603,46.10372,79,108,0
46.10372,46.56526,78,108,0
46.56526,46.719105,75,108,0
46.719105,47.0268,75,108,0
47.0268,47.180645,75,108,0
47.180645,47.33449,70,108,0
47.33449,47.79603,70,108,0
47.79603,47.94667,62,108,0
47.949875,48.565258,62,108,0
48.565258,48.821667,67,108,0
49.796024,49.895386,64,108,0
49.796024,49.895386,64,108,0
49.89859,49.997948,58,108,0
50.001156,50.100513,52,108,0
50.103718,50.203075,65,108,0
50.103718,50.203075,65,108,0
50.206284,50.30564,58,108,0
50.308846,50.408203,53,108,0
50.41141,50.51077,64,108,0
50.41141,50.51077,64,108,0
50.513973,50.613335,58,108,0
50.61654,50.715897,52,108,0
50.7191,50.818462,67,108,0
50.7191,50.818462,67,108,0
50.821667,50.921024,58,108,0
50.92423,51.02359,55,108,0
51.026794,51.126152,65,108,0
51.026794,51.126152,65,108,0
51.129356,51.228718,58,108,0
51.231922,51.33128,53,108,0
51.334484,51.433846,64,108,0
51.334484,51.433846,64,108,0
51.43705,51.536407,58,108,0
51.539616,51.638973,52,108,0
51.642178,51.741535,50,108,0
51.744743,51.8441,58,108,0
51.847305,51.946667,62,108,0
51.94987,52.04923,51,108,0
52.052433,52.151794,58,108,0
52.155,52.254356,62,108,0
52.25756,52.356922,50,108,0
52.360126,52.459484,58,108,0
52.46269,52.56205,62,108,0
52.565254,52.66461,53,108,0
52.667816,52.767178,58,108,0
52.770382,52.86974,62,108,0
52.872948,52.972305,51,108,0
52.97551,53.074867,58,108,0
53.078075,53.177433,62,108,0
53.180637,53.28,50,108,0
53.283203,53.38256,58,108,0
53.385765,53.485126,62,108,0
53.48833,53.58769,64,108,0
53.48833,53.58769,64,108,0
53.590893,53.690254,58,108,0
53.69346,53.792816,52,108,0
53.79602,53.895382,65,108,0
53.79602,53.895382,65,108,0
53.898586,53.997944,58,108,0
54.00115,54.10051,53,108,0
54.103714,54.20307,64,108,0
54.103714,54.20307,64,108,0
54.20628,54.305637,58,108,0
54.30884,54.4082,52,108,0
54.411407,54.510765,67,108,0
54.411407,54.510765,67,108,0
54.51397,54.613327,58,108,0
54.616535,54.715893,55,108,0
54.719097,54.81846,65,108,0
54.719097,54.81846,65,108,0
54.821663,54.92102,58,108,0
54.924225,55.023586,53,108,0
55.02679,55.12615,64,108,0
55.02679,55.12615,64,108,0
55.129353,55.228714,58,108,0
55.23192,55.331276,52,108,0
55.33448,55.43384,52,108,0
55.437046,55.536404,57,108,0
55.53961,55.63897,64,108,0
55.642174,55.74153,53,108,0
55.74474,55.844097,57,108,0
55.8473,55.94666,64,108,0
55.949867,56.049225,52,108,0
56.05243,56.15179,57,108,0
56.154995,56.254353,64,108,0
56.257557,56.35692,55,108,0
56.360123,56.45948,57,108,0
56.462685,56.562046,64,108,0
56.56525,56.664608,53,108,0
56.667812,56.767174,57,108,0
56.77038,56.869736,64,108,0
56.872944,56.9723,52,108,0
56.975506,57.074863,57,108,0
57.07807,57.17743,64,108,0
57.180634,57.27999,65,108,0
57.180634,57.27999,65,108,0
57.2832,57.382557,58,108,0
57.38576,57.485123,52,108,0
57.488327,57.587685,67,108,0
57.488327,57.587685,67,108,0
57.59089,57.69025,58,108,0
57.693455,57.792812,55,108,0
57.796017,57.89538,65,108,0
57.796017,57.89538,65,108,0
57.898582,57.99794,58,108,0
58.001144,58.100506,53,108,0
58.10371,58.203068,69,108,0
58.10371,58.203068,69,108,0
58.206272,58.305634,58,108,0
58.308838,58.408195,57,108,0
58.411404,58.51076,67,108,0
58.411404,58.51076,67,108,0
58.513966,58.613323,58,108,0
58.61653,58.71589,55,108,0
58.719093,58.818455,65,108,0
58.719093,58.818455,65,108,0
58.82166,58.921017,58,108,0
58.92422,59.023582,53,108,0
59.026787,59.126144,53,108,0
59.12935,59.22871,56,108,0
59.231915,59.331272,59,108,0
59.334476,59.433838,53,108,0
59.437042,59.5364,56,108,0
59.539604,59.638966,59,108,0
59.64217,59.741528,53,108,0
59.744736,59.844093,56,108,0
59.847298,59.946655,59,108,0
59.949863,60.04922,56,108,0
60.052425,60.151783,59,108,0
60.15499,60.25435,62,108,0
60.257553,60.356915,55,108,0
60.36012,60.459476,56,108,0
60.46268,60.562042,59,108,0
60.565247,60.664604,53,108,0
60.66781,60.76717,56,108,0
60.770374,60.86973,59,108,0
60.872936,61.4114,72,127,0
60.872936,61.4114,76,127,0
60.872936,61.4114,81,127,0
60.872936,61.4114,84,127,0
61.488323,61.74473,69,127,0
61.488323,61.74473,81,127,0
61.796013,62.334476,65,127,0
61.796013,62.334476,69,127,0
61.796013,62.334476,74,127,0
61.796013,62.334476,77,127,0
62.4114,62.66781,62,127,0
62.4114,62.66781,74,127,0
62.71909,62.9755,64,127,0
62.71909,62.9755,67,127,0
62.71909,62.9755,71,127,0
62.71909,62.9755,76,127,0
63.026783,63.28319,67,127,0
63.026783,63.28319,79,127,0
63.334473,63.590885,71,127,0
63.334473,63.590885,83,127,0
63.642166,64.180626,76,127,0
63.642166,64.180626,79,127,0
63.642166,64.180626,84,127,0
63.642166,64.180626,88,127,0
64.25755,64.51396,72,127,0
64.25755,64.51396,84,127,0
64.56524,65.10371,69,127,0
64.56524,65.10371,72,127,0
64.56524,65.10371,77,127,0
64.56524,65.10371,81,127,0
65.180626,65.437035,65,127,0
65.180626,65.437035,77,127,0
65.48832,65.74473,64,127,0
65.48832,65.74473,67,127,0
65.48832,65.74473,71,127,0
65.48832,65.74473,76,127,0
65.79601,66.05242,67,127,0
65.79601,66.05242,79,127,0
66.1037,66.360115,71,127,0
66.1037,66.360115,83,127,0
66.719086,66.975494,72,127,0
66.719086,66.975494,76,127,0
66.719086,66.975494,81,127,0
66.719086,66.975494,84,127,0
67.64216,67.898575,65,127,0
67.64216,67.898575,69,127,0
67.64216,67.898575,74,127,0
67.64216,67.898575,77,127,0
68.56524,68.82165,67,127,0
68.56524,68.82165,71,127,0
68.56524,68.82165,76,127,0
68.56524,68.82165,79,127,0
69.48831,69.74472,76,127,0
69.48831,69.74472,79,127,0
69.48831,69.74472,84,127,0
69.48831,69.74472,88,127,0
70.41139,70.6678,69,127,0
70.41139,70.6678,72,127,0
70.41139,70.6678,77,127,0
70.41139,70.6678,81,127,0
71.334465,71.59087,67,127,0
71.334465,71.59087,71,127,0
71.334465,71.59087,76,127,0
71.334465,71.59087,79,127,0
71.94985,72.48831,72,127,0
72.257545,72.513954,76,108,0
72.257545,72.513954,81,108,0
72.257545,72.513954,84,108,0
72.56523,72.82165,69,127,0
72.872925,73.411385,65,127,0
73.18062,73.43703,69,108,0
73.18062,73.43703,74,108,0
73.18062,73.43703,77,108,0
73.48831,73.74472,62,127,0
73.796005,74.052414,60,127,0
74.10369,74.36011,64,108,0
74.10369,74.36011,67,108,0
74.10369,74.36011,72,108,0
74.10369,74.36011,76,108,0
74.411385,74.66779,67,127,0
74.71908,75.25754,72,127,0
75.02677,75.28318,60,108,0
75.02677,75.28318,64,108,0
75.02677,75.28318,69,108,0
75.334465,75.59087,69,127,0
75.64215,76.18062,65,127,0
75.949844,76.20625,57,108,0
75.949844,76.20625,62,108,0
76.25754,76.51395,62,127,0
76.56523,76.82164,60,127,0
76.872925,77.12933,55,108,0
76.872925,77.12933,60,108,0
76.872925,77.12933,64,108,0
77.18061,77.43703,67,127,0
77.796,78.05241,60,108,0
77.796,78.05241,64,108,0
77.796,78.05241,69,108,0
77.488304,78.05241,72,127,0
78.71907,78.97549,57,108,0
78.71907,78.97549,64,108,0
78.10369,78.97549,69,108,0
79.64215,79.89856,52,108,0
79.64215,79.89856,57,108,0
79.949844,80.51395,57,127,0
80.56522,80.82163,57,108,0
80.87292,81.129326,60,108,0
81.488304,81.74471,57,108,0
81.796,82.05241,60,108,0
82.41138,82.667786,57,108,0
82.71907,82.97548,60,108,0
83.33446,83.590866,60,108,0
83.64214,83.89856,57,108,0
84.25753,84.51394,60,108,0
84.56522,84.82163,57,108,0
85.1806,85.43702,60,108,0
85.4883,85.744705,57,108,0
86.10368,86.36009,60,108,0
86.41138,86.667786,57,108,0
87.02676,87.283165,60,108,0
87.33445,87.59086,57,108,0
87.94984,88.206245,58,108,0
88.25752,88.51394,55,108,0
88.87291,89.12932,54,108,0
89.1806,89.43701,57,108,0
89.79598,90.0524,55,108,0
90.103676,90.360085,60,108,0
90.71906,90.97547,55,108,0
91.02676,91.283165,58,108,0
91.642136,91.898544,53,108,0
91.94983,92.20624,55,108,0
92.565216,92.821625,57,108,0
92.87291,93.12932,58,108,0
93.48829,93.7447,60,108,0
93.79598,94.05239,62,108,0
94.41137,94.66778,61,108,0
79.026764,94.97547,64,127,0
94.719055,94.97547,64,108,0
95.33444,95.59085,62,108,0
95.642136,95.898544,65,108,0
96.257515,96.51393,64,108,0
96.56521,96.82162,62,108,0
97.180595,97.437004,61,108,0
97.48829,97.7447,60,108,0
98.10367,98.36008,58,108,0
98.41136,98.66777,63,108,0
99.02675,99.28316,62,108,0
99.334435,99.59085,65,108,0
99.94982,100.20623,59,108,0
100.257515,100.51392,62,108,0
100.872894,101.12931,55,108,0
100.872894,101.12931,67,108,0
101.18059,101.437,53,108,0
101.18059,101.437,65,108,0
101.795975,102.05238,57,108,0
101.795975,102.05238,69,108,0
102.10367,102.36008,55,108,0
102.10367,102.36008,67,108,0
102.71905,102.86969,75,108,0
102.872894,103.02354,65,108,0
103.02674,103.17738,63,108,0
103.18059,103.33123,75,108,0
103.64213,103.79277,75,108,0
103.795975,103.94661,67,108,0
103.94982,104.10046,63,108,0
104.10366,104.2543,75,108,0
104.5652,104.71905,75,108,0
104.5652,104.71905,75,108,0
104.71905,104.872894,63,108,0
104.872894,105.02674,77,108,0
104.872894,105.02674,77,108,0
105.02674,105.18059,65,108,0
105.18059,105.334435,79,108,0
105.18059,105.334435,79,108,0
105.334435,105.48828,67,108,0
105.48828,105.64212,72,108,0
105.48828,105.64212,72,108,0
105.64212,105.79597,60,108,0
105.79597,105.949814,74,108,0
105.79597,105.949814,74,108,0
105.949814,106.10046,62,108,0
106.411354,106.562,75,108,0
106.5652,106.71584,65,108,0
106.71905,106.86969,63,108,0
106.872894,107.02354,75,108,0
107.33443,107.48507,75,108,0
107.48827,107.638916,67,108,0
107.64212,107.79276,63,108,0
107.79597,107.94661,75,108,0
108.25751,108.411354,75,108,0
108.25751,108.411354,75,108,0
108.411354,108.5652,63,108,0
108.5652,108.71905,77,108,0
108.5652,108.71905,77,108,0
108.71905,108.87289,65,108,0
108.87289,109.02673,79,108,0
108.87289,109.02673,79,108,0
109.02673,109.18058,67,108,0
109.18058,109.33443,72,108,0
109.18058,109.33443,72,108,0
109.33443,109.48827,60,108,0
109.48827,109.64212,74,108,0
109.48827,109.64212,74,108,0
109.64212,109.79276,62,108,0
110.10366,110.254295,75,108,0
110.25751,110.40814,66,108,0
110.41135,110.56199,63,108,0
110.56519,110.715836,75,108,0
111.02673,111.177376,73,108,0
111.18058,111.33122,65,108,0
111.33443,111.48507,61,108,0
111.48827,111.638916,73,108,0
111.94981,112.10365,75,108,0
111.94981,112.10365,75,108,0
112.10365,112.2575,63,108,0
112.2575,112.41135,77,108,0
112.2575,112.41135,77,108,0
112.41135,112.56519,65,108,0
112.56519,112.71904,78,108,0
112.56519,112.71904,78,108,0
112.71904,112.87289,66,108,0
112.87289,113.02673,71,108,0
112.87289,113.02673,71,108,0
113.02673,113.18058,59,108,0
113.18058,113.33443,74,108,0
113.18058,113.33443,74,108,0
113.33443,113.48506,62,108,0
113.79596,114.052376,64,108,0
113.79596,114.052376,70,108,0
113.79596,114.052376,73,108,0
113.79596,114.052376,76,108,0
114.10365,114.36006,52,108,0
114.10365,114.36006,58,108,0
114.10365,114.36006,61,108,0
114.71904,114.97545,64,108,0
114.71904,114.97545,69,108,0
114.71904,114.97545,72,108,0
114.71904,114.97545,76,108,0
115.02673,115.28314,52,108,0
115.02673,115.28314,57,108,0
115.02673,115.28314,60,108,0
115.64211,115.89852,63,108,0
115.64211,115.89852,69,108,0
115.64211,115.89852,71,108,0
115.64211,115.89852,75,108,0
115.94981,116.206215,51,108,0
115.94981,116.206215,57,108,0
115.94981,116.206215,59,108,0
116.56519,116.8216,62,108,0
116.56519,116.8216,67,108,0
116.56519,116.8216,70,108,0
116.56519,116.8216,74,108,0
117.488266,117.744675,63,108,0
117.488266,117.744675,67,108,0
117.488266,117.744675,70,108,0
117.488266,117.744675,75,108,0
118.41134,118.667755,58,108,0
118.41134,118.667755,63,108,0
118.41134,118.667755,67,108,0
118.41134,118.667755,70,108,0
119.33442,119.59083,64,108,0
119.33442,119.59083,70,108,0
119.33442,119.59083,73,108,0
119.33442,119.59083,76,108,0
119.64211,119.89852,52,108,0
119.64211,119.89852,58,108,0
119.64211,119.89852,61,108,0
120.25749,120.5139,64,108,0
120.25749,120.5139,69,108,0
120.25749,120.5139,72,108,0
120.25749,120.5139,76,108,0
120.565186,120.821594,52,108,0
120.565186,120.821594,57,108,0
120.565186,120.821594,60,108,0
121.18057,121.43698,63,108,0
121.18057,121.43698,69,108,0
121.18057,121.43698,71,108,0
121.18057,121.43698,75,108,0
121.48826,121.744675,51,108,0
121.48826,121.744675,57,108,0
121.48826,121.744675,59,108,0
122.103645,122.360054,64,108,0
122.103645,122.360054,67,108,0
122.103645,122.360054,70,108,0
122.103645,122.360054,76,108,0
123.026726,123.283134,63,108,0
123.026726,123.283134,67,108,0
123.026726,123.283134,71,108,0
123.026726,123.283134,75,108,0
123.9498,124.20621,64,108,0
123.9498,124.20621,69,108,0
123.9498,124.20621,73,108,0
123.9498,124.20621,76,108,0
124.87287,125.02351,84,108,0
125.02672,125.17736,74,108,0
125.180565,125.33121,72,108,0
125.33441,125.485054,84,108,0
125.79595,125.946594,84,108,0
125.9498,126.10043,75,108,0
126.103645,126.25428,72,108,0
126.257484,126.40813,84,108,0
126.719025,126.87287,84,108,0
126.719025,126.87287,84,108,0
126.87287,127.02672,72,108,0
127.02672,127.180565,86,108,0
127.02672,127.180565,86,108,0
127.180565,127.33441,74,108,0
127.33441,127.48826,88,108,0
127.33441,127.48826,88,108,0
127.48826,127.642105,76,108,0
127.642105,127.795944,81,108,0
127.642105,127.795944,81,108,0
127.795944,127.94979,69,108,0
127.94979,128.10043,83,108,0
127.94979,128.10043,83,108,0
128.10364,128.25429,71,108,0
128.56519,128.71582,84,108,0
128.71902,128.86966,75,108,0
128.87286,129.02351,72,108,0
129.02672,129.17735,84,108,0
129.48825,129.6389,82,108,0
129.6421,129.79274,74,108,0
129.79594,129.9466,70,108,0
129.9498,130.10043,82,108,0
130.41133,130.56517,83,108,0
130.41133,130.56517,83,108,0
130.56517,130.71902,71,108,0
130.71902,130.87286,84,108,0
130.71902,130.87286,84,108,0
130.87286,131.02672,72,108,0
131.02672,131.18056,86,108,0
131.02672,131.18056,86,108,0
131.18056,131.33441,74,108,0
131.33441,131.48825,89,108,0
131.33441,131.48825,89,108,0
131.48825,131.6421,77,108,0
131.6421,131.79594,87,108,0
131.6421,131.79594,87,108,0
131.79594,131.94978,75,108,0
131.94978,132.10364,86,108,0
131.94978,132.10364,86,108,0
132.10364,132.25748,74,108,0
132.25748,132.41133,83,108,0
132.25748,132.41133,83,108,0
132.41133,132.56517,71,108,0
132.56517,132.71902,84,108,0
132.56517,132.71902,84,108,0
132.71902,132.86966,72,108,0
133.18056,133.33119,89,108,0
133.33441,133.48505,81,108,0
133.48825,133.63889,77,108,0
133.64209,133.79274,89,108,0
134.08865,134.23776,85,108,0
134.08865,134.23776,85,108,0
134.23776,134.38869,73,108,0
134.38869,134.5416,86,108,0
134.38869,134.5416,86,108,0
134.5416,134.69641,74,108,0
134.69641,134.85332,88,108,0
134.69641,134.85332,88,108,0
134.85332,135.01224,76,108,0
135.01224,135.17336,91,108,0
135.01224,135.17336,91,108,0
135.17336,135.3366,79,108,0
135.3366,135.50217,89,108,0
135.3366,135.50217,89,108,0
135.50217,135.66997,77,108,0
135.66997,135.83755,88,108,0
135.66997,135.83755,88,108,0
135.83755,136.0006,76,108,0
136.0006,136.15932,85,108,0
136.0006,136.15932,85,108,0
136.15932,136.31393,73,108,0
136.31393,136.46469,86,108,0
136.31393,136.46469,86,108,0
136.46469,136.6087,74,108,0
136.75667,136.89857,52,108,0
136.9016,137.0435,55,108,0
136.9016,137.0435,60,108,0
137.04652,137.18843,64,108,0
137.19145,137.33336,52,108,0
137.33638,137.47829,64,108,0
137.62624,137.76814,54,108,0
137.77116,137.91307,57,108,0
137.77116,137.91307,62,108,0
137.91608,138.058,66,108,0
138.061,138.20293,54,108,0
138.20593,138.34785,66,108,0
138.49579,138.6377,55,108,0
138.64072,138.78262,60,108,0
138.64072,138.78262,64,108,0
138.78564,138.92755,67,108,0
138.93057,139.07248,57,108,0
139.0755,139.2174,69,108,0
139.36536,139.50726,58,108,0
139.51028,139.65219,63,108,0
139.65521,139.79712,67,108,0
139.80014,139.94205,70,108,0
139.94507,140.08698,75,108,0
140.09,140.2319,79,108,0
140.23492,140.37683,82,108,0
140.37985,140.52176,87,108,0
140.52478,140.66669,91,108,0
140.66971,140.81161,87,108,0
140.81464,140.95654,82,108,0
140.95956,141.10147,70,108,0
140.95956,141.10147,79,108,0
141.10449,141.2464,75,108,0
141.24942,141.39133,70,108,0
141.39435,141.53625,67,108,0
141.53928,141.68118,63,108,0
141.6842,141.82611,58,108,0
141.97406,142.11597,52,108,0
142.11899,142.2609,55,108,0
142.11899,142.2609,60,108,0
142.26392,142.40582,64,108,0
142.40884,142.55075,52,108,0
142.55376,142.69568,64,108,0
142.84361,142.98553,54,108,0
142.98854,143.13045,57,108,0
142.98854,143.13045,62,108,0
143.13347,143.27538,66,108,0
143.2784,143.4203,54,108,0
143.42332,143.56523,66,108,0
143.71318,143.85509,55,108,0
143.85811,144.00002,60,108,0
143.85811,144.00002,64,108,0
144.00304,144.14494,67,108,0
144.14796,144.28987,57,108,0
144.2929,144.4348,69,108,0
144.58275,144.72466,58,108,0
144.72768,144.86958,63,108,0
144.8726,145.01451,67,108,0
145.01753,145.15944,70,108,0
145.16246,145.30437,75,108,0
145.30739,145.4493,79,108,0
145.45232,145.59422,82,108,0
145.59724,145.73915,87,108,0
145.74217,145.88408,91,108,0
145.8871,146.029,87,108,0
146.03203,146.17393,82,108,0
146.17696,146.31886,70,108,0
146.17696,146.31886,79,108,0
146.32188,146.46379,75,108,0
146.46681,146.60872,70,108,0
146.61174,146.75365,67,108,0
146.75667,146.89857,63,108,0
146.9016,147.0435,58,108,0
147.19144,147.33336,55,108,0
147.33636,147.47829,57,108,0
147.33636,147.47829,61,108,0
147.4813,147.62321,67,108,0
147.62622,147.76813,57,108,0
147.62622,147.76813,61,108,0
147.77115,147.91306,55,108,0
148.061,148.20291,54,108,0
148.20593,148.34784,56,108,0
148.20593,148.34784,60,108,0
148.35086,148.49277,66,108,0
148.49579,148.6377,56,108,0
148.49579,148.6377,60,108,0
148.64072,148.78262,54,108,0
148.93057,149.07248,54,108,0
149.0755,149.2174,56,108,0
149.0755,149.2174,60,108,0
149.22043,149.36234,66,108,0
149.36536,149.50726,56,108,0
149.36536,149.50726,60,108,0
149.51028,149.65219,54,108,0
149.80014,149.94205,53,108,0
149.94507,150.08698,62,108,0
150.09,150.2319,65,108,0
150.23492,150.37683,65,108,0
150.37985,150.52176,74,108,0
150.52478,150.66669,77,108,0
150.66971,150.81161,77,108,0
150.81464,150.95654,86,108,0
150.95956,151.10147,89,108,0
151.10449,151.2464,86,108,0
151.24942,151.39133,77,108,0
151.39435,151.53625,77,108,0
151.53928,151.68118,74,108,0
151.6842,151.82611,65,108,0
151.82912,151.97104,65,108,0
151.97404,152.11597,62,108,0
152.11897,152.2609,53,108,0
152.40883,152.55074,55,108,0
152.55376,152.69566,57,108,0
152.55376,152.69566,61,108,0
152.69868,152.84059,67,108,0
152.84361,152.98552,57,108,0
152.84361,152.98552,61,108,0
152.98854,153.13045,55,108,0
153.2784,153.4203,54,108,0
153.42332,153.56523,56,108,0
153.42332,153.56523,60,108,0
153.56825,153.71016,66,108,0
153.71318,153.85509,56,108,0
153.71318,153.85509,60,108,0
153.85811,154.00002,54,108,0
154.14796,154.28987,54,108,0
154.2929,154.4348,56,108,0
154.2929,154.4348,60,108,0
154.43782,154.57973,66,108,0
154.58275,154.72466,56,108,0
154.58275,154.72466,60,108,0
154.72768,154.86958,54,108,0
155.01753,155.15944,53,108,0
155.16246,155.30437,62,108,0
155.30739,155.4493,65,108,0
155.45232,155.59422,65,108,0
155.59724,155.73915,74,108,0
155.74217,155.88408,77,108,0
155.8871,156.029,77,108,0
156.03203,156.17393,86,108,0
156.17696,156.31886,89,108,0
156.32188,156.46379,86,108,0
156.4668,156.60872,77,108,0
156.61172,156.75365,77,108,0
156.75665,156.89857,74,108,0
156.90158,157.04349,65,108,0
157.04651,157.18842,65,108,0
157.19144,157.33334,62,108,0
157.33636,157.47827,53,108,0
157.62622,157.76813,53,108,0
157.77115,157.91306,62,108,0
157.91608,158.05798,65,108,0
158.061,158.20291,65,108,0
158.20593,158.34784,74,108,0
158.35086,158.49277,77,108,0
158.49579,158.6377,77,108,0
158.64072,158.78262,86,108,0
158.78564,158.92755,89,108,0
158.93057,159.07248,86,108,0
159.0755,159.2174,77,108,0
159.22043,159.36234,77,108,0
159.36536,159.50726,74,108,0
159.51028,159.65219,65,108,0
159.65521,159.79712,65,108,0
159.80014,159.94205,62,108,0
159.94507,160.08698,53,108,0
160.23492,160.37683,53,108,0
160.37985,160.52176,62,108,0
160.52478,160.66669,65,108,0
160.66971,160.81161,65,108,0
160.81464,160.95654,74,108,0
160.95956,161.10147,77,108,0
161.10448,161.2464,77,108,0
161.2494,161.39133,86,108,0
161.39433,161.53625,89,108,0
161.53926,161.68117,86,108,0
161.68419,161.8261,77,108,0
161.82912,161.97102,77,108,0
161.97404,162.11595,74,108,0
162.11897,162.26088,65,108,0
162.2639,162.4058,65,108,0
162.40883,162.55074,62,108,0
162.55376,162.69566,53,108,0
162.84361,162.98552,53,108,0
162.98854,163.13045,62,108,0
163.13347,163.27538,65,108,0
163.2784,163.4203,65,108,0
163.42332,163.56523,74,108,0
163.56825,163.71016,77,108,0
163.71318,163.85509,77,108,0
163.85811,164.00002,86,108,0
164.00304,164.14494,89,108,0
164.14796,164.28987,86,108,0
164.2929,164.4348,77,108,0
164.43782,164.57973,77,108,0
164.58275,164.72466,74,108,0
164.72768,164.86958,65,108,0
164.8726,165.01451,65,108,0
165.01753,165.15944,62,108,0
165.16246,165.30437,53,108,0
165.45232,165.59422,53,108,0
165.59724,165.73915,62,108,0
165.74216,165.88408,65,108,0
165.88708,166.029,65,108,0
166.03201,166.17393,74,108,0
166.17694,166.31885,77,108,0
166.32187,166.46378,77,108,0
166.4668,166.6087,86,108,0
166.61172,166.75363,89,108,0
166.75665,166.89856,86,108,0
166.90158,167.04349,77,108,0
167.04651,167.18842,77,108,0
167.19144,167.33334,74,108,0
167.33636,167.47827,65,108,0
167.4813,167.6232,65,108,0
167.62622,167.76813,62,108,0
167.77115,167.91306,53,108,0
168.06152,168.2059,53,108,0
168.209,168.35577,62,108,0
168.35892,168.5079,65,108,0
168.51111,168.6625,65,108,0
168.66576,168.81966,74,108,0
168.82297,168.97932,77,108,0
168.98267,169.14182,77,108,0
169.14523,169.30688,86,108,0
169.31033,169.4751,89,108,0
169.47862,169.64604,86,108,0
169.64966,169.8203,77,108,0
169.82394,169.9976,77,108,0
170.00134,170.17828,74,108,0
170.18207,170.36244,65,108,0
170.36632,170.55006,65,108,0
170.554,170.74162,62,108,0
170.74565,170.93675,53,108,0
171.23933,171.33572,53,108,0
171.33884,171.43523,58,108,0
171.43834,171.53473,62,108,0
171.53784,171.63423,62,108,0
171.63734,171.73373,58,108,0
171.73685,171.83324,53,108,0
172.13486,172.23125,53,108,0
172.23436,172.33075,58,108,0
172.33386,172.43025,62,108,0
172.43336,172.52975,62,108,0
172.53287,172.62926,58,108,0
172.63237,172.72876,53,108,0
173.03038,173.12677,53,108,0
173.12988,173.22627,58,108,0
173.22939,173.32578,62,108,0
173.32889,173.42528,62,108,0
173.42839,173.52478,58,108,0
173.5279,173.62428,53,108,0
173.9259,174.0223,55,108,0
174.0254,174.1218,62,108,0
174.12491,174.2213,64,108,0
174.22441,174.3208,64,108,0
174.32391,174.4203,62,108,0
174.42342,174.5198,55,108,0
174.82143,174.91782,55,108,0
174.92093,175.01732,61,108,0
175.02043,175.11682,64,108,0
175.11993,175.21632,64,108,0
175.21944,175.31583,61,108,0
175.31894,175.41533,55,108,0
175.71695,175.81334,56,108,0
175.81645,175.91284,62,108,0
175.91595,176.01234,66,108,0
176.01546,176.11185,66,108,0
176.11496,176.21135,62,108,0
176.21446,176.31085,56,108,0
176.61246,176.70886,58,108,0
176.71196,176.80836,62,108,0
176.81146,176.90787,67,108,0
176.91096,177.00737,67,108,0
177.01047,177.10687,62,108,0
177.10997,177.20638,58,108,0
177.50798,177.60439,61,108,0
177.60748,177.70387,67,108,0
177.70699,177.80338,69,108,0
177.80649,177.90288,69,108,0
177.90599,178.00238,67,108,0
178.0055,178.10188,61,108,0
178.4035,178.4999,62,108,0
178.503,178.5994,67,108,0
178.60251,178.6989,70,108,0
178.70201,178.7984,70,108,0
178.80151,178.8979,67,108,0
178.90102,178.9974,62,108,0
179.29903,179.39542,64,108,0
179.39853,179.49492,70,108,0
179.49803,179.59442,72,108,0
179.59753,179.69392,72,108,0
179.69704,179.79343,70,108,0
179.79654,179.89293,64,108,0
180.19455,180.29094,64,108,0
180.29405,180.39044,69,108,0
180.39355,180.48994,72,108,0
180.49306,180.58945,72,108,0
180.59256,180.68895,69,108,0
180.69206,180.78845,64,108,0
181.09007,181.18646,64,108,0
181.18958,181.28596,67,108,0
181.28908,181.38547,73,108,0
181.38858,181.48497,73,108,0
181.48808,181.58447,67,108,0
181.58759,181.68398,64,108,0
181.9856,182.08199,65,108,0
182.0851,182.18149,70,108,0
182.1846,182.28099,74,108,0
182.2841,182.3805,74,108,0
182.3836,182.48,70,108,0
182.48311,182.5795,65,108,0
182.8811,182.97751,62,108,0
182.9806,183.07701,67,108,0
183.08011,183.17651,70,108,0
183.17961,183.27602,70,108,0
183.27911,183.37552,67,108,0
183.37862,183.47502,62,108,0
183.77663,184.02539,62,108,0
183.77663,184.02539,65,108,0
183.77663,184.2244,58,108,0
184.07513,184.2244,64,108,0
184.2244,184.37053,52,108,0
184.67215,184.92091,53,108,0
184.67215,184.92091,60,108,0
184.97066,185.11992,58,108,0
184.67215,185.11992,65,108,0
185.11992,185.26605,53,108,0
185.56767,185.81644,65,108,0
185.56767,185.81644,68,108,0
185.56767,186.01544,61,108,0
185.86618,186.01544,67,108,0
186.01544,186.16158,55,108,0
186.4632,186.71194,56,108,0
186.4632,186.71194,63,108,0
186.7617,186.91095,61,108,0
186.4632,186.91095,68,108,0
186.91095,187.0571,56,108,0
187.35872,187.60747,68,108,0
187.35872,187.60747,71,108,0
187.35872,187.80336,64,108,0
187.65723,187.80336,70,108,0
187.80647,187.95262,58,108,0
188.25424,188.50299,59,108,0
188.25424,188.50299,66,108,0
188.55275,188.702,64,108,0
188.25424,188.702,71,108,0
188.702,188.84814,59,108,0
189.44826,189.54466,59,108,0
189.54776,189.64417,64,108,0
189.64726,189.74367,71,108,0
190.34378,190.44019,57,108,0
190.44328,190.53969,64,108,0
190.54279,190.63919,69,108,0
191.2393,191.3357,57,108,0
191.3388,191.4352,65,108,0
191.43831,191.5347,69,108,0
192.13483,192.23122,57,108,0
192.23433,192.33072,62,108,0
192.33383,192.43022,69,108,0
193.03035,193.12674,57,108,0
193.12985,193.22624,62,108,0
193.22935,193.32574,69,108,0
193.92587,194.02226,57,108,0
194.02538,194.12177,62,108,0
194.12488,194.22127,69,108,0
194.8214,194.91779,50,108,0
194.9209,195.01729,57,108,0
195.0204,195.11679,62,108,0
195.71692,195.81331,50,108,0
195.81642,195.91281,57,108,0
195.91592,196.01231,62,108,0
196.31392,196.41032,53,108,0
196.41342,196.50983,58,108,0
196.51292,196.60933,62,108,0
196.61243,196.70883,62,108,0
196.71193,196.80833,58,108,0
196.81143,196.90784,53,108,0
197.20944,197.30585,55,108,0
197.30894,197.40535,62,108,0
197.40845,197.50484,64,108,0
197.50795,197.60434,64,108,0
197.60745,197.70384,62,108,0
197.70695,197.80334,55,108,0
198.10497,198.20135,55,108,0
198.20447,198.30086,61,108,0
198.30397,198.40036,64,108,0
198.40347,198.49986,64,108,0
198.50298,198.59937,61,108,0
198.60248,198.69887,55,108,0
199.00049,199.09688,56,108,0
199.09999,199.19638,62,108,0
199.1995,199.29588,66,108,0
199.299,199.39539,66,108,0
199.3985,199.49489,62,108,0
199.498,199.59439,56,108,0
199.89601,199.9924,58,108,0
199.99551,200.0919,62,108,0
200.09502,200.1914,67,108,0
200.19452,200.29091,67,108,0
200.29402,200.39041,62,108,0
200.39352,200.48991,58,108,0
200.79153,200.88792,61,108,0
200.89104,200.98743,67,108,0
200.99054,201.08693,69,108,0
201.09004,201.18643,69,108,0
201.18954,201.28593,67,108,0
201.28905,201.38544,61,108,0
201.68706,201.78345,62,108,0
201.78656,201.88295,67,108,0
201.88606,201.98245,70,108,0
201.98557,202.08195,70,108,0
202.08507,202.18146,65,108,0
202.18457,202.28096,62,108,0
202.58258,202.67897,64,108,0
202.68207,202.77847,70,108,0
202.78157,202.87798,72,108,0
202.88107,202.97748,72,108,0
202.98058,203.07698,70,108,0
203.08008,203.17648,64,108,0
203.47809,203.5745,64,108,0
203.57759,203.674,69,108,0
203.6771,203.7735,72,108,0
203.7766,203.873,72,108,0
203.8761,203.9725,69,108,0
203.9756,204.07199,64,108,0
204.37361,204.47,64,108,0
204.47311,204.5695,67,108,0
204.57262,204.669,73,108,0
204.67212,204.76851,73,108,0
204.77162,204.86801,67,108,0
204.87112,204.96751,64,108,0
205.26913,205.36552,57,108,0
205.36864,205.46503,66,108,0
205.46814,205.56453,69,108,0
205.56764,205.66403,69,108,0
205.66714,205.76353,66,108,0
205.76665,205.86304,57,108,0
206.16466,206.26105,57,108,0
206.26416,206.36055,62,108,0
206.36366,206.46005,69,108,0
206.46317,206.55956,69,108,0
206.56267,206.65906,62,108,0
206.66217,206.75856,57,108,0
207.06018,207.20943,56,108,0
207.06018,207.20943,62,108,0
207.20943,207.35869,61,108,0
207.35869,207.50793,62,108,0
207.50793,207.65408,56,108,0
207.80644,207.9557,56,108,0
207.9557,208.10495,63,108,0
208.10495,208.25421,68,108,0
208.25421,208.40346,61,108,0
208.40346,208.5496,56,108,0
208.85123,209.00047,56,108,0
208.85123,209.00047,62,108,0
209.00047,209.14973,61,108,0
209.14973,209.29898,62,108,0
209.29898,209.44513,56,108,0
209.59749,209.74673,56,108,0
209.74673,209.896,63,108,0
209.896,210.04524,68,108,0
210.04524,210.1945,61,108,0
210.1945,210.34065,56,108,0
210.64226,210.79152,58,108,0
210.64226,210.79152,64,108,0
210.79152,210.94077,63,108,0
210.94077,211.09003,64,108,0
211.09003,211.23616,58,108,0
211.38853,211.53778,58,108,0
211.53778,211.68704,65,108,0
211.68704,211.83629,70,108,0
211.83629,211.98555,63,108,0
211.98555,212.13168,58,108,0
212.4333,212.58255,60,108,0
212.4333,212.58255,66,108,0
212.58255,212.73181,65,108,0
212.73181,212.88106,66,108,0
212.88106,213.0272,60,108,0
213.17957,213.32883,60,108,0
213.32883,213.47807,67,108,0
213.47807,213.62733,72,108,0
213.62733,213.77658,65,108,0
213.77658,213.92273,60,108,0
214.07509,214.22435,57,108,0
214.22435,214.3736,65,108,0
214.3736,214.51974,69,108,0
214.52286,214.6721,69,108,0
214.6721,214.82137,77,108,0
214.82137,214.9675,81,108,0
214.97061,215.11987,81,108,0
215.11987,215.26912,89,108,0
215.26912,215.41838,93,108,0
215.41838,215.56763,89,108,0
215.56763,215.71378,81,108,0
216.16464,216.31389,81,108,0
216.31389,216.46315,77,108,0
216.46315,216.6093,69,108,0
217.06017,217.20941,69,108,0
217.20941,217.35867,65,108,0
217.35867,217.5048,57,108,0
217.65718,217.80643,56,108,0
217.80643,217.95569,64,108,0
217.95569,218.10182,68,108,0
218.10493,218.2542,68,108,0
218.2542,218.40344,76,108,0
218.40344,218.54959,80,108,0
218.5527,218.70195,80,108,0
218.70195,218.85121,88,108,0
218.85121,219.00046,92,108,0
219.00046,219.1497,88,108,0
219.1497,219.29585,80,108,0
219.74672,219.89598,80,108,0
219.89598,220.04523,76,108,0
220.04523,220.19138,68,108,0
220.64224,220.7915,68,108,0
220.7915,220.94075,64,108,0
220.94075,221.0869,56,108,0
221.23926,221.38852,55,108,0
221.38852,221.53777,63,108,0
221.53777,221.68391,67,108,0
221.68703,221.83627,67,108,0
221.83627,221.98553,75,108,0
221.98553,222.13167,79,108,0
222.13478,222.28404,79,108,0
222.28404,222.43329,87,108,0
222.43329,222.58253,91,108,0
222.58253,222.7318,87,108,0
222.7318,222.87794,79,108,0
223.32881,223.47806,79,108,0
223.47806,223.62732,75,108,0
223.62732,223.77347,67,108,0
224.22433,224.37358,67,108,0
224.37358,224.52284,63,108,0
224.52284,224.66898,55,108,0
224.9706,225.11986,53,108,0
225.11986,225.2691,56,108,0
225.2691,225.41837,55,108,0
225.41837,225.5645,58,108,0
225.86612,226.01537,53,108,0
226.01537,226.16463,56,108,0
226.16463,226.31387,60,108,0
226.31387,226.46002,56,108,0
226.76164,226.91089,57,108,0
226.91089,227.06015,60,108,0
227.06015,227.2094,59,108,0
227.2094,227.35555,62,108,0
227.65717,227.80641,56,108,0
227.80641,227.95567,60,108,0
227.95567,228.10492,63,108,0
228.10492,228.25107,68,108,0
228.55269,228.70193,65,108,0
228.70193,228.8512,70,108,0
228.8512,229.00044,67,108,0
229.00044,229.14659,75,108,0
229.4482,229.59746,77,108,0
229.59746,229.7467,65,108,0
229.7467,229.89597,68,108,0
229.89597,230.04211,63,108,0
230.34372,230.49298,69,108,0
230.49298,230.64223,74,108,0
230.64223,230.79149,71,108,0
230.79149,230.93762,79,108,0
231.23924,231.3885,80,108,0
231.3885,231.53775,68,108,0
231.53775,231.68701,72,108,0
231.68701,231.83315,67,108,0
232.13477,232.28403,58,108,0
232.28403,232.43327,66,108,0
232.43327,232.58252,60,108,0
232.58252,232.72867,69,108,0
233.03029,233.17953,69,108,0
233.17953,233.3288,58,108,0
233.3288,233.47804,70,108,0
233.47804,233.62419,62,108,0
233.92581,234.07506,62,108,0
234.07506,234.22432,67,108,0
234.22432,234.37357,65,108,0
234.37357,234.51971,70,108,0
234.82133,234.97058,69,108,0
234.97058,235.11984,61,108,0
235.11984,235.26909,67,108,0
235.26909,235.41524,64,108,0
235.5676,235.61734,59,108,0
235.8661,235.91585,47,108,0
236.16461,236.21436,48,108,0
236.46312,236.51286,60,108,0
236.76163,236.81137,53,108,0
237.06013,237.10988,60,108,0
237.35864,237.40839,59,108,0
237.65715,237.7069,47,108,0
237.95566,238.0054,48,108,0
238.25417,238.30391,60,108,0
238.55267,238.60242,53,108,0
238.85118,238.90092,60,108,0
239.14967,239.19943,63,108,0
239.44818,239.49794,51,108,0
239.74669,239.79645,52,108,0
240.0452,240.09496,64,108,0
240.3437,240.39346,57,108,0
240.64221,240.69197,64,108,0
240.94072,240.99048,57,108,0
241.23923,241.28899,45,108,0
241.53773,241.5875,57,108,0
241.83624,241.886,50,108,0
242.13475,242.18451,43,108,0
242.43326,242.483,50,108,0
242.5825,242.72865,55,108,0
242.73177,242.87791,57,108,0
242.88101,243.02716,58,108,0
243.47803,243.9258,66,127,0
243.47803,243.9258,78,127,0
243.9258,244.07193,62,108,0
243.9258,244.07193,74,108,0
244.07504,244.3238,66,108,0
243.47803,244.3238,70,127,0
244.07504,244.3238,78,108,0
244.37355,244.5197,54,108,0
244.52281,244.66895,56,108,0
244.67206,244.8182,58,108,0
245.26907,245.71683,66,127,0
245.26907,245.71683,78,127,0
245.71683,245.86298,62,108,0
245.71683,245.86298,74,108,0
245.86609,246.11484,66,108,0
245.26907,246.11484,70,127,0
245.86609,246.11484,78,108,0
246.1646,246.31075,54,108,0
246.31384,246.45999,56,108,0
246.4631,246.60925,57,108,0
247.06012,247.50787,66,127,0
247.06012,247.50787,78,127,0
247.50787,247.65402,62,108,0
247.50787,247.65402,74,108,0
247.65714,247.90588,66,108,0
247.06012,247.90588,70,127,0
247.65714,247.90588,78,108,0
247.95564,248.10178,42,108,0
247.95564,248.10178,54,108,0
248.10489,248.25104,44,108,0
248.10489,248.25104,56,108,0
248.25415,248.40028,46,108,0
248.25415,248.40028,58,108,0
248.4034,248.54955,42,108,0
248.4034,248.54955,54,108,0
248.55266,248.69879,44,108,0
248.55266,248.69879,56,108,0
248.7019,248.84805,46,108,0
248.7019,248.84805,58,108,0
248.85115,248.9973,48,108,0
248.85115,248.9973,60,108,0
249.00041,249.14656,50,108,0
249.00041,249.14656,62,108,0
249.14966,249.2958,52,108,0
249.14966,249.2958,64,108,0
249.29892,249.44507,54,108,0
249.29892,249.44507,66,108,0
249.44817,249.59431,50,108,0
249.44817,249.59431,62,108,0
249.59743,249.74358,52,108,0
249.59743,249.74358,64,108,0
249.74667,249.89282,54,108,0
249.74667,249.89282,66,108,0
249.89594,250.04208,56,108,0
249.89594,250.04208,68,108,0
250.04518,250.19133,58,108,0
250.04518,250.19133,70,108,0
250.19444,250.34058,54,108,0
250.19444,250.34058,66,108,0
250.34369,250.48984,56,108,0
250.34369,250.48984,68,108,0
250.49295,250.63908,58,108,0
250.49295,250.63908,70,108,0
250.6422,250.78835,60,108,0
250.6422,250.78835,72,108,0
250.79146,250.93759,62,108,0
250.79146,250.93759,74,108,0
250.9407,251.08685,64,108,0
250.9407,251.08685,76,108,0
251.08997,251.2361,66,108,0
251.08997,251.2361,78,108,0
251.23921,251.38536,62,108,0
251.23921,251.38536,74,108,0
251.38847,251.5346,64,108,0
251.38847,251.5346,76,108,0
251.53772,251.68387,66,108,0
251.53772,251.68387,78,108,0
251.68698,251.83311,68,108,0
251.68698,251.83311,80,108,0
251.83623,251.98238,70,108,0
251.83623,251.98238,82,108,0
251.98549,252.13162,66,108,0
251.98549,252.13162,78,108,0
252.13474,252.28088,68,108,0
252.13474,252.28088,80,108,0
252.28398,252.43013,70,108,0
252.28398,252.43013,82,108,0
252.43324,252.57542,71,108,0
252.43324,252.57542,83,108,0
252.57848,252.72237,72,108,0
252.57848,252.72237,84,108,0
252.72545,252.8711,74,108,0
252.72545,252.8711,86,108,0
252.87419,253.02173,75,108,0
252.87419,253.02173,87,108,0
253.0249,253.17447,72,108,0
253.0249,253.17447,84,108,0
253.17767,253.32913,74,108,0
253.17767,253.32913,86,108,0
253.33237,253.48575,75,108,0
253.33237,253.48575,87,108,0
253.48901,253.64464,77,108,0
253.48901,253.64464,89,108,0
253.64798,253.80571,79,108,0
253.64798,253.80571,91,108,0
253.8091,253.96893,81,108,0
253.8091,253.96893,93,108,0
253.97235,254.1344,82,108,0
253.97235,254.1344,94,108,0
254.13788,254.30246,84,108,0
254.13788,254.30246,96,108,0
254.306,254.59142,86,108,0
254.306,254.59142,90,108,0
254.306,254.59142,94,108,0
254.306,254.59142,98,108,0
255.00304,255.30617,60,108,0
255.00304,255.30617,62,108,0
255.00304,255.30617,66,108,0
255.00304,255.30617,74,108,0
255.66602,255.76552,50,108,0
255.76552,255.86502,58,108,0
255.86502,255.96143,62,108,0
255.96452,256.06403,62,108,0
256.06403,256.16354,58,108,0
256.16354,256.25992,50,108,0
256.56155,256.66104,51,108,0
256.66104,256.76056,55,108,0
256.76056,256.85693,63,108,0
256.86005,256.95956,63,108,0
256.95956,257.05905,55,108,0
257.05905,257.15546,51,108,0
257.45706,257.55658,50,108,0
257.55658,257.65607,58,108,0
257.65607,257.75247,62,108,0
257.75558,257.85507,62,108,0
257.85507,257.9546,58,108,0
257.9546,258.05096,50,108,0
258.3526,258.4521,52,108,0
258.4521,258.5516,58,108,0
258.5516,258.64798,64,108,0
258.6511,258.75058,64,108,0
258.75058,258.8501,58,108,0
258.8501,258.9465,52,108,0
259.2481,259.3476,50,108,0
259.3476,259.4471,58,108,0
259.4471,259.54352,62,108,0
259.5466,259.64612,62,108,0
259.64612,259.7456,58,108,0
259.7456,259.842,50,108,0
260.14362,260.24313,53,108,0
260.24313,260.34262,60,108,0
260.34262,260.43903,65,108,0
260.44214,260.54163,65,108,0
260.54163,260.64114,60,108,0
260.64114,260.73752,53,108,0
261.03915,261.13864,50,108,0
261.13864,261.23816,56,108,0
261.23816,261.33765,60,108,0
261.33765,261.43716,58,108,0
261.43716,261.53665,50,108,0
261.53665,261.63306,58,108,0
261.93466,262.03418,52,108,0
262.03418,262.13367,55,108,0
262.13367,262.23007,62,108,0
262.2332,262.33267,61,108,0
262.33267,262.4322,55,108,0
262.4322,262.52856,52,108,0
262.8302,263.07895,55,127,0
262.8302,263.07895,58,127,0
262.8302,263.07895,62,127,0
263.1287,263.27795,53,108,0
263.27795,263.4241,65,108,0
263.7257,263.97446,57,127,0
263.7257,263.97446,58,127,0
263.7257,263.97446,63,127,0
264.02423,264.17346,55,108,0
264.17346,264.3196,67,108,0
264.62125,264.87,55,127,0
264.62125,264.87,58,127,0
264.62125,264.87,62,127,0
264.91974,265.069,53,108,0
265.069,265.21515,65,108,0
265.51675,265.7655,58,127,0
265.51675,265.7655,62,127,0
265.51675,265.7655,69,127,0
265.81525,265.9645,67,108,0
265.81525,265.9645,70,108,0
265.9645,266.11066,58,108,0
266.41226,266.66104,62,127,0
266.41226,266.66104,65,127,0
266.41226,266.66104,72,127,0
266.7108,266.86005,73,108,0
266.86005,267.00616,61,108,0
267.3078,267.4073,53,108,0
267.4073,267.5068,57,108,0
267.5068,267.60318,66,108,0
267.6063,267.7058,66,108,0
267.7058,267.8053,57,108,0
267.8053,267.9017,54,108,0
268.2033,268.30283,54,108,0
268.30283,268.4023,62,108,0
268.4023,268.49872,66,108,0
268.50183,268.60132,66,108,0
268.60132,268.70084,62,108,0
268.70084,268.7972,54,108,0
269.19833,269.29785,53,108,0
269.29785,269.39423,62,108,0
269.29785,269.39423,65,108,0
269.49686,269.59634,54,108,0
269.59634,269.69275,62,108,0
269.59634,269.69275,66,108,0
269.79535,269.89487,55,108,0
269.89487,269.99124,62,108,0
269.89487,269.99124,67,108,0
270.09387,270.19336,56,108,0
270.19336,270.28976,62,108,0
270.19336,270.28976,68,108,0
270.39236,270.49188,57,108,0
270.49188,270.58826,62,108,0
270.49188,270.58826,69,108,0
270.8899,270.98627,50,108,0
270.98938,271.0858,58,108,0
271.0889,271.18527,62,108,0
271.1884,271.2848,62,108,0
271.2879,271.38428,58,108,0
271.3874,271.4838,50,108,0
271.7854,271.8818,51,108,0
271.8849,271.9813,55,108,0
271.9844,272.0808,63,108,0
272.0839,272.1803,63,108,0
272.1834,272.27982,55,108,0
272.2829,272.3793,51,108,0
272.6809,272.7773,50,108,0
272.78043,272.87683,58,108,0
272.8799,272.97632,62,108,0
272.97943,273.07584,62,108,0
273.07892,273.17532,58,108,0
273.17844,273.2748,50,108,0
273.57645,273.67282,52,108,0
273.67593,273.77234,58,108,0
273.77545,273.87183,64,108,0
273.87494,273.97134,64,108,0
273.97446,274.07083,58,108,0
274.07394,274.17035,52,108,0
274.47195,274.56836,50,108,0
274.57147,274.66785,58,108,0
274.67096,274.76736,62,108,0
274.77048,274.86685,62,108,0
274.86996,274.96637,58,108,0
274.96948,275.06586,50,108,0
275.3675,275.46387,53,108,0
275.46698,275.5634,60,108,0
275.5665,275.66287,65,108,0
275.666,275.7624,65,108,0
275.7655,275.86188,60,108,0
275.865,275.9614,53,108,0
276.263,276.3594,50,108,0
276.36252,276.4589,56,108,0
276.462,276.5584,60,108,0
276.56152,276.6579,58,108,0
276.661,276.75742,50,108,0
276.76053,276.8569,58,108,0
277.15854,277.2549,52,108,0
277.25803,277.35443,58,108,0
277.35754,277.45392,62,108,0
277.45703,277.55344,61,108,0
277.55655,277.65292,55,108,0
277.65604,277.75244,52,108,0
278.05405,278.3028,55,127,0
278.05405,278.3028,58,127,0
278.05405,278.3028,62,127,0
278.35257,278.5018,53,108,0
278.5018,278.64795,65,108,0
278.94955,279.19833,57,127,0
278.94955,279.19833,58,127,0
278.94955,279.19833,63,127,0
279.24808,279.39734,55,108,0
279.39734,279.5435,67,108,0
279.8451,280.09384,55,127,0
279.8451,280.09384,58,127,0
279.8451,280.09384,62,127,0
280.1436,280.29285,53,108,0
280.29285,280.439,65,108,0
280.7406,280.98938,58,127,0
280.7406,280.98938,62,127,0
280.7406,280.98938,69,127,0
281.03912,281.1884,67,108,0
281.1884,281.3345,55,108,0
281.63614,281.8849,62,127,0
281.63614,281.8849,65,127,0
281.63614,281.8849,72,127,0
281.93463,282.0839,73,108,0
282.0839,282.23004,61,108,0
282.53165,282.7804,65,127,0
282.53165,282.7804,69,127,0
282.53165,282.7804,76,127,0
282.83017,282.9794,77,108,0
282.9794,283.12555,65,108,0
283.4272,283.52356,54,108,0
283.52667,283.62308,61,108,0
283.6262,283.72256,66,108,0
283.72568,283.82208,66,108,0
283.8252,283.92157,61,108,0
283.92468,284.0211,54,108,0
284.3227,284.4191,54,108,0
284.4222,284.5186,57,108,0
284.5217,284.6181,66,108,0
284.62122,284.7176,66,108,0
284.7207,284.8171,57,108,0
284.82022,284.9166,54,108,0
285.2182,285.3146,54,108,0
285.31772,285.41412,62,108,0
285.4172,285.5136,66,108,0
285.51672,285.61313,66,108,0
285.6162,285.71262,62,108,0
285.71573,285.81213,54,108,0
286.21323,286.30963,53,108,0
286.31274,286.40915,62,108,0
286.31274,286.40915,65,108,0
286.51175,286.60812,54,108,0
286.61124,286.70764,62,108,0
286.61124,286.70764,66,108,0
286.81024,286.90665,55,108,0
286.90976,287.00613,62,108,0
286.90976,287.00613,67,108,0
287.10876,287.20514,56,108,0
287.20825,287.30466,62,108,0
287.20825,287.30466,68,108,0
287.40726,287.50366,57,108,0
287.50677,287.60315,62,108,0
287.50677,287.60315,69,108,0
288.05405,288.20328,79,108,0
288.20328,288.5018,82,108,0
288.5018,288.94955,81,127,0
288.94955,289.09882,79,108,0
289.09882,289.3973,78,108,0
289.3973,289.84506,81,127,0
289.84506,289.99432,79,108,0
289.99432,290.29285,82,108,0
290.29285,290.7406,81,127,0
290.7406,290.88986,79,108,0
290.88986,291.18835,78,108,0
291.18835,291.6361,81,127,0
291.6361,291.78537,79,108,0
291.78537,292.08386,82,108,0
292.08386,292.53165,86,127,0
292.53165,292.68088,84,108,0
292.68088,293.12866,84,108,0
293.12866,293.2779,80,108,0
293.2779,293.72568,80,108,0
293.72568,293.8718,77,108,0
293.8749,295.16846,77,108,0
295.2182,295.36746,77,108,0
295.36746,295.66595,79,108,0
295.66595,296.1137,78,108,0
296.1137,296.26297,76,108,0
296.26297,296.5615,75,108,0
296.5615,297.00925,78,108,0
297.00925,297.1585,77,108,0
297.1585,297.457,79,108,0
297.457,297.90475,78,108,0
297.90475,298.05402,76,108,0
298.05402,298.3525,75,108,0
298.3525,298.8003,78,108,0
298.8003,298.94952,77,108,0
298.94952,299.24805,79,108,0
299.24805,299.6958,78,108,0
299.6958,299.84506,75,108,0
299.84506,300.14355,75,108,0
300.14355,300.29282,75,108,0
300.29282,300.44208,70,108,0
300.44208,300.88983,70,108,0
300.88983,301.03598,62,108,0
301.0391,301.6361,62,108,0
301.6361,301.88486,67,108,0
302.83014,302.9265,64,108,0
302.83014,302.9265,64,108,0
302.92963,303.02603,58,108,0
303.02914,303.12552,52,108,0
303.12863,303.22504,65,108,0
303.12863,303.22504,65,108,0
303.22815,303.32452,58,108,0
303.32764,303.42404,53,108,0
303.42715,303.52353,64,108,0
303.42715,303.52353,64,108,0
303.52664,303.62305,58,108,0
303.62616,303.72253,52,108,0
303.72565,303.82205,67,108,0
303.72565,303.82205,67,108,0
303.82516,303.92154,58,108,0
303.92465,304.02106,55,108,0
304.02417,304.12054,65,108,0
304.02417,304.12054,65,108,0
304.12366,304.22006,58,108,0
304.22318,304.31955,53,108,0
304.32266,304.41907,64,108,0
304.32266,304.41907,64,108,0
304.42218,304.51855,58,108,0
304.52167,304.61807,52,108,0
304.6212,304.71756,50,108,0
304.72067,304.81708,58,108,0
304.82016,304.91656,62,108,0
304.91968,305.01608,51,108,0
305.01917,305.11557,58,108,0
305.11868,305.2151,62,108,0
305.21817,305.31458,50,108,0
305.3177,305.4141,58,108,0
305.41718,305.51358,62,108,0
305.5167,305.6131,53,108,0
305.61618,305.7126,58,108,0
305.7157,305.8121,62,108,0
305.8152,305.9116,51,108,0
305.9147,306.0111,58,108,0
306.0142,306.1106,62,108,0
306.1137,306.2101,50,108,0
306.2132,306.3096,58,108,0
306.3127,306.4091,62,108,0
306.4122,306.5086,67,108,0
306.4122,306.5086,67,108,0
306.51172,306.6081,58,108,0
306.6112,306.7076,55,108,0
306.71072,306.8071,69,108,0
306.71072,306.8071,69,108,0
306.8102,306.90662,58,108,0
306.90973,307.0061,57,108,0
307.00922,307.10562,67,108,0
307.00922,307.10562,67,108,0
307.10873,307.2051,58,108,0
307.20822,307.30463,55,108,0
307.30774,307.4041,70,108,0
307.30774,307.4041,70,108,0
307.40723,307.50363,63,108,0
307.50674,307.60312,58,108,0
307.60623,307.70264,69,108,0
307.60623,307.70264,69,108,0
307.70575,307.80212,58,108,0
307.80524,307.90164,57,108,0
307.90475,308.00113,67,108,0
307.90475,308.00113,67,108,0
308.00424,308.10065,58,108,0
308.10376,308.20013,55,108,0
308.20325,308.29965,53,108,0
308.30276,308.39914,57,108,0
308.40225,308.49866,65,108,0
308.50177,308.59814,55,108,0
308.60126,308.69766,57,108,0
308.70078,308.79715,62,108,0
308.80026,308.89667,53,108,0
308.89978,308.99615,57,108,0
308.99927,309.09567,62,108,0
309.0988,309.19516,57,108,0
309.19827,309.29468,62,108,0
309.2978,309.39417,65,108,0
309.39728,309.49368,55,108,0
309.4968,309.59317,57,108,0
309.59628,309.6927,62,108,0
309.6958,309.79218,53,108,0
309.7953,309.8917,57,108,0
309.8948,309.99118,62,108,0
309.9943,310.0907,62,108,0
309.9943,310.0907,62,108,0
310.0938,310.1902,65,108,0
310.1933,310.2897,68,108,0
310.29282,310.3892,64,108,0
310.29282,310.3892,64,108,0
310.3923,310.4887,65,108,0
310.49182,310.5882,68,108,0
310.5913,310.6877,62,108,0
310.5913,310.6877,62,108,0
310.69083,310.7872,65,108,0
310.7903,310.88672,68,108,0
310.88983,310.9862,65,108,0
310.88983,310.9862,65,108,0
310.98932,311.08572,68,108,0
311.08884,311.1852,71,108,0
311.18832,311.28473,64,108,0
311.18832,311.28473,64,108,0
311.28784,311.38422,65,108,0
311.38733,311.48373,68,108,0
311.48682,311.58322,62,108,0
311.48682,311.58322,62,108,0
311.58633,311.68274,65,108,0
311.68582,311.78223,68,108,0
311.78534,311.88174,61,108,0
311.88483,311.98123,57,108,0
311.98434,312.08075,52,108,0
312.08383,312.18024,62,108,0
312.18335,312.27975,57,108,0
312.28284,312.37924,52,108,0
312.38235,312.47876,61,108,0
312.48184,312.57825,57,108,0
312.58136,312.67776,52,108,0
312.68085,312.77725,64,108,0
312.78036,312.87674,57,108,0
312.87985,312.97626,52,108,0
312.97937,313.07574,62,108,0
313.07886,313.17526,57,108,0
313.17838,313.27475,52,108,0
313.27786,313.37427,61,108,0
313.37738,313.47375,57,108,0
313.47687,313.57327,52,108,0
313.5764,314.09875,81,127,0
313.5764,314.09875,85,127,0
313.5764,314.09875,90,127,0
313.5764,314.09875,93,127,0
314.1734,314.42215,78,127,0
314.1734,314.42215,90,127,0
314.4719,314.9943,74,127,0
314.4719,314.9943,78,127,0
314.4719,314.9943,83,127,0
314.4719,314.9943,86,127,0
315.0689,315.31766,71,127,0
315.0689,315.31766,83,127,0
315.36743,315.61618,73,127,0
315.36743,315.61618,76,127,0
315.36743,315.61618,80,127,0
315.36743,315.61618,85,127,0
315.66592,315.91467,76,127,0
315.66592,315.91467,88,127,0
315.96445,316.2132,80,108,0
315.96445,316.2132,92,108,0
316.26294,316.78534,85,127,0
316.26294,316.78534,88,127,0
316.26294,316.78534,93,127,0
316.26294,316.78534,97,127,0
316.85995,317.1087,81,127,0
316.85995,317.1087,93,127,0
317.15848,317.68085,78,127,0
317.15848,317.68085,81,127,0
317.15848,317.68085,86,127,0
317.15848,317.68085,90,127,0
317.7555,318.00424,74,127,0
317.7555,318.00424,86,127,0
318.054,318.30273,73,127,0
318.054,318.30273,76,127,0
318.054,318.30273,80,127,0
318.054,318.30273,85,127,0
318.35248,318.60126,76,127,0
318.35248,318.60126,88,127,0
318.651,318.89975,80,127,0
318.651,318.89975,92,127,0
319.24802,319.49677,69,127,0
319.24802,319.49677,73,127,0
319.24802,319.49677,78,127,0
319.24802,319.49677,81,127,0
320.14352,320.3923,62,127,0
320.14352,320.3923,66,127,0
320.14352,320.3923,71,127,0
320.14352,320.3923,74,127,0
321.03906,321.2878,64,127,0
321.03906,321.2878,68,127,0
321.03906,321.2878,73,127,0
321.03906,321.2878,76,127,0
321.93457,322.18332,73,127,0
321.93457,322.18332,76,127,0
321.93457,322.18332,81,127,0
321.93457,322.18332,85,127,0
322.8301,323.07886,66,127,0
322.8301,323.07886,69,127,0
322.8301,323.07886,74,127,0
322.8301,323.07886,78,127,0
323.72562,323.97437,64,127,0
323.72562,323.97437,68,127,0
323.72562,323.97437,73,127,0
323.72562,323.97437,76,127,0
324.4719,324.61804,92,108,0
324.62112,324.76727,80,108,0
324.7704,324.91653,84,108,0
324.91965,325.0658,89,108,0
325.0689,325.21506,77,108,0
325.3674,325.51355,85,108,0
325.51666,325.6628,73,108,0
325.66592,325.81207,77,108,0
325.81516,325.9613,82,108,0
325.96442,326.11057,70,108,0
326.26294,326.40906,84,108,0
326.41217,326.55832,75,108,0
326.56143,326.70758,87,108,0
326.7107,326.85684,91,108,0
326.85995,327.00607,79,108,0
327.15845,327.3046,96,108,0
327.3077,327.45386,84,108,0
327.45697,327.6031,87,108,0
327.6062,327.75235,92,108,0
327.75546,327.9016,80,108,0
328.05396,328.2001,89,108,0
328.20322,328.34937,77,108,0
328.35248,328.49863,80,108,0
328.50174,328.6479,85,108,0
328.65097,328.79712,73,108,0
328.9495,329.09564,72,108,0
329.09875,329.2449,63,108,0
329.248,329.39413,75,108,0
329.39725,329.5434,79,108,0
329.5465,329.69266,67,108,0
329.845,329.99115,92,108,0
329.99426,330.1404,80,108,0
330.14352,330.28967,84,108,0
330.2928,330.4389,89,108,0
330.44202,330.58817,77,108,0
330.74054,330.8867,83,108,0
330.8898,331.03592,71,108,0
331.03903,331.18518,75,108,0
331.1883,331.33444,80,108,0
331.33755,331.4837,68,108,0
331.63605,331.7822,83,108,0
331.7853,331.93146,72,108,0
331.93457,332.08072,84,108,0
332.0838,332.22995,87,108,0
332.23306,332.3792,75,108,0
332.5316,332.6777,92,108,0
332.68082,332.82697,80,108,0
332.83008,332.97623,84,108,0
332.97934,333.1255,89,108,0
333.1286,333.27472,77,108,0
333.4271,333.57324,83,108,0
333.57635,333.7225,71,108,0
333.72562,333.87173,75,108,0
333.87485,334.021,80,108,0
334.0241,334.17026,68,108,0
334.32263,334.46875,83,108,0
334.47186,334.618,72,108,0
334.62112,334.76727,84,108,0
334.7704,334.91653,87,108,0
334.91962,335.06577,75,108,0
335.21814,335.3643,53,108,0
335.3674,335.51355,59,108,0
335.3674,335.51355,62,108,0
335.51663,335.66278,65,108,0
335.6659,335.81204,59,108,0
335.6659,335.81204,62,108,0
335.81516,335.9613,53,108,0
336.11365,336.2598,53,108,0
336.2629,336.40906,58,108,0
336.2629,336.40906,62,108,0
336.41217,336.55832,65,108,0
336.56143,336.70755,58,108,0
336.56143,336.70755,62,108,0
336.71066,336.8568,53,108,0
337.0092,337.15533,54,108,0
337.15845,337.30457,59,108,0
337.15845,337.30457,63,108,0
337.30768,337.45383,66,108,0
337.45694,337.6031,59,108,0
337.45694,337.6031,63,108,0
337.6062,337.75235,54,108,0
337.9047,338.05084,53,108,0
338.05396,338.2001,59,108,0
338.05396,338.2001,62,108,0
338.20322,338.34937,65,108,0
338.35245,338.4986,59,108,0
338.35245,338.4986,62,108,0
338.5017,338.64786,53,108,0
338.80023,338.94638,53,108,0
338.94946,339.0956,58,108,0
338.94946,339.0956,62,108,0
339.09872,339.24487,65,108,0
339.248,339.39413,58,108,0
339.248,339.39413,62,108,0
339.39725,339.54337,53,108,0
339.69574,339.8419,54,108,0
339.845,339.99115,59,108,0
339.845,339.99115,63,108,0
339.99426,340.14038,66,108,0
340.1435,340.28964,59,108,0
340.1435,340.28964,63,108,0
340.29276,340.4389,54,108,0
340.59128,340.7374,90,108,0
340.7405,340.88666,78,108,0
340.88977,341.03592,81,108,0
341.03903,341.18518,85,108,0
341.18826,341.3344,73,108,0
341.4868,341.63293,81,108,0
341.63605,341.7822,69,108,0
341.78528,341.93143,73,108,0
341.93454,342.0807,76,108,0
342.0838,342.22995,64,108,0
342.3823,342.52844,78,108,0
342.53156,342.6777,69,108,0
342.68082,342.82697,81,108,0
342.83008,342.9762,85,108,0
342.9793,343.12546,73,108,0
343.27783,343.42398,90,108,0
343.4271,343.5732,78,108,0
343.57632,343.72247,81,108,0
343.7256,343.87173,85,108,0
343.87485,344.021,73,108,0
344.17334,344.3195,81,108,0
344.3226,344.46875,69,108,0
344.47186,344.618,73,108,0
344.6211,344.76724,76,108,0
344.77036,344.9165,64,108,0
345.06888,345.21503,78,108,0
345.2181,345.36426,69,108,0
345.36737,345.51352,81,108,0
345.51663,345.66278,85,108,0
345.6659,345.812,73,108,0
345.9644,346.11053,93,108,0
346.11365,346.2598,81,108,0
346.2629,346.40903,85,108,0
346.41214,346.5583,90,108,0
346.5614,346.70755,78,108,0
346.85992,347.00604,85,108,0
347.00916,347.1553,73,108,0
347.15842,347.30457,78,108,0
347.30768,347.45383,81,108,0
347.45694,347.60306,69,108,0
347.75543,347.90158,78,108,0
347.9047,348.05084,66,108,0
348.05392,348.20007,69,108,0
348.2032,348.34933,73,108,0
348.35245,348.4986,61,108,0
348.65094,348.7971,69,108,0
348.8002,348.94635,57,108,0
348.94946,349.0956,69,108,0
349.09872,349.24484,73,108,0
349.24796,349.3941,61,108,0
349.54648,349.69263,69,108,0
349.69574,349.84186,57,108,0
349.84497,349.99112,69,108,0
349.99423,350.14038,73,108,0
350.1435,350.28964,61,108,0
350.442,350.58813,69,108,0
350.59125,350.7374,57,108,0
350.7405,350.88666,69,108,0
350.88977,351.0359,73,108,0
351.039,351.18515,61,108,0
351.48676,351.73553,57,108,0
351.78528,352.03403,61,108,0
352.3823,352.63104,57,108,0
352.6808,352.92957,61,108,0
353.2778,353.52658,57,108,0
353.57632,353.82507,61,108,0
354.17334,354.4221,57,108,0
354.47183,354.72058,61,108,0
355.06885,355.3176,56,108,0
355.36737,355.61612,59,108,0
355.9644,356.21313,55,108,0
356.26288,356.51163,58,108,0
356.8599,357.10864,57,108,0
357.15842,357.40717,54,108,0
357.7554,358.00418,57,108,0
358.05392,358.30267,54,108,0
358.65094,358.8997,55,108,0
358.94943,359.1982,52,108,0
359.54645,359.79523,51,108,0
359.84497,360.09372,54,108,0
360.442,360.69073,52,108,0
360.74048,360.98923,57,108,0
361.3375,361.58624,52,108,0
361.63602,361.88477,55,108,0
362.23303,362.48178,50,108,0
362.53152,362.78027,52,108,0
363.12854,363.3773,54,108,0
363.42706,363.6758,55,108,0
364.02408,364.27283,57,108,0
364.32257,364.57132,59,108,0
364.9196,365.16833,58,108,0
365.21808,365.46686,61,108,0
365.8151,366.06387,59,108,0
366.11362,366.36237,62,108,0
366.71063,366.95938,61,108,0
367.00912,367.2579,59,108,0
367.60614,367.8549,58,108,0
367.90466,368.1534,57,108,0
368.50168,368.75043,55,108,0
368.80017,369.04892,60,108,0
369.3972,369.64594,59,108,0
369.6957,369.94446,62,108,0
370.29272,370.54147,56,108,0
370.59122,370.83997,59,108,0
371.18823,371.43698,52,108,0
371.18823,371.43698,64,108,0
371.48672,371.7355,50,108,0
371.48672,371.7355,62,108,0
372.08374,372.33252,54,108,0
372.08374,372.33252,66,108,0
372.38226,372.631,52,108,0
372.38226,372.631,64,108,0
372.97928,373.12543,84,108,0
373.12854,373.27466,74,108,0
373.27777,373.42392,72,108,0
373.42703,373.57318,84,108,0
373.8748,374.02094,84,108,0
374.02405,374.1702,76,108,0
374.1733,374.31946,72,108,0
374.32254,374.4687,84,108,0
374.77032,374.91956,84,127,0
374.77032,374.91956,84,108,0
374.91956,375.06882,72,108,0
375.06882,375.21808,83,127,0
375.06882,375.21808,83,108,0
375.21808,375.36734,71,108,0
375.36734,375.51657,84,127,0
375.36734,375.51657,84,108,0
375.51657,375.66583,72,108,0
375.66583,375.8151,88,127,0
375.66583,375.8151,88,108,0
375.8151,375.96436,76,108,0
375.96436,376.11047,86,127,0
375.96436,376.11047,86,108,0
376.1136,376.25974,74,108,0
376.56137,376.7075,84,108,0
376.7106,376.85675,74,108,0
376.85986,377.006,72,108,0
377.00912,377.15527,84,108,0
377.45688,377.60303,84,108,0
377.60614,377.7523,76,108,0
377.75537,377.90152,72,108,0
377.90463,378.05078,84,108,0
378.3524,378.50165,84,108,0
378.3524,378.50165,84,108,0
378.50165,378.6509,72,108,0
378.6509,378.80017,83,108,0
378.6509,378.80017,83,108,0
378.80017,378.9494,71,108,0
378.9494,379.09866,84,108,0
378.9494,379.09866,84,108,0
379.09866,379.24792,72,108,0
379.24792,379.3972,88,108,0
379.24792,379.3972,88,108,0
379.3972,379.54642,76,108,0
379.54642,379.69257,86,108,0
379.54642,379.69257,86,108,0
379.69568,379.84183,74,108,0
380.14343,380.28958,84,108,0
380.2927,380.43884,75,108,0
380.44196,380.5881,72,108,0
380.59122,380.73734,84,108,0
381.03897,381.18512,86,108,0
381.1882,381.33435,82,108,0
381.33746,381.4836,74,108,0
381.48672,381.63287,86,108,0
381.93448,382.08374,84,127,0
381.93448,382.08374,84,108,0
382.08374,382.233,72,108,0
382.233,382.38223,82,127,0
382.233,382.38223,82,108,0
382.38223,382.5315,70,108,0
382.5315,382.68076,80,127,0
382.5315,382.68076,80,108,0
382.68076,382.83002,68,108,0
382.83002,382.97925,82,127,0
382.83002,382.97925,82,108,0
382.97925,383.1285,70,108,0
383.1285,383.27466,84,127,0
383.1285,383.27466,84,108,0
383.27777,383.42392,72,108,0
383.72552,383.97427,61,108,0
383.72552,383.97427,67,108,0
383.72552,383.97427,70,108,0
383.72552,383.97427,73,108,0
384.62103,384.8698,61,108,0
384.62103,384.8698,66,108,0
384.62103,384.8698,69,108,0
384.62103,384.8698,73,108,0
385.51657,385.76532,60,108,0
385.51657,385.76532,68,108,0
385.51657,385.76532,72,108,0
386.41208,386.66086,59,108,0
386.41208,386.66086,64,108,0
386.41208,386.66086,67,108,0
386.41208,386.66086,71,108,0
387.30762,387.55637,60,108,0
387.30762,387.55637,64,108,0
387.30762,387.55637,67,108,0
387.30762,387.55637,72,108,0
388.20312,388.45187,55,108,0
388.20312,388.45187,60,108,0
388.20312,388.45187,64,108,0
388.20312,388.45187,67,108,0
389.09866,389.3474,61,108,0
389.09866,389.3474,67,108,0
389.09866,389.3474,70,108,0
389.09866,389.3474,73,108,0
389.99417,390.24292,61,108,0
389.99417,390.24292,66,108,0
389.99417,390.24292,69,108,0
389.99417,390.24292,73,108,0
390.88968,391.13846,60,108,0
390.88968,391.13846,66,108,0
390.88968,391.13846,68,108,0
390.88968,391.13846,72,108,0
391.78522,392.03397,61,108,0
391.78522,392.03397,64,108,0
391.78522,392.03397,67,108,0
391.78522,392.03397,73,108,0
392.68073,392.9295,60,108,0
392.68073,392.9295,64,108,0
392.68073,392.9295,68,108,0
392.68073,392.9295,72,108,0
393.57626,393.825,61,108,0
393.57626,393.825,66,108,0
393.57626,393.825,70,108,0
393.57626,393.825,73,108,0
394.47177,394.61792,81,108,0
394.62103,394.76718,71,108,0
394.7703,394.91644,69,108,0
394.91953,395.06567,81,108,0
395.3673,395.51343,81,108,0
395.51654,395.6627,73,108,0
395.6658,395.81195,69,108,0
395.81506,395.9612,81,108,0
396.26282,396.40897,81,108,0
396.26282,396.40897,81,108,0
396.41208,396.55823,69,108,0
396.56134,396.70746,83,108,0
396.56134,396.70746,83,108,0
396.71057,396.85672,71,108,0
396.85983,397.00598,85,108,0
396.85983,397.00598,85,108,0
397.0091,397.15524,73,108,0
397.15833,397.30447,78,108,0
397.15833,397.30447,78,108,0
397.3076,397.45374,66,108,0
397.45685,397.603,80,108,0
397.45685,397.603,80,108,0
397.6061,397.75226,68,108,0
398.05386,398.2,81,108,0
398.20312,398.34927,72,108,0
398.35236,398.4985,69,108,0
398.50162,398.64777,81,108,0
398.94937,399.09552,79,108,0
399.09863,399.24478,71,108,0
399.2479,399.39404,67,108,0
399.39716,399.54327,79,108,0
399.8449,399.99106,80,108,0
399.8449,399.99106,80,108,0
399.99417,400.1403,68,108,0
400.1434,400.28955,81,108,0
400.1434,400.28955,81,108,0
400.29266,400.4388,69,108,0
400.44193,400.58807,83,108,0
400.44193,400.58807,83,108,0
400.59116,400.7373,71,108,0
400.74042,400.88657,86,108,0
400.74042,400.88657,86,108,0
400.88968,401.03583,74,108,0
401.03894,401.1851,84,108,0
401.03894,401.1851,84,108,0
401.18817,401.33432,72,108,0
401.33743,401.47934,83,108,0
401.33743,401.47934,83,108,0
401.48236,401.62427,71,108,0
401.6273,401.7694,80,108,0
401.6273,401.7694,80,108,0
401.77246,401.91504,68,108,0
401.9181,402.06067,81,108,0
401.9181,402.06067,81,108,0
402.06372,402.2068,69,108,0
402.5025,402.64648,86,108,0
402.64957,402.79355,78,108,0
402.79663,402.94086,74,108,0
402.9439,403.08862,86,108,0
403.38776,403.53317,82,108,0
403.38776,403.53317,82,108,0
403.5363,403.6817,70,108,0
403.68478,403.83093,83,108,0
403.68478,403.83093,83,108,0
403.83405,403.9802,71,108,0
403.9833,404.12967,85,108,0
403.9833,404.12967,85,108,0
404.13278,404.27966,73,108,0
404.2828,404.42966,88,108,0
404.2828,404.42966,88,108,0
404.4328,404.58017,76,108,0
404.5833,404.7309,86,108,0
404.5833,404.7309,86,108,0
404.73404,404.88165,74,108,0
404.8848,405.03317,85,108,0
404.8848,405.03317,85,108,0
405.03632,405.1847,73,108,0
405.18784,405.33643,82,108,0
405.18784,405.33643,82,108,0
405.3396,405.4887,70,108,0
405.49188,405.641,83,108,0
405.49188,405.641,83,108,0
405.64417,405.7938,71,108,0
405.9419,406.0838,61,108,0
406.08682,406.23746,52,108,0
406.08682,406.23746,57,108,0
406.2407,406.39133,49,108,0
406.39453,406.5454,61,108,0
406.54865,406.70004,49,108,0
406.8579,407.00986,63,108,0
407.0131,407.16528,54,108,0
407.0131,407.16528,59,108,0
407.16852,407.32074,51,108,0
407.32397,407.47696,63,108,0
407.48022,407.6332,51,108,0
407.793,407.94678,64,108,0
407.95004,408.10385,57,108,0
407.95004,408.10385,61,108,0
408.10712,408.26144,52,108,0
408.26474,408.41934,66,127,0
408.42264,408.57724,54,108,0
408.73926,408.89468,55,108,0
408.89798,409.0534,60,108,0
409.05673,409.21216,64,108,0
409.21545,409.37088,67,108,0
409.37418,409.5296,72,108,0
409.5329,409.68832,76,108,0
409.69165,409.84708,79,108,0
409.85037,410.0058,84,108,0
410.0091,410.16452,88,108,0
410.16782,410.32324,84,108,0
410.32657,410.482,79,108,0
410.4853,410.64072,67,108,0
410.4853,410.64072,76,108,0
410.644,410.79944,72,108,0
410.80276,410.95816,67,108,0
410.9615,411.1169,64,108,0
411.1202,411.27563,60,108,0
411.27893,411.43436,55,108,0
411.5964,411.75183,61,108,0
411.75513,411.91055,52,108,0
411.75513,411.91055,57,108,0
411.91385,412.06927,49,108,0
412.0726,412.22803,61,108,0
412.23132,412.38675,49,108,0
412.54877,412.7042,63,108,0
412.70752,412.86295,54,108,0
412.70752,412.86295,59,108,0
412.86624,413.02167,51,108,0
413.02496,413.1804,63,108,0
413.18372,413.3391,51,108,0
413.50116,413.6566,64,108,0
413.65988,413.8153,57,108,0
413.65988,413.8153,61,108,0
413.81863,413.97403,52,108,0
413.97736,414.13278,66,127,0
414.13608,414.2915,54,108,0
414.45355,414.60898,55,108,0
414.61227,414.7677,60,108,0
414.771,414.92642,64,108,0
414.92972,415.08514,67,108,0
415.08847,415.2439,72,108,0
415.2472,415.40262,76,108,0
415.4059,415.56134,79,108,0
415.56464,415.72006,84,108,0
415.7234,415.8788,88,108,0
415.8821,416.03754,84,108,0
416.04083,416.19626,79,108,0
416.1996,416.35498,67,108,0
416.1996,416.35498,76,108,0
416.3583,416.51373,72,108,0
416.51703,416.67245,67,108,0
416.67575,416.83118,64,108,0
416.8345,416.98993,60,108,0
416.99323,417.14865,55,108,0
417.31067,417.4661,54,108,0
417.46942,417.62485,58,108,0
417.46942,417.62485,64,108,0
417.62814,417.78357,66,108,0
417.78687,417.9423,58,108,0
417.78687,417.9423,64,108,0
417.9456,418.101,54,108,0
418.26306,418.4185,55,108,0
418.42178,418.5772,57,108,0
418.42178,418.5772,63,108,0
418.58054,418.73593,67,108,0
418.73926,418.89468,57,108,0
418.73926,418.89468,63,108,0
418.89798,419.0534,55,108,0
419.21545,419.37085,55,108,0
419.37418,419.5296,57,108,0
419.37418,419.5296,63,108,0
419.5329,419.68832,67,108,0
419.69162,419.84705,57,108,0
419.69162,419.84705,63,108,0
419.85037,420.0058,55,108,0
420.16782,420.32324,50,108,0
420.32654,420.48196,59,108,0
420.4853,420.64072,62,108,0
420.644,420.79944,62,108,0
420.80273,420.95816,71,108,0
420.96146,421.11688,74,108,0
421.1202,421.27563,74,108,0
421.27893,421.43436,83,108,0
421.43765,421.59308,86,108,0
421.5964,421.7518,83,108,0
421.75513,421.91055,74,108,0
421.91385,422.06927,74,108,0
422.07257,422.228,71,108,0
422.23132,422.38675,62,108,0
422.39005,422.54547,62,108,0
422.54877,422.7042,59,108,0
422.7075,422.8629,50,108,0
423.02496,423.1804,54,108,0
423.1837,423.3391,58,108,0
423.1837,423.3391,64,108,0
423.3424,423.49783,66,108,0
423.50116,423.6566,58,108,0
423.50116,423.6566,64,108,0
423.65988,423.8153,54,108,0
423.97736,424.13275,55,108,0
424.13608,424.2915,57,108,0
424.13608,424.2915,63,108,0
424.2948,424.45023,67,108,0
424.45352,424.60895,57,108,0
424.45352,424.60895,63,108,0
424.61227,424.76767,55,108,0
424.92972,425.08514,55,108,0
425.08844,425.24387,57,108,0
425.08844,425.24387,63,108,0
425.2472,425.40262,67,108,0
425.4059,425.56134,57,108,0
425.4059,425.56134,63,108,0
425.56464,425.72006,55,108,0
425.8821,426.03754,50,108,0
426.04083,426.19626,59,108,0
426.19955,426.35498,62,108,0
426.35828,426.5137,62,108,0
426.51703,426.67245,71,108,0
426.67575,426.83118,74,108,0
426.83447,426.9899,74,108,0
426.99323,427.14862,83,108,0
427.15195,427.30737,86,108,0
427.31067,427.4661,83,108,0
427.4694,427.62482,74,108,0
427.62814,427.78357,74,108,0
427.78687,427.9423,71,108,0
427.9456,428.101,62,108,0
428.1043,428.25974,62,108,0
428.26306,428.4185,59,108,0
428.42178,428.5772,50,108,0
428.73923,428.89465,58,108,0
428.89798,429.0534,64,108,0
429.0567,429.21213,70,108,0
429.21542,429.37085,64,108,0
429.37418,429.52957,58,108,0
429.69162,429.84705,59,108,0
429.85034,430.00577,66,108,0
430.0091,430.1645,71,108,0
430.16782,430.32324,71,108,0
430.32654,430.48196,78,108,0
430.48526,430.6407,83,108,0
430.644,430.79944,78,108,0
430.80273,430.95816,71,108,0
430.96146,431.11688,71,108,0
431.12018,431.2756,66,108,0
431.27893,431.43436,59,108,0
431.59637,431.7518,61,108,0
431.7551,431.91052,67,108,0
431.91385,432.06927,73,108,0
432.07257,432.228,69,108,0
432.2313,432.38672,61,108,0
432.54877,432.7042,57,108,0
432.7075,432.8629,62,108,0
432.8662,433.02164,69,108,0
433.02496,433.1804,69,108,0
433.1837,433.3391,74,108,0
433.3424,433.49783,81,108,0
433.50113,433.65656,74,108,0
433.65988,433.8153,69,108,0
433.8186,433.97403,69,108,0
433.97733,434.13275,64,108,0
434.13605,434.29147,57,108,0
434.45352,434.60895,62,108,0
434.61224,434.76767,71,108,0
434.771,434.9264,74,108,0
434.92972,435.08514,74,108,0
435.08844,435.24387,83,108,0
435.24716,435.4026,86,108,0
435.4059,435.5613,81,108,0
435.56464,435.72006,74,108,0
435.72336,435.87878,74,108,0
435.88208,436.0375,69,108,0
436.04083,436.19626,62,108,0
436.35828,436.5137,59,108,0
436.517,436.67242,64,108,0
436.67575,436.83118,67,108,0
436.83447,436.9899,62,108,0
436.83447,436.9899,66,108,0
436.9932,437.14862,57,108,0
437.31067,437.4661,61,108,0
437.4694,437.62482,67,108,0
437.6281,437.78354,73,108,0
437.78687,437.94226,69,108,0
437.9456,438.101,61,108,0
438.26303,438.41846,57,108,0
438.42178,438.5772,62,108,0
438.5805,438.73593,69,108,0
438.73923,438.89465,69,108,0
438.89795,439.05338,74,108,0
439.0567,439.21213,81,108,0
439.21542,439.37085,74,108,0
439.37415,439.52957,69,108,0
439.53287,439.6883,69,108,0
439.69162,439.84705,64,108,0
439.85034,440.00577,57,108,0
440.16782,440.3232,62,108,0
440.32654,440.48196,71,108,0
440.48526,440.6407,74,108,0
440.64398,440.7994,74,108,0
440.80273,440.95813,83,108,0
440.96146,441.11688,86,108,0
441.12018,441.2756,81,108,0
441.2789,441.43433,74,108,0
441.43765,441.59308,74,108,0
441.59637,441.7518,69,108,0
441.7551,441.91052,62,108,0
442.07257,442.228,69,108,0
442.2313,442.38672,74,108,0
442.39,442.54544,81,108,0
442.54874,442.70416,81,108,0
442.7075,442.8629,86,108,0
442.8662,443.02164,91,108,0
443.02493,443.18036,90,108,0
443.1837,443.33908,88,108,0
443.3424,443.49783,86,108,0
443.50113,443.65656,84,108,0
443.65985,443.81528,83,108,0
443.8186,443.97403,81,108,0
443.97733,444.13275,83,108,0
444.13605,444.29147,81,108,0
444.29477,444.4502,79,108,0
444.45352,444.60895,78,108,0
444.61224,444.76767,76,108,0
444.77097,444.9264,74,108,0
444.9297,445.0851,76,108,0
445.08844,445.24387,74,108,0
445.24716,445.4026,72,108,0
445.40588,445.5613,71,108,0
445.56464,445.72003,69,108,0
445.72336,445.87878,68,108,0
445.88208,446.0375,69,108,0
446.0408,446.19623,66,108,0
446.19955,446.35495,68,108,0
446.35828,446.5137,69,108,0
446.517,446.67242,71,108,0
446.67572,446.83115,72,108,0
446.83447,446.9899,74,108,0
446.9932,447.14862,76,108,0
447.15192,447.30734,78,108,0
447.31064,447.46606,80,108,0
447.4694,447.62482,81,108,0
447.6281,447.78354,82,108,0
447.78683,447.94226,74,108,0
447.94556,448.10098,77,108,0
448.1043,448.25974,82,108,0
448.26303,448.41846,86,108,0
448.42175,448.57718,89,108,0
448.5805,448.7359,93,108,0
448.73923,448.89465,92,108,0
448.89795,449.05338,90,108,0
449.05667,449.2121,88,108,0
449.21542,449.37085,86,108,0
449.37415,449.52957,85,108,0
449.53287,449.6883,83,108,0
449.6916,449.84702,85,108,0
449.85034,450.00577,83,108,0
450.00906,450.1645,81,108,0
450.1678,450.3232,80,108,0
450.3265,450.48193,78,108,0
450.48526,450.6407,76,108,0
450.64398,450.7994,78,108,0
450.8027,450.95813,76,108,0
450.96146,451.11685,74,108,0
451.12018,451.2756,73,108,0
451.2789,451.43433,71,108,0
451.43762,451.59305,70,108,0
451.59637,451.75177,71,108,0
451.7551,451.91052,68,108,0
451.91382,452.06924,70,108,0
452.07254,452.22797,71,108,0
452.2313,452.38672,73,108,0
452.39,452.54544,74,108,0
452.54874,452.70416,76,108,0
452.70746,452.86288,78,108,0
452.8662,453.02164,80,108,0
453.02493,453.18036,82,108,0
453.18365,453.33908,83,108,0
453.34238,453.4978,84,108,0
453.50113,453.65656,76,108,0
453.65985,453.81528,79,108,0
453.81857,453.974,84,108,0
453.97733,454.13272,88,108,0
454.13605,454.29147,91,108,0
454.29477,454.4502,95,108,0
454.4535,454.60892,94,108,0
454.61224,454.76767,92,108,0
454.77097,454.9264,90,108,0
454.9297,455.0851,88,108,0
455.0884,455.24384,87,108,0
455.24716,455.4026,85,108,0
455.40588,455.5613,87,108,0
455.5646,455.72003,85,108,0
455.72333,455.87875,83,108,0
455.88208,456.0375,82,108,0
456.0408,456.19623,80,108,0
456.19952,456.35495,78,108,0
456.35828,456.51367,80,108,0
456.517,456.67242,78,108,0
456.67572,456.83115,76,108,0
456.83444,456.98987,75,108,0
456.9932,457.1486,73,108,0
457.15192,457.30734,72,108,0
457.31064,457.46606,70,108,0
457.46936,457.6248,68,108,0
457.6281,457.78354,72,108,0
457.78683,457.94226,76,108,0
457.94556,458.10098,80,108,0
458.10428,458.2597,84,108,0
458.26303,458.41846,87,108,0
458.42175,458.57718,91,108,0
458.58047,458.7359,87,108,0
458.7392,458.89462,84,108,0
458.7392,458.89462,92,108,0
458.89795,459.05338,87,108,0
459.05667,459.2121,93,108,0
459.2154,459.37082,89,108,0
459.37415,459.52954,85,108,0
459.53287,459.6883,81,108,0
459.6916,459.84702,77,108,0
459.8503,460.00574,73,108,0
460.00906,460.1645,69,108,0
460.1678,460.3232,67,108,0
460.3265,460.48193,65,108,0
460.48523,460.64066,69,108,0
460.64398,460.7994,73,108,0
460.8027,460.95813,77,108,0
460.96143,461.11685,81,108,0
461.12015,461.27557,84,108,0
461.2789,461.43433,88,108,0
461.43762,461.59305,84,108,0
461.59634,461.75177,81,108,0
461.59634,461.75177,89,108,0
461.7551,461.9105,84,108,0
461.91382,462.06924,90,108,0
462.07254,462.22797,86,108,0
462.23126,462.3867,82,108,0
462.39,462.5454,78,108,0
462.54874,462.70416,74,108,0
462.70746,462.86288,70,108,0
462.86618,463.0216,66,108,0
463.02493,463.18036,64,108,0
463.18365,463.33908,62,108,0
463.34238,463.4978,66,108,0
463.5011,463.65652,71,108,0
463.65985,463.81528,74,108,0
463.81857,463.9618,78,108,0
463.96487,464.11145,86,108,0
464.11462,464.26474,78,108,0
464.26797,464.42188,74,108,0
464.42517,464.583,74,108,0
464.5864,464.74835,66,108,0
464.92172,465.09262,74,108,0
465.09628,465.27206,67,108,0
465.27585,465.45676,64,108,0
465.46066,465.647,64,108,0
465.65103,465.84314,55,108,0
466.04727,466.24313,59,108,0
466.24728,466.4431,61,108,0
466.4473,466.64313,67,108,0
466.4473,466.64313,71,108,0
466.64728,466.8431,71,108,0
466.8473,467.04312,73,108,0
467.04727,467.24313,79,108,0
467.04727,467.24313,83,108,0
467.24728,467.4431,71,108,0
467.4473,467.64313,73,108,0
467.64728,467.8431,79,108,0
467.64728,467.8431,83,108,0
467.8473,468.04312,83,108,0
468.04727,468.24313,85,108,0
468.24728,468.58063,91,108,0
468.24728,468.58063,95,108,0
469.4473,469.8431,59,108,0
469.51395,469.8431,62,108,0
469.58063,469.8431,67,108,0
469.64728,469.8431,71,108,0
473.3992,473.63843,60,108,0
473.3992,473.63843,66,108,0
473.3992,473.63843,69,108,0
473.3992,473.63843,74,108,0
474.54752,474.64023,74,108,0
474.64322,474.73593,76,108,0
474.73892,474.8316,78,108,0
475.12167,475.2144,83,108,0
475.21738,475.3101,84,108,0
475.31308,475.40576,86,108,0
475.40875,475.648,81,127,0
475.40875,475.648,87,127,0
476.26495,476.35678,68,108,0
476.35974,476.45157,69,108,0
476.45453,476.54636,71,108,0
476.83368,476.9255,76,108,0
476.92847,477.0203,78,108,0
477.02325,477.11508,80,108,0
477.11804,477.355,74,127,0
477.11804,477.355,78,127,0
477.9711,478.06293,74,108,0
478.0659,478.1577,76,108,0
478.16068,478.25177,78,108,0
478.5364,478.62735,83,108,0
478.63028,478.72125,84,108,0
478.72418,478.81516,86,108,0
478.81808,479.05283,81,127,0
478.81808,479.05283,87,127,0
479.66315,479.75412,68,108,0
479.75705,479.84802,69,108,0
479.85095,479.94193,71,108,0
480.22653,480.3175,76,108,0
480.32043,480.4114,78,108,0
480.41434,480.50528,80,108,0
480.50824,480.74152,74,127,0
480.50824,480.74152,78,127,0
481.34616,481.43628,74,108,0
481.43918,481.5293,76,108,0
481.53223,481.62234,77,108,0
481.9043,481.99442,86,108,0
481.99734,482.08743,87,108,0
482.09036,482.18048,89,108,0
482.18338,482.41592,87,127,0
482.18338,482.41592,91,127,0
483.0202,483.1095,69,108,0
483.11237,483.20166,71,108,0
483.20453,483.29382,72,108,0
483.5732,483.66248,81,108,0
483.66537,483.75464,82,108,0
483.75754,483.84683,84,108,0
483.8497,484.0801,82,127,0
483.8497,484.0801,86,127,0
484.6792,484.76846,74,108,0
484.77136,484.86063,76,108,0
484.86353,484.95282,77,108,0
485.23218,485.32147,86,108,0
485.32434,485.41306,87,108,0
485.41592,485.5044,89,108,0
485.50723,485.73553,87,127,0
485.50723,485.73553,91,127,0
486.32916,486.41763,76,108,0
486.42047,486.50894,78,108,0
486.5118,486.60028,79,108,0
486.8771,486.96558,88,108,0
486.9684,487.0569,89,108,0
487.05975,487.14822,91,108,0
487.15106,487.37936,89,127,0
487.15106,487.37936,93,127,0
487.96927,488.05655,57,108,0
488.05936,488.14664,63,108,0
488.14948,488.23672,69,108,0
488.50983,488.5971,91,108,0
488.5999,488.6872,86,108,0
488.69,488.77728,79,108,0
489.05035,489.13763,67,108,0
489.14044,489.22772,62,108,0
489.23053,489.3178,55,108,0
489.5909,489.67816,57,108,0
489.681,489.76825,63,108,0
489.7711,489.85837,69,108,0
490.13144,490.21872,91,108,0
490.22153,490.3088,86,108,0
490.3116,490.3989,79,108,0
490.67197,490.75925,67,108,0
490.7621,490.84933,62,108,0
490.85217,490.93942,55,108,0
491.21252,491.2998,76,127,0
491.3026,491.3899,82,108,0
491.3927,491.47998,88,108,0
491.4828,491.57007,87,108,0
491.57288,491.66016,84,108,0
491.66296,491.75024,75,108,0
492.02563,492.11487,77,127,0
492.11777,492.20767,83,108,0
492.2106,492.30115,89,108,0
492.30408,492.3953,88,108,0
492.39822,492.49014,85,108,0
492.49313,492.58566,76,108,0
492.87976,492.97516,78,127,0
492.97824,493.0744,84,108,0
493.0775,493.1744,90,108,0
493.17755,493.2752,89,108,0
493.27835,493.3768,86,108,0
493.38,493.4792,77,108,0
493.79468,493.89716,79,127,0
493.90048,494.0038,85,108,0
494.00717,494.11136,91,108,0
494.11472,494.2198,90,108,0
494.22318,494.32916,87,108,0
494.3326,494.43945,78,108,0
494.7414,494.8378,67,108,0
494.8409,494.9373,74,108,0
494.9404,495.0368,79,108,0
495.03992,495.1363,79,108,0
495.1394,495.2358,74,108,0
495.23892,495.3353,67,108,0
495.63693,495.7333,60,108,0
495.73642,495.83282,67,108,0
495.83594,495.9323,72,108,0
495.93542,496.03183,69,108,0
496.03494,496.13132,64,108,0
496.13443,496.23083,60,108,0
496.53244,496.62885,62,108,0
496.63196,496.72833,71,108,0
496.73145,496.82785,74,108,0
496.83096,496.92734,74,108,0
496.93045,497.02686,71,108,0
497.02997,497.12634,62,108,0
497.42798,497.52435,67,108,0
497.52747,497.62387,74,108,0
497.62698,497.72336,79,108,0
497.72647,497.82288,79,108,0
497.826,497.92236,74,108,0
497.92548,498.02188,67,108,0
498.3235,498.4199,60,108,0
498.423,498.51938,67,108,0
498.5225,498.6189,72,108,0
498.622,498.71838,69,108,0
498.7215,498.8179,64,108,0
498.821,498.9174,60,108,0
499.219,499.3154,62,108,0
499.3185,499.41492,71,108,0
499.418,499.5144,74,108,0
499.51752,499.61392,74,108,0
499.617,499.7134,71,108,0
499.71652,499.81293,62,108,0
500.11453,500.21094,59,108,0
500.21402,500.31042,67,108,0
500.31354,500.40994,71,108,0
500.41302,500.50943,71,108,0
500.51254,500.60892,67,108,0
500.61203,500.70844,59,108,0
501.01004,501.10645,59,108,0
501.10956,501.20593,66,108,0
501.20905,501.30545,71,108,0
501.30856,501.40494,71,108,0
501.40805,501.50446,66,108,0
501.50757,501.60394,59,108,0
501.90558,502.00195,59,108,0
502.00507,502.10147,67,108,0
502.10458,502.20096,71,108,0
502.20407,502.30048,71,108,0
502.3036,502.39996,67,108,0
502.40308,502.49948,59,108,0
502.8011,502.8975,59,108,0
502.9006,502.99698,66,108,0
503.0001,503.0965,71,108,0
503.0996,503.19598,71,108,0
503.1991,503.2955,66,108,0
503.2986,503.395,59,108,0
503.69662,503.793,59,108,0
503.7961,503.89252,62,108,0
503.89563,503.992,71,108,0
503.99512,504.09152,71,108,0
504.09464,504.191,62,108,0
504.19412,504.29053,59,108,0
504.59213,504.68854,67,108,0
504.69165,504.78802,74,108,0
504.79114,504.88754,79,108,0
504.89066,504.98703,79,108,0
504.99014,505.08655,74,108,0
505.08966,505.18604,67,108,0
505.48767,505.58405,62,108,0
505.58716,505.68356,67,108,0
505.68665,505.78305,74,108,0
505.78616,505.88257,74,108,0
505.88565,505.98206,67,108,0
505.98517,506.08157,62,108,0
506.38318,506.47958,59,108,0
506.48267,506.57907,62,108,0
506.58218,506.6786,71,108,0
506.68167,506.77808,71,108,0
506.7812,506.8776,62,108,0
506.88068,506.97708,59,108,0
507.8757,508.12448,67,108,0
507.8757,508.12448,71,108,0
507.8757,508.12448,74,108,0
507.8757,508.12448,79,108,0
508.77124,509.16925,79,108,0
508.77124,509.16925,83,108,0
508.77124,509.16925,86,108,0
508.77124,509.16925,91,108,0
0.0,0.79710126,31,108,0
0.0,0.79710126,43,108,0
0.869565,1.6666663,31,108,0
0.869565,1.6666663,43,108,0
1.73913,2.5362313,31,108,0
1.73913,2.5362313,43,108,0
2.608695,3.4057963,36,108,0
3.47826,4.275361,31,108,0
3.47826,4.275361,43,108,0
4.347825,5.144926,36,108,0
5.21739,6.014491,29,108,0
5.21739,6.014491,41,108,0
6.086955,6.594201,38,108,0
6.666665,6.9082108,39,108,0
6.95652,7.463766,41,108,0
7.53623,7.777776,42,108,0
7.826085,8.333331,43,108,0
8.405795,8.647341,45,108,0
8.69565,9.202896,38,127,0
9.27536,9.516906,34,108,0
9.565215,10.072461,39,127,0
10.144925,10.386471,46,108,0
10.43478,10.942026,38,127,0
11.01449,11.256036,34,108,0
11.304345,11.811591,40,127,0
11.884055,12.125601,41,108,0
12.17391,12.681156,43,127,0
12.75362,12.995166,45,108,0
13.043475,13.33333,38,108,0
13.043475,13.33333,50,108,0
13.33333,13.623185,37,108,0
13.33333,13.623185,49,108,0
13.623185,13.91304,35,108,0
13.623185,13.91304,47,108,0
13.91304,14.202895,33,108,0
13.91304,14.202895,45,108,0
14.202895,14.49275,31,108,0
14.202895,14.49275,43,108,0
14.49275,14.782605,30,108,0
14.49275,14.782605,42,108,0
14.782605,15.07246,28,108,0
14.782605,15.07246,40,108,0
15.07246,15.365142,26,108,0
15.07246,15.365142,38,108,0
15.365142,15.660708,27,108,0
15.365142,15.660708,39,108,0
15.660708,15.959215,28,127,0
15.660708,15.959215,40,127,0
15.959215,16.260721,29,127,0
15.959215,16.260721,41,127,0
16.260721,16.56529,30,127,0
16.260721,16.56529,42,127,0
16.56529,17.411444,31,127,0
16.56529,17.411444,43,127,0
17.488365,18.334518,36,127,0
18.411442,19.257595,31,127,0
18.411442,19.257595,43,127,0
19.334518,20.180672,36,127,0
20.257593,21.103746,31,127,0
20.257593,21.103746,43,127,0
21.18067,21.719131,38,127,0
21.796055,22.052464,39,127,0
22.103746,22.642206,41,127,0
22.71913,22.97554,42,127,0
23.026821,23.565283,43,127,0
23.642206,23.898617,45,127,0
23.949898,24.48836,38,127,0
24.565283,24.821692,34,108,0
24.872974,25.411434,39,127,0
25.488358,25.744768,46,108,0
25.79605,26.33451,38,127,0
26.411434,26.667845,34,108,0
26.719126,27.257587,40,127,0
27.33451,27.59092,41,108,0
27.642202,28.180662,43,127,0
28.257586,28.513996,45,108,0
28.565277,29.103739,47,127,0
29.180662,29.437073,49,108,0
29.488354,29.796045,30,127,0
29.488354,29.796045,42,127,0
29.796045,30.103739,33,127,0
29.796045,30.103739,45,127,0
30.103739,30.41143,37,127,0
30.103739,30.41143,49,127,0
30.41143,30.719122,38,127,0
30.41143,30.719122,50,127,0
30.719122,31.026814,37,127,0
30.719122,31.026814,49,127,0
31.026814,31.334505,35,127,0
31.026814,31.334505,47,127,0
31.334505,31.642199,33,127,0
31.334505,31.642199,45,127,0
31.642199,31.94989,31,127,0
31.642199,31.94989,43,127,0
31.94989,32.257584,30,127,0
31.94989,32.257584,42,127,0
32.257584,32.565273,28,127,0
32.257584,32.565273,40,127,0
32.565273,32.872967,26,127,0
32.565273,32.872967,38,127,0
32.872967,33.180656,27,127,0
32.872967,33.180656,39,127,0
33.180656,33.48835,28,127,0
33.180656,33.48835,40,127,0
33.48835,33.796043,29,127,0
33.48835,33.796043,41,127,0
33.796043,34.052452,30,127,0
33.796043,34.052452,42,127,0
34.103733,34.203094,43,127,0
34.2063,34.305656,50,108,0
34.30886,34.408222,55,108,0
34.411427,34.510784,50,108,0
34.51399,34.61335,58,108,0
34.616554,34.71591,62,108,0
34.719116,34.818478,50,108,0
34.821682,34.92104,58,108,0
34.924248,35.023605,62,108,0
35.02681,35.126167,52,108,0
35.129375,35.228733,58,108,0
35.231937,35.331295,62,108,0
35.334503,35.43386,52,108,0
35.437065,35.536427,58,108,0
35.53963,35.63899,62,108,0
35.642193,35.741554,51,108,0
35.74476,35.844116,58,108,0
35.84732,35.946682,61,108,0
35.949886,36.049244,43,127,0
36.05245,36.15181,50,108,0
36.155014,36.25437,55,108,0
36.25758,36.356937,50,108,0
36.36014,36.4595,58,108,0
36.462708,36.562065,62,108,0
36.56527,36.664627,50,108,0
36.667835,36.767193,58,108,0
36.770397,36.86976,62,108,0
36.872963,36.97232,52,108,0
36.975525,37.074886,58,108,0
37.07809,37.17745,62,108,0
37.180653,37.280014,52,108,0
37.28322,37.382576,58,108,0
37.38578,37.48514,62,108,0
37.488346,37.587704,51,108,0
37.59091,37.69027,58,108,0
37.693474,37.79283,61,108,0
37.79604,37.895397,43,127,0
37.8986,37.99796,50,108,0
38.001167,38.100525,55,108,0
38.10373,38.20309,50,108,0
38.206295,38.305653,58,108,0
38.308857,38.40822,62,108,0
38.411423,38.51078,50,108,0
38.513985,38.613346,58,108,0
38.61655,38.715908,62,108,0
38.719112,38.818474,62,127,0
38.82168,38.921036,58,108,0
38.92424,39.0236,56,108,0
39.026806,39.126163,62,108,0
39.12937,39.22873,58,108,0
39.231934,39.33129,56,108,0
39.3345,39.433857,62,108,0
39.43706,39.536423,58,108,0
39.539627,39.638985,56,108,0
39.64219,39.74155,62,127,0
39.744755,39.844112,58,108,0
39.847317,39.94668,56,108,0
39.949883,40.04924,63,108,0
40.052444,40.151806,60,108,0
40.15501,40.254368,56,108,0
40.257572,40.356934,64,108,0
40.360138,40.459496,61,108,0
40.462704,40.56206,56,108,0
40.565266,40.664623,65,108,0
40.66783,40.76719,62,108,0
40.770393,40.86975,55,108,0
40.87296,40.972317,65,108,0
40.97552,41.074883,62,108,0
41.078087,41.177444,55,108,0
41.18065,41.28001,65,108,0
41.283215,41.382572,62,108,0
41.385777,41.485138,55,108,0
41.488342,41.5877,65,108,0
41.590904,41.690266,62,108,0
41.69347,41.792828,55,108,0
41.796036,41.895393,65,108,0
41.898598,41.997955,62,108,0
42.001163,42.10052,55,108,0
42.103725,42.203083,53,108,0
42.20629,42.30565,59,108,0
42.308853,42.408215,62,108,0
42.41142,42.510777,54,108,0
42.51398,42.613342,59,108,0
42.616547,42.715904,63,108,0
42.71911,42.81847,54,108,0
42.821674,42.921032,59,108,0
42.924236,43.023598,63,108,0
43.026802,43.12616,57,108,0
43.129368,43.228725,59,108,0
43.23193,43.331287,63,108,0
43.334496,43.433853,47,127,0
43.437057,43.536415,55,108,0
43.539623,43.63898,59,108,0
43.642185,43.741547,55,108,0
43.74475,43.84411,59,108,0
43.847313,43.946674,62,108,0
43.94988,44.049236,53,108,0
44.05244,44.151802,59,108,0
44.155006,44.254364,62,108,0
44.25757,44.35693,54,108,0
44.360134,44.45949,59,108,0
44.4627,44.562057,63,108,0
44.56526,44.66462,54,108,0
44.667828,44.767185,59,108,0
44.77039,44.869747,63,108,0
44.872955,44.972313,57,108,0
44.975517,45.07488,59,108,0
45.078083,45.17744,63,108,0
45.180645,45.280006,47,127,0
45.28321,45.38257,55,108,0
45.385773,45.485134,59,108,0
45.48834,45.587696,55,108,0
45.5909,45.69026,59,108,0
45.693466,45.792824,62,108,0
45.79603,45.89539,53,108,0
45.898594,45.99795,59,108,0
46.00116,46.100517,62,108,0
46.10372,46.20308,63,108,0
46.206287,46.305645,59,108,0
46.30885,46.40821,54,108,0
46.411415,46.510773,63,108,0
46.513977,46.61334,59,108,0
46.616543,46.7159,54,108,0
46.719105,46.818466,63,108,0
46.82167,46.92103,59,108,0
46.924232,47.023594,51,108,0
47.0268,47.126156,58,108,0
47.12936,47.22872,54,108,0
47.231926,47.331284,46,108,0
47.33449,47.43385,58,108,0
47.437054,47.53641,54,108,0
47.53962,47.638977,46,108,0
47.64218,47.74154,58,108,0
47.744747,47.844105,54,108,0
47.84731,47.94667,46,108,0
48.052437,48.1518,58,108,0
48.155003,48.25436,50,108,0
48.257565,48.356926,62,108,0
48.36013,48.459488,58,108,0
48.462692,48.562054,50,108,0
48.565258,48.664616,62,108,0
48.667824,48.76718,58,108,0
48.770386,48.869743,50,108,0
48.87295,48.97231,62,108,0
48.975513,49.07487,58,108,0
49.07808,49.177437,50,108,0
49.18064,49.280003,62,108,0
49.283207,49.382565,58,108,0
49.38577,49.48513,50,108,0
49.488335,49.587692,62,108,0
49.590897,49.690258,58,108,0
49.693462,49.79282,50,108,0
49.796024,51.565254,36,127,0
51.642178,53.411407,31,127,0
51.642178,53.411407,43,127,0
53.48833,55.25756,36,127,0
55.33448,57.10371,36,127,0
55.33448,57.10371,48,127,0
57.180634,58.949863,36,108,0
59.026787,60.715885,38,108,0
60.719093,61.12935,33,108,0
60.796017,61.12935,45,108,0
61.18063,61.43704,52,108,0
61.18063,61.43704,57,108,0
61.18063,61.43704,60,108,0
61.488323,61.74473,57,127,0
61.796013,62.052425,38,127,0
61.796013,62.052425,50,127,0
62.103706,62.360115,53,108,0
62.103706,62.360115,57,108,0
62.103706,62.360115,62,108,0
62.4114,62.66781,50,127,0
62.71909,62.9755,43,127,0
62.71909,62.9755,55,127,0
63.026783,63.28319,55,108,0
63.026783,63.28319,59,108,0
63.026783,63.28319,64,108,0
63.334473,63.485115,59,127,0
63.48832,63.898575,36,108,0
63.565243,63.898575,48,108,0
63.94986,64.20627,55,108,0
63.94986,64.20627,60,108,0
63.94986,64.20627,64,108,0
64.25755,64.51396,60,127,0
64.56524,64.821655,41,127,0
64.56524,64.821655,53,127,0
64.87293,65.12934,57,108,0
64.87293,65.12934,60,108,0
64.87293,65.12934,65,108,0
65.180626,65.437035,53,127,0
65.48832,65.74473,43,127,0
65.48832,65.74473,55,127,0
65.79601,66.05242,55,108,0
65.79601,66.05242,59,108,0
65.79601,66.05242,64,108,0
66.1037,66.360115,59,127,0
66.41139,66.94985,33,127,0
66.41139,66.94985,45,127,0
67.02678,67.28319,36,127,0
67.02678,67.28319,48,127,0
67.33447,67.87293,38,127,0
67.33447,67.87293,50,127,0
67.94985,68.20626,41,127,0
67.94985,68.20626,53,127,0
68.257545,68.796005,43,127,0
68.257545,68.796005,55,127,0
68.87293,69.12934,40,127,0
68.87293,69.12934,52,127,0
69.18062,69.719086,36,127,0
69.18062,69.719086,48,127,0
69.796005,70.052414,40,127,0
69.796005,70.052414,52,127,0
70.1037,70.64216,41,127,0
70.1037,70.64216,53,127,0
70.719086,70.975494,45,127,0
70.719086,70.975494,57,127,0
71.02677,71.56523,43,127,0
71.02677,71.56523,55,127,0
71.64216,71.89857,40,127,0
71.64216,71.89857,52,127,0
71.94985,72.48831,33,108,0
71.94985,72.48831,45,108,0
72.56523,72.82165,36,108,0
72.56523,72.82165,48,108,0
72.872925,73.411385,38,108,0
72.872925,73.411385,50,108,0
73.48831,73.74472,41,108,0
73.48831,73.74472,53,108,0
73.796005,74.334465,40,108,0
73.796005,74.334465,52,108,0
74.411385,74.66779,36,108,0
74.411385,74.66779,48,108,0
74.71908,75.25754,33,108,0
74.71908,75.25754,45,108,0
75.334465,75.59087,36,108,0
75.334465,75.59087,48,108,0
75.64215,76.18062,38,108,0
75.64215,76.18062,50,108,0
76.25754,76.51395,41,108,0
76.25754,76.51395,53,108,0
76.56523,77.10369,40,108,0
76.56523,77.10369,52,108,0
77.18061,77.43703,36,108,0
77.18061,77.43703,48,108,0
77.488304,78.026764,33,108,0
77.488304,78.026764,45,108,0
78.10369,78.3601,36,108,0
78.10369,78.3601,48,108,0
78.411385,78.949844,33,108,0
78.411385,78.949844,45,108,0
79.026764,79.28317,36,108,0
79.026764,79.28317,48,108,0
79.33446,79.87292,33,127,0
79.33446,79.87292,45,127,0
79.949844,80.20625,36,127,0
79.949844,80.20625,48,127,0
80.25753,80.796,33,127,0
80.25753,80.796,45,127,0
80.87292,81.129326,36,127,0
80.87292,81.129326,48,127,0
81.18061,81.71907,33,127,0
81.18061,81.71907,45,127,0
81.796,82.05241,36,127,0
81.796,82.05241,48,127,0
82.10368,82.64214,33,127,0
82.10368,82.64214,45,127,0
82.71907,82.97548,36,127,0
82.71907,82.97548,48,127,0
83.026764,83.56522,33,127,0
83.026764,83.56522,45,127,0
83.64214,83.89856,36,127,0
83.64214,83.89856,48,127,0
83.94984,84.4883,33,127,0
83.94984,84.4883,45,127,0
84.56522,84.82163,36,127,0
84.56522,84.82163,48,127,0
84.87292,85.41138,33,127,0
84.87292,85.41138,45,127,0
85.4883,85.744705,36,127,0
85.4883,85.744705,48,127,0
85.79599,86.33445,33,127,0
85.79599,86.33445,45,127,0
86.41138,86.667786,36,127,0
86.41138,86.667786,48,127,0
86.71906,87.25753,33,127,0
86.71906,87.25753,45,127,0
87.33445,87.59086,36,127,0
87.33445,87.59086,48,127,0
87.64214,88.1806,34,127,0
87.64214,88.1806,46,127,0
88.25752,88.51394,38,127,0
88.25752,88.51394,50,127,0
88.565216,89.103676,36,108,0
88.565216,89.103676,48,108,0
89.1806,89.43701,38,108,0
89.1806,89.43701,50,108,0
89.4883,90.02676,34,108,0
89.4883,90.02676,46,108,0
90.103676,90.360085,33,108,0
90.103676,90.360085,45,108,0
90.41137,90.94983,34,108,0
90.41137,90.94983,46,108,0
91.02676,91.283165,31,108,0
91.02676,91.283165,43,108,0
91.33445,91.87291,33,108,0
91.33445,91.87291,45,108,0
91.94983,92.20624,34,108,0
91.94983,92.20624,46,108,0
92.25752,92.79598,36,108,0
92.25752,92.79598,48,108,0
92.87291,93.12932,38,108,0
92.87291,93.12932,50,108,0
93.180595,93.71906,39,108,0
93.180595,93.71906,51,108,0
93.79598,94.05239,43,108,0
93.79598,94.05239,55,108,0
94.103676,94.642136,40,108,0
94.103676,94.642136,52,108,0
94.719055,94.97547,43,108,0
94.719055,94.97547,55,108,0
95.02675,95.56521,41,108,0
95.02675,95.56521,53,108,0
95.642136,95.898544,45,108,0
95.642136,95.898544,57,108,0
95.94983,96.48829,43,108,0
95.94983,96.48829,55,108,0
96.56521,96.82162,41,108,0
96.56521,96.82162,53,108,0
96.8729,97.41136,40,108,0
96.8729,97.41136,52,108,0
97.48829,97.7447,39,108,0
97.48829,97.7447,51,108,0
97.795975,98.33444,38,108,0
97.795975,98.33444,50,108,0
98.41136,98.66777,36,108,0
98.41136,98.66777,48,108,0
98.719055,99.257515,34,108,0
98.719055,99.257515,46,108,0
99.334435,99.59085,32,108,0
99.334435,99.59085,44,108,0
99.64213,100.18059,31,108,0
99.64213,100.18059,43,108,0
100.257515,100.51392,41,108,0
100.257515,100.51392,53,108,0
100.56521,101.10367,40,108,0
100.56521,101.10367,52,108,0
101.18059,101.437,38,108,0
101.18059,101.437,50,108,0
101.48828,102.02674,36,108,0
101.48828,102.02674,48,108,0
102.10367,102.36008,34,108,0
102.10367,102.36008,46,108,0
102.41136,102.562,45,108,0
102.41136,102.562,53,108,0
102.5652,102.71584,60,108,0
103.334435,103.48508,46,108,0
103.334435,103.48508,53,108,0
103.48828,103.63892,58,108,0
104.25751,104.40815,48,108,0
104.25751,104.40815,53,108,0
104.411354,104.562,57,108,0
105.18059,105.33123,46,108,0
105.18059,105.33123,53,108,0
105.334435,105.48507,58,108,0
106.10366,106.2543,45,108,0
106.10366,106.2543,53,108,0
106.25751,106.40815,60,108,0
107.02674,107.177376,46,108,0
107.02674,107.177376,53,108,0
107.18059,107.33122,58,108,0
107.949814,108.10046,48,108,0
107.949814,108.10046,53,108,0
108.10366,108.2543,57,108,0
108.87289,109.02353,46,108,0
108.87289,109.02353,53,108,0
109.02673,109.177376,58,108,0
109.79597,109.94661,45,108,0
109.79597,109.94661,54,108,0
109.949814,110.10046,60,108,0
110.71904,110.86968,46,108,0
110.71904,110.86968,54,108,0
110.87289,111.02353,58,108,0
111.64212,111.792755,47,108,0
111.64212,111.792755,54,108,0
111.79597,111.9466,58,108,0
112.56519,112.8216,59,108,0
112.87289,113.129295,58,108,0
112.56519,113.41135,49,108,0
113.18058,113.43699,56,108,0
113.48827,115.2575,30,108,0
113.48827,115.2575,42,108,0
115.33442,116.18057,30,108,0
115.33442,116.18057,42,108,0
116.2575,116.79596,31,108,0
116.2575,116.79596,43,108,0
116.87288,117.129295,34,108,0
116.87288,117.129295,46,108,0
117.18057,117.71903,31,108,0
117.18057,117.71903,43,108,0
117.79596,118.05237,34,108,0
117.79596,118.05237,46,108,0
118.10365,118.64211,31,108,0
118.10365,118.64211,43,108,0
118.71903,118.97544,34,108,0
118.71903,118.97544,46,108,0
119.026726,120.79595,30,108,0
119.026726,120.79595,42,108,0
120.87288,121.71903,30,108,0
120.87288,121.71903,42,108,0
121.79595,122.33441,31,108,0
121.79595,122.33441,43,108,0
122.41134,122.66775,34,108,0
122.41134,122.66775,46,108,0
122.71903,123.25749,31,108,0
122.71903,123.25749,43,108,0
123.33441,123.59082,35,108,0
123.33441,123.59082,47,108,0
123.642105,124.180565,31,108,0
123.642105,124.180565,43,108,0
124.25749,124.5139,33,108,0
124.25749,124.5139,45,108,0
124.565186,124.71582,54,108,0
124.565186,124.71582,62,108,0
124.719025,124.86967,69,108,0
125.48826,125.6389,55,108,0
125.48826,125.6389,62,108,0
125.642105,125.79275,67,108,0
126.41133,126.56197,57,108,0
126.41133,126.56197,62,108,0
126.56518,126.71582,66,108,0
127.33441,127.485054,55,108,0
127.33441,127.485054,62,108,0
127.48826,127.63889,67,108,0
128.25749,128.40813,54,108,0
128.25749,128.40813,63,108,0
128.41133,128.56197,69,108,0
129.18056,129.3312,55,108,0
129.18056,129.3312,63,108,0
129.33441,129.48505,67,108,0
130.10364,130.25427,56,108,0
130.10364,130.25427,63,108,0
130.25748,130.40813,67,108,0
131.02672,131.6421,60,108,0
131.6421,131.89851,62,108,0
131.02672,131.89851,66,108,0
131.02672,132.79594,57,108,0
131.94978,132.79594,63,108,0
131.94978,132.79594,65,108,0
132.87286,133.02351,58,108,0
132.87286,133.02351,62,108,0
133.02672,133.17735,69,108,0
133.79594,133.9384,58,108,0
133.79594,133.9384,65,108,0
133.94144,134.08557,69,108,0
134.69641,135.3366,62,108,0
135.3366,135.61378,64,108,0
134.69641,135.61378,68,108,0
134.69641,136.53865,59,108,0
135.66997,136.53865,65,108,0
135.66997,136.53865,67,108,0
136.61174,138.2784,36,127,0
136.61174,138.2784,48,127,0
138.35086,139.14796,36,108,0
138.35086,139.14796,48,108,0
140.09,140.2319,46,108,0
140.23492,140.37683,51,108,0
140.37985,140.52176,55,108,0
140.52478,140.66669,58,108,0
140.66971,140.81161,63,108,0
140.81464,140.95654,67,108,0
139.22043,141.75667,24,108,0
139.22043,141.75667,36,108,0
141.82913,143.49579,36,127,0
141.82913,143.49579,48,127,0
143.56825,144.36536,36,108,0
143.56825,144.36536,48,108,0
145.30739,145.4493,46,108,0
145.45232,145.59422,51,108,0
145.59724,145.73915,55,108,0
145.74217,145.88408,58,108,0
145.8871,146.029,63,108,0
146.03203,146.17393,67,108,0
144.43782,146.97406,24,108,0
144.43782,146.97406,36,108,0
147.04652,147.84361,52,127,0
147.91608,149.58275,51,127,0
149.65521,152.19144,34,127,0
149.65521,152.19144,46,127,0
152.2639,153.061,52,127,0
153.13347,154.80014,51,127,0
154.8726,157.40883,34,127,0
154.8726,157.40883,46,127,0
157.4813,160.01753,34,108,0
157.4813,160.01753,46,108,0
160.09,162.62622,34,108,0
160.09,162.62622,46,108,0
162.69868,165.23492,34,108,0
162.69868,165.23492,46,108,0
165.30739,167.84361,34,108,0
165.30739,167.84361,46,108,0
167.91608,170.84279,34,127,0
167.91608,170.84279,46,127,0
170.94083,171.18959,34,127,0
170.94083,171.18959,46,127,0
171.83635,172.08511,34,127,0
171.83635,172.08511,46,127,0
172.73187,172.98062,34,108,0
172.73187,172.98062,46,108,0
173.6274,173.87614,34,108,0
173.6274,173.87614,46,108,0
174.52292,174.77167,33,127,0
174.52292,174.77167,45,127,0
175.41844,175.66719,34,127,0
175.41844,175.66719,46,127,0
176.31395,176.56271,27,127,0
176.31395,176.56271,39,127,0
177.20947,177.45824,28,127,0
177.20947,177.45824,40,127,0
178.105,178.35376,29,127,0
178.105,178.35376,41,127,0
179.00052,179.24928,31,127,0
179.00052,179.24928,43,127,0
179.89604,180.14479,34,127,0
179.89604,180.14479,46,127,0
180.79156,181.04031,33,108,0
180.79156,181.04031,45,108,0
181.68709,181.93584,26,108,0
181.68709,181.93584,38,108,0
182.58261,183.105,40,108,0
183.17961,183.42838,41,108,0
183.47812,184.00052,43,108,0
184.07513,184.3239,48,108,0
184.37364,184.6224,36,108,0
184.67215,184.92091,38,108,0
184.97066,185.21942,50,108,0
185.26917,185.79155,46,108,0
185.86618,186.11494,51,108,0
186.16469,186.41344,39,108,0
186.4632,186.71194,41,108,0
186.7617,187.01045,53,108,0
187.06021,187.5826,49,108,0
187.65723,187.90598,54,108,0
187.95573,188.20448,42,108,0
188.25424,188.50299,44,108,0
188.55275,188.8015,47,108,0
188.85126,189.14977,28,108,0
188.85126,189.14977,40,108,0
189.14977,189.44826,30,108,0
189.14977,189.44826,42,108,0
189.44826,189.74677,32,108,0
189.44826,189.74677,44,108,0
189.74677,190.04527,33,108,0
189.74677,190.04527,45,108,0
190.04527,190.34378,35,108,0
190.04527,190.34378,47,108,0
190.34378,190.64229,36,108,0
190.34378,190.64229,48,108,0
190.64229,190.9408,38,108,0
190.64229,190.9408,50,108,0
190.9408,191.2393,36,108,0
190.9408,191.2393,48,108,0
191.2393,191.53781,34,108,0
191.2393,191.53781,46,108,0
191.53781,191.83632,33,108,0
191.53781,191.83632,45,108,0
191.83632,192.13483,31,108,0
191.83632,192.13483,43,108,0
192.13483,192.43333,29,108,0
192.13483,192.43333,41,108,0
192.43333,192.73184,28,108,0
192.43333,192.73184,40,108,0
192.73184,193.03035,29,108,0
192.73184,193.03035,41,108,0
193.03035,193.32886,31,108,0
193.03035,193.32886,43,108,0
193.32886,193.62737,29,108,0
193.32886,193.62737,41,108,0
193.62737,193.92587,31,108,0
193.62737,193.92587,43,108,0
193.92587,194.22438,34,108,0
193.92587,194.22438,46,108,0
194.22438,194.52289,33,108,0
194.22438,194.52289,45,108,0
194.52289,194.8214,43,108,0
194.8214,195.1199,41,108,0
195.1199,195.41841,40,108,0
195.41841,195.71692,38,108,0
195.71692,196.01543,36,108,0
196.01543,196.26418,34,108,0
196.91093,197.1597,34,108,0
196.91093,197.1597,46,108,0
197.80646,198.05522,33,108,0
197.80646,198.05522,45,108,0
198.70198,198.95074,34,108,0
198.70198,198.95074,46,108,0
199.5975,199.84625,27,108,0
199.5975,199.84625,39,108,0
200.49303,200.74178,28,108,0
200.49303,200.74178,40,108,0
201.38855,201.6373,34,108,0
201.38855,201.6373,46,108,0
202.28407,202.53282,34,108,0
202.28407,202.53282,46,108,0
203.17958,203.42834,34,108,0
203.17958,203.42834,46,108,0
204.0751,204.32387,33,108,0
204.0751,204.32387,45,108,0
204.97063,205.79152,26,108,0
204.97063,205.79152,38,108,0
205.86615,206.68704,30,108,0
205.86615,206.68704,42,108,0
206.76167,207.28406,47,108,0
207.35869,207.60744,40,108,0
207.6572,208.17958,41,108,0
208.25421,208.50296,49,108,0
208.55272,209.0751,47,108,0
209.14973,209.39848,40,108,0
209.44823,209.97063,41,108,0
210.04524,210.294,49,108,0
210.34375,210.86615,37,108,0
210.94077,211.18953,42,108,0
211.23927,211.76166,43,108,0
211.83629,212.08505,51,108,0
212.1348,212.65718,39,108,0
212.73181,212.98056,44,108,0
213.03032,213.5527,45,108,0
213.62733,213.87608,46,108,0
213.92584,214.22435,48,108,0
214.22435,214.3736,47,108,0
214.3736,214.52286,48,108,0
214.52286,215.11987,50,108,0
215.11987,215.36862,48,108,0
215.71689,215.86613,81,108,0
215.86613,216.01538,77,108,0
216.01538,216.16153,69,108,0
216.6124,216.76166,69,108,0
216.76166,216.9109,65,108,0
216.9109,217.05705,57,108,0
217.50792,217.80643,50,108,0
217.80643,217.95569,46,108,0
217.95569,218.10493,47,108,0
218.10493,218.70195,49,108,0
218.70195,218.95071,47,108,0
219.29897,219.44821,80,108,0
219.44821,219.59747,76,108,0
219.59747,219.74362,68,108,0
220.19449,220.34373,68,108,0
220.34373,220.493,64,108,0
220.493,220.63913,56,108,0
221.09001,221.38852,49,108,0
221.38852,221.53777,45,108,0
221.53777,221.68703,46,108,0
221.68703,222.28404,48,108,0
222.28404,222.53279,46,108,0
222.88104,223.0303,79,108,0
223.0303,223.17955,75,108,0
223.17955,223.3257,67,108,0
223.77657,223.92583,67,108,0
223.92583,224.07507,63,108,0
224.07507,224.22122,55,108,0
224.67209,225.49298,37,108,0
225.56761,226.3885,36,108,0
226.46313,227.28403,41,108,0
227.35866,228.17955,39,108,0
228.25418,228.50293,55,108,0
228.55269,228.80144,56,108,0
228.8512,229.09995,58,108,0
229.14969,229.39845,56,108,0
229.4482,229.69696,48,108,0
229.7467,229.99547,53,108,0
230.04521,230.8661,41,108,0
230.94073,231.76163,39,108,0
231.83626,232.65715,38,108,0
232.73178,233.55267,50,108,0
233.6273,233.87605,52,108,0
233.92581,234.17456,53,108,0
234.22432,234.47307,55,108,0
234.52283,235.34372,57,108,0
235.41835,235.4681,35,108,0
235.41835,235.4681,47,108,0
235.71684,235.7666,35,108,0
236.01535,236.06511,36,108,0
236.31386,236.36362,36,108,0
236.31386,236.36362,48,108,0
236.61237,236.66212,29,108,0
236.61237,236.66212,41,108,0
236.91087,236.96063,36,108,0
236.91087,236.96063,48,108,0
237.20938,237.25914,37,108,0
237.20938,237.25914,49,108,0
237.50789,237.55765,25,108,0
237.50789,237.55765,37,108,0
237.8064,237.85616,26,108,0
237.8064,237.85616,38,108,0
238.1049,238.15466,38,108,0
238.1049,238.15466,50,108,0
238.40341,238.45317,31,108,0
238.40341,238.45317,43,108,0
238.70192,238.75168,38,108,0
238.70192,238.75168,50,108,0
239.00043,239.05017,39,108,0
239.00043,239.05017,51,108,0
239.29893,239.34868,27,108,0
239.29893,239.34868,39,108,0
239.59744,239.64719,28,108,0
239.59744,239.64719,40,108,0
239.89595,239.9457,40,108,0
239.89595,239.9457,52,108,0
240.19446,240.2442,33,108,0
240.19446,240.2442,45,108,0
240.49297,240.54271,40,108,0
240.49297,240.54271,52,108,0
240.79147,240.9376,45,108,0
241.08998,241.23611,33,108,0
241.38849,241.53462,45,108,0
241.687,241.83313,38,108,0
241.9855,242.13164,26,108,0
241.9855,242.13164,38,108,0
242.284,242.43015,38,108,0
242.284,242.43015,50,108,0
242.5825,242.72865,31,108,0
242.5825,242.72865,43,108,0
242.73177,242.87791,33,108,0
242.73177,242.87791,45,108,0
242.88101,243.02716,34,108,0
242.88101,243.02716,46,108,0
243.03027,243.17642,31,108,0
243.03027,243.17642,43,108,0
243.17952,243.32567,34,108,0
243.17952,243.32567,46,108,0
243.32878,243.47493,36,108,0
243.32878,243.47493,48,108,0
243.47803,243.62418,38,108,0
243.47803,243.62418,50,108,0
243.62729,243.77342,40,108,0
243.62729,243.77342,52,108,0
243.77654,243.92268,42,108,0
243.77654,243.92268,54,108,0
244.37355,244.5197,30,108,0
244.37355,244.5197,42,108,0
244.52281,244.66895,32,108,0
244.52281,244.66895,44,108,0
244.67206,244.8182,34,108,0
244.67206,244.8182,46,108,0
244.82132,244.96745,30,108,0
244.82132,244.96745,42,108,0
244.97057,245.11671,34,108,0
244.97057,245.11671,46,108,0
245.11983,245.26596,36,108,0
245.11983,245.26596,48,108,0
245.26907,245.41522,38,108,0
245.26907,245.41522,50,108,0
245.41833,245.56447,40,108,0
245.41833,245.56447,52,108,0
245.56758,245.71373,42,108,0
245.56758,245.71373,54,108,0
246.1646,246.31075,30,108,0
246.1646,246.31075,42,108,0
246.31384,246.45999,32,108,0
246.31384,246.45999,44,108,0
246.4631,246.60925,33,108,0
246.4631,246.60925,45,108,0
246.61235,246.7585,30,108,0
246.61235,246.7585,42,108,0
246.76161,246.90776,33,108,0
246.76161,246.90776,45,108,0
246.91086,247.057,37,108,0
246.91086,247.057,49,108,0
247.06012,247.20625,38,108,0
247.06012,247.20625,50,108,0
247.20937,247.35551,40,108,0
247.20937,247.35551,52,108,0
247.35863,247.50476,42,108,0
247.35863,247.50476,54,108,0
247.95564,248.10178,30,108,0
248.10489,248.25104,32,108,0
248.25415,248.40028,34,108,0
248.4034,248.54955,30,108,0
248.55266,248.69879,32,108,0
248.7019,248.84805,34,108,0
248.85115,248.9973,36,108,0
249.00041,249.14656,38,108,0
249.14966,249.2958,40,108,0
249.29892,249.44507,42,108,0
249.44817,249.59431,38,108,0
249.59743,249.74358,40,108,0
249.74667,249.89282,30,108,0
249.74667,249.89282,42,108,0
249.89594,250.04208,32,108,0
249.89594,250.04208,44,108,0
250.04518,250.19133,34,108,0
250.04518,250.19133,46,108,0
250.19444,250.34058,30,108,0
250.19444,250.34058,42,108,0
250.34369,250.48984,32,108,0
250.34369,250.48984,44,108,0
250.49295,250.63908,34,108,0
250.49295,250.63908,46,108,0
250.6422,250.78835,36,108,0
250.6422,250.78835,48,108,0
250.79146,250.93759,38,108,0
250.79146,250.93759,50,108,0
250.9407,251.08685,40,108,0
250.9407,251.08685,52,108,0
251.08997,251.2361,42,108,0
251.08997,251.2361,54,108,0
251.23921,251.38536,38,108,0
251.23921,251.38536,50,108,0
251.38847,251.5346,40,108,0
251.38847,251.5346,52,108,0
251.53772,251.68387,42,108,0
251.53772,251.68387,54,108,0
251.68698,251.83311,44,108,0
251.68698,251.83311,56,108,0
251.83623,251.98238,46,108,0
251.83623,251.98238,58,108,0
251.98549,252.13162,42,108,0
251.98549,252.13162,54,108,0
252.13474,252.28088,44,108,0
252.13474,252.28088,56,108,0
252.28398,252.43013,46,108,0
252.28398,252.43013,58,108,0
252.43324,252.57542,47,108,0
252.43324,252.57542,59,108,0
252.57848,252.72237,48,108,0
252.57848,252.72237,60,108,0
252.72545,252.8711,50,108,0
252.72545,252.8711,62,108,0
252.87419,253.02173,51,108,0
252.87419,253.02173,63,108,0
253.0249,253.17447,48,108,0
253.0249,253.17447,60,108,0
253.17767,253.32913,50,108,0
253.17767,253.32913,62,108,0
253.33237,253.48575,51,108,0
253.33237,253.48575,63,108,0
253.48901,253.64464,53,108,0
253.48901,253.64464,65,108,0
253.64798,253.80571,55,108,0
253.64798,253.80571,67,108,0
253.8091,253.96893,57,108,0
253.8091,253.96893,69,108,0
253.97235,254.1344,58,108,0
253.97235,254.1344,70,108,0
254.13788,254.30246,60,108,0
254.13788,254.30246,72,108,0
254.306,254.59142,62,108,0
254.306,254.59142,66,108,0
254.306,254.59142,70,108,0
254.306,254.59142,74,108,0
255.00304,255.30617,38,108,0
255.00304,255.30617,50,108,0
255.36751,256.18842,31,108,0
255.36751,256.18842,43,108,0
256.26303,257.08392,36,108,0
257.15857,257.97946,31,108,0
257.15857,257.97946,43,108,0
258.05408,258.87497,36,108,0
258.9496,259.7705,29,108,0
258.9496,259.7705,41,108,0
259.84512,260.3675,38,127,0
260.44214,260.6909,39,108,0
260.74063,261.26303,41,108,0
261.33765,261.58643,42,108,0
261.63617,262.15854,43,108,0
262.2332,262.48193,45,108,0
262.53168,263.05408,38,127,0
263.1287,263.37744,34,108,0
263.42722,263.9496,39,127,0
264.02423,264.27298,46,108,0
264.32272,264.84512,38,127,0
264.91974,265.1685,34,108,0
265.21823,265.74063,40,127,0
265.81525,266.06403,41,108,0
266.11377,266.63617,43,127,0
266.7108,266.95953,45,108,0
267.00928,267.3078,38,108,0
267.00928,267.3078,50,108,0
267.3078,267.6063,37,108,0
267.3078,267.6063,49,108,0
267.6063,267.90482,35,108,0
267.6063,267.90482,47,108,0
267.90482,268.2033,33,108,0
267.90482,268.2033,45,108,0
268.2033,268.50183,31,108,0
268.2033,268.50183,43,108,0
268.50183,268.80032,30,108,0
268.50183,268.80032,42,108,0
268.80032,269.09885,28,108,0
268.80032,269.09885,40,108,0
269.09885,269.39734,26,108,0
269.09885,269.39734,38,108,0
269.39734,269.69586,27,108,0
269.39734,269.69586,39,108,0
269.69586,269.99435,28,127,0
269.69586,269.99435,40,127,0
269.99435,270.29288,29,127,0
269.99435,270.29288,41,127,0
270.29288,270.59137,30,127,0
270.29288,270.59137,42,127,0
270.59137,271.41226,31,127,0
270.59137,271.41226,43,127,0
271.4869,272.3078,36,127,0
272.38242,273.2033,31,127,0
272.38242,273.2033,43,127,0
273.27792,274.09882,36,127,0
274.17346,274.99435,31,127,0
274.17346,274.99435,43,127,0
275.06897,275.59137,38,127,0
275.666,275.91473,39,127,0
275.9645,276.48688,41,127,0
276.56152,276.81027,42,127,0
276.86002,277.38242,43,127,0
277.45703,277.70578,45,127,0
277.75555,278.27792,38,127,0
278.35257,278.60132,34,108,0
278.65106,279.17346,39,127,0
279.24808,279.49683,46,108,0
279.54657,280.06897,38,127,0
280.1436,280.39236,34,108,0
280.4421,280.96448,40,127,0
281.03912,281.28787,41,108,0
281.33762,281.86002,43,127,0
281.93463,282.18338,45,108,0
282.23315,282.75552,47,127,0
282.83017,283.07892,49,108,0
283.12866,283.4272,30,127,0
283.12866,283.4272,42,127,0
283.4272,283.72568,33,127,0
283.4272,283.72568,45,127,0
283.72568,284.0242,37,127,0
283.72568,284.0242,49,127,0
284.0242,284.3227,38,127,0
284.0242,284.3227,50,127,0
284.3227,284.62122,37,127,0
284.3227,284.62122,49,127,0
284.62122,284.9197,35,127,0
284.62122,284.9197,47,127,0
284.9197,285.2182,33,127,0
284.9197,285.2182,45,127,0
285.2182,285.51672,31,127,0
285.2182,285.51672,43,127,0
285.51672,285.81522,30,127,0
285.51672,285.81522,42,127,0
285.81522,286.11374,28,127,0
285.81522,286.11374,40,127,0
286.11374,286.41223,26,127,0
286.11374,286.41223,38,127,0
286.41223,286.71075,27,127,0
286.41223,286.71075,39,127,0
286.71075,287.00925,28,127,0
286.71075,287.00925,40,127,0
287.00925,287.30777,29,127,0
287.00925,287.30777,41,127,0
287.30777,287.55652,30,127,0
287.30777,287.55652,42,127,0
287.60626,287.70267,43,127,0
287.70578,287.80215,50,108,0
287.80527,287.90167,55,108,0
287.9048,288.00116,50,108,0
288.00427,288.10068,58,108,0
288.1038,288.20016,62,108,0
288.20328,288.29968,50,108,0
288.3028,288.39917,58,108,0
288.40228,288.4987,62,108,0
288.5018,288.59818,52,108,0
288.6013,288.6977,58,108,0
288.7008,288.79718,62,108,0
288.8003,288.8967,52,108,0
288.8998,288.9962,58,108,0
288.9993,289.0957,62,108,0
289.09882,289.1952,51,108,0
289.1983,289.2947,58,108,0
289.29782,289.3942,61,108,0
289.3973,289.4937,43,127,0
289.49683,289.5932,50,108,0
289.5963,289.69272,55,108,0
289.69583,289.7922,50,108,0
289.79532,289.89172,58,108,0
289.89484,289.9912,62,108,0
289.99432,290.09073,50,108,0
290.09384,290.19022,58,108,0
290.19333,290.28973,62,108,0
290.29285,290.38922,52,108,0
290.39233,290.48874,58,108,0
290.49185,290.58823,62,108,0
290.59134,290.68774,52,108,0
290.69086,290.78723,58,108,0
290.79034,290.88675,62,108,0
290.88986,290.98624,51,108,0
290.98935,291.08575,58,108,0
291.08887,291.18524,61,108,0
291.18835,291.28476,43,127,0
291.28787,291.38425,50,108,0
291.38736,291.48376,55,108,0
291.48688,291.58325,50,108,0
291.58636,291.68277,58,108,0
291.68585,291.78226,62,108,0
291.78537,291.88177,50,108,0
291.88486,291.98126,58,108,0
291.98438,292.08078,62,108,0
292.08386,292.18027,62,127,0
292.18338,292.2798,58,108,0
292.28287,292.37927,56,108,0
292.3824,292.4788,62,108,0
292.48187,292.57828,58,108,0
292.5814,292.6778,56,108,0
292.68088,292.77728,62,108,0
292.7804,292.8768,58,108,0
292.87988,292.9763,56,108,0
292.9794,293.07578,62,127,0
293.0789,293.1753,58,108,0
293.1784,293.27478,56,108,0
293.2779,293.3743,63,108,0
293.3774,293.4738,60,108,0
293.4769,293.5733,56,108,0
293.57642,293.6728,64,108,0
293.6759,293.7723,61,108,0
293.77542,293.8718,56,108,0
293.8749,293.9713,65,108,0
293.97443,294.0708,62,108,0
294.0739,294.17032,55,108,0
294.17343,294.2698,65,108,0
294.27292,294.36932,62,108,0
294.37244,294.4688,55,108,0
294.47192,294.56833,65,108,0
294.57144,294.66782,62,108,0
294.67093,294.76733,55,108,0
294.77045,294.86682,65,108,0
294.86993,294.96634,62,108,0
294.96945,295.06583,55,108,0
295.06894,295.16534,65,108,0
295.16846,295.26483,62,108,0
295.26794,295.36435,55,108,0
295.36746,295.46384,53,108,0
295.46695,295.56335,59,108,0
295.56647,295.66284,62,108,0
295.66595,295.76236,54,108,0
295.76547,295.86185,59,108,0
295.86496,295.96136,63,108,0
295.96448,296.06085,54,108,0
296.06396,296.16037,59,108,0
296.16348,296.25986,63,108,0
296.26297,296.35938,57,108,0
296.3625,296.45886,59,108,0
296.46198,296.55838,63,108,0
296.5615,296.65787,47,127,0
296.66098,296.7574,55,108,0
296.7605,296.85687,59,108,0
296.86,296.9564,55,108,0
296.9595,297.05588,59,108,0
297.059,297.1554,62,108,0
297.1585,297.25488,53,108,0
297.258,297.3544,59,108,0
297.3575,297.4539,62,108,0
297.457,297.5534,54,108,0
297.55652,297.6529,59,108,0
297.656,297.7524,63,108,0
297.75552,297.8519,54,108,0
297.855,297.95142,59,108,0
297.95453,298.0509,63,108,0
298.05402,298.15042,57,108,0
298.15353,298.2499,59,108,0
298.25302,298.34943,63,108,0
298.3525,298.4489,47,127,0
298.45203,298.54843,55,108,0
298.5515,298.64792,59,108,0
298.65103,298.74744,55,108,0
298.75052,298.84692,59,108,0
298.85004,298.94644,62,108,0
298.94952,299.04593,53,108,0
299.04904,299.14545,59,108,0
299.14853,299.24493,62,108,0
299.24805,299.34445,63,108,0
299.34753,299.44394,59,108,0
299.44705,299.54346,54,108,0
299.54654,299.64294,63,108,0
299.64606,299.74243,59,108,0
299.74554,299.84195,54,108,0
299.84506,299.94144,63,108,0
299.94455,300.04095,59,108,0
300.04407,300.14044,51,108,0
300.14355,300.23996,58,108,0
300.24307,300.33945,54,108,0
300.34256,300.43896,46,108,0
300.44208,300.53845,58,108,0
300.54156,300.63797,54,108,0
300.64108,300.73746,46,108,0
300.74057,300.83698,58,108,0
300.8401,300.93646,54,108,0
300.93958,301.03598,46,108,0
301.13858,301.235,58,108,0
301.2381,301.33447,50,108,0
301.3376,301.434,62,108,0
301.4371,301.53348,58,108,0
301.5366,301.633,50,108,0
301.6361,301.73248,62,108,0
301.7356,301.832,58,108,0
301.8351,301.9315,50,108,0
301.9346,302.031,62,108,0
302.03412,302.1305,58,108,0
302.1336,302.23,50,108,0
302.23312,302.3295,62,108,0
302.3326,302.42902,58,108,0
302.43213,302.5285,50,108,0
302.53162,302.62802,62,108,0
302.63113,302.7275,58,108,0
302.73062,302.82703,50,108,0
302.83014,304.54654,36,127,0
304.6212,306.3376,31,127,0
304.6212,306.3376,43,127,0
306.4122,308.12863,36,127,0
308.20325,309.91968,29,108,0
308.20325,309.91968,41,108,0
309.9943,311.71072,28,108,0
309.9943,311.71072,40,108,0
311.78534,313.50174,33,108,0
311.78534,313.50174,45,108,0
313.5764,313.82513,30,127,0
313.5764,313.82513,42,127,0
313.87488,314.12366,57,108,0
313.87488,314.12366,61,108,0
313.87488,314.12366,66,108,0
313.87488,314.12366,69,108,0
314.1734,314.42215,66,127,0
314.4719,314.72064,35,127,0
314.4719,314.72064,47,127,0
314.77042,315.01917,50,108,0
314.77042,315.01917,54,108,0
314.77042,315.01917,59,108,0
314.77042,315.01917,62,108,0
315.0689,315.31766,59,127,0
315.36743,315.61618,40,127,0
315.36743,315.61618,52,127,0
315.66592,315.91467,56,108,0
315.66592,315.91467,61,108,0
315.66592,315.91467,64,108,0
315.96445,316.2132,73,127,0
316.26294,316.5117,33,127,0
316.26294,316.5117,45,127,0
316.56146,316.8102,61,108,0
316.56146,316.8102,64,108,0
316.56146,316.8102,69,108,0
316.56146,316.8102,73,108,0
316.85995,317.1087,69,127,0
317.15848,317.40723,38,127,0
317.15848,317.40723,50,127,0
317.45697,317.70572,54,108,0
317.45697,317.70572,57,108,0
317.45697,317.70572,62,108,0
317.45697,317.70572,66,108,0
317.7555,318.00424,62,127,0
318.054,318.30273,40,127,0
318.054,318.30273,52,127,0
318.35248,318.60126,56,108,0
318.35248,318.60126,61,108,0
318.35248,318.60126,64,108,0
318.651,318.89975,68,127,0
318.9495,319.4719,30,127,0
318.9495,319.4719,42,127,0
319.5465,319.7953,33,127,0
319.5465,319.7953,45,127,0
319.84503,320.3674,35,127,0
319.84503,320.3674,47,127,0
320.44205,320.6908,38,127,0
320.44205,320.6908,50,127,0
320.74054,321.26294,40,127,0
320.74054,321.26294,52,127,0
321.33755,321.5863,37,127,0
321.33755,321.5863,49,127,0
321.63608,322.15845,33,127,0
321.63608,322.15845,45,127,0
322.2331,322.48184,37,127,0
322.2331,322.48184,49,127,0
322.5316,323.054,38,127,0
322.5316,323.054,50,127,0
323.1286,323.37735,42,127,0
323.1286,323.37735,54,127,0
323.42712,323.9495,40,127,0
323.42712,323.9495,52,127,0
324.02414,324.2729,32,127,0
324.02414,324.2729,44,127,0
324.32263,324.91965,68,108,0
324.91965,325.21814,65,108,0
325.21814,325.81516,61,108,0
325.81516,326.11368,58,108,0
326.11368,326.41217,60,108,0
326.41217,326.7107,63,108,0
326.7107,326.95944,67,108,0
327.0092,327.6062,72,108,0
327.6062,327.90472,68,108,0
327.90472,328.50174,65,108,0
328.50174,328.80023,61,108,0
328.80023,329.09875,60,108,0
329.09875,329.39725,63,108,0
329.39725,329.646,67,108,0
329.69577,330.2928,68,108,0
330.2928,330.59128,63,108,0
330.59128,331.1883,59,108,0
331.1883,331.4868,56,108,0
331.4868,331.7853,59,127,0
331.7853,332.0838,60,127,0
332.0838,332.33258,63,127,0
331.4868,332.33258,67,127,0
332.38232,332.97934,68,108,0
332.97934,333.27783,63,108,0
333.27783,333.87485,59,108,0
333.87485,334.17337,56,108,0
334.17337,334.47186,59,127,0
334.47186,334.7704,60,127,0
334.7704,335.01913,63,127,0
334.17337,335.01913,67,127,0
335.06888,335.88977,31,108,0
335.06888,335.88977,43,108,0
335.96442,337.68082,32,108,0
335.96442,337.68082,44,108,0
337.75546,338.57635,31,108,0
337.75546,338.57635,43,108,0
338.65097,340.36737,32,108,0
338.65097,340.36737,44,108,0
340.44202,341.03903,66,127,0
341.03903,341.33752,61,127,0
341.33752,341.93454,57,127,0
341.93454,342.23306,52,127,0
342.23306,342.53156,54,127,0
342.53156,342.83008,57,127,0
342.83008,343.07883,61,127,0
343.12857,343.7256,66,108,0
343.7256,344.0241,61,108,0
344.0241,344.6211,57,108,0
344.6211,344.91962,52,108,0
344.91962,345.2181,54,108,0
345.2181,345.51663,57,108,0
345.51663,345.76538,61,108,0
345.81512,346.41214,69,108,0
346.41214,346.71066,66,108,0
346.71066,347.30768,61,108,0
347.30768,347.60617,57,108,0
347.60617,348.2032,54,108,0
348.2032,348.5017,49,108,0
348.5017,349.09872,45,108,0
349.09872,349.39722,49,108,0
349.39722,349.99423,45,108,0
349.99423,350.29276,49,108,0
350.29276,350.88977,45,108,0
350.88977,351.13852,49,108,0
351.18826,351.71066,33,108,0
351.18826,351.71066,45,108,0
351.78528,352.03403,37,108,0
351.78528,352.03403,49,108,0
352.08377,352.60617,33,108,0
352.08377,352.60617,45,108,0
352.6808,352.92957,37,108,0
352.6808,352.92957,49,108,0
352.9793,353.50168,33,108,0
352.9793,353.50168,45,108,0
353.57632,353.82507,37,108,0
353.57632,353.82507,49,108,0
353.87482,354.39722,33,108,0
353.87482,354.39722,45,108,0
354.47183,354.72058,37,108,0
354.47183,354.72058,49,108,0
354.77036,355.29272,33,108,0
354.77036,355.29272,45,108,0
355.36737,355.61612,35,108,0
355.36737,355.61612,47,108,0
355.66586,356.18826,31,108,0
355.66586,356.18826,43,108,0
356.26288,356.51163,34,108,0
356.26288,356.51163,46,108,0
356.5614,357.08377,30,108,0
356.5614,357.08377,42,108,0
357.15842,357.40717,33,108,0
357.15842,357.40717,45,108,0
357.4569,357.9793,30,108,0
357.4569,357.9793,42,108,0
358.05392,358.30267,33,108,0
358.05392,358.30267,45,108,0
358.35242,358.87482,31,108,0
358.35242,358.87482,43,108,0
358.94943,359.1982,35,108,0
358.94943,359.1982,47,108,0
359.24796,359.77032,31,108,0
359.24796,359.77032,43,108,0
359.84497,360.09372,30,108,0
359.84497,360.09372,42,108,0
360.14346,360.66586,31,108,0
360.14346,360.66586,43,108,0
360.74048,360.98923,28,108,0
360.74048,360.98923,40,108,0
361.039,361.56137,30,108,0
361.039,361.56137,42,108,0
361.63602,361.88477,31,108,0
361.63602,361.88477,43,108,0
361.9345,362.4569,33,108,0
361.9345,362.4569,45,108,0
362.53152,362.78027,35,108,0
362.53152,362.78027,47,108,0
362.83005,363.35242,36,108,0
362.83005,363.35242,48,108,0
363.42706,363.6758,38,108,0
363.42706,363.6758,50,108,0
363.72556,364.24796,33,108,0
363.72556,364.24796,45,108,0
364.32257,364.57132,37,108,0
364.32257,364.57132,49,108,0
364.62106,365.14346,37,108,0
364.62106,365.14346,49,108,0
365.21808,365.46686,40,108,0
365.21808,365.46686,52,108,0
365.5166,366.03897,38,108,0
365.5166,366.03897,50,108,0
366.11362,366.36237,42,108,0
366.11362,366.36237,54,108,0
366.4121,366.9345,40,108,0
366.4121,366.9345,52,108,0
367.00912,367.2579,38,108,0
367.00912,367.2579,50,108,0
367.30765,367.83002,37,108,0
367.30765,367.83002,49,108,0
367.90466,368.1534,36,108,0
367.90466,368.1534,48,108,0
368.20316,368.72556,35,108,0
368.20316,368.72556,47,108,0
368.80017,369.04892,33,108,0
368.80017,369.04892,45,108,0
369.0987,369.62106,31,108,0
369.0987,369.62106,43,108,0
369.6957,369.94446,29,108,0
369.6957,369.94446,41,108,0
369.9942,370.5166,28,108,0
369.9942,370.5166,40,108,0
370.59122,370.83997,38,108,0
370.59122,370.83997,50,108,0
370.8897,371.4121,37,108,0
370.8897,371.4121,49,108,0
371.48672,371.7355,35,108,0
371.48672,371.7355,47,108,0
371.78525,372.30765,33,108,0
371.78525,372.30765,45,108,0
372.38226,372.631,31,108,0
372.38226,372.631,43,108,0
372.68076,372.8269,54,108,0
372.68076,372.8269,62,108,0
372.83002,372.97617,69,108,0
373.5763,373.72244,55,108,0
373.5763,373.72244,62,108,0
373.72556,373.87167,67,108,0
374.4718,374.61795,57,108,0
374.4718,374.61795,62,108,0
374.62106,374.7672,66,108,0
375.36734,375.51346,55,108,0
375.36734,375.51346,62,108,0
375.51657,375.66272,67,108,0
376.26285,376.409,54,108,0
376.26285,376.409,62,108,0
376.4121,376.55826,69,108,0
377.1584,377.3045,55,108,0
377.1584,377.3045,62,108,0
377.30762,377.45377,67,108,0
378.0539,378.20004,57,108,0
378.0539,378.20004,62,108,0
378.20316,378.3493,66,108,0
378.9494,379.09555,55,108,0
378.9494,379.09555,62,108,0
379.09866,379.2448,67,108,0
379.84494,379.9911,54,108,0
379.84494,379.9911,63,108,0
379.9942,380.14032,69,108,0
380.74045,380.8866,55,108,0
380.74045,380.8866,63,108,0
380.8897,381.03586,67,108,0
381.636,381.78214,56,108,0
381.636,381.78214,63,108,0
381.78522,381.93137,67,108,0
382.5315,382.78024,66,108,0
382.83002,383.07877,67,108,0
382.5315,383.3524,58,108,0
383.1285,383.37726,68,108,0
384.02402,384.2728,49,108,0
384.02402,384.2728,55,108,0
384.02402,384.2728,58,108,0
383.42703,385.14343,27,108,0
383.42703,385.14343,39,108,0
384.91956,385.1683,49,108,0
384.91956,385.1683,54,108,0
384.91956,385.1683,57,108,0
385.21805,386.03894,27,108,0
385.21805,386.03894,39,108,0
385.81506,386.06384,48,108,0
385.81506,386.06384,54,108,0
385.81506,386.06384,56,108,0
386.1136,386.63596,28,108,0
386.1136,386.63596,40,108,0
386.7106,386.95935,31,108,0
386.7106,386.95935,43,108,0
387.0091,387.5315,28,108,0
387.0091,387.5315,40,108,0
387.6061,387.85486,31,108,0
387.6061,387.85486,43,108,0
387.90463,388.427,28,108,0
387.90463,388.427,40,108,0
388.50165,388.7504,31,108,0
388.50165,388.7504,43,108,0
389.39716,389.6459,49,108,0
389.39716,389.6459,55,108,0
389.39716,389.6459,58,108,0
388.80014,390.51657,27,108,0
388.80014,390.51657,39,108,0
390.2927,390.54144,49,108,0
390.2927,390.54144,54,108,0
390.2927,390.54144,57,108,0
390.5912,391.41208,27,108,0
390.5912,391.41208,39,108,0
391.1882,391.43695,48,108,0
391.1882,391.43695,54,108,0
391.1882,391.43695,56,108,0
391.4867,392.0091,28,108,0
391.4867,392.0091,40,108,0
392.0837,392.3325,31,108,0
392.0837,392.3325,43,108,0
392.38223,392.9046,28,108,0
392.38223,392.9046,40,108,0
392.97925,393.228,32,108,0
392.97925,393.228,44,108,0
393.27774,393.80014,28,108,0
393.27774,393.80014,40,108,0
393.87476,394.1235,30,108,0
393.87476,394.1235,42,108,0
394.17328,394.31943,51,108,0
394.17328,394.31943,59,108,0
394.3225,394.46866,66,108,0
395.0688,395.21494,52,108,0
395.0688,395.21494,59,108,0
395.21805,395.3642,64,108,0
395.96432,396.11044,54,108,0
395.96432,396.11044,59,108,0
396.11356,396.2597,63,108,0
396.85983,397.00598,52,108,0
396.85983,397.00598,59,108,0
397.0091,397.15524,64,108,0
397.75534,397.9015,51,108,0
397.75534,397.9015,60,108,0
397.9046,398.05075,66,108,0
398.65088,398.79703,52,108,0
398.65088,398.79703,60,108,0
398.80014,398.94626,64,108,0
399.5464,399.69254,53,108,0
399.5464,399.69254,60,108,0
399.69565,399.8418,64,108,0
400.44193,401.03894,57,108,0
401.03894,401.2877,59,108,0
400.44193,401.2877,63,108,0
400.44193,402.13666,54,108,0
401.33743,402.13666,60,108,0
401.33743,402.13666,62,108,0
402.2098,402.35312,55,108,0
402.2098,402.35312,59,108,0
402.35617,402.49945,66,108,0
403.0917,403.23642,55,108,0
403.0917,403.23642,62,108,0
403.2395,403.38467,66,108,0
403.9833,404.5833,59,108,0
404.5833,404.83456,61,108,0
403.9833,404.83456,65,108,0
403.9833,405.72046,56,108,0
404.8848,405.72046,62,108,0
404.8848,405.72046,64,108,0
405.79697,407.55835,33,108,0
405.79697,407.55835,45,108,0
407.63647,408.5016,33,108,0
407.63647,408.5016,45,108,0
409.5329,409.68832,43,108,0
409.69165,409.84708,48,108,0
409.85037,410.0058,52,108,0
410.0091,410.16452,55,108,0
410.16782,410.32324,60,108,0
410.32657,410.482,64,108,0
408.58054,411.3583,21,127,0
411.43768,413.26306,33,108,0
411.43768,413.26306,45,108,0
413.34244,414.21545,33,108,0
413.34244,414.21545,45,108,0
414.2948,417.0726,26,108,0
414.2948,417.0726,38,108,0
417.15195,418.02496,49,108,0
418.10434,419.92972,48,108,0
420.0091,422.78687,31,108,0
420.0091,422.78687,43,108,0
422.86624,423.73926,49,127,0
423.8186,425.644,48,108,0
425.72336,428.50116,31,108,0
425.72336,428.50116,43,108,0
428.5805,429.45352,30,108,0
428.5805,429.45352,42,108,0
430.644,430.79944,54,108,0
430.80273,430.95816,59,108,0
430.96146,431.11688,54,108,0
429.5329,431.2756,44,108,0
431.12018,431.2756,44,108,0
429.5329,431.35828,32,108,0
431.43765,432.31067,34,108,0
431.43765,432.31067,46,108,0
433.50113,433.65656,53,108,0
433.65988,433.8153,57,108,0
433.8186,433.97403,53,108,0
432.39005,434.13275,47,108,0
433.97733,434.13275,47,108,0
432.39005,434.21542,35,108,0
435.4059,435.5613,54,108,0
435.56464,435.72006,62,108,0
435.72336,435.87878,54,108,0
434.2948,436.0375,48,108,0
435.88208,436.0375,48,108,0
434.2948,436.12018,36,108,0
436.19955,437.07257,36,108,0
436.19955,437.07257,48,108,0
437.15192,438.02493,34,108,0
437.15192,438.02493,46,108,0
439.21542,439.37085,53,108,0
439.37415,439.52957,57,108,0
439.53287,439.6883,53,108,0
438.1043,439.84705,47,108,0
439.69162,439.84705,47,108,0
438.1043,439.92972,35,108,0
441.12018,441.2756,54,108,0
441.2789,441.43433,62,108,0
441.43765,441.59308,54,108,0
440.00906,441.7518,48,108,0
441.59637,441.7518,48,108,0
440.00906,441.83447,36,108,0
441.91382,442.78683,36,108,0
441.91382,442.78683,48,108,0
443.50113,443.7657,67,108,0
443.50113,444.37415,57,108,0
443.50113,444.37415,63,108,0
443.8186,444.37415,66,108,0
442.8662,444.71805,35,108,0
442.8662,444.71805,47,108,0
444.77097,445.64398,36,108,0
444.77097,445.64398,48,108,0
446.35828,446.62283,60,108,0
446.35828,447.2313,56,108,0
446.67572,447.2313,59,108,0
446.35828,447.2313,64,108,0
445.72336,447.5752,38,108,0
445.72336,447.5752,50,108,0
447.6281,448.50113,38,108,0
447.6281,448.50113,50,108,0
449.21542,449.47995,69,108,0
449.21542,450.08844,59,108,0
449.21542,450.08844,65,108,0
449.53287,450.08844,68,108,0
448.5805,450.43234,37,108,0
448.5805,450.43234,49,108,0
450.48526,451.35828,38,108,0
450.48526,451.35828,50,108,0
452.07254,452.3371,62,108,0
452.07254,452.94556,58,108,0
452.39,452.94556,61,108,0
452.07254,452.94556,66,108,0
451.43762,453.2895,40,108,0
451.43762,453.2895,52,108,0
453.34238,454.2154,40,108,0
453.34238,454.2154,52,108,0
454.9297,455.19424,71,108,0
454.9297,455.8027,61,108,0
454.9297,455.8027,67,108,0
455.24716,455.8027,70,108,0
454.29477,456.1466,39,108,0
454.29477,456.1466,51,108,0
456.19952,457.07254,40,108,0
456.19952,457.07254,52,108,0
457.78683,458.0514,64,108,0
457.78683,458.65985,60,108,0
458.10428,458.65985,63,108,0
457.78683,458.65985,68,108,0
457.15192,459.00375,42,108,0
457.15192,459.00375,54,108,0
459.05667,459.9297,41,108,0
459.05667,459.9297,53,108,0
460.64398,460.9085,61,108,0
460.64398,461.517,57,108,0
460.96143,461.517,60,108,0
460.64398,461.517,65,108,0
460.00906,461.8609,39,108,0
460.00906,461.8609,51,108,0
461.91382,462.78683,38,108,0
461.91382,462.78683,50,108,0
463.5011,463.76566,59,108,0
463.5011,464.3461,54,108,0
463.81857,464.3461,57,108,0
463.5011,464.3461,62,108,0
462.86618,464.6962,36,108,0
462.86618,464.6962,48,108,0
464.75183,465.7484,35,108,0
464.75183,465.7484,47,108,0
465.8473,466.04312,33,108,0
466.04727,466.24313,40,108,0
466.24728,466.4431,45,108,0
466.4473,466.64313,45,108,0
466.64728,466.8431,52,108,0
466.8473,467.04312,57,108,0
467.04727,467.24313,45,108,0
467.24728,467.4431,52,108,0
467.4473,467.64313,57,108,0
467.64728,467.8431,57,108,0
467.8473,468.04312,64,108,0
468.04727,468.24313,69,108,0
468.24728,468.58063,57,108,0
468.24728,468.58063,64,108,0
469.24728,469.7806,38,108,0
469.31396,469.7806,43,108,0
469.3806,469.7806,50,108,0
473.3992,473.63843,38,108,0
473.3992,473.63843,50,108,0
474.26044,474.35315,71,108,0
474.35614,474.44885,72,108,0
474.45184,474.54453,74,108,0
474.8346,474.9273,79,108,0
474.9303,475.023,81,108,0
475.026,475.11868,83,108,0
475.69586,475.9332,63,127,0
475.69586,475.9332,69,127,0
475.69586,475.9332,75,127,0
475.9806,476.07242,64,108,0
476.07538,476.1672,66,108,0
476.17017,476.262,68,108,0
476.54932,476.64114,71,108,0
476.6441,476.73593,73,108,0
476.7389,476.83072,75,108,0
477.40237,477.63934,54,127,0
477.40237,477.63934,62,127,0
477.40237,477.63934,66,127,0
477.68674,477.77856,71,108,0
477.78152,477.87335,72,108,0
477.8763,477.96814,74,108,0
478.2547,478.34567,79,108,0
478.3486,478.43958,81,108,0
478.4425,478.53345,83,108,0
479.09976,479.3345,63,127,0
479.09976,479.3345,69,127,0
479.09976,479.3345,75,127,0
479.38147,479.4724,64,108,0
479.47537,479.5663,66,108,0
479.56924,479.66022,68,108,0
479.94485,480.0358,71,108,0
480.03873,480.1297,73,108,0
480.13263,480.2236,75,108,0
480.78802,481.0206,54,127,0
480.78802,481.0206,62,127,0
480.78802,481.0206,66,127,0
481.0671,481.15723,65,108,0
481.16013,481.25024,71,108,0
481.25314,481.34326,74,108,0
481.62524,481.71536,77,108,0
481.71826,481.80838,83,108,0
481.81128,481.9014,86,108,0
482.46243,482.695,67,127,0
482.46243,482.695,75,127,0
482.46243,482.695,79,127,0
482.74152,482.83163,60,108,0
482.83453,482.92465,66,108,0
482.92755,483.01733,69,108,0
483.2967,483.386,72,108,0
483.3889,483.47815,78,108,0
483.48105,483.5703,81,108,0
484.1262,484.3566,62,127,0
484.1262,484.3566,70,127,0
484.1262,484.3566,74,127,0
484.40268,484.49197,65,108,0
484.49487,484.58414,71,108,0
484.58704,484.6763,74,108,0
484.9557,485.04498,77,108,0
485.04785,485.13715,83,108,0
485.14,485.2293,86,108,0
485.78122,486.00952,67,127,0
485.78122,486.00952,75,127,0
485.78122,486.00952,79,127,0
486.05518,486.14365,67,108,0
486.1465,486.235,73,108,0
486.23782,486.3263,76,108,0
486.60312,486.6916,79,108,0
486.69446,486.78293,85,108,0
486.78577,486.87424,88,108,0
487.42505,487.65335,69,127,0
487.42505,487.65335,77,127,0
487.42505,487.65335,81,127,0
487.699,487.7863,35,127,0
487.7891,487.87637,42,108,0
487.87918,487.96646,47,108,0
488.23956,488.3268,69,108,0
488.32965,488.4169,75,108,0
488.41974,488.50702,81,108,0
488.7801,488.86737,79,108,0
488.87018,488.95746,74,108,0
488.96027,489.04755,67,108,0
489.32062,489.4079,35,127,0
489.4107,489.498,42,108,0
489.50082,489.58807,47,108,0
489.86118,489.94846,69,108,0
489.95126,490.03854,75,108,0
490.04135,490.12863,81,108,0
490.4017,490.48898,79,108,0
490.4918,490.57907,74,108,0
490.58188,490.66916,67,108,0
490.94226,491.0295,55,127,0
491.03235,491.11963,58,108,0
491.12244,491.20972,64,108,0
491.4828,491.708,48,127,0
491.4828,491.708,56,127,0
491.4828,491.708,60,127,0
491.75305,491.84045,56,127,0
491.8433,491.93127,59,108,0
491.9341,492.02277,65,108,0
492.30408,492.54083,49,127,0
492.30408,492.54083,57,127,0
492.30408,492.54083,61,127,0
492.58868,492.68198,57,127,0
492.685,492.77893,60,108,0
492.78198,492.87668,66,108,0
493.17755,493.4311,50,127,0
493.17755,493.4311,58,127,0
493.17755,493.4311,62,127,0
493.4824,493.58243,58,127,0
493.58566,493.68646,61,108,0
493.68973,493.7914,67,108,0
494.11472,494.38763,51,127,0
494.11472,494.38763,59,127,0
494.11472,494.38763,63,127,0
494.4429,495.2638,26,108,0
494.4429,495.2638,38,108,0
495.3384,495.8608,38,108,0
495.3384,495.8608,50,108,0
495.93542,496.18417,41,108,0
495.93542,496.18417,53,108,0
496.23395,496.75632,42,108,0
496.23395,496.75632,54,108,0
496.83096,497.0797,38,108,0
496.83096,497.0797,50,108,0
497.12946,497.95035,26,108,0
497.12946,497.95035,38,108,0
498.025,498.54736,38,108,0
498.025,498.54736,50,108,0
498.622,498.87076,41,108,0
498.622,498.87076,53,108,0
498.9205,499.4429,42,108,0
498.9205,499.4429,54,108,0
499.51752,499.76627,38,108,0
499.51752,499.76627,50,108,0
499.816,500.3384,31,108,0
499.816,500.3384,43,108,0
500.41302,500.6618,35,108,0
500.41302,500.6618,47,108,0
500.71155,501.23392,38,108,0
500.71155,501.23392,50,108,0
501.30856,501.5573,35,108,0
501.30856,501.5573,47,108,0
501.60706,502.12946,31,108,0
501.60706,502.12946,43,108,0
502.20407,502.45282,35,108,0
502.20407,502.45282,47,108,0
502.5026,503.02496,38,108,0
502.5026,503.02496,50,108,0
503.0996,503.34836,35,108,0
503.0996,503.34836,47,108,0
503.3981,503.9205,31,108,0
503.3981,503.9205,43,108,0
503.99512,504.24387,38,108,0
503.99512,504.24387,50,108,0
504.29364,504.5424,43,108,0
504.29364,504.5424,55,108,0
504.59213,504.84088,50,108,0
504.59213,504.84088,62,108,0
504.89066,505.1394,47,108,0
504.89066,505.1394,59,108,0
505.18915,505.4379,43,108,0
505.18915,505.4379,55,108,0
505.48767,505.73642,38,108,0
505.48767,505.73642,50,108,0
505.78616,506.0349,47,108,0
505.78616,506.0349,59,108,0
506.08466,506.33344,43,108,0
506.08466,506.33344,55,108,0
506.38318,506.63193,38,108,0
506.38318,506.63193,50,108,0
506.68167,506.93045,35,108,0
506.68167,506.93045,47,108,0
506.9802,507.22894,31,108,0
506.9802,507.22894,43,108,0
507.8757,508.12448,43,108,0
507.8757,508.12448,50,108,0
507.8757,508.12448,55,108,0
507.8757,508.12448,59,108,0
508.77124,509.16925,31,108,0
508.77124,509.16925,43,108,0
