start_time,end_time,note_value,velocity,instrument_program_number
0.1788375,0.26825625,75,51,0
0.1788375,0.26825625,68,42,0
0.1788375,0.26825625,71,42,0
0.26825625,0.357675,66,51,0
0.53522867,0.62405443,68,42,0
0.53522867,0.62405443,71,42,0
0.53522867,0.62405443,75,51,0
0.62405443,0.7128802,66,51,0
0.8935162,0.98383415,71,42,0
0.8935162,0.98383415,68,42,0
0.8935162,0.98383415,75,51,0
0.98383415,1.0741521,66,51,0
1.2515122,1.3400444,75,52,0
1.2515122,1.3400444,71,44,0
1.2515122,1.3400444,68,44,0
1.3400444,1.4285767,66,52,0
1.6080027,1.6977156,71,44,0
1.6080027,1.6977156,75,52,0
1.6080027,1.6977156,68,44,0
1.6977156,1.7874286,66,52,0
1.9686756,2.0592992,75,52,0
1.9686756,2.0592992,71,44,0
1.9686756,2.0592992,68,44,0
2.0592992,2.1499226,66,52,0
2.3281546,2.4172707,87,51,0
2.3281546,2.4172707,83,42,0
2.3281546,2.4172707,77,42,0
2.4172707,2.5063868,85,51,0
2.6858127,2.7755256,77,42,0
2.6858127,2.7755256,83,42,0
2.6858127,2.7755256,87,51,0
2.7755256,2.8652387,85,51,0
3.0464857,3.1371093,77,42,0
3.0464857,3.1371093,83,42,0
3.0464857,3.1371093,87,51,0
3.1371093,3.2277327,85,51,0
3.4090238,3.499669,87,52,0
3.4090238,3.499669,77,44,0
3.4090238,3.499669,83,44,0
3.499669,3.5903146,85,52,0
3.7745333,3.8666425,77,44,0
3.7745333,3.8666425,83,44,0
3.7745333,3.8666425,87,52,0
3.8666425,3.9587517,85,52,0
4.147241,4.241486,83,44,0
4.147241,4.241486,77,44,0
4.147241,4.241486,87,52,0
4.241486,4.3357306,85,52,0
4.5028615,4.5934854,70,35,0
4.5028615,4.5934854,66,35,0
4.5028615,4.5934854,63,35,0
4.5934854,4.682598,61,35,0
4.8545437,4.8997216,66,35,0
4.8545437,4.8997216,70,35,0
4.8545437,4.8997216,61,35,0
5.2159677,5.261901,61,35,0
5.2159677,5.261901,66,35,0
5.2159677,5.261901,70,35,0
5.5637703,5.6543937,63,35,0
5.5637703,5.6543937,66,35,0
5.5637703,5.6543937,70,35,0
5.6543937,5.743507,61,35,0
5.915452,5.96063,66,35,0
5.915452,5.96063,61,35,0
5.915452,5.96063,70,35,0
6.276876,6.3220544,70,35,0
6.276876,6.3220544,66,35,0
6.276876,6.3220544,61,35,0
6.6383,6.727719,63,35,0
6.6383,6.727719,65,35,0
6.6383,6.727719,71,35,0
6.727719,6.8154507,61,35,0
6.9944882,7.0829234,71,36,0
6.9944882,7.0829234,63,36,0
6.9944882,7.0829234,65,36,0
7.0829234,7.171067,61,36,0
7.3464947,7.4389963,63,38,0
7.3464947,7.4389963,65,38,0
7.3464947,7.4389963,71,38,0
7.4389963,7.5314975,61,38,0
7.710335,7.7997537,65,39,0
7.710335,7.7997537,63,39,0
7.710335,7.7997537,71,39,0
7.7997537,7.8891726,61,39,0
8.071023,8.161949,71,41,0
8.071023,8.161949,65,41,0
8.071023,8.161949,63,41,0
8.161949,8.251359,61,42,0
8.434726,8.526592,65,43,0
8.434726,8.526592,71,43,0
8.434726,8.526592,63,43,0
8.526592,8.618459,61,44,0
8.787159,8.877783,70,35,0
8.787159,8.877783,66,35,0
8.787159,8.877783,63,35,0
8.877783,8.966896,61,35,0
9.139864,9.185042,70,35,0
9.139864,9.185042,66,35,0
9.139864,9.185042,61,35,0
9.501288,9.5473795,70,35,0
9.501288,9.5473795,61,35,0
9.501288,9.5473795,66,35,0
9.852785,9.943409,70,35,0
9.852785,9.943409,66,35,0
9.852785,9.943409,63,35,0
9.943409,10.032522,61,35,0
10.20549,10.250669,66,35,0
10.20549,10.250669,70,35,0
10.20549,10.250669,61,35,0
10.566915,10.612092,61,35,0
10.566915,10.612092,66,35,0
10.566915,10.612092,70,35,0
10.929478,11.020101,63,35,0
10.929478,11.020101,65,35,0
10.929478,11.020101,71,35,0
11.020101,11.110724,61,35,0
11.289163,11.377792,65,36,0
11.289163,11.377792,63,36,0
11.289163,11.377792,71,36,0
11.377792,11.465937,61,36,0
11.640983,11.733799,71,38,0
11.640983,11.733799,65,38,0
11.640983,11.733799,63,38,0
11.733799,11.826614,61,38,0
12.008466,12.099391,65,39,0
12.008466,12.099391,71,39,0
12.008466,12.099391,63,39,0
12.099391,12.190316,61,39,0
12.372168,12.463093,71,41,0
12.372168,12.463093,65,41,0
12.372168,12.463093,63,41,0
12.463093,12.554019,61,42,0
12.738384,12.830567,71,43,0
12.738384,12.830567,65,43,0
12.738384,12.830567,63,43,0
12.830567,12.92275,61,44,0
12.92275,13.195527,66,58,0
12.92275,13.195527,61,58,0
13.195527,13.286452,70,55,0
13.195527,13.286452,66,55,0
13.286452,13.376872,73,57,0
13.286452,13.376872,70,57,0
13.467804,13.55936,78,61,0
13.467804,13.55936,73,61,0
13.651437,13.744148,82,66,0
13.651437,13.744148,78,66,0
13.837505,13.931409,82,63,0
13.837505,13.931409,85,63,0
14.025974,14.216221,85,76,0
14.025974,14.216221,90,76,0
14.406467,14.786961,90,85,0
14.406467,14.786961,97,85,0
14.406467,14.786961,102,85,0
15.190626,15.421094,90,67,0
15.190626,15.421094,78,67,0
15.421094,15.621535,80,69,0
15.421094,15.621535,92,69,0
15.621535,16.03255,94,71,0
15.621535,16.03255,82,71,0
16.03255,16.219805,92,68,0
16.03255,16.219805,80,68,0
16.316948,16.36552,92,53,0
16.219805,16.36552,90,65,0
16.219805,16.36552,78,65,0
16.316948,16.36552,80,53,0
16.36552,16.414091,94,53,0
16.36552,16.414091,82,53,0
16.414091,16.804007,80,68,0
16.414091,16.804007,92,68,0
16.804007,16.991882,90,59,0
16.804007,16.991882,78,59,0
16.991882,17.1875,75,57,0
16.991882,17.1875,87,57,0
17.1875,17.597055,85,55,0
17.1875,17.597055,73,55,0
17.597055,17.79821,80,62,0
17.597055,17.79821,68,62,0
17.79821,17.992498,70,64,0
17.79821,17.992498,82,64,0
17.597055,17.992498,74,62,0
17.992498,18.394804,83,66,0
17.992498,18.394804,74,66,0
17.992498,18.394804,71,66,0
18.394804,18.600311,68,59,0
18.394804,18.600311,80,59,0
18.600311,18.820108,70,53,0
18.600311,18.820108,82,53,0
18.394804,18.820108,73,59,0
18.820108,19.02863,66,62,0
18.820108,19.02863,70,62,0
18.820108,19.02863,78,62,0
19.02863,19.119253,70,35,0
19.02863,19.119253,66,35,0
19.02863,19.119253,63,35,0
19.119253,19.209877,61,35,0
19.37981,19.424988,70,35,0
19.37981,19.424988,66,35,0
19.37981,19.424988,61,35,0
19.741234,19.787167,70,35,0
19.741234,19.787167,61,35,0
19.741234,19.787167,66,35,0
20.089037,20.17966,70,35,0
20.089037,20.17966,66,35,0
20.089037,20.17966,63,35,0
20.17966,20.268772,61,35,0
20.441742,20.48692,66,35,0
20.441742,20.48692,70,35,0
20.441742,20.48692,61,35,0
20.803165,20.848343,61,35,0
20.803165,20.848343,66,35,0
20.803165,20.848343,70,35,0
21.164589,21.254007,63,35,0
21.164589,21.254007,65,35,0
21.164589,21.254007,71,35,0
21.254007,21.343225,61,35,0
21.520779,21.609213,65,36,0
21.520779,21.609213,63,36,0
21.520779,21.609213,71,36,0
21.609213,21.697357,61,36,0
21.872784,21.965286,71,38,0
21.872784,21.965286,65,38,0
21.872784,21.965286,63,38,0
21.965286,22.057787,61,38,0
22.236624,22.326042,65,39,0
22.236624,22.326042,71,39,0
22.236624,22.326042,63,39,0
22.326042,22.415462,61,39,0
22.597313,22.688238,71,41,0
22.597313,22.688238,65,41,0
22.597313,22.688238,63,41,0
22.688238,22.779163,61,42,0
22.961014,23.052881,71,43,0
22.961014,23.052881,65,43,0
22.961014,23.052881,63,43,0
23.052881,23.144749,61,44,0
23.313448,23.404072,63,35,0
23.313448,23.404072,66,35,0
23.313448,23.404072,70,35,0
23.404072,23.493185,61,35,0
23.666153,23.711332,61,35,0
23.666153,23.711332,66,35,0
23.666153,23.711332,70,35,0
24.027578,24.07367,66,35,0
24.027578,24.07367,61,35,0
24.027578,24.07367,70,35,0
24.379074,24.469698,70,35,0
24.379074,24.469698,66,35,0
24.379074,24.469698,63,35,0
24.469698,24.558811,61,35,0
24.733341,24.777239,70,35,0
24.733341,24.777239,66,35,0
24.733341,24.777239,61,35,0
25.093485,25.138662,70,35,0
25.093485,25.138662,61,35,0
25.093485,25.138662,66,35,0
25.456047,25.54667,71,35,0
25.456047,25.54667,65,35,0
25.456047,25.54667,63,35,0
25.54667,25.637295,61,35,0
25.815733,25.904362,65,36,0
25.815733,25.904362,71,36,0
25.815733,25.904362,63,36,0
25.904362,25.992506,61,36,0
26.167553,26.260368,71,38,0
26.167553,26.260368,65,38,0
26.167553,26.260368,63,38,0
26.260368,26.353184,61,38,0
26.535036,26.625961,71,39,0
26.535036,26.625961,65,39,0
26.535036,26.625961,63,39,0
26.625961,26.716887,61,39,0
26.898737,26.989662,63,41,0
26.898737,26.989662,65,41,0
26.898737,26.989662,71,41,0
26.989662,27.079073,61,42,0
27.264954,27.357138,63,43,0
27.264954,27.357138,65,43,0
27.264954,27.357138,71,43,0
27.357138,27.44932,61,44,0
27.44932,27.722097,61,58,0
27.44932,27.722097,66,58,0
27.722097,27.813023,70,55,0
27.722097,27.813023,66,55,0
27.813023,27.903442,73,57,0
27.813023,27.903442,70,57,0
27.994373,28.08593,78,61,0
27.994373,28.08593,73,61,0
28.178007,28.270718,82,66,0
28.178007,28.270718,78,66,0
28.364075,28.45798,82,63,0
28.364075,28.45798,85,63,0
28.552544,28.74279,85,76,0
28.552544,28.74279,90,76,0
28.933037,29.31353,102,85,0
28.933037,29.31353,97,85,0
28.933037,29.31353,90,85,0
29.694023,29.924492,90,61,0
29.694023,29.924492,78,61,0
29.924492,30.124931,80,63,0
29.924492,30.124931,92,63,0
30.124931,30.535948,94,66,0
30.124931,30.535948,82,66,0
30.535948,30.723202,92,62,0
30.535948,30.723202,80,62,0
30.820345,30.868917,80,49,0
30.723202,30.868917,78,60,0
30.723202,30.868917,90,60,0
30.820345,30.868917,92,49,0
30.868917,30.91749,94,49,0
30.868917,30.91749,82,49,0
30.91749,31.307404,80,62,0
30.91749,31.307404,92,62,0
31.307404,31.49528,90,58,0
31.307404,31.49528,78,58,0
31.49528,31.690897,77,56,0
31.49528,31.690897,89,56,0
31.690897,32.100452,87,53,0
31.690897,32.100452,75,53,0
32.300896,32.49386,77,54,0
32.49386,32.896164,75,62,0
32.100452,32.896164,66,57,0
32.896164,33.10242,72,60,0
33.10242,33.322216,80,56,0
32.896164,33.322216,66,60,0
33.322216,33.53074,65,57,0
33.322216,33.53074,77,57,0
33.53074,33.621365,65,35,0
33.53074,33.621365,61,35,0
33.53074,33.621365,58,35,0
33.621365,33.70821,56,35,0
33.88192,33.927097,65,35,0
33.88192,33.927097,61,35,0
33.88192,33.927097,56,35,0
34.243343,34.289276,65,35,0
34.243343,34.289276,56,35,0
34.243343,34.289276,61,35,0
34.591145,34.68177,65,35,0
34.591145,34.68177,61,35,0
34.591145,34.68177,58,35,0
34.68177,34.76484,56,35,0
34.94385,34.98903,61,35,0
34.94385,34.98903,65,35,0
34.94385,34.98903,56,35,0
35.305275,35.350452,56,35,0
35.305275,35.350452,61,35,0
35.305275,35.350452,65,35,0
35.6667,35.75612,58,35,0
35.6667,35.75612,60,35,0
35.6667,35.75612,66,35,0
35.75612,35.83791,56,35,0
36.02289,36.11132,60,36,0
36.02289,36.11132,58,36,0
36.02289,36.11132,66,36,0
36.11132,36.199467,56,36,0
36.374893,36.467396,66,38,0
36.374893,36.467396,60,38,0
36.374893,36.467396,58,38,0
36.467396,36.559895,56,38,0
36.738735,36.82815,60,39,0
36.738735,36.82815,66,39,0
36.738735,36.82815,58,39,0
36.82815,36.917572,56,39,0
37.099422,37.190346,66,41,0
37.099422,37.190346,60,41,0
37.099422,37.190346,58,41,0
37.190346,37.273697,56,42,0
37.463123,37.55499,66,43,0
37.463123,37.55499,60,43,0
37.463123,37.55499,58,43,0
37.55499,37.64686,56,44,0
37.81556,37.90618,58,35,0
37.81556,37.90618,61,35,0
37.81556,37.90618,65,35,0
37.90618,37.989254,56,35,0
38.168262,38.21344,56,35,0
38.168262,38.21344,61,35,0
38.168262,38.21344,65,35,0
38.529686,38.57578,61,35,0
38.529686,38.57578,56,35,0
38.529686,38.57578,65,35,0
38.881184,38.971806,65,35,0
38.881184,38.971806,61,35,0
38.881184,38.971806,58,35,0
38.971806,39.05488,56,35,0
39.23545,39.279346,65,35,0
39.23545,39.279346,61,35,0
39.23545,39.279346,56,35,0
39.595592,39.64077,65,35,0
39.595592,39.64077,56,35,0
39.595592,39.64077,61,35,0
39.958157,40.04878,66,35,0
39.958157,40.04878,60,35,0
39.958157,40.04878,58,35,0
40.04878,40.13185,56,35,0
40.31784,40.40647,60,36,0
40.31784,40.40647,66,36,0
40.31784,40.40647,58,36,0
40.40647,40.494614,56,36,0
40.669662,40.762478,66,38,0
40.669662,40.762478,60,38,0
40.669662,40.762478,58,38,0
40.762478,40.855293,56,38,0
41.037144,41.12807,66,39,0
41.037144,41.12807,60,39,0
41.037144,41.12807,58,39,0
41.12807,41.218994,56,39,0
41.40085,41.49177,58,41,0
41.40085,41.49177,60,41,0
41.40085,41.49177,66,41,0
41.49177,41.57512,56,42,0
41.767063,41.859245,58,43,0
41.767063,41.859245,60,43,0
41.767063,41.859245,66,43,0
41.859245,41.95143,56,44,0
41.95143,42.224205,56,58,0
41.95143,42.224205,61,58,0
42.224205,42.313618,61,55,0
42.224205,42.315132,65,55,0
42.315132,42.405552,68,57,0
42.315132,42.405552,65,57,0
42.496483,42.58804,73,61,0
42.496483,42.58804,68,61,0
42.680115,42.772827,77,66,0
42.680115,42.772827,73,66,0
42.866184,42.960087,77,63,0
42.866184,42.960087,80,63,0
43.054653,43.2449,80,76,0
43.054653,43.2449,85,76,0
43.054653,43.2449,73,76,0
43.435146,43.81564,85,85,0
43.435146,43.81564,89,85,0
43.435146,43.81564,97,85,0
44.196133,44.4266,87,61,0
44.196133,44.4266,75,61,0
44.4266,44.62704,77,63,0
44.4266,44.62704,89,63,0
44.62704,45.038055,90,66,0
44.62704,45.038055,78,66,0
45.038055,45.22531,92,62,0
45.038055,45.22531,80,62,0
45.322456,45.371025,89,49,0
45.22531,45.371025,90,60,0
45.22531,45.371025,78,60,0
45.322456,45.371025,77,49,0
45.371025,45.419598,90,49,0
45.371025,45.419598,78,49,0
45.419598,45.809513,77,62,0
45.419598,45.809513,89,62,0
45.809513,45.997387,87,55,0
45.809513,45.997387,75,55,0
45.997387,46.193005,77,52,0
45.997387,46.193005,89,52,0
46.193005,46.602562,85,50,0
46.193005,46.602562,73,50,0
46.602562,46.803715,82,52,0
46.602562,46.803715,70,52,0
46.803715,46.998005,73,54,0
46.803715,46.998005,85,54,0
46.602562,46.998005,76,52,0
46.998005,47.40031,83,56,0
46.998005,47.40031,75,56,0
46.998005,47.40031,71,56,0
47.40031,47.60582,68,50,0
47.40031,47.60582,80,50,0
47.60582,47.825615,70,45,0
47.60582,47.825615,82,45,0
47.40031,47.825615,73,50,0
47.825615,48.034138,66,52,0
47.825615,48.034138,70,52,0
47.825615,48.034138,78,52,0
48.034138,48.12476,70,35,0
48.034138,48.12476,66,35,0
48.034138,48.12476,63,35,0
48.12476,48.207832,61,35,0
48.385315,48.430496,70,35,0
48.385315,48.430496,66,35,0
48.385315,48.430496,61,35,0
48.746742,48.792675,70,35,0
48.746742,48.792675,61,35,0
48.746742,48.792675,66,35,0
49.094543,49.185165,70,35,0
49.094543,49.185165,66,35,0
49.094543,49.185165,63,35,0
49.185165,49.268238,61,35,0
49.447247,49.492428,66,35,0
49.447247,49.492428,70,35,0
49.447247,49.492428,61,35,0
49.808674,49.85385,61,35,0
49.808674,49.85385,66,35,0
49.808674,49.85385,70,35,0
50.170097,50.259514,63,35,0
50.170097,50.259514,65,35,0
50.170097,50.259514,71,35,0
50.259514,50.341305,61,35,0
50.526283,50.61472,65,36,0
50.526283,50.61472,63,36,0
50.526283,50.61472,71,36,0
50.61472,50.70286,61,36,0
50.878292,50.97079,71,38,0
50.878292,50.97079,65,38,0
50.878292,50.97079,63,38,0
50.97079,51.063293,61,38,0
51.24213,51.33155,65,39,0
51.24213,51.33155,71,39,0
51.24213,51.33155,63,39,0
51.33155,51.420967,61,39,0
51.602818,51.693745,71,41,0
51.602818,51.693745,65,41,0
51.602818,51.693745,63,41,0
51.693745,51.78467,61,42,0
51.966522,52.058388,71,43,0
51.966522,52.058388,65,43,0
51.966522,52.058388,63,43,0
52.058388,52.150253,61,44,0
52.318954,52.40958,63,35,0
52.318954,52.40958,66,35,0
52.318954,52.40958,70,35,0
52.40958,52.49265,61,35,0
52.67166,52.71684,61,35,0
52.67166,52.71684,66,35,0
52.67166,52.71684,70,35,0
53.033085,53.079174,66,35,0
53.033085,53.079174,61,35,0
53.033085,53.079174,70,35,0
53.384583,53.475204,70,35,0
53.384583,53.475204,66,35,0
53.384583,53.475204,63,35,0
53.475204,53.558277,61,35,0
53.73885,53.782745,70,35,0
53.73885,53.782745,66,35,0
53.73885,53.782745,61,35,0
54.09899,54.14417,70,35,0
54.09899,54.14417,61,35,0
54.09899,54.14417,66,35,0
54.461555,54.552177,71,35,0
54.461555,54.552177,65,35,0
54.461555,54.552177,63,35,0
54.552177,54.63525,61,35,0
54.82124,54.90987,65,36,0
54.82124,54.90987,71,36,0
54.82124,54.90987,63,36,0
54.90987,54.998013,61,36,0
55.173058,55.265877,71,38,0
55.173058,55.265877,65,38,0
55.173058,55.265877,63,38,0
55.265877,55.358692,61,38,0
55.540543,55.631466,71,39,0
55.540543,55.631466,65,39,0
55.540543,55.631466,63,39,0
55.631466,55.722393,61,39,0
55.904243,55.99517,63,41,0
55.904243,55.99517,65,41,0
55.904243,55.99517,71,41,0
55.99517,56.086094,61,42,0
56.270462,56.362644,63,43,0
56.270462,56.362644,65,43,0
56.270462,56.362644,71,43,0
56.362644,56.454826,61,44,0
56.454826,56.727604,61,58,0
56.454826,56.727604,66,58,0
56.727604,56.818527,70,55,0
56.727604,56.818527,66,55,0
56.818527,56.908947,73,57,0
56.818527,56.908947,70,57,0
56.99988,57.091434,78,61,0
56.99988,57.091434,73,61,0
57.183514,57.276226,82,66,0
57.183514,57.276226,78,66,0
57.369583,57.463486,82,63,0
57.369583,57.463486,85,63,0
57.558052,57.7483,85,76,0
57.558052,57.7483,90,76,0
57.938545,58.31904,102,85,0
57.938545,58.31904,97,85,0
57.938545,58.31904,90,85,0
58.69953,58.79076,66,50,0
58.69953,58.79076,61,50,0
58.88199,58.975002,68,46,0
58.88199,58.975002,66,46,0
59.068012,59.44006,69,53,0
59.068012,59.44006,66,53,0
59.44006,59.531578,71,48,0
59.44006,59.531578,66,48,0
59.623096,59.71861,69,44,0
59.623096,59.71861,66,37,0
59.71861,59.763786,68,37,0
59.763786,59.808964,69,37,0
59.808964,60.196213,68,47,0
59.808964,60.196213,65,39,0
60.196213,60.385967,74,61,0
60.385967,60.581585,73,57,0
60.196213,60.581585,71,61,0
60.581585,60.97282,78,60,0
60.581585,60.97282,69,60,0
60.97282,61.162575,77,61,0
61.162575,61.3666,81,59,0
60.97282,61.3666,72,50,0
60.97282,61.3666,69,50,0
61.3666,61.753845,81,56,0
61.3666,61.753845,73,45,0
61.3666,61.753845,69,45,0
61.753845,62.148483,76,55,0
61.753845,62.148483,72,45,0
61.753845,62.148483,68,45,0
62.337605,62.429123,73,38,0
62.337605,62.429123,69,38,0
62.337605,62.429123,66,38,0
62.429123,62.513016,64,38,0
62.693146,62.738323,73,38,0
62.693146,62.738323,69,38,0
62.693146,62.738323,64,38,0
63.05869,63.10693,76,38,0
63.05869,63.10693,69,38,0
63.05869,63.10693,64,38,0
63.05869,63.10693,73,38,0
63.26422,63.35545,73,55,0
63.26422,63.35545,69,45,0
63.446682,63.539692,74,50,0
63.446682,63.539692,69,41,0
63.632706,64.00475,76,58,0
63.632706,64.00475,70,47,0
64.00475,64.09627,77,52,0
64.00475,64.09627,70,48,0
64.18779,64.2833,76,48,0
64.18779,64.2833,70,37,0
64.2833,64.32862,74,46,0
64.32862,64.37395,76,45,0
64.37395,64.76119,74,57,0
64.37395,64.76119,70,44,0
64.76119,64.856705,72,54,0
64.76119,64.856705,65,54,0
64.95222,65.050705,70,50,0
64.95222,65.050705,65,50,0
65.14919,65.54043,69,55,0
65.14919,65.54043,64,55,0
65.54043,65.72892,76,57,0
65.72892,65.925896,77,61,0
65.54043,65.925896,70,46,0
65.925896,66.31054,79,66,0
65.925896,66.31054,76,60,0
65.925896,66.31054,70,54,0
66.31054,66.50286,70,49,0
66.50286,66.71063,69,53,0
66.31054,66.71063,73,60,0
66.31054,66.71063,67,49,0
66.901024,66.99254,77,45,0
66.901024,66.99254,74,45,0
66.901024,66.99254,70,45,0
66.99254,67.08406,69,45,0
67.25814,67.304054,77,45,0
67.25814,67.304054,74,45,0
67.25814,67.304054,69,45,0
67.630264,67.67968,81,45,0
67.630264,67.67968,74,45,0
67.630264,67.67968,69,45,0
67.630264,67.67968,77,45,0
67.83814,67.929375,74,55,0
67.83814,67.929375,71,45,0
67.83814,67.929375,69,45,0
68.02061,68.11362,76,50,0
68.02061,68.11362,71,41,0
68.02061,68.11362,69,41,0
68.20663,68.578674,77,58,0
68.20663,68.578674,71,47,0
68.20663,68.578674,69,47,0
68.578674,68.6702,76,52,0
68.578674,68.6702,69,48,0
68.578674,68.6702,71,48,0
68.76171,68.85722,74,48,0
68.76171,68.85722,71,37,0
68.76171,68.85722,69,37,0
68.85722,68.90255,72,46,0
68.90255,68.94787,74,45,0
68.94787,69.33511,72,57,0
68.94787,69.33511,69,44,0
68.94787,69.33511,65,44,0
69.33511,69.52614,71,54,0
69.33511,69.52614,69,54,0
69.33511,69.52614,65,54,0
69.52614,69.72312,72,50,0
69.52614,69.72312,69,50,0
69.52614,69.72312,65,50,0
69.72312,70.11436,74,55,0
69.72312,70.11436,69,55,0
69.72312,70.11436,65,55,0
70.11436,70.30284,69,57,0
70.30284,70.50615,71,61,0
70.11436,70.50615,63,46,0
70.50615,70.89079,72,66,0
70.50615,70.89079,69,60,0
70.50615,70.89079,63,54,0
70.89079,71.29493,71,60,0
70.89079,71.29493,57,41,0
70.89079,71.29493,66,49,0
70.89079,71.29493,63,49,0
70.89079,71.29493,59,41,0
71.48988,71.583206,68,45,0
71.48988,71.583206,64,45,0
71.48988,71.583206,61,45,0
71.583206,71.67652,59,45,0
71.85168,71.89744,68,45,0
71.85168,71.89744,64,45,0
71.85168,71.89744,59,45,0
72.22197,72.27155,71,45,0
72.22197,72.27155,64,45,0
72.22197,72.27155,59,45,0
72.22197,72.27155,68,45,0
72.626,72.81512,76,63,0
72.626,72.81512,74,63,0
72.626,72.81512,64,63,0
72.81512,72.99875,78,67,0
72.81512,72.99875,66,67,0
72.99875,73.18662,80,63,0
72.99875,73.18662,68,63,0
73.18662,73.374504,78,68,0
73.18662,73.374504,74,68,0
73.374504,73.56747,76,63,0
73.374504,73.56747,72,63,0
73.18662,73.56747,68,68,0
73.56747,73.756584,76,67,0
73.56747,73.756584,69,56,0
73.56747,73.756584,64,56,0
73.756584,73.84811,72,63,0
73.756584,73.84811,68,53,0
73.93962,74.03085,73,67,0
73.93962,74.03085,69,56,0
74.12237,74.21419,76,70,0
74.12237,74.21419,73,59,0
74.3063,74.39871,81,74,0
74.3063,74.39871,76,62,0
74.491425,74.584435,81,66,0
74.491425,74.584435,85,78,0
74.67776,74.86815,81,68,0
74.67776,74.86815,88,81,0
74.86815,75.06243,76,55,0
74.86815,75.06243,85,65,0
75.06243,75.25672,76,74,0
75.06243,75.25672,69,64,0
75.25672,75.453705,73,64,0
75.25672,75.453705,64,54,0
75.453705,75.6441,80,77,0
75.6441,75.83449,71,70,0
75.453705,75.83449,69,63,0
75.83449,76.02944,76,76,0
75.83449,76.02944,68,76,0
75.83449,76.02944,64,64,0
76.224396,76.41936,76,80,0
76.224396,76.41936,80,81,0
76.224396,76.41936,88,97,0
77.17136,77.26198,64,35,0
77.17136,77.26198,60,35,0
77.17136,77.26198,57,35,0
77.26198,77.345055,55,35,0
77.52304,77.568214,64,35,0
77.52304,77.568214,60,35,0
77.52304,77.568214,55,35,0
77.88446,77.9304,64,35,0
77.88446,77.9304,60,35,0
77.88446,77.9304,55,35,0
78.23227,78.32289,64,35,0
78.23227,78.32289,60,35,0
78.23227,78.32289,57,35,0
78.32289,78.40596,55,35,0
78.58395,78.62913,64,35,0
78.58395,78.62913,60,35,0
78.58395,78.62913,55,35,0
78.94537,78.99055,64,35,0
78.94537,78.99055,60,35,0
78.94537,78.99055,55,35,0
79.30679,79.39622,65,35,0
79.30679,79.39622,59,35,0
79.30679,79.39622,57,35,0
79.39622,79.478004,55,35,0
79.66299,79.75142,65,36,0
79.66299,79.75142,59,36,0
79.66299,79.75142,57,36,0
79.75142,79.83956,55,36,0
80.01499,80.10749,65,38,0
80.01499,80.10749,59,38,0
80.01499,80.10749,57,38,0
80.10749,80.2,55,38,0
80.37883,80.46825,65,39,0
80.37883,80.46825,59,39,0
80.37883,80.46825,57,39,0
80.46825,80.55767,55,39,0
80.73952,80.830444,65,41,0
80.73952,80.830444,59,41,0
80.73952,80.830444,57,41,0
80.830444,80.913795,55,42,0
81.10322,81.19509,65,43,0
81.10322,81.19509,59,43,0
81.10322,81.19509,57,43,0
81.19509,81.28696,55,44,0
81.45409,81.54471,64,29,0
81.45409,81.54471,60,29,0
81.45409,81.54471,57,29,0
81.54471,81.627785,55,29,0
81.80577,81.850945,64,29,0
81.80577,81.850945,60,29,0
81.80577,81.850945,55,29,0
82.16719,82.21313,64,29,0
82.16719,82.21313,60,29,0
82.16719,82.21313,55,29,0
82.51499,82.60562,64,29,0
82.51499,82.60562,60,29,0
82.51499,82.60562,57,29,0
82.60562,82.68869,55,29,0
82.86668,82.91186,64,29,0
82.86668,82.91186,60,29,0
82.86668,82.91186,55,29,0
83.2281,83.27328,64,29,0
83.2281,83.27328,60,29,0
83.2281,83.27328,55,29,0
83.58952,83.67894,65,29,0
83.58952,83.67894,59,29,0
83.58952,83.67894,57,29,0
83.67894,83.760735,55,29,0
83.94571,84.03415,65,30,0
83.94571,84.03415,59,30,0
83.94571,84.03415,57,30,0
84.03415,84.12229,55,30,0
84.29772,84.39022,65,32,0
84.29772,84.39022,59,32,0
84.29772,84.39022,57,32,0
84.39022,84.48272,55,32,0
84.66156,84.75098,65,33,0
84.66156,84.75098,59,33,0
84.66156,84.75098,57,33,0
84.75098,84.8404,55,33,0
85.02225,85.113174,65,34,0
85.02225,85.113174,59,34,0
85.02225,85.113174,57,34,0
85.113174,85.2041,55,35,0
85.38595,85.47781,65,36,0
85.38595,85.47781,59,36,0
85.38595,85.47781,57,36,0
85.47781,85.56969,55,37,0
85.56969,85.66182,72,54,0
85.56969,85.66182,84,54,0
85.75396,85.84218,74,56,0
85.75396,85.84218,86,56,0
85.9304,86.28565,88,59,0
85.9304,86.28565,76,59,0
86.28565,86.37377,86,55,0
86.28565,86.37377,74,55,0
86.46189,86.552246,84,51,0
86.46189,86.552246,72,51,0
86.552246,86.59743,86,44,0
86.552246,86.59743,74,44,0
86.59743,86.6426,88,44,0
86.59743,86.6426,76,44,0
86.6426,86.997856,74,55,0
86.6426,86.997856,86,55,0
86.997856,87.085976,84,52,0
86.997856,87.085976,72,52,0
87.174095,87.26533,79,50,0
87.174095,87.26533,67,50,0
87.35656,87.53445,76,56,0
87.35656,87.53445,64,56,0
87.53445,87.715164,74,45,0
87.53445,87.715164,68,45,0
87.715164,87.8914,73,45,0
87.715164,87.8914,70,45,0
87.8914,88.07155,75,47,0
87.8914,88.07155,72,47,0
88.07155,88.248886,76,49,0
88.07155,88.248886,73,49,0
88.248886,88.42904,76,51,0
88.248886,88.42904,82,51,0
88.42904,88.60528,79,53,0
88.42904,88.60528,81,53,0
88.60528,88.78891,79,54,0
88.60528,88.78891,88,54,0
88.78891,88.9702,77,59,0
88.78891,88.9702,86,59,0
88.9702,89.149216,81,54,0
88.9702,89.149216,75,54,0
89.149216,89.32993,80,57,0
89.149216,89.32993,74,57,0
89.32993,89.51238,76,51,0
89.32993,89.51238,85,51,0
89.51238,89.882744,86,60,0
89.51238,89.882744,78,60,0
89.882744,89.974884,74,55,0
89.882744,89.974884,86,64,0
90.06702,90.155235,76,56,0
90.06702,90.155235,88,67,0
90.24346,90.60151,89,70,0
90.24346,90.60151,77,59,0
90.60151,90.68963,88,66,0
90.60151,90.68963,76,56,0
90.77775,90.8681,86,61,0
90.77775,90.8681,74,51,0
90.8681,90.913284,88,52,0
90.8681,90.913284,76,44,0
90.913284,90.95846,89,52,0
90.913284,90.95846,77,44,0
90.95846,91.31371,76,56,0
90.95846,91.31371,88,66,0
91.31371,91.40211,86,62,0
91.31371,91.40211,74,52,0
91.49049,91.581726,81,58,0
91.49049,91.581726,69,49,0
91.67296,91.762184,77,55,0
91.67296,91.762184,65,46,0
91.85141,92.0327,76,58,0
91.85141,92.0327,69,49,0
92.0327,92.20948,75,45,0
92.0327,92.20948,69,45,0
92.20948,92.39077,76,47,0
92.20948,92.39077,72,47,0
92.39077,92.56978,78,49,0
92.39077,92.56978,75,49,0
92.56978,92.751076,79,51,0
92.56978,92.751076,81,51,0
92.751076,92.92786,78,53,0
92.751076,92.92786,84,53,0
92.92786,93.112076,81,54,0
92.92786,93.112076,83,54,0
93.112076,93.29394,79,59,0
93.112076,93.29394,91,59,0
93.29394,93.47239,84,54,0
93.29394,93.47239,75,54,0
93.47239,93.652725,83,57,0
93.47239,93.652725,76,57,0
93.652725,93.834885,81,51,0
93.652725,93.834885,87,51,0
93.834885,94.20528,88,60,0
93.834885,94.20528,79,60,0
94.20528,94.29742,76,55,0
94.20528,94.29742,88,64,0
94.38955,94.47777,78,56,0
94.38955,94.47777,90,67,0
94.565994,94.927414,91,70,0
94.565994,94.927414,79,59,0
94.927414,95.01553,90,66,0
94.927414,95.01553,78,56,0
95.10366,95.194016,88,61,0
95.10366,95.194016,76,51,0
95.194016,95.23919,90,52,0
95.194016,95.23919,78,44,0
95.23919,95.28437,91,52,0
95.23919,95.28437,79,44,0
95.28437,95.63962,78,56,0
95.28437,95.63962,90,66,0
95.63962,95.729126,88,62,0
95.63962,95.729126,76,52,0
95.81863,95.90986,83,58,0
95.81863,95.90986,71,49,0
96.00109,96.367226,79,55,0
96.00109,96.367226,67,46,0
96.367226,96.459366,79,59,0
96.367226,96.459366,91,70,0
96.5515,96.63972,81,61,0
96.5515,96.63972,93,73,0
96.72794,97.08936,94,77,0
96.72794,97.08936,82,64,0
97.08936,97.17748,93,72,0
97.08936,97.17748,81,61,0
97.26561,97.355965,91,67,0
97.26561,97.355965,79,56,0
97.355965,97.40114,93,57,0
97.355965,97.40114,81,48,0
97.40114,97.44632,94,57,0
97.40114,97.44632,82,48,0
97.44632,97.80157,81,61,0
97.44632,97.80157,93,72,0
97.80157,97.891075,91,68,0
97.80157,97.891075,79,57,0
97.980576,98.07181,86,63,0
97.980576,98.07181,74,53,0
98.16304,98.529175,82,60,0
98.16304,98.529175,70,50,0
98.529175,98.621315,82,64,0
98.529175,98.621315,94,77,0
98.71345,98.80167,84,67,0
98.71345,98.80167,96,80,0
98.88989,98.98025,97,84,0
98.88989,98.98025,85,70,0
99.0706,99.16096,87,62,0
99.0706,99.16096,99,75,0
99.25131,99.33943,97,79,0
99.25131,99.33943,85,67,0
99.42756,99.517914,96,73,0
99.42756,99.517914,84,61,0
99.60827,99.69639,83,67,0
99.60827,99.69639,95,79,0
99.78451,99.874016,82,59,0
99.78451,99.874016,94,70,0
99.96352,100.053024,91,74,0
99.96352,100.053024,79,62,0
100.142525,100.23376,88,69,0
100.142525,100.23376,76,58,0
100.32499,100.41592,85,66,0
100.32499,100.41592,73,55,0
100.50685,100.59898,70,55,0
100.50685,100.59898,82,55,0
100.691124,100.77924,76,67,0
100.691124,100.77924,88,75,0
100.86737,100.95687,73,59,0
100.86737,100.95687,85,67,0
101.04638,101.13588,82,70,0
101.04638,101.13588,70,58,0
101.22539,101.31661,79,69,0
101.22539,101.31661,67,58,0
101.407845,101.49877,76,66,0
101.407845,101.49877,64,55,0
101.58971,101.68185,61,55,0
101.58971,101.68185,73,55,0
101.77398,101.8621,70,60,0
101.77398,101.8621,82,71,0
101.950226,102.04145,67,53,0
101.950226,102.04145,79,63,0
102.13268,102.22314,76,63,0
102.13268,102.22314,64,52,0
102.31436,102.40617,73,62,0
102.31436,102.40617,61,52,0
102.49889,102.686455,70,59,0
102.49889,102.686455,58,49,0
102.49889,102.686455,61,49,0
102.686455,102.87717,61,49,0
102.686455,102.87717,73,49,0
102.686455,102.87717,67,49,0
102.87717,103.06442,59,45,0
102.87717,103.06442,71,54,0
103.06442,103.24571,61,47,0
103.06442,103.24571,73,56,0
103.24571,103.60373,75,59,0
103.24571,103.60373,63,50,0
103.24571,103.60373,71,59,0
103.60373,103.78219,73,55,0
103.60373,103.78219,61,46,0
103.78219,103.965225,71,51,0
103.78219,103.965225,59,43,0
103.965225,104.32047,61,46,0
103.965225,104.32047,73,55,0
103.965225,104.32047,67,55,0
104.32047,104.49672,71,52,0
104.32047,104.49672,59,44,0
104.49672,104.67918,70,50,0
104.49672,104.67918,58,42,0
104.67918,105.04539,67,53,0
104.67918,105.04539,55,45,0
105.04539,105.22961,59,47,0
105.04539,105.22961,71,56,0
105.22961,105.40585,61,49,0
105.22961,105.40585,73,58,0
105.40585,105.7622,75,61,0
105.40585,105.7622,63,52,0
105.40585,105.7622,71,61,0
105.7622,105.94065,73,57,0
105.7622,105.94065,61,48,0
105.94065,106.123695,71,53,0
105.94065,106.123695,59,45,0
106.123695,106.47894,61,48,0
106.123695,106.47894,73,57,0
106.123695,106.47894,67,57,0
106.47894,106.65519,71,55,0
106.47894,106.65519,59,47,0
106.65519,106.83765,70,54,0
106.65519,106.83765,58,46,0
106.83765,107.20325,67,58,0
106.83765,107.20325,55,49,0
107.20325,107.38747,59,56,0
107.20325,107.38747,71,67,0
107.38747,107.563705,61,58,0
107.38747,107.563705,73,70,0
107.563705,107.92005,75,73,0
107.563705,107.92005,63,63,0
107.563705,107.92005,71,65,0
107.92005,108.09851,73,69,0
107.92005,108.09851,61,57,0
108.09851,108.28155,71,64,0
108.09851,108.28155,59,53,0
108.28155,108.46577,63,58,0
108.28155,108.46577,75,70,0
108.46577,108.642006,65,60,0
108.46577,108.642006,77,73,0
108.28155,108.642006,69,58,0
108.642006,108.99836,78,76,0
108.642006,108.99836,66,66,0
108.99836,109.087585,77,72,0
108.99836,109.087585,65,59,0
109.17681,109.26833,75,67,0
109.17681,109.26833,63,55,0
108.642006,109.35985,69,68,0
109.35985,109.45137,73,75,0
109.35985,109.45137,61,64,0
109.35985,109.45137,66,64,0
109.35985,109.45137,70,64,0
109.542885,109.632675,75,71,0
109.542885,109.632675,63,59,0
109.722466,109.81225,77,77,0
109.722466,109.81225,70,66,0
109.722466,109.81225,65,66,0
109.90204,109.99475,78,74,0
109.90204,109.99475,66,61,0
110.08746,110.1784,80,79,0
110.08746,110.1784,68,68,0
110.269325,110.36204,82,76,0
110.269325,110.36204,70,64,0
110.45475,110.54637,83,84,0
110.45475,110.54637,77,84,0
110.45475,110.54637,71,71,0
110.63859,110.7312,84,78,0
110.63859,110.7312,72,66,0
110.82431,110.91784,85,85,0
110.82431,110.91784,73,72,0
110.82431,110.91784,77,85,0
110.82431,110.91784,83,85,0
111.01188,111.106544,74,69,0
111.01188,111.106544,86,81,0
111.20163,111.29725,75,75,0
111.20163,111.29725,83,89,0
111.20163,111.29725,87,89,0
111.3933,111.48989,77,71,0
111.3933,111.48989,89,85,0
111.587036,111.782,85,61,0
111.587036,111.782,90,86,0
111.587036,111.782,78,61,0
111.782,111.96925,80,63,0
111.782,111.96925,92,89,0
111.96925,112.33183,94,94,0
111.96925,112.33183,82,68,0
111.96925,112.33183,85,79,0
112.33183,112.510284,92,88,0
112.33183,112.510284,80,62,0
112.510284,112.60181,90,81,0
112.510284,112.60181,78,57,0
112.60181,112.64757,92,75,0
112.64757,112.69333,94,75,0
112.69333,113.05305,80,62,0
112.69333,113.05305,92,88,0
112.69333,113.05305,86,88,0
113.05305,113.22929,90,83,0
113.05305,113.22929,78,59,0
113.22929,113.41175,88,80,0
113.22929,113.41175,76,56,0
113.41175,113.77796,86,84,0
113.41175,113.77796,74,61,0
113.41175,113.77796,78,61,0
113.77796,113.96159,78,64,0
113.77796,113.96159,82,64,0
113.77796,113.96159,73,64,0
113.77796,113.96159,85,76,0
113.96159,114.14581,75,66,0
113.96159,114.14581,87,78,0
114.14581,114.50839,89,80,0
114.14581,114.50839,77,68,0
114.14581,114.50839,82,68,0
114.50839,114.686844,87,76,0
114.50839,114.686844,75,64,0
114.686844,114.86989,85,70,0
114.686844,114.86989,73,59,0
114.86989,115.95452,71,55,0
114.86989,115.95452,83,65,0
114.86989,115.95452,74,55,0
115.95452,116.14491,85,61,0
115.95452,116.14491,90,86,0
115.95452,116.14491,78,61,0
116.14491,116.32913,80,63,0
116.14491,116.32913,92,89,0
116.32913,116.69171,94,94,0
116.32913,116.69171,82,68,0
116.32913,116.69171,85,79,0
116.69171,116.87017,92,88,0
116.69171,116.87017,80,62,0
116.87017,116.961685,90,81,0
116.87017,116.961685,78,57,0
116.961685,117.00745,92,75,0
117.00745,117.05321,94,75,0
117.05321,117.412926,80,62,0
117.05321,117.412926,92,88,0
117.05321,117.412926,86,88,0
117.412926,117.58917,90,83,0
117.412926,117.58917,78,59,0
117.58917,117.77163,88,80,0
117.58917,117.77163,76,56,0
117.77163,118.13784,86,84,0
117.77163,118.13784,74,61,0
117.77163,118.13784,78,61,0
118.13784,118.32147,78,64,0
118.13784,118.32147,82,64,0
118.13784,118.32147,73,64,0
118.13784,118.32147,85,76,0
118.32147,118.50569,75,66,0
118.32147,118.50569,87,78,0
118.50569,118.86827,89,80,0
118.50569,118.86827,77,68,0
118.50569,118.86827,82,68,0
118.86827,119.04673,87,76,0
118.86827,119.04673,75,64,0
119.04673,119.22977,85,70,0
119.04673,119.22977,73,59,0
119.22977,120.3144,71,55,0
119.22977,120.3144,83,65,0
119.22977,120.3144,74,55,0
120.48154,120.57216,70,35,0
120.48154,120.57216,66,35,0
120.48154,120.57216,63,35,0
120.57216,120.65523,61,35,0
120.83321,120.878395,70,35,0
120.83321,120.878395,66,35,0
120.83321,120.878395,61,35,0
121.19464,121.24057,70,35,0
121.19464,121.24057,66,35,0
121.19464,121.24057,61,35,0
121.55738,121.7416,85,60,0
121.55738,121.7416,83,53,0
121.55738,121.7416,77,47,0
121.55738,121.7416,73,44,0
121.7416,121.92289,87,68,0
121.7416,121.92289,75,48,0
121.92289,122.10418,89,64,0
121.92289,122.10418,77,54,0
122.10418,122.28264,87,68,0
122.10418,122.28264,75,57,0
122.28264,122.47051,85,65,0
122.28264,122.47051,73,55,0
122.63764,122.728264,70,35,0
122.63764,122.728264,66,35,0
122.63764,122.728264,63,35,0
122.728264,122.81134,61,35,0
122.98933,123.03451,70,35,0
122.98933,123.03451,66,35,0
122.98933,123.03451,61,35,0
123.35075,123.39741,70,35,0
123.35075,123.39741,66,35,0
123.35075,123.39741,61,35,0
123.7144,123.89556,85,60,0
123.7144,123.89556,83,49,0
123.7144,123.89556,77,46,0
123.7144,123.89556,73,44,0
123.89556,124.07462,87,68,0
123.89556,124.07462,75,48,0
124.07462,124.253685,89,64,0
124.07462,124.253685,77,54,0
124.253685,124.43214,87,68,0
124.253685,124.43214,75,57,0
124.43214,124.61517,85,65,0
124.43214,124.61517,73,55,0
124.7823,124.87293,70,35,0
124.7823,124.87293,66,35,0
124.7823,124.87293,63,35,0
124.87293,124.956,61,35,0
125.13399,125.17917,70,35,0
125.13399,125.17917,66,35,0
125.13399,125.17917,61,35,0
125.495415,125.54207,70,35,0
125.495415,125.54207,66,35,0
125.495415,125.54207,61,35,0
125.87372,125.96703,69,61,0
125.87372,125.96703,62,61,0
125.87372,125.96703,74,73,0
126.060356,126.15014,76,79,0
126.060356,126.15014,64,66,0
126.23993,126.33116,78,74,0
126.23993,126.33116,66,62,0
126.42239,126.51247,79,79,0
126.42239,126.51247,74,66,0
126.42239,126.51247,67,66,0
126.60254,126.69465,81,73,0
126.60254,126.69465,69,61,0
126.78676,126.87626,82,79,0
126.78676,126.87626,74,66,0
126.78676,126.87626,70,66,0
126.96577,127.05699,83,80,0
126.96577,127.05699,71,67,0
127.148224,127.24004,74,71,0
127.148224,127.24004,86,83,0
127.33266,127.42587,79,71,0
127.33266,127.42587,91,83,0
127.51971,127.61416,83,71,0
127.51971,127.61416,95,84,0
127.70925,127.80498,86,73,0
127.70925,127.80498,98,86,0
128.09949,128.19467,61,50,0
128.09949,128.19467,59,50,0
128.28987,128.38507,63,54,0
128.28987,128.38507,59,54,0
128.48027,128.57841,65,50,0
128.48027,128.57841,59,50,0
128.57841,128.62749,63,45,0
128.62749,128.67656,65,46,0
128.67656,128.77208,63,54,0
128.67656,128.77208,59,54,0
128.86758,128.96506,61,50,0
128.86758,128.96506,59,50,0
129.24677,129.33739,70,35,0
129.24677,129.33739,66,35,0
129.24677,129.33739,63,35,0
129.33739,129.42046,61,35,0
129.59843,129.64362,70,35,0
129.59843,129.64362,66,35,0
129.59843,129.64362,61,35,0
129.95987,130.0058,70,35,0
129.95987,130.0058,66,35,0
129.95987,130.0058,61,35,0
130.32062,130.5023,85,60,0
130.32062,130.5023,83,53,0
130.32062,130.5023,77,47,0
130.32062,130.5023,73,44,0
130.5023,130.68137,87,68,0
130.5023,130.68137,75,48,0
130.68137,130.86043,89,64,0
130.68137,130.86043,77,54,0
130.86043,131.03888,87,68,0
130.86043,131.03888,75,57,0
131.03888,131.22676,85,65,0
131.03888,131.22676,73,55,0
131.39389,131.48451,70,35,0
131.39389,131.48451,66,35,0
131.39389,131.48451,63,35,0
131.48451,131.56758,61,35,0
131.74557,131.79076,70,35,0
131.74557,131.79076,66,35,0
131.74557,131.79076,61,35,0
132.107,132.15366,70,35,0
132.107,132.15366,66,35,0
132.107,132.15366,61,35,0
132.47217,132.65495,85,60,0
132.47217,132.65495,83,49,0
132.47217,132.65495,77,46,0
132.47217,132.65495,73,44,0
132.65495,132.83453,87,68,0
132.65495,132.83453,75,48,0
132.83453,133.01411,89,64,0
132.83453,133.01411,77,54,0
133.01411,133.19258,87,68,0
133.01411,133.19258,75,57,0
133.19258,133.37561,85,65,0
133.19258,133.37561,73,55,0
133.54274,133.63336,70,35,0
133.54274,133.63336,66,35,0
133.54274,133.63336,63,35,0
133.63336,133.71645,61,35,0
133.89442,133.9396,70,35,0
133.89442,133.9396,66,35,0
133.89442,133.9396,61,35,0
134.25584,134.3025,70,35,0
134.25584,134.3025,66,35,0
134.25584,134.3025,61,35,0
134.63416,134.72748,69,61,0
134.63416,134.72748,62,61,0
134.63416,134.72748,74,73,0
134.82079,134.91058,76,79,0
134.82079,134.91058,64,66,0
135.00037,135.0916,78,74,0
135.00037,135.0916,66,62,0
135.18283,135.2729,79,79,0
135.18283,135.2729,74,66,0
135.18283,135.2729,67,66,0
135.36298,135.45508,81,73,0
135.36298,135.45508,69,61,0
135.5472,135.6367,82,79,0
135.5472,135.6367,74,66,0
135.5472,135.6367,70,66,0
135.7262,135.81743,83,77,0
135.7262,135.81743,71,61,0
135.90866,136.00047,74,71,0
135.90866,136.00047,86,83,0
136.0931,136.18631,79,71,0
136.0931,136.18631,91,83,0
136.28014,136.3746,83,71,0
136.28014,136.3746,95,84,0
136.46968,136.56541,86,73,0
136.46968,136.56541,98,86,0
136.85992,136.95512,61,50,0
136.85992,136.95512,59,50,0
137.05031,137.14551,63,54,0
137.05031,137.14551,59,54,0
137.2407,137.33885,65,50,0
137.2407,137.33885,59,50,0
137.33885,137.38792,63,45,0
137.38792,137.437,65,46,0
137.437,137.53252,63,54,0
137.437,137.53252,59,54,0
137.62802,137.7255,61,50,0
137.62802,137.7255,59,50,0
137.82298,137.92252,66,79,0
137.82298,137.92252,58,76,0
138.02206,138.11243,82,48,0
138.02206,138.11243,85,48,0
138.02206,138.11243,90,57,0
138.11243,138.20279,78,57,0
138.38911,138.47922,82,48,0
138.38911,138.47922,85,48,0
138.38911,138.47922,90,57,0
138.47922,138.5693,78,57,0
138.75563,138.846,82,48,0
138.75563,138.846,85,48,0
138.75563,138.846,90,57,0
138.846,138.93797,78,57,0
139.1241,139.21419,82,48,0
139.1241,139.21419,85,48,0
139.1241,139.21419,90,57,0
139.21419,139.30428,78,57,0
139.49004,139.58012,82,48,0
139.49004,139.58012,85,48,0
139.49004,139.58012,90,57,0
139.58012,139.67023,78,57,0
139.86197,139.95786,82,54,0
139.86197,139.95786,78,54,0
139.86197,139.95786,90,64,0
139.86197,139.95786,85,54,0
140.05373,140.14961,81,77,0
140.05373,140.14961,84,77,0
140.05373,140.14961,93,91,0
140.24548,140.33585,66,43,0
140.24548,140.33585,69,43,0
140.24548,140.33585,74,51,0
140.33585,140.42621,62,51,0
140.61197,140.70233,66,43,0
140.61197,140.70233,69,43,0
140.61197,140.70233,74,51,0
140.70233,140.7927,62,51,0
140.97845,141.06908,66,43,0
140.97845,141.06908,69,43,0
140.97845,141.06908,74,51,0
141.06908,141.15971,62,51,0
141.34547,141.43611,66,43,0
141.34547,141.43611,69,43,0
141.34547,141.43611,74,51,0
141.43611,141.52675,62,51,0
141.71251,141.80313,66,43,0
141.71251,141.80313,69,43,0
141.71251,141.80313,74,51,0
141.80313,141.89377,62,51,0
142.08612,142.18228,66,48,0
142.08612,142.18228,62,48,0
142.08612,142.18228,74,57,0
142.08612,142.18228,69,48,0
142.27846,142.3787,78,91,0
142.27846,142.3787,66,76,0
142.27846,142.3787,70,76,0
142.27846,142.3787,73,76,0
142.47891,142.56927,82,48,0
142.47891,142.56927,85,48,0
142.47891,142.56927,90,57,0
142.56927,142.65964,78,57,0
142.84482,142.93546,82,48,0
142.84482,142.93546,85,48,0
142.84482,142.93546,90,57,0
142.93546,143.0261,78,57,0
143.21185,143.30276,82,48,0
143.21185,143.30276,85,48,0
143.21185,143.30276,90,57,0
143.30276,143.39366,78,57,0
143.58032,143.67122,82,48,0
143.58032,143.67122,85,48,0
143.58032,143.67122,90,57,0
143.67122,143.76213,78,57,0
143.94847,144.04164,82,48,0
143.94847,144.04164,85,48,0
143.94847,144.04164,90,57,0
144.04164,144.13481,78,57,0
144.32655,144.42244,82,54,0
144.32655,144.42244,78,54,0
144.32655,144.42244,90,64,0
144.32655,144.42244,85,54,0
144.51831,144.6142,82,76,0
144.51831,144.6142,90,91,0
144.51831,144.6142,94,91,0
144.51831,144.6142,87,76,0
144.71007,144.8007,66,43,0
144.71007,144.8007,70,43,0
144.71007,144.8007,75,51,0
144.8007,144.89134,63,51,0
145.0771,145.16772,66,43,0
145.0771,145.16772,70,43,0
145.0771,145.16772,75,51,0
145.16772,145.25836,63,51,0
145.44412,145.53476,66,43,0
145.44412,145.53476,70,43,0
145.44412,145.53476,75,51,0
145.53476,145.62682,63,51,0
145.81291,145.90355,66,43,0
145.81291,145.90355,70,43,0
145.81291,145.90355,75,51,0
145.90355,145.99419,63,51,0
146.17995,146.27084,66,43,0
146.17995,146.27084,70,43,0
146.17995,146.27084,75,51,0
146.27084,146.36362,63,51,0
146.36362,146.46349,75,63,0
146.36362,146.46349,87,74,0
146.36362,146.46349,83,74,0
146.36362,146.46349,78,63,0
146.56337,146.66754,90,77,0
146.56337,146.66754,78,64,0
146.56337,146.66754,83,64,0
146.56337,146.66754,87,77,0
146.77171,146.87273,82,69,0
146.77171,146.87273,94,82,0
146.77171,146.87273,90,82,0
146.77171,146.87273,85,69,0
146.97374,147.06465,63,48,0
146.97374,147.06465,66,48,0
146.97374,147.06465,71,57,0
147.06465,147.14798,61,57,0
147.34189,147.4328,68,49,0
147.34189,147.4328,71,49,0
147.34189,147.4328,73,59,0
147.4328,147.51613,66,59,0
147.70833,147.79814,75,51,0
147.70833,147.79814,78,51,0
147.70833,147.79814,82,61,0
147.79814,147.88048,73,62,0
148.07202,148.16238,80,53,0
148.07202,148.16238,83,53,0
148.07202,148.16238,85,63,0
148.16238,148.24521,78,64,0
148.43735,148.52798,87,55,0
148.43735,148.52798,90,55,0
148.43735,148.52798,94,66,0
148.52798,148.61107,85,66,0
148.80728,148.90681,92,57,0
148.80728,148.90681,95,57,0
148.80728,148.90681,97,68,0
148.90681,148.99806,90,68,0
149.8027,150.00179,78,77,0
149.8027,150.00179,90,92,0
149.8027,150.00179,86,92,0
149.8027,150.00179,83,77,0
150.20087,150.39995,82,82,0
150.20087,150.39995,94,97,0
150.20087,150.39995,90,97,0
150.20087,150.39995,85,82,0
151.25961,151.45299,102,97,0
151.25961,151.45299,97,82,0
151.25961,151.45299,90,82,0
0.0,0.08941875,61,75,0
0.357675,0.4464029,68,72,0
0.7128802,0.80319816,73,72,0
1.0741521,1.16298,80,72,0
1.4285767,1.5182897,73,71,0
1.7874286,1.8780521,68,71,0
2.1499226,2.2390387,61,75,0
2.5063868,2.5960996,68,45,0
2.5063868,2.5960996,77,64,0
2.5063868,2.5960996,71,45,0
2.8652387,2.9558623,61,72,0
3.2277327,3.3183782,68,45,0
3.2277327,3.3183782,77,68,0
3.2277327,3.3183782,71,45,0
3.5903146,3.6824238,61,74,0
3.9587517,4.0529966,68,45,0
3.9587517,4.0529966,77,67,0
3.9587517,4.0529966,71,45,0
4.3357306,4.4192963,54,51,0
4.6841087,4.7267175,61,49,0
5.0352554,5.080434,49,49,0
5.399701,5.4817357,54,51,0
5.745017,5.787626,61,49,0
6.096164,6.141342,49,49,0
6.457588,6.547944,56,51,0
6.816936,7.07557,61,51,0
7.171067,7.3392134,63,55,0
7.5314975,7.7028832,65,58,0
7.8891726,8.071023,68,61,0
8.252874,8.518936,61,58,0
8.618459,8.702809,54,51,0
8.968407,9.0112705,61,49,0
9.320577,9.365754,49,49,0
9.685655,9.769219,54,51,0
10.034032,10.076897,61,49,0
10.386202,10.43138,49,49,0
10.747626,10.8385515,56,51,0
11.110724,11.370415,61,51,0
11.465937,11.633724,63,55,0
11.826614,12.000889,65,58,0
12.190316,12.554019,68,61,0
12.554019,12.8228855,61,58,0
12.92275,13.195527,58,54,0
12.92275,13.195527,54,54,0
13.195527,13.286452,61,50,0
13.286452,13.376872,66,50,0
13.467804,13.55936,70,54,0
13.651437,13.744148,73,56,0
13.837505,13.931409,78,54,0
14.025974,14.121098,82,63,0
14.406467,14.786961,58,70,0
14.382687,14.786961,49,61,0
14.358906,14.786961,42,58,0
15.190626,15.421094,66,53,0
15.421094,15.621535,68,55,0
15.621535,16.03255,70,56,0
16.03255,16.219805,68,54,0
16.219805,16.414091,66,50,0
16.414091,16.804007,68,56,0
16.804007,16.991882,66,54,0
16.991882,17.1875,63,50,0
17.1875,17.597055,61,47,0
17.597055,17.992498,66,59,0
17.597055,17.992498,59,59,0
17.992498,18.344517,66,56,0
17.992498,18.344517,56,56,0
18.394804,18.820108,65,54,0
18.36966,18.820108,59,43,0
18.344517,18.820108,49,42,0
18.820108,19.209877,61,54,0
18.820108,19.209877,54,54,0
19.209877,19.25236,61,49,0
19.560522,19.6057,49,49,0
19.924967,20.007002,54,51,0
20.270283,20.313148,61,49,0
20.622454,20.667631,49,49,0
20.983877,21.074234,56,51,0
21.343225,21.60186,61,51,0
21.697357,21.865503,63,55,0
22.057787,22.229172,65,58,0
22.415462,22.779163,68,61,0
22.779163,23.045225,61,58,0
23.144749,23.2291,54,51,0
23.494696,23.53756,61,49,0
23.846865,23.892044,49,49,0
24.211943,24.29551,54,51,0
24.560322,24.603577,61,49,0
24.912773,24.95795,49,49,0
25.274197,25.365122,56,51,0
25.637295,25.896984,61,51,0
25.992506,26.160294,63,55,0
26.353184,26.527458,65,58,0
26.716887,27.08059,68,61,0
27.08059,27.257273,61,58,0
27.44932,27.722097,54,54,0
27.44932,27.722097,58,54,0
27.722097,27.813023,61,50,0
27.813023,27.903442,66,50,0
27.994373,28.08593,70,54,0
28.178007,28.270718,73,56,0
28.364075,28.45798,78,54,0
28.552544,28.647667,82,63,0
28.933037,29.31353,58,70,0
28.909256,29.31353,49,61,0
28.885475,29.31353,42,58,0
29.694023,29.924492,63,49,0
29.924492,30.124931,65,50,0
30.124931,30.535948,66,51,0
30.535948,30.723202,65,49,0
30.723202,30.91749,63,46,0
30.91749,31.307404,65,51,0
31.307404,31.49528,63,49,0
31.49528,31.690897,58,46,0
31.690897,32.100452,54,42,0
32.49386,32.896164,85,58,0
32.100452,32.896164,61,55,0
32.100452,32.896164,51,55,0
32.896164,33.322216,63,49,0
32.896164,33.322216,56,39,0
33.322216,33.711987,56,53,0
33.322216,33.711987,49,53,0
33.711987,33.75447,56,49,0
34.06263,34.10781,44,49,0
34.42708,34.50911,49,51,0
34.772392,34.815258,56,49,0
35.12456,35.169743,44,49,0
35.485985,35.576344,48,51,0
35.845333,35.934258,56,51,0
36.199467,36.287323,58,55,0
36.559895,36.649315,60,58,0
36.917572,37.008495,63,61,0
37.281273,37.3722,56,58,0
37.64686,37.73121,49,51,0
37.996803,38.03967,56,49,0
38.348976,38.394154,44,49,0
38.714054,38.79762,49,51,0
39.06243,39.105686,56,49,0
39.414883,39.46006,44,49,0
39.776306,39.86723,51,51,0
40.139404,40.22882,56,51,0
40.494614,40.58238,58,55,0
40.855293,40.94622,60,58,0
41.218994,41.30992,63,61,0
41.5827,41.67488,56,58,0
41.95143,42.224205,53,54,0
41.95143,42.224205,49,54,0
42.224205,42.315132,56,50,0
42.315132,42.405552,61,50,0
42.496483,42.58804,65,54,0
42.680115,42.772827,68,56,0
42.866184,42.960087,73,54,0
43.054653,43.2449,77,63,0
43.030956,43.2449,68,56,0
43.007313,43.2449,61,56,0
43.435146,43.81564,49,70,0
43.435146,43.81564,37,58,0
44.196133,44.4266,71,49,0
44.4266,44.62704,73,50,0
44.62704,45.038055,75,51,0
45.038055,45.22531,77,49,0
45.22531,45.419598,75,46,0
45.419598,45.809513,73,51,0
45.809513,45.997387,71,49,0
45.997387,46.193005,73,46,0
46.193005,46.602562,70,42,0
46.602562,46.803715,67,43,0
46.602562,46.998005,61,43,0
46.602562,46.998005,51,43,0
46.998005,47.35002,68,44,0
46.998005,47.35002,56,44,0
46.803715,47.35002,63,39,0
47.40031,47.825615,65,45,0
47.375168,47.825615,59,36,0
47.35002,47.825615,49,35,0
47.825615,48.117207,61,45,0
47.825615,48.21538,54,45,0
48.21538,48.257866,61,49,0
48.56603,48.611206,49,49,0
48.930473,49.01251,54,51,0
49.27579,49.318653,61,49,0
49.62796,49.673138,49,49,0
49.989384,50.07974,56,51,0
50.348732,50.607365,61,51,0
50.70286,50.87101,63,55,0
51.063293,51.23468,65,58,0
51.420967,51.78467,68,61,0
51.78467,52.05073,61,58,0
52.150253,52.234604,54,51,0
52.500202,52.543068,61,49,0
52.85237,52.89755,49,49,0
53.21745,53.301014,54,51,0
53.565826,53.609085,61,49,0
53.918278,53.963455,49,49,0
54.2797,54.37063,56,51,0
54.6428,54.902493,61,51,0
54.998013,55.165802,63,55,0
55.358692,55.532967,65,58,0
55.722393,56.086094,68,61,0
56.086094,56.35496,61,58,0
56.454826,56.727604,58,54,0
56.454826,56.727604,54,54,0
56.727604,56.818527,61,50,0
56.818527,56.908947,66,50,0
56.99988,57.091434,70,54,0
57.183514,57.276226,73,56,0
57.369583,57.463486,78,54,0
57.558052,57.653175,82,63,0
57.938545,58.31904,58,70,0
57.914764,58.31904,49,61,0
57.890984,58.31904,42,58,0
58.69953,58.79076,57,40,0
58.69953,58.79076,54,32,0
58.88199,58.975002,59,35,0
58.88199,58.975002,54,28,0
59.068012,59.44006,61,45,0
59.068012,59.44006,54,36,0
59.44006,59.531578,62,40,0
59.44006,59.531578,54,32,0
59.623096,59.71861,61,35,0
59.623096,59.71861,54,28,0
59.808964,60.196213,59,41,0
59.808964,60.196213,54,41,0
60.196213,60.581585,65,53,0
60.196213,60.581585,54,42,0
60.581585,60.97282,54,40,0
60.581585,60.97282,66,50,0
60.97282,61.162575,65,53,0
61.162575,61.3666,63,49,0
60.97282,61.3666,53,42,0
61.3666,61.753845,64,50,0
61.3666,61.753845,52,40,0
61.753845,62.148483,52,36,0
61.753845,62.148483,62,45,0
62.148483,62.337605,57,56,0
62.52064,62.693146,76,57,0
62.873856,63.26422,52,53,0
63.26422,63.35545,64,40,0
63.26422,63.35545,57,32,0
63.446682,63.539692,65,35,0
63.446682,63.539692,57,28,0
63.632706,64.00475,67,45,0
63.632706,64.00475,57,36,0
64.00475,64.09627,69,40,0
64.00475,64.09627,57,32,0
64.18779,64.2833,67,35,0
64.18779,64.2833,57,28,0
64.37395,64.76119,65,39,0
64.37395,64.76119,57,31,0
64.76119,64.856705,64,45,0
64.76119,64.856705,57,36,0
64.95222,65.050705,62,39,0
64.95222,65.050705,57,31,0
65.14919,65.54043,57,35,0
65.14919,65.54043,61,44,0
65.54043,65.72892,67,45,0
65.72892,65.925896,62,48,0
65.925896,66.31054,61,53,0
66.31054,66.71063,57,49,0
66.71063,66.901024,62,70,0
67.08406,67.25814,81,69,0
67.44178,67.83814,69,66,0
67.83814,67.929375,65,40,0
68.02061,68.11362,64,35,0
68.20663,68.578674,62,45,0
68.578674,68.6702,64,40,0
68.76171,68.85722,65,35,0
68.94787,69.33511,64,39,0
69.33511,69.52614,62,45,0
69.52614,69.72312,60,39,0
69.72312,70.11436,59,44,0
70.11436,70.50615,59,45,0
70.11436,70.50615,53,45,0
70.50615,70.89079,77,59,0
71.08641,71.29493,47,60,0
71.08641,71.29493,35,60,0
70.89079,71.29493,78,55,0
71.29493,71.48988,40,70,0
71.29493,71.48988,28,70,0
71.67652,71.85168,71,70,0
72.03471,72.43104,47,66,0
72.43104,72.81512,52,66,0
72.43104,72.81512,45,66,0
72.81512,72.99875,62,58,0
73.18662,73.374504,40,59,0
73.56747,73.756584,61,56,0
73.56747,73.756584,52,56,0
73.56747,73.756584,45,56,0
73.756584,73.84811,63,51,0
73.93962,74.03085,64,55,0
74.12237,74.21419,69,58,0
74.3063,74.39871,73,62,0
74.491425,74.584435,76,65,0
74.67776,74.86815,73,69,0
74.67776,74.86815,66,69,0
75.06243,75.453705,78,60,0
75.453705,75.6441,59,59,0
75.6441,75.83449,47,53,0
75.453705,75.83449,63,63,0
75.83449,76.02944,52,63,0
76.224396,76.41936,40,69,0
77.00423,77.08779,48,51,0
77.35261,77.39521,55,49,0
77.70375,77.74893,43,49,0
78.0682,78.15023,48,51,0
78.41351,78.45612,55,49,0
78.76466,78.80984,43,49,0
79.12608,79.21644,50,51,0
79.485435,79.744064,55,51,0
79.83956,80.2,57,55,0
80.2,80.371376,59,58,0
80.55767,80.92137,62,59,0
80.92137,81.11088,55,58,0
81.28696,81.37052,48,43,0
81.63533,81.67794,55,41,0
81.98648,82.03166,43,41,0
82.35093,82.43296,48,43,0
82.69624,82.73885,55,41,0
83.047386,83.09257,43,41,0
83.40881,83.49917,50,43,0
83.76816,84.026794,55,43,0
84.12229,84.290436,57,46,0
84.48272,84.654106,59,49,0
84.8404,85.2041,62,50,0
85.2041,85.47016,55,49,0
85.56969,85.66182,64,44,0
85.75396,85.84218,67,45,0
85.9304,86.019905,72,45,0
86.109406,86.197525,71,43,0
86.28565,86.37377,70,44,0
86.46189,86.552246,69,41,0
86.6426,86.73073,68,45,0
86.81885,86.90835,66,42,0
86.997856,87.085976,67,44,0
87.174095,87.26533,64,41,0
87.35656,87.4455,60,37,0
87.53445,87.715164,58,37,0
87.715164,87.8914,57,34,0
87.8914,88.07155,66,36,0
88.07155,88.248886,67,37,0
88.248886,88.42904,62,39,0
88.42904,88.60528,61,41,0
88.60528,88.78891,57,43,0
88.9702,89.149216,72,42,0
89.149216,89.32993,71,44,0
89.32993,89.51238,70,45,0
88.78891,89.69661,62,45,0
89.69661,89.882744,57,37,0
89.51238,89.882744,69,47,0
89.882744,89.974884,65,48,0
90.06702,90.155235,69,49,0
90.24346,90.33382,74,49,0
90.42417,90.51284,73,47,0
90.60151,90.68963,72,48,0
90.77775,90.8681,71,45,0
90.95846,91.046585,70,49,0
91.134705,91.224205,68,46,0
91.31371,91.40211,69,48,0
91.49049,91.581726,65,45,0
91.67296,91.762184,62,40,0
91.85141,92.0327,60,40,0
92.20948,92.39077,67,36,0
92.39077,92.56978,69,37,0
92.56978,92.751076,64,39,0
92.751076,92.92786,63,41,0
92.0327,92.92786,59,34,0
92.92786,93.112076,59,43,0
93.29394,93.47239,69,42,0
93.47239,93.652725,67,44,0
93.652725,93.834885,72,45,0
93.112076,94.01911,64,45,0
94.01911,94.20528,59,37,0
93.834885,94.20528,71,47,0
94.20528,94.29742,67,48,0
94.38955,94.47777,71,49,0
94.565994,94.65635,76,49,0
94.746704,94.83706,75,47,0
94.927414,95.01553,74,48,0
95.10366,95.194016,73,45,0
95.28437,95.37249,72,49,0
95.46061,95.55012,70,46,0
95.63962,95.729126,71,48,0
95.81863,95.90986,67,45,0
96.00109,96.09202,64,40,0
96.18295,96.275085,59,40,0
96.367226,96.459366,70,52,0
96.5515,96.63972,74,53,0
96.72794,96.8183,79,53,0
96.90865,96.99901,78,51,0
97.08936,97.17748,77,52,0
97.26561,97.355965,76,49,0
97.44632,97.53444,75,53,0
97.62256,97.71207,73,50,0
97.80157,97.891075,74,52,0
97.980576,98.07181,70,49,0
98.16304,98.25397,67,44,0
98.3449,98.437035,62,44,0
98.529175,98.621315,79,57,0
98.71345,98.80167,81,58,0
98.88989,98.98025,82,58,0
99.0706,99.16096,84,56,0
99.25131,99.33943,82,57,0
99.42756,99.517914,81,53,0
99.60827,99.69639,80,58,0
99.78451,99.874016,79,55,0
99.96352,100.053024,76,57,0
100.142525,100.23376,73,53,0
100.32499,100.41592,70,48,0
100.50685,100.59898,67,48,0
100.691124,100.77924,73,58,0
100.86737,100.95687,70,55,0
101.04638,101.13588,67,54,0
101.22539,101.31661,64,53,0
101.407845,101.49877,61,48,0
101.58971,101.68185,58,48,0
101.77398,101.8621,67,52,0
101.950226,102.04145,64,49,0
102.13268,102.22314,61,48,0
102.31436,102.40617,58,47,0
102.49889,102.686455,55,43,0
102.686455,102.87717,52,43,0
102.87717,103.06442,35,44,0
103.06442,103.24571,42,45,0
103.24571,103.42472,43,45,0
103.42472,103.60373,42,43,0
103.60373,103.78219,47,44,0
103.78219,103.965225,51,41,0
103.965225,104.141464,52,45,0
104.141464,104.32047,54,39,0
104.32047,104.49672,55,44,0
104.49672,104.67918,52,41,0
104.67918,104.85876,58,37,0
104.85876,105.04539,59,37,0
105.04539,105.22961,35,46,0
105.22961,105.40585,42,47,0
105.40585,105.58375,43,47,0
105.58375,105.7622,42,45,0
105.7622,105.94065,47,46,0
105.94065,106.123695,51,43,0
106.123695,106.299934,52,47,0
106.299934,106.47894,54,38,0
106.47894,106.65519,55,47,0
106.65519,106.83765,52,45,0
106.83765,107.01722,58,40,0
107.01722,107.20325,59,40,0
107.20325,107.38747,35,54,0
107.38747,107.563705,42,56,0
107.563705,107.7416,43,56,0
107.7416,107.92005,42,53,0
107.92005,108.09851,47,54,0
108.09851,108.28155,51,51,0
108.28155,108.46577,48,56,0
108.46577,108.642006,56,58,0
108.642006,108.8199,57,58,0
108.8199,108.99836,60,55,0
108.99836,109.17681,63,56,0
109.17681,109.35985,66,53,0
109.35985,109.542885,49,55,0
109.722466,109.90204,61,51,0
109.722466,109.90204,58,51,0
109.722466,109.90204,66,51,0
110.08746,110.269325,49,54,0
110.45475,110.63859,37,61,0
110.82431,111.01188,61,40,0
110.82431,111.01188,65,42,0
110.82431,111.01188,71,47,0
111.20163,111.587036,49,61,0
111.20163,111.587036,37,61,0
111.587036,111.782,42,70,0
111.782,112.15054,58,75,0
111.782,112.15054,49,63,0
112.15054,112.33183,58,68,0
112.15054,112.33183,49,57,0
112.33183,112.510284,42,70,0
112.510284,112.69333,58,65,0
112.510284,112.69333,49,55,0
112.69333,112.87404,42,72,0
112.87404,113.22929,59,63,0
112.87404,113.22929,50,54,0
113.22929,113.41175,59,65,0
113.22929,113.41175,50,55,0
113.41175,113.591324,42,59,0
113.591324,113.77796,59,59,0
113.591324,113.77796,50,50,0
113.77796,113.96159,42,63,0
113.96159,114.3271,58,67,0
113.96159,114.3271,49,56,0
114.3271,114.50839,58,61,0
114.3271,114.50839,49,51,0
114.50839,114.686844,42,63,0
114.686844,114.86989,58,58,0
114.686844,114.86989,49,49,0
114.86989,115.0506,42,64,0
115.0506,115.405846,62,56,0
115.0506,115.405846,53,48,0
115.405846,115.58831,62,55,0
115.405846,115.58831,53,46,0
115.58831,115.76788,42,50,0
115.76788,115.95452,62,50,0
115.76788,115.95452,53,42,0
115.95452,116.14491,42,70,0
116.14491,116.51042,58,75,0
116.14491,116.51042,49,63,0
116.51042,116.69171,58,68,0
116.51042,116.69171,49,57,0
116.69171,116.87017,42,70,0
116.87017,117.05321,58,65,0
116.87017,117.05321,49,55,0
117.05321,117.23392,42,72,0
117.23392,117.58917,59,63,0
117.23392,117.58917,50,54,0
117.58917,117.77163,59,65,0
117.58917,117.77163,50,55,0
117.77163,117.9512,42,59,0
117.9512,118.13784,59,59,0
117.9512,118.13784,50,50,0
118.13784,118.32147,42,63,0
118.32147,118.68698,58,67,0
118.32147,118.68698,49,56,0
118.68698,118.86827,58,61,0
118.68698,118.86827,49,51,0
118.86827,119.04673,42,63,0
119.04673,119.22977,58,58,0
119.04673,119.22977,49,49,0
119.22977,119.41048,42,64,0
119.41048,119.76573,62,56,0
119.41048,119.76573,53,48,0
119.76573,119.94819,62,55,0
119.76573,119.94819,53,46,0
119.94819,120.12777,42,50,0
120.12777,120.3144,62,50,0
120.12777,120.3144,53,42,0
120.3144,120.39797,54,51,0
120.66278,120.70539,61,49,0
121.01393,121.059105,49,49,0
121.37837,121.55738,56,48,0
121.55738,121.92289,71,53,0
121.55738,121.92289,65,44,0
121.55738,121.92289,61,44,0
121.92289,122.10418,71,45,0
121.92289,122.10418,65,32,0
121.92289,122.10418,61,32,0
122.10418,122.28264,49,53,0
122.28264,122.47051,71,43,0
122.28264,122.47051,65,31,0
122.28264,122.47051,61,31,0
122.47051,122.55408,54,51,0
122.81889,122.8615,61,49,0
123.17004,123.21522,49,49,0
123.537384,123.7144,56,48,0
123.7144,124.07462,71,53,0
123.7144,124.07462,65,44,0
123.7144,124.07462,61,44,0
124.07462,124.253685,71,45,0
124.07462,124.253685,65,32,0
124.07462,124.253685,61,32,0
124.253685,124.43214,49,53,0
124.43214,124.61517,71,43,0
124.43214,124.61517,65,31,0
124.43214,124.61517,61,31,0
124.61517,124.69874,54,51,0
124.963554,125.006165,61,49,0
125.3147,125.35988,49,49,0
125.682045,126.060356,42,58,0
126.060356,126.42239,60,52,0
126.060356,126.42239,50,52,0
126.42239,126.78676,38,52,0
126.78676,127.148224,43,59,0
127.148224,127.51971,59,55,0
127.148224,127.51971,50,55,0
127.51971,127.90114,43,55,0
128.09949,128.14708,53,38,0
128.28987,128.33748,54,45,0
128.48027,128.52934,56,39,0
128.67656,128.72432,54,44,0
128.86758,128.91632,53,40,0
127.90114,129.06255,49,50,0
129.06255,129.15465,54,51,0
129.42801,129.47061,61,49,0
129.77916,129.82433,49,49,0
130.1436,130.32062,56,48,0
130.32062,130.68137,71,53,0
130.32062,130.68137,65,44,0
130.32062,130.68137,61,44,0
130.68137,130.86043,71,45,0
130.68137,130.86043,65,32,0
130.68137,130.86043,61,32,0
130.86043,131.03888,49,53,0
131.03888,131.22676,71,43,0
131.03888,131.22676,65,31,0
131.03888,131.22676,61,31,0
131.22676,131.31033,54,51,0
131.57513,131.61775,61,49,0
131.92628,131.97147,49,49,0
132.29364,132.47217,56,48,0
132.47217,132.83453,71,53,0
132.47217,132.83453,65,44,0
132.47217,132.83453,61,44,0
132.83453,133.01411,71,45,0
132.83453,133.01411,65,32,0
132.83453,133.01411,61,32,0
133.01411,133.19258,49,53,0
133.19258,133.37561,71,43,0
133.19258,133.37561,65,31,0
133.19258,133.37561,61,31,0
133.37561,133.45918,54,51,0
133.72398,133.7666,61,49,0
134.07513,134.12032,49,49,0
134.44249,134.82079,42,58,0
134.82079,135.18283,60,52,0
134.82079,135.18283,50,52,0
135.18283,135.5472,38,52,0
135.5472,135.90866,43,59,0
135.90866,136.28014,59,55,0
135.90866,136.28014,50,55,0
136.28014,136.66158,43,55,0
136.85992,136.90752,53,38,0
137.05031,137.09792,54,45,0
137.2407,137.28978,56,39,0
137.437,137.48476,54,44,0
137.62802,137.67676,53,40,0
136.66158,137.82298,49,50,0
137.82298,138.02206,49,61,0
137.82298,138.02206,42,61,0
138.20279,138.29596,80,69,0
138.5693,138.66248,80,69,0
138.93797,139.03105,80,69,0
139.30428,139.39716,80,69,0
139.67023,139.7661,80,69,0
140.05373,140.24548,42,62,0
140.05373,140.24548,50,73,0
140.05373,140.24548,54,73,0
140.42621,140.51909,64,64,0
140.7927,140.88557,64,64,0
141.15971,141.2526,64,64,0
141.52675,141.61963,64,64,0
141.89377,141.98994,64,64,0
142.27846,142.47891,54,73,0
142.27846,142.47891,42,61,0
142.27846,142.47891,49,61,0
142.65964,142.75223,80,68,0
143.0261,143.11897,80,68,0
143.39366,143.487,80,68,0
143.76213,143.8553,80,68,0
144.13481,144.23068,80,68,0
144.51831,144.71007,39,61,0
144.51831,144.71007,46,61,0
144.51831,144.71007,51,73,0
144.89134,144.98422,65,64,0
145.25836,145.35124,65,64,0
145.62682,145.71986,65,64,0
145.99419,146.08707,65,64,0
146.36362,146.46349,59,62,0
146.36362,146.46349,54,62,0
146.36362,146.46349,47,52,0
146.56337,146.66754,59,61,0
146.56337,146.66754,54,61,0
146.56337,146.66754,47,51,0
146.77171,146.97374,54,69,0
146.77171,146.97374,49,58,0
146.77171,146.97374,42,58,0
147.15556,147.24872,61,68,0
147.52371,147.61601,66,72,0
147.88797,147.98,73,73,0
148.25273,148.34505,78,77,0
148.61862,148.71217,85,79,0
149.00636,149.20544,90,90,0
149.8027,150.00179,59,66,0
149.8027,150.00179,54,55,0
149.8027,150.00179,47,55,0
150.20087,150.39995,58,73,0
150.17598,150.39995,49,61,0
150.1511,150.39995,42,61,0
151.25961,151.45299,70,73,0
151.23897,151.45299,61,62,0
151.21832,151.45299,54,62,0
