start_time,end_time,note_value,velocity,instrument_program_number
0.0,0.13513525,79,60,0
0.2702705,0.40301374,74,57,0
0.535757,0.66850024,75,60,0
0.8012435,0.9339867,79,57,0
1.06673,1.1994733,78,64,0
1.3322165,1.4649597,81,59,0
1.597703,1.6846595,79,64,0
1.6846595,1.771616,81,54,0
1.771616,1.8585725,79,54,0
1.8585725,1.9895767,78,58,0
2.120581,2.2510157,79,63,0
2.3814504,2.513609,82,60,0
2.6457675,2.777926,74,63,0
2.6457675,2.777926,81,63,0
2.9100845,3.042243,84,60,0
3.1744015,3.3042717,82,64,0
3.434142,3.5645769,86,63,0
3.434142,3.5645769,80,63,0
3.434142,3.5645769,89,63,0
3.6950116,3.8277197,84,61,0
3.6950116,3.8277197,79,61,0
3.6950116,3.8277197,88,61,0
3.96023,4.0917516,84,60,0
3.96023,4.0917516,87,60,0
3.96023,4.0917516,78,60,0
4.2234697,4.3555818,86,58,0
4.2234697,4.3555818,79,58,0
4.487992,4.6250405,84,57,0
4.487992,4.6250405,81,57,0
4.487992,4.6250405,74,57,0
4.7605295,5.0283866,82,65,0
4.7605295,5.0283866,74,59,0
4.7605295,5.0283866,79,59,0
5.0283866,5.2962437,80,60,0
5.0283866,5.2962437,71,60,0
5.2962437,5.5650215,72,57,0
5.5650215,5.8370113,73,60,0
5.8370113,6.1111093,74,62,0
5.2962437,6.1111093,79,57,0
6.1111093,6.3972597,82,67,0
6.1111093,6.3972597,75,67,0
6.1111093,6.3972597,79,67,0
6.3972597,7.514578,82,70,0
6.3972597,7.514578,79,70,0
6.3972597,7.514578,70,70,0
6.3972597,7.514578,74,70,0
7.514578,8.047864,74,67,0
7.514578,8.047864,70,67,0
8.047864,8.178219,69,61,0
8.047864,8.178219,72,61,0
8.308575,8.443734,75,64,0
8.308575,8.443734,72,64,0
8.578894,8.843118,81,69,0
8.578894,8.843118,77,69,0
9.107342,9.237698,77,70,0
9.107342,9.237698,74,70,0
9.3680525,9.503837,74,65,0
9.3680525,9.503837,70,65,0
9.63962,9.7694,67,68,0
9.63962,9.7694,70,68,0
9.89918,10.031292,75,63,0
9.89918,10.031292,79,63,0
10.163404,10.295516,72,67,0
10.163404,10.295516,75,67,0
10.4276285,10.55974,72,63,0
10.4276285,10.55974,69,63,0
10.691853,10.821632,66,67,0
10.691853,10.821632,69,67,0
10.951412,11.083525,77,64,0
10.951412,11.083525,74,64,0
11.215636,11.348345,74,70,0
11.215636,11.348345,70,70,0
11.481053,11.616213,70,66,0
11.481053,11.616213,67,66,0
11.751372,12.021691,67,69,0
12.021691,12.29201,70,63,0
11.751372,12.29201,63,69,0
12.29201,12.558677,69,65,0
12.558677,12.832775,74,56,0
12.29201,12.832775,60,55,0
12.29201,12.832775,66,56,0
12.832775,14.452375,74,68,0
14.719019,14.806309,72,64,0
14.806309,14.8935995,74,61,0
14.8935995,14.98089,72,61,0
14.98089,15.242762,71,64,0
15.242762,15.509405,72,61,0
15.509405,15.776048,74,64,0
15.776048,16.046366,75,62,0
16.046366,16.31301,67,61,0
16.046366,16.31301,70,61,0
16.31301,16.575018,72,63,0
16.575018,16.835888,73,66,0
16.835888,17.102554,74,69,0
17.102554,17.36687,79,70,0
17.36687,17.634727,74,66,0
17.634727,18.711126,66,68,0
17.634727,18.711126,70,68,0
18.711126,19.188572,69,68,0
19.254333,19.524603,79,60,0
19.221453,19.524603,74,56,0
19.188572,19.524603,67,55,0
19.524603,19.656761,74,57,0
19.78892,19.921078,75,60,0
20.053238,20.185396,79,57,0
20.317554,20.449713,78,64,0
20.581871,20.71403,81,59,0
20.846188,20.932768,79,64,0
20.932768,21.019348,81,54,0
21.019348,21.105928,79,54,0
21.105928,21.2358,78,59,0
21.36567,21.497828,79,66,0
21.629986,21.76273,82,64,0
21.895473,22.028215,74,61,0
21.895473,22.028215,81,69,0
22.16096,22.296743,86,71,0
22.432526,23.499092,77,68,0
23.499092,24.042078,75,68,0
24.042078,24.130152,74,64,0
24.130152,24.218227,75,55,0
24.218227,24.306301,74,55,0
24.306301,24.568172,72,59,0
24.568172,24.832397,71,64,0
24.832397,25.09904,72,58,0
25.09904,25.365683,74,64,0
25.365683,25.636002,75,58,0
25.636002,26.694244,74,69,0
26.694244,26.960888,73,59,0
26.960888,27.231207,74,56,0
26.694244,27.231207,68,47,0
27.231207,27.493078,77,59,0
27.493078,27.75495,75,57,0
27.75495,28.017015,74,64,0
28.017015,28.28065,75,61,0
28.28065,28.545668,72,69,0
27.231207,28.812716,67,46,0
28.545668,28.812716,67,66,0
28.812716,29.080574,74,70,0
28.812716,29.080574,65,63,0
28.812716,29.080574,70,64,0
29.080574,29.213894,77,57,0
29.347216,29.480537,78,60,0
29.61386,29.74718,82,57,0
29.880503,30.013824,81,64,0
30.147144,30.280466,84,59,0
30.413788,30.499544,82,64,0
30.499544,30.5853,84,54,0
30.5853,30.671057,82,54,0
30.671057,30.79969,81,58,0
30.928324,31.061646,82,63,0
31.194967,31.328289,86,63,0
31.46161,31.593721,77,58,0
31.46161,31.593721,84,63,0
31.725834,31.860994,89,60,0
32.262794,32.52467,70,64,0
32.52467,32.78654,72,64,0
32.78654,33.05318,74,61,0
33.05318,33.319824,77,64,0
33.319824,33.590145,75,62,0
33.590145,33.679024,74,61,0
33.679024,33.767906,75,56,0
33.767906,33.85679,74,55,0
33.85679,34.12343,71,59,0
34.12343,34.39007,70,63,0
34.39007,34.660393,68,57,0
34.660393,34.92825,66,65,0
34.92825,35.129143,70,58,0
35.129143,35.196106,70,60,0
35.196106,36.253124,65,65,0
36.253124,36.788857,70,56,0
36.253124,36.788857,68,56,0
36.788857,37.84761,66,41,0
36.788857,37.84761,70,57,0
37.84761,38.116287,69,67,0
38.116287,38.38661,75,64,0
38.65325,38.915123,70,64,0
38.915123,39.176994,71,64,0
39.176994,39.443634,74,61,0
39.443634,39.710278,77,67,0
39.710278,39.9806,78,67,0
39.9806,40.069477,77,61,0
40.069477,40.15836,78,51,0
40.15836,40.247242,77,51,0
39.9806,40.247242,70,41,0
40.247242,40.513885,75,54,0
40.513885,40.780525,71,65,0
40.780525,41.050846,70,58,0
41.050846,41.318703,66,65,0
41.318703,41.519596,70,58,0
41.519596,41.58656,70,60,0
41.58656,42.669003,65,63,0
42.669003,43.20474,70,56,0
42.669003,43.20474,68,56,0
43.20474,44.26126,66,48,0
43.20474,44.263493,70,65,0
44.263493,44.532166,69,67,0
44.532166,44.802486,75,64,0
44.802486,45.888756,74,64,0
46.698532,46.785824,72,64,0
46.785824,46.87311,74,54,0
46.87311,46.960403,72,54,0
46.960403,47.222275,71,58,0
47.222275,47.48892,72,61,0
47.48892,47.75556,74,64,0
47.75556,48.02588,75,62,0
48.02588,48.28904,70,61,0
48.02588,48.28904,67,61,0
48.28904,48.552197,72,63,0
48.552197,48.811935,73,66,0
48.811935,49.077423,74,69,0
49.077423,49.33943,79,70,0
49.33943,49.60729,74,66,0
49.60729,50.683685,66,59,0
49.60729,50.683685,70,68,0
50.683685,51.161133,69,65,0
51.226894,51.49716,79,60,0
51.19401,51.49716,74,56,0
51.161133,51.49716,67,55,0
51.49716,51.629906,74,57,0
51.76265,51.895393,75,60,0
52.028137,52.16088,79,57,0
52.293625,52.426365,78,64,0
52.55911,52.691853,81,59,0
52.824596,52.911552,79,64,0
52.911552,52.99851,81,54,0
52.99851,53.085464,79,54,0
53.085464,53.2159,78,58,0
53.346336,53.477913,79,63,0
53.609493,53.741653,82,60,0
53.87381,54.00597,81,63,0
53.87381,54.00597,74,63,0
54.138126,54.270287,84,60,0
54.402443,54.531754,82,64,0
54.661064,54.793808,86,63,0
54.661064,54.793808,89,63,0
54.661064,54.793808,80,63,0
54.92655,55.05926,88,61,0
54.92655,55.05926,79,61,0
54.92655,55.05926,84,61,0
55.19177,55.32329,87,60,0
55.19177,55.32329,78,60,0
55.19177,55.32329,84,60,0
55.45501,55.58712,79,58,0
55.45501,55.58712,86,58,0
55.719532,55.85658,81,57,0
55.719532,55.85658,74,57,0
55.719532,55.85658,84,57,0
55.99207,56.259926,79,65,0
55.99207,56.259926,82,65,0
55.99207,56.259926,74,65,0
56.259926,56.527782,71,60,0
56.259926,56.527782,80,60,0
56.527782,56.796562,72,57,0
56.796562,57.06855,73,60,0
57.06855,57.342648,74,62,0
56.527782,57.342648,79,57,0
57.342648,57.6288,79,67,0
57.342648,57.6288,75,67,0
57.342648,57.6288,82,67,0
57.6288,58.746117,82,70,0
57.6288,58.746117,74,70,0
57.6288,58.746117,70,70,0
57.6288,58.746117,79,70,0
58.746117,59.279404,70,68,0
58.746117,59.279404,74,68,0
59.279404,59.40976,69,61,0
59.279404,59.40976,72,61,0
59.540115,59.673435,72,66,0
59.540115,59.673435,75,66,0
59.80676,60.0734,77,70,0
59.80676,60.0734,81,70,0
60.340042,60.470398,77,71,0
60.340042,60.470398,74,71,0
60.600754,60.736538,70,65,0
60.600754,60.736538,74,65,0
60.872322,61.002678,70,68,0
60.872322,61.002678,67,68,0
61.133034,61.26519,79,65,0
61.133034,61.26519,75,65,0
61.39735,61.52946,75,67,0
61.39735,61.52946,72,67,0
61.661575,61.793686,72,63,0
61.661575,61.793686,69,63,0
61.925797,62.056732,66,67,0
61.925797,62.056732,69,67,0
62.187668,62.32099,74,62,0
62.187668,62.32099,77,62,0
62.45431,62.720955,70,69,0
62.45431,62.720955,74,69,0
62.720955,62.991276,70,66,0
62.720955,62.991276,67,66,0
62.991276,63.265247,67,69,0
63.265247,63.53922,70,63,0
62.991276,63.53922,63,53,0
63.53922,63.81445,69,65,0
63.81445,64.10017,70,59,0
63.53922,64.10017,60,47,0
63.53922,64.10017,66,58,0
64.10017,64.36956,62,44,0
64.10017,64.36956,59,44,0
64.36956,64.50426,64,42,0
64.50426,64.638954,62,42,0
64.638954,64.91089,59,44,0
64.91089,65.17539,62,41,0
65.443565,65.71173,62,42,0
64.10017,65.71173,71,55,0
65.71173,65.979904,65,45,0
65.71173,65.979904,59,45,0
65.979904,66.11398,64,42,0
66.11398,66.24807,62,42,0
66.24807,66.520004,59,44,0
66.520004,66.78573,62,42,0
67.05512,67.324524,62,42,0
65.71173,67.324524,71,55,0
67.324524,67.59392,62,44,0
67.324524,67.59392,60,44,0
67.59392,67.728615,64,42,0
67.728615,67.86331,62,42,0
67.86331,68.13525,60,44,0
68.13525,68.39975,62,41,0
67.324524,68.39975,72,55,0
68.39975,68.67169,60,44,0
68.67169,68.94363,62,41,0
68.39975,68.96607,68,53,0
68.94363,69.21302,62,44,0
68.94363,69.21302,60,44,0
69.21302,69.34772,64,42,0
69.34772,69.482414,62,42,0
69.482414,69.75436,60,44,0
69.75436,70.01886,62,41,0
68.94363,70.01886,69,55,0
70.01886,70.290794,60,44,0
70.290794,70.56273,62,41,0
70.01886,70.58518,70,53,0
70.56273,70.83212,62,44,0
70.56273,70.83212,59,44,0
70.83212,70.96683,64,42,0
70.96683,71.101524,62,42,0
71.101524,71.37346,59,44,0
71.37346,71.63796,62,41,0
70.56273,71.63796,71,55,0
71.63796,71.9099,59,44,0
71.9099,72.18183,62,41,0
71.63796,72.204285,71,53,0
72.18183,72.45123,62,44,0
72.45123,72.58593,67,42,0
72.58593,72.72063,65,42,0
72.18183,72.99256,64,55,0
72.72063,72.99256,64,44,0
72.72063,73.257065,62,44,0
72.99256,73.279724,71,54,0
73.257065,73.55167,72,59,0
73.257065,73.800674,68,37,0
73.257065,73.800674,62,37,0
73.257065,73.800674,64,37,0
73.529,73.82312,74,57,0
73.800674,74.07007,60,44,0
74.07007,74.204765,65,42,0
74.204765,74.33973,64,42,0
74.33973,74.61089,60,44,0
74.61089,74.87617,64,41,0
73.800674,74.87617,72,55,0
74.87617,75.14811,60,44,0
75.14811,75.420044,67,41,0
74.87617,75.44281,72,53,0
75.420044,75.693245,60,47,0
75.693245,75.82984,69,45,0
75.420044,75.96631,66,58,0
75.82984,75.96631,66,45,0
75.96631,76.26755,60,47,0
76.24342,76.53297,69,44,0
75.96631,76.53297,64,44,0
76.53297,76.840195,60,50,0
76.81545,77.1124,70,44,0
76.53297,77.1124,62,39,0
77.1124,77.38179,62,41,0
77.1124,77.38179,59,41,0
77.38179,77.51649,64,39,0
77.51649,77.651184,62,39,0
77.651184,77.92313,59,41,0
77.92313,78.18763,62,38,0
78.455795,78.72396,62,42,0
77.1124,78.72396,71,55,0
78.72396,78.992134,65,43,0
78.72396,78.992134,59,43,0
78.992134,79.12622,64,40,0
79.12622,79.2603,62,40,0
79.2603,79.532234,59,42,0
79.532234,79.79796,62,40,0
80.06735,80.336754,62,42,0
78.72396,80.336754,71,55,0
80.336754,80.60615,62,44,0
80.336754,80.60615,60,44,0
80.60615,80.740845,64,42,0
80.740845,80.87554,62,42,0
80.87554,81.147484,60,44,0
81.147484,81.41199,62,41,0
80.336754,81.41199,72,55,0
81.41199,81.68392,60,44,0
81.68392,81.95586,62,41,0
81.41199,81.97831,68,53,0
81.95586,82.22525,62,44,0
81.95586,82.22525,60,44,0
82.22525,82.359955,64,42,0
82.359955,82.49465,62,42,0
82.49465,82.76659,60,44,0
82.76659,83.03109,62,41,0
81.95586,83.03109,69,55,0
83.03109,83.303024,60,44,0
83.303024,83.57496,62,41,0
83.03109,83.59741,70,53,0
83.57496,83.84436,62,44,0
83.57496,83.84436,59,44,0
83.84436,83.97906,64,42,0
83.97906,84.113754,62,42,0
84.113754,84.38569,59,44,0
84.38569,84.65019,62,41,0
83.57496,84.65019,71,55,0
84.92213,85.19407,62,49,0
85.19407,85.46346,59,51,0
85.46346,85.59816,69,46,0
85.59816,85.73286,67,47,0
85.19407,86.00479,64,51,0
85.73286,86.00479,64,50,0
86.00479,86.269295,71,57,0
86.269295,86.537155,76,59,0
86.269295,86.537155,64,50,0
86.537155,86.807335,71,55,0
86.807335,87.07673,62,61,0
87.07673,87.211426,67,53,0
87.211426,87.34613,66,53,0
87.34613,87.88257,65,55,0
86.807335,87.88257,74,50,0
87.88257,88.1545,73,59,0
88.1545,88.43322,66,55,0
87.618065,88.43322,64,55,0
88.43322,90.06861,71,66,0
88.43322,90.06861,62,53,0
90.06861,91.156586,72,75,0
90.06861,91.156586,69,56,0
91.156586,91.70569,71,73,0
91.156586,91.70569,68,55,0
91.70569,92.277664,74,75,0
91.70569,92.277664,71,56,0
92.25478,92.82676,69,63,0
92.25478,92.82676,72,71,0
92.80389,93.35298,68,61,0
92.80389,93.35298,71,68,0
93.35298,93.622444,68,71,0
93.35298,93.622444,65,53,0
93.622444,93.88853,69,70,0
93.622444,93.88853,66,52,0
93.88853,94.15188,72,70,0
93.88853,94.15188,69,52,0
94.15188,94.41504,76,73,0
94.15188,94.41504,72,54,0
94.41504,94.67819,79,76,0
94.41504,94.67819,76,57,0
94.67819,94.94725,78,74,0
94.67819,94.94725,74,55,0
94.94725,95.21392,78,57,0
94.94725,95.21392,81,76,0
95.21392,95.48058,78,70,0
95.21392,95.48058,74,52,0
95.48058,95.753784,76,74,0
95.48058,95.753784,72,55,0
95.753784,96.026985,72,67,0
95.753784,96.026985,69,51,0
96.026985,96.300186,71,70,0
96.026985,96.300186,68,52,0
96.300186,96.57338,74,67,0
96.300186,96.57338,71,51,0
96.57338,97.66136,72,75,0
96.57338,97.66136,69,63,0
97.66136,98.21046,71,66,0
97.66136,98.21046,68,56,0
98.21046,98.78243,74,68,0
98.21046,98.78243,70,57,0
98.75956,99.331535,69,53,0
98.75956,99.331535,72,63,0
99.308655,99.85776,67,51,0
99.308655,99.85776,70,61,0
99.85776,100.12521,68,60,0
99.85776,100.12521,65,51,0
100.12521,100.3911,69,57,0
100.12521,100.3911,66,48,0
100.3911,100.65658,72,60,0
100.3911,100.65658,69,51,0
100.65658,100.922066,75,60,0
100.65658,100.922066,72,51,0
100.922066,101.18755,79,63,0
100.922066,101.18755,75,53,0
101.18755,101.45661,78,59,0
101.18755,101.45661,74,50,0
101.45661,101.72328,78,54,0
101.45661,101.72328,81,65,0
101.72328,101.989944,78,63,0
101.72328,101.989944,74,53,0
101.989944,102.263145,75,59,0
101.989944,102.263145,72,50,0
102.263145,102.53635,69,56,0
102.263145,102.53635,67,38,0
102.53635,102.80954,74,57,0
102.53635,102.80954,66,40,0
102.80954,103.08274,72,55,0
102.80954,103.08274,69,38,0
103.08274,104.70083,70,60,0
103.08274,104.70083,67,51,0
104.96514,105.25513,75,63,0
105.233,105.520615,77,66,0
105.49849,105.78653,79,64,0
105.76398,106.05724,77,66,0
106.03468,106.30539,75,66,0
106.30539,106.5761,75,50,0
106.30539,106.5761,79,50,0
106.30539,106.5761,84,70,0
106.5761,106.84681,82,62,0
106.84681,107.11752,79,66,0
107.11752,107.39207,75,57,0
107.39207,107.66662,77,61,0
107.66662,107.94117,75,57,0
107.94117,108.211426,72,54,0
108.211426,108.48082,70,54,0
107.94117,108.48082,67,45,0
107.94117,108.48082,63,45,0
108.48082,108.75022,67,56,0
108.75022,109.019615,70,62,0
109.019615,109.28901,75,63,0
109.28901,109.55841,79,63,0
109.55841,111.18667,70,62,0
109.55841,111.18667,75,62,0
109.55841,111.18667,79,62,0
109.55841,111.18667,67,62,0
111.457375,111.750435,75,63,0
111.72809,112.0186,77,66,0
111.996254,112.28699,79,64,0
112.26443,112.55769,77,66,0
112.53513,112.80585,75,66,0
112.80585,113.07655,75,50,0
112.80585,113.07655,79,50,0
112.80585,113.07655,84,70,0
113.07655,113.34726,82,62,0
113.34726,113.61797,79,66,0
113.61797,113.892525,75,57,0
113.892525,114.16707,77,61,0
114.16707,114.44162,75,57,0
114.44162,114.711876,72,54,0
114.711876,114.98127,70,54,0
114.44162,114.98127,67,45,0
114.44162,114.98127,63,45,0
114.98127,115.25067,67,56,0
115.25067,115.520065,70,62,0
115.520065,115.78946,75,63,0
115.78946,116.05886,79,63,0
116.05886,117.14268,79,69,0
116.05886,117.14268,70,69,0
116.05886,117.14268,74,69,0
116.05886,117.14268,82,69,0
117.14268,117.685265,74,67,0
117.14268,117.685265,70,67,0
117.685265,117.949585,72,60,0
117.685265,117.949585,69,60,0
117.949585,118.21864,75,65,0
117.949585,118.21864,72,65,0
118.21864,118.74962,81,70,0
118.21864,118.74962,77,70,0
118.74962,119.01489,77,71,0
118.74962,119.01489,74,71,0
119.01489,119.28395,74,63,0
119.01489,119.28395,70,63,0
119.28395,119.41438,70,66,0
119.28395,119.41438,67,66,0
119.54482,119.67757,79,65,0
119.54482,119.67757,75,65,0
119.81031,119.944725,75,66,0
119.81031,119.944725,72,66,0
120.07915,120.21357,72,61,0
120.07915,120.21357,69,61,0
120.34799,120.480034,69,65,0
120.34799,120.480034,66,65,0
120.612076,120.7465,77,60,0
120.612076,120.7465,74,60,0
120.88091,121.01594,74,69,0
120.88091,121.01594,70,69,0
121.15097,121.28848,70,64,0
121.15097,121.28848,67,64,0
121.425995,121.70102,67,68,0
121.70102,121.97605,70,62,0
121.425995,121.97605,63,68,0
121.97605,122.251076,69,64,0
122.251076,122.52997,74,56,0
121.97605,122.52997,66,54,0
121.97605,122.52997,60,54,0
122.52997,124.15195,74,70,0
124.41859,124.50588,72,64,0
124.50588,124.59317,74,61,0
124.59317,124.68046,72,61,0
124.68046,124.94234,71,64,0
124.94234,125.20898,72,61,0
125.20898,125.47562,74,64,0
125.47562,125.74594,75,62,0
125.74594,126.01258,70,61,0
125.74594,126.01258,67,61,0
126.01258,126.27922,72,63,0
126.27922,126.54587,73,66,0
126.54587,126.816185,74,69,0
126.816185,127.084045,79,70,0
127.084045,127.3519,74,66,0
127.3519,128.4283,70,68,0
127.3519,128.4283,66,68,0
128.4283,128.90575,69,68,0
128.97151,129.24178,79,60,0
128.93863,129.24178,74,56,0
128.90575,129.24178,67,55,0
129.24178,129.37451,74,57,0
129.50726,129.64,75,60,0
129.77275,129.90549,79,57,0
130.03824,130.17097,78,64,0
130.30373,130.43646,81,59,0
130.56921,130.65654,79,64,0
130.65654,130.74388,81,54,0
130.74388,130.83122,79,54,0
130.83122,130.96165,78,59,0
131.09209,131.22308,79,66,0
131.3541,131.48683,82,64,0
131.61958,131.75232,81,69,0
131.61958,131.75232,74,61,0
131.88507,132.02084,86,71,0
132.15663,133.22821,77,68,0
133.22821,133.77135,75,68,0
133.77135,133.85942,74,64,0
133.85942,133.9475,75,55,0
133.9475,134.03557,74,55,0
134.03557,134.29744,72,59,0
134.29744,134.56168,71,64,0
134.56168,134.82831,72,58,0
134.82831,135.09496,74,64,0
135.09496,135.36528,75,58,0
135.36528,136.42352,74,69,0
136.42352,136.69016,73,59,0
136.69016,136.96048,74,56,0
136.42352,136.96048,68,47,0
136.96048,137.22235,77,59,0
137.22235,137.48422,75,57,0
137.48422,137.74629,74,64,0
137.74629,138.00992,75,61,0
138.00992,138.27495,72,69,0
136.96048,138.54199,67,46,0
138.27495,138.54199,67,66,0
138.54199,138.80984,74,70,0
138.54199,138.80984,70,64,0
138.54199,138.80984,65,63,0
138.80984,138.94316,77,57,0
139.07649,139.20981,78,60,0
139.34314,139.47646,82,57,0
139.60977,139.7431,81,64,0
139.87642,140.00974,84,59,0
140.14307,140.22882,82,64,0
140.22882,140.31458,84,54,0
140.31458,140.40033,82,54,0
140.40033,140.52896,81,58,0
140.6576,140.79092,82,63,0
140.92424,141.05756,86,63,0
141.19089,141.323,84,63,0
141.19089,141.323,77,58,0
141.45511,141.59027,89,60,0
141.99207,142.25394,70,64,0
142.25394,142.51581,72,64,0
142.51581,142.78246,74,61,0
142.78246,143.0491,77,64,0
143.0491,143.31941,75,62,0
143.31941,143.4083,74,61,0
143.4083,143.49718,75,56,0
143.49718,143.58606,74,55,0
143.58606,143.8527,71,59,0
143.8527,144.11934,70,63,0
144.11934,144.38966,68,57,0
144.38966,144.65752,66,65,0
144.65752,144.85841,70,58,0
144.85841,144.92538,70,60,0
144.92538,145.98239,65,65,0
145.98239,146.51813,70,56,0
145.98239,146.51813,68,56,0
146.51813,147.57689,70,57,0
146.51813,147.57689,66,41,0
147.57689,147.84557,69,67,0
147.84557,148.11588,75,64,0
148.38252,148.6444,70,64,0
148.6444,148.90627,71,64,0
148.90627,149.17291,74,61,0
149.17291,149.43954,77,67,0
149.43954,149.70987,78,67,0
149.70987,149.79875,77,61,0
149.79875,149.88763,78,51,0
149.88763,149.97652,77,51,0
149.70987,149.97652,70,41,0
149.97652,150.24316,75,54,0
150.24316,150.5098,71,65,0
150.5098,150.78012,70,58,0
150.78012,151.04797,66,65,0
151.04797,151.24887,70,58,0
151.24887,151.31583,70,60,0
151.31583,152.39827,65,63,0
152.39827,152.934,70,56,0
152.39827,152.934,68,56,0
152.934,153.98941,66,48,0
152.934,153.99277,70,65,0
153.99277,154.26144,69,67,0
154.26144,154.53175,75,64,0
154.53175,155.61803,74,64,0
156.42781,156.51509,72,64,0
156.51509,156.60239,74,54,0
156.60239,156.68968,72,54,0
156.68968,156.95155,71,58,0
156.95155,157.21819,72,61,0
157.21819,157.48483,74,64,0
157.48483,157.75516,75,62,0
157.75516,158.01947,70,61,0
157.75516,158.01947,67,61,0
158.01947,158.28378,72,63,0
158.28378,158.54811,73,66,0
158.54811,158.81842,74,69,0
158.81842,159.08273,79,70,0
159.08273,159.3506,74,66,0
159.3506,160.427,70,68,0
159.3506,160.427,66,59,0
160.427,160.90443,69,65,0
160.9702,161.23926,79,60,0
160.93732,161.23926,74,56,0
160.90443,161.23926,67,55,0
161.23926,161.37201,74,57,0
161.50475,161.6375,75,60,0
161.77023,161.90297,79,57,0
162.03572,162.16846,78,64,0
162.30121,162.43394,81,59,0
162.5667,162.6529,79,64,0
162.6529,162.7391,81,54,0
162.7391,162.82532,79,54,0
162.82532,162.95518,78,58,0
163.08505,163.21606,79,63,0
163.34706,163.47981,82,60,0
163.61255,163.74529,81,63,0
163.61255,163.74529,74,63,0
163.87804,164.01077,84,60,0
164.14352,164.27283,82,64,0
164.40215,164.53548,86,63,0
164.40215,164.53548,89,63,0
164.40215,164.53548,80,63,0
164.66881,164.80151,79,61,0
164.66881,164.80151,84,61,0
164.66881,164.80151,88,61,0
164.93402,165.06555,87,60,0
164.93402,165.06555,84,60,0
164.93402,165.06555,78,60,0
165.19727,165.32938,79,58,0
165.19727,165.32938,86,58,0
165.46179,165.59883,74,57,0
165.46179,165.59883,81,57,0
165.46179,165.59883,84,57,0
165.73433,166.00218,82,65,0
165.73433,166.00218,79,65,0
165.73433,166.00218,74,65,0
166.00218,166.27003,80,60,0
166.00218,166.27003,71,60,0
166.27003,166.53882,72,57,0
166.53882,166.8108,73,60,0
166.8108,167.0849,74,62,0
166.27003,167.0849,79,57,0
167.0849,167.37106,75,67,0
167.0849,167.37106,79,67,0
167.0849,167.37106,82,67,0
167.37106,168.48837,79,70,0
167.37106,168.48837,70,70,0
167.37106,168.48837,74,70,0
167.37106,168.48837,82,70,0
168.48837,169.02167,74,67,0
168.48837,169.02167,70,67,0
169.02167,169.15202,72,61,0
169.02167,169.15202,69,61,0
169.28238,169.4157,75,67,0
169.28238,169.4157,72,67,0
169.54901,169.81566,81,70,0
169.54901,169.81566,77,70,0
170.0823,170.21266,77,71,0
170.0823,170.21266,74,71,0
170.34302,170.47635,74,65,0
170.34302,170.47635,70,65,0
170.60968,170.74068,70,68,0
170.60968,170.74068,67,68,0
170.87169,171.00443,79,63,0
170.87169,171.00443,75,63,0
171.13718,171.26929,75,67,0
171.13718,171.26929,72,67,0
171.4014,171.53351,72,63,0
171.4014,171.53351,69,63,0
171.66562,171.79655,69,67,0
171.66562,171.79655,66,67,0
171.92749,172.06082,77,64,0
171.92749,172.06082,74,64,0
172.19414,172.46078,74,70,0
172.19414,172.46078,70,70,0
172.46078,172.7311,70,65,0
172.46078,172.7311,67,65,0
172.7311,173.00507,67,69,0
173.00507,173.27904,70,63,0
172.7311,173.27904,63,62,0
173.27904,173.55428,69,65,0
173.55428,173.83998,70,59,0
173.27904,173.83998,66,55,0
173.27904,173.83998,60,55,0
173.83998,175.52655,71,53,0
173.83998,175.52655,59,45,0
173.83998,175.52655,62,45,0
173.83998,175.52655,67,45,0
175.52655,175.80305,56,50,0
175.80305,176.07956,60,51,0
176.07956,176.35863,63,53,0
176.35863,176.6377,68,54,0
176.6377,176.9234,70,56,0
176.9234,177.21753,72,58,0
177.21753,178.92839,74,53,0
177.21753,178.92839,62,45,0
177.21753,178.92839,67,45,0
177.21753,178.92839,71,45,0
178.92839,179.2141,56,50,0
179.2141,179.49982,58,51,0
179.49982,179.6876,60,56,0
179.6876,179.87674,63,53,0
179.87674,180.06767,68,53,0
180.06767,180.26231,72,57,0
180.26231,180.46083,75,53,0
180.46083,180.67589,84,53,0
180.67589,186.0848,83,55,0
180.67589,186.0848,79,55,0
180.67589,186.0848,74,55,0
186.0848,188.29338,95,51,0
186.0848,188.29338,91,51,0
186.0848,188.29338,83,43,0
186.0848,188.29338,86,43,0
188.29338,190.8648,71,42,0
188.29338,190.8648,59,35,0
188.29338,190.8648,62,35,0
188.29338,190.8648,67,42,0
0.2702705,0.40301374,71,53,0
0.535757,0.66850024,72,57,0
0.8012435,0.9339867,69,54,0
1.06673,1.1994733,74,57,0
1.3322165,1.4649597,72,53,0
1.597703,1.7281377,70,57,0
1.8585725,1.9895767,69,54,0
2.120581,2.2510157,70,57,0
2.3814504,2.513609,67,54,0
2.6457675,2.777926,66,57,0
2.9100845,3.042243,62,55,0
3.1744015,3.3042717,67,57,0
3.434142,3.5645769,71,52,0
3.6950116,3.8277197,72,55,0
3.96023,4.0917516,69,52,0
4.2234697,4.3555818,70,55,0
4.487992,4.6250405,66,53,0
4.7605295,5.0283866,67,57,0
5.0283866,5.2962437,65,52,0
5.2962437,5.5650215,64,54,0
5.5650215,5.8370113,63,57,0
5.8370113,6.1111093,62,58,0
6.1111093,6.3972597,61,61,0
6.3972597,6.676589,38,59,0
6.676589,7.235248,62,55,0
7.235248,7.7812204,62,51,0
7.7812204,8.308575,62,51,0
8.308575,8.843118,62,55,0
8.843118,9.3680525,62,54,0
9.3680525,9.89918,62,52,0
9.89918,10.4276285,62,55,0
10.4276285,10.951412,62,51,0
10.951412,11.481053,62,51,0
11.481053,11.751372,62,51,0
11.751372,12.29201,62,46,0
12.29201,12.832775,50,43,0
12.832775,13.366108,47,51,0
13.366108,13.909242,60,39,0
13.909242,14.452375,59,36,0
13.366108,14.452375,68,29,0
13.366108,14.452375,65,29,0
13.366108,14.452375,62,29,0
14.452375,14.98089,48,51,0
14.98089,16.046366,57,45,0
14.98089,16.046366,63,45,0
14.98089,16.046366,67,45,0
16.046366,17.102554,38,51,0
17.102554,17.36687,62,44,0
17.634727,17.902586,60,51,0
17.902586,18.170443,61,44,0
18.170443,18.4383,62,51,0
18.4383,18.529242,61,51,0
18.529242,18.620184,62,45,0
18.620184,18.711126,61,45,0
18.711126,18.983952,60,51,0
17.634727,18.983952,50,51,0
18.983952,19.254333,50,44,0
19.254333,19.524603,58,44,0
19.254333,19.524603,50,44,0
19.254333,19.524603,43,44,0
19.524603,19.656761,71,53,0
19.78892,19.921078,72,57,0
20.053238,20.185396,69,54,0
20.317554,20.449713,74,57,0
20.581871,20.71403,72,53,0
20.846188,20.976059,70,57,0
21.105928,21.2358,69,55,0
21.36567,21.497828,70,59,0
21.629986,21.76273,67,57,0
21.895473,22.028215,66,62,0
22.16096,22.296743,62,61,0
22.432526,22.960974,48,51,0
22.960974,23.499092,66,49,0
23.499092,24.042078,67,54,0
22.960974,24.042078,63,41,0
22.960974,24.042078,60,41,0
24.042078,24.568172,41,51,0
24.568172,25.09904,68,55,0
25.09904,25.636002,69,56,0
24.568172,25.636002,63,41,0
24.568172,25.636002,60,41,0
25.636002,26.16573,46,57,0
26.16573,26.4276,66,46,0
26.16573,26.4276,69,55,0
26.16573,26.4276,61,46,0
26.4276,26.694244,70,60,0
26.4276,26.694244,62,51,0
26.694244,27.231207,59,55,0
27.231207,27.75495,48,60,0
27.75495,28.017015,59,49,0
28.017015,28.28065,60,52,0
28.28065,28.545668,62,55,0
28.545668,28.812716,63,57,0
28.812716,29.080574,41,63,0
29.080574,29.213894,74,53,0
29.347216,29.480537,75,57,0
29.61386,29.74718,72,54,0
29.880503,30.013824,77,57,0
30.147144,30.280466,75,53,0
30.413788,30.542421,74,57,0
30.671057,30.79969,73,54,0
30.928324,31.061646,74,57,0
31.194967,31.328289,70,53,0
31.46161,31.593721,69,55,0
31.725834,31.860994,65,51,0
31.996153,32.52467,46,51,0
32.52467,33.590145,53,45,0
32.52467,33.590145,62,45,0
33.590145,34.12343,46,48,0
34.12343,35.196106,54,37,0
34.12343,35.196106,59,37,0
34.12343,35.196106,63,44,0
35.196106,35.463963,46,52,0
35.463963,35.725834,58,52,0
35.725834,35.987705,60,54,0
35.987705,36.253124,62,51,0
36.253124,36.51854,65,55,0
36.51854,36.788857,62,53,0
36.788857,36.876537,63,48,0
36.876537,36.96422,65,42,0
36.96422,37.0519,63,42,0
37.0519,37.31494,62,46,0
37.31494,37.580563,63,55,0
37.580563,37.84761,65,57,0
37.84761,38.38661,66,61,0
38.38661,38.915123,46,51,0
38.915123,39.443634,56,37,0
39.443634,39.9806,59,37,0
38.915123,39.9806,62,45,0
38.915123,39.9806,68,45,0
39.9806,40.513885,46,48,0
40.513885,41.58656,58,37,0
40.513885,41.58656,66,44,0
41.58656,41.879845,46,57,0
41.879845,42.141716,58,55,0
42.141716,42.403587,60,57,0
42.403587,42.669003,62,54,0
42.669003,42.93442,65,58,0
42.93442,43.20474,62,55,0
43.20474,43.29242,63,52,0
43.29242,43.3801,65,44,0
43.3801,43.46778,63,44,0
43.46778,43.730824,62,49,0
43.730824,43.996445,63,58,0
43.996445,44.263493,65,61,0
44.263493,44.802486,66,65,0
44.802486,45.345623,46,58,0
45.345623,45.888756,64,49,0
45.888756,46.43189,65,46,0
45.345623,46.43189,58,41,0
45.345623,46.43189,62,41,0
46.43189,46.960403,48,51,0
46.960403,47.48892,70,38,0
47.48892,48.02588,69,45,0
46.960403,48.02588,60,38,0
46.960403,48.02588,63,38,0
46.960403,48.02588,67,38,0
48.02588,49.077423,38,51,0
49.077423,49.33943,62,44,0
49.60729,49.875145,60,51,0
49.875145,50.143,61,44,0
50.143,50.41086,62,51,0
50.41086,50.5018,61,51,0
50.5018,50.592743,62,45,0
50.592743,50.683685,61,45,0
50.683685,50.956512,60,51,0
49.60729,50.956512,50,48,0
50.956512,51.226894,50,44,0
51.226894,51.49716,58,44,0
51.226894,51.49716,50,44,0
51.226894,51.49716,43,44,0
51.49716,51.629906,71,53,0
51.76265,51.895393,72,57,0
52.028137,52.16088,69,54,0
52.293625,52.426365,74,57,0
52.55911,52.691853,72,53,0
52.824596,52.955032,70,57,0
53.085464,53.2159,69,54,0
53.346336,53.477913,70,57,0
53.609493,53.741653,67,54,0
53.87381,54.00597,66,57,0
54.138126,54.270287,62,55,0
54.402443,54.531754,67,57,0
54.661064,54.793808,71,52,0
54.92655,55.05926,72,55,0
55.19177,55.32329,69,52,0
55.45501,55.58712,70,55,0
55.719532,55.85658,66,53,0
55.99207,56.259926,67,57,0
56.259926,56.527782,65,52,0
56.527782,56.796562,64,54,0
56.796562,57.06855,63,57,0
57.06855,57.342648,62,58,0
57.342648,57.6288,61,61,0
57.6288,57.90813,38,59,0
57.90813,58.46679,62,57,0
58.46679,59.01276,62,51,0
59.01276,59.540115,62,51,0
59.540115,60.0734,62,56,0
60.0734,60.600754,62,54,0
60.600754,61.133034,62,52,0
61.133034,61.661575,62,56,0
61.661575,62.187668,62,51,0
62.187668,62.720955,62,51,0
62.720955,62.991276,62,51,0
62.991276,63.53922,62,46,0
63.53922,64.10017,50,43,0
64.10017,65.17539,50,42,0
64.10017,65.17539,43,35,0
65.17539,65.71173,50,38,0
65.17539,65.71173,38,32,0
65.71173,66.78573,50,43,0
65.71173,66.78573,44,36,0
66.78573,67.324524,50,38,0
66.78573,67.324524,38,32,0
67.324524,68.39975,50,42,0
67.324524,68.39975,45,35,0
68.39975,68.94363,50,38,0
68.39975,68.94363,38,32,0
68.94363,70.01886,50,42,0
68.94363,70.01886,42,35,0
70.01886,70.56273,50,38,0
70.01886,70.56273,38,32,0
70.56273,71.63796,50,42,0
70.56273,71.63796,43,35,0
71.63796,72.18183,50,38,0
71.63796,72.18183,38,32,0
72.18183,72.45123,56,39,0
72.45123,72.58593,59,38,0
72.58593,72.72063,57,38,0
72.72063,73.257065,56,39,0
72.18183,73.257065,52,35,0
73.257065,73.800674,52,38,0
73.800674,74.87617,52,42,0
74.87617,75.01214,51,46,0
75.01214,75.14811,53,32,0
75.14811,75.420044,51,34,0
73.800674,75.420044,45,35,0
75.96631,76.53297,55,41,0
76.53297,77.1124,54,37,0
75.420044,77.1124,38,38,0
77.1124,78.18763,50,39,0
77.1124,78.18763,43,25,0
78.18763,78.72396,50,38,0
78.18763,78.72396,38,32,0
78.72396,79.79796,50,41,0
78.72396,79.79796,44,34,0
79.79796,80.336754,50,38,0
79.79796,80.336754,38,32,0
80.336754,81.41199,50,42,0
80.336754,81.41199,45,35,0
81.41199,81.95586,50,38,0
81.41199,81.95586,38,32,0
81.95586,83.03109,50,42,0
81.95586,83.03109,42,35,0
83.03109,83.57496,50,38,0
83.03109,83.57496,38,32,0
83.57496,84.65019,50,42,0
83.57496,84.65019,43,35,0
84.65019,85.19407,55,47,0
85.19407,85.35121,49,51,0
85.328766,85.48591,50,39,0
86.00479,86.269295,54,46,0
86.269295,86.537155,55,50,0
85.46346,86.537155,49,49,0
86.537155,86.807335,61,44,0
86.807335,87.88257,54,49,0
87.88257,88.43322,42,46,0
88.702614,88.83921,57,47,0
88.83921,88.975815,55,45,0
88.975815,89.249016,53,49,0
89.249016,89.52221,54,46,0
89.52221,90.06861,59,52,0
88.43322,90.06861,47,48,0
90.06861,90.33678,38,62,0
90.33678,90.47405,62,53,0
90.47405,90.61133,62,53,0
90.61133,90.88588,62,59,0
90.88588,91.156586,62,55,0
91.43114,91.98023,62,55,0
91.98023,92.529335,62,53,0
92.529335,93.07843,62,53,0
93.07843,93.622444,62,49,0
93.622444,94.15188,62,51,0
94.15188,94.67819,62,55,0
94.67819,95.21392,62,54,0
95.21392,95.753784,62,57,0
95.753784,96.300186,62,51,0
96.300186,96.57338,62,51,0
96.57338,96.84155,38,62,0
96.84155,96.97883,62,48,0
96.97883,97.1161,62,48,0
97.1161,97.39065,62,52,0
97.39065,97.66136,62,49,0
97.935905,98.48501,62,49,0
98.48501,99.0341,62,48,0
99.0341,99.583206,62,48,0
99.583206,100.12521,62,44,0
100.12521,100.65658,62,46,0
100.65658,101.18755,62,45,0
101.18755,101.72328,62,50,0
101.72328,102.263145,62,48,0
102.263145,102.80954,62,42,0
102.80954,103.08274,62,40,0
103.34972,103.48246,63,51,0
103.48246,103.615204,65,50,0
103.615204,103.88426,63,54,0
103.88426,104.15332,62,49,0
104.15332,104.42238,63,54,0
104.42238,104.70083,62,50,0
104.70083,106.30539,61,51,0
106.30539,107.94117,73,54,0
107.94117,109.55841,61,51,0
109.55841,109.825386,37,56,0
109.825386,109.96074,63,51,0
109.96074,110.09609,65,50,0
110.09609,110.3668,63,54,0
110.3668,110.63751,62,49,0
110.63751,110.90822,63,54,0
110.90822,111.18667,62,50,0
111.18667,112.80585,61,51,0
112.80585,114.44162,73,54,0
114.44162,116.05886,61,51,0
116.05886,116.32981,38,57,0
116.32981,116.87172,62,55,0
116.87172,117.41397,62,50,0
117.41397,117.949585,62,50,0
117.949585,118.48413,62,56,0
118.48413,119.01489,62,53,0
119.01489,119.54482,62,51,0
119.54482,120.07915,62,56,0
120.07915,120.612076,62,50,0
120.612076,121.15097,62,50,0
121.15097,121.425995,62,50,0
121.425995,121.97605,62,45,0
121.97605,122.52997,50,42,0
122.52997,123.06568,47,53,0
123.06568,123.60881,60,40,0
123.60881,124.15195,59,36,0
123.06568,124.15195,68,29,0
123.06568,124.15195,65,29,0
123.06568,124.15195,62,29,0
124.15195,124.68046,48,51,0
124.68046,125.74594,57,45,0
124.68046,125.74594,63,45,0
124.68046,125.74594,67,45,0
125.74594,126.816185,38,51,0
126.816185,127.084045,62,44,0
127.3519,127.61976,60,51,0
127.61976,127.88761,61,44,0
127.88761,128.15547,62,51,0
128.15547,128.24641,61,51,0
128.24641,128.33736,62,45,0
128.33736,128.4283,61,45,0
128.4283,128.70113,60,51,0
127.3519,128.70113,50,51,0
128.70113,128.97151,50,44,0
128.97151,129.24178,58,44,0
128.97151,129.24178,50,44,0
128.97151,129.24178,43,44,0
129.24178,129.37451,71,53,0
129.50726,129.64,72,57,0
129.77275,129.90549,69,54,0
130.03824,130.17097,74,57,0
130.30373,130.43646,72,53,0
130.56921,130.70021,70,57,0
130.83122,130.96165,69,55,0
131.09209,131.22308,70,59,0
131.3541,131.48683,67,57,0
131.61958,131.75232,66,62,0
131.88507,132.02084,62,61,0
132.15663,132.68509,48,51,0
132.68509,133.22821,66,49,0
133.22821,133.77135,67,54,0
132.68509,133.77135,63,41,0
132.68509,133.77135,60,41,0
133.77135,134.29744,41,51,0
134.29744,134.82831,68,55,0
134.82831,135.36528,69,56,0
134.29744,135.36528,63,41,0
134.29744,135.36528,60,41,0
135.36528,135.895,46,57,0
135.895,136.15688,66,46,0
135.895,136.15688,69,55,0
135.895,136.15688,61,46,0
136.15688,136.42352,70,60,0
136.15688,136.42352,62,51,0
136.42352,136.96048,59,55,0
136.96048,137.48422,48,60,0
137.48422,137.74629,59,49,0
137.74629,138.00992,60,52,0
138.00992,138.27495,62,55,0
138.27495,138.54199,63,57,0
138.54199,138.80984,41,63,0
138.80984,138.94316,74,53,0
139.07649,139.20981,75,57,0
139.34314,139.47646,72,54,0
139.60977,139.7431,77,57,0
139.87642,140.00974,75,53,0
140.14307,140.2717,74,57,0
140.40033,140.52896,73,54,0
140.6576,140.79092,74,57,0
140.92424,141.05756,70,52,0
141.19089,141.323,69,55,0
141.45511,141.59027,65,51,0
141.72543,142.25394,46,51,0
142.25394,143.31941,53,45,0
142.25394,143.31941,62,45,0
143.31941,143.8527,46,48,0
143.8527,144.92538,54,37,0
143.8527,144.92538,59,37,0
143.8527,144.92538,63,44,0
144.92538,145.19324,46,54,0
145.19324,145.45511,58,52,0
145.45511,145.71698,60,54,0
145.71698,145.98239,62,51,0
145.98239,146.24782,65,55,0
146.24782,146.51813,62,53,0
146.51813,146.60582,63,48,0
146.60582,146.6935,65,42,0
146.6935,146.78117,63,42,0
146.78117,147.04422,62,46,0
147.04422,147.30984,63,55,0
147.30984,147.57689,65,57,0
147.57689,148.11588,66,61,0
148.11588,148.6444,46,51,0
148.6444,149.17291,56,37,0
149.17291,149.70987,59,37,0
148.6444,149.70987,62,45,0
148.6444,149.70987,68,45,0
149.70987,150.24316,46,48,0
150.24316,151.31583,58,37,0
150.24316,151.31583,66,44,0
151.31583,151.60912,46,57,0
151.60912,151.87099,58,55,0
151.87099,152.13286,60,57,0
152.13286,152.39827,62,54,0
152.39827,152.6637,65,58,0
152.6637,152.934,62,56,0
152.934,153.0217,63,52,0
153.0217,153.10938,65,44,0
153.10938,153.19705,63,44,0
153.19705,153.4601,62,49,0
153.4601,153.72572,63,58,0
153.72572,153.99277,65,61,0
153.99277,154.53175,66,65,0
154.53175,155.07489,46,58,0
155.07489,155.61803,64,49,0
155.61803,156.16116,65,46,0
155.07489,156.16116,58,41,0
155.07489,156.16116,62,41,0
156.16116,156.68968,48,51,0
156.68968,157.21819,70,38,0
157.21819,157.75516,69,45,0
156.68968,157.75516,60,38,0
156.68968,157.75516,63,38,0
156.68968,157.75516,67,38,0
157.75516,158.81842,38,51,0
158.81842,159.08273,62,44,0
159.3506,159.61845,60,51,0
159.61845,159.8863,61,44,0
159.8863,160.15417,62,51,0
160.15417,160.24512,61,51,0
160.24512,160.33606,62,45,0
160.33606,160.427,61,45,0
160.427,160.69981,60,51,0
159.3506,160.69981,50,48,0
160.69981,160.9702,50,44,0
160.9702,161.23926,58,44,0
160.9702,161.23926,50,44,0
160.9702,161.23926,43,44,0
161.23926,161.37201,71,53,0
161.50475,161.6375,72,57,0
161.77023,161.90297,69,54,0
162.03572,162.16846,74,57,0
162.30121,162.43394,72,53,0
162.5667,162.696,70,57,0
162.82532,162.95518,69,54,0
163.08505,163.21606,70,57,0
163.34706,163.47981,67,54,0
163.61255,163.74529,66,57,0
163.87804,164.01077,62,55,0
164.14352,164.27283,67,57,0
164.40215,164.53548,71,52,0
164.66881,164.80151,72,55,0
164.93402,165.06555,69,52,0
165.19727,165.32938,70,55,0
165.46179,165.59883,66,53,0
165.73433,166.00218,67,57,0
166.00218,166.27003,65,52,0
166.27003,166.53882,64,54,0
166.53882,166.8108,63,57,0
166.8108,167.0849,62,58,0
167.0849,167.37106,61,61,0
167.37106,167.65039,38,59,0
167.65039,168.20905,62,57,0
168.20905,168.75502,62,51,0
168.75502,169.28238,62,51,0
169.28238,169.81566,62,54,0
169.81566,170.34302,62,54,0
170.34302,170.87169,62,52,0
170.87169,171.4014,62,58,0
171.4014,171.92749,62,51,0
171.92749,172.46078,62,51,0
172.46078,172.7311,62,51,0
172.7311,173.27904,62,46,0
173.27904,173.83998,50,43,0
173.83998,174.11777,43,46,0
174.11777,174.39554,49,43,0
174.39554,174.6854,50,46,0
174.6854,174.8505,53,43,0
174.8269,174.92125,51,47,0
174.89766,174.99167,53,42,0
174.96841,175.24748,51,51,0
175.24748,175.52655,50,51,0
175.52655,177.21753,51,47,0
175.52655,177.21753,43,39,0
177.21753,177.4979,43,46,0
177.4979,177.77827,49,43,0
177.77827,178.06953,50,46,0
178.06953,178.23541,53,43,0
178.21172,178.3065,51,47,0
178.2828,178.37726,53,42,0
178.3539,178.63426,51,51,0
178.63426,178.92839,50,51,0
178.92839,180.67589,51,47,0
178.92839,180.67589,43,39,0
180.67589,180.96161,43,46,0
180.96161,181.24731,49,43,0
181.24731,181.54582,50,46,0
181.54582,181.7141,53,43,0
181.69006,181.78621,51,47,0
181.76218,181.8581,53,42,0
181.83429,182.12,51,51,0
182.12,182.41412,50,51,0
182.41412,182.70258,55,46,0
182.70258,182.99104,59,43,0
182.99104,183.2866,61,46,0
183.2866,183.52815,62,43,0
183.504,183.60051,65,42,0
183.57646,183.86493,63,51,0
183.86493,184.17105,62,51,0
184.17105,184.46808,67,46,0
184.46808,184.7651,71,43,0
184.7651,185.0809,73,46,0
185.0809,185.336,74,43,0
185.31049,185.41449,77,42,0
185.38702,185.71669,75,51,0
185.71669,186.0848,74,51,0
186.0848,188.29338,79,32,0
186.0848,188.29338,74,32,0
186.0848,188.29338,67,32,0
188.29338,190.8648,55,27,0
188.29338,190.8648,50,23,0
188.29338,190.8648,43,23,0
