start_time,end_time,note_value,velocity,instrument_program_number
0.0,0.27907,77,56,0
0.0,0.27907,69,46,0
0.27907,0.36997917,76,50,0
0.36997917,0.46088833,77,47,0
0.46088833,0.5517975,76,47,0
0.27907,0.5517975,69,46,0
0.5517975,0.687544,74,50,0
0.687544,0.827731,76,47,0
0.5517975,0.827731,69,33,0
0.827731,0.96226025,77,53,0
0.96226025,1.1086018,74,49,0
0.827731,1.1086018,69,34,0
1.1086018,1.2157447,76,51,0
1.1086018,1.2157447,69,43,0
1.3943162,1.5035394,72,44,0
1.3943162,1.5035394,69,38,0
1.6855782,1.9646482,69,46,0
1.6855782,1.9646482,77,56,0
1.9646482,2.0555575,76,50,0
2.0555575,2.1464665,77,47,0
2.1464665,2.2373757,76,47,0
1.9646482,2.2373757,69,46,0
2.2373757,2.3731222,74,50,0
2.3731222,2.5133092,76,47,0
2.2373757,2.5133092,69,32,0
2.5133092,2.6478386,77,53,0
2.6478386,2.7934694,74,49,0
2.5133092,2.7934694,69,33,0
2.7934694,2.9006124,76,51,0
2.7934694,2.9006124,69,43,0
3.079184,3.1884072,69,38,0
3.079184,3.1884072,72,44,0
3.370446,3.5086946,74,58,0
3.5086946,3.6469436,76,52,0
3.370446,3.6469436,69,43,0
3.6469436,3.8993473,69,38,0
3.6469436,3.8993473,72,54,0
3.935405,4.0717688,74,58,0
4.0717688,4.2113037,76,60,0
3.935405,4.2113037,69,43,0
4.2113037,4.45549,69,45,0
4.2113037,4.45549,77,64,0
4.4903736,4.6286225,74,58,0
4.6286225,4.7668715,76,52,0
4.4903736,4.7668715,69,43,0
4.7668715,5.0204945,69,34,0
4.7668715,5.0204945,72,48,0
5.0567265,5.192473,74,56,0
5.192473,5.3307214,76,51,0
5.0567265,5.3307214,69,41,0
5.3307214,5.5813227,69,32,0
5.3307214,5.5813227,72,47,0
5.617908,5.757443,74,52,0
5.757443,5.896978,76,54,0
5.617908,5.896978,69,46,0
5.896978,6.035867,79,57,0
6.035867,6.1800976,77,51,0
5.896978,6.1800976,69,43,0
6.1800976,6.321607,74,55,0
6.321607,6.4672384,76,54,0
6.1800976,6.4672384,69,43,0
6.4672384,6.7585,69,40,0
6.4672384,6.7585,72,49,0
6.7585,7.0375705,81,52,0
6.7585,7.0375705,73,43,0
7.0375705,7.1284795,80,47,0
7.1284795,7.2193885,81,44,0
7.2193885,7.310298,80,44,0
7.0375705,7.310298,73,43,0
7.310298,7.4460444,78,47,0
7.4460444,7.586231,80,44,0
7.310298,7.586231,73,37,0
7.586231,7.7207603,81,49,0
7.7207603,7.864991,78,46,0
7.586231,7.864991,73,36,0
7.864991,7.972134,73,39,0
7.864991,7.972134,80,47,0
8.150705,8.259929,76,46,0
8.150705,8.259929,73,39,0
8.441968,8.721038,81,52,0
8.441968,8.721038,73,43,0
8.721038,8.811947,80,47,0
8.811947,8.902856,81,44,0
8.902856,8.993765,80,44,0
8.721038,8.993765,73,43,0
8.993765,9.129512,78,47,0
9.129512,9.269699,80,44,0
8.993765,9.269699,73,37,0
9.269699,9.404228,81,49,0
9.404228,9.548459,78,46,0
9.269699,9.548459,73,36,0
9.548459,9.6556015,73,39,0
9.548459,9.6556015,80,47,0
9.834173,9.943397,76,46,0
9.834173,9.943397,73,39,0
10.125435,10.263684,78,54,0
10.263684,10.401933,80,48,0
10.125435,10.401933,73,45,0
10.401933,10.654337,76,50,0
10.401933,10.654337,73,40,0
10.690394,10.826758,78,54,0
10.826758,10.966293,80,56,0
10.690394,10.966293,73,45,0
10.966293,11.210479,81,59,0
10.966293,11.210479,73,47,0
11.245363,11.383612,78,54,0
11.383612,11.52186,80,48,0
11.245363,11.52186,73,45,0
11.52186,11.775484,76,45,0
11.52186,11.775484,73,36,0
11.811715,11.947462,78,52,0
11.947462,12.085711,80,47,0
11.811715,12.085711,73,43,0
12.085711,12.336312,76,44,0
12.085711,12.336312,73,34,0
12.372897,12.512432,78,48,0
12.512432,12.651967,80,50,0
12.372897,12.651967,73,48,0
12.651967,12.790856,83,53,0
12.790856,12.935087,81,47,0
12.651967,12.935087,73,45,0
12.935087,13.076596,78,51,0
13.076596,13.222227,80,50,0
12.935087,13.222227,73,45,0
13.222227,13.51349,76,46,0
13.222227,13.51349,73,42,0
13.51349,13.79256,76,56,0
13.51349,13.79256,84,84,0
13.79256,13.883469,83,76,0
13.883469,13.974378,84,66,0
13.974378,14.065287,83,66,0
13.79256,14.065287,76,56,0
14.065287,14.201034,81,72,0
14.201034,14.341221,83,66,0
14.065287,14.341221,76,41,0
14.341221,14.47575,84,76,0
14.47575,14.617259,81,67,0
14.341221,14.617259,77,42,0
14.617259,14.724402,83,77,0
14.617259,14.724402,77,51,0
14.902974,15.0149145,79,73,0
14.902974,15.0149145,77,51,0
15.201481,15.480552,76,56,0
15.201481,15.480552,84,84,0
15.480552,15.571461,83,76,0
15.571461,15.66237,84,67,0
15.66237,15.753279,83,67,0
15.480552,15.753279,76,56,0
15.753279,15.889026,81,73,0
15.889026,16.029213,83,68,0
15.753279,16.029213,76,41,0
16.029213,16.163742,84,77,0
16.163742,16.30525,81,67,0
16.029213,16.30525,77,40,0
16.30525,16.412394,83,77,0
16.30525,16.412394,77,51,0
16.590965,16.70019,77,51,0
16.590965,16.70019,79,73,0
16.882227,17.027859,64,61,0
16.882227,17.027859,60,54,0
17.027859,17.173489,65,57,0
17.027859,17.173489,62,51,0
17.173489,17.464752,67,62,0
17.173489,17.464752,64,55,0
17.464752,17.606932,67,57,0
17.464752,17.606932,64,51,0
17.606932,17.749224,65,57,0
17.606932,17.749224,62,51,0
17.749224,17.892082,60,48,0
17.749224,17.892082,64,54,0
17.892082,18.0346,65,54,0
17.892082,18.0346,62,48,0
18.0346,18.17678,64,49,0
18.0346,18.17678,67,55,0
18.17678,18.31896,68,57,0
18.17678,18.31896,65,51,0
18.31896,18.459805,70,58,0
18.31896,18.459805,67,52,0
18.459805,18.60065,68,54,0
18.459805,18.60065,72,60,0
18.60065,18.748434,70,59,0
18.60065,18.748434,67,53,0
18.748434,18.889278,70,55,0
18.748434,18.889278,73,62,0
18.889278,19.030123,72,62,0
18.889278,19.030123,68,55,0
19.030123,19.170969,68,57,0
19.030123,19.170969,65,51,0
19.170969,19.311813,67,54,0
19.170969,19.311813,70,60,0
19.311813,19.452658,67,57,0
19.311813,19.452658,64,51,0
19.452658,19.594168,60,51,0
19.452658,19.594168,65,57,0
19.594168,19.740509,67,51,0
19.594168,19.740509,61,45,0
19.740509,19.88269,64,55,0
19.740509,19.88269,58,49,0
19.88269,20.029749,60,45,0
19.88269,20.029749,65,50,0
20.029749,20.173979,61,53,0
20.029749,20.173979,56,47,0
20.173979,20.345407,58,45,0
20.173979,20.345407,63,50,0
20.345407,20.624477,84,84,0
20.345407,20.624477,76,56,0
20.624477,20.715387,83,76,0
20.715387,20.806295,84,66,0
20.806295,20.897205,83,66,0
20.624477,20.897205,76,56,0
20.897205,21.032951,81,73,0
21.032951,21.173138,83,69,0
20.897205,21.173138,76,42,0
21.173138,21.307669,84,75,0
21.307669,21.448513,81,66,0
21.173138,21.448513,77,41,0
21.448513,21.555656,83,77,0
21.448513,21.555656,77,51,0
21.734228,21.84345,77,51,0
21.734228,21.84345,79,73,0
22.02549,22.30456,84,84,0
22.02549,22.30456,76,56,0
22.30456,22.395468,83,76,0
22.395468,22.486378,84,67,0
22.486378,22.577288,83,67,0
22.30456,22.577288,76,56,0
22.577288,22.713034,81,72,0
22.713034,22.85322,83,68,0
22.577288,22.85322,76,39,0
22.85322,22.98775,84,75,0
22.98775,23.127937,81,65,0
22.85322,23.127937,77,41,0
23.127937,23.235079,77,51,0
23.127937,23.235079,83,77,0
23.41365,23.522875,79,73,0
23.41365,23.522875,77,51,0
23.704912,23.854914,76,54,0
23.704912,23.854914,72,48,0
23.854914,24.004913,74,45,0
23.854914,24.004913,77,51,0
24.004913,24.304913,79,55,0
24.004913,24.304913,76,49,0
24.304913,24.447092,76,45,0
24.304913,24.447092,79,51,0
24.447092,24.589386,74,45,0
24.447092,24.589386,77,51,0
24.589386,24.732243,76,48,0
24.589386,24.732243,72,43,0
24.732243,24.874762,74,43,0
24.732243,24.874762,77,48,0
24.874762,25.016941,79,49,0
24.874762,25.016941,76,44,0
25.016941,25.159122,80,51,0
25.016941,25.159122,77,45,0
25.159122,25.299967,79,46,0
25.159122,25.299967,82,52,0
25.299967,25.440811,84,53,0
25.299967,25.440811,80,48,0
25.440811,25.588594,79,47,0
25.440811,25.588594,82,52,0
25.588594,25.72944,85,55,0
25.588594,25.72944,82,49,0
25.72944,25.870285,84,55,0
25.72944,25.870285,80,49,0
25.870285,26.01113,77,45,0
25.870285,26.01113,80,51,0
26.01113,26.151976,82,53,0
26.01113,26.151976,79,48,0
26.151976,26.29282,76,45,0
26.151976,26.29282,79,51,0
26.29282,26.43433,77,51,0
26.29282,26.43433,72,45,0
26.43433,26.580671,79,45,0
26.43433,26.580671,73,40,0
26.580671,26.72285,70,44,0
26.580671,26.72285,76,49,0
26.72285,26.86991,77,44,0
26.72285,26.86991,72,40,0
26.86991,27.014141,68,42,0
26.86991,27.014141,73,47,0
27.014141,27.18557,75,44,0
27.014141,27.18557,70,40,0
27.18557,27.46464,72,67,0
27.18557,27.46464,64,45,0
27.46464,27.555548,71,60,0
27.555548,27.646458,72,54,0
27.646458,27.737366,71,54,0
27.46464,27.737366,64,45,0
27.737366,27.873114,69,60,0
27.873114,28.0133,71,56,0
27.737366,28.0133,64,33,0
28.0133,28.14783,72,59,0
28.14783,28.288015,69,58,0
28.0133,28.288015,65,33,0
28.288015,28.395159,65,41,0
28.288015,28.395159,71,61,0
28.57373,28.682955,67,58,0
28.57373,28.682955,65,41,0
28.864992,29.144062,64,45,0
28.864992,29.144062,72,67,0
29.144062,29.234972,71,60,0
29.234972,29.325882,72,56,0
29.325882,29.41679,71,52,0
29.144062,29.41679,64,45,0
29.41679,29.552536,69,60,0
29.552536,29.692724,71,56,0
29.41679,29.692724,64,30,0
29.692724,29.827253,72,59,0
29.827253,29.96744,69,58,0
29.692724,29.96744,65,32,0
29.96744,30.074583,71,61,0
29.96744,30.074583,65,41,0
30.253155,30.362377,67,58,0
30.253155,30.362377,65,41,0
30.544416,30.649067,67,45,0
30.544416,30.649067,72,67,0
30.823486,30.914396,74,60,0
30.914396,31.005304,76,53,0
31.005304,31.096214,74,53,0
30.823486,31.096214,70,45,0
30.823486,31.096214,67,43,0
31.096214,31.198025,72,57,0
31.096214,31.198025,67,57,0
31.372147,31.463057,86,66,0
31.463057,31.553967,88,58,0
31.553967,31.644875,86,58,0
31.372147,31.644875,79,47,0
31.372147,31.644875,82,49,0
31.644875,31.746685,84,62,0
31.644875,31.746685,79,62,0
31.920809,32.01172,98,66,0
32.01172,32.102627,100,58,0
32.102627,32.193535,98,58,0
31.920809,32.193535,94,49,0
31.920809,32.193535,91,47,0
32.193535,32.298676,91,65,0
32.193535,32.298676,96,65,0
32.47391,32.56482,86,75,0
32.56482,32.655727,88,66,0
32.655727,32.74664,86,66,0
32.47391,32.74664,82,55,0
32.47391,32.74664,79,53,0
32.74664,32.854294,84,71,0
32.74664,32.854294,79,71,0
33.03372,33.126743,74,85,0
33.126743,33.219765,76,73,0
33.219765,33.31279,74,69,0
33.03372,33.31279,70,62,0
33.03372,33.31279,67,60,0
33.31279,33.425854,72,81,0
33.31279,33.425854,67,81,0
33.614296,33.92518,72,88,0
33.614296,33.92518,76,88,0
33.614296,33.92518,82,88,0
33.614296,33.92518,84,88,0
33.92518,34.204247,69,71,0
33.92518,34.204247,77,87,0
34.204247,34.29516,76,78,0
34.29516,34.386066,77,69,0
34.386066,34.476974,76,69,0
34.204247,34.476974,69,71,0
34.476974,34.615223,74,74,0
34.615223,34.754112,76,71,0
34.476974,34.754112,69,54,0
34.754112,34.88864,77,76,0
34.88864,35.03427,74,72,0
34.754112,35.03427,69,55,0
35.03427,35.142967,76,79,0
35.03427,35.142967,69,67,0
35.324127,35.43335,72,68,0
35.324127,35.43335,69,60,0
35.61539,35.89446,69,68,0
35.61539,35.89446,77,83,0
35.89446,35.98537,76,75,0
35.98537,36.07628,77,69,0
36.07628,36.167187,76,69,0
35.89446,36.167187,69,68,0
36.167187,36.306076,74,75,0
36.306076,36.44561,76,69,0
36.167187,36.44561,69,54,0
36.44561,36.58014,77,77,0
36.58014,36.726482,74,70,0
36.44561,36.726482,69,51,0
36.726482,36.83518,76,76,0
36.726482,36.83518,69,64,0
37.01634,37.12556,69,57,0
37.01634,37.12556,72,64,0
37.3076,37.445847,74,78,0
37.445847,37.584095,76,72,0
37.3076,37.584095,69,53,0
37.584095,37.836502,69,43,0
37.584095,37.836502,72,76,0
37.87256,38.008923,74,72,0
38.008923,38.148457,76,73,0
37.87256,38.148457,69,51,0
38.148457,38.392643,69,53,0
38.148457,38.392643,77,77,0
38.42753,38.565777,74,78,0
38.565777,38.704025,76,72,0
38.42753,38.704025,69,53,0
38.704025,38.95765,69,43,0
38.704025,38.95765,72,73,0
38.99388,39.129627,74,79,0
39.129627,39.267876,76,71,0
38.99388,39.267876,69,45,0
39.267876,39.518475,69,40,0
39.267876,39.518475,72,72,0
39.55506,39.694595,74,71,0
39.694595,39.834133,76,73,0
39.55506,39.834133,69,50,0
39.834133,39.97302,79,78,0
39.97302,40.117252,77,71,0
40.117252,40.258762,74,77,0
40.258762,40.404392,76,72,0
39.834133,40.404392,69,53,0
40.404392,40.695652,72,68,0
40.695652,40.974724,72,68,0
40.695652,40.974724,80,83,0
40.974724,41.06563,79,75,0
41.06563,41.156544,80,67,0
41.156544,41.24745,79,67,0
40.974724,41.24745,72,68,0
41.24745,41.3857,77,75,0
41.3857,41.525887,79,69,0
41.24745,41.525887,72,57,0
41.525887,41.660416,80,79,0
41.660416,41.79995,77,72,0
41.525887,41.79995,72,54,0
41.79995,41.908646,79,76,0
41.79995,41.908646,73,64,0
42.089806,42.199028,75,72,0
42.089806,42.199028,73,64,0
42.38107,42.660137,72,68,0
42.38107,42.660137,80,83,0
42.660137,42.75105,79,75,0
42.75105,42.841957,80,67,0
42.841957,42.932865,79,69,0
42.660137,42.932865,72,68,0
42.932865,43.0724,77,75,0
43.0724,43.21526,79,69,0
42.932865,43.21526,72,58,0
43.21526,43.34979,80,79,0
43.34979,43.488674,77,72,0
43.21526,43.488674,72,53,0
43.488674,43.59737,79,76,0
43.488674,43.59737,73,64,0
43.77853,43.887753,73,64,0
43.77853,43.887753,75,72,0
44.069794,44.208042,77,78,0
44.208042,44.34629,79,72,0
44.069794,44.34629,72,53,0
44.34629,44.598694,72,43,0
44.34629,44.598694,75,76,0
44.63475,44.771114,77,72,0
44.771114,44.910652,79,73,0
44.63475,44.910652,72,51,0
44.910652,45.15484,72,53,0
44.910652,45.15484,80,77,0
45.18972,45.32797,77,78,0
45.32797,45.466217,79,72,0
45.18972,45.466217,72,53,0
45.466217,45.71984,72,40,0
45.466217,45.71984,75,72,0
45.756073,45.89182,77,79,0
45.89182,46.030067,79,71,0
45.756073,46.030067,72,45,0
46.030067,46.28067,72,37,0
46.030067,46.28067,75,71,0
46.317253,46.45679,77,71,0
46.45679,46.596325,79,73,0
46.317253,46.596325,72,50,0
46.596325,46.735214,82,78,0
46.735214,46.879444,80,71,0
46.596325,46.879444,72,53,0
46.879444,47.020954,77,77,0
47.020954,47.166584,79,72,0
46.879444,47.166584,72,49,0
47.166584,47.457848,72,44,0
47.166584,47.457848,75,68,0
47.762417,47.887417,65,68,0
47.762417,47.887417,61,60,0
47.762417,47.887417,58,53,0
47.887417,48.024403,53,58,0
48.31426,48.43978,77,68,0
48.31426,48.43978,73,60,0
48.31426,48.43978,70,60,0
48.43978,48.576145,65,57,0
48.855213,48.980736,85,68,0
48.855213,48.980736,82,60,0
48.855213,48.980736,79,60,0
48.980736,49.11648,77,61,0
49.41205,49.48054,77,67,0
49.41205,49.48054,82,75,0
49.549034,49.61753,82,75,0
49.549034,49.61753,77,67,0
49.686024,49.826866,82,72,0
49.686024,49.826866,89,80,0
49.967712,50.111942,82,77,0
49.967712,50.111942,77,69,0
50.256172,50.400406,82,72,0
50.256172,50.400406,89,81,0
50.544636,50.688866,77,70,0
50.544636,50.688866,82,78,0
51.14079,51.26579,65,68,0
51.14079,51.26579,58,60,0
51.14079,51.26579,61,60,0
51.26579,51.402153,53,56,0
51.681225,51.806225,73,60,0
51.681225,51.806225,70,60,0
51.681225,51.806225,77,68,0
51.806225,51.942585,65,57,0
52.221657,52.346138,82,60,0
52.221657,52.346138,79,60,0
52.221657,52.346138,85,68,0
52.346138,52.482502,77,57,0
52.77807,52.84656,77,67,0
52.77807,52.84656,82,75,0
52.915054,52.983547,82,75,0
52.915054,52.983547,77,67,0
53.05204,53.192886,82,72,0
53.05204,53.192886,89,80,0
53.333733,53.477962,77,69,0
53.333733,53.477962,82,77,0
53.622192,53.766422,89,81,0
53.622192,53.766422,82,72,0
53.910652,54.054886,77,70,0
53.910652,54.054886,82,78,0
54.199116,54.478184,88,75,0
54.478184,54.569096,86,70,0
54.569096,54.660004,88,65,0
54.660004,54.75091,86,65,0
54.199116,54.75091,84,63,0
54.886658,55.026848,86,65,0
55.026848,55.16198,88,74,0
54.75091,55.30349,84,70,0
55.16198,55.30349,84,64,0
55.30349,55.410633,85,68,0
55.44635,55.55349,84,62,0
55.30349,55.589207,80,48,0
55.589207,55.69843,85,67,0
55.734837,55.84905,89,62,0
55.589207,55.88712,80,52,0
55.88712,56.16619,88,75,0
56.16619,56.2571,86,70,0
56.2571,56.348007,88,65,0
56.348007,56.43892,86,65,0
55.88712,56.43892,84,63,0
56.574665,56.71485,86,65,0
56.71485,56.849987,88,74,0
56.43892,56.991497,84,70,0
56.849987,56.991497,84,64,0
56.991497,57.09864,85,68,0
57.134354,57.241497,84,62,0
56.991497,57.27721,80,51,0
57.27721,57.386433,85,67,0
57.42284,57.532066,89,62,0
57.27721,57.568474,80,49,0
57.568474,57.84754,76,75,0
57.84754,57.938454,74,70,0
57.938454,58.02936,76,65,0
58.02936,58.12027,74,65,0
57.568474,58.12027,72,63,0
58.12027,58.188145,72,70,0
58.256016,58.32611,74,65,0
58.396206,58.46533,76,66,0
58.534348,58.603153,77,67,0
58.671753,58.740143,79,69,0
58.808323,58.8763,80,71,0
58.944794,59.01392,82,73,0
59.083687,59.1563,84,74,0
59.23362,59.323307,82,72,0
59.323307,59.41299,84,68,0
59.41299,59.508686,82,68,0
59.508686,59.597973,80,70,0
59.597973,59.687256,82,65,0
59.687256,59.781597,80,69,0
59.781597,59.871685,79,68,0
59.871685,59.961777,80,65,0
59.961777,60.056564,79,64,0
60.056564,60.14706,77,66,0
60.14706,60.238075,79,61,0
60.238075,60.334694,77,61,0
60.334694,60.42797,75,64,0
60.42797,60.52067,77,60,0
60.52067,60.62067,75,60,0
60.62067,60.71457,73,62,0
60.71457,60.80902,75,57,0
60.80902,60.940598,73,57,0
61.249878,61.3754,73,51,0
61.249878,61.3754,70,51,0
61.249878,61.3754,77,57,0
61.3754,61.511765,67,53,0
61.80162,61.92662,85,51,0
61.80162,61.92662,89,57,0
61.80162,61.92662,82,51,0
61.92662,62.062984,79,52,0
62.351444,62.476967,70,51,0
62.351444,62.476967,73,51,0
62.351444,62.476967,77,57,0
62.476967,62.61333,67,53,0
62.893703,62.962196,77,61,0
62.893703,62.962196,82,69,0
63.030693,63.099186,77,61,0
63.030693,63.099186,82,69,0
63.16768,63.30852,89,73,0
63.16768,63.30852,82,66,0
63.449368,63.593597,77,63,0
63.449368,63.593597,82,70,0
63.737827,63.88206,89,74,0
63.737827,63.88206,82,66,0
64.02629,64.174805,77,64,0
64.02629,64.174805,82,71,0
64.62635,64.75622,73,48,0
64.62635,64.75622,77,53,0
64.62635,64.75622,70,48,0
64.75622,64.89773,67,51,0
65.19185,65.32172,89,52,0
65.19185,65.32172,85,46,0
65.19185,65.32172,82,46,0
65.32172,65.46256,79,49,0
65.748276,65.87815,70,45,0
65.748276,65.87815,73,45,0
65.748276,65.87815,77,51,0
65.87815,66.01966,67,46,0
66.31669,66.38518,70,62,0
66.31669,66.38518,65,54,0
66.453674,66.52216,65,54,0
66.453674,66.52216,70,61,0
66.59066,66.73151,77,64,0
66.59066,66.73151,70,58,0
66.87235,67.01658,65,55,0
66.87235,67.01658,70,61,0
67.16081,67.30504,70,57,0
67.16081,67.30504,77,64,0
67.44927,67.59561,70,61,0
67.44927,67.59561,65,55,0
68.02631,68.16206,77,50,0
68.02631,68.16206,73,45,0
68.02631,68.16206,70,45,0
68.16206,68.3056,67,50,0
68.61488,68.766396,77,44,0
68.61488,68.766396,73,41,0
68.61488,68.766396,70,41,0
68.766396,68.925125,67,44,0
69.28227,69.45272,77,40,0
69.28227,69.45272,70,36,0
69.28227,69.45272,73,36,0
69.45272,69.64022,67,39,0
72.52665,72.94997,74,59,0
72.52665,72.94997,70,59,0
72.94997,73.150795,74,56,0
72.94997,73.150795,70,56,0
73.150795,73.358696,74,56,0
73.150795,73.358696,70,56,0
73.358696,74.8432,76,59,0
73.358696,74.8432,79,59,0
74.8432,75.06548,77,54,0
74.8432,75.06548,74,54,0
75.06548,75.204895,76,45,0
75.204895,75.34431,77,45,0
75.34431,75.48372,76,45,0
75.06548,75.48372,72,45,0
75.48372,75.901955,72,51,0
75.48372,75.901955,69,45,0
76.11322,76.21886,72,33,0
76.11322,76.21886,69,27,0
76.11322,76.21886,65,27,0
76.53139,76.634834,65,25,0
76.53139,76.634834,69,25,0
76.53139,76.634834,72,29,0
76.94662,77.05078,65,27,0
76.94662,77.05078,69,27,0
76.94662,77.05078,72,33,0
77.37272,77.481606,65,22,0
77.37272,77.481606,69,22,0
77.37272,77.481606,72,27,0
77.58895,78.0103,81,59,0
77.58895,78.0103,77,59,0
78.0103,78.21019,79,53,0
78.0103,78.21019,76,53,0
78.21019,78.417145,77,53,0
78.21019,78.417145,74,53,0
78.417145,79.24996,74,57,0
78.417145,79.24996,77,57,0
79.24996,79.46203,72,45,0
79.24996,79.46203,75,50,0
79.46203,79.67395,74,35,0
79.46203,79.67395,78,39,0
79.67395,79.89522,74,50,0
79.67395,79.89522,70,45,0
79.89522,80.11649,75,42,0
79.89522,80.11649,72,37,0
80.11649,80.25529,72,45,0
80.25529,80.39408,74,45,0
80.39408,80.53287,72,45,0
80.11649,80.53287,69,45,0
80.53287,80.951965,70,51,0
80.53287,80.951965,67,46,0
81.16016,81.26425,70,33,0
81.16016,81.26425,67,27,0
81.16016,81.26425,62,27,0
81.575615,81.679245,62,25,0
81.575615,81.679245,67,25,0
81.575615,81.679245,70,29,0
81.98649,82.088295,62,27,0
81.98649,82.088295,67,27,0
81.98649,82.088295,70,33,0
82.40516,82.5214,62,22,0
82.40516,82.5214,67,22,0
82.40516,82.5214,70,27,0
82.63764,83.06095,74,64,0
82.63764,83.06095,70,64,0
83.06095,83.265755,74,61,0
83.06095,83.265755,70,61,0
83.265755,83.47946,74,61,0
83.265755,83.47946,70,61,0
83.47946,85.03584,76,64,0
83.47946,85.03584,79,64,0
85.03584,85.26833,77,54,0
85.03584,85.26833,74,54,0
85.26833,85.407745,76,45,0
85.407745,85.54716,77,45,0
85.54716,85.68657,76,45,0
85.26833,85.68657,72,45,0
85.68657,86.12067,72,46,0
85.68657,86.12067,69,41,0
86.3292,86.43347,72,33,0
86.3292,86.43347,69,27,0
86.3292,86.43347,65,27,0
86.745,86.84864,65,25,0
86.745,86.84864,69,25,0
86.745,86.84864,72,29,0
87.15588,87.25769,65,27,0
87.15588,87.25769,69,27,0
87.15588,87.25769,72,33,0
87.57726,87.694305,65,22,0
87.57726,87.694305,69,22,0
87.57726,87.694305,72,27,0
87.694305,87.8012,72,52,0
87.8012,88.22255,84,64,0
87.8012,88.22255,81,64,0
88.22255,88.42244,82,58,0
88.22255,88.42244,79,58,0
88.42244,88.629395,81,58,0
88.42244,88.629395,77,58,0
88.629395,89.05074,77,62,0
88.629395,89.05074,81,62,0
89.05074,89.26445,79,58,0
89.05074,89.26445,76,58,0
89.26445,89.49083,77,58,0
89.26445,89.49083,74,58,0
89.49083,89.728134,81,58,0
89.49083,89.728134,77,58,0
90.478134,90.700356,79,50,0
90.478134,90.700356,76,50,0
90.700356,90.92258,76,45,0
90.700356,90.92258,72,45,0
90.92258,91.33925,74,45,0
90.92258,91.33925,70,45,0
91.33925,91.48261,70,40,0
91.48261,91.625984,72,40,0
91.625984,91.769356,70,40,0
91.33925,91.769356,67,40,0
91.769356,92.21712,64,38,0
91.769356,92.21712,67,43,0
92.43451,92.543465,64,27,0
92.43451,92.543465,72,27,0
92.43451,92.543465,70,27,0
92.87247,92.982765,64,31,0
92.87247,92.982765,72,31,0
92.87247,92.982765,70,31,0
93.315285,93.431526,70,25,0
93.315285,93.431526,72,25,0
93.315285,93.431526,64,25,0
93.54777,93.97108,70,59,0
93.54777,93.97108,67,59,0
93.97108,94.171906,72,56,0
93.97108,94.171906,69,56,0
94.171906,94.37981,74,56,0
94.171906,94.37981,70,56,0
94.37981,95.86431,76,59,0
94.37981,95.86431,79,59,0
95.86431,96.0866,77,54,0
95.86431,96.0866,74,54,0
96.0866,96.22601,76,45,0
96.22601,96.365425,77,45,0
96.365425,96.50484,76,45,0
96.0866,96.50484,72,45,0
96.50484,96.93255,72,46,0
96.50484,96.93255,69,41,0
97.14683,97.253975,72,33,0
97.14683,97.253975,69,27,0
97.14683,97.253975,65,27,0
97.57238,97.67802,65,25,0
97.57238,97.67802,69,25,0
97.57238,97.67802,72,29,0
97.99198,98.09615,65,27,0
97.99198,98.09615,69,27,0
97.99198,98.09615,72,33,0
98.41809,98.52697,65,22,0
98.41809,98.52697,69,22,0
98.41809,98.52697,72,27,0
98.634315,99.055664,81,59,0
98.634315,99.055664,77,59,0
99.055664,99.25556,79,53,0
99.055664,99.25556,76,53,0
99.25556,99.46252,77,53,0
99.25556,99.46252,74,53,0
99.46252,100.29533,74,57,0
99.46252,100.29533,77,57,0
100.29533,100.50704,72,45,0
100.29533,100.50704,75,51,0
100.50704,100.71897,74,36,0
100.50704,100.71897,78,40,0
100.71897,100.94024,74,51,0
100.71897,100.94024,70,45,0
100.94024,101.161514,75,41,0
100.94024,101.161514,72,36,0
101.161514,101.30031,72,45,0
101.30031,101.439095,74,45,0
101.439095,101.57789,72,45,0
101.161514,101.57789,69,45,0
101.57789,101.99699,70,51,0
101.57789,101.99699,67,44,0
102.20975,102.31613,70,33,0
102.20975,102.31613,67,27,0
102.20975,102.31613,62,27,0
102.63378,102.73942,62,25,0
102.63378,102.73942,67,25,0
102.63378,102.73942,70,29,0
103.05338,103.157555,62,27,0
103.05338,103.157555,67,27,0
103.05338,103.157555,70,33,0
103.476776,103.59302,62,22,0
103.476776,103.59302,67,22,0
103.476776,103.59302,70,27,0
103.70926,103.92091,82,59,0
103.70926,103.92091,79,59,0
104.13257,104.3334,79,56,0
104.13257,104.3334,76,56,0
104.3334,104.5413,76,56,0
104.3334,104.5413,72,56,0
104.5413,105.80351,69,59,0
104.5413,105.80351,72,59,0
105.80351,106.24809,74,51,0
105.80351,106.24809,70,46,0
106.24809,106.387505,70,45,0
106.387505,106.52692,72,45,0
106.52692,106.672874,70,45,0
106.24809,106.672874,67,45,0
106.672874,107.16097,69,45,0
106.672874,107.16097,65,43,0
107.96613,108.061844,65,50,0
108.061844,108.157555,67,47,0
108.157555,108.253265,65,47,0
107.96613,108.253265,57,46,0
108.253265,108.39618,64,50,0
108.39618,108.54377,62,47,0
108.253265,108.54377,57,43,0
108.54377,108.839485,65,53,0
108.54377,108.839485,57,39,0
108.839485,108.952286,64,51,0
108.839485,108.952286,57,43,0
108.98989,109.10269,62,48,0
109.1403,109.25529,60,49,0
109.1403,109.25529,57,43,0
109.293625,109.408615,64,46,0
109.44695,109.5603,62,51,0
109.59808,109.7142,64,48,0
109.44695,109.752914,57,39,0
109.752914,109.848625,65,50,0
109.848625,109.944336,67,47,0
109.944336,110.04005,65,47,0
109.752914,110.04005,57,46,0
110.04005,110.18296,64,50,0
110.18296,110.33056,62,47,0
110.04005,110.33056,57,43,0
110.33056,110.62627,65,53,0
110.33056,110.62627,57,39,0
110.62627,110.739075,64,51,0
110.62627,110.739075,57,43,0
110.77667,110.88948,62,48,0
110.92708,111.042076,60,49,0
110.92708,111.042076,57,43,0
111.08041,111.195404,64,46,0
111.233734,111.347084,62,51,0
111.384865,111.50099,64,48,0
111.233734,111.539696,57,39,0
111.539696,111.63541,65,50,0
111.63541,111.7327,67,47,0
111.7327,111.83156,65,47,0
111.539696,111.83156,57,46,0
111.83156,111.97447,64,50,0
111.97447,112.1416,62,47,0
111.83156,112.1416,57,43,0
112.1416,112.29567,65,60,0
112.29567,112.41778,64,48,0
112.1416,112.45848,57,51,0
112.45848,112.57633,62,57,0
112.45848,112.57633,57,48,0
112.615616,112.739,64,48,0
112.78013,112.898575,60,54,0
112.78013,112.898575,57,45,0
112.93806,113.07041,64,46,0
113.114525,113.227875,62,51,0
113.26566,113.38178,64,48,0
113.114525,113.42049,57,39,0
113.42049,113.516205,65,50,0
113.516205,113.61349,67,47,0
113.61349,113.71236,65,47,0
113.42049,113.71236,57,46,0
113.71236,113.85526,64,50,0
113.85526,114.010864,62,47,0
113.71236,114.010864,57,43,0
114.010864,114.16493,65,57,0
114.16493,114.28704,64,48,0
114.010864,114.32774,58,51,0
114.32774,114.445595,62,53,0
114.32774,114.445595,58,48,0
114.48488,114.60826,65,48,0
114.64939,114.96525,64,54,0
114.64939,114.96525,58,45,0
115.26524,115.36389,82,67,0
115.36389,115.46315,84,57,0
115.46315,115.56303,82,57,0
115.26524,115.56303,79,67,0
115.56303,115.66365,81,65,0
115.66365,115.764915,82,57,0
115.764915,115.86696,81,57,0
115.56303,115.86696,78,65,0
115.86696,116.198456,80,66,0
115.86696,116.198456,77,66,0
116.198456,116.27345,89,78,0
116.34845,116.42617,80,70,0
116.34845,116.42617,77,70,0
116.50389,116.66179,95,76,0
117.11968,117.217606,80,67,0
117.217606,117.316124,82,57,0
117.316124,117.41563,80,57,0
117.11968,117.41563,77,67,0
117.41563,117.516136,79,65,0
117.516136,117.61766,80,57,0
117.61766,117.72022,79,57,0
117.41563,117.72022,76,65,0
117.72022,118.06308,78,66,0
117.72022,118.06308,75,66,0
118.06308,118.138084,87,78,0
118.21308,118.2908,78,70,0
118.21308,118.2908,75,70,0
118.36852,118.5281,93,76,0
118.98767,119.08429,78,74,0
118.98767,119.1326,75,58,0
119.08429,119.18102,80,63,0
119.18102,119.278114,78,63,0
119.278114,119.37556,77,72,0
119.278114,119.42433,74,56,0
119.37556,119.473236,78,63,0
119.473236,119.57127,77,63,0
119.57127,119.66968,76,71,0
119.57127,119.71893,73,54,0
119.66968,119.768196,78,61,0
119.768196,119.86721,76,60,0
119.86721,119.96646,75,69,0
119.86721,120.01621,72,54,0
119.96646,120.06596,77,59,0
120.06596,120.16596,75,59,0
120.16596,120.26622,74,67,0
120.16596,120.31647,71,52,0
120.26622,120.36672,75,55,0
120.36672,120.467606,74,55,0
120.467606,120.56874,73,65,0
120.467606,120.6195,70,51,0
120.56874,120.670265,75,56,0
120.670265,120.77218,73,55,0
120.77218,120.883286,72,63,0
120.77218,120.93884,70,49,0
120.883286,120.9944,74,54,0
120.9944,121.12773,72,54,0
121.12773,121.23526,74,68,0
121.23526,121.34278,72,56,0
121.34278,121.45031,74,56,0
121.12773,121.45031,82,68,0
121.45031,121.631035,81,69,0
121.45031,121.631035,72,61,0
121.631035,121.70916,77,48,0
121.70916,121.787285,79,48,0
121.787285,121.94945,77,57,0
121.94945,122.11161,74,57,0
121.787285,122.11161,69,57,0
122.11161,122.435936,72,63,0
122.74356,122.84005,65,50,0
122.84005,122.93654,67,47,0
122.93654,123.03303,65,47,0
122.74356,123.03303,57,46,0
123.03303,123.17709,64,50,0
123.17709,123.325874,62,47,0
123.03303,123.325874,57,43,0
123.325874,123.62397,65,53,0
123.325874,123.62397,57,39,0
123.62397,123.737686,64,51,0
123.62397,123.737686,57,43,0
123.7756,123.88931,62,48,0
123.927216,124.043144,60,49,0
123.927216,124.043144,57,43,0
124.081795,124.19772,64,46,0
124.23637,124.35064,62,51,0
124.388725,124.50579,64,48,0
124.23637,124.544815,57,39,0
124.544815,124.641304,65,50,0
124.641304,124.73779,67,47,0
124.73779,124.83428,65,47,0
124.544815,124.83428,57,46,0
124.83428,124.97835,64,50,0
124.97835,125.12712,62,47,0
124.83428,125.12712,57,43,0
125.12712,125.425224,65,53,0
125.12712,125.425224,57,39,0
125.425224,125.53894,64,51,0
125.425224,125.53894,57,43,0
125.57685,125.69057,62,48,0
125.72847,125.8444,60,49,0
125.72847,125.8444,57,43,0
125.88304,125.99898,64,46,0
126.03762,126.15189,62,51,0
126.18998,126.307045,64,48,0
126.03762,126.34607,57,39,0
126.34607,126.44256,65,50,0
126.44256,126.540634,67,47,0
126.540634,126.64029,65,47,0
126.34607,126.64029,57,46,0
126.64029,126.784355,64,50,0
126.784355,126.95284,62,47,0
126.64029,126.95284,57,43,0
126.95284,127.108154,65,60,0
127.108154,127.23124,64,48,0
126.95284,127.27226,57,51,0
127.27226,127.39106,62,57,0
127.27226,127.39106,57,48,0
127.430664,127.55504,64,48,0
127.5965,127.7159,60,54,0
127.5965,127.7159,57,45,0
127.7557,127.88912,64,46,0
127.93359,128.04787,62,51,0
128.08595,128.20302,64,48,0
127.93359,128.24205,57,39,0
128.24205,128.33853,65,50,0
128.33853,128.4366,67,47,0
128.4366,128.53627,65,47,0
128.24205,128.53627,57,46,0
128.53627,128.68033,64,50,0
128.68033,128.83719,62,47,0
128.53627,128.83719,57,43,0
128.83719,128.9925,65,57,0
128.9925,129.11559,64,48,0
128.83719,129.15662,58,51,0
129.15662,129.2754,62,53,0
129.15662,129.2754,58,48,0
129.315,129.43938,65,48,0
129.48085,129.79924,64,54,0
129.48085,129.79924,58,45,0
130.09924,130.19789,82,69,0
130.19789,130.29715,84,58,0
130.29715,130.39702,82,58,0
130.09924,130.39702,79,69,0
130.39702,130.49765,79,67,0
130.49765,130.59892,81,58,0
130.59892,130.70096,79,58,0
130.70096,131.03246,76,68,0
131.03246,131.18245,88,76,0
131.03246,131.18245,86,71,0
131.18245,131.33789,79,68,0
131.33789,131.65369,91,74,0
131.95369,132.0516,79,69,0
132.0516,132.15013,81,58,0
132.15013,132.24963,79,58,0
131.95369,132.24963,76,69,0
132.24963,132.35013,76,67,0
132.35013,132.45166,77,58,0
132.45166,132.55423,76,58,0
132.55423,132.89708,73,68,0
132.89708,133.04707,88,73,0
132.89708,133.04707,81,69,0
133.04707,133.20251,79,65,0
133.20251,133.52167,93,70,0
133.20251,133.52167,85,48,0
133.82167,133.91829,76,76,0
133.82167,133.9666,70,59,0
133.91829,134.01503,77,65,0
134.01503,134.1121,76,65,0
134.1121,134.20955,74,75,0
134.1121,134.25833,69,57,0
134.20955,134.30724,76,65,0
134.30724,134.40527,74,65,0
134.40527,134.50368,73,74,0
134.40527,134.55293,67,56,0
134.50368,134.6022,74,63,0
134.6022,134.7012,73,62,0
134.7012,134.80046,70,71,0
134.7012,134.85022,65,56,0
134.80046,134.89996,72,60,0
134.89996,134.99997,70,60,0
134.99997,135.10022,69,69,0
134.99997,135.15047,64,54,0
135.10022,135.20071,70,57,0
135.20071,135.3016,69,57,0
135.3016,135.40274,67,67,0
135.40274,135.50426,69,57,0
135.50426,135.60579,67,57,0
135.60579,135.7073,65,65,0
135.7073,135.80884,67,56,0
135.80884,135.91035,65,56,0
135.91035,136.01187,64,63,0
136.01187,136.1134,65,54,0
136.1134,136.21492,64,54,0
135.3016,136.21492,61,53,0
136.52905,136.6754,81,68,0
136.52905,136.6754,77,68,0
136.52905,136.6754,74,68,0
136.6754,136.83165,69,60,0
137.4477,137.5434,81,50,0
137.5434,137.63911,82,47,0
137.63911,137.73483,81,47,0
137.73483,137.87773,79,50,0
137.87773,138.02533,78,47,0
137.4477,138.02533,75,39,0
138.02533,138.32104,81,53,0
138.02533,138.32104,74,39,0
138.32104,138.43385,79,51,0
138.47145,138.58426,77,48,0
138.62186,138.73685,76,49,0
138.77518,138.89018,77,46,0
138.32104,138.92851,74,39,0
138.92851,139.04185,76,51,0
139.07964,139.19577,77,48,0
138.92851,139.23447,73,39,0
139.23447,139.33018,79,50,0
139.33018,139.4259,81,47,0
139.4259,139.5216,79,47,0
139.23447,139.5216,73,46,0
139.5216,139.66867,77,50,0
139.66867,139.8233,76,47,0
139.5216,139.8233,73,43,0
139.8233,140.131,79,53,0
140.131,140.24638,76,51,0
140.28485,140.40326,77,48,0
139.8233,140.44273,73,39,0
140.44273,140.74939,74,49,0
140.44273,140.74939,69,43,0
141.05455,141.15027,81,50,0
141.15027,141.24597,82,47,0
141.24597,141.34169,81,47,0
141.34169,141.4846,79,50,0
141.4846,141.63219,78,47,0
141.05455,141.63219,75,39,0
141.63219,141.9279,81,53,0
141.63219,141.9279,74,39,0
141.9279,142.04071,79,51,0
142.07831,142.19112,77,48,0
142.22871,142.34372,76,49,0
142.38205,142.49704,77,46,0
141.9279,142.53537,74,39,0
142.53537,142.64873,76,51,0
142.68651,142.80263,77,48,0
142.53537,142.84134,73,39,0
142.84134,142.93704,79,50,0
142.93704,143.03276,81,47,0
143.03276,143.12848,79,47,0
142.84134,143.12848,73,46,0
143.12848,143.27553,77,50,0
143.27553,143.43018,76,47,0
143.12848,143.43018,73,43,0
143.43018,143.73787,79,53,0
143.73787,143.85324,76,51,0
143.89171,144.01013,77,48,0
143.43018,144.0496,73,39,0
144.0496,144.35626,74,49,0
144.0496,144.35626,69,43,0
144.65627,144.7549,81,57,0
144.7549,144.85416,82,48,0
144.85416,144.95404,81,48,0
144.65627,144.95404,75,57,0
144.95404,145.10516,79,55,0
145.10516,145.25797,78,48,0
145.25797,145.42372,81,56,0
145.25797,145.42372,75,56,0
145.58946,145.73946,87,59,0
145.58946,145.73946,81,59,0
145.73946,145.8949,75,57,0
145.8949,146.0528,93,63,0
146.5107,146.60934,81,60,0
146.60934,146.70859,82,51,0
146.70859,146.80847,81,51,0
146.5107,146.80847,75,60,0
146.80847,146.95961,79,58,0
146.95961,147.11241,78,51,0
147.11241,147.27815,81,59,0
147.11241,147.27815,75,59,0
147.4439,147.5939,87,63,0
147.4439,147.5939,81,63,0
147.5939,147.74934,75,57,0
147.74934,147.90723,93,65,0
148.36513,148.46378,81,63,0
148.46378,148.56303,82,53,0
148.56303,148.6629,81,53,0
148.36513,148.6629,75,63,0
148.6629,148.81404,79,60,0
148.81404,148.96684,78,53,0
148.96684,149.13258,81,60,0
148.96684,149.13258,75,60,0
149.29834,149.39697,81,64,0
149.39697,149.49623,82,54,0
149.49623,149.59612,81,53,0
149.29834,149.59612,75,64,0
149.59612,149.74724,79,60,0
149.74724,149.90005,78,52,0
149.90005,150.0658,81,60,0
149.90005,150.0658,75,60,0
150.23154,150.33018,81,74,0
150.33018,150.42944,83,65,0
150.42944,150.52931,81,66,0
150.23154,150.52931,75,74,0
150.52931,150.68045,80,72,0
150.68045,150.83325,81,67,0
150.83325,150.999,87,83,0
150.83325,150.999,81,83,0
150.83325,150.999,75,83,0
151.16475,151.2673,93,81,0
151.2673,151.36987,95,71,0
151.36987,151.47244,93,72,0
151.16475,151.47244,87,81,0
151.47244,151.62628,92,79,0
151.62628,151.74597,93,73,0
151.78586,152.13441,100,95,0
151.76591,152.13441,97,78,0
151.74597,152.13441,93,74,0
152.18422,152.52032,88,45,0
152.15932,152.52032,85,39,0
152.13441,152.52032,81,38,0
152.56833,152.90445,88,45,0
152.54433,152.90445,85,41,0
152.52032,152.90445,81,40,0
152.95245,153.28856,88,45,0
152.92845,153.28856,85,41,0
152.90445,153.28856,81,41,0
153.33658,153.67268,88,45,0
153.31258,153.67268,85,40,0
153.28856,153.67268,81,40,0
153.7207,154.05681,88,45,0
153.67268,154.05681,81,39,0
153.6967,154.05681,85,40,0
154.10483,154.4252,88,45,0
154.0328,154.4252,76,34,0
154.05681,154.4252,80,34,0
154.08083,154.4252,86,39,0
154.49995,154.81444,88,45,0
154.4252,154.81444,76,34,0
154.45012,154.81444,80,34,0
154.47504,154.81444,86,39,0
154.88701,155.20148,88,45,0
154.81444,155.20148,76,34,0
154.83862,155.20148,80,34,0
154.86282,155.20148,86,39,0
155.27405,155.59206,88,45,0
155.20148,155.59206,76,34,0
155.22568,155.59206,80,34,0
155.24986,155.59206,86,39,0
155.66675,155.97885,88,45,0
155.59206,155.97885,76,34,0
155.61696,155.97885,80,34,0
155.64186,155.97885,86,39,0
156.05087,156.40318,88,45,0
155.97885,156.40318,76,34,0
156.00287,156.40318,80,34,0
156.02687,156.40318,86,39,0
156.45456,156.79066,88,45,0
156.42886,156.79066,86,39,0
156.40318,156.79066,80,34,0
156.83868,157.17929,88,45,0
156.81468,157.17929,86,39,0
156.79066,157.17929,80,34,0
157.22794,157.57578,88,45,0
157.20361,157.57578,86,39,0
157.17929,157.57578,80,34,0
157.62178,157.96045,88,45,0
157.59877,157.96045,86,39,0
157.57578,157.96045,80,34,0
158.00883,158.34297,88,45,0
157.98463,158.34297,86,39,0
157.96045,158.34297,80,34,0
158.38985,158.73299,88,45,0
158.36641,158.73299,86,39,0
158.34297,158.73299,80,34,0
158.78201,159.11679,88,45,0
158.75749,159.11679,85,41,0
158.73299,159.11679,81,41,0
159.16461,159.50526,88,45,0
159.1407,159.50526,85,40,0
159.11679,159.50526,81,40,0
159.55392,159.88866,88,45,0
159.52959,159.88866,85,40,0
159.50526,159.88866,81,39,0
159.93648,160.27087,88,45,0
159.91257,160.27087,85,41,0
159.88866,160.27087,81,41,0
160.31865,160.66177,88,45,0
160.29475,160.66177,85,40,0
160.27087,160.66177,81,40,0
160.7108,161.07294,88,45,0
160.6863,161.07294,85,40,0
160.66177,161.07294,81,39,0
161.12596,161.46861,88,45,0
161.09944,161.46861,86,41,0
161.07294,161.46861,80,41,0
161.51756,161.8602,88,45,0
161.49309,161.8602,86,40,0
161.46861,161.8602,80,40,0
161.90915,162.24854,88,45,0
161.88467,162.24854,86,40,0
161.8602,162.24854,80,39,0
162.29454,162.63321,88,45,0
162.27155,162.63321,86,39,0
162.24854,162.63321,80,34,0
162.6816,163.01575,88,45,0
162.6574,163.01575,86,39,0
162.63321,163.01575,80,34,0
163.06262,163.40575,88,45,0
163.03918,163.40575,86,39,0
163.01575,163.40575,80,34,0
163.45477,163.79585,88,45,0
163.43027,163.79585,86,39,0
163.40575,163.79585,80,34,0
163.84332,164.18199,88,45,0
163.81958,164.18199,86,39,0
163.79585,164.18199,80,34,0
164.23036,164.56903,88,45,0
164.20618,164.56903,86,39,0
164.18199,164.56903,80,34,0
164.61742,164.96033,88,45,0
164.59323,164.96033,86,39,0
164.56903,164.96033,80,34,0
165.01012,165.34622,88,45,0
164.98521,165.34622,86,39,0
164.96033,165.34622,80,34,0
165.39424,165.74654,88,45,0
165.37022,165.74654,86,39,0
165.34622,165.74654,80,34,0
165.79793,166.13403,88,45,0
165.77223,166.13403,85,39,0
165.74654,166.13403,81,34,0
166.18205,166.52264,88,45,0
166.15804,166.52264,85,39,0
166.13403,166.52264,81,34,0
166.5713,166.91483,88,45,0
166.54698,166.91483,85,39,0
166.52264,166.91483,81,34,0
166.96083,167.2995,88,45,0
166.93782,167.2995,85,39,0
166.91483,167.2995,81,34,0
167.34789,167.68202,88,45,0
167.32368,167.68202,85,39,0
167.2995,167.68202,81,34,0
167.7289,168.07204,88,45,0
167.70546,168.07204,85,39,0
167.68202,168.07204,81,34,0
168.12106,168.48177,88,45,0
168.09654,168.48177,85,41,0
168.07204,168.48177,81,41,0
168.52954,168.87996,88,46,0
168.50565,168.87996,85,41,0
168.48177,168.87996,81,41,0
168.93098,169.26572,88,48,0
168.90547,169.26572,85,42,0
168.87996,169.26572,81,41,0
169.31354,169.64793,88,45,0
169.28963,169.64793,85,41,0
169.26572,169.64793,81,41,0
169.69571,170.03885,88,45,0
169.67181,170.03885,85,40,0
169.64793,170.03885,81,40,0
170.08786,170.42348,88,45,0
170.06335,170.42348,85,40,0
170.03885,170.42348,81,39,0
170.50302,170.8212,88,45,0
170.42348,170.8212,76,34,0
170.45,170.8212,80,34,0
170.47652,170.8212,86,39,0
170.89462,171.2128,88,45,0
170.8212,171.2128,76,34,0
170.84567,171.2128,80,34,0
170.87015,171.2128,86,39,0
171.28621,171.60533,88,45,0
171.2128,171.60533,76,34,0
171.23726,171.60533,80,34,0
171.26173,171.60533,86,39,0
171.67435,171.98882,88,45,0
171.60533,171.98882,76,34,0
171.62834,171.98882,80,34,0
171.65134,171.98882,86,39,0
172.06139,172.3721,88,45,0
171.98882,172.3721,76,34,0
172.01302,172.3721,80,34,0
172.0372,172.3721,86,39,0
172.44241,172.76105,88,45,0
172.3721,172.76105,76,34,0
172.39554,172.76105,80,34,0
172.41898,172.76105,86,39,0
172.83458,173.15176,88,45,0
172.76105,173.15176,76,34,0
172.78555,173.15176,80,34,0
172.81006,173.15176,86,39,0
173.22208,173.53654,88,45,0
173.15176,173.53654,76,34,0
173.1752,173.53654,80,34,0
173.19864,173.53654,86,39,0
173.60912,173.9236,88,45,0
173.53654,173.9236,76,34,0
173.56075,173.9236,80,34,0
173.58493,173.9236,86,39,0
173.99617,174.31418,88,45,0
173.9236,174.31418,76,34,0
173.94778,174.31418,80,34,0
173.97198,174.31418,86,39,0
174.38887,174.70097,88,45,0
174.31418,174.70097,76,34,0
174.33908,174.70097,80,34,0
174.36397,174.70097,86,39,0
174.773,175.0996,88,45,0
174.70097,175.0996,76,34,0
174.72498,175.0996,80,34,0
174.74898,175.0996,86,39,0
175.17668,175.48878,88,45,0
175.0996,175.48878,76,34,0
175.12529,175.48878,81,34,0
175.15099,175.48878,85,39,0
175.5608,175.87708,88,45,0
175.48878,175.87708,76,34,0
175.51279,175.87708,81,34,0
175.53679,175.87708,85,39,0
175.95006,176.26633,88,45,0
175.87708,176.26633,76,34,0
175.9014,176.26633,81,34,0
175.92574,176.26633,85,39,0
176.33931,176.65483,88,44,0
176.26633,176.65483,76,34,0
176.29065,176.65483,81,34,0
176.31499,176.65483,85,39,0
176.7283,177.04877,88,41,0
176.65483,177.04877,76,31,0
176.67928,177.04877,81,31,0
176.7038,177.04877,85,36,0
177.12326,177.47427,88,38,0
177.04877,177.47427,76,29,0
177.0736,177.47427,81,29,0
177.09843,177.47427,85,33,0
177.54593,177.86455,88,36,0
177.47427,177.86455,76,27,0
177.49815,177.86455,81,27,0
177.52203,177.86455,84,31,0
177.93808,178.26526,88,36,0
177.86455,178.26526,76,27,0
177.88907,178.26526,81,27,0
177.91357,178.26526,84,31,0
178.34076,178.66795,88,36,0
178.26526,178.66795,76,27,0
178.29044,178.66795,81,27,0
178.3156,178.66795,84,31,0
178.74345,179.07063,88,36,0
178.66795,179.07063,76,27,0
178.69312,179.07063,81,27,0
178.71828,179.07063,84,31,0
179.14613,179.47331,88,36,0
179.07063,179.47331,76,27,0
179.0958,179.47331,81,27,0
179.12097,179.47331,84,31,0
179.54881,179.90466,88,36,0
179.47331,179.90466,76,27,0
179.49849,179.90466,81,27,0
179.52365,179.90466,84,31,0
180.26584,180.35675,74,72,0
180.35675,180.44766,76,60,0
180.44766,180.53857,74,59,0
180.26584,180.53857,71,54,0
180.26584,180.53857,68,51,0
180.53857,180.64038,73,68,0
180.53857,180.64038,68,68,0
180.53857,180.67432,71,54,0
180.8145,180.90541,86,72,0
180.90541,180.99632,88,61,0
180.99632,181.08723,86,61,0
180.8145,181.08723,83,53,0
180.8145,181.08723,80,51,0
181.08723,181.18904,85,68,0
181.08723,181.18904,80,62,0
181.08723,181.18904,83,61,0
181.36317,181.45407,98,72,0
181.45407,181.54498,100,60,0
181.54498,181.6359,98,61,0
181.36317,181.6359,95,53,0
181.36317,181.6359,92,51,0
181.6359,181.74103,97,71,0
181.6359,181.74103,92,64,0
181.6359,181.74103,95,62,0
181.91628,182.00717,86,75,0
182.00717,182.09808,88,65,0
182.09808,182.189,86,67,0
181.91628,182.189,83,55,0
181.91628,182.189,80,53,0
182.189,182.30438,85,71,0
182.189,182.30438,80,59,0
182.189,182.30438,83,59,0
182.49669,182.59148,74,81,0
182.59148,182.68626,76,72,0
182.68626,182.78105,74,72,0
182.49669,182.78105,70,59,0
182.49669,182.78105,67,57,0
182.78105,182.89299,72,77,0
182.78105,182.89299,67,70,0
182.78105,182.89299,70,70,0
183.07956,183.39206,94,84,0
183.07956,183.39206,84,84,0
183.07956,183.39206,88,84,0
183.07956,183.39206,96,84,0
183.39206,183.67113,77,87,0
183.39206,183.67113,69,71,0
183.67113,183.76204,76,77,0
183.76204,183.85295,77,66,0
183.85295,183.94385,76,67,0
183.67113,183.94385,69,71,0
183.94385,184.0821,74,77,0
184.0821,184.221,76,70,0
183.94385,184.221,69,67,0
184.221,184.35551,77,79,0
184.35551,184.50114,74,71,0
184.221,184.50114,69,58,0
184.50114,184.60985,76,78,0
184.50114,184.60985,69,67,0
184.791,184.90022,72,75,0
184.791,184.90022,69,67,0
185.08228,185.36134,77,83,0
185.08228,185.36134,69,68,0
185.36134,185.45226,76,74,0
185.45226,185.54315,77,67,0
185.54315,185.63406,76,67,0
185.36134,185.63406,69,68,0
185.63406,185.77295,74,74,0
185.77295,185.91249,76,69,0
185.63406,185.91249,69,64,0
185.91249,186.04701,77,76,0
186.04701,186.19336,74,67,0
185.91249,186.19336,69,56,0
186.19336,186.30206,76,75,0
186.19336,186.30206,69,64,0
186.48322,186.59244,72,72,0
186.48322,186.59244,69,64,0
186.77448,186.91272,74,77,0
186.91272,187.05098,76,72,0
186.77448,187.05098,69,59,0
187.05098,187.3073,72,75,0
187.05098,187.3073,69,48,0
187.34442,187.48079,74,72,0
187.48079,187.62364,76,73,0
187.34442,187.62364,69,56,0
187.62364,187.86783,77,76,0
187.62364,187.86783,69,59,0
187.90271,188.04095,74,77,0
188.04095,188.1792,76,72,0
187.90271,188.1792,69,59,0
188.1792,188.43283,72,68,0
188.1792,188.43283,69,48,0
188.46906,188.60481,74,78,0
188.60481,188.74306,76,71,0
188.46906,188.74306,69,50,0
188.74306,188.99704,72,74,0
188.74306,188.99704,69,45,0
189.03363,189.17316,74,71,0
189.17316,189.3174,76,73,0
189.03363,189.3174,69,55,0
189.3174,189.45891,79,77,0
189.45891,189.60313,77,71,0
189.3174,189.60313,69,59,0
189.60313,189.74464,74,76,0
189.74464,189.89027,76,72,0
189.60313,189.89027,69,59,0
189.89027,190.21286,72,68,0
189.89027,190.21286,69,49,0
190.51286,190.63943,65,46,0
190.51286,190.63943,62,41,0
190.51286,190.63943,58,35,0
190.63943,190.7758,55,40,0
191.06427,191.19084,77,46,0
191.06427,191.19084,74,41,0
191.06427,191.19084,70,41,0
191.19084,191.3266,67,38,0
191.61368,191.74025,82,41,0
191.61368,191.74025,86,41,0
191.61368,191.74025,89,46,0
191.74025,191.87662,79,43,0
192.17218,192.24068,77,42,0
192.17218,192.24068,82,48,0
192.30917,192.37767,77,42,0
192.30917,192.37767,82,48,0
192.44615,192.587,82,46,0
192.44615,192.587,89,51,0
192.72784,192.87209,77,44,0
192.72784,192.87209,82,49,0
193.01631,193.16054,82,46,0
193.01631,193.16054,89,51,0
193.30478,193.449,77,44,0
193.30478,193.449,82,49,0
193.89323,194.01929,65,46,0
193.89323,194.01929,62,41,0
193.89323,194.01929,58,41,0
194.01929,194.15689,55,38,0
194.43858,194.56464,77,46,0
194.43858,194.56464,74,41,0
194.43858,194.56464,70,41,0
194.56464,194.70163,67,39,0
194.982,195.10805,82,41,0
194.982,195.10805,86,41,0
194.982,195.10805,89,46,0
195.10805,195.24442,79,38,0
195.53998,195.61008,82,42,0
195.53998,195.61008,86,48,0
195.53998,195.61008,79,42,0
195.68016,195.75026,82,42,0
195.68016,195.75026,86,48,0
195.68016,195.75026,79,42,0
195.82036,195.96599,82,46,0
195.82036,195.96599,91,51,0
195.82036,195.96599,79,46,0
196.11162,196.18304,79,42,0
196.11162,196.18304,82,42,0
196.11162,196.18304,86,48,0
196.25447,196.3259,86,48,0
196.25447,196.3259,79,42,0
196.25447,196.3259,82,42,0
196.39732,196.54156,91,51,0
196.39732,196.54156,82,46,0
196.39732,196.54156,79,46,0
196.68579,196.84369,84,49,0
196.68579,196.84369,82,44,0
196.68579,196.84369,79,44,0
197.00159,197.28065,77,89,0
197.00159,197.28065,69,73,0
197.28065,197.37157,76,79,0
197.37157,197.46246,77,69,0
197.46246,197.55338,76,69,0
197.28065,197.55338,69,73,0
197.55338,197.69164,74,79,0
197.69164,197.83052,76,69,0
197.55338,197.83052,69,69,0
197.83052,197.96504,77,81,0
197.96504,198.11067,74,72,0
197.83052,198.11067,69,60,0
198.11067,198.21938,76,80,0
198.11067,198.21938,69,69,0
198.40053,198.50975,72,77,0
198.40053,198.50975,69,69,0
198.69179,198.97087,77,85,0
198.69179,198.97087,69,70,0
198.97087,199.06177,76,76,0
199.06177,199.15268,77,68,0
199.15268,199.24359,76,68,0
198.97087,199.24359,69,70,0
199.24359,199.38248,74,76,0
199.38248,199.52202,76,69,0
199.24359,199.52202,69,66,0
199.52202,199.65654,77,78,0
199.65654,199.80289,74,71,0
199.52202,199.80289,69,58,0
199.80289,199.91158,76,77,0
199.80289,199.91158,69,66,0
200.09274,200.20197,72,74,0
200.09274,200.20197,69,66,0
200.384,200.52225,74,79,0
200.52225,200.6605,76,74,0
200.384,200.6605,69,61,0
200.6605,200.91681,72,77,0
200.6605,200.91681,69,49,0
200.95395,201.0903,74,74,0
201.0903,201.23317,76,75,0
200.95395,201.23317,69,58,0
201.23317,201.47736,77,78,0
201.23317,201.47736,69,61,0
201.51224,201.65048,74,79,0
201.65048,201.78873,76,74,0
201.51224,201.78873,69,61,0
201.78873,202.04236,72,77,0
201.78873,202.04236,69,49,0
202.07858,202.21434,74,80,0
202.21434,202.35258,76,73,0
202.07858,202.35258,69,52,0
202.35258,202.60657,72,76,0
202.35258,202.60657,69,46,0
202.64316,202.78268,74,73,0
202.78268,202.92693,76,75,0
202.64316,202.92693,69,57,0
202.92693,203.06844,79,79,0
203.06844,203.21266,77,73,0
202.92693,203.21266,69,61,0
203.21266,203.35417,74,78,0
203.35417,203.4998,76,74,0
203.21266,203.4998,69,61,0
203.4998,203.79106,72,70,0
203.4998,203.79106,69,51,0
204.08809,204.21468,65,74,0
204.08809,204.21468,62,66,0
204.08809,204.21468,58,56,0
204.21468,204.35104,55,69,0
204.6423,204.76836,77,74,0
204.6423,204.76836,74,66,0
204.6423,204.76836,70,66,0
204.76836,204.90471,67,65,0
205.18509,205.31114,82,66,0
205.18509,205.31114,86,66,0
205.18509,205.31114,89,74,0
205.31114,205.44688,79,67,0
205.74245,205.81094,77,72,0
205.74245,205.81094,82,82,0
205.87944,205.94794,77,72,0
205.87944,205.94794,82,82,0
206.01642,206.15727,82,78,0
206.01642,206.15727,89,87,0
206.29811,206.44235,77,75,0
206.29811,206.44235,82,84,0
206.58658,206.7308,82,78,0
206.58658,206.7308,89,87,0
206.87503,207.01927,77,75,0
206.87503,207.01927,82,84,0
207.4635,207.58955,65,74,0
207.4635,207.58955,62,66,0
207.4635,207.58955,58,66,0
207.58955,207.7259,55,67,0
208.00768,208.1332,77,74,0
208.00768,208.1332,74,66,0
208.00768,208.1332,70,66,0
208.1332,208.26895,67,69,0
208.54932,208.67484,82,66,0
208.54932,208.67484,86,66,0
208.54932,208.67484,89,72,0
208.67484,208.80937,79,68,0
209.10493,209.17569,82,72,0
209.10493,209.17569,86,82,0
209.10493,209.17569,79,72,0
209.24644,209.3172,82,72,0
209.24644,209.3172,86,82,0
209.24644,209.3172,79,72,0
209.38795,209.53795,82,78,0
209.38795,209.53795,91,87,0
209.38795,209.53795,79,78,0
209.68796,209.76077,79,72,0
209.68796,209.76077,82,72,0
209.68796,209.76077,86,82,0
209.83359,209.9064,86,82,0
209.83359,209.9064,79,72,0
209.83359,209.9064,82,72,0
209.97922,210.12997,91,87,0
209.97922,210.12997,82,78,0
209.97922,210.12997,79,78,0
210.28073,210.43457,84,84,0
210.28073,210.43457,82,75,0
210.28073,210.43457,79,75,0
210.73767,210.8123,79,45,0
210.58842,210.8123,69,54,0
210.58842,210.8123,77,54,0
210.58842,210.8123,81,54,0
210.8123,210.88693,81,45,0
210.88693,211.03618,79,53,0
211.03618,211.18544,77,49,0
211.18544,211.33177,69,46,0
211.33177,211.49135,77,46,0
211.49135,211.64134,81,51,0
211.64134,211.79135,79,47,0
211.79135,211.94135,77,53,0
211.94135,212.09135,69,45,0
212.09135,212.23987,65,48,0
212.23987,212.39693,69,44,0
212.54619,212.62082,79,51,0
212.39693,212.62082,81,57,0
212.39693,212.62082,77,57,0
212.62082,212.69543,81,51,0
212.69543,212.8447,79,57,0
212.8447,212.99394,77,55,0
212.99394,213.14029,69,51,0
213.14029,213.29987,77,53,0
213.29987,213.44986,81,60,0
213.44986,213.59987,79,56,0
213.59987,213.74986,77,62,0
213.74986,213.89986,69,49,0
213.89986,214.04837,65,57,0
214.04837,214.20544,69,51,0
214.3547,214.42932,79,58,0
214.20544,214.42932,69,66,0
214.20544,214.42932,77,66,0
214.20544,214.42932,81,66,0
214.42932,214.50395,81,59,0
214.50395,214.65321,79,67,0
214.65321,214.80246,77,64,0
214.80246,214.9488,69,59,0
214.9488,215.11829,77,61,0
215.26755,215.34218,79,61,0
215.11829,215.34218,74,70,0
215.11829,215.34218,77,70,0
215.11829,215.34218,81,70,0
215.34218,215.4168,81,61,0
215.4168,215.56606,79,71,0
215.56606,215.7153,77,60,0
215.7153,215.86165,69,63,0
215.86165,216.02122,67,58,0
216.02122,216.16685,74,78,0
216.16685,216.32475,72,70,0
216.02122,216.32475,69,57,0
216.02122,216.32475,65,57,0
216.32475,216.47108,79,82,0
216.47108,216.62733,77,75,0
216.32475,216.62733,72,61,0
216.32475,216.62733,69,61,0
216.62733,216.77368,86,85,0
216.77368,216.92754,84,75,0
216.62733,216.92754,81,63,0
216.62733,216.92754,77,63,0
216.92754,217.07753,86,100,0
217.07753,217.23378,84,83,0
216.92754,217.23378,82,75,0
216.92754,217.23378,76,75,0
217.23378,217.38377,98,99,0
217.38377,217.54507,96,80,0
217.23378,217.54507,88,74,0
217.23378,217.54507,94,74,0
217.54507,217.70636,86,99,0
217.70636,217.89386,84,79,0
217.54507,217.89386,76,74,0
217.54507,217.89386,82,74,0
218.04312,218.11774,79,48,0
217.89386,218.11774,69,54,0
217.89386,218.11774,77,54,0
217.89386,218.11774,81,54,0
218.11774,218.19237,81,48,0
218.19237,218.34163,79,53,0
218.34163,218.49088,77,49,0
218.49088,218.63722,69,46,0
218.63722,218.7968,77,46,0
218.7968,218.9468,81,51,0
218.9468,219.09679,79,47,0
219.09679,219.2468,77,53,0
219.2468,219.39679,69,45,0
219.39679,219.5453,65,48,0
219.5453,219.70238,69,43,0
219.85162,219.92625,79,51,0
219.70238,219.92625,81,57,0
219.70238,219.92625,77,57,0
219.92625,220.00089,81,51,0
220.00089,220.15013,79,57,0
220.15013,220.2994,77,55,0
220.2994,220.44572,69,51,0
220.44572,220.6053,77,53,0
220.6053,220.75531,81,60,0
220.75531,220.9053,79,56,0
220.9053,221.0553,77,62,0
221.0553,221.2053,69,52,0
221.2053,221.35382,65,57,0
221.35382,221.5109,69,50,0
221.66014,221.73477,79,58,0
221.5109,221.73477,69,66,0
221.5109,221.73477,77,66,0
221.5109,221.73477,81,66,0
221.73477,221.8094,81,56,0
221.8094,221.95865,79,67,0
221.95865,222.10791,77,64,0
222.10791,222.25424,69,59,0
222.25424,222.42374,77,61,0
222.57298,222.64761,79,63,0
222.42374,222.64761,74,70,0
222.42374,222.64761,77,70,0
222.42374,222.64761,81,70,0
222.64761,222.72224,81,63,0
222.72224,222.87149,79,71,0
222.87149,223.02075,77,63,0
223.02075,223.1671,69,63,0
223.1671,223.32666,67,57,0
223.32666,223.47229,74,78,0
223.47229,223.63019,72,69,0
223.32666,223.63019,69,57,0
223.32666,223.63019,65,57,0
223.63019,223.77654,79,82,0
223.77654,223.93279,77,73,0
223.63019,223.93279,72,61,0
223.63019,223.93279,69,61,0
223.93279,224.07913,86,85,0
224.07913,224.23297,84,76,0
223.93279,224.23297,81,63,0
223.93279,224.23297,77,63,0
224.23297,224.38297,86,100,0
224.38297,224.53922,84,77,0
224.23297,224.53922,82,75,0
224.23297,224.53922,76,75,0
224.53922,224.68922,98,99,0
224.68922,224.85051,96,80,0
224.53922,224.85051,88,74,0
224.53922,224.85051,94,74,0
224.85051,225.0118,86,99,0
225.0118,225.19814,84,76,0
224.85051,225.19814,76,74,0
224.85051,225.19814,82,74,0
225.47954,225.59845,65,80,0
225.47954,225.59845,61,73,0
225.47954,225.59845,56,60,0
225.59845,225.72765,53,71,0
225.98965,226.10858,77,80,0
225.98965,226.10858,73,73,0
225.98965,226.10858,68,73,0
226.10858,226.23778,65,71,0
226.49979,226.6187,80,72,0
226.49979,226.6187,85,72,0
226.49979,226.6187,89,79,0
226.6187,226.7479,77,72,0
227.02791,227.09279,83,71,0
227.02791,227.09279,89,81,0
227.15768,227.22258,83,71,0
227.15768,227.22258,89,81,0
227.28746,227.4209,89,76,0
227.28746,227.4209,95,85,0
227.55435,227.69098,83,73,0
227.55435,227.69098,89,82,0
227.82762,227.96426,89,76,0
227.82762,227.96426,95,85,0
228.10089,228.23753,83,73,0
228.10089,228.23753,89,82,0
228.65556,228.77448,65,80,0
228.65556,228.77448,61,73,0
228.65556,228.77448,56,60,0
228.77448,228.90369,53,71,0
229.168,229.28642,77,80,0
229.168,229.28642,73,73,0
229.168,229.28642,68,73,0
229.28642,229.41562,65,71,0
229.67763,229.79607,80,73,0
229.67763,229.79607,85,73,0
229.67763,229.79607,89,80,0
229.79607,229.92526,77,73,0
230.20526,230.27016,83,79,0
230.20526,230.27016,89,90,0
230.33505,230.39993,83,71,0
230.33505,230.39993,89,81,0
230.46483,230.59827,89,76,0
230.46483,230.59827,95,85,0
230.7317,230.86835,83,73,0
230.7317,230.86835,89,82,0
231.00497,231.14162,89,76,0
231.00497,231.14162,95,85,0
231.27826,231.41489,83,73,0
231.27826,231.41489,89,82,0
231.55153,231.62018,101,90,0
231.55153,231.62018,96,78,0
231.55153,231.62018,89,76,0
231.68883,231.7525,91,69,0
231.7525,231.81616,93,70,0
231.81616,231.93878,91,75,0
231.93878,232.06552,89,68,0
232.06552,232.19228,86,72,0
232.46007,232.52374,79,62,0
232.52374,232.5874,81,63,0
232.5874,232.71002,79,69,0
232.71002,232.83676,77,68,0
232.83676,232.96352,74,72,0
233.23131,233.29498,67,62,0
233.29498,233.35864,69,63,0
233.35864,233.48126,67,69,0
233.48126,233.60802,65,68,0
233.60802,233.73476,62,72,0
234.00255,234.06813,55,63,0
234.06813,234.1337,57,63,0
234.1337,234.2682,55,70,0
234.2682,234.4062,53,67,0
234.4062,234.5543,48,73,0
235.54414,236.34096,77,87,0
235.5033,236.34096,65,68,0
235.5169,236.34096,70,74,0
235.53053,236.34096,73,79,0
236.34096,237.16077,77,85,0
236.34096,237.16077,89,101,0
236.34096,237.16077,84,85,0
236.34096,237.16077,81,85,0
237.43405,237.57068,81,91,0
237.43405,237.57068,93,107,0
237.43405,237.57068,89,107,0
237.43405,237.57068,84,91,0
237.70732,238.1811,53,107,0
0.0,0.27907,65,42,0
0.0,0.27907,60,42,0
0.0,0.27907,53,42,0
0.27907,0.36997917,64,37,0
0.36997917,0.46088833,65,35,0
0.46088833,0.5517975,64,35,0
0.5517975,0.687544,62,37,0
0.687544,0.827731,64,35,0
0.827731,0.96226025,65,40,0
0.96226025,1.1086018,62,36,0
1.1086018,1.2157447,64,38,0
1.3943162,1.5035394,60,32,0
1.6855782,1.9646482,65,42,0
1.6855782,1.9646482,53,42,0
1.6855782,1.9646482,60,42,0
1.9646482,2.0555575,64,37,0
2.0555575,2.1464665,65,35,0
2.1464665,2.2373757,64,35,0
2.2373757,2.3731222,62,37,0
2.3731222,2.5133092,64,35,0
2.5133092,2.6478386,65,40,0
2.6478386,2.7934694,62,36,0
2.7934694,2.9006124,64,38,0
3.079184,3.1884072,60,32,0
3.370446,3.5086946,62,44,0
3.5086946,3.6469436,64,39,0
3.6469436,3.8993473,60,36,0
3.935405,4.0717688,62,44,0
4.0717688,4.2113037,64,45,0
4.2113037,4.45549,65,48,0
4.4903736,4.6286225,62,44,0
4.6286225,4.7668715,64,39,0
4.7668715,5.0204945,60,32,0
5.0567265,5.192473,62,42,0
5.192473,5.3307214,64,38,0
5.3307214,5.5813227,60,31,0
5.617908,5.757443,62,36,0
5.757443,5.896978,64,38,0
5.896978,6.035867,67,43,0
6.035867,6.1800976,65,38,0
6.1800976,6.321607,62,42,0
6.321607,6.4672384,64,40,0
6.4672384,6.7585,60,36,0
6.7585,7.0375705,69,44,0
6.7585,7.0375705,57,38,0
6.7585,7.0375705,64,38,0
7.0375705,7.1284795,68,38,0
7.1284795,7.2193885,69,36,0
7.2193885,7.310298,68,36,0
7.310298,7.4460444,66,38,0
7.4460444,7.586231,68,36,0
7.586231,7.7207603,69,42,0
7.7207603,7.864991,66,37,0
7.864991,7.972134,68,39,0
8.150705,8.259929,64,37,0
8.441968,8.721038,69,44,0
8.441968,8.721038,57,38,0
8.441968,8.721038,64,38,0
8.721038,8.811947,68,38,0
8.811947,8.902856,69,36,0
8.902856,8.993765,68,36,0
8.993765,9.129512,66,38,0
9.129512,9.269699,68,36,0
9.269699,9.404228,69,42,0
9.404228,9.548459,66,37,0
9.548459,9.6556015,68,39,0
9.834173,9.943397,64,37,0
10.125435,10.263684,66,46,0
10.263684,10.401933,68,40,0
10.401933,10.654337,64,37,0
10.690394,10.826758,66,46,0
10.826758,10.966293,68,47,0
10.966293,11.210479,69,50,0
11.245363,11.383612,66,46,0
11.383612,11.52186,68,40,0
11.52186,11.775484,64,33,0
11.811715,11.947462,66,44,0
11.947462,12.085711,68,39,0
12.085711,12.336312,64,32,0
12.372897,12.512432,66,37,0
12.512432,12.651967,68,39,0
12.651967,12.790856,71,45,0
12.790856,12.935087,69,39,0
12.935087,13.076596,66,44,0
13.076596,13.222227,68,42,0
13.222227,13.51349,64,37,0
13.51349,13.653025,55,62,0
13.51349,13.653025,48,55,0
13.79256,13.928924,43,50,0
13.79256,13.928924,55,56,0
14.065287,14.201034,48,43,0
14.065287,14.201034,55,49,0
14.341221,14.47575,55,62,0
14.341221,14.47575,50,55,0
14.617259,14.724402,43,50,0
14.617259,14.724402,55,56,0
14.902974,15.0149145,50,50,0
14.902974,15.0149145,55,56,0
15.201481,15.341016,48,55,0
15.201481,15.341016,55,62,0
15.480552,15.616915,43,50,0
15.480552,15.616915,55,56,0
15.753279,15.889026,48,42,0
15.753279,15.889026,55,49,0
16.029213,16.163742,55,62,0
16.029213,16.163742,50,55,0
16.30525,16.412394,55,56,0
16.30525,16.412394,43,50,0
16.590965,16.70019,50,50,0
16.590965,16.70019,55,56,0
16.882227,17.027859,55,48,0
17.027859,17.173489,56,45,0
16.882227,17.173489,48,45,0
17.173489,17.464752,58,49,0
17.464752,17.606932,58,45,0
17.606932,17.749224,56,45,0
17.749224,17.892082,55,43,0
17.892082,18.0346,56,43,0
18.0346,18.17678,58,44,0
18.17678,18.31896,60,45,0
18.31896,18.459805,61,46,0
18.459805,18.60065,63,48,0
18.60065,18.748434,61,47,0
18.748434,18.889278,65,49,0
18.889278,19.030123,64,49,0
19.030123,19.170969,60,45,0
19.170969,19.311813,61,48,0
19.311813,19.452658,58,45,0
19.452658,19.594168,56,45,0
19.594168,19.740509,58,40,0
19.740509,19.88269,55,44,0
19.88269,20.029749,56,40,0
20.029749,20.173979,53,42,0
20.173979,20.345407,55,40,0
20.345407,20.484943,48,55,0
20.345407,20.484943,55,62,0
20.624477,20.760841,43,50,0
20.624477,20.760841,55,56,0
20.897205,21.032951,48,43,0
20.897205,21.032951,55,48,0
21.173138,21.307669,50,55,0
21.173138,21.307669,55,62,0
21.448513,21.555656,43,50,0
21.448513,21.555656,55,56,0
21.734228,21.84345,50,50,0
21.734228,21.84345,55,56,0
22.02549,22.165024,48,55,0
22.02549,22.165024,55,62,0
22.30456,22.440924,43,50,0
22.30456,22.440924,55,56,0
22.577288,22.713034,48,41,0
22.577288,22.713034,55,49,0
22.85322,22.98775,50,55,0
22.85322,22.98775,55,62,0
23.127937,23.235079,43,50,0
23.127937,23.235079,55,56,0
23.41365,23.522875,50,50,0
23.41365,23.522875,55,56,0
23.704912,23.854914,67,43,0
23.854914,24.004913,68,40,0
23.704912,24.004913,60,40,0
24.004913,24.304913,70,44,0
24.304913,24.447092,70,40,0
24.447092,24.589386,68,40,0
24.589386,24.732243,67,38,0
24.732243,24.874762,68,38,0
24.874762,25.016941,70,39,0
25.016941,25.159122,72,40,0
25.159122,25.299967,73,41,0
25.299967,25.440811,75,43,0
25.440811,25.588594,73,42,0
25.588594,25.72944,77,44,0
25.72944,25.870285,76,44,0
25.870285,26.01113,72,40,0
26.01113,26.151976,73,43,0
26.151976,26.29282,70,40,0
26.29282,26.43433,68,40,0
26.43433,26.580671,70,36,0
26.580671,26.72285,67,39,0
26.72285,26.86991,68,36,0
26.86991,27.014141,65,37,0
27.014141,27.18557,67,36,0
27.18557,27.325104,60,45,0
27.46464,27.601004,79,65,0
27.737366,27.873114,55,41,0
28.0133,28.14783,62,45,0
28.288015,28.395159,79,65,0
28.57373,28.682955,55,41,0
28.864992,29.004528,60,45,0
29.144062,29.280426,79,64,0
29.41679,29.552536,55,41,0
29.692724,29.827253,62,45,0
29.96744,30.074583,79,65,0
30.253155,30.362377,55,41,0
30.544416,30.823486,60,43,0
30.544416,30.823486,64,45,0
30.823486,31.096214,60,41,0
30.823486,31.096214,65,50,0
31.096214,31.23196,60,36,0
31.096214,31.23196,64,38,0
31.372147,31.644875,72,45,0
31.372147,31.644875,77,55,0
31.644875,31.78062,72,39,0
31.644875,31.78062,76,41,0
31.920809,32.193535,89,55,0
31.920809,32.193535,84,45,0
32.193535,32.33372,84,40,0
32.193535,32.33372,88,43,0
32.47391,32.74664,72,51,0
32.47391,32.74664,77,63,0
32.74664,32.89018,76,47,0
32.74664,32.89018,72,44,0
33.03372,33.31279,65,72,0
33.03372,33.31279,60,58,0
33.31279,33.463543,60,50,0
33.31279,33.463543,64,53,0
33.614296,33.769737,36,61,0
33.614296,33.769737,48,61,0
33.92518,34.204247,60,64,0
33.92518,34.204247,65,64,0
33.92518,34.204247,53,64,0
34.204247,34.29516,64,57,0
34.29516,34.386066,65,50,0
34.386066,34.476974,64,50,0
34.476974,34.615223,62,57,0
34.615223,34.754112,64,53,0
34.754112,34.88864,65,61,0
34.88864,35.03427,62,56,0
35.03427,35.142967,64,59,0
35.324127,35.43335,60,50,0
35.61539,35.89446,65,61,0
35.61539,35.89446,53,61,0
35.61539,35.89446,60,61,0
35.89446,35.98537,64,55,0
35.98537,36.07628,65,50,0
36.07628,36.167187,64,50,0
36.167187,36.306076,62,55,0
36.306076,36.44561,64,50,0
36.44561,36.58014,65,56,0
36.58014,36.726482,62,54,0
36.726482,36.83518,64,57,0
37.01634,37.12556,60,49,0
37.3076,37.445847,62,54,0
37.445847,37.584095,64,48,0
37.584095,37.836502,60,45,0
37.87256,38.008923,62,48,0
38.008923,38.148457,64,51,0
38.148457,38.392643,65,55,0
38.42753,38.565777,62,54,0
38.565777,38.704025,64,48,0
38.704025,38.95765,60,42,0
38.99388,39.129627,62,51,0
39.129627,39.267876,64,48,0
39.267876,39.518475,60,39,0
39.55506,39.694595,62,43,0
39.694595,39.834133,64,44,0
39.834133,39.97302,67,48,0
39.97302,40.117252,65,44,0
40.117252,40.258762,62,49,0
40.258762,40.404392,64,46,0
40.404392,40.695652,60,46,0
40.695652,40.974724,63,61,0
40.695652,40.974724,68,61,0
40.695652,40.974724,56,61,0
40.974724,41.06563,67,55,0
41.06563,41.156544,68,50,0
41.156544,41.24745,67,50,0
41.24745,41.3857,65,55,0
41.3857,41.525887,67,50,0
41.525887,41.660416,68,59,0
41.660416,41.79995,65,54,0
41.79995,41.908646,67,57,0
42.089806,42.199028,63,54,0
42.38107,42.660137,68,61,0
42.38107,42.660137,56,61,0
42.38107,42.660137,63,61,0
42.660137,42.75105,67,55,0
42.75105,42.841957,68,50,0
42.841957,42.932865,67,50,0
42.932865,43.0724,65,55,0
43.0724,43.21526,67,50,0
43.21526,43.34979,68,59,0
43.34979,43.488674,65,54,0
43.488674,43.59737,67,57,0
43.77853,43.887753,63,54,0
44.069794,44.208042,65,54,0
44.208042,44.34629,67,48,0
44.069794,44.34629,56,44,0
44.34629,44.598694,63,45,0
44.63475,44.771114,65,48,0
44.771114,44.910652,67,51,0
44.910652,45.15484,68,55,0
45.18972,45.32797,65,54,0
45.32797,45.466217,67,48,0
45.466217,45.71984,63,42,0
45.756073,45.89182,65,51,0
45.89182,46.030067,67,48,0
45.756073,46.030067,56,41,0
46.030067,46.28067,63,40,0
46.317253,46.45679,65,43,0
46.45679,46.596325,67,44,0
46.596325,46.735214,70,48,0
46.735214,46.879444,68,44,0
46.879444,47.020954,65,49,0
47.020954,47.166584,67,46,0
47.166584,47.457848,63,46,0
47.457848,47.61013,36,92,0
48.024403,48.16933,60,53,0
48.576145,48.71568,72,54,0
49.11648,49.264267,84,55,0
49.41205,49.48054,73,56,0
49.41205,49.48054,67,51,0
49.549034,49.61753,73,56,0
49.549034,49.61753,67,51,0
49.686024,49.826866,79,63,0
49.967712,50.111942,73,52,0
49.967712,50.111942,67,45,0
50.256172,50.400406,79,54,0
50.544636,50.688866,67,45,0
50.544636,50.688866,73,52,0
50.833096,50.986942,36,92,0
51.402153,51.541687,60,54,0
51.942585,52.082123,72,54,0
52.482502,52.630283,84,54,0
52.77807,52.84656,67,51,0
52.77807,52.84656,73,56,0
52.915054,52.983547,67,51,0
52.915054,52.983547,73,56,0
53.05204,53.192886,79,63,0
53.333733,53.477962,73,52,0
53.333733,53.477962,67,45,0
53.622192,53.766422,79,54,0
53.910652,54.054886,73,52,0
53.910652,54.054886,67,45,0
54.199116,54.478184,79,58,0
54.478184,54.569096,77,52,0
54.569096,54.660004,79,48,0
54.660004,54.75091,77,48,0
54.75091,54.886658,76,52,0
54.886658,55.026848,77,48,0
55.026848,55.16198,79,56,0
55.16198,55.30349,76,46,0
55.30349,55.410633,77,50,0
55.44635,55.55349,76,45,0
55.589207,55.69843,77,49,0
55.734837,55.84905,80,45,0
54.199116,55.88712,72,44,0
55.88712,56.16619,79,58,0
56.16619,56.2571,77,52,0
56.2571,56.348007,79,48,0
56.348007,56.43892,77,48,0
56.43892,56.574665,76,52,0
56.574665,56.71485,77,48,0
56.71485,56.849987,79,56,0
56.849987,56.991497,76,46,0
56.991497,57.09864,77,50,0
57.134354,57.241497,76,45,0
57.27721,57.386433,77,49,0
57.42284,57.532066,80,45,0
55.88712,57.568474,72,44,0
57.568474,57.84754,67,58,0
57.84754,57.938454,65,52,0
57.938454,58.02936,67,48,0
58.02936,58.12027,65,48,0
58.12027,58.188145,64,52,0
58.256016,58.32611,65,48,0
57.568474,58.396206,60,44,0
58.396206,58.46533,67,46,0
58.534348,58.603153,68,48,0
58.671753,58.740143,70,50,0
58.808323,58.8763,72,52,0
58.944794,59.01392,73,54,0
59.083687,59.1563,75,55,0
59.23362,59.323307,73,54,0
59.323307,59.41299,75,51,0
59.41299,59.508686,73,51,0
59.508686,59.597973,72,53,0
59.597973,59.687256,73,49,0
59.687256,59.781597,72,52,0
59.781597,59.871685,70,51,0
59.871685,59.961777,72,49,0
59.961777,60.056564,70,48,0
60.056564,60.14706,68,50,0
60.14706,60.238075,70,45,0
60.238075,60.334694,68,45,0
60.334694,60.42797,67,48,0
60.42797,60.52067,68,45,0
60.52067,60.62067,67,45,0
60.62067,60.71457,65,46,0
60.71457,60.80902,67,43,0
60.80902,60.940598,65,43,0
60.940598,61.095238,36,77,0
61.511765,61.656693,72,50,0
62.062984,62.207214,84,52,0
62.61333,62.753517,72,51,0
62.893703,62.962196,67,46,0
62.893703,62.962196,73,52,0
63.030693,63.099186,73,52,0
63.030693,63.099186,67,46,0
63.16768,63.30852,79,57,0
63.449368,63.593597,67,42,0
63.449368,63.593597,73,47,0
63.737827,63.88206,79,49,0
64.02629,64.174805,73,47,0
64.02629,64.174805,67,42,0
64.32332,64.47484,36,73,0
64.89773,65.04479,72,45,0
65.46256,65.60542,84,46,0
66.01966,66.168175,72,44,0
66.31669,66.38518,55,41,0
66.31669,66.38518,61,46,0
66.453674,66.52216,55,41,0
66.453674,66.52216,61,45,0
66.59066,66.73151,67,50,0
66.87235,67.01658,55,36,0
66.87235,67.01658,61,41,0
67.16081,67.30504,67,42,0
67.44927,67.59561,55,36,0
67.44927,67.59561,61,40,0
67.74196,67.88413,48,56,0
68.3056,68.46024,72,38,0
68.925125,69.1037,72,34,0
69.64022,69.816696,72,32,0
69.993164,70.135345,48,38,0
70.135345,70.27809,48,38,0
70.27809,70.4214,48,38,0
70.4214,70.56541,48,38,0
70.56541,70.709984,48,37,0
70.709984,70.85514,48,37,0
70.85514,71.001015,48,37,0
71.001015,71.14748,48,36,0
71.14748,71.29453,48,36,0
71.29453,71.442314,48,36,0
71.442314,72.52665,48,36,0
72.52665,73.782005,36,49,0
73.782005,73.98867,48,47,0
74.19534,74.40802,72,37,0
74.62091,74.8432,60,37,0
75.901955,76.00759,69,43,0
75.06548,76.32449,41,46,0
76.32449,76.42794,64,41,0
76.73828,76.84245,65,44,0
77.15495,77.26383,60,41,0
77.58895,77.79962,37,51,0
78.0103,78.21019,69,45,0
78.417145,78.62782,57,47,0
78.83849,79.04423,38,47,0
79.24996,79.46203,50,37,0
79.67395,79.89522,66,38,0
80.11649,80.951965,43,46,0
80.951965,81.05606,66,43,0
81.36835,81.47198,61,41,0
81.78288,81.88468,63,44,0
82.1901,82.29763,62,41,0
82.63764,83.90957,36,52,0
83.90957,84.13302,48,51,0
84.35647,84.57991,72,40,0
84.80336,85.03584,60,38,0
86.12067,86.22493,69,43,0
85.26833,86.537735,41,46,0
86.537735,86.64137,64,41,0
86.95227,87.05408,65,44,0
87.3595,87.468376,60,41,0
87.694305,87.8012,48,44,0
87.8012,88.22255,33,56,0
88.22255,89.05074,40,49,0
89.05074,89.49083,48,51,0
89.49083,90.92258,60,40,0
90.92258,91.13091,51,35,0
91.13091,91.33925,52,31,0
91.33925,91.5543,60,41,0
91.769356,91.99323,60,41,0
92.21712,92.32581,65,38,0
92.652954,92.76244,64,41,0
93.093056,93.20417,62,38,0
93.54777,94.803116,36,49,0
94.803116,95.00979,48,47,0
95.21645,95.42914,72,37,0
95.64202,95.86431,60,37,0
96.0866,96.93255,41,46,0
96.93255,97.03969,69,43,0
97.361115,97.46675,64,41,0
97.78365,97.88782,65,44,0
98.20032,98.309204,60,41,0
98.634315,98.84499,37,51,0
99.055664,99.25556,69,45,0
99.46252,99.67319,57,47,0
99.883865,100.0896,38,47,0
100.29533,100.50704,50,37,0
100.71897,100.94024,66,38,0
101.161514,101.99699,43,46,0
101.99699,102.10337,66,43,0
102.422516,102.52815,61,41,0
102.845055,102.94922,63,44,0
103.26172,103.36925,62,41,0
103.70926,104.96461,36,51,0
104.96461,105.17128,60,47,0
105.377945,105.59063,72,37,0
105.80351,106.0258,48,39,0
106.24809,106.672874,41,46,0
106.672874,106.91097,47,31,0
106.91097,107.16097,48,29,0
107.16097,107.66097,57,30,0
107.66097,107.81355,36,42,0
107.96613,108.061844,53,37,0
108.061844,108.157555,55,35,0
108.157555,108.253265,53,35,0
108.253265,108.39618,52,37,0
108.39618,108.54377,50,35,0
108.54377,108.839485,53,40,0
108.54377,108.839485,41,40,0
108.839485,108.952286,52,43,0
108.98989,109.10269,50,40,0
109.1403,109.25529,48,41,0
109.293625,109.408615,52,39,0
109.44695,109.5603,50,43,0
109.59808,109.7142,52,40,0
109.752914,109.848625,53,37,0
109.848625,109.944336,55,35,0
109.944336,110.04005,53,35,0
110.04005,110.18296,52,37,0
110.18296,110.33056,50,35,0
110.33056,110.62627,53,40,0
110.33056,110.62627,41,40,0
110.62627,110.739075,52,43,0
110.77667,110.88948,50,40,0
110.92708,111.042076,48,41,0
111.08041,111.195404,52,39,0
111.233734,111.347084,50,43,0
111.384865,111.50099,52,40,0
111.539696,111.63541,53,37,0
111.63541,111.7327,55,35,0
111.7327,111.83156,53,35,0
111.83156,111.97447,52,37,0
111.97447,112.1416,50,35,0
112.1416,112.29567,53,40,0
112.29567,112.41778,52,40,0
112.45848,112.57633,50,43,0
112.615616,112.739,52,40,0
112.78013,112.898575,48,41,0
112.93806,113.07041,52,39,0
113.114525,113.227875,50,43,0
113.26566,113.38178,52,40,0
113.42049,113.516205,53,37,0
113.516205,113.61349,55,35,0
113.61349,113.71236,53,35,0
113.71236,113.85526,52,37,0
113.85526,114.010864,50,35,0
114.010864,114.16493,53,40,0
114.16493,114.28704,52,40,0
114.32774,114.445595,50,43,0
114.48488,114.60826,53,40,0
114.64939,114.96525,52,41,0
114.010864,114.96525,43,40,0
114.96525,115.26524,36,54,0
115.26524,115.4134,73,57,0
115.4134,115.56303,76,52,0
115.56303,115.71416,72,57,0
115.71416,115.86696,75,52,0
115.86696,116.03271,71,57,0
116.198456,116.27345,71,65,0
116.34845,116.42617,74,56,0
116.50389,116.66179,68,65,0
116.81968,117.11968,35,54,0
117.11968,117.26675,71,57,0
117.26675,117.41563,74,52,0
117.41563,117.566765,70,57,0
117.566765,117.72022,73,52,0
117.72022,117.891655,69,57,0
118.06308,118.138084,71,65,0
118.21308,118.2908,72,56,0
118.36852,118.5281,66,65,0
118.68767,118.83767,54,54,0
118.98767,119.1326,69,63,0
119.1326,119.278114,72,58,0
119.278114,119.42433,68,61,0
119.42433,119.57127,71,57,0
119.57127,119.71893,67,59,0
119.71893,119.86721,70,53,0
119.86721,120.01621,66,59,0
120.01621,120.16596,69,52,0
120.16596,120.31647,65,57,0
120.31647,120.467606,68,50,0
120.467606,120.6195,65,56,0
120.6195,120.77218,67,49,0
120.77218,120.93884,64,53,0
120.93884,121.12773,67,48,0
121.12773,121.45031,48,52,0
121.45031,121.787285,41,56,0
121.787285,121.94945,59,49,0
121.94945,122.11161,60,49,0
122.11161,122.435936,69,54,0
122.435936,122.589745,36,42,0
122.74356,122.84005,53,37,0
122.84005,122.93654,55,35,0
122.93654,123.03303,53,35,0
123.03303,123.17709,52,37,0
123.17709,123.325874,50,35,0
123.325874,123.62397,41,40,0
123.325874,123.62397,53,40,0
123.62397,123.737686,52,43,0
123.7756,123.88931,50,40,0
123.927216,124.043144,48,41,0
124.081795,124.19772,52,39,0
124.23637,124.35064,50,43,0
124.388725,124.50579,52,40,0
124.544815,124.641304,53,37,0
124.641304,124.73779,55,35,0
124.73779,124.83428,53,35,0
124.83428,124.97835,52,37,0
124.97835,125.12712,50,35,0
125.12712,125.425224,53,40,0
125.12712,125.425224,41,40,0
125.425224,125.53894,52,43,0
125.57685,125.69057,50,40,0
125.72847,125.8444,48,41,0
125.88304,125.99898,52,39,0
126.03762,126.15189,50,43,0
126.18998,126.307045,52,40,0
126.34607,126.44256,53,37,0
126.44256,126.540634,55,35,0
126.540634,126.64029,53,35,0
126.64029,126.784355,52,37,0
126.784355,126.95284,50,35,0
126.95284,127.108154,53,40,0
127.108154,127.23124,52,40,0
127.27226,127.39106,50,43,0
127.430664,127.55504,52,40,0
127.5965,127.7159,48,41,0
127.7557,127.88912,52,39,0
127.93359,128.04787,50,43,0
128.08595,128.20302,52,40,0
128.24205,128.33853,53,37,0
128.33853,128.4366,55,35,0
128.4366,128.53627,53,35,0
128.53627,128.68033,52,37,0
128.68033,128.83719,50,35,0
128.83719,128.9925,53,40,0
128.9925,129.11559,52,40,0
129.15662,129.2754,50,43,0
129.315,129.43938,53,40,0
129.48085,129.79924,52,41,0
128.83719,129.79924,43,40,0
129.79924,130.09924,31,56,0
130.09924,130.24739,74,59,0
130.24739,130.39702,76,53,0
130.39702,130.54816,70,59,0
130.54816,130.70096,74,53,0
130.70096,131.03246,67,59,0
131.03246,131.18245,70,62,0
131.18245,131.33789,74,54,0
131.33789,131.65369,64,62,0
131.65369,131.95369,52,56,0
131.95369,132.10074,70,59,0
132.10074,132.24963,74,53,0
132.24963,132.40077,67,59,0
132.40077,132.55423,70,53,0
132.55423,132.89708,64,59,0
132.89708,133.04707,61,59,0
133.04707,133.20251,69,52,0
133.20251,133.52167,57,59,0
133.52167,133.82167,45,56,0
133.82167,133.91829,55,45,0
133.91829,134.01503,57,38,0
134.01503,134.1121,55,38,0
134.1121,134.20955,53,44,0
134.20955,134.30724,55,38,0
134.30724,134.40527,53,38,0
134.40527,134.50368,52,43,0
134.50368,134.6022,53,37,0
134.6022,134.7012,52,37,0
134.7012,134.80046,50,42,0
134.80046,134.89996,52,36,0
134.89996,134.99997,50,36,0
134.99997,135.10022,49,41,0
135.10022,135.20071,50,34,0
135.20071,135.3016,49,34,0
135.3016,135.60579,58,41,0
135.60579,135.91035,57,41,0
135.91035,136.21492,55,41,0
135.3016,136.21492,45,41,0
136.21492,136.372,38,64,0
136.83165,136.98709,74,71,0
137.14253,137.4477,38,42,0
137.4477,137.73483,72,37,0
137.73483,137.87773,70,37,0
137.87773,138.02533,69,35,0
137.4477,138.02533,62,37,0
138.02533,138.32104,72,40,0
138.32104,138.43385,70,43,0
138.47145,138.58426,69,40,0
138.62186,138.73685,67,41,0
138.77518,138.89018,69,39,0
138.92851,139.04185,67,43,0
139.07964,139.19577,69,40,0
139.23447,139.5216,70,37,0
139.5216,139.66867,69,37,0
139.66867,139.8233,67,35,0
138.02533,139.8233,62,38,0
139.8233,140.131,70,40,0
140.131,140.24638,67,43,0
140.28485,140.40326,69,40,0
139.8233,140.44273,62,40,0
140.44273,140.74939,65,41,0
140.74939,141.05455,38,42,0
141.05455,141.34169,72,37,0
141.34169,141.4846,70,37,0
141.4846,141.63219,69,35,0
141.05455,141.63219,62,37,0
141.63219,141.9279,72,40,0
141.9279,142.04071,70,43,0
142.07831,142.19112,69,40,0
142.22871,142.34372,67,41,0
142.38205,142.49704,69,39,0
142.53537,142.64873,67,43,0
142.68651,142.80263,69,40,0
142.84134,143.12848,70,37,0
143.12848,143.27553,69,37,0
143.27553,143.43018,67,35,0
141.63219,143.43018,62,38,0
143.43018,143.73787,70,40,0
143.73787,143.85324,67,43,0
143.89171,144.01013,69,40,0
143.43018,144.0496,62,40,0
144.0496,144.35626,65,41,0
144.35626,144.65627,38,45,0
144.65627,144.95404,72,43,0
144.95404,145.10516,70,43,0
145.10516,145.25797,69,40,0
145.25797,145.42372,72,43,0
145.58946,145.73946,66,49,0
145.73946,145.8949,72,42,0
145.8949,146.0528,63,49,0
146.2107,146.5107,54,48,0
146.5107,146.80847,72,46,0
146.80847,146.95961,70,46,0
146.95961,147.11241,69,43,0
147.11241,147.27815,72,46,0
147.4439,147.5939,66,52,0
147.5939,147.74934,72,45,0
147.74934,147.90723,63,52,0
148.06512,148.36513,54,48,0
148.36513,148.6629,72,48,0
148.6629,148.81404,70,47,0
148.81404,148.96684,69,44,0
148.96684,149.13258,72,47,0
149.29834,149.59612,72,48,0
149.59612,149.74724,70,47,0
149.74724,149.90005,69,44,0
149.90005,150.0658,72,46,0
150.23154,151.16475,41,61,0
150.23154,151.16475,53,61,0
151.16475,151.78586,41,61,0
151.16475,151.78586,29,61,0
151.78586,154.10483,40,61,0
151.78586,154.10483,28,53,0
154.49995,154.69348,59,53,0
154.69348,154.88701,61,49,0
154.88701,155.46758,62,54,0
155.46758,155.66675,64,51,0
155.66675,156.24902,66,54,0
156.24902,156.45456,69,50,0
156.45456,156.58261,66,54,0
156.58261,156.71065,68,49,0
156.71065,156.83868,66,50,0
156.83868,157.22794,64,50,0
157.43773,157.62178,59,42,0
157.62178,158.20235,56,45,0
158.20235,158.38985,47,42,0
158.38985,158.78201,40,46,0
159.16461,159.55392,64,52,0
159.55392,160.12756,69,50,0
160.12756,160.31865,71,50,0
160.31865,160.51472,68,53,0
160.51472,160.7108,69,50,0
160.7108,160.91383,66,53,0
160.91383,161.12596,68,50,0
161.12596,161.22386,64,50,0
161.22386,161.32176,66,46,0
161.32176,161.41966,64,49,0
161.41966,161.51756,62,43,0
161.51756,162.11049,59,47,0
162.11049,162.29454,59,42,0
162.29454,162.87512,52,45,0
162.87512,163.06262,47,42,0
163.06262,163.45477,40,46,0
163.84332,164.03685,59,53,0
164.03685,164.23036,61,49,0
164.23036,164.81094,62,54,0
164.81094,165.01012,64,51,0
165.01012,165.59239,66,54,0
165.59239,165.79793,69,50,0
165.79793,165.92596,66,54,0
165.92596,166.054,68,48,0
166.054,166.18205,66,50,0
166.18205,166.5713,64,50,0
166.77678,166.96083,52,42,0
166.96083,167.5414,45,45,0
167.5414,167.7289,40,42,0
167.7289,168.33846,33,46,0
168.33846,168.52954,64,48,0
168.52954,168.7269,69,51,0
168.7269,168.93098,71,54,0
168.93098,169.50462,74,59,0
169.50462,169.69571,73,52,0
169.69571,169.89178,71,55,0
169.89178,170.08786,69,52,0
170.08786,170.2909,66,55,0
170.2909,170.50302,68,52,0
170.50302,170.60092,64,52,0
170.60092,170.69882,66,48,0
170.69882,170.79672,64,52,0
170.79672,170.89462,62,48,0
170.89462,171.4903,59,52,0
171.4903,171.67435,59,42,0
171.67435,172.25491,52,45,0
172.25491,172.44241,47,42,0
172.44241,172.83458,40,46,0
173.22208,173.4156,59,53,0
173.4156,173.60912,61,49,0
173.60912,174.1897,62,54,0
174.1897,174.38887,64,51,0
174.38887,174.97115,66,54,0
174.97115,175.17668,69,50,0
175.17668,175.30472,66,54,0
175.30472,175.43275,68,46,0
175.43275,175.5608,66,50,0
175.5608,177.54593,64,50,0
177.54593,177.67665,65,44,0
177.67665,177.80736,67,37,0
177.80736,177.93808,65,37,0
177.93808,179.98677,64,38,0
179.98677,180.26584,37,69,0
180.26584,180.53857,61,49,0
180.26584,180.53857,66,60,0
180.53857,180.67432,61,43,0
180.53857,180.67432,65,45,0
180.8145,181.08723,78,60,0
180.8145,181.08723,73,49,0
181.08723,181.22298,73,42,0
181.08723,181.22298,77,45,0
181.36317,181.6359,85,49,0
181.36317,181.6359,90,60,0
181.6359,181.77608,89,47,0
181.6359,181.77608,85,44,0
181.91628,182.189,73,51,0
181.91628,182.189,78,63,0
182.189,182.34285,77,47,0
182.189,182.34285,73,44,0
182.49669,182.78105,65,69,0
182.49669,182.78105,60,55,0
182.78105,182.9303,60,48,0
182.78105,182.9303,64,51,0
183.07956,183.23581,48,58,0
183.07956,183.23581,36,58,0
183.39206,183.67113,53,64,0
183.39206,183.67113,41,64,0
183.67113,183.94385,65,58,0
183.67113,183.94385,60,58,0
183.67113,183.94385,57,58,0
183.94385,184.221,65,58,0
183.94385,184.221,60,58,0
183.94385,184.221,57,58,0
184.221,184.50114,48,64,0
184.221,184.50114,36,64,0
184.50114,184.64607,65,58,0
184.50114,184.64607,60,58,0
184.50114,184.64607,57,58,0
184.791,184.93665,65,58,0
184.791,184.93665,60,58,0
184.791,184.93665,57,58,0
185.08228,185.36134,53,64,0
185.08228,185.36134,41,64,0
185.36134,185.63406,60,58,0
185.36134,185.63406,57,58,0
185.36134,185.63406,65,58,0
185.63406,185.91249,60,58,0
185.63406,185.91249,65,58,0
185.63406,185.91249,57,58,0
185.91249,186.19336,36,64,0
185.91249,186.19336,48,64,0
186.19336,186.33829,60,58,0
186.19336,186.33829,65,58,0
186.19336,186.33829,57,58,0
186.48322,186.62885,60,58,0
186.48322,186.62885,65,58,0
186.48322,186.62885,57,58,0
186.77448,187.05098,53,58,0
187.05098,187.1959,59,59,0
187.1959,187.34442,60,52,0
187.34442,187.55222,48,51,0
187.55222,187.62364,62,52,0
187.62364,187.76317,60,59,0
187.76317,187.90271,59,50,0
187.90271,188.04095,60,58,0
188.04095,188.1792,62,51,0
188.1792,188.43283,60,49,0
188.46906,188.74306,53,58,0
188.74306,188.88728,59,58,0
188.88728,189.03363,60,53,0
189.03363,189.24529,48,51,0
189.24529,189.3174,62,52,0
189.3174,189.45891,60,59,0
189.45891,189.60313,59,49,0
189.60313,189.74464,60,58,0
189.74464,189.89027,62,49,0
189.89027,190.17253,60,49,0
190.21286,190.36285,36,55,0
190.7758,190.92003,60,36,0
191.3266,191.47014,72,36,0
191.87662,192.0244,84,36,0
192.17218,192.24068,74,40,0
192.17218,192.24068,67,36,0
192.30917,192.37767,74,40,0
192.30917,192.37767,67,36,0
192.44615,192.587,79,44,0
192.72784,192.87209,74,37,0
192.72784,192.87209,67,32,0
193.01631,193.16054,79,38,0
193.30478,193.449,74,37,0
193.30478,193.449,67,32,0
193.59323,193.74324,36,52,0
194.15689,194.29774,60,37,0
194.70163,194.84181,72,38,0
195.24442,195.3922,84,38,0
195.53998,195.61008,77,40,0
195.53998,195.61008,72,36,0
195.68016,195.75026,77,40,0
195.68016,195.75026,72,36,0
195.82036,195.96599,77,44,0
195.82036,195.96599,72,44,0
196.11162,196.18304,77,40,0
196.11162,196.18304,72,36,0
196.25447,196.3259,77,40,0
196.25447,196.3259,72,36,0
196.39732,196.54156,77,44,0
196.39732,196.54156,72,44,0
196.68579,196.84369,76,37,0
196.68579,196.84369,72,32,0
197.00159,197.28065,53,66,0
197.00159,197.28065,41,66,0
197.28065,197.55338,65,60,0
197.28065,197.55338,60,60,0
197.28065,197.55338,57,60,0
197.55338,197.83052,65,60,0
197.55338,197.83052,60,60,0
197.55338,197.83052,57,60,0
197.83052,198.11067,48,66,0
197.83052,198.11067,36,66,0
198.11067,198.2556,65,60,0
198.11067,198.2556,60,60,0
198.11067,198.2556,57,60,0
198.40053,198.54616,65,60,0
198.40053,198.54616,60,60,0
198.40053,198.54616,57,60,0
198.69179,198.97087,53,66,0
198.69179,198.97087,41,66,0
198.97087,199.24359,60,60,0
198.97087,199.24359,57,60,0
198.97087,199.24359,65,60,0
199.24359,199.52202,60,60,0
199.24359,199.52202,65,60,0
199.24359,199.52202,57,60,0
199.52202,199.80289,36,66,0
199.52202,199.80289,48,66,0
199.80289,199.94781,60,60,0
199.80289,199.94781,65,60,0
199.80289,199.94781,57,60,0
200.09274,200.23837,60,60,0
200.09274,200.23837,65,60,0
200.09274,200.23837,57,60,0
200.384,200.6605,53,60,0
200.6605,200.80544,59,61,0
200.80544,200.95395,60,54,0
200.95395,201.16173,48,53,0
201.16173,201.23317,62,54,0
201.23317,201.3727,60,61,0
201.3727,201.51224,59,51,0
201.51224,201.65048,60,60,0
201.65048,201.78873,62,53,0
201.78873,202.04236,60,50,0
202.07858,202.35258,53,60,0
202.35258,202.49681,59,64,0
202.49681,202.64316,60,55,0
202.64316,202.8548,48,53,0
202.8548,202.92693,62,54,0
202.92693,203.06844,60,61,0
203.06844,203.21266,59,49,0
203.21266,203.35417,60,60,0
203.35417,203.4998,62,53,0
203.4998,203.75465,60,50,0
203.79106,203.93958,36,98,0
204.35104,204.49667,60,62,0
204.90471,205.0449,72,60,0
205.44688,205.59467,84,61,0
205.74245,205.81094,74,62,0
205.74245,205.81094,67,54,0
205.87944,205.94794,74,62,0
205.87944,205.94794,67,54,0
206.01642,206.15727,79,67,0
206.29811,206.44235,74,56,0
206.29811,206.44235,67,48,0
206.58658,206.7308,79,58,0
206.87503,207.01927,74,56,0
206.87503,207.01927,67,48,0
207.1635,207.31349,36,98,0
207.7259,207.8675,60,59,0
208.26895,208.40913,72,60,0
208.80937,208.95715,84,59,0
209.10493,209.17569,77,62,0
209.10493,209.17569,72,54,0
209.24644,209.3172,77,62,0
209.24644,209.3172,72,54,0
209.38795,209.53795,77,67,0
209.38795,209.53795,72,67,0
209.68796,209.76077,77,62,0
209.68796,209.76077,72,54,0
209.83359,209.9064,77,62,0
209.83359,209.9064,72,54,0
209.97922,210.12997,77,67,0
209.97922,210.12997,72,67,0
210.28073,210.43457,76,56,0
210.28073,210.43457,72,48,0
210.58842,210.88693,65,35,0
210.58842,210.88693,60,35,0
210.58842,210.88693,53,35,0
210.88693,211.18544,65,32,0
210.88693,211.18544,60,32,0
210.88693,211.18544,53,32,0
211.18544,211.49135,65,27,0
211.18544,211.49135,60,27,0
211.18544,211.49135,53,27,0
211.49135,211.64134,65,35,0
211.49135,211.64134,61,35,0
211.49135,211.64134,53,35,0
211.79135,211.94135,65,31,0
211.79135,211.94135,61,31,0
211.79135,211.94135,53,31,0
212.09135,212.23987,61,28,0
212.09135,212.23987,53,28,0
212.39693,212.69543,65,37,0
212.39693,212.69543,62,37,0
212.39693,212.69543,53,37,0
212.69543,212.99394,65,34,0
212.69543,212.99394,62,34,0
212.69543,212.99394,53,34,0
212.99394,213.29987,65,30,0
212.99394,213.29987,62,30,0
212.99394,213.29987,53,30,0
213.29987,213.44986,65,40,0
213.29987,213.44986,61,40,0
213.29987,213.44986,53,40,0
213.59987,213.74986,65,36,0
213.59987,213.74986,61,36,0
213.59987,213.74986,53,36,0
213.89986,214.04837,61,33,0
213.89986,214.04837,53,33,0
214.20544,214.50395,65,42,0
214.20544,214.50395,60,42,0
214.20544,214.50395,53,42,0
214.50395,214.80246,65,39,0
214.50395,214.80246,60,39,0
214.50395,214.80246,53,39,0
214.80246,215.11829,65,34,0
214.80246,215.11829,60,34,0
214.80246,215.11829,53,34,0
215.11829,215.4168,47,45,0
215.4168,215.7153,59,42,0
215.7153,216.02122,65,36,0
215.4168,216.02122,55,42,0
216.02122,216.32475,36,63,0
216.32475,216.47108,59,62,0
216.47108,216.62733,60,57,0
216.62733,216.77368,57,64,0
216.77368,216.92754,53,57,0
216.92754,217.07753,36,82,0
217.23378,217.38377,72,78,0
217.54507,217.70636,60,79,0
217.89386,218.19237,65,35,0
217.89386,218.19237,60,35,0
217.89386,218.19237,53,35,0
218.19237,218.49088,65,32,0
218.19237,218.49088,60,32,0
218.19237,218.49088,53,32,0
218.49088,218.7968,65,27,0
218.49088,218.7968,60,27,0
218.49088,218.7968,53,27,0
218.7968,218.9468,65,35,0
218.7968,218.9468,61,35,0
218.7968,218.9468,53,35,0
219.09679,219.2468,65,31,0
219.09679,219.2468,61,31,0
219.09679,219.2468,53,31,0
219.39679,219.5453,61,28,0
219.39679,219.5453,53,28,0
219.70238,220.00089,65,37,0
219.70238,220.00089,62,37,0
219.70238,220.00089,53,37,0
220.00089,220.2994,65,34,0
220.00089,220.2994,62,34,0
220.00089,220.2994,53,34,0
220.2994,220.6053,65,30,0
220.2994,220.6053,62,30,0
220.2994,220.6053,53,30,0
220.6053,220.75531,65,40,0
220.6053,220.75531,61,40,0
220.6053,220.75531,53,40,0
220.9053,221.0553,65,36,0
220.9053,221.0553,61,36,0
220.9053,221.0553,53,36,0
221.2053,221.35382,61,33,0
221.2053,221.35382,53,33,0
221.5109,221.8094,65,42,0
221.5109,221.8094,60,42,0
221.5109,221.8094,53,42,0
221.8094,222.10791,65,39,0
221.8094,222.10791,60,39,0
221.8094,222.10791,53,39,0
222.10791,222.42374,65,34,0
222.10791,222.42374,60,34,0
222.10791,222.42374,53,34,0
222.42374,222.72224,47,45,0
222.72224,223.02075,59,42,0
223.02075,223.32666,65,36,0
222.72224,223.32666,55,42,0
223.32666,223.63019,36,63,0
223.63019,223.77654,59,62,0
223.77654,223.93279,60,57,0
223.93279,224.07913,57,64,0
224.07913,224.23297,53,57,0
224.23297,224.38297,36,82,0
224.53922,224.68922,72,78,0
224.85051,225.0118,60,79,0
225.19814,225.33884,41,107,0
225.72765,225.85866,59,70,0
226.23778,226.36877,71,70,0
226.7479,226.88791,83,69,0
227.02791,227.09279,73,60,0
227.02791,227.09279,65,54,0
227.15768,227.22258,73,60,0
227.15768,227.22258,65,54,0
227.28746,227.4209,79,65,0
227.28746,227.4209,73,65,0
227.55435,227.69098,73,55,0
227.55435,227.69098,65,47,0
227.82762,227.96426,79,56,0
227.82762,227.96426,73,56,0
228.10089,228.23753,73,55,0
228.10089,228.23753,65,47,0
228.37416,228.51486,41,107,0
228.90369,229.03584,59,68,0
229.41562,229.54663,71,68,0
229.92526,230.06526,83,69,0
230.20526,230.27016,73,67,0
230.20526,230.27016,65,60,0
230.33505,230.39993,73,60,0
230.33505,230.39993,65,54,0
230.46483,230.59827,79,65,0
230.46483,230.59827,73,65,0
230.7317,230.86835,73,55,0
230.7317,230.86835,65,47,0
231.00497,231.14162,79,56,0
231.00497,231.14162,73,56,0
231.27826,231.41489,73,55,0
231.27826,231.41489,65,47,0
231.55153,231.68883,57,69,0
231.55153,231.68883,48,69,0
231.55153,231.68883,41,69,0
232.19228,232.32277,84,63,0
232.32277,232.5874,81,68,0
232.96352,233.09401,72,63,0
233.09401,233.35864,69,68,0
233.73476,233.86525,60,63,0
233.86525,234.00255,57,68,0
234.5543,234.7191,45,63,0
234.7191,235.54414,41,76,0
235.46246,236.34096,46,57,0
235.47607,236.34096,53,57,0
235.48969,236.34096,61,57,0
236.34096,237.16077,57,84,0
236.34096,237.16077,48,71,0
236.34096,237.16077,41,71,0
237.43405,237.57068,77,74,0
237.43405,237.57068,72,74,0
237.43405,237.57068,65,74,0
237.70732,238.1811,41,88,0
237.70732,238.1811,29,74,0
