start_time,end_time,note_value,velocity,instrument_program_number
0.1167315,0.17509726,62,31,0
0.343757,0.398904,62,35,0
0.56557524,0.62133735,62,39,0
0.7907357,0.84755385,62,37,0
1.0180082,1.0748264,62,34,0
1.2452807,1.3020989,62,32,0
1.4756485,1.5340142,62,31,0
1.703081,1.7584316,62,35,0
1.9257222,1.9816924,62,39,0
2.1512988,2.2081168,62,37,0
2.3785713,2.4353893,62,34,0
2.6058438,2.6626618,62,32,0
2.8362114,2.8945773,62,31,0
3.063644,3.1189945,62,35,0
3.2862852,3.3422554,62,39,0
3.5110075,3.5673985,62,37,0
3.7374258,3.7942438,62,40,0
3.9646983,4.0215163,62,37,0
4.191971,4.248789,62,41,0
4.416718,4.4722733,62,35,0
4.63894,4.6944957,62,39,0
4.8624105,4.91859,62,34,0
5.0879765,5.1447945,62,38,0
5.3161154,5.374939,62,37,0
5.552056,5.6115794,62,30,0
5.7813973,5.8365445,62,35,0
6.003216,6.0589776,62,36,0
6.228376,6.2851944,62,31,0
6.4556484,6.512467,62,36,0
6.682921,6.7397394,62,33,0
6.913289,6.9716544,62,37,0
7.139509,7.194254,62,35,0
7.3609385,7.4169087,62,39,0
7.586515,7.6433334,62,37,0
7.8137875,7.870606,62,34,0
8.04106,8.097878,62,32,0
8.271428,8.329794,62,31,0
8.49886,8.554211,62,35,0
8.721501,8.777472,62,39,0
8.946224,9.002615,62,37,0
9.172642,9.22946,62,40,0
9.399915,9.456733,62,37,0
9.627187,9.684005,62,41,0
9.851934,9.90749,62,35,0
10.074157,10.129712,62,43,0
10.2976265,10.3538065,62,37,0
10.523192,10.580011,62,44,0
10.7531185,10.812642,62,39,0
10.990276,11.049332,62,31,0
11.217478,11.272023,62,35,0
11.438093,11.4938545,62,39,0
11.663254,11.720072,62,37,0
11.890526,11.947344,62,34,0
12.117799,12.174617,62,32,0
12.348166,12.406532,62,31,0
12.574787,12.629732,62,35,0
12.7966175,12.852588,62,39,0
13.022194,13.079013,62,37,0
13.249467,13.306285,62,34,0
13.476739,13.533558,62,32,0
13.707108,13.765472,62,31,0
13.93454,13.98989,62,35,0
14.157181,14.213151,62,39,0
14.381903,14.438294,62,37,0
14.608321,14.665139,62,44,0
14.835594,14.892412,62,41,0
15.062866,15.119684,62,48,0
15.287614,15.343169,62,42,0
15.509835,15.565392,62,47,0
15.733306,15.789486,62,41,0
15.958872,16.01569,62,43,0
16.187012,16.244482,62,37,0
16.420212,16.479267,62,31,0
16.648615,16.703762,62,35,0
16.870434,16.926195,62,39,0
17.095594,17.152412,62,37,0
17.322866,17.379684,62,34,0
17.550138,17.606956,62,32,0
17.780506,17.838873,62,31,0
18.00794,18.06329,62,35,0
18.230581,18.28655,62,39,0
18.456158,18.512976,62,37,0
18.68343,18.740248,62,34,0
18.910702,18.96752,62,32,0
19.14107,19.199436,62,31,0
19.368502,19.423853,62,35,0
19.591145,19.647114,62,39,0
19.815866,19.872257,62,37,0
20.042284,20.099102,62,44,0
20.269556,20.326374,62,41,0
20.49683,20.553648,62,48,0
20.721577,20.777132,62,42,0
20.943798,20.999353,62,47,0
21.167692,21.224583,62,41,0
21.397148,21.455362,62,43,0
21.631992,21.691753,62,37,0
21.867323,21.925917,62,34,0
21.867323,21.925917,74,44,0
22.092813,22.146965,62,38,0
22.092813,22.146965,74,49,0
22.312641,22.368402,62,42,0
22.312641,22.368402,74,54,0
22.5378,22.59462,62,40,0
22.5378,22.59462,74,52,0
22.765074,22.821892,62,37,0
22.765074,22.821892,74,48,0
22.992346,23.049164,62,35,0
22.992346,23.049164,74,45,0
23.222713,23.281078,74,44,0
23.222713,23.281078,62,34,0
23.447748,23.5019,62,38,0
23.447748,23.5019,74,49,0
23.667992,23.723963,62,42,0
23.667992,23.723963,74,54,0
23.893568,23.950386,62,40,0
23.893568,23.950386,74,52,0
24.12084,24.177658,74,48,0
24.12084,24.177658,62,37,0
24.348114,24.404932,62,35,0
24.348114,24.404932,74,45,0
24.578482,24.636847,62,34,0
24.578482,24.636847,74,44,0
24.805914,24.861263,62,38,0
24.805914,24.861263,74,49,0
25.028555,25.084524,62,42,0
25.028555,25.084524,74,54,0
25.253277,25.309668,62,40,0
25.253277,25.309668,74,52,0
25.479694,25.536514,74,57,0
25.479694,25.536514,62,44,0
25.706968,25.763786,62,40,0
25.706968,25.763786,74,52,0
25.93424,25.991058,62,45,0
25.93424,25.991058,74,58,0
26.158987,26.214542,62,38,0
26.158987,26.214542,74,49,0
26.38121,26.436766,74,54,0
26.38121,26.436766,62,42,0
26.60468,26.66086,74,48,0
26.60468,26.66086,62,37,0
26.830246,26.887064,62,41,0
26.830246,26.887064,74,53,0
27.058386,27.119114,62,40,0
27.058386,27.119114,74,52,0
27.296574,27.35494,62,34,0
27.296574,27.35494,74,44,0
27.5236,27.578747,74,49,0
27.5236,27.578747,62,38,0
27.745419,27.80118,62,42,0
27.745419,27.80118,74,54,0
27.97058,28.027397,62,40,0
27.97058,28.027397,74,52,0
28.197851,28.25467,62,37,0
28.197851,28.25467,74,48,0
28.425123,28.481941,62,35,0
28.425123,28.481941,74,45,0
28.65549,28.713858,62,34,0
28.65549,28.713858,74,44,0
28.882923,28.938274,62,38,0
28.882923,28.938274,74,49,0
29.105564,29.161535,62,42,0
29.105564,29.161535,74,54,0
29.33114,29.387959,62,40,0
29.33114,29.387959,74,52,0
29.558414,29.615232,62,37,0
29.558414,29.615232,74,48,0
29.785686,29.842505,62,35,0
29.785686,29.842505,74,45,0
30.016054,30.074419,74,44,0
30.016054,30.074419,62,34,0
30.243486,30.298838,62,38,0
30.243486,30.298838,74,49,0
30.466127,30.522099,62,42,0
30.466127,30.522099,74,54,0
30.69085,30.74724,62,40,0
30.69085,30.74724,74,52,0
30.917269,30.974087,74,57,0
30.917269,30.974087,62,44,0
31.14454,31.201359,74,52,0
31.14454,31.201359,62,40,0
31.371813,31.42863,62,45,0
31.371813,31.42863,74,58,0
31.595339,31.650284,62,38,0
31.595339,31.650284,74,49,0
31.816341,31.871897,62,48,0
31.816341,31.871897,74,62,0
32.03981,32.09599,74,54,0
32.03981,32.09599,62,42,0
32.265663,32.323284,62,51,0
32.265663,32.323284,74,66,0
32.50008,32.560486,62,45,0
32.50008,32.560486,74,58,0
32.738274,32.80615,74,70,0
32.738274,32.80615,78,70,0
32.738274,32.80615,81,83,0
32.738274,32.80615,86,83,0
32.98351,33.038254,62,42,0
32.98351,33.038254,74,54,0
33.204525,33.260284,74,59,0
33.204525,33.260284,62,46,0
33.429684,33.486504,62,44,0
33.429684,33.486504,74,57,0
33.656956,33.713776,62,40,0
33.656956,33.713776,74,52,0
33.884228,33.941048,62,38,0
33.884228,33.941048,74,49,0
34.114597,34.18156,86,85,0
34.114597,34.18156,78,72,0
34.114597,34.18156,74,72,0
34.114597,34.18156,81,85,0
34.358414,34.41336,62,42,0
34.358414,34.41336,74,54,0
34.580246,34.636215,62,46,0
34.580246,34.636215,74,59,0
34.80582,34.86264,62,44,0
34.80582,34.86264,74,57,0
35.033096,35.089912,62,40,0
35.033096,35.089912,74,52,0
35.26037,35.317184,62,38,0
35.26037,35.317184,74,49,0
35.490734,35.556816,81,83,0
35.490734,35.556816,86,83,0
35.490734,35.556816,74,70,0
35.490734,35.556816,78,70,0
35.732784,35.787727,62,42,0
35.732784,35.787727,74,54,0
35.954613,36.010582,74,59,0
35.954613,36.010582,62,46,0
36.179337,36.235725,62,44,0
36.179337,36.235725,74,57,0
36.405754,36.462574,62,52,0
36.405754,36.462574,74,67,0
36.633026,36.689846,62,49,0
36.633026,36.689846,74,63,0
36.8603,36.917118,74,70,0
36.8603,36.917118,62,54,0
37.085045,37.140602,62,50,0
37.085045,37.140602,74,65,0
37.30727,37.362823,62,54,0
37.30727,37.362823,74,69,0
37.53074,37.586918,62,49,0
37.53074,37.586918,74,63,0
37.756306,37.81312,62,51,0
37.756306,37.81312,74,66,0
37.984444,38.041916,62,44,0
37.984444,38.041916,74,57,0
38.216267,38.284447,86,83,0
38.216267,38.284447,81,83,0
38.216267,38.284447,74,70,0
38.216267,38.284447,78,70,0
38.462116,38.51686,62,42,0
38.462116,38.51686,74,54,0
38.683132,38.73889,62,46,0
38.683132,38.73889,74,59,0
38.90829,38.96511,74,57,0
38.90829,38.96511,62,44,0
39.135563,39.192383,74,52,0
39.135563,39.192383,62,40,0
39.362835,39.419655,62,38,0
39.362835,39.419655,74,49,0
39.593204,39.66108,81,85,0
39.593204,39.66108,78,72,0
39.593204,39.66108,74,72,0
39.593204,39.66108,86,85,0
39.83844,39.893185,74,54,0
39.83844,39.893185,62,42,0
40.059868,40.11584,62,46,0
40.059868,40.11584,74,59,0
40.285446,40.342262,62,44,0
40.285446,40.342262,74,57,0
40.51272,40.56954,62,40,0
40.51272,40.56954,74,52,0
40.73999,40.79681,62,38,0
40.73999,40.79681,74,49,0
40.97036,41.03854,86,83,0
40.97036,41.03854,78,70,0
40.97036,41.03854,74,70,0
40.97036,41.03854,81,83,0
41.217422,41.272774,62,42,0
41.217422,41.272774,74,54,0
41.440063,41.496037,62,46,0
41.440063,41.496037,74,59,0
41.664787,41.721176,62,44,0
41.664787,41.721176,74,57,0
41.891205,41.948025,74,64,0
41.891205,41.948025,62,50,0
42.118477,42.175297,62,49,0
42.118477,42.175297,74,63,0
42.34575,42.40257,62,54,0
42.34575,42.40257,74,70,0
42.56968,42.62483,62,50,0
42.56968,42.62483,74,65,0
42.791916,42.847885,62,56,0
42.791916,42.847885,74,72,0
43.017635,43.07496,62,52,0
43.017635,43.07496,74,67,0
43.24886,43.3073,62,60,0
43.24886,43.3073,74,77,0
43.484627,43.544468,62,59,0
43.484627,43.544468,74,76,0
43.724148,43.803513,79,76,0
43.724148,43.803513,82,76,0
43.724148,43.803513,86,76,0
43.724148,43.803513,91,91,0
43.991184,44.045334,74,68,0
43.991184,44.045334,62,52,0
44.21101,44.266773,62,57,0
44.21101,44.266773,74,74,0
44.436172,44.49299,62,54,0
44.436172,44.49299,74,70,0
44.663445,44.72026,62,50,0
44.663445,44.72026,74,65,0
44.890717,44.947533,74,60,0
44.890717,44.947533,62,47,0
45.121082,45.20003,91,93,0
45.121082,45.20003,82,79,0
45.121082,45.20003,79,79,0
45.121082,45.20003,86,79,0
45.387672,45.44202,62,52,0
45.387672,45.44202,74,68,0
45.60831,45.66428,62,57,0
45.60831,45.66428,74,74,0
45.833885,45.890705,62,54,0
45.833885,45.890705,74,70,0
46.061157,46.117977,74,65,0
46.061157,46.117977,62,50,0
46.288433,46.34525,62,47,0
46.288433,46.34525,74,60,0
46.5188,46.597332,86,76,0
46.5188,46.597332,91,91,0
46.5188,46.597332,79,76,0
46.5188,46.597332,82,76,0
46.786568,46.84192,62,50,0
46.786568,46.84192,74,65,0
47.00921,47.065178,62,55,0
47.00921,47.065178,74,71,0
47.233932,47.29032,62,52,0
47.233932,47.29032,74,67,0
47.46035,47.517166,62,55,0
47.46035,47.517166,74,72,0
47.687622,47.744442,62,58,0
47.687622,47.744442,74,75,0
47.914894,47.971714,62,61,0
47.914894,47.971714,74,79,0
48.13964,48.195198,74,70,0
48.13964,48.195198,62,54,0
48.361866,48.41742,62,58,0
48.361866,48.41742,74,75,0
48.585335,48.641514,62,52,0
48.585335,48.641514,74,67,0
48.8109,48.867718,62,54,0
48.8109,48.867718,74,71,0
49.03904,49.09977,74,67,0
49.03904,49.09977,62,52,0
49.27723,49.365463,87,93,0
49.27723,49.365463,82,79,0
49.27723,49.365463,79,79,0
49.27723,49.365463,91,93,0
49.562004,49.616154,63,52,0
49.562004,49.616154,75,68,0
49.782246,49.838215,63,57,0
49.782246,49.838215,75,74,0
50.007824,50.06464,63,54,0
50.007824,50.06464,75,70,0
50.235096,50.291912,75,65,0
50.235096,50.291912,63,50,0
50.46456,50.522476,63,47,0
50.46456,50.522476,75,60,0
50.697124,50.784843,87,93,0
50.697124,50.784843,82,79,0
50.697124,50.784843,79,79,0
50.697124,50.784843,91,93,0
50.980865,51.035015,75,68,0
50.980865,51.035015,63,52,0
51.201107,51.257076,75,74,0
51.201107,51.257076,63,57,0
51.426685,51.4835,63,54,0
51.426685,51.4835,75,70,0
51.653957,51.710773,63,50,0
51.653957,51.710773,75,65,0
51.88478,51.943375,63,47,0
51.88478,51.943375,75,60,0
52.1187,52.205406,91,93,0
52.1187,52.205406,82,79,0
52.1187,52.205406,79,79,0
52.1187,52.205406,87,93,0
52.402813,52.45816,63,50,0
52.402813,52.45816,75,65,0
52.625454,52.681423,63,55,0
52.625454,52.681423,75,71,0
52.85103,52.90785,63,52,0
52.85103,52.90785,75,67,0
53.0783,53.13512,63,48,0
53.0783,53.13512,75,62,0
53.305573,53.362392,75,58,0
53.305573,53.362392,63,45,0
53.532845,53.589664,63,54,0
53.532845,53.589664,75,70,0
53.757595,53.81315,63,55,0
53.757595,53.81315,75,71,0
53.979816,54.03537,63,55,0
53.979816,54.03537,75,71,0
54.203285,54.259464,75,67,0
54.203285,54.259464,63,52,0
54.428852,54.485672,63,56,0
54.428852,54.485672,75,72,0
54.65699,54.714462,63,52,0
54.65699,54.714462,75,67,0
54.888813,54.978634,86,86,0
54.888813,54.978634,90,86,0
54.888813,54.978634,93,86,0
54.888813,54.978634,98,102,0
55.17637,55.230324,62,55,0
55.17637,55.230324,74,71,0
55.395805,55.45157,62,58,0
55.395805,55.45157,74,75,0
55.620964,55.677784,62,57,0
55.620964,55.677784,74,73,0
55.84824,55.905056,62,52,0
55.84824,55.905056,74,68,0
56.075512,56.135994,62,49,0
56.075512,56.135994,74,63,0
56.31321,56.40303,99,102,0
56.31321,56.40303,94,86,0
56.31321,56.40303,87,86,0
56.31321,56.40303,91,86,0
56.600765,56.65472,63,55,0
56.600765,56.65472,75,71,0
56.820618,56.876587,63,60,0
56.820618,56.876587,75,78,0
57.046196,57.103012,75,73,0
57.046196,57.103012,63,57,0
57.273468,57.330284,63,52,0
57.273468,57.330284,75,68,0
57.50074,57.559563,63,49,0
57.50074,57.559563,75,63,0
57.73512,57.823875,93,87,0
57.73512,57.823875,98,103,0
57.73512,57.823875,86,87,0
57.73512,57.823875,90,87,0
58.020546,58.074505,62,55,0
58.020546,58.074505,74,71,0
58.239986,58.295746,74,74,0
58.239986,58.295746,62,57,0
58.465145,58.521965,62,57,0
58.465145,58.521965,74,73,0
58.692417,58.749237,62,52,0
58.692417,58.749237,74,68,0
58.91969,58.979214,62,49,0
58.91969,58.979214,74,63,0
59.155468,59.243187,94,86,0
59.155468,59.243187,91,86,0
59.155468,59.243187,87,86,0
59.155468,59.243187,99,102,0
59.4396,59.49395,63,55,0
59.4396,59.49395,75,71,0
59.66024,59.71621,63,60,0
59.66024,59.71621,75,78,0
59.885815,59.942635,63,57,0
59.885815,59.942635,75,73,0
60.113087,60.169907,75,68,0
60.113087,60.169907,63,52,0
60.340363,60.39718,63,49,0
60.340363,60.39718,75,63,0
60.57073,60.661636,93,86,0
60.57073,60.661636,98,102,0
60.57073,60.661636,86,86,0
60.57073,60.661636,90,86,0
60.862843,60.917988,62,55,0
60.862843,60.917988,74,71,0
61.08466,61.140423,62,60,0
61.08466,61.140423,74,78,0
61.30982,61.36664,62,57,0
61.30982,61.36664,74,73,0
61.537094,61.59391,62,52,0
61.537094,61.59391,74,68,0
61.764366,61.821182,62,49,0
61.764366,61.821182,74,63,0
61.992504,62.049755,62,53,0
61.992504,62.049755,74,68,0
62.217304,62.27245,62,50,0
62.217304,62.27245,74,65,0
62.43912,62.494884,74,66,0
62.43912,62.494884,62,51,0
62.66428,62.7211,62,49,0
62.66428,62.7211,74,63,0
62.88862,62.94397,62,50,0
62.88862,62.94397,74,65,0
63.11126,63.16723,62,45,0
63.11126,63.16723,74,58,0
63.33309,63.388035,74,68,0
63.33309,63.388035,62,53,0
63.55492,63.61089,74,63,0
63.55492,63.61089,62,49,0
63.777153,63.832302,62,49,0
63.777153,63.832302,74,63,0
63.99939,64.05536,62,48,0
63.99939,64.05536,74,62,0
64.22163,64.27677,62,48,0
64.22163,64.27677,74,62,0
64.44262,64.49797,74,55,0
64.44262,64.49797,62,43,0
64.66281,64.71755,74,63,0
64.66281,64.71755,62,49,0
64.88466,64.940834,62,46,0
64.88466,64.940834,74,59,0
65.10994,65.16683,62,46,0
65.10994,65.16683,74,59,0
65.33939,65.39754,62,43,0
65.33939,65.39754,74,55,0
65.57347,65.63284,62,44,0
65.57347,65.63284,74,57,0
65.81034,65.868706,74,49,0
65.81034,65.868706,62,38,0
66.04381,66.10217,62,58,0
66.04381,66.10217,74,75,0
66.27083,66.32598,62,42,0
66.49265,66.54841,62,46,0
66.71781,66.77463,62,44,0
66.94508,67.0019,62,40,0
67.172356,67.22917,62,38,0
67.4005,67.45775,62,45,0
67.62529,67.68044,62,42,0
67.847115,67.90287,62,43,0
68.07227,68.12909,62,41,0
68.29661,68.35196,62,42,0
68.51925,68.57522,62,38,0
68.74108,68.79603,62,45,0
68.96291,69.01888,62,41,0
69.18514,69.240295,62,41,0
69.40738,69.46335,62,40,0
69.629616,69.68476,62,40,0
69.85061,69.90596,62,36,0
70.0708,70.12554,62,41,0
70.29265,70.34882,62,39,0
70.51779,70.574394,62,39,0
70.74506,70.802315,62,36,0
70.97495,71.03287,62,37,0
71.20751,71.26588,62,32,0
71.44097,71.49934,54,36,0
71.44097,71.49934,57,36,0
71.668816,71.72437,57,31,0
71.668816,71.72437,54,31,0
71.89145,71.94721,57,34,0
71.89145,71.94721,54,34,0
72.116615,72.17343,57,33,0
72.116615,72.17343,54,33,0
72.34068,72.39563,57,35,0
72.34068,72.39563,54,35,0
72.56168,72.61724,57,34,0
72.56168,72.61724,54,34,0
72.78643,72.84325,55,36,0
72.78643,72.84325,58,36,0
73.01036,73.065506,58,31,0
73.01036,73.065506,55,31,0
73.23218,73.28794,58,34,0
73.23218,73.28794,55,34,0
73.457344,73.51416,58,29,0
73.457344,73.51416,55,29,0
73.684616,73.74143,55,34,0
73.684616,73.74143,58,34,0
73.91189,73.968704,58,31,0
73.91189,73.968704,55,31,0
74.14225,74.20062,57,36,0
74.14225,74.20062,54,36,0
74.36928,74.42442,57,31,0
74.36928,74.42442,54,31,0
74.591095,74.64686,57,34,0
74.591095,74.64686,54,34,0
74.81625,74.87308,57,33,0
74.81625,74.87308,54,33,0
75.040184,75.09534,57,35,0
75.040184,75.09534,54,35,0
75.26242,75.31839,57,34,0
75.26242,75.31839,54,34,0
75.48757,75.544174,58,36,0
75.48757,75.544174,55,36,0
75.71107,75.76622,58,31,0
75.71107,75.76622,55,31,0
75.93289,75.988655,55,34,0
75.93289,75.988655,58,34,0
76.15805,76.21487,58,29,0
76.15805,76.21487,55,29,0
76.38321,76.43897,58,34,0
76.38321,76.43897,55,34,0
76.60751,76.66391,58,31,0
76.60751,76.66391,55,31,0
76.83703,76.89539,54,36,0
76.83703,76.89539,57,36,0
77.06406,77.1192,57,31,0
77.06406,77.1192,54,31,0
77.28587,77.34164,57,34,0
77.28587,77.34164,54,34,0
77.51103,77.567856,57,33,0
77.51103,77.567856,54,33,0
77.73578,77.791336,57,35,0
77.73578,77.791336,54,35,0
77.95925,78.015434,57,34,0
77.95925,78.015434,54,34,0
78.18611,78.24337,54,36,0
78.18611,78.24337,57,36,0
78.41091,78.46606,57,31,0
78.41091,78.46606,54,31,0
78.63273,78.68849,57,34,0
78.63273,78.68849,54,34,0
78.857895,78.91471,57,29,0
78.857895,78.91471,54,29,0
79.08517,79.14198,54,34,0
79.08517,79.14198,57,34,0
79.31244,79.369255,54,31,0
79.31244,79.369255,57,31,0
79.53971,79.59653,54,43,0
79.76698,79.8238,57,43,0
79.994255,80.05107,62,42,0
80.22153,80.27834,66,42,0
80.4488,80.505615,69,41,0
80.67607,80.73289,74,41,0
80.90334,80.96038,78,40,0
81.132065,81.18954,81,40,0
81.36283,81.42082,86,39,0
81.595695,81.65429,90,39,0
81.83115,81.89067,93,39,0
82.07084,82.13634,98,39,0
82.20184,84.297905,86,43,0
82.20184,84.297905,90,43,0
82.20184,84.297905,98,43,0
85.34594,86.84594,86,65,0
86.84594,87.22094,84,57,0
87.22094,87.59594,86,57,0
88.90844,88.994156,86,54,0
87.59594,88.994156,89,64,0
88.994156,89.07987,87,54,0
89.07987,89.4349,86,60,0
89.4349,89.803,84,47,0
89.803,91.38633,86,55,0
91.38633,92.28185,66,34,0
92.28185,94.81003,69,34,0
91.38633,94.81003,57,28,0
91.38633,94.81003,62,28,0
92.28185,94.81003,66,34,0
94.81003,96.31003,86,65,0
96.31003,96.68503,84,57,0
96.68503,97.06003,86,57,0
98.37253,98.458244,86,54,0
97.06003,98.458244,89,64,0
98.458244,98.54396,87,54,0
98.54396,98.89484,86,60,0
98.89484,99.26751,84,47,0
99.26751,100.85667,86,55,0
100.85667,101.75893,62,34,0
101.75893,104.305016,65,34,0
100.85667,104.305016,53,28,0
100.85667,104.305016,58,28,0
101.75893,104.305016,62,34,0
104.305016,105.805016,86,62,0
105.805016,107.07889,85,56,0
107.07889,107.16316,82,48,0
107.16316,107.24743,84,46,0
107.24743,107.58263,82,54,0
107.58263,107.92548,81,50,0
107.92548,108.27432,79,52,0
108.27432,108.64469,82,46,0
108.64469,110.2055,81,52,0
110.2055,111.09439,66,41,0
111.09439,113.761055,69,41,0
110.2055,113.761055,57,35,0
110.2055,113.761055,62,35,0
111.09439,113.761055,66,41,0
113.761055,115.261055,86,65,0
115.261055,115.59814,87,65,0
115.59814,115.93904,86,57,0
115.93904,116.28788,85,59,0
116.28788,116.48143,81,59,0
116.48143,116.56523,82,46,0
116.56523,116.649025,84,46,0
116.649025,116.97335,82,53,0
116.97335,117.31818,81,52,0
117.31818,117.67321,79,53,0
117.67321,118.06537,82,47,0
118.06537,119.67251,81,52,0
119.67251,120.5816,67,30,0
119.67251,120.5816,61,25,0
120.5816,123.308876,66,30,0
120.5816,123.308876,62,30,0
119.67251,123.308876,57,25,0
123.79282,124.719604,65,36,0
125.08111,125.14136,66,48,0
125.14136,125.201614,68,50,0
125.201614,125.42806,66,57,0
125.42806,125.65451,65,53,0
125.65451,125.88096,66,59,0
125.88096,126.10913,75,55,0
126.579796,127.495964,65,48,0
126.579796,127.495964,74,48,0
127.968475,128.4163,73,56,0
128.4163,128.86247,72,54,0
127.968475,128.86247,74,63,0
129.3021,129.74826,70,56,0
129.74826,130.19443,74,51,0
129.3021,130.19443,62,51,0
130.63728,131.08849,69,58,0
131.08849,131.54599,74,50,0
130.63728,131.54599,62,52,0
132.013,132.49109,67,58,0
132.49109,133.03654,74,50,0
132.013,133.03654,62,51,0
133.55836,134.60204,67,30,0
133.55836,134.60204,61,25,0
135.54169,136.00508,66,45,0
135.54169,136.00508,62,45,0
136.46848,136.69664,67,41,0
136.46848,136.69664,69,41,0
136.92482,137.15298,67,41,0
136.92482,137.15298,69,41,0
138.32614,138.78954,66,45,0
138.32614,138.78954,62,45,0
139.25293,139.4811,67,41,0
139.25293,139.4811,69,41,0
139.70927,139.93744,67,41,0
139.70927,139.93744,69,41,0
141.15694,141.64223,66,45,0
141.15694,141.64223,62,45,0
141.64223,141.87392,84,66,0
141.87392,142.10562,86,63,0
142.10562,142.32953,87,67,0
142.32953,142.44362,89,65,0
142.44362,142.55771,87,62,0
142.55771,142.78587,86,66,0
142.78587,143.01938,84,55,0
143.01938,143.24588,86,65,0
143.24588,143.47476,85,54,0
143.47476,143.70126,81,59,0
143.70126,143.93752,84,52,0
143.93752,144.16922,83,54,0
144.16922,144.4064,79,50,0
144.4064,144.63632,82,54,0
144.63632,144.87447,81,47,0
144.87447,145.1095,78,52,0
145.1095,145.3505,80,46,0
145.3505,145.59116,79,51,0
145.59116,145.83817,75,47,0
146.77782,147.24121,66,45,0
146.77782,147.24121,62,45,0
147.7046,148.16095,68,36,0
147.7046,148.16095,72,36,0
148.16095,148.62262,68,36,0
148.16095,148.62262,72,36,0
149.56227,150.02567,71,45,0
149.56227,150.02567,67,45,0
150.48906,150.71724,68,39,0
150.48906,150.71724,72,39,0
150.9454,151.17357,68,39,0
150.9454,151.17357,72,39,0
152.39307,152.87836,71,45,0
152.39307,152.87836,67,45,0
152.87836,153.11049,75,67,0
153.11049,153.34262,78,63,0
152.87836,153.34262,67,49,0
153.34262,153.57079,79,66,0
153.57079,153.68488,74,57,0
153.68488,153.79895,75,57,0
153.34262,153.79895,67,45,0
153.79895,154.02713,72,63,0
154.02713,154.26064,74,56,0
153.79895,154.26064,66,45,0
154.26064,154.48871,70,65,0
154.48871,154.72334,74,50,0
154.26064,154.72334,62,38,0
154.72334,154.95383,69,62,0
154.95383,155.18929,74,49,0
154.72334,155.18929,62,30,0
155.18929,155.4206,70,60,0
155.4206,155.65605,74,49,0
155.18929,155.65605,62,33,0
155.65605,155.88818,79,56,0
155.88818,156.1203,81,51,0
155.65605,156.1203,70,50,0
156.1203,156.34848,82,56,0
156.34848,156.46257,77,51,0
156.46257,156.57664,79,51,0
156.1203,156.57664,70,50,0
156.57664,156.80482,75,57,0
156.80482,157.03831,77,49,0
156.57664,157.03831,69,51,0
157.03831,157.2664,74,53,0
157.2664,157.50104,77,46,0
157.03831,157.50104,65,37,0
157.50104,157.73152,73,51,0
157.73152,157.96698,77,44,0
157.50104,157.96698,65,36,0
157.96698,158.19829,74,52,0
158.19829,158.43375,77,46,0
157.96698,158.43375,65,36,0
158.43375,158.66544,80,57,0
158.66544,158.89194,82,50,0
158.89194,159.11612,84,55,0
159.11612,159.22937,87,49,0
159.22937,159.28485,85,46,0
159.28485,159.34032,87,47,0
159.34032,159.5684,85,55,0
159.5684,159.80191,84,48,0
159.80191,160.02841,87,57,0
160.02841,160.14285,84,49,0
160.14285,160.20007,82,44,0
160.20007,160.2573,84,44,0
160.2573,160.4838,82,55,0
160.4838,160.72284,81,48,0
160.72284,160.96873,84,55,0
160.96873,161.2427,87,48,0
161.2427,161.47484,63,55,0
161.47484,161.70697,65,46,0
161.70697,161.93513,67,55,0
161.93513,162.04922,69,52,0
162.04922,162.16331,67,49,0
162.16331,162.39148,65,53,0
162.39148,162.62498,63,53,0
163.56464,164.02803,66,45,0
163.56464,164.02803,62,45,0
164.49142,164.71959,69,41,0
164.49142,164.71959,72,41,0
164.94777,165.17593,69,41,0
164.94777,165.17593,72,41,0
166.34909,166.81248,66,45,0
166.34909,166.81248,62,45,0
167.27588,167.50404,69,41,0
167.27588,167.50404,72,41,0
167.73222,167.96039,69,41,0
167.73222,167.96039,72,41,0
169.17989,169.66518,66,45,0
169.17989,169.66518,62,45,0
169.78687,169.8477,62,23,0
169.78687,169.8477,65,28,0
170.02576,170.08435,62,21,0
170.02576,170.08435,65,26,0
170.26147,170.32074,62,21,0
170.26147,170.32074,65,26,0
170.50076,170.56114,62,20,0
170.50076,170.56114,65,26,0
170.73915,170.79797,62,21,0
170.73915,170.79797,65,26,0
170.97838,171.03917,62,18,0
170.97838,171.03917,65,26,0
171.21968,171.27954,57,23,0
171.21968,171.27954,60,23,0
171.21968,171.27954,65,28,0
171.45836,171.51784,57,20,0
171.45836,171.51784,65,26,0
171.45836,171.51784,60,22,0
171.69453,171.75313,57,20,0
171.69453,171.75313,65,26,0
171.69453,171.75313,60,22,0
171.9307,171.99017,57,19,0
171.9307,171.99017,65,26,0
171.9307,171.99017,60,22,0
172.16687,172.22546,57,19,0
172.16687,172.22546,65,26,0
172.16687,172.22546,60,22,0
172.40614,172.46718,57,17,0
172.40614,172.46718,65,26,0
172.40614,172.46718,60,22,0
172.65028,172.71132,58,22,0
172.65028,172.71132,67,26,0
172.65028,172.71132,61,22,0
172.89175,172.95145,58,18,0
172.89175,172.95145,67,24,0
172.89175,172.95145,61,20,0
173.13152,173.19215,58,18,0
173.13152,173.19215,67,24,0
173.13152,173.19215,61,20,0
173.37567,173.43744,58,17,0
173.37567,173.43744,67,24,0
173.37567,173.43744,61,20,0
173.62424,173.68709,58,18,0
173.62424,173.68709,67,24,0
173.62424,173.68709,61,20,0
173.88542,174.05333,58,15,0
173.88542,174.05333,67,24,0
173.88542,174.05333,61,20,0
174.1773,175.6773,86,65,0
175.6773,176.0523,84,57,0
176.0523,176.4273,86,57,0
177.7398,177.82552,86,54,0
176.4273,177.82552,89,64,0
177.82552,177.91122,87,54,0
177.91122,178.26627,86,60,0
178.26627,178.63435,84,47,0
178.63435,180.2177,86,55,0
180.2177,181.1132,66,34,0
181.1132,183.64139,69,34,0
180.2177,183.64139,57,28,0
180.2177,183.64139,62,28,0
181.1132,183.64139,66,34,0
183.64139,185.14139,86,65,0
185.14139,185.51639,84,57,0
185.51639,185.89139,86,57,0
187.20389,187.2896,86,54,0
185.89139,187.2896,89,64,0
187.2896,187.37532,87,54,0
187.37532,187.7262,86,60,0
187.7262,188.09886,84,47,0
188.09886,189.7649,86,55,0
189.7649,190.7249,67,30,0
189.7649,190.7249,61,25,0
190.7249,193.60489,66,30,0
190.7249,193.60489,62,30,0
189.7649,193.60489,57,25,0
193.72163,193.78,62,31,0
193.94865,194.0038,62,35,0
194.17047,194.22623,62,39,0
194.39563,194.45245,62,37,0
194.62291,194.67972,62,34,0
194.85017,194.907,62,32,0
195.08055,195.13892,62,31,0
195.30798,195.36333,62,35,0
195.53062,195.5866,62,39,0
195.7562,195.81302,62,37,0
195.98346,196.04028,62,34,0
196.21074,196.26756,62,32,0
196.4411,196.49947,62,31,0
196.66853,196.72389,62,35,0
196.89117,196.94714,62,39,0
197.1159,197.17229,62,37,0
197.34232,197.39914,62,40,0
197.5696,197.62642,62,37,0
197.79686,197.85368,62,41,0
198.0216,198.07716,62,35,0
198.24384,198.2994,62,39,0
198.4673,198.52348,62,34,0
198.69287,198.7497,62,38,0
198.921,198.97983,62,37,0
199.15695,199.21648,62,30,0
199.38629,199.44144,62,35,0
199.60811,199.66388,62,36,0
199.83327,199.89009,62,31,0
200.06055,200.11736,62,36,0
200.28781,200.34464,62,33,0
200.51819,200.57655,62,37,0
200.7444,200.79915,62,35,0
200.96584,201.0218,62,39,0
201.1914,201.24823,62,37,0
201.41869,201.4755,62,34,0
201.64595,201.70277,62,32,0
201.87633,201.9347,62,31,0
202.10376,202.1591,62,35,0
202.3264,202.38237,62,39,0
202.55112,202.60751,62,37,0
202.77754,202.83435,62,40,0
203.0048,203.06163,62,37,0
203.23209,203.2889,62,41,0
203.45683,203.51239,62,35,0
203.67905,203.7346,62,43,0
203.90253,203.9587,62,37,0
204.12808,204.1849,62,44,0
204.35802,204.41754,62,39,0
204.59517,204.65422,62,31,0
204.82237,204.87692,62,35,0
205.04298,205.09875,62,39,0
205.26814,205.32497,62,37,0
205.49542,205.55225,62,34,0
205.72269,205.77951,62,32,0
205.95306,206.01143,62,31,0
206.17969,206.23463,62,35,0
206.40152,206.45749,62,39,0
206.62709,206.68391,62,37,0
206.85435,206.91118,62,34,0
207.08163,207.13846,62,32,0
207.312,207.37036,62,31,0
207.53943,207.59479,62,35,0
207.76207,207.81804,62,39,0
207.9868,208.04318,62,37,0
208.21321,208.27003,62,44,0
208.44049,208.49731,62,41,0
208.66776,208.72458,62,48,0
208.8925,208.94806,62,42,0
209.11473,209.17029,62,47,0
209.3382,209.39438,62,41,0
209.56377,209.62059,62,43,0
209.7919,209.84938,62,37,0
210.0251,210.08417,62,31,0
210.25351,210.30865,62,35,0
210.47533,210.5311,62,39,0
210.70049,210.75731,62,37,0
210.92776,210.98457,62,34,0
211.15503,211.21185,62,32,0
211.3854,211.44377,62,31,0
211.61284,211.66818,62,35,0
211.83548,211.89145,62,39,0
212.06105,212.11787,62,37,0
212.28833,212.34514,62,34,0
212.5156,212.57242,62,32,0
212.74597,212.80434,62,31,0
212.9734,213.02875,62,35,0
213.19604,213.25201,62,39,0
213.42076,213.47716,62,37,0
213.64719,213.704,62,44,0
213.87445,213.93127,62,41,0
214.10173,214.15854,62,48,0
214.32648,214.38203,62,42,0
214.54869,214.60425,62,47,0
214.77258,214.82948,62,41,0
215.00204,215.06026,62,43,0
215.2369,215.29665,62,37,0
215.47221,215.5308,62,34,0
215.47221,215.5308,74,44,0
215.69771,215.75186,62,38,0
215.69771,215.75186,74,49,0
215.91754,215.9733,62,42,0
215.91754,215.9733,74,54,0
216.1427,216.19951,62,40,0
216.1427,216.19951,74,52,0
216.36996,216.42679,62,37,0
216.36996,216.42679,74,48,0
216.59724,216.65405,62,35,0
216.59724,216.65405,74,45,0
216.8276,216.88597,62,34,0
216.8276,216.88597,74,44,0
217.05264,217.1068,62,38,0
217.05264,217.1068,74,49,0
217.27289,217.32886,62,42,0
217.27289,217.32886,74,54,0
217.49846,217.55528,62,40,0
217.49846,217.55528,74,52,0
217.72574,217.78255,62,37,0
217.72574,217.78255,74,48,0
217.953,218.00983,62,35,0
217.953,218.00983,74,45,0
218.18338,218.24174,62,34,0
218.18338,218.24174,74,44,0
218.41081,218.46616,62,38,0
218.41081,218.46616,74,49,0
218.63345,218.68942,62,42,0
218.63345,218.68942,74,54,0
218.85817,218.91457,62,40,0
218.85817,218.91457,74,52,0
219.0846,219.1414,62,44,0
219.0846,219.1414,74,57,0
219.31186,219.36868,62,40,0
219.31186,219.36868,74,52,0
219.53914,219.59595,62,45,0
219.53914,219.59595,74,58,0
219.76389,219.81944,62,38,0
219.76389,219.81944,74,49,0
219.9861,220.04166,62,42,0
219.9861,220.04166,74,54,0
220.20958,220.26576,62,37,0
220.20958,220.26576,74,48,0
220.43513,220.49196,62,41,0
220.43513,220.49196,74,53,0
220.66328,220.72401,62,40,0
220.66328,220.72401,74,52,0
220.90147,220.95984,62,34,0
220.90147,220.95984,74,44,0
221.1285,221.18364,62,38,0
221.1285,221.18364,74,49,0
221.35031,221.40608,62,42,0
221.35031,221.40608,74,54,0
221.57547,221.6323,62,40,0
221.57547,221.6323,74,52,0
221.80275,221.85956,62,37,0
221.80275,221.85956,74,48,0
222.03001,222.08684,62,35,0
222.03001,222.08684,74,45,0
222.26039,222.31876,62,34,0
222.26039,222.31876,74,44,0
222.48782,222.54317,62,38,0
222.48782,222.54317,74,49,0
222.71046,222.76643,62,42,0
222.71046,222.76643,74,54,0
222.93604,222.99286,62,40,0
222.93604,222.99286,74,52,0
223.16331,223.22012,62,37,0
223.16331,223.22012,74,48,0
223.39058,223.4474,62,35,0
223.39058,223.4474,74,45,0
223.62096,223.67932,62,34,0
223.62096,223.67932,74,44,0
223.84839,223.90373,62,38,0
223.84839,223.90373,74,49,0
224.07103,224.127,62,42,0
224.07103,224.127,74,54,0
224.29575,224.35214,62,40,0
224.29575,224.35214,74,52,0
224.52216,224.57898,62,44,0
224.52216,224.57898,74,57,0
224.74944,224.80626,62,40,0
224.74944,224.80626,74,52,0
224.97672,225.03352,62,45,0
224.97672,225.03352,74,58,0
225.20024,225.25517,62,38,0
225.20024,225.25517,74,49,0
225.42123,225.47679,62,48,0
225.42123,225.47679,74,62,0
225.6447,225.70088,62,42,0
225.6447,225.70088,74,54,0
225.87056,225.92818,62,51,0
225.87056,225.92818,74,66,0
226.10498,226.16537,62,45,0
226.10498,226.16537,74,58,0
226.34317,226.41104,74,70,0
226.34317,226.41104,86,83,0
226.34317,226.41104,81,83,0
226.34317,226.41104,78,70,0
226.58841,226.64314,62,42,0
226.58841,226.64314,74,54,0
226.80942,226.86517,62,46,0
226.80942,226.86517,74,59,0
227.03458,227.0914,62,44,0
227.03458,227.0914,74,57,0
227.26186,227.31866,62,40,0
227.26186,227.31866,74,52,0
227.48912,227.54594,62,38,0
227.48912,227.54594,74,49,0
227.7195,227.78645,74,72,0
227.7195,227.78645,86,85,0
227.7195,227.78645,81,85,0
227.7195,227.78645,78,72,0
227.96332,228.01825,62,42,0
227.96332,228.01825,74,54,0
228.18513,228.2411,62,46,0
228.18513,228.2411,74,59,0
228.41072,228.46753,62,44,0
228.41072,228.46753,74,57,0
228.63799,228.69481,62,40,0
228.63799,228.69481,74,52,0
228.86526,228.92207,62,38,0
228.86526,228.92207,74,49,0
229.09563,229.16171,74,70,0
229.09563,229.16171,86,83,0
229.09563,229.16171,81,83,0
229.09563,229.16171,78,70,0
229.33768,229.39262,62,42,0
229.33768,229.39262,74,54,0
229.55951,229.61548,62,46,0
229.55951,229.61548,74,59,0
229.78423,229.84062,62,44,0
229.78423,229.84062,74,57,0
230.01065,230.06747,62,52,0
230.01065,230.06747,74,67,0
230.23792,230.29474,62,49,0
230.23792,230.29474,74,63,0
230.4652,230.52202,62,54,0
230.4652,230.52202,74,70,0
230.68994,230.7455,62,50,0
230.68994,230.7455,74,65,0
230.91217,230.96771,62,53,0
230.91217,230.96771,74,68,0
231.13564,231.19182,62,49,0
231.13564,231.19182,74,63,0
231.3612,231.41801,62,51,0
231.3612,231.41801,74,66,0
231.58934,231.6468,62,44,0
231.58934,231.6468,74,57,0
231.82117,231.88934,74,70,0
231.82117,231.88934,86,83,0
231.82117,231.88934,81,83,0
231.82117,231.88934,78,70,0
232.06702,232.12177,62,42,0
232.06702,232.12177,74,54,0
232.28802,232.3438,62,46,0
232.28802,232.3438,74,59,0
232.51318,232.57,62,44,0
232.51318,232.57,74,57,0
232.74046,232.79727,62,40,0
232.74046,232.79727,74,52,0
232.96773,233.02455,62,38,0
232.96773,233.02455,74,49,0
233.1981,233.26598,74,72,0
233.1981,233.26598,86,85,0
233.1981,233.26598,81,85,0
233.1981,233.26598,78,72,0
233.44333,233.49808,62,42,0
233.44333,233.49808,74,54,0
233.66476,233.72073,62,46,0
233.66476,233.72073,74,59,0
233.89034,233.94716,62,44,0
233.89034,233.94716,74,57,0
234.11761,234.17444,62,40,0
234.11761,234.17444,74,52,0
234.34488,234.4017,62,38,0
234.34488,234.4017,74,49,0
234.57526,234.64343,74,70,0
234.57526,234.64343,86,83,0
234.57526,234.64343,81,83,0
234.57526,234.64343,78,70,0
234.82231,234.87767,62,42,0
234.82231,234.87767,74,54,0
235.04495,235.10094,62,46,0
235.04495,235.10094,74,59,0
235.26968,235.32608,62,44,0
235.26968,235.32608,74,57,0
235.4961,235.55292,62,52,0
235.4961,235.55292,74,67,0
235.72337,235.7802,62,49,0
235.72337,235.7802,74,63,0
235.95064,236.00746,62,55,0
235.95064,236.00746,74,71,0
236.17458,236.22972,62,50,0
236.17458,236.22972,74,65,0
236.3968,236.45277,62,56,0
236.3968,236.45277,74,72,0
236.62253,236.67986,62,52,0
236.62253,236.67986,74,67,0
236.85376,236.9122,62,60,0
236.85376,236.9122,74,77,0
237.08952,237.14937,62,59,0
237.08952,237.14937,74,76,0
237.32904,237.40842,79,76,0
237.32904,237.40842,91,91,0
237.32904,237.40842,86,76,0
237.32904,237.40842,82,76,0
237.59608,237.65022,62,52,0
237.59608,237.65022,74,68,0
237.8159,237.87167,62,57,0
237.8159,237.87167,74,74,0
238.04106,238.09789,62,54,0
238.04106,238.09789,74,70,0
238.26834,238.32515,62,50,0
238.26834,238.32515,74,65,0
238.4956,238.55243,62,47,0
238.4956,238.55243,74,60,0
238.72598,238.80493,79,79,0
238.72598,238.80493,91,93,0
238.72598,238.80493,86,79,0
238.72598,238.80493,82,79,0
238.99257,239.04692,62,52,0
238.99257,239.04692,74,68,0
239.21321,239.26918,62,57,0
239.21321,239.26918,74,74,0
239.43878,239.4956,62,54,0
239.43878,239.4956,74,70,0
239.66606,239.72287,62,50,0
239.66606,239.72287,74,65,0
239.89333,239.95015,62,47,0
239.89333,239.95015,74,60,0
240.12369,240.20222,79,76,0
240.12369,240.20222,91,91,0
240.12369,240.20222,86,76,0
240.12369,240.20222,82,76,0
240.39146,240.44681,62,50,0
240.39146,240.44681,74,65,0
240.6141,240.67007,62,53,0
240.6141,240.67007,74,68,0
240.83882,240.89522,62,52,0
240.83882,240.89522,74,67,0
241.06525,241.12207,62,55,0
241.06525,241.12207,74,72,0
241.29251,241.34933,62,58,0
241.29251,241.34933,74,75,0
241.51979,241.57661,62,61,0
241.51979,241.57661,74,79,0
241.74454,241.8001,62,54,0
241.74454,241.8001,74,70,0
241.96677,242.02231,62,60,0
241.96677,242.02231,74,78,0
242.19023,242.24641,62,52,0
242.19023,242.24641,74,67,0
242.4158,242.47261,62,54,0
242.4158,242.47261,74,71,0
242.64394,242.70467,62,52,0
242.64394,242.70467,74,67,0
242.88213,242.97035,79,79,0
242.88213,242.97035,91,93,0
242.88213,242.97035,87,93,0
242.88213,242.97035,82,79,0
243.1669,243.22105,63,52,0
243.1669,243.22105,75,68,0
243.38715,243.44312,63,57,0
243.38715,243.44312,75,74,0
243.61272,243.66954,63,54,0
243.61272,243.66954,75,70,0
243.84,243.8968,63,50,0
243.84,243.8968,75,65,0
244.06946,244.12737,63,47,0
244.06946,244.12737,75,60,0
244.30202,244.38974,79,79,0
244.30202,244.38974,91,93,0
244.30202,244.38974,87,93,0
244.30202,244.38974,82,79,0
244.58575,244.63991,63,52,0
244.58575,244.63991,75,68,0
244.806,244.86197,63,57,0
244.806,244.86197,75,74,0
245.03159,245.0884,63,54,0
245.03159,245.0884,75,70,0
245.25885,245.31567,63,50,0
245.25885,245.31567,75,65,0
245.48967,245.54826,63,47,0
245.48967,245.54826,75,60,0
245.7236,245.8103,79,79,0
245.7236,245.8103,91,93,0
245.7236,245.8103,87,93,0
245.7236,245.8103,82,79,0
246.0077,246.06305,63,50,0
246.0077,246.06305,75,65,0
246.23035,246.28632,63,55,0
246.23035,246.28632,75,71,0
246.45592,246.51274,63,52,0
246.45592,246.51274,75,67,0
246.6832,246.74002,63,48,0
246.6832,246.74002,75,62,0
246.91046,246.96729,63,45,0
246.91046,246.96729,75,58,0
247.13774,247.19456,63,54,0
247.13774,247.19456,75,70,0
247.36249,247.41805,63,54,0
247.36249,247.41805,75,69,0
247.58472,247.64026,63,55,0
247.58472,247.64026,75,71,0
247.80818,247.86436,63,52,0
247.80818,247.86436,75,67,0
248.03375,248.09056,63,56,0
248.03375,248.09056,75,72,0
248.26189,248.31935,63,52,0
248.26189,248.31935,75,67,0
248.49371,248.58353,86,86,0
248.49371,248.58353,98,102,0
248.49371,248.58353,93,86,0
248.49371,248.58353,90,86,0
248.78127,248.83522,62,55,0
248.78127,248.83522,74,71,0
249.0007,249.05646,62,58,0
249.0007,249.05646,74,75,0
249.22586,249.28268,62,57,0
249.22586,249.28268,74,73,0
249.45314,249.50995,62,52,0
249.45314,249.50995,74,68,0
249.6804,249.74089,62,49,0
249.6804,249.74089,74,63,0
249.9181,250.00792,87,86,0
249.9181,250.00792,99,102,0
249.9181,250.00792,94,86,0
249.9181,250.00792,91,86,0
250.20566,250.25961,63,55,0
250.20566,250.25961,75,71,0
250.4255,250.48148,63,60,0
250.4255,250.48148,75,78,0
250.6511,250.7079,63,57,0
250.6511,250.7079,75,73,0
250.87836,250.93518,63,52,0
250.87836,250.93518,75,68,0
251.10564,251.16446,63,49,0
251.10564,251.16446,75,63,0
251.34001,251.42877,86,87,0
251.34001,251.42877,98,103,0
251.34001,251.42877,93,87,0
251.34001,251.42877,90,87,0
251.62544,251.6794,62,55,0
251.62544,251.6794,74,71,0
251.84488,251.90063,62,58,0
251.84488,251.90063,74,75,0
252.07004,252.12686,62,57,0
252.07004,252.12686,74,73,0
252.29732,252.35413,62,52,0
252.29732,252.35413,74,68,0
252.52458,252.5841,62,49,0
252.52458,252.5841,74,63,0
252.76036,252.84808,87,86,0
252.76036,252.84808,99,102,0
252.76036,252.84808,94,86,0
252.76036,252.84808,91,86,0
253.0445,253.09885,63,55,0
253.0445,253.09885,75,71,0
253.26514,253.3211,63,58,0
253.26514,253.3211,75,75,0
253.4907,253.54753,63,57,0
253.4907,253.54753,75,73,0
253.71799,253.7748,63,52,0
253.71799,253.7748,75,68,0
253.94525,254.00208,63,49,0
253.94525,254.00208,75,63,0
254.17563,254.26654,86,86,0
254.17563,254.26654,98,102,0
254.17563,254.26654,93,86,0
254.17563,254.26654,90,86,0
254.46774,254.52289,62,55,0
254.46774,254.52289,74,71,0
254.68956,254.74532,62,58,0
254.68956,254.74532,74,75,0
254.91472,254.97153,62,57,0
254.91472,254.97153,74,73,0
255.14198,255.1988,62,52,0
255.14198,255.1988,74,68,0
255.36926,255.42607,62,49,0
255.36926,255.42607,74,63,0
255.5974,255.65465,62,53,0
255.5974,255.65465,74,68,0
255.8222,255.87735,62,50,0
255.8222,255.87735,74,65,0
256.044,256.0998,62,51,0
256.044,256.0998,74,66,0
256.26917,256.326,62,49,0
256.26917,256.326,74,63,0
256.4935,256.54886,62,50,0
256.4935,256.54886,74,65,0
256.71616,256.77213,62,45,0
256.71616,256.77213,74,58,0
256.938,256.99292,62,53,0
256.938,256.99292,74,68,0
257.15982,257.2158,62,49,0
257.15982,257.2158,74,63,0
257.38205,257.4372,62,49,0
257.38205,257.4372,74,63,0
257.60428,257.66025,62,48,0
257.60428,257.66025,74,62,0
257.8265,257.88165,62,48,0
257.8265,257.88165,74,62,0
258.04752,258.10287,62,43,0
258.04752,258.10287,74,55,0
258.2677,258.32245,74,63,0
258.2677,258.32245,62,49,0
258.48956,258.54575,62,46,0
258.48956,258.54575,74,59,0
258.7147,258.7713,62,46,0
258.7147,258.7713,74,59,0
258.94196,258.9992,62,43,0
258.94196,258.9992,74,55,0
259.17184,259.22977,62,44,0
259.17184,259.22977,74,57,0
259.40442,259.46277,62,38,0
259.40442,259.46277,74,49,0
259.63788,259.69626,62,58,0
259.63788,259.69626,74,75,0
259.8649,259.92004,62,42,0
260.08673,260.1425,62,46,0
260.3119,260.3687,62,44,0
260.53915,260.59598,62,40,0
260.76642,260.82324,62,38,0
260.99457,261.05182,62,45,0
261.21936,261.2745,62,42,0
261.4412,261.49695,62,43,0
261.66635,261.72318,62,41,0
261.8907,261.94604,62,42,0
262.1133,262.16928,62,38,0
262.33514,262.3901,62,45,0
262.55698,262.61295,62,41,0
262.7792,262.83435,62,41,0
263.00146,263.05743,62,40,0
263.2237,263.27884,62,40,0
263.44467,263.50003,62,36,0
263.66486,263.7196,62,41,0
263.88672,263.9429,62,39,0
264.11227,264.1694,62,39,0
264.34262,264.40106,62,36,0
264.5784,264.63824,62,37,0
264.8167,264.87506,62,32,0
265.05017,265.10852,57,36,0
265.05017,265.10852,54,36,0
265.278,265.33356,57,31,0
265.278,265.33356,54,31,0
265.50064,265.5564,57,34,0
265.50064,265.5564,54,34,0
265.7258,265.78262,57,33,0
265.7258,265.78262,54,33,0
265.94986,266.00482,57,35,0
265.94986,266.00482,54,35,0
266.17087,266.22644,57,34,0
266.17087,266.22644,54,34,0
266.39563,266.45242,58,36,0
266.39563,266.45242,55,36,0
266.62973,266.68997,58,31,0
266.62973,266.68997,55,31,0
266.86176,266.9175,58,34,0
266.86176,266.9175,55,34,0
267.0869,267.1437,58,29,0
267.0869,267.1437,55,29,0
267.31418,267.371,58,34,0
267.31418,267.371,55,34,0
267.54144,267.59827,58,31,0
267.54144,267.59827,55,31,0
267.77182,267.83017,57,36,0
267.77182,267.83017,54,36,0
267.99884,268.054,57,31,0
267.99884,268.054,54,31,0
268.22067,268.27643,57,34,0
268.22067,268.27643,54,34,0
268.44583,268.50262,57,33,0
268.44583,268.50262,54,33,0
268.66974,268.72488,57,35,0
268.66974,268.72488,54,35,0
268.892,268.94797,57,34,0
268.892,268.94797,54,34,0
269.11713,269.17374,58,36,0
269.11713,269.17374,55,36,0
269.34064,269.39578,58,31,0
269.34064,269.39578,55,31,0
269.56244,269.61823,58,34,0
269.56244,269.61823,55,34,0
269.78763,269.84442,58,29,0
269.78763,269.84442,55,29,0
270.0128,270.06854,58,34,0
270.0128,270.06854,55,34,0
270.2371,270.29346,58,31,0
270.2371,270.29346,55,31,0
270.46658,270.52496,57,36,0
270.46658,270.52496,54,36,0
270.69363,270.74878,57,31,0
270.69363,270.74878,54,31,0
270.91544,270.9712,57,34,0
270.91544,270.9712,54,34,0
271.1406,271.19742,57,33,0
271.1406,271.19742,54,33,0
271.36536,271.4209,57,35,0
271.36536,271.4209,54,35,0
271.5888,271.645,57,34,0
271.5888,271.645,54,34,0
271.81567,271.87292,57,36,0
271.81567,271.87292,54,36,0
272.04047,272.0956,57,31,0
272.04047,272.0956,54,31,0
272.2623,272.31805,57,34,0
272.2623,272.31805,54,34,0
272.48746,272.54428,57,29,0
272.48746,272.54428,54,29,0
272.71472,272.77155,57,34,0
272.71472,272.77155,54,34,0
272.942,272.9988,57,31,0
272.942,272.9988,54,31,0
273.16928,273.2261,54,43,0
273.39655,273.45337,57,43,0
273.6238,273.68063,62,42,0
273.8511,273.9079,66,42,0
274.07837,274.1352,69,41,0
274.30563,274.36246,74,41,0
274.5329,274.58994,78,40,0
274.76163,274.8191,81,40,0
274.9924,275.05038,86,39,0
275.22525,275.28384,90,39,0
275.46072,275.52023,93,39,0
275.7004,275.7659,98,39,0
275.8314,277.92746,98,43,0
275.8314,277.92746,90,43,0
275.8314,277.92746,86,43,0
278.45148,278.99527,62,45,0
278.99527,280.05908,58,44,0
278.99527,280.05908,55,44,0
280.05908,280.59332,60,39,0
278.99527,280.59332,67,49,0
280.59332,282.19604,58,38,0
280.59332,282.19604,62,44,0
282.19604,283.25986,55,44,0
283.25986,283.82645,57,43,0
282.19604,283.82645,63,52,0
283.82645,285.52615,55,41,0
283.82645,285.52615,58,44,0
285.52615,286.56064,63,44,0
286.56064,287.10687,64,46,0
285.52615,287.10687,68,49,0
287.10687,288.15247,68,49,0
288.15247,288.7036,67,43,0
287.10687,288.7036,63,44,0
288.7036,290.30634,67,49,0
288.7036,290.86,63,49,0
290.86,291.4292,62,35,0
291.4292,292.05063,60,30,0
290.30634,292.05063,66,39,0
292.16922,292.22852,62,31,0
292.40057,292.45697,62,35,0
292.62918,292.6871,62,39,0
292.86267,292.92148,62,37,0
293.09796,293.15677,62,34,0
293.33325,293.39206,62,32,0
293.5704,293.6302,62,31,0
293.80273,293.8591,62,35,0
294.03046,294.08792,62,39,0
294.26257,294.32117,62,37,0
294.49695,294.55554,62,34,0
294.73132,294.78992,62,32,0
294.97247,295.03445,62,29,0
294.97247,295.03445,67,29,0
295.2174,295.2779,62,29,0
295.2174,295.2779,67,29,0
295.45743,295.51672,62,31,0
295.45743,295.51672,67,31,0
295.69397,295.75278,62,33,0
295.69397,295.75278,67,33,0
295.92834,295.98663,62,37,0
295.92834,295.98663,67,37,0
296.1606,296.2183,62,41,0
296.1606,296.2183,67,41,0
296.3949,296.4544,62,44,0
296.3949,296.4544,67,44,0
296.62903,296.68695,62,48,0
296.62903,296.68695,67,48,0
296.86188,296.92072,62,54,0
296.86188,296.92072,67,54,0
297.09842,297.15826,62,57,0
297.09842,297.15826,67,57,0
297.33908,297.39987,62,63,0
297.33908,297.39987,67,63,0
297.58365,297.64545,62,66,0
297.58365,297.64545,67,66,0
297.7076,299.2014,79,86,0
297.7076,299.2014,86,86,0
297.7076,299.2014,91,103,0
299.2014,301.5175,55,94,0
0.0,0.1167315,55,59,0
0.233463,0.28861,62,47,0
0.454051,0.50981313,63,53,0
0.6770995,0.73391765,60,45,0
0.904372,0.9611901,62,49,0
1.1316445,1.1884626,58,45,0
1.358917,1.4756485,55,62,0
1.59238,1.6477305,62,47,0
1.813782,1.8697522,63,53,0
2.0376625,2.0944805,60,45,0
2.264935,2.321753,62,49,0
2.4922075,2.5490255,58,45,0
2.71948,2.8362114,55,62,0
2.952943,3.0082934,62,46,0
3.174345,3.2303152,63,50,0
3.3982255,3.4546165,60,45,0
3.6237895,3.6806076,62,52,0
3.851062,3.90788,58,48,0
4.0783343,4.135153,60,57,0
4.305607,4.3611627,57,49,0
4.527829,4.5833845,58,53,0
4.750051,4.8062305,60,49,0
4.9749107,5.0313725,57,51,0
5.201757,5.2588634,58,48,0
5.433008,5.552056,55,59,0
5.6711035,5.72625,62,47,0
5.891691,5.9474535,63,50,0
6.11474,6.171558,60,45,0
6.3420124,6.3988304,62,51,0
6.569285,6.626103,58,45,0
6.7965574,6.913289,55,62,0
7.03002,7.084765,62,50,0
7.248998,7.3049684,63,54,0
7.472879,7.529697,60,45,0
7.7001514,7.7569695,62,49,0
7.927424,7.984242,58,45,0
8.154696,8.271428,55,62,0
8.38816,8.44351,62,47,0
8.609561,8.665531,63,50,0
8.833442,8.8898325,60,45,0
9.059006,9.115824,62,52,0
9.286279,9.343097,58,48,0
9.513551,9.570369,60,57,0
9.740824,9.796379,57,49,0
9.963045,10.0186,58,56,0
10.185267,10.241447,55,51,0
10.410128,10.466589,53,56,0
10.636829,10.694523,51,53,0
10.872166,10.990276,50,59,0
11.108387,11.162932,62,47,0
11.326569,11.382331,63,53,0
11.549617,11.606435,60,45,0
11.77689,11.833708,62,49,0
12.004162,12.06098,57,45,0
12.231435,12.348166,50,62,0
12.464897,12.519842,62,47,0
12.684677,12.740647,63,53,0
12.908558,12.965376,60,45,0
13.135831,13.192649,62,49,0
13.363103,13.419921,57,45,0
13.590376,13.707108,50,62,0
13.823838,13.8791895,57,47,0
14.04524,14.101211,60,52,0
14.269121,14.325512,62,51,0
14.494685,14.551503,63,56,0
14.721957,14.778776,65,53,0
14.94923,15.006048,62,56,0
15.176502,15.232059,63,52,0
15.398725,15.45428,60,54,0
15.620947,15.677126,62,49,0
15.845806,15.902268,58,51,0
16.072653,16.129759,57,48,0
16.302101,16.420212,50,59,0
16.53832,16.593468,62,47,0
16.75891,16.814672,63,53,0
16.981958,17.038776,60,45,0
17.20923,17.266048,62,49,0
17.436502,17.49332,57,45,0
17.663774,17.780506,50,62,0
17.897238,17.952589,62,47,0
18.11864,18.17461,63,53,0
18.342522,18.39934,60,45,0
18.569794,18.626612,62,49,0
18.797066,18.853884,57,45,0
19.024338,19.14107,50,62,0
19.257801,19.313152,60,47,0
19.479204,19.535173,62,52,0
19.703083,19.759476,63,51,0
19.928648,19.985466,65,56,0
20.15592,20.212738,62,53,0
20.383192,20.440012,63,59,0
20.610466,20.666021,60,52,0
20.832687,20.888243,62,54,0
21.054909,21.11116,58,49,0
21.281761,21.339308,60,51,0
21.51388,21.57278,57,48,0
21.750135,21.867323,55,64,0
21.98451,22.038662,62,51,0
22.201117,22.256878,63,58,0
22.424164,22.480982,60,49,0
22.651438,22.708256,62,53,0
22.87871,22.935528,58,49,0
23.105982,23.222713,55,68,0
23.339445,23.393597,62,51,0
23.556051,23.612022,63,58,0
23.779932,23.83675,60,49,0
24.007204,24.064022,62,53,0
24.234476,24.291296,58,49,0
24.46175,24.578482,55,68,0
24.695213,24.750563,62,51,0
24.916615,24.972584,63,55,0
25.140495,25.196886,60,49,0
25.366058,25.422876,62,57,0
25.593332,25.65015,58,52,0
25.820604,25.877422,60,62,0
26.047876,26.103432,57,53,0
26.270098,26.325653,58,58,0
26.492321,26.5485,60,53,0
26.71718,26.773642,57,56,0
26.944027,27.001133,58,52,0
27.179842,27.296574,55,64,0
27.413305,27.468452,62,51,0
27.633894,27.689655,63,58,0
27.856941,27.91376,60,49,0
28.084215,28.141033,62,53,0
28.311487,28.368305,58,49,0
28.53876,28.65549,55,68,0
28.772223,28.827574,62,51,0
28.993624,29.049595,63,58,0
29.217505,29.274323,60,49,0
29.444778,29.501596,62,53,0
29.67205,29.728868,58,49,0
29.899323,30.016054,55,68,0
30.132786,30.188135,62,51,0
30.354187,30.410158,63,55,0
30.578068,30.634459,60,49,0
30.803633,30.86045,62,57,0
31.030905,31.087723,58,52,0
31.258177,31.314995,60,62,0
31.485449,31.540394,57,53,0
31.705229,31.760784,58,60,0
31.927452,31.983631,55,58,0
32.152313,32.208775,53,64,0
32.3815,32.440475,51,62,0
32.621544,32.738274,38,71,0
32.621544,32.738274,50,84,0
32.87402,32.928764,62,56,0
33.093,33.14876,63,63,0
33.316048,33.372868,60,54,0
33.54332,33.60014,62,58,0
33.77059,33.82741,57,54,0
33.997864,34.114597,50,88,0
33.997864,34.114597,38,74,0
34.248524,34.30347,62,56,0
34.468304,34.524277,63,63,0
34.692184,34.749004,60,54,0
34.91946,34.976276,62,58,0
35.146732,35.20355,57,54,0
35.374004,35.490734,50,88,0
35.374004,35.490734,38,74,0
35.622894,35.677837,57,56,0
35.842674,35.898643,60,62,0
36.066555,36.122944,62,61,0
36.292118,36.348938,63,67,0
36.51939,36.57621,65,63,0
36.746662,36.803482,62,70,0
36.973934,37.02949,63,62,0
37.19616,37.251713,60,64,0
37.41838,37.47456,62,58,0
37.643238,37.6997,58,61,0
37.870087,37.927193,57,57,0
38.099533,38.216267,50,84,0
38.099533,38.216267,38,71,0
38.35263,38.407375,62,56,0
38.571606,38.62737,63,63,0
38.794655,38.851475,60,54,0
39.021927,39.078747,62,58,0
39.2492,39.30602,57,54,0
39.476475,39.593204,38,74,0
39.476475,39.593204,50,88,0
39.72895,39.783695,62,56,0
39.94793,40.0039,63,63,0
40.17181,40.228626,60,54,0
40.399082,40.455902,62,58,0
40.626354,40.683174,57,54,0
40.853626,40.97036,38,74,0
40.853626,40.97036,50,88,0
41.106724,41.16207,57,56,0
41.328125,41.384094,60,62,0
41.552006,41.608395,62,61,0
41.77757,41.83439,63,67,0
42.00484,42.06166,65,63,0
42.232113,42.288933,62,70,0
42.459385,42.514534,63,62,0
42.679974,42.735943,60,74,0
42.903854,42.960674,62,69,0
43.13258,43.190567,58,75,0
43.366047,43.425182,62,70,0
43.604626,43.724148,31,80,0
43.604626,43.724148,43,95,0
43.88288,43.93703,62,70,0
44.099487,44.155247,63,78,0
44.322533,44.379353,60,67,0
44.54981,44.606625,62,72,0
44.77708,44.833897,58,67,0
45.004353,45.121082,43,94,0
45.004353,45.121082,31,79,0
45.278976,45.333324,62,70,0
45.49637,45.55234,63,78,0
45.72025,45.77707,60,67,0
45.94752,46.00434,62,72,0
46.174797,46.231613,58,67,0
46.40207,46.5188,43,93,0
46.40207,46.5188,31,79,0
46.67587,46.731216,62,67,0
46.89727,46.95324,63,74,0
47.12115,47.17754,60,73,0
47.346714,47.40353,62,80,0
47.573986,47.630806,58,75,0
47.801258,47.858078,60,84,0
48.02853,48.084087,57,74,0
48.25075,48.30631,58,76,0
48.472977,48.529156,60,69,0
48.697834,48.754295,57,73,0
48.924683,48.98179,58,68,0
49.160496,49.27723,37,81,0
49.160496,49.27723,49,96,0
49.4537,49.50785,63,70,0
49.670307,49.726276,65,74,0
49.894188,49.951004,62,67,0
50.12146,50.178276,63,72,0
50.348732,50.406647,58,67,0
50.58039,50.697124,49,94,0
50.58039,50.697124,37,79,0
50.872562,50.926712,63,70,0
51.08917,51.145138,65,75,0
51.31305,51.369865,62,67,0
51.54032,51.597137,63,72,0
51.767593,51.826187,58,67,0
52.00197,52.1187,49,95,0
52.00197,52.1187,37,80,0
52.29211,52.34746,63,67,0
52.51351,52.56948,65,74,0
52.737392,52.794212,62,64,0
52.964664,53.021484,63,69,0
53.191936,53.248756,58,64,0
53.41921,53.47603,60,84,0
53.646484,53.702038,57,70,0
53.868706,53.92426,58,72,0
54.090927,54.147106,60,69,0
54.31579,54.37225,55,73,0
54.542633,54.59974,57,68,0
54.77208,54.888813,50,92,0
54.77208,54.888813,38,78,0
55.068455,55.12241,62,73,0
55.28428,55.340042,63,78,0
55.507328,55.564148,61,70,0
55.7346,55.79142,62,75,0
55.961876,56.018692,57,70,0
56.19648,56.31321,49,94,0
56.19648,56.31321,37,79,0
56.49285,56.546806,63,73,0
56.70868,56.76465,65,82,0
56.93256,56.989376,62,70,0
57.159832,57.21665,63,75,0
57.387104,57.44392,58,70,0
57.618385,57.73512,50,89,0
57.618385,57.73512,38,75,0
57.912632,57.96659,62,73,0
58.12846,58.184223,63,78,0
58.35151,58.40833,61,70,0
58.57878,58.6356,62,75,0
58.806053,58.862873,57,70,0
59.03874,59.155468,49,94,0
59.03874,59.155468,37,79,0
59.330906,59.385254,63,73,0
59.548298,59.60427,65,79,0
59.77218,59.829,62,70,0
59.99945,60.05627,63,75,0
60.226727,60.283543,58,70,0
60.454,60.57073,50,89,0
60.454,60.57073,38,75,0
60.75255,60.807693,62,73,0
60.973137,61.028896,63,78,0
61.196182,61.253002,61,70,0
61.423454,61.480274,62,75,0
61.65073,61.707546,58,70,0
61.878002,61.992504,60,76,0
62.10701,62.162155,57,67,0
62.327595,62.383358,58,70,0
62.550644,62.607464,60,64,0
62.777916,62.833267,57,69,0
62.99932,63.05529,58,64,0
63.2232,63.33309,55,76,0
63.44298,63.49895,57,67,0
63.66686,63.722008,58,69,0
63.887447,63.94342,60,62,0
64.11133,64.16647,57,66,0
64.33192,64.38727,58,61,0
64.55332,64.66281,55,72,0
64.7723,64.828476,57,62,0
64.99702,65.053406,58,64,0
65.22401,65.281555,55,57,0
65.455826,65.514496,53,60,0
65.69252,65.751976,51,55,0
65.92707,66.04381,50,74,0
65.92707,66.04381,38,63,0
66.16054,66.21568,62,56,0
66.38113,66.43689,63,63,0
66.60417,66.660995,60,54,0
66.83144,66.88827,62,58,0
67.058716,67.11554,58,54,0
67.28599,67.4005,60,64,0
67.515,67.570145,57,56,0
67.73559,67.79135,58,59,0
67.95863,68.01546,60,54,0
68.185905,68.24126,57,58,0
68.40731,68.46328,58,54,0
68.63119,68.74108,55,64,0
68.85097,68.906944,57,56,0
69.07485,69.13,58,58,0
69.29544,69.35141,60,52,0
69.51932,69.57446,57,56,0
69.73991,69.79526,58,51,0
69.96131,70.0708,55,61,0
70.18029,70.236465,57,52,0
70.40501,70.461395,58,54,0
70.63114,70.68803,55,48,0
70.85971,70.91726,53,51,0
71.09093,71.14915,51,46,0
71.55771,71.61326,45,45,0
71.77993,71.835686,50,42,0
72.002975,72.05979,51,49,0
72.23025,72.285736,49,54,0
72.45058,72.50613,50,51,0
71.32424,72.6728,38,45,0
72.90007,72.955215,45,49,0
73.12066,73.176414,51,51,0
73.343704,73.40052,53,46,0
73.57098,73.62779,50,49,0
73.79825,73.855064,51,46,0
72.6728,74.02552,38,56,0
74.25899,74.31413,45,45,0
74.479576,74.53533,50,42,0
74.70262,74.75944,51,47,0
74.92989,74.98504,49,52,0
75.15048,75.20645,50,49,0
74.02552,75.37436,38,45,0
75.60078,75.65592,45,46,0
75.821365,75.87713,51,48,0
76.04441,76.101234,53,45,0
76.27168,76.327446,50,47,0
76.494736,76.551125,51,44,0
75.37436,76.7203,38,54,0
76.95376,77.00891,45,45,0
77.17435,77.23011,50,42,0
77.3974,77.454216,51,47,0
77.62467,77.68023,49,51,0
77.84689,77.90307,51,48,0
78.07161,78.12886,50,53,0
78.30062,78.35577,51,46,0
78.52121,78.576965,49,48,0
78.744255,78.80107,51,45,0
78.97153,79.02834,50,45,0
79.1988,79.255615,45,44,0
76.7203,79.42607,38,45,0
79.42607,79.482895,38,45,0
79.65334,79.71017,54,45,0
79.880615,79.93744,57,45,0
80.10789,80.16471,62,45,0
80.33516,80.39198,66,44,0
80.56244,80.619255,69,43,0
80.78971,80.84653,74,43,0
81.01741,81.07466,78,42,0
81.247154,81.30492,81,42,0
81.478966,81.53733,86,41,0
81.713036,81.771935,90,41,0
81.950356,82.01043,93,40,0
82.20184,84.297905,74,34,0
82.20184,84.297905,81,34,0
85.34594,86.84594,62,55,0
86.84594,87.22094,60,48,0
87.22094,87.59594,62,48,0
88.90844,88.994156,62,45,0
87.59594,88.994156,65,54,0
88.994156,89.07987,63,45,0
89.07987,89.4349,62,51,0
89.4349,89.803,60,39,0
89.803,91.38633,62,46,0
91.38633,94.81003,50,26,0
91.38633,94.81003,38,21,0
94.81003,96.31003,62,55,0
96.31003,96.68503,60,48,0
96.68503,97.06003,62,48,0
98.37253,98.458244,62,45,0
97.06003,98.458244,65,54,0
98.458244,98.54396,63,45,0
98.54396,98.89484,62,51,0
98.89484,99.26751,60,39,0
99.26751,100.85667,62,46,0
100.85667,104.305016,46,26,0
100.85667,104.305016,34,21,0
104.305016,105.805016,62,52,0
105.805016,107.07889,61,48,0
107.07889,107.16316,58,40,0
107.16316,107.24743,60,39,0
107.24743,107.58263,58,45,0
107.58263,107.92548,57,41,0
107.92548,108.27432,55,44,0
108.27432,108.64469,58,38,0
108.64469,110.2055,57,44,0
110.2055,113.761055,38,26,0
110.2055,113.761055,50,31,0
113.761055,115.261055,62,55,0
115.261055,115.59814,63,55,0
115.59814,115.93904,62,48,0
115.93904,116.28788,61,50,0
116.28788,116.48143,57,50,0
116.48143,116.56523,58,39,0
116.56523,116.649025,60,39,0
116.649025,116.97335,58,46,0
116.97335,117.31818,57,44,0
117.31818,117.67321,55,45,0
117.67321,118.06537,58,39,0
118.06537,119.67251,57,44,0
119.67251,120.5816,51,23,0
120.5816,123.308876,50,23,0
123.79282,124.719604,62,34,0
123.308876,124.719604,58,41,0
125.201614,126.10913,59,34,0
125.201614,126.10913,63,36,0
124.719604,126.10913,57,41,0
126.579796,127.495964,62,34,0
126.10913,127.495964,58,44,0
128.4163,128.86247,54,41,0
127.968475,128.86247,62,48,0
127.495964,128.86247,57,52,0
128.86247,130.19443,55,52,0
130.19443,131.54599,53,53,0
131.54599,133.03654,58,55,0
133.03654,134.60204,57,39,0
131.54599,134.60204,51,47,0
135.0783,136.00508,57,45,0
134.60204,136.00508,50,50,0
136.00508,136.23677,60,52,0
136.23677,136.46848,62,44,0
136.46848,136.69664,63,51,0
136.69664,136.81073,65,55,0
136.81073,136.92482,63,51,0
136.92482,137.15298,62,50,0
137.15298,137.38649,60,50,0
137.86275,138.78954,57,50,0
137.38649,138.78954,50,56,0
138.78954,139.02122,60,52,0
139.02122,139.25293,62,44,0
139.25293,139.4811,63,51,0
139.4811,139.59518,65,55,0
139.59518,139.70927,63,51,0
139.70927,139.93744,62,50,0
139.93744,140.17094,60,50,0
140.65685,141.64223,57,50,0
140.17094,141.64223,50,56,0
141.64223,141.87392,60,61,0
141.87392,142.10562,62,57,0
142.10562,142.32953,63,62,0
142.32953,142.44362,65,60,0
142.44362,142.55771,63,56,0
142.55771,142.78587,62,61,0
142.78587,143.01938,60,51,0
143.01938,143.24588,62,60,0
143.24588,143.47476,61,49,0
143.47476,143.70126,57,54,0
143.70126,143.93752,60,47,0
143.93752,144.16922,59,50,0
144.16922,144.4064,55,46,0
144.4064,144.63632,58,49,0
144.63632,144.87447,57,44,0
144.87447,145.1095,54,47,0
145.1095,145.3505,56,43,0
145.3505,145.59116,55,46,0
145.59116,145.83817,51,44,0
146.31442,147.24121,57,51,0
145.83817,147.24121,50,56,0
147.24121,147.47292,62,46,0
147.47292,147.7046,63,39,0
147.7046,147.93277,65,45,0
147.93277,148.04686,67,49,0
148.04686,148.16095,65,45,0
148.16095,148.38911,63,45,0
148.38911,148.62262,62,45,0
149.09889,150.02567,62,51,0
148.62262,150.02567,55,56,0
150.02567,150.25737,62,51,0
150.25737,150.48906,63,46,0
150.48906,150.71724,65,50,0
150.71724,150.83131,67,54,0
150.83131,150.9454,65,49,0
150.9454,151.17357,63,52,0
151.17357,151.40707,62,48,0
151.89299,152.87836,62,50,0
151.40707,152.87836,55,56,0
152.87836,153.34262,60,49,0
153.34262,153.79895,58,45,0
153.79895,154.26064,57,45,0
154.26064,154.72334,55,45,0
154.72334,155.18929,54,36,0
155.18929,155.65605,55,39,0
155.65605,156.1203,63,50,0
156.1203,156.57664,62,46,0
156.57664,157.03831,60,40,0
157.03831,157.50104,58,40,0
157.50104,157.96698,57,32,0
157.96698,158.43375,58,33,0
158.43375,158.66544,56,39,0
158.66544,158.89194,58,35,0
158.89194,159.11612,60,38,0
159.11612,159.22937,63,34,0
159.22937,159.28485,61,29,0
159.28485,159.34032,63,30,0
159.34032,159.5684,61,38,0
159.5684,159.80191,60,33,0
159.80191,160.02841,63,39,0
160.02841,160.14285,60,34,0
160.14285,160.20007,58,29,0
160.20007,160.2573,60,29,0
160.2573,160.4838,58,38,0
160.4838,160.72284,57,33,0
160.72284,160.96873,60,38,0
160.96873,161.2427,63,33,0
161.2427,162.16331,57,48,0
161.2427,162.16331,48,40,0
162.16331,162.62498,58,36,0
162.16331,162.62498,55,36,0
162.16331,162.62498,49,30,0
163.10124,164.02803,57,45,0
162.62498,164.02803,50,50,0
164.02803,164.25972,63,52,0
164.25972,164.49142,65,44,0
164.49142,164.71959,67,51,0
164.71959,164.83368,69,55,0
164.83368,164.94777,67,51,0
164.94777,165.17593,65,50,0
165.17593,165.40944,63,50,0
165.8857,166.81248,57,50,0
165.40944,166.81248,50,56,0
166.81248,167.04417,63,52,0
167.04417,167.27588,65,44,0
167.27588,167.50404,67,51,0
167.50404,167.61813,69,55,0
167.61813,167.73222,67,51,0
167.73222,167.96039,65,50,0
167.96039,168.1939,63,50,0
168.6798,169.66518,57,50,0
168.1939,169.66518,50,56,0
169.66518,169.78687,58,45,0
169.90854,169.96715,61,40,0
170.14296,170.20221,62,42,0
170.37999,170.44038,65,42,0
170.62152,170.68034,61,41,0
170.85678,170.91757,62,38,0
171.09998,171.21968,53,45,0
171.3394,171.39888,56,40,0
171.57732,171.63593,57,41,0
171.81174,171.87122,60,37,0
172.04965,172.10826,56,39,0
172.28407,172.34511,57,36,0
172.52821,172.65028,51,43,0
172.77235,172.83205,57,37,0
173.01115,173.0712,58,38,0
173.25311,173.31422,55,34,0
173.49937,173.56172,53,36,0
173.75029,173.81786,51,33,0
174.1773,175.6773,62,55,0
175.6773,176.0523,60,48,0
176.0523,176.4273,62,48,0
177.7398,177.82552,62,45,0
176.4273,177.82552,65,54,0
177.82552,177.91122,63,45,0
177.91122,178.26627,62,51,0
178.26627,178.63435,60,39,0
178.63435,180.2177,62,46,0
180.2177,183.64139,50,26,0
180.2177,183.64139,38,21,0
183.64139,185.14139,62,55,0
185.14139,185.51639,60,48,0
185.51639,185.89139,62,48,0
187.20389,187.2896,62,45,0
185.89139,187.2896,65,54,0
187.2896,187.37532,63,45,0
187.37532,187.7262,62,51,0
187.7262,188.09886,60,39,0
188.09886,189.7649,62,46,0
189.7649,190.7249,51,23,0
190.7249,193.60489,50,23,0
193.60489,193.72163,55,59,0
193.83836,193.89351,62,47,0
194.05894,194.11472,63,53,0
194.282,194.3388,60,45,0
194.50926,194.56609,62,49,0
194.73654,194.79335,58,45,0
194.9638,195.08055,55,62,0
195.19728,195.25262,62,47,0
195.41867,195.47464,63,53,0
195.64256,195.69937,60,45,0
195.86983,195.92665,62,49,0
196.0971,196.15392,58,45,0
196.32437,196.4411,55,62,0
196.55783,196.61319,62,47,0
196.77924,196.8352,63,50,0
197.00313,197.05951,60,45,0
197.22868,197.2855,62,52,0
197.45596,197.51277,58,48,0
197.68323,197.74005,60,57,0
197.9105,197.96606,57,49,0
198.13272,198.18828,58,53,0
198.35495,198.41113,60,49,0
198.5798,198.63626,57,51,0
198.80666,198.86375,58,48,0
199.0379,199.15695,55,59,0
199.276,199.33115,62,47,0
199.49658,199.55235,63,50,0
199.71964,199.77646,60,45,0
199.94691,200.00372,62,51,0
200.17418,200.231,58,45,0
200.40146,200.51819,55,62,0
200.63492,200.68967,62,50,0
200.8539,200.90987,63,54,0
201.07777,201.1346,60,45,0
201.30505,201.36186,62,49,0
201.53232,201.58914,58,45,0
201.7596,201.87633,55,62,0
201.99306,202.0484,62,47,0
202.21446,202.27043,63,50,0
202.43834,202.49472,60,45,0
202.6639,202.72072,62,52,0
202.89117,202.948,58,48,0
203.11844,203.17526,60,55,0
203.34572,203.40128,57,49,0
203.56795,203.62349,58,56,0
203.79016,203.84634,55,51,0
204.01501,204.07149,53,56,0
204.24173,204.29942,51,53,0
204.47707,204.59517,50,59,0
204.71329,204.76782,62,47,0
204.93146,204.98723,63,53,0
205.15451,205.21133,60,45,0
205.38179,205.4386,62,49,0
205.60905,205.66588,57,45,0
205.83633,205.95306,50,62,0
206.0698,206.12474,62,47,0
206.28957,206.34554,63,53,0
206.51346,206.57027,60,45,0
206.74072,206.79755,62,49,0
206.968,207.02481,57,45,0
207.19527,207.312,50,62,0
207.42873,207.48409,57,47,0
207.65013,207.7061,60,52,0
207.87402,207.9304,62,51,0
208.09958,208.1564,63,56,0
208.32686,208.38367,65,53,0
208.55412,208.61095,62,59,0
208.7814,208.83696,63,52,0
209.00362,209.05917,60,54,0
209.22585,209.28203,62,49,0
209.4507,209.50716,58,51,0
209.67755,209.73465,57,48,0
209.907,210.0251,50,59,0
210.14322,210.19836,62,47,0
210.3638,210.41957,63,53,0
210.58685,210.64368,60,45,0
210.81413,210.87094,62,49,0
211.0414,211.09822,57,45,0
211.26868,211.3854,50,62,0
211.50214,211.55748,62,47,0
211.72354,211.77951,63,53,0
211.94742,212.00423,60,45,0
212.17468,212.2315,62,49,0
212.40196,212.45879,57,45,0
212.62923,212.74597,50,62,0
212.8627,212.91805,60,47,0
213.08409,213.14008,62,52,0
213.30798,213.36436,63,51,0
213.53354,213.59036,65,56,0
213.76082,213.81763,62,53,0
213.98808,214.0449,63,59,0
214.21536,214.27092,60,52,0
214.43758,214.49313,62,54,0
214.6598,214.71605,58,49,0
214.88666,214.9442,60,51,0
215.11877,215.17767,57,48,0
215.35503,215.47221,55,64,0
215.5894,215.64355,62,51,0
215.80602,215.86177,63,58,0
216.02905,216.08588,60,49,0
216.25633,216.31316,62,53,0
216.48361,216.54042,58,49,0
216.71088,216.8276,55,68,0
216.94434,216.99849,62,51,0
217.16095,217.21692,63,58,0
217.38483,217.44165,60,49,0
217.6121,217.66891,62,53,0
217.83937,217.8962,58,49,0
218.06665,218.18338,55,68,0
218.30011,218.35545,62,51,0
218.52151,218.57748,63,55,0
218.74539,218.80179,60,49,0
218.97095,219.02777,62,57,0
219.19823,219.25505,58,52,0
219.4255,219.48232,60,62,0
219.65277,219.70833,57,53,0
219.875,219.93054,58,58,0
220.09721,220.1534,60,53,0
220.32208,220.37854,57,56,0
220.54892,220.60603,58,52,0
220.78474,220.90147,55,64,0
221.0182,221.07335,62,51,0
221.23878,221.29456,63,58,0
221.46184,221.51866,60,49,0
221.6891,221.74593,62,53,0
221.91638,221.9732,58,49,0
222.14366,222.26039,55,68,0
222.37712,222.43246,62,51,0
222.59853,222.6545,63,58,0
222.8224,222.87921,60,49,0
223.04967,223.10649,62,53,0
223.27695,223.33377,58,49,0
223.50421,223.62096,55,68,0
223.73769,223.79303,62,51,0
223.95908,224.01505,63,55,0
224.18297,224.23935,60,49,0
224.40852,224.46535,62,57,0
224.6358,224.69261,58,52,0
224.86307,224.91989,60,62,0
225.09035,225.1453,57,53,0
225.31012,225.36568,58,62,0
225.53235,225.58853,55,58,0
225.7572,225.81367,53,64,0
225.98639,226.04538,51,62,0
226.22644,226.34317,50,84,0
226.22644,226.34317,38,71,0
226.47891,226.53366,62,56,0
226.69789,226.75366,63,63,0
226.92094,226.97777,60,54,0
227.14821,227.20503,62,58,0
227.37549,227.43231,57,54,0
227.60277,227.7195,50,88,0
227.60277,227.7195,38,74,0
227.85342,227.90837,62,56,0
228.0732,228.12917,63,63,0
228.29709,228.3539,60,54,0
228.52435,228.58118,62,58,0
228.75163,228.80844,57,54,0
228.9789,229.09563,50,88,0
228.9789,229.09563,38,74,0
229.22778,229.28273,57,56,0
229.44757,229.50354,60,62,0
229.67145,229.72784,62,61,0
229.89702,229.95383,63,67,0
230.12428,230.1811,65,63,0
230.35156,230.40837,62,70,0
230.57883,230.63438,63,62,0
230.80106,230.85661,60,64,0
231.02327,231.07945,62,58,0
231.24814,231.3046,58,61,0
231.47498,231.53209,57,57,0
231.70442,231.82117,50,84,0
231.70442,231.82117,38,71,0
231.95752,232.01227,62,56,0
232.1765,232.23227,63,63,0
232.39955,232.45638,60,54,0
232.62682,232.68364,62,58,0
232.8541,232.91092,57,54,0
233.08138,233.1981,50,88,0
233.08138,233.1981,38,74,0
233.33385,233.3886,62,56,0
233.55283,233.6088,63,63,0
233.7767,233.83353,60,54,0
234.00398,234.06079,62,58,0
234.23125,234.28807,57,54,0
234.45853,234.57526,50,88,0
234.45853,234.57526,38,74,0
234.71162,234.76697,57,56,0
234.93301,234.98898,60,62,0
235.1569,235.21329,62,61,0
235.38246,235.43929,63,67,0
235.60974,235.66655,65,63,0
235.837,235.89383,62,70,0
236.06429,236.11943,63,62,0
236.28487,236.34084,60,74,0
236.50874,236.56557,62,69,0
236.73747,236.79547,58,75,0
236.97095,237.03008,62,70,0
237.20952,237.32904,43,95,0
237.20952,237.32904,31,80,0
237.48778,237.54193,62,70,0
237.70438,237.76015,63,78,0
237.92743,237.98425,60,67,0
238.15471,238.21152,62,72,0
238.38197,238.4388,58,67,0
238.60925,238.72598,43,94,0
238.60925,238.72598,31,79,0
238.88388,238.93822,62,70,0
239.10126,239.15724,63,78,0
239.32515,239.38196,60,67,0
239.55241,239.60924,62,72,0
239.7797,239.8365,58,67,0
240.00696,240.12369,43,93,0
240.00696,240.12369,31,79,0
240.28076,240.3361,62,67,0
240.50217,240.55814,63,74,0
240.72604,240.78244,60,73,0
240.95161,241.00842,62,80,0
241.17888,241.2357,58,75,0
241.40616,241.46297,60,84,0
241.63342,241.68898,57,74,0
241.85565,241.91121,58,76,0
242.07787,242.13405,60,69,0
242.30273,242.35919,57,73,0
242.52957,242.58669,58,68,0
242.7654,242.88213,49,96,0
242.7654,242.88213,37,81,0
243.0586,243.11275,63,70,0
243.2752,243.33118,65,76,0
243.49908,243.5559,62,67,0
243.72635,243.78317,63,72,0
243.95363,244.01154,58,67,0
244.18529,244.30202,49,94,0
244.18529,244.30202,37,79,0
244.47746,244.5316,63,70,0
244.69406,244.75003,65,77,0
244.91794,244.97476,62,67,0
245.14522,245.20203,63,72,0
245.37248,245.43108,58,67,0
245.60686,245.7236,49,95,0
245.60686,245.7236,37,80,0
245.897,245.95236,63,67,0
246.11841,246.17438,65,75,0
246.34229,246.39911,62,64,0
246.56956,246.62637,63,69,0
246.79683,246.85365,58,64,0
247.02411,247.08092,60,84,0
247.25137,247.30693,57,70,0
247.4736,247.52916,58,72,0
247.69582,247.752,60,69,0
247.92068,247.97714,55,73,0
248.14752,248.20464,57,68,0
248.37698,248.49371,50,92,0
248.37698,248.49371,38,78,0
248.67336,248.72731,62,73,0
248.88918,248.94493,63,82,0
249.11223,249.16904,61,70,0
249.3395,249.39632,62,75,0
249.56677,249.62358,57,70,0
249.80138,249.9181,49,94,0
249.80138,249.9181,37,79,0
250.09775,250.1517,63,73,0
250.31357,250.36954,65,78,0
250.53746,250.59427,62,70,0
250.76472,250.82155,63,75,0
250.992,251.04881,58,70,0
251.22328,251.34001,50,89,0
251.22328,251.34001,38,75,0
251.51753,251.57149,62,73,0
251.73335,251.78912,63,78,0
251.9564,252.01323,61,70,0
252.18367,252.2405,62,75,0
252.41095,252.46777,57,70,0
252.64363,252.76036,49,94,0
252.64363,252.76036,37,79,0
252.9358,252.99016,63,73,0
253.1532,253.20917,65,79,0
253.37708,253.4339,62,70,0
253.60435,253.66116,63,75,0
253.83162,253.88844,58,70,0
254.0589,254.17563,50,89,0
254.0589,254.17563,38,75,0
254.35744,254.41258,62,73,0
254.57803,254.63379,63,78,0
254.80107,254.8579,60,70,0
255.02835,255.08517,62,75,0
255.25563,255.31244,58,70,0
255.4829,255.5974,60,76,0
255.7119,255.76704,57,67,0
255.9325,255.98825,58,70,0
256.15555,256.21237,60,64,0
256.3828,256.43817,57,69,0
256.60422,256.6602,58,64,0
256.8281,256.938,55,76,0
257.04788,257.10385,57,67,0
257.27176,257.3269,58,69,0
257.49234,257.5483,60,62,0
257.71622,257.77136,57,66,0
257.9368,257.99216,58,61,0
258.1582,258.2677,55,72,0
258.3772,258.43338,57,62,0
258.6019,258.6583,58,64,0
258.82803,258.88495,55,57,0
259.0566,259.11417,53,60,0
259.28784,259.34604,51,55,0
259.52115,259.63788,50,74,0
259.52115,259.63788,38,63,0
259.7546,259.80975,62,56,0
259.9752,260.03094,63,61,0
260.19824,260.25507,60,54,0
260.4255,260.48233,62,58,0
260.6528,260.7096,58,54,0
260.88007,260.99457,60,64,0
261.10907,261.1642,57,56,0
261.32965,261.3854,58,59,0
261.5527,261.60953,60,54,0
261.77997,261.83533,57,58,0
262.00137,262.05734,58,54,0
262.22525,262.33514,55,64,0
262.44504,262.501,57,56,0
262.6689,262.72406,58,58,0
262.88953,262.9455,60,52,0
263.1134,263.16855,57,56,0
263.33398,263.38934,58,51,0
263.5554,263.66486,55,61,0
263.77435,263.83054,57,52,0
263.99908,264.05554,58,54,0
264.2268,264.28455,55,48,0
264.4598,264.51895,53,51,0
264.6984,264.75833,51,46,0
265.1669,265.22244,45,45,0
265.38913,265.4449,50,42,0
265.61215,265.66898,51,49,0
265.83945,265.89493,49,54,0
266.05975,266.11533,50,51,0
264.93344,266.28198,38,45,0
266.50925,266.5695,45,49,0
266.7502,266.80597,55,56,0
266.97327,267.0301,53,46,0
267.20053,267.25735,50,49,0
267.42783,267.48462,51,46,0
266.28198,267.6551,38,56,0
267.88855,267.9437,45,45,0
268.10913,268.1649,50,42,0
268.33218,268.389,51,47,0
268.55945,268.6146,49,52,0
268.78006,268.83603,50,49,0
267.6551,269.00394,38,45,0
269.23035,269.2855,45,46,0
269.45093,269.50668,51,48,0
269.67398,269.7308,53,45,0
269.90125,269.957,50,47,0
270.1243,270.1807,51,44,0
269.00394,270.34985,38,54,0
270.5833,270.63846,45,45,0
270.80392,270.85968,50,42,0
271.02695,271.08377,51,47,0
271.25424,271.30978,49,51,0
271.47647,271.53262,51,48,0
271.70117,271.75842,50,53,0
271.93018,271.98532,51,46,0
272.15076,272.20654,49,48,0
272.3738,272.43063,51,45,0
272.6011,272.6579,50,45,0
272.82837,272.8852,45,44,0
270.34985,273.05563,38,45,0
273.05563,273.11246,38,45,0
273.2829,273.33972,54,45,0
273.5102,273.567,57,45,0
273.73746,273.79428,62,45,0
273.96472,274.02155,66,44,0
274.192,274.2488,69,43,0
274.41928,274.4761,74,43,0
274.64697,274.70422,78,42,0
274.8767,274.93448,81,42,0
275.10852,275.1669,86,41,0
275.3426,275.4015,90,41,0
275.57993,275.63998,93,40,0
275.8314,277.92746,74,34,0
275.8314,277.92746,81,34,0
278.99527,280.59332,51,39,0
280.59332,282.19604,53,36,0
280.59332,282.19604,46,32,0
282.19604,283.82645,48,39,0
283.82645,285.52615,50,36,0
283.82645,285.52615,43,32,0
285.52615,286.56064,60,39,0
286.56064,287.10687,61,36,0
287.10687,288.7036,60,39,0
288.7036,290.86,60,39,0
290.86,291.4292,58,30,0
291.4292,292.05063,57,26,0
288.7036,292.05063,50,32,0
292.05063,292.16922,55,59,0
292.28778,292.34418,62,47,0
292.51337,292.57126,63,53,0
292.74503,292.80383,60,45,0
292.98032,293.03912,62,49,0
293.2156,293.2744,58,45,0
293.4509,293.5704,55,62,0
293.68994,293.74634,62,47,0
293.9155,293.97296,63,53,0
294.1454,294.20398,60,45,0
294.37976,294.43835,62,49,0
294.61414,294.67273,58,45,0
294.8485,294.97247,55,56,0
295.09644,295.15692,63,47,0
295.09644,295.15692,70,42,0
295.33838,295.39792,61,52,0
295.33838,295.39792,70,46,0
295.57602,295.63507,63,48,0
295.57602,295.63507,70,43,0
295.81146,295.86996,61,61,0
295.81146,295.86996,70,55,0
296.04477,296.1027,63,59,0
296.04477,296.1027,70,53,0
296.27585,296.3949,61,71,0
296.27585,296.3949,70,64,0
296.51395,296.5714,63,66,0
296.51395,296.5714,70,58,0
296.745,296.80338,61,75,0
296.745,296.80338,70,63,0
296.97968,297.03897,63,73,0
296.97968,297.03897,70,59,0
297.21826,297.2786,61,80,0
297.21826,297.2786,70,67,0
297.46085,297.52216,63,78,0
297.46085,297.52216,70,63,0
297.7076,299.2014,58,82,0
297.7076,299.2014,50,69,0
297.7076,299.2014,43,69,0
299.2014,301.5175,31,78,0
