start_time,end_time,note_value,velocity,instrument_program_number
0.0,0.267857,71,49,0
0.0,0.267857,67,53,0
0.0011160708,0.26897308,62,49,0
0.267857,0.26897308,62,46,0
0.267857,0.4017855,67,49,0
0.4017855,0.535714,66,49,0
0.267857,0.535714,71,46,0
0.535714,0.803571,71,49,0
0.535714,0.803571,65,53,0
0.803571,0.9374995,64,49,0
0.9374995,1.071428,63,53,0
0.803571,1.071428,71,46,0
1.071428,1.339285,72,51,0
1.071428,1.339285,66,51,0
1.071428,1.339285,62,57,0
1.339285,1.477866,66,51,0
1.477866,1.616447,62,51,0
1.339285,1.616447,72,48,0
1.616447,1.884304,71,53,0
1.616447,1.884304,67,59,0
1.616447,1.884304,62,53,0
1.884304,2.0182326,67,53,0
1.884304,2.0182326,62,49,0
2.0182326,2.152161,66,53,0
1.884304,2.152161,71,49,0
2.152161,2.420018,71,52,0
2.152161,2.420018,65,58,0
2.420018,2.5557523,64,49,0
2.5557523,2.6914866,63,50,0
2.420018,2.6914866,71,46,0
2.6914866,2.9674754,72,51,0
2.6914866,2.9674754,66,51,0
2.6914866,2.9674754,62,57,0
2.9674754,3.1131065,66,50,0
3.1131065,3.2587376,62,50,0
2.9674754,3.2587376,72,47,0
3.2587376,4.364799,79,68,0
3.2587376,4.364799,67,44,0
3.2587376,4.364799,71,44,0
3.2587376,4.364799,74,51,0
4.364799,4.777643,78,59,0
4.364799,4.777643,72,49,0
4.364799,4.777643,66,40,0
4.777643,4.926793,74,57,0
4.926793,5.207167,76,61,0
5.207167,5.2976646,76,53,0
5.2976646,5.388162,78,53,0
5.388162,5.47866,76,53,0
5.47866,6.034216,74,58,0
4.926793,6.034216,71,51,0
4.926793,6.034216,67,51,0
6.034216,6.464467,69,35,0
6.034216,6.464467,62,35,0
6.034216,6.464467,60,35,0
6.034216,6.464467,72,51,0
6.034216,6.464467,66,35,0
6.464467,6.611699,69,48,0
6.611699,6.754747,71,57,0
6.754747,6.8977947,72,50,0
6.8977947,7.18389,74,53,0
6.611699,7.473801,67,39,0
6.611699,7.473801,62,39,0
7.473801,7.6153107,59,38,0
7.6153107,7.75682,62,34,0
7.18389,7.75682,74,53,0
7.75682,7.9009676,60,38,0
7.9009676,8.045115,62,34,0
8.045115,8.189262,60,38,0
8.189262,8.33341,62,34,0
8.33341,8.629122,59,42,0
8.629122,8.776978,62,38,0
8.776978,8.924418,64,35,0
8.924418,9.068732,62,40,0
9.068732,9.213046,64,36,0
9.213046,9.361297,67,42,0
9.361297,9.509547,64,39,0
8.629122,9.509547,59,38,0
9.509547,9.799868,66,46,0
9.799868,9.9529915,64,42,0
9.9529915,10.117826,62,42,0
9.509547,10.117826,60,40,0
10.117826,11.222515,79,73,0
10.117826,11.222515,67,48,0
10.117826,11.222515,71,48,0
10.117826,11.222515,74,57,0
11.222515,11.634289,78,60,0
11.222515,11.634289,72,53,0
11.222515,11.634289,66,40,0
11.634289,11.783439,74,59,0
11.783439,12.062301,76,61,0
12.062301,12.1523905,76,53,0
12.1523905,12.24248,78,53,0
12.24248,12.332571,76,53,0
12.332571,12.888127,74,58,0
11.783439,12.888127,71,51,0
11.783439,12.888127,67,51,0
12.888127,13.314744,69,35,0
12.888127,13.314744,62,35,0
12.888127,13.314744,60,35,0
12.888127,13.314744,72,51,0
12.888127,13.314744,66,35,0
13.314744,13.459672,69,48,0
13.459672,13.602719,71,57,0
13.602719,13.745768,72,50,0
13.745768,14.031863,74,53,0
13.459672,14.321774,67,39,0
13.459672,14.321774,62,39,0
14.321774,14.463284,59,38,0
14.463284,14.604793,62,34,0
14.031863,14.604793,74,53,0
14.604793,14.74894,60,38,0
14.74894,14.893088,62,34,0
14.893088,15.037235,60,38,0
15.037235,15.181383,62,34,0
15.181383,15.477095,59,42,0
15.477095,15.624951,62,38,0
15.624951,15.772391,64,35,0
15.772391,15.916705,62,40,0
15.916705,16.061018,64,36,0
16.061018,16.20927,67,42,0
16.20927,16.357521,64,39,0
15.477095,16.357521,59,38,0
16.357521,16.64784,66,46,0
16.64784,16.79486,64,42,0
16.79486,16.947922,62,42,0
16.357521,16.947922,60,38,0
16.947922,18.056662,79,70,0
16.947922,18.056662,74,59,0
16.947922,18.056662,67,49,0
18.056662,18.46762,77,62,0
18.056662,18.46762,69,50,0
18.056662,18.46762,65,42,0
18.46762,18.61677,72,60,0
18.61677,18.895632,74,64,0
18.895632,19.030767,74,59,0
19.030767,19.165903,75,59,0
19.165903,19.718897,77,64,0
18.61677,19.718897,70,53,0
18.61677,19.718897,65,53,0
19.718897,20.154425,69,36,0
19.718897,20.154425,65,36,0
19.718897,20.154425,75,59,0
20.154425,20.301657,72,49,0
20.301657,20.439905,74,64,0
20.439905,20.578154,75,57,0
20.578154,20.716402,74,60,0
20.716402,20.854652,75,55,0
20.854652,20.991014,77,62,0
20.991014,21.127378,79,56,0
21.127378,21.261307,81,61,0
21.261307,21.395237,79,53,0
20.301657,21.395237,65,38,0
20.301657,21.395237,70,41,0
21.395237,21.536293,77,61,0
21.536293,21.677351,75,61,0
21.677351,21.818407,74,67,0
21.818407,21.960722,72,61,0
21.395237,21.960722,69,39,0
21.960722,22.099611,74,69,0
22.099611,22.2385,75,59,0
22.2385,22.37739,74,64,0
22.37739,22.518898,75,55,0
22.518898,22.654646,77,62,0
22.654646,22.790392,79,56,0
22.790392,22.928007,81,61,0
22.928007,23.06562,79,53,0
21.960722,23.06562,65,45,0
21.960722,23.06562,70,45,0
23.06562,23.2065,77,59,0
23.2065,23.348816,75,59,0
23.348816,23.492594,74,57,0
23.492594,23.640347,72,56,0
23.06562,23.640347,69,55,0
23.640347,24.755795,74,67,0
23.640347,24.755795,70,52,0
23.640347,24.755795,65,44,0
24.755795,25.040424,74,56,0
24.755795,25.040424,72,50,0
25.040424,25.18274,74,51,0
25.18274,25.331888,72,51,0
24.755795,25.331888,66,42,0
24.755795,25.331888,62,42,0
25.331888,26.169254,71,61,0
26.169254,26.312208,72,51,0
26.312208,26.45516,74,51,0
25.331888,26.45516,67,52,0
25.331888,26.45516,62,44,0
26.45516,26.734022,75,56,0
26.734022,26.873453,77,51,0
26.873453,27.022602,75,51,0
26.45516,27.022602,72,42,0
26.45516,27.022602,67,42,0
27.022602,27.301464,74,67,0
27.301464,27.442522,71,51,0
27.442522,27.583578,72,51,0
27.022602,27.583578,67,52,0
27.583578,27.876034,74,60,0
27.583578,27.876034,71,47,0
27.876034,28.018986,71,49,0
28.018986,28.161938,72,49,0
27.583578,28.161938,67,44,0
28.161938,28.44913,71,53,0
28.44913,28.597395,69,49,0
28.597395,28.746544,71,49,0
28.161938,28.746544,66,40,0
28.161938,28.746544,62,40,0
28.746544,29.021774,67,53,0
28.746544,29.021774,62,49,0
29.021774,29.155703,67,49,0
29.021774,29.155703,62,46,0
29.155703,29.28963,66,49,0
29.021774,29.28963,71,46,0
29.28963,29.557487,71,49,0
29.28963,29.557487,65,53,0
29.557487,29.691416,64,49,0
29.691416,29.825344,63,53,0
29.557487,29.825344,71,46,0
29.825344,30.093203,72,51,0
29.825344,30.093203,66,51,0
29.825344,30.093203,62,57,0
30.093203,30.231783,66,51,0
30.231783,30.370363,62,51,0
30.093203,30.370363,72,48,0
30.370363,30.638222,71,53,0
30.370363,30.638222,67,59,0
30.370363,30.638222,62,53,0
30.638222,30.77215,67,53,0
30.638222,30.77215,62,49,0
30.77215,30.906078,66,53,0
30.638222,30.906078,71,49,0
30.906078,31.173935,71,52,0
30.906078,31.173935,65,58,0
31.173935,31.30967,64,49,0
31.30967,31.445404,63,50,0
31.173935,31.445404,71,46,0
31.445404,31.71326,72,51,0
31.445404,31.71326,66,51,0
31.445404,31.71326,62,57,0
31.71326,31.849625,66,50,0
31.849625,31.985989,62,50,0
31.71326,31.985989,72,47,0
31.985989,32.250305,71,53,0
31.985989,32.250305,67,59,0
31.985989,32.250305,62,53,0
32.250305,32.382465,67,53,0
32.250305,32.382465,62,49,0
32.382465,32.51462,66,53,0
32.250305,32.51462,71,49,0
32.51462,32.77894,71,58,0
32.51462,32.77894,67,52,0
32.51462,32.77894,62,52,0
32.77894,32.91287,67,46,0
32.77894,32.91287,71,49,0
32.91287,33.046795,70,50,0
32.77894,33.046795,74,46,0
33.046795,33.308804,74,57,0
33.046795,33.308804,71,51,0
33.046795,33.308804,67,51,0
33.308804,33.44214,74,50,0
33.308804,33.44214,71,47,0
33.44214,33.57547,73,50,0
33.308804,33.57547,79,47,0
33.57547,33.83634,83,53,0
33.57547,33.83634,79,59,0
33.57547,33.83634,74,53,0
33.83634,33.966774,79,53,0
33.83634,33.966774,74,49,0
33.966774,34.09721,78,53,0
33.83634,34.09721,83,49,0
34.09721,34.358078,83,58,0
34.09721,34.358078,79,52,0
34.09721,34.358078,74,52,0
34.358078,34.49082,79,46,0
34.358078,34.49082,83,49,0
34.49082,34.623566,82,50,0
34.358078,34.623566,86,46,0
34.623566,34.884434,86,50,0
34.623566,34.884434,83,50,0
34.623566,34.884434,79,50,0
34.884434,35.01319,86,49,0
34.884434,35.01319,83,46,0
35.01319,35.141945,85,49,0
34.884434,35.141945,91,46,0
35.141945,35.401688,91,50,0
35.141945,35.401688,86,56,0
35.141945,35.401688,83,50,0
35.401688,35.531555,86,49,0
35.401688,35.531555,83,45,0
35.531555,35.661427,82,48,0
35.401688,35.661427,91,45,0
35.661427,35.92117,91,48,0
35.661427,35.92117,86,51,0
35.661427,35.92117,83,48,0
35.92117,36.051037,86,47,0
35.92117,36.051037,83,42,0
36.051037,36.18091,82,46,0
35.92117,36.18091,91,42,0
36.18091,36.440647,91,46,0
36.18091,36.440647,86,49,0
36.18091,36.440647,83,46,0
36.440647,36.573982,86,44,0
36.440647,36.573982,83,39,0
36.573982,36.707314,82,44,0
36.440647,36.707314,91,39,0
36.707314,36.968185,91,44,0
36.707314,36.968185,86,48,0
36.707314,36.968185,83,44,0
36.968185,37.10211,86,40,0
36.968185,37.10211,83,38,0
37.10211,37.236332,82,40,0
36.968185,37.236332,91,38,0
37.236332,37.503582,91,40,0
37.236332,37.503582,86,45,0
37.236332,37.503582,83,40,0
37.503582,37.64135,86,39,0
37.503582,37.64135,83,36,0
37.64135,37.779114,82,38,0
37.503582,37.779114,91,36,0
37.779114,38.05306,91,39,0
37.779114,38.05306,86,42,0
37.779114,38.05306,83,39,0
38.05306,38.192684,86,37,0
38.05306,38.192684,83,34,0
38.192684,38.33231,82,36,0
38.05306,38.33231,91,34,0
38.33231,38.83913,91,33,0
38.33231,38.83913,86,33,0
38.33231,38.83913,83,33,0
41.599693,42.704796,87,92,0
41.599693,42.704796,75,61,0
41.599693,42.704796,79,61,0
41.599693,42.704796,82,72,0
42.704796,43.11764,86,80,0
42.704796,43.11764,80,62,0
42.704796,43.11764,74,52,0
43.11764,43.266792,82,68,0
43.266792,43.545654,84,67,0
43.545654,43.635338,84,59,0
43.635338,43.725025,86,59,0
43.725025,43.814713,84,59,0
43.814713,44.370266,82,66,0
43.266792,44.370266,79,60,0
43.266792,44.370266,75,60,0
44.370266,44.79886,74,48,0
44.370266,44.79886,70,48,0
44.370266,44.79886,80,64,0
44.79886,44.94309,77,57,0
44.94309,45.086136,79,68,0
45.086136,45.229183,80,60,0
45.229183,45.515278,82,65,0
44.94309,45.80519,75,51,0
44.94309,45.80519,70,51,0
45.80519,45.946037,55,42,0
45.946037,46.08688,58,38,0
45.515278,46.08688,82,65,0
46.08688,46.23103,56,42,0
46.23103,46.375175,58,38,0
46.375175,46.51932,56,42,0
46.51932,46.66347,58,38,0
46.66347,46.959183,55,48,0
46.959183,47.10704,58,42,0
47.10704,47.25448,60,39,0
47.25448,47.398792,58,46,0
47.398792,47.543106,60,40,0
47.543106,47.691357,63,48,0
47.691357,47.839607,60,44,0
46.959183,47.839607,55,42,0
47.839607,48.12993,62,51,0
48.12993,48.28305,60,48,0
48.28305,48.44372,58,48,0
47.839607,48.44372,56,46,0
48.44372,49.545994,87,89,0
48.44372,49.545994,75,61,0
48.44372,49.545994,79,61,0
48.44372,49.545994,82,72,0
49.545994,49.956955,86,80,0
49.545994,49.956955,80,62,0
49.545994,49.956955,74,52,0
49.956955,50.106106,82,68,0
50.106106,50.384968,84,71,0
50.384968,50.475056,84,57,0
50.475056,50.565147,86,57,0
50.565147,50.655235,84,57,0
50.655235,51.229546,82,65,0
50.106106,51.229546,79,57,0
50.106106,51.229546,75,60,0
51.229546,51.665073,73,41,0
51.229546,51.665073,67,41,0
51.229546,51.665073,81,61,0
51.229546,51.665073,69,41,0
51.665073,51.812305,79,52,0
51.812305,51.955353,78,62,0
51.955353,52.0984,79,55,0
52.0984,52.384495,81,58,0
51.812305,52.674404,74,44,0
51.812305,52.674404,69,44,0
52.674404,52.815914,54,38,0
52.815914,52.957424,57,34,0
52.384495,52.957424,81,58,0
52.957424,53.101574,55,38,0
53.101574,53.24572,57,34,0
53.24572,53.389866,55,38,0
53.389866,53.534016,57,35,0
53.534016,53.829727,54,44,0
53.829727,53.977585,57,39,0
53.977585,54.125023,59,37,0
54.125023,54.269337,57,42,0
54.269337,54.41365,59,38,0
54.41365,54.5619,57,46,0
54.5619,54.71015,59,41,0
53.829727,54.71015,54,39,0
54.71015,55.000473,61,49,0
55.000473,55.153595,59,47,0
55.153595,55.314266,57,47,0
54.71015,55.314266,55,44,0
55.314266,56.418953,86,89,0
55.314266,56.418953,74,61,0
55.314266,56.418953,78,61,0
55.314266,56.418953,81,72,0
56.418953,56.8318,85,75,0
56.418953,56.8318,79,62,0
56.418953,56.8318,73,52,0
56.8318,56.980946,81,67,0
56.980946,57.259808,83,75,0
57.259808,57.351536,83,59,0
57.351536,57.44203,85,59,0
57.44203,57.53253,83,59,0
57.53253,58.088085,81,67,0
56.980946,58.088085,78,60,0
56.980946,58.088085,74,60,0
58.088085,58.51968,73,48,0
58.088085,58.51968,67,48,0
58.088085,58.51968,79,68,0
58.088085,58.51968,69,48,0
58.51968,58.666912,76,60,0
58.666912,58.80996,78,68,0
58.80996,58.953007,79,60,0
58.953007,59.2391,81,65,0
58.666912,59.52901,74,51,0
58.666912,59.52901,69,51,0
59.52901,59.6692,54,42,0
59.6692,59.809387,57,38,0
59.2391,59.809387,81,65,0
59.809387,59.953533,55,42,0
59.953533,60.097683,57,38,0
60.097683,60.24183,55,42,0
60.24183,60.385975,57,38,0
60.385975,60.68169,54,48,0
60.68169,60.829544,57,42,0
60.829544,60.976986,59,39,0
60.976986,61.1213,57,46,0
61.1213,61.265614,59,40,0
61.265614,61.413864,62,48,0
61.413864,61.562115,59,44,0
60.68169,61.562115,54,42,0
61.562115,61.852432,61,51,0
61.852432,62.005558,59,48,0
62.005558,62.166225,57,48,0
61.562115,62.166225,55,46,0
62.166225,63.26731,86,94,0
62.166225,63.26731,74,60,0
62.166225,63.26731,78,60,0
62.166225,63.26731,81,72,0
63.26731,63.680157,85,82,0
63.26731,63.680157,79,69,0
63.26731,63.680157,73,57,0
63.680157,63.829304,81,68,0
63.680157,63.829304,69,68,0
63.829304,64.65621,78,63,0
63.829304,64.65621,71,63,0
63.829304,64.65621,83,82,0
63.829304,64.65621,74,63,0
64.65621,64.93399,86,91,0
64.65621,64.93399,74,82,0
64.93399,65.35854,79,57,0
64.93399,65.35854,73,52,0
64.93399,65.35854,85,79,0
65.35854,65.501396,81,71,0
65.35854,65.501396,69,64,0
65.501396,66.33798,78,66,0
65.501396,66.33798,71,67,0
65.501396,66.33798,83,88,0
65.501396,66.33798,74,66,0
66.33798,66.62135,86,86,0
66.33798,66.62135,74,79,0
66.62135,67.061035,79,48,0
66.62135,67.061035,72,48,0
66.62135,67.061035,84,72,0
67.061035,67.20827,81,60,0
67.061035,67.20827,69,56,0
67.20827,67.311005,72,45,0
67.34525,67.448,74,47,0
67.48224,67.58641,75,49,0
67.62113,67.725296,77,51,0
67.76002,67.86276,75,53,0
67.897,67.99975,77,51,0
68.03399,68.13816,75,51,0
68.17288,68.27705,74,51,0
68.31177,68.41267,72,53,0
68.4463,68.547195,74,49,0
68.580826,68.68357,72,49,0
68.71781,68.82056,70,49,0
68.8548,68.955696,69,46,0
68.98933,69.090225,70,48,0
69.123856,69.226135,72,49,0
69.26022,69.362495,74,51,0
69.39658,69.49703,72,53,0
69.53052,69.63096,74,50,0
69.664444,69.766716,72,50,0
69.800804,69.90303,70,50,0
69.936966,70.03877,69,53,0
70.07271,70.174065,70,50,0
70.20785,70.30875,69,50,0
70.34238,70.44302,67,50,0
70.4765,70.576706,66,48,0
70.61004,70.709984,67,49,0
70.74317,70.84268,69,51,0
70.875725,70.97479,70,53,0
71.00769,71.10618,72,53,0
71.13908,71.23849,70,51,0
71.27182,71.372116,69,51,0
71.40575,71.50715,67,51,0
71.54109,71.64362,65,53,0
71.677864,71.781395,67,51,0
71.81612,71.920555,65,51,0
71.95544,72.06087,63,51,0
72.09614,72.38882,74,86,0
72.09614,72.38882,62,73,0
72.09614,72.38882,66,73,0
72.09614,72.38882,69,73,0
72.38882,72.67318,78,89,0
72.38882,72.67318,66,74,0
72.38882,72.67318,69,74,0
72.38882,72.67318,74,74,0
72.67318,72.957535,81,90,0
72.67318,72.957535,69,75,0
72.67318,72.957535,74,75,0
72.67318,72.957535,78,75,0
72.957535,73.24739,74,80,0
72.957535,73.24739,86,94,0
72.957535,73.24739,81,80,0
72.957535,73.24739,78,80,0
73.24739,73.53725,99,106,0
73.24739,73.53725,87,80,0
73.24739,73.53725,91,80,0
73.24739,73.53725,94,89,0
73.53725,73.82837,75,88,0
73.53725,73.82837,63,73,0
73.53725,73.82837,67,73,0
73.53725,73.82837,70,73,0
73.82837,74.12105,74,86,0
73.82837,74.12105,62,73,0
73.82837,74.12105,66,73,0
73.82837,74.12105,69,73,0
74.12105,74.413734,78,89,0
74.12105,74.413734,66,74,0
74.12105,74.413734,69,74,0
74.12105,74.413734,74,74,0
74.413734,74.71224,81,90,0
74.413734,74.71224,69,75,0
74.413734,74.71224,74,75,0
74.413734,74.71224,78,75,0
74.71224,75.01582,74,80,0
74.71224,75.01582,86,94,0
74.71224,75.01582,81,80,0
74.71224,75.01582,78,80,0
75.01582,75.319405,99,106,0
75.01582,75.319405,87,80,0
75.01582,75.319405,91,80,0
75.01582,75.319405,94,89,0
75.319405,75.622986,75,88,0
75.319405,75.622986,63,73,0
75.319405,75.622986,67,73,0
75.319405,75.622986,70,73,0
75.622986,75.900764,66,72,0
75.622986,75.900764,62,72,0
75.622986,75.900764,57,72,0
75.900764,76.03713,62,67,0
75.900764,76.03713,57,67,0
76.03713,76.17349,61,67,0
75.900764,76.17349,66,67,0
76.17349,76.44622,66,72,0
76.17349,76.44622,60,72,0
76.44622,76.58259,59,67,0
76.58259,76.71895,58,72,0
76.44622,76.71895,66,67,0
76.71895,76.99168,67,75,0
76.71895,76.99168,61,75,0
76.71895,76.99168,57,75,0
76.99168,77.13461,61,69,0
77.13461,77.27756,57,69,0
76.99168,77.27756,67,69,0
77.27756,77.54905,66,79,0
77.27756,77.54905,62,79,0
77.27756,77.54905,57,79,0
77.54905,77.68479,62,72,0
77.54905,77.68479,57,72,0
77.68479,77.82054,61,72,0
77.54905,77.82054,66,72,0
77.82054,78.09203,66,77,0
77.82054,78.09203,60,77,0
78.09203,78.23204,59,67,0
78.23204,78.37204,58,68,0
78.09203,78.37204,66,67,0
78.37204,78.65672,67,75,0
78.37204,78.65672,61,75,0
78.37204,78.65672,57,75,0
78.65672,78.80523,61,68,0
78.80523,78.95373,57,68,0
78.65672,78.95373,67,68,0
78.95373,79.539215,66,68,0
78.95373,79.539215,62,68,0
78.95373,79.539215,57,68,0
80.68872,80.96957,86,90,0
80.68872,80.96957,78,75,0
80.68872,80.96957,72,75,0
80.68872,80.96957,74,75,0
80.68872,80.96957,81,75,0
80.96957,81.109985,86,84,0
80.96957,81.109985,78,70,0
80.96957,81.109985,72,70,0
80.96957,81.109985,74,70,0
80.96957,81.109985,81,70,0
81.109985,81.25041,86,84,0
81.109985,81.25041,78,70,0
81.109985,81.25041,72,70,0
81.109985,81.25041,74,70,0
81.109985,81.25041,81,70,0
81.25041,81.53189,86,90,0
81.25041,81.53189,78,75,0
81.25041,81.53189,72,75,0
81.25041,81.53189,74,75,0
81.25041,81.53189,81,75,0
81.53189,81.67378,86,80,0
81.53189,81.67378,78,67,0
81.53189,81.67378,72,67,0
81.53189,81.67378,74,67,0
81.53189,81.67378,81,67,0
81.67378,81.816315,86,80,0
81.67378,81.816315,78,67,0
81.67378,81.816315,72,67,0
81.67378,81.816315,74,67,0
81.67378,81.816315,81,67,0
81.816315,82.10372,86,90,0
81.816315,82.10372,78,75,0
81.816315,82.10372,72,75,0
81.816315,82.10372,74,75,0
81.816315,82.10372,81,75,0
82.10372,82.24862,86,81,0
82.10372,82.24862,78,68,0
82.10372,82.24862,72,68,0
82.10372,82.24862,74,68,0
82.10372,82.24862,81,68,0
82.24862,82.360176,86,81,0
82.24862,82.360176,78,68,0
82.24862,82.360176,72,68,0
82.24862,82.360176,74,68,0
82.24862,82.360176,81,68,0
82.50752,82.764656,91,91,0
82.4615,82.764656,83,77,0
82.41897,82.764656,74,77,0
82.43988,82.764656,79,77,0
82.48409,82.764656,86,91,0
82.764656,82.90164,67,67,0
82.764656,82.90164,62,61,0
82.90164,83.03863,66,67,0
82.764656,83.03863,71,61,0
83.03863,83.3126,71,64,0
83.03863,83.3126,65,71,0
83.3126,83.44774,64,64,0
83.44774,83.58287,63,69,0
83.3126,83.58287,71,59,0
83.58287,83.85314,72,66,0
83.58287,83.85314,66,66,0
83.58287,83.85314,62,72,0
83.85314,83.99172,66,64,0
83.99172,84.1303,62,64,0
83.85314,84.1303,72,60,0
84.1303,84.40303,71,67,0
84.1303,84.40303,67,72,0
84.1303,84.40303,62,67,0
84.40303,84.53696,67,66,0
84.40303,84.53696,62,60,0
84.53696,84.67089,66,64,0
84.40303,84.67089,71,60,0
84.67089,84.93874,71,63,0
84.67089,84.93874,65,69,0
84.93874,85.07448,64,59,0
85.07448,85.21021,63,59,0
84.93874,85.21021,71,53,0
85.21021,85.4862,72,60,0
85.21021,85.4862,66,60,0
85.21021,85.4862,62,66,0
85.4862,85.631836,66,58,0
85.631836,85.777466,62,57,0
85.4862,85.777466,72,52,0
85.777466,86.87558,79,75,0
85.777466,86.87558,67,49,0
85.777466,86.87558,71,49,0
85.777466,86.87558,74,58,0
86.87558,87.28654,78,66,0
86.87558,87.28654,72,55,0
86.87558,87.28654,66,46,0
87.28654,87.43569,74,63,0
87.43569,87.714554,76,69,0
87.714554,87.80189,76,60,0
87.80189,87.88922,78,60,0
87.88922,87.976555,76,60,0
87.976555,88.53211,74,64,0
87.43569,88.53211,71,58,0
87.43569,88.53211,67,58,0
88.53211,88.962364,69,39,0
88.53211,88.962364,62,39,0
88.53211,88.962364,60,39,0
88.53211,88.962364,72,58,0
88.53211,88.962364,66,39,0
88.962364,89.1096,69,53,0
89.1096,89.25265,71,63,0
89.25265,89.39569,72,57,0
89.39569,89.681786,74,60,0
89.1096,89.9717,67,45,0
89.1096,89.9717,62,45,0
89.9717,90.11321,59,42,0
90.11321,90.254715,62,38,0
89.681786,90.254715,74,60,0
90.254715,90.398865,60,42,0
90.398865,90.543015,62,38,0
90.543015,90.687164,60,42,0
90.687164,90.83131,62,38,0
90.83131,91.12702,59,48,0
91.12702,91.27488,62,42,0
91.27488,91.42232,64,39,0
91.42232,91.56663,62,46,0
91.56663,91.710945,64,40,0
91.710945,91.85919,67,48,0
91.85919,92.00745,64,44,0
91.12702,92.00745,59,42,0
92.00745,92.29777,66,51,0
92.29777,92.45089,64,48,0
92.45089,92.61572,62,48,0
92.00745,92.61572,60,46,0
92.61572,93.709885,79,82,0
92.61572,93.709885,67,53,0
92.61572,93.709885,71,53,0
92.61572,93.709885,74,63,0
93.709885,94.11897,78,68,0
93.709885,94.11897,72,60,0
93.709885,94.11897,66,46,0
94.11897,94.26813,74,66,0
94.26813,94.54699,76,69,0
94.54699,94.63548,76,60,0
94.63548,94.723976,78,60,0
94.723976,94.81247,76,60,0
94.81247,95.36803,74,64,0
94.26813,95.36803,71,58,0
94.26813,95.36803,67,58,0
95.36803,95.79465,69,39,0
95.36803,95.79465,62,39,0
95.36803,95.79465,60,39,0
95.36803,95.79465,72,58,0
95.36803,95.79465,66,39,0
95.79465,95.939575,69,53,0
95.939575,96.08262,71,63,0
96.08262,96.22567,72,57,0
96.22567,96.511765,74,60,0
95.939575,96.801674,67,45,0
95.939575,96.801674,62,45,0
96.801674,96.943184,59,42,0
96.943184,97.084694,62,38,0
96.511765,97.084694,74,60,0
97.084694,97.22884,60,42,0
97.22884,97.37299,62,38,0
97.37299,97.517136,60,42,0
97.517136,97.661285,62,38,0
97.661285,97.957,59,48,0
97.957,98.10485,62,42,0
98.10485,98.2523,64,39,0
98.2523,98.39661,62,46,0
98.39661,98.540924,64,40,0
98.540924,98.68917,67,48,0
98.68917,98.837425,64,44,0
97.957,98.837425,59,42,0
98.837425,99.12774,66,51,0
99.12774,99.274765,64,48,0
99.274765,99.427826,62,48,0
98.837425,99.427826,60,42,0
99.427826,100.52891,79,79,0
99.427826,100.52891,74,66,0
99.427826,100.52891,67,56,0
100.52891,100.939865,77,70,0
100.52891,100.939865,69,57,0
100.52891,100.939865,65,48,0
100.939865,101.08902,72,68,0
101.08902,101.36788,74,72,0
101.36788,101.50181,74,66,0
101.50181,101.635735,75,66,0
101.635735,102.19129,77,72,0
101.08902,102.19129,70,60,0
101.08902,102.19129,65,60,0
102.19129,102.62682,69,40,0
102.19129,102.62682,65,40,0
102.19129,102.62682,75,67,0
102.62682,102.774055,72,56,0
102.774055,102.9123,74,72,0
102.9123,103.05055,75,63,0
103.05055,103.1888,74,68,0
103.1888,103.32705,75,61,0
103.32705,103.46341,77,70,0
103.46341,103.59978,79,62,0
103.59978,103.7337,81,69,0
103.7337,103.86763,79,60,0
102.774055,103.86763,65,42,0
102.774055,103.86763,70,47,0
103.86763,104.00869,77,69,0
104.00869,104.14974,75,69,0
104.14974,104.2908,74,74,0
104.2908,104.43312,72,69,0
103.86763,104.43312,69,44,0
104.43312,104.57201,74,77,0
104.57201,104.71089,75,66,0
104.71089,104.849785,74,72,0
104.849785,104.991295,75,61,0
104.991295,105.12704,77,70,0
105.12704,105.26279,79,62,0
105.26279,105.4004,81,69,0
105.4004,105.53802,79,60,0
104.43312,105.53802,65,50,0
104.43312,105.53802,70,50,0
105.53802,105.678894,77,67,0
105.678894,105.82121,75,66,0
105.82121,105.96499,74,63,0
105.96499,106.11274,72,62,0
105.53802,106.11274,69,61,0
106.11274,107.21148,74,74,0
106.11274,107.21148,70,59,0
106.11274,107.21148,65,49,0
107.21148,107.49611,74,62,0
107.21148,107.49611,72,57,0
107.49611,107.63842,74,58,0
107.63842,107.78757,72,58,0
107.21148,107.78757,66,48,0
107.21148,107.78757,62,48,0
107.78757,108.62494,71,69,0
108.62494,108.76789,72,58,0
108.76789,108.91084,74,58,0
107.78757,108.91084,67,59,0
107.78757,108.91084,62,49,0
108.91084,109.189705,75,62,0
109.189705,109.32913,77,58,0
109.32913,109.47829,75,58,0
108.91084,109.47829,72,48,0
108.91084,109.47829,67,48,0
109.47829,109.75715,74,74,0
109.75715,109.8982,71,58,0
109.8982,110.03926,72,58,0
109.47829,110.03926,67,59,0
110.03926,110.33172,74,68,0
110.03926,110.33172,71,52,0
110.33172,110.47467,71,55,0
110.47467,110.61762,72,55,0
110.03926,110.61762,67,49,0
110.61762,110.90481,71,60,0
110.90481,111.05308,69,55,0
111.05308,111.202225,71,55,0
110.61762,111.202225,66,46,0
110.61762,111.202225,62,46,0
111.202225,111.477455,67,60,0
111.202225,111.477455,62,55,0
111.477455,111.611984,67,56,0
111.477455,111.611984,62,51,0
111.611984,111.74651,66,56,0
111.477455,111.74651,71,51,0
111.74651,112.01557,71,55,0
111.74651,112.01557,65,60,0
112.01557,112.1501,64,56,0
112.1501,112.28463,63,60,0
112.01557,112.28463,71,51,0
112.28463,112.55369,72,58,0
112.28463,112.55369,66,58,0
112.28463,112.55369,62,63,0
112.55369,112.69227,66,58,0
112.69227,112.83085,62,58,0
112.55369,112.83085,72,53,0
112.83085,113.09871,71,60,0
112.83085,113.09871,67,66,0
112.83085,113.09871,62,60,0
113.09871,113.232635,67,60,0
113.09871,113.232635,62,55,0
113.232635,113.36657,66,60,0
113.09871,113.36657,71,55,0
113.36657,113.63442,71,59,0
113.36657,113.63442,65,64,0
113.63442,113.77016,64,56,0
113.77016,113.90589,63,57,0
113.63442,113.90589,71,51,0
113.90589,114.17375,72,58,0
113.90589,114.17375,66,58,0
113.90589,114.17375,62,63,0
114.17375,114.31011,66,57,0
114.31011,114.44648,62,57,0
114.17375,114.44648,72,52,0
114.44648,114.71079,71,60,0
114.44648,114.71079,67,66,0
114.44648,114.71079,62,60,0
114.71079,114.84295,67,60,0
114.71079,114.84295,62,55,0
114.84295,114.97511,66,60,0
114.71079,114.97511,71,55,0
114.97511,115.239426,71,64,0
114.97511,115.239426,67,59,0
114.97511,115.239426,62,59,0
115.239426,115.37335,67,51,0
115.239426,115.37335,71,56,0
115.37335,115.507286,70,57,0
115.239426,115.507286,74,51,0
115.507286,115.769295,74,63,0
115.507286,115.769295,71,58,0
115.507286,115.769295,67,58,0
115.769295,115.902626,74,57,0
115.769295,115.902626,71,52,0
115.902626,116.03596,73,57,0
115.769295,116.03596,79,52,0
116.03596,116.29683,83,60,0
116.03596,116.29683,79,66,0
116.03596,116.29683,74,60,0
116.29683,116.42726,79,60,0
116.29683,116.42726,74,55,0
116.42726,116.5577,78,60,0
116.29683,116.5577,83,55,0
116.5577,116.818565,83,64,0
116.5577,116.818565,79,59,0
116.5577,116.818565,74,59,0
116.818565,116.95131,79,51,0
116.818565,116.95131,83,56,0
116.95131,117.08405,82,57,0
116.818565,117.08405,86,51,0
117.08405,117.344925,86,57,0
117.08405,117.344925,83,57,0
117.08405,117.344925,79,57,0
117.344925,117.47368,86,56,0
117.344925,117.47368,83,51,0
117.47368,117.60243,85,56,0
117.344925,117.60243,91,51,0
117.60243,117.862175,91,57,0
117.60243,117.862175,86,62,0
117.60243,117.862175,83,57,0
117.862175,117.99204,86,55,0
117.862175,117.99204,83,50,0
117.99204,118.12192,82,53,0
117.862175,118.12192,91,50,0
118.12192,118.38165,91,53,0
118.12192,118.38165,86,58,0
118.12192,118.38165,83,53,0
118.38165,118.51153,86,52,0
118.38165,118.51153,83,48,0
118.51153,118.641396,82,51,0
118.38165,118.641396,91,48,0
118.641396,118.90114,91,51,0
118.641396,118.90114,86,56,0
118.641396,118.90114,83,51,0
118.90114,119.03447,86,49,0
118.90114,119.03447,83,45,0
119.03447,119.1678,82,49,0
118.90114,119.1678,91,45,0
119.1678,119.42867,91,49,0
119.1678,119.42867,86,53,0
119.1678,119.42867,83,49,0
119.42867,119.5626,86,46,0
119.42867,119.5626,83,42,0
119.5626,119.696815,82,46,0
119.42867,119.696815,91,42,0
119.696815,119.96407,91,46,0
119.696815,119.96407,86,50,0
119.696815,119.96407,83,46,0
119.96407,120.10184,86,44,0
119.96407,120.10184,83,40,0
120.10184,120.2396,82,42,0
119.96407,120.2396,91,40,0
120.2396,120.51355,91,44,0
120.2396,120.51355,86,48,0
120.2396,120.51355,83,44,0
120.51355,120.653175,86,41,0
120.51355,120.653175,83,38,0
120.653175,120.7928,82,40,0
120.51355,120.7928,91,38,0
120.7928,121.31937,91,37,0
120.7928,121.31937,86,37,0
120.7928,121.31937,83,37,0
126.86665,127.21754,84,53,0
127.21754,127.56841,86,59,0
127.56841,127.91929,87,55,0
127.91929,128.25395,89,58,0
128.25395,128.59744,92,61,0
128.59744,129.41328,96,72,0
129.41328,129.57092,94,56,0
129.57092,129.72858,92,57,0
129.72858,129.88622,91,53,0
129.88622,130.04855,89,57,0
130.04855,130.21089,91,53,0
130.21089,130.37007,92,56,0
130.37007,130.52924,89,52,0
130.52924,130.69157,91,60,0
130.69157,130.84921,92,55,0
130.84921,131.00687,91,58,0
131.00687,131.16603,89,50,0
131.16603,131.32292,87,56,0
131.32292,131.48262,89,52,0
131.48262,131.64525,87,53,0
131.64525,131.81117,86,49,0
131.81117,131.97852,84,55,0
131.97852,132.14584,86,51,0
132.14584,132.31319,87,56,0
132.31319,132.49753,91,51,0
132.49753,133.56842,91,58,0
133.56842,133.73492,89,55,0
133.73492,133.90143,87,49,0
133.90143,134.06793,86,57,0
134.06793,134.23442,87,51,0
134.23442,134.4035,89,51,0
134.4035,134.57257,92,51,0
134.57257,134.67567,91,53,0
134.67567,134.77878,92,45,0
134.77878,134.88188,91,45,0
134.88188,135.04752,89,51,0
135.04752,135.21315,87,48,0
135.21315,135.37878,86,49,0
135.37878,135.54442,87,50,0
135.54442,135.71617,89,51,0
135.71617,135.88791,91,45,0
135.88791,135.9956,89,52,0
135.88791,135.9956,83,39,0
135.9956,136.10332,91,40,0
136.10332,136.21101,89,40,0
136.21101,136.37923,87,41,0
136.37923,136.54744,86,38,0
136.54744,136.92035,84,37,0
136.54744,136.92035,96,45,0
136.54744,136.92035,91,37,0
136.54744,136.92035,87,37,0
137.27698,138.66066,72,37,0
137.27698,138.66066,60,37,0
137.27698,138.66066,65,37,0
137.27698,138.66066,68,37,0
138.66066,138.83209,67,51,0
138.66066,138.83209,63,51,0
138.83209,139.00351,62,46,0
138.66066,139.00351,72,60,0
139.00351,139.17693,63,39,0
139.00351,139.17693,60,39,0
139.17693,139.35524,55,44,0
139.00351,139.35524,67,48,0
139.35524,139.52258,67,50,0
139.35524,139.52258,63,50,0
139.52258,139.68991,62,44,0
139.35524,139.68991,72,59,0
139.68991,139.85725,63,38,0
139.68991,139.85725,60,38,0
139.85725,140.03365,55,44,0
139.68991,140.03365,67,46,0
140.03365,140.20448,67,49,0
140.03365,140.20448,65,49,0
140.20448,140.37532,63,41,0
140.03365,140.37532,71,58,0
140.37532,140.54617,65,38,0
140.37532,140.54617,62,38,0
140.54617,140.71701,55,41,0
140.37532,140.71701,67,46,0
140.71701,141.0587,72,49,0
140.71701,141.0587,60,39,0
140.71701,141.0587,63,39,0
140.71701,141.0587,67,49,0
141.0587,141.41147,84,58,0
141.41147,141.76425,86,67,0
141.76425,142.11702,87,61,0
142.11702,142.45003,89,66,0
142.45003,142.7917,92,69,0
142.7917,143.61023,99,85,0
143.61023,143.76787,98,67,0
143.76787,143.92552,96,68,0
143.92552,144.08316,94,63,0
144.08316,144.19139,96,68,0
144.19139,144.2996,98,68,0
144.2996,144.40784,96,68,0
144.40784,144.5678,94,67,0
144.5678,144.72777,92,62,0
144.72777,144.89684,94,72,0
144.89684,145.05525,96,66,0
145.05525,145.21367,94,69,0
145.21367,145.37683,92,60,0
145.37683,145.69524,91,67,0
145.69524,145.85922,89,63,0
145.85922,146.02686,91,58,0
146.02686,146.19418,92,66,0
146.19418,146.36153,94,61,0
146.36153,146.52885,96,67,0
146.52885,146.7132,92,61,0
146.7132,146.81984,91,73,0
146.81984,146.92648,92,63,0
146.92648,147.03313,91,63,0
147.03313,147.1963,89,67,0
147.1963,147.36626,91,70,0
147.36626,147.69753,87,73,0
147.69753,147.86316,86,70,0
147.86316,148.0288,87,67,0
148.0288,148.13544,89,75,0
148.13544,148.24208,91,67,0
148.24208,148.34872,89,67,0
148.34872,148.51106,87,73,0
148.51106,148.68015,89,67,0
148.68015,148.78679,86,73,0
148.78679,148.89343,87,63,0
148.89343,149.00008,86,63,0
149.00008,149.16324,84,67,0
149.16324,149.33319,87,70,0
149.33319,149.65953,86,73,0
149.65953,149.8227,84,70,0
149.8227,149.98586,86,67,0
149.98586,150.14427,87,75,0
150.14427,150.30269,89,75,0
150.30269,150.46503,91,73,0
150.46503,150.6341,92,67,0
150.6341,150.7392,89,73,0
150.7392,150.84454,91,63,0
150.84454,150.95015,89,62,0
150.95015,151.05626,87,72,0
151.05626,151.16264,89,62,0
151.16264,151.26955,87,62,0
151.26955,151.3767,86,71,0
151.3767,151.4844,87,61,0
151.4844,151.59236,86,61,0
151.59236,151.70087,84,70,0
151.70087,151.80965,86,60,0
151.80965,151.91896,84,60,0
151.91896,152.02855,82,69,0
152.02855,152.1387,84,59,0
152.1387,152.24913,82,59,0
152.24913,152.36012,80,68,0
152.36012,152.4714,82,59,0
152.4714,152.58325,80,58,0
152.58325,153.31279,79,67,0
153.31279,154.69647,74,46,0
153.31279,154.69647,66,46,0
153.31279,154.69647,62,46,0
153.31279,154.69647,60,46,0
153.31279,154.69647,69,46,0
154.69647,154.86888,71,60,0
154.69647,154.86888,67,51,0
154.69647,154.86888,62,51,0
154.86888,155.0413,60,46,0
155.0413,155.21571,67,48,0
155.0413,155.21571,62,39,0
155.0413,155.21571,59,39,0
155.21571,155.39403,55,44,0
155.39403,155.56398,71,59,0
155.39403,155.56398,67,50,0
155.39403,155.56398,62,50,0
155.56398,155.73393,60,44,0
155.73393,155.90388,67,46,0
155.73393,155.90388,62,38,0
155.73393,155.90388,59,38,0
155.90388,156.09035,55,44,0
156.09035,156.26768,72,58,0
156.09035,156.26768,66,49,0
156.09035,156.26768,64,49,0
156.26768,156.44504,62,41,0
156.44504,156.64163,66,46,0
156.44504,156.64163,62,38,0
156.44504,156.64163,60,38,0
156.64163,156.83823,57,41,0
156.83823,157.19966,67,46,0
156.83823,157.19966,55,46,0
157.19966,157.56111,79,61,0
157.56111,157.92256,79,60,0
157.92256,158.28401,79,58,0
158.28401,158.82617,79,57,0
158.82617,159.0069,79,55,0
159.0069,159.72348,79,60,0
159.72348,160.24673,77,57,0
160.24673,160.42856,74,52,0
160.42856,160.60298,75,57,0
160.60298,160.77739,77,53,0
160.77739,160.95181,79,57,0
160.95181,161.12624,80,53,0
161.12624,161.48552,79,60,0
161.48552,161.65993,80,57,0
161.65993,161.83435,79,55,0
161.83435,162.19363,77,58,0
162.19363,162.36806,74,56,0
162.36806,162.54247,77,56,0
162.54247,162.65875,75,61,0
162.65875,162.77571,77,50,0
162.77571,162.89336,75,50,0
162.89336,163.07123,74,58,0
163.07123,163.2505,72,51,0
163.2505,163.79268,71,56,0
163.79268,163.9734,74,52,0
163.9734,165.4324,74,55,0
165.8195,166.18988,79,61,0
166.18988,166.56024,79,60,0
166.56024,166.93062,79,58,0
166.93062,167.47278,79,57,0
167.47278,167.6535,79,55,0
167.6535,168.37009,79,60,0
168.37009,168.71893,77,57,0
168.71893,168.89336,74,52,0
168.89336,169.07516,75,52,0
169.07516,169.1634,77,57,0
169.1634,169.25113,79,53,0
169.25113,169.33817,80,57,0
169.33817,169.4247,82,53,0
169.4247,169.53981,84,53,0
169.53981,169.65677,82,53,0
169.65677,169.77565,80,53,0
169.77565,170.13493,79,60,0
170.13493,170.30934,80,57,0
170.30934,170.48376,79,55,0
170.48376,170.84305,77,58,0
170.84305,171.01747,74,56,0
171.01747,171.19188,75,56,0
171.19188,171.30817,77,61,0
171.30817,171.42513,79,52,0
171.42513,171.54277,77,53,0
171.54277,171.66112,75,58,0
171.66112,171.78017,74,61,0
171.78017,171.89992,72,63,0
171.89992,172.24083,71,74,0
172.24083,172.32185,65,68,0
172.40286,172.48389,65,68,0
172.56491,172.72974,68,75,0
172.89458,172.97516,62,69,0
173.05573,173.1363,62,70,0
173.21689,173.37993,65,75,0
173.54297,173.62253,59,68,0
173.70209,173.78165,59,68,0
173.8612,174.02336,62,81,0
174.18553,174.26465,56,74,0
174.34378,174.4229,56,74,0
174.50201,174.66505,60,83,0
174.82811,174.90723,53,75,0
174.98634,175.06548,53,75,0
175.14459,175.30763,56,83,0
175.47069,175.54895,50,74,0
175.62723,175.70549,50,74,0
175.78377,175.95111,55,81,0
176.11844,176.19672,65,74,0
176.27498,176.35326,65,74,0
176.43153,176.51332,68,83,0
176.59512,176.67693,68,74,0
176.75871,176.83617,62,79,0
176.9136,176.99106,62,75,0
177.06851,177.1494,65,83,0
177.23029,177.31117,65,73,0
177.39206,177.46951,59,79,0
177.54695,177.6244,59,74,0
177.70184,177.78185,62,81,0
177.86183,177.94182,62,81,0
178.02182,178.09967,56,74,0
178.17754,178.25539,56,74,0
178.33325,178.41368,60,83,0
178.49413,178.57455,60,74,0
178.655,178.73285,53,79,0
178.81071,178.88857,53,75,0
178.96643,179.04686,56,83,0
179.1273,179.20773,56,73,0
179.28818,179.36646,50,79,0
179.44472,179.523,50,74,0
179.60126,179.91003,55,79,0
183.92973,184.28061,84,53,0
184.28061,184.63148,86,59,0
184.63148,184.98236,87,55,0
184.98236,185.31705,89,58,0
185.31705,185.66052,92,61,0
185.66052,186.47636,96,72,0
186.47636,186.634,94,56,0
186.634,186.79166,92,57,0
186.79166,186.9493,91,53,0
186.9493,187.11163,89,57,0
187.11163,187.27397,91,53,0
187.27397,187.43315,92,56,0
187.43315,187.59232,89,52,0
187.59232,187.75465,91,60,0
187.75465,187.9123,92,55,0
187.9123,188.06995,91,58,0
188.06995,188.22911,89,50,0
188.22911,188.386,87,56,0
188.386,188.5457,89,52,0
188.5457,188.70833,87,53,0
188.70833,188.87425,86,49,0
188.87425,189.0416,84,55,0
189.0416,189.20892,86,51,0
189.20892,189.37627,87,56,0
189.37627,189.56061,91,51,0
189.56061,190.6315,91,58,0
190.6315,190.798,89,55,0
190.798,190.96451,87,49,0
190.96451,191.13101,86,57,0
191.13101,191.2975,87,51,0
191.2975,191.46658,89,51,0
191.46658,191.63565,92,51,0
191.63565,191.73875,91,53,0
191.73875,191.84186,92,45,0
191.84186,191.94496,91,45,0
191.94496,192.1106,89,51,0
192.1106,192.27623,87,48,0
192.27623,192.44186,86,49,0
192.44186,192.6075,87,50,0
192.6075,192.77925,89,51,0
192.77925,192.95099,91,45,0
192.95099,193.05869,89,52,0
192.95099,193.05869,83,52,0
193.05869,193.1664,91,40,0
193.1664,193.2741,89,40,0
193.2741,193.4423,87,41,0
193.4423,193.61052,86,38,0
193.61052,193.98343,84,37,0
193.61052,193.98343,96,45,0
193.61052,193.98343,91,37,0
193.61052,193.98343,87,37,0
194.34006,195.72374,72,37,0
194.34006,195.72374,60,37,0
194.34006,195.72374,65,37,0
194.34006,195.72374,68,37,0
195.72374,195.88948,67,51,0
195.72374,195.88948,63,51,0
195.88948,196.05524,62,46,0
195.72374,196.05524,72,60,0
196.05524,196.22098,63,39,0
196.05524,196.22098,60,39,0
196.22098,196.39929,55,44,0
196.05524,196.39929,67,48,0
196.39929,196.56664,67,50,0
196.39929,196.56664,63,50,0
196.56664,196.73396,62,44,0
196.39929,196.73396,72,59,0
196.73396,196.9013,63,38,0
196.73396,196.9013,60,38,0
196.9013,197.07768,55,44,0
196.73396,197.07768,67,46,0
197.07768,197.24854,67,49,0
197.07768,197.24854,65,49,0
197.24854,197.41937,63,41,0
197.07768,197.41937,71,58,0
197.41937,197.59023,65,38,0
197.41937,197.59023,62,38,0
197.59023,197.76878,55,41,0
197.41937,197.76878,67,46,0
197.76878,198.03711,72,66,0
197.76878,198.03711,67,56,0
197.76878,198.03711,63,56,0
198.03711,198.17126,67,42,0
198.03711,198.17126,63,42,0
198.17126,198.30687,62,48,0
198.03711,198.30687,72,52,0
198.30687,198.56773,72,64,0
198.30687,198.56773,67,55,0
198.30687,198.56773,63,55,0
198.56773,198.69818,60,41,0
198.69818,198.83234,59,48,0
198.56773,198.83234,67,50,0
198.56773,198.83234,63,50,0
198.83234,199.09218,67,63,0
198.83234,199.09218,63,53,0
198.83234,199.09218,60,53,0
199.09218,199.35204,55,50,0
199.35204,199.62035,75,72,0
199.35204,199.62035,70,61,0
199.35204,199.62035,67,61,0
199.62035,199.7545,70,46,0
199.62035,199.7545,67,46,0
199.7545,199.89012,66,52,0
199.62035,199.89012,75,57,0
199.89012,200.14464,75,70,0
199.89012,200.14464,70,60,0
199.89012,200.14464,67,60,0
200.14464,200.2719,63,45,0
200.2719,200.40605,62,52,0
200.14464,200.40605,70,55,0
200.14464,200.40605,67,55,0
200.40605,200.66591,70,69,0
200.40605,200.66591,67,58,0
200.40605,200.66591,63,58,0
200.66591,200.92575,67,55,0
200.66591,200.92575,63,55,0
200.66591,200.92575,58,55,0
200.92575,201.19008,74,66,0
200.92575,201.19008,67,66,0
200.92575,201.19008,62,66,0
200.92575,201.19008,71,72,0
201.19008,201.32224,71,66,0
201.19008,201.32224,67,60,0
201.32224,201.45439,66,66,0
201.19008,201.45439,74,60,0
201.45439,201.7187,74,70,0
201.45439,201.7187,71,64,0
201.45439,201.7187,67,64,0
201.7187,201.85263,71,57,0
201.7187,201.85263,74,62,0
201.85263,201.98656,70,63,0
201.7187,201.98656,79,57,0
201.98656,202.24857,79,70,0
201.98656,202.24857,74,64,0
201.98656,202.24857,71,64,0
202.24857,202.38191,74,64,0
202.38191,202.51524,73,64,0
202.24857,202.51524,79,59,0
202.24857,202.51524,83,59,0
202.51524,202.78673,83,82,0
202.51524,202.78673,79,70,0
202.51524,202.78673,74,70,0
202.78673,202.92247,83,67,0
202.78673,202.92247,79,67,0
202.78673,202.92247,74,67,0
202.92247,203.05823,82,83,0
202.78673,203.05823,86,80,0
203.05823,203.32971,86,83,0
203.05823,203.32971,74,70,0
203.05823,203.32971,79,70,0
203.05823,203.32971,83,70,0
203.32971,203.4719,86,73,0
203.32971,203.4719,74,73,0
203.4719,203.61407,86,73,0
203.4719,203.61407,74,73,0
203.61407,203.89186,86,85,0
203.61407,203.89186,74,72,0
203.61407,203.89186,84,85,0
203.61407,203.89186,78,72,0
203.89186,204.16963,84,78,0
203.89186,204.16963,74,67,0
203.89186,204.16963,86,78,0
203.89186,204.16963,78,67,0
204.16963,204.43748,71,69,0
204.16963,204.43748,67,75,0
204.16963,204.43748,62,69,0
204.43748,204.57141,67,70,0
204.43748,204.57141,62,63,0
204.57141,204.70535,66,70,0
204.43748,204.70535,71,63,0
204.70535,204.9732,71,69,0
204.70535,204.9732,65,75,0
204.9732,205.10713,64,70,0
205.10713,205.24106,63,75,0
204.9732,205.24106,71,63,0
205.24106,205.50891,72,72,0
205.24106,205.50891,66,72,0
205.24106,205.50891,62,79,0
205.50891,205.64749,66,72,0
205.64749,205.78609,62,72,0
205.50891,205.78609,72,66,0
205.78609,206.05394,71,75,0
205.78609,206.05394,67,82,0
205.78609,206.05394,62,75,0
206.05394,206.18787,67,75,0
206.05394,206.18787,62,69,0
206.18787,206.3218,66,75,0
206.05394,206.3218,71,69,0
206.3218,206.58965,71,73,0
206.3218,206.58965,65,80,0
206.58965,206.72539,64,70,0
206.72539,206.86111,63,71,0
206.58965,206.86111,71,63,0
206.86111,207.13712,72,72,0
206.86111,207.13712,66,72,0
206.86111,207.13712,62,79,0
207.13712,207.28275,66,71,0
207.28275,207.42838,62,71,0
207.13712,207.42838,72,64,0
207.42838,208.52827,79,75,0
207.42838,208.52827,67,49,0
207.42838,208.52827,71,49,0
207.42838,208.52827,74,58,0
208.52827,208.93924,78,66,0
208.52827,208.93924,72,55,0
208.52827,208.93924,66,46,0
208.93924,209.08838,74,63,0
209.08838,209.36725,76,69,0
209.36725,209.45613,76,60,0
209.45613,209.54503,78,60,0
209.54503,209.63391,76,60,0
209.63391,210.18947,74,64,0
209.08838,210.18947,71,58,0
209.08838,210.18947,67,58,0
210.18947,210.61972,69,39,0
210.18947,210.61972,62,39,0
210.18947,210.61972,60,39,0
210.18947,210.61972,72,58,0
210.18947,210.61972,66,39,0
210.61972,210.76695,69,53,0
210.76695,210.91,71,63,0
210.91,211.05304,72,57,0
211.05304,211.33914,74,60,0
210.76695,211.62906,67,45,0
210.76695,211.62906,62,45,0
211.62906,211.7699,59,42,0
211.7699,211.91074,62,38,0
211.33914,211.91074,74,60,0
211.91074,212.05489,60,42,0
212.05489,212.19904,62,38,0
212.19904,212.34319,60,42,0
212.34319,212.48734,62,38,0
212.48734,212.78305,59,48,0
212.78305,212.93091,62,42,0
212.93091,213.07834,64,39,0
213.07834,213.22266,62,46,0
213.22266,213.36697,64,40,0
213.36697,213.51521,67,48,0
213.51521,213.66347,64,44,0
212.78305,213.66347,59,42,0
213.66347,213.9538,66,51,0
213.9538,214.10692,64,48,0
214.10692,214.27174,62,48,0
213.66347,214.27174,60,46,0
214.27174,215.37402,79,82,0
214.27174,215.37402,67,53,0
214.27174,215.37402,71,53,0
214.27174,215.37402,74,63,0
215.37402,215.78499,78,68,0
215.37402,215.78499,72,60,0
215.37402,215.78499,66,46,0
215.78499,215.93413,74,66,0
215.93413,216.213,76,69,0
216.213,216.30269,76,60,0
216.30269,216.39236,78,60,0
216.39236,216.48206,76,60,0
216.48206,217.03761,74,64,0
215.93413,217.03761,71,58,0
215.93413,217.03761,67,58,0
217.03761,217.46423,69,39,0
217.03761,217.46423,62,39,0
217.03761,217.46423,60,39,0
217.03761,217.46423,72,58,0
217.03761,217.46423,66,39,0
217.46423,217.60916,69,53,0
217.60916,217.7522,71,63,0
217.7522,217.89525,72,57,0
217.89525,218.18135,74,60,0
217.60916,218.47125,67,45,0
217.60916,218.47125,62,45,0
218.47125,218.61276,59,42,0
218.61276,218.75427,62,38,0
218.18135,218.75427,74,60,0
218.75427,218.89842,60,42,0
218.89842,219.04257,62,38,0
219.04257,219.18672,60,42,0
219.18672,219.33087,62,38,0
219.33087,219.62657,59,48,0
219.62657,219.77443,62,42,0
219.77443,219.92188,64,39,0
219.92188,220.0662,62,46,0
220.0662,220.2105,64,40,0
220.2105,220.35875,67,48,0
220.35875,220.507,64,44,0
219.62657,220.507,59,42,0
220.507,220.79732,66,51,0
220.79732,220.94435,64,48,0
220.94435,221.09741,62,48,0
220.507,221.09741,60,42,0
221.09741,222.20088,79,79,0
221.09741,222.20088,74,66,0
221.09741,222.20088,67,56,0
222.20088,222.60997,77,70,0
222.20088,222.60997,69,57,0
222.20088,222.60997,65,48,0
222.60997,222.75912,72,68,0
222.75912,223.03798,74,72,0
223.03798,223.17313,74,66,0
223.17313,223.30826,75,66,0
223.30826,223.86382,77,72,0
222.75912,223.86382,70,60,0
222.75912,223.86382,65,60,0
223.86382,224.29933,69,40,0
223.86382,224.29933,65,40,0
223.86382,224.29933,75,67,0
224.29933,224.44656,72,56,0
224.44656,224.58482,74,72,0
224.58482,224.72307,75,63,0
224.72307,224.86131,74,68,0
224.86131,224.99957,75,61,0
224.99957,225.13655,77,70,0
225.13655,225.27354,79,62,0
225.27354,225.40747,81,69,0
225.40747,225.5414,79,60,0
224.44656,225.5414,65,42,0
224.44656,225.5414,70,47,0
225.5414,225.68245,77,69,0
225.68245,225.8235,75,69,0
225.8235,225.96457,74,74,0
225.96457,226.10689,72,69,0
225.5414,226.10689,69,44,0
226.10689,226.24577,74,77,0
226.24577,226.38466,75,66,0
226.38466,226.52354,74,72,0
226.52354,226.66505,75,61,0
226.66505,226.8008,77,70,0
226.8008,226.93655,79,62,0
226.93655,227.07416,81,69,0
227.07416,227.21178,79,60,0
226.10689,227.21178,65,50,0
226.10689,227.21178,70,50,0
227.21178,227.35266,77,67,0
227.35266,227.49498,75,66,0
227.49498,227.63875,74,63,0
227.63875,227.7865,72,62,0
227.21178,227.7865,69,61,0
227.7865,228.88293,74,74,0
227.7865,228.88293,70,59,0
227.7865,228.88293,65,49,0
228.88293,229.16756,74,62,0
228.88293,229.16756,72,57,0
229.16756,229.30988,74,58,0
229.30988,229.45903,72,58,0
228.88293,229.45903,66,48,0
228.88293,229.45903,62,48,0
229.45903,230.29639,71,69,0
230.29639,230.43935,72,58,0
230.43935,230.58229,74,58,0
229.45903,230.58229,67,59,0
229.45903,230.58229,62,49,0
230.58229,230.86116,75,62,0
230.86116,231.0006,77,58,0
231.0006,231.14973,75,58,0
230.58229,231.14973,72,48,0
230.58229,231.14973,67,48,0
231.14973,231.4286,74,74,0
231.4286,231.56966,71,58,0
231.56966,231.71071,72,58,0
231.14973,231.71071,67,59,0
231.71071,232.00317,74,68,0
231.71071,232.00317,71,52,0
232.00317,232.14612,71,55,0
232.14612,232.28908,72,55,0
231.71071,232.28908,67,49,0
232.28908,232.57626,71,60,0
232.57626,232.72453,69,55,0
232.72453,232.87369,71,55,0
232.28908,232.87369,66,46,0
232.28908,232.87369,62,46,0
232.87369,233.14891,67,60,0
232.87369,233.14891,62,55,0
233.14891,233.28284,67,56,0
233.14891,233.28284,62,51,0
233.28284,233.41676,66,56,0
233.14891,233.41676,71,51,0
233.41676,233.68463,71,55,0
233.41676,233.68463,65,60,0
233.68463,233.81856,64,56,0
233.81856,233.95248,63,60,0
233.68463,233.95248,71,51,0
233.95248,234.22034,72,58,0
233.95248,234.22034,66,58,0
233.95248,234.22034,62,63,0
234.22034,234.35892,66,58,0
234.35892,234.4975,62,58,0
234.22034,234.4975,72,53,0
234.4975,234.76537,71,60,0
234.4975,234.76537,67,66,0
234.4975,234.76537,62,60,0
234.76537,234.89929,67,60,0
234.76537,234.89929,62,55,0
234.89929,235.03322,66,60,0
234.76537,235.03322,71,55,0
235.03322,235.30107,71,59,0
235.03322,235.30107,65,64,0
235.30107,235.43681,64,56,0
235.43681,235.57254,63,57,0
235.30107,235.57254,71,51,0
235.57254,235.8404,72,58,0
235.57254,235.8404,66,58,0
235.57254,235.8404,62,63,0
235.8404,235.97676,66,57,0
235.97676,236.11313,62,57,0
235.8404,236.11313,72,52,0
236.11313,236.37744,71,60,0
236.11313,236.37744,67,66,0
236.11313,236.37744,62,60,0
236.37744,236.5096,67,60,0
236.37744,236.5096,62,55,0
236.5096,236.64175,66,60,0
236.37744,236.64175,71,55,0
236.64175,236.90608,71,64,0
236.64175,236.90608,67,59,0
236.64175,236.90608,62,59,0
236.90608,237.04001,67,51,0
236.90608,237.04001,71,56,0
237.04001,237.17393,70,57,0
236.90608,237.17393,74,51,0
237.17393,237.43594,74,63,0
237.17393,237.43594,71,58,0
237.17393,237.43594,67,58,0
237.43594,237.56927,74,57,0
237.43594,237.56927,71,52,0
237.56927,237.7026,73,57,0
237.43594,237.7026,79,52,0
237.7026,237.96347,83,60,0
237.7026,237.96347,79,66,0
237.7026,237.96347,74,60,0
237.96347,238.09392,79,60,0
237.96347,238.09392,74,55,0
238.09392,238.22435,78,60,0
237.96347,238.22435,83,55,0
238.22435,238.48521,83,64,0
238.22435,238.48521,79,59,0
238.22435,238.48521,74,59,0
238.48521,238.61797,79,51,0
238.48521,238.61797,83,56,0
238.61797,238.7507,82,57,0
238.48521,238.7507,86,51,0
238.7507,239.01157,86,57,0
238.7507,239.01157,83,57,0
238.7507,239.01157,79,57,0
239.01157,239.14034,86,56,0
239.01157,239.14034,83,51,0
239.14034,239.26909,85,56,0
239.01157,239.26909,91,51,0
239.26909,239.52882,91,57,0
239.26909,239.52882,86,62,0
239.26909,239.52882,83,57,0
239.52882,239.65869,86,55,0
239.52882,239.65869,83,50,0
239.65869,239.78856,82,53,0
239.52882,239.78856,91,50,0
239.78856,240.04831,91,53,0
239.78856,240.04831,86,58,0
239.78856,240.04831,83,53,0
240.04831,240.17818,86,52,0
240.04831,240.17818,83,48,0
240.17818,240.30804,82,51,0
240.04831,240.30804,91,48,0
240.30804,240.56778,91,51,0
240.30804,240.56778,86,56,0
240.30804,240.56778,83,51,0
240.56778,240.70113,86,49,0
240.56778,240.70113,83,45,0
240.70113,240.83446,82,49,0
240.56778,240.83446,91,45,0
240.83446,241.09532,91,49,0
240.83446,241.09532,86,53,0
240.83446,241.09532,83,49,0
241.09532,241.22925,86,46,0
241.09532,241.22925,83,42,0
241.22925,241.36346,82,46,0
241.09532,241.36346,91,42,0
241.36346,241.63072,91,46,0
241.36346,241.63072,86,50,0
241.36346,241.63072,83,46,0
241.63072,241.76848,86,44,0
241.63072,241.76848,83,40,0
241.76848,241.90625,82,42,0
241.63072,241.90625,91,40,0
241.90625,242.18019,91,44,0
241.90625,242.18019,86,48,0
241.90625,242.18019,83,44,0
242.18019,242.31982,86,41,0
242.18019,242.31982,83,38,0
242.31982,242.45944,82,40,0
242.18019,242.45944,91,38,0
242.45944,245.19101,91,37,0
242.45944,245.19101,86,33,0
242.45944,245.19101,83,33,0
245.19101,245.78801,95,92,0
245.19101,245.78801,83,81,0
245.19101,245.78801,86,81,0
245.19101,245.78801,91,92,0
245.78801,247.57906,55,99,0
0.0,0.803571,55,41,0
0.0,0.803571,43,35,0
0.803571,1.071428,50,36,0
0.803571,1.071428,38,29,0
1.071428,1.339285,57,39,0
1.071428,1.339285,45,33,0
1.339285,1.616447,50,44,0
1.339285,1.616447,38,37,0
1.616447,2.420018,55,47,0
1.616447,2.420018,43,39,0
2.420018,2.6914866,50,45,0
2.420018,2.6914866,38,38,0
2.6914866,2.9674754,57,41,0
2.6914866,2.9674754,45,35,0
2.9674754,3.2587376,50,39,0
2.9674754,3.2587376,38,33,0
3.5365155,3.6728792,50,44,0
3.6728792,3.809243,52,44,0
3.809243,3.948132,50,47,0
4.087021,4.22591,50,44,0
3.2587376,4.364799,55,41,0
3.2587376,4.364799,43,35,0
4.6400285,4.926793,50,41,0
4.364799,4.926793,57,41,0
4.364799,4.926793,43,35,0
5.207167,5.3429136,50,44,0
5.3429136,5.47866,52,44,0
5.47866,5.617549,50,47,0
5.756438,5.895327,50,44,0
4.926793,6.034216,59,41,0
4.926793,6.034216,43,41,0
6.317235,6.611699,50,36,0
6.034216,6.611699,57,41,0
6.034216,6.611699,43,35,0
6.8977947,7.040842,50,39,0
7.040842,7.18389,52,39,0
7.18389,7.3288455,50,41,0
7.473801,7.6153107,50,39,0
6.611699,7.75682,55,37,0
6.611699,7.75682,43,30,0
8.045115,8.33341,50,37,0
7.75682,8.33341,54,37,0
7.75682,8.33341,43,37,0
8.629122,8.776978,50,44,0
8.776978,8.924418,52,44,0
8.924418,9.068732,50,47,0
9.213046,9.361297,50,44,0
8.33341,9.509547,55,41,0
8.33341,9.509547,43,35,0
9.799868,10.117826,50,41,0
9.509547,10.117826,57,41,0
9.509547,10.117826,43,37,0
10.396688,10.531824,50,48,0
10.531824,10.666959,52,48,0
10.666959,10.805848,50,50,0
10.944737,11.083626,50,48,0
10.117826,11.222515,55,46,0
10.117826,11.222515,43,38,0
11.497302,11.783439,50,41,0
11.222515,11.783439,57,41,0
11.222515,11.783439,43,35,0
12.062301,12.197435,50,44,0
12.197435,12.332571,52,44,0
12.332571,12.47146,50,47,0
12.610349,12.749238,50,44,0
11.783439,12.888127,59,41,0
11.783439,12.888127,43,41,0
13.169817,13.459672,50,36,0
12.888127,13.459672,57,41,0
12.888127,13.459672,43,35,0
13.745768,13.888815,50,39,0
13.888815,14.031863,52,39,0
14.031863,14.176819,50,41,0
14.321774,14.463284,50,39,0
13.459672,14.604793,55,37,0
13.459672,14.604793,43,30,0
14.893088,15.181383,50,37,0
14.604793,15.181383,54,37,0
14.604793,15.181383,43,37,0
15.477095,15.624951,50,44,0
15.624951,15.772391,52,44,0
15.772391,15.916705,50,47,0
16.061018,16.20927,50,44,0
15.181383,16.357521,55,41,0
15.181383,16.357521,43,35,0
16.64784,16.947922,50,41,0
16.357521,16.947922,57,41,0
16.357521,16.947922,43,35,0
17.229612,17.365358,50,49,0
17.365358,17.501106,51,49,0
17.501106,17.639996,50,52,0
17.778883,17.917772,50,49,0
16.947922,18.056662,58,48,0
16.947922,18.056662,43,39,0
18.330635,18.61677,53,44,0
18.056662,18.61677,63,44,0
18.056662,18.61677,41,36,0
18.895632,19.030767,53,46,0
19.030767,19.165903,55,46,0
19.165903,19.304152,53,49,0
19.4424,19.580648,53,46,0
18.61677,19.718897,62,44,0
18.61677,19.718897,46,44,0
20.007193,20.301657,53,37,0
19.718897,20.301657,63,44,0
19.718897,20.301657,46,36,0
20.578154,20.716402,53,46,0
20.716402,20.854652,55,46,0
20.854652,20.991014,53,49,0
21.127378,21.261307,53,46,0
20.301657,21.395237,62,44,0
20.301657,21.395237,46,36,0
21.677351,21.960722,53,44,0
21.395237,21.960722,63,44,0
21.395237,21.960722,46,36,0
22.2385,22.37739,53,46,0
22.37739,22.518898,55,46,0
22.518898,22.654646,53,49,0
22.790392,22.928007,53,46,0
21.960722,23.06562,62,44,0
21.960722,23.06562,46,36,0
23.348816,23.640347,53,38,0
23.06562,23.640347,63,40,0
23.06562,23.640347,46,40,0
23.919209,24.05864,53,39,0
24.05864,24.19807,55,39,0
24.19807,24.337502,53,44,0
24.476933,24.616364,53,39,0
23.640347,24.755795,62,42,0
23.640347,24.755795,46,35,0
24.755795,25.040424,57,39,0
25.040424,25.331888,50,39,0
24.755795,25.331888,45,31,0
25.331888,25.61075,55,42,0
25.61075,25.750181,55,39,0
25.750181,25.889612,56,39,0
25.889612,26.029434,55,44,0
26.169254,26.312208,55,39,0
25.331888,26.45516,43,35,0
26.45516,26.734022,55,39,0
26.734022,27.022602,57,39,0
26.45516,27.022602,48,31,0
27.022602,27.301464,59,42,0
27.301464,27.442522,62,39,0
27.442522,27.583578,64,39,0
27.583578,27.729805,62,44,0
27.876034,28.018986,62,39,0
27.022602,28.161938,50,35,0
28.161938,28.44913,60,39,0
28.44913,28.746544,60,37,0
28.161938,28.746544,50,31,0
28.746544,29.557487,59,41,0
28.746544,29.557487,43,35,0
29.557487,29.825344,50,36,0
29.557487,29.825344,38,29,0
29.825344,30.093203,57,39,0
29.825344,30.093203,45,33,0
30.093203,30.370363,50,44,0
30.093203,30.370363,38,37,0
30.370363,31.173935,55,47,0
30.370363,31.173935,43,39,0
31.173935,31.445404,50,45,0
31.173935,31.445404,38,38,0
31.445404,31.71326,57,41,0
31.445404,31.71326,45,35,0
31.71326,31.985989,50,39,0
31.71326,31.985989,38,33,0
31.985989,32.118145,55,47,0
31.985989,32.118145,43,39,0
32.51462,32.646782,55,47,0
33.046795,33.1778,62,41,0
33.57547,33.705906,67,47,0
34.09721,34.227646,71,47,0
34.623566,34.754,74,41,0
35.141945,35.271816,79,41,0
35.661427,35.791298,79,39,0
36.18091,36.31078,79,38,0
36.707314,36.83775,79,36,0
37.236332,37.369072,79,34,0
37.779114,37.916485,79,31,0
38.33231,38.583527,79,31,0
38.583527,38.710587,43,49,0
38.710587,38.83913,43,42,0
38.83913,38.96962,43,49,0
38.96962,39.100563,43,42,0
39.100563,39.233555,43,49,0
39.233555,39.36763,43,42,0
39.36763,39.504787,43,49,0
39.504787,39.644833,43,42,0
39.644833,39.781345,43,49,0
39.781345,39.91852,43,42,0
39.91852,40.190033,43,49,0
40.190033,40.326546,43,42,0
40.326546,40.46316,43,42,0
40.46316,40.734867,43,45,0
40.734867,40.872272,43,40,0
40.872272,41.01095,43,40,0
41.01095,41.291767,43,44,0
41.291767,41.599693,43,38,0
41.881382,42.015312,46,56,0
42.015312,42.149242,48,56,0
42.149242,42.288128,46,59,0
42.427017,42.565907,46,56,0
41.599693,42.704796,51,58,0
41.599693,42.704796,39,48,0
42.980026,43.266792,46,53,0
42.704796,43.266792,53,53,0
42.704796,43.266792,39,44,0
43.545654,43.680183,46,56,0
43.680183,43.814713,48,56,0
43.814713,43.9536,46,59,0
44.092487,44.231377,46,56,0
43.266792,44.370266,55,53,0
43.266792,44.370266,39,53,0
44.65463,44.94309,46,46,0
44.370266,44.94309,53,53,0
44.370266,44.94309,39,44,0
45.229183,45.37223,46,50,0
45.37223,45.515278,48,50,0
45.515278,45.660236,46,53,0
45.80519,45.946037,46,44,0
44.94309,46.08688,51,47,0
44.94309,46.08688,39,39,0
46.375175,46.66347,46,41,0
46.08688,46.66347,50,41,0
46.08688,46.66347,39,41,0
46.959183,47.10704,46,49,0
47.10704,47.25448,48,49,0
47.25448,47.398792,46,52,0
47.543106,47.691357,46,49,0
46.66347,47.839607,51,47,0
46.66347,47.839607,39,39,0
48.12993,48.44372,46,47,0
47.839607,48.44372,53,47,0
47.839607,48.44372,39,41,0
48.722584,48.85651,46,56,0
48.85651,48.99044,48,56,0
48.99044,49.12933,46,59,0
49.26822,49.40711,46,56,0
48.44372,49.545994,51,58,0
48.44372,49.545994,39,48,0
49.81997,50.106106,46,53,0
49.545994,50.106106,53,53,0
49.545994,50.106106,39,44,0
50.384968,50.5201,46,56,0
50.5201,50.655235,48,56,0
50.655235,50.794125,46,59,0
50.933014,51.08128,46,56,0
50.106106,51.229546,55,53,0
50.106106,51.229546,39,53,0
51.51784,51.812305,45,39,0
51.229546,51.812305,51,50,0
51.229546,51.812305,39,41,0
52.0984,52.241447,45,42,0
52.241447,52.384495,47,42,0
52.384495,52.52945,45,46,0
52.674404,52.815914,45,39,0
51.812305,52.957424,50,39,0
51.812305,52.957424,38,34,0
53.24572,53.534016,45,37,0
52.957424,53.534016,52,37,0
52.957424,53.534016,38,37,0
53.829727,53.977585,45,46,0
53.977585,54.125023,47,46,0
54.125023,54.269337,45,49,0
54.41365,54.5619,45,47,0
53.534016,54.71015,50,42,0
53.534016,54.71015,38,36,0
55.000473,55.314266,45,46,0
54.71015,55.314266,52,45,0
54.71015,55.314266,38,39,0
55.59313,55.728264,45,56,0
55.728264,55.863396,47,56,0
55.863396,56.002285,45,59,0
56.141174,56.280064,45,56,0
55.314266,56.418953,50,58,0
55.314266,56.418953,38,48,0
56.694183,56.980946,45,53,0
56.418953,56.980946,52,53,0
56.418953,56.980946,38,44,0
57.259808,57.396786,45,56,0
57.396786,57.53253,47,56,0
57.53253,57.67142,45,59,0
57.810307,57.949196,45,56,0
56.980946,58.088085,54,53,0
56.980946,58.088085,38,53,0
58.372448,58.666912,45,46,0
58.088085,58.666912,52,53,0
58.088085,58.666912,38,44,0
58.953007,59.096054,45,50,0
59.096054,59.2391,47,50,0
59.2391,59.384056,45,53,0
59.52901,59.6692,45,44,0
58.666912,59.809387,50,47,0
58.666912,59.809387,38,39,0
60.097683,60.385975,45,41,0
59.809387,60.385975,52,41,0
59.809387,60.385975,38,41,0
60.68169,60.829544,45,49,0
60.829544,60.976986,47,49,0
60.976986,61.1213,45,52,0
61.265614,61.413864,45,49,0
60.385975,61.562115,50,47,0
60.385975,61.562115,38,39,0
61.852432,62.166225,45,47,0
61.562115,62.166225,52,47,0
61.562115,62.166225,38,41,0
62.445087,62.578423,45,60,0
62.578423,62.711754,47,60,0
62.711754,62.850643,45,64,0
62.989532,63.12842,45,60,0
62.166225,63.26731,50,63,0
62.166225,63.26731,38,52,0
63.54254,63.829304,45,58,0
63.26731,63.829304,52,58,0
63.26731,63.829304,40,48,0
64.10817,64.2433,45,60,0
64.2433,64.37844,47,60,0
64.37844,64.51733,45,64,0
64.65621,64.795105,45,60,0
63.829304,64.93399,54,58,0
63.829304,64.93399,42,58,0
65.21568,65.501396,45,50,0
64.93399,65.501396,52,58,0
64.93399,65.501396,40,48,0
65.78026,65.91969,45,60,0
65.91969,66.05912,47,60,0
66.05912,66.198555,45,64,0
66.33798,66.47967,45,61,0
65.501396,66.62135,54,58,0
65.501396,66.62135,42,58,0
66.9138,67.20827,45,46,0
66.62135,67.20827,51,58,0
66.62135,67.20827,39,48,0
67.20827,67.311005,63,33,0
67.34525,67.448,65,35,0
67.48224,67.58641,67,37,0
67.62113,67.725296,69,38,0
67.76002,67.86276,67,40,0
67.897,67.99975,69,38,0
68.03399,68.13816,67,38,0
68.17288,68.27705,65,38,0
68.31177,68.41267,63,40,0
68.4463,68.547195,65,37,0
68.580826,68.68357,63,37,0
68.71781,68.82056,62,37,0
68.8548,68.955696,60,34,0
68.98933,69.090225,62,36,0
69.123856,69.226135,63,37,0
69.26022,69.362495,65,38,0
69.39658,69.49703,63,40,0
69.53052,69.63096,65,37,0
69.664444,69.766716,63,37,0
69.800804,69.90303,62,37,0
69.936966,70.03877,60,40,0
70.07271,70.174065,62,37,0
70.20785,70.30875,60,37,0
70.34238,70.44302,58,37,0
70.4765,70.576706,57,36,0
70.61004,70.709984,58,37,0
70.74317,70.84268,60,38,0
70.875725,70.97479,62,40,0
71.00769,71.10618,63,40,0
71.13908,71.23849,62,38,0
71.27182,71.372116,60,38,0
71.40575,71.50715,58,38,0
71.54109,71.64362,57,40,0
71.677864,71.781395,58,38,0
71.81612,71.920555,57,38,0
71.95544,72.06087,55,38,0
72.09614,72.38882,50,69,0
72.09614,72.38882,38,58,0
72.38882,72.67318,50,58,0
72.38882,72.67318,62,69,0
72.67318,72.957535,57,72,0
72.67318,72.957535,45,60,0
72.957535,73.24739,54,69,0
72.957535,73.24739,42,58,0
73.24739,73.53725,49,81,0
73.24739,73.53725,37,68,0
73.53725,73.82837,61,69,0
73.53725,73.82837,55,58,0
73.53725,73.82837,49,58,0
73.82837,74.12105,50,69,0
73.82837,74.12105,38,58,0
74.12105,74.413734,50,58,0
74.12105,74.413734,62,69,0
74.413734,74.71224,57,72,0
74.413734,74.71224,45,60,0
74.71224,75.01582,54,69,0
74.71224,75.01582,42,58,0
75.01582,75.319405,49,81,0
75.01582,75.319405,37,68,0
75.319405,75.622986,61,69,0
75.319405,75.622986,55,58,0
75.319405,75.622986,49,58,0
75.622986,76.44622,50,61,0
75.622986,76.44622,38,51,0
76.44622,76.71895,45,52,0
76.44622,76.71895,33,44,0
76.71895,76.99168,52,58,0
76.71895,76.99168,40,48,0
76.99168,77.27756,45,64,0
76.99168,77.27756,33,53,0
77.27756,78.09203,50,68,0
77.27756,78.09203,38,57,0
78.09203,78.37204,45,66,0
78.09203,78.37204,33,55,0
78.37204,78.65672,52,61,0
78.37204,78.65672,40,51,0
78.65672,78.95373,45,57,0
78.65672,78.95373,33,48,0
78.95373,79.250725,38,57,0
79.250725,79.39497,50,60,0
79.39497,79.539215,50,61,0
79.539215,79.68281,50,61,0
79.68281,79.82641,50,62,0
79.82641,79.96936,50,63,0
79.96936,80.11231,50,64,0
80.11231,80.25463,50,66,0
80.25463,80.39652,50,67,0
80.39652,80.54144,50,68,0
80.54144,80.68872,50,68,0
80.68872,80.96957,50,68,0
80.68872,80.96957,38,57,0
80.96957,81.109985,50,62,0
80.96957,81.109985,38,52,0
81.109985,81.25041,50,62,0
81.109985,81.25041,38,52,0
81.25041,81.53189,50,68,0
81.25041,81.53189,38,57,0
81.53189,81.67378,50,61,0
81.53189,81.67378,38,51,0
81.67378,81.816315,50,61,0
81.67378,81.816315,38,51,0
81.816315,82.10372,50,68,0
81.816315,82.10372,38,57,0
82.10372,82.24862,50,61,0
82.10372,82.24862,38,51,0
82.24862,82.360176,50,61,0
82.24862,82.360176,38,51,0
82.398705,83.3126,55,68,0
82.379074,83.3126,50,57,0
82.360176,83.3126,43,57,0
83.3126,83.58287,50,47,0
83.3126,83.58287,38,39,0
83.58287,83.85314,57,51,0
83.58287,83.85314,45,42,0
83.85314,84.1303,50,55,0
83.85314,84.1303,38,46,0
84.1303,84.93874,55,58,0
84.1303,84.93874,43,48,0
84.93874,85.21021,50,52,0
84.93874,85.21021,38,45,0
85.21021,85.4862,57,48,0
85.21021,85.4862,45,40,0
85.4862,85.777466,50,44,0
85.4862,85.777466,38,37,0
86.05915,86.18959,50,49,0
86.18959,86.32002,52,49,0
86.32002,86.458916,50,52,0
86.5978,86.736694,50,49,0
85.777466,86.87558,55,47,0
85.777466,86.87558,43,39,0
87.14955,87.43569,50,47,0
86.87558,87.43569,57,47,0
86.87558,87.43569,43,39,0
87.714554,87.84556,50,49,0
87.84556,87.976555,52,49,0
87.976555,88.11545,50,52,0
88.25433,88.39323,50,49,0
87.43569,88.53211,59,47,0
87.43569,88.53211,43,47,0
88.81513,89.1096,50,40,0
88.53211,89.1096,57,47,0
88.53211,89.1096,43,39,0
89.39569,89.53874,50,44,0
89.53874,89.681786,52,44,0
89.681786,89.826744,50,47,0
89.9717,90.11321,50,44,0
89.1096,90.254715,55,41,0
89.1096,90.254715,43,35,0
90.543015,90.83131,50,41,0
90.254715,90.83131,54,41,0
90.254715,90.83131,43,41,0
91.12702,91.27488,50,49,0
91.27488,91.42232,52,49,0
91.42232,91.56663,50,52,0
91.710945,91.85919,50,49,0
90.83131,92.00745,55,47,0
90.83131,92.00745,43,39,0
92.29777,92.61572,50,47,0
92.00745,92.61572,57,47,0
92.00745,92.61572,43,41,0
92.894585,93.02446,50,53,0
93.02446,93.15433,52,53,0
93.15433,93.29321,50,57,0
93.432106,93.57099,50,53,0
92.61572,93.709885,55,51,0
92.61572,93.709885,43,42,0
93.98261,94.26813,50,47,0
93.709885,94.26813,57,47,0
93.709885,94.26813,43,39,0
94.54699,94.67973,50,49,0
94.67973,94.81247,52,49,0
94.81247,94.95136,50,52,0
95.09025,95.22914,50,49,0
94.26813,95.36803,59,47,0
94.26813,95.36803,43,47,0
95.64972,95.939575,50,40,0
95.36803,95.939575,57,47,0
95.36803,95.939575,43,39,0
96.22567,96.36872,50,44,0
96.36872,96.511765,52,44,0
96.511765,96.65672,50,47,0
96.801674,96.943184,50,44,0
95.939575,97.084694,55,41,0
95.939575,97.084694,43,35,0
97.37299,97.661285,50,41,0
97.084694,97.661285,54,41,0
97.084694,97.661285,43,41,0
97.957,98.10485,50,49,0
98.10485,98.2523,52,49,0
98.2523,98.39661,50,52,0
98.540924,98.68917,50,49,0
97.661285,98.837425,55,47,0
97.661285,98.837425,43,39,0
99.12774,99.427826,50,47,0
98.837425,99.427826,57,47,0
98.837425,99.427826,43,39,0
99.70669,99.84002,50,56,0
99.84002,99.97335,51,56,0
99.97335,100.11224,50,59,0
100.25113,100.39002,50,56,0
99.427826,100.52891,58,53,0
99.427826,100.52891,43,44,0
100.80288,101.08902,53,49,0
100.52891,101.08902,63,49,0
100.52891,101.08902,41,40,0
101.36788,101.50181,53,51,0
101.50181,101.635735,55,51,0
101.635735,101.77463,53,55,0
101.91351,102.05241,53,51,0
101.08902,102.19129,62,49,0
101.08902,102.19129,46,49,0
102.47959,102.774055,53,41,0
102.19129,102.774055,63,49,0
102.19129,102.774055,46,40,0
103.05055,103.1888,53,51,0
103.1888,103.32705,55,51,0
103.32705,103.46341,53,55,0
103.59978,103.7337,53,51,0
102.774055,103.86763,62,49,0
102.774055,103.86763,46,40,0
104.14974,104.43312,53,49,0
103.86763,104.43312,63,49,0
103.86763,104.43312,46,40,0
104.71089,104.849785,53,51,0
104.849785,104.991295,55,51,0
104.991295,105.12704,53,55,0
105.26279,105.4004,53,51,0
104.43312,105.53802,62,49,0
104.43312,105.53802,46,40,0
105.82121,106.11274,53,42,0
105.53802,106.11274,63,46,0
105.53802,106.11274,46,46,0
106.3916,106.52376,53,44,0
106.52376,106.65592,55,44,0
106.65592,106.79481,53,49,0
106.9337,107.072586,53,45,0
106.11274,107.21148,62,48,0
106.11274,107.21148,46,39,0
107.21148,107.49611,57,44,0
107.49611,107.78757,50,44,0
107.21148,107.78757,45,36,0
107.78757,108.06643,55,48,0
108.06643,108.205864,55,44,0
108.205864,108.34529,56,44,0
108.34529,108.485115,55,49,0
108.62494,108.76789,55,45,0
107.78757,108.91084,43,39,0
108.91084,109.189705,55,44,0
109.189705,109.47829,57,44,0
108.91084,109.47829,48,36,0
109.47829,109.75715,59,48,0
109.75715,109.8982,62,44,0
109.8982,110.03926,64,44,0
110.03926,110.185486,62,49,0
110.33172,110.47467,62,45,0
109.47829,110.61762,50,39,0
110.61762,110.90481,60,44,0
110.90481,111.202225,60,41,0
110.61762,111.202225,50,36,0
111.202225,112.01557,59,47,0
111.202225,112.01557,43,39,0
112.01557,112.28463,50,40,0
112.01557,112.28463,38,34,0
112.28463,112.55369,57,45,0
112.28463,112.55369,45,37,0
112.55369,112.83085,50,49,0
112.55369,112.83085,38,41,0
112.83085,113.63442,55,52,0
112.83085,113.63442,43,44,0
113.63442,113.90589,50,50,0
113.63442,113.90589,38,42,0
113.90589,114.17375,57,47,0
113.90589,114.17375,45,39,0
114.17375,114.44648,50,44,0
114.17375,114.44648,38,37,0
114.44648,114.578636,55,52,0
114.44648,114.578636,43,44,0
114.97511,115.10727,55,52,0
115.507286,115.63829,62,47,0
116.03596,116.1664,67,52,0
116.5577,116.68813,71,52,0
117.08405,117.214485,74,47,0
117.60243,117.73231,79,47,0
118.12192,118.251785,79,45,0
118.641396,118.77126,79,42,0
119.1678,119.29824,79,40,0
119.696815,119.82956,79,38,0
120.2396,120.37697,79,36,0
120.7928,121.05571,79,34,0
121.05571,121.188065,43,45,0
121.188065,121.31937,43,39,0
121.31937,121.45231,43,45,0
121.45231,121.585655,43,39,0
121.585655,121.71911,43,45,0
121.71911,121.85512,43,39,0
121.85512,121.992355,43,45,0
121.992355,122.13241,43,39,0
122.13241,122.26891,43,45,0
122.26891,122.40649,43,39,0
122.40649,122.690094,43,45,0
122.690094,122.83596,43,39,0
122.83596,122.984726,43,39,0
122.984726,123.2909,43,41,0
123.2909,123.44881,43,37,0
123.44881,123.60909,43,37,0
123.60909,123.96203,43,40,0
123.96203,124.33013,43,35,0
124.33013,124.69823,43,40,0
126.86665,127.21754,60,42,0
127.21754,127.56841,62,47,0
127.56841,127.91929,63,44,0
127.91929,128.25395,65,42,0
128.25395,128.59744,68,46,0
128.59744,129.41328,72,51,0
129.41328,129.57092,70,44,0
129.57092,129.72858,68,45,0
129.72858,129.88622,67,42,0
129.88622,130.04855,65,45,0
130.04855,130.21089,67,42,0
130.21089,130.37007,68,44,0
130.37007,130.52924,65,41,0
130.52924,130.69157,67,48,0
130.69157,130.84921,68,44,0
130.84921,131.00687,67,46,0
131.00687,131.16603,65,39,0
131.16603,131.32292,63,44,0
131.32292,131.48262,65,41,0
131.48262,131.64525,63,42,0
131.64525,131.81117,62,38,0
131.81117,131.97852,60,44,0
131.97852,132.14584,62,40,0
132.14584,132.31319,63,44,0
132.31319,132.49753,67,40,0
132.49753,132.87042,67,44,0
132.87042,133.21942,41,44,0
133.21942,133.56842,68,44,0
133.56842,133.73492,65,44,0
133.73492,133.90143,63,39,0
133.21942,134.06793,62,38,0
133.90143,134.06793,62,45,0
134.06793,134.23442,63,40,0
134.23442,134.4035,65,40,0
134.4035,134.57257,68,40,0
133.21942,134.57257,60,38,0
134.57257,134.67567,67,42,0
134.67567,134.77878,68,35,0
134.77878,134.88188,67,35,0
134.88188,135.04752,65,40,0
135.04752,135.21315,63,38,0
135.21315,135.37878,62,39,0
135.37878,135.54442,63,39,0
135.54442,135.71617,65,40,0
135.71617,135.88791,67,35,0
135.88791,135.9956,65,41,0
135.9956,136.10332,67,31,0
136.10332,136.21101,65,31,0
136.21101,136.37923,63,33,0
136.37923,136.54744,62,30,0
135.88791,136.54744,55,33,0
136.54744,136.92035,60,35,0
136.54744,136.92035,48,29,0
136.92035,137.09866,53,44,0
137.09866,137.27698,55,40,0
137.27698,137.44963,53,44,0
137.44963,137.62228,55,41,0
137.62228,137.79494,56,41,0
137.79494,137.96759,58,46,0
137.96759,138.1358,60,49,0
138.1358,138.30403,56,46,0
138.30403,138.48235,55,47,0
138.48235,138.66066,53,44,0
138.66066,139.00351,43,56,0
139.00351,139.35524,55,47,0
139.35524,139.68991,43,56,0
139.68991,140.03365,55,46,0
140.03365,140.37532,43,56,0
140.37532,140.71701,55,46,0
140.71701,141.0587,48,56,0
140.71701,141.0587,36,47,0
141.0587,141.41147,60,46,0
141.41147,141.76425,62,56,0
141.76425,142.11702,63,53,0
142.11702,142.45003,65,58,0
142.45003,142.7917,68,55,0
142.7917,143.61023,75,64,0
143.61023,143.76787,74,52,0
143.76787,143.92552,72,53,0
143.92552,144.08316,70,50,0
144.08316,144.19139,72,53,0
144.19139,144.2996,74,53,0
144.2996,144.40784,72,53,0
144.40784,144.5678,70,52,0
144.5678,144.72777,68,49,0
144.72777,144.89684,70,57,0
144.89684,145.05525,72,52,0
145.05525,145.21367,70,55,0
145.21367,145.37683,68,46,0
145.37683,145.69524,67,52,0
145.69524,145.85922,65,50,0
145.85922,146.02686,67,45,0
146.02686,146.19418,68,52,0
146.19418,146.36153,70,48,0
146.36153,146.52885,72,52,0
146.52885,146.7132,68,48,0
146.7132,146.81984,67,57,0
146.81984,146.92648,68,50,0
146.92648,147.03313,67,50,0
147.03313,147.1963,65,52,0
147.1963,147.36626,67,56,0
147.36626,147.69753,63,57,0
147.69753,147.86316,62,56,0
147.86316,148.0288,63,52,0
148.0288,148.13544,65,60,0
148.13544,148.24208,67,52,0
148.24208,148.34872,65,52,0
148.34872,148.51106,63,57,0
148.51106,148.68015,65,52,0
148.68015,148.78679,62,57,0
148.78679,148.89343,63,50,0
148.89343,149.00008,62,50,0
149.00008,149.16324,60,52,0
149.16324,149.33319,63,56,0
149.33319,149.65953,62,57,0
149.65953,149.8227,60,56,0
149.8227,149.98586,62,52,0
149.98586,150.14427,63,60,0
150.14427,150.30269,65,60,0
150.30269,150.46503,67,57,0
150.46503,150.6341,68,52,0
150.6341,150.7392,65,57,0
150.7392,150.84454,67,50,0
150.84454,150.95015,65,49,0
150.95015,151.05626,63,57,0
151.05626,151.16264,65,49,0
151.16264,151.26955,63,49,0
151.26955,151.3767,62,56,0
151.3767,151.4844,63,48,0
151.4844,151.59236,62,48,0
151.59236,151.70087,60,55,0
151.70087,151.80965,62,48,0
151.80965,151.91896,60,47,0
151.91896,152.02855,58,53,0
152.02855,152.1387,60,47,0
152.1387,152.24913,58,47,0
152.24913,152.36012,56,52,0
152.36012,152.4714,58,46,0
152.4714,152.58325,56,46,0
152.58325,152.95616,55,53,0
152.95616,153.31279,43,46,0
153.31279,153.48544,50,56,0
153.48544,153.6581,52,51,0
153.6581,153.83075,54,51,0
153.83075,154.0034,55,57,0
154.0034,154.17162,57,61,0
154.17162,154.33984,59,57,0
154.33984,154.51816,60,58,0
154.51816,154.69647,57,55,0
154.69647,155.0413,38,56,0
155.0413,155.39403,50,47,0
155.39403,155.73393,38,56,0
155.73393,156.09035,50,46,0
156.09035,156.44504,38,56,0
156.44504,156.83823,50,46,0
156.83823,157.56111,43,56,0
159.0069,159.54907,44,42,0
159.54907,159.72348,53,37,0
159.72348,160.07233,60,41,0
160.07233,160.42856,62,39,0
160.42856,161.12624,68,39,0
161.12624,161.65993,44,42,0
161.65993,161.83435,53,37,0
161.83435,162.19363,60,41,0
162.19363,162.54247,62,39,0
162.54247,163.2505,68,39,0
163.2505,163.79268,43,42,0
163.79268,163.9734,50,37,0
163.9734,164.33484,55,41,0
164.33484,164.7007,59,31,0
164.7007,165.06656,62,36,0
165.06656,165.4324,67,31,0
165.4324,167.6535,71,42,0
167.6535,168.19568,44,42,0
168.19568,168.37009,53,37,0
168.37009,168.71893,60,41,0
168.71893,169.07516,62,39,0
169.07516,169.77565,68,39,0
169.77565,170.30934,44,42,0
170.30934,170.48376,53,37,0
170.48376,170.84305,60,41,0
170.84305,171.19188,62,39,0
171.19188,171.89992,68,48,0
171.89992,172.24083,55,59,0
171.89992,172.24083,43,59,0
172.24083,172.40286,53,53,0
172.56491,172.72974,56,59,0
172.89458,173.05573,50,52,0
173.21689,173.37993,53,59,0
173.54297,173.70209,47,52,0
173.8612,174.02336,50,62,0
174.18553,174.34378,44,56,0
174.50201,174.66505,48,59,0
174.82811,174.98634,41,52,0
175.14459,175.30763,44,59,0
175.47069,175.62723,38,52,0
175.78377,175.95111,43,62,0
176.11844,176.27498,53,56,0
176.43153,176.59512,56,59,0
176.75871,176.9136,50,52,0
177.06851,177.23029,53,59,0
177.39206,177.54695,47,52,0
177.70184,177.86183,50,62,0
178.02182,178.17754,44,56,0
178.33325,178.49413,48,59,0
178.655,178.81071,41,52,0
178.96643,179.1273,44,59,0
179.28818,179.44472,38,52,0
179.60126,179.91003,43,59,0
179.91003,180.06793,43,54,0
180.06793,180.22836,43,54,0
180.22836,180.3914,43,55,0
180.3914,180.55563,43,51,0
180.55563,180.72017,43,50,0
180.72017,180.88562,43,49,0
180.88562,181.05197,43,51,0
181.05197,181.21927,43,47,0
181.21927,181.3875,43,49,0
181.3875,181.55666,43,45,0
181.55666,181.89725,43,47,0
183.92973,184.28061,60,42,0
184.28061,184.63148,62,47,0
184.63148,184.98236,63,44,0
184.98236,185.31705,65,42,0
185.31705,185.66052,68,46,0
185.66052,186.47636,72,51,0
186.47636,186.634,70,44,0
186.634,186.79166,68,45,0
186.79166,186.9493,67,42,0
186.9493,187.11163,65,45,0
187.11163,187.27397,67,42,0
187.27397,187.43315,68,44,0
187.43315,187.59232,65,41,0
187.59232,187.75465,67,48,0
187.75465,187.9123,68,44,0
187.9123,188.06995,67,46,0
188.06995,188.22911,65,39,0
188.22911,188.386,63,44,0
188.386,188.5457,65,41,0
188.5457,188.70833,63,42,0
188.70833,188.87425,62,38,0
188.87425,189.0416,60,44,0
189.0416,189.20892,62,40,0
189.20892,189.37627,63,44,0
189.37627,189.56061,67,40,0
189.56061,189.9335,67,44,0
189.9335,190.2825,41,44,0
190.2825,190.6315,68,44,0
190.6315,190.798,65,44,0
190.798,190.96451,63,39,0
190.2825,191.13101,62,38,0
190.96451,191.13101,62,45,0
191.13101,191.2975,63,40,0
191.2975,191.46658,65,40,0
191.46658,191.63565,68,40,0
190.2825,191.63565,60,38,0
191.63565,191.73875,67,42,0
191.73875,191.84186,68,35,0
191.84186,191.94496,67,35,0
191.94496,192.1106,65,40,0
192.1106,192.27623,63,38,0
192.27623,192.44186,62,39,0
192.44186,192.6075,63,39,0
192.6075,192.77925,65,40,0
192.77925,192.95099,67,35,0
192.95099,193.05869,65,41,0
193.05869,193.1664,67,31,0
193.1664,193.2741,65,31,0
193.2741,193.4423,63,33,0
193.4423,193.61052,62,30,0
192.95099,193.61052,55,33,0
193.61052,193.98343,60,35,0
193.61052,193.98343,48,29,0
193.98343,194.16174,53,44,0
194.16174,194.34006,55,40,0
194.34006,194.51271,53,44,0
194.51271,194.68536,55,41,0
194.68536,194.85802,56,41,0
194.85802,195.03067,58,46,0
195.03067,195.19888,60,49,0
195.19888,195.36711,56,46,0
195.36711,195.54543,55,47,0
195.54543,195.72374,53,44,0
195.72374,196.05524,43,56,0
196.05524,196.39929,55,47,0
196.39929,196.73396,43,56,0
196.73396,197.07768,55,46,0
197.07768,197.41937,43,56,0
197.41937,197.76878,55,46,0
197.76878,199.35204,48,61,0
197.76878,199.35204,36,61,0
199.35204,200.92575,49,67,0
199.35204,200.92575,37,67,0
200.92575,201.19008,50,62,0
200.92575,201.19008,38,52,0
201.45439,201.7187,38,62,0
201.45439,201.7187,50,62,0
201.98656,202.24857,50,57,0
201.98656,202.24857,38,57,0
202.51524,202.78673,50,64,0
202.51524,202.78673,38,55,0
203.05823,203.32971,38,60,0
203.05823,203.32971,50,60,0
203.61407,203.89186,50,66,0
203.61407,203.89186,38,66,0
203.89186,204.16963,50,61,0
203.89186,204.16963,38,61,0
204.16963,204.9732,55,58,0
204.16963,204.9732,43,49,0
204.9732,205.24106,50,50,0
204.9732,205.24106,38,41,0
205.24106,205.50891,57,56,0
205.24106,205.50891,45,46,0
205.50891,205.78609,50,61,0
205.50891,205.78609,38,51,0
205.78609,206.58965,55,64,0
205.78609,206.58965,43,55,0
206.58965,206.86111,50,62,0
206.58965,206.86111,38,52,0
206.86111,207.13712,57,58,0
206.86111,207.13712,45,49,0
207.13712,207.42838,50,55,0
207.13712,207.42838,38,46,0
207.70723,207.83998,50,49,0
207.83998,207.97272,52,49,0
207.97272,208.1116,50,52,0
208.2505,208.38939,50,49,0
207.42838,208.52827,55,47,0
207.42838,208.52827,43,39,0
208.80225,209.08838,50,47,0
208.52827,209.08838,57,47,0
208.52827,209.08838,43,39,0
209.36725,209.50058,50,49,0
209.50058,209.63391,52,49,0
209.63391,209.7728,50,52,0
209.9117,210.05058,50,49,0
209.08838,210.18947,59,47,0
209.08838,210.18947,43,47,0
210.47249,210.76695,50,40,0
210.18947,210.76695,57,47,0
210.18947,210.76695,43,39,0
211.05304,211.19609,50,44,0
211.19609,211.33914,52,44,0
211.33914,211.4841,50,47,0
211.62906,211.7699,50,44,0
210.76695,211.91074,55,41,0
210.76695,211.91074,43,35,0
212.19904,212.48734,50,41,0
211.91074,212.48734,54,41,0
211.91074,212.48734,43,41,0
212.78305,212.93091,50,49,0
212.93091,213.07834,52,49,0
213.07834,213.22266,50,52,0
213.36697,213.51521,50,49,0
212.48734,213.66347,55,47,0
212.48734,213.66347,43,39,0
213.9538,214.27174,50,47,0
213.66347,214.27174,57,47,0
213.66347,214.27174,43,41,0
214.55061,214.68454,50,53,0
214.68454,214.81847,52,53,0
214.81847,214.95735,50,57,0
215.09625,215.23514,50,53,0
214.27174,215.37402,55,51,0
214.27174,215.37402,43,42,0
215.648,215.93413,50,47,0
215.37402,215.93413,57,47,0
215.37402,215.93413,43,39,0
216.213,216.34752,50,49,0
216.34752,216.48206,52,49,0
216.48206,216.62094,50,52,0
216.75983,216.89873,50,49,0
215.93413,217.03761,59,47,0
215.93413,217.03761,43,47,0
217.3193,217.60916,50,40,0
217.03761,217.60916,57,47,0
217.03761,217.60916,43,39,0
217.89525,218.0383,50,44,0
218.0383,218.18135,52,44,0
218.18135,218.3263,50,47,0
218.47125,218.61276,50,44,0
217.60916,218.75427,55,41,0
217.60916,218.75427,43,35,0
219.04257,219.33087,50,41,0
218.75427,219.33087,54,41,0
218.75427,219.33087,43,41,0
219.62657,219.77443,50,49,0
219.77443,219.92188,52,49,0
219.92188,220.0662,50,52,0
220.2105,220.35875,50,49,0
219.33087,220.507,55,47,0
219.33087,220.507,43,39,0
220.79732,221.09741,50,47,0
220.507,221.09741,57,47,0
220.507,221.09741,43,39,0
221.37627,221.5108,50,56,0
221.5108,221.64532,51,56,0
221.64532,221.78421,50,59,0
221.92311,222.062,50,56,0
221.09741,222.20088,58,53,0
221.09741,222.20088,43,44,0
222.4736,222.75912,53,49,0
222.20088,222.75912,63,49,0
222.20088,222.75912,41,40,0
223.03798,223.17313,53,51,0
223.17313,223.30826,55,51,0
223.30826,223.44714,53,55,0
223.58603,223.72493,53,51,0
222.75912,223.86382,62,49,0
222.75912,223.86382,46,49,0
224.1521,224.44656,53,41,0
223.86382,224.44656,63,49,0
223.86382,224.44656,46,40,0
224.72307,224.86131,53,51,0
224.86131,224.99957,55,51,0
224.99957,225.13655,53,55,0
225.27354,225.40747,53,51,0
224.44656,225.5414,62,49,0
224.44656,225.5414,46,40,0
225.8235,226.10689,53,49,0
225.5414,226.10689,63,49,0
225.5414,226.10689,46,40,0
226.38466,226.52354,53,51,0
226.52354,226.66505,55,51,0
226.66505,226.8008,53,55,0
226.93655,227.07416,53,51,0
226.10689,227.21178,62,49,0
226.10689,227.21178,46,40,0
227.49498,227.7865,53,42,0
227.21178,227.7865,63,46,0
227.21178,227.7865,46,46,0
228.06537,228.19637,53,44,0
228.19637,228.32738,55,44,0
228.32738,228.46626,53,49,0
228.60515,228.74405,53,45,0
227.7865,228.88293,62,48,0
227.7865,228.88293,46,39,0
228.88293,229.16756,57,44,0
229.16756,229.45903,50,44,0
228.88293,229.45903,45,36,0
229.45903,229.73788,55,48,0
229.73788,229.87732,55,44,0
229.87732,230.01675,56,44,0
230.01675,230.15657,55,49,0
230.29639,230.43935,55,45,0
229.45903,230.58229,43,39,0
230.58229,230.86116,55,44,0
230.86116,231.14973,57,44,0
230.58229,231.14973,48,36,0
231.14973,231.4286,59,48,0
231.4286,231.56966,62,44,0
231.56966,231.71071,64,44,0
231.71071,231.85695,62,49,0
232.00317,232.14612,62,45,0
231.14973,232.28908,50,39,0
232.28908,232.57626,60,44,0
232.57626,232.87369,60,41,0
232.28908,232.87369,50,36,0
232.87369,233.68463,59,47,0
232.87369,233.68463,43,39,0
233.68463,233.95248,50,40,0
233.68463,233.95248,38,34,0
233.95248,234.22034,57,45,0
233.95248,234.22034,45,37,0
234.22034,234.4975,50,49,0
234.22034,234.4975,38,41,0
234.4975,235.30107,55,52,0
234.4975,235.30107,43,44,0
235.30107,235.57254,50,50,0
235.30107,235.57254,38,42,0
235.57254,235.8404,57,47,0
235.57254,235.8404,45,39,0
235.8404,236.11313,50,44,0
235.8404,236.11313,38,37,0
236.11313,236.24529,55,52,0
236.11313,236.24529,43,44,0
236.64175,236.77391,55,52,0
237.17393,237.30493,62,47,0
237.7026,237.83304,67,52,0
238.22435,238.35478,71,52,0
238.7507,238.88113,74,47,0
239.26909,239.39896,79,47,0
239.78856,239.91844,79,45,0
240.30804,240.43791,79,42,0
240.83446,240.96489,79,40,0
241.36346,241.49622,79,38,0
241.90625,242.04362,79,36,0
242.45944,245.19101,74,34,0
242.45944,245.19101,67,29,0
245.19101,245.78801,79,80,0
245.19101,245.78801,74,71,0
245.19101,245.78801,67,71,0
245.78801,247.57906,43,85,0
245.78801,247.57906,31,75,0
