start_time,end_time,note_value,velocity,instrument_program_number
0.0,0.2521645,58,38,0
0.2521645,0.504329,57,37,0
0.504329,0.7564935,58,38,0
0.0,0.7564935,63,41,0
0.0,0.7564935,67,49,0
0.7564935,1.0118124,55,45,0
1.0118124,1.253748,55,47,0
1.253748,1.5019075,58,42,0
1.0118124,1.5019075,63,50,0
1.0118124,1.5019075,67,50,0
1.5019075,1.7390615,57,38,0
1.7390615,1.9707215,58,38,0
1.9707215,2.2078755,60,42,0
1.5019075,2.2078755,68,49,0
1.5019075,2.2078755,62,41,0
2.2078755,2.453777,61,39,0
2.453777,2.6957126,62,38,0
2.6957126,2.948877,58,40,0
2.453777,2.948877,68,48,0
2.948877,3.189377,58,36,0
3.189377,3.434595,57,38,0
3.434595,3.678855,58,42,0
2.948877,3.678855,63,38,0
2.948877,3.678855,67,46,0
3.678855,3.922164,55,45,0
3.922164,4.1683683,55,47,0
4.1683683,4.4126287,58,41,0
3.922164,4.4126287,63,50,0
3.922164,4.4126287,67,50,0
4.4126287,4.6485705,57,36,0
4.6485705,4.881852,58,37,0
4.881852,5.121411,60,42,0
4.4126287,5.121411,68,46,0
4.4126287,5.121411,62,38,0
5.121411,5.371557,61,42,0
5.371557,5.6300216,62,38,0
5.6300216,5.900853,58,40,0
5.371557,5.900853,68,48,0
5.900853,6.1470575,75,47,0
5.900853,6.1470575,63,47,0
6.1470575,6.379792,77,41,0
6.1470575,6.379792,65,41,0
6.379792,6.6166286,79,49,0
6.6166286,6.9922233,82,52,0
6.6166286,6.9922233,70,52,0
6.9922233,7.367818,82,43,0
6.9922233,7.367818,70,43,0
7.600232,7.832646,82,52,0
7.600232,7.832646,70,52,0
7.832646,8.048162,84,50,0
7.832646,8.048162,72,50,0
8.048162,8.2586,86,55,0
8.048162,8.2586,74,55,0
8.2586,8.473377,77,54,0
8.2586,8.473377,89,54,0
8.473377,8.696625,74,53,0
8.473377,8.696625,86,53,0
8.696625,8.908489,72,55,0
8.696625,8.908489,84,55,0
8.908489,9.130153,86,53,0
8.908489,9.130153,74,53,0
9.130153,9.351817,84,46,0
9.130153,9.351817,72,46,0
9.351817,9.718894,79,51,0
9.351817,9.718894,67,51,0
9.718894,10.085971,79,43,0
9.718894,10.085971,67,43,0
10.307635,10.529299,77,52,0
10.307635,10.529299,65,52,0
10.529299,10.744076,79,50,0
10.529299,10.744076,67,50,0
10.744076,10.954513,80,55,0
10.744076,10.954513,68,55,0
10.954513,11.17003,70,53,0
10.954513,11.17003,82,53,0
11.17003,11.394078,68,53,0
11.17003,11.394078,80,53,0
11.394078,11.606336,67,55,0
11.394078,11.608119,79,55,0
11.608119,11.834209,77,50,0
11.608119,11.834209,65,50,0
11.834209,12.060301,75,46,0
11.834209,12.060301,63,46,0
12.060301,12.43254,70,46,0
12.060301,12.43254,58,46,0
12.43254,12.804779,70,43,0
12.43254,12.804779,58,43,0
13.035638,13.266496,65,52,0
13.266496,13.49394,67,49,0
13.49394,13.71664,68,55,0
13.71664,13.941697,70,53,0
13.941697,14.062315,68,53,0
14.062315,14.122623,67,49,0
14.122623,14.182933,68,50,0
13.035638,14.182933,62,46,0
14.182933,14.405633,67,55,0
14.405633,14.635377,65,50,0
14.182933,14.635377,63,48,0
14.635377,14.865121,63,46,0
14.865121,15.102627,58,51,0
15.104623,15.344125,60,50,0
15.344125,15.583627,63,50,0
15.583627,15.813003,56,48,0
15.583627,15.81493,62,55,0
15.81493,16.054127,65,50,0
16.054127,16.174763,62,46,0
16.174763,16.235083,60,41,0
16.235083,16.2954,62,41,0
16.2954,16.67734,60,50,0
16.67734,17.059277,56,45,0
16.67734,17.059277,58,45,0
17.059277,17.311441,58,38,0
17.311441,17.563606,57,41,0
17.563606,17.815771,58,41,0
17.059277,17.815771,63,41,0
17.059277,17.815771,67,49,0
17.815771,18.07328,55,47,0
18.07328,18.316196,55,47,0
18.316196,18.564356,58,42,0
18.07328,18.564356,63,50,0
18.07328,18.564356,67,50,0
18.564356,18.805319,57,38,0
18.805319,19.039694,58,38,0
19.039694,19.278738,60,42,0
18.564356,19.278738,68,49,0
18.564356,19.278738,62,41,0
19.278738,19.521654,61,39,0
19.521654,19.765556,62,38,0
19.765556,20.01349,58,40,0
19.521654,20.01349,68,48,0
20.01349,20.25399,58,36,0
20.25399,20.499208,57,44,0
20.499208,20.743467,58,44,0
20.01349,20.743467,63,38,0
20.01349,20.743467,67,46,0
20.743467,20.986776,55,47,0
20.986776,21.23298,55,47,0
21.23298,21.477242,58,41,0
20.986776,21.477242,63,50,0
20.986776,21.477242,67,50,0
21.477242,21.713184,57,36,0
21.713184,21.946465,58,39,0
21.946465,22.186024,60,42,0
21.477242,22.186024,68,46,0
21.477242,22.186024,62,38,0
22.186024,22.43617,61,39,0
22.43617,22.694633,62,38,0
22.694633,22.965466,58,40,0
22.43617,22.965466,68,48,0
22.965466,23.21167,75,47,0
22.965466,23.21167,63,47,0
23.21167,23.444405,77,41,0
23.21167,23.444405,65,41,0
23.444405,23.681242,79,42,0
23.681242,24.056835,82,54,0
23.681242,24.056835,70,54,0
24.056835,24.43243,82,43,0
24.056835,24.43243,70,43,0
24.664845,24.897259,82,52,0
24.664845,24.897259,70,52,0
24.897259,25.113522,84,48,0
24.897259,25.113522,72,48,0
25.113522,25.32396,86,55,0
25.113522,25.32396,74,55,0
25.32396,25.539476,77,50,0
25.32396,25.539476,89,50,0
25.539476,25.762724,74,53,0
25.539476,25.762724,86,53,0
25.762724,25.976034,72,55,0
25.762724,25.976034,84,55,0
25.976034,26.197699,86,53,0
25.976034,26.197699,74,53,0
26.197699,26.419363,84,46,0
26.197699,26.419363,72,46,0
26.419363,26.78644,79,51,0
26.419363,26.78644,67,51,0
26.78644,27.153517,79,43,0
26.78644,27.153517,67,43,0
27.375181,27.596844,77,52,0
27.375181,27.596844,65,52,0
27.596844,27.81236,79,53,0
27.596844,27.81236,67,53,0
27.81236,28.022799,80,53,0
27.81236,28.022799,68,53,0
28.022799,28.239061,70,53,0
28.022799,28.239061,82,53,0
28.239061,28.46311,68,53,0
28.239061,28.46311,80,53,0
28.46311,28.676954,67,55,0
28.46311,28.678751,79,55,0
28.678751,28.904842,77,48,0
28.678751,28.904842,65,48,0
28.904842,29.130934,75,46,0
28.904842,29.130934,63,46,0
29.130934,29.503172,70,49,0
29.130934,29.503172,58,49,0
29.503172,29.875412,70,43,0
29.503172,29.875412,58,43,0
30.10627,30.337128,65,52,0
30.337128,30.564573,67,53,0
30.564573,30.787273,68,55,0
30.787273,31.01233,70,53,0
31.01233,31.132948,68,53,0
31.132948,31.193256,67,49,0
31.193256,31.253565,68,50,0
30.10627,31.253565,62,46,0
31.253565,31.476265,67,55,0
31.476265,31.706009,65,50,0
31.253565,31.706009,63,48,0
31.706009,31.935753,63,46,0
31.935753,32.17326,58,51,0
32.175255,32.414757,60,50,0
32.414757,32.65426,63,50,0
32.65426,32.883636,56,48,0
32.65426,32.885563,62,55,0
32.885563,33.12476,65,50,0
33.12476,33.245396,62,46,0
33.245396,33.305714,60,41,0
33.305714,33.36603,62,41,0
33.36603,33.74797,60,50,0
33.74797,34.12991,56,45,0
33.74797,34.12991,58,45,0
34.12991,34.382072,58,38,0
34.382072,34.63424,57,44,0
34.63424,34.886402,58,44,0
34.12991,34.886402,63,41,0
34.12991,34.886402,67,49,0
34.886402,35.142815,55,47,0
35.142815,35.386715,55,47,0
35.386715,35.634876,58,42,0
35.142815,35.634876,63,50,0
35.142815,35.634876,67,50,0
35.634876,35.87297,57,38,0
35.87297,36.10553,58,42,0
36.10553,36.34268,60,42,0
35.634876,36.34268,68,49,0
35.634876,36.34268,62,41,0
36.34268,36.586586,61,42,0
36.586586,36.831482,62,38,0
36.831482,37.081482,58,40,0
36.586586,37.081482,68,48,0
37.081482,37.321983,58,36,0
37.321983,37.5672,57,44,0
37.5672,37.811462,58,44,0
37.081482,37.811462,63,38,0
37.081482,37.811462,67,46,0
37.811462,38.05477,55,47,0
38.05477,38.300976,55,47,0
38.300976,38.545235,58,41,0
38.05477,38.545235,63,50,0
38.05477,38.545235,67,50,0
38.545235,38.781178,57,36,0
38.781178,39.014458,58,42,0
39.014458,39.254017,60,42,0
38.545235,39.254017,68,46,0
38.545235,39.254017,62,38,0
39.254017,39.50416,61,38,0
39.50416,39.762627,62,38,0
39.762627,40.03346,58,40,0
39.50416,40.03346,68,48,0
40.03346,40.279663,75,47,0
40.03346,40.279663,63,47,0
40.279663,40.512398,77,46,0
40.279663,40.512398,65,46,0
40.512398,40.749233,79,42,0
40.749233,41.48412,82,53,0
40.749233,41.48412,70,53,0
41.716534,41.948948,82,52,0
41.716534,41.948948,70,52,0
41.948948,42.174614,84,50,0
41.948948,42.174614,72,50,0
42.174614,42.393177,85,55,0
42.174614,42.393177,73,55,0
42.393177,42.608692,77,38,0
42.393177,42.608692,89,47,0
42.608692,42.830357,73,53,0
42.608692,42.830357,85,53,0
42.830357,43.04814,72,55,0
42.830357,43.04814,84,55,0
43.04814,43.269806,82,52,0
43.04814,43.269806,70,52,0
43.269806,43.49147,75,46,0
43.269806,43.49147,63,46,0
43.49147,43.719624,75,51,0
43.49147,43.719624,63,51,0
43.719624,44.197166,77,51,0
43.719624,44.197166,65,49,0
44.41883,44.640495,79,52,0
44.41883,44.640495,67,52,0
44.640495,44.85906,80,49,0
44.640495,44.85906,68,49,0
44.85906,45.073097,82,55,0
44.85906,45.073097,70,55,0
45.073097,45.29166,75,55,0
45.073097,45.29166,87,55,0
45.29166,45.51571,72,49,0
45.29166,45.51571,84,49,0
45.51571,45.733498,70,55,0
45.51571,45.733498,82,55,0
45.733498,45.959587,80,50,0
45.733498,45.959587,68,50,0
45.959587,46.185677,75,46,0
45.959587,46.185677,63,46,0
46.185677,46.417233,75,51,0
46.185677,46.417233,63,51,0
46.417233,47.09931,80,55,0
46.417233,47.09931,68,55,0
47.09931,47.777256,80,61,0
47.09931,47.777256,72,52,0
47.09931,47.777256,75,52,0
47.09931,47.777256,84,61,0
47.777256,48.236958,75,55,0
47.777256,48.236958,87,67,0
47.777256,48.236958,84,67,0
47.777256,48.236958,80,55,0
48.45322,49.136955,75,57,0
48.45322,49.136955,63,57,0
49.136955,49.819035,80,64,0
49.136955,49.819035,68,63,0
49.819035,50.496983,80,67,0
49.819035,50.496983,71,56,0
49.819035,50.496983,75,56,0
49.819035,50.496983,83,67,0
50.496983,51.07012,75,59,0
50.496983,51.07012,87,71,0
50.496983,51.07012,83,71,0
50.496983,51.07012,80,59,0
51.07012,51.316326,75,60,0
51.07012,51.316326,63,46,0
51.316326,51.54906,77,56,0
51.316326,51.54906,65,56,0
51.54906,51.785896,79,55,0
51.785896,52.16149,82,66,0
51.785896,52.16149,70,54,0
52.16149,52.537086,82,53,0
52.16149,52.537086,70,43,0
52.7695,53.001915,82,65,0
52.7695,53.001915,70,52,0
53.001915,53.218178,84,60,0
53.001915,53.218178,72,60,0
53.218178,53.428616,86,66,0
53.218178,53.428616,74,66,0
53.428616,53.64413,77,54,0
53.428616,53.64413,89,61,0
53.64413,53.86738,74,53,0
53.64413,53.86738,86,66,0
53.86738,54.080692,72,68,0
53.86738,54.080692,84,68,0
54.080692,54.302353,86,66,0
54.080692,54.302353,74,53,0
54.302353,54.524017,84,57,0
54.302353,54.524017,72,45,0
54.524017,54.891094,79,63,0
54.524017,54.891094,67,51,0
54.891094,55.25817,79,53,0
54.891094,55.25817,67,43,0
55.490585,55.713634,82,62,0
55.490585,55.713634,70,52,0
55.713634,55.929897,84,51,0
55.713634,55.929897,72,51,0
55.929897,56.140335,82,65,0
55.929897,56.140335,70,55,0
56.140335,56.355854,68,51,0
56.140335,56.355854,80,60,0
56.355854,56.5791,67,49,0
56.355854,56.5791,79,58,0
56.5791,56.79241,65,52,0
56.5791,56.79241,77,62,0
56.79241,57.014076,79,58,0
56.79241,57.014076,67,49,0
57.014076,57.247356,80,56,0
57.014076,57.247356,68,47,0
57.247356,57.614433,87,66,0
57.247356,57.614433,75,62,0
57.614433,57.98151,84,55,0
57.614433,57.98151,72,51,0
58.213924,58.434113,84,62,0
58.213924,58.434113,72,52,0
58.434113,58.650375,87,58,0
58.434113,58.650375,75,49,0
58.650375,58.860813,84,60,0
58.650375,58.860813,72,54,0
58.860813,59.07633,68,52,0
58.860813,59.07633,80,57,0
59.07633,59.299576,67,49,0
59.07633,59.299576,79,58,0
59.299576,59.512886,65,49,0
59.299576,59.512886,77,58,0
59.512886,59.73455,79,58,0
59.512886,59.73455,67,49,0
59.73455,59.970493,80,56,0
59.73455,59.970493,68,47,0
59.970493,60.33757,86,68,0
59.970493,60.33757,74,57,0
60.33757,60.923977,84,57,0
60.33757,60.923977,72,48,0
60.923977,61.163612,76,52,0
60.923977,61.163612,64,44,0
61.163612,61.41616,77,48,0
61.163612,61.41616,65,40,0
61.41616,61.843956,80,57,0
61.41616,61.843956,68,47,0
61.843956,62.29271,79,51,0
61.843956,62.29271,67,43,0
62.29271,62.544872,58,38,0
62.544872,62.79704,57,44,0
62.79704,63.049202,58,44,0
62.29271,63.049202,63,41,0
62.29271,63.049202,67,49,0
63.049202,63.305614,55,47,0
63.305614,63.548527,55,47,0
63.548527,63.796688,58,42,0
63.305614,63.796688,63,50,0
63.305614,63.796688,67,50,0
63.796688,64.03765,57,38,0
64.03765,64.27295,58,37,0
64.27295,64.517845,60,42,0
63.796688,64.517845,68,49,0
63.796688,64.517845,62,41,0
64.517845,64.75978,61,38,0
64.75978,65.003685,62,38,0
65.003685,65.253685,58,40,0
64.75978,65.253685,68,48,0
65.253685,65.49418,58,36,0
65.49418,65.7394,57,40,0
65.7394,65.98366,58,44,0
65.253685,65.98366,63,38,0
65.253685,65.98366,67,46,0
65.98366,66.22697,55,47,0
66.22697,66.473175,55,47,0
66.473175,66.71743,58,41,0
66.22697,66.71743,63,50,0
66.22697,66.71743,67,50,0
66.71743,66.95338,57,36,0
66.95338,67.18665,58,38,0
67.18665,67.426216,60,42,0
66.71743,67.426216,68,46,0
66.71743,67.426216,62,38,0
67.426216,67.67636,61,38,0
67.67636,67.93483,62,38,0
67.93483,68.20566,58,40,0
67.67636,68.20566,68,48,0
68.20566,68.45186,75,31,0
68.20566,68.45186,63,31,0
68.45186,68.68459,77,32,0
68.45186,68.68459,65,32,0
68.68459,68.92143,79,32,0
68.92143,69.29703,82,36,0
68.92143,69.29703,70,36,0
69.29703,69.67262,82,28,0
69.29703,69.67262,70,28,0
69.90504,70.13745,82,35,0
69.90504,70.13745,70,35,0
70.13745,70.35678,84,29,0
70.13745,70.35678,72,29,0
70.35678,70.57082,86,36,0
70.35678,70.57082,74,36,0
70.57082,70.79015,77,35,0
70.57082,70.79015,89,37,0
70.79015,71.0134,74,36,0
70.79015,71.0134,86,36,0
71.0134,71.22966,72,36,0
71.0134,71.22966,84,36,0
71.22966,71.451324,86,36,0
71.22966,71.451324,74,36,0
71.451324,71.67299,84,31,0
71.451324,71.67299,72,31,0
71.67299,72.04007,79,34,0
71.67299,72.04007,67,34,0
72.04007,72.40714,79,28,0
72.04007,72.40714,67,28,0
72.62881,72.85047,77,35,0
72.62881,72.85047,65,35,0
72.85047,73.06599,79,36,0
72.85047,73.06599,67,36,0
73.06599,73.27714,80,36,0
73.06599,73.27714,68,36,0
73.27714,73.495705,70,36,0
73.27714,73.495705,82,36,0
73.495705,73.71975,68,32,0
73.495705,73.71975,80,32,0
73.71975,73.93421,67,36,0
73.71975,73.93601,79,36,0
73.93601,74.1621,77,33,0
73.93601,74.1621,65,33,0
74.1621,74.38819,75,31,0
74.1621,74.38819,63,31,0
74.38819,74.76044,70,34,0
74.38819,74.76044,58,34,0
74.76044,75.132675,70,28,0
74.76044,75.132675,58,28,0
75.36353,75.59439,65,35,0
75.59439,75.82183,67,36,0
75.82183,76.04453,68,36,0
76.04453,76.26959,70,36,0
76.26959,76.390205,68,36,0
76.390205,76.450516,67,32,0
76.450516,76.510826,68,33,0
75.36353,76.510826,62,31,0
76.510826,76.73353,67,36,0
76.73353,76.96327,65,33,0
76.510826,76.96327,63,32,0
76.96327,77.193016,63,31,0
77.193016,77.43052,58,34,0
77.43252,77.67202,60,33,0
77.67202,77.91152,63,33,0
77.91152,78.1409,56,32,0
77.91152,78.14282,62,36,0
78.14282,78.38202,65,33,0
78.38202,78.502655,62,31,0
78.502655,78.56297,60,27,0
78.56297,78.62329,62,27,0
78.62329,79.00523,60,33,0
79.00523,79.38717,56,30,0
79.00523,79.38717,58,30,0
79.38717,79.63338,75,31,0
79.38717,79.63338,63,31,0
79.63338,79.86611,77,28,0
79.63338,79.86611,65,28,0
79.86611,80.10294,79,32,0
80.10294,80.47854,82,36,0
80.10294,80.47854,70,36,0
80.47854,80.85413,82,28,0
80.47854,80.85413,70,28,0
81.08655,81.31896,82,35,0
81.08655,81.31896,70,35,0
81.31896,81.53829,84,31,0
81.31896,81.53829,72,31,0
81.53829,81.752335,86,36,0
81.53829,81.752335,74,36,0
81.752335,81.971664,77,33,0
81.752335,81.971664,89,37,0
81.971664,82.194916,74,36,0
81.971664,82.194916,86,36,0
82.194916,82.40969,72,36,0
82.194916,82.40969,84,36,0
82.40969,82.631355,86,36,0
82.40969,82.631355,74,36,0
82.631355,82.85302,84,28,0
82.631355,82.85302,72,28,0
82.85302,83.22009,79,34,0
82.85302,83.22009,67,34,0
83.22009,83.58717,79,28,0
83.22009,83.58717,67,28,0
83.80884,84.0305,77,35,0
83.80884,84.0305,65,35,0
84.0305,84.24828,79,36,0
84.0305,84.24828,67,36,0
84.24828,84.462326,80,36,0
84.24828,84.462326,68,36,0
84.462326,84.68089,70,36,0
84.462326,84.68089,82,36,0
84.68089,84.90494,68,36,0
84.68089,84.90494,80,36,0
84.90494,85.1194,67,36,0
84.90494,85.1212,79,36,0
85.1212,85.34729,77,33,0
85.1212,85.34729,65,33,0
85.34729,85.57339,75,31,0
85.34729,85.57339,63,31,0
85.57339,85.945625,70,34,0
85.57339,85.945625,58,34,0
85.945625,86.31786,70,28,0
85.945625,86.31786,58,28,0
86.54872,86.77958,65,35,0
86.77958,87.00702,67,36,0
87.00702,87.22972,68,36,0
87.22972,87.45478,70,36,0
87.45478,87.57539,68,36,0
87.57539,87.635704,67,32,0
87.635704,87.696014,68,33,0
86.54872,87.696014,62,31,0
87.696014,87.91872,67,36,0
87.91872,88.14846,65,33,0
87.696014,88.14846,63,32,0
88.14846,88.378204,63,31,0
88.378204,88.61571,58,34,0
88.61771,88.85721,60,33,0
88.85721,89.09671,63,33,0
89.09671,89.32609,56,32,0
89.09671,89.32801,62,36,0
89.32801,89.56721,65,33,0
89.56721,89.68784,62,31,0
89.68784,89.74816,60,27,0
89.74816,89.80848,62,27,0
89.80848,90.19042,60,33,0
90.19042,90.57236,56,30,0
90.19042,90.57236,58,30,0
90.57236,90.824524,58,28,0
90.824524,91.07669,57,33,0
91.07669,91.32885,58,33,0
90.57236,91.32885,63,30,0
90.57236,91.32885,67,36,0
91.32885,91.586365,55,35,0
91.586365,91.82928,55,35,0
91.82928,92.07744,58,31,0
91.586365,92.07744,63,37,0
91.586365,92.07744,67,37,0
92.07744,92.3168,57,28,0
92.3168,92.54936,58,31,0
92.54936,92.786514,60,31,0
92.07744,92.786514,68,36,0
92.07744,92.786514,62,30,0
92.786514,93.03042,61,31,0
93.03042,93.275314,62,28,0
93.275314,93.525314,58,30,0
93.03042,93.525314,68,36,0
93.525314,93.765816,58,27,0
93.765816,94.01103,57,33,0
94.01103,94.255295,58,33,0
93.525314,94.255295,63,28,0
93.525314,94.255295,67,35,0
94.255295,94.498604,55,35,0
94.498604,94.74481,55,35,0
94.74481,94.98907,58,30,0
94.498604,94.98907,63,37,0
94.498604,94.98907,67,37,0
94.98907,95.22501,57,27,0
95.22501,95.45402,58,31,0
95.45402,95.69176,60,31,0
94.98907,95.69176,68,35,0
94.98907,95.69176,62,28,0
95.69176,95.93318,61,31,0
95.93318,96.17183,62,28,0
96.17183,96.41609,58,30,0
95.93318,96.41609,68,36,0
96.41609,96.656586,58,27,0
96.656586,96.90181,57,32,0
96.90181,97.146065,58,32,0
96.41609,97.146065,63,28,0
96.41609,97.146065,67,35,0
97.146065,97.40239,55,33,0
97.40239,97.65456,55,33,0
97.65456,97.9047,58,28,0
97.40239,97.9047,63,36,0
97.40239,97.9047,67,36,0
97.9047,98.16102,58,25,0
98.16102,98.43986,57,27,0
98.43986,98.7537,58,30,0
97.9047,98.7537,63,27,0
97.9047,98.7537,67,32,0
98.7537,99.06754,55,31,0
99.06754,99.41004,55,27,0
99.41004,99.843636,58,23,0
99.06754,99.843636,63,29,0
99.06754,99.843636,67,29,0
99.843636,102.179474,67,27,0
99.843636,102.179474,63,22,0
99.843636,102.179474,55,22,0
102.95809,104.57603,75,51,0
102.95809,104.57603,71,51,0
104.57603,104.840416,73,57,0
104.840416,105.104805,75,52,0
105.104805,105.36919,76,50,0
105.36919,105.62483,78,53,0
105.62483,105.885864,82,53,0
105.885864,106.15596,80,51,0
106.15596,107.7557,75,51,0
106.15596,107.7557,71,51,0
107.7557,108.02009,73,57,0
108.02009,108.28447,75,50,0
108.28447,108.54886,76,50,0
108.54886,108.804504,78,53,0
108.804504,109.06554,80,53,0
109.06554,109.33563,76,55,0
109.33563,109.61147,75,58,0
109.61147,109.87705,73,53,0
109.87705,110.14541,71,55,0
110.14541,110.40753,68,52,0
110.40753,110.67647,70,52,0
110.67647,110.95014,71,52,0
110.95014,111.21795,73,57,0
110.95014,111.21795,68,51,0
111.21795,111.48576,75,50,0
111.48576,111.75357,73,48,0
111.75357,112.03241,76,44,0
112.03241,112.31333,78,42,0
112.31333,112.619484,76,41,0
112.619484,114.27556,80,38,0
112.619484,114.27556,68,38,0
112.619484,114.27556,71,38,0
112.619484,114.27556,75,38,0
114.27556,116.02551,75,38,0
116.02551,117.643456,75,51,0
116.02551,117.643456,71,51,0
117.643456,117.90784,73,57,0
117.90784,118.172226,75,51,0
118.172226,118.436615,76,51,0
118.436615,118.69226,78,53,0
118.69226,118.953285,82,55,0
118.953285,119.22339,80,53,0
119.22339,120.82312,75,51,0
119.22339,120.82312,71,51,0
120.82312,121.08751,73,57,0
121.08751,121.3519,75,51,0
121.3519,121.61628,76,52,0
121.61628,121.871925,78,52,0
121.871925,122.13296,80,53,0
122.13296,122.40305,76,55,0
122.40305,122.678894,75,58,0
122.678894,122.94447,73,53,0
122.94447,123.21283,71,55,0
123.21283,123.47495,68,52,0
123.47495,123.74389,70,52,0
123.74389,124.01756,71,52,0
124.01756,124.28538,73,57,0
124.01756,124.28538,68,49,0
124.28538,124.553185,75,49,0
124.553185,124.82099,73,47,0
124.82099,125.098335,76,45,0
125.098335,125.38572,78,42,0
125.38572,125.69695,76,41,0
125.69695,127.33506,80,38,0
125.69695,127.33506,68,38,0
125.69695,127.33506,71,38,0
125.69695,127.33506,75,38,0
128.92464,128.9951,70,44,0
128.9951,130.61305,75,55,0
130.8913,131.15471,73,52,0
131.15471,131.41812,75,50,0
131.41812,131.68478,76,50,0
131.68478,131.94926,78,53,0
131.94926,132.15704,80,50,0
132.15704,132.22629,70,42,0
132.22629,133.83731,75,51,0
134.10733,134.37181,70,54,0
134.37181,134.51527,73,57,0
134.51527,134.59125,71,38,0
134.57225,134.65022,73,37,0
134.62923,134.88126,71,49,0
134.88126,135.14229,70,58,0
135.14229,135.34486,68,56,0
135.41238,135.68823,67,63,0
135.68823,135.95381,68,58,0
135.95381,136.22217,70,60,0
136.22217,136.48428,75,57,0
136.48428,136.75322,77,61,0
136.75322,137.0269,79,57,0
137.0269,137.29471,80,62,0
137.0269,137.29471,71,62,0
137.29471,137.56252,75,59,0
137.56252,137.70598,73,59,0
137.70598,137.78836,71,42,0
137.76776,137.85152,73,42,0
137.82956,138.09297,71,53,0
138.09297,138.36191,70,49,0
138.36191,138.56361,68,49,0
138.63084,140.29126,75,59,0
138.56361,140.29126,67,48,0
140.29126,141.87253,68,54,0
140.29126,141.87253,62,46,0
141.87253,141.95287,70,49,0
141.95287,143.5708,75,59,0
143.84904,144.11246,73,52,0
144.11246,144.37587,75,52,0
144.37587,144.64255,76,50,0
144.64255,144.90703,78,53,0
144.90703,145.11479,80,50,0
145.11479,145.18405,70,42,0
145.18405,146.79507,75,51,0
147.0651,147.32957,70,52,0
147.32957,147.47498,73,57,0
147.47498,147.55614,71,36,0
147.53584,147.6177,73,36,0
147.59671,147.84874,71,49,0
147.84874,148.10977,70,58,0
148.10977,148.31235,68,52,0
148.37987,148.6557,67,63,0
148.6557,148.9213,68,58,0
148.9213,149.18965,70,60,0
149.18965,149.45177,75,57,0
149.45177,149.7207,77,61,0
149.7207,149.99438,79,57,0
149.99438,150.26219,80,62,0
149.99438,150.26219,71,62,0
150.26219,150.53,75,55,0
150.53,150.67876,73,59,0
150.67876,150.75583,71,38,0
150.73656,150.8163,73,39,0
150.79436,151.05777,71,51,0
151.05777,151.3267,70,49,0
151.3267,151.52841,68,49,0
151.59564,154.889,75,59,0
151.52841,154.889,67,48,0
154.889,156.50694,75,51,0
154.889,156.50694,71,51,0
156.50694,156.77133,73,57,0
156.77133,157.03572,75,51,0
157.03572,157.30011,76,52,0
157.30011,157.55576,78,51,0
157.55576,157.81679,82,53,0
157.81679,158.08688,80,52,0
158.08688,159.68661,75,51,0
158.08688,159.68661,71,51,0
159.68661,159.951,73,57,0
159.951,160.2154,75,52,0
160.2154,160.47978,76,52,0
160.47978,160.73543,78,51,0
160.73543,160.99646,80,53,0
160.99646,161.26656,76,55,0
161.26656,161.54239,75,58,0
161.54239,161.80797,73,53,0
161.80797,162.07632,71,55,0
162.07632,162.33846,68,52,0
162.33846,162.60739,70,52,0
162.60739,162.88106,71,49,0
162.88106,163.14886,73,57,0
162.88106,163.14886,68,43,0
163.14886,163.41669,75,50,0
163.41669,163.6845,73,49,0
163.6845,163.96184,76,42,0
163.96184,164.24922,78,42,0
164.24922,164.55537,76,41,0
164.55537,165.90833,68,38,0
164.55537,166.19348,71,38,0
164.55537,166.19348,75,38,0
164.55537,166.19348,80,38,0
166.19348,166.46468,71,38,0
166.46468,166.74051,70,38,0
166.74051,167.01556,68,36,0
167.01556,167.2928,63,33,0
167.2928,167.57204,59,36,0
167.57204,167.85353,56,35,0
167.85353,168.12701,59,28,0
168.12701,168.40051,58,30,0
168.40051,168.67401,59,32,0
167.85353,168.67401,63,30,0
167.85353,168.67401,68,37,0
168.67401,168.94092,56,31,0
168.94092,169.19855,59,33,0
169.19855,169.47679,63,31,0
169.47679,169.75029,59,28,0
169.75029,170.02377,58,30,0
170.02377,170.29727,59,33,0
169.47679,170.29727,63,30,0
169.47679,170.29727,68,37,0
170.29727,170.56418,56,30,0
170.56418,170.82181,59,35,0
170.82181,171.09883,63,31,0
171.09883,171.37233,59,29,0
171.37233,171.64583,58,31,0
171.64583,171.91933,59,34,0
171.09883,171.91933,63,31,0
171.09883,171.91933,68,39,0
171.91933,172.18623,56,31,0
172.18623,172.44386,59,37,0
172.44386,172.72089,63,32,0
172.72089,173.0105,59,29,0
173.0105,173.3001,58,32,0
173.3001,173.5897,59,34,0
172.72089,173.5897,63,31,0
172.72089,173.5897,68,39,0
173.5897,173.90353,56,30,0
173.90353,174.24605,59,37,0
174.24605,174.74948,63,32,0
174.74948,175.0391,58,25,0
175.0391,175.32869,57,28,0
175.32869,175.6183,58,29,0
174.74948,175.6183,63,27,0
174.74948,175.6183,67,33,0
175.6183,175.89713,55,27,0
175.89713,176.15475,58,31,0
176.15475,176.433,63,28,0
176.433,176.7065,58,25,0
176.7065,176.98,57,28,0
176.98,177.2535,58,29,0
176.433,177.2535,63,27,0
176.433,177.2535,67,33,0
177.2535,177.52039,55,28,0
177.52039,177.77802,58,31,0
177.77802,178.05217,63,28,0
178.05217,178.3161,72,35,0
178.05217,178.3161,68,35,0
178.05217,178.3161,62,35,0
178.3161,178.57849,70,32,0
178.3161,178.57849,68,32,0
178.3161,178.57849,62,32,0
178.57849,178.83897,72,39,0
178.57849,178.83897,68,39,0
178.57849,178.83897,62,39,0
178.83897,179.0978,70,34,0
178.83897,179.0978,68,34,0
178.83897,179.0978,62,34,0
179.0978,179.34471,72,45,0
179.0978,179.34471,68,45,0
179.0978,179.34471,62,45,0
179.34471,179.61649,70,39,0
179.34471,179.61649,68,39,0
179.34471,179.61649,62,39,0
179.61649,179.87567,84,52,0
179.61649,179.87567,80,52,0
179.61649,179.87567,74,52,0
179.87567,180.13155,80,47,0
179.87567,180.13155,82,47,0
179.87567,180.13155,74,47,0
180.13155,180.38669,84,55,0
180.13155,180.38669,80,55,0
180.13155,180.38669,74,55,0
180.38669,180.64815,82,47,0
180.38669,180.64815,80,47,0
180.38669,180.64815,74,47,0
180.64815,180.91661,84,60,0
180.64815,180.91661,80,60,0
180.64815,180.91661,74,60,0
180.91661,181.19041,82,52,0
180.91661,181.19041,80,52,0
180.91661,181.19041,74,52,0
181.19041,181.45015,58,38,0
181.45015,181.70226,57,44,0
181.70226,181.95436,58,44,0
181.19041,181.95436,63,41,0
181.19041,181.95436,67,49,0
181.95436,182.2141,55,47,0
182.2141,182.46725,55,47,0
182.46725,182.72258,58,42,0
182.2141,182.72258,63,50,0
182.2141,182.72258,67,50,0
182.72258,182.96648,57,38,0
182.96648,183.20457,58,39,0
183.20457,183.44948,60,42,0
182.72258,183.44948,68,49,0
182.72258,183.44948,62,41,0
183.44948,183.70479,61,38,0
183.70479,183.9569,62,38,0
183.9569,184.21552,58,40,0
183.70479,184.21552,68,48,0
184.21552,184.45941,58,36,0
184.45941,184.70837,57,40,0
184.70837,184.95264,58,44,0
184.21552,184.95264,63,38,0
184.21552,184.95264,67,46,0
184.95264,185.20058,55,47,0
185.20058,185.44678,55,47,0
185.44678,185.69104,58,41,0
185.20058,185.69104,63,50,0
185.20058,185.69104,67,50,0
185.69104,185.92914,57,36,0
185.92914,186.1599,58,42,0
186.1599,186.39946,60,42,0
185.69104,186.39946,68,46,0
185.69104,186.39946,62,38,0
186.39946,186.64961,61,42,0
186.64961,186.90807,62,38,0
186.90807,187.17891,58,40,0
186.64961,187.17891,68,48,0
187.17891,187.42511,75,47,0
187.17891,187.42511,63,47,0
187.42511,187.65784,77,46,0
187.42511,187.65784,65,46,0
187.65784,187.89468,79,41,0
187.89468,188.27028,82,54,0
187.89468,188.27028,70,54,0
188.27028,188.64587,82,43,0
188.27028,188.64587,70,43,0
188.87828,189.1107,82,52,0
188.87828,189.1107,70,52,0
189.1107,189.32622,84,52,0
189.1107,189.32622,72,52,0
189.32622,189.53665,86,55,0
189.32622,189.53665,74,55,0
189.53665,189.75143,77,49,0
189.53665,189.75143,89,52,0
189.75143,189.97467,74,53,0
189.75143,189.97467,86,53,0
189.97467,190.18654,72,55,0
189.97467,190.18654,84,55,0
190.18654,190.4082,86,53,0
190.18654,190.4082,74,53,0
190.4082,190.62987,84,42,0
190.4082,190.62987,72,42,0
190.62987,190.99695,79,50,0
190.62987,190.99695,67,50,0
190.99695,191.36401,79,43,0
190.99695,191.36401,67,43,0
191.58568,191.80734,77,52,0
191.58568,191.80734,65,52,0
191.80734,192.02213,79,51,0
191.80734,192.02213,67,51,0
192.02213,192.23256,80,55,0
192.02213,192.23256,68,55,0
192.23256,192.44807,70,53,0
192.23256,192.44807,82,53,0
192.44807,192.67213,68,49,0
192.44807,192.67213,80,49,0
192.67213,192.88438,67,55,0
192.67213,192.88617,79,55,0
192.88617,193.11226,77,47,0
192.88617,193.11226,65,47,0
193.11226,193.33835,75,46,0
193.11226,193.33835,63,46,0
193.33835,193.71059,70,51,0
193.33835,193.71059,58,51,0
193.71059,194.08282,70,43,0
193.71059,194.08282,58,43,0
194.31369,194.54454,65,52,0
194.54454,194.77199,67,53,0
194.77199,194.99469,68,55,0
194.99469,195.21974,70,53,0
195.21974,195.34036,68,50,0
195.34036,195.40068,67,49,0
195.40068,195.46098,68,50,0
194.31369,195.46098,62,46,0
195.46098,195.68369,67,55,0
195.68369,195.91342,65,50,0
195.46098,195.91342,63,48,0
195.91342,196.14317,63,46,0
196.14317,196.38068,58,51,0
196.38268,196.62218,60,50,0
196.62218,196.86168,63,50,0
196.86168,197.09105,56,48,0
196.86168,197.09299,62,55,0
197.09299,197.33218,65,50,0
197.33218,197.45282,62,46,0
197.45282,197.51314,60,41,0
197.51314,197.57346,62,41,0
197.57346,197.95538,60,50,0
197.95538,198.33733,56,45,0
197.95538,198.33733,58,45,0
198.33733,198.5895,58,38,0
198.5895,198.84166,57,44,0
198.84166,199.09383,58,44,0
198.33733,199.09383,63,41,0
198.33733,199.09383,67,49,0
199.09383,199.35133,55,47,0
199.35133,199.59523,55,47,0
199.59523,199.8434,58,42,0
199.35133,199.8434,63,50,0
199.35133,199.8434,67,50,0
199.8434,200.08339,57,38,0
200.08339,200.31595,58,42,0
200.31595,200.55405,60,42,0
199.8434,200.55405,68,49,0
199.8434,200.55405,62,41,0
200.55405,200.79501,61,42,0
200.79501,201.03891,62,38,0
201.03891,201.28685,58,40,0
200.79501,201.28685,68,48,0
201.28685,201.52734,58,36,0
201.52734,201.77257,57,44,0
201.77257,202.01683,58,44,0
201.28685,202.01683,63,38,0
201.28685,202.01683,67,46,0
202.01683,202.26013,55,47,0
202.26013,202.50633,55,47,0
202.50633,202.7506,58,41,0
202.26013,202.7506,63,50,0
202.26013,202.7506,67,50,0
202.7506,202.98654,57,36,0
202.98654,203.21982,58,42,0
203.21982,203.45938,60,42,0
202.7506,203.45938,68,46,0
202.7506,203.45938,62,38,0
203.45938,203.70953,61,42,0
203.70953,203.96799,62,38,0
203.96799,204.23882,58,40,0
203.70953,204.23882,68,48,0
204.23882,204.48503,75,47,0
204.23882,204.48503,63,47,0
204.48503,204.71776,77,47,0
204.48503,204.71776,65,47,0
204.71776,204.9546,79,47,0
204.9546,205.68948,82,53,0
204.9546,205.68948,70,53,0
205.92189,206.15431,82,52,0
205.92189,206.15431,70,52,0
206.15431,206.37997,84,43,0
206.15431,206.37997,72,43,0
206.37997,206.59854,85,55,0
206.37997,206.59854,73,55,0
206.59854,206.81406,77,38,0
206.59854,206.81406,89,44,0
206.81406,207.03572,73,53,0
206.81406,207.03572,85,53,0
207.03572,207.25351,72,55,0
207.03572,207.25351,84,55,0
207.25351,207.47517,82,53,0
207.25351,207.47517,70,53,0
207.47517,207.69684,75,46,0
207.47517,207.69684,63,46,0
207.69684,207.92499,75,51,0
207.69684,207.92499,63,51,0
207.92499,208.40253,77,51,0
207.92499,208.40253,65,51,0
208.62419,208.84586,79,52,0
208.62419,208.84586,67,52,0
208.84586,209.06442,80,47,0
208.84586,209.06442,68,47,0
209.06442,209.27846,82,55,0
209.06442,209.27846,70,55,0
209.27846,209.49702,75,51,0
209.27846,209.49702,87,53,0
209.49702,209.72107,72,47,0
209.49702,209.72107,84,47,0
209.72107,209.93886,70,55,0
209.72107,209.93886,82,55,0
209.93886,210.16495,80,50,0
209.93886,210.16495,68,50,0
210.16495,210.39104,75,46,0
210.16495,210.39104,63,46,0
210.39104,210.62259,75,51,0
210.39104,210.62259,63,51,0
210.62259,211.30467,80,55,0
210.62259,211.30467,68,49,0
211.30467,211.98262,80,61,0
211.30467,211.98262,72,52,0
211.30467,211.98262,75,52,0
211.30467,211.98262,84,61,0
211.98262,212.44232,75,55,0
211.98262,212.44232,87,67,0
211.98262,212.44232,84,67,0
211.98262,212.44232,80,55,0
212.65858,213.34232,75,57,0
212.65858,213.34232,63,57,0
213.34232,214.0244,80,64,0
213.34232,214.0244,68,58,0
214.0244,214.70235,80,67,0
214.0244,214.70235,71,56,0
214.0244,214.70235,75,56,0
214.0244,214.70235,83,67,0
214.70235,215.27548,75,59,0
214.70235,215.27548,87,71,0
214.70235,215.27548,83,71,0
214.70235,215.27548,80,59,0
215.27548,215.5217,75,60,0
215.27548,215.5217,63,46,0
215.5217,215.75443,77,55,0
215.5217,215.75443,65,48,0
215.75443,215.99126,79,57,0
215.75443,215.99126,67,50,0
215.99126,216.36685,82,66,0
215.99126,216.36685,70,54,0
216.36685,216.74245,82,53,0
216.36685,216.74245,70,43,0
216.97487,217.19708,82,65,0
216.97487,217.19708,70,52,0
217.19708,217.41335,84,59,0
217.19708,217.41335,72,47,0
217.41335,217.6238,86,70,0
217.41335,217.6238,74,54,0
217.6238,217.83931,77,52,0
217.6238,217.83931,89,58,0
217.83931,218.06255,74,53,0
217.83931,218.06255,86,66,0
218.06255,218.27586,72,53,0
218.06255,218.27586,84,67,0
218.27586,218.49753,86,66,0
218.27586,218.49753,74,53,0
218.49753,218.7192,84,57,0
218.49753,218.7192,72,45,0
218.7192,219.08627,79,63,0
218.7192,219.08627,67,51,0
219.08627,219.45334,79,53,0
219.08627,219.45334,67,43,0
219.68576,219.90797,82,62,0
219.68576,219.90797,70,52,0
219.90797,220.12424,84,52,0
219.90797,220.12424,72,44,0
220.12424,220.33469,82,65,0
220.12424,220.33469,70,55,0
220.33469,220.5502,68,48,0
220.33469,220.5502,80,60,0
220.5502,220.77345,67,49,0
220.5502,220.77345,79,58,0
220.77345,220.98676,65,52,0
220.77345,220.98676,77,62,0
220.98676,221.20842,79,58,0
220.98676,221.20842,67,49,0
221.20842,221.4417,80,56,0
221.20842,221.4417,68,47,0
221.4417,221.80878,87,71,0
221.4417,221.80878,75,57,0
221.80878,222.17586,84,57,0
221.80878,222.17586,72,48,0
222.40826,222.62724,84,62,0
222.40826,222.62724,72,52,0
222.62724,222.8435,87,58,0
222.62724,222.8435,75,49,0
222.8435,223.05396,84,61,0
222.8435,223.05396,72,49,0
223.05396,223.26947,68,51,0
223.05396,223.26947,80,60,0
223.26947,223.4927,67,49,0
223.26947,223.4927,79,58,0
223.4927,223.70602,65,49,0
223.4927,223.70602,77,58,0
223.70602,223.92769,79,58,0
223.70602,223.92769,67,49,0
223.92769,224.16364,80,56,0
223.92769,224.16364,68,47,0
224.16364,224.5307,86,71,0
224.16364,224.5307,74,57,0
224.5307,225.11711,84,57,0
224.5307,225.11711,72,48,0
225.11711,225.36304,76,52,0
225.11711,225.36304,64,44,0
225.36304,225.62257,77,48,0
225.36304,225.62257,65,40,0
225.62257,226.05037,80,57,0
225.62257,226.05037,68,47,0
226.05037,226.52634,79,51,0
226.05037,226.52634,67,43,0
226.52634,226.7785,58,38,0
226.7785,227.03067,57,41,0
227.03067,227.28284,58,44,0
226.52634,227.28284,63,41,0
226.52634,227.28284,67,49,0
227.28284,227.54034,55,47,0
227.54034,227.78227,55,47,0
227.78227,228.03044,58,42,0
227.54034,228.03044,63,50,0
227.54034,228.03044,67,50,0
228.03044,228.27237,57,38,0
228.27237,228.50674,58,39,0
228.50674,228.74484,60,42,0
228.03044,228.74484,68,49,0
228.03044,228.74484,62,41,0
228.74484,228.98679,61,38,0
228.98679,229.22452,62,38,0
229.22452,229.46782,58,40,0
228.98679,229.46782,68,48,0
229.46782,229.70833,58,36,0
229.70833,229.95354,57,44,0
229.95354,230.1978,58,42,0
229.46782,230.1978,63,38,0
229.46782,230.1978,67,46,0
230.1978,230.44112,55,47,0
230.44112,230.68732,55,47,0
230.68732,230.93158,58,41,0
230.44112,230.93158,63,50,0
230.44112,230.93158,67,50,0
230.93158,231.16753,57,36,0
231.16753,231.4008,58,39,0
231.4008,231.64037,60,42,0
230.93158,231.64037,68,46,0
230.93158,231.64037,62,38,0
231.64037,231.8905,61,37,0
231.8905,232.14897,62,38,0
232.14897,232.4198,58,40,0
231.8905,232.4198,68,48,0
232.4198,232.666,75,31,0
232.4198,232.666,63,31,0
232.666,232.89874,77,30,0
232.666,232.89874,65,30,0
232.89874,233.13557,79,30,0
233.13557,233.51117,82,36,0
233.13557,233.51117,70,36,0
233.51117,233.88676,82,28,0
233.51117,233.88676,70,28,0
234.11919,234.3516,82,35,0
234.11919,234.3516,70,35,0
234.3516,234.57092,84,31,0
234.3516,234.57092,72,31,0
234.57092,234.78497,86,36,0
234.57092,234.78497,74,36,0
234.78497,235.0043,77,33,0
234.78497,235.0043,89,33,0
235.0043,235.22754,74,36,0
235.0043,235.22754,86,36,0
235.22754,235.4438,72,36,0
235.22754,235.4438,84,36,0
235.4438,235.66547,86,33,0
235.4438,235.66547,74,33,0
235.66547,235.88713,84,31,0
235.66547,235.88713,72,31,0
235.88713,236.25421,79,34,0
235.88713,236.25421,67,34,0
236.25421,236.62129,79,28,0
236.25421,236.62129,67,28,0
236.84296,237.06462,77,35,0
236.84296,237.06462,65,35,0
237.06462,237.28014,79,32,0
237.06462,237.28014,67,32,0
237.28014,237.49129,80,36,0
237.28014,237.49129,68,36,0
237.49129,237.70984,70,36,0
237.49129,237.70984,82,36,0
237.70984,237.9339,68,36,0
237.70984,237.9339,80,36,0
237.9339,238.14836,67,36,0
237.9339,238.15016,79,36,0
238.15016,238.37625,77,33,0
238.15016,238.37625,65,33,0
238.37625,238.60234,75,31,0
238.37625,238.60234,63,31,0
238.60234,238.97458,70,34,0
238.60234,238.97458,58,34,0
238.97458,239.34682,70,28,0
238.97458,239.34682,58,28,0
239.57768,239.80853,65,35,0
239.80853,240.03598,67,32,0
240.03598,240.25868,68,36,0
240.25868,240.48373,70,36,0
240.48373,240.60435,68,36,0
240.60435,240.66466,67,32,0
240.66466,240.72498,68,33,0
239.57768,240.72498,62,31,0
240.72498,240.94768,67,36,0
240.94768,241.17741,65,33,0
240.72498,241.17741,63,32,0
241.17741,241.40717,63,31,0
241.40717,241.64467,58,34,0
241.64667,241.88617,60,33,0
241.88617,242.12567,63,33,0
242.12567,242.35504,56,32,0
242.12567,242.35696,62,36,0
242.35696,242.59616,65,33,0
242.59616,242.7168,62,31,0
242.7168,242.77711,60,27,0
242.77711,242.83743,62,27,0
242.83743,243.21938,60,33,0
243.21938,243.60132,56,30,0
243.21938,243.60132,58,30,0
243.60132,243.84752,75,31,0
243.60132,243.84752,63,31,0
243.84752,244.08026,77,28,0
243.84752,244.08026,65,28,0
244.08026,244.3171,79,27,0
244.3171,244.69269,82,36,0
244.3171,244.69269,70,36,0
244.69269,245.06828,82,28,0
244.69269,245.06828,70,28,0
245.30069,245.53311,82,35,0
245.30069,245.53311,70,35,0
245.53311,245.75244,84,28,0
245.53311,245.75244,72,28,0
245.75244,245.96648,86,36,0
245.75244,245.96648,74,36,0
245.96648,246.1858,77,28,0
245.96648,246.1858,89,30,0
246.1858,246.40906,74,36,0
246.1858,246.40906,86,36,0
246.40906,246.62384,72,36,0
246.40906,246.62384,84,36,0
246.62384,246.8455,86,32,0
246.62384,246.8455,74,32,0
246.8455,247.06717,84,31,0
246.8455,247.06717,72,31,0
247.06717,247.43423,79,34,0
247.06717,247.43423,67,34,0
247.43423,247.80132,79,28,0
247.43423,247.80132,67,28,0
248.02298,248.24464,77,35,0
248.02298,248.24464,65,35,0
248.24464,248.46243,79,32,0
248.24464,248.46243,67,32,0
248.46243,248.67647,80,36,0
248.46243,248.67647,68,36,0
248.67647,248.89503,70,32,0
248.67647,248.89503,82,32,0
248.89503,249.11908,68,36,0
248.89503,249.11908,80,36,0
249.11908,249.33354,67,36,0
249.11908,249.33534,79,36,0
249.33534,249.56143,77,33,0
249.33534,249.56143,65,33,0
249.56143,249.78752,75,31,0
249.56143,249.78752,63,31,0
249.78752,250.15976,70,34,0
249.78752,250.15976,58,34,0
250.15976,250.53201,70,28,0
250.15976,250.53201,58,28,0
250.76286,250.99373,65,35,0
250.99373,251.22116,67,32,0
251.22116,251.44386,68,36,0
251.44386,251.66893,70,34,0
251.66893,251.78954,68,36,0
251.78954,251.84985,67,32,0
251.84985,251.91016,68,33,0
250.76286,251.91016,62,31,0
251.91016,252.13286,67,36,0
252.13286,252.36261,65,33,0
251.91016,252.36261,63,32,0
252.36261,252.59235,63,31,0
252.59235,252.82985,58,34,0
252.83185,253.07135,60,33,0
253.07135,253.31085,63,33,0
253.31085,253.54022,56,32,0
253.31085,253.54216,62,36,0
253.54216,253.78136,65,33,0
253.78136,253.902,62,31,0
253.902,253.96231,60,27,0
253.96231,254.02263,62,27,0
254.02263,254.40457,60,33,0
254.40457,254.7865,56,30,0
254.40457,254.7865,58,30,0
254.7865,255.03867,58,28,0
255.03867,255.29083,57,33,0
255.29083,255.543,58,33,0
254.7865,255.543,63,30,0
254.7865,255.543,67,36,0
255.543,255.79941,55,35,0
255.79941,256.03992,55,35,0
256.03992,256.28806,58,31,0
255.79941,256.28806,63,37,0
255.79941,256.28806,67,37,0
256.28806,256.52582,57,28,0
256.52582,256.75397,58,31,0
256.75397,256.99078,60,31,0
256.28806,256.99078,68,36,0
256.28806,256.99078,62,30,0
256.99078,257.23035,61,31,0
257.23035,257.46808,62,28,0
257.46808,257.7114,58,30,0
257.23035,257.7114,68,36,0
257.7114,257.9519,58,27,0
257.9519,258.1971,57,33,0
258.1971,258.44138,58,33,0
257.7114,258.44138,63,28,0
257.7114,258.44138,67,35,0
258.44138,258.6847,55,35,0
258.6847,258.93088,55,35,0
258.93088,259.17514,58,30,0
258.6847,259.17514,63,37,0
258.6847,259.17514,67,37,0
259.17514,259.4111,57,27,0
259.4111,259.6401,58,31,0
259.6401,259.87784,60,31,0
259.17514,259.87784,68,35,0
259.17514,259.87784,62,28,0
259.87784,260.11926,61,31,0
260.11926,260.3579,62,28,0
260.3579,260.60217,58,30,0
260.11926,260.60217,68,36,0
260.60217,260.84268,58,27,0
260.84268,261.0879,57,31,0
261.0879,261.33215,58,31,0
260.60217,261.33215,63,28,0
260.60217,261.33215,67,35,0
261.33215,261.58847,55,33,0
261.58847,261.84064,55,33,0
261.84064,262.0908,58,28,0
261.58847,262.0908,63,36,0
261.58847,262.0908,67,36,0
262.0908,262.36353,58,25,0
262.36353,262.64447,57,29,0
262.64447,262.94092,58,28,0
262.0908,262.94092,63,27,0
262.0908,262.94092,67,32,0
262.94092,263.2601,55,31,0
263.2601,263.6156,55,27,0
263.6156,264.0815,58,23,0
263.2601,264.0815,63,29,0
263.2601,264.0815,67,29,0
264.0815,266.4152,63,22,0
264.0815,266.41736,67,27,0
264.0815,266.41736,55,22,0
266.41736,267.19598,87,33,0
266.41736,267.19598,79,27,0
266.41736,267.19598,75,27,0
267.19598,268.7532,99,33,0
267.19598,268.7532,94,27,0
267.19598,268.7532,87,27,0
267.19598,268.7532,91,27,0
0.0,0.7564935,51,43,0
0.0,0.7564935,39,36,0
1.0118124,1.5019075,46,41,0
1.0118124,1.5019075,34,34,0
1.5019075,2.2078755,41,36,0
1.5019075,2.2078755,53,44,0
2.453777,2.948877,46,41,0
2.453777,2.948877,34,34,0
2.948877,3.678855,39,34,0
2.948877,3.678855,51,40,0
3.922164,4.4126287,46,41,0
3.922164,4.4126287,34,34,0
4.4126287,5.121411,41,34,0
4.4126287,5.121411,53,41,0
5.371557,5.900853,46,41,0
5.371557,5.900853,34,34,0
5.900853,6.1470575,51,44,0
6.1470575,6.379792,67,39,0
6.379792,6.867025,67,39,0
6.867025,7.1174216,63,36,0
7.1174216,7.367818,58,32,0
7.367818,7.600232,51,44,0
7.600232,8.2586,68,39,0
8.2586,8.473377,62,37,0
8.473377,8.696625,58,37,0
8.696625,8.908489,51,44,0
8.908489,9.34997,67,39,0
9.596535,9.841253,63,37,0
9.841253,10.085971,58,37,0
10.085971,10.307635,51,44,0
10.307635,10.742286,68,39,0
10.954513,11.17003,62,37,0
11.17003,11.394078,58,37,0
11.394078,11.608119,51,44,0
11.608119,12.30846,67,39,0
12.30846,12.55662,63,37,0
12.55662,12.804779,55,36,0
12.804779,13.035638,46,44,0
13.035638,13.71664,56,39,0
13.71664,13.941697,52,37,0
13.941697,14.182933,53,37,0
14.182933,14.405633,46,44,0
14.405633,15.104623,55,39,0
15.104623,15.344125,58,37,0
15.344125,15.583627,55,37,0
15.583627,15.81493,46,44,0
15.81493,16.550026,56,39,0
16.550026,16.804651,52,37,0
16.804651,17.059277,53,37,0
17.059277,17.815771,51,43,0
17.059277,17.815771,39,36,0
18.07328,18.564356,46,41,0
18.07328,18.564356,34,34,0
18.564356,19.278738,53,44,0
18.564356,19.278738,41,36,0
19.521654,20.01349,46,41,0
19.521654,20.01349,34,34,0
20.01349,20.743467,51,40,0
20.01349,20.743467,39,34,0
20.986776,21.477242,46,41,0
20.986776,21.477242,34,34,0
21.477242,22.186024,53,41,0
21.477242,22.186024,41,34,0
22.43617,22.965466,46,41,0
22.43617,22.965466,34,34,0
22.965466,23.21167,51,44,0
23.21167,23.444405,67,39,0
23.444405,23.931639,67,39,0
23.931639,24.182034,63,37,0
24.182034,24.43243,58,37,0
24.43243,24.664845,51,44,0
24.664845,25.32396,68,39,0
25.32396,25.539476,62,37,0
25.539476,25.762724,58,37,0
25.762724,25.976034,51,44,0
25.976034,26.417515,67,39,0
26.66408,26.908798,63,37,0
26.908798,27.153517,58,33,0
27.153517,27.375181,51,44,0
27.375181,27.810566,68,39,0
28.022799,28.239061,62,37,0
28.239061,28.46311,58,37,0
28.46311,28.678751,51,44,0
28.678751,29.379093,67,39,0
29.379093,29.627253,63,37,0
29.627253,29.875412,55,35,0
29.875412,30.10627,46,44,0
30.10627,30.787273,56,39,0
30.787273,31.01233,52,37,0
31.01233,31.253565,53,37,0
31.253565,31.476265,46,44,0
31.476265,32.175255,55,39,0
32.175255,32.414757,58,37,0
32.414757,32.65426,55,37,0
32.65426,32.885563,46,44,0
32.885563,33.62066,56,39,0
33.62066,33.875282,52,37,0
33.875282,34.12991,53,37,0
34.12991,34.886402,51,43,0
34.12991,34.886402,39,36,0
35.142815,35.634876,46,41,0
35.142815,35.634876,34,34,0
35.634876,36.34268,53,44,0
35.634876,36.34268,41,36,0
36.586586,37.081482,46,41,0
36.586586,37.081482,34,34,0
37.081482,37.811462,51,40,0
37.081482,37.811462,39,34,0
38.05477,38.545235,46,41,0
38.05477,38.545235,34,34,0
38.545235,39.254017,53,41,0
38.545235,39.254017,41,34,0
39.50416,40.03346,46,41,0
39.50416,40.03346,34,34,0
40.03346,40.279663,51,44,0
40.279663,40.512398,67,39,0
40.512398,40.990665,67,41,0
40.990665,41.233974,63,37,0
41.233974,41.48412,58,37,0
41.48412,41.716534,51,44,0
41.716534,42.393177,68,39,0
42.393177,42.608692,61,37,0
42.608692,42.830357,58,37,0
42.830357,43.04814,51,44,0
43.04814,43.719624,67,39,0
43.719624,43.952908,61,37,0
43.952908,44.197166,58,37,0
44.197166,44.41883,51,44,0
44.41883,45.073097,61,39,0
45.073097,45.29166,55,37,0
45.29166,45.51571,51,37,0
45.51571,45.733498,44,44,0
45.733498,46.417233,60,39,0
46.417233,46.650513,56,39,0
46.650513,46.883793,51,39,0
46.883793,47.09931,44,48,0
47.09931,47.777256,63,42,0
47.777256,48.007107,60,48,0
48.007107,48.236958,56,46,0
48.236958,48.45322,44,50,0
48.45322,49.136955,59,45,0
49.136955,49.370235,56,44,0
49.370235,49.60352,51,45,0
49.60352,49.819035,44,54,0
49.819035,50.496983,63,49,0
50.496983,50.758694,59,48,0
50.758694,51.07012,56,49,0
51.07012,51.316326,46,65,0
51.316326,51.54906,67,45,0
51.54906,52.036293,67,45,0
52.036293,52.28669,63,43,0
52.28669,52.537086,58,43,0
52.537086,52.7695,46,51,0
52.7695,53.428616,68,45,0
53.428616,53.64413,62,43,0
53.64413,53.86738,58,43,0
53.86738,54.080692,51,51,0
54.080692,54.52217,67,45,0
54.768738,55.013454,63,43,0
55.013454,55.25817,58,43,0
55.25817,55.490585,48,51,0
55.490585,56.140335,61,45,0
56.140335,56.355854,60,43,0
56.355854,56.5791,64,43,0
56.5791,56.79241,41,51,0
56.79241,57.492073,63,45,0
57.492073,57.736794,53,43,0
57.736794,57.98151,63,43,0
57.98151,58.213924,46,51,0
58.213924,58.860813,56,45,0
58.860813,59.07633,53,43,0
59.07633,59.299576,63,43,0
59.299576,59.512886,46,48,0
59.512886,60.21521,63,45,0
60.21521,60.459927,58,43,0
60.459927,60.704647,68,43,0
60.704647,60.923977,46,45,0
60.923977,61.163612,55,40,0
61.163612,61.41616,56,38,0
61.41616,61.843956,60,35,0
61.843956,62.29271,58,34,0
62.29271,63.049202,51,43,0
62.29271,63.049202,39,36,0
63.305614,63.796688,46,41,0
63.305614,63.796688,34,34,0
63.796688,64.517845,53,44,0
63.796688,64.517845,41,36,0
64.75978,65.253685,46,41,0
64.75978,65.253685,34,34,0
65.253685,65.98366,51,40,0
65.253685,65.98366,39,34,0
66.22697,66.71743,46,41,0
66.22697,66.71743,34,34,0
66.71743,67.426216,53,41,0
66.71743,67.426216,41,34,0
67.67636,68.20566,46,41,0
67.67636,68.20566,34,34,0
68.20566,68.45186,51,29,0
68.45186,68.68459,67,26,0
68.68459,69.17183,67,26,0
69.17183,69.422226,63,24,0
69.422226,69.67262,58,23,0
69.67262,69.90504,53,29,0
69.90504,70.57082,68,26,0
70.57082,70.79015,62,24,0
70.79015,71.0134,58,24,0
71.0134,71.22966,51,29,0
71.22966,71.67114,67,26,0
71.91771,72.16243,63,24,0
72.16243,72.40714,58,24,0
72.40714,72.62881,53,29,0
72.62881,73.06419,68,26,0
73.27714,73.495705,62,24,0
73.495705,73.71975,58,24,0
73.71975,73.93601,51,29,0
73.93601,74.63635,67,26,0
74.63635,74.884514,63,24,0
74.884514,75.132675,55,24,0
75.132675,75.36353,46,29,0
75.36353,76.04453,56,26,0
76.04453,76.26959,52,24,0
76.26959,76.510826,53,24,0
76.510826,76.73353,46,29,0
76.73353,77.43252,55,26,0
77.43252,77.67202,58,24,0
77.67202,77.91152,55,24,0
77.91152,78.14282,46,29,0
78.14282,78.87792,56,26,0
78.87792,79.132545,52,24,0
79.132545,79.38717,53,24,0
79.38717,79.63338,51,29,0
79.63338,79.86611,67,26,0
79.86611,80.35334,67,26,0
80.35334,80.60374,63,24,0
80.60374,80.85413,58,24,0
80.85413,81.08655,53,29,0
81.08655,81.752335,68,26,0
81.752335,81.971664,62,24,0
81.971664,82.194916,58,24,0
82.194916,82.40969,51,29,0
82.40969,82.85117,67,26,0
83.09773,83.34245,63,24,0
83.34245,83.58717,58,24,0
83.58717,83.80884,53,29,0
83.80884,84.24647,68,26,0
84.462326,84.68089,62,24,0
84.68089,84.90494,58,24,0
84.90494,85.1212,51,29,0
85.1212,85.82154,67,26,0
85.82154,86.0697,63,24,0
86.0697,86.31786,55,24,0
86.31786,86.54872,46,29,0
86.54872,87.22972,56,26,0
87.22972,87.45478,52,24,0
87.45478,87.696014,53,24,0
87.696014,87.91872,46,29,0
87.91872,88.61771,55,26,0
88.61771,88.85721,58,24,0
88.85721,89.09671,55,24,0
89.09671,89.32801,46,29,0
89.32801,90.06311,56,26,0
90.06311,90.31773,52,24,0
90.31773,90.57236,53,24,0
90.57236,91.32885,51,32,0
90.57236,91.32885,39,27,0
91.586365,92.07744,46,30,0
91.586365,92.07744,34,25,0
92.07744,92.786514,53,33,0
92.07744,92.786514,41,27,0
93.03042,93.525314,46,30,0
93.03042,93.525314,34,25,0
93.525314,94.255295,51,30,0
93.525314,94.255295,39,25,0
94.498604,94.98907,46,30,0
94.498604,94.98907,34,25,0
94.98907,95.69176,53,30,0
94.98907,95.69176,41,25,0
95.93318,96.41609,46,30,0
95.93318,96.41609,34,25,0
96.41609,97.146065,51,30,0
96.41609,97.146065,39,25,0
97.40239,97.9047,46,28,0
97.40239,97.9047,34,23,0
97.9047,98.7537,51,27,0
97.9047,98.7537,39,23,0
99.06754,99.843636,46,24,0
99.06754,99.843636,34,19,0
99.843636,102.179474,51,25,0
99.843636,102.179474,39,20,0
102.95809,103.24044,44,36,0
103.24044,103.50938,51,33,0
103.50938,103.77832,56,30,0
103.77832,104.04726,59,31,0
104.04726,104.31164,61,34,0
104.31164,104.57603,63,33,0
104.57603,106.15596,64,36,0
104.57603,106.15596,68,36,0
106.15596,106.43832,44,36,0
106.43832,106.69698,51,33,0
106.69698,106.96195,56,30,0
106.96195,107.22692,59,31,0
107.22692,107.49131,61,34,0
107.49131,107.7557,63,36,0
107.7557,109.33563,64,36,0
107.7557,109.33563,68,36,0
109.33563,109.61147,44,36,0
109.61147,109.87705,51,33,0
109.87705,110.14541,56,30,0
110.14541,110.40753,59,31,0
110.40753,110.67647,61,34,0
110.67647,110.95014,63,36,0
110.95014,112.619484,56,36,0
110.95014,112.619484,64,36,0
112.619484,112.90184,44,24,0
112.90184,113.17078,51,21,0
113.17078,113.43971,56,20,0
113.43971,113.71043,59,20,0
113.71043,113.9839,61,22,0
113.9839,114.27556,63,24,0
114.27556,116.02551,61,23,0
114.27556,116.02551,67,24,0
116.02551,116.30787,44,36,0
116.30787,116.576805,51,33,0
116.576805,116.84574,56,30,0
116.84574,117.11468,59,31,0
117.11468,117.37907,61,34,0
117.37907,117.643456,63,36,0
117.643456,119.22339,64,36,0
117.643456,119.22339,68,36,0
119.22339,119.50574,44,36,0
119.50574,119.764404,51,33,0
119.764404,120.02937,56,30,0
120.02937,120.29435,59,31,0
120.29435,120.55873,61,34,0
120.55873,120.82312,63,36,0
120.82312,122.40305,64,36,0
120.82312,122.40305,68,36,0
122.40305,122.678894,44,36,0
122.678894,122.94447,51,33,0
122.94447,123.21283,56,30,0
123.21283,123.47495,59,31,0
123.47495,123.74389,61,34,0
123.74389,124.01756,63,36,0
124.01756,125.69695,56,36,0
124.01756,125.69695,64,36,0
125.69695,125.97931,44,24,0
125.97931,126.248245,51,21,0
126.248245,126.51718,56,20,0
126.51718,126.787895,59,20,0
126.787895,127.06137,61,22,0
127.06137,127.33506,63,24,0
127.33506,127.60626,68,30,0
127.60626,127.882095,63,30,0
127.882095,128.15714,61,28,0
128.15714,128.43437,59,28,0
128.43437,128.71362,58,27,0
128.71362,128.9951,56,25,0
128.9951,129.27747,39,30,0
129.27747,129.5464,46,29,0
129.5464,129.81534,51,28,0
129.81534,130.08427,55,30,0
130.08427,130.34866,58,34,0
130.34866,130.61305,63,38,0
130.61305,132.22629,64,41,0
130.61305,132.22629,68,41,0
130.61305,132.22629,58,41,0
132.22629,132.50865,39,36,0
132.50865,132.76732,46,33,0
132.76732,133.03229,51,30,0
133.03229,133.29726,55,31,0
133.29726,133.56728,58,34,0
133.56728,133.83731,63,36,0
133.83731,135.34486,64,42,0
133.82043,135.34486,61,40,0
133.80356,135.34486,58,38,0
133.78668,135.34486,51,35,0
135.34486,135.41238,39,39,0
135.41238,135.68823,63,39,0
135.68823,135.95381,59,36,0
135.95381,136.22217,58,33,0
136.22217,136.48428,55,35,0
136.48428,136.75322,50,39,0
136.75322,137.0269,51,45,0
137.0269,137.29471,44,49,0
137.29471,137.56252,50,46,0
137.56252,137.82956,51,45,0
137.82956,138.09297,55,36,0
138.09297,138.36191,56,42,0
138.36191,138.63084,59,41,0
138.63084,138.91321,39,36,0
138.91321,139.18517,45,38,0
139.18517,139.4554,46,40,0
139.4554,139.72612,51,41,0
139.72612,139.99959,55,44,0
139.99959,140.29126,58,46,0
140.29126,140.56828,59,45,0
140.56828,140.8387,56,39,0
140.8387,141.11067,52,39,0
141.11067,141.38455,47,38,0
141.38455,141.66,44,36,0
141.66,141.87253,40,34,0
141.95287,142.23521,39,36,0
142.23521,142.50417,46,35,0
142.50417,142.7731,51,34,0
142.7731,143.04204,55,36,0
143.04204,143.30643,58,40,0
143.30643,143.5708,63,45,0
143.5708,145.18405,64,49,0
143.5708,145.18405,68,49,0
143.5708,145.18405,58,49,0
145.18405,145.4664,39,36,0
145.4664,145.72507,46,33,0
145.72507,145.99005,51,30,0
145.99005,146.25502,55,31,0
146.25502,146.52504,58,34,0
146.52504,146.79507,63,36,0
146.79507,148.31235,64,42,0
146.7782,148.31235,61,40,0
146.76132,148.31235,58,38,0
146.74445,148.31235,51,35,0
148.31235,148.37987,39,39,0
148.37987,148.6557,63,39,0
148.6557,148.9213,59,36,0
148.9213,149.18965,58,33,0
149.18965,149.45177,55,35,0
149.45177,149.7207,50,39,0
149.7207,149.99438,51,45,0
149.99438,150.26219,44,49,0
150.26219,150.53,50,46,0
150.53,150.79436,51,45,0
150.79436,151.05777,55,38,0
151.05777,151.3267,56,42,0
151.3267,151.59564,59,41,0
151.59564,151.87799,39,36,0
151.87799,152.14996,45,38,0
152.14996,152.4202,46,40,0
152.4202,152.6909,51,41,0
152.6909,152.96439,55,44,0
152.96439,153.24263,58,46,0
153.24263,153.51965,61,45,0
153.51965,153.79008,59,35,0
153.79008,154.06204,58,39,0
154.06204,154.33594,55,38,0
154.33594,154.61137,52,36,0
154.61137,154.889,51,34,0
154.889,155.17136,44,36,0
155.17136,155.44029,51,33,0
155.44029,155.70924,56,30,0
155.70924,155.97818,59,31,0
155.97818,156.24257,61,34,0
156.24257,156.50694,63,32,0
156.50694,158.08688,64,36,0
156.50694,158.08688,68,36,0
158.08688,158.36923,44,36,0
158.36923,158.6279,51,33,0
158.6279,158.89287,56,30,0
158.89287,159.15784,59,31,0
159.15784,159.42223,61,34,0
159.42223,159.68661,63,36,0
159.68661,161.26656,64,36,0
159.68661,161.26656,68,36,0
161.26656,161.54239,44,36,0
161.54239,161.80797,51,33,0
161.80797,162.07632,56,30,0
162.07632,162.33846,59,31,0
162.33846,162.60739,61,34,0
162.60739,162.88106,63,36,0
162.88106,164.55537,56,36,0
162.88106,164.55537,64,36,0
164.55537,164.83772,44,24,0
164.83772,165.10666,51,21,0
165.10666,165.3756,56,20,0
165.3756,165.6463,59,20,0
165.6463,165.91978,63,22,0
165.91978,166.19348,68,24,0
167.85353,169.47679,51,32,0
167.85353,169.47679,41,27,0
169.47679,171.09883,71,32,0
171.09883,172.72089,47,33,0
171.09883,172.72089,41,28,0
172.72089,174.74948,71,33,0
174.74948,176.433,46,28,0
174.74948,176.433,34,23,0
176.433,178.05217,70,28,0
178.77405,178.83897,77,33,0
178.05217,178.83897,46,28,0
178.05217,178.83897,34,28,0
178.83897,179.61649,82,49,0
180.3224,180.38669,89,45,0
179.61649,180.38669,58,42,0
179.61649,180.38669,46,42,0
180.38669,181.19041,94,68,0
181.19041,181.95436,51,43,0
181.19041,181.95436,39,36,0
182.2141,182.72258,46,41,0
182.2141,182.72258,34,34,0
182.72258,183.44948,53,44,0
182.72258,183.44948,41,36,0
183.70479,184.21552,46,41,0
183.70479,184.21552,34,34,0
184.21552,184.95264,51,40,0
184.21552,184.95264,39,34,0
185.20058,185.69104,46,41,0
185.20058,185.69104,34,34,0
185.69104,186.39946,53,41,0
185.69104,186.39946,41,34,0
186.64961,187.17891,46,41,0
186.64961,187.17891,34,34,0
187.17891,187.42511,51,44,0
187.42511,187.65784,67,39,0
187.65784,188.14508,67,39,0
188.14508,188.39548,63,37,0
188.39548,188.64587,58,37,0
188.64587,188.87828,51,44,0
188.87828,189.53665,68,39,0
189.53665,189.75143,62,37,0
189.75143,189.97467,58,37,0
189.97467,190.18654,51,44,0
190.18654,190.62802,67,39,0
190.87459,191.11931,63,35,0
191.11931,191.36401,58,31,0
191.36401,191.58568,51,44,0
191.58568,192.02034,68,39,0
192.23256,192.44807,62,37,0
192.44807,192.67213,58,37,0
192.67213,192.88617,51,44,0
192.88617,193.58652,67,39,0
193.58652,193.83467,63,36,0
193.83467,194.08282,55,34,0
194.08282,194.31369,46,44,0
194.31369,194.99469,56,39,0
194.99469,195.21974,52,37,0
195.21974,195.46098,53,37,0
195.46098,195.68369,46,44,0
195.68369,196.38268,55,39,0
196.38268,196.62218,58,37,0
196.62218,196.86168,55,37,0
196.86168,197.09299,46,44,0
197.09299,197.82808,56,39,0
197.82808,198.0827,52,37,0
198.0827,198.33733,53,37,0
198.33733,199.09383,51,43,0
198.33733,199.09383,39,36,0
199.35133,199.8434,46,41,0
199.35133,199.8434,34,34,0
199.8434,200.55405,53,44,0
199.8434,200.55405,41,36,0
200.79501,201.28685,46,41,0
200.79501,201.28685,34,34,0
201.28685,202.01683,51,40,0
201.28685,202.01683,39,34,0
202.26013,202.7506,46,41,0
202.26013,202.7506,34,34,0
202.7506,203.45938,53,41,0
202.7506,203.45938,41,34,0
203.70953,204.23882,46,41,0
203.70953,204.23882,34,34,0
204.23882,204.48503,51,44,0
204.48503,204.71776,67,39,0
204.71776,205.19603,67,39,0
205.19603,205.43933,63,37,0
205.43933,205.68948,58,37,0
205.68948,205.92189,51,44,0
205.92189,206.59854,68,39,0
206.59854,206.81406,61,37,0
206.81406,207.03572,58,37,0
207.03572,207.25351,51,44,0
207.25351,207.92499,67,39,0
207.92499,208.15826,61,37,0
208.15826,208.40253,58,37,0
208.40253,208.62419,51,44,0
208.62419,209.27846,61,39,0
209.27846,209.49702,55,37,0
209.49702,209.72107,51,37,0
209.72107,209.93886,44,44,0
209.93886,210.62259,60,39,0
210.62259,210.85588,56,39,0
210.85588,211.08916,51,39,0
211.08916,211.30467,44,48,0
211.30467,211.98262,63,42,0
211.98262,212.21248,60,39,0
212.21248,212.44232,56,39,0
212.44232,212.65858,44,50,0
212.65858,213.34232,59,45,0
213.34232,213.5756,56,44,0
213.5756,213.80888,51,45,0
213.80888,214.0244,44,54,0
214.0244,214.70235,63,49,0
214.70235,214.96405,59,48,0
214.96405,215.27548,56,49,0
215.27548,215.5217,46,65,0
215.5217,215.75443,67,45,0
215.75443,216.23958,67,45,0
216.24165,216.49205,63,43,0
216.49205,216.74245,58,43,0
216.74245,216.97487,46,51,0
216.97487,217.6238,68,45,0
217.6238,217.83931,62,43,0
217.83931,218.06255,58,43,0
218.06255,218.27586,51,51,0
218.27586,218.71735,67,45,0
218.96391,219.20863,63,43,0
219.20863,219.45334,58,43,0
219.45334,219.68576,48,51,0
219.68576,220.33469,61,45,0
220.33469,220.5502,60,43,0
220.5502,220.77345,64,43,0
220.77345,220.98676,41,51,0
220.98676,221.68642,63,45,0
221.68642,221.93114,53,43,0
221.93114,222.17586,63,43,0
222.17586,222.40826,46,51,0
222.40826,223.05396,56,45,0
223.05396,223.26947,55,43,0
223.26947,223.4927,63,43,0
223.4927,223.70602,46,48,0
223.70602,224.40834,63,45,0
224.40834,224.65306,58,43,0
224.65306,224.89778,68,43,0
224.89778,225.11711,46,45,0
225.11711,225.36304,55,40,0
225.36304,225.62257,56,38,0
225.62257,226.05037,60,35,0
226.05037,226.52634,58,34,0
226.52634,227.28284,51,43,0
226.52634,227.28284,39,36,0
227.54034,228.03044,46,41,0
227.54034,228.03044,34,34,0
228.03044,228.74484,53,44,0
228.03044,228.74484,41,36,0
228.98679,229.46782,46,41,0
228.98679,229.46782,34,34,0
229.46782,230.1978,51,40,0
229.46782,230.1978,39,34,0
230.44112,230.93158,46,41,0
230.44112,230.93158,34,34,0
230.93158,231.64037,53,41,0
230.93158,231.64037,41,34,0
231.8905,232.4198,46,41,0
231.8905,232.4198,34,34,0
232.4198,232.666,51,29,0
232.666,232.89874,67,26,0
232.89874,233.38597,67,26,0
233.38597,233.63637,63,24,0
233.63637,233.88676,58,24,0
233.88676,234.11919,51,29,0
234.11919,234.78497,68,26,0
234.78497,235.0043,62,24,0
235.0043,235.22754,58,24,0
235.22754,235.4438,51,29,0
235.4438,235.88528,67,26,0
236.13185,236.37657,63,24,0
236.37657,236.62129,58,24,0
236.62129,236.84296,51,29,0
236.84296,237.27834,68,26,0
237.49129,237.70984,62,24,0
237.70984,237.9339,58,24,0
237.9339,238.15016,51,29,0
238.15016,238.8505,67,26,0
238.8505,239.09866,63,24,0
239.09866,239.34682,55,24,0
239.34682,239.57768,46,29,0
239.57768,240.25868,56,26,0
240.25868,240.48373,52,24,0
240.48373,240.72498,53,24,0
240.72498,240.94768,46,29,0
240.94768,241.64667,55,26,0
241.64667,241.88617,58,24,0
241.88617,242.12567,55,24,0
242.12567,242.35696,46,29,0
242.35696,243.09207,56,26,0
243.09207,243.3467,52,24,0
243.3467,243.60132,53,24,0
243.60132,243.84752,51,29,0
243.84752,244.08026,67,26,0
244.08026,244.56749,67,26,0
244.56749,244.81789,63,24,0
244.81789,245.06828,58,24,0
245.06828,245.30069,51,29,0
245.30069,245.96648,68,26,0
245.96648,246.1858,62,24,0
246.1858,246.40906,58,24,0
246.40906,246.62384,51,29,0
246.62384,247.0653,67,26,0
247.31187,247.5566,63,24,0
247.5566,247.80132,58,24,0
247.80132,248.02298,51,29,0
248.02298,248.46062,68,26,0
248.67647,248.89503,62,24,0
248.89503,249.11908,58,24,0
249.11908,249.33534,51,29,0
249.33534,250.03569,67,26,0
250.03569,250.28384,63,24,0
250.28384,250.53201,55,24,0
250.53201,250.76286,46,29,0
250.76286,251.44386,56,26,0
251.44386,251.66893,52,24,0
251.66893,251.91016,53,24,0
251.91016,252.13286,46,29,0
252.13286,252.83185,55,26,0
252.83185,253.07135,58,24,0
253.07135,253.31085,55,24,0
253.31085,253.54216,46,29,0
253.54216,254.27725,56,26,0
254.27725,254.53188,52,24,0
254.53188,254.7865,53,24,0
254.7865,255.543,51,32,0
254.7865,255.543,39,27,0
255.79941,256.28806,46,30,0
255.79941,256.28806,34,25,0
256.28806,256.99078,53,33,0
256.28806,256.99078,41,27,0
257.23035,257.7114,46,30,0
257.23035,257.7114,34,25,0
257.7114,258.44138,51,30,0
257.7114,258.44138,39,25,0
258.6847,259.17514,46,30,0
258.6847,259.17514,34,25,0
259.17514,259.87784,53,30,0
259.17514,259.87784,41,25,0
260.11926,260.60217,46,30,0
260.11926,260.60217,34,25,0
260.60217,261.33215,51,30,0
260.60217,261.33215,39,25,0
261.58847,262.0908,46,28,0
261.58847,262.0908,34,23,0
262.0908,262.94092,51,27,0
262.0908,262.94092,39,23,0
263.2601,264.0815,46,24,0
263.2601,264.0815,34,19,0
264.0815,266.41736,51,25,0
264.0815,266.41736,39,20,0
266.41736,267.19598,63,30,0
266.41736,267.19598,51,25,0
267.19598,268.7532,51,30,0
267.19598,268.7532,39,25,0
