start_time,end_time,note_value,velocity,instrument_program_number
13.026321,13.41119,81,80,40
13.421058,13.805926,81,80,40
13.815795,14.200664,81,80,40
14.210532,15.680927,81,80,40
15.740138,15.782901,81,80,40
15.78948,16.947374,90,80,40
16.973692,17.16448,88,80,40
17.171059,17.361849,86,80,40
17.368427,18.141455,86,80,40
18.157902,18.444086,85,80,40
18.453955,18.54606,86,80,40
18.552639,18.611849,88,80,40
18.61843,18.674349,86,80,40
18.677639,18.74343,88,80,40
18.750008,18.842113,86,80,40
18.848692,18.891455,85,80,40
18.898033,18.940798,86,80,40
18.947376,19.332245,88,80,40
20.526323,21.99672,81,80,40
22.05593,22.098694,81,80,40
22.105272,23.263166,91,80,40
23.289482,23.480272,90,80,40
23.48685,23.67764,88,80,40
23.68422,24.457247,88,80,40
24.473694,24.759878,86,80,40
24.769747,24.861853,88,80,40
24.868431,24.92764,90,80,40
24.934221,24.99014,88,80,40
24.993431,25.059221,90,80,40
25.0658,25.157906,88,80,40
25.164484,25.207247,86,80,40
25.213825,25.25659,88,80,40
25.263168,25.648037,90,80,40
26.842115,27.575668,81,49,40
27.582249,27.625011,85,49,40
27.63159,27.917774,83,49,40
27.927643,28.019749,81,49,40
28.026327,28.312511,83,49,40
28.32238,28.414486,86,49,40
28.421064,29.000011,81,49,40
29.111855,29.154617,81,49,40
29.161196,29.496723,79,49,40
29.50659,29.598696,78,49,40
29.605274,29.891459,79,49,40
29.901327,29.993433,81,49,40
30.000011,30.57896,78,49,40
30.690802,30.733564,78,49,40
30.740145,31.07567,76,49,40
31.085539,31.177645,74,49,40
31.184223,31.470407,76,49,40
31.480276,31.57567,78,49,40
31.57896,35.059223,74,105,40
35.13159,35.51646,86,104,40
35.52633,35.911198,85,104,40
35.921066,36.305935,84,104,40
36.315804,36.700672,83,104,40
36.71054,37.09541,82,104,40
37.105278,37.490147,83,104,40
37.500015,37.884884,80,104,40
37.894753,38.27962,81,104,40
38.28949,38.628304,74,104,40
38.634884,38.677647,78,104,40
38.684227,39.02304,76,104,40
39.02962,39.072384,79,104,40
39.078964,39.417778,78,104,40
39.42436,39.46712,81,104,40
39.4737,39.85857,79,104,40
39.86844,40.641464,79,104,40
40.65791,41.437515,78,104,40
41.447384,42.220413,76,104,40
42.23686,42.621727,74,104,40
42.631596,42.822384,73,104,40
43.026333,43.21712,76,104,40
43.42107,43.61186,69,104,40
43.815807,44.006596,81,104,40
44.210545,44.401333,80,104,40
44.60528,44.79607,76,104,40
45.00002,45.190807,74,104,40
45.394756,45.585545,71,104,40
45.789494,46.174362,73,104,40
46.9737,47.35857,73,104,40
47.36844,48.101994,74,104,40
48.10857,48.151337,76,104,40
48.157913,48.4441,74,104,40
48.453968,48.546074,73,104,40
48.55265,48.838837,74,104,40
48.848705,48.940807,76,104,40
48.947388,49.332256,73,104,40
50.921074,51.305943,71,104,40
51.31581,51.70068,70,104,40
51.71055,52.095417,76,104,40
52.105286,52.490154,74,104,40
52.500023,52.884888,69,104,40
52.894756,53.279625,68,104,40
53.289494,53.674362,74,104,40
53.68423,54.0691,73,104,40
54.078968,54.463837,76,104,40
54.473705,54.858574,75,104,40
54.868443,55.25331,81,104,40
55.26318,55.64805,80,104,40
56.44739,57.220417,78,104,40
57.236866,58.00989,80,104,40
58.02634,58.799366,81,104,40
58.81581,59.58884,81,104,40
59.605286,60.378315,82,104,40
60.39476,61.16779,83,104,40
61.184235,61.95726,80,104,40
61.97371,62.746735,81,104,40
62.763184,63.148052,85,104,40
63.15792,63.54279,86,104,40
63.552658,64.32568,86,127,40
64.34213,64.727,85,104,40
64.73687,65.121735,83,104,40
65.13161,65.90463,83,127,40
65.92108,66.30595,81,104,40
66.31582,66.70068,80,104,40
67.50003,68.273056,78,104,40
68.2895,69.06253,80,104,40
69.07897,69.852005,80,104,40
69.86845,70.64147,81,104,40
70.65792,71.43095,79,104,40
71.447395,71.83227,78,104,40
71.84213,72.227005,78,104,40
72.23687,72.62174,78,104,40
72.63161,73.01648,78,104,40
73.026344,73.41122,83,49,40
73.42108,73.805954,83,49,40
73.81582,74.20069,83,49,40
74.210556,75.75661,83,49,40
75.789505,76.56253,84,49,40
76.57898,77.302666,87,105,40
77.368454,77.75332,88,65,40
78.15793,78.54279,80,104,40
78.15793,78.54279,71,104,40
78.9474,79.07569,81,104,40
79.07898,79.20727,80,104,40
79.210556,79.338844,78,104,40
79.34214,79.47043,76,104,40
79.47372,79.602005,74,104,40
79.60529,79.73358,73,104,40
79.73688,79.865166,71,104,40
79.868454,79.99674,69,104,40
80.00003,80.12832,68,104,40
80.131615,80.2599,66,104,40
80.26319,80.39148,64,104,40
80.39477,80.523056,62,104,40
80.526344,80.91122,61,104,40
80.92108,81.305954,62,104,40
81.31582,81.70069,63,104,40
81.710556,82.09543,64,104,40
82.10529,82.23359,81,104,40
82.23688,82.365166,83,104,40
82.368454,82.49674,81,104,40
82.50003,82.62832,80,104,40
82.631615,82.7599,78,104,40
82.76319,82.89148,76,104,40
82.89477,83.023056,74,104,40
83.02635,83.15464,73,104,40
83.15793,83.28622,71,104,40
83.289505,83.41779,69,104,40
83.42109,83.54938,68,104,40
83.552666,83.680954,66,104,40
83.68424,84.069115,65,104,40
84.07898,84.46385,66,104,40
84.47372,84.85859,68,104,40
84.868454,85.25333,69,104,40
85.26319,85.64806,71,104,40
85.65793,86.0428,72,104,40
86.052666,86.43754,73,104,40
86.4474,86.83227,74,104,40
86.84214,87.227005,73,104,40
87.23688,87.62174,76,104,40
87.631615,87.8224,74,104,40
87.82898,88.019775,73,104,40
88.02635,88.21714,74,104,40
88.22372,88.41451,71,104,40
88.42109,88.54938,69,64,40
88.552666,88.680954,76,64,40
88.68424,88.81254,76,64,40
88.81583,88.944115,76,64,40
88.9474,89.07569,76,64,40
89.07898,89.207275,76,64,40
89.21056,89.33885,76,64,40
89.34214,89.47043,76,64,40
89.47372,89.60201,76,64,40
89.6053,89.73359,76,64,40
89.73688,89.865166,76,64,40
89.868454,89.99675,76,64,40
90.00004,90.12833,76,64,40
90.131615,90.2599,76,64,40
90.26319,90.39149,76,64,40
90.394775,90.52306,76,64,40
90.52635,90.65464,76,64,40
90.65793,90.78622,76,64,40
90.78951,90.9178,80,64,40
90.92109,91.04938,80,64,40
91.052666,91.180954,80,64,40
91.18425,91.31254,80,64,40
91.31583,91.444115,80,64,40
91.4474,91.57569,80,64,40
91.57899,91.96385,81,64,40
106.18425,106.56912,81,80,40
106.57899,106.96386,81,80,40
106.973724,107.3586,81,80,40
107.36846,108.83886,81,80,40
108.89807,108.940834,81,80,40
108.94741,110.10531,90,80,40
110.13162,110.32241,88,80,40
110.328995,110.51978,86,80,40
110.52636,111.299385,86,80,40
111.315834,111.60202,85,80,40
111.611885,111.703995,86,80,40
111.71057,111.76978,88,80,40
111.77636,111.83228,86,80,40
111.83557,111.90136,88,80,40
111.907936,112.000046,86,80,40
112.00662,112.049385,85,80,40
112.05597,112.09873,86,80,40
112.10531,112.49017,88,80,40
113.68426,115.15465,81,80,40
115.21386,115.25662,81,80,40
115.26321,116.4211,91,80,40
116.44742,116.63821,90,80,40
116.64478,116.83557,88,80,40
116.842155,117.61518,88,80,40
117.63162,117.91781,86,80,40
117.92768,118.01978,88,80,40
118.02636,118.08557,90,80,40
118.092155,118.14807,88,80,40
118.15136,118.217155,90,80,40
118.22373,118.315834,88,80,40
118.32242,118.36518,86,80,40
118.37176,118.41452,88,80,40
118.4211,118.80597,90,80,40
120.000046,120.733604,81,49,40
120.74018,120.78294,85,49,40
120.78952,121.07571,83,49,40
121.08557,121.17768,81,49,40
121.18426,121.47044,83,49,40
121.48031,121.57242,86,49,40
121.578995,122.15794,81,49,40
122.26978,122.312546,81,49,40
122.31913,122.654655,79,49,40
122.66452,122.75663,78,49,40
122.76321,123.04939,79,49,40
123.05926,123.15137,81,49,40
123.15794,123.73689,78,49,40
123.84873,123.891495,78,49,40
123.89808,124.233604,76,49,40
124.24347,124.33558,74,49,40
124.342155,124.62834,76,49,40
124.63821,124.733604,78,49,40
124.73689,128.21716,74,105,40
128.28952,128.6744,86,104,40
128.68427,129.06914,85,104,40
129.079,129.46387,84,104,40
129.47374,129.85861,83,104,40
129.86847,130.25334,82,104,40
130.26321,130.64807,83,104,40
130.65794,131.04282,80,104,40
131.05269,131.43755,81,104,40
131.44742,131.78624,74,104,40
131.79282,131.83559,78,104,40
131.84216,132.18097,76,104,40
132.18755,132.23032,79,104,40
132.2369,132.57571,78,104,40
132.58229,132.62505,81,104,40
132.63164,133.0165,79,104,40
133.02637,133.7994,79,104,40
133.81584,134.59544,78,104,40
134.60532,135.37834,76,104,40
135.39479,135.77966,74,104,40
135.78954,135.98032,73,104,40
136.18427,136.37506,76,104,40
136.579,136.76979,69,104,40
136.97374,137.16454,81,104,40
137.36847,137.55927,80,104,40
137.76321,137.95401,76,104,40
138.15794,138.34874,74,104,40
138.55269,138.74347,71,104,40
138.94742,139.33229,73,104,40
140.13164,140.51651,73,104,40
140.52637,141.25992,74,104,40
141.26651,141.30927,76,104,40
141.31584,141.60204,74,104,40
141.6119,141.70401,73,104,40
141.71059,141.99677,74,104,40
142.00664,142.09874,76,104,40
142.10532,142.49019,73,104,40
144.07901,144.46387,71,104,40
144.47374,144.85861,70,104,40
144.86848,145.25334,76,104,40
145.26321,145.64809,74,104,40
145.65796,146.04282,69,104,40
146.05269,146.43756,68,104,40
146.44743,146.83229,74,104,40
146.84216,147.22704,73,104,40
147.23691,147.62177,76,104,40
147.63164,148.01651,75,104,40
148.02638,148.41124,81,104,40
148.42111,148.80598,80,104,40
149.60532,150.37836,78,104,40
150.39479,151.16782,80,104,40
151.18427,151.95729,81,104,40
151.97374,152.74677,81,104,40
152.76321,153.53624,82,104,40
153.55269,154.32571,83,104,40
154.34216,155.11519,80,104,40
155.13164,155.90466,81,104,40
155.92111,156.30598,85,104,40
156.31586,156.70071,86,104,40
156.71059,157.48361,86,127,40
157.50006,157.88493,85,104,40
157.8948,158.27966,83,104,40
158.28954,159.06256,83,127,40
159.07901,159.46388,81,104,40
159.47375,159.85861,80,104,40
160.65796,161.43098,78,104,40
161.44743,162.22046,80,104,40
162.23691,163.00993,80,104,40
163.02638,163.79941,81,104,40
163.81586,164.58888,79,104,40
164.60533,164.9902,78,104,40
165.00006,165.38493,78,104,40
165.3948,165.77968,78,104,40
165.78954,166.17441,78,104,40
166.18428,166.56915,83,49,40
166.57901,166.96388,83,49,40
166.97375,167.35861,83,49,40
167.36848,168.91454,83,49,40
168.94743,169.72046,84,49,40
169.73691,170.4606,87,105,40
170.52638,170.91125,88,65,40
171.31586,171.70073,80,104,40
171.31586,171.70073,71,104,40
172.10533,172.23363,81,104,40
172.23691,172.3652,80,104,40
172.36848,172.49678,78,104,40
172.50008,172.62836,76,104,40
172.63165,172.75993,74,104,40
172.76323,172.89151,73,104,40
172.8948,173.0231,71,104,40
173.02638,173.15468,69,104,40
173.15796,173.28625,68,104,40
173.28954,173.41783,66,104,40
173.42113,173.54941,64,104,40
173.5527,173.68098,62,104,40
173.68428,174.06915,61,104,40
174.07901,174.46388,62,104,40
174.47375,174.85863,63,104,40
174.86848,175.25336,64,104,40
175.26323,175.39151,81,104,40
175.3948,175.5231,83,104,40
175.52638,175.65468,81,104,40
175.65796,175.78625,80,104,40
175.78955,175.91783,78,104,40
175.92113,176.04941,76,104,40
176.0527,176.18098,74,104,40
176.18428,176.31258,73,104,40
176.31586,176.44415,71,104,40
176.44743,176.57573,69,104,40
176.57903,176.7073,68,104,40
176.7106,176.83888,66,104,40
176.84218,177.22705,65,104,40
177.23691,177.62178,66,104,40
177.63165,178.01653,68,104,40
178.02638,178.41125,69,104,40
178.42113,178.806,71,104,40
178.81586,179.20073,72,104,40
179.2106,179.59546,73,104,40
179.60533,179.9902,74,104,40
180.00008,180.38493,73,104,40
180.3948,180.77968,76,104,40
180.78955,180.98033,74,104,40
180.98691,181.1777,73,104,40
181.18428,181.37508,74,104,40
181.38165,181.57243,71,104,40
181.57903,181.7073,69,64,40
181.7106,181.83888,76,64,40
181.84218,181.97047,76,64,40
181.97375,182.10205,76,64,40
182.10533,182.23363,76,64,40
182.23691,182.3652,76,64,40
182.3685,182.49678,76,64,40
182.50008,182.62836,76,64,40
182.63165,182.75995,76,64,40
182.76323,182.89153,76,64,40
182.8948,183.0231,76,64,40
183.02638,183.15468,76,64,40
183.15797,183.28625,76,64,40
183.28955,183.41783,76,64,40
183.42113,183.54941,76,64,40
183.5527,183.681,76,64,40
183.68428,183.81258,76,64,40
183.81586,183.94415,76,64,40
183.94745,184.07573,80,64,40
184.07903,184.2073,80,64,40
184.2106,184.33888,80,64,40
184.34218,184.47047,80,64,40
184.47375,184.60205,80,64,40
184.60533,184.73363,80,64,40
184.73692,185.12178,81,64,40
189.8685,190.25337,74,80,40
190.26323,190.6481,74,80,40
190.65797,191.04285,74,80,40
191.0527,192.5231,74,80,40
192.58232,192.62508,74,80,40
192.63165,193.78955,83,80,40
193.81587,194.00665,81,80,40
194.01323,194.20403,79,80,40
194.2106,194.98363,79,80,40
195.00008,195.28625,78,80,40
195.29613,195.38823,79,80,40
195.39482,195.45403,81,80,40
195.4606,195.51653,79,80,40
195.51982,195.5856,81,80,40
195.59218,195.6843,79,80,40
195.69087,195.73363,78,80,40
195.7402,195.78297,79,80,40
195.78955,196.17442,81,80,40
197.3685,198.8389,74,80,40
198.8981,198.94087,74,80,40
198.94745,200.10535,84,80,40
200.13165,200.32245,83,80,40
200.32903,200.51982,81,80,40
200.5264,201.29942,81,80,40
201.31587,201.60205,79,80,40
201.61192,201.70403,81,80,40
201.7106,201.76982,83,80,40
201.7764,201.83232,81,80,40
201.8356,201.9014,83,80,40
201.90797,202.00008,81,80,40
202.00665,202.04942,79,80,40
202.056,202.09877,81,80,40
202.10535,202.49022,83,80,40
203.6843,204.41785,74,49,40
204.42442,204.4672,78,49,40
204.47377,204.75995,76,49,40
204.76982,204.86192,74,49,40
204.8685,205.1547,76,49,40
205.16455,205.25667,79,49,40
205.26324,205.8422,74,49,40
205.95403,205.9968,74,49,40
206.00337,206.3389,72,49,40
206.34877,206.44087,71,49,40
206.44745,206.73364,72,49,40
206.7435,206.8356,74,49,40
206.8422,207.42114,71,49,40
207.53297,207.57574,71,49,40
207.58232,207.91785,69,49,40
207.92772,208.01982,67,49,40
208.0264,208.31258,69,49,40
208.32245,208.41455,71,49,40
208.42114,210.35535,67,105,40
210.39482,210.7797,66,104,40
210.78955,211.17442,67,104,40
211.1843,211.56917,68,104,40
211.57903,211.70732,69,104,40
211.71062,211.8389,73,104,40
211.8422,211.97047,74,104,40
211.97377,212.10207,76,104,40
212.10535,212.23364,78,104,40
212.23692,212.36522,80,104,40
212.3685,212.4968,81,104,40
212.50009,212.62837,83,104,40
212.63167,212.75995,81,104,40
212.76324,212.89153,79,104,40
212.89482,213.02312,78,104,40
213.0264,213.1547,76,104,40
213.15797,215.86522,78,104,40
215.92114,216.30602,76,104,40
216.31587,217.86192,75,104,40
217.89482,218.02312,76,104,40
218.0264,218.1547,83,104,40
218.15799,218.28627,81,104,40
218.28957,218.41785,79,104,40
218.42114,218.54942,78,104,40
218.55272,218.68102,76,104,40
218.6843,218.81259,74,104,40
218.81587,218.94417,72,104,40
218.94745,219.07574,71,104,40
219.07904,219.20732,69,104,40
219.21062,219.3389,67,104,40
219.3422,219.47049,66,104,40
219.47377,219.66457,64,104,40
219.67114,219.86192,59,104,40
219.86852,220.0593,64,104,40
220.06587,220.25667,67,104,40
220.26324,220.45404,71,104,40
220.46062,220.6514,76,104,40
220.65799,220.84877,79,104,40
220.85535,221.04614,83,104,40
221.05272,221.24352,62,104,40
221.25009,221.44087,64,104,40
221.44746,221.63824,68,104,40
221.64482,221.83562,71,104,40
221.8422,222.03299,74,104,40
222.03957,222.23035,76,104,40
222.23694,222.42772,80,104,40
222.4343,222.62509,83,104,40
222.63167,222.82246,61,104,40
222.82904,223.01982,65,104,40
223.0264,223.2172,68,104,40
223.22377,223.41457,72,104,40
223.42114,223.61194,73,104,40
223.61852,223.8093,77,104,40
223.81587,224.00667,80,104,40
224.01324,224.20404,83,104,40
224.21062,224.40141,61,104,40
224.40799,224.59877,65,104,40
224.60535,224.79614,66,104,40
224.80272,224.99352,69,104,40
225.00009,225.19087,73,104,40
225.19746,225.38824,77,104,40
225.39482,225.58562,78,104,40
225.5922,225.78299,81,104,40
225.78957,225.98035,62,104,40
225.98694,226.17772,66,104,40
226.1843,226.37509,69,104,40
226.38167,226.57246,73,104,40
226.57904,226.76982,74,104,40
226.77641,226.9672,78,104,40
226.97377,227.16457,81,104,40
227.17114,227.36194,86,104,40
227.36852,228.52641,90,104,40
228.55272,228.93759,88,104,40
228.94746,230.10536,86,104,40
230.13167,230.51654,85,104,40
230.52641,230.91127,84,104,40
230.92114,231.30602,84,104,40
231.31589,231.70074,84,104,40
231.71062,232.09549,84,104,40
232.10536,232.49022,85,79,40
234.07904,234.85207,80,79,40
234.86852,235.64154,81,79,40
236.44746,237.22049,79,79,40
237.23694,238.00996,82,79,40
238.02641,238.79944,83,79,40
238.81589,239.58891,86,105,40
240.39484,241.16786,76,51,40
241.97379,242.74681,85,105,40
241.97379,242.74681,69,105,40
243.55273,244.32576,78,51,40
244.73694,244.86523,71,104,40
244.86852,244.99681,83,104,40
245.00009,245.12839,81,104,40
245.13168,245.25996,79,104,40
245.26326,245.39154,78,104,40
245.39484,245.52312,76,104,40
245.52641,245.65471,74,104,40
245.65799,245.78629,79,104,40
245.78957,245.91786,78,104,40
245.92116,246.04944,76,104,40
246.05273,246.18102,74,104,40
246.18431,246.31259,73,104,40
246.31589,246.44418,71,104,40
246.44746,246.57576,66,104,40
246.57904,246.70734,71,104,40
246.71063,246.83891,73,104,40
246.84221,246.97049,66,104,40
246.97379,247.10207,73,104,40
247.10536,247.23366,74,104,40
247.23694,247.36523,76,104,40
247.36852,247.49681,78,104,40
247.50009,247.62839,76,104,40
247.63168,247.75996,74,104,40
247.76326,247.89154,73,104,40
247.89484,248.02313,71,104,40
248.02641,248.15471,83,104,40
248.15799,248.28629,81,104,40
248.28957,248.41786,79,104,40
248.42116,248.54944,78,104,40
248.55273,248.68102,76,104,40
248.68431,248.8126,74,104,40
248.81589,248.94418,79,104,40
248.94746,249.07576,78,104,40
249.07904,249.20734,76,104,40
249.21063,249.33891,74,104,40
249.34221,249.47049,73,104,40
249.47379,249.60207,71,104,40
249.60536,249.73366,73,104,40
249.73694,249.86523,74,104,40
249.86852,249.99681,73,104,40
250.0001,250.12839,71,104,40
250.13168,250.25996,69,104,40
250.26326,250.39154,67,104,40
250.39484,250.52313,69,104,40
250.52641,250.65471,71,104,40
250.65799,250.78629,69,104,40
250.78958,250.91786,67,104,40
250.92116,251.04944,66,104,40
251.05273,251.18102,64,104,40
251.18431,251.3126,64,104,40
251.31589,251.44418,64,104,40
251.44746,251.57576,63,104,40
251.57904,251.70734,63,104,40
251.71063,251.83891,63,104,40
251.84221,251.97049,64,104,40
251.97379,252.10208,64,104,40
252.10536,252.23366,64,104,40
252.23694,252.36523,65,104,40
252.36852,252.49681,65,104,40
252.5001,252.62839,65,104,40
252.63168,252.75996,66,104,40
252.76326,252.89156,66,104,40
252.89484,253.02313,66,104,40
253.02641,253.15471,67,104,40
253.15799,253.28629,67,104,40
253.28958,253.41786,67,104,40
253.42116,253.54944,64,104,40
253.55273,253.68102,64,104,40
253.68431,253.8126,64,104,40
253.81589,253.94418,66,104,40
253.94746,254.07576,66,104,40
254.07906,254.20734,66,104,40
254.21063,254.40141,62,49,40
254.60536,254.79616,64,49,40
255.0001,255.19089,61,49,40
255.39484,255.58563,62,49,40
255.78958,255.98036,59,49,40
256.18433,256.3751,61,49,40
256.57904,256.76984,62,49,40
256.9738,257.16458,63,49,40
257.36853,257.55933,64,49,40
257.76328,257.95404,66,49,40
258.158,258.3488,67,49,40
258.55273,258.74353,73,49,40
258.94748,260.41788,81,80,40
260.47708,260.51984,81,80,40
260.52643,261.68433,90,80,40
261.71063,261.90143,88,80,40
261.908,262.0988,86,80,40
262.10538,262.8784,86,80,40
262.89484,263.18103,85,80,40
263.1909,263.283,86,80,40
263.28958,263.3488,88,80,40
263.35538,263.4113,86,80,40
263.41458,263.48038,88,80,40
263.48694,263.57904,86,80,40
263.58563,263.6284,85,80,40
263.63498,263.67773,86,80,40
263.68433,264.06918,88,80,40
265.26328,266.73367,81,80,40
266.79288,266.83563,81,80,40
266.84222,268.00012,91,80,40
268.02643,268.21722,90,80,40
268.2238,268.41458,88,80,40
268.42117,269.19418,88,80,40
269.21063,269.49683,86,80,40
269.50668,269.5988,88,80,40
269.60538,269.66458,90,80,40
269.67117,269.72708,88,80,40
269.73038,269.79617,90,80,40
269.80273,269.89484,88,80,40
269.90143,269.94418,86,80,40
269.95078,269.99353,88,80,40
270.00012,270.38498,90,80,40
271.57907,272.31262,81,49,40
272.31918,272.36194,85,49,40
272.36853,272.65472,83,49,40
272.66458,272.75668,81,49,40
272.76328,273.04944,83,49,40
273.05933,273.15143,86,49,40
273.158,273.73694,81,49,40
273.8488,273.89157,81,49,40
273.89813,274.23367,79,49,40
274.24353,274.33563,78,49,40
274.34222,274.6284,79,49,40
274.63828,274.73038,81,49,40
274.73694,275.3159,78,49,40
275.42773,275.47052,78,49,40
275.47708,275.81262,76,49,40
275.82248,275.91458,74,49,40
275.92117,276.20734,76,49,40
276.21722,276.30933,78,49,40
276.21722,276.30933,78,49,40
276.3159,276.70078,74,49,40
277.50012,277.88498,85,104,40
277.89484,278.02313,86,104,40
278.02643,278.15472,85,104,40
278.15802,278.2863,83,104,40
278.28958,278.41788,81,104,40
278.42117,278.54944,79,104,40
278.55273,278.68103,78,104,40
278.68433,278.81262,76,104,40
278.8159,278.94418,74,104,40
278.94748,279.07578,73,104,40
279.07907,279.20734,71,104,40
279.21063,279.33893,69,104,40
279.34222,279.47052,67,104,40
279.4738,279.85867,66,104,40
279.86853,280.2534,67,104,40
280.26328,280.64813,68,104,40
280.65802,281.04288,69,104,40
281.05273,281.43762,62,104,40
281.44748,281.83234,64,104,40
281.84222,282.22708,65,104,40
282.23697,282.62183,66,104,40
282.63168,283.40472,71,104,40
283.42117,284.19418,69,104,40
284.21063,284.98367,67,104,40
285.00012,285.77313,66,104,40
285.78958,286.56262,64,104,40
286.57907,287.35208,62,104,40
287.36853,287.75342,61,104,40
287.76328,288.14813,62,104,40
288.15802,288.54288,63,104,40
288.55273,288.93762,64,104,40
288.94748,289.33237,66,104,40
289.34222,289.72708,67,104,40
289.73697,290.12183,68,104,40
290.13168,290.51657,69,104,40
290.52643,291.29947,71,104,40
291.31592,292.08893,73,104,40
292.10538,292.23367,74,104,40
292.23697,292.36523,81,104,40
292.36853,292.49683,79,104,40
292.50012,292.62842,78,104,40
292.63168,292.75998,76,104,40
292.76328,292.89157,74,104,40
292.89487,293.02313,73,104,40
293.02643,293.15472,71,104,40
293.15802,293.28632,69,104,40
293.28958,293.41788,67,104,40
293.42117,293.54947,66,104,40
293.55273,293.68103,64,104,40
293.68433,294.06918,62,104,40
295.26328,295.39157,74,49,40
295.39487,295.52313,81,49,40
295.52643,295.65472,79,49,40
295.65802,295.78632,78,49,40
295.78958,295.91788,76,49,40
295.92117,296.04947,74,49,40
296.05276,296.18103,73,49,40
296.18433,296.31262,71,49,40
296.31592,296.44418,69,49,40
296.44748,296.57578,67,49,40
296.57907,296.70737,66,49,40
296.71063,296.83893,64,49,40
296.84222,297.22708,62,49,40
298.42117,298.54947,62,104,40
298.55276,298.68103,90,104,40
298.68433,298.81262,88,104,40
298.81592,298.94418,86,104,40
298.94748,299.07578,85,104,40
299.07907,299.20737,83,104,40
299.21063,299.33893,81,104,40
299.34222,299.47052,80,104,40
299.47382,299.60208,78,104,40
299.60538,299.73367,76,104,40
299.73697,299.86526,78,104,40
299.86853,299.99683,74,104,40
300.00012,300.38498,73,104,40
301.18433,301.95737,71,104,40
301.97382,302.74683,79,104,40
302.76328,303.53632,69,104,40
303.55276,304.32578,78,104,40
304.34222,305.11526,67,104,40
305.1317,305.90472,76,104,40
305.92117,306.30603,67,104,40
306.31592,306.70078,65,104,40
306.71066,307.48367,69,104,40
307.50012,308.27316,74,104,40
308.2896,308.67447,76,104,40
308.68433,309.0692,77,104,40
309.07907,309.46393,78,104,40
309.47382,310.24683,79,104,40
310.26328,311.42117,80,104,40
311.44748,311.83237,81,104,40
311.84222,312.2271,83,104,40
312.23697,312.62183,85,104,40
312.6317,313.01657,86,104,40
313.02643,313.41132,87,104,40
313.42117,313.80606,88,104,40
313.81592,314.20093,90,104,40
314.21094,314.3437,91,104,40
314.34714,314.48566,90,104,40
314.48926,314.634,88,104,40
314.6378,314.78918,86,104,40
314.79312,314.9467,85,104,40
314.95062,315.10294,83,104,40
315.10684,315.5789,81,104,40
315.5914,316.09607,81,104,40
316.10944,318.15625,81,104,40
318.5065,320.0196,81,80,40
320.0788,320.12155,81,80,40
320.12814,321.28604,90,80,40
321.31235,321.50314,88,80,40
321.5097,321.7005,86,80,40
321.7071,322.4801,86,80,40
322.49655,322.78275,85,80,40
322.7926,322.8847,86,80,40
322.8913,322.9505,88,80,40
322.9571,323.013,86,80,40
323.0163,323.0821,88,80,40
323.08865,323.18076,86,80,40
323.18735,323.2301,85,80,40
323.2367,323.27945,86,80,40
323.28604,323.6709,88,80,40
324.865,326.3354,81,80,40
326.3946,326.43735,81,80,40
326.44394,327.60184,91,80,40
327.62814,327.81894,90,80,40
327.8255,328.0163,88,80,40
328.0229,328.7959,88,80,40
328.81235,329.09854,86,80,40
329.1084,329.2005,88,80,40
329.2071,329.2663,90,80,40
329.2729,329.3288,88,80,40
329.3321,329.3979,90,80,40
329.40445,329.49655,88,80,40
329.50314,329.5459,86,80,40
329.5525,329.59525,88,80,40
329.60184,329.9867,90,80,40
331.1808,331.91434,81,49,40
331.9209,331.96365,85,49,40
331.97025,332.25644,83,49,40
332.2663,332.3584,81,49,40
332.365,332.65115,83,49,40
332.66104,332.75314,86,49,40
332.7597,333.33865,81,49,40
333.4505,333.4933,81,49,40
333.49985,333.8354,79,49,40
333.84525,333.93735,78,49,40
333.94394,334.2301,79,49,40
334.24,334.3321,81,49,40
334.33865,334.9176,78,49,40
335.02945,335.07224,78,49,40
335.0788,335.41434,76,49,40
335.4242,335.5163,74,49,40
335.5229,335.80905,76,49,40
335.81894,335.91104,78,49,40
335.81894,335.91104,78,49,40
335.9176,336.1084,74,49,40
336.115,336.1808,76,49,40
336.1808,336.24655,74,49,40
336.24655,336.31235,73,49,40
336.31235,336.60184,74,49,40
336.6084,336.7038,76,49,40
336.7071,337.09195,78,49,40
337.10184,337.4867,80,49,40
337.49655,337.88144,81,49,40
338.6808,339.4538,71,49,40
339.47025,340.2433,73,49,40
340.25974,341.03275,74,49,40
341.0492,341.82224,74,49,40
341.83868,342.6117,75,49,40
342.62814,343.40118,76,49,40
343.41763,344.19064,73,49,40
344.2071,344.98013,74,49,40
344.99658,345.38144,78,49,40
345.3913,345.77618,79,49,40
345.78604,346.55908,79,105,40
346.5755,346.9604,78,49,40
346.97025,347.35513,76,49,40
347.365,348.138,76,105,40
348.15445,348.53934,74,49,40
348.5492,348.93408,73,49,40
349.7334,350.50644,71,49,40
350.5229,351.2959,73,49,40
351.31235,351.69724,73,49,40
351.7071,352.09195,73,49,40
352.10184,352.87485,74,49,40
352.8913,353.66434,72,49,40
353.6808,354.06564,71,49,40
354.07553,354.4604,71,49,40
354.47025,355.2433,71,49,40
355.25974,355.6446,76,49,40
355.65448,356.03934,76,49,40
356.0492,356.43408,76,49,40
356.44394,357.99,76,49,40
358.0229,358.79593,77,49,40
358.81235,359.5854,80,100,40
359.60184,359.9867,81,50,40
360.3913,360.77618,85,49,40
361.1808,361.30908,86,104,40
361.31238,361.44064,85,104,40
361.44394,361.57224,83,104,40
361.57553,361.7038,81,104,40
361.7071,361.8354,79,104,40
361.83868,361.96698,78,104,40
361.97025,362.09854,76,104,40
362.10184,362.23013,74,104,40
362.23343,362.3617,73,104,40
362.365,362.4933,71,104,40
362.49658,362.62488,69,104,40
362.62814,362.75644,67,104,40
362.75974,363.1446,66,104,40
363.15448,363.53934,67,104,40
363.5492,363.93408,68,104,40
363.94394,364.3288,69,104,40
364.33868,364.46698,74,104,40
364.47025,364.59854,86,104,40
364.60184,364.73013,85,104,40
364.73343,364.8617,83,104,40
364.865,364.9933,81,104,40
364.99658,365.12488,79,104,40
365.12814,365.25644,78,104,40
365.25974,365.38803,76,104,40
365.39133,365.5196,74,104,40
365.5229,365.65118,73,104,40
365.65448,365.78275,71,104,40
365.78604,365.91434,69,104,40
365.91763,366.3025,68,104,40
366.31238,366.69724,69,104,40
366.7071,367.09198,70,104,40
367.10184,367.4867,71,104,40
367.49658,367.88144,73,104,40
367.89133,368.27618,74,104,40
368.28604,368.67093,75,104,40
368.6808,369.06564,76,104,40
369.07553,369.4604,78,104,40
369.47028,369.85513,79,104,40
369.865,370.24988,76,104,40
370.25974,370.6446,73,104,40
370.65448,370.78278,74,104,40
370.78604,370.91434,81,49,40
370.91763,371.04593,81,49,40
371.0492,371.1775,81,49,40
371.1808,371.30908,81,49,40
371.31238,371.44064,81,49,40
371.44394,371.57224,81,49,40
371.57553,371.70383,81,49,40
371.7071,371.8354,81,49,40
371.83868,371.96698,81,49,40
371.97028,372.09854,81,49,40
372.10184,372.23013,81,49,40
372.23343,372.3617,81,49,40
372.365,372.4933,81,49,40
372.49658,372.62488,81,49,40
372.62814,372.75644,81,49,40
372.75974,372.88803,81,49,40
372.89133,373.0196,81,49,40
373.0229,373.15118,85,49,40
373.15448,373.28278,85,49,40
373.28604,373.41434,85,49,40
373.41763,373.54593,85,49,40
373.54922,373.6775,85,49,40
373.6808,373.80908,85,49,40
373.81238,374.19724,86,49,40
374.5725,374.61896,81,49,40
374.6261,374.9368,79,49,40
374.9475,375.04752,78,49,40
375.05466,375.3654,79,49,40
375.3761,375.4761,81,49,40
375.48325,375.90182,78,49,40
376.2964,376.347,78,49,40
376.35486,376.71634,76,49,40
376.72916,376.84955,74,49,40
376.85815,377.23636,76,49,40
377.2495,377.3726,78,49,40
377.38144,378.08307,74,49,40
1.578948,1.7697376,66,49,40
1.973685,2.1644745,67,49,40
2.368422,2.5592115,66,49,40
2.763159,2.9539485,64,49,40
3.157896,3.5427647,62,49,40
4.736844,4.927634,67,49,40
5.131581,5.3223705,69,49,40
5.526318,5.717108,67,49,40
5.921055,6.1118445,66,49,40
6.315792,6.506582,64,49,40
7.89474,8.085529,69,49,40
8.289477,8.480267,74,49,40
8.684214,8.875004,71,49,40
9.078951,9.26974,67,49,40
9.473688,9.664477,66,49,40
9.868425,10.059215,69,49,40
10.263162,10.453952,67,49,40
10.657899,10.848688,64,49,40
11.052636,11.243425,62,49,40
11.447373,11.638163,66,49,40
11.84211,12.0329,64,49,40
12.236847,12.427636,61,49,40
12.631584,13.016453,62,49,40
14.210532,14.401321,66,49,40
14.605269,14.796059,67,49,40
15.000006,15.190796,66,49,40
15.394743,15.585532,64,49,40
15.78948,16.174349,62,49,40
17.368427,17.559217,67,49,40
17.763165,17.953955,69,49,40
18.157902,18.348692,67,49,40
18.552639,18.74343,66,49,40
18.947376,19.332245,64,49,40
20.526323,20.717113,67,49,40
20.92106,21.11185,69,49,40
21.315798,21.506588,67,49,40
21.710535,21.901325,66,49,40
22.105272,22.49014,64,49,40
23.68422,23.87501,69,49,40
24.078957,24.269747,71,49,40
24.473694,24.664484,69,49,40
24.868431,25.059221,67,49,40
25.263168,25.648037,66,49,40
26.842115,27.032906,66,49,40
27.236853,27.427643,74,49,40
27.63159,27.82238,67,49,40
28.026327,28.217117,74,49,40
28.421064,28.611853,66,49,40
28.815802,29.00659,74,49,40
29.210539,29.401327,64,49,40
29.605274,29.796064,73,49,40
30.000011,30.38488,74,49,40
31.184223,31.569092,73,49,40
31.57896,32.351986,74,50,40
32.368435,32.753304,73,62,40
32.763172,33.14804,72,68,40
33.15791,33.542778,71,74,40
33.552647,33.937515,70,81,40
33.947384,34.33225,71,87,40
34.342117,34.726986,68,93,40
34.736855,35.121723,69,99,40
35.13159,35.90462,62,104,40
35.921066,36.69409,62,104,40
36.71054,37.483566,62,104,40
37.500015,38.27304,62,104,40
38.28949,38.67436,69,104,40
38.684227,39.069096,67,104,40
39.078964,39.463833,66,104,40
39.4737,39.85857,64,104,40
39.86844,40.641464,76,104,40
40.65791,40.8487,74,104,40
40.855278,41.04607,73,104,40
41.052647,42.5987,71,104,40
42.631596,43.016464,69,104,40
43.815807,44.200676,73,104,40
44.210545,44.98357,74,104,40
45.00002,45.289494,74,104,40
45.29607,45.391464,73,104,40
45.394756,45.684227,74,104,40
45.690807,45.7862,76,104,40
45.789494,45.98028,73,104,40
46.18423,46.37502,76,104,40
46.578964,46.769756,69,104,40
46.9737,47.164494,81,104,40
47.36844,47.55923,80,104,40
47.763176,47.953968,76,104,40
48.157913,48.348705,74,104,40
48.55265,48.74344,71,104,40
48.947388,49.332256,73,104,40
50.921074,51.305943,66,104,40
51.31581,51.70068,64,104,40
51.71055,52.095417,61,104,40
52.105286,52.490154,62,104,40
52.500023,52.884888,64,104,40
52.894756,53.279625,62,104,40
53.289494,53.674362,59,104,40
53.68423,54.0691,61,104,40
54.078968,54.463837,71,104,40
54.473705,54.858574,69,104,40
54.868443,55.25331,63,104,40
55.26318,55.64805,64,104,40
55.657917,56.430943,76,104,40
56.44739,57.220417,76,104,40
57.236866,58.00989,74,104,40
58.02634,58.799366,72,104,40
58.81581,59.58884,73,104,40
59.605286,60.378315,73,104,40
60.39476,61.16779,71,104,40
61.184235,61.95726,71,104,40
61.97371,62.746735,76,104,40
62.763184,63.148052,76,104,40
63.15792,63.54279,76,104,40
63.552658,64.32568,76,127,40
64.34213,64.727,76,104,40
64.73687,65.121735,78,104,40
65.13161,65.90463,78,104,40
65.92108,66.30595,78,104,40
66.31582,66.70068,76,104,40
66.710556,67.48358,76,104,40
67.50003,68.273056,76,104,40
68.2895,69.06253,75,104,40
69.07897,69.852005,74,104,40
69.86845,70.64147,73,104,40
70.65792,71.43095,73,104,40
71.447395,71.83227,74,104,40
71.84213,72.227005,74,104,40
72.23687,72.62174,74,104,40
72.63161,73.01648,74,105,40
73.026344,73.41122,81,49,40
73.42108,73.805954,81,49,40
73.81582,74.20069,81,49,40
74.210556,74.98358,81,49,40
75.00003,75.773056,79,49,40
75.789505,76.56253,79,49,40
76.57898,77.335556,84,105,40
77.368454,77.75332,85,49,40
78.15793,78.54279,80,82,40
78.15793,78.54279,71,82,40
78.9474,79.33227,81,104,40
78.9474,79.33227,73,104,40
80.526344,80.91122,61,104,40
80.92108,81.305954,62,104,40
81.31582,81.70069,63,104,40
81.710556,82.09543,64,104,40
83.68424,84.069115,65,104,40
84.07898,84.46385,66,104,40
84.47372,84.85859,68,104,40
84.868454,85.25333,69,104,40
85.26319,87.1974,69,104,40
87.23688,87.62174,73,104,40
87.631615,87.8224,71,104,40
87.82898,88.019775,69,104,40
88.02635,88.21714,71,104,40
88.22372,88.41451,68,104,40
88.42109,88.805954,69,105,40
89.21056,89.50004,74,49,40
89.506615,89.60201,73,49,40
89.6053,89.894775,74,49,40
89.90135,89.99675,76,49,40
90.00004,90.3849,73,49,40
90.78951,91.07899,71,49,40
91.08556,91.180954,69,49,40
91.18425,91.473724,71,49,40
91.4803,91.57569,73,49,40
91.57899,93.12504,69,49,40
93.15793,94.70399,67,49,40
94.73688,94.92767,66,49,40
95.131615,95.3224,67,49,40
95.52635,95.71714,66,49,40
95.92109,96.11188,64,49,40
96.31583,96.7007,62,49,40
97.894775,98.08556,67,49,40
98.28951,98.4803,69,49,40
98.68425,98.87504,67,49,40
99.07899,99.269775,66,49,40
99.473724,99.66451,64,49,40
101.05267,101.24346,69,49,40
101.44741,101.6382,74,49,40
101.84215,102.032936,71,49,40
102.236885,102.42767,67,49,40
102.63162,102.82241,66,49,40
103.02636,103.21715,69,49,40
103.4211,103.611885,67,49,40
103.815834,104.00662,64,49,40
104.21057,104.40136,62,49,40
104.60531,104.7961,66,49,40
105.000046,105.190834,64,49,40
105.394775,105.58557,61,49,40
105.78951,106.174385,62,49,40
107.36846,107.55925,66,49,40
107.7632,107.95399,67,49,40
108.157936,108.348724,66,49,40
108.55267,108.74346,64,49,40
108.94741,109.33228,62,49,40
110.52636,110.71715,67,49,40
110.9211,111.111885,69,49,40
111.315834,111.50662,67,49,40
111.71057,111.90136,66,49,40
112.10531,112.49017,64,49,40
113.68426,113.875046,67,49,40
114.078995,114.26978,69,49,40
114.47373,114.66452,67,49,40
114.86847,115.05926,66,49,40
115.26321,115.64807,64,49,40
116.842155,117.03294,69,49,40
117.23689,117.42768,71,49,40
117.63162,117.82242,69,49,40
118.02636,118.217155,67,49,40
118.4211,118.80597,66,49,40
120.000046,120.190834,66,49,40
120.39478,120.58557,74,49,40
120.78952,120.98031,67,49,40
121.18426,121.375046,74,49,40
121.578995,121.76978,66,49,40
121.97373,122.16452,74,49,40
122.36847,122.55926,64,49,40
122.76321,122.953995,73,49,40
123.15794,123.542816,74,49,40
124.342155,124.72702,73,49,40
124.73689,125.50992,74,50,40
125.52637,125.91123,73,62,40
125.921104,126.30597,72,68,40
126.31584,126.70071,71,74,40
126.71058,127.09544,70,81,40
127.105316,127.49018,71,87,40
127.50005,127.88492,68,93,40
127.89479,128.27966,69,99,40
128.28952,129.06255,62,104,40
129.079,129.85202,62,104,40
129.86847,130.6415,62,104,40
130.65794,131.43097,62,104,40
131.44742,131.83229,69,104,40
131.84216,132.22702,67,104,40
132.2369,132.62177,66,104,40
132.63164,133.0165,64,104,40
133.02637,133.7994,76,104,40
133.81584,134.00664,74,104,40
134.01321,134.204,73,104,40
134.21059,135.75664,71,104,40
135.78954,136.1744,69,104,40
136.97374,137.35861,73,104,40
137.36847,138.14151,74,104,40
138.15794,138.44742,74,104,40
138.45401,138.5494,73,104,40
138.55269,138.84216,74,104,40
138.84874,138.94414,76,104,40
138.94742,139.13821,73,104,40
139.34216,139.53294,76,104,40
139.7369,139.92769,69,104,40
140.13164,140.32242,81,104,40
140.52637,140.71716,80,104,40
140.92111,141.1119,76,104,40
141.31584,141.50664,74,104,40
141.71059,141.90137,71,104,40
142.10532,142.49019,73,104,40
144.07901,144.46387,66,104,40
144.47374,144.85861,64,104,40
144.86848,145.25334,61,104,40
145.26321,145.64809,62,104,40
145.65796,146.04282,64,104,40
146.05269,146.43756,62,104,40
146.44743,146.83229,59,104,40
146.84216,147.22704,61,104,40
147.23691,147.62177,71,104,40
147.63164,148.01651,69,104,40
148.02638,148.41124,63,104,40
148.42111,148.80598,64,104,40
148.81584,149.58888,76,104,40
149.60532,150.37836,76,104,40
150.39479,151.16782,74,104,40
151.18427,151.95729,72,104,40
151.97374,152.74677,73,104,40
152.76321,153.53624,73,104,40
153.55269,154.32571,71,104,40
154.34216,155.11519,71,104,40
155.13164,155.90466,76,104,40
155.92111,156.30598,76,104,40
156.31586,156.70071,76,104,40
156.71059,157.48361,76,104,40
157.50006,157.88493,76,104,40
157.8948,158.27966,78,104,40
158.28954,159.06256,78,104,40
159.07901,159.46388,78,104,40
159.47375,159.85861,76,104,40
159.86848,160.64151,76,104,40
160.65796,161.43098,76,104,40
161.44743,162.22046,75,104,40
162.23691,163.00993,74,104,40
163.02638,163.79941,73,104,40
163.81586,164.58888,73,104,40
164.60533,164.9902,74,104,40
165.00006,165.38493,74,104,40
165.3948,165.77968,74,104,40
165.78954,166.17441,74,105,40
166.18428,166.56915,81,49,40
166.57901,166.96388,81,49,40
166.97375,167.35861,81,49,40
167.36848,168.14151,81,49,40
168.15796,168.93098,79,49,40
168.94743,169.72046,79,49,40
169.73691,170.49348,84,105,40
170.52638,170.91125,85,49,40
171.31586,171.70073,80,82,40
171.31586,171.70073,71,82,40
172.10533,172.4902,81,104,40
172.10533,172.4902,73,104,40
173.68428,174.06915,61,104,40
174.07901,174.46388,62,104,40
174.47375,174.85863,63,104,40
174.86848,175.25336,64,104,40
176.84218,177.22705,65,104,40
177.23691,177.62178,66,104,40
177.63165,178.01653,68,104,40
178.02638,178.41125,69,104,40
178.42113,180.35533,69,104,40
180.3948,180.77968,73,104,40
180.78955,180.98033,71,104,40
180.98691,181.1777,69,104,40
181.18428,181.37508,71,104,40
181.38165,181.57243,68,104,40
181.57903,181.96388,69,105,40
182.3685,182.65797,74,49,40
182.66455,182.75995,73,49,40
182.76323,183.0527,74,49,40
183.05928,183.15468,76,49,40
183.15797,183.54283,73,49,40
183.94745,184.23692,71,49,40
184.2435,184.33888,69,49,40
184.34218,184.63165,71,49,40
184.63823,184.73363,73,49,40
184.73692,186.28297,69,49,40
186.31586,187.86192,67,49,40
187.8948,188.0856,66,49,40
188.28955,188.48033,67,49,40
188.68428,188.87508,66,49,40
189.07903,189.2698,64,49,40
189.47375,189.85863,62,49,40
191.0527,191.43758,71,79,40
191.44745,191.83232,72,79,40
191.84218,192.22705,71,79,40
192.23692,192.62178,69,79,40
192.63165,193.78955,67,79,40
193.81587,194.00665,69,79,40
194.01323,194.20403,71,79,40
194.2106,194.59547,72,79,40
194.60535,194.9902,74,79,40
195.00008,195.38495,72,79,40
195.39482,195.77968,71,79,40
195.78955,196.56258,69,79,40
196.57903,196.9639,66,79,40
196.97377,197.35863,69,79,40
197.3685,197.75337,72,79,40
197.76324,198.1481,74,79,40
198.15797,198.54285,72,79,40
198.5527,198.93758,71,79,40
198.94745,200.10535,69,79,40
200.13165,200.32245,71,79,40
200.32903,200.51982,72,79,40
200.5264,200.91127,74,79,40
200.92113,201.306,76,79,40
201.31587,201.70074,74,79,40
201.7106,202.09547,72,79,40
202.10535,202.49022,71,79,40
202.50008,202.88495,67,79,40
202.89482,203.2797,67,79,40
203.28955,203.67442,67,78,40
203.6843,204.06917,67,49,40
205.26324,206.03627,62,49,40
206.05272,206.82574,66,49,40
206.8422,207.61522,67,49,40
207.63167,208.4047,60,49,40
208.42114,208.806,59,104,40
211.57903,213.51324,69,104,40
213.55272,213.93759,69,104,40
213.94745,214.33232,69,104,40
214.3422,214.72707,69,104,40
214.73692,215.1218,69,104,40
215.13167,215.51654,68,104,40
215.5264,215.91127,69,104,40
215.92114,216.30602,70,104,40
216.31587,216.44417,71,104,40
216.44745,216.57574,75,104,40
216.57904,216.70732,76,104,40
216.71062,216.8389,78,104,40
216.8422,216.97047,80,104,40
216.97377,217.10207,82,104,40
217.10535,217.23364,83,104,40
217.23692,217.36522,71,104,40
217.36852,217.4968,83,104,40
217.50009,217.62837,81,104,40
217.63167,217.75995,79,104,40
217.76324,217.89154,78,104,40
217.89482,218.2797,79,104,40
219.86852,220.64154,67,104,40
220.65799,221.04285,67,104,40
221.44746,222.22049,68,104,40
221.44746,222.22049,59,104,40
222.23694,222.6218,68,104,40
222.23694,222.6218,59,104,40
223.0264,223.79944,68,104,40
223.0264,223.79944,59,104,40
223.81587,224.20074,68,104,40
223.81587,224.20074,59,104,40
224.60535,225.37837,66,104,40
224.60535,225.37837,57,104,40
225.39482,225.7797,66,104,40
225.39482,225.7797,57,104,40
226.1843,226.95732,66,104,40
226.1843,226.95732,57,104,40
226.97377,227.35864,66,104,40
226.97377,227.35864,57,104,40
227.56589,227.75667,66,104,40
227.76324,227.95404,69,104,40
227.96062,228.15141,74,104,40
228.15799,228.54286,78,104,40
228.55272,228.93759,79,104,40
228.94746,229.33232,81,104,40
229.3422,230.11522,69,104,40
230.13167,230.9047,69,104,40
230.92114,231.30602,69,104,40
231.31589,231.70074,68,104,40
231.71062,232.09549,66,104,40
232.10536,232.49022,68,104,40
233.28957,234.06259,74,79,40
234.07904,234.85207,74,79,40
234.86852,235.64154,73,79,40
235.65799,236.43102,78,79,40
236.44746,237.22049,78,79,40
237.23694,238.00996,79,79,40
238.02641,238.79944,78,79,40
238.81589,239.58891,83,105,40
240.39484,241.16786,74,50,40
241.97379,242.74681,81,105,40
241.97379,242.74681,73,105,40
243.55273,244.32576,76,51,40
244.73694,244.86523,71,104,40
244.86852,244.99681,83,104,40
245.00009,245.12839,81,104,40
245.13168,245.25996,79,104,40
245.26326,245.39154,78,104,40
245.39484,245.52312,76,104,40
245.52641,245.65471,74,104,40
245.65799,245.78629,79,104,40
245.78957,245.91786,78,104,40
245.92116,246.04944,76,104,40
246.05273,246.18102,74,104,40
246.18431,246.31259,73,104,40
246.31589,246.44418,71,104,40
246.44746,246.57576,66,104,40
246.57904,246.70734,71,104,40
246.71063,246.83891,73,104,40
246.84221,246.97049,66,104,40
246.97379,247.10207,73,104,40
247.10536,247.23366,74,104,40
247.23694,247.36523,76,104,40
247.36852,247.49681,78,104,40
247.50009,247.62839,76,104,40
247.63168,247.75996,74,104,40
247.76326,247.89154,73,104,40
247.89484,248.02313,71,104,40
248.02641,248.15471,83,104,40
248.15799,248.28629,81,104,40
248.28957,248.41786,79,104,40
248.42116,248.54944,78,104,40
248.55273,248.68102,76,104,40
248.68431,248.8126,74,104,40
248.81589,248.94418,79,104,40
248.94746,249.07576,78,104,40
249.07904,249.20734,76,104,40
249.21063,249.33891,74,104,40
249.34221,249.47049,73,104,40
249.47379,249.60207,71,104,40
249.60536,249.73366,73,104,40
249.73694,249.86523,74,104,40
249.86852,249.99681,73,104,40
250.0001,250.12839,71,104,40
250.13168,250.25996,69,104,40
250.26326,250.39154,67,104,40
250.39484,250.52313,69,104,40
250.52641,250.65471,71,104,40
250.65799,250.78629,69,104,40
250.78958,250.91786,67,104,40
250.92116,251.04944,66,104,40
251.05273,251.18102,64,104,40
251.18431,251.3126,64,104,40
251.31589,251.44418,64,104,40
251.44746,251.57576,63,104,40
251.57904,251.70734,63,104,40
251.71063,251.83891,63,104,40
251.84221,251.97049,64,104,40
251.97379,252.10208,64,104,40
252.10536,252.23366,64,104,40
252.23694,252.36523,65,104,40
252.36852,252.49681,65,104,40
252.5001,252.62839,65,104,40
252.63168,252.75996,66,104,40
252.76326,252.89156,66,104,40
252.89484,253.02313,66,104,40
253.02641,253.15471,67,104,40
253.15799,253.28629,67,104,40
253.28958,253.41786,67,104,40
253.42116,253.54944,64,104,40
253.55273,253.68102,64,104,40
253.68431,253.8126,64,104,40
253.81589,253.94418,66,104,40
253.94746,254.07576,66,104,40
254.07906,254.20734,66,104,40
254.21063,254.40141,62,49,40
254.60536,254.79616,64,49,40
255.0001,255.19089,61,49,40
255.39484,255.58563,62,49,40
255.78958,255.98036,59,49,40
256.18433,256.3751,58,49,40
256.57904,256.76984,59,49,40
256.9738,257.16458,57,49,40
257.36853,257.55933,59,49,40
257.76328,257.95404,57,49,40
258.158,258.3488,55,49,40
258.55273,258.74353,67,49,40
258.94748,259.13828,66,64,40
259.34222,259.533,67,64,40
259.73694,259.92773,66,64,40
260.13168,260.32248,64,64,40
260.52643,260.9113,62,64,40
262.10538,262.29614,67,64,40
262.5001,262.6909,69,64,40
262.89484,263.08563,67,64,40
263.28958,263.48038,66,64,40
263.68433,264.06918,64,64,40
265.26328,265.45404,67,64,40
265.658,265.8488,69,64,40
266.05273,266.24353,67,64,40
266.44748,266.63828,66,64,40
266.84222,267.22708,64,64,40
268.42117,268.61194,69,64,40
268.8159,269.00668,71,64,40
269.21063,269.40143,69,64,40
269.60538,269.79617,67,64,40
270.00012,270.38498,66,64,40
271.57907,271.76984,66,49,40
271.9738,272.16458,74,49,40
272.36853,272.55933,67,49,40
272.76328,272.95407,74,49,40
273.158,273.3488,66,49,40
273.55273,273.74353,74,49,40
273.94748,274.13828,64,49,40
274.34222,274.533,73,49,40
274.73694,275.12183,74,49,40
275.92117,276.30603,73,49,40
276.3159,276.70078,74,50,40
277.50012,277.88498,76,104,40
277.89484,278.02313,78,104,40
278.02643,278.15472,76,104,40
278.15802,278.2863,74,104,40
278.28958,278.41788,73,104,40
278.42117,278.54944,71,104,40
278.55273,278.68103,69,104,40
278.68433,278.81262,67,104,40
278.8159,278.94418,66,104,40
278.94748,279.07578,64,104,40
279.07907,279.20734,62,104,40
279.21063,279.33893,61,104,40
279.34222,279.47052,64,104,40
279.4738,279.85867,62,104,40
282.63168,283.01657,59,104,40
283.02643,283.4113,60,104,40
283.42117,283.80603,61,104,40
283.81592,284.20078,62,104,40
284.21063,284.59552,55,104,40
284.60538,284.99023,57,104,40
285.00012,285.38498,58,104,40
285.39484,285.77972,59,104,40
291.31592,292.08893,57,104,40
292.10538,292.49023,57,104,40
292.50012,292.88498,62,104,40
292.89487,293.27972,66,104,40
293.28958,293.67447,69,104,40
293.68433,293.81262,74,104,40
293.81592,293.94418,81,104,40
293.94748,294.07578,79,104,40
294.07907,294.20737,78,104,40
294.21063,294.33893,76,104,40
294.34222,294.47052,74,104,40
294.47382,294.60208,73,104,40
294.60538,294.73367,71,104,40
294.73697,294.86523,69,104,40
294.86853,294.99683,67,104,40
295.00012,295.12842,66,104,40
295.13168,295.25998,64,104,40
295.26328,295.64813,62,49,40
296.84222,296.97052,74,49,40
296.97382,297.10208,81,49,40
297.10538,297.23367,79,49,40
297.23697,297.36526,78,49,40
297.36853,297.49683,76,49,40
297.50012,297.62842,74,49,40
297.63168,297.75998,73,49,40
297.76328,297.89157,71,49,40
297.89487,298.02313,69,49,40
298.02643,298.15472,67,49,40
298.15802,298.28632,66,49,40
298.28958,298.41788,64,49,40
298.42117,298.80603,62,104,40
300.00012,300.38498,69,104,40
300.39487,301.16788,69,104,40
301.18433,301.31262,66,104,40
301.31592,301.4442,69,104,40
301.44748,301.57578,67,104,40
301.57907,301.70737,66,104,40
301.71063,301.83893,69,104,40
301.84222,301.97052,66,104,40
301.97382,302.10208,64,104,40
302.10538,302.23367,67,104,40
302.23697,302.36526,71,104,40
302.36853,302.49683,76,104,40
302.50012,302.62842,71,104,40
302.6317,302.75998,67,104,40
302.76328,302.89157,64,104,40
302.89487,303.02313,67,104,40
303.02643,303.15472,66,104,40
303.15802,303.28632,64,104,40
303.28958,303.41788,67,104,40
303.42117,303.54947,64,104,40
303.55276,303.68103,62,104,40
303.68433,303.81262,66,104,40
303.81592,303.9442,69,104,40
303.94748,304.07578,74,104,40
304.07907,304.20737,69,104,40
304.21066,304.33893,66,104,40
304.34222,304.47052,62,104,40
304.47382,304.60208,66,104,40
304.60538,304.73367,64,104,40
304.73697,304.86526,62,104,40
304.86853,304.99683,66,104,40
305.00012,305.12842,62,104,40
305.1317,305.25998,61,104,40
305.26328,305.39157,64,104,40
305.39487,305.52316,67,104,40
305.52643,305.65472,73,104,40
305.65802,305.78632,67,104,40
305.78958,305.91788,64,104,40
305.92117,306.04947,61,104,40
306.05276,306.18103,64,104,40
306.18433,306.31262,61,104,40
306.31592,306.70078,62,104,40
306.71066,307.48367,65,104,40
307.50012,307.88498,74,104,40
307.89487,309.44092,74,104,40
309.47382,309.85867,74,104,40
309.86853,310.25342,76,104,40
310.26328,310.64816,77,104,40
310.65802,311.04288,76,104,40
311.05276,311.43762,74,104,40
311.44748,311.83237,73,104,40
311.84222,312.2271,71,104,40
312.23697,312.62183,69,104,40
312.6317,313.21066,69,104,40
313.22382,313.4146,71,104,40
313.42117,313.80606,73,104,40
313.81592,314.20093,74,104,40
314.21094,315.0873,76,104,40
315.10684,315.5789,76,104,40
315.5914,316.09607,76,104,40
316.10944,318.15625,76,104,40
318.5065,318.74,66,79,40
318.74655,318.93735,69,79,40
318.94394,319.1347,67,79,40
319.1413,319.3321,69,79,40
319.33865,319.52945,66,79,40
319.53604,319.7268,69,79,40
319.7334,319.9242,64,79,40
319.93076,320.12155,69,79,40
320.12814,320.31894,62,79,40
320.3255,320.5163,69,79,40
320.52286,320.71365,66,79,40
320.72025,320.91104,69,79,40
320.9176,321.1084,66,79,40
321.115,321.30576,69,79,40
321.31235,321.50314,66,79,40
321.5097,321.7005,69,79,40
321.7071,321.8979,67,79,40
321.90445,322.09525,69,79,40
322.1018,322.2926,66,79,40
322.2992,322.49,69,79,40
322.49655,322.68735,67,79,40
322.69394,322.8847,69,79,40
322.8913,323.0821,66,79,40
323.08865,323.27945,69,79,40
323.28604,323.4768,64,79,40
323.4834,323.6742,69,79,40
323.68076,323.87155,64,79,40
323.87814,324.06894,69,79,40
324.0755,324.2663,64,79,40
324.2729,324.46365,69,79,40
324.47025,324.66104,64,79,40
324.6676,324.8584,69,79,40
324.865,325.05576,67,79,40
325.06235,325.25314,69,79,40
325.2597,325.4505,66,79,40
325.4571,325.6479,69,79,40
325.65445,325.84525,67,79,40
325.85184,326.0426,69,79,40
326.0492,326.24,66,79,40
326.24655,326.43735,69,79,40
326.44394,326.6347,64,79,40
326.6413,326.8321,69,79,40
326.83865,327.02945,64,79,40
327.03604,327.22684,69,79,40
327.2334,327.4242,64,79,40
327.43076,327.62155,69,79,40
327.62814,327.81894,67,79,40
327.8255,328.0163,69,79,40
328.0229,328.21365,66,79,40
328.22025,328.41104,69,79,40
328.4176,328.6084,67,79,40
328.615,328.80576,71,79,40
328.81235,329.00314,66,79,40
329.0097,329.2005,69,79,40
329.2071,329.3979,64,79,40
329.40445,329.59525,67,79,40
329.60184,329.7926,66,79,40
329.7992,329.99,69,79,40
329.99655,330.18735,66,79,40
330.19394,330.3847,69,79,40
330.3913,330.5821,66,79,40
330.58865,330.77945,69,79,40
330.78604,330.97684,66,79,40
330.9834,331.1742,69,79,40
331.1808,331.37155,66,49,40
331.5755,331.7663,74,49,40
331.97025,332.16104,67,49,40
332.365,332.5558,74,49,40
332.7597,332.9505,66,49,40
333.15445,333.34525,74,49,40
333.5492,333.74,64,49,40
333.94394,334.13474,73,49,40
334.33865,334.72354,74,49,40
334.7334,335.1183,69,49,40
335.12814,335.4176,67,49,40
335.4242,335.5196,66,49,40
335.5229,335.81235,67,49,40
335.81894,335.91434,69,49,40
335.9176,336.59195,66,49,40
336.6084,336.7038,64,49,40
336.7071,336.8979,62,49,40
336.90445,336.99985,61,49,40
337.00314,337.09854,62,49,40
337.10184,337.2926,64,49,40
337.2992,337.49,62,49,40
337.49655,337.88144,61,49,40
337.8913,338.66434,69,49,40
338.6808,339.4538,69,49,40
339.47025,340.2433,67,49,40
340.25974,341.03275,65,49,40
341.0492,341.82224,66,49,40
341.83868,342.6117,66,49,40
342.62814,343.40118,64,49,40
343.41763,344.19064,64,49,40
344.2071,344.98013,69,49,40
344.99658,345.7696,69,49,40
345.78604,346.55908,69,105,40
346.5755,346.9604,69,49,40
346.97025,347.35513,71,49,40
347.365,348.138,71,105,40
348.15445,348.53934,71,49,40
348.5492,348.93408,69,49,40
348.94394,349.71695,69,49,40
349.7334,350.50644,69,49,40
350.5229,351.2959,68,49,40
351.31235,352.0854,67,49,40
352.10184,352.87485,66,49,40
352.8913,353.66434,66,49,40
353.6808,354.06564,67,49,40
354.07553,354.4604,67,49,40
354.47025,354.85513,67,49,40
354.865,355.24985,67,49,40
355.25974,355.6446,74,49,40
355.65448,356.03934,74,49,40
356.0492,356.43408,74,49,40
356.44394,357.21698,74,49,40
357.23343,358.77948,72,49,40
358.81235,359.5854,77,100,40
359.60184,359.9867,78,50,40
360.3913,360.77618,79,50,40
360.3913,360.77618,69,50,40
361.1808,361.56564,78,104,40
361.1808,361.56564,69,104,40
362.75974,363.1446,66,104,40
363.15448,363.53934,67,104,40
363.5492,363.93408,68,104,40
363.94394,364.3288,69,104,40
365.91763,366.3025,68,104,40
366.31238,366.69724,69,104,40
366.7071,367.09198,70,104,40
367.10184,367.4867,71,104,40
367.49658,367.88144,70,104,40
367.89133,368.27618,69,104,40
368.28604,368.67093,72,104,40
368.6808,369.06564,71,104,40
369.07553,369.4604,69,104,40
369.47028,369.85513,67,104,40
369.865,370.24988,71,104,40
370.25974,370.6446,67,104,40
370.65448,371.03934,66,104,40
371.44394,371.73343,79,49,40
371.74,371.8354,78,49,40
371.83868,372.12814,79,49,40
372.13474,372.23013,81,49,40
372.23343,372.6183,78,49,40
373.0229,373.31238,76,49,40
373.31894,373.41434,74,49,40
373.41763,373.7071,76,49,40
373.71368,373.80908,78,49,40
373.81238,374.19724,74,49,40
374.6261,375.04395,73,49,40
375.48325,375.90182,74,49,40
376.35486,376.84525,67,49,40
377.38144,378.08307,66,49,40
1.578948,1.7697376,62,49,41
1.973685,2.1644745,64,49,41
2.368422,2.5592115,62,49,41
2.763159,2.9539485,57,49,41
3.157896,3.5427647,54,49,41
4.736844,4.927634,64,49,41
5.131581,5.3223705,66,49,41
5.526318,5.717108,64,49,41
5.921055,6.1118445,62,49,41
6.315792,6.7006607,57,49,41
7.89474,8.085529,66,49,41
8.289477,8.480267,54,49,41
8.684214,8.875004,55,49,41
9.078951,9.26974,59,49,41
9.473688,9.664477,57,49,41
9.868425,10.059215,54,49,41
10.263162,10.453952,59,49,41
10.657899,10.848688,55,49,41
11.052636,11.243425,54,49,41
11.447373,11.638163,57,49,41
11.84211,12.0329,55,49,41
12.236847,12.427636,52,49,41
12.631584,13.016453,54,49,41
14.210532,14.401321,62,49,41
14.605269,14.796059,64,49,41
15.000006,15.190796,62,49,41
15.394743,15.585532,57,49,41
15.78948,16.174349,54,49,41
17.368427,17.559217,64,49,41
17.763165,17.953955,66,49,41
18.157902,18.348692,64,49,41
18.552639,18.74343,62,49,41
18.947376,19.332245,61,49,41
20.526323,20.717113,64,49,41
20.92106,21.11185,66,49,41
21.315798,21.506588,64,49,41
21.710535,21.901325,62,49,41
22.105272,22.49014,61,49,41
23.68422,23.87501,66,49,41
24.078957,24.269747,67,49,41
24.473694,24.664484,66,49,41
24.868431,25.059221,64,49,41
25.263168,25.648037,62,49,41
26.842115,27.032906,62,49,41
27.236853,27.427643,66,49,41
27.63159,27.82238,67,49,41
28.026327,28.217117,55,49,41
28.421064,28.611853,62,49,41
28.815802,29.00659,66,49,41
29.210539,29.401327,73,49,41
29.605274,29.796064,76,49,41
30.000011,30.190802,74,49,41
30.394749,30.585539,69,49,41
30.789486,30.980276,67,49,41
31.184223,31.375013,67,49,41
31.57896,31.963829,66,49,41
31.973698,32.358566,62,56,41
32.368435,32.753304,64,62,41
32.763172,33.14804,66,69,41
33.15791,33.542778,67,76,41
33.552647,33.937515,66,82,41
33.947384,34.33225,67,89,41
34.342117,34.726986,65,96,41
34.736855,35.121723,66,102,41
38.28949,38.67436,66,104,41
38.684227,39.069096,64,104,41
39.078964,39.463833,62,104,41
39.4737,39.85857,61,104,41
39.86844,40.641464,57,104,41
40.65791,41.042778,62,104,41
41.052647,41.437515,62,104,41
41.447384,41.832253,59,104,41
41.84212,42.22699,64,104,41
42.23686,42.621727,64,104,41
42.631596,43.016464,64,104,41
43.815807,44.200676,69,104,41
44.210545,44.98357,71,104,41
45.00002,45.289494,71,104,41
45.29607,45.391464,69,104,41
45.394756,45.684227,71,104,41
45.690807,45.7862,73,104,41
45.789494,46.174362,69,104,41
46.9737,47.35857,69,104,41
47.36844,48.141468,71,104,41
48.157913,48.447388,71,104,41
48.453968,48.549362,69,104,41
48.55265,48.842125,71,104,41
48.848705,48.9441,73,104,41
48.947388,49.332256,69,104,41
49.342125,49.726994,64,104,41
49.736862,50.12173,57,104,41
50.1316,50.516468,69,104,41
50.526337,50.911205,66,104,41
50.921074,51.305943,62,104,41
51.31581,51.70068,61,104,41
51.71055,52.095417,66,104,41
52.105286,52.490154,66,104,41
52.500023,52.884888,61,104,41
52.894756,53.279625,59,104,41
53.289494,53.674362,64,104,41
53.68423,54.0691,64,104,41
54.078968,54.463837,64,104,41
54.473705,54.858574,66,104,41
54.868443,55.25331,66,104,41
55.26318,55.64805,64,104,41
57.236866,58.00989,65,104,41
58.02634,58.799366,69,104,41
58.81581,59.58884,67,104,41
59.605286,60.378315,67,104,41
60.39476,61.16779,66,104,41
61.184235,61.95726,64,104,41
61.97371,62.746735,57,104,41
62.763184,63.148052,69,104,41
63.15792,63.54279,71,104,41
63.552658,64.32568,71,127,41
64.34213,64.727,69,104,41
64.73687,65.121735,66,104,41
65.13161,65.90463,71,104,41
65.92108,66.30595,71,104,41
66.31582,66.70068,71,104,41
68.2895,69.06253,72,104,41
69.07897,69.852005,71,104,41
69.86845,70.64147,69,104,41
70.65792,71.43095,69,104,41
71.447395,71.83227,69,104,41
71.84213,72.227005,69,104,41
72.23687,72.62174,69,104,41
72.63161,73.01648,69,104,41
73.026344,73.41122,78,49,41
73.42108,73.805954,78,49,41
73.81582,74.20069,78,49,41
74.210556,74.98358,78,49,41
75.00003,75.773056,77,49,41
75.789505,76.56253,76,49,41
76.57898,77.31911,69,105,41
77.368454,77.75332,69,49,41
78.15793,78.54279,74,80,41
78.15793,78.54279,64,80,41
78.9474,79.33227,73,104,41
78.9474,79.33227,64,104,41
80.526344,80.91122,61,104,41
80.92108,81.305954,62,104,41
81.31582,81.70069,63,104,41
81.710556,82.09543,64,104,41
83.68424,84.069115,65,104,41
84.07898,84.46385,66,104,41
84.47372,84.85859,68,104,41
84.868454,85.25333,69,104,41
85.26319,85.64806,62,104,41
85.65793,86.0428,63,104,41
86.052666,86.43754,64,104,41
86.4474,86.83227,66,104,41
86.84214,88.38819,64,104,41
88.42109,88.805954,61,104,41
89.21056,89.50004,71,49,41
89.506615,89.60201,69,49,41
89.6053,89.894775,71,49,41
89.90135,89.99675,73,49,41
90.00004,90.3849,69,49,41
90.78951,91.07899,62,49,41
91.08556,91.180954,61,49,41
91.18425,91.473724,62,49,41
91.4803,91.57569,64,49,41
91.57899,93.12504,61,49,41
93.15793,94.70399,64,49,41
94.73688,94.92767,62,49,41
95.131615,95.3224,64,49,41
95.52635,95.71714,62,49,41
95.92109,96.11188,57,49,41
96.31583,96.7007,54,49,41
97.894775,98.08556,64,49,41
98.28951,98.4803,66,49,41
98.68425,98.87504,64,49,41
99.07899,99.269775,62,49,41
99.473724,99.85859,57,49,41
101.05267,101.24346,66,49,41
101.44741,101.6382,54,49,41
101.84215,102.032936,55,49,41
102.236885,102.42767,59,49,41
102.63162,102.82241,57,49,41
103.02636,103.21715,54,49,41
103.4211,103.611885,59,49,41
103.815834,104.00662,55,49,41
104.21057,104.40136,54,49,41
104.60531,104.7961,57,49,41
105.000046,105.190834,55,49,41
105.394775,105.58557,52,49,41
105.78951,106.174385,54,49,41
107.36846,107.55925,62,49,41
107.7632,107.95399,64,49,41
108.157936,108.348724,62,49,41
108.55267,108.74346,57,49,41
108.94741,109.33228,54,49,41
110.52636,110.71715,64,49,41
110.9211,111.111885,66,49,41
111.315834,111.50662,64,49,41
111.71057,111.90136,62,49,41
112.10531,112.49017,61,49,41
113.68426,113.875046,64,49,41
114.078995,114.26978,66,49,41
114.47373,114.66452,64,49,41
114.86847,115.05926,62,49,41
115.26321,115.64807,61,49,41
116.842155,117.03294,66,49,41
117.23689,117.42768,67,49,41
117.63162,117.82242,66,49,41
118.02636,118.217155,64,49,41
118.4211,118.80597,62,49,41
120.000046,120.190834,62,49,41
120.39478,120.58557,66,49,41
120.78952,120.98031,67,49,41
121.18426,121.375046,55,49,41
121.578995,121.76978,62,49,41
121.97373,122.16452,66,49,41
122.36847,122.55926,73,49,41
122.76321,122.953995,76,49,41
123.15794,123.34873,74,49,41
123.55268,123.74347,69,49,41
123.94742,124.13821,67,49,41
124.342155,124.53294,67,49,41
124.73689,125.12176,66,49,41
125.13163,125.516495,62,56,41
125.52637,125.91123,64,62,41
125.921104,126.30597,66,69,41
126.31584,126.70071,67,76,41
126.71058,127.09544,66,82,41
127.105316,127.49018,67,89,41
127.50005,127.88492,65,96,41
127.89479,128.27966,66,102,41
131.44742,131.83229,66,104,41
131.84216,132.22702,64,104,41
132.2369,132.62177,62,104,41
132.63164,133.0165,61,104,41
133.02637,133.7994,57,104,41
133.81584,134.20071,62,104,41
134.21059,134.59544,62,104,41
134.60532,134.99019,59,104,41
135.00006,135.38492,64,104,41
135.39479,135.77966,64,104,41
135.78954,136.1744,64,104,41
136.97374,137.35861,69,104,41
137.36847,138.14151,71,104,41
138.15794,138.44742,71,104,41
138.45401,138.5494,69,104,41
138.55269,138.84216,71,104,41
138.84874,138.94414,73,104,41
138.94742,139.33229,69,104,41
140.13164,140.51651,69,104,41
140.52637,141.2994,71,104,41
141.31584,141.60532,71,104,41
141.6119,141.70729,69,104,41
141.71059,142.00006,71,104,41
142.00664,142.10204,73,104,41
142.10532,142.49019,69,104,41
142.50006,142.88492,64,104,41
142.89479,143.27966,57,104,41
143.28954,143.6744,69,104,41
143.68427,144.06914,66,104,41
144.07901,144.46387,62,104,41
144.47374,144.85861,61,104,41
144.86848,145.25334,66,104,41
145.26321,145.64809,66,104,41
145.65796,146.04282,61,104,41
146.05269,146.43756,59,104,41
146.44743,146.83229,64,104,41
146.84216,147.22704,64,104,41
147.23691,147.62177,64,104,41
147.63164,148.01651,66,104,41
148.02638,148.41124,66,104,41
148.42111,148.80598,64,104,41
150.39479,151.16782,65,104,41
151.18427,151.95729,69,104,41
151.97374,152.74677,67,104,41
152.76321,153.53624,67,104,41
153.55269,154.32571,66,104,41
154.34216,155.11519,64,104,41
155.13164,155.90466,57,104,41
155.92111,156.30598,69,104,41
156.31586,156.70071,71,104,41
156.71059,157.48361,71,104,41
157.50006,157.88493,69,104,41
157.8948,158.27966,66,104,41
158.28954,159.06256,71,104,41
159.07901,159.46388,71,104,41
159.47375,159.85861,71,104,41
161.44743,162.22046,72,104,41
162.23691,163.00993,71,104,41
163.02638,163.79941,69,104,41
163.81586,164.58888,69,104,41
164.60533,164.9902,69,104,41
165.00006,165.38493,69,104,41
165.3948,165.77968,69,104,41
165.78954,166.17441,69,104,41
166.18428,166.56915,78,49,41
166.57901,166.96388,78,49,41
166.97375,167.35861,78,49,41
167.36848,168.14151,78,49,41
168.15796,168.93098,77,49,41
168.94743,169.72046,76,49,41
169.73691,170.47704,69,105,41
170.52638,170.91125,69,49,41
171.31586,171.70073,74,80,41
171.31586,171.70073,64,80,41
172.10533,172.4902,73,104,41
172.10533,172.4902,64,104,41
173.68428,174.06915,61,104,41
174.07901,174.46388,62,104,41
174.47375,174.85863,63,104,41
174.86848,175.25336,64,104,41
176.84218,177.22705,65,104,41
177.23691,177.62178,66,104,41
177.63165,178.01653,68,104,41
178.02638,178.41125,69,104,41
178.42113,178.806,62,104,41
178.81586,179.20073,63,104,41
179.2106,179.59546,64,104,41
179.60533,179.9902,66,104,41
180.00008,181.54613,64,104,41
181.57903,181.96388,61,104,41
182.3685,182.65797,71,49,41
182.66455,182.75995,69,49,41
182.76323,183.0527,71,49,41
183.05928,183.15468,73,49,41
183.15797,183.54283,69,49,41
183.94745,184.23692,62,49,41
184.2435,184.33888,61,49,41
184.34218,184.63165,62,49,41
184.63823,184.73363,64,49,41
184.73692,186.28297,61,49,41
186.31586,187.86192,64,49,41
187.8948,188.0856,62,64,41
188.28955,188.48033,64,64,41
188.68428,188.87508,62,64,41
189.07903,189.2698,61,64,41
189.47375,189.85863,59,64,41
191.0527,191.43758,67,79,41
191.44745,191.83232,69,79,41
191.84218,192.22705,67,79,41
192.23692,192.62178,62,79,41
192.63165,193.01653,59,79,41
193.0264,193.41125,62,79,41
193.42113,193.806,59,79,41
193.81587,194.20073,67,79,41
194.2106,194.59547,69,79,41
194.60535,194.9902,71,79,41
195.00008,195.38495,69,79,41
195.39482,195.77968,67,79,41
195.78955,196.17442,66,79,41
196.1843,196.95732,50,79,41
196.97377,197.35863,50,79,41
197.3685,197.75337,69,79,41
197.76324,198.1481,71,79,41
198.15797,198.54285,69,79,41
198.5527,198.93758,67,79,41
198.94745,200.10535,66,79,41
200.13165,200.32245,67,79,41
200.32903,200.51982,69,79,41
200.5264,200.91127,71,79,41
200.92113,201.306,72,79,41
201.31587,201.70074,71,79,41
201.7106,202.09547,69,79,41
202.10535,202.49022,67,79,41
202.50008,202.88495,62,79,41
202.89482,203.2797,59,79,41
203.28955,203.67442,55,77,41
203.6843,204.45732,59,49,41
204.47377,205.2468,60,49,41
205.26324,206.03627,59,49,41
206.05272,206.82574,57,49,41
206.8422,207.61522,55,49,41
207.63167,208.4047,66,49,41
208.42114,208.54942,67,104,41
208.55272,208.681,71,104,41
208.6843,208.81258,69,104,41
208.81587,208.94417,67,104,41
208.94745,209.07574,66,104,41
209.07903,209.20732,64,104,41
209.21062,209.3389,62,104,41
209.3422,209.47047,60,104,41
209.47377,209.60205,59,104,41
209.60535,209.73364,57,104,41
209.73692,209.86522,55,104,41
209.8685,209.9968,54,104,41
210.00009,212.70732,52,104,41
212.76324,213.14812,57,104,41
213.15797,213.28627,57,104,41
213.28957,213.41785,69,104,41
213.42114,213.54942,67,104,41
213.55272,213.681,66,104,41
213.6843,213.81259,64,104,41
213.81587,213.94417,62,104,41
213.94745,214.07574,61,104,41
214.07904,214.20732,59,104,41
214.21062,214.3389,57,104,41
214.3422,214.47047,55,104,41
214.47377,214.60207,54,104,41
214.60535,214.73364,52,104,41
214.73692,215.1218,50,104,41
216.31587,217.86192,54,104,41
217.89482,218.2797,52,104,41
219.86852,220.64154,59,104,41
220.65799,221.04285,59,104,41
221.44746,222.22049,64,104,41
222.23694,222.6218,64,104,41
223.0264,223.79944,65,104,41
223.81587,224.20074,65,104,41
224.60535,225.37837,66,104,41
225.39482,225.7797,66,104,41
226.1843,226.95732,62,104,41
226.97377,227.35864,62,104,41
227.56589,227.75667,50,104,41
227.76324,227.95404,54,104,41
227.96062,228.15141,57,104,41
228.15799,228.54286,62,104,41
228.55272,228.93759,64,104,41
228.94746,230.49352,66,104,41
230.52641,230.91127,66,104,41
230.92114,231.30602,66,104,41
231.31589,231.70074,68,104,41
231.71062,232.09549,69,104,41
232.10536,232.49022,65,104,41
232.50009,233.27312,73,79,41
233.28957,234.06259,73,79,41
234.07904,234.85207,71,79,41
234.86852,235.64154,69,79,41
236.44746,237.22049,71,79,41
237.23694,238.00996,73,79,41
238.02641,238.79944,71,79,41
238.81589,239.58891,74,105,41
240.39484,241.16786,71,50,41
241.97379,242.74681,64,105,41
241.97379,242.74681,57,105,41
243.55273,244.32576,73,50,41
244.73694,244.86523,59,104,41
244.86852,244.99681,71,104,41
245.00009,245.12839,69,104,41
245.13168,245.25996,67,104,41
245.26326,245.39154,66,104,41
245.39484,245.52312,64,104,41
245.52641,245.65471,62,104,41
245.65799,245.78629,67,104,41
245.78957,245.91786,66,104,41
245.92116,246.04944,64,104,41
246.05273,246.18102,62,104,41
246.18431,246.31259,61,104,41
246.31589,246.44418,59,104,41
246.44746,246.57576,54,104,41
246.57904,246.70734,59,104,41
246.71063,246.83891,61,104,41
246.84221,246.97049,54,104,41
246.97379,247.10207,61,104,41
247.10536,247.23366,62,104,41
247.23694,247.36523,64,104,41
247.36852,247.49681,66,104,41
247.50009,247.62839,64,104,41
247.63168,247.75996,62,104,41
247.76326,247.89154,61,104,41
247.89484,248.02313,59,104,41
248.02641,248.15471,71,104,41
248.15799,248.28629,69,104,41
248.28957,248.41786,67,104,41
248.42116,248.54944,66,104,41
248.55273,248.68102,64,104,41
248.68431,248.8126,62,104,41
248.81589,248.94418,67,104,41
248.94746,249.07576,66,104,41
249.07904,249.20734,64,104,41
249.21063,249.33891,62,104,41
249.34221,249.47049,61,104,41
249.47379,249.60207,59,104,41
249.60536,249.73366,61,104,41
249.73694,249.86523,62,104,41
249.86852,249.99681,61,104,41
250.0001,250.12839,59,104,41
250.13168,250.25996,57,104,41
250.26326,250.39154,55,104,41
250.39484,250.52313,57,104,41
250.52641,250.65471,59,104,41
250.65799,250.78629,57,104,41
250.78958,250.91786,55,104,41
250.92116,251.04944,54,104,41
251.05273,251.18102,52,104,41
251.18431,251.3126,52,104,41
251.31589,251.44418,52,104,41
251.44746,251.57576,51,104,41
251.57904,251.70734,51,104,41
251.71063,251.83891,51,104,41
251.84221,251.97049,52,104,41
251.97379,252.10208,52,104,41
252.10536,252.23366,52,104,41
252.23694,252.36523,53,104,41
252.36852,252.49681,53,104,41
252.5001,252.62839,53,104,41
252.63168,252.75996,54,104,41
252.76326,252.89156,54,104,41
252.89484,253.02313,54,104,41
253.02641,253.15471,55,104,41
253.15799,253.28629,55,104,41
253.28958,253.41786,55,104,41
253.42116,253.54944,52,104,41
253.55273,253.68102,52,104,41
253.68431,253.8126,52,104,41
253.81589,253.94418,54,104,41
253.94746,254.07576,54,104,41
254.07906,254.20734,54,104,41
254.21063,254.40141,50,49,41
254.60536,254.79616,52,49,41
255.0001,255.19089,49,49,41
255.39484,255.58563,50,49,41
255.78958,256.17444,55,49,41
258.55273,258.74353,64,49,41
258.94748,259.13828,62,64,41
259.34222,259.533,64,64,41
259.73694,259.92773,62,64,41
260.13168,260.32248,57,64,41
260.52643,260.9113,54,64,41
262.10538,262.29614,64,64,41
262.5001,262.6909,66,64,41
262.89484,263.08563,64,64,41
263.28958,263.48038,62,64,41
263.68433,264.06918,61,64,41
265.26328,265.45404,64,64,41
265.658,265.8488,66,64,41
266.05273,266.24353,64,64,41
266.44748,266.63828,62,64,41
266.84222,267.22708,61,64,41
268.42117,268.61194,66,64,41
268.8159,269.00668,67,64,41
269.21063,269.40143,66,64,41
269.60538,269.79617,64,64,41
270.00012,270.38498,62,64,41
271.57907,271.76984,62,49,41
271.9738,272.16458,66,49,41
272.36853,272.55933,67,49,41
272.76328,272.95407,55,49,41
273.158,273.3488,62,49,41
273.55273,273.74353,66,49,41
273.94748,274.13828,73,49,41
274.34222,274.533,76,49,41
274.73694,274.92773,74,49,41
275.13168,275.32248,69,49,41
275.52643,275.71722,67,49,41
275.92117,276.11194,67,49,41
276.3159,276.44418,66,104,41
276.44748,276.57578,69,104,41
276.57907,276.70734,67,104,41
276.71063,276.83893,66,104,41
276.84222,276.97052,64,104,41
276.9738,277.10208,62,104,41
277.10538,277.23367,61,104,41
277.23694,277.36523,59,104,41
277.36853,277.49683,57,104,41
277.50012,277.6284,55,104,41
277.63168,277.75998,54,104,41
277.76328,277.89157,52,104,41
277.89484,278.27972,50,104,41
279.4738,280.24683,78,104,41
280.26328,281.0363,76,104,41
281.05273,281.82578,74,104,41
281.84222,282.61523,73,104,41
285.78958,286.17447,52,104,41
286.18433,286.56918,54,104,41
286.57907,286.96393,55,104,41
286.9738,287.35867,56,104,41
287.36853,287.75342,57,104,41
287.76328,288.14813,59,104,41
288.15802,288.54288,60,104,41
288.55273,288.93762,61,104,41
288.94748,289.33237,62,104,41
289.34222,289.72708,64,104,41
289.73697,290.12183,65,104,41
290.13168,290.51657,66,104,41
290.52643,291.29947,67,104,41
291.31592,292.08893,64,104,41
292.10538,292.49023,66,104,41
292.10538,292.49023,62,104,41
292.50012,293.27313,66,104,41
292.50012,293.27313,62,104,41
293.28958,294.06262,66,104,41
293.28958,294.06262,62,104,41
294.07907,294.85208,66,104,41
294.07907,294.85208,62,104,41
294.86853,295.64157,62,104,41
294.86853,295.64157,66,104,41
295.65802,296.43103,66,49,41
295.65802,296.43103,62,49,41
296.44748,297.22052,66,49,41
296.44748,297.22052,62,49,41
297.23697,298.00998,66,49,41
297.23697,298.00998,62,49,41
298.02643,298.41132,66,49,41
298.02643,298.41132,62,49,41
298.42117,298.80603,68,104,41
298.42117,298.80603,59,104,41
298.81592,299.58893,68,104,41
298.81592,299.58893,59,104,41
299.60538,299.99026,68,104,41
299.60538,299.99026,59,104,41
300.00012,300.38498,69,104,41
300.00012,300.38498,57,104,41
301.18433,301.95737,63,104,41
301.97382,302.74683,71,104,41
302.76328,303.53632,61,104,41
303.55276,304.32578,69,104,41
304.34222,305.11526,59,104,41
305.1317,305.90472,67,104,41
305.92117,306.30603,64,104,41
306.31592,307.47382,62,104,41
307.50012,307.88498,65,104,41
307.89487,308.27972,69,104,41
308.2896,308.67447,67,104,41
308.68433,309.0692,65,104,41
309.07907,309.46393,64,104,41
309.47382,310.6317,62,104,41
310.65802,311.04288,64,104,41
311.05276,311.43762,65,104,41
311.44748,311.83237,73,104,41
311.84222,312.2271,74,104,41
312.23697,312.62183,76,104,41
312.6317,313.01657,69,104,41
313.42117,313.80606,69,104,41
313.81592,314.20093,69,104,41
314.21094,315.0873,69,104,41
315.10684,315.5789,67,104,41
315.5914,316.09607,67,104,41
316.10944,318.15625,67,104,41
318.5065,318.74,62,78,41
318.94394,319.1347,64,78,41
319.33865,319.52945,62,78,41
319.7334,319.9242,57,78,41
320.12814,320.31894,54,78,41
320.3255,320.5163,66,78,41
320.52286,320.71365,62,78,41
320.72025,320.91104,66,78,41
320.9176,321.1084,62,78,41
321.115,321.30576,66,78,41
321.31235,321.50314,62,78,41
321.5097,321.7005,66,78,41
321.7071,321.8979,64,78,41
322.1018,322.2926,66,78,41
322.49655,322.68735,64,78,41
322.8913,323.0821,62,78,41
323.28604,323.4768,61,78,41
323.4834,323.6742,64,78,41
323.68076,323.87155,61,78,41
323.87814,324.06894,64,78,41
324.0755,324.2663,61,78,41
324.2729,324.46365,64,78,41
324.47025,324.66104,61,78,41
324.6676,324.8584,64,78,41
324.865,325.05576,64,78,41
325.2597,325.4505,66,78,41
325.65445,325.84525,64,78,41
326.0492,326.24,62,78,41
326.44394,326.6347,61,78,41
326.6413,326.8321,64,78,41
326.83865,327.02945,61,78,41
327.03604,327.22684,64,78,41
327.2334,327.4242,61,78,41
327.43076,327.62155,64,78,41
327.62814,327.81894,61,78,41
327.8255,328.0163,64,78,41
328.0229,328.21365,66,78,41
328.4176,328.6084,67,78,41
328.81235,329.00314,66,78,41
329.2071,329.3979,64,78,41
329.60184,329.7926,62,78,41
329.7992,329.99,66,78,41
329.99655,330.18735,62,78,41
330.19394,330.3847,66,78,41
330.3913,330.5821,62,78,41
330.58865,330.77945,66,78,41
330.78604,330.97684,62,78,41
330.9834,331.1742,66,78,41
331.1808,331.37155,62,49,41
331.5755,331.7663,66,49,41
331.97025,332.16104,67,49,41
332.365,332.5558,55,49,41
332.7597,332.9505,62,49,41
333.15445,333.34525,66,49,41
333.5492,333.74,73,49,41
333.94394,334.13474,76,49,41
334.33865,334.72354,74,49,41
334.7334,335.1183,62,49,41
335.12814,335.513,61,49,41
335.5229,335.90775,61,49,41
335.9176,337.0755,59,49,41
337.10184,337.4867,64,49,41
337.49655,337.88144,64,49,41
339.47025,340.2433,58,49,41
340.25974,341.03275,62,49,41
341.0492,341.82224,60,49,41
341.83868,342.6117,60,49,41
342.62814,343.40118,59,49,41
343.41763,344.19064,57,49,41
344.2071,344.98013,50,49,41
344.99658,345.38144,62,49,41
345.3913,345.77618,64,49,41
345.78604,346.55908,64,105,41
346.5755,346.9604,62,49,41
346.97025,347.35513,59,49,41
347.365,348.138,64,105,41
348.15445,348.9275,64,49,41
350.5229,351.2959,65,49,41
351.31235,352.0854,64,49,41
352.10184,352.87485,62,49,41
352.8913,353.66434,62,49,41
353.6808,354.06564,62,49,41
354.07553,354.4604,62,49,41
354.47025,354.85513,62,49,41
354.865,355.24985,62,49,41
355.25974,355.6446,71,49,41
355.65448,356.03934,71,49,41
356.0492,356.43408,71,49,41
356.44394,357.21698,71,49,41
357.23343,358.00644,70,49,41
358.0229,358.79593,69,49,41
358.81235,359.5854,62,100,41
359.60184,359.9867,62,50,41
360.3913,360.77618,64,50,41
361.1808,361.56564,62,104,41
362.75974,363.1446,54,104,41
363.15448,363.53934,55,104,41
363.5492,363.93408,56,104,41
363.94394,364.3288,57,104,41
365.91763,366.3025,56,104,41
366.31238,366.69724,57,104,41
366.7071,367.09198,58,104,41
367.10184,367.4867,59,104,41
367.49658,367.88144,67,104,41
367.89133,368.27618,66,104,41
368.28604,368.67093,69,104,41
368.6808,369.06564,67,104,41
369.07553,369.4604,60,104,41
369.47028,369.85513,59,104,41
369.865,370.24988,67,104,41
370.25974,370.6446,64,104,41
370.65448,371.03934,62,104,41
371.44394,371.73343,64,49,41
371.74,371.8354,62,49,41
371.83868,372.12814,64,49,41
372.13474,372.23013,66,49,41
372.23343,372.6183,62,49,41
373.0229,373.31238,67,49,41
373.31894,373.41434,66,49,41
373.41763,373.7071,67,49,41
373.71368,373.80908,69,49,41
373.81238,374.19724,66,49,41
374.6261,375.04395,64,49,41
375.48325,375.90182,62,49,41
376.35486,376.84525,61,49,41
377.38144,378.08307,62,49,41
3.157896,3.3486855,38,49,42
3.552633,3.7434225,42,49,42
3.94737,4.1381598,45,49,42
4.342107,4.5328965,50,49,42
4.736844,5.1217127,45,49,42
6.315792,6.506582,45,49,42
6.710529,6.9013186,57,49,42
7.105266,7.2960553,55,49,42
7.500003,7.6907926,52,49,42
7.89474,8.279609,50,49,42
9.473688,9.858557,38,49,42
10.263162,10.64803,43,49,42
11.052636,11.437505,45,49,42
11.84211,12.226978,45,49,42
12.631584,13.016453,50,49,42
15.78948,15.980269,38,49,42
16.184217,16.375006,42,49,42
16.578955,16.769743,45,49,42
16.973692,17.16448,50,49,42
17.368427,17.753296,45,49,42
18.947376,19.138166,45,49,42
19.342113,19.532902,49,49,42
19.73685,19.927639,52,49,42
20.131586,20.322376,49,49,42
20.526323,20.911192,45,49,42
22.105272,22.296062,45,49,42
22.50001,22.690798,49,49,42
22.894747,23.085535,52,49,42
23.289482,23.480272,57,49,42
23.68422,24.069088,50,49,42
25.263168,25.453957,38,49,42
25.657906,25.848694,42,49,42
26.052643,26.243431,45,49,42
26.447378,26.638168,50,49,42
26.842115,27.226984,38,49,42
28.421064,28.805933,38,49,42
30.000011,30.190802,38,49,42
30.394749,30.585539,42,49,42
30.789486,30.980276,45,49,42
31.184223,31.375013,45,49,42
31.57896,31.963829,50,51,42
35.13159,35.51646,50,104,42
35.52633,35.911198,52,104,42
35.921066,36.305935,54,104,42
36.315804,36.700672,55,104,42
36.71054,37.09541,54,104,42
37.105278,37.490147,55,104,42
37.500015,37.884884,53,104,42
37.894753,38.27962,54,104,42
39.86844,40.253307,45,104,42
40.263172,40.64804,49,104,42
40.65791,41.042778,50,104,42
41.052647,41.825676,55,104,42
41.84212,42.61515,56,104,42
42.631596,43.016464,57,104,42
43.815807,44.006596,45,104,42
44.013176,44.203964,49,104,42
44.210545,44.595413,52,104,42
45.394756,45.779625,56,104,42
45.789494,46.174362,57,104,42
46.9737,47.164494,45,104,42
47.17107,47.361862,49,104,42
47.36844,47.753307,52,104,42
48.55265,48.93752,56,104,42
48.947388,49.720413,57,104,42
49.736862,50.509888,49,104,42
50.526337,50.911205,50,104,42
51.71055,52.095417,58,104,42
52.105286,52.490154,59,104,42
53.289494,53.674362,56,104,42
53.68423,54.0691,57,104,42
54.078968,54.463837,56,104,42
54.473705,54.858574,54,104,42
54.868443,55.25331,47,104,42
55.26318,55.64805,52,104,42
58.02634,58.799366,53,104,42
58.81581,59.58884,52,104,42
59.605286,60.378315,52,104,42
60.39476,61.16779,51,104,42
61.184235,61.95726,50,104,42
61.97371,62.746735,49,104,42
62.763184,63.148052,45,104,42
63.15792,63.54279,44,104,42
63.552658,64.32568,44,127,42
64.34213,64.727,45,104,42
64.73687,65.121735,50,104,42
65.13161,65.90463,50,104,42
65.92108,66.30595,51,104,42
66.31582,66.70068,52,104,42
69.07897,69.852005,53,104,42
69.86845,70.64147,54,104,42
70.65792,71.43095,52,104,42
71.447395,71.83227,50,104,42
71.84213,72.227005,50,104,42
72.23687,72.62174,50,104,42
72.63161,73.01648,50,104,42
73.026344,73.41122,62,49,42
73.42108,73.805954,62,49,42
73.81582,74.20069,62,49,42
74.210556,75.75661,62,49,42
75.789505,76.56253,60,49,42
76.57898,77.31911,53,105,42
77.368454,77.75332,52,49,42
78.15793,78.54279,52,81,42
78.9474,79.33227,45,104,42
80.526344,80.91122,49,104,42
80.92108,81.305954,50,104,42
81.31582,81.70069,51,104,42
81.710556,82.09543,52,104,42
83.68424,84.069115,53,104,42
84.07898,84.46385,54,104,42
84.47372,84.85859,56,104,42
84.868454,85.25333,57,104,42
88.42109,88.805954,57,49,42
89.21056,89.59543,52,49,42
90.00004,90.3849,45,49,42
90.78951,91.17438,40,49,42
91.57899,91.769775,45,49,42
91.973724,92.16451,49,49,42
92.36846,92.55925,52,49,42
92.76319,92.95399,49,49,42
93.15793,93.348724,57,49,42
93.552666,93.74346,61,49,42
93.9474,94.1382,64,49,42
94.34214,94.532936,61,49,42
96.31583,96.506615,38,49,42
96.71056,96.90135,42,49,42
97.1053,97.29609,45,49,42
97.50004,97.69083,50,49,42
97.894775,98.27965,45,49,42
99.473724,99.66451,45,49,42
99.86846,100.05925,57,49,42
100.2632,100.45399,55,49,42
100.657936,100.848724,52,49,42
101.05267,101.43754,50,49,42
102.63162,103.01649,38,49,42
103.4211,103.80596,43,49,42
104.21057,104.595436,45,49,42
105.000046,105.38491,45,49,42
105.78951,106.174385,50,49,42
108.94741,109.1382,38,49,42
109.34215,109.532936,42,49,42
109.736885,109.92767,45,49,42
110.13162,110.32241,50,49,42
110.52636,110.91123,45,49,42
112.10531,112.2961,45,49,42
112.500046,112.690834,49,49,42
112.89478,113.08557,52,49,42
113.28952,113.48031,49,49,42
113.68426,114.06912,45,49,42
115.26321,115.453995,45,49,42
115.65794,115.84873,49,49,42
116.05268,116.24347,52,49,42
116.44742,116.63821,57,49,42
116.842155,117.22702,50,49,42
118.4211,118.61189,38,49,42
118.815834,119.00663,42,49,42
119.21057,119.40137,45,49,42
119.60531,119.7961,50,49,42
120.000046,120.38492,38,49,42
121.578995,121.96387,38,49,42
123.15794,123.34873,38,49,42
123.55268,123.74347,42,49,42
123.94742,124.13821,45,49,42
124.342155,124.53294,45,49,42
124.73689,125.12176,50,51,42
128.28952,128.6744,50,104,42
128.68427,129.06914,52,104,42
129.079,129.46387,54,104,42
129.47374,129.85861,55,104,42
129.86847,130.25334,54,104,42
130.26321,130.64807,55,104,42
130.65794,131.04282,53,104,42
131.05269,131.43755,54,104,42
133.02637,133.41124,45,104,42
133.42111,133.80597,49,104,42
133.81584,134.20071,50,104,42
134.21059,134.98361,55,104,42
135.00006,135.77309,56,104,42
135.78954,136.1744,57,104,42
136.97374,137.16454,45,104,42
137.17111,137.3619,49,104,42
137.36847,137.75334,52,104,42
138.55269,138.93756,56,104,42
138.94742,139.33229,57,104,42
140.13164,140.32242,45,104,42
140.32901,140.51979,49,104,42
140.52637,140.91124,52,104,42
141.71059,142.09546,56,104,42
142.10532,142.87834,57,104,42
142.89479,143.66782,49,104,42
143.68427,144.06914,50,104,42
144.86848,145.25334,58,104,42
145.26321,145.64809,59,104,42
146.44743,146.83229,56,104,42
146.84216,147.22704,57,104,42
147.23691,147.62177,56,104,42
147.63164,148.01651,54,104,42
148.02638,148.41124,47,104,42
148.42111,148.80598,52,104,42
151.18427,151.95729,53,104,42
151.97374,152.74677,52,104,42
152.76321,153.53624,52,104,42
153.55269,154.32571,51,104,42
154.34216,155.11519,50,104,42
155.13164,155.90466,49,104,42
155.92111,156.30598,45,104,42
156.31586,156.70071,44,104,42
156.71059,157.48361,44,104,42
157.50006,157.88493,45,104,42
157.8948,158.27966,50,104,42
158.28954,159.06256,50,104,42
159.07901,159.46388,51,104,42
159.47375,159.85861,52,104,42
162.23691,163.00993,53,104,42
163.02638,163.79941,54,104,42
163.81586,164.58888,52,104,42
164.60533,164.9902,50,104,42
165.00006,165.38493,50,104,42
165.3948,165.77968,50,104,42
165.78954,166.17441,50,104,42
166.18428,166.56915,62,49,42
166.57901,166.96388,62,49,42
166.97375,167.35861,62,49,42
167.36848,168.91454,62,49,42
168.94743,169.72046,60,49,42
169.73691,170.47704,53,105,42
170.52638,170.91125,52,49,42
171.31586,171.70073,52,81,42
172.10533,172.4902,45,104,42
173.68428,174.06915,49,104,42
174.07901,174.46388,50,104,42
174.47375,174.85863,51,104,42
174.86848,175.25336,52,104,42
176.84218,177.22705,53,104,42
177.23691,177.62178,54,104,42
177.63165,178.01653,56,104,42
178.02638,178.41125,57,104,42
181.57903,181.96388,57,49,42
182.3685,182.75336,52,49,42
183.15797,183.54283,45,49,42
183.94745,184.3323,40,49,42
184.73692,184.9277,45,49,42
185.13165,185.32245,49,49,42
185.52638,185.71718,52,49,42
185.92113,186.11192,49,49,42
186.31586,186.50665,57,49,42
186.7106,186.9014,61,49,42
187.10533,187.29613,64,49,42
187.50008,187.69086,61,49,42
187.8948,189.44087,42,64,42
189.47375,189.85863,43,64,42
192.63165,193.01653,43,79,42
193.0264,193.41125,47,79,42
193.42113,193.806,50,79,42
193.81587,194.20073,55,79,42
194.2106,196.14482,50,79,42
196.1843,196.56915,54,79,42
196.57903,196.9639,57,79,42
196.97377,197.35863,54,79,42
197.3685,197.75337,50,79,42
198.94745,199.33232,50,79,42
199.34218,199.72705,54,79,42
199.73692,200.1218,57,79,42
200.13165,200.51653,62,79,42
200.5264,202.07245,43,79,42
202.10535,202.49022,43,79,42
202.50008,202.88495,47,79,42
202.89482,203.2797,50,79,42
203.28955,203.67442,55,64,42
203.6843,205.23035,43,49,42
205.26324,206.8093,43,49,42
206.8422,208.38824,43,49,42
208.42114,208.54942,43,104,42
208.55272,208.681,55,104,42
208.6843,208.81258,54,104,42
208.81587,208.94417,52,104,42
208.94745,209.07574,50,104,42
209.07903,209.20732,48,104,42
209.21062,209.3389,47,104,42
209.3422,209.47047,45,104,42
209.47377,209.60205,43,104,42
209.60535,209.73364,42,104,42
209.73692,209.86522,40,104,42
209.8685,209.9968,38,104,42
210.00009,211.54614,36,104,42
211.57903,212.73692,37,104,42
212.76324,213.14812,49,104,42
213.15797,213.28627,50,104,42
213.28957,213.41785,54,104,42
213.42114,213.54942,52,104,42
213.55272,213.681,50,104,42
213.6843,213.81259,49,104,42
213.81587,213.94417,47,104,42
213.94745,214.07574,45,104,42
214.07904,214.20732,43,104,42
214.21062,214.3389,42,104,42
214.3422,214.47047,40,104,42
214.47377,214.60207,38,104,42
214.60535,214.73364,37,104,42
214.73692,215.1218,38,104,42
215.13167,215.9047,50,104,42
215.92114,216.30602,48,104,42
216.31587,217.86192,47,104,42
217.89482,218.66785,52,104,42
219.86852,220.64154,52,104,42
220.65799,221.04285,52,104,42
221.44746,222.22049,50,104,42
222.23694,222.6218,50,104,42
223.0264,223.79944,49,104,42
223.81587,224.20074,49,104,42
224.60535,225.37837,49,104,42
225.39482,225.7797,49,104,42
226.1843,226.95732,50,104,42
226.97377,227.35864,50,104,42
227.76324,228.53627,50,104,42
228.55272,228.93759,50,104,42
229.14482,229.33562,38,104,42
229.3422,229.53299,42,104,42
229.53957,229.73036,45,104,42
229.73694,229.92772,50,104,42
229.9343,230.12509,54,104,42
230.13167,230.32246,57,104,42
230.32904,230.51984,61,104,42
230.52641,230.91127,62,104,42
230.92114,231.30602,62,104,42
231.31589,231.70074,62,104,42
231.71062,232.09549,62,104,42
232.10536,232.49022,61,104,42
234.07904,234.85207,65,79,42
234.86852,235.64154,66,79,42
237.23694,238.00996,64,79,42
238.02641,238.79944,62,79,42
238.81589,239.58891,55,105,42
240.39484,241.16786,68,50,42
241.97379,242.74681,45,105,42
243.55273,244.32576,58,50,42
244.73694,244.86523,47,104,42
244.86852,244.99681,59,104,42
245.00009,245.12839,57,104,42
245.13168,245.25996,55,104,42
245.26326,245.39154,54,104,42
245.39484,245.52312,52,104,42
245.52641,245.65471,50,104,42
245.65799,245.78629,55,104,42
245.78957,245.91786,54,104,42
245.92116,246.04944,52,104,42
246.05273,246.18102,50,104,42
246.18431,246.31259,49,104,42
246.31589,246.44418,47,104,42
246.44746,246.57576,42,104,42
246.57904,246.70734,47,104,42
246.71063,246.83891,49,104,42
246.84221,246.97049,42,104,42
246.97379,247.10207,49,104,42
247.10536,247.23366,50,104,42
247.23694,247.36523,52,104,42
247.36852,247.49681,54,104,42
247.50009,247.62839,52,104,42
247.63168,247.75996,50,104,42
247.76326,247.89154,49,104,42
247.89484,248.02313,47,104,42
248.02641,248.15471,59,104,42
248.15799,248.28629,57,104,42
248.28957,248.41786,55,104,42
248.42116,248.54944,54,104,42
248.55273,248.68102,52,104,42
248.68431,248.8126,50,104,42
248.81589,248.94418,55,104,42
248.94746,249.07576,54,104,42
249.07904,249.20734,52,104,42
249.21063,249.33891,50,104,42
249.34221,249.47049,49,104,42
249.47379,249.60207,47,104,42
249.60536,249.73366,49,104,42
249.73694,249.86523,50,104,42
249.86852,249.99681,49,104,42
250.0001,250.12839,47,104,42
250.13168,250.25996,45,104,42
250.26326,250.39154,43,104,42
250.39484,250.52313,45,104,42
250.52641,250.65471,47,104,42
250.65799,250.78629,45,104,42
250.78958,250.91786,43,104,42
250.92116,251.04944,42,104,42
251.05273,251.18102,40,104,42
251.18431,251.3126,40,104,42
251.31589,251.44418,40,104,42
251.44746,251.57576,39,104,42
251.57904,251.70734,39,104,42
251.71063,251.83891,39,104,42
251.84221,251.97049,40,104,42
251.97379,252.10208,40,104,42
252.10536,252.23366,40,104,42
252.23694,252.36523,41,104,42
252.36852,252.49681,41,104,42
252.5001,252.62839,41,104,42
252.63168,252.75996,42,104,42
252.76326,252.89156,42,104,42
252.89484,253.02313,42,104,42
253.02641,253.15471,43,104,42
253.15799,253.28629,43,104,42
253.28958,253.41786,43,104,42
253.42116,253.54944,40,104,42
253.55273,253.68102,40,104,42
253.68431,253.8126,40,104,42
253.81589,253.94418,42,104,42
253.94746,254.07576,42,104,42
254.07906,254.20734,42,104,42
254.21063,254.40141,38,49,42
254.60536,254.79616,40,49,42
255.0001,255.19089,37,49,42
255.39484,255.58563,38,49,42
255.78958,256.94748,43,49,42
256.9738,257.35864,42,49,42
257.36853,257.55933,43,49,42
257.76328,257.95404,42,49,42
258.158,258.3488,40,49,42
258.55273,258.74353,45,49,42
258.94748,259.33234,38,64,42
260.52643,260.71722,38,64,42
260.92114,261.11194,42,64,42
261.3159,261.50668,45,64,42
261.71063,261.90143,50,64,42
262.10538,262.49023,45,64,42
263.68433,263.8751,45,64,42
264.07904,264.26984,49,64,42
264.4738,264.66458,52,64,42
264.86853,265.05933,49,64,42
265.26328,265.64813,45,64,42
266.84222,267.033,45,64,42
267.23694,267.42773,49,64,42
267.63168,267.82248,52,64,42
268.02643,268.21722,57,64,42
268.42117,268.80603,50,64,42
270.00012,270.1909,38,64,42
270.39484,270.58563,42,64,42
270.78958,270.98038,45,64,42
271.18433,271.37512,50,64,42
271.57907,271.96393,38,49,42
273.158,273.54288,38,49,42
274.73694,274.92773,38,49,42
275.13168,275.32248,42,49,42
275.52643,275.71722,45,49,42
275.92117,276.11194,45,49,42
276.3159,276.70078,50,50,42
277.50012,277.88498,57,104,42
277.89484,278.27972,50,104,42
279.07907,279.46393,57,104,42
279.4738,280.24683,62,104,42
280.26328,281.0363,61,104,42
281.05273,281.82578,59,104,42
281.84222,282.61523,57,104,42
282.63168,283.40472,55,104,42
283.42117,284.19418,54,104,42
284.21063,284.98367,52,104,42
285.00012,285.77313,50,104,42
285.78958,286.56262,49,104,42
286.57907,287.35208,47,104,42
287.36853,288.91458,45,104,42
288.94748,290.49353,57,104,42
290.52643,290.65472,57,104,42
290.65802,290.7863,55,104,42
290.78958,290.91788,54,104,42
290.92117,291.04947,52,104,42
291.05273,291.18103,50,104,42
291.18433,291.31262,49,104,42
291.31592,291.44418,47,104,42
291.44748,291.57578,45,104,42
291.57907,291.70737,44,104,42
291.71063,291.83893,45,104,42
291.84222,291.97052,47,104,42
291.97382,292.10208,43,104,42
292.10538,293.65143,42,104,42
293.68433,295.23038,43,104,42
295.26328,296.80933,45,49,42
296.84222,298.38828,47,49,42
298.42117,299.96722,52,104,42
300.00012,306.18762,45,104,42
306.31592,306.4442,62,104,42
306.44748,306.57578,60,104,42
306.57907,306.70737,58,104,42
306.71066,306.83893,57,104,42
306.84222,306.97052,55,104,42
306.97382,307.10208,53,104,42
307.10538,307.23367,52,104,42
307.23697,307.36526,50,104,42
307.36853,307.49683,48,104,42
307.50012,307.62842,46,104,42
307.6317,307.75998,45,104,42
307.76328,307.89157,43,104,42
307.89487,308.27972,41,104,42
308.2896,308.67447,43,104,42
308.68433,309.0692,44,104,42
309.07907,309.46393,45,104,42
309.47382,310.24683,46,104,42
310.26328,311.03632,58,104,42
311.05276,311.43762,58,104,42
311.44748,311.83237,57,104,42
311.84222,312.2271,56,104,42
312.23697,312.62183,55,104,42
312.6317,313.01657,54,104,42
313.02643,313.41132,53,104,42
313.42117,313.80606,52,104,42
313.81592,314.20093,50,104,42
314.21094,314.3437,49,104,42
314.34714,314.48566,52,104,42
314.48926,314.634,54,104,42
314.6378,314.78918,55,104,42
314.79312,314.9467,57,104,42
314.95062,315.10294,59,104,42
315.10684,315.5789,61,104,42
315.5914,316.09607,61,104,42
316.10944,318.15625,61,104,42
318.5065,318.93405,62,79,42
320.12814,320.31894,38,79,42
320.52286,320.71365,42,79,42
320.9176,321.1084,45,79,42
321.31235,321.50314,50,79,42
321.7071,322.09195,45,79,42
323.28604,323.4768,45,79,42
323.68076,323.87155,49,79,42
324.0755,324.2663,52,79,42
324.47025,324.66104,49,79,42
324.865,325.24985,45,79,42
326.44394,326.6347,45,79,42
326.83865,327.02945,49,79,42
327.2334,327.4242,52,79,42
327.62814,327.81894,57,79,42
328.0229,328.40775,50,79,42
329.60184,329.7926,38,79,42
329.99655,330.18735,42,79,42
330.3913,330.5821,45,79,42
330.78604,330.97684,50,79,42
331.1808,331.56564,38,49,42
332.7597,333.1446,38,49,42
334.33865,335.1117,50,49,42
335.12814,335.90115,57,49,42
335.9176,337.46368,59,49,42
337.49655,337.88144,57,49,42
340.25974,341.03275,46,49,42
341.0492,341.82224,45,49,42
341.83868,342.6117,45,49,42
342.62814,343.40118,44,49,42
343.41763,344.19064,43,49,42
344.2071,344.98013,42,49,42
344.99658,345.38144,38,49,42
345.3913,345.77618,37,49,42
345.78604,346.55908,37,105,42
346.5755,346.9604,38,49,42
346.97025,347.35513,43,49,42
347.365,348.138,43,105,42
348.15445,348.53934,44,49,42
348.5492,348.93408,45,49,42
351.31235,352.0854,46,49,42
352.10184,352.87485,47,49,42
352.8913,353.66434,45,49,42
353.6808,354.06564,43,49,42
354.07553,354.4604,43,49,42
354.47025,354.85513,43,49,42
354.865,355.24985,43,49,42
355.25974,355.6446,55,49,42
355.65448,356.03934,55,49,42
356.0492,356.43408,55,49,42
356.44394,357.99,55,49,42
358.0229,358.79593,53,49,42
358.81235,359.5854,46,100,42
359.60184,359.9867,45,50,42
360.3913,360.77618,45,50,42
361.1808,361.56564,50,104,42
362.75974,363.1446,42,104,42
363.15448,363.53934,43,104,42
363.5492,363.93408,44,104,42
363.94394,364.3288,45,104,42
365.91763,366.3025,56,104,42
366.31238,366.69724,57,104,42
366.7071,367.09198,58,104,42
367.10184,367.4867,59,104,42
369.07553,369.4604,51,104,42
369.47028,369.85513,52,104,42
369.865,370.24988,55,104,42
370.25974,370.6446,57,104,42
370.65448,371.03934,50,104,42
371.44394,372.21698,61,48,42
372.23343,372.6183,62,48,42
373.0229,373.79593,57,48,42
373.81238,374.19724,50,48,42
374.6261,375.04395,57,48,42
375.48325,375.90182,62,48,42
376.35486,376.84525,45,48,42
377.38144,378.08307,38,48,42
