start_time,end_time,note_value,velocity,instrument_program_number
1.828125,1.86875,61,104,40
1.875,2.240625,62,104,40
2.25,2.615625,66,104,40
2.625,2.946875,69,104,40
2.953125,2.99375,58,104,40
3.0,3.365625,59,104,40
3.375,3.740625,64,104,40
3.75,4.115625,67,104,40
4.125,4.30625,61,104,40
4.3125,4.49375,62,104,40
4.5,4.68125,64,104,40
4.6875,4.86875,66,104,40
4.875,5.05625,67,104,40
5.0625,5.24375,69,104,40
5.25,5.43125,71,104,40
5.4375,5.61875,73,104,40
5.625,5.990625,74,104,40
6.0,6.365625,74,104,40
6.375,6.55625,73,104,40
6.5625,6.74375,74,104,40
6.75,6.93125,76,104,40
6.9375,7.11875,78,104,40
7.125,7.30625,79,104,40
7.3125,7.49375,81,104,40
7.5,7.68125,83,104,40
7.6875,7.86875,85,104,40
7.875,8.240625,86,104,40
8.25,8.615625,86,104,40
8.625,8.990625,87,127,40
9.0,9.365625,88,104,40
9.375,9.740625,88,104,40
9.75,10.115625,71,104,40
9.75,10.115625,80,104,40
10.125,10.490625,69,104,40
10.125,10.490625,81,104,40
10.828125,10.86875,61,104,40
10.875,11.240625,62,104,40
11.25,11.615625,66,104,40
11.625,11.946875,69,104,40
11.953125,11.99375,58,104,40
12.0,12.365625,59,104,40
12.375,12.740625,64,104,40
12.75,13.115625,67,104,40
13.125,13.30625,61,104,40
13.3125,13.49375,62,104,40
13.5,13.68125,64,104,40
13.6875,13.86875,66,104,40
13.875,14.05625,67,104,40
14.0625,14.24375,69,104,40
14.25,14.43125,71,104,40
14.4375,14.61875,73,104,40
14.625,14.990625,74,104,40
15.0,15.365625,74,104,40
15.375,15.55625,73,104,40
15.5625,15.74375,74,104,40
15.75,15.93125,76,104,40
15.9375,16.11875,78,104,40
16.125,16.30625,79,104,40
16.3125,16.49375,81,104,40
16.5,16.68125,83,104,40
16.6875,16.86875,85,104,40
16.875,17.240625,86,104,40
17.25,17.615625,86,104,40
17.625,17.990625,87,127,40
18.0,18.365625,88,104,40
18.375,18.740625,88,104,40
18.75,19.115625,71,104,40
18.75,19.115625,80,104,40
19.125,19.490625,69,104,40
19.125,19.490625,81,104,40
20.25,20.615625,81,49,40
20.625,20.990625,81,49,40
21.375,21.740625,80,49,40
21.75,22.115625,80,49,40
22.5,22.865625,79,49,40
22.875,23.240625,79,49,40
23.625,24.725,77,49,40
24.75,25.4,76,49,40
25.40625,25.446875,76,49,40
25.453125,25.49375,79,49,40
25.5,25.865625,77,49,40
25.875,26.525,76,49,40
26.53125,26.571875,76,49,40
26.578125,26.61875,79,49,40
26.625,26.990625,77,49,40
27.0,27.365625,76,49,40
27.375,27.65,76,49,40
27.65625,27.696875,76,49,40
27.703125,27.74375,79,49,40
27.75,28.115625,77,49,40
28.125,28.490625,76,49,40
28.828125,28.86875,61,104,40
28.875,29.240625,62,104,40
29.25,29.615625,66,104,40
29.625,29.946875,69,104,40
29.953125,29.99375,58,104,40
30.0,30.365625,59,104,40
30.375,30.740625,64,104,40
30.75,31.115625,67,104,40
31.125,31.30625,61,104,40
31.3125,31.49375,62,104,40
31.5,31.68125,64,104,40
31.6875,31.86875,66,104,40
31.875,32.05625,67,104,40
32.0625,32.24375,69,104,40
32.25,32.43125,71,104,40
32.4375,32.61875,73,104,40
32.625,32.990623,74,104,40
33.0,33.365623,74,104,40
33.375,33.740623,81,104,40
33.75,34.115623,79,104,40
34.125,34.490623,79,104,40
34.5,34.865623,79,104,40
34.875,35.240623,78,104,40
35.25,35.615623,78,104,40
35.625,35.80625,86,104,40
35.8125,35.99375,85,104,40
36.0,36.18125,83,104,40
36.1875,36.36875,81,104,40
36.375,36.55625,79,104,40
36.5625,36.74375,78,104,40
36.75,36.93125,76,104,40
36.9375,37.11875,75,104,40
37.125,37.30625,76,104,40
37.3125,37.49375,75,104,40
37.5,37.68125,76,104,40
37.6875,37.86875,78,104,40
37.875,38.240623,79,104,40
38.25,38.615623,78,104,40
38.625,38.990623,74,104,40
39.0,39.040627,73,104,40
39.046875,39.0875,74,104,40
39.09375,39.134377,73,104,40
39.140625,39.18125,74,104,40
39.1875,39.321877,73,104,40
39.328125,39.346874,71,104,40
39.35,39.36875,73,104,40
39.375,39.740623,74,104,40
40.078125,40.11875,73,104,40
40.125,40.490623,74,104,40
40.5,40.865623,78,104,40
40.875,41.196877,81,104,40
41.203125,41.24375,70,104,40
41.25,41.571877,71,104,40
41.578125,41.61875,78,104,40
41.625,41.946877,79,104,40
41.953125,41.99375,68,104,40
42.0,42.321877,69,104,40
42.328125,42.36875,76,104,40
42.375,42.696877,78,104,40
42.703125,42.74375,66,104,40
42.75,43.071877,67,104,40
43.078125,43.11875,75,104,40
43.125,43.446877,76,104,40
43.453125,43.540627,64,104,40
43.546875,43.86875,66,104,40
43.875,44.05625,64,104,40
44.0625,44.24375,66,104,40
44.25,44.43125,67,104,40
44.4375,44.61875,69,104,40
44.625,44.80625,71,104,40
44.8125,44.99375,73,104,40
45.0,45.365623,74,104,40
45.75,46.115623,76,49,40
46.125,46.490623,77,49,40
46.875,47.240623,77,49,40
47.25,47.615623,78,49,40
48.0,48.365623,78,49,40
48.375,48.740623,79,49,40
49.125,49.490623,78,49,40
49.5,49.865623,76,49,40
50.25,50.615623,78,50,40
50.625,50.990623,79,50,40
51.375,51.696877,78,104,40
51.703125,51.74375,75,104,40
51.75,52.071877,76,104,40
52.078125,52.11875,78,104,40
52.125,52.446877,79,104,40
52.453125,52.49375,82,104,40
52.5,52.865623,83,104,40
52.875,53.609375,74,104,40
53.625,53.80625,73,104,40
53.8125,53.99375,74,104,40
54.0,54.18125,76,104,40
54.1875,54.36875,78,104,40
54.375,54.55625,79,104,40
54.5625,54.74375,81,104,40
54.75,54.93125,83,104,40
54.9375,55.11875,85,104,40
55.125,55.490623,86,104,40
57.0,57.365536,81,104,40
57.375027,57.770138,78,104,40
58.73243,59.098053,81,49,40
59.10743,59.473053,81,49,40
59.85743,60.223053,80,49,40
60.23243,60.598053,80,49,40
60.98243,61.348053,79,49,40
61.35743,61.723053,79,49,40
62.10743,63.207428,77,49,40
63.23243,63.882427,76,49,40
63.88868,63.929302,76,49,40
63.935555,63.976177,79,49,40
63.98243,64.34805,77,49,40
64.35743,65.00743,76,49,40
65.01368,65.054306,76,49,40
65.060555,65.10118,79,49,40
65.10743,65.47305,77,49,40
65.48243,65.848145,76,49,40
65.857544,66.13572,76,49,40
66.14209,66.18358,76,49,40
66.189964,66.23166,79,49,40
66.23809,66.62208,77,49,40
66.63214,67.032875,76,49,40
67.44774,67.50724,61,104,40
67.516335,67.88481,62,104,40
67.89413,68.25933,66,104,40
68.2687,68.590576,69,104,40
68.596825,68.63745,58,104,40
68.6437,69.00933,59,104,40
69.0187,69.38433,64,104,40
69.3937,69.75933,67,104,40
69.7687,69.94995,61,104,40
69.9562,70.13745,62,104,40
70.1437,70.32495,64,104,40
70.3312,70.51245,66,104,40
70.5187,70.69995,67,104,40
70.7062,70.88745,69,104,40
70.8937,71.07495,71,104,40
71.0812,71.26245,73,104,40
71.2687,71.63433,74,104,40
71.6437,72.00933,74,104,40
72.0187,72.38433,81,104,40
72.3937,72.75933,79,104,40
72.7687,73.13433,79,104,40
73.1437,73.50933,79,104,40
73.5187,73.88433,78,104,40
73.8937,74.25933,78,104,40
74.2687,74.44995,86,104,40
74.4562,74.63745,85,104,40
74.6437,74.82495,83,104,40
74.8312,75.01245,81,104,40
75.0187,75.19995,79,104,40
75.2062,75.38745,78,104,40
75.3937,75.57495,76,104,40
75.5812,75.76245,75,104,40
75.7687,75.94995,76,104,40
75.9562,76.13745,75,104,40
76.1437,76.32495,76,104,40
76.3312,76.51245,78,104,40
76.5187,76.88433,79,104,40
76.8937,77.25933,78,104,40
77.2687,77.63433,74,104,40
77.6437,77.684326,73,104,40
77.690575,77.7312,74,104,40
77.73745,77.778076,73,104,40
77.784325,77.82495,74,104,40
77.8312,77.965576,73,104,40
77.971825,77.99058,71,104,40
77.993706,78.01245,73,104,40
78.0187,78.38433,74,104,40
78.721825,78.76245,73,104,40
78.7687,79.13433,74,104,40
79.1437,79.50933,78,104,40
79.5187,79.840576,81,104,40
79.846825,79.88745,70,104,40
79.8937,80.215576,71,104,40
80.221825,80.26245,78,104,40
80.2687,80.590576,79,104,40
80.596825,80.63745,68,104,40
80.6437,80.965576,69,104,40
80.971825,81.01245,76,104,40
81.0187,81.340576,78,104,40
81.346825,81.38745,66,104,40
81.3937,81.715576,67,104,40
81.721825,81.76245,75,104,40
81.7687,82.090576,76,104,40
82.096825,82.184326,64,104,40
82.190575,82.51245,66,104,40
82.5187,82.69995,64,104,40
82.7062,82.88745,66,104,40
82.8937,83.07495,67,104,40
83.0812,83.26245,69,104,40
83.2687,83.44995,71,104,40
83.4562,83.63745,73,104,40
83.6437,84.00933,74,104,40
84.3937,84.75933,76,49,40
84.7687,85.13433,77,49,40
85.5187,85.88433,77,49,40
85.8937,86.25933,78,49,40
86.6437,87.00933,78,49,40
87.0187,87.38433,79,49,40
87.7687,88.13433,78,49,40
88.1437,88.50933,76,49,40
88.8937,89.25933,78,49,40
89.2687,89.63433,79,49,40
90.0187,90.340576,78,104,40
90.346825,90.38745,75,104,40
90.3937,90.715576,76,104,40
90.721825,90.76245,78,104,40
90.7687,91.090576,79,104,40
91.096825,91.13745,82,104,40
91.1437,91.50933,83,104,40
91.5187,92.253075,74,104,40
92.2687,92.44995,73,104,40
92.4562,92.63745,74,104,40
92.6437,92.82495,76,104,40
92.8312,93.01245,78,104,40
93.0187,93.19995,79,104,40
93.2062,93.38745,81,104,40
93.3937,93.57495,83,104,40
93.5812,93.76245,85,104,40
93.7687,94.13433,86,104,40
95.6437,96.01724,81,104,40
96.02742,96.46111,78,104,40
101.476746,101.658,62,49,40
101.664246,101.8455,64,49,40
101.851746,102.033,65,49,40
102.039246,102.2205,69,49,40
102.226746,102.408,70,49,40
102.414246,102.5955,72,49,40
102.601746,102.783,74,49,40
102.789246,102.9705,71,49,40
102.976746,103.158,72,49,40
103.164246,103.3455,71,49,40
103.351746,103.533,72,49,40
103.539246,103.7205,67,49,40
103.726746,103.908,76,49,40
103.914246,104.0955,72,49,40
104.101746,104.283,77,49,40
104.289246,104.4705,76,49,40
104.476746,104.658,77,49,40
104.664246,104.8455,72,49,40
104.851746,105.033,82,49,40
105.039246,105.2205,79,49,40
105.226746,105.408,81,49,40
105.414246,105.5955,80,49,40
105.601746,105.783,81,49,40
105.789246,105.9705,77,49,40
105.976746,106.158,82,49,40
106.164246,106.3455,79,49,40
106.351746,106.533,81,49,40
106.539246,106.7205,80,49,40
106.726746,106.908,81,49,40
106.914246,107.0955,77,49,40
107.101746,107.283,82,49,40
107.289246,107.4705,79,49,40
107.476746,107.658,81,49,40
107.664246,107.8455,77,49,40
107.851746,108.033,79,49,40
108.039246,108.2205,76,49,40
108.226746,108.408,77,49,40
108.414246,108.5955,74,49,40
108.601746,108.783,75,49,40
108.789246,108.9705,72,49,40
108.976746,109.158,74,49,40
109.164246,109.3455,70,49,40
109.351746,109.533,72,49,40
109.539246,109.7205,69,49,40
109.726746,109.908,70,49,40
109.914246,110.0955,69,49,40
110.101746,110.283,70,49,40
110.289246,110.4705,74,49,40
110.476746,110.658,72,49,40
110.664246,110.8455,70,49,40
110.851746,111.033,69,49,40
111.039246,111.2205,70,49,40
111.226746,111.408,72,49,40
111.414246,111.5955,69,49,40
111.601746,111.783,70,49,40
111.789246,111.9705,67,49,40
111.976746,112.3432,65,49,40
117.27722,117.45847,62,49,40
117.46472,117.64597,64,49,40
117.65222,117.83347,65,49,40
117.83972,118.02097,69,49,40
118.02722,118.20847,70,49,40
118.21472,118.39597,72,49,40
118.40222,118.58347,74,49,40
118.58972,118.77097,71,49,40
118.77722,118.95847,72,49,40
118.96472,119.14597,71,49,40
119.15222,119.33347,72,49,40
119.33972,119.52097,67,49,40
119.52722,119.70847,76,49,40
119.71472,119.89597,72,49,40
119.90222,120.08347,77,49,40
120.08972,120.27097,76,49,40
120.27722,120.45847,77,49,40
120.46472,120.64597,72,49,40
120.65222,120.83347,82,49,40
120.83972,121.02097,79,49,40
121.02722,121.20847,81,49,40
121.21472,121.39597,80,49,40
121.40222,121.58347,81,49,40
121.58972,121.77097,77,49,40
121.77722,121.95847,82,49,40
121.96472,122.14597,79,49,40
122.15222,122.33347,81,49,40
122.33972,122.52097,80,49,40
122.52722,122.70847,81,49,40
122.71472,122.89597,77,49,40
122.90222,123.08347,82,49,40
123.08972,123.27097,79,49,40
123.27722,123.45847,81,49,40
123.46472,123.64597,77,49,40
123.65222,123.83347,79,49,40
123.83972,124.02097,76,49,40
124.02722,124.20847,77,49,40
124.21472,124.39597,74,49,40
124.40222,124.58347,75,49,40
124.58972,124.77097,72,49,40
124.77722,124.95847,74,49,40
124.96472,125.14597,70,49,40
125.15222,125.33347,72,49,40
125.33972,125.52097,69,49,40
125.52722,125.70847,70,49,40
125.71472,125.89597,69,49,40
125.90222,126.08347,70,49,40
126.08972,126.27097,74,49,40
126.27722,126.45847,72,49,40
126.46472,126.64597,70,49,40
126.65222,126.83347,69,49,40
126.83972,127.02097,70,49,40
127.02722,127.20847,72,49,40
127.21472,127.39597,69,49,40
127.40222,127.58347,70,49,40
127.58972,127.77097,67,49,40
127.77722,128.14284,65,49,40
128.52722,128.70847,82,104,40
128.71472,128.89597,81,104,40
128.90222,129.08347,79,104,40
129.08972,129.27097,77,104,40
129.27722,129.45847,76,104,40
129.46472,129.64597,77,104,40
129.65222,129.83347,79,104,40
129.83972,130.02097,77,104,40
130.02722,130.39284,76,104,40
130.77722,130.95847,82,49,40
130.96472,131.14597,81,49,40
131.15222,131.33347,79,49,40
131.33972,131.52097,77,49,40
131.52722,131.70847,76,49,40
131.71472,131.89597,77,49,40
131.90222,132.08347,79,49,40
132.08972,132.27097,77,49,40
132.27722,132.64284,76,49,40
132.65222,133.3866,81,80,40
133.40222,133.58347,79,49,40
133.58972,133.77097,77,49,40
133.77722,133.95847,76,49,40
133.96472,134.14597,74,49,40
134.15222,134.51784,74,49,40
134.52722,134.89284,74,49,40
134.90222,135.26784,73,49,40
135.27722,135.64284,72,49,40
135.65222,136.01784,72,49,40
136.02722,136.39284,71,49,40
136.40222,136.76784,70,49,40
136.77722,137.14284,69,49,40
137.15222,137.51784,67,49,40
137.52722,137.89284,65,49,40
137.90222,138.08347,64,49,40
138.08972,138.27097,62,49,40
138.27722,138.45847,64,49,40
138.46472,138.64597,67,49,40
138.65222,138.83347,65,49,40
138.83972,139.02097,64,49,40
139.02722,139.391,62,49,40
139.773,139.95311,82,104,40
139.95932,140.13945,81,104,40
140.14566,140.32579,79,104,40
140.332,140.51212,77,104,40
140.51833,140.69846,76,104,40
140.70467,140.8848,77,104,40
140.891,141.07112,79,104,40
141.07733,141.25746,77,104,40
141.26367,141.62703,76,104,40
142.00902,142.18913,82,49,40
142.19534,142.37547,81,49,40
142.38168,142.56181,79,49,40
142.56802,142.74814,77,49,40
142.75436,142.93448,76,49,40
142.94069,143.12082,77,49,40
143.12703,143.30716,79,49,40
143.31337,143.49348,77,49,40
143.4997,143.86305,76,49,40
143.87238,144.60219,81,80,40
144.6177,144.79784,79,49,40
144.80405,144.98418,77,49,40
144.99039,145.1705,76,49,40
145.17671,145.35684,74,49,40
145.36305,145.72641,74,49,40
145.73572,146.09908,74,49,40
146.1084,146.47176,73,49,40
146.48106,146.84442,72,49,40
146.85374,147.21709,72,49,40
147.22641,147.58977,71,49,40
147.59908,147.96243,70,49,40
147.97176,148.3351,69,49,40
148.34442,148.70778,67,49,40
148.71709,149.08107,65,49,40
149.0905,149.27522,64,49,40
149.28166,149.47066,62,49,40
149.47725,149.67076,64,49,40
149.67752,149.87573,67,49,40
149.88264,150.08577,65,49,40
150.09286,150.29854,64,49,40
150.30563,150.72052,62,49,40
151.1035,151.14941,61,104,40
151.15613,151.51947,62,104,40
151.5288,151.89438,66,104,40
151.90375,152.22563,69,104,40
152.23187,152.2725,58,104,40
152.27875,152.64438,59,104,40
152.65375,153.01938,64,104,40
153.02875,153.39438,67,104,40
153.40375,153.585,61,104,40
153.59125,153.7725,62,104,40
153.77875,153.96,64,104,40
153.96625,154.1475,66,104,40
154.15375,154.335,67,104,40
154.34125,154.5225,69,104,40
154.52875,154.71,71,104,40
154.71625,154.8975,73,104,40
154.90375,155.26938,74,104,40
155.27875,155.64438,74,104,40
155.65375,155.835,73,104,40
155.84125,156.0225,74,104,40
156.02875,156.21,76,104,40
156.21625,156.3975,78,104,40
156.40375,156.585,79,104,40
156.59125,156.7725,81,104,40
156.77875,156.96,83,104,40
156.96625,157.1475,85,104,40
157.15375,157.51938,86,104,40
157.52875,157.89438,86,104,40
157.90375,158.26938,87,127,40
158.27875,158.64438,88,104,40
158.65375,159.01938,88,104,40
159.02875,159.39438,71,104,40
159.02875,159.39438,80,104,40
159.40375,159.76938,69,104,40
159.40375,159.76938,81,104,40
160.52875,160.89438,81,49,40
160.90375,161.26938,81,49,40
161.65375,162.01938,80,49,40
162.02875,162.39438,80,49,40
162.77875,163.14438,79,49,40
163.15375,163.51938,79,49,40
163.90375,165.00375,77,49,40
165.02875,165.72563,76,49,40
165.73187,165.7725,79,49,40
165.77875,166.14438,77,49,40
166.15375,166.85063,76,49,40
166.85687,166.8975,79,49,40
166.90375,167.26938,77,49,40
167.27875,167.64438,76,49,40
167.65375,167.9792,76,49,40
167.98578,168.02882,79,49,40
168.03549,168.45366,77,49,40
168.46518,168.95117,76,49,40
169.44621,169.49414,61,104,40
169.5004,169.86603,62,104,40
169.8754,170.24103,66,104,40
170.2504,170.57227,69,104,40
170.57852,170.61914,58,104,40
170.6254,170.99103,59,104,40
171.0004,171.36603,64,104,40
171.3754,171.74103,67,104,40
171.7504,171.93164,61,104,40
171.9379,172.11914,62,104,40
172.1254,172.30664,64,104,40
172.3129,172.49414,66,104,40
172.5004,172.68164,67,104,40
172.6879,172.86914,69,104,40
172.8754,173.05664,71,104,40
173.0629,173.24414,73,104,40
173.2504,173.61603,74,104,40
173.6254,173.99103,74,104,40
174.0004,174.36603,81,104,40
174.3754,174.74103,79,104,40
174.7504,175.11603,79,104,40
175.1254,175.49103,79,104,40
175.5004,175.86603,78,104,40
175.8754,176.24103,78,104,40
176.2504,176.43164,86,104,40
176.4379,176.61914,85,104,40
176.6254,176.80664,83,104,40
176.8129,176.99414,81,104,40
177.0004,177.18164,79,104,40
177.1879,177.36914,78,104,40
177.3754,177.55664,76,104,40
177.5629,177.74414,75,104,40
177.7504,177.93164,76,104,40
177.9379,178.11914,75,104,40
178.1254,178.30664,76,104,40
178.3129,178.49414,78,104,40
178.5004,178.86603,79,104,40
178.8754,179.24103,78,104,40
179.2504,179.61603,74,104,40
179.6254,179.66602,73,104,40
179.67227,179.71289,74,104,40
179.71915,179.75977,73,104,40
179.76602,179.80664,74,104,40
179.8129,179.94727,73,104,40
179.95352,179.97227,71,104,40
179.9754,179.99414,73,104,40
180.0004,180.36603,74,104,40
180.70352,180.74414,73,104,40
180.7504,181.11603,74,104,40
181.1254,181.49103,78,104,40
181.5004,181.82227,81,104,40
181.82852,181.86914,70,104,40
181.8754,182.19727,71,104,40
182.20352,182.24414,78,104,40
182.2504,182.57227,79,104,40
182.57852,182.61914,68,104,40
182.6254,182.94727,69,104,40
182.95352,182.99414,76,104,40
183.0004,183.32227,78,104,40
183.32852,183.36914,66,104,40
183.3754,183.69727,67,104,40
183.70352,183.74414,75,104,40
183.7504,184.07227,76,104,40
184.07852,184.16602,64,104,40
184.17227,184.49414,66,104,40
184.5004,184.68164,64,104,40
184.6879,184.86914,66,104,40
184.8754,185.05664,67,104,40
185.0629,185.24414,69,104,40
185.2504,185.43164,71,104,40
185.4379,185.61914,73,104,40
185.6254,185.99103,74,104,40
186.3754,186.74103,76,49,40
186.7504,187.11603,77,49,40
187.5004,187.86603,77,49,40
187.8754,188.24103,78,49,40
188.6254,188.99103,78,49,40
189.0004,189.36603,79,49,40
189.7504,190.11603,78,49,40
190.1254,190.49103,76,49,40
190.8754,191.24103,78,49,40
191.2504,191.61603,79,49,40
192.0004,192.32227,78,104,40
192.32852,192.36914,75,104,40
192.3754,192.69727,76,104,40
192.70352,192.74414,78,104,40
192.7504,193.07227,79,104,40
193.07852,193.11914,82,104,40
193.1254,193.49103,83,104,40
193.5004,194.23477,74,104,40
194.2504,194.43164,73,104,40
194.4379,194.61914,74,104,40
194.6254,194.80664,76,104,40
194.8129,194.99414,78,104,40
195.0004,195.18164,79,104,40
195.1879,195.36914,81,104,40
195.3754,195.55664,83,104,40
195.5629,195.74414,85,104,40
195.7504,196.11603,86,104,40
197.67108,198.09337,81,104,40
198.10689,198.64922,78,104,40
2.25,2.615625,57,104,40
3.375,3.740625,59,104,40
4.5,4.68125,61,104,40
4.6875,4.86875,62,104,40
4.875,5.05625,64,104,40
5.0625,5.24375,66,104,40
5.25,5.43125,67,104,40
5.4375,5.61875,64,104,40
5.625,5.990625,66,104,40
6.375,6.55625,67,104,40
6.5625,6.74375,66,104,40
6.75,6.93125,64,104,40
6.9375,7.11875,62,104,40
7.125,7.30625,61,104,40
7.3125,7.49375,59,104,40
7.5,7.68125,57,104,40
7.6875,7.86875,67,104,40
7.875,8.240625,66,104,40
8.25,8.615625,66,104,40
8.625,8.990625,75,127,40
9.0,9.365625,76,104,40
9.375,9.740625,76,104,40
9.75,10.115625,64,104,40
9.75,10.115625,71,104,40
10.125,10.490625,64,104,40
10.125,10.490625,73,104,40
11.25,11.615625,57,104,40
12.375,12.740625,59,104,40
13.5,13.68125,61,104,40
13.6875,13.86875,62,104,40
13.875,14.05625,64,104,40
14.0625,14.24375,66,104,40
14.25,14.43125,67,104,40
14.4375,14.61875,64,104,40
14.625,14.990625,66,104,40
15.375,15.55625,67,104,40
15.5625,15.74375,66,104,40
15.75,15.93125,64,104,40
15.9375,16.11875,62,104,40
16.125,16.30625,61,104,40
16.3125,16.49375,59,104,40
16.5,16.68125,57,104,40
16.6875,16.86875,67,104,40
16.875,17.240625,66,104,40
17.25,17.615625,66,104,40
17.625,17.990625,75,127,40
18.0,18.365625,76,104,40
18.375,18.740625,76,104,40
18.75,19.115625,64,104,40
18.75,19.115625,71,104,40
19.125,19.490625,64,104,40
19.125,19.490625,73,104,40
19.828125,19.86875,68,49,40
19.875,20.240625,69,49,40
20.25,20.615625,73,49,40
20.625,20.946875,76,49,40
20.953125,20.99375,68,49,40
21.0,21.365625,69,49,40
21.375,21.740625,71,49,40
21.75,22.071875,74,49,40
22.078125,22.11875,63,49,40
22.125,22.490625,64,49,40
22.5,22.865625,73,49,40
22.875,23.240625,76,49,40
23.25,23.615625,73,49,40
23.625,24.725,74,49,40
24.75,25.85,73,49,40
25.875,26.609375,73,49,40
26.625,26.990625,74,49,40
27.0,27.365625,73,49,40
27.375,27.740625,73,49,40
27.75,28.115625,74,49,40
28.125,28.490625,73,49,40
29.25,29.615625,57,104,40
30.375,30.740625,59,104,40
31.5,31.68125,61,104,40
31.6875,31.86875,62,104,40
31.875,32.05625,64,104,40
32.0625,32.24375,66,104,40
32.25,32.43125,67,104,40
32.4375,32.61875,64,104,40
32.625,32.990623,66,104,40
33.375,33.55625,61,104,40
33.5625,33.74375,62,104,40
33.75,33.93125,64,104,40
33.9375,34.11875,66,104,40
34.125,34.30625,67,104,40
34.3125,34.49375,69,104,40
34.5,34.68125,71,104,40
34.6875,34.86875,73,104,40
34.875,35.240623,74,104,40
35.25,35.615623,74,104,40
35.625,35.80625,81,104,40
35.8125,35.99375,79,104,40
36.0,36.18125,78,104,40
36.1875,36.36875,76,104,40
36.375,36.55625,74,104,40
36.5625,36.74375,73,104,40
36.75,36.93125,71,104,40
36.9375,37.11875,69,104,40
37.125,37.30625,71,104,40
37.3125,37.49375,69,104,40
37.5,37.68125,67,104,40
37.6875,37.86875,66,104,40
37.875,38.240623,64,104,40
38.25,38.615623,66,104,40
38.625,38.990623,66,104,40
39.0,39.365623,64,104,40
39.375,39.740623,62,104,40
40.875,41.240623,66,104,40
41.25,41.615623,67,104,40
41.625,41.990623,64,104,40
42.0,42.365623,66,104,40
42.375,42.740623,63,104,40
42.75,43.115623,64,104,40
43.125,43.490623,61,104,40
43.5,43.865623,62,104,40
43.875,44.609375,62,104,40
44.625,44.80625,62,104,40
44.8125,44.99375,64,104,40
45.0,45.365623,65,104,40
45.75,46.115623,62,49,40
46.125,46.490623,62,49,40
46.875,47.240623,74,49,40
47.25,47.615623,74,49,40
48.0,48.365623,74,49,40
48.375,48.740623,74,49,40
49.125,49.490623,74,49,40
49.5,49.865623,74,49,40
50.25,50.615623,74,49,40
50.625,50.990623,74,49,40
51.375,51.55625,74,104,40
51.5625,51.74375,73,104,40
51.75,52.115623,71,104,40
52.125,52.490623,67,104,40
52.5,52.865623,64,104,40
52.875,53.609375,66,104,40
53.625,53.80625,67,104,40
53.8125,53.99375,66,104,40
54.0,54.18125,64,104,40
54.1875,54.36875,62,104,40
54.375,54.55625,61,104,40
54.5625,54.74375,59,104,40
54.75,54.93125,57,104,40
54.9375,55.11875,67,104,40
55.125,55.490623,66,104,40
57.0,57.365536,69,104,40
57.375027,57.770138,66,104,40
58.184017,58.237297,68,65,40
58.24549,58.723053,69,54,40
58.73243,59.098053,73,49,40
59.10743,59.429302,76,49,40
59.435555,59.476177,68,49,40
59.48243,59.848053,69,49,40
59.85743,60.223053,71,49,40
60.23243,60.554302,74,49,40
60.560555,60.601177,63,49,40
60.60743,60.973053,64,49,40
60.98243,61.348053,73,49,40
61.35743,61.723053,76,49,40
61.73243,62.098053,73,49,40
62.10743,63.207428,74,49,40
63.23243,64.33243,73,49,40
64.35743,65.091805,73,49,40
65.10743,65.47305,74,49,40
65.48243,65.848145,73,49,40
65.857544,66.22845,73,49,40
66.23809,66.62208,74,49,40
66.63214,67.032875,73,49,40
67.89413,68.25933,57,104,40
69.0187,69.38433,59,104,40
70.1437,70.32495,61,104,40
70.3312,70.51245,62,104,40
70.5187,70.69995,64,104,40
70.7062,70.88745,66,104,40
70.8937,71.07495,67,104,40
71.0812,71.26245,64,104,40
71.2687,71.63433,66,104,40
72.0187,72.19995,61,104,40
72.2062,72.38745,62,104,40
72.3937,72.57495,64,104,40
72.5812,72.76245,66,104,40
72.7687,72.94995,67,104,40
72.9562,73.13745,69,104,40
73.1437,73.32495,71,104,40
73.3312,73.51245,73,104,40
73.5187,73.88433,74,104,40
73.8937,74.25933,74,104,40
74.2687,74.44995,81,104,40
74.4562,74.63745,79,104,40
74.6437,74.82495,78,104,40
74.8312,75.01245,76,104,40
75.0187,75.19995,74,104,40
75.2062,75.38745,73,104,40
75.3937,75.57495,71,104,40
75.5812,75.76245,69,104,40
75.7687,75.94995,71,104,40
75.9562,76.13745,69,104,40
76.1437,76.32495,67,104,40
76.3312,76.51245,66,104,40
76.5187,76.88433,64,104,40
76.8937,77.25933,66,104,40
77.2687,77.63433,66,104,40
77.6437,78.00933,64,104,40
78.0187,78.38433,62,104,40
79.5187,79.88433,66,104,40
79.8937,80.25933,67,104,40
80.2687,80.63433,64,104,40
80.6437,81.00933,66,104,40
81.0187,81.38433,63,104,40
81.3937,81.75933,64,104,40
81.7687,82.13433,61,104,40
82.1437,82.50933,62,104,40
82.5187,83.253075,62,104,40
83.2687,83.44995,62,104,40
83.4562,83.63745,64,104,40
83.6437,84.00933,65,104,40
84.3937,84.75933,62,49,40
84.7687,85.13433,62,49,40
85.5187,85.88433,74,49,40
85.8937,86.25933,74,49,40
86.6437,87.00933,74,49,40
87.0187,87.38433,74,49,40
87.7687,88.13433,74,49,40
88.1437,88.50933,74,49,40
88.8937,89.25933,74,51,40
89.2687,89.63433,74,50,40
90.0187,90.19995,74,104,40
90.2062,90.38745,73,104,40
90.3937,90.75933,71,104,40
90.7687,91.13433,67,104,40
91.1437,91.50933,64,104,40
91.5187,92.253075,66,104,40
92.2687,92.44995,67,104,40
92.4562,92.63745,66,104,40
92.6437,92.82495,64,104,40
92.8312,93.01245,62,104,40
93.0187,93.19995,61,104,40
93.2062,93.38745,59,104,40
93.3937,93.57495,57,104,40
93.5812,93.76245,67,104,40
93.7687,94.13433,66,104,40
95.6437,96.01724,69,104,40
96.02742,96.46111,66,104,40
96.976746,97.158,61,54,40
97.164246,97.3455,62,54,40
97.351746,97.533,64,54,40
97.539246,97.7205,65,54,40
97.726746,97.908,67,54,40
97.914246,98.0955,69,54,40
98.101746,98.283,70,54,40
98.289246,98.4705,68,54,40
98.476746,98.658,69,54,40
98.664246,98.8455,68,54,40
98.851746,99.033,69,54,40
99.039246,99.2205,64,54,40
99.226746,99.408,69,54,40
99.414246,99.5955,66,54,40
99.601746,99.783,67,54,40
99.789246,99.9705,66,54,40
99.976746,100.158,67,54,40
100.164246,100.3455,62,54,40
100.351746,100.533,67,54,40
100.539246,100.7205,64,54,40
100.726746,100.908,65,54,40
100.914246,101.0955,64,54,40
101.101746,101.283,65,54,40
101.289246,101.4705,60,54,40
101.476746,101.658,58,54,40
101.664246,101.8455,60,54,40
101.851746,102.21737,57,54,40
102.601746,102.96737,65,49,40
102.976746,103.71112,64,49,40
103.726746,104.09237,70,49,40
104.101746,104.83612,69,49,40
104.851746,105.21737,72,49,40
105.226746,105.59237,72,49,40
105.601746,105.96737,72,49,40
105.976746,106.34237,72,49,40
106.351746,106.71737,72,49,40
106.726746,107.09237,72,49,40
107.101746,107.46737,72,49,40
107.476746,107.84237,72,49,40
107.851746,108.58612,69,49,40
108.601746,109.701744,65,49,40
109.726746,110.27674,65,49,40
110.289246,110.4705,70,49,40
110.476746,110.658,69,49,40
110.664246,110.8455,67,49,40
110.851746,111.033,65,49,40
111.039246,111.2205,67,49,40
111.226746,111.408,69,49,40
111.414246,111.5955,65,49,40
111.601746,111.783,67,49,40
111.789246,111.9705,64,49,40
111.976746,112.3432,65,49,40
112.77226,112.95847,61,54,40
112.96472,113.14597,62,54,40
113.15222,113.33347,64,54,40
113.33972,113.52097,65,54,40
113.52722,113.70847,67,54,40
113.71472,113.89597,69,54,40
113.90222,114.08347,70,54,40
114.08972,114.27097,68,54,40
114.27722,114.45847,69,54,40
114.46472,114.64597,68,54,40
114.65222,114.83347,69,54,40
114.83972,115.02097,64,54,40
115.02722,115.20847,69,53,40
115.21472,115.39597,66,53,40
115.40222,115.58347,67,53,40
115.58972,115.77097,66,53,40
115.77722,115.95847,67,53,40
115.96472,116.14597,62,53,40
116.15222,116.33347,67,53,40
116.33972,116.52097,64,53,40
116.52722,116.70847,65,53,40
116.71472,116.89597,64,53,40
116.90222,117.08347,65,53,40
117.08972,117.27097,60,53,40
117.27722,117.45847,58,53,40
117.46472,117.64597,60,53,40
117.65222,118.017845,57,53,40
118.40222,118.767845,65,49,40
118.77722,119.5116,64,49,40
119.52722,119.892845,70,49,40
119.90222,120.6366,69,49,40
120.65222,121.017845,72,49,40
121.02722,121.392845,72,49,40
121.40222,121.767845,72,49,40
121.77722,122.142845,72,49,40
122.15222,122.517845,72,49,40
122.52722,122.892845,72,49,40
122.90222,123.267845,72,49,40
123.27722,123.642845,72,49,40
123.65222,124.3866,69,49,40
124.40222,125.50222,65,49,40
125.52722,126.07722,65,49,40
126.08972,126.27097,70,49,40
126.27722,126.45847,69,49,40
126.46472,126.64597,67,49,40
126.65222,126.83347,65,49,40
126.83972,127.02097,67,49,40
127.02722,127.20847,69,49,40
127.21472,127.39597,65,49,40
127.40222,127.58347,67,49,40
127.58972,127.77097,64,49,40
127.77722,128.14284,65,49,40
128.52722,128.70847,79,104,40
128.71472,128.89597,77,104,40
128.90222,129.08347,76,104,40
129.08972,129.27097,74,104,40
129.27722,129.45847,73,104,40
129.46472,129.64597,74,104,40
129.65222,129.83347,76,104,40
129.83972,130.02097,74,104,40
130.02722,130.39284,73,104,40
130.77722,130.95847,79,49,40
130.96472,131.14597,77,49,40
131.15222,131.33347,76,49,40
131.33972,131.52097,74,49,40
131.52722,131.70847,73,49,40
131.71472,131.89597,74,49,40
131.90222,132.08347,76,49,40
132.08972,132.27097,74,49,40
132.27722,132.64284,73,49,40
132.65222,132.83347,61,90,40
132.83972,133.02097,62,49,40
133.02722,133.20847,64,49,40
133.21472,133.39597,65,49,40
133.40222,133.76784,67,49,40
134.15222,134.51784,65,49,40
134.52722,135.2616,64,49,40
135.27722,135.64284,63,49,40
135.65222,136.3866,62,49,40
136.40222,136.76784,61,49,40
136.77722,137.14284,62,49,40
137.15222,137.51784,61,49,40
137.52722,137.89284,62,49,40
137.90222,138.6366,62,49,40
138.65222,139.01784,61,49,40
139.02722,139.391,62,49,40
139.773,139.95311,79,104,40
139.95932,140.13945,77,104,40
140.14566,140.32579,76,104,40
140.332,140.51212,74,104,40
140.51833,140.69846,73,104,40
140.70467,140.8848,74,104,40
140.891,141.07112,76,104,40
141.07733,141.25746,74,104,40
141.26367,141.62703,73,104,40
142.00902,142.18913,79,49,40
142.19534,142.37547,77,49,40
142.38168,142.56181,76,49,40
142.56802,142.74814,74,49,40
142.75436,142.93448,73,49,40
142.94069,143.12082,74,49,40
143.12703,143.30716,76,49,40
143.31337,143.49348,74,49,40
143.4997,143.86305,73,49,40
143.87238,144.05249,61,100,40
144.0587,144.23883,62,49,40
144.24504,144.42517,64,49,40
144.43138,144.6115,65,49,40
144.6177,144.98106,67,49,40
145.36305,145.72641,65,49,40
145.73572,146.46555,64,49,40
146.48106,146.84442,63,49,40
146.85374,147.58356,62,49,40
147.59908,147.96243,61,49,40
147.97176,148.3351,62,49,40
148.34442,148.70778,61,49,40
148.71709,149.08107,62,49,40
149.0905,149.86534,62,49,40
149.88264,150.295,61,49,40
150.30563,150.72052,62,49,40
151.5288,151.89438,57,104,40
152.65375,153.01938,59,104,40
153.77875,153.96,61,104,40
153.96625,154.1475,62,104,40
154.15375,154.335,64,104,40
154.34125,154.5225,66,104,40
154.52875,154.71,67,104,40
154.71625,154.8975,64,104,40
154.90375,155.26938,66,104,40
155.65375,155.835,67,104,40
155.84125,156.0225,66,104,40
156.02875,156.21,64,104,40
156.21625,156.3975,62,104,40
156.40375,156.585,61,104,40
156.59125,156.7725,59,104,40
156.77875,156.96,57,104,40
156.96625,157.1475,67,104,40
157.15375,157.51938,66,104,40
157.52875,157.89438,66,104,40
157.90375,158.26938,75,104,40
158.27875,158.64438,76,104,40
158.65375,159.01938,76,104,40
159.02875,159.39438,64,104,40
159.02875,159.39438,71,104,40
159.40375,159.76938,64,104,40
159.40375,159.76938,73,104,40
160.10687,160.1475,68,49,40
160.15375,160.51938,69,49,40
160.52875,160.89438,73,49,40
160.90375,161.22563,76,49,40
161.23187,161.2725,68,49,40
161.27875,161.64438,69,49,40
161.65375,162.01938,71,49,40
162.02875,162.35063,74,49,40
162.35687,162.3975,63,49,40
162.40375,162.76938,64,49,40
162.77875,163.14438,73,49,40
163.15375,163.51938,76,49,40
163.52875,163.89438,73,49,40
163.90375,165.00375,74,49,40
165.02875,166.12875,73,49,40
166.15375,166.88812,73,49,40
166.90375,167.26938,74,49,40
167.27875,167.64438,73,49,40
167.65375,168.0255,73,49,40
168.03549,168.45366,74,49,40
168.46518,168.95117,73,49,40
169.8754,170.24103,57,104,40
171.0004,171.36603,59,104,40
172.1254,172.30664,61,104,40
172.3129,172.49414,62,104,40
172.5004,172.68164,64,104,40
172.6879,172.86914,66,104,40
172.8754,173.05664,67,104,40
173.0629,173.24414,64,104,40
173.2504,173.61603,66,104,40
174.0004,174.18164,61,104,40
174.1879,174.36914,62,104,40
174.3754,174.55664,64,104,40
174.5629,174.74414,66,104,40
174.7504,174.93164,67,104,40
174.9379,175.11914,69,104,40
175.1254,175.30664,71,104,40
175.3129,175.49414,73,104,40
175.5004,175.86603,74,104,40
175.8754,176.24103,74,104,40
176.2504,176.43164,81,104,40
176.4379,176.61914,79,104,40
176.6254,176.80664,78,104,40
176.8129,176.99414,76,104,40
177.0004,177.18164,74,104,40
177.1879,177.36914,73,104,40
177.3754,177.55664,71,104,40
177.5629,177.74414,69,104,40
177.7504,177.93164,71,104,40
177.9379,178.11914,69,104,40
178.1254,178.30664,67,104,40
178.3129,178.49414,66,104,40
178.5004,178.86603,64,104,40
178.8754,179.24103,66,104,40
179.2504,179.61603,66,104,40
179.6254,179.99103,64,104,40
180.0004,180.36603,62,104,40
181.5004,181.86603,66,104,40
181.8754,182.24103,67,104,40
182.2504,182.61603,64,104,40
182.6254,182.99103,66,104,40
183.0004,183.36603,63,104,40
183.3754,183.74103,64,104,40
183.7504,184.11603,61,104,40
184.1254,184.49103,62,104,40
184.5004,185.23477,62,104,40
185.2504,185.43164,62,104,40
185.4379,185.61914,64,104,40
185.6254,185.99103,65,104,40
186.3754,186.74103,62,49,40
186.7504,187.11603,62,49,40
187.5004,187.86603,74,49,40
187.8754,188.24103,74,49,40
188.6254,188.99103,74,49,40
189.0004,189.36603,74,49,40
189.7504,190.11603,74,49,40
190.1254,190.49103,74,49,40
190.8754,191.24103,74,49,40
191.2504,191.61603,74,49,40
192.0004,192.18164,74,104,40
192.1879,192.36914,73,104,40
192.3754,192.74103,71,104,40
192.7504,193.11603,67,104,40
193.1254,193.49103,64,104,40
193.5004,194.23477,66,104,40
194.2504,194.43164,67,104,40
194.4379,194.61914,66,104,40
194.6254,194.80664,64,104,40
194.8129,194.99414,62,104,40
195.0004,195.18164,61,104,40
195.1879,195.36914,59,104,40
195.3754,195.55664,57,104,40
195.5629,195.74414,67,104,40
195.7504,196.11603,66,104,40
197.67108,198.09337,69,104,40
198.10689,198.64922,66,104,40
2.25,2.615625,54,104,41
3.375,3.740625,55,104,41
4.5,4.865625,55,104,41
4.875,5.240625,55,104,41
5.25,5.615625,55,104,41
5.625,5.990625,54,104,41
6.375,6.55625,64,104,41
6.5625,6.74375,62,104,41
6.75,6.93125,61,104,41
6.9375,7.11875,59,104,41
7.125,7.30625,57,104,41
7.3125,7.49375,55,104,41
7.5,7.68125,54,104,41
7.6875,7.86875,52,104,41
7.875,8.240625,50,104,41
8.25,8.615625,50,104,41
8.625,8.990625,51,127,41
9.0,9.365625,52,104,41
9.375,9.740625,52,104,41
9.75,10.115625,52,104,41
10.125,10.490625,57,104,41
11.25,11.615625,54,104,41
12.375,12.740625,55,104,41
13.5,13.865625,55,104,41
13.875,14.240625,55,104,41
14.25,14.615625,55,104,41
14.625,14.990625,54,104,41
15.375,15.55625,64,104,41
15.5625,15.74375,62,104,41
15.75,15.93125,61,104,41
15.9375,16.11875,59,104,41
16.125,16.30625,57,104,41
16.3125,16.49375,55,104,41
16.5,16.68125,54,104,41
16.6875,16.86875,52,104,41
16.875,17.240625,50,104,41
17.25,17.615625,50,104,41
17.625,17.990625,51,127,41
18.0,18.365625,52,104,41
18.375,18.740625,52,104,41
18.75,19.115625,52,104,41
19.125,19.490625,57,104,41
20.25,20.43125,69,49,41
20.4375,20.61875,64,49,41
20.625,20.80625,62,49,41
20.8125,20.99375,61,49,41
21.0,21.18125,59,49,41
21.1875,21.36875,57,49,41
21.375,21.55625,74,49,41
21.5625,21.74375,71,49,41
21.75,21.93125,69,49,41
21.9375,22.11875,68,49,41
22.125,22.30625,66,49,41
22.3125,22.49375,64,49,41
22.5,22.68125,76,49,41
22.6875,22.86875,73,49,41
22.875,23.05625,71,49,41
23.0625,23.24375,69,49,41
23.25,23.43125,67,49,41
23.4375,23.61875,64,49,41
23.625,23.990625,62,49,41
27.0,27.18125,57,49,41
27.1875,27.36875,69,49,41
27.375,27.55625,68,49,41
27.5625,27.74375,69,49,41
27.75,27.93125,65,49,41
27.9375,28.11875,62,49,41
28.125,28.490625,57,49,41
29.25,29.615625,54,104,41
30.375,30.740625,55,104,41
31.5,31.865625,55,104,41
31.875,32.240623,55,104,41
32.25,32.615623,55,104,41
32.625,32.990623,54,104,41
33.375,33.55625,57,104,41
33.5625,33.74375,59,104,41
33.75,33.93125,61,104,41
33.9375,34.11875,62,104,41
34.125,34.30625,64,104,41
34.3125,34.49375,66,104,41
34.5,34.68125,67,104,41
34.6875,34.86875,69,104,41
34.875,35.240623,71,104,41
35.25,35.615623,71,104,41
35.625,35.80625,78,104,41
35.8125,35.99375,76,104,41
36.0,36.18125,74,104,41
36.1875,36.36875,73,104,41
36.375,36.55625,71,104,41
36.5625,36.74375,69,104,41
36.75,36.93125,67,104,41
36.9375,37.11875,66,104,41
37.125,37.490623,64,104,41
37.875,38.05625,57,104,41
38.0625,38.24375,61,104,41
38.25,38.43125,62,104,41
38.4375,38.61875,64,104,41
38.625,38.80625,66,104,41
38.8125,38.99375,67,104,41
39.0,39.365623,69,104,41
39.375,39.740623,62,104,41
43.875,44.975,59,104,41
45.375,45.740623,62,95,41
46.5,46.865623,62,49,41
47.625,47.990623,62,49,41
48.75,49.115623,62,49,41
49.875,50.240623,62,49,41
51.0,51.365623,62,49,41
52.125,52.490623,59,104,41
52.5,52.865623,55,104,41
52.875,53.609375,57,104,41
53.625,53.80625,64,104,41
53.8125,53.99375,62,104,41
54.0,54.18125,61,104,41
54.1875,54.36875,59,104,41
54.375,54.55625,57,104,41
54.5625,54.74375,55,104,41
54.75,54.93125,54,104,41
54.9375,55.11875,52,104,41
55.125,55.490623,50,104,41
55.875,56.05625,52,104,41
56.0625,56.24375,54,104,41
56.25,56.43125,55,104,41
56.4375,56.61875,57,104,41
56.625,56.80625,59,104,41
56.8125,56.99375,61,104,41
57.0,57.18125,62,104,41
57.1875,57.3687,64,104,41
57.375027,57.770138,66,104,41
58.73243,58.913677,69,54,41
58.91993,59.101177,64,54,41
59.10743,59.288677,62,54,41
59.29493,59.476177,61,54,41
59.48243,59.663677,59,54,41
59.66993,59.851177,57,54,41
59.85743,60.038677,74,54,41
60.04493,60.226177,71,54,41
60.23243,60.413677,69,54,41
60.41993,60.601177,68,54,41
60.60743,60.788677,66,54,41
60.79493,60.976177,64,54,41
60.98243,61.163677,76,54,41
61.16993,61.351177,73,54,41
61.35743,61.538677,71,54,41
61.54493,61.726177,69,54,41
61.73243,61.913677,67,54,41
61.91993,62.101177,64,54,41
62.10743,62.473053,62,54,41
65.48243,65.66368,57,49,41
65.66993,65.85127,69,49,41
65.857544,66.04039,68,49,41
66.04672,66.23166,69,49,41
66.23809,66.426506,65,49,41
66.43307,66.62543,62,49,41
66.63214,67.032875,57,49,41
67.89413,68.25933,54,104,41
69.0187,69.38433,55,104,41
70.1437,70.50933,55,104,41
70.5187,70.88433,55,104,41
70.8937,71.25933,55,104,41
71.2687,71.63433,54,104,41
72.0187,72.19995,57,104,41
72.2062,72.38745,59,104,41
72.3937,72.57495,61,104,41
72.5812,72.76245,62,104,41
72.7687,72.94995,64,104,41
72.9562,73.13745,66,104,41
73.1437,73.32495,67,104,41
73.3312,73.51245,69,104,41
73.5187,73.88433,71,104,41
73.8937,74.25933,71,104,41
74.2687,74.44995,78,104,41
74.4562,74.63745,76,104,41
74.6437,74.82495,74,104,41
74.8312,75.01245,73,104,41
75.0187,75.19995,71,104,41
75.2062,75.38745,69,104,41
75.3937,75.57495,67,104,41
75.5812,75.76245,66,104,41
75.7687,76.13433,64,104,41
76.5187,76.69995,57,104,41
76.7062,76.88745,61,104,41
76.8937,77.07495,62,104,41
77.0812,77.26245,64,104,41
77.2687,77.44995,66,104,41
77.4562,77.63745,67,104,41
77.6437,78.00933,69,104,41
78.0187,78.38433,62,104,41
82.5187,83.618706,59,104,41
84.0187,84.38433,62,49,41
85.1437,85.50933,62,49,41
86.2687,86.63433,62,49,41
87.3937,87.75933,62,49,41
88.5187,88.88433,62,49,41
89.6437,90.00933,62,49,41
90.7687,91.13433,59,104,41
91.1437,91.50933,55,104,41
91.5187,92.253075,57,104,41
92.2687,92.44995,64,104,41
92.4562,92.63745,62,104,41
92.6437,92.82495,61,104,41
92.8312,93.01245,59,104,41
93.0187,93.19995,57,104,41
93.2062,93.38745,55,104,41
93.3937,93.57495,54,104,41
93.5812,93.76245,52,104,41
93.7687,94.13433,50,104,41
94.5187,94.69995,52,104,41
94.7062,94.88745,54,104,41
94.8937,95.07495,55,104,41
95.0812,95.26245,57,104,41
95.2687,95.44995,59,104,41
95.4562,95.63745,61,104,41
95.6437,95.82495,62,104,41
95.831245,96.02062,64,104,41
96.02742,96.46111,66,104,41
98.101746,98.46737,62,49,41
98.476746,99.21112,61,49,41
99.226746,99.59237,60,49,41
99.601746,100.33612,59,49,41
100.351746,100.71737,58,49,41
100.726746,101.46112,57,49,41
101.476746,101.84237,55,49,41
101.851746,102.21737,53,49,41
105.976746,106.158,70,54,41
106.164246,106.3455,67,54,41
106.351746,106.533,69,54,41
106.539246,106.7205,68,54,41
106.726746,106.908,69,54,41
106.914246,107.0955,65,54,41
107.101746,107.283,70,54,41
107.289246,107.4705,67,54,41
107.476746,107.658,69,54,41
107.664246,107.8455,65,54,41
107.851746,108.033,67,54,41
108.039246,108.2205,64,54,41
108.226746,108.408,65,54,41
108.414246,108.5955,62,54,41
108.601746,108.783,63,54,41
108.789246,108.9705,60,54,41
108.976746,109.158,62,54,41
109.164246,109.3455,58,54,41
109.351746,109.533,60,54,41
109.539246,109.7205,57,54,41
109.726746,110.09237,58,54,41
110.851746,111.21737,60,49,41
111.226746,111.59237,60,49,41
111.601746,111.96737,60,49,41
111.976746,112.3432,57,49,41
113.90222,114.267845,62,49,41
114.27722,115.0116,61,49,41
115.02722,115.392845,60,49,41
115.40222,116.1366,59,49,41
116.15222,116.517845,58,49,41
116.52722,117.2616,57,49,41
117.27722,117.642845,55,49,41
117.65222,118.017845,53,49,41
121.77722,121.95847,70,49,41
121.96472,122.14597,67,49,41
122.15222,122.33347,69,49,41
122.33972,122.52097,68,49,41
122.52722,122.70847,69,49,41
122.71472,122.89597,65,49,41
122.90222,123.08347,70,49,41
123.08972,123.27097,67,49,41
123.27722,123.45847,69,49,41
123.46472,123.64597,65,49,41
123.65222,123.83347,67,49,41
123.83972,124.02097,64,49,41
124.02722,124.20847,65,49,41
124.21472,124.39597,62,49,41
124.40222,124.58347,63,49,41
124.58972,124.77097,60,49,41
124.77722,124.95847,62,49,41
124.96472,125.14597,58,49,41
125.15222,125.33347,60,49,41
125.33972,125.52097,57,49,41
125.52722,125.892845,58,49,41
126.65222,127.017845,60,49,41
127.02722,127.392845,60,49,41
127.40222,127.767845,60,49,41
127.77722,128.14284,57,49,41
128.52722,128.70847,61,104,41
128.71472,128.89597,62,104,41
128.90222,129.08347,64,104,41
129.08972,129.27097,65,104,41
129.27722,129.45847,67,104,41
129.46472,129.64597,69,104,41
129.65222,129.83347,70,104,41
129.83972,130.02097,68,104,41
130.02722,130.20847,69,104,41
130.21472,130.39597,68,104,41
130.40222,130.58347,69,104,41
130.58972,130.77097,57,95,41
130.77722,130.95847,61,49,41
130.96472,131.14597,62,49,41
131.15222,131.33347,64,49,41
131.33972,131.52097,65,49,41
131.52722,131.70847,67,49,41
131.71472,131.89597,69,49,41
131.90222,132.08347,70,49,41
132.08972,132.27097,68,49,41
132.27722,132.45847,69,49,41
132.46472,132.64597,68,49,41
132.65222,132.83347,69,49,41
132.83972,133.02097,57,49,41
135.27722,135.64284,69,49,41
135.65222,136.01784,69,49,41
136.02722,136.39284,67,49,41
136.40222,136.76784,67,49,41
136.77722,137.14284,65,49,41
137.15222,137.51784,57,49,41
137.52722,137.89284,58,49,41
137.90222,138.6366,58,49,41
138.65222,139.01784,57,49,41
139.02722,139.391,57,49,41
139.773,139.95311,61,104,41
139.95932,140.13945,62,104,41
140.14566,140.32579,64,104,41
140.332,140.51212,65,104,41
140.51833,140.69846,67,104,41
140.70467,140.8848,69,104,41
140.891,141.07112,70,104,41
141.07733,141.25746,68,104,41
141.26367,141.4438,69,104,41
141.45001,141.63013,68,104,41
141.63634,141.81647,69,104,41
141.82268,142.0028,57,104,41
142.00902,142.18913,61,49,41
142.19534,142.37547,62,49,41
142.38168,142.56181,64,49,41
142.56802,142.74814,65,49,41
142.75436,142.93448,67,49,41
142.94069,143.12082,69,49,41
143.12703,143.30716,70,49,41
143.31337,143.49348,68,49,41
143.4997,143.67982,69,49,41
143.68604,143.86617,68,49,41
143.87238,144.05249,69,49,41
144.0587,144.23883,57,49,41
146.48106,146.84442,69,49,41
146.85374,147.21709,69,49,41
147.22641,147.58977,67,49,41
147.59908,147.96243,67,49,41
147.97176,148.3351,65,49,41
148.34442,148.70778,57,49,41
148.71709,149.08107,58,49,41
149.0905,149.86534,58,49,41
149.88264,150.295,57,49,41
150.30563,150.72052,57,49,41
151.5288,151.89438,54,104,41
152.65375,153.01938,55,104,41
153.77875,154.14438,55,104,41
154.15375,154.51938,55,104,41
154.52875,154.89438,55,104,41
154.90375,155.26938,54,104,41
155.65375,155.835,64,104,41
155.84125,156.0225,62,104,41
156.02875,156.21,61,104,41
156.21625,156.3975,59,104,41
156.40375,156.585,57,104,41
156.59125,156.7725,55,104,41
156.77875,156.96,54,104,41
156.96625,157.1475,52,104,41
157.15375,157.51938,50,104,41
157.52875,157.89438,50,104,41
157.90375,158.26938,51,104,41
158.27875,158.64438,52,104,41
158.65375,159.01938,52,104,41
159.02875,159.39438,52,104,41
159.40375,159.76938,57,104,41
160.52875,160.71,69,49,41
160.71625,160.8975,64,49,41
160.90375,161.085,62,49,41
161.09125,161.2725,61,49,41
161.27875,161.46,59,49,41
161.46625,161.6475,57,49,41
161.65375,161.835,74,49,41
161.84125,162.0225,71,49,41
162.02875,162.21,69,49,41
162.21625,162.3975,68,49,41
162.40375,162.585,66,49,41
162.59125,162.7725,64,49,41
162.77875,162.96,76,49,41
162.96625,163.1475,73,49,41
163.15375,163.335,71,49,41
163.34125,163.5225,69,49,41
163.52875,163.71,67,49,41
163.71625,163.8975,64,49,41
163.90375,164.26938,62,49,41
167.27875,167.46,57,49,41
167.46625,167.6475,69,49,41
167.65375,167.835,68,49,41
167.84125,168.02882,69,49,41
168.03549,168.23569,65,49,41
168.24283,168.45747,62,49,41
168.46518,168.95117,57,49,41
169.8754,170.24103,54,104,41
171.0004,171.36603,55,104,41
172.1254,172.49103,55,104,41
172.5004,172.86603,55,104,41
172.8754,173.24103,55,104,41
173.2504,173.61603,54,104,41
174.0004,174.18164,57,104,41
174.1879,174.36914,59,104,41
174.3754,174.55664,61,104,41
174.5629,174.74414,62,104,41
174.7504,174.93164,64,104,41
174.9379,175.11914,66,104,41
175.1254,175.30664,67,104,41
175.3129,175.49414,69,104,41
175.5004,175.86603,71,104,41
175.8754,176.24103,71,104,41
176.2504,176.43164,78,104,41
176.4379,176.61914,76,104,41
176.6254,176.80664,74,104,41
176.8129,176.99414,73,104,41
177.0004,177.18164,71,104,41
177.1879,177.36914,69,104,41
177.3754,177.55664,67,104,41
177.5629,177.74414,66,104,41
177.7504,178.11603,64,104,41
178.5004,178.68164,57,104,41
178.6879,178.86914,61,104,41
178.8754,179.05664,62,104,41
179.0629,179.24414,64,104,41
179.2504,179.43164,66,104,41
179.4379,179.61914,67,104,41
179.6254,179.99103,69,104,41
180.0004,180.36603,62,104,41
184.5004,185.6004,59,104,41
186.0004,186.36603,62,104,41
187.1254,187.49103,62,49,41
188.2504,188.61603,62,49,41
189.3754,189.74103,62,49,41
190.5004,190.86603,62,49,41
191.6254,191.99103,62,49,41
192.7504,193.11603,59,104,41
193.1254,193.49103,55,104,41
193.5004,194.23477,57,104,41
194.2504,194.43164,64,104,41
194.4379,194.61914,62,104,41
194.6254,194.80664,61,104,41
194.8129,194.99414,59,104,41
195.0004,195.18164,57,104,41
195.1879,195.36914,55,104,41
195.3754,195.55664,54,104,41
195.5629,195.74414,52,104,41
195.7504,196.11603,50,104,41
196.5004,196.68164,52,104,41
196.6879,196.86935,54,104,41
196.87563,197.06042,55,104,41
197.0669,197.25665,57,104,41
197.26329,197.45782,59,104,41
197.46461,197.66411,61,104,41
197.67108,197.87592,62,104,41
197.88303,198.09787,64,104,41
198.10689,198.64922,66,104,41
2.25,2.615625,50,104,42
3.375,3.740625,50,104,42
4.5,4.865625,50,104,42
4.875,5.240625,50,104,42
5.25,5.615625,50,104,42
5.625,5.990625,50,104,42
6.75,7.85,45,104,42
7.875,8.240625,38,104,42
8.25,8.615625,38,104,42
8.625,8.990625,39,127,42
9.0,9.365625,40,104,42
9.375,9.740625,40,104,42
9.75,10.115625,40,104,42
10.125,10.490625,45,104,42
11.25,11.615625,50,104,42
12.375,12.740625,50,104,42
13.5,13.865625,50,104,42
13.875,14.240625,50,104,42
14.25,14.615625,50,104,42
14.625,14.990625,50,104,42
15.75,16.85,45,104,42
16.875,17.240625,38,104,42
17.25,17.615625,38,104,42
17.625,17.990625,39,127,42
18.0,18.365625,40,104,42
18.375,18.740625,40,104,42
18.75,19.115625,40,104,42
19.125,19.490625,45,104,42
20.25,23.234375,45,49,42
23.25,23.615625,45,49,42
23.625,23.990625,46,49,42
24.0,24.365625,50,49,42
24.375,24.740625,41,49,42
24.75,25.115625,43,49,42
25.125,25.490625,46,49,42
25.5,25.865625,44,49,42
25.875,26.05625,45,49,42
26.0625,26.24375,57,49,42
26.25,26.43125,56,49,42
26.4375,26.61875,57,49,42
26.625,26.80625,53,49,42
26.8125,26.99375,50,49,42
27.0,27.365625,45,49,42
29.25,29.615625,50,104,42
30.375,30.740625,50,104,42
31.5,31.865625,50,104,42
31.875,32.240623,50,104,42
32.25,32.615623,50,104,42
32.625,32.990623,50,104,42
36.75,36.93125,52,104,42
36.9375,37.11875,54,104,42
37.125,37.30625,55,104,42
37.3125,37.49375,54,104,42
37.5,37.68125,52,104,42
37.6875,37.86875,50,104,42
37.875,38.05625,49,104,42
38.0625,38.24375,45,104,42
38.25,38.43125,50,104,42
38.4375,38.61875,52,104,42
38.625,38.80625,54,104,42
38.8125,38.99375,55,104,42
39.0,39.365623,57,104,42
39.375,39.740623,50,104,42
43.875,44.975,55,104,42
45.0,45.365623,56,104,42
45.75,46.115623,56,49,42
46.125,46.490623,57,49,42
46.875,47.240623,57,49,42
47.25,47.615623,58,49,42
48.0,48.365623,58,49,42
48.375,48.740623,59,49,42
49.125,49.490623,57,49,42
49.5,49.865623,55,49,42
50.25,50.615623,57,49,42
50.625,50.990623,59,49,42
51.375,51.740623,57,104,42
51.75,52.85,55,104,42
52.875,53.975,57,104,42
54.0,55.1,45,104,42
55.125,55.490623,38,104,42
55.875,56.05625,37,104,42
56.0625,56.24375,38,104,42
56.25,56.43125,40,104,42
56.4375,56.61875,42,104,42
56.625,56.80625,43,104,42
56.8125,56.99375,45,104,42
57.0,57.18125,47,104,42
57.1875,57.3687,49,104,42
57.375027,57.770138,50,104,42
58.73243,61.716805,45,49,42
61.73243,62.098053,45,49,42
62.10743,62.473053,46,49,42
62.48243,62.848053,50,49,42
62.85743,63.223053,41,49,42
63.23243,63.598053,43,49,42
63.60743,63.973053,46,49,42
63.98243,64.34805,44,49,42
64.35743,64.53868,45,49,42
64.54493,64.72618,57,49,42
64.73243,64.91368,56,49,42
64.91993,65.10118,57,49,42
65.10743,65.28868,53,49,42
65.29493,65.47618,50,49,42
65.48243,65.848145,45,49,42
67.89413,68.25933,50,104,42
69.0187,69.38433,50,104,42
70.1437,70.50933,50,104,42
70.5187,70.88433,50,104,42
70.8937,71.25933,50,104,42
71.2687,71.63433,50,104,42
75.3937,75.57495,52,104,42
75.5812,75.76245,54,104,42
75.7687,75.94995,55,104,42
75.9562,76.13745,54,104,42
76.1437,76.32495,52,104,42
76.3312,76.51245,50,104,42
76.5187,76.69995,49,104,42
76.7062,76.88745,45,104,42
76.8937,77.07495,50,104,42
77.0812,77.26245,52,104,42
77.2687,77.44995,54,104,42
77.4562,77.63745,55,104,42
77.6437,78.00933,57,104,42
78.0187,78.38433,50,104,42
82.5187,83.618706,55,104,42
83.6437,84.00933,56,104,42
84.3937,84.75933,56,49,42
84.7687,85.13433,57,49,42
85.5187,85.88433,57,49,42
85.8937,86.25933,58,49,42
86.6437,87.00933,58,49,42
87.0187,87.38433,59,49,42
87.7687,88.13433,57,49,42
88.1437,88.50933,55,49,42
88.8937,89.25933,57,49,42
89.2687,89.63433,59,49,42
90.0187,90.38433,57,104,42
90.3937,91.493706,55,104,42
91.5187,92.618706,57,104,42
92.6437,93.743706,45,104,42
93.7687,94.13433,38,104,42
94.5187,94.69995,37,104,42
94.7062,94.88745,38,104,42
94.8937,95.07495,40,104,42
95.0812,95.26245,42,104,42
95.2687,95.44995,43,104,42
95.4562,95.63745,45,104,42
95.6437,95.82495,47,104,42
95.831245,96.02062,49,104,42
96.02742,96.46111,50,104,42
104.851746,105.033,52,53,42
105.039246,105.2205,60,53,42
105.226746,105.408,53,53,42
105.414246,105.5955,52,53,42
105.601746,105.783,53,53,42
105.789246,105.9705,60,53,42
105.976746,106.158,52,53,42
106.164246,106.3455,60,53,42
106.351746,106.533,53,53,42
106.539246,106.7205,52,53,42
106.726746,106.908,53,53,42
106.914246,107.0955,60,53,42
107.101746,107.283,52,53,42
107.289246,107.4705,60,53,42
107.476746,107.658,53,53,42
107.664246,107.8455,57,53,42
107.851746,108.033,49,53,42
108.039246,108.2205,57,53,42
108.226746,108.408,50,53,42
108.414246,108.5955,53,53,42
108.601746,108.783,45,53,42
108.789246,108.9705,53,53,42
108.976746,109.158,46,53,42
109.164246,109.3455,53,53,42
109.351746,109.533,48,53,42
109.539246,109.7205,51,53,42
109.726746,110.09237,50,53,42
110.476746,110.84237,46,49,42
110.851746,111.58612,48,49,42
111.601746,111.96737,48,49,42
111.976746,112.3432,41,49,42
112.35269,112.75551,53,49,42
120.65222,120.83347,52,49,42
120.83972,121.02097,60,49,42
121.02722,121.20847,53,49,42
121.21472,121.39597,52,49,42
121.40222,121.58347,53,49,42
121.58972,121.77097,60,49,42
121.77722,121.95847,52,49,42
121.96472,122.14597,60,49,42
122.15222,122.33347,53,49,42
122.33972,122.52097,52,49,42
122.52722,122.70847,53,49,42
122.71472,122.89597,60,49,42
122.90222,123.08347,52,49,42
123.08972,123.27097,60,49,42
123.27722,123.45847,53,49,42
123.46472,123.64597,57,49,42
123.65222,123.83347,49,49,42
123.83972,124.02097,57,49,42
124.02722,124.20847,50,49,42
124.21472,124.39597,53,49,42
124.40222,124.58347,45,49,42
124.58972,124.77097,53,49,42
124.77722,124.95847,46,49,42
124.96472,125.14597,53,49,42
125.15222,125.33347,48,49,42
125.33972,125.52097,51,49,42
125.52722,125.892845,50,49,42
126.27722,126.642845,46,49,42
126.65222,127.3866,48,49,42
127.40222,127.767845,48,49,42
127.77722,128.14284,41,49,42
128.15222,128.51784,53,49,42
133.02722,133.20847,49,90,42
133.21472,133.39597,50,49,42
133.40222,133.58347,52,49,42
133.58972,133.77097,53,49,42
133.77722,133.95847,55,49,42
133.96472,134.14597,57,49,42
134.15222,134.33347,58,49,42
134.33972,134.52097,56,49,42
134.52722,134.70847,57,49,42
134.71472,134.89597,56,49,42
134.90222,135.08347,57,49,42
135.08972,135.27097,52,49,42
135.27722,135.45847,57,49,42
135.46472,135.64597,54,49,42
135.65222,135.83347,55,49,42
135.83972,136.02097,54,49,42
136.02722,136.20847,55,49,42
136.21472,136.39597,50,49,42
136.40222,136.58347,55,49,42
136.58972,136.77097,52,49,42
136.77722,136.95847,53,49,42
136.96472,137.14597,45,49,42
137.15222,137.33347,52,49,42
137.33972,137.52097,45,49,42
137.52722,137.70847,46,49,42
137.71472,137.89597,41,49,42
137.90222,138.08347,43,49,42
138.08972,138.27097,41,49,42
138.27722,138.45847,43,49,42
138.46472,138.64597,40,49,42
138.65222,138.83347,45,49,42
138.83972,139.02097,45,49,42
139.02722,139.391,38,49,42
144.24504,144.42517,49,90,42
144.43138,144.6115,50,49,42
144.6177,144.79784,52,49,42
144.80405,144.98418,53,49,42
144.99039,145.1705,55,49,42
145.17671,145.35684,57,49,42
145.36305,145.54318,58,49,42
145.5494,145.7295,56,49,42
145.73572,145.91585,57,49,42
145.92206,146.10219,56,49,42
146.1084,146.28851,57,49,42
146.29472,146.47485,52,49,42
146.48106,146.6612,57,49,42
146.6674,146.84752,54,49,42
146.85374,147.03386,55,49,42
147.04007,147.2202,54,49,42
147.22641,147.40654,55,49,42
147.41275,147.59286,50,49,42
147.59908,147.7792,55,49,42
147.78542,147.96555,52,49,42
147.97176,148.15187,53,49,42
148.15808,148.33821,45,49,42
148.34442,148.52455,52,49,42
148.53076,148.71088,45,49,42
148.71709,148.89722,46,49,42
148.90343,149.08421,41,49,42
149.0905,149.27522,43,49,42
149.28166,149.47066,41,49,42
149.47725,149.67076,43,49,42
149.67752,149.87573,40,49,42
149.88264,150.08577,45,49,42
150.09286,150.29854,45,49,42
150.30563,150.72052,38,49,42
151.5288,151.89438,50,104,42
152.65375,153.01938,50,104,42
153.77875,154.14438,50,104,42
154.15375,154.51938,50,104,42
154.52875,154.89438,50,104,42
154.90375,155.26938,50,104,42
156.02875,157.12875,45,104,42
157.15375,157.51938,38,104,42
157.52875,157.89438,38,104,42
157.90375,158.26938,39,104,42
158.27875,158.64438,40,104,42
158.65375,159.01938,40,104,42
159.02875,159.39438,40,104,42
159.40375,159.76938,45,104,42
160.52875,163.51312,45,49,42
163.52875,163.89438,45,49,42
163.90375,164.26938,46,49,42
164.27875,164.64438,50,49,42
164.65375,165.01938,41,49,42
165.02875,165.39438,43,49,42
165.40375,165.76938,46,49,42
165.77875,166.14438,44,49,42
166.15375,166.335,45,49,42
166.34125,166.5225,57,49,42
166.52875,166.71,56,49,42
166.71625,166.8975,57,49,42
166.90375,167.085,53,49,42
167.09125,167.2725,50,49,42
167.27875,167.64438,45,49,42
169.8754,170.24103,50,104,42
171.0004,171.36603,50,104,42
172.1254,172.49103,50,104,42
172.5004,172.86603,50,104,42
172.8754,173.24103,50,104,42
173.2504,173.61603,50,104,42
177.3754,177.55664,52,104,42
177.5629,177.74414,54,104,42
177.7504,177.93164,55,104,42
177.9379,178.11914,54,104,42
178.1254,178.30664,52,104,42
178.3129,178.49414,50,104,42
178.5004,178.68164,49,104,42
178.6879,178.86914,45,104,42
178.8754,179.05664,50,104,42
179.0629,179.24414,52,104,42
179.2504,179.43164,54,104,42
179.4379,179.61914,55,104,42
179.6254,179.99103,57,104,42
180.0004,180.36603,50,104,42
184.5004,185.6004,55,104,42
185.6254,185.99103,56,104,42
186.3754,186.74103,56,49,42
186.7504,187.11603,57,49,42
187.5004,187.86603,57,49,42
187.8754,188.24103,58,49,42
188.6254,188.99103,58,49,42
189.0004,189.36603,59,49,42
189.7504,190.11603,57,49,42
190.1254,190.49103,55,49,42
190.8754,191.24103,57,49,42
191.2504,191.61603,59,49,42
192.0004,192.36603,57,104,42
192.3754,193.4754,55,104,42
193.5004,194.6004,57,104,42
194.6254,195.7254,45,104,42
195.7504,196.11603,38,104,42
196.5004,196.68164,37,104,42
196.6879,196.86935,38,104,42
196.87563,197.06042,40,104,42
197.0669,197.25665,42,104,42
197.26329,197.45782,43,104,42
197.46461,197.66411,45,104,42
197.67108,197.87592,47,104,42
197.88303,198.09787,49,104,42
198.10689,198.64922,50,104,42
