start_time,end_time,note_value,velocity,instrument_program_number
0.00078125,0.28203124,67,60,0
0.28125,0.328125,71,48,0
0.328125,0.375,69,48,0
0.375,0.5625,67,56,0
0.9375,1.125,62,53,0
1.125,1.3125,67,53,0
1.3125,1.5,71,53,0
1.5,1.5920244,71,57,0
1.5920244,1.684049,69,54,0
1.684049,1.7760735,67,54,0
1.7760735,1.868098,69,54,0
1.868098,2.052147,67,57,0
2.052147,2.2307186,74,54,0
2.2307186,2.3200042,74,54,0
2.40929,2.4985757,74,54,0
2.5878615,2.6771472,74,54,0
2.766433,2.8536422,74,54,0
2.9408514,3.2095082,74,57,0
3.2095082,3.2542844,76,47,0
3.2542844,3.2990606,74,47,0
3.2990606,3.478165,72,52,0
3.478165,3.6572695,71,50,0
3.6572695,3.841885,69,52,0
3.841885,4.203331,81,68,0
4.203331,4.384054,79,65,0
4.384054,4.473606,79,63,0
4.473606,4.5631585,78,54,0
4.5631585,4.652711,76,54,0
4.652711,4.742263,74,54,0
4.742263,4.925749,74,54,0
4.925749,5.1048536,74,56,0
5.1048536,5.1944056,74,54,0
5.1944056,5.283958,76,52,0
5.283958,5.3735104,72,54,0
5.3735104,5.4630623,74,52,0
5.4630623,5.5526147,71,54,0
5.5526147,5.642167,72,51,0
5.642167,5.731719,69,54,0
5.731719,5.8212714,71,52,0
5.822053,6.103303,67,60,0
6.1025214,6.1493964,71,46,0
6.1493964,6.1962714,69,47,0
6.1962714,6.3837714,67,56,0
6.7587714,6.9428205,62,53,0
6.9428205,7.1268697,67,53,0
7.1268697,7.3109183,71,53,0
7.3109183,7.402943,71,57,0
7.402943,7.4949675,69,54,0
7.4949675,7.586992,67,54,0
7.586992,7.6790166,69,54,0
7.6790166,7.8630657,67,57,0
7.8630657,8.041637,76,54,0
8.041637,8.130922,76,54,0
8.220208,8.309494,76,54,0
8.39878,8.488066,76,54,0
8.577352,8.66456,76,54,0
8.75177,9.019628,76,57,0
9.019628,9.06427,79,50,0
9.06427,9.108913,81,52,0
9.108913,9.37677,83,60,0
9.37677,9.420375,79,49,0
9.420375,9.46398,76,49,0
9.46398,9.827616,74,60,0
9.827616,9.887317,73,52,0
9.887317,9.947019,74,43,0
9.947019,10.00672,73,48,0
10.00672,10.0514965,74,43,0
10.0514965,10.096272,73,48,0
10.096272,10.141048,74,42,0
10.141048,10.185824,73,47,0
10.185824,10.275376,74,52,0
10.275376,10.364929,76,49,0
10.364929,10.454481,78,50,0
10.454481,10.544033,79,51,0
10.544033,10.633586,81,51,0
10.633586,10.723138,78,51,0
10.723138,10.81269,76,50,0
10.81269,10.902243,74,50,0
10.902243,10.991795,73,53,0
10.991795,11.081347,74,48,0
11.081347,11.170899,76,49,0
11.170899,11.260451,78,49,0
11.260451,11.350004,79,49,0
11.350004,11.439556,76,49,0
11.439556,11.529108,74,48,0
11.529108,11.618661,73,48,0
11.618661,11.708213,74,52,0
11.708213,11.797765,76,47,0
11.797765,11.887318,78,48,0
11.887318,11.97687,79,49,0
11.97687,12.0664215,81,50,0
12.0664215,12.155974,78,49,0
12.155974,12.245526,76,48,0
12.245526,12.335078,74,47,0
12.335078,12.424631,73,53,0
12.424631,12.514183,74,47,0
12.514183,12.603735,76,47,0
12.603735,12.693288,78,48,0
12.693288,12.78284,79,49,0
12.78284,12.872392,76,49,0
12.872392,12.961945,74,48,0
12.961945,13.0514965,73,48,0
13.0514965,13.385892,74,58,0
13.385892,13.433662,85,77,0
13.433662,13.815828,86,87,0
14.580942,14.862192,67,60,0
14.86141,14.908285,71,48,0
14.908285,14.95516,69,48,0
14.95516,15.14266,67,56,0
15.51766,15.70516,62,53,0
15.70516,15.89266,67,53,0
15.89266,16.08016,71,53,0
16.08016,16.172186,71,57,0
16.172186,16.26421,69,54,0
16.26421,16.356234,67,54,0
16.356234,16.44826,69,54,0
16.44826,16.632307,67,57,0
16.632307,16.810879,74,54,0
16.810879,16.900166,74,54,0
16.98945,17.078735,74,54,0
17.168022,17.257307,74,54,0
17.346594,17.433804,74,54,0
17.521011,17.789669,74,57,0
17.789669,17.834444,76,47,0
17.834444,17.879221,74,47,0
17.879221,18.058325,72,52,0
18.058325,18.23743,71,50,0
18.23743,18.422045,69,52,0
18.422045,18.783491,81,68,0
18.783491,18.964214,79,65,0
18.964214,19.053766,79,63,0
19.053766,19.143318,78,54,0
19.143318,19.232872,76,54,0
19.232872,19.322424,74,54,0
19.322424,19.505909,74,54,0
19.505909,19.685015,74,56,0
19.685015,19.774567,74,54,0
19.774567,19.864119,76,52,0
19.864119,19.95367,72,54,0
19.95367,20.043222,74,52,0
20.043222,20.132774,71,54,0
20.132774,20.222328,72,51,0
20.222328,20.31188,69,54,0
20.31188,20.401432,71,52,0
20.402214,20.683464,67,60,0
20.682682,20.729557,71,46,0
20.729557,20.776432,69,47,0
20.776432,20.963932,67,56,0
21.338932,21.522982,62,53,0
21.522982,21.70703,67,53,0
21.70703,21.891079,71,53,0
21.891079,21.983103,71,57,0
21.983103,22.075129,69,54,0
22.075129,22.167152,67,54,0
22.167152,22.259176,69,54,0
22.259176,22.443226,67,57,0
22.443226,22.621798,76,54,0
22.621798,22.711082,76,54,0
22.80037,22.889654,76,54,0
22.978941,23.068226,76,54,0
23.157513,23.24472,76,54,0
23.33193,23.599789,76,57,0
23.599789,23.64443,79,50,0
23.64443,23.689074,81,52,0
23.689074,23.95693,83,60,0
23.95693,24.000536,79,49,0
24.000536,24.04414,76,49,0
24.04414,24.407776,74,60,0
24.407776,24.467478,73,52,0
24.467478,24.52718,74,43,0
24.52718,24.58688,73,48,0
24.58688,24.631657,74,43,0
24.631657,24.676434,73,48,0
24.676434,24.721209,74,42,0
24.721209,24.765985,73,47,0
24.765985,24.855537,74,54,0
24.855537,24.94509,76,49,0
24.94509,25.034641,78,50,0
25.034641,25.124193,79,51,0
25.124193,25.213747,81,51,0
25.213747,25.303299,78,51,0
25.303299,25.39285,76,50,0
25.39285,25.482403,74,50,0
25.482403,25.571955,73,53,0
25.571955,25.661507,74,48,0
25.661507,25.75106,76,49,0
25.75106,25.840612,78,49,0
25.840612,25.930164,79,49,0
25.930164,26.019716,76,49,0
26.019716,26.109268,74,48,0
26.109268,26.19882,73,48,0
26.19882,26.288374,74,52,0
26.288374,26.377926,76,47,0
26.377926,26.467478,78,48,0
26.467478,26.55703,79,49,0
26.55703,26.646582,81,50,0
26.646582,26.736134,78,49,0
26.736134,26.825687,76,48,0
26.825687,26.91524,74,47,0
26.91524,27.004791,73,53,0
27.004791,27.094343,74,47,0
27.094343,27.183895,76,47,0
27.183895,27.273449,78,48,0
27.273449,27.363,79,49,0
27.363,27.452553,76,49,0
27.452553,27.542105,74,48,0
27.542105,27.631657,73,48,0
27.631657,27.966053,74,58,0
27.966053,28.013823,85,77,0
28.013823,28.395988,86,87,0
29.16032,29.431406,77,53,0
29.431406,29.476585,74,45,0
29.476585,29.521767,75,45,0
29.521767,29.70249,77,54,0
30.105192,30.295067,69,50,0
30.295067,30.48494,69,50,0
30.48494,30.674812,69,50,0
30.674812,30.945898,70,53,0
30.945898,30.991077,70,45,0
30.991077,31.036259,72,45,0
31.036259,31.216982,74,54,0
31.619684,31.81261,66,50,0
31.81261,32.005535,66,50,0
32.005535,32.198463,66,50,0
32.198463,32.469547,67,57,0
32.469547,32.51473,67,45,0
32.51473,32.55991,69,45,0
32.55991,32.74063,70,57,0
33.143333,33.343334,61,55,0
33.343334,33.543335,61,57,0
33.543335,33.743336,61,60,0
33.743336,34.01442,62,68,0
34.01442,34.0596,54,51,0
34.0596,34.10478,55,51,0
34.10478,34.31026,57,75,0
34.31026,34.521526,54,68,0
34.521526,34.94406,50,68,0
35.36738,35.64863,67,60,0
35.647846,35.69472,71,46,0
35.69472,35.741596,69,47,0
35.741596,35.929096,67,56,0
36.304096,36.488148,62,53,0
36.488148,36.672195,67,53,0
36.672195,36.856243,71,53,0
36.856243,36.94827,71,57,0
36.94827,37.040295,69,54,0
37.040295,37.132317,67,54,0
37.132317,37.224342,69,54,0
37.224342,37.40839,67,57,0
37.40839,37.58857,76,54,0
37.58857,37.67866,76,54,0
37.76875,37.85884,76,54,0
37.948933,38.03902,76,54,0
38.129112,38.21787,76,54,0
38.306625,38.581856,76,57,0
38.581856,38.625973,81,52,0
38.625973,38.67009,83,52,0
38.67009,38.853016,84,50,0
38.853016,39.037647,76,54,0
39.037647,39.130817,74,54,0
39.223984,39.31715,74,54,0
39.41032,39.503487,74,54,0
39.596657,39.689823,74,54,0
39.78299,40.056545,74,57,0
40.056545,40.100796,79,49,0
40.100796,40.145042,81,48,0
40.145042,40.326313,83,45,0
41.8671,41.914417,83,39,0
41.914417,41.961735,81,39,0
41.961735,42.056374,79,47,0
42.245647,42.292965,79,39,0
42.292965,42.340282,78,39,0
42.340282,42.43492,76,50,0
42.624195,42.671516,76,38,0
42.671516,42.718834,74,38,0
42.718834,42.908108,72,50,0
43.381294,43.42861,75,51,0
43.42861,43.475933,74,51,0
43.475933,43.667015,72,59,0
43.667015,43.858097,72,55,0
43.858097,44.04918,72,55,0
44.04918,44.240265,72,55,0
44.240265,44.51299,72,58,0
44.51299,44.556595,74,46,0
44.556595,44.6002,72,46,0
44.6002,44.782017,71,56,0
44.782017,44.963837,71,57,0
44.963837,45.150753,69,60,0
45.150753,45.34123,76,56,0
45.34123,45.531704,74,56,0
45.531704,45.72218,66,56,0
45.72218,45.811733,67,54,0
45.811733,45.901283,69,49,0
45.901283,45.990837,71,50,0
45.990837,46.080387,72,51,0
46.080387,46.16994,74,51,0
46.16994,46.259495,71,51,0
46.259495,46.349045,69,50,0
46.349045,46.4386,67,50,0
46.4386,46.52815,66,53,0
46.52815,46.617702,67,48,0
46.617702,46.707253,69,49,0
46.707253,46.796806,71,49,0
46.796806,46.88636,72,49,0
46.88636,46.97591,69,49,0
46.97591,47.065464,67,48,0
47.065464,47.155014,66,48,0
47.155014,47.244568,67,52,0
47.244568,47.33412,69,47,0
47.33412,47.42367,71,48,0
47.42367,47.513226,72,49,0
47.513226,47.602776,74,50,0
47.602776,47.69233,71,49,0
47.69233,47.78188,69,48,0
47.78188,47.871433,67,47,0
47.871433,47.960987,66,53,0
47.960987,48.050537,67,47,0
48.050537,48.14009,69,47,0
48.14009,48.22964,71,48,0
48.22964,48.319195,72,49,0
48.319195,48.40875,69,49,0
48.40875,48.4983,67,48,0
48.4983,48.587852,66,48,0
48.587852,48.922245,67,58,0
48.922245,48.970016,78,65,0
48.970016,49.352184,79,76,0
50.116516,50.3876,77,53,0
50.3876,50.43278,74,45,0
50.43278,50.477962,75,45,0
50.477962,50.658684,77,54,0
51.061386,51.25126,69,50,0
51.25126,51.441135,69,50,0
51.441135,51.63101,69,50,0
51.63101,51.902092,70,53,0
51.902092,51.947273,70,45,0
51.947273,51.992455,72,45,0
51.992455,52.173176,74,54,0
52.57588,52.768806,66,50,0
52.768806,52.96173,66,50,0
52.96173,53.154655,66,50,0
53.154655,53.425743,67,57,0
53.425743,53.47092,67,45,0
53.47092,53.5161,69,45,0
53.5161,53.696827,70,57,0
54.09953,54.29953,61,54,0
54.29953,54.499527,61,57,0
54.499527,54.699528,61,60,0
54.699528,54.97061,62,68,0
54.97061,55.015793,54,51,0
55.015793,55.060974,55,51,0
55.060974,55.266453,57,75,0
55.266453,55.477722,54,68,0
55.477722,55.900257,50,68,0
56.323574,56.604824,67,60,0
56.604042,56.650917,71,46,0
56.650917,56.697792,69,47,0
56.697792,56.885292,67,56,0
57.260292,57.44434,62,53,0
57.44434,57.62839,67,53,0
57.62839,57.81244,71,53,0
57.81244,57.904465,71,57,0
57.904465,57.996487,69,54,0
57.996487,58.088512,67,54,0
58.088512,58.18054,69,54,0
58.18054,58.364586,67,57,0
58.364586,58.544765,76,54,0
58.544765,58.634857,76,54,0
58.724945,58.815037,76,54,0
58.905125,58.995216,76,54,0
59.085304,59.174065,76,54,0
59.26282,59.538048,76,57,0
59.538048,59.58217,81,52,0
59.58217,59.626286,83,52,0
59.626286,59.80921,84,50,0
59.80921,59.993843,76,54,0
59.993843,60.08701,74,54,0
60.18018,60.273346,74,54,0
60.366512,60.459682,74,54,0
60.55285,60.64602,74,54,0
60.739185,61.01274,74,57,0
61.01274,61.056988,79,49,0
61.056988,61.10124,81,48,0
61.10124,61.282505,83,45,0
62.82329,62.87061,83,39,0
62.87061,62.91793,81,39,0
62.91793,63.012566,79,47,0
63.201843,63.24916,79,39,0
63.24916,63.29648,78,39,0
63.29648,63.391117,76,50,0
63.58039,63.62771,76,38,0
63.62771,63.675026,74,38,0
63.675026,63.864304,72,50,0
64.33749,64.3848,75,51,0
64.3848,64.43213,74,51,0
64.43213,64.62321,72,59,0
64.62321,64.81429,72,55,0
64.81429,65.00537,72,55,0
65.00537,65.19646,72,55,0
65.19646,65.469185,72,60,0
65.469185,65.51279,74,46,0
65.51279,65.5564,72,46,0
65.5564,65.73821,71,56,0
65.73821,65.92003,71,57,0
65.92003,66.10695,69,60,0
66.10695,66.297424,76,56,0
66.297424,66.4879,74,56,0
66.4879,66.678375,66,56,0
66.678375,66.76793,67,54,0
66.76793,66.857475,69,49,0
66.857475,66.94703,71,50,0
66.94703,67.03658,72,51,0
67.03658,67.12614,74,51,0
67.12614,67.21569,71,51,0
67.21569,67.30524,69,50,0
67.30524,67.39479,67,50,0
67.39479,67.484344,66,53,0
67.484344,67.5739,67,48,0
67.5739,67.66345,69,49,0
67.66345,67.753,71,49,0
67.753,67.84255,72,49,0
67.84255,67.932106,69,49,0
67.932106,68.02166,67,48,0
68.02166,68.11121,66,48,0
68.11121,68.20076,67,52,0
68.20076,68.29031,69,47,0
68.29031,68.37987,71,48,0
68.37987,68.46942,72,49,0
68.46942,68.55897,74,50,0
68.55897,68.64852,71,49,0
68.64852,68.738075,69,48,0
68.738075,68.82763,67,47,0
68.82763,68.91718,66,53,0
68.91718,69.00673,67,47,0
69.00673,69.09628,69,47,0
69.09628,69.18584,71,48,0
69.18584,69.27539,72,49,0
69.27539,69.364944,69,49,0
69.364944,69.45449,67,48,0
69.45449,69.544044,66,48,0
69.544044,69.87844,67,58,0
69.87844,69.92621,78,65,0
69.92621,70.30838,79,76,0
71.27819,71.487976,64,57,0
71.487976,72.08087,76,65,0
72.08087,72.28289,75,56,0
72.28289,72.8726,78,70,0
72.8726,73.07738,76,55,0
73.07738,73.67555,79,72,0
73.67555,73.87963,78,63,0
73.87963,74.47705,83,78,0
74.47705,74.67123,82,66,0
74.67123,75.27323,85,72,0
74.67123,75.27323,88,72,0
75.27323,75.678635,86,60,0
75.27323,75.678635,83,60,0
75.678635,76.08404,76,56,0
75.678635,76.08404,85,56,0
76.08404,76.48675,83,57,0
76.08404,76.48675,74,57,0
76.48675,76.686745,82,57,0
76.48675,76.686745,73,57,0
76.88674,77.083466,71,56,0
77.083466,77.28019,83,66,0
77.68239,77.890724,64,57,0
77.890724,78.487495,76,65,0
78.487495,78.69298,75,56,0
78.69298,79.28849,78,70,0
79.28849,79.49258,76,55,0
79.49258,80.09075,79,72,0
80.09075,80.29483,78,63,0
80.29483,80.89225,83,76,0
80.89225,81.09633,82,66,0
81.09633,81.694336,85,72,0
81.09633,81.694336,88,72,0
81.694336,82.10111,86,60,0
81.694336,82.10111,83,60,0
82.10111,82.49847,76,56,0
82.10111,82.49847,85,56,0
82.49847,82.89582,83,57,0
82.49847,82.89582,74,57,0
82.89582,83.09449,82,57,0
82.89582,83.09449,73,57,0
83.29317,83.48989,71,56,0
83.48989,83.686615,83,66,0
84.080055,84.28984,69,57,0
84.28984,84.88662,81,68,0
84.88662,85.078926,80,56,0
85.078926,85.6891,86,70,0
85.6891,86.09657,84,61,0
86.09657,86.50966,83,59,0
86.50966,86.71842,81,57,0
86.93347,87.144,78,43,0
87.144,87.748024,79,49,0
87.748024,87.9422,78,45,0
87.9422,88.54432,81,49,0
87.9422,88.54432,84,49,0
88.54432,88.94968,83,45,0
88.54432,88.94968,79,45,0
88.94968,89.35871,81,43,0
88.94968,89.35871,78,43,0
89.35871,89.77976,79,42,0
89.35871,89.77976,76,42,0
89.77976,90.00364,78,44,0
89.77976,90.00364,75,44,0
90.00364,90.10104,83,58,0
90.10104,90.19845,81,58,0
90.19845,90.29585,79,58,0
90.29585,90.39325,78,58,0
90.39325,90.79064,76,66,0
90.99199,91.20104,76,55,0
90.99199,91.20104,67,55,0
91.20104,91.7991,78,60,0
91.20104,91.7991,69,60,0
91.7991,92.00388,78,55,0
91.7991,92.00388,69,55,0
92.00388,92.603966,79,60,0
92.00388,92.603966,71,60,0
92.603966,92.808044,79,58,0
92.603966,92.808044,71,58,0
92.808044,93.401695,81,66,0
92.808044,93.401695,72,66,0
93.401695,93.605774,78,55,0
93.605774,94.19412,75,60,0
94.19412,94.39614,72,56,0
94.39614,94.98388,69,60,0
94.98388,95.1859,66,56,0
95.1859,95.77294,63,61,0
95.77294,95.86818,63,49,0
95.86818,95.96342,60,49,0
95.96342,96.061775,57,58,0
96.16014,96.25538,60,49,0
96.25538,96.35062,57,49,0
96.35062,96.448654,54,58,0
96.54669,96.64163,57,54,0
96.64163,96.736565,54,54,0
96.736565,96.93723,51,75,0
97.33857,97.432915,84,40,0
97.432915,97.52725,81,40,0
97.52725,97.6231,78,44,0
97.71895,97.8127,81,40,0
97.8127,97.90645,78,40,0
97.90645,98.00198,75,44,0
98.09753,98.19187,78,36,0
98.19187,98.28621,75,36,0
98.28621,98.47913,72,43,0
99.2381,99.44218,60,57,0
99.44218,99.64151,59,60,0
99.64151,99.83695,69,58,0
100.03563,100.229385,67,56,0
100.03563,100.229385,59,56,0
100.423874,100.61921,66,55,0
100.423874,100.61921,57,55,0
100.815506,101.01266,64,55,0
100.815506,101.01266,55,55,0
101.21068,101.39935,63,55,0
101.21068,101.39935,54,55,0
101.39935,101.7804,64,66,0
101.39935,101.7804,55,66,0
101.97088,102.1689,87,50,0
102.1689,102.56761,88,55,0
102.76895,102.9656,64,50,0
102.9656,103.36496,65,54,0
102.9656,103.36496,62,54,0
103.56496,103.76104,65,46,0
103.56496,103.76104,62,46,0
103.76104,104.15004,68,52,0
103.76104,104.15004,59,52,0
104.342354,104.53843,68,50,0
104.342354,104.53843,59,50,0
104.53843,104.92429,69,54,0
104.53843,104.92429,60,54,0
105.11661,105.31397,69,51,0
105.11661,105.31397,60,51,0
105.31397,105.70049,67,54,0
105.31397,105.70049,61,54,0
105.89281,106.08824,67,52,0
105.89281,106.08824,61,52,0
106.08824,106.47599,66,56,0
106.08824,106.47599,62,56,0
106.66769,106.8644,85,53,0
106.8644,107.24781,86,59,0
107.43708,107.63641,62,43,0
107.63641,108.02605,64,46,0
107.63641,108.02605,61,46,0
108.21959,108.41827,64,38,0
108.21959,108.41827,61,38,0
108.41827,108.80737,66,43,0
108.41827,108.80737,60,43,0
109.012146,109.20323,62,51,0
109.20401,109.48526,67,60,0
109.48448,109.53136,71,48,0
109.53136,109.57823,69,48,0
109.57823,109.76573,67,56,0
110.14073,110.32823,62,53,0
110.32823,110.51573,67,53,0
110.51573,110.70323,71,53,0
110.70323,110.79526,71,57,0
110.79526,110.88728,69,54,0
110.88728,110.9793,67,54,0
110.9793,111.07133,69,54,0
111.07133,111.25538,67,57,0
111.25538,111.43395,74,54,0
111.43395,111.52324,74,54,0
111.61252,111.701805,74,54,0
111.79109,111.88038,74,54,0
111.969666,112.05688,74,54,0
112.14408,112.41274,74,57,0
112.41274,112.45752,76,47,0
112.45752,112.50229,74,47,0
112.50229,112.6814,72,52,0
112.6814,112.860504,71,50,0
112.860504,113.04512,69,52,0
113.04512,113.40656,81,69,0
113.40656,113.58729,79,65,0
113.58729,113.67684,79,63,0
113.67684,113.76639,78,54,0
113.76639,113.85594,76,54,0
113.85594,113.945496,74,54,0
113.945496,114.12898,74,54,0
114.12898,114.30808,74,56,0
114.30808,114.39764,74,54,0
114.39764,114.48719,76,52,0
114.48719,114.576744,72,54,0
114.576744,114.6663,74,52,0
114.6663,114.755844,71,54,0
114.755844,114.8454,72,51,0
114.8454,114.93495,69,54,0
114.93495,115.024506,71,52,0
115.02528,115.30653,67,60,0
115.305756,115.35263,71,46,0
115.35263,115.399506,69,47,0
115.399506,115.493256,67,56,0
115.493256,115.587006,62,48,0
115.587006,115.680756,71,48,0
115.680756,115.774506,69,48,0
115.774506,115.868256,67,56,0
115.868256,115.962006,62,48,0
115.962006,116.05403,67,48,0
116.05403,116.14605,71,48,0
116.14605,116.238075,74,56,0
116.238075,116.3301,71,52,0
116.3301,116.42213,69,52,0
116.42213,116.51767,67,52,0
116.51767,116.609695,71,59,0
116.609695,116.70171,69,52,0
116.70171,116.79374,67,52,0
116.79374,116.885765,69,52,0
116.885765,117.07685,67,54,0
117.07685,117.25419,76,54,0
117.25419,117.3426,75,51,0
117.3426,117.43083,76,52,0
117.43083,117.51881,77,53,0
117.51881,117.60661,78,54,0
117.60661,117.694244,79,56,0
117.694244,117.78171,80,57,0
117.78171,117.86892,81,58,0
117.86892,117.95684,82,59,0
117.95684,118.32158,83,68,0
118.32158,118.410866,81,60,0
118.410866,118.50015,79,56,0
118.50015,118.58944,78,56,0
118.58944,118.67873,76,56,0
118.67873,119.04236,74,60,0
119.04236,119.10206,73,52,0
119.10206,119.161766,74,43,0
119.161766,119.221466,73,48,0
119.221466,119.26776,74,43,0
119.26776,119.31406,73,48,0
119.31406,119.36035,74,42,0
119.36035,119.40665,73,47,0
119.40665,119.4962,74,54,0
119.4962,119.585754,76,50,0
119.585754,119.67531,78,51,0
119.67531,119.76486,79,52,0
119.76486,119.85441,81,53,0
119.85441,119.94396,83,54,0
119.94396,120.034874,85,55,0
120.034874,120.12578,86,56,0
120.12578,120.21533,85,59,0
120.21533,120.304886,88,55,0
120.304886,120.39444,85,55,0
120.39444,120.48399,81,55,0
120.48399,120.57354,79,58,0
120.57354,120.66336,83,55,0
120.66336,120.753456,79,55,0
120.753456,120.84386,76,55,0
120.84386,120.93341,78,57,0
120.93341,121.022964,81,53,0
121.022964,121.11252,79,53,0
121.11252,121.20207,78,53,0
121.20207,121.29162,76,55,0
121.29162,121.38117,74,53,0
121.38117,121.470726,73,53,0
121.470726,121.56028,71,53,0
121.56028,121.649826,69,56,0
121.649826,121.73938,71,52,0
121.73938,121.82893,73,52,0
121.82893,121.91849,74,52,0
121.91849,122.00804,76,55,0
122.00804,122.09759,78,51,0
122.09759,122.18714,79,53,0
122.18714,122.276695,76,54,0
122.276695,122.36616,74,56,0
122.36616,122.45634,76,56,0
122.45634,122.54725,78,59,0
122.54725,122.6389,79,61,0
122.6389,122.7313,81,61,0
122.7313,122.82447,83,64,0
122.82447,122.918365,85,66,0
122.918365,122.96771,86,66,0
123.01648,123.39743,74,64,0
123.77916,124.06041,67,60,0
124.05963,124.10651,71,46,0
124.10651,124.15338,69,47,0
124.15338,124.24713,67,56,0
124.24713,124.34088,62,48,0
124.34088,124.43463,71,48,0
124.43463,124.52838,69,48,0
124.52838,124.62213,67,56,0
124.62213,124.71588,62,48,0
124.71588,124.80791,67,48,0
124.80791,124.89993,71,48,0
124.89993,124.99196,74,56,0
124.99196,125.08398,71,52,0
125.08398,125.176,69,52,0
125.176,125.27278,67,52,0
125.27278,125.3648,71,59,0
125.3648,125.456825,69,52,0
125.456825,125.54885,67,52,0
125.54885,125.64088,69,52,0
125.64088,125.83196,67,54,0
125.83196,126.02064,74,52,0
126.02064,126.20932,74,54,0
126.20932,126.397995,74,52,0
126.397995,126.58668,74,52,0
126.58668,126.77129,74,52,0
126.77129,126.85979,74,57,0
126.85979,126.94828,79,54,0
126.94828,127.03678,76,54,0
127.03678,127.125275,74,54,0
127.125275,127.21377,72,57,0
127.21377,127.30226,76,54,0
127.30226,127.39076,72,54,0
127.39076,127.479256,71,54,0
127.479256,127.57044,69,57,0
127.57044,127.658936,88,57,0
127.658936,127.74743,84,57,0
127.74743,127.83628,83,57,0
127.83628,127.92692,81,57,0
127.92692,128.01541,84,54,0
128.01541,128.10391,81,54,0
128.10391,128.1924,79,54,0
128.1924,128.2809,78,57,0
128.2809,128.3694,79,54,0
128.3694,128.45789,81,54,0
128.45789,128.54639,79,54,0
128.54639,128.63489,78,56,0
128.63489,128.72337,76,54,0
128.72337,128.8154,74,54,0
128.8154,128.90742,73,54,0
128.90742,128.99834,74,58,0
128.99834,129.08934,86,54,0
129.08934,129.18053,72,58,0
129.18053,129.27194,84,53,0
129.27194,129.36345,71,61,0
129.36345,129.4552,83,56,0
129.4552,129.54712,69,61,0
129.54712,129.63919,81,56,0
129.63997,129.92122,67,66,0
129.92044,129.96732,71,46,0
129.96732,130.01419,69,47,0
130.01419,130.10794,67,56,0
130.10794,130.20169,62,48,0
130.20169,130.29544,71,48,0
130.29544,130.38919,69,48,0
130.38919,130.48294,67,56,0
130.48294,130.57669,62,48,0
130.57669,130.66872,67,48,0
130.66872,130.76074,71,48,0
130.76074,130.85277,74,56,0
130.85277,130.9448,71,52,0
130.9448,131.03682,69,52,0
131.03682,131.13297,67,52,0
131.13297,131.22499,71,59,0
131.22499,131.31702,69,52,0
131.31702,131.40904,67,52,0
131.40904,131.50107,69,52,0
131.50107,131.69154,67,54,0
131.69154,131.86888,76,54,0
131.86888,131.95729,75,51,0
131.95729,132.04553,76,52,0
132.04553,132.1335,77,53,0
132.1335,132.22131,78,54,0
132.22131,132.30894,79,56,0
132.30894,132.39641,80,57,0
132.39641,132.48361,81,58,0
132.48361,132.57153,82,59,0
132.57153,132.93628,83,68,0
132.93628,133.02556,81,60,0
133.02556,133.11485,79,56,0
133.11485,133.20413,78,56,0
133.20413,133.29343,76,56,0
133.29343,133.65706,74,60,0
133.65706,133.71675,73,52,0
133.71675,133.77646,74,43,0
133.77646,133.83617,73,48,0
133.83617,133.88246,74,43,0
133.88246,133.92876,73,48,0
133.92876,133.97505,74,42,0
133.97505,134.02135,73,47,0
134.02135,134.1109,74,54,0
134.1109,134.20045,76,50,0
134.20045,134.29001,78,51,0
134.29001,134.37956,79,52,0
134.37956,134.4691,81,53,0
134.4691,134.55865,83,54,0
134.55865,134.64957,85,55,0
134.64957,134.74048,86,56,0
134.74048,134.83003,85,59,0
134.83003,134.91959,88,55,0
134.91959,135.00914,85,55,0
135.00914,135.0987,81,55,0
135.0987,135.18823,79,58,0
135.18823,135.27806,83,55,0
135.27806,135.36815,79,55,0
135.36815,135.45856,76,55,0
135.45856,135.54811,78,57,0
135.54811,135.63766,81,53,0
135.63766,135.72722,79,53,0
135.72722,135.81677,78,53,0
135.81677,135.90631,76,55,0
135.90631,135.99586,74,53,0
135.99586,136.08542,73,53,0
136.08542,136.17497,71,53,0
136.17497,136.26453,69,56,0
136.26453,136.35408,71,52,0
136.35408,136.44363,73,52,0
136.44363,136.53319,74,52,0
136.53319,136.62274,76,55,0
136.62274,136.7123,78,51,0
136.7123,136.80183,79,53,0
136.80183,136.89139,76,54,0
136.89139,136.98131,74,56,0
136.98131,137.07231,76,56,0
137.07231,137.16443,78,59,0
137.16443,137.25769,79,61,0
137.25769,137.35213,81,61,0
137.35213,137.44777,83,63,0
137.44777,137.54471,85,66,0
137.54471,137.59573,86,69,0
137.64561,138.02657,74,66,0
138.40752,138.68108,77,54,0
138.68108,138.72667,74,47,0
138.72667,138.77226,75,47,0
138.77226,138.95464,77,55,0
138.95464,139.3601,89,84,0
139.3601,139.54999,69,51,0
139.54999,139.73985,69,51,0
139.73985,139.92973,69,51,0
139.92973,140.2033,70,54,0
140.2033,140.24889,70,47,0
140.24889,140.29448,72,47,0
140.29448,140.47684,74,55,0
140.47684,140.8896,86,79,0
140.8896,141.08253,66,51,0
141.08253,141.27547,66,51,0
141.27547,141.46838,66,51,0
141.46838,141.73947,67,59,0
141.73947,141.78465,67,47,0
141.78465,141.82983,69,47,0
141.82983,142.01056,70,59,0
142.01056,142.41675,82,78,0
142.41675,142.61674,61,55,0
142.61674,142.81674,61,55,0
142.81674,143.01674,61,55,0
143.01674,143.1071,62,54,0
143.1071,143.19746,64,56,0
143.19746,143.28783,66,57,0
143.28783,143.37819,67,59,0
143.37819,143.48093,69,60,0
143.48093,143.58366,66,57,0
143.58366,143.6893,67,60,0
143.6893,143.79494,64,56,0
143.79494,144.21747,62,68,0
144.6408,144.92204,67,60,0
144.92125,144.96812,71,46,0
144.96812,145.015,69,47,0
145.015,145.10875,67,56,0
145.10875,145.2025,62,48,0
145.2025,145.29625,71,48,0
145.29625,145.39,69,48,0
145.39,145.48375,67,56,0
145.48375,145.5775,62,48,0
145.5775,145.66953,67,48,0
145.66953,145.76155,71,48,0
145.76155,145.85358,74,56,0
145.85358,145.9456,71,52,0
145.9456,146.03763,69,52,0
146.03763,146.13316,67,52,0
146.13316,146.22519,71,59,0
146.22519,146.31721,69,52,0
146.31721,146.40924,67,52,0
146.40924,146.50127,69,52,0
146.50127,146.69357,67,54,0
146.69357,146.78503,88,46,0
146.78503,146.8765,76,44,0
146.8765,146.96815,88,47,0
146.96815,147.05989,76,44,0
147.05989,147.15178,88,49,0
147.15178,147.2438,76,45,0
147.2438,147.33592,88,51,0
147.33592,147.42822,76,46,0
147.42822,147.52058,88,52,0
147.52058,147.61404,76,49,0
147.61404,147.8427,88,54,0
147.8427,147.88843,86,48,0
147.88843,147.93416,84,48,0
147.93416,147.9799,83,47,0
147.9799,148.17038,81,47,0
148.17038,148.26155,86,46,0
148.26155,148.35274,74,44,0
148.35274,148.44412,86,47,0
148.44412,148.53558,74,44,0
148.53558,148.62718,86,49,0
148.62718,148.71892,74,45,0
148.71892,148.81076,86,51,0
148.81076,148.90279,74,46,0
148.90279,148.99486,86,52,0
148.99486,149.08832,74,49,0
149.08832,149.31697,86,54,0
149.31697,149.3627,84,48,0
149.3627,149.40843,83,48,0
149.40843,149.45416,81,47,0
149.45416,149.6371,79,47,0
150.78113,150.82617,86,39,0
150.82617,150.87122,84,39,0
150.87122,150.91626,83,39,0
150.91626,150.9613,81,39,0
150.9613,151.05139,79,47,0
151.14148,151.18652,83,39,0
151.18652,151.23157,81,39,0
151.23157,151.27661,79,39,0
151.27661,151.32167,78,39,0
151.32167,151.41176,76,50,0
151.50185,151.54689,79,38,0
151.54689,151.59193,78,38,0
151.59193,151.63698,76,38,0
151.63698,151.68202,74,38,0
151.68202,152.04239,72,50,0
152.22531,152.27104,79,52,0
152.27104,152.31677,77,52,0
152.31677,152.3625,75,52,0
152.3625,152.40823,74,52,0
152.40823,152.59117,72,63,0
152.59117,152.7741,83,63,0
152.7741,152.95702,84,71,0
152.95702,153.15057,84,66,0
153.15057,153.24287,84,64,0
153.24287,153.33519,83,57,0
153.33519,153.42749,84,57,0
153.42749,153.52153,81,57,0
153.52153,153.61385,83,64,0
153.61385,153.70615,81,57,0
153.70615,153.79846,83,57,0
153.79846,153.8925,79,57,0
153.8925,153.98509,81,63,0
153.98509,154.07768,80,57,0
154.07768,154.17027,81,57,0
154.17027,154.26521,76,57,0
154.26521,154.3578,79,63,0
154.3578,154.4504,78,57,0
154.4504,154.543,76,57,0
154.543,154.63733,74,57,0
154.63733,154.7305,79,65,0
154.7305,154.82362,74,56,0
154.82362,154.9165,79,58,0
154.9165,155.00923,83,61,0
155.00923,155.10182,86,68,0
155.10182,155.19418,83,62,0
155.19418,155.28644,81,60,0
155.28644,155.3823,79,57,0
155.3823,155.47546,78,64,0
155.47546,155.56862,74,56,0
155.56862,155.66179,78,56,0
155.66179,155.75496,81,56,0
155.75496,155.84813,84,64,0
155.84813,155.9413,81,57,0
155.9413,156.03423,79,57,0
156.03423,156.12886,78,57,0
156.12886,156.22203,79,65,0
156.22203,156.31516,74,56,0
156.31516,156.40804,79,58,0
156.40804,156.50076,83,61,0
156.50076,156.59335,86,68,0
156.59335,156.68571,83,62,0
156.68571,156.77797,81,60,0
156.77797,156.87383,79,57,0
156.87383,156.967,78,64,0
156.967,157.06015,74,56,0
157.06015,157.15332,78,56,0
157.15332,157.24649,81,56,0
157.24649,157.33966,84,64,0
157.33966,157.43283,81,57,0
157.43283,157.52576,79,57,0
157.52576,157.62039,78,57,0
157.62039,157.71503,79,65,0
157.71503,157.80968,83,59,0
157.80968,157.90431,79,59,0
157.90431,157.99895,74,59,0
157.99895,158.09358,71,65,0
159.1346,159.40814,77,54,0
159.40814,159.45374,74,47,0
159.45374,159.49933,75,47,0
159.49933,159.6817,77,55,0
159.6817,160.08719,89,84,0
160.08719,160.27705,69,51,0
160.27705,160.46693,69,51,0
160.46693,160.6568,69,51,0
160.6568,160.93036,70,54,0
160.93036,160.97595,70,47,0
160.97595,161.02155,72,47,0
161.02155,161.20392,74,55,0
161.20392,161.61668,86,79,0
161.61668,161.80962,66,51,0
161.80962,162.00253,66,51,0
162.00253,162.19547,66,51,0
162.19547,162.46655,67,59,0
162.46655,162.51173,67,47,0
162.51173,162.55692,69,47,0
162.55692,162.73763,70,59,0
162.73763,163.14381,82,78,0
163.14381,163.34381,61,55,0
163.34381,163.54382,61,55,0
163.54382,163.74382,61,55,0
163.74382,163.83418,62,54,0
163.83418,163.92455,64,56,0
163.92455,164.01491,66,57,0
164.01491,164.10526,67,59,0
164.10526,164.20801,69,60,0
164.20801,164.31075,66,57,0
164.31075,164.41638,67,60,0
164.41638,164.522,64,56,0
164.522,164.94455,62,68,0
165.36786,165.64911,67,60,0
165.64833,165.6952,71,46,0
165.6952,165.74208,69,47,0
165.74208,165.83583,67,56,0
165.83583,165.92958,62,48,0
165.92958,166.02333,71,48,0
166.02333,166.11708,69,48,0
166.11708,166.21083,67,56,0
166.21083,166.30458,62,48,0
166.30458,166.3966,67,48,0
166.3966,166.48863,71,48,0
166.48863,166.58066,74,56,0
166.58066,166.67268,71,52,0
166.67268,166.76471,69,52,0
166.76471,166.86024,67,52,0
166.86024,166.95227,71,59,0
166.95227,167.0443,69,52,0
167.0443,167.13632,67,52,0
167.13632,167.22835,69,52,0
167.22835,167.42065,67,54,0
167.42065,167.51212,88,46,0
167.51212,167.60358,76,44,0
167.60358,167.69522,88,47,0
167.69522,167.78697,76,44,0
167.78697,167.87885,88,49,0
167.87885,167.97087,76,45,0
167.97087,168.063,88,51,0
168.063,168.1553,76,46,0
168.1553,168.24767,88,52,0
168.24767,168.34111,76,49,0
168.34111,168.56978,88,54,0
168.56978,168.61551,86,48,0
168.61551,168.66124,84,48,0
168.66124,168.70697,83,47,0
168.70697,168.89745,81,47,0
168.89745,168.98863,86,46,0
168.98863,169.07982,74,44,0
169.07982,169.17119,86,47,0
169.17119,169.26265,74,44,0
169.26265,169.35425,86,49,0
169.35425,169.446,74,45,0
169.446,169.53784,86,51,0
169.53784,169.62985,74,46,0
169.62985,169.72194,86,52,0
169.72194,169.81538,74,49,0
169.81538,170.04405,86,54,0
170.04405,170.08978,84,48,0
170.08978,170.13551,83,48,0
170.13551,170.18124,81,47,0
170.18124,170.36417,79,47,0
171.5082,171.55324,86,39,0
171.55324,171.59828,84,39,0
171.59828,171.64333,83,39,0
171.64333,171.68839,81,39,0
171.68839,171.77847,79,47,0
171.86856,171.9136,83,39,0
171.9136,171.95865,81,39,0
171.95865,172.0037,79,39,0
172.0037,172.04874,78,39,0
172.04874,172.13882,76,50,0
172.22891,172.27396,79,38,0
172.27396,172.319,78,38,0
172.319,172.36406,76,38,0
172.36406,172.4091,74,38,0
172.4091,172.76945,72,50,0
172.95238,172.99812,79,52,0
172.99812,173.04385,77,52,0
173.04385,173.08958,75,52,0
173.08958,173.13531,74,52,0
173.13531,173.31824,72,63,0
173.31824,173.50116,83,63,0
173.50116,173.6841,84,71,0
173.6841,173.87764,84,66,0
173.87764,173.96996,84,64,0
173.96996,174.06226,83,57,0
174.06226,174.15457,84,57,0
174.15457,174.24861,81,57,0
174.24861,174.34091,83,64,0
174.34091,174.43323,81,57,0
174.43323,174.52553,83,57,0
174.52553,174.61957,79,57,0
174.61957,174.71217,81,63,0
174.71217,174.80476,80,57,0
174.80476,174.89735,81,57,0
174.89735,174.9923,76,57,0
174.9923,175.08488,79,63,0
175.08488,175.17747,78,57,0
175.17747,175.27007,76,57,0
175.27007,175.36441,74,57,0
175.36441,175.45758,79,65,0
175.45758,175.55069,74,56,0
175.55069,175.64357,79,58,0
175.64357,175.73631,83,61,0
175.73631,175.8289,86,68,0
175.8289,175.92125,83,62,0
175.92125,176.01352,81,60,0
176.01352,176.10936,79,57,0
176.10936,176.20253,78,64,0
176.20253,176.2957,74,56,0
176.2957,176.38887,78,56,0
176.38887,176.48204,81,56,0
176.48204,176.57521,84,64,0
176.57521,176.66837,81,57,0
176.66837,176.7613,79,57,0
176.7613,176.85594,78,57,0
176.85594,176.94911,79,65,0
176.94911,177.04222,74,56,0
177.04222,177.1351,79,58,0
177.1351,177.22784,83,61,0
177.22784,177.32043,86,68,0
177.32043,177.4128,83,62,0
177.4128,177.50505,81,60,0
177.50505,177.60089,79,57,0
177.60089,177.69406,78,64,0
177.69406,177.78723,74,56,0
177.78723,177.8804,78,56,0
177.8804,177.97357,81,56,0
177.97357,178.06674,84,64,0
178.06674,178.1599,81,57,0
178.1599,178.25284,79,57,0
178.25284,178.34756,78,57,0
178.34756,178.44287,79,65,0
178.44287,178.53848,83,59,0
178.53848,178.63441,79,59,0
178.63441,178.73067,74,59,0
178.73067,178.82693,71,65,0
0.00078125,0.18828125,55,34,0
0.1875,0.18828125,55,34,0
0.00078125,0.18828125,59,40,0
0.1875,0.18828125,59,40,0
0.375,0.5625,55,34,0
0.375,0.5625,59,40,0
0.5625,0.75,55,33,0
0.5625,0.75,59,39,0
0.75,0.9375,55,34,0
0.75,0.9375,59,40,0
0.9375,1.125,55,34,0
0.9375,1.125,59,41,0
1.125,1.3125,55,34,0
1.125,1.3125,59,41,0
1.3125,1.5,55,34,0
1.3125,1.5,59,41,0
1.5,1.868098,55,37,0
1.5,1.868098,60,44,0
1.868098,2.052147,59,41,0
1.868098,2.052147,55,34,0
2.2307186,2.3200042,67,41,0
2.2307186,2.3200042,65,41,0
2.40929,2.4985757,67,41,0
2.40929,2.4985757,65,41,0
2.5878615,2.6771472,65,41,0
2.5878615,2.6771472,67,41,0
2.766433,2.8536422,67,41,0
2.766433,2.8536422,65,41,0
2.9408514,3.478165,64,46,0
2.9408514,3.478165,67,46,0
3.478165,3.6572695,62,41,0
3.478165,3.6572695,65,41,0
3.6572695,4.022608,60,49,0
3.6572695,4.022608,64,49,0
4.022608,4.384054,64,50,0
4.022608,4.384054,61,50,0
4.384054,4.742263,62,46,0
5.822053,6.009553,59,40,0
6.0087714,6.009553,59,40,0
5.822053,6.009553,55,34,0
6.0087714,6.009553,55,34,0
6.1962714,6.3837714,59,40,0
6.1962714,6.3837714,55,34,0
6.3837714,6.5712714,59,39,0
6.3837714,6.5712714,55,33,0
6.5712714,6.7587714,59,40,0
6.5712714,6.7587714,55,34,0
6.7587714,6.9428205,55,34,0
6.7587714,6.9428205,59,41,0
6.9428205,7.1268697,59,41,0
6.9428205,7.1268697,55,34,0
7.1268697,7.3109183,59,41,0
7.1268697,7.3109183,55,34,0
7.3109183,7.6790166,55,44,0
7.3109183,7.6790166,60,44,0
7.6790166,7.8630657,55,41,0
7.6790166,7.8630657,59,41,0
8.041637,8.130922,67,41,0
8.041637,8.130922,71,41,0
8.220208,8.309494,67,41,0
8.220208,8.309494,71,41,0
8.39878,8.488066,67,41,0
8.39878,8.488066,71,41,0
8.577352,8.66456,71,41,0
8.577352,8.66456,67,41,0
8.75177,8.930342,71,46,0
8.75177,8.930342,67,39,0
8.930342,9.108913,71,46,0
8.930342,9.108913,67,39,0
9.108913,9.287484,67,39,0
9.108913,9.287484,71,46,0
9.287484,9.46398,67,39,0
9.287484,9.46398,71,46,0
9.46398,9.645798,66,46,0
9.46398,9.645798,57,39,0
9.645798,9.827616,66,46,0
9.645798,9.827616,57,39,0
9.827616,10.00672,64,46,0
9.827616,10.00672,57,39,0
10.00672,10.185824,57,39,0
10.00672,10.185824,64,46,0
10.185824,10.364929,66,44,0
10.185824,10.364929,62,37,0
10.364929,10.544033,66,38,0
10.364929,10.544033,62,32,0
10.544033,10.723138,62,32,0
10.544033,10.723138,66,38,0
10.723138,10.902243,66,38,0
10.723138,10.902243,62,32,0
10.902243,11.081347,67,43,0
10.902243,11.081347,62,36,0
11.081347,11.260451,67,38,0
11.081347,11.260451,62,32,0
11.260451,11.439556,67,38,0
11.260451,11.439556,62,32,0
11.439556,11.618661,62,32,0
11.439556,11.618661,67,38,0
11.618661,11.797765,62,37,0
11.618661,11.797765,66,44,0
11.797765,11.97687,62,32,0
11.797765,11.97687,66,38,0
11.97687,12.155974,62,32,0
11.97687,12.155974,66,38,0
12.155974,12.335078,62,32,0
12.155974,12.335078,66,38,0
12.335078,12.514183,62,37,0
12.335078,12.514183,67,44,0
12.514183,12.693288,62,32,0
12.514183,12.693288,67,38,0
12.693288,12.872392,62,32,0
12.693288,12.872392,67,38,0
12.872392,13.0514965,62,32,0
12.872392,13.0514965,67,38,0
13.0514965,13.433662,62,38,0
13.0514965,13.433662,66,45,0
13.815828,14.197994,50,69,0
13.815828,14.197994,38,69,0
14.580942,14.768442,59,40,0
14.76766,14.768442,59,40,0
14.580942,14.768442,55,34,0
14.76766,14.768442,55,34,0
14.95516,15.14266,59,40,0
14.95516,15.14266,55,34,0
15.14266,15.33016,59,39,0
15.14266,15.33016,55,33,0
15.33016,15.51766,59,40,0
15.33016,15.51766,55,34,0
15.51766,15.70516,59,41,0
15.51766,15.70516,55,34,0
15.70516,15.89266,59,41,0
15.70516,15.89266,55,34,0
15.89266,16.08016,59,41,0
15.89266,16.08016,55,34,0
16.08016,16.44826,60,44,0
16.08016,16.44826,55,37,0
16.44826,16.632307,59,41,0
16.44826,16.632307,55,34,0
16.810879,16.900166,67,41,0
16.810879,16.900166,65,41,0
16.98945,17.078735,67,41,0
16.98945,17.078735,65,41,0
17.168022,17.257307,67,41,0
17.168022,17.257307,65,41,0
17.346594,17.433804,65,41,0
17.346594,17.433804,67,41,0
17.521011,18.058325,67,46,0
17.521011,18.058325,64,46,0
18.058325,18.23743,65,41,0
18.058325,18.23743,62,41,0
18.23743,18.602768,64,49,0
18.23743,18.602768,60,49,0
18.602768,18.964214,64,50,0
18.602768,18.964214,61,50,0
18.964214,19.322424,62,46,0
20.402214,20.589714,59,40,0
20.588932,20.589714,59,40,0
20.402214,20.589714,55,34,0
20.588932,20.589714,55,34,0
20.776432,20.963932,59,40,0
20.776432,20.963932,55,34,0
20.963932,21.151432,59,39,0
20.963932,21.151432,55,33,0
21.151432,21.338932,59,40,0
21.151432,21.338932,55,34,0
21.338932,21.522982,59,41,0
21.338932,21.522982,55,34,0
21.522982,21.70703,59,41,0
21.522982,21.70703,55,34,0
21.70703,21.891079,59,41,0
21.70703,21.891079,55,34,0
21.891079,22.259176,60,44,0
21.891079,22.259176,55,37,0
22.259176,22.443226,59,41,0
22.259176,22.443226,55,34,0
22.621798,22.711082,67,41,0
22.621798,22.711082,71,41,0
22.80037,22.889654,67,41,0
22.80037,22.889654,71,41,0
22.978941,23.068226,67,41,0
22.978941,23.068226,71,41,0
23.157513,23.24472,71,41,0
23.157513,23.24472,67,41,0
23.33193,23.510502,67,39,0
23.33193,23.510502,71,46,0
23.510502,23.689074,71,46,0
23.510502,23.689074,67,39,0
23.689074,23.867645,71,46,0
23.689074,23.867645,67,39,0
23.867645,24.04414,71,46,0
23.867645,24.04414,67,39,0
24.04414,24.225958,57,39,0
24.04414,24.225958,66,46,0
24.225958,24.407776,66,46,0
24.225958,24.407776,57,39,0
24.407776,24.58688,64,46,0
24.407776,24.58688,57,39,0
24.58688,24.765985,64,46,0
24.58688,24.765985,57,39,0
24.765985,24.94509,66,44,0
24.765985,24.94509,62,37,0
24.94509,25.124193,66,38,0
24.94509,25.124193,62,32,0
25.124193,25.303299,66,38,0
25.124193,25.303299,62,32,0
25.303299,25.482403,66,38,0
25.303299,25.482403,62,32,0
25.482403,25.661507,67,43,0
25.482403,25.661507,62,36,0
25.661507,25.840612,67,38,0
25.661507,25.840612,62,32,0
25.840612,26.019716,67,38,0
25.840612,26.019716,62,32,0
26.019716,26.19882,67,38,0
26.019716,26.19882,62,32,0
26.19882,26.377926,66,44,0
26.19882,26.377926,62,37,0
26.377926,26.55703,66,38,0
26.377926,26.55703,62,32,0
26.55703,26.736134,66,38,0
26.55703,26.736134,62,32,0
26.736134,26.91524,66,38,0
26.736134,26.91524,62,32,0
26.91524,27.094343,67,44,0
26.91524,27.094343,62,37,0
27.094343,27.273449,67,38,0
27.094343,27.273449,62,32,0
27.273449,27.452553,67,38,0
27.273449,27.452553,62,32,0
27.452553,27.631657,67,38,0
27.452553,27.631657,62,32,0
27.631657,28.013823,66,45,0
27.631657,28.013823,62,38,0
28.395988,28.778154,50,69,0
28.395988,28.778154,38,69,0
29.16032,29.521767,58,38,0
29.16032,29.521767,62,45,0
29.70249,29.905193,58,34,0
29.70249,29.905193,62,41,0
29.905193,30.295067,60,38,0
29.905193,30.295067,63,45,0
30.48494,30.674812,63,41,0
30.48494,30.674812,60,34,0
30.674812,31.036259,65,45,0
30.674812,31.036259,62,38,0
31.216982,31.419685,58,34,0
31.216982,31.419685,62,41,0
31.419685,31.81261,60,45,0
31.419685,31.81261,57,38,0
32.005535,32.198463,57,34,0
32.005535,32.198463,60,41,0
32.198463,32.55991,58,41,0
32.198463,32.55991,62,49,0
32.74063,32.943333,55,36,0
32.74063,32.943333,58,43,0
32.943333,33.343334,51,40,0
32.943333,33.343334,55,48,0
33.543335,33.743336,55,55,0
33.543335,33.743336,51,55,0
33.743336,34.01442,54,58,0
33.743336,34.01442,50,58,0
34.01442,34.0596,42,51,0
34.0596,34.10478,43,51,0
34.10478,34.31026,45,61,0
34.31026,34.521526,42,56,0
34.521526,34.94406,38,56,0
35.36738,35.55488,59,40,0
35.554096,35.55488,59,40,0
35.36738,35.55488,55,34,0
35.554096,35.55488,55,34,0
35.741596,35.929096,59,40,0
35.741596,35.929096,55,34,0
35.929096,36.116596,59,39,0
35.929096,36.116596,55,33,0
36.116596,36.304096,59,40,0
36.116596,36.304096,55,34,0
36.304096,36.488148,59,41,0
36.304096,36.488148,55,34,0
36.488148,36.672195,59,41,0
36.488148,36.672195,55,34,0
36.672195,36.856243,59,41,0
36.672195,36.856243,55,34,0
36.856243,37.224342,60,44,0
36.856243,37.224342,55,37,0
37.224342,37.40839,59,41,0
37.224342,37.40839,55,34,0
37.58857,37.67866,68,36,0
37.58857,37.67866,74,36,0
37.76875,37.85884,68,36,0
37.76875,37.85884,74,36,0
37.948933,38.03902,68,36,0
37.948933,38.03902,74,36,0
38.129112,38.21787,74,36,0
38.129112,38.21787,68,36,0
38.306625,38.67009,69,41,0
38.306625,38.67009,72,41,0
39.037647,39.130817,72,36,0
39.037647,39.130817,66,36,0
39.223984,39.31715,72,36,0
39.223984,39.31715,66,36,0
39.41032,39.503487,72,36,0
39.41032,39.503487,66,36,0
39.596657,39.689823,72,36,0
39.596657,39.689823,66,36,0
39.78299,40.145042,67,41,0
39.78299,40.145042,71,41,0
42.718834,42.908108,67,34,0
42.718834,42.908108,64,34,0
43.381294,43.42861,67,44,0
43.42861,43.475933,65,44,0
43.475933,43.858097,63,55,0
44.144722,44.192493,69,49,0
44.192493,44.240265,67,49,0
44.240265,44.6002,66,56,0
44.240265,44.6002,62,56,0
44.6002,44.963837,67,46,0
44.6002,44.963837,64,46,0
44.963837,45.34123,64,46,0
44.963837,45.34123,60,46,0
45.34123,45.72218,62,46,0
45.72218,45.901283,59,44,0
45.72218,45.901283,55,37,0
45.901283,46.080387,59,38,0
45.901283,46.080387,55,32,0
46.080387,46.259495,59,38,0
46.080387,46.259495,55,32,0
46.259495,46.4386,59,38,0
46.259495,46.4386,55,32,0
46.4386,46.617702,60,43,0
46.4386,46.617702,55,36,0
46.617702,46.796806,60,38,0
46.617702,46.796806,55,32,0
46.796806,46.97591,60,38,0
46.796806,46.97591,55,32,0
46.97591,47.155014,60,38,0
46.97591,47.155014,55,32,0
47.155014,47.33412,59,44,0
47.155014,47.33412,55,37,0
47.33412,47.513226,59,38,0
47.33412,47.513226,55,32,0
47.513226,47.69233,59,38,0
47.513226,47.69233,55,32,0
47.69233,47.871433,59,38,0
47.69233,47.871433,55,32,0
47.871433,48.050537,60,44,0
47.871433,48.050537,55,37,0
48.050537,48.22964,60,38,0
48.050537,48.22964,55,32,0
48.22964,48.40875,60,38,0
48.22964,48.40875,55,32,0
48.40875,48.587852,60,38,0
48.40875,48.587852,55,32,0
48.587852,48.970016,59,45,0
48.587852,48.970016,55,38,0
49.352184,49.73435,43,69,0
49.352184,49.73435,31,69,0
50.116516,50.477962,58,38,0
50.116516,50.477962,62,45,0
50.658684,50.861385,58,34,0
50.658684,50.861385,62,41,0
50.861385,51.25126,60,38,0
50.861385,51.25126,63,45,0
51.441135,51.63101,63,41,0
51.441135,51.63101,60,34,0
51.63101,51.992455,65,45,0
51.63101,51.992455,62,38,0
52.173176,52.375877,58,34,0
52.173176,52.375877,62,41,0
52.375877,52.768806,60,45,0
52.375877,52.768806,57,38,0
52.96173,53.154655,57,34,0
52.96173,53.154655,60,41,0
53.154655,53.5161,58,41,0
53.154655,53.5161,62,49,0
53.696827,53.89953,55,36,0
53.696827,53.89953,58,43,0
53.89953,54.29953,51,40,0
53.89953,54.29953,55,48,0
54.499527,54.699528,55,55,0
54.499527,54.699528,51,55,0
54.699528,54.97061,54,58,0
54.699528,54.97061,50,58,0
54.97061,55.015793,42,51,0
55.015793,55.060974,43,51,0
55.060974,55.266453,45,61,0
55.266453,55.477722,42,56,0
55.477722,55.900257,38,56,0
56.323574,56.511074,59,40,0
56.510292,56.511074,59,40,0
56.323574,56.511074,55,34,0
56.510292,56.511074,55,34,0
56.697792,56.885292,59,40,0
56.697792,56.885292,55,34,0
56.885292,57.072792,59,39,0
56.885292,57.072792,55,33,0
57.072792,57.260292,59,40,0
57.072792,57.260292,55,34,0
57.260292,57.44434,59,41,0
57.260292,57.44434,55,34,0
57.44434,57.62839,59,41,0
57.44434,57.62839,55,34,0
57.62839,57.81244,59,41,0
57.62839,57.81244,55,34,0
57.81244,58.18054,60,44,0
57.81244,58.18054,55,37,0
58.18054,58.364586,59,41,0
58.18054,58.364586,55,34,0
58.544765,58.634857,68,36,0
58.544765,58.634857,74,36,0
58.724945,58.815037,68,36,0
58.724945,58.815037,74,36,0
58.905125,58.995216,68,36,0
58.905125,58.995216,74,36,0
59.085304,59.174065,74,36,0
59.085304,59.174065,68,36,0
59.26282,59.626286,69,41,0
59.26282,59.626286,72,41,0
59.993843,60.08701,72,36,0
59.993843,60.08701,66,36,0
60.18018,60.273346,72,36,0
60.18018,60.273346,66,36,0
60.366512,60.459682,72,36,0
60.366512,60.459682,66,36,0
60.55285,60.64602,72,36,0
60.55285,60.64602,66,36,0
60.739185,61.10124,67,41,0
60.739185,61.10124,71,41,0
63.675026,63.864304,67,34,0
63.675026,63.864304,64,34,0
64.33749,64.3848,67,44,0
64.3848,64.43213,65,44,0
64.43213,64.81429,63,55,0
65.100914,65.14869,69,47,0
65.14869,65.19646,67,47,0
65.19646,65.5564,66,56,0
65.19646,65.5564,62,56,0
65.5564,65.92003,67,46,0
65.5564,65.92003,64,46,0
65.92003,66.297424,64,46,0
65.92003,66.297424,60,46,0
66.297424,66.678375,62,46,0
66.678375,66.857475,59,44,0
66.678375,66.857475,55,37,0
66.857475,67.03658,59,38,0
66.857475,67.03658,55,32,0
67.03658,67.21569,59,38,0
67.03658,67.21569,55,32,0
67.21569,67.39479,59,38,0
67.21569,67.39479,55,32,0
67.39479,67.5739,60,43,0
67.39479,67.5739,55,36,0
67.5739,67.753,60,38,0
67.5739,67.753,55,32,0
67.753,67.932106,60,38,0
67.753,67.932106,55,32,0
67.932106,68.11121,60,38,0
67.932106,68.11121,55,32,0
68.11121,68.29031,59,44,0
68.11121,68.29031,55,37,0
68.29031,68.46942,59,38,0
68.29031,68.46942,55,32,0
68.46942,68.64852,59,38,0
68.46942,68.64852,55,32,0
68.64852,68.82763,59,38,0
68.64852,68.82763,55,32,0
68.82763,69.00673,60,44,0
68.82763,69.00673,55,37,0
69.00673,69.18584,60,38,0
69.00673,69.18584,55,32,0
69.18584,69.364944,60,38,0
69.18584,69.364944,55,32,0
69.364944,69.544044,60,38,0
69.364944,69.544044,55,32,0
69.544044,69.92621,59,45,0
69.544044,69.92621,55,38,0
70.30838,70.690544,43,69,0
70.30838,70.690544,31,69,0
71.07271,71.487976,52,60,0
71.07271,71.487976,40,60,0
71.68865,71.882195,71,39,0
71.68865,71.882195,67,39,0
71.882195,72.48223,69,45,0
71.882195,72.48223,66,45,0
72.48223,72.67392,72,39,0
72.48223,72.67392,69,39,0
72.67392,73.280075,71,45,0
72.67392,73.280075,67,45,0
73.280075,73.474884,70,40,0
73.280075,73.474884,64,40,0
73.474884,74.0803,71,45,0
73.474884,74.0803,62,45,0
74.0803,74.27638,66,45,0
74.0803,74.27638,62,45,0
74.27638,74.871895,64,48,0
74.27638,74.871895,61,48,0
74.871895,75.07256,58,48,0
75.07256,75.47594,59,54,0
75.47594,75.88134,64,49,0
75.88134,76.28674,66,49,0
76.28674,76.686745,66,49,0
76.686745,77.083466,59,49,0
77.28019,77.476906,51,56,0
77.28019,77.476906,39,56,0
77.476906,77.890724,52,60,0
77.476906,77.890724,40,60,0
78.09139,78.28683,71,39,0
78.09139,78.28683,67,39,0
78.28683,78.89365,69,45,0
78.28683,78.89365,66,45,0
78.89365,79.08782,72,39,0
78.89365,79.08782,69,39,0
79.08782,79.695274,71,45,0
79.08782,79.695274,67,45,0
79.695274,79.89008,70,40,0
79.695274,79.89008,64,40,0
79.89008,80.4955,71,45,0
79.89008,80.4955,62,45,0
80.4955,80.69158,66,45,0
80.4955,80.69158,62,45,0
80.69158,81.29566,64,48,0
80.69158,81.29566,61,48,0
81.29566,81.495,58,48,0
81.495,81.89773,59,54,0
81.89773,82.29979,64,49,0
82.29979,82.69714,66,49,0
82.69714,83.09449,66,49,0
83.09449,83.48989,59,49,0
83.686615,83.88333,47,56,0
83.686615,83.88333,35,56,0
83.88333,84.28984,48,60,0
83.88333,84.28984,36,60,0
84.49052,84.68595,64,42,0
84.49052,84.68595,60,35,0
84.68595,85.28232,62,48,0
84.68595,85.28232,59,40,0
85.28232,85.48571,56,34,0
85.28232,85.48571,59,40,0
85.48571,85.89214,60,46,0
85.48571,85.89214,57,39,0
85.89214,86.30241,59,37,0
85.89214,86.30241,62,44,0
86.30241,86.71842,60,34,0
86.30241,86.71842,64,40,0
87.345345,87.546684,74,30,0
87.345345,87.546684,71,30,0
87.546684,87.9422,72,35,0
87.546684,87.9422,69,35,0
88.14287,88.343544,66,31,0
88.343544,88.74657,67,36,0
88.74657,89.153694,63,36,0
89.153694,89.56924,64,30,0
89.56924,90.00364,59,35,0
90.593925,90.79064,52,55,0
90.79064,91.40171,64,62,0
91.40171,91.598434,63,47,0
91.598434,92.2059,66,51,0
92.2059,92.402626,64,49,0
92.402626,93.00872,67,54,0
93.00872,93.20103,66,47,0
93.20103,93.803795,69,51,0
93.803795,93.9961,66,53,0
93.9961,94.59416,63,58,0
94.59416,94.78586,60,54,0
94.78586,95.38326,57,58,0
95.38326,95.57557,54,52,0
95.57557,95.77294,51,50,0
95.77294,95.86818,51,42,0
95.86818,95.96342,48,42,0
95.96342,96.061775,45,55,0
96.16014,96.25538,48,42,0
96.25538,96.35062,45,42,0
96.35062,96.448654,42,56,0
96.54669,96.64163,45,49,0
96.64163,96.736565,42,49,0
96.736565,96.93723,39,63,0
99.44218,99.83695,51,52,0
99.83695,100.03563,52,54,0
100.229385,100.423874,45,51,0
100.61921,100.815506,47,51,0
101.01266,101.21068,47,51,0
101.5929,101.7804,52,48,0
101.7804,101.97088,40,53,0
102.37024,102.56761,52,38,0
102.56761,102.76895,40,43,0
103.16694,103.36496,52,43,0
103.36496,103.56496,40,47,0
103.953964,104.15004,52,48,0
104.15004,104.342354,40,52,0
104.730125,104.92429,52,51,0
104.92429,105.11661,40,59,0
105.50506,105.70049,51,52,0
105.70049,105.89281,39,55,0
106.28055,106.47599,50,47,0
106.47599,106.66769,38,52,0
107.05488,107.24781,50,35,0
107.24781,107.43708,38,40,0
107.82996,108.02605,50,38,0
108.02605,108.21959,38,43,0
108.60935,108.80737,50,36,0
108.80737,109.012146,38,41,0
109.20401,109.39151,59,40,0
109.39073,109.39151,59,40,0
109.20401,109.39151,55,34,0
109.39073,109.39151,55,34,0
109.57823,109.76573,59,40,0
109.57823,109.76573,55,34,0
109.76573,109.95323,59,39,0
109.76573,109.95323,55,33,0
109.95323,110.14073,59,40,0
109.95323,110.14073,55,34,0
110.14073,110.32823,59,41,0
110.14073,110.32823,55,34,0
110.32823,110.51573,59,41,0
110.32823,110.51573,55,34,0
110.51573,110.70323,59,41,0
110.51573,110.70323,55,34,0
110.70323,111.07133,60,44,0
110.70323,111.07133,55,37,0
111.07133,111.25538,59,41,0
111.07133,111.25538,55,41,0
111.43395,111.52324,67,41,0
111.43395,111.52324,65,41,0
111.61252,111.701805,67,41,0
111.61252,111.701805,65,41,0
111.79109,111.88038,67,41,0
111.79109,111.88038,65,41,0
111.969666,112.05688,65,41,0
111.969666,112.05688,67,41,0
112.14408,112.6814,67,46,0
112.14408,112.6814,64,46,0
112.6814,112.860504,65,41,0
112.6814,112.860504,62,41,0
112.860504,113.22584,64,49,0
112.860504,113.22584,60,49,0
113.22584,113.58729,64,50,0
113.22584,113.58729,61,50,0
113.58729,113.945496,62,46,0
115.02528,115.21278,59,40,0
115.212006,115.21278,59,36,0
115.02528,115.21278,55,34,0
115.212006,115.21278,55,30,0
115.399506,115.587006,59,36,0
115.399506,115.587006,55,30,0
115.587006,115.774506,59,36,0
115.587006,115.774506,55,30,0
115.774506,115.962006,59,40,0
115.774506,115.962006,55,34,0
115.962006,116.14605,59,38,0
115.962006,116.14605,55,32,0
116.14605,116.3301,59,38,0
116.14605,116.3301,55,32,0
116.3301,116.51767,59,38,0
116.3301,116.51767,55,32,0
116.51767,116.885765,60,44,0
116.51767,116.885765,55,37,0
116.885765,117.07685,59,41,0
116.885765,117.07685,55,34,0
117.25419,117.43083,67,41,0
117.25419,117.43083,71,41,0
117.43083,117.60661,67,38,0
117.43083,117.60661,71,38,0
117.60661,117.78171,67,44,0
117.60661,117.78171,71,44,0
117.78171,117.95684,71,41,0
117.78171,117.95684,67,41,0
117.95684,118.13921,67,39,0
117.95684,118.13921,71,46,0
118.13921,118.32158,71,46,0
118.13921,118.32158,67,39,0
118.32158,118.50015,71,46,0
118.32158,118.50015,67,39,0
118.50015,118.67873,71,46,0
118.50015,118.67873,67,39,0
118.67873,118.86054,57,39,0
118.67873,118.86054,66,46,0
118.86054,119.04236,66,46,0
118.86054,119.04236,57,39,0
119.04236,119.221466,64,46,0
119.04236,119.221466,57,39,0
119.221466,119.40665,64,46,0
119.221466,119.40665,57,39,0
119.40665,119.585754,66,44,0
119.40665,119.585754,62,37,0
119.585754,119.76486,66,38,0
119.585754,119.76486,62,32,0
119.76486,119.94396,66,38,0
119.76486,119.94396,62,32,0
119.94396,120.12578,66,38,0
119.94396,120.12578,62,32,0
120.12578,120.304886,67,43,0
120.12578,120.304886,62,36,0
120.304886,120.48399,67,38,0
120.304886,120.48399,62,32,0
120.48399,120.66336,67,38,0
120.48399,120.66336,62,32,0
120.66336,120.84386,67,38,0
120.66336,120.84386,62,32,0
120.84386,121.022964,66,44,0
120.84386,121.022964,62,37,0
121.022964,121.20207,66,38,0
121.022964,121.20207,62,32,0
121.20207,121.38117,66,38,0
121.20207,121.38117,62,32,0
121.38117,121.56028,66,38,0
121.38117,121.56028,62,32,0
121.56028,121.73938,67,44,0
121.56028,121.73938,62,37,0
121.73938,121.91849,67,38,0
121.73938,121.91849,62,32,0
121.91849,122.09759,67,38,0
121.91849,122.09759,62,32,0
122.09759,122.276695,67,38,0
122.09759,122.276695,62,32,0
122.276695,122.45634,66,45,0
122.276695,122.45634,62,38,0
122.45634,122.6389,66,41,0
122.45634,122.6389,62,34,0
122.6389,122.82447,66,45,0
122.6389,122.82447,62,38,0
122.82447,122.918365,66,40,0
122.82447,122.918365,62,34,0
123.01648,123.39743,66,48,0
123.01648,123.39743,62,40,0
123.77916,123.96666,59,40,0
123.96588,123.96666,59,36,0
123.77916,123.96666,55,34,0
123.96588,123.96666,55,30,0
124.15338,124.34088,59,36,0
124.15338,124.34088,55,30,0
124.34088,124.52838,59,36,0
124.34088,124.52838,55,30,0
124.52838,124.71588,59,40,0
124.52838,124.71588,55,34,0
124.71588,124.89993,59,38,0
124.71588,124.89993,55,32,0
124.89993,125.08398,59,38,0
124.89993,125.08398,55,32,0
125.08398,125.27278,59,38,0
125.08398,125.27278,55,32,0
125.27278,125.64088,60,44,0
125.27278,125.64088,55,37,0
125.64088,125.83196,59,41,0
125.64088,125.83196,55,34,0
126.02064,126.114975,65,38,0
126.114975,126.20932,67,33,0
126.20932,126.30366,65,38,0
126.30366,126.397995,67,33,0
126.397995,126.49233,65,38,0
126.49233,126.58668,67,34,0
126.58668,126.678986,65,38,0
126.678986,126.77129,67,33,0
126.77129,127.125275,64,52,0
127.30226,127.39076,64,48,0
127.39076,127.479256,62,48,0
127.479256,127.83628,60,52,0
128.01541,128.1924,61,52,0
128.1924,128.90742,62,58,0
128.90742,129.27194,50,52,0
129.63919,129.82669,59,40,0
129.63919,129.82669,55,34,0
129.82669,130.01419,59,36,0
129.82669,130.01419,55,30,0
130.01419,130.20169,59,36,0
130.01419,130.20169,55,30,0
130.20169,130.38919,59,36,0
130.20169,130.38919,55,30,0
130.38919,130.57669,59,40,0
130.38919,130.57669,55,34,0
130.57669,130.76074,59,38,0
130.57669,130.76074,55,32,0
130.76074,130.9448,59,38,0
130.76074,130.9448,55,32,0
130.9448,131.13297,59,38,0
130.9448,131.13297,55,32,0
131.13297,131.50107,60,44,0
131.13297,131.50107,55,37,0
131.50107,131.69154,59,41,0
131.50107,131.69154,55,34,0
131.86888,132.04553,67,41,0
131.86888,132.04553,71,41,0
132.04553,132.22131,67,38,0
132.04553,132.22131,71,38,0
132.22131,132.39641,67,44,0
132.22131,132.39641,71,44,0
132.39641,132.57153,71,41,0
132.39641,132.57153,67,41,0
132.57153,132.7539,67,39,0
132.57153,132.7539,71,46,0
132.7539,132.93628,71,46,0
132.7539,132.93628,67,39,0
132.93628,133.11485,71,46,0
132.93628,133.11485,67,39,0
133.11485,133.29343,71,46,0
133.11485,133.29343,67,39,0
133.29343,133.47523,57,39,0
133.29343,133.47523,66,46,0
133.47523,133.65706,66,46,0
133.47523,133.65706,57,39,0
133.65706,133.83617,64,46,0
133.65706,133.83617,57,39,0
133.83617,134.02135,64,46,0
133.83617,134.02135,57,39,0
134.02135,134.20045,66,44,0
134.02135,134.20045,62,37,0
134.20045,134.37956,66,38,0
134.20045,134.37956,62,32,0
134.37956,134.55865,66,38,0
134.37956,134.55865,62,32,0
134.55865,134.74048,66,38,0
134.55865,134.74048,62,32,0
134.74048,134.91959,67,43,0
134.74048,134.91959,62,36,0
134.91959,135.0987,67,38,0
134.91959,135.0987,62,32,0
135.0987,135.27806,67,38,0
135.0987,135.27806,62,32,0
135.27806,135.45856,67,38,0
135.27806,135.45856,62,32,0
135.45856,135.63766,66,44,0
135.45856,135.63766,62,37,0
135.63766,135.81677,66,38,0
135.63766,135.81677,62,32,0
135.81677,135.99586,66,38,0
135.81677,135.99586,62,32,0
135.99586,136.17497,66,38,0
135.99586,136.17497,62,32,0
136.17497,136.35408,67,44,0
136.17497,136.35408,62,37,0
136.35408,136.53319,67,38,0
136.35408,136.53319,62,32,0
136.53319,136.7123,67,38,0
136.53319,136.7123,62,32,0
136.7123,136.89139,67,38,0
136.7123,136.89139,62,32,0
136.89139,137.07231,66,45,0
136.89139,137.07231,62,38,0
137.07231,137.25769,66,41,0
137.07231,137.25769,62,34,0
137.25769,137.44777,66,45,0
137.25769,137.44777,62,38,0
137.44777,137.54471,66,40,0
137.44777,137.54471,62,34,0
137.64561,138.02657,66,48,0
137.64561,138.02657,62,40,0
138.40752,138.4987,58,45,0
138.4987,138.58989,65,39,0
138.58989,138.68108,62,45,0
138.68108,138.77226,65,38,0
138.77226,138.86345,58,45,0
138.86345,138.95464,65,41,0
138.95464,139.05737,62,45,0
139.05737,139.16011,65,39,0
139.16011,139.26012,60,45,0
139.26012,139.3601,65,39,0
139.3601,139.45505,63,45,0
139.45505,139.54999,65,39,0
139.54999,139.64493,60,45,0
139.64493,139.73985,65,41,0
139.73985,139.8348,63,45,0
139.8348,139.92973,65,40,0
139.92973,140.02092,58,45,0
140.02092,140.1121,65,40,0
140.1121,140.2033,62,45,0
140.2033,140.29448,65,40,0
140.29448,140.38567,58,45,0
140.38567,140.47684,65,40,0
140.47684,140.58322,62,45,0
140.58322,140.6896,65,39,0
140.6896,140.78961,57,45,0
140.78961,140.8896,62,39,0
140.8896,140.98607,60,45,0
140.98607,141.08253,62,41,0
141.08253,141.179,57,45,0
141.179,141.27547,62,40,0
141.27547,141.37192,60,45,0
141.37192,141.46838,62,40,0
141.46838,141.55875,55,45,0
141.55875,141.64911,62,40,0
141.64911,141.73947,58,45,0
141.73947,141.82983,62,39,0
141.82983,141.9202,55,45,0
141.9202,142.01056,62,40,0
142.01056,142.11365,58,45,0
142.11365,142.21674,62,40,0
142.21674,142.31674,51,45,0
142.31674,142.41675,55,39,0
142.41675,142.51674,54,45,0
142.51674,142.61674,55,39,0
142.61674,142.71674,51,45,0
142.71674,142.81674,55,39,0
142.81674,142.91675,54,45,0
142.91675,143.01674,55,39,0
143.01674,143.37819,50,58,0
143.79494,143.90057,38,60,0
143.90057,144.00621,50,60,0
144.00621,144.11183,36,60,0
144.11183,144.21747,48,59,0
144.21747,144.3231,35,58,0
144.3231,144.42874,47,57,0
144.42874,144.53438,33,56,0
144.53438,144.64,45,56,0
144.64,145.015,31,65,0
145.015,145.2025,59,36,0
145.015,145.2025,55,30,0
145.2025,145.39,59,36,0
145.2025,145.39,55,30,0
145.39,145.5775,59,40,0
145.39,145.5775,55,34,0
145.5775,145.76155,59,38,0
145.5775,145.76155,55,32,0
145.76155,145.9456,59,38,0
145.76155,145.9456,55,32,0
145.9456,146.13316,59,38,0
145.9456,146.13316,55,32,0
146.13316,146.50127,60,44,0
146.13316,146.50127,55,37,0
146.50127,146.69357,59,41,0
146.50127,146.69357,55,34,0
146.8765,147.05989,68,41,0
146.8765,147.05989,74,41,0
147.05989,147.2438,68,38,0
147.05989,147.2438,74,38,0
147.2438,147.42822,68,44,0
147.2438,147.42822,74,44,0
147.42822,147.61404,74,41,0
147.42822,147.61404,68,41,0
147.61404,147.9799,72,50,0
147.61404,147.9799,69,50,0
148.35274,148.53558,66,41,0
148.35274,148.53558,72,41,0
148.53558,148.71892,66,38,0
148.53558,148.71892,72,38,0
148.71892,148.90279,66,44,0
148.71892,148.90279,72,44,0
148.90279,149.08832,72,41,0
148.90279,149.08832,66,41,0
149.08832,149.45416,71,50,0
149.08832,149.45416,67,50,0
151.68202,152.04239,67,34,0
151.68202,152.04239,64,34,0
152.40823,152.4997,63,45,0
152.4997,152.59117,67,38,0
152.59117,152.68263,63,45,0
152.68263,152.7741,67,38,0
152.7741,152.86555,63,45,0
152.86555,152.95702,67,39,0
152.95702,153.05379,63,45,0
153.05379,153.15057,67,39,0
153.15057,153.52153,66,50,0
153.15057,153.52153,62,50,0
153.52153,153.8925,67,46,0
153.8925,154.26521,72,49,0
153.8925,154.26521,60,49,0
154.26521,154.63733,72,47,0
154.26521,154.63733,62,47,0
154.63733,154.82362,71,47,0
154.63733,154.82362,67,39,0
154.82362,155.00923,71,40,0
154.82362,155.00923,67,34,0
155.00923,155.19418,71,43,0
155.00923,155.19418,67,36,0
155.19418,155.3823,71,40,0
155.19418,155.3823,67,34,0
155.3823,155.56862,72,43,0
155.3823,155.56862,67,36,0
155.56862,155.75496,72,37,0
155.56862,155.75496,67,31,0
155.75496,155.9413,72,43,0
155.75496,155.9413,67,36,0
155.9413,156.12886,72,37,0
155.9413,156.12886,67,31,0
156.12886,156.31516,71,47,0
156.12886,156.31516,67,39,0
156.31516,156.50076,71,40,0
156.31516,156.50076,67,34,0
156.50076,156.68571,71,43,0
156.50076,156.68571,67,36,0
156.68571,156.87383,71,40,0
156.68571,156.87383,67,34,0
156.87383,157.06015,72,43,0
156.87383,157.06015,67,36,0
157.06015,157.24649,72,37,0
157.06015,157.24649,67,31,0
157.24649,157.43283,72,43,0
157.24649,157.43283,67,36,0
157.43283,157.62039,72,37,0
157.43283,157.62039,67,31,0
157.62039,157.99895,71,47,0
157.62039,157.99895,67,39,0
158.09358,158.18822,67,56,0
158.18822,158.28285,62,55,0
158.28285,158.37749,59,54,0
158.37749,158.56677,55,60,0
159.1346,159.22578,58,45,0
159.22578,159.31696,65,39,0
159.31696,159.40814,62,45,0
159.40814,159.49933,65,38,0
159.49933,159.59052,58,45,0
159.59052,159.6817,65,41,0
159.6817,159.78444,62,45,0
159.78444,159.88719,65,39,0
159.88719,159.98718,60,45,0
159.98718,160.08719,65,39,0
160.08719,160.18211,63,45,0
160.18211,160.27705,65,39,0
160.27705,160.372,60,45,0
160.372,160.46693,65,41,0
160.46693,160.56187,63,45,0
160.56187,160.6568,65,40,0
160.6568,160.74799,58,45,0
160.74799,160.83917,65,40,0
160.83917,160.93036,62,45,0
160.93036,161.02155,65,40,0
161.02155,161.11273,58,45,0
161.11273,161.20392,65,40,0
161.20392,161.3103,62,45,0
161.3103,161.41669,65,39,0
161.41669,161.51668,57,45,0
161.51668,161.61668,62,39,0
161.61668,161.71315,60,45,0
161.71315,161.80962,62,41,0
161.80962,161.90607,57,45,0
161.90607,162.00253,62,40,0
162.00253,162.099,60,45,0
162.099,162.19547,62,40,0
162.19547,162.28583,55,45,0
162.28583,162.37619,62,40,0
162.37619,162.46655,58,45,0
162.46655,162.55692,62,39,0
162.55692,162.64726,55,45,0
162.64726,162.73763,62,40,0
162.73763,162.84073,58,45,0
162.84073,162.94382,62,40,0
162.94382,163.04382,51,45,0
163.04382,163.14381,55,39,0
163.14381,163.24382,54,45,0
163.24382,163.34381,55,39,0
163.34381,163.44382,51,45,0
163.44382,163.54382,55,39,0
163.54382,163.64381,54,45,0
163.64381,163.74382,55,39,0
163.74382,164.10526,50,58,0
164.522,164.62764,38,58,0
164.62764,164.73328,50,57,0
164.73328,164.83891,36,57,0
164.83891,164.94455,48,56,0
164.94455,165.05017,35,56,0
165.05017,165.1558,47,55,0
165.1558,165.26144,33,55,0
165.26144,165.36708,45,56,0
165.36708,165.74208,31,65,0
165.74208,165.92958,59,36,0
165.74208,165.92958,55,30,0
165.92958,166.11708,59,36,0
165.92958,166.11708,55,30,0
166.11708,166.30458,59,40,0
166.11708,166.30458,55,34,0
166.30458,166.48863,59,38,0
166.30458,166.48863,55,32,0
166.48863,166.67268,59,38,0
166.48863,166.67268,55,32,0
166.67268,166.86024,59,38,0
166.67268,166.86024,55,32,0
166.86024,167.22835,60,44,0
166.86024,167.22835,55,37,0
167.22835,167.42065,59,41,0
167.22835,167.42065,55,34,0
167.60358,167.69522,68,41,0
167.60358,167.69522,74,41,0
167.78697,167.87885,68,38,0
167.78697,167.87885,74,38,0
167.97087,168.063,68,44,0
167.97087,168.063,74,44,0
168.1553,168.24767,74,41,0
168.1553,168.24767,68,41,0
168.34111,168.70697,72,50,0
168.34111,168.70697,69,50,0
169.07982,169.17119,66,41,0
169.07982,169.17119,72,41,0
169.26265,169.35425,66,38,0
169.26265,169.35425,72,38,0
169.446,169.53784,66,44,0
169.446,169.53784,72,44,0
169.62985,169.72194,72,41,0
169.62985,169.72194,66,41,0
169.81538,170.18124,71,50,0
169.81538,170.18124,67,50,0
172.4091,172.76945,67,34,0
172.4091,172.76945,64,34,0
173.13531,173.22678,63,45,0
173.22678,173.31824,67,38,0
173.31824,173.4097,63,45,0
173.4097,173.50116,67,38,0
173.50116,173.59264,63,45,0
173.59264,173.6841,67,39,0
173.6841,173.78087,63,45,0
173.78087,173.87764,67,39,0
173.87764,174.24861,66,50,0
173.87764,174.24861,62,50,0
174.24861,174.61957,67,46,0
174.61957,174.9923,72,49,0
174.61957,174.9923,60,49,0
174.9923,175.36441,72,47,0
174.9923,175.36441,62,47,0
175.36441,175.55069,71,47,0
175.36441,175.55069,67,39,0
175.55069,175.73631,71,40,0
175.55069,175.73631,67,34,0
175.73631,175.92125,71,43,0
175.73631,175.92125,67,36,0
175.92125,176.10936,71,40,0
175.92125,176.10936,67,34,0
176.10936,176.2957,72,43,0
176.10936,176.2957,67,36,0
176.2957,176.48204,72,37,0
176.2957,176.48204,67,31,0
176.48204,176.66837,72,43,0
176.48204,176.66837,67,36,0
176.66837,176.85594,72,37,0
176.66837,176.85594,67,31,0
176.85594,177.04222,71,47,0
176.85594,177.04222,67,39,0
177.04222,177.22784,71,40,0
177.04222,177.22784,67,34,0
177.22784,177.4128,71,43,0
177.22784,177.4128,67,36,0
177.4128,177.60089,71,40,0
177.4128,177.60089,67,34,0
177.60089,177.78723,72,43,0
177.60089,177.78723,67,36,0
177.78723,177.97357,72,37,0
177.78723,177.97357,67,31,0
177.97357,178.1599,72,43,0
177.97357,178.1599,67,36,0
178.1599,178.34756,72,37,0
178.1599,178.34756,67,31,0
178.34756,178.73067,71,47,0
178.34756,178.73067,67,39,0
178.82693,178.9245,67,56,0
178.9245,179.02365,62,55,0
179.02365,179.12718,59,54,0
179.12718,179.34206,55,60,0
