start_time,end_time,note_value,velocity,instrument_program_number
1.5789475,1.914143,67,46,0
1.914143,2.4667747,67,49,0
2.4667747,2.545722,71,47,0
2.545722,2.8683026,69,47,0
2.8683026,3.1808026,62,49,0
3.1808026,3.4933026,64,45,0
3.4933026,3.6495526,66,45,0
3.6495526,3.688615,67,45,0
3.688615,3.7276776,66,45,0
3.7276776,3.76674,64,45,0
3.76674,3.8058026,66,45,0
3.8058026,3.9242237,67,46,0
4.121592,4.240013,67,45,0
4.4373813,4.5558023,67,45,0
4.753171,5.393285,67,45,0
5.393285,5.62766,69,45,0
5.62766,5.705785,72,45,0
5.393285,5.705785,62,45,0
5.705785,6.0119076,71,49,0
6.0119076,6.31803,69,45,0
6.31803,6.6225986,71,45,0
5.705785,6.6225986,62,41,0
6.6225986,6.928721,74,49,0
6.928721,7.2378674,72,45,0
6.6225986,7.2378674,66,44,0
7.2378674,7.553657,71,45,0
7.2378674,7.553657,67,45,0
6.6225986,7.553657,62,36,0
7.553657,7.8597794,71,47,0
7.553657,7.8597794,67,47,0
7.8597794,8.164348,69,45,0
7.8597794,8.164348,66,45,0
8.164348,8.468916,69,45,0
8.164348,8.468916,66,45,0
8.468916,9.090678,69,45,0
8.468916,9.090678,66,45,0
9.090678,9.398371,71,46,0
9.090678,9.398371,68,46,0
9.398371,9.706063,72,49,0
9.398371,9.706063,69,49,0
9.706063,10.013756,74,51,0
9.706063,10.013756,71,51,0
10.013756,10.326256,76,51,0
10.013756,10.326256,72,51,0
10.326256,10.961177,76,51,0
10.326256,10.961177,72,51,0
10.961177,11.063218,72,52,0
11.063218,11.167838,71,42,0
11.167838,11.280198,72,44,0
10.961177,11.280198,69,52,0
11.280198,11.58632,71,50,0
11.280198,11.58632,67,50,0
11.58632,11.892443,72,49,0
11.58632,11.892443,69,49,0
11.892443,12.1985655,74,49,0
11.892443,12.1985655,71,49,0
12.1985655,12.504687,72,51,0
12.504687,12.809257,74,51,0
12.809257,13.113825,76,51,0
13.113825,13.423103,74,53,0
12.1985655,13.423103,67,51,0
13.423103,13.732382,79,57,0
13.732382,14.04166,79,57,0
14.04166,14.194721,81,60,0
14.194721,14.347783,79,53,0
14.347783,14.500844,78,57,0
14.500844,14.653905,76,50,0
14.653905,14.806967,74,55,0
14.806967,14.9783945,73,49,0
14.9783945,15.308065,76,47,0
15.308065,15.639557,74,44,0
15.639557,15.971048,74,44,0
15.971048,16.468287,74,44,0
16.468287,16.634031,71,44,0
16.634031,16.799778,72,44,0
16.799778,16.965523,69,44,0
16.965523,17.518154,67,49,0
17.518154,17.597101,71,47,0
17.597101,17.919682,69,47,0
17.919682,18.232182,62,49,0
18.232182,18.544682,64,45,0
18.544682,18.700932,66,45,0
18.700932,18.739994,67,45,0
18.739994,18.779057,66,45,0
18.779057,18.81812,64,45,0
18.81812,18.857182,66,45,0
18.857182,18.975603,67,46,0
19.172972,19.291393,67,45,0
19.488762,19.607182,67,45,0
19.80455,20.444664,67,45,0
20.444664,20.679039,69,45,0
20.679039,20.757164,72,45,0
20.444664,20.757164,62,45,0
20.757164,21.063288,71,49,0
21.063288,21.36941,69,45,0
21.36941,21.673979,71,45,0
20.757164,21.673979,62,41,0
21.673979,21.9801,74,49,0
21.9801,22.289248,72,45,0
21.673979,22.289248,66,44,0
22.289248,22.603384,71,45,0
22.289248,22.603384,67,45,0
21.673979,22.603384,62,36,0
22.603384,22.909506,71,47,0
22.603384,22.909506,67,47,0
22.909506,23.214075,69,45,0
22.909506,23.214075,66,45,0
23.214075,23.518642,69,45,0
23.214075,23.518642,66,45,0
23.518642,24.140406,69,45,0
23.518642,24.140406,66,45,0
24.140406,24.448097,71,46,0
24.140406,24.448097,68,46,0
24.448097,24.755789,72,49,0
24.448097,24.755789,69,49,0
24.755789,25.063482,74,51,0
24.755789,25.063482,71,51,0
25.063482,25.375982,76,51,0
25.063482,25.375982,72,51,0
25.375982,26.010902,76,51,0
25.375982,26.010902,72,51,0
26.010902,26.113468,72,53,0
26.113468,26.22093,71,46,0
26.22093,26.333288,72,46,0
26.010902,26.333288,69,53,0
26.333288,26.639412,71,50,0
26.333288,26.639412,67,50,0
26.639412,26.945534,72,49,0
26.639412,26.945534,69,49,0
26.945534,27.251656,74,49,0
26.945534,27.251656,71,49,0
27.251656,27.55778,72,51,0
27.55778,27.862347,74,51,0
27.862347,28.166916,76,51,0
28.166916,28.476194,74,53,0
27.251656,28.476194,67,51,0
28.476194,28.785473,79,57,0
28.785473,29.094751,79,57,0
29.094751,29.247812,81,60,0
29.247812,29.400873,79,53,0
29.400873,29.553934,78,57,0
29.553934,29.706997,76,52,0
29.706997,29.860058,74,55,0
29.860058,30.031487,73,47,0
30.031487,30.361156,76,47,0
30.361156,30.692648,74,44,0
30.692648,31.02414,74,44,0
31.02414,31.77414,74,44,0
31.77414,32.168877,79,53,0
32.168877,32.7458,79,53,0
32.7458,32.828217,83,47,0
32.828217,33.163414,81,51,0
33.163414,33.469536,79,53,0
33.469536,33.775658,78,49,0
33.775658,34.08654,76,49,0
34.08654,34.20622,74,50,0
34.40569,34.525368,74,47,0
34.72484,34.844517,74,47,0
35.043987,35.682285,74,47,0
35.682285,35.994785,75,51,0
35.994785,36.313934,76,52,0
36.313934,36.473507,78,54,0
36.473507,36.5134,79,45,0
36.5134,36.553295,78,45,0
36.553295,36.59319,76,45,0
36.59319,36.633083,78,45,0
36.633083,36.952232,79,57,0
36.952232,37.276554,69,52,0
37.276554,37.60088,71,50,0
37.60088,37.766624,73,46,0
37.766624,37.808064,74,39,0
37.808064,37.8495,73,39,0
37.8495,37.890934,71,39,0
37.890934,37.932373,73,39,0
37.932373,38.098118,74,46,0
38.58819,38.75035,74,42,0
38.912514,39.074673,74,43,0
39.56116,39.723324,74,42,0
39.885487,40.04765,74,45,0
40.534134,40.696297,74,44,0
40.85846,41.020622,74,45,0
41.507107,41.66927,74,41,0
41.831432,41.993595,74,43,0
42.155758,42.48008,78,37,0
42.155758,42.48008,74,37,0
42.48008,42.804405,79,36,0
42.48008,42.804405,76,36,0
43.12873,43.453056,78,37,0
43.12873,43.453056,81,37,0
43.453056,43.777378,83,36,0
43.453056,43.777378,79,36,0
44.101704,44.42603,84,40,0
44.101704,44.42603,81,40,0
44.42603,44.750355,79,36,0
44.42603,44.750355,83,36,0
45.074677,45.425556,81,47,0
45.074677,45.425556,72,47,0
45.425556,45.901745,79,47,0
45.425556,45.901745,71,47,0
45.901745,48.0446,78,45,0
45.901745,48.0446,72,45,0
48.0446,48.157955,71,43,0
48.157955,48.26962,72,45,0
48.26962,48.379913,74,47,0
48.379913,48.490208,72,45,0
48.490208,48.6005,71,45,0
48.6005,48.710793,69,44,0
48.710793,49.263428,67,49,0
49.263428,49.342373,71,47,0
49.342373,49.664955,69,47,0
49.664955,49.977455,62,49,0
49.977455,50.289955,64,45,0
50.289955,50.446205,66,45,0
50.446205,50.498287,67,45,0
50.485268,50.53735,66,45,0
50.52433,50.576412,64,45,0
50.563393,50.602455,66,45,0
50.602455,50.720875,67,46,0
50.918243,51.036663,67,45,0
51.23403,51.352455,67,45,0
51.549824,52.189938,67,45,0
52.189938,52.424313,69,45,0
52.424313,52.502438,72,45,0
52.189938,52.502438,62,45,0
52.502438,52.80856,71,49,0
52.80856,53.11468,69,45,0
53.11468,53.41925,71,45,0
52.502438,53.41925,62,41,0
53.41925,53.725372,74,49,0
53.725372,54.03452,72,45,0
53.41925,54.03452,66,44,0
54.03452,54.350307,71,45,0
54.03452,54.350307,67,45,0
53.41925,54.350307,62,36,0
54.350307,54.65643,71,47,0
54.350307,54.65643,67,47,0
54.65643,54.961,69,45,0
54.65643,54.961,66,45,0
54.961,55.265568,69,45,0
54.961,55.265568,66,45,0
55.265568,55.88733,69,45,0
55.265568,55.88733,66,45,0
55.88733,56.195023,71,46,0
55.88733,56.195023,68,46,0
56.195023,56.502716,72,49,0
56.195023,56.502716,69,49,0
56.502716,56.810406,74,51,0
56.502716,56.810406,71,51,0
56.810406,57.122906,76,51,0
56.810406,57.122906,72,51,0
57.122906,57.757828,76,51,0
57.122906,57.757828,72,51,0
57.757828,57.91327,72,45,0
57.91327,57.96508,74,43,0
57.95213,58.00394,72,43,0
57.99099,58.0428,71,43,0
57.757828,58.06871,69,45,0
58.02985,58.081463,72,43,0
58.06871,58.374832,71,46,0
58.06871,58.374832,67,46,0
58.374832,58.680954,72,45,0
58.374832,58.680954,69,45,0
58.680954,58.84053,74,45,0
58.680954,58.84053,71,45,0
58.84053,58.895172,73,45,0
58.895172,58.949818,74,45,0
58.949818,59.008297,76,45,0
59.008297,59.620544,74,47,0
59.008297,59.620544,71,47,0
59.620544,59.773605,67,40,0
59.773605,59.824623,69,36,0
59.81187,59.86289,67,36,0
59.850136,59.901154,66,36,0
59.8884,59.926666,67,36,0
59.620544,59.926666,59,40,0
59.926666,60.232788,69,44,0
59.926666,60.232788,60,44,0
60.232788,60.53891,72,41,0
60.232788,60.53891,64,41,0
60.53891,60.84503,71,41,0
60.53891,60.84503,62,41,0
60.84503,61.000473,69,44,0
61.000473,61.039333,71,36,0
61.039333,61.078194,69,36,0
61.078194,61.117054,67,36,0
61.117054,61.155914,69,36,0
60.84503,61.155914,60,44,0
61.155914,61.510944,67,40,0
61.155914,61.510944,59,40,0
61.510944,61.688457,66,35,0
61.688457,61.74763,67,35,0
61.732838,61.792007,66,35,0
61.777214,61.836388,64,35,0
61.510944,61.865974,57,35,0
61.821594,61.882206,66,35,0
61.865974,62.255585,69,39,0
61.865974,62.255585,60,39,0
62.255585,62.645195,67,30,0
62.255585,62.645195,59,30,0
62.645195,63.034805,67,30,0
62.645195,63.034805,59,30,0
63.034805,63.814026,67,30,0
63.034805,63.814026,59,30,0
63.814026,64.2426,79,53,0
64.2426,64.81952,79,53,0
64.81952,64.90194,83,51,0
64.90194,65.23714,81,51,0
65.23714,65.54326,79,53,0
65.54326,65.84938,78,49,0
65.84938,66.160255,76,49,0
66.160255,66.27994,74,50,0
66.47941,66.59909,74,47,0
66.79855,66.918236,74,47,0
67.11771,67.756004,74,47,0
67.756004,68.068504,75,51,0
68.068504,68.38765,76,52,0
68.38765,68.547226,78,54,0
68.547226,68.60042,79,45,0
68.58712,68.64031,78,45,0
68.627014,68.68021,76,45,0
68.66691,68.7201,78,45,0
68.7068,69.02595,79,57,0
69.02595,69.35027,69,52,0
69.35027,69.6746,71,50,0
69.6746,69.84035,73,46,0
69.84035,69.89559,74,39,0
69.88178,69.937035,73,39,0
69.92322,69.97847,71,39,0
69.96465,70.019905,73,39,0
70.00609,70.17184,74,46,0
70.66191,70.824066,74,42,0
70.98623,71.14839,74,43,0
71.63488,71.79704,74,42,0
71.959206,72.12137,74,45,0
72.60786,72.77002,74,44,0
72.93218,73.094345,74,45,0
73.580826,73.74299,74,41,0
73.90515,74.067314,74,43,0
74.22948,74.5538,78,37,0
74.22948,74.5538,74,37,0
74.5538,74.87813,79,36,0
74.5538,74.87813,76,36,0
75.20245,75.52677,78,37,0
75.20245,75.52677,81,37,0
75.52677,75.8511,83,36,0
75.52677,75.8511,79,36,0
76.17542,76.49975,84,40,0
76.17542,76.49975,81,40,0
76.49975,76.82407,79,36,0
76.49975,76.82407,83,36,0
77.1484,77.499275,81,47,0
77.1484,77.499275,72,47,0
77.499275,77.975464,79,47,0
77.499275,77.975464,71,47,0
77.975464,80.118324,78,45,0
77.975464,80.118324,72,45,0
80.118324,80.231674,71,43,0
80.231674,80.34334,72,45,0
80.34334,80.45363,74,47,0
80.45363,80.56393,72,45,0
80.56393,80.67422,71,45,0
80.67422,80.784515,69,44,0
80.784515,81.33714,67,49,0
81.33714,81.41609,71,47,0
81.41609,81.73867,69,47,0
81.73867,82.05117,62,49,0
82.05117,82.36367,64,45,0
82.36367,82.51992,66,45,0
82.51992,82.57201,67,45,0
82.55898,82.61107,66,45,0
82.598045,82.65013,64,45,0
82.63711,82.68933,66,45,0
82.67617,82.79459,67,46,0
82.99197,83.11038,67,45,0
83.307755,83.42617,67,45,0
83.62354,84.26366,67,45,0
84.26366,84.49803,69,45,0
84.49803,84.57616,72,45,0
84.26366,84.57616,62,45,0
84.57616,84.88228,71,49,0
84.88228,85.1884,69,45,0
85.1884,85.49297,71,45,0
84.57616,85.49297,62,41,0
85.49297,85.799095,74,49,0
85.799095,86.10824,72,45,0
85.49297,86.10824,66,44,0
86.10824,86.42403,71,45,0
86.10824,86.42403,67,45,0
85.49297,86.42403,62,36,0
86.42403,86.73015,71,47,0
86.42403,86.73015,67,47,0
86.73015,87.03472,69,45,0
86.73015,87.03472,66,45,0
87.03472,87.33929,69,45,0
87.03472,87.33929,66,45,0
87.33929,87.96105,69,45,0
87.33929,87.96105,66,45,0
87.96105,88.268745,71,46,0
87.96105,88.268745,68,46,0
88.268745,88.57643,72,49,0
88.268745,88.57643,69,49,0
88.57643,88.884125,74,51,0
88.57643,88.884125,71,51,0
88.884125,89.196625,76,51,0
88.884125,89.196625,72,51,0
89.196625,89.83155,76,51,0
89.196625,89.83155,72,51,0
89.83155,89.98699,72,45,0
89.98699,90.0388,74,43,0
90.02585,90.07766,72,43,0
90.06471,90.11652,71,43,0
89.83155,90.142426,69,45,0
90.10357,90.15518,72,43,0
90.142426,90.448555,71,46,0
90.142426,90.448555,67,46,0
90.448555,90.75468,72,45,0
90.448555,90.75468,69,45,0
90.75468,90.914246,74,45,0
90.75468,90.914246,71,45,0
90.914246,90.968895,73,45,0
90.968895,91.02354,74,45,0
91.02354,91.082016,76,45,0
91.082016,91.69426,74,47,0
91.082016,91.69426,71,47,0
91.69426,91.84732,67,40,0
91.84732,91.898346,69,36,0
91.88559,91.93661,67,36,0
91.92385,91.97488,66,36,0
91.69426,92.00039,59,40,0
91.96212,92.01314,67,36,0
92.00039,92.30651,69,44,0
92.00039,92.30651,60,44,0
92.30651,92.61263,72,41,0
92.30651,92.61263,64,41,0
92.61263,92.918755,71,41,0
92.61263,92.918755,62,41,0
92.918755,93.074196,69,44,0
93.074196,93.11305,71,36,0
93.11305,93.15192,69,36,0
93.15192,93.19077,67,36,0
93.19077,93.22964,69,36,0
92.918755,93.22964,60,44,0
93.22964,93.58466,67,40,0
93.22964,93.58466,59,40,0
93.58466,93.76218,66,35,0
93.76218,93.82135,67,35,0
93.80656,93.86573,66,35,0
93.85094,93.91011,64,35,0
93.58466,93.93969,57,35,0
93.89532,93.955925,66,35,0
93.93969,94.3293,69,39,0
93.93969,94.3293,60,39,0
94.3293,94.71891,67,30,0
94.3293,94.71891,59,30,0
94.71891,95.10853,67,30,0
94.71891,95.10853,59,30,0
95.10853,95.88775,67,30,0
95.10853,95.88775,59,30,0
95.88775,96.05258,74,41,0
96.217415,96.38225,74,41,0
96.876755,97.041595,75,44,0
97.20643,97.37126,75,44,0
97.86577,98.0306,78,46,0
98.19544,98.360275,78,46,0
98.85478,99.019615,79,56,0
99.18445,99.344025,79,56,0
99.84258,100.16173,73,72,0
99.84258,100.48088,82,72,0
100.48088,100.80875,81,69,0
100.16173,100.80875,74,72,0
100.80875,101.1279,73,72,0
100.80875,101.447044,82,72,0
101.447044,101.77854,81,68,0
101.1279,101.77854,74,72,0
101.77854,101.93811,80,77,0
101.93811,102.0046,81,67,0
101.9913,102.05779,80,69,0
102.044495,102.110985,78,69,0
102.09769,102.41684,80,79,0
102.41684,102.57473,81,69,0
102.73263,102.89052,81,69,0
103.36756,103.52381,83,69,0
103.68006,103.83631,83,69,0
104.311714,104.65853,69,44,0
104.65853,105.005356,69,44,0
105.005356,105.34821,69,45,0
105.34821,105.69107,71,39,0
105.69107,106.08323,73,39,0
106.08323,107.222466,73,35,0
107.222466,107.60222,74,33,0
107.981964,108.17184,74,41,0
108.33667,108.5015,74,41,0
108.99601,109.16085,75,44,0
109.32568,109.49052,75,44,0
109.98502,110.14986,78,46,0
110.3147,110.47953,78,46,0
110.97404,111.13887,79,56,0
111.3037,111.46328,79,56,0
111.96184,112.28098,73,72,0
111.96184,112.600136,82,72,0
112.600136,112.928,81,66,0
112.28098,112.928,74,72,0
112.928,113.247154,73,72,0
112.928,113.5663,82,72,0
113.5663,113.8978,81,66,0
113.247154,113.8978,74,72,0
113.8978,114.057365,80,77,0
114.057365,114.123856,81,64,0
114.11056,114.17705,80,64,0
114.16375,114.23024,78,65,0
114.21694,114.536095,80,81,0
114.536095,114.693985,81,67,0
114.85188,115.00977,81,67,0
115.48682,115.64307,83,77,0
115.79932,115.95557,83,77,0
116.43097,116.77779,69,44,0
116.77779,117.12461,69,44,0
117.12461,117.46747,69,45,0
117.46747,117.810326,71,39,0
117.810326,118.202484,73,39,0
118.202484,119.34172,73,35,0
119.34172,119.721466,74,33,0
120.10122,120.49083,74,36,0
120.49083,120.84797,74,37,0
121.20512,121.5441,67,37,0
121.5441,121.88308,72,39,0
122.24022,122.57921,66,37,0
122.57921,122.91819,70,39,0
123.27747,123.61838,61,44,0
123.61838,123.95929,62,45,0
124.287155,124.60631,67,70,0
124.287155,124.92545,79,70,0
124.92545,125.25333,78,69,0
124.60631,125.25333,69,58,0
125.25333,125.57247,67,58,0
125.25333,125.891624,79,70,0
125.891624,126.223114,78,67,0
125.57247,126.223114,69,58,0
126.223114,126.6258,79,73,0
126.223114,126.6258,67,58,0
126.6258,128.02931,81,74,0
126.6258,128.02931,72,63,0
126.6258,128.02931,75,63,0
126.6258,128.02931,78,74,0
128.02931,128.37216,82,44,0
128.02931,128.37216,74,44,0
128.37216,128.71503,74,44,0
128.37216,129.0659,82,44,0
129.0659,129.40875,81,44,0
129.40875,130.1025,81,44,0
128.71503,130.1025,75,44,0
130.1025,130.4871,79,41,0
130.1025,130.4871,74,41,0
130.4871,130.87172,78,37,0
130.4871,130.87172,72,37,0
130.87172,132.07172,78,35,0
130.87172,132.07172,72,35,0
132.07172,132.44908,79,33,0
132.07172,132.44908,70,33,0
132.82643,133.21605,74,36,0
133.21605,133.5732,74,37,0
133.93033,134.26932,67,37,0
134.26932,134.60829,72,39,0
134.96544,135.30443,66,37,0
135.30443,135.6434,70,39,0
136.00269,136.3436,61,44,0
136.3436,136.68451,62,45,0
137.01237,137.3265,67,58,0
137.01237,137.64397,79,70,0
137.64397,137.97185,78,69,0
137.3265,137.97185,69,58,0
137.97185,138.29099,67,58,0
137.97185,138.60349,79,70,0
138.60349,138.93498,78,67,0
138.29099,138.93498,69,58,0
138.93498,139.33766,79,73,0
138.93498,139.33766,67,58,0
139.33766,140.74118,81,74,0
139.33766,140.74118,72,63,0
139.33766,140.74118,75,63,0
139.33766,140.74118,78,74,0
140.74118,141.08403,82,44,0
140.74118,141.08403,74,44,0
141.08403,141.4269,74,44,0
141.08403,141.77777,82,44,0
141.77777,142.12062,81,44,0
142.12062,142.81436,81,44,0
141.4269,142.81436,75,44,0
142.81436,143.19897,79,41,0
142.81436,143.19897,74,41,0
143.19897,143.6245,78,37,0
143.19897,143.6245,72,37,0
143.6245,144.82451,78,35,0
143.6245,144.82451,72,35,0
144.82451,145.2245,79,33,0
144.82451,145.2245,70,33,0
145.6245,146.0245,67,46,0
146.0245,146.57713,67,49,0
146.57713,146.65608,71,47,0
146.65608,146.97694,69,47,0
146.97694,147.28464,62,49,0
147.28464,147.43134,63,45,0
147.43134,147.57639,64,45,0
147.57639,147.72168,65,45,0
147.72168,147.8722,66,45,0
147.8722,148.18227,67,46,0
148.18227,148.49559,67,45,0
148.49559,148.81235,67,45,0
148.81235,149.38379,67,45,0
149.38379,149.60118,69,45,0
149.60118,149.67363,72,45,0
149.38379,149.67363,62,45,0
149.67363,149.81718,71,49,0
149.81718,149.96072,70,47,0
149.96072,150.10358,71,49,0
150.10358,150.24643,70,46,0
150.24643,150.38861,71,49,0
150.38861,150.54904,74,46,0
149.67363,150.54904,62,49,0
150.54904,150.86317,74,49,0
150.86317,151.16318,72,45,0
150.54904,151.16318,66,44,0
151.16318,151.46318,71,45,0
151.16318,151.46318,67,45,0
150.54904,151.46318,62,44,0
151.46318,151.7693,71,47,0
151.46318,151.7693,67,47,0
151.7693,152.07542,69,45,0
151.7693,152.07542,66,45,0
152.07542,152.38155,69,45,0
152.07542,152.38155,66,45,0
152.38155,152.9756,69,45,0
152.38155,152.9756,66,45,0
152.9756,153.2881,71,46,0
152.9756,153.2881,68,46,0
153.2881,153.6006,72,49,0
153.2881,153.6006,69,49,0
153.6006,153.9131,74,51,0
153.6006,153.9131,71,51,0
153.9131,154.2289,76,51,0
153.9131,154.2289,72,51,0
154.2289,154.82016,76,51,0
154.2289,154.82016,72,51,0
154.82016,154.96794,74,47,0
154.82016,154.96794,71,47,0
154.96794,155.11548,72,47,0
154.96794,155.11548,69,47,0
155.11548,155.26326,71,49,0
155.26326,155.41045,72,45,0
155.41045,155.55702,71,49,0
155.55702,155.70302,72,45,0
155.70302,155.8484,71,49,0
155.8484,155.99323,74,45,0
155.99323,156.29472,72,51,0
156.29472,156.604,74,51,0
156.604,156.91328,76,51,0
156.91328,157.22742,74,53,0
157.22742,157.53316,79,57,0
157.53316,157.83928,79,57,0
157.83928,157.99472,81,60,0
157.99472,158.15016,79,59,0
158.15016,158.3056,78,57,0
158.3056,158.46104,76,56,0
158.46104,158.61649,74,55,0
158.61649,158.77953,73,54,0
158.77953,159.10919,76,47,0
159.10919,159.4444,74,44,0
159.4444,159.77959,74,41,0
159.77959,160.28238,74,41,0
160.28238,160.44632,71,44,0
160.44632,160.61024,72,44,0
160.61024,160.77419,69,44,0
160.77419,161.32681,67,49,0
161.32681,161.40576,71,47,0
161.40576,161.72662,69,47,0
161.72662,162.03432,62,49,0
162.03432,162.18102,63,45,0
162.18102,162.32607,64,45,0
162.32607,162.47255,65,45,0
162.47255,162.62564,66,45,0
162.62564,162.93977,67,46,0
162.93977,163.2539,67,45,0
163.2539,163.56804,67,45,0
163.56804,164.13947,67,45,0
164.13947,164.35686,69,45,0
164.35686,164.42932,72,45,0
164.13947,164.42932,62,45,0
164.42932,164.57286,71,49,0
164.57286,164.71642,70,47,0
164.71642,164.85927,71,49,0
164.85927,165.00212,70,46,0
165.00212,165.1443,71,49,0
165.1443,165.30473,74,46,0
164.42932,165.30473,62,49,0
165.30473,165.61887,74,49,0
165.61887,165.91443,72,45,0
165.30473,165.91443,66,44,0
165.91443,166.21594,71,45,0
165.91443,166.21594,67,45,0
165.30473,166.21594,62,44,0
166.21594,166.52682,71,47,0
166.21594,166.52682,67,47,0
166.52682,166.8377,69,45,0
166.52682,166.8377,66,45,0
166.8377,167.14859,69,45,0
166.8377,167.14859,66,45,0
167.14859,167.73972,69,45,0
167.14859,167.73972,66,45,0
167.73972,168.0506,71,46,0
167.73972,168.0506,68,46,0
168.0506,168.36148,72,49,0
168.0506,168.36148,69,49,0
168.36148,168.67236,74,51,0
168.36148,168.67236,71,51,0
168.67236,168.98982,76,51,0
168.67236,168.98982,72,51,0
168.98982,169.57959,76,51,0
168.98982,169.57959,72,51,0
169.57959,169.72665,74,47,0
169.57959,169.72665,71,47,0
169.72665,169.8737,72,47,0
169.72665,169.8737,69,47,0
169.8737,170.02148,71,49,0
170.02148,170.16855,72,45,0
170.16855,170.3149,71,49,0
170.3149,170.46053,72,45,0
170.46053,170.60545,71,49,0
170.60545,170.75038,74,45,0
170.75038,171.04594,72,51,0
171.04594,171.34445,74,51,0
171.34445,171.64902,76,51,0
171.64902,171.95671,74,53,0
171.95671,172.25974,79,57,0
172.25974,172.56277,79,57,0
172.56277,172.71506,81,60,0
172.71506,172.86734,79,59,0
172.86734,173.01962,78,57,0
173.01962,173.1719,76,56,0
173.1719,173.32419,74,55,0
173.32419,173.48724,73,54,0
173.48724,173.81873,76,47,0
173.81873,174.1484,74,44,0
174.1484,174.47807,74,41,0
174.47807,174.80774,74,41,0
175.1374,175.47075,79,53,0
175.47075,176.01762,79,53,0
176.01762,176.09575,83,51,0
176.09575,176.41489,81,51,0
176.41489,176.71193,79,53,0
176.71193,177.00896,78,49,0
177.00896,177.31352,76,49,0
177.31352,177.62766,74,50,0
177.62766,177.94179,74,47,0
177.94179,178.25594,74,47,0
178.25594,178.87007,74,47,0
178.87007,179.17776,75,51,0
179.17776,179.32481,76,52,0
179.32481,179.47188,75,50,0
179.47188,179.61893,78,52,0
179.61893,179.76599,76,51,0
179.76599,179.91306,79,52,0
179.91306,180.0601,78,51,0
180.0601,180.20717,81,52,0
180.20717,180.35423,79,51,0
180.35423,180.50128,78,51,0
180.50128,180.64835,76,50,0
180.64835,180.79541,74,49,0
180.79541,180.94246,73,47,0
180.94246,181.2455,74,53,0
181.54852,181.8578,74,46,0
181.8578,182.16708,74,51,0
182.47636,182.78564,74,46,0
182.78564,183.09491,74,53,0
183.40419,183.71347,74,46,0
183.71347,184.02275,74,50,0
184.33203,184.64131,74,41,0
184.79594,184.95059,74,41,0
184.95059,185.1021,78,43,0
185.1021,185.25362,74,39,0
185.25362,185.40514,76,41,0
185.40514,185.55664,79,43,0
185.70816,185.85968,78,41,0
185.85968,186.0112,81,43,0
186.0112,186.1627,78,40,0
186.1627,186.31422,79,42,0
186.31422,186.46574,83,44,0
186.61725,186.76877,81,57,0
186.76877,186.91512,84,59,0
186.91512,187.06145,78,54,0
187.06145,187.2078,81,57,0
187.2078,187.35414,72,53,0
187.35414,187.50047,78,56,0
187.50047,187.64682,69,51,0
187.64682,187.79533,72,54,0
187.79533,187.94385,66,49,0
187.94385,188.09537,69,52,0
188.09537,188.26295,60,48,0
188.26295,190.16989,76,50,0
190.16989,190.2523,74,44,0
190.2523,190.33473,72,44,0
190.33473,190.41714,71,44,0
190.41714,190.49956,69,44,0
190.49956,191.0522,67,49,0
191.0522,191.13115,71,47,0
191.13115,191.452,69,47,0
191.452,191.75969,62,49,0
191.75969,191.9064,63,45,0
191.9064,192.05145,64,45,0
192.05145,192.19792,65,45,0
192.19792,192.35101,66,45,0
192.35101,192.66515,67,46,0
192.66515,192.9793,67,45,0
192.9793,193.29343,67,45,0
193.29343,193.86485,67,45,0
193.86485,194.08224,69,45,0
194.08224,194.15471,72,45,0
193.86485,194.15471,62,45,0
194.15471,194.29825,71,49,0
194.29825,194.44179,70,47,0
194.44179,194.58464,71,49,0
194.58464,194.72751,70,46,0
194.72751,194.86969,71,49,0
194.86969,195.0301,74,46,0
194.15471,195.0301,62,49,0
195.0301,195.34425,74,49,0
195.34425,195.63982,72,45,0
195.0301,195.63982,66,44,0
195.63982,195.93538,71,45,0
195.63982,195.93538,67,45,0
195.0301,195.93538,62,44,0
195.93538,196.2415,71,47,0
195.93538,196.2415,67,47,0
196.2415,196.54762,69,45,0
196.2415,196.54762,66,45,0
196.54762,196.85374,69,45,0
196.54762,196.85374,66,45,0
196.85374,197.4478,69,45,0
196.85374,197.4478,66,45,0
197.4478,197.75708,71,46,0
197.4478,197.75708,68,46,0
197.75708,198.06636,72,49,0
197.75708,198.06636,69,49,0
198.06636,198.37564,74,51,0
198.06636,198.37564,71,51,0
198.37564,198.68977,76,51,0
198.37564,198.68977,72,51,0
198.68977,199.29716,76,51,0
198.68977,199.29716,72,51,0
199.29716,199.44792,74,47,0
199.29716,199.44792,71,47,0
199.44792,199.59868,72,47,0
199.44792,199.59868,69,47,0
199.59868,199.90796,71,49,0
199.59868,199.90796,67,49,0
199.90796,200.21724,72,46,0
199.90796,200.21724,69,46,0
200.21724,200.53639,74,46,0
200.21724,200.53639,71,46,0
200.53639,200.84251,67,47,0
200.53639,200.84251,59,47,0
200.84251,201.14864,69,45,0
200.84251,201.14864,60,45,0
201.14864,201.45476,71,45,0
201.14864,201.45476,62,45,0
201.45476,201.76088,69,46,0
201.60782,201.90866,64,46,0
201.76088,202.05644,71,45,0
201.90866,202.21773,62,45,0
202.05644,202.37903,72,45,0
202.21773,202.53447,60,45,0
202.37903,202.68991,72,45,0
202.53447,202.84534,60,45,0
202.68991,203.00078,69,45,0
202.84534,203.16295,60,45,0
203.00078,203.3251,66,43,0
203.3251,204.39883,69,41,0
203.16295,204.39883,60,45,0
204.39883,204.79883,67,31,0
204.39883,204.79883,59,31,0
205.19884,205.53217,79,53,0
205.53217,206.07904,79,53,0
206.07904,206.15717,83,51,0
206.15717,206.47632,81,51,0
206.47632,206.7763,79,53,0
206.7763,207.07631,78,49,0
207.07631,207.38559,76,49,0
207.38559,207.69809,74,50,0
207.69809,208.01059,74,47,0
208.01059,208.32309,74,47,0
208.32309,208.9356,74,47,0
208.9356,209.24016,75,51,0
209.24016,209.38722,76,52,0
209.38722,209.53427,75,50,0
209.53427,209.68134,78,52,0
209.68134,209.8284,76,51,0
209.8284,209.97545,79,52,0
209.97545,210.12251,78,51,0
210.12251,210.26958,81,52,0
210.26958,210.41663,79,51,0
210.41663,210.56369,78,51,0
210.56369,210.71075,76,50,0
210.71075,210.8578,74,49,0
210.8578,211.00487,73,47,0
211.00487,211.30789,74,52,0
211.61093,211.92021,74,45,0
211.92021,212.22948,74,49,0
212.53876,212.84804,74,46,0
212.84804,213.15732,74,51,0
213.4666,213.77588,74,45,0
213.77588,214.08516,74,50,0
214.39444,214.7037,74,41,0
214.85835,215.01299,74,41,0
215.01299,215.1645,78,43,0
215.1645,215.31602,74,39,0
215.31602,215.46753,76,41,0
215.46753,215.61905,79,43,0
215.77057,215.92207,78,41,0
215.92207,216.0736,81,43,0
216.0736,216.22511,78,40,0
216.22511,216.37663,79,42,0
216.37663,216.52814,83,44,0
216.67966,216.83118,81,57,0
216.83118,216.97751,84,59,0
216.97751,217.12386,78,54,0
217.12386,217.2702,81,57,0
217.2702,217.41653,72,53,0
217.41653,217.56288,78,56,0
217.56288,217.70923,69,51,0
217.70923,217.85774,72,54,0
217.85774,218.00626,66,49,0
218.00626,218.15776,69,52,0
218.15776,218.32536,60,48,0
218.32536,220.2323,76,50,0
220.2323,220.31471,74,44,0
220.31471,220.39713,72,44,0
220.39713,220.47955,71,44,0
220.47955,220.56197,69,44,0
220.56197,221.1146,67,49,0
221.1146,221.19354,71,47,0
221.19354,221.5144,69,47,0
221.5144,221.8221,62,49,0
221.8221,221.9688,63,45,0
221.9688,222.11385,64,45,0
222.11385,222.26033,65,45,0
222.26033,222.41302,66,45,0
222.41302,222.72716,67,46,0
222.72716,223.04129,67,45,0
223.04129,223.35544,67,45,0
223.35544,223.92686,67,45,0
223.92686,224.14426,69,45,0
224.14426,224.21672,72,45,0
223.92686,224.21672,62,45,0
224.21672,224.36026,71,49,0
224.36026,224.5038,70,47,0
224.5038,224.64665,71,49,0
224.64665,224.78952,70,46,0
224.78952,224.93169,71,49,0
224.93169,225.09212,74,46,0
224.21672,225.09212,62,49,0
225.09212,225.40625,74,49,0
225.40625,225.70183,72,45,0
225.09212,225.70183,66,44,0
225.70183,225.99739,71,45,0
225.70183,225.99739,67,45,0
225.09212,225.99739,62,44,0
225.99739,226.30508,71,47,0
225.99739,226.30508,67,47,0
226.30508,226.61278,69,45,0
226.30508,226.61278,66,45,0
226.61278,226.92047,69,45,0
226.61278,226.92047,66,45,0
226.92047,227.51749,69,45,0
226.92047,227.51749,66,45,0
227.51749,227.82677,71,46,0
227.51749,227.82677,68,46,0
227.82677,228.13603,72,49,0
227.82677,228.13603,69,49,0
228.13603,228.44531,74,51,0
228.13603,228.44531,71,51,0
228.44531,228.76277,76,51,0
228.44531,228.76277,72,51,0
228.76277,229.35107,76,51,0
228.76277,229.35107,72,51,0
229.35107,229.49812,74,47,0
229.35107,229.49812,71,47,0
229.49812,229.64519,72,47,0
229.49812,229.64519,69,47,0
229.64519,229.95447,71,49,0
229.64519,229.95447,67,49,0
229.95447,230.26375,72,46,0
229.95447,230.26375,69,46,0
230.26375,230.5812,74,46,0
230.26375,230.5812,71,46,0
230.5812,230.88577,67,47,0
230.5812,230.88577,59,47,0
230.88577,231.19034,69,45,0
230.88577,231.19034,60,45,0
231.19034,231.5078,71,45,0
231.19034,231.5078,62,45,0
231.5078,231.81238,69,46,0
231.66008,231.96089,64,46,0
231.81238,232.1094,71,45,0
231.96089,232.26813,62,45,0
232.1094,232.42686,72,45,0
232.26813,232.5815,60,45,0
232.42686,232.73615,72,45,0
232.5815,232.89078,60,45,0
232.73615,233.04543,69,45,0
232.89078,233.21301,60,45,0
233.04543,233.38062,66,43,0
233.38062,234.4573,69,41,0
233.21301,234.4573,60,45,0
234.4573,234.85732,67,31,0
234.4573,234.85732,59,31,0
235.25731,235.42215,74,41,0
235.58698,235.75182,74,41,0
236.24632,236.41116,74,44,0
236.41116,236.57599,75,44,0
236.57599,236.74083,75,45,0
237.23534,237.40016,79,49,0
237.40016,237.565,78,46,0
237.565,237.72984,78,46,0
238.22435,238.38918,82,59,0
238.38918,238.55402,78,56,0
238.55402,238.7136,79,56,0
239.20103,239.36147,82,63,0
239.36147,239.5219,81,66,0
239.5219,239.9882,84,74,0
239.9882,240.14365,82,62,0
240.14365,240.22137,81,62,0
240.22137,240.29909,79,62,0
240.29909,240.37682,77,62,0
240.37682,240.41566,76,62,0
240.41566,240.45453,74,62,0
240.76541,241.38718,79,74,0
240.76541,241.38718,88,88,0
240.76541,241.38718,85,88,0
240.76541,241.38718,82,74,0
241.4645,241.54115,77,67,0
241.54115,241.61998,81,70,0
241.61998,241.69797,85,71,0
241.69797,241.77477,86,72,0
241.77477,241.85168,79,71,0
241.85168,241.92995,85,72,0
241.92995,242.00726,86,74,0
242.00726,242.08354,88,76,0
242.08354,242.16113,81,73,0
242.16113,242.23845,86,75,0
242.23845,242.31564,88,77,0
242.31564,242.69539,89,89,0
242.69539,243.43158,83,83,0
242.69539,243.43158,77,83,0
242.69539,243.43158,74,71,0
243.78246,244.11954,81,69,0
243.78246,244.11954,69,58,0
244.11954,244.28807,77,57,0
244.28807,244.45662,74,57,0
244.79181,245.13467,79,65,0
244.79181,245.13467,69,55,0
245.13467,245.30609,76,54,0
245.30609,245.46138,73,46,0
245.49243,246.28714,73,53,0
246.28714,246.59747,74,36,0
246.70093,247.11472,74,36,0
247.52852,247.69334,74,41,0
247.85818,248.02303,74,41,0
248.51752,248.68236,74,44,0
248.68236,248.8472,75,44,0
248.8472,249.01202,75,45,0
249.50653,249.67137,79,49,0
249.67137,249.83621,78,46,0
249.83621,250.00104,78,46,0
250.49554,250.66039,82,59,0
250.66039,250.82521,78,56,0
250.82521,250.98479,79,56,0
251.47223,251.63266,82,63,0
251.63266,251.79309,81,66,0
251.79309,252.25941,84,74,0
252.25941,252.41486,82,62,0
252.41486,252.49257,81,62,0
252.49257,252.5703,79,62,0
252.5703,252.64801,77,62,0
252.64801,252.68687,76,62,0
252.68687,252.72574,74,62,0
253.03662,253.65837,79,73,0
253.03662,253.65837,88,88,0
253.03662,253.65837,85,88,0
253.03662,253.65837,82,73,0
253.73582,253.81276,77,67,0
253.81276,253.89157,81,70,0
253.89157,253.96823,85,71,0
253.96823,254.04437,86,72,0
254.04437,254.12236,79,71,0
254.12236,254.19955,85,72,0
254.19955,254.27744,86,74,0
254.27744,254.3568,88,76,0
254.3568,254.43506,81,73,0
254.43506,254.51108,86,75,0
254.51108,254.58774,88,77,0
254.58774,254.96748,89,89,0
254.96748,255.70369,83,83,0
254.96748,255.70369,77,83,0
254.96748,255.70369,74,71,0
256.05252,256.3915,81,70,0
256.05252,256.3915,69,59,0
256.3915,256.561,77,57,0
256.561,256.7305,74,57,0
257.0714,257.41425,79,64,0
257.0714,257.41425,69,54,0
257.41425,257.5857,76,54,0
257.5857,257.772,73,48,0
257.772,258.5667,73,55,0
258.5667,258.87708,74,36,0
258.9805,259.39432,74,36,0
259.8081,260.0029,74,36,0
260.19772,260.37628,74,37,0
260.912,261.25098,67,37,0
261.25098,261.58997,72,39,0
261.9471,262.28607,66,37,0
262.28607,262.62506,70,39,0
262.98434,263.32526,61,44,0
263.32526,263.66617,62,45,0
263.99405,264.15195,67,70,0
264.15195,264.3098,79,63,0
264.3098,264.4629,69,68,0
264.4629,264.61594,79,63,0
264.61594,264.773,78,63,0
264.773,264.93008,69,63,0
264.93008,265.08716,67,67,0
265.08716,265.24423,79,63,0
265.24423,265.39807,69,64,0
265.39807,265.5519,79,64,0
265.5519,265.7098,78,64,0
265.7098,265.8677,69,64,0
265.8677,266.02814,67,70,0
266.02814,266.18857,79,70,0
266.18857,266.34686,75,77,0
266.34686,266.50354,87,69,0
266.50354,266.65857,74,74,0
266.65857,266.8119,86,66,0
266.8119,266.97406,72,66,0
266.97406,267.29837,84,63,0
267.29837,267.46054,82,61,0
267.46054,267.61926,81,61,0
267.61926,267.77884,79,61,0
267.77884,267.93927,78,61,0
267.93927,268.10056,79,59,0
268.10056,268.26013,77,57,0
268.26013,268.4223,75,54,0
268.4223,268.58762,74,53,0
268.58762,268.75568,72,51,0
268.75568,268.92612,70,48,0
268.92612,269.11017,69,46,0
269.11017,269.65335,67,42,0
269.65335,269.84567,69,39,0
269.84567,270.2303,66,39,0
271.03027,271.2303,67,31,0
271.4303,271.61896,67,31,0
272.185,272.37982,74,36,0
272.57462,272.75317,74,37,0
273.2889,273.6279,67,37,0
273.6279,273.96686,72,39,0
274.324,274.663,66,37,0
274.663,275.00198,70,39,0
275.36127,275.70218,61,44,0
275.70218,276.0431,62,45,0
276.37094,276.52884,67,70,0
276.52884,276.68674,79,63,0
276.68674,276.83978,69,68,0
276.83978,276.99286,79,63,0
276.99286,277.14993,78,63,0
277.14993,277.307,69,63,0
277.307,277.46405,67,67,0
277.46405,277.62112,79,67,0
277.62112,277.77496,69,64,0
277.77496,277.92883,79,64,0
277.92883,278.08673,78,64,0
278.08673,278.2446,69,64,0
278.2446,278.40854,67,70,0
278.40854,278.57248,79,70,0
278.57248,278.7308,75,75,0
278.7308,278.88745,87,67,0
278.88745,279.04248,74,74,0
279.04248,279.1958,86,64,0
279.1958,279.35797,72,64,0
279.35797,279.6823,84,60,0
279.6823,279.84445,82,57,0
279.84445,280.0032,81,57,0
280.0032,280.16278,79,57,0
280.16278,280.3232,78,57,0
280.3232,280.4845,79,56,0
280.4845,280.64407,77,55,0
280.64407,280.80624,75,54,0
280.80624,280.97153,74,52,0
280.97153,281.1396,72,49,0
281.1396,281.31006,70,45,0
281.31006,281.5036,69,44,0
281.5036,282.04678,67,42,0
282.04678,282.2391,69,39,0
282.2391,282.62372,66,39,0
283.4237,283.62372,67,31,0
283.8237,284.0124,67,31,0
284.57843,284.9136,67,44,0
284.9136,285.46625,67,45,0
285.46625,285.5452,71,42,0
285.5452,285.86777,69,45,0
285.86777,286.17706,62,45,0
286.17706,286.32556,66,48,0
286.32556,286.46146,64,43,0
286.4736,286.6214,67,50,0
286.6214,286.7582,66,45,0
286.77063,286.917,69,52,0
286.917,287.05246,67,48,0
287.06476,287.2097,72,54,0
287.2097,287.34256,71,50,0
287.3546,287.50024,74,55,0
287.50024,287.64056,71,51,0
287.65332,288.25034,67,49,0
288.25034,288.54254,69,51,0
288.25034,288.54254,62,51,0
288.54254,288.68625,70,51,0
288.68625,288.82828,71,54,0
288.82828,288.96848,72,58,0
288.96848,289.10693,73,61,0
289.10693,289.44785,74,64,0
288.54254,289.44785,62,51,0
289.44785,289.767,74,55,0
289.767,290.07614,72,56,0
289.44785,290.07614,66,55,0
290.07614,290.3919,71,50,0
290.07614,290.3919,67,50,0
289.44785,290.3919,62,55,0
290.3919,290.69806,71,56,0
290.3919,290.69806,67,56,0
290.69806,291.00262,69,54,0
290.69806,291.00262,66,54,0
291.00262,291.3072,69,54,0
291.00262,291.3072,66,54,0
291.3072,291.92896,69,54,0
291.3072,291.92896,66,54,0
291.92896,292.23663,71,55,0
291.92896,292.23663,68,55,0
292.23663,292.31357,72,57,0
292.31357,292.39047,69,59,0
292.39047,292.4674,71,60,0
292.4674,292.54434,72,61,0
292.54434,292.62125,74,63,0
292.62125,292.69818,76,63,0
292.69818,292.7751,78,65,0
292.7751,292.85202,80,66,0
292.85202,292.93015,81,67,0
292.93015,293.00827,83,68,0
293.00827,293.0864,84,70,0
293.0864,293.16452,86,71,0
293.16452,293.482,88,72,0
293.16452,293.482,84,72,0
293.482,293.79944,86,61,0
293.482,293.79944,83,61,0
293.79944,293.9549,84,61,0
293.9549,294.00668,86,61,0
294.00668,294.0585,84,61,0
294.0585,294.11032,83,61,0
294.11032,294.41644,84,63,0
293.79944,294.41644,81,61,0
294.41644,294.72256,83,60,0
294.41644,294.72256,79,60,0
294.72256,294.95215,86,59,0
294.95215,295.0287,88,50,0
295.0287,295.18176,86,59,0
295.18176,295.24066,84,55,0
295.26028,295.3388,86,49,0
295.3388,295.4911,84,59,0
295.4911,295.5494,83,55,0
295.56882,295.64655,84,50,0
295.64655,295.79883,83,59,0
295.79883,295.85742,81,55,0
295.87695,295.95508,83,50,0
295.95508,296.1097,81,59,0
296.1097,296.16925,79,55,0
296.1891,296.26843,81,50,0
296.26843,296.4231,79,59,0
296.4231,296.74576,78,54,0
296.74576,297.0736,81,59,0
297.0736,297.4015,79,56,0
297.4015,297.72952,76,52,0
297.72952,298.07236,73,47,0
298.07236,298.2363,74,39,0
298.2363,298.40024,76,43,0
298.40024,298.56418,74,39,0
298.56418,298.72812,76,43,0
298.72812,298.90253,74,39,0
298.90253,299.25137,74,39,0
299.6002,299.9354,67,44,0
299.9354,300.48804,67,45,0
300.48804,300.567,71,42,0
300.567,300.88956,69,45,0
300.88956,301.19882,62,45,0
301.19882,301.34735,66,48,0
301.34735,301.48325,64,45,0
301.4954,301.64316,67,52,0
301.64316,301.77997,66,46,0
301.79242,301.93875,69,52,0
301.93875,302.07422,67,46,0
302.08655,302.23148,72,54,0
302.23148,302.36432,71,51,0
302.3764,302.52203,74,55,0
302.52203,302.66232,71,51,0
302.67508,303.2721,67,49,0
303.2721,303.56433,69,51,0
303.2721,303.56433,62,51,0
303.56433,303.71286,70,51,0
303.71286,303.8579,71,54,0
303.8579,303.99942,72,58,0
303.99942,304.13754,73,61,0
304.13754,304.47845,74,64,0
303.56433,304.47845,62,51,0
304.47845,304.79758,74,55,0
304.79758,305.10675,72,56,0
304.47845,305.10675,66,55,0
305.10675,305.42252,71,51,0
305.10675,305.42252,67,51,0
304.47845,305.42252,62,55,0
305.42252,305.72864,71,56,0
305.42252,305.72864,67,56,0
305.72864,306.0332,69,54,0
305.72864,306.0332,66,54,0
306.0332,306.3378,69,54,0
306.0332,306.3378,66,54,0
306.3378,306.95953,69,54,0
306.3378,306.95953,66,54,0
306.95953,307.26724,71,55,0
306.95953,307.26724,68,55,0
307.26724,307.34418,72,61,0
307.34418,307.42108,69,61,0
307.42108,307.49802,71,62,0
307.49802,307.57492,72,63,0
307.57492,307.65186,74,64,0
307.65186,307.7288,76,65,0
307.7288,307.8057,78,66,0
307.8057,307.88263,80,66,0
307.88263,307.96075,81,67,0
307.96075,308.03888,83,68,0
308.03888,308.117,84,70,0
308.117,308.19513,86,71,0
308.19513,308.51257,88,72,0
308.19513,308.51257,84,72,0
308.51257,308.83005,86,61,0
308.51257,308.83005,83,61,0
308.83005,308.98547,84,61,0
308.98547,309.0373,86,61,0
309.0373,309.0891,84,61,0
309.0891,309.14093,83,61,0
309.14093,309.44705,84,63,0
308.83005,309.44705,81,61,0
309.44705,309.75317,83,60,0
309.44705,309.75317,79,60,0
309.75317,309.98276,86,59,0
309.98276,310.0593,88,50,0
310.0593,310.21234,86,59,0
310.21234,310.27127,84,55,0
310.2909,310.36942,86,49,0
310.36942,310.5217,84,59,0
310.5217,310.58,83,55,0
310.59943,310.67715,84,50,0
310.67715,310.82944,83,59,0
310.82944,310.88803,81,55,0
310.90756,310.9857,83,50,0
310.9857,311.14032,81,59,0
311.14032,311.19986,79,55,0
311.2197,311.29904,81,50,0
311.29904,311.4537,79,59,0
311.4537,311.77637,78,54,0
311.77637,312.10422,81,59,0
312.10422,312.4321,79,56,0
312.4321,312.7601,76,52,0
312.7601,313.10297,73,47,0
313.10297,313.2669,74,39,0
313.2669,313.43085,76,43,0
313.43085,313.5948,74,39,0
313.5948,313.7587,76,43,0
313.7587,313.93314,74,39,0
313.93314,314.28195,74,39,0
314.6308,314.9989,79,43,0
314.9989,315.1602,78,43,0
315.1602,315.28116,79,43,0
315.32147,315.48276,81,45,0
315.48276,315.60373,79,43,0
315.64407,315.80194,81,46,0
315.80194,315.92038,79,43,0
315.95984,316.11774,81,46,0
316.11774,316.23618,79,43,0
316.27563,316.4319,79,46,0
316.4319,316.54907,78,43,0
316.58813,316.7444,78,45,0
316.7444,316.86157,76,43,0
316.90063,317.05853,76,47,0
317.05853,317.17694,74,45,0
317.21643,317.29416,74,44,0
317.37186,317.4496,74,45,0
317.5273,317.60504,74,45,0
317.68274,317.76047,74,46,0
317.8382,317.99362,76,51,0
317.99362,318.14908,75,47,0
318.14908,318.22598,75,47,0
318.30292,318.37985,75,47,0
318.45676,318.5337,75,47,0
318.6106,318.68753,75,47,0
318.76447,318.92072,75,52,0
318.92072,319.07697,76,49,0
319.07697,319.23322,78,49,0
319.23322,319.38947,76,49,0
319.38947,319.54572,79,52,0
319.54572,319.71237,78,49,0
319.71237,319.86862,81,50,0
319.86862,320.02325,79,51,0
320.02325,320.1779,78,53,0
320.1779,320.33255,76,54,0
320.33255,320.48718,74,56,0
320.48718,320.65112,73,59,0
320.65112,320.80576,74,79,0
320.80576,320.9604,86,65,0
320.9604,321.03772,74,60,0
321.11502,321.19235,74,60,0
321.26968,321.347,74,60,0
321.42432,321.50162,74,60,0
321.57895,321.73358,74,81,0
321.73358,321.8882,86,65,0
321.8882,321.96555,74,60,0
322.04288,322.12018,74,60,0
322.1975,322.27484,74,60,0
322.35214,322.42947,74,60,0
322.50677,322.59018,74,79,0
322.59018,322.67355,78,57,0
322.67355,322.75693,81,61,0
322.75693,322.8403,86,55,0
322.8403,322.91763,74,62,0
322.99493,323.07227,74,57,0
323.1496,323.2269,74,57,0
323.30423,323.38153,74,57,0
323.45886,323.54224,74,76,0
323.54224,323.6256,78,54,0
323.6256,323.709,81,59,0
323.709,323.7924,86,52,0
323.7924,323.8697,74,57,0
323.94702,324.02435,74,57,0
324.10165,324.179,74,57,0
324.2563,324.33362,74,57,0
324.41095,324.56558,74,75,0
324.56558,324.7202,86,59,0
324.7202,324.79755,86,57,0
324.87485,324.95218,86,57,0
325.02948,325.1068,86,57,0
325.18414,325.26144,86,57,0
325.33878,325.4934,85,68,0
325.4934,325.64804,86,59,0
325.64804,325.72537,86,57,0
325.8027,325.88,86,57,0
325.95734,326.03464,86,57,0
326.11197,326.1893,86,57,0
326.2666,326.42123,87,73,0
326.42123,326.5759,86,59,0
326.5759,326.6524,86,57,0
326.72894,326.80548,86,57,0
326.88202,326.95853,86,57,0
327.03506,327.1116,86,57,0
327.18814,327.34277,85,67,0
327.34277,327.4974,86,59,0
327.4974,327.57474,86,57,0
327.65204,327.72937,86,57,0
327.8067,327.884,86,57,0
327.96133,328.03864,86,57,0
328.11597,328.1945,86,58,0
328.27304,328.35156,86,58,0
328.4301,328.50864,86,58,0
328.58716,328.6657,86,57,0
328.74423,328.82278,86,55,0
328.9013,328.97983,86,55,0
329.05838,329.22055,86,54,0
329.3827,329.54486,86,52,0
329.70703,329.86917,86,52,0
330.03134,330.1999,86,51,0
330.03134,330.1999,84,51,0
330.36844,330.53696,86,49,0
330.36844,330.53696,84,49,0
330.7055,330.87405,86,49,0
330.7055,330.87405,84,49,0
331.04257,331.30887,86,46,0
331.04257,331.30887,84,46,0
331.3976,331.66388,86,45,0
331.3976,331.66388,84,45,0
331.75266,332.01892,86,45,0
331.75266,332.01892,84,45,0
332.10767,332.47806,86,42,0
332.10767,332.47806,84,42,0
332.47806,332.84842,86,40,0
332.47806,332.84842,84,40,0
332.84842,333.33228,86,37,0
332.84842,333.33228,84,37,0
333.33228,334.7839,86,36,0
333.33228,334.7839,84,36,0
335.89502,336.40784,74,31,0
335.89502,336.40784,72,31,0
336.40784,338.0745,72,31,0
336.40784,338.0745,74,31,0
338.0745,338.42133,67,46,0
338.42133,338.98282,67,49,0
338.98282,339.06302,71,47,0
339.06302,339.38562,69,47,0
339.38562,339.69974,62,49,0
339.69974,340.03494,64,45,0
340.03494,340.20255,66,45,0
340.20255,340.2584,67,45,0
340.24445,340.3003,66,45,0
340.28635,340.3422,64,45,0
340.32825,340.3833,66,45,0
340.37015,340.48856,67,46,0
340.6859,340.80435,67,45,0
341.0017,341.12015,67,45,0
341.3175,341.95416,67,45,0
341.95416,342.265,69,56,0
341.95416,342.265,66,56,0
341.95416,342.265,62,56,0
342.265,342.5759,71,60,0
342.265,342.5759,67,60,0
342.265,342.5759,62,60,0
342.9582,343.21725,74,60,0
342.8977,343.21725,62,52,0
342.91788,343.21725,67,54,0
342.93802,343.21725,71,56,0
343.35397,343.9631,72,61,0
343.29538,343.9631,62,54,0
343.3149,343.9631,66,56,0
343.33444,343.9631,69,59,0
343.9631,344.274,71,54,0
343.9631,344.274,67,54,0
343.9631,344.274,62,54,0
344.58487,344.6626,69,56,0
344.6626,344.7403,71,59,0
344.7403,344.81802,73,60,0
344.81802,344.89575,74,61,0
344.89575,344.98196,76,63,0
344.98196,345.07,78,63,0
345.07,345.11475,79,64,0
345.11475,345.16003,81,65,0
345.16003,345.20584,83,66,0
345.20584,345.25226,85,69,0
345.25226,346.1971,86,84,0
346.1971,346.54196,71,43,0
346.1971,346.54196,68,43,0
346.54196,346.88287,72,45,0
346.54196,346.88287,69,45,0
346.88287,347.19864,74,45,0
346.88287,347.19864,71,45,0
347.19864,347.37616,76,40,0
347.19864,347.37616,72,40,0
347.55368,347.91513,76,36,0
347.55368,347.91513,72,36,0
348.2878,348.6346,69,45,0
348.2878,348.6346,66,45,0
348.6346,348.97284,71,47,0
348.6346,348.97284,67,47,0
348.97284,349.2886,72,46,0
348.97284,349.2886,69,46,0
349.2886,349.4672,74,41,0
349.2886,349.4672,71,41,0
349.64575,350.00504,74,37,0
349.64575,350.00504,71,37,0
350.36432,350.69846,67,39,0
350.69846,350.85962,69,43,0
351.0199,351.17932,71,44,0
351.33792,351.49582,72,44,0
351.65372,351.8116,62,44,0
351.9695,352.1274,64,42,0
352.28528,352.44318,66,42,0
353.72086,354.1588,67,54,0
353.7026,354.1588,62,51,0
353.68436,354.1588,59,47,0
354.63126,355.011,79,43,0
355.011,355.1723,78,43,0
355.1723,355.29327,79,43,0
355.3336,355.49487,81,45,0
355.49487,355.61584,79,43,0
355.65616,355.81406,81,46,0
355.81406,355.93246,79,43,0
355.97195,356.12985,81,46,0
356.12985,356.24826,79,43,0
356.28775,356.444,79,46,0
356.444,356.5612,78,43,0
356.60025,356.7565,78,45,0
356.7565,356.8737,76,43,0
356.91275,357.07065,76,47,0
357.07065,357.18906,74,45,0
357.22852,357.30624,74,44,0
357.38397,357.4617,74,45,0
357.5394,357.61713,74,45,0
357.69485,357.77258,74,46,0
357.85028,358.00574,76,51,0
358.00574,358.16116,75,47,0
358.16116,358.2381,75,47,0
358.31503,358.39194,75,47,0
358.46887,358.54578,75,47,0
358.6227,358.69965,75,47,0
358.77655,358.9328,75,52,0
358.9328,359.08905,76,49,0
359.08905,359.2453,78,49,0
359.2453,359.40155,76,49,0
359.40155,359.5578,79,52,0
359.5578,359.7245,78,49,0
359.7245,359.88074,81,50,0
359.88074,360.03537,79,51,0
360.03537,360.19,78,52,0
360.19,360.34464,76,52,0
360.34464,360.49927,74,53,0
360.49927,360.6632,73,54,0
360.6632,360.81787,74,76,0
360.81787,360.9725,86,61,0
360.9725,361.0498,74,57,0
361.12714,361.20447,74,57,0
361.28177,361.3591,74,57,0
361.4364,361.51373,74,57,0
361.59106,361.7457,74,77,0
361.7457,361.90033,86,61,0
361.90033,361.97766,74,57,0
362.05496,362.1323,74,57,0
362.2096,362.28693,74,57,0
362.36426,362.44156,74,57,0
362.5189,362.6032,74,75,0
362.6032,362.68753,78,55,0
362.68753,362.77185,81,61,0
362.77185,362.85617,86,55,0
362.85617,362.93582,74,57,0
363.01312,363.09045,74,57,0
363.16776,363.2451,74,57,0
363.32242,363.39972,74,57,0
363.47705,363.56088,74,73,0
363.56088,363.64474,78,54,0
363.64474,363.72858,81,60,0
363.72858,363.81244,86,54,0
363.81244,363.88974,74,57,0
363.96707,364.04437,74,57,0
364.1217,364.19904,74,57,0
364.27634,364.35367,74,57,0
364.431,364.58563,74,72,0
364.58563,364.74026,86,59,0
364.74026,364.8176,86,57,0
364.8949,364.97223,86,57,0
365.04953,365.12686,86,57,0
365.2042,365.2815,86,57,0
365.35883,365.51346,85,65,0
365.51346,365.6681,86,59,0
365.6681,365.74542,86,57,0
365.82272,365.90005,86,57,0
365.9774,366.0547,86,57,0
366.13202,366.20935,86,57,0
366.28665,366.44128,87,72,0
366.44128,366.59595,86,59,0
366.59595,366.67245,86,57,0
366.749,366.82553,86,57,0
366.90207,366.97858,86,57,0
367.0551,367.13165,86,57,0
367.2082,367.36282,85,68,0
367.36282,367.51746,86,59,0
367.51746,367.5948,86,57,0
367.6721,367.74942,86,57,0
367.82675,367.90405,86,57,0
367.98138,368.0587,86,57,0
368.13602,368.21454,86,58,0
368.2931,368.3716,86,57,0
368.45016,368.5287,86,56,0
368.6072,368.68576,86,55,0
368.76428,368.84283,86,54,0
368.92136,368.99988,86,54,0
369.07843,369.2406,86,54,0
369.40274,369.5649,86,52,0
369.72708,369.88922,86,52,0
370.0514,370.21994,86,51,0
370.0514,370.21994,84,51,0
370.3885,370.557,86,49,0
370.3885,370.557,84,49,0
370.72556,370.8941,86,49,0
370.72556,370.8941,84,49,0
371.06262,371.32892,86,46,0
371.06262,371.32892,84,46,0
371.41766,371.68393,86,45,0
371.41766,371.68393,84,45,0
371.7727,372.03897,86,45,0
371.7727,372.03897,84,45,0
372.12772,372.49808,86,42,0
372.12772,372.49808,84,42,0
372.49808,372.86847,86,40,0
372.49808,372.86847,84,40,0
372.86847,373.35233,86,37,0
372.86847,373.35233,84,37,0
373.35233,374.80396,86,36,0
373.35233,374.80396,84,36,0
375.91507,376.4279,74,31,0
375.91507,376.4279,72,31,0
376.4279,378.09454,72,31,0
376.4279,378.09454,74,31,0
378.09454,378.44138,67,46,0
378.44138,379.00287,67,49,0
379.00287,379.08307,71,47,0
379.08307,379.40567,69,47,0
379.40567,379.7198,62,49,0
379.7198,380.055,64,45,0
380.055,380.2226,66,45,0
380.2226,380.2645,67,45,0
380.2645,380.3064,66,45,0
380.3064,380.3483,64,45,0
380.3483,380.3902,66,45,0
380.3902,380.5086,67,46,0
380.70596,380.8244,67,45,0
381.02176,381.1402,67,45,0
381.33755,381.97418,67,45,0
381.97418,382.28506,69,56,0
381.97418,382.28506,66,56,0
381.97418,382.28506,62,56,0
382.28506,382.59595,71,60,0
382.28506,382.59595,67,60,0
382.28506,382.59595,62,60,0
382.97824,383.23633,74,61,0
382.91776,383.23633,62,52,0
382.93793,383.23633,67,54,0
382.95807,383.23633,71,57,0
383.37634,383.98547,72,61,0
383.31635,383.98547,62,53,0
383.33633,383.98547,66,55,0
383.35635,383.98547,69,57,0
383.98547,384.29636,71,54,0
383.98547,384.29636,67,54,0
383.98547,384.29636,62,54,0
384.60724,384.68497,69,56,0
384.68497,384.76266,71,59,0
384.76266,384.8404,73,60,0
384.8404,384.91812,74,61,0
384.91812,385.0035,76,63,0
385.0035,385.09177,78,63,0
385.09177,385.13684,79,64,0
385.13684,385.18268,81,65,0
385.18268,385.22946,83,66,0
385.22946,385.277,85,69,0
385.277,386.2219,86,84,0
386.2219,386.56674,71,43,0
386.2219,386.56674,68,43,0
386.56674,386.90765,72,45,0
386.56674,386.90765,69,45,0
386.90765,387.22678,74,45,0
386.90765,387.22678,71,45,0
387.22678,387.4043,76,40,0
387.22678,387.4043,72,40,0
387.58182,387.94327,76,36,0
387.58182,387.94327,72,36,0
388.31595,388.66275,69,45,0
388.31595,388.66275,66,45,0
388.66275,389.00098,71,47,0
388.66275,389.00098,67,47,0
389.00098,389.3201,72,46,0
389.00098,389.3201,69,46,0
389.3201,389.4987,74,41,0
389.3201,389.4987,71,41,0
389.67725,390.03653,74,37,0
389.67725,390.03653,71,37,0
390.3958,390.72995,67,39,0
390.72995,390.89127,69,43,0
391.0517,391.21124,71,44,0
391.37,391.5279,72,44,0
391.6858,391.84708,62,44,0
392.00836,392.16965,64,42,0
392.33093,392.49222,66,42,0
393.8478,394.22754,67,55,0
393.8278,394.22754,62,50,0
393.8078,394.22754,59,50,0
1.5789475,1.914143,55,38,0
1.5789475,1.914143,59,38,0
1.914143,2.545722,59,40,0
1.914143,2.545722,55,40,0
2.545722,2.8683026,60,38,0
2.545722,2.8683026,55,38,0
2.8683026,3.4933026,60,40,0
2.8683026,3.4933026,55,40,0
3.4933026,3.8058026,60,38,0
3.4933026,3.8058026,55,38,0
3.8058026,3.9242237,59,37,0
3.8058026,3.9242237,55,37,0
4.121592,4.240013,59,36,0
4.121592,4.240013,55,36,0
4.4373813,4.5558023,59,36,0
4.4373813,4.5558023,55,36,0
4.753171,5.393285,59,36,0
4.753171,5.393285,55,36,0
5.393285,5.62766,54,36,0
5.62766,5.705785,57,36,0
5.705785,6.0119076,55,39,0
6.0119076,6.31803,54,36,0
6.31803,6.6225986,55,36,0
6.6225986,7.2378674,57,38,0
7.2378674,7.553657,55,36,0
7.553657,7.8597794,50,38,0
7.8597794,8.164348,62,36,0
8.164348,8.468916,62,36,0
8.468916,8.779798,62,36,0
8.779798,9.090678,60,36,0
9.090678,9.398371,59,37,0
9.398371,10.013756,57,40,0
10.013756,10.326256,55,39,0
10.326256,10.643716,54,40,0
10.643716,10.961177,57,39,0
10.961177,11.280198,62,39,0
11.892443,12.1985655,65,46,0
12.1985655,12.504687,64,46,0
12.504687,12.809257,62,46,0
12.809257,13.113825,60,46,0
13.113825,13.423103,59,42,0
11.280198,13.423103,55,46,0
13.423103,13.732382,57,40,0
13.423103,13.732382,54,40,0
13.732382,14.04166,55,40,0
13.732382,14.04166,52,40,0
14.04166,14.347783,55,43,0
14.347783,14.653905,59,42,0
14.04166,14.653905,52,43,0
14.653905,14.9783945,57,40,0
14.653905,15.308065,67,40,0
15.308065,15.639557,66,36,0
15.639557,15.971048,66,36,0
14.9783945,15.971048,62,40,0
15.971048,16.634031,66,32,0
15.971048,16.634031,62,32,0
16.965523,17.597101,59,40,0
16.965523,17.597101,55,40,0
17.597101,17.919682,60,38,0
17.597101,17.919682,55,38,0
17.919682,18.544682,60,40,0
17.919682,18.544682,55,40,0
18.544682,18.857182,60,38,0
18.544682,18.857182,55,38,0
18.857182,18.975603,59,37,0
18.857182,18.975603,55,37,0
19.172972,19.291393,59,36,0
19.172972,19.291393,55,36,0
19.488762,19.607182,59,36,0
19.488762,19.607182,55,36,0
19.80455,20.444664,59,36,0
19.80455,20.444664,55,36,0
20.444664,20.679039,54,36,0
20.679039,20.757164,57,36,0
20.757164,21.063288,55,39,0
21.063288,21.36941,54,36,0
21.36941,21.673979,55,36,0
21.673979,22.289248,57,38,0
22.289248,22.603384,55,36,0
22.603384,22.909506,50,38,0
22.909506,23.214075,62,36,0
23.214075,23.518642,62,36,0
23.518642,23.829523,62,36,0
23.829523,24.140406,60,36,0
24.140406,24.448097,59,37,0
24.448097,25.063482,57,40,0
25.063482,25.375982,55,39,0
25.375982,25.693443,54,40,0
25.693443,26.010902,57,39,0
26.010902,26.333288,62,39,0
26.945534,27.251656,65,46,0
27.251656,27.55778,64,46,0
27.55778,27.862347,62,46,0
27.862347,28.166916,60,46,0
28.166916,28.476194,59,42,0
26.333288,28.476194,55,46,0
28.476194,28.785473,57,40,0
28.476194,28.785473,54,40,0
28.785473,29.094751,55,40,0
28.785473,29.094751,52,40,0
29.094751,29.400873,55,43,0
29.400873,29.706997,59,42,0
29.094751,29.706997,52,43,0
29.706997,30.031487,57,40,0
29.706997,30.361156,67,40,0
30.361156,30.692648,66,36,0
30.692648,31.02414,66,36,0
30.031487,31.02414,62,40,0
31.02414,31.77414,66,32,0
31.02414,31.77414,62,32,0
31.77414,32.168877,59,34,0
31.77414,32.168877,62,34,0
32.168877,32.828217,59,36,0
32.168877,32.828217,62,36,0
32.828217,33.163414,60,34,0
32.828217,33.163414,64,34,0
33.163414,33.469536,62,36,0
33.163414,33.469536,59,36,0
33.469536,33.775658,57,36,0
33.469536,33.775658,60,36,0
33.775658,34.08654,59,34,0
33.775658,34.08654,55,34,0
34.08654,34.20622,57,33,0
34.08654,34.20622,54,33,0
34.40569,34.525368,57,32,0
34.40569,34.525368,54,32,0
34.72484,34.844517,57,32,0
34.72484,34.844517,54,32,0
35.043987,35.363136,57,32,0
35.363136,35.682285,59,39,0
35.682285,35.994785,60,43,0
35.043987,35.994785,54,32,0
35.994785,36.313934,59,36,0
35.994785,36.313934,55,36,0
36.313934,36.633083,57,37,0
36.313934,36.633083,54,37,0
36.633083,36.952232,55,37,0
36.633083,36.952232,52,37,0
36.952232,37.276554,67,33,0
37.276554,37.60088,66,33,0
37.60088,37.932373,64,33,0
36.952232,37.932373,57,33,0
38.263863,38.58819,54,26,0
38.263863,38.58819,50,20,0
38.58819,38.831432,55,26,0
38.58819,38.831432,52,20,0
39.236835,39.56116,57,27,0
39.236835,39.56116,54,21,0
39.56116,39.804405,59,27,0
39.56116,39.804405,55,21,0
40.20981,40.534134,60,34,0
40.20981,40.534134,57,27,0
40.534134,40.777378,59,32,0
40.534134,40.777378,55,25,0
41.182785,41.507107,57,31,0
41.182785,41.507107,54,25,0
41.507107,41.75035,55,29,0
41.507107,41.75035,52,23,0
41.831432,42.155758,54,32,0
41.831432,42.155758,50,32,0
42.48008,42.642242,62,35,0
42.804405,42.966568,62,36,0
43.453056,43.61522,62,35,0
43.777378,43.93954,62,36,0
44.42603,44.588192,62,36,0
44.750355,45.250114,62,48,0
45.074677,45.425556,66,43,0
45.425556,45.901745,67,43,0
45.901745,48.0446,69,41,0
45.901745,48.0446,62,41,0
48.710793,49.342373,59,40,0
48.710793,49.342373,55,40,0
49.342373,49.664955,60,38,0
49.342373,49.664955,55,38,0
49.664955,50.289955,60,40,0
49.664955,50.289955,55,40,0
50.289955,50.602455,60,38,0
50.289955,50.602455,55,38,0
50.602455,50.720875,59,37,0
50.602455,50.720875,55,37,0
50.918243,51.036663,59,36,0
50.918243,51.036663,55,36,0
51.23403,51.352455,59,36,0
51.23403,51.352455,55,36,0
51.549824,52.189938,59,36,0
51.549824,52.189938,55,36,0
52.189938,52.424313,54,36,0
52.424313,52.502438,57,36,0
52.502438,52.80856,55,39,0
52.80856,53.11468,54,36,0
53.11468,53.41925,55,36,0
53.41925,54.03452,57,38,0
54.03452,54.350307,55,36,0
54.350307,54.65643,50,38,0
54.65643,54.961,62,36,0
54.961,55.265568,62,36,0
55.265568,55.57645,62,36,0
55.57645,55.88733,60,36,0
55.88733,56.195023,59,37,0
56.195023,56.810406,57,40,0
56.810406,57.122906,55,39,0
57.122906,57.44037,54,40,0
57.44037,57.757828,57,39,0
57.757828,58.06871,62,39,0
58.06871,59.008297,55,39,0
59.008297,59.31442,43,41,0
59.31442,59.620544,47,40,0
59.620544,59.926666,52,36,0
59.926666,60.84503,48,39,0
60.84503,61.865974,50,37,0
61.865974,62.255585,43,32,0
62.255585,62.645195,47,26,0
62.645195,63.034805,50,26,0
63.034805,63.814026,55,26,0
63.814026,64.2426,59,34,0
63.814026,64.2426,62,34,0
64.2426,64.90194,59,36,0
64.2426,64.90194,62,36,0
64.90194,65.23714,60,34,0
64.90194,65.23714,64,34,0
65.23714,65.54326,62,36,0
65.23714,65.54326,59,36,0
65.54326,65.84938,57,36,0
65.54326,65.84938,60,36,0
65.84938,66.160255,59,34,0
65.84938,66.160255,55,34,0
66.160255,66.27994,57,33,0
66.160255,66.27994,54,33,0
66.47941,66.59909,57,32,0
66.47941,66.59909,54,32,0
66.79855,66.918236,57,32,0
66.79855,66.918236,54,32,0
67.11771,67.43685,57,32,0
67.43685,67.756004,59,39,0
67.756004,68.068504,60,43,0
67.11771,68.068504,54,32,0
68.068504,68.38765,59,36,0
68.068504,68.38765,55,36,0
68.38765,68.7068,57,37,0
68.38765,68.7068,54,37,0
68.7068,69.02595,55,37,0
68.7068,69.02595,52,37,0
69.02595,69.35027,67,33,0
69.35027,69.6746,66,33,0
69.6746,70.00609,64,33,0
69.02595,70.00609,57,33,0
70.337585,70.66191,54,27,0
70.337585,70.66191,50,21,0
70.66191,70.90515,55,27,0
70.66191,70.90515,52,21,0
71.310555,71.63488,57,29,0
71.310555,71.63488,54,23,0
71.63488,71.87813,59,27,0
71.63488,71.87813,55,21,0
72.28353,72.60786,60,34,0
72.28353,72.60786,57,27,0
72.60786,72.8511,59,32,0
72.60786,72.8511,55,25,0
73.2565,73.580826,57,32,0
73.2565,73.580826,54,25,0
73.580826,73.82407,55,32,0
73.580826,73.82407,52,25,0
73.90515,74.22948,54,32,0
73.90515,74.22948,50,32,0
74.5538,74.715965,62,35,0
74.87813,75.04029,62,36,0
75.52677,75.688934,62,35,0
75.8511,76.01326,62,36,0
76.49975,76.66191,62,36,0
76.82407,77.32384,62,48,0
77.1484,77.499275,66,43,0
77.499275,77.975464,67,43,0
77.975464,80.118324,69,41,0
77.975464,80.118324,62,41,0
80.784515,81.41609,59,40,0
80.784515,81.41609,55,40,0
81.41609,81.73867,60,38,0
81.41609,81.73867,55,38,0
81.73867,82.36367,60,40,0
81.73867,82.36367,55,40,0
82.36367,82.67617,60,38,0
82.36367,82.67617,55,38,0
82.67617,82.79459,59,37,0
82.67617,82.79459,55,37,0
82.99197,83.11038,59,36,0
82.99197,83.11038,55,36,0
83.307755,83.42617,59,36,0
83.307755,83.42617,55,36,0
83.62354,84.26366,59,36,0
83.62354,84.26366,55,36,0
84.26366,84.49803,54,36,0
84.49803,84.57616,57,36,0
84.57616,84.88228,55,39,0
84.88228,85.1884,54,36,0
85.1884,85.49297,55,36,0
85.49297,86.10824,57,38,0
86.10824,86.42403,55,36,0
86.42403,86.73015,50,38,0
86.73015,87.03472,62,36,0
87.03472,87.33929,62,36,0
87.33929,87.65017,62,36,0
87.65017,87.96105,60,36,0
87.96105,88.268745,59,37,0
88.268745,88.884125,57,40,0
88.884125,89.196625,55,39,0
89.196625,89.51409,54,40,0
89.51409,89.83155,57,39,0
89.83155,90.142426,62,39,0
90.142426,91.082016,55,39,0
91.082016,91.38814,43,41,0
91.38814,91.69426,47,40,0
91.69426,92.00039,52,36,0
92.00039,92.918755,48,39,0
92.918755,93.93969,50,37,0
93.93969,94.3293,43,32,0
94.3293,94.71891,47,26,0
94.71891,95.10853,50,26,0
95.10853,95.88775,55,26,0
96.54709,96.876755,58,28,0
96.54709,96.876755,55,24,0
97.536095,97.86577,55,27,0
97.536095,97.86577,60,32,0
98.52511,98.85478,60,34,0
98.52511,98.85478,55,28,0
99.5036,99.84258,58,54,0
99.5036,99.84258,55,45,0
99.84258,100.16173,64,57,0
99.84258,100.16173,55,57,0
100.16173,100.80875,53,52,0
100.16173,100.80875,65,52,0
100.80875,101.1279,55,57,0
100.80875,101.1279,64,57,0
101.1279,101.77854,65,51,0
101.1279,101.77854,53,51,0
101.77854,102.09769,65,54,0
101.77854,102.09769,58,54,0
101.77854,102.09769,62,54,0
102.09769,103.048416,57,52,0
102.09769,103.048416,62,52,0
102.09769,103.048416,65,52,0
103.048416,103.99256,56,51,0
103.048416,103.99256,62,51,0
103.048416,103.99256,65,51,0
103.99256,105.005356,57,40,0
103.99256,105.005356,62,40,0
103.99256,105.005356,65,40,0
105.34821,105.69107,67,31,0
105.69107,106.08323,67,31,0
106.08323,106.462975,67,28,0
106.462975,106.84272,65,22,0
106.84272,107.222466,64,21,0
107.222466,107.60222,62,22,0
108.66634,108.99601,58,28,0
108.66634,108.99601,55,24,0
109.65535,109.98502,55,25,0
109.65535,109.98502,60,30,0
110.64436,110.97404,60,31,0
110.64436,110.97404,55,26,0
111.622856,111.96184,58,54,0
111.622856,111.96184,55,45,0
111.96184,112.28098,64,57,0
111.96184,112.28098,55,57,0
112.28098,112.928,53,52,0
112.28098,112.928,65,52,0
112.928,113.247154,55,57,0
112.928,113.247154,64,57,0
113.247154,113.8978,65,51,0
113.247154,113.8978,53,51,0
113.8978,114.21694,65,54,0
113.8978,114.21694,58,54,0
113.8978,114.21694,62,54,0
114.21694,115.16767,57,52,0
114.21694,115.16767,62,52,0
114.21694,115.16767,65,52,0
115.16767,116.11182,56,51,0
115.16767,116.11182,62,51,0
115.16767,116.11182,65,51,0
116.11182,117.12461,57,40,0
116.11182,117.12461,62,40,0
116.11182,117.12461,65,40,0
117.46747,117.810326,67,31,0
117.810326,118.202484,67,31,0
118.202484,118.58223,67,29,0
118.58223,118.961975,65,24,0
118.961975,119.34172,64,22,0
119.34172,119.721466,62,22,0
120.84797,121.20512,62,23,0
120.84797,121.20512,58,23,0
121.88308,122.24022,57,27,0
121.88308,122.24022,63,27,0
122.91819,123.27747,58,27,0
122.91819,123.27747,55,27,0
123.95929,124.287155,38,45,0
123.95929,124.287155,50,45,0
124.287155,124.60631,62,55,0
124.287155,124.60631,58,45,0
124.60631,125.25333,60,42,0
124.60631,125.25333,63,50,0
125.25333,125.57247,58,45,0
125.25333,125.57247,62,55,0
125.57247,126.223114,63,49,0
125.57247,126.223114,60,41,0
126.223114,126.6258,58,44,0
126.223114,126.6258,62,52,0
126.6258,127.67843,57,39,0
126.6258,127.67843,63,46,0
126.6258,127.67843,60,46,0
126.6258,127.67843,54,39,0
127.67843,128.71503,55,36,0
129.0659,129.40875,72,33,0
128.71503,129.75162,60,38,0
129.40875,130.1025,72,33,0
130.1025,130.4871,70,36,0
130.4871,130.87172,69,34,0
129.75162,130.87172,62,38,0
130.87172,132.07172,69,26,0
132.07172,132.44908,67,27,0
130.87172,132.44908,55,26,0
133.5732,133.93033,62,24,0
133.5732,133.93033,58,24,0
134.60829,134.96544,57,27,0
134.60829,134.96544,63,27,0
135.6434,136.00269,58,27,0
135.6434,136.00269,55,27,0
136.68451,137.01237,38,45,0
136.68451,137.01237,50,45,0
137.01237,137.3265,62,55,0
137.01237,137.3265,58,45,0
137.3265,137.97185,60,42,0
137.3265,137.97185,63,50,0
137.97185,138.29099,58,45,0
137.97185,138.29099,62,55,0
138.29099,138.93498,63,49,0
138.29099,138.93498,60,41,0
138.93498,139.33766,58,44,0
138.93498,139.33766,62,52,0
139.33766,140.3903,57,39,0
139.33766,140.3903,63,46,0
139.33766,140.3903,60,46,0
139.33766,140.3903,54,39,0
140.3903,141.4269,55,36,0
141.77777,142.12062,72,33,0
141.4269,142.46349,60,38,0
142.12062,142.81436,72,33,0
142.81436,143.19897,70,36,0
143.19897,143.6245,69,34,0
142.46349,143.6245,62,38,0
143.6245,144.82451,69,26,0
144.82451,145.2245,67,27,0
143.6245,145.2245,55,26,0
145.6245,146.0245,55,38,0
145.6245,146.0245,59,38,0
146.0245,146.65608,59,40,0
146.0245,146.65608,55,40,0
146.65608,146.97694,60,38,0
146.65608,146.97694,55,38,0
146.97694,147.57639,60,40,0
146.97694,147.57639,55,40,0
147.57639,147.8722,60,38,0
147.57639,147.8722,55,38,0
147.8722,148.03978,59,34,0
148.02682,148.18227,58,30,0
148.18227,148.35161,59,33,0
148.33852,148.49559,58,30,0
148.49559,148.6667,59,32,0
148.65349,148.81235,58,31,0
148.81235,149.38379,59,36,0
147.8722,149.38379,55,34,0
149.38379,149.60118,54,36,0
149.60118,149.67363,57,41,0
149.67363,149.81718,55,39,0
149.81718,149.96072,54,36,0
149.96072,150.10358,55,39,0
150.10358,150.24643,54,36,0
150.24643,150.38861,55,39,0
150.38861,150.54904,59,36,0
150.54904,151.16318,57,38,0
151.16318,151.46318,55,36,0
151.46318,151.61624,50,38,0
151.61624,151.7693,61,32,0
151.7693,151.92236,62,37,0
151.92236,152.07542,61,33,0
152.07542,152.22849,62,37,0
152.22849,152.38155,61,33,0
152.38155,152.53006,62,38,0
152.53006,152.67857,64,36,0
152.67857,152.82709,60,38,0
152.82709,152.9756,62,36,0
152.9756,153.13185,59,39,0
153.13185,153.2881,60,36,0
153.2881,153.44435,57,40,0
153.44435,153.6006,64,37,0
153.6006,153.75685,60,37,0
153.75685,153.9131,59,36,0
153.9131,154.071,57,36,0
154.071,154.2289,55,36,0
154.2289,154.37453,54,36,0
154.37453,154.52016,57,35,0
154.52016,154.67015,60,36,0
154.67015,154.82016,62,37,0
154.82016,154.96794,64,39,0
154.96794,155.11548,66,40,0
155.11548,155.70302,67,46,0
155.70302,155.99323,65,45,0
155.99323,156.14397,64,45,0
156.14397,156.29472,67,42,0
156.29472,156.44937,62,44,0
156.44937,156.604,65,40,0
156.604,156.75864,60,43,0
156.75864,156.91328,64,38,0
156.91328,157.07036,59,42,0
157.07036,157.22742,62,39,0
157.22742,157.3801,55,42,0
157.3801,157.53316,59,39,0
157.53316,157.68622,54,42,0
157.68622,157.83928,57,39,0
157.83928,157.99472,52,43,0
157.99472,158.15016,55,42,0
158.15016,158.3056,57,41,0
158.3056,158.46104,61,41,0
158.46104,158.61649,64,40,0
158.61649,159.10919,67,39,0
159.10919,159.4444,66,34,0
158.77953,159.4444,62,40,0
159.10919,159.4444,62,34,0
159.4444,159.77959,66,34,0
159.4444,159.77959,62,34,0
159.77959,160.44632,66,32,0
159.77959,160.44632,62,32,0
160.77419,161.40576,59,40,0
160.77419,161.40576,55,40,0
161.40576,161.72662,60,38,0
161.40576,161.72662,55,38,0
161.72662,162.32607,60,40,0
161.72662,162.32607,55,40,0
162.32607,162.62564,60,38,0
162.32607,162.62564,55,38,0
162.62564,162.79579,59,37,0
162.7827,162.93977,58,32,0
162.93977,163.10992,59,36,0
163.09683,163.2539,58,33,0
163.2539,163.42406,59,35,0
163.41098,163.56804,58,32,0
163.56804,164.13947,59,36,0
162.62564,164.13947,55,37,0
164.13947,164.35686,54,36,0
164.35686,164.42932,57,41,0
164.42932,164.57286,55,39,0
164.57286,164.71642,54,36,0
164.71642,164.85927,55,39,0
164.85927,165.00212,54,36,0
165.00212,165.1443,55,39,0
165.1443,165.30473,59,36,0
165.30473,165.91443,57,38,0
165.91443,166.21594,55,36,0
166.21594,166.37138,50,38,0
166.37138,166.52682,61,36,0
166.52682,166.68227,62,37,0
166.68227,166.8377,61,36,0
166.8377,166.99315,62,37,0
166.99315,167.14859,61,36,0
167.14859,167.29637,62,38,0
167.29637,167.44415,64,36,0
167.44415,167.59193,60,38,0
167.59193,167.73972,62,36,0
167.73972,167.89516,59,39,0
167.89516,168.0506,60,36,0
168.0506,168.20604,57,40,0
168.20604,168.36148,64,37,0
168.36148,168.51692,60,37,0
168.51692,168.67236,59,36,0
168.67236,168.83109,57,36,0
168.83109,168.98982,55,36,0
168.98982,169.13545,54,36,0
169.13545,169.28108,57,35,0
169.28108,169.43034,60,36,0
169.43034,169.57959,62,37,0
169.57959,169.72665,64,39,0
169.72665,169.8737,66,40,0
169.8737,170.46053,67,46,0
170.46053,170.75038,65,45,0
170.75038,170.89816,64,45,0
170.89816,171.04594,67,42,0
171.04594,171.19519,62,44,0
171.19519,171.34445,65,40,0
171.34445,171.49673,60,43,0
171.49673,171.64902,64,38,0
171.64902,171.80287,59,42,0
171.80287,171.95671,62,39,0
171.95671,172.10823,55,42,0
172.10823,172.25974,59,39,0
172.25974,172.41125,54,42,0
172.41125,172.56277,57,39,0
172.56277,172.71506,52,43,0
172.71506,172.86734,55,42,0
172.86734,173.01962,57,41,0
173.01962,173.1719,61,41,0
173.1719,173.32419,64,40,0
173.32419,173.81873,67,39,0
173.81873,174.1484,66,34,0
173.48724,174.1484,62,40,0
173.81873,174.1484,62,34,0
174.1484,174.47807,66,34,0
174.1484,174.47807,62,34,0
174.47807,175.1374,66,32,0
174.47807,175.1374,62,32,0
175.1374,175.30408,71,34,0
175.30408,175.47075,74,34,0
175.47075,175.627,71,34,0
175.627,175.78325,74,32,0
175.78325,175.9395,71,34,0
175.9395,176.09575,74,31,0
176.09575,176.25533,72,34,0
176.25533,176.41489,76,31,0
176.41489,176.56342,71,34,0
176.56342,176.71193,74,32,0
176.71193,176.86044,69,34,0
176.86044,177.00896,72,32,0
177.00896,177.16124,67,34,0
177.16124,177.31352,71,31,0
177.31352,177.4706,66,33,0
177.4706,177.62766,69,31,0
177.62766,177.78473,66,33,0
177.78473,177.94179,69,32,0
177.94179,178.09886,66,33,0
178.09886,178.25594,69,31,0
178.25594,178.413,66,33,0
178.413,178.57007,69,31,0
178.57007,178.72006,66,33,0
178.72006,178.87007,69,32,0
178.87007,179.02391,66,33,0
179.02391,179.17776,69,31,0
179.17776,179.76599,67,36,0
180.0601,180.64835,57,33,0
180.0601,180.64835,67,33,0
180.0601,180.64835,64,33,0
180.0601,180.64835,61,33,0
181.09398,181.2455,50,32,0
181.2455,181.397,54,33,0
181.397,181.54852,50,31,0
181.54852,181.70316,52,32,0
181.70316,181.8578,55,35,0
182.01244,182.16708,54,35,0
182.16708,182.32172,57,38,0
182.32172,182.47636,54,33,0
182.47636,182.631,55,35,0
182.631,182.78564,59,37,0
182.94028,183.09491,57,36,0
183.09491,183.24956,60,39,0
183.24956,183.40419,57,36,0
183.40419,183.55884,59,38,0
183.55884,183.71347,55,36,0
183.86812,184.02275,54,33,0
184.02275,184.17738,57,36,0
184.17738,184.33203,54,33,0
184.33203,184.48666,55,36,0
184.48666,184.64131,52,33,0
184.64131,184.95059,50,34,0
185.25362,185.55664,50,32,0
185.55664,185.85968,50,34,0
186.1627,186.46574,38,50,0
186.46574,188.26295,38,57,0
188.41473,188.56831,48,39,0
188.56831,188.72375,57,42,0
188.72375,188.88124,54,36,0
188.88124,189.05074,60,37,0
189.05074,189.24681,57,33,0
189.24681,190.49956,66,36,0
190.49956,191.13115,59,40,0
190.49956,191.13115,55,40,0
191.13115,191.452,60,38,0
191.13115,191.452,55,38,0
191.452,192.05145,60,40,0
191.452,192.05145,55,40,0
192.05145,192.35101,60,38,0
192.05145,192.35101,55,38,0
192.35101,192.52118,59,37,0
192.50809,192.66515,58,33,0
192.66515,192.83531,59,36,0
192.82222,192.9793,58,33,0
192.9793,193.14944,59,36,0
193.13635,193.29343,58,33,0
193.29343,193.86485,59,36,0
192.35101,193.86485,55,37,0
193.86485,194.08224,54,36,0
194.08224,194.15471,57,41,0
194.15471,194.29825,55,39,0
194.29825,194.44179,54,36,0
194.44179,194.58464,55,39,0
194.58464,194.72751,54,36,0
194.72751,194.86969,55,39,0
194.86969,195.0301,59,36,0
195.0301,195.63982,57,38,0
195.63982,195.93538,55,36,0
195.93538,196.08844,50,38,0
196.08844,196.2415,61,36,0
196.2415,196.39456,62,37,0
196.39456,196.54762,61,36,0
196.54762,196.70068,62,37,0
196.70068,196.85374,61,36,0
196.85374,197.00226,62,38,0
197.00226,197.15077,64,36,0
197.15077,197.29929,60,38,0
197.29929,197.4478,62,36,0
197.4478,197.60245,59,39,0
197.60245,197.75708,60,36,0
197.75708,197.91173,57,40,0
197.91173,198.06636,64,37,0
198.06636,198.22101,60,37,0
198.22101,198.37564,59,36,0
198.37564,198.53271,57,36,0
198.53271,198.68977,55,36,0
198.68977,198.83904,54,36,0
198.83904,198.98828,55,35,0
198.98828,199.14253,57,36,0
199.14253,199.29716,50,37,0
199.29716,199.44792,52,39,0
199.44792,199.59868,54,40,0
199.59868,199.75331,55,39,0
199.75331,199.90796,54,38,0
199.90796,200.06259,52,37,0
200.06259,200.21724,50,36,0
200.21724,200.37682,48,35,0
200.37682,200.53639,47,34,0
200.53639,200.68945,52,38,0
200.68945,200.84251,50,37,0
200.84251,200.99557,48,36,0
200.99557,201.14864,47,35,0
201.14864,201.3017,45,33,0
201.3017,201.45476,43,32,0
201.45476,201.76088,48,39,0
201.76088,202.05644,47,36,0
202.05644,202.37903,45,36,0
202.37903,203.3251,50,39,0
203.3251,203.49365,43,32,0
203.49365,203.66508,54,29,0
203.66508,203.84001,55,32,0
203.84001,204.01807,54,29,0
204.01807,204.19884,55,30,0
204.19884,204.39883,54,27,0
204.39883,204.79883,55,26,0
205.19884,205.3655,71,34,0
205.3655,205.53217,74,34,0
205.53217,205.68842,71,34,0
205.68842,205.84467,74,32,0
205.84467,206.00092,71,34,0
206.00092,206.15717,74,31,0
206.15717,206.31674,72,34,0
206.31674,206.47632,76,31,0
206.47632,206.62631,71,34,0
206.62631,206.7763,74,32,0
206.7763,206.92632,69,34,0
206.92632,207.07631,72,32,0
207.07631,207.23096,67,34,0
207.23096,207.38559,71,31,0
207.38559,207.54184,66,33,0
207.54184,207.69809,69,31,0
207.69809,207.85434,66,33,0
207.85434,208.01059,69,32,0
208.01059,208.16684,66,33,0
208.16684,208.32309,69,31,0
208.32309,208.47934,66,33,0
208.47934,208.63559,69,31,0
208.63559,208.7856,66,33,0
208.7856,208.9356,69,32,0
208.9356,209.08788,66,33,0
209.08788,209.24016,69,31,0
209.24016,209.8284,67,36,0
210.12251,210.71075,57,33,0
210.12251,210.71075,67,33,0
210.12251,210.71075,64,33,0
210.12251,210.71075,61,33,0
211.15639,211.30789,50,32,0
211.30789,211.45941,54,33,0
211.45941,211.61093,50,31,0
211.61093,211.76556,52,32,0
211.76556,211.92021,55,35,0
212.07484,212.22948,54,35,0
212.22948,212.38412,57,38,0
212.38412,212.53876,54,33,0
212.53876,212.6934,55,35,0
212.6934,212.84804,59,37,0
213.00269,213.15732,57,36,0
213.15732,213.31195,60,39,0
213.31195,213.4666,57,36,0
213.4666,213.62123,59,38,0
213.62123,213.77588,55,36,0
213.93051,214.08516,54,33,0
214.08516,214.23979,57,36,0
214.23979,214.39444,54,33,0
214.39444,214.54907,55,36,0
214.54907,214.7037,52,33,0
214.7037,215.01299,50,34,0
215.31602,215.61905,50,32,0
215.61905,215.92207,50,34,0
216.22511,216.52814,38,51,0
216.52814,218.32536,38,62,0
218.47714,218.63072,48,39,0
218.63072,218.78616,57,42,0
218.78616,218.94365,54,36,0
218.94365,219.11314,60,37,0
219.11314,219.30922,57,33,0
219.30922,220.56197,66,36,0
220.56197,221.19354,59,40,0
220.56197,221.19354,55,40,0
221.19354,221.5144,60,38,0
221.19354,221.5144,55,38,0
221.5144,222.11385,60,40,0
221.5144,222.11385,55,40,0
222.11385,222.41302,60,38,0
222.11385,222.41302,55,38,0
222.41302,222.58318,59,37,0
222.5701,222.72716,58,34,0
222.72716,222.89732,59,36,0
222.88423,223.04129,58,32,0
223.04129,223.21146,59,36,0
223.19836,223.35544,58,33,0
223.35544,223.92686,59,36,0
222.41302,223.92686,55,37,0
223.92686,224.14426,54,36,0
224.14426,224.21672,57,41,0
224.21672,224.36026,55,39,0
224.36026,224.5038,54,36,0
224.5038,224.64665,55,39,0
224.64665,224.78952,54,36,0
224.78952,224.93169,55,39,0
224.93169,225.09212,59,36,0
225.09212,225.70183,57,38,0
225.70183,225.99739,55,36,0
225.99739,226.15123,50,38,0
226.15123,226.30508,61,36,0
226.30508,226.45892,62,37,0
226.45892,226.61278,61,36,0
226.61278,226.76662,62,37,0
226.76662,226.92047,61,36,0
226.92047,227.06972,62,38,0
227.06972,227.21898,64,36,0
227.21898,227.36823,60,38,0
227.36823,227.51749,62,36,0
227.51749,227.67212,59,39,0
227.67212,227.82677,60,36,0
227.82677,227.9814,57,40,0
227.9814,228.13603,64,37,0
228.13603,228.29068,60,37,0
228.29068,228.44531,59,36,0
228.44531,228.60405,57,36,0
228.60405,228.76277,55,36,0
228.76277,228.90842,54,36,0
228.90842,229.05405,55,35,0
229.05405,229.20256,57,36,0
229.20256,229.35107,50,37,0
229.35107,229.49812,52,39,0
229.49812,229.64519,54,40,0
229.64519,229.79982,55,39,0
229.79982,229.95447,54,38,0
229.95447,230.1091,52,37,0
230.1091,230.26375,50,36,0
230.26375,230.42247,48,35,0
230.42247,230.5812,47,34,0
230.5812,230.73349,52,38,0
230.73349,230.88577,50,37,0
230.88577,231.03806,48,36,0
231.03806,231.19034,47,35,0
231.19034,231.34908,45,33,0
231.34908,231.5078,43,32,0
231.5078,231.81238,48,39,0
231.81238,232.1094,47,36,0
232.1094,232.42686,45,36,0
232.42686,233.38062,50,39,0
233.38062,233.55011,43,32,0
233.55011,233.72252,54,29,0
233.72252,233.89796,55,32,0
233.89796,234.07654,54,29,0
234.07654,234.25731,55,30,0
234.25731,234.4573,54,27,0
234.4573,234.85732,55,26,0
235.91666,236.24632,58,24,0
235.91666,236.24632,55,19,0
236.90567,237.23534,55,21,0
236.90567,237.23534,60,26,0
237.89467,238.22435,60,28,0
237.89467,238.22435,55,24,0
238.87317,239.20103,58,45,0
238.87317,239.20103,55,38,0
240.45453,241.38718,73,59,0
240.45453,241.38718,70,59,0
240.45453,241.38718,67,59,0
241.38718,242.00726,69,61,0
241.38718,242.00726,65,61,0
242.00726,242.31564,67,58,0
242.00726,242.31564,64,58,0
242.31564,242.69539,65,58,0
242.31564,242.69539,62,58,0
242.69539,243.43158,71,62,0
242.69539,243.43158,68,62,0
243.43158,244.45662,65,58,0
243.43158,244.45662,62,58,0
243.43158,244.45662,57,58,0
244.45662,245.49243,67,49,0
244.45662,245.49243,64,49,0
244.45662,245.49243,57,49,0
246.28714,246.59747,62,27,0
246.28714,246.59747,50,27,0
246.70093,247.11472,62,27,0
246.70093,247.11472,50,27,0
248.18785,248.51752,58,24,0
248.18785,248.51752,55,19,0
249.17686,249.50653,55,24,0
249.17686,249.50653,60,28,0
250.16588,250.49554,60,30,0
250.16588,250.49554,55,25,0
251.14436,251.47223,58,45,0
251.14436,251.47223,55,38,0
252.72574,253.65837,73,59,0
252.72574,253.65837,70,59,0
252.72574,253.65837,67,59,0
253.65837,254.27744,69,61,0
253.65837,254.27744,65,61,0
254.27744,254.58774,67,58,0
254.27744,254.58774,64,58,0
254.58774,254.96748,65,58,0
254.58774,254.96748,62,58,0
254.96748,255.70369,71,62,0
254.96748,255.70369,68,62,0
255.70369,256.7305,65,57,0
255.70369,256.7305,62,57,0
255.70369,256.7305,57,57,0
256.7305,257.772,67,45,0
256.7305,257.772,64,45,0
256.7305,257.772,57,45,0
258.5667,258.87708,62,27,0
258.5667,258.87708,50,27,0
258.9805,259.39432,62,27,0
258.9805,259.39432,50,27,0
260.55484,260.912,62,27,0
260.55484,260.912,58,22,0
261.58997,261.9471,57,25,0
261.58997,261.9471,63,29,0
262.62506,262.98434,58,29,0
262.62506,262.98434,55,25,0
263.66617,263.99405,38,45,0
263.66617,263.99405,50,45,0
263.99405,264.3098,62,55,0
263.99405,264.3098,58,55,0
264.3098,264.93008,60,50,0
264.3098,264.93008,63,50,0
264.93008,265.24423,58,55,0
264.93008,265.24423,62,55,0
265.24423,265.8677,63,49,0
265.24423,265.8677,60,49,0
265.8677,266.18857,58,52,0
265.8677,266.18857,62,52,0
266.18857,266.50354,60,55,0
266.50354,266.8119,62,44,0
266.8119,267.13623,63,44,0
266.18857,267.13623,54,46,0
267.13623,267.46054,55,45,0
267.46054,267.77884,57,36,0
267.77884,268.10056,58,37,0
267.13623,268.10056,62,45,0
268.10056,269.11017,60,38,0
268.10056,269.11017,63,38,0
269.11017,269.84567,58,35,0
269.84567,270.2303,57,29,0
269.11017,270.2303,50,35,0
271.03027,271.2303,55,26,0
271.03027,271.2303,43,26,0
271.4303,271.61896,55,26,0
271.4303,271.61896,43,26,0
272.93176,273.2889,62,27,0
272.93176,273.2889,58,22,0
273.96686,274.324,57,25,0
273.96686,274.324,63,29,0
275.00198,275.36127,58,29,0
275.00198,275.36127,55,25,0
276.0431,276.37094,38,45,0
276.0431,276.37094,50,45,0
276.37094,276.68674,62,55,0
276.37094,276.68674,58,55,0
276.68674,277.307,60,50,0
276.68674,277.307,63,50,0
277.307,277.62112,58,55,0
277.307,277.62112,62,55,0
277.62112,278.2446,63,49,0
277.62112,278.2446,60,49,0
278.2446,278.57248,58,52,0
278.2446,278.57248,62,52,0
278.57248,278.88745,60,57,0
278.88745,279.1958,62,45,0
279.1958,279.52014,63,45,0
278.57248,279.52014,54,48,0
279.52014,279.84445,55,46,0
279.84445,280.16278,57,36,0
280.16278,280.4845,58,36,0
279.52014,280.4845,62,46,0
280.4845,281.5036,60,38,0
280.4845,281.5036,63,38,0
281.5036,282.2391,58,35,0
282.2391,282.62372,57,29,0
281.5036,282.62372,50,35,0
283.4237,283.62372,55,26,0
283.4237,283.62372,43,26,0
283.8237,284.0124,55,26,0
283.8237,284.0124,43,26,0
284.57843,284.9136,59,34,0
284.57843,284.9136,55,34,0
284.9136,285.5452,59,36,0
284.9136,285.5452,55,36,0
285.5452,285.86777,60,32,0
285.5452,285.86777,55,32,0
285.86777,286.4736,60,34,0
285.86777,286.4736,55,34,0
286.4736,286.77063,60,36,0
286.4736,286.77063,55,36,0
286.77063,287.3546,59,37,0
286.77063,287.3546,55,37,0
287.3546,287.65332,59,30,0
287.3546,287.65332,55,30,0
287.65332,288.25034,59,33,0
287.65332,288.25034,55,33,0
288.25034,288.54254,54,44,0
288.54254,288.68625,55,40,0
288.68625,288.82828,56,44,0
288.82828,288.96848,57,47,0
288.96848,289.10693,58,50,0
289.10693,289.44785,59,55,0
289.44785,290.07614,57,50,0
290.07614,290.3919,55,48,0
290.3919,290.85034,50,51,0
290.85034,290.92648,52,50,0
290.92648,291.00262,54,51,0
291.00262,291.07877,55,54,0
291.07877,291.1549,57,54,0
291.1549,291.23105,59,55,0
291.23105,291.3072,61,56,0
291.3072,291.61807,62,59,0
291.61807,291.92896,60,52,0
291.92896,292.23663,59,52,0
292.23663,292.85202,57,48,0
292.85202,293.16452,55,46,0
293.16452,294.11032,54,48,0
293.79944,294.72256,62,46,0
294.72256,295.0287,65,44,0
295.0287,295.3388,64,41,0
295.3388,295.64655,62,41,0
295.64655,295.95508,60,41,0
294.11032,295.95508,55,48,0
295.95508,296.26843,59,41,0
296.26843,296.58182,57,39,0
296.58182,296.9097,60,39,0
296.9097,297.23755,59,36,0
295.95508,297.56543,55,41,0
297.56543,297.90094,57,32,0
297.23755,298.2363,67,35,0
298.2363,298.56418,66,32,0
298.56418,298.90253,66,32,0
298.90253,299.25137,66,29,0
297.90094,299.25137,62,34,0
299.6002,299.9354,59,34,0
299.6002,299.9354,55,34,0
299.9354,300.567,59,36,0
299.9354,300.567,55,36,0
300.567,300.88956,60,32,0
300.567,300.88956,55,32,0
300.88956,301.4954,60,34,0
300.88956,301.4954,55,34,0
301.4954,301.79242,60,36,0
301.4954,301.79242,55,36,0
301.79242,302.3764,59,37,0
301.79242,302.3764,55,37,0
302.3764,302.67508,59,30,0
302.3764,302.67508,55,30,0
302.67508,303.2721,59,33,0
302.67508,303.2721,55,33,0
303.2721,303.56433,54,44,0
303.56433,303.71286,55,40,0
303.71286,303.8579,56,44,0
303.8579,303.99942,57,47,0
303.99942,304.13754,58,50,0
304.13754,304.47845,59,55,0
304.47845,305.10675,57,50,0
305.10675,305.42252,55,48,0
305.42252,305.88092,50,51,0
305.88092,305.95706,52,49,0
305.95706,306.0332,54,50,0
306.0332,306.10934,55,52,0
306.10934,306.18552,57,54,0
306.18552,306.26166,59,55,0
306.26166,306.3378,61,55,0
306.3378,306.64868,62,57,0
306.64868,306.95953,60,52,0
306.95953,307.26724,59,52,0
307.26724,307.88263,57,48,0
307.88263,308.19513,55,46,0
308.19513,309.14093,54,48,0
308.83005,309.75317,62,46,0
309.75317,310.0593,65,44,0
310.0593,310.36942,64,41,0
310.36942,310.67715,62,41,0
310.67715,310.9857,60,41,0
309.14093,310.9857,55,48,0
310.9857,311.29904,59,41,0
311.29904,311.61243,57,39,0
311.61243,311.94028,60,39,0
311.94028,312.26816,59,36,0
310.9857,312.59604,55,41,0
312.59604,312.93155,57,32,0
312.26816,313.2669,67,35,0
313.2669,313.5948,66,32,0
313.5948,313.93314,66,32,0
313.93314,314.28195,66,29,0
312.93155,314.28195,62,34,0
314.6308,314.9989,74,36,0
314.6308,314.9989,71,36,0
314.9989,315.64407,74,39,0
314.9989,315.64407,71,39,0
315.64407,315.95984,76,36,0
315.64407,315.95984,72,36,0
315.95984,316.27563,74,40,0
315.95984,316.27563,71,40,0
316.27563,316.58813,72,36,0
316.27563,316.58813,69,36,0
316.58813,316.90063,71,36,0
316.58813,316.90063,67,36,0
316.90063,317.5273,69,41,0
316.90063,317.5273,66,41,0
317.5273,317.8382,69,36,0
317.5273,317.8382,66,36,0
317.8382,318.45676,69,45,0
317.8382,318.45676,66,45,0
318.45676,318.76447,69,43,0
318.45676,318.76447,66,43,0
318.76447,319.71237,71,49,0
318.76447,319.71237,67,49,0
319.71237,320.65112,67,44,0
319.71237,320.65112,64,44,0
319.71237,320.65112,57,44,0
320.9604,321.26968,50,46,0
320.9604,321.26968,54,46,0
321.26968,321.42432,52,47,0
321.26968,321.42432,55,47,0
321.8882,322.1975,54,45,0
321.8882,322.1975,57,45,0
322.1975,322.35214,59,46,0
322.1975,322.35214,55,46,0
322.8403,323.1496,60,46,0
322.8403,323.1496,57,46,0
323.1496,323.30423,59,47,0
323.1496,323.30423,55,47,0
323.7924,324.10165,57,44,0
323.7924,324.10165,54,44,0
324.10165,324.2563,52,44,0
324.10165,324.2563,55,44,0
324.41095,324.7202,54,44,0
324.41095,324.7202,50,44,0
324.7202,325.02948,62,43,0
324.7202,325.02948,66,43,0
325.02948,325.33878,64,41,0
325.02948,325.33878,67,41,0
325.64804,325.95734,66,42,0
325.64804,325.95734,69,42,0
325.95734,326.2666,70,41,0
325.95734,326.2666,67,41,0
326.5759,326.88202,69,40,0
326.5759,326.88202,72,40,0
326.88202,327.18814,67,36,0
326.88202,327.18814,70,36,0
327.4974,327.8067,66,37,0
327.4974,327.8067,69,37,0
327.8067,328.11597,67,36,0
327.8067,328.11597,64,36,0
328.11597,328.74423,66,37,0
328.11597,328.74423,62,37,0
331.04257,331.30887,81,33,0
331.3976,331.66388,81,31,0
331.75266,332.01892,81,31,0
332.10767,332.47806,81,26,0
332.10767,332.47806,78,26,0
332.47806,332.84842,81,25,0
332.47806,332.84842,78,25,0
332.84842,333.33228,81,23,0
332.84842,333.33228,78,23,0
333.33228,334.7839,81,21,0
333.33228,334.7839,78,21,0
335.89502,336.40784,69,21,0
335.89502,336.40784,66,21,0
336.40784,338.0745,69,21,0
336.40784,338.0745,66,21,0
338.0745,338.42133,59,38,0
338.0745,338.42133,55,38,0
338.42133,339.06302,59,40,0
338.42133,339.06302,55,40,0
339.06302,339.38562,60,38,0
339.06302,339.38562,55,38,0
339.38562,340.03494,60,40,0
339.38562,340.03494,55,40,0
340.03494,340.37015,60,38,0
340.03494,340.37015,55,38,0
340.37015,340.48856,59,37,0
340.37015,340.48856,55,37,0
340.6859,340.80435,59,36,0
340.6859,340.80435,55,36,0
341.0017,341.12015,59,36,0
341.0017,341.12015,55,36,0
341.3175,341.95416,59,36,0
341.3175,341.95416,55,36,0
341.95416,342.265,50,52,0
342.265,342.5759,59,55,0
342.265,342.5759,55,55,0
342.87756,343.21725,55,49,0
342.81708,343.21725,43,40,0
342.83722,343.21725,47,43,0
342.8574,343.21725,50,45,0
343.27585,343.9631,57,49,0
343.21725,343.9631,45,41,0
343.2368,343.9631,48,44,0
343.25632,343.9631,54,45,0
343.9631,344.274,55,48,0
343.9631,344.274,50,48,0
343.9631,344.274,47,48,0
344.274,344.3517,62,54,0
344.3517,344.4294,64,54,0
344.4294,344.50714,66,54,0
344.50714,344.58487,67,54,0
345.25226,346.1971,50,53,0
345.25226,346.1971,38,45,0
345.25226,346.1971,42,45,0
345.25226,346.1971,45,45,0
346.1971,346.54196,64,26,0
346.54196,346.88287,60,27,0
346.88287,347.19864,59,27,0
347.19864,347.37616,57,27,0
347.55368,347.91513,57,25,0
348.2878,348.6346,62,28,0
348.6346,348.97284,59,29,0
348.97284,349.2886,57,29,0
349.2886,349.4672,55,26,0
349.64575,350.00504,55,26,0
350.36432,350.69846,52,31,0
350.69846,350.85962,48,31,0
351.65372,351.8116,50,27,0
352.60107,352.77155,55,36,0
352.942,353.11246,50,33,0
353.2829,353.5019,47,33,0
353.64786,354.01282,50,45,0
353.61136,354.1588,43,39,0
353.6296,354.1588,47,42,0
353.6661,354.1588,55,47,0
354.63126,355.011,74,36,0
354.63126,355.011,71,36,0
355.011,355.65616,74,39,0
355.011,355.65616,71,39,0
355.65616,355.97195,76,36,0
355.65616,355.97195,72,36,0
355.97195,356.28775,74,40,0
355.97195,356.28775,71,40,0
356.28775,356.60025,72,36,0
356.28775,356.60025,69,36,0
356.60025,356.91275,71,36,0
356.60025,356.91275,67,36,0
356.91275,357.5394,69,41,0
356.91275,357.5394,66,41,0
357.5394,357.85028,69,36,0
357.5394,357.85028,66,36,0
357.85028,358.46887,69,45,0
357.85028,358.46887,66,45,0
358.46887,358.77655,69,43,0
358.46887,358.77655,66,43,0
358.77655,359.7245,71,49,0
358.77655,359.7245,67,49,0
359.7245,360.6632,67,44,0
359.7245,360.6632,64,44,0
359.7245,360.6632,57,44,0
360.9725,361.28177,50,46,0
360.9725,361.28177,54,46,0
361.28177,361.4364,52,47,0
361.28177,361.4364,55,47,0
361.90033,362.2096,54,45,0
361.90033,362.2096,57,45,0
362.2096,362.36426,59,46,0
362.2096,362.36426,55,46,0
362.85617,363.16776,60,46,0
362.85617,363.16776,57,46,0
363.16776,363.32242,59,47,0
363.16776,363.32242,55,47,0
363.81244,364.1217,57,44,0
363.81244,364.1217,54,44,0
364.1217,364.27634,52,44,0
364.1217,364.27634,55,44,0
364.431,364.74026,54,44,0
364.431,364.74026,50,44,0
364.74026,365.04953,62,43,0
364.74026,365.04953,66,43,0
365.04953,365.35883,64,41,0
365.04953,365.35883,67,41,0
365.6681,365.9774,66,42,0
365.6681,365.9774,69,42,0
365.9774,366.28665,70,41,0
365.9774,366.28665,67,41,0
366.59595,366.90207,69,40,0
366.59595,366.90207,72,40,0
366.90207,367.2082,67,36,0
366.90207,367.2082,70,36,0
367.51746,367.82675,66,37,0
367.51746,367.82675,69,37,0
367.82675,368.13602,67,36,0
367.82675,368.13602,64,36,0
368.13602,368.76428,66,37,0
368.13602,368.76428,62,37,0
371.06262,371.32892,81,33,0
371.41766,371.68393,81,31,0
371.7727,372.03897,81,31,0
372.12772,372.49808,81,26,0
372.12772,372.49808,78,26,0
372.49808,372.86847,81,25,0
372.49808,372.86847,78,25,0
372.86847,373.35233,81,23,0
372.86847,373.35233,78,23,0
373.35233,374.80396,81,21,0
373.35233,374.80396,78,21,0
375.91507,376.4279,69,21,0
375.91507,376.4279,66,21,0
376.4279,378.09454,69,21,0
376.4279,378.09454,66,21,0
378.09454,378.44138,59,38,0
378.09454,378.44138,55,38,0
378.44138,379.08307,59,40,0
378.44138,379.08307,55,40,0
379.08307,379.40567,60,38,0
379.08307,379.40567,55,38,0
379.40567,380.055,60,40,0
379.40567,380.055,55,40,0
380.055,380.3902,60,38,0
380.055,380.3902,55,38,0
380.3902,380.5086,59,37,0
380.3902,380.5086,55,37,0
380.70596,380.8244,59,36,0
380.70596,380.8244,55,36,0
381.02176,381.1402,59,36,0
381.02176,381.1402,55,36,0
381.33755,381.97418,59,36,0
381.33755,381.97418,55,36,0
381.97418,382.28506,50,52,0
382.28506,382.59595,59,55,0
382.28506,382.59595,55,55,0
382.89758,383.23633,55,51,0
382.83713,383.23633,43,43,0
382.85727,383.23633,47,45,0
382.87744,383.23633,50,47,0
383.29633,383.98547,57,51,0
383.23633,383.98547,45,42,0
383.25635,383.98547,48,45,0
383.27634,383.98547,54,46,0
383.98547,384.29636,55,48,0
383.98547,384.29636,50,48,0
383.98547,384.29636,47,48,0
384.29636,384.37408,62,54,0
384.37408,384.45178,64,54,0
384.45178,384.5295,66,54,0
384.5295,384.60724,67,54,0
385.277,386.2219,50,53,0
385.277,386.2219,38,45,0
385.277,386.2219,42,45,0
385.277,386.2219,45,45,0
386.2219,386.56674,64,26,0
386.56674,386.90765,60,27,0
386.90765,387.22678,59,27,0
387.22678,387.4043,57,27,0
387.58182,387.94327,57,25,0
388.31595,388.66275,62,28,0
388.66275,389.00098,59,29,0
389.00098,389.3201,57,29,0
389.3201,389.4987,55,26,0
389.67725,390.03653,55,26,0
390.3958,390.72995,52,31,0
390.72995,390.89127,48,31,0
391.6858,391.84708,50,27,0
392.6535,392.8321,55,36,0
393.01065,393.18924,50,33,0
393.3678,393.60782,47,33,0
393.7678,394.10098,50,45,0
393.7278,394.22754,43,39,0
393.7478,394.22754,47,40,0
393.7878,394.22754,55,47,0
