start_time,end_time,note_value,velocity,instrument_program_number
1.037226,1.2994177,72,50,0
1.2994177,1.392441,76,50,0
1.392441,1.4811774,79,57,0
1.747387,1.8361235,79,50,0
2.102333,2.1938858,79,50,0
2.4227676,2.468544,83,60,0
2.468544,2.5569406,84,71,0
2.82213,2.9105265,79,50,0
3.175716,3.2641125,79,43,0
3.529302,3.6212194,79,43,0
3.896972,4.1581745,76,50,0
4.1581745,4.251198,72,50,0
4.251198,4.3389273,71,57,0
4.6021156,4.689845,71,53,0
4.953034,5.0431023,72,57,0
5.313308,5.4189415,72,52,0
5.7358427,6.0867605,74,57,0
6.7885966,7.0497994,67,50,0
7.0497994,7.147813,74,47,0
7.147813,7.234228,77,58,0
7.493475,7.7546773,77,50,0
7.7546773,7.857389,79,48,0
7.857389,7.944456,76,58,0
8.205659,8.464905,76,50,0
8.464905,8.567616,77,50,0
8.567616,8.653709,74,59,0
8.911989,9.17418,74,50,0
9.17418,9.276194,76,47,0
9.276194,9.361966,72,57,0
9.619286,9.706026,72,52,0
9.98083,10.0672455,74,57,0
10.326492,10.412908,74,52,0
10.672154,10.75857,71,58,0
11.017817,11.108429,71,52,0
11.380266,11.723045,72,63,0
12.408604,12.670795,72,69,0
12.670795,12.771439,76,71,0
12.771439,12.860175,79,83,0
13.126385,13.215121,79,75,0
13.481331,13.57041,79,76,0
13.793107,13.837647,83,78,0
13.837647,14.191233,84,92,0
14.191233,14.27963,79,85,0
14.544819,14.633216,79,74,0
14.898405,14.987484,79,74,0
15.26942,15.356487,77,69,0
15.356487,15.443555,76,60,0
15.443555,15.530622,74,60,0
15.530622,15.623645,72,60,0
15.623645,15.711374,71,74,0
15.974564,16.062292,71,68,0
16.325481,16.41321,72,74,0
16.6764,16.76413,72,67,0
17.088842,17.43976,74,74,0
18.141596,18.402798,67,65,0
18.402798,18.49292,74,61,0
18.49292,18.579336,77,75,0
18.838583,19.099785,77,65,0
19.099785,19.201109,79,62,0
19.201109,19.288176,76,75,0
19.54938,19.808626,76,65,0
19.808626,19.90927,77,65,0
19.90927,19.995363,74,76,0
20.253641,20.515833,74,65,0
20.515833,20.614817,76,61,0
20.614817,20.70059,72,74,0
20.97278,21.059717,72,67,0
21.334913,21.421328,74,74,0
21.680574,21.769312,74,67,0
22.03552,22.121614,71,75,0
22.379892,22.480904,71,67,0
22.783934,23.854147,72,81,0
23.854147,24.11123,76,50,0
24.11123,24.205547,79,46,0
24.205547,24.291962,77,50,0
24.551208,24.812412,77,50,0
24.812412,24.913736,81,45,0
24.913736,25.000803,71,50,0
25.262005,25.521252,71,50,0
25.521252,25.621897,74,45,0
25.621897,25.708311,72,50,0
25.967558,26.22876,72,50,0
26.22876,26.330084,76,50,0
26.330084,26.417152,79,61,0
26.678354,26.935438,84,57,0
26.935438,27.029755,76,50,0
27.029755,27.11617,77,60,0
27.375416,27.63662,81,58,0
27.63662,27.737944,72,49,0
27.737944,27.82501,71,59,0
28.086214,28.345459,77,60,0
28.345459,28.446104,71,54,0
28.446104,28.53484,72,66,0
28.80105,28.889786,72,52,0
29.155996,29.245075,72,51,0
29.512312,29.600708,76,57,0
29.600708,29.689104,74,50,0
29.689104,29.777502,72,50,0
29.777502,29.865898,74,50,0
29.865898,29.954634,76,63,0
30.220844,30.30958,72,52,0
30.57579,30.66487,72,51,0
30.932106,31.020502,76,57,0
31.020502,31.108898,74,50,0
31.108898,31.197296,72,50,0
31.197296,31.285692,74,50,0
31.285692,31.374428,76,63,0
31.640638,31.729374,72,52,0
31.995584,32.084663,72,51,0
32.3519,32.440296,76,57,0
32.440296,32.528694,74,50,0
32.528694,32.61709,72,50,0
32.61709,32.705486,74,50,0
32.705486,32.79388,76,63,0
33.05907,33.14747,76,53,0
33.41266,33.501736,76,53,0
33.768974,33.85737,79,60,0
33.85737,33.945766,78,53,0
33.945766,34.034164,76,53,0
34.034164,34.12256,78,53,0
34.12256,34.211296,79,68,0
34.477505,34.566242,79,57,0
34.83245,34.92153,79,57,0
35.188766,35.277164,83,64,0
35.277164,35.365562,81,57,0
35.365562,35.453957,79,57,0
35.453957,35.542355,81,57,0
35.542355,35.631092,83,73,0
35.8973,35.986034,79,64,0
36.252247,36.341324,79,64,0
36.608562,36.696957,83,69,0
36.696957,36.785355,81,61,0
36.785355,36.873753,79,61,0
36.873753,36.962147,81,61,0
36.962147,37.050884,83,78,0
37.317093,37.40583,79,65,0
37.67204,37.76112,79,65,0
38.028355,38.146217,79,75,0
38.146217,38.26408,83,69,0
38.26408,38.381943,86,71,0
38.381943,38.727604,84,75,0
38.727604,38.988808,84,69,0
38.988808,39.09013,86,65,0
39.09013,39.177197,83,75,0
39.4384,39.697647,83,75,0
39.697647,39.79829,84,70,0
39.79829,39.884705,81,75,0
40.14395,40.405155,81,69,0
40.405155,40.506477,83,65,0
40.506477,40.593548,79,75,0
40.854748,40.97261,79,57,0
40.97261,41.090473,83,52,0
41.090473,41.208336,86,53,0
41.208336,41.381165,84,57,0
41.381165,41.438778,86,57,0
41.438778,41.496387,84,49,0
41.496387,41.553997,83,49,0
41.553997,41.8152,84,52,0
41.8152,41.916523,86,49,0
41.916523,42.09066,83,57,0
42.09066,42.148705,84,57,0
42.148705,42.20675,83,50,0
42.20675,42.264793,81,50,0
42.264793,42.52404,83,57,0
42.52404,42.624683,84,53,0
42.624683,42.797516,81,57,0
42.797516,42.855125,83,57,0
42.855125,42.912735,81,51,0
42.912735,42.970345,79,51,0
42.970345,43.23155,81,52,0
43.23155,43.332874,83,49,0
43.332874,43.68114,79,57,0
43.68114,43.942345,86,66,0
43.942345,44.02941,83,55,0
44.02941,44.202244,81,74,0
44.202244,44.259853,83,68,0
44.259853,44.317463,81,59,0
44.317463,44.375076,79,59,0
44.375076,44.636276,81,62,0
44.636276,44.737602,83,59,0
44.737602,44.911736,79,68,0
44.911736,44.96978,81,68,0
44.96978,45.027824,79,60,0
45.027824,45.085873,78,60,0
45.085873,45.34512,79,68,0
45.34512,45.445763,81,63,0
45.445763,45.84834,78,74,0
46.134888,46.230404,74,68,0
46.230404,46.516956,78,79,0
46.516956,46.612473,74,68,0
46.612473,46.899025,81,74,0
46.899025,47.0101,78,68,0
47.0101,47.39096,86,86,0
47.6766,47.771816,62,66,0
47.771816,47.898766,66,77,0
47.898766,48.02572,62,69,0
48.02572,48.15267,66,69,0
48.15267,48.27962,69,80,0
48.27962,48.406574,66,70,0
48.406574,48.549393,69,70,0
48.549393,48.93025,74,84,0
49.311104,49.88239,50,95,0
49.88239,50.072815,50,89,0
50.072815,50.45367,50,97,0
52.66245,52.750843,76,57,0
52.750843,52.83924,74,50,0
52.83924,52.927635,73,50,0
52.927635,53.016033,74,50,0
53.016033,53.10443,79,63,0
53.369617,53.458015,79,53,0
54.07952,54.16792,76,60,0
54.16792,54.256313,74,53,0
54.256313,54.34471,73,53,0
54.34471,54.433105,74,53,0
54.433105,54.521843,79,68,0
54.78805,54.87679,79,57,0
55.499313,55.58771,76,64,0
55.58771,55.67611,74,57,0
55.67611,55.764503,73,57,0
55.764503,55.8529,74,57,0
55.8529,56.207848,79,73,0
56.207848,56.296585,81,75,0
56.296585,56.38532,79,63,0
56.38532,56.474056,78,63,0
56.474056,56.562794,79,63,0
56.562794,56.91911,81,75,0
56.91911,57.007507,83,75,0
57.007507,57.0959,81,66,0
57.0959,57.1843,79,66,0
57.1843,57.272694,81,66,0
57.272694,57.62764,83,78,0
57.62764,57.716377,84,77,0
57.716377,57.805115,83,70,0
57.805115,57.893852,81,70,0
57.893852,57.982586,83,71,0
57.982586,58.3389,84,81,0
58.3389,58.429516,86,87,0
58.429516,58.520126,84,75,0
58.520126,58.61074,83,78,0
58.61074,58.7202,84,76,0
58.7202,59.82791,86,105,0
59.82791,60.226475,87,103,0
59.82791,60.226475,75,86,0
60.226475,60.595615,88,108,0
60.226475,60.595615,76,92,0
60.595615,60.964756,80,75,0
60.595615,60.964756,68,64,0
60.964756,61.333897,81,82,0
60.964756,61.333897,69,69,0
61.333897,61.703037,71,75,0
61.333897,61.703037,83,89,0
61.703037,62.46681,84,95,0
61.703037,62.46681,72,80,0
62.46681,62.844074,86,90,0
62.46681,62.844074,74,76,0
62.844074,63.266487,88,86,0
62.844074,63.266487,76,72,0
63.266487,63.96291,74,59,0
63.266487,63.96291,79,70,0
63.96291,64.00934,83,58,0
64.00934,64.57346,81,66,0
64.57346,64.78246,79,56,0
64.00934,64.78246,78,66,0
64.78246,65.15274,79,66,0
65.893295,66.01303,83,57,0
66.01303,66.13276,87,61,0
66.13276,66.26786,88,61,0
66.26786,66.35766,86,58,0
66.62705,66.71686,86,49,0
66.98625,67.07605,86,49,0
67.35901,67.478745,79,57,0
67.478745,67.59847,83,44,0
67.59847,67.733574,84,44,0
67.733574,67.82337,83,58,0
68.092766,68.18256,83,49,0
68.451965,68.54176,83,49,0
68.81116,68.93089,76,57,0
68.93089,69.05062,80,44,0
69.05062,69.18572,81,44,0
69.18572,69.27552,79,58,0
69.544914,69.63471,79,49,0
69.90411,69.99391,79,49,0
70.263306,70.52873,83,61,0
70.52873,70.6172,79,54,0
70.6172,70.70568,76,62,0
70.981026,71.24962,84,61,0
71.24962,71.33915,81,53,0
71.33915,71.42868,78,61,0
71.70335,71.972786,81,60,0
71.972786,72.06423,78,54,0
72.06423,72.15296,79,61,0
73.12907,73.2488,83,88,0
73.2488,73.36853,87,61,0
73.36853,73.50363,88,61,0
73.50363,73.62336,81,72,0
73.62336,73.743095,85,47,0
73.743095,73.86282,86,47,0
73.86282,73.98256,81,66,0
73.98256,74.10229,85,47,0
74.10229,74.222015,86,47,0
74.222015,74.34175,81,66,0
74.34175,74.46148,85,51,0
74.46148,74.59478,86,52,0
74.59478,74.71451,83,88,0
74.71451,74.83424,87,61,0
74.83424,74.969345,88,61,0
74.969345,75.08907,81,69,0
75.08907,75.20881,85,54,0
75.20881,75.32854,86,55,0
75.32854,75.448265,81,70,0
75.448265,75.568,85,47,0
75.568,75.68773,86,47,0
75.68773,75.807465,81,67,0
75.807465,75.92719,85,46,0
75.92719,76.06049,86,49,0
76.06049,76.18022,79,64,0
76.18022,76.29996,83,50,0
76.29996,76.43506,84,50,0
76.43506,76.55479,78,69,0
76.55479,76.674515,82,50,0
76.674515,76.79425,83,50,0
76.79425,76.91398,78,66,0
76.91398,77.033714,82,46,0
77.033714,77.15344,83,46,0
77.15344,77.27318,78,64,0
77.27318,77.39291,82,46,0
77.39291,77.52621,83,46,0
77.52621,77.645935,79,75,0
77.645935,77.76567,83,54,0
77.76567,77.900764,84,54,0
77.900764,78.0205,78,69,0
78.0205,78.14023,82,50,0
78.14023,78.259964,83,50,0
78.259964,78.37969,78,66,0
78.37969,78.49943,82,47,0
78.49943,78.619156,83,47,0
78.619156,78.73889,78,64,0
78.73889,78.85862,82,47,0
78.85862,78.99192,83,48,0
78.99192,79.11165,76,70,0
79.11165,79.231384,80,54,0
79.231384,79.36648,81,54,0
79.36648,79.48621,74,59,0
79.48621,79.60594,78,48,0
79.60594,79.72568,79,46,0
79.72568,79.845406,74,61,0
79.845406,79.96514,78,47,0
79.96514,80.08487,79,50,0
80.08487,80.204605,74,62,0
80.204605,80.32433,78,49,0
80.32433,80.457634,79,49,0
80.457634,80.57736,76,70,0
80.57736,80.6971,80,54,0
80.6971,80.83219,81,54,0
80.83219,80.95193,74,59,0
80.95193,81.071655,78,48,0
81.071655,81.19139,79,46,0
81.19139,81.31112,74,61,0
81.31112,81.430855,78,47,0
81.430855,81.55058,79,50,0
81.55058,81.67032,74,62,0
81.67032,81.79005,78,49,0
81.79005,81.92335,79,49,0
81.92335,82.043076,76,70,0
82.043076,82.16281,80,54,0
82.16281,82.297905,81,54,0
82.297905,82.41764,74,72,0
82.41764,82.53737,78,56,0
82.53737,82.657104,79,56,0
82.657104,82.77683,74,73,0
82.77683,82.89657,80,62,0
82.89657,83.0163,81,62,0
83.0163,83.13603,74,80,0
83.13603,83.25576,82,69,0
83.25576,83.38906,83,65,0
83.38906,83.50987,74,83,0
83.50987,83.63069,83,74,0
83.63069,83.761536,84,74,0
83.761536,83.89213,74,86,0
83.89213,84.00887,85,93,0
84.00887,84.12607,86,92,0
84.12607,84.24379,84,89,0
84.24379,84.36196,83,88,0
84.36196,84.48062,81,86,0
84.48062,84.59979,79,83,0
84.59979,84.71941,78,82,0
84.71941,84.83959,76,80,0
84.83959,84.96024,74,78,0
84.96024,85.0814,72,76,0
85.0814,85.20309,71,74,0
85.20309,85.33126,69,70,0
85.33126,85.454445,76,78,0
85.454445,85.57365,74,76,0
85.57365,85.69432,72,73,0
85.69432,85.81636,71,71,0
85.81636,85.93997,69,69,0
85.93997,86.30015,67,83,0
86.30015,86.38997,66,75,0
86.38997,86.480515,67,67,0
86.480515,86.66375,66,75,0
86.79682,86.91357,85,78,0
86.91357,87.03076,86,78,0
87.03076,87.14848,84,84,0
87.14848,87.266655,83,83,0
87.266655,87.385315,81,81,0
87.385315,87.504486,79,80,0
87.504486,87.62411,78,78,0
87.62411,87.744286,76,77,0
87.744286,87.86494,74,75,0
87.86494,87.98609,72,73,0
87.98609,88.10778,71,72,0
88.10778,88.235954,69,70,0
88.235954,88.35914,76,78,0
88.35914,88.47834,74,76,0
88.47834,88.599014,72,73,0
88.599014,88.721054,71,71,0
88.721054,88.844666,69,69,0
88.844666,89.20484,67,83,0
89.20484,89.29466,66,75,0
89.29466,89.38521,67,67,0
89.38521,89.56844,66,75,0
89.56844,89.92339,67,63,0
90.63465,90.89984,74,57,0
90.89984,90.988235,78,57,0
90.988235,91.07697,79,64,0
91.343185,91.43192,79,57,0
91.69813,91.78721,79,57,0
91.87629,91.93568,83,54,0
91.93568,91.99506,81,51,0
91.99506,92.05444,79,51,0
92.05444,92.31963,81,61,0
92.31963,92.408035,86,57,0
92.408035,92.496765,83,63,0
92.76298,92.851715,79,57,0
93.11793,93.20883,79,57,0
93.48156,93.74675,74,81,0
93.74675,93.835144,78,81,0
93.835144,93.92388,79,91,0
94.190094,94.27883,79,81,0
94.54504,94.63412,79,81,0
94.7232,94.782585,83,77,0
94.782585,94.841965,81,72,0
94.841965,94.90135,79,72,0
94.90135,95.16654,81,86,0
95.16654,95.254944,83,81,0
95.254944,95.609886,79,91,0
95.96935,96.33658,71,81,0
95.96935,96.33658,74,81,0
96.76025,97.121605,67,81,0
96.76025,97.121605,71,81,0
97.84432,98.106514,72,50,0
98.106514,98.19954,76,50,0
98.19954,98.28828,79,57,0
98.55449,98.64322,79,50,0
98.90943,99.000984,79,50,0
99.229866,99.27564,83,60,0
99.27564,99.36404,84,71,0
99.62923,99.71763,79,50,0
99.98281,100.07121,79,43,0
100.3364,100.42832,79,43,0
100.70407,100.96527,76,50,0
100.96527,101.0583,72,50,0
101.0583,101.14603,71,57,0
101.40922,101.49694,71,53,0
101.76013,101.850204,72,57,0
102.12041,102.22832,72,52,0
102.55206,102.90298,74,57,0
103.60481,103.86602,67,50,0
103.86602,103.964035,74,47,0
103.964035,104.050446,77,58,0
104.30969,104.57089,77,50,0
104.57089,104.67361,79,48,0
104.67361,104.76067,76,58,0
105.02188,105.28112,76,50,0
105.28112,105.383835,77,50,0
105.383835,105.469925,74,59,0
105.72821,105.9904,74,50,0
105.9904,106.092415,76,47,0
106.092415,106.178185,72,57,0
106.4355,106.52225,72,52,0
106.79705,106.88346,74,57,0
107.14271,107.229126,74,52,0
107.48837,107.57479,71,58,0
107.83404,107.924644,71,52,0
108.19649,108.53926,72,63,0
109.22482,109.487015,72,69,0
109.487015,109.587654,76,71,0
109.587654,109.67639,79,83,0
109.942604,110.03134,79,75,0
110.29755,110.38663,79,76,0
110.60933,110.65386,83,78,0
110.65386,111.007454,84,92,0
111.007454,111.09585,79,85,0
111.36104,111.44943,79,74,0
111.71462,111.8037,79,74,0
112.08564,112.17271,77,69,0
112.17271,112.25977,76,60,0
112.25977,112.34684,74,60,0
112.34684,112.439865,72,60,0
112.439865,112.527596,71,74,0
112.79078,112.87851,71,68,0
113.1417,113.22943,72,74,0
113.492615,113.580345,72,67,0
113.913704,114.26462,74,74,0
114.96645,115.22766,67,65,0
115.22766,115.31778,74,61,0
115.31778,115.4042,77,75,0
115.663445,115.924644,77,65,0
115.924644,116.02597,79,62,0
116.02597,116.11304,76,75,0
116.37424,116.633484,76,65,0
116.633484,116.73413,77,65,0
116.73413,116.82022,74,76,0
117.0785,117.34069,74,65,0
117.34069,117.439674,76,61,0
117.439674,117.52545,72,74,0
117.79764,117.884575,72,67,0
118.159775,118.246185,74,74,0
118.50543,118.59417,74,67,0
118.86038,118.94647,71,75,0
119.20475,119.305084,71,67,0
119.60609,120.67631,72,81,0
120.67631,120.93339,76,50,0
120.93339,121.0277,79,46,0
121.0277,121.11412,77,50,0
121.37337,121.63457,77,50,0
121.63457,121.73589,81,45,0
121.73589,121.82296,71,50,0
122.08416,122.34341,71,50,0
122.34341,122.44405,74,45,0
122.44405,122.53047,72,50,0
122.78972,123.05092,72,50,0
123.05092,123.152245,76,50,0
123.152245,123.23931,79,61,0
123.50051,123.7576,84,57,0
123.7576,123.85191,76,50,0
123.85191,123.93833,77,60,0
124.19757,124.45878,81,58,0
124.45878,124.560104,72,49,0
124.560104,124.64717,71,59,0
124.90837,125.16762,77,60,0
125.16762,125.268265,71,54,0
125.268265,125.356995,72,66,0
125.62321,125.711945,72,52,0
125.97816,126.06723,72,51,0
126.33447,126.42287,76,57,0
126.42287,126.51126,74,50,0
126.51126,126.59966,72,50,0
126.59966,126.68806,74,50,0
126.68806,126.776794,76,63,0
127.043,127.13174,72,52,0
127.39795,127.48703,72,51,0
127.754265,127.84266,76,57,0
127.84266,127.93105,74,50,0
127.93105,128.01945,72,50,0
128.01945,128.10785,74,50,0
128.10785,128.19658,76,63,0
128.4628,128.55153,72,52,0
128.81775,128.90681,72,51,0
129.17406,129.26245,76,57,0
129.26245,129.35085,74,50,0
129.35085,129.43924,72,50,0
129.43924,129.52765,74,50,0
129.52765,129.61604,76,63,0
129.88123,129.96962,76,55,0
130.23482,130.3239,76,55,0
130.59113,130.67953,79,60,0
130.67953,130.76793,78,53,0
130.76793,130.85632,76,53,0
130.85632,130.94472,78,53,0
130.94472,131.03345,79,68,0
131.29967,131.3884,79,57,0
131.6546,131.74368,79,57,0
132.01093,132.09932,83,64,0
132.09932,132.18771,81,57,0
132.18771,132.27611,79,57,0
132.27611,132.36452,81,57,0
132.36452,132.45325,83,73,0
132.71945,132.8082,79,61,0
133.0744,133.16348,79,61,0
133.43073,133.51912,83,69,0
133.51912,133.60751,81,61,0
133.60751,133.6959,79,61,0
133.6959,133.7843,81,61,0
133.7843,133.87305,83,78,0
134.13925,134.22798,79,65,0
134.4942,134.58328,79,65,0
134.85051,134.96837,79,75,0
134.96837,135.08624,83,69,0
135.08624,135.2041,86,71,0
135.2041,135.54976,84,75,0
135.54976,135.81096,84,69,0
135.81096,135.9123,86,65,0
135.9123,135.99936,83,75,0
136.26056,136.5198,83,75,0
136.5198,136.62045,84,70,0
136.62045,136.70686,81,75,0
136.96611,137.22731,81,69,0
137.22731,137.32864,83,65,0
137.32864,137.41571,79,75,0
137.67691,137.79477,79,57,0
137.79477,137.91263,83,52,0
137.91263,138.03049,86,53,0
138.03049,138.20332,84,57,0
138.20332,138.26094,86,57,0
138.26094,138.31854,84,49,0
138.31854,138.37616,83,49,0
138.37616,138.63736,84,52,0
138.63736,138.73868,86,49,0
138.73868,138.91281,83,57,0
138.91281,138.97086,84,57,0
138.97086,139.0289,83,50,0
139.0289,139.08694,81,50,0
139.08694,139.34619,83,57,0
139.34619,139.44684,84,53,0
139.44684,139.61967,81,57,0
139.61967,139.67728,83,57,0
139.67728,139.7349,81,51,0
139.7349,139.79251,79,51,0
139.79251,140.05371,81,52,0
140.05371,140.15503,83,49,0
140.15503,140.5033,79,57,0
140.5033,140.7645,86,66,0
140.7645,140.85158,83,55,0
140.85158,141.0244,81,74,0
141.0244,141.08202,83,68,0
141.08202,141.13962,81,59,0
141.13962,141.19724,79,59,0
141.19724,141.45844,81,62,0
141.45844,141.55975,83,59,0
141.55975,141.73389,79,68,0
141.73389,141.79195,81,68,0
141.79195,141.84999,79,60,0
141.84999,141.90804,78,60,0
141.90804,142.16728,79,68,0
142.16728,142.26791,81,63,0
142.26791,142.6705,78,74,0
142.95705,143.05257,74,68,0
143.05257,143.33911,78,79,0
143.33911,143.43463,74,68,0
143.43463,143.72118,81,74,0
143.72118,143.83226,78,68,0
143.83226,144.21312,86,86,0
144.49876,144.59398,62,66,0
144.59398,144.72093,66,77,0
144.72093,144.84787,62,69,0
144.84787,144.97482,66,69,0
144.97482,145.10178,69,80,0
145.10178,145.22873,66,70,0
145.22873,145.37155,69,70,0
145.37155,145.75241,74,84,0
146.13326,146.70454,50,95,0
146.70454,146.89497,50,89,0
146.89497,147.27583,50,97,0
149.4846,149.573,76,57,0
149.573,149.66139,74,50,0
149.66139,149.7498,73,50,0
149.7498,149.8382,74,50,0
149.8382,149.92659,79,63,0
150.19177,150.28017,79,53,0
150.90167,150.99008,76,60,0
150.99008,151.07848,74,53,0
151.07848,151.16687,73,53,0
151.16687,151.25526,74,53,0
151.25526,151.344,79,68,0
151.61021,151.69894,79,57,0
152.32147,152.40987,76,64,0
152.40987,152.49826,74,57,0
152.49826,152.58667,73,57,0
152.58667,152.67506,74,57,0
152.67506,153.03,79,73,0
153.03,153.11874,81,75,0
153.11874,153.20747,79,63,0
153.20747,153.29622,78,63,0
153.29622,153.38495,79,63,0
153.38495,153.74127,81,75,0
153.74127,153.82967,83,75,0
153.82967,153.91806,81,66,0
153.91806,154.00645,79,66,0
154.00645,154.09485,81,66,0
154.09485,154.4498,83,78,0
154.4498,154.53853,84,77,0
154.53853,154.62727,83,70,0
154.62727,154.716,81,70,0
154.716,154.80475,83,71,0
154.80475,155.16106,84,81,0
155.16106,155.25168,86,87,0
155.25168,155.34229,84,75,0
155.34229,155.43289,83,78,0
155.43289,155.54236,84,76,0
155.54236,156.65007,86,105,0
156.65007,157.04863,87,103,0
156.65007,157.04863,75,86,0
157.04863,157.41777,76,92,0
157.04863,157.41777,88,108,0
157.41777,157.78691,68,64,0
157.41777,157.78691,80,75,0
157.78691,158.15605,69,69,0
157.78691,158.15605,81,82,0
158.15605,158.52519,71,75,0
158.15605,158.52519,83,89,0
158.52519,159.28897,72,80,0
158.52519,159.28897,84,95,0
159.28897,159.66623,74,80,0
159.28897,159.66623,86,95,0
159.66623,160.08865,88,91,0
159.66623,160.08865,76,76,0
160.08865,160.78506,79,70,0
160.08865,160.78506,74,59,0
160.78506,160.8315,83,58,0
160.8315,161.39561,81,66,0
161.39561,161.60461,79,56,0
160.8315,161.60461,78,66,0
161.60461,161.9749,79,66,0
162.71545,162.83519,83,57,0
162.83519,162.95493,87,61,0
162.95493,163.09001,88,61,0
163.09001,163.17981,86,58,0
163.44922,163.53902,86,49,0
163.80841,163.89821,86,49,0
164.18117,164.3009,79,57,0
164.3009,164.42064,83,44,0
164.42064,164.55573,84,44,0
164.55573,164.64552,83,58,0
164.91493,165.00473,83,49,0
165.27412,165.36392,83,49,0
165.63332,165.75305,76,57,0
165.75305,165.87277,80,44,0
165.87277,166.00787,81,44,0
166.00787,166.09767,79,58,0
166.36708,166.45688,79,49,0
166.72627,166.81607,79,49,0
167.08546,167.35089,83,61,0
167.35089,167.43936,79,54,0
167.43936,167.52783,76,62,0
167.80318,168.07178,84,61,0
168.07178,168.1613,81,53,0
168.1613,168.25084,78,61,0
168.52551,168.79495,81,60,0
168.79495,168.88638,78,54,0
168.88638,168.97513,79,61,0
169.95122,170.07095,83,88,0
170.07095,170.19069,87,61,0
170.19069,170.32579,88,61,0
170.32579,170.44551,81,72,0
170.44551,170.56525,85,47,0
170.56525,170.68498,86,47,0
170.68498,170.80472,81,66,0
170.80472,170.92444,85,47,0
170.92444,171.04417,86,47,0
171.04417,171.16391,81,66,0
171.16391,171.28365,85,51,0
171.28365,171.41693,86,52,0
171.41693,171.53667,83,88,0
171.53667,171.6564,87,61,0
171.6564,171.7915,88,61,0
171.7915,171.91122,81,69,0
171.91122,172.03096,85,54,0
172.03096,172.1507,86,55,0
172.1507,172.27043,81,70,0
172.27043,172.39015,85,47,0
172.39015,172.50989,86,47,0
172.50989,172.62962,81,67,0
172.62962,172.74936,85,46,0
172.74936,172.88264,86,49,0
172.88264,173.00238,79,64,0
173.00238,173.12212,83,50,0
173.12212,173.25722,84,50,0
173.25722,173.37694,78,70,0
173.37694,173.49667,82,50,0
173.49667,173.61641,83,50,0
173.61641,173.73615,78,66,0
173.73615,173.85587,82,46,0
173.85587,173.9756,83,46,0
173.9756,174.09534,78,64,0
174.09534,174.21507,82,46,0
174.21507,174.34836,83,46,0
174.34836,174.4681,79,75,0
174.4681,174.58783,83,54,0
174.58783,174.72293,84,54,0
174.72293,174.84265,78,72,0
174.84265,174.96239,82,50,0
174.96239,175.08212,83,50,0
175.08212,175.20186,78,66,0
175.20186,175.32158,82,47,0
175.32158,175.44131,83,47,0
175.44131,175.56105,78,64,0
175.56105,175.68079,82,47,0
175.68079,175.81407,83,48,0
175.81407,175.9338,76,70,0
175.9338,176.05354,80,54,0
176.05354,176.18864,81,54,0
176.18864,176.30836,74,59,0
176.30836,176.4281,78,48,0
176.4281,176.54784,79,46,0
176.54784,176.66757,74,61,0
176.66757,176.7873,78,47,0
176.7873,176.90703,79,50,0
176.90703,177.02676,74,62,0
177.02676,177.14648,78,49,0
177.14648,177.27979,79,49,0
177.27979,177.39952,76,70,0
177.39952,177.51926,80,54,0
177.51926,177.65436,81,54,0
177.65436,177.77408,74,59,0
177.77408,177.89381,78,48,0
177.89381,178.01355,79,46,0
178.01355,178.13329,74,61,0
178.13329,178.253,78,47,0
178.253,178.37274,79,50,0
178.37274,178.49248,74,62,0
178.49248,178.6122,78,49,0
178.6122,178.7455,79,49,0
178.7455,178.86523,76,70,0
178.86523,178.98497,80,54,0
178.98497,179.12007,81,54,0
179.12007,179.23979,74,72,0
179.23979,179.35953,78,56,0
179.35953,179.47926,79,56,0
179.47926,179.59898,74,73,0
179.59898,179.71872,80,62,0
179.71872,179.83846,81,62,0
179.83846,179.95819,74,80,0
179.95819,180.07791,82,69,0
180.07791,180.21121,83,65,0
180.21121,180.33203,74,83,0
180.33203,180.45285,83,74,0
180.45285,180.5837,84,74,0
180.5837,180.71713,74,86,0
180.71713,180.83388,85,93,0
180.83388,180.95107,86,92,0
180.95107,181.06879,84,89,0
181.06879,181.18697,83,88,0
181.18697,181.30562,81,86,0
181.30562,181.42479,79,83,0
181.42479,181.54442,78,82,0
181.54442,181.6646,76,80,0
181.6646,181.78525,74,78,0
181.78525,181.9064,72,76,0
181.9064,182.02809,71,74,0
182.02809,182.15627,69,70,0
182.15627,182.27945,76,78,0
182.27945,182.39865,74,76,0
182.39865,182.51932,72,73,0
182.51932,182.64136,71,71,0
182.64136,182.76497,69,69,0
182.76497,183.12515,67,83,0
183.12515,183.21497,66,75,0
183.21497,183.30551,67,67,0
183.30551,183.48875,66,75,0
183.61934,183.73608,85,78,0
183.73608,183.85327,86,78,0
183.85327,183.97101,84,84,0
183.97101,184.08917,83,83,0
184.08917,184.20784,81,81,0
184.20784,184.32701,79,80,0
184.32701,184.44662,78,78,0
184.44662,184.5668,76,77,0
184.5668,184.68745,74,75,0
184.68745,184.80861,72,73,0
184.80861,184.9303,71,72,0
184.9303,185.05847,69,70,0
185.05847,185.18166,76,78,0
185.18166,185.30086,74,76,0
185.30086,185.42154,72,73,0
185.42154,185.54358,71,71,0
185.54358,185.66718,69,69,0
185.66718,186.02736,67,83,0
186.02736,186.11719,66,75,0
186.11719,186.20773,67,67,0
186.20773,186.39096,66,75,0
186.39096,186.74591,67,63,0
187.45717,187.72237,74,57,0
187.72237,187.81076,78,57,0
187.81076,187.89949,79,64,0
188.1657,188.25444,79,57,0
188.52065,188.60973,79,57,0
188.6988,188.7582,83,54,0
188.7582,188.81758,81,51,0
188.81758,188.87697,79,51,0
188.87697,189.14215,81,61,0
189.14215,189.23055,86,57,0
189.23055,189.31929,83,63,0
189.5855,189.67424,79,57,0
189.94044,190.02953,79,57,0
190.29675,190.56195,74,81,0
190.56195,190.65034,78,81,0
190.65034,190.73907,79,91,0
191.0053,191.09402,79,81,0
191.36023,191.44931,79,81,0
191.53839,191.59778,83,77,0
191.59778,191.65717,81,72,0
191.65717,191.71655,79,72,0
191.71655,191.98174,81,86,0
191.98174,192.07014,83,81,0
192.07014,192.42508,79,91,0
192.78455,193.15178,71,81,0
192.78455,193.15178,74,81,0
193.58194,193.9433,67,81,0
193.58194,193.9433,71,81,0
194.66602,194.92722,79,50,0
194.92722,195.02524,81,47,0
195.02524,195.11165,77,58,0
195.3709,195.6321,77,50,0
195.6321,195.7348,79,48,0
195.7348,195.82187,76,58,0
196.08308,196.34233,76,50,0
196.34233,196.44504,77,50,0
196.44504,196.53113,74,59,0
196.78941,197.0516,74,50,0
197.0516,197.15361,76,47,0
197.15361,197.23938,72,57,0
197.4967,197.75595,76,63,0
197.75595,197.85866,77,57,0
197.4967,197.85866,72,53,0
197.85866,197.94476,74,67,0
197.85866,197.94476,71,56,0
198.20303,198.46523,74,63,0
198.46523,198.56725,76,60,0
198.20303,198.56725,71,53,0
198.56725,198.65897,72,67,0
198.56725,198.65897,69,56,0
198.93413,199.22437,72,63,0
199.22437,199.37065,74,60,0
198.93413,199.37065,69,53,0
199.37065,200.60742,68,56,0
199.37065,200.60742,71,67,0
200.60742,200.69482,77,71,0
200.69482,200.78223,79,73,0
200.78223,200.86961,81,75,0
200.86961,200.97026,82,78,0
200.97026,201.059,84,83,0
201.32521,201.41394,84,75,0
201.68016,201.76924,84,76,0
201.99193,202.03647,88,78,0
202.03647,202.39006,89,92,0
202.39006,202.47845,84,85,0
202.74365,202.83205,84,76,0
203.09723,203.18631,84,76,0
203.46825,203.55531,82,66,0
203.55531,203.64238,81,68,0
203.64238,203.72945,79,71,0
203.72945,203.82246,77,73,0
203.82246,203.9102,76,81,0
204.17339,204.26112,76,73,0
204.5243,204.61203,77,81,0
204.87523,204.96295,77,73,0
205.29799,205.64891,79,79,0
206.35074,206.61194,72,75,0
206.61194,206.70207,79,67,0
206.70207,206.78848,82,78,0
207.04773,207.30893,82,71,0
207.30893,207.41026,84,66,0
207.41026,207.49733,81,78,0
207.75853,208.01778,81,72,0
208.01778,208.11842,82,65,0
208.11842,208.20451,79,78,0
208.46278,208.72498,79,65,0
208.72498,208.82396,81,61,0
208.82396,208.90974,77,74,0
209.18193,209.26886,77,67,0
209.54405,209.63048,79,74,0
209.88972,209.97845,79,67,0
210.24467,210.33076,76,75,0
210.58904,210.6861,76,67,0
210.99438,211.10997,77,66,0
211.10997,211.22556,72,47,0
211.22556,211.34114,69,47,0
211.34114,211.45671,77,67,0
211.45671,211.5723,72,48,0
211.5723,211.68788,69,48,0
211.68788,211.80345,77,65,0
211.80345,211.91904,72,47,0
211.91904,212.05058,69,47,0
212.05058,212.1696,76,69,0
212.1696,212.28862,72,56,0
212.28862,212.42104,70,56,0
212.42104,212.53662,77,66,0
212.53662,212.65219,72,47,0
212.65219,212.76778,69,47,0
212.76778,212.88336,77,67,0
212.88336,212.99893,72,48,0
212.99893,213.11452,69,48,0
213.11452,213.2301,77,65,0
213.2301,213.34567,72,47,0
213.34567,213.47722,69,47,0
213.47722,213.59624,76,69,0
213.59624,213.71526,72,56,0
213.71526,213.84767,70,56,0
213.84767,213.96326,77,66,0
213.96326,214.07884,72,47,0
214.07884,214.19441,69,47,0
214.19441,214.31,77,67,0
214.31,214.42558,72,48,0
214.42558,214.54115,69,48,0
214.54115,214.65674,77,65,0
214.65674,214.77232,72,47,0
214.77232,214.8954,69,47,0
214.8954,215.01442,78,69,0
215.01442,215.13344,74,56,0
215.13344,215.26585,72,56,0
215.26585,215.38142,79,66,0
215.38142,215.49701,74,51,0
215.49701,215.6126,71,51,0
215.6126,215.72816,79,67,0
215.72816,215.84375,74,51,0
215.84375,215.95934,71,51,0
215.95934,216.0749,79,65,0
216.0749,216.19049,74,50,0
216.19049,216.31589,71,50,0
216.31589,216.4349,80,69,0
216.4349,216.55392,76,56,0
216.55392,216.68634,74,56,0
216.68634,216.80191,81,67,0
216.80191,216.9175,76,53,0
216.9175,217.03308,72,53,0
217.03308,217.14865,81,68,0
217.14865,217.26424,76,54,0
217.26424,217.37982,72,54,0
217.37982,217.49539,81,68,0
217.49539,217.61098,76,52,0
217.61098,217.73482,72,52,0
217.73482,217.85384,83,69,0
217.85384,217.97285,80,56,0
217.97285,218.10527,76,56,0
218.10527,218.22086,84,68,0
218.22086,218.33643,81,52,0
218.33643,218.45201,76,54,0
218.45201,218.5676,86,73,0
218.5676,218.68317,83,54,0
218.68317,218.79875,76,54,0
218.79875,218.91434,88,74,0
218.91434,219.02992,84,54,0
219.02992,219.15149,76,54,0
219.15149,219.27051,84,70,0
219.27051,219.38954,81,53,0
219.38954,219.51733,76,54,0
219.51733,219.6329,83,62,0
219.6329,219.74849,80,47,0
219.74849,219.86407,76,47,0
219.86407,219.97964,84,61,0
219.97964,220.09523,81,46,0
220.09523,220.21082,76,46,0
220.21082,220.32639,83,61,0
220.32639,220.44197,80,47,0
220.44197,220.56355,76,48,0
220.56355,220.68257,88,59,0
220.68257,220.80159,83,45,0
220.80159,220.93988,80,45,0
220.93988,221.05917,88,57,0
221.05917,221.17754,84,44,0
221.17754,221.29527,81,45,0
221.29527,221.41327,88,57,0
221.41327,221.53125,84,41,0
221.53125,221.64925,81,41,0
221.64925,221.76724,86,56,0
221.76724,221.88524,83,39,0
221.88524,222.00682,81,39,0
222.00682,222.12584,86,58,0
222.12584,222.24486,83,39,0
222.24486,222.3781,81,40,0
222.3781,222.4974,86,62,0
222.4974,222.61601,83,44,0
222.61601,222.73384,80,46,0
222.73384,222.85115,86,55,0
222.85115,222.96844,83,42,0
222.96844,223.08575,80,43,0
223.08575,223.20305,85,58,0
223.20305,223.32036,81,44,0
223.32036,223.44156,79,45,0
223.44156,223.56058,85,55,0
223.56058,223.6796,81,46,0
223.6796,223.80266,79,46,0
223.80266,223.92213,84,66,0
223.92213,224.04047,81,48,0
224.04047,224.15779,78,51,0
224.15779,224.274,84,60,0
224.274,224.3896,81,47,0
224.3896,224.50522,78,47,0
224.50522,224.62082,83,67,0
224.62082,224.73643,79,46,0
224.73643,224.85988,77,46,0
224.85988,224.97891,83,61,0
224.97891,225.09793,79,47,0
225.09793,225.23035,77,48,0
225.23035,225.34592,82,67,0
225.34592,225.4615,79,53,0
225.4615,225.57709,76,55,0
225.57709,225.69266,82,66,0
225.69266,225.80824,79,51,0
225.80824,225.92383,76,51,0
225.92383,226.0394,81,67,0
226.0394,226.15498,77,50,0
226.15498,226.27882,72,50,0
226.27882,226.39784,81,66,0
226.39784,226.51686,77,51,0
226.51686,226.64146,72,52,0
226.64146,226.75705,82,73,0
226.75705,226.87263,79,57,0
226.87263,226.9882,72,60,0
226.9882,227.10379,82,72,0
227.10379,227.21938,79,55,0
227.21938,227.33495,72,55,0
227.33495,227.45053,81,73,0
227.45053,227.56612,77,54,0
227.56612,227.68552,72,54,0
227.68552,227.80453,81,71,0
227.80453,227.92355,77,55,0
227.92355,228.05597,72,57,0
228.05597,228.17155,81,82,0
228.17155,228.28712,77,65,0
228.28712,228.40271,72,67,0
228.40271,228.5183,81,80,0
228.5183,228.63387,77,61,0
228.63387,228.74945,72,61,0
228.74945,228.86504,81,80,0
228.86504,228.9806,76,58,0
228.9806,229.10257,72,58,0
229.10257,229.22159,81,76,0
229.22159,229.3406,76,58,0
229.3406,229.47302,72,60,0
229.47302,229.5886,81,82,0
229.5886,229.70418,78,65,0
229.70418,229.81976,72,67,0
229.81976,229.93533,81,80,0
229.93533,230.05092,78,61,0
230.05092,230.1665,72,61,0
230.1665,230.28207,81,80,0
230.28207,230.39766,78,58,0
230.39766,230.51743,72,58,0
230.51743,230.63438,81,76,0
230.63438,230.75134,78,58,0
230.75134,230.87292,72,60,0
230.87292,230.9885,81,82,0
230.9885,231.10408,78,65,0
231.10408,231.21967,72,67,0
231.21967,231.33524,81,80,0
231.33524,231.45082,78,61,0
231.45082,231.5664,72,61,0
231.5664,231.68198,81,80,0
231.68198,231.79756,78,58,0
231.79756,231.91591,72,58,0
231.91591,232.03493,81,76,0
232.03493,232.15395,78,58,0
232.15395,232.29732,72,60,0
232.29732,232.41127,81,89,0
232.41127,232.52524,76,66,0
232.52524,232.63919,72,65,0
232.63919,232.75316,81,84,0
232.75316,232.86711,76,66,0
232.86711,232.98108,72,66,0
232.98108,233.09503,80,86,0
233.09148,233.20543,74,63,0
233.209,233.32295,71,63,0
233.32295,233.43692,80,82,0
233.43692,233.55087,74,60,0
233.55087,233.66818,71,64,0
233.66818,233.78246,77,75,0
233.78246,233.89674,72,55,0
233.89674,234.01103,69,54,0
234.01103,234.12532,77,74,0
234.12532,234.23961,72,53,0
234.23961,234.3539,69,54,0
234.3539,234.46817,76,72,0
234.46817,234.58246,71,52,0
234.58246,234.69675,68,52,0
234.69675,234.81104,76,68,0
234.81104,234.92532,71,52,0
234.92532,235.04228,68,55,0
235.04228,235.15689,75,71,0
235.15689,235.2715,69,49,0
235.2715,235.38612,66,49,0
235.38612,235.50073,75,67,0
235.50073,235.61534,69,47,0
235.61534,235.72997,66,53,0
235.72997,235.84457,74,69,0
235.84457,235.95918,71,50,0
235.95918,236.07379,68,50,0
236.07379,236.18842,74,63,0
236.18842,236.30302,71,47,0
236.30302,236.42207,68,46,0
236.42207,236.53668,72,58,0
236.53668,236.6513,69,44,0
236.6513,236.76591,64,47,0
236.76591,236.88052,72,53,0
236.87694,236.99156,69,43,0
236.99513,237.11418,64,45,0
237.11418,237.2288,69,58,0
237.2288,237.34341,64,46,0
237.34341,237.45802,60,46,0
237.45802,237.57265,69,53,0
237.57265,237.68726,64,44,0
237.68726,237.8063,60,44,0
237.8063,237.92091,70,58,0
237.92091,238.03552,65,47,0
238.03552,238.15015,62,47,0
238.15015,238.26476,70,53,0
238.26476,238.37936,65,45,0
238.37936,238.49841,62,45,0
238.49841,238.61302,68,54,0
238.61302,238.72765,62,43,0
238.72765,238.84225,59,43,0
238.84225,238.95686,68,53,0
238.95686,239.07149,62,38,0
239.07149,239.19016,59,38,0
239.19016,239.30577,67,43,0
239.30577,239.42236,64,36,0
239.42236,239.53993,61,36,0
239.53993,239.65851,67,43,0
239.65851,239.77809,64,37,0
239.77809,239.8987,61,37,0
239.8987,240.02036,67,48,0
240.02036,240.14308,64,35,0
240.14308,240.2668,61,36,0
240.2668,240.40666,67,48,0
240.40666,240.54652,64,36,0
240.54652,240.68639,61,37,0
240.68639,242.95053,67,53,0
240.68639,242.95053,64,53,0
240.68639,242.95053,61,53,0
242.95053,243.71486,65,48,0
243.71486,244.56593,64,45,0
244.56593,244.68054,65,41,0
244.68054,244.79515,62,32,0
244.79515,244.90977,57,33,0
244.90977,245.02438,65,41,0
245.02438,245.13899,62,35,0
245.13899,245.25804,57,35,0
245.25804,245.37265,65,41,0
245.37265,245.48727,62,35,0
245.48727,245.60188,57,35,0
245.60188,245.71649,65,41,0
245.71649,245.83112,62,34,0
245.83112,245.95015,57,34,0
245.95015,246.06483,65,41,0
246.06483,246.18027,62,32,0
246.18027,246.29662,55,33,0
246.29662,246.41391,65,41,0
246.41391,246.53218,62,35,0
246.53218,246.65666,55,35,0
246.65666,246.77785,65,41,0
246.77785,246.9019,62,35,0
246.9019,247.02895,55,35,0
247.02895,247.17143,65,41,0
247.17143,247.34837,62,34,0
247.34837,247.72221,55,34,0
247.72221,249.38719,55,34,0
247.72221,249.38719,65,41,0
247.72221,249.38719,62,34,0
249.60942,249.87161,60,50,0
249.87161,249.96463,64,50,0
249.96463,250.05338,67,57,0
250.31958,250.40831,67,50,0
250.67453,250.76608,67,50,0
250.99496,251.04074,71,60,0
251.04074,251.12914,72,71,0
251.39432,251.48271,67,50,0
251.74791,251.8363,67,43,0
252.10149,252.1934,67,43,0
252.46916,252.73036,64,50,0
252.73036,252.8234,60,50,0
252.8234,252.91112,59,57,0
253.1743,253.26204,59,53,0
253.52522,253.6153,60,57,0
253.8855,253.99265,60,52,0
254.31407,254.665,62,57,0
255.36682,255.62802,55,50,0
255.62802,255.72604,62,47,0
255.72604,255.81245,65,58,0
256.07172,256.33292,65,50,0
256.33292,256.4356,67,48,0
256.4356,256.52267,64,58,0
256.78387,257.04312,64,50,0
257.04312,257.14584,65,50,0
257.14584,257.23193,62,59,0
257.4902,257.7524,62,50,0
257.7524,257.85443,64,47,0
257.85443,257.9402,60,57,0
258.1975,258.28424,60,52,0
258.55905,258.64548,62,57,0
258.90472,258.99115,62,52,0
259.25037,259.3368,59,58,0
259.59604,259.68665,59,52,0
261.04584,261.13324,72,71,0
261.13324,261.22064,74,73,0
261.22064,261.30804,75,75,0
261.30804,261.4087,77,78,0
261.4087,261.4974,79,83,0
261.7636,261.85236,79,75,0
262.11856,262.20764,79,76,0
262.43036,262.47488,83,78,0
262.47488,262.82846,84,92,0
262.82846,262.91687,79,85,0
263.18207,263.27045,79,74,0
263.53564,263.62473,79,74,0
263.90665,263.9937,72,71,0
263.9937,264.08078,74,73,0
264.08078,264.16788,75,75,0
264.16788,264.2609,77,78,0
264.2609,264.3496,79,83,0
264.61584,264.70456,79,75,0
264.97076,265.05984,79,76,0
265.28256,265.3271,83,78,0
265.3271,265.6807,84,92,0
265.6807,265.76907,79,85,0
266.03427,266.12265,79,74,0
266.38785,266.47693,79,74,0
266.75888,266.84595,73,71,0
266.84595,266.933,74,73,0
266.933,267.02008,76,75,0
267.02008,267.1131,77,78,0
267.1131,267.20148,79,85,0
267.46667,267.55508,79,76,0
267.82025,267.90933,79,76,0
268.19128,268.30737,79,80,0
268.30737,268.42346,85,73,0
268.42346,268.5455,88,73,0
268.5455,268.6339,77,85,0
268.89908,268.9875,77,74,0
269.2527,269.34177,77,74,0
269.6237,269.73978,77,80,0
269.73978,269.85587,81,73,0
269.85587,269.9779,86,73,0
269.9779,270.32358,77,75,0
270.32358,270.58478,77,69,0
270.58478,270.6861,79,65,0
270.6861,270.77316,76,75,0
271.03436,271.2936,76,75,0
271.2936,271.39426,77,70,0
271.39426,271.48068,74,75,0
271.73993,272.00113,74,69,0
272.00113,272.10245,76,65,0
272.10245,272.1895,72,75,0
272.4507,272.56857,72,57,0
272.56857,272.68646,76,52,0
272.68646,272.80432,79,53,0
272.80432,272.97714,77,57,0
272.97714,273.03476,79,57,0
273.03476,273.09235,77,49,0
273.09235,273.14996,76,49,0
273.14996,273.41116,77,52,0
273.41116,273.5125,79,49,0
273.5125,273.68665,76,57,0
273.68665,273.7447,77,57,0
273.7447,273.80273,76,50,0
273.80273,273.86078,74,50,0
273.86078,274.12003,76,57,0
274.12003,274.22067,77,53,0
274.22067,274.3935,74,57,0
274.3935,274.4511,76,61,0
274.4511,274.5087,74,53,0
274.5087,274.5663,72,53,0
274.5663,274.8275,74,53,0
274.8275,274.92883,76,55,0
274.92883,275.103,72,65,0
275.103,275.16104,74,61,0
275.16104,275.2191,72,55,0
275.2191,275.27713,71,56,0
275.27713,275.53833,72,57,0
275.53833,275.6254,74,61,0
275.6254,275.97366,71,74,0
276.2602,276.3557,67,68,0
276.3557,276.64227,71,79,0
276.64227,276.7378,67,68,0
276.7378,277.02435,74,74,0
277.02435,277.13544,71,68,0
277.13544,277.51627,79,86,0
277.8019,277.89713,55,66,0
277.89713,278.02408,59,77,0
278.02408,278.15103,55,69,0
278.15103,278.27798,59,69,0
278.27798,278.40494,62,80,0
278.40494,278.5319,59,70,0
278.5319,278.6747,62,70,0
278.6747,279.05557,67,84,0
279.43643,280.00772,43,95,0
280.00772,280.19812,43,89,0
280.19812,280.57898,43,97,0
282.78778,282.87616,69,57,0
282.87616,282.96457,67,50,0
282.96457,283.05295,66,50,0
283.05295,283.14136,67,50,0
283.14136,283.22974,72,63,0
283.49493,283.58334,72,53,0
284.20483,284.29324,69,60,0
284.29324,284.38162,67,53,0
284.38162,284.47003,66,53,0
284.47003,284.55844,67,53,0
284.55844,284.64716,72,68,0
284.91336,285.0021,72,57,0
285.62463,285.71304,69,64,0
285.71304,285.80142,67,57,0
285.80142,285.88983,66,57,0
285.88983,285.9782,67,57,0
285.9782,286.33316,72,73,0
286.33316,286.4219,74,78,0
286.4219,286.51065,72,65,0
286.51065,286.59937,71,66,0
286.59937,286.6881,72,66,0
286.6881,287.04443,74,80,0
287.04443,287.1328,76,82,0
287.1328,287.22122,74,68,0
287.22122,287.30963,72,68,0
287.30963,287.398,74,69,0
287.398,287.75296,76,85,0
287.75296,287.8417,77,86,0
287.8417,287.93042,76,75,0
287.93042,288.01917,74,75,0
288.01917,288.1079,76,76,0
288.1079,288.46423,77,85,0
288.46423,288.55484,79,87,0
288.55484,288.64545,77,75,0
288.64545,288.73605,76,78,0
288.73605,288.84552,77,76,0
288.84552,289.95322,79,98,0
289.95322,290.3518,80,92,0
289.95322,290.3518,68,77,0
290.3518,290.72095,81,97,0
290.3518,290.72095,69,82,0
290.72095,291.0901,83,84,0
290.72095,291.0901,71,71,0
291.0901,291.45923,72,75,0
291.0901,291.45923,84,88,0
291.45923,291.82837,73,76,0
291.45923,291.82837,85,90,0
291.82837,292.1975,86,96,0
291.82837,292.1975,74,81,0
292.1975,292.59213,88,96,0
292.1975,292.59213,76,81,0
292.59213,292.9694,89,95,0
292.9694,293.3918,86,93,0
292.59213,293.3918,77,80,0
293.3918,294.08823,79,59,0
293.3918,294.08823,84,70,0
294.08823,294.13464,88,58,0
294.13464,294.6988,86,66,0
294.6988,294.90778,84,56,0
294.13464,294.90778,83,66,0
294.90778,295.27805,84,66,0
296.01862,296.13834,76,57,0
296.13834,296.2581,80,61,0
296.2581,296.3932,81,61,0
296.3932,296.48297,79,58,0
296.75238,296.84216,79,49,0
297.11157,297.20135,79,49,0
297.48434,297.60406,72,57,0
297.60406,297.7238,76,44,0
297.7238,297.8589,77,44,0
297.8589,297.9487,76,58,0
298.21808,298.3079,76,49,0
298.57727,298.66708,76,49,0
298.9365,299.0562,69,57,0
299.0562,299.17593,73,44,0
299.17593,299.31104,74,44,0
299.31104,299.40085,72,58,0
299.67023,299.76004,72,49,0
300.02942,300.11923,72,49,0
300.3886,300.65405,76,61,0
300.65405,300.74252,72,54,0
300.74252,300.831,69,62,0
301.10635,301.37494,77,61,0
301.37494,301.46448,74,53,0
301.46448,301.554,71,61,0
301.82867,302.0981,74,60,0
302.0981,302.18954,71,54,0
302.18954,302.2783,72,61,0
303.2544,303.3741,76,88,0
303.3741,303.49384,80,61,0
303.49384,303.62894,81,61,0
303.62894,303.7487,74,72,0
303.7487,303.8684,78,47,0
303.8684,303.98813,79,47,0
303.98813,304.10788,74,66,0
304.10788,304.2276,78,47,0
304.2276,304.34735,79,47,0
304.34735,304.46707,74,66,0
304.46707,304.5868,78,51,0
304.5868,304.7201,79,52,0
304.7201,304.83984,76,88,0
304.83984,304.95956,80,61,0
304.95956,305.09467,81,61,0
305.09467,305.2144,74,69,0
305.2144,305.33414,78,54,0
305.33414,305.45386,79,55,0
305.45386,305.57358,74,70,0
305.57358,305.69333,78,47,0
305.69333,305.81305,79,47,0
305.81305,305.93277,74,67,0
305.93277,306.05252,78,46,0
306.05252,306.18582,79,49,0
306.18582,306.30554,72,64,0
306.30554,306.42526,76,50,0
306.42526,306.56036,77,50,0
306.56036,306.6801,71,65,0
306.6801,306.79984,75,50,0
306.79984,306.91956,76,50,0
306.91956,307.0393,71,66,0
307.0393,307.15903,75,46,0
307.15903,307.27878,76,46,0
307.27878,307.3985,71,64,0
307.3985,307.51822,75,46,0
307.51822,307.65152,76,46,0
307.65152,307.77127,72,75,0
307.77127,307.891,76,54,0
307.891,308.0261,77,54,0
308.0261,308.1458,71,69,0
308.1458,308.26556,75,50,0
308.26556,308.38528,76,50,0
308.38528,308.505,71,66,0
308.505,308.62476,75,47,0
308.62476,308.74448,76,47,0
308.74448,308.8642,71,64,0
308.8642,308.98395,75,47,0
308.98395,309.11725,76,48,0
309.11725,309.23697,69,70,0
309.23697,309.3567,73,54,0
309.3567,309.4918,74,54,0
309.4918,309.61154,67,59,0
309.61154,309.73126,71,48,0
309.73126,309.85098,72,46,0
309.85098,309.97073,67,61,0
309.97073,310.09045,71,47,0
310.09045,310.2102,72,50,0
310.2102,310.32993,67,62,0
310.32993,310.44965,71,49,0
310.44965,310.58295,72,49,0
310.58295,310.7027,69,70,0
310.7027,310.82242,73,54,0
310.82242,310.95752,74,54,0
310.95752,311.07724,67,59,0
311.07724,311.197,71,48,0
311.197,311.3167,72,46,0
311.3167,311.43643,67,61,0
311.43643,311.55618,71,47,0
311.55618,311.6759,72,50,0
311.6759,311.79562,67,62,0
311.79562,311.91537,71,49,0
311.91537,312.04868,72,49,0
312.04868,312.1684,69,70,0
312.1684,312.28812,73,54,0
312.28812,312.42322,74,54,0
312.42322,312.54297,67,72,0
312.54297,312.6627,71,60,0
312.6627,312.7824,72,61,0
312.7824,312.90216,67,73,0
312.90216,313.02188,73,65,0
313.02188,313.1416,74,65,0
313.1416,313.26135,67,80,0
313.26135,313.38107,75,72,0
313.38107,313.51437,76,72,0
313.51437,313.6352,67,87,0
313.6352,313.756,76,77,0
313.756,313.88687,77,78,0
313.88687,314.01746,67,86,0
314.01746,314.1342,78,93,0
314.1342,314.25137,79,92,0
314.25137,314.3691,77,89,0
314.3691,314.48727,76,88,0
314.48727,314.60596,74,86,0
314.60596,314.7251,72,83,0
314.7251,314.84473,71,82,0
314.84473,314.9649,69,80,0
314.9649,315.08557,67,78,0
315.08557,315.20673,65,76,0
315.20673,315.3284,64,74,0
315.3284,315.45657,62,70,0
315.45657,315.57977,69,78,0
315.57977,315.69897,67,76,0
315.69897,315.81964,65,73,0
315.81964,315.94168,64,71,0
315.94168,316.06528,62,69,0
316.06528,316.42548,60,83,0
316.42548,316.5153,59,75,0
316.5153,316.60583,60,67,0
316.60583,316.78906,59,75,0
316.91965,317.0364,78,78,0
317.0364,317.1536,79,89,0
317.1536,317.27133,77,84,0
317.27133,317.3895,76,83,0
317.3895,317.50815,74,81,0
317.50815,317.62732,72,80,0
317.62732,317.74695,71,78,0
317.74695,317.86713,69,77,0
317.86713,317.98776,67,79,0
317.98776,318.10892,65,81,0
318.10892,318.23062,64,83,0
318.23062,319.01752,62,86,0
319.01752,320.8357,78,69,0
319.01752,320.8357,81,82,0
319.01752,320.8357,72,69,0
319.01752,320.8357,75,69,0
321.90393,321.99133,72,57,0
321.99133,322.07874,74,60,0
322.07874,322.16614,76,62,0
322.16614,322.26678,77,65,0
322.26678,322.3555,79,75,0
322.6217,322.71045,79,64,0
322.97665,323.06573,79,64,0
323.28845,323.33298,83,78,0
323.33298,323.68655,84,92,0
323.68655,323.77496,79,85,0
324.04016,324.12854,79,67,0
324.39374,324.48282,79,67,0
324.76474,324.8518,77,67,0
324.8518,324.93887,76,54,0
324.93887,325.02594,74,54,0
325.02594,325.119,72,58,0
325.119,325.2067,71,70,0
325.4699,325.55762,71,59,0
325.8208,325.90854,72,66,0
326.17172,326.25946,72,57,0
326.5957,326.9528,74,70,0
327.65045,327.91168,67,70,0
327.91168,328.0018,74,54,0
328.0018,328.0882,77,67,0
328.34744,328.60864,77,58,0
328.60864,328.71,79,55,0
328.71,328.79706,76,67,0
329.05826,329.3175,76,58,0
329.3175,329.41815,77,58,0
329.41815,329.50424,74,68,0
329.7625,330.0247,74,58,0
330.0247,330.1237,76,54,0
330.1237,330.20947,72,66,0
330.48166,330.56857,72,60,0
330.84378,330.9302,74,66,0
331.18945,331.27817,74,60,0
331.5444,331.6305,71,67,0
331.88876,331.98584,71,60,0
332.277,332.63196,72,87,0
333.34323,333.6084,79,79,0
333.6084,333.6968,83,78,0
333.6968,333.78555,84,91,0
334.05176,334.1405,84,80,0
334.4067,334.4958,84,79,0
334.763,334.8514,88,87,0
334.8514,334.93982,86,82,0
334.93982,335.0282,84,82,0
335.0282,335.1166,86,82,0
335.1166,335.20532,88,91,0
335.47156,335.56027,84,76,0
335.82648,335.91556,84,76,0
336.1828,336.448,79,81,0
336.448,336.5364,83,81,0
336.5364,336.62512,84,91,0
336.89133,336.98007,84,81,0
337.24628,337.33536,84,81,0
337.42444,337.48383,88,77,0
337.48383,337.5432,86,72,0
337.5432,337.6026,84,72,0
337.6026,337.8678,86,86,0
337.8678,337.95618,88,81,0
337.95618,338.31113,84,87,0
339.0224,339.2876,79,63,0
339.2876,339.37598,83,62,0
339.37598,339.46472,84,72,0
339.73093,339.81967,84,64,0
340.08588,340.17496,84,63,0
340.4422,340.53058,88,69,0
340.53058,340.619,86,65,0
340.619,340.70737,84,65,0
340.70737,340.79578,86,65,0
340.79578,340.88452,88,72,0
341.15073,341.23947,84,60,0
341.50568,341.59476,84,60,0
341.86197,342.12717,79,64,0
342.12717,342.21558,83,64,0
342.21558,342.30432,84,72,0
342.57053,342.65924,84,64,0
342.92548,343.01453,84,64,0
343.1036,343.163,88,61,0
343.163,343.22238,86,57,0
343.22238,343.28177,84,57,0
343.28177,343.54697,86,68,0
343.54697,343.63538,88,64,0
343.63538,343.9903,84,70,0
344.34744,344.7004,76,68,0
344.34744,344.7004,79,81,0
345.05334,345.4083,72,67,0
345.05334,345.4083,76,79,0
345.79648,346.1637,55,75,0
345.79648,346.1637,52,63,0
346.61487,347.06943,48,59,0
346.61487,347.06943,52,70,0
1.392441,1.4811774,64,52,0
1.392441,1.4811774,60,44,0
2.82213,2.9105265,64,52,0
2.82213,2.9105265,60,44,0
4.251198,4.3389273,62,44,0
4.251198,4.3389273,65,52,0
4.251198,4.3389273,55,44,0
4.6021156,4.689845,55,38,0
4.6021156,4.689845,62,38,0
4.6021156,4.689845,65,45,0
4.953034,5.0431023,55,44,0
4.953034,5.0431023,64,52,0
4.953034,5.0431023,60,44,0
5.313308,5.4189415,64,47,0
5.313308,5.4189415,55,39,0
5.313308,5.4189415,60,39,0
5.7358427,6.0867605,62,52,0
5.7358427,6.0867605,59,44,0
5.7358427,6.0867605,55,44,0
7.147813,7.234228,59,40,0
7.147813,7.234228,67,48,0
7.857389,7.944456,60,40,0
7.857389,7.944456,67,48,0
8.567616,8.653709,67,48,0
8.567616,8.653709,65,40,0
9.276194,9.361966,64,38,0
9.276194,9.361966,67,45,0
9.98083,10.0672455,53,47,0
9.98083,10.0672455,65,56,0
10.326492,10.412908,65,52,0
10.326492,10.412908,53,44,0
10.672154,10.75857,62,58,0
10.672154,10.75857,55,49,0
11.017817,11.108429,62,52,0
11.017817,11.108429,55,44,0
11.380266,11.494526,60,48,0
11.494526,11.608786,64,36,0
11.608786,11.723045,67,36,0
11.723045,11.837305,60,49,0
11.837305,11.951565,64,38,0
11.951565,12.0658245,67,38,0
12.0658245,12.180084,60,53,0
12.180084,12.294344,64,43,0
12.294344,12.408604,67,43,0
12.408604,12.525133,60,54,0
12.525133,12.641663,64,44,0
12.641663,12.771439,67,44,0
12.771439,12.889754,60,56,0
12.889754,13.00807,64,43,0
13.00807,13.126385,67,43,0
13.126385,13.2447,60,56,0
13.2447,13.363016,64,45,0
13.363016,13.481331,67,46,0
13.481331,13.600103,60,55,0
13.600103,13.718875,64,44,0
13.718875,13.837647,67,45,0
13.837647,13.955509,60,72,0
13.955509,14.073371,64,57,0
14.073371,14.191233,67,57,0
14.191233,14.309095,60,56,0
14.309095,14.426957,64,41,0
14.426957,14.544819,67,41,0
14.544819,14.662681,60,56,0
14.662681,14.780543,64,44,0
14.780543,14.898405,67,44,0
14.898405,15.017177,60,56,0
15.017177,15.135949,64,44,0
15.135949,15.26942,67,45,0
15.26942,15.3855095,60,56,0
15.3855095,15.501599,64,44,0
15.501599,15.623645,67,44,0
15.623645,15.740618,62,56,0
15.740618,15.857591,65,42,0
15.857591,15.974564,67,45,0
15.974564,16.091536,62,56,0
16.091536,16.20851,65,45,0
16.20851,16.325481,67,45,0
16.325481,16.442453,60,56,0
16.442453,16.559427,64,46,0
16.559427,16.6764,67,50,0
16.6764,16.793371,60,56,0
16.793371,16.910345,64,46,0
16.910345,17.088842,67,46,0
17.088842,17.43976,59,63,0
18.49292,18.60814,55,56,0
18.60814,18.723362,59,43,0
18.723362,18.838583,62,45,0
18.838583,18.954672,55,56,0
18.954672,19.070763,59,45,0
19.070763,19.201109,62,45,0
19.201109,19.3172,55,54,0
19.3172,19.433289,60,43,0
19.433289,19.54938,64,44,0
19.54938,19.6646,55,56,0
19.6646,19.77982,60,46,0
19.77982,19.90927,64,46,0
19.90927,20.02406,55,56,0
20.02406,20.138851,62,47,0
20.138851,20.253641,65,47,0
20.253641,20.37017,55,56,0
20.37017,20.4867,62,44,0
20.4867,20.614817,65,44,0
20.614817,20.729181,57,56,0
20.729181,20.843546,60,46,0
20.843546,20.97278,64,46,0
20.97278,21.088696,57,56,0
21.088696,21.20461,60,45,0
21.20461,21.334913,64,45,0
21.334913,21.450134,53,56,0
21.450134,21.565353,57,45,0
21.565353,21.680574,62,47,0
21.680574,21.79889,53,56,0
21.79889,21.917206,57,46,0
21.917206,22.03552,62,46,0
22.03552,22.15031,55,56,0
22.15031,22.265102,62,43,0
22.265102,22.379892,65,43,0
22.379892,22.514572,55,56,0
22.514572,22.649252,62,44,0
22.649252,22.783934,65,45,0
22.783934,23.502323,64,45,0
23.502323,24.205547,70,43,0
24.205547,24.913736,69,45,0
24.913736,25.621897,65,42,0
22.783934,25.621897,60,60,0
25.621897,26.330084,64,45,0
26.330084,27.029755,70,43,0
27.029755,27.737944,69,45,0
27.737944,28.446104,65,42,0
25.621897,28.446104,60,39,0
28.446104,28.564419,60,45,0
28.564419,28.682734,64,36,0
28.682734,28.80105,67,36,0
28.80105,28.919365,60,45,0
28.919365,29.03768,64,38,0
29.03768,29.155996,67,38,0
29.155996,29.274767,60,45,0
29.274767,29.39354,64,36,0
29.39354,29.512312,67,36,0
29.512312,29.630175,59,45,0
29.630175,29.748035,62,36,0
29.748035,29.865898,67,37,0
29.865898,29.984213,60,45,0
29.984213,30.102528,64,36,0
30.102528,30.220844,67,36,0
30.220844,30.339159,60,45,0
30.339159,30.457474,64,38,0
30.457474,30.57579,67,38,0
30.57579,30.694561,60,45,0
30.694561,30.813334,64,36,0
30.813334,30.932106,67,36,0
30.932106,31.049967,59,45,0
31.049967,31.16783,62,36,0
31.16783,31.285692,67,37,0
31.285692,31.404007,60,45,0
31.404007,31.522322,64,36,0
31.522322,31.640638,67,36,0
31.640638,31.758953,60,45,0
31.758953,31.877268,64,38,0
31.877268,31.995584,67,38,0
31.995584,32.114357,60,45,0
32.114357,32.233128,64,36,0
32.233128,32.3519,67,36,0
32.3519,32.46976,59,45,0
32.46976,32.587624,62,36,0
32.587624,32.705486,67,37,0
32.705486,32.82335,60,45,0
32.82335,32.941208,64,36,0
32.941208,33.05907,67,36,0
33.05907,33.176933,60,45,0
33.176933,33.294796,64,38,0
33.294796,33.41266,67,39,0
33.41266,33.53143,60,46,0
33.53143,33.6502,64,37,0
33.6502,33.768974,67,37,0
33.768974,33.886837,60,47,0
33.886837,34.004696,62,38,0
34.004696,34.12256,66,39,0
34.12256,34.240875,59,48,0
34.240875,34.35919,62,38,0
34.35919,34.477505,67,39,0
34.477505,34.59582,59,49,0
34.59582,34.714138,62,41,0
34.714138,34.83245,67,42,0
34.83245,34.951225,59,50,0
34.951225,35.069996,62,40,0
35.069996,35.188766,67,40,0
35.188766,35.30663,54,51,0
35.30663,35.42449,57,41,0
35.42449,35.542355,62,42,0
35.542355,35.660667,55,52,0
35.660667,35.778984,59,41,0
35.778984,35.8973,62,42,0
35.8973,36.015614,55,53,0
36.015614,36.13393,59,44,0
36.13393,36.252247,62,45,0
36.252247,36.371017,55,54,0
36.371017,36.489788,59,43,0
36.489788,36.608562,62,43,0
36.608562,36.726425,54,54,0
36.726425,36.844284,57,43,0
36.844284,36.962147,62,45,0
36.962147,37.080463,55,55,0
37.080463,37.19878,59,44,0
37.19878,37.317093,62,45,0
37.317093,37.43541,55,56,0
37.43541,37.553726,59,47,0
37.553726,37.67204,62,48,0
37.67204,37.790813,55,57,0
37.790813,37.909584,59,46,0
37.909584,38.028355,62,46,0
38.028355,38.146217,55,57,0
38.146217,38.26408,59,50,0
38.26408,38.381943,62,50,0
38.381943,38.49716,54,64,0
38.49716,38.612385,57,53,0
38.612385,38.727604,62,45,0
38.727604,38.843693,54,56,0
38.843693,38.959785,57,45,0
38.959785,39.09013,62,45,0
39.09013,39.20622,55,56,0
39.20622,39.32231,59,43,0
39.32231,39.4384,62,44,0
39.4384,39.55362,55,56,0
39.55362,39.668842,59,46,0
39.668842,39.79829,62,46,0
39.79829,39.913513,60,56,0
39.913513,40.028732,62,43,0
40.028732,40.14395,66,45,0
40.14395,40.260044,60,56,0
40.260044,40.376133,62,45,0
40.376133,40.506477,66,45,0
40.506477,40.62257,59,56,0
40.62257,40.73866,62,43,0
40.73866,40.854748,67,44,0
40.854748,40.97261,59,39,0
40.97261,41.090473,62,35,0
41.090473,41.208336,67,35,0
41.208336,41.323555,54,39,0
41.323555,41.438778,57,30,0
41.438778,41.553997,62,31,0
41.553997,41.670086,54,39,0
41.670086,41.78618,57,31,0
41.78618,41.916523,62,31,0
41.916523,42.03261,55,39,0
42.03261,42.148705,59,30,0
42.148705,42.264793,62,30,0
42.264793,42.380013,55,39,0
42.380013,42.495235,59,32,0
42.495235,42.624683,62,32,0
42.624683,42.739906,60,39,0
42.739906,42.855125,62,30,0
42.855125,42.970345,66,31,0
42.970345,43.086437,60,39,0
43.086437,43.202526,62,31,0
43.202526,43.332874,66,31,0
43.332874,43.448963,59,39,0
43.448963,43.565052,62,30,0
43.565052,43.68114,67,30,0
43.68114,43.797234,59,54,0
43.797234,43.913322,62,43,0
43.913322,44.02941,67,44,0
44.02941,44.144634,60,54,0
44.144634,44.259853,64,40,0
44.259853,44.375076,69,41,0
44.375076,44.491165,60,55,0
44.491165,44.607254,64,42,0
44.607254,44.737602,69,42,0
44.737602,44.85369,61,53,0
44.85369,44.96978,64,41,0
44.96978,45.085873,69,41,0
45.085873,45.20109,61,51,0
45.20109,45.31631,64,42,0
45.31631,45.445763,69,43,0
45.445763,45.84834,62,58,0
46.134888,46.230404,62,62,0
46.230404,46.516956,66,68,0
46.516956,46.612473,62,62,0
46.612473,46.899025,69,68,0
46.899025,47.0101,66,64,0
47.0101,47.39096,74,80,0
47.6766,47.771816,50,62,0
47.771816,47.898766,54,71,0
47.898766,48.02572,50,62,0
48.02572,48.15267,54,62,0
48.15267,48.27962,57,68,0
48.27962,48.406574,54,64,0
48.406574,48.549393,57,64,0
48.549393,48.93025,62,74,0
49.311104,49.88239,38,84,0
49.88239,50.072815,38,78,0
50.072815,50.45367,38,84,0
51.59624,51.714554,59,40,0
51.716774,51.835087,62,32,0
51.83287,51.951187,67,32,0
51.951187,52.0695,59,40,0
52.07172,52.190033,62,34,0
52.187817,52.30613,67,34,0
52.30613,52.424904,59,40,0
52.42713,52.545902,62,32,0
52.543674,52.66245,67,32,0
52.66245,52.780308,60,40,0
52.780308,52.89817,62,32,0
52.89817,53.016033,66,33,0
53.016033,53.133896,59,40,0
53.13021,53.248074,62,32,0
53.25176,53.369617,67,32,0
53.369617,53.48748,59,41,0
53.4838,53.60166,62,35,0
53.605343,53.723206,67,36,0
53.723206,53.841976,59,43,0
53.841976,53.96075,62,35,0
53.96075,54.07952,67,35,0
54.07952,54.197384,60,45,0
54.197384,54.315247,62,37,0
54.315247,54.433105,66,38,0
54.433105,54.551422,59,47,0
54.551422,54.66974,62,38,0
54.66974,54.78805,67,39,0
54.78805,54.90637,59,49,0
54.90637,55.024685,62,41,0
55.024685,55.142998,67,42,0
55.142998,55.261772,59,50,0
55.261772,55.380543,62,40,0
55.380543,55.499313,67,40,0
55.499313,55.617176,60,51,0
55.617176,55.73504,62,41,0
55.73504,55.8529,66,42,0
55.8529,55.97122,59,52,0
55.97122,56.08953,62,41,0
56.08953,56.207848,67,42,0
56.207848,56.326164,59,54,0
56.326164,56.444477,62,45,0
56.444477,56.562794,67,46,0
56.562794,56.681564,54,56,0
56.681564,56.80034,57,45,0
56.80034,56.91911,62,45,0
56.91911,57.036972,54,57,0
57.036972,57.154835,57,46,0
57.154835,57.272694,62,48,0
57.272694,57.39101,55,59,0
57.39101,57.509327,59,48,0
57.509327,57.62764,62,49,0
57.62764,57.745956,55,62,0
57.745956,57.864273,59,52,0
57.864273,57.982586,62,54,0
57.982586,58.10136,52,64,0
58.10136,58.22013,55,52,0
58.22013,58.3389,60,52,0
58.3389,58.45972,52,66,0
58.45972,58.580536,55,58,0
58.580536,58.7202,60,59,0
58.7202,58.840652,47,67,0
58.839897,58.96035,50,60,0
58.9596,59.080055,55,61,0
59.0793,59.200817,47,68,0
59.200054,59.322643,50,62,0
59.32418,59.447918,55,62,0
59.44948,59.82791,47,71,0
60.226475,60.595615,36,72,0
60.226475,60.595615,48,72,0
63.266487,64.00934,71,42,0
64.00934,64.78246,72,43,0
63.266487,64.78246,62,42,0
64.78246,65.15274,71,40,0
64.78246,65.15274,67,40,0
65.893295,66.26786,79,36,0
66.26786,66.35766,81,38,0
66.26786,66.35766,78,38,0
67.35901,67.733574,76,36,0
67.733574,67.82337,74,38,0
67.733574,67.82337,78,38,0
68.81116,69.18572,72,36,0
69.18572,69.27552,74,38,0
69.18572,69.27552,71,38,0
70.263306,70.6172,67,36,0
70.263306,70.6172,71,36,0
70.6172,70.70568,60,41,0
70.6172,70.70568,72,41,0
71.33915,71.42868,62,38,0
71.33915,71.42868,69,38,0
72.06423,72.15296,67,41,0
72.06423,72.15296,71,41,0
73.12907,73.50363,79,70,0
73.50363,73.59343,78,44,0
73.86282,73.95262,78,35,0
74.222015,74.31182,78,35,0
74.59478,74.969345,79,70,0
74.969345,75.05914,78,44,0
75.32854,75.418335,78,32,0
75.68773,75.77753,78,32,0
76.06049,76.43506,76,63,0
76.43506,76.52486,74,39,0
76.79425,76.88405,74,30,0
77.15344,77.24324,74,30,0
77.52621,77.900764,76,58,0
77.900764,77.99057,74,39,0
78.259964,78.34976,74,28,0
78.619156,78.708954,74,28,0
78.99192,79.36648,72,56,0
79.36648,79.456276,71,39,0
79.72568,79.815475,71,28,0
80.08487,80.17467,71,29,0
80.457634,80.83219,72,56,0
80.83219,80.92199,71,39,0
81.19139,81.28119,71,28,0
81.55058,81.64038,71,29,0
81.92335,82.297905,72,56,0
82.297905,82.3877,71,39,0
82.657104,82.7469,66,36,0
83.0163,83.106094,67,41,0
83.38906,83.47967,69,47,0
83.761536,84.12607,71,60,0
85.57365,85.93997,60,55,0
85.20309,85.93997,48,65,0
85.93997,86.30015,59,54,0
86.30015,86.66375,57,46,0
85.93997,86.66375,50,54,0
86.66375,87.385315,47,56,0
86.66375,87.385315,50,56,0
86.66375,87.385315,55,56,0
88.47834,88.844666,60,55,0
88.10778,88.844666,48,65,0
88.844666,89.20484,59,54,0
89.20484,89.56844,57,46,0
88.844666,89.56844,50,54,0
89.56844,89.68676,55,40,0
89.68676,89.80508,59,32,0
89.80508,89.92339,62,32,0
89.92339,90.0417,55,40,0
90.0417,90.16002,59,34,0
90.16002,90.278336,62,34,0
90.278336,90.39711,55,40,0
90.39711,90.51588,59,32,0
90.51588,90.63465,62,32,0
90.63465,90.75252,50,40,0
90.75252,90.87038,54,32,0
90.87038,90.988235,62,33,0
90.988235,91.10655,55,39,0
91.10655,91.22487,59,29,0
91.22487,91.343185,62,29,0
91.343185,91.4615,55,39,0
91.4615,91.57981,59,30,0
91.57981,91.69813,62,30,0
91.69813,91.8169,55,39,0
91.8169,91.93568,59,30,0
91.93568,92.05444,62,30,0
92.05444,92.17231,50,39,0
92.17231,92.29017,54,33,0
92.29017,92.408035,62,33,0
92.408035,92.526344,55,40,0
92.526344,92.64466,59,32,0
92.64466,92.76298,62,32,0
92.76298,92.881294,55,40,0
92.881294,92.99961,59,34,0
92.99961,93.11793,62,34,0
93.11793,93.239136,55,40,0
93.239136,93.36035,59,32,0
93.36035,93.48156,62,32,0
93.48156,93.59942,50,63,0
93.59942,93.717285,54,50,0
93.717285,93.835144,62,52,0
93.835144,93.95346,55,62,0
93.95346,94.07178,59,46,0
94.07178,94.190094,62,46,0
94.190094,94.30841,55,62,0
94.30841,94.42672,59,48,0
94.42672,94.54504,62,48,0
94.54504,94.66381,55,62,0
94.66381,94.782585,59,48,0
94.782585,94.90135,62,48,0
94.90135,95.01922,50,62,0
95.01922,95.13708,54,52,0
95.13708,95.254944,62,52,0
95.254944,95.37325,55,62,0
95.37325,95.49157,59,46,0
95.49157,95.609886,62,46,0
95.609886,95.7296,55,62,0
95.7296,95.849335,59,48,0
95.849335,95.96935,62,48,0
95.96935,96.091644,55,62,0
96.091644,96.21394,59,48,0
96.21394,96.33658,62,48,0
96.33658,96.46338,55,62,0
96.46338,96.59358,59,52,0
96.59358,96.76025,62,52,0
96.76025,97.121605,55,62,0
98.19954,98.28828,60,44,0
98.19954,98.28828,64,52,0
99.62923,99.71763,60,44,0
99.62923,99.71763,64,52,0
101.0583,101.14603,62,44,0
101.0583,101.14603,55,44,0
101.0583,101.14603,65,52,0
101.40922,101.49694,65,45,0
101.40922,101.49694,62,38,0
101.40922,101.49694,55,38,0
101.76013,101.850204,64,52,0
101.76013,101.850204,55,44,0
101.76013,101.850204,60,44,0
102.12041,102.22832,55,39,0
102.12041,102.22832,64,47,0
102.12041,102.22832,60,39,0
102.55206,102.90298,62,52,0
102.55206,102.90298,55,44,0
102.55206,102.90298,59,44,0
103.964035,104.050446,67,48,0
103.964035,104.050446,59,40,0
104.67361,104.76067,60,40,0
104.67361,104.76067,67,48,0
105.383835,105.469925,67,48,0
105.383835,105.469925,65,40,0
106.092415,106.178185,64,38,0
106.092415,106.178185,67,45,0
106.79705,106.88346,65,56,0
106.79705,106.88346,53,47,0
107.14271,107.229126,53,44,0
107.14271,107.229126,65,52,0
107.48837,107.57479,62,58,0
107.48837,107.57479,55,49,0
107.83404,107.924644,55,44,0
107.83404,107.924644,62,52,0
108.19649,108.310745,60,49,0
108.310745,108.425,64,36,0
108.425,108.53926,67,36,0
108.53926,108.65353,60,50,0
108.65353,108.767784,64,38,0
108.767784,108.88204,67,38,0
108.88204,108.9963,60,52,0
108.9963,109.110565,64,43,0
109.110565,109.22482,67,43,0
109.22482,109.341354,60,53,0
109.341354,109.45788,64,44,0
109.45788,109.587654,67,44,0
109.587654,109.70597,60,56,0
109.70597,109.82429,64,43,0
109.82429,109.942604,67,43,0
109.942604,110.06092,60,56,0
110.06092,110.17924,64,45,0
110.17924,110.29755,67,46,0
110.29755,110.41632,60,55,0
110.41632,110.535095,64,44,0
110.535095,110.65386,67,45,0
110.65386,110.77173,60,69,0
110.77173,110.88959,64,60,0
110.88959,111.007454,67,60,0
111.007454,111.12531,60,56,0
111.12531,111.24318,64,41,0
111.24318,111.36104,67,41,0
111.36104,111.4789,60,56,0
111.4789,111.59676,64,44,0
111.59676,111.71462,67,44,0
111.71462,111.8334,60,56,0
111.8334,111.95217,64,44,0
111.95217,112.08564,67,45,0
112.08564,112.20173,60,56,0
112.20173,112.31782,64,44,0
112.31782,112.439865,67,44,0
112.439865,112.55684,62,56,0
112.55684,112.67381,65,42,0
112.67381,112.79078,67,45,0
112.79078,112.90775,62,56,0
112.90775,113.02473,65,45,0
113.02473,113.1417,67,45,0
113.1417,113.258675,60,56,0
113.258675,113.37565,64,46,0
113.37565,113.492615,67,50,0
113.492615,113.60959,60,56,0
113.60959,113.72656,64,46,0
113.72656,113.913704,67,46,0
113.913704,114.26462,59,63,0
115.31778,115.433,55,56,0
115.433,115.54822,59,43,0
115.54822,115.663445,62,45,0
115.663445,115.77953,55,56,0
115.77953,115.89562,59,45,0
115.89562,116.02597,62,45,0
116.02597,116.14206,55,56,0
116.14206,116.25815,60,43,0
116.25815,116.37424,64,44,0
116.37424,116.489456,55,56,0
116.489456,116.60468,60,46,0
116.60468,116.73413,64,46,0
116.73413,116.84892,55,56,0
116.84892,116.96371,62,47,0
116.96371,117.0785,65,47,0
117.0785,117.19503,55,56,0
117.19503,117.31156,62,44,0
117.31156,117.439674,65,44,0
117.439674,117.55404,57,56,0
117.55404,117.6684,60,46,0
117.6684,117.79764,64,46,0
117.79764,117.91355,57,56,0
117.91355,118.02947,60,45,0
118.02947,118.159775,64,45,0
118.159775,118.274994,53,56,0
118.274994,118.39021,57,45,0
118.39021,118.50543,62,47,0
118.50543,118.62375,53,56,0
118.62375,118.742065,57,46,0
118.742065,118.86038,62,46,0
118.86038,118.975174,55,56,0
118.975174,119.08996,62,43,0
119.08996,119.20475,65,43,0
119.20475,119.33853,55,56,0
119.33853,119.47231,62,44,0
119.47231,119.60609,65,45,0
119.60609,120.32448,64,45,0
120.32448,121.0277,70,43,0
121.0277,121.73589,69,45,0
121.73589,122.44405,65,42,0
119.60609,122.44405,60,60,0
122.44405,123.152245,64,45,0
123.152245,123.85191,70,43,0
123.85191,124.560104,69,45,0
124.560104,125.268265,65,42,0
122.44405,125.268265,60,39,0
125.268265,125.38657,60,45,0
125.38657,125.50489,64,35,0
125.50489,125.62321,67,35,0
125.62321,125.74152,60,45,0
125.74152,125.85984,64,34,0
125.85984,125.97816,67,34,0
125.97816,126.096924,60,45,0
126.096924,126.2157,64,36,0
126.2157,126.33447,67,36,0
126.33447,126.45233,59,45,0
126.45233,126.57019,62,36,0
126.57019,126.68806,67,37,0
126.68806,126.80637,60,45,0
126.80637,126.92468,64,36,0
126.92468,127.043,67,36,0
127.043,127.161316,60,45,0
127.161316,127.27963,64,38,0
127.27963,127.39795,67,38,0
127.39795,127.516716,60,45,0
127.516716,127.63549,64,36,0
127.63549,127.754265,67,36,0
127.754265,127.87212,59,45,0
127.87212,127.98999,62,36,0
127.98999,128.10785,67,37,0
128.10785,128.22617,60,45,0
128.22617,128.34448,64,36,0
128.34448,128.4628,67,36,0
128.4628,128.58112,60,45,0
128.58112,128.69943,64,38,0
128.69943,128.81775,67,38,0
128.81775,128.93651,60,45,0
128.93651,129.05528,64,36,0
129.05528,129.17406,67,36,0
129.17406,129.29192,59,45,0
129.29192,129.40977,62,36,0
129.40977,129.52765,67,37,0
129.52765,129.64551,60,45,0
129.64551,129.76337,64,36,0
129.76337,129.88123,67,36,0
129.88123,129.99908,60,45,0
129.99908,130.11696,64,38,0
130.11696,130.23482,67,39,0
130.23482,130.35359,60,46,0
130.35359,130.47237,64,37,0
130.47237,130.59113,67,37,0
130.59113,130.709,60,47,0
130.709,130.82686,62,38,0
130.82686,130.94472,66,39,0
130.94472,131.06303,59,48,0
131.06303,131.18135,62,38,0
131.18135,131.29967,67,39,0
131.29967,131.41798,59,49,0
131.41798,131.5363,62,41,0
131.5363,131.6546,67,42,0
131.6546,131.77338,59,50,0
131.77338,131.89215,62,40,0
131.89215,132.01093,67,40,0
132.01093,132.12878,54,51,0
132.12878,132.24664,57,41,0
132.24664,132.36452,62,42,0
132.36452,132.48283,55,52,0
132.48283,132.60114,59,41,0
132.60114,132.71945,62,42,0
132.71945,132.83777,55,53,0
132.83777,132.95609,59,44,0
132.95609,133.0744,62,45,0
133.0744,133.19318,55,54,0
133.19318,133.31195,59,43,0
133.31195,133.43073,62,43,0
133.43073,133.54858,54,54,0
133.54858,133.66644,57,43,0
133.66644,133.7843,62,45,0
133.7843,133.90262,55,55,0
133.90262,134.02094,59,44,0
134.02094,134.13925,62,45,0
134.13925,134.25757,55,56,0
134.25757,134.37589,59,47,0
134.37589,134.4942,62,48,0
134.4942,134.61298,55,57,0
134.61298,134.73174,59,46,0
134.73174,134.85051,62,46,0
134.85051,134.96837,55,57,0
134.96837,135.08624,59,50,0
135.08624,135.2041,62,50,0
135.2041,135.31932,54,56,0
135.31932,135.43454,57,43,0
135.43454,135.54976,62,45,0
135.54976,135.66585,54,56,0
135.66585,135.78194,57,45,0
135.78194,135.9123,62,45,0
135.9123,136.02838,55,56,0
136.02838,136.14447,59,43,0
136.14447,136.26056,62,44,0
136.26056,136.37578,55,56,0
136.37578,136.491,59,46,0
136.491,136.62045,62,46,0
136.62045,136.73567,60,56,0
136.73567,136.85089,62,43,0
136.85089,136.96611,66,45,0
136.96611,137.0822,60,56,0
137.0822,137.19829,62,45,0
137.19829,137.32864,66,45,0
137.32864,137.44473,59,56,0
137.44473,137.56082,62,43,0
137.56082,137.67691,67,44,0
137.67691,137.79477,59,39,0
137.79477,137.91263,62,35,0
137.91263,138.03049,67,35,0
138.03049,138.1457,54,39,0
138.1457,138.26094,57,30,0
138.26094,138.37616,62,31,0
138.37616,138.49225,54,39,0
138.49225,138.60834,57,31,0
138.60834,138.73868,62,31,0
138.73868,138.85477,55,39,0
138.85477,138.97086,59,30,0
138.97086,139.08694,62,30,0
139.08694,139.20218,55,39,0
139.20218,139.3174,59,32,0
139.3174,139.44684,62,32,0
139.44684,139.56206,60,39,0
139.56206,139.67728,62,30,0
139.67728,139.79251,66,31,0
139.79251,139.9086,60,39,0
139.9086,140.02469,62,31,0
140.02469,140.15503,66,31,0
140.15503,140.27112,59,39,0
140.27112,140.3872,62,30,0
140.3872,140.5033,67,30,0
140.5033,140.61938,59,54,0
140.61938,140.73547,62,43,0
140.73547,140.85158,67,44,0
140.85158,140.9668,60,54,0
140.9668,141.08202,64,40,0
141.08202,141.19724,69,41,0
141.19724,141.31332,60,55,0
141.31332,141.42941,64,42,0
141.42941,141.55975,69,42,0
141.55975,141.67584,61,53,0
141.67584,141.79195,64,41,0
141.79195,141.90804,69,41,0
141.90804,142.02325,61,51,0
142.02325,142.13847,64,42,0
142.13847,142.26791,69,43,0
142.26791,142.6705,62,58,0
142.95705,143.05257,62,62,0
143.05257,143.33911,66,68,0
143.33911,143.43463,62,62,0
143.43463,143.72118,69,68,0
143.72118,143.83226,66,64,0
143.83226,144.21312,74,80,0
144.49876,144.59398,50,62,0
144.59398,144.72093,54,71,0
144.72093,144.84787,50,62,0
144.84787,144.97482,54,62,0
144.97482,145.10178,57,68,0
145.10178,145.22873,54,64,0
145.22873,145.37155,57,64,0
145.37155,145.75241,62,74,0
146.13326,146.70454,38,84,0
146.70454,146.89497,38,78,0
146.89497,147.27583,38,84,0
148.4184,148.53671,59,40,0
148.53893,148.65724,62,32,0
148.65503,148.77335,67,32,0
148.77335,148.89166,59,40,0
148.89388,149.01219,62,34,0
149.00998,149.1283,67,34,0
149.1283,149.24706,59,40,0
149.24928,149.36806,62,32,0
149.36583,149.4846,67,32,0
149.4846,149.60246,60,40,0
149.60246,149.72032,62,32,0
149.72032,149.8382,66,33,0
149.8382,149.95605,59,40,0
149.95238,150.07024,62,32,0
150.07391,150.19177,67,32,0
150.19177,150.30965,59,41,0
150.30595,150.42381,62,35,0
150.4275,150.54536,67,36,0
150.54536,150.66414,59,43,0
150.66414,150.78291,62,35,0
150.78291,150.90167,67,35,0
150.90167,151.01955,60,45,0
151.01955,151.1374,62,37,0
151.1374,151.25526,66,38,0
151.25526,151.37358,59,48,0
151.37358,151.4919,62,38,0
151.4919,151.61021,67,39,0
151.61021,151.72853,59,49,0
151.72853,151.84685,62,41,0
151.84685,151.96516,67,42,0
151.96516,152.08392,59,50,0
152.08392,152.2027,62,40,0
152.2027,152.32147,67,40,0
152.32147,152.43933,60,51,0
152.43933,152.55719,62,41,0
152.55719,152.67506,66,42,0
152.67506,152.79338,59,52,0
152.79338,152.91168,62,41,0
152.91168,153.03,67,42,0
153.03,153.14832,59,54,0
153.14832,153.26663,62,45,0
153.26663,153.38495,67,46,0
153.38495,153.50372,54,56,0
153.50372,153.6225,57,45,0
153.6225,153.74127,62,45,0
153.74127,153.85913,54,57,0
153.85913,153.97699,57,46,0
153.97699,154.09485,62,48,0
154.09485,154.21317,55,59,0
154.21317,154.33148,59,48,0
154.33148,154.4498,62,49,0
154.4498,154.56812,55,62,0
154.56812,154.68643,59,52,0
154.68643,154.80475,62,54,0
154.80475,154.92352,52,64,0
154.92352,155.04228,55,52,0
155.04228,155.16106,60,52,0
155.16106,155.28188,52,66,0
155.28188,155.4027,55,58,0
155.4027,155.54236,60,59,0
155.54236,155.66281,47,67,0
155.66205,155.7825,50,60,0
155.78175,155.9022,55,61,0
155.90146,156.02298,47,68,0
156.02222,156.1448,50,62,0
156.14633,156.27008,55,62,0
156.27164,156.65007,47,71,0
157.04863,157.41777,36,72,0
157.04863,157.41777,48,72,0
160.08865,160.8315,71,42,0
160.8315,161.60461,72,43,0
160.08865,161.60461,62,42,0
161.60461,161.9749,71,40,0
161.60461,161.9749,67,40,0
162.71545,163.09001,79,36,0
163.09001,163.17981,81,38,0
163.09001,163.17981,78,38,0
164.18117,164.55573,76,36,0
164.55573,164.64552,74,38,0
164.55573,164.64552,78,38,0
165.63332,166.00787,72,36,0
166.00787,166.09767,71,38,0
166.00787,166.09767,74,38,0
167.08546,167.43936,67,36,0
167.08546,167.43936,71,36,0
167.43936,167.52783,60,41,0
167.43936,167.52783,72,41,0
168.1613,168.25084,69,38,0
168.1613,168.25084,62,38,0
168.88638,168.97513,67,41,0
168.88638,168.97513,71,41,0
169.95122,170.32579,79,70,0
170.32579,170.41559,78,44,0
170.68498,170.77478,78,35,0
171.04417,171.13397,78,35,0
171.41693,171.7915,79,70,0
171.7915,171.8813,78,44,0
172.1507,172.2405,78,32,0
172.50989,172.59969,78,32,0
172.88264,173.25722,76,63,0
173.25722,173.34702,74,39,0
173.61641,173.7062,74,30,0
173.9756,174.0654,74,30,0
174.34836,174.72293,76,58,0
174.72293,174.81273,74,39,0
175.08212,175.17192,74,28,0
175.44131,175.53111,74,28,0
175.81407,176.18864,72,56,0
176.18864,176.27844,71,39,0
176.54784,176.63763,71,28,0
176.90703,176.99683,71,29,0
177.27979,177.65436,72,56,0
177.65436,177.74416,71,39,0
178.01355,178.10335,71,28,0
178.37274,178.46254,71,29,0
178.7455,179.12007,72,56,0
179.12007,179.20987,71,39,0
179.47926,179.56906,66,36,0
179.83846,179.92825,67,41,0
180.21121,180.30183,69,47,0
180.5837,180.95107,71,60,0
182.39865,182.76497,60,55,0
182.02809,182.76497,48,65,0
182.76497,183.12515,59,54,0
183.12515,183.48875,57,46,0
182.76497,183.48875,50,54,0
183.48875,184.20784,50,56,0
183.48875,184.20784,47,56,0
183.48875,184.20784,55,56,0
185.30086,185.66718,60,55,0
184.9303,185.66718,48,65,0
185.66718,186.02736,59,54,0
186.02736,186.39096,57,46,0
185.66718,186.39096,50,54,0
186.39096,186.50928,55,40,0
186.50928,186.6276,59,32,0
186.6276,186.74591,62,32,0
186.74591,186.86423,55,40,0
186.86423,186.98254,59,34,0
186.98254,187.10086,62,34,0
187.10086,187.21962,55,40,0
187.21962,187.3384,59,32,0
187.3384,187.45717,62,32,0
187.45717,187.57503,50,40,0
187.57503,187.6929,54,32,0
187.6929,187.81076,62,33,0
187.81076,187.92908,55,39,0
187.92908,188.0474,59,29,0
188.0474,188.1657,62,29,0
188.1657,188.28401,55,39,0
188.28401,188.40233,59,30,0
188.40233,188.52065,62,30,0
188.52065,188.63942,55,39,0
188.63942,188.7582,59,30,0
188.7582,188.87697,62,30,0
188.87697,188.99483,50,39,0
188.99483,189.11269,54,33,0
189.11269,189.23055,62,33,0
189.23055,189.34886,55,40,0
189.34886,189.46718,59,32,0
189.46718,189.5855,62,32,0
189.5855,189.70381,55,40,0
189.70381,189.82213,59,34,0
189.82213,189.94044,62,34,0
189.94044,190.05922,55,40,0
190.05922,190.178,59,32,0
190.178,190.29675,62,32,0
190.29675,190.41463,50,63,0
190.41463,190.53249,54,50,0
190.53249,190.65034,62,52,0
190.65034,190.76866,55,62,0
190.76866,190.88698,59,46,0
190.88698,191.0053,62,46,0
191.0053,191.12361,55,62,0
191.12361,191.24193,59,48,0
191.24193,191.36023,62,48,0
191.36023,191.479,55,62,0
191.479,191.59778,59,48,0
191.59778,191.71655,62,48,0
191.71655,191.83441,50,62,0
191.83441,191.95227,54,52,0
191.95227,192.07014,62,52,0
192.07014,192.18846,55,62,0
192.18846,192.30676,59,46,0
192.30676,192.42508,62,46,0
192.42508,192.5448,55,62,0
192.5448,192.66454,59,48,0
192.66454,192.78455,62,48,0
192.78455,192.90685,55,62,0
192.90685,193.02914,59,48,0
193.02914,193.15178,62,48,0
193.15178,193.27858,55,62,0
193.27858,193.40878,59,52,0
193.40878,193.58194,62,52,0
193.58194,193.9433,55,62,0
195.02524,195.11165,59,40,0
195.02524,195.11165,67,48,0
195.7348,195.82187,67,48,0
195.7348,195.82187,60,40,0
196.44504,196.53113,65,40,0
196.44504,196.53113,67,48,0
197.15361,197.23938,64,38,0
197.15361,197.23938,67,45,0
197.85866,198.20303,40,56,0
197.85866,198.20303,52,66,0
198.56725,198.93413,52,65,0
198.56725,198.93413,40,55,0
199.37065,200.60742,40,55,0
199.37065,200.60742,52,65,0
200.97026,201.08858,53,56,0
201.08858,201.2069,57,43,0
201.2069,201.32521,60,43,0
201.32521,201.44353,53,56,0
201.44353,201.56184,57,45,0
201.56184,201.68016,60,46,0
201.68016,201.79893,53,55,0
201.79893,201.9177,57,44,0
201.9177,202.03647,60,45,0
202.03647,202.15434,53,56,0
202.15434,202.2722,57,51,0
202.2722,202.39006,60,51,0
202.39006,202.50792,53,56,0
202.50792,202.62578,57,41,0
202.62578,202.74365,60,41,0
202.74365,202.86151,53,56,0
202.86151,202.97937,57,44,0
202.97937,203.09723,60,44,0
203.09723,203.216,53,56,0
203.216,203.33478,57,44,0
203.33478,203.46825,60,45,0
203.46825,203.58434,53,56,0
203.58434,203.70042,57,44,0
203.70042,203.82246,60,44,0
203.82246,203.93944,55,56,0
203.93944,204.05641,58,42,0
204.05641,204.17339,60,45,0
204.17339,204.29036,55,56,0
204.29036,204.40733,58,45,0
204.40733,204.5243,60,45,0
204.5243,204.64128,53,56,0
204.64128,204.75826,57,46,0
204.75826,204.87523,60,50,0
204.87523,204.9922,53,56,0
204.9922,205.10918,57,46,0
205.10918,205.29799,60,46,0
205.29799,205.41496,52,56,0
205.41496,205.53194,55,42,0
205.53194,205.64891,60,42,0
205.64891,205.76588,52,51,0
205.76588,205.88286,55,42,0
205.88286,205.99982,60,43,0
205.99982,206.11679,52,54,0
206.11679,206.23376,55,44,0
206.23376,206.35074,60,45,0
206.35074,206.46683,52,56,0
206.46683,206.58292,55,46,0
206.58292,206.70207,60,46,0
206.70207,206.81729,52,56,0
206.81369,206.92891,55,43,0
206.93251,207.04773,60,45,0
207.04773,207.16382,52,56,0
207.16019,207.27628,55,45,0
207.2799,207.41026,60,45,0
207.41026,207.52635,53,56,0
207.52635,207.64244,57,43,0
207.64244,207.75853,60,44,0
207.75853,207.87375,53,56,0
207.87375,207.98897,57,46,0
207.98897,208.11842,60,46,0
208.11842,208.2332,58,56,0
208.2332,208.34799,60,47,0
208.34799,208.46278,64,47,0
208.46278,208.57932,58,56,0
208.57932,208.69585,60,44,0
208.69585,208.82396,64,44,0
208.82396,208.93832,57,56,0
208.93832,209.05269,60,46,0
209.05269,209.18193,65,46,0
209.18193,209.29784,57,56,0
209.29784,209.41376,60,45,0
209.41376,209.54405,65,45,0
209.54405,209.65929,58,56,0
209.65929,209.7745,62,45,0
209.7745,209.88972,67,47,0
209.88972,210.00804,58,56,0
210.00804,210.12636,62,46,0
210.12636,210.24467,67,46,0
210.24467,210.35945,60,56,0
210.35945,210.47424,64,43,0
210.47424,210.58904,67,43,0
210.58904,210.71846,60,56,0
210.71846,210.84787,64,44,0
210.84787,210.99438,67,45,0
210.99438,211.08107,65,61,0
212.05058,212.42104,67,68,0
212.05058,212.42104,60,57,0
212.42104,212.50772,65,61,0
213.47722,213.84767,60,57,0
213.47722,213.84767,67,68,0
213.84767,213.93436,65,61,0
214.8954,215.26585,69,68,0
214.8954,215.26585,62,57,0
215.26585,215.35254,67,61,0
216.31589,216.68634,64,57,0
216.31589,216.68634,71,68,0
216.68634,216.77303,69,61,0
217.73482,217.82408,68,68,0
218.10527,218.19196,69,61,0
218.45201,218.79875,71,64,0
218.79875,219.15149,72,67,0
219.15149,219.24075,69,60,0
219.51733,219.86407,68,57,0
219.86407,220.21082,69,51,0
220.21082,220.56355,68,51,0
219.51733,220.56355,64,39,0
220.56355,220.93988,64,33,0
220.93988,221.0294,65,40,0
221.29527,221.38376,69,33,0
221.64925,221.73775,71,41,0
222.00682,222.3781,74,33,0
222.3781,222.46764,64,40,0
222.73384,222.82182,68,33,0
223.08575,223.17372,69,41,0
223.44156,223.80266,73,35,0
223.80266,223.89236,62,44,0
224.15779,224.24506,66,37,0
224.50522,224.59192,67,48,0
224.85988,225.23035,71,39,0
225.23035,225.31703,60,48,0
225.57709,225.66377,64,40,0
225.92383,226.01051,65,51,0
226.27882,226.36809,69,42,0
226.64146,226.72815,64,60,0
226.9882,227.07489,60,51,0
227.33495,227.42163,65,65,0
227.68552,227.77478,69,57,0
228.05597,228.14265,53,73,0
228.05597,228.14265,41,62,0
228.40271,228.4894,57,67,0
228.40271,228.4894,45,56,0
228.74945,228.83614,40,63,0
228.74945,228.83614,52,75,0
229.10257,229.19183,57,68,0
229.10257,229.19183,45,57,0
229.47302,229.55971,51,78,0
229.47302,229.55971,39,66,0
229.81976,229.90645,54,72,0
229.81976,229.90645,42,61,0
230.1665,230.25319,57,76,0
230.1665,230.25319,45,64,0
230.51743,230.60515,48,59,0
230.51743,230.60515,60,70,0
230.87292,230.95961,51,64,0
230.87292,230.95961,63,76,0
231.21967,231.30635,66,68,0
231.21967,231.30635,54,57,0
231.5664,231.65309,57,67,0
231.5664,231.65309,69,79,0
231.91591,232.29732,39,60,0
231.91591,232.29732,51,71,0
232.29732,236.42207,40,69,0
232.29732,236.42207,52,82,0
236.42207,237.11418,45,40,0
236.42207,237.11418,57,40,0
237.11418,237.8063,48,38,0
237.11418,237.8063,36,38,0
237.8063,238.49841,50,40,0
237.8063,238.49841,38,40,0
238.49841,239.19016,40,36,0
238.49841,239.19016,52,36,0
240.2668,240.68639,55,40,0
240.68639,242.95053,58,43,0
242.95053,243.71486,57,37,0
243.71486,244.56593,55,32,0
239.8987,244.56593,52,37,0
239.53993,244.56593,49,34,0
239.19016,244.56593,45,40,0
244.56593,245.60188,53,36,0
244.56593,245.60188,50,30,0
245.60188,245.95015,48,27,0
245.60188,245.95015,52,32,0
245.95015,247.02895,47,30,0
245.95015,247.02895,50,36,0
247.02895,247.72221,48,32,0
247.02895,247.72221,45,27,0
247.72221,249.38719,47,32,0
247.72221,249.38719,43,27,0
249.96463,250.05338,48,44,0
249.96463,250.05338,52,52,0
251.39432,251.48271,48,44,0
251.39432,251.48271,52,52,0
252.8234,252.91112,53,52,0
252.8234,252.91112,50,44,0
252.8234,252.91112,43,44,0
253.1743,253.26204,53,45,0
253.1743,253.26204,43,38,0
253.1743,253.26204,50,38,0
253.52522,253.6153,52,52,0
253.52522,253.6153,48,44,0
253.52522,253.6153,43,44,0
253.8855,253.99265,48,39,0
253.8855,253.99265,43,39,0
253.8855,253.99265,52,47,0
254.31407,254.665,43,44,0
254.31407,254.665,50,52,0
254.31407,254.665,47,44,0
255.72604,255.81245,47,40,0
255.72604,255.81245,55,48,0
256.4356,256.52267,48,40,0
256.4356,256.52267,55,48,0
257.14584,257.23193,53,40,0
257.14584,257.23193,55,48,0
257.85443,257.9402,55,45,0
257.85443,257.9402,52,38,0
258.55905,258.64548,53,56,0
258.55905,258.64548,41,47,0
258.90472,258.99115,41,44,0
258.90472,258.99115,53,52,0
259.25037,259.3368,50,58,0
259.25037,259.3368,43,49,0
259.59604,259.68665,50,52,0
259.59604,259.68665,43,44,0
259.9585,260.0793,60,55,0
260.0793,260.20013,63,43,0
260.20013,260.32095,67,43,0
260.32095,260.44177,60,56,0
260.44177,260.5626,63,42,0
260.5626,260.68338,67,42,0
260.68338,260.8042,60,55,0
260.8042,260.92502,63,44,0
260.92502,261.04584,67,45,0
261.04584,261.16238,60,56,0
261.16238,261.2789,63,51,0
261.2789,261.4087,67,51,0
261.4087,261.527,60,56,0
261.527,261.64532,63,43,0
261.64532,261.7636,67,43,0
261.7636,261.88193,60,56,0
261.88193,262.00024,63,45,0
262.00024,262.11856,67,46,0
262.11856,262.23734,60,55,0
262.23734,262.3561,63,44,0
262.3561,262.47488,67,45,0
262.47488,262.59274,60,56,0
262.59274,262.7106,63,51,0
262.7106,262.82846,67,51,0
262.82846,262.94635,60,56,0
262.94635,263.0642,63,41,0
263.0642,263.18207,67,41,0
263.18207,263.29993,60,56,0
263.29993,263.4178,63,44,0
263.4178,263.53564,67,44,0
263.53564,263.65442,60,56,0
263.65442,263.7732,63,44,0
263.7732,263.90665,67,45,0
263.90665,264.02274,60,56,0
264.02274,264.13882,63,44,0
264.13882,264.2609,67,44,0
264.2609,264.3792,58,56,0
264.3792,264.49753,64,43,0
264.49753,264.61584,67,43,0
264.61584,264.73416,58,56,0
264.73416,264.85245,64,45,0
264.85245,264.97076,67,46,0
264.97076,265.08954,58,55,0
265.08954,265.2083,64,44,0
265.2083,265.3271,67,45,0
265.3271,265.44495,58,56,0
265.44495,265.5628,64,51,0
265.5628,265.6807,67,51,0
265.6807,265.79855,58,56,0
265.79855,265.9164,64,41,0
265.9164,266.03427,67,41,0
266.03427,266.15213,58,56,0
266.15213,266.27,64,44,0
266.27,266.38785,67,44,0
266.38785,266.50662,58,56,0
266.50662,266.6254,64,44,0
266.6254,266.75888,67,45,0
266.75888,266.87497,58,56,0
266.87497,266.99106,64,44,0
266.99106,267.1131,67,44,0
267.1131,267.23096,57,50,0
267.23096,267.34882,64,38,0
267.34882,267.46667,67,38,0
267.46667,267.58453,57,50,0
267.58453,267.7024,64,39,0
267.7024,267.82025,67,39,0
267.82025,267.93903,57,50,0
267.93903,268.0578,64,39,0
268.0578,268.19128,67,40,0
268.19128,268.30737,57,50,0
268.30737,268.42346,64,39,0
268.42346,268.5455,67,39,0
268.5455,268.66336,57,50,0
268.66336,268.78122,62,36,0
268.78122,268.89908,65,36,0
268.89908,269.01694,57,50,0
269.01694,269.13483,62,39,0
269.13483,269.2527,65,39,0
269.2527,269.37146,57,50,0
269.37146,269.49023,62,39,0
269.49023,269.6237,65,40,0
269.6237,269.73978,57,50,0
269.73978,269.85587,62,39,0
269.85587,269.9779,65,39,0
269.9779,270.09314,55,50,0
270.09314,270.20834,59,38,0
270.20834,270.32358,62,40,0
270.32358,270.43967,55,50,0
270.43967,270.55576,59,40,0
270.55576,270.6861,62,40,0
270.6861,270.8022,55,50,0
270.8022,270.91827,60,38,0
270.91827,271.03436,64,39,0
271.03436,271.1496,55,50,0
271.1496,271.2648,60,41,0
271.2648,271.39426,64,41,0
271.39426,271.5095,55,50,0
271.5095,271.6247,62,38,0
271.6247,271.73993,65,40,0
271.73993,271.85602,55,50,0
271.85602,271.9721,62,40,0
271.9721,272.10245,65,40,0
272.10245,272.21854,55,50,0
272.21854,272.33463,60,43,0
272.33463,272.4507,64,44,0
272.4507,272.56857,55,39,0
272.56857,272.68646,60,35,0
272.68646,272.80432,64,35,0
272.80432,272.91953,55,39,0
272.91953,273.03476,59,30,0
273.03476,273.14996,62,31,0
273.14996,273.26605,55,39,0
273.26605,273.38214,59,31,0
273.38214,273.5125,62,31,0
273.5125,273.6286,55,39,0
273.6286,273.7447,60,30,0
273.7447,273.86078,64,30,0
273.86078,273.97598,55,39,0
273.97598,274.09122,60,32,0
274.09122,274.22067,64,32,0
274.22067,274.33588,55,39,0
274.33588,274.4511,62,30,0
274.4511,274.5663,65,31,0
274.5663,274.6824,55,45,0
274.6824,274.7985,62,36,0
274.7985,274.92883,65,36,0
274.92883,275.04492,55,50,0
275.04492,275.16104,60,38,0
275.16104,275.27713,64,38,0
275.27713,275.39322,55,54,0
275.39322,275.5093,60,43,0
275.5093,275.6254,64,44,0
275.6254,275.97366,55,58,0
276.2602,276.3557,55,62,0
276.3557,276.64227,59,68,0
276.64227,276.7378,55,62,0
276.7378,277.02435,62,68,0
277.02435,277.13544,59,64,0
277.13544,277.51627,67,80,0
277.8019,277.89713,43,62,0
277.89713,278.02408,47,71,0
278.02408,278.15103,43,62,0
278.15103,278.27798,47,62,0
278.27798,278.40494,50,68,0
278.40494,278.5319,47,64,0
278.5319,278.6747,50,64,0
278.6747,279.05557,55,74,0
279.43643,280.00772,31,84,0
280.00772,280.19812,31,78,0
280.19812,280.57898,31,84,0
281.72156,281.83987,52,45,0
281.8421,281.96042,55,36,0
281.9582,282.0765,60,36,0
282.0765,282.19482,52,45,0
282.19705,282.31537,55,38,0
282.31314,282.43146,60,38,0
282.43146,282.55023,52,45,0
282.55246,282.67123,55,36,0
282.669,282.78778,60,36,0
282.78778,282.90564,53,45,0
282.90564,283.0235,55,36,0
283.0235,283.14136,59,37,0
283.14136,283.25922,52,45,0
283.25552,283.37338,55,36,0
283.37708,283.49493,60,36,0
283.49493,283.6128,52,45,0
283.60913,283.727,55,38,0
283.73065,283.8485,60,39,0
283.8485,283.9673,52,46,0
283.9673,284.08606,55,37,0
284.08606,284.20483,60,37,0
284.20483,284.3227,53,47,0
284.3227,284.44055,55,38,0
284.44055,284.55844,59,39,0
284.55844,284.67673,52,48,0
284.67673,284.79504,55,38,0
284.79504,284.91336,60,39,0
284.91336,285.03168,52,49,0
285.03168,285.15,55,41,0
285.15,285.2683,60,42,0
285.2683,285.3871,52,50,0
285.3871,285.50586,55,40,0
285.50586,285.62463,60,40,0
285.62463,285.7425,53,51,0
285.7425,285.86035,55,41,0
285.86035,285.9782,59,42,0
285.9782,286.09653,52,52,0
286.09653,286.21484,55,41,0
286.21484,286.33316,60,42,0
286.33316,286.45148,52,54,0
286.45148,286.5698,55,45,0
286.5698,286.6881,60,46,0
286.6881,286.8069,47,61,0
286.8069,286.92566,50,51,0
286.92566,287.04443,55,52,0
287.04443,287.1623,47,62,0
287.1623,287.28015,50,52,0
287.28015,287.398,55,52,0
287.398,287.51633,48,65,0
287.51633,287.63464,52,54,0
287.63464,287.75296,55,52,0
287.75296,287.87128,48,69,0
287.87128,287.9896,52,52,0
287.9896,288.1079,55,54,0
288.1079,288.22668,50,66,0
288.22668,288.34546,53,56,0
288.34546,288.46423,59,56,0
288.46423,288.58505,50,71,0
288.58505,288.70584,53,58,0
288.70584,288.84552,59,59,0
288.84552,288.96597,52,74,0
288.9652,289.08566,55,60,0
289.08493,289.20538,60,61,0
289.20462,289.32614,52,73,0
289.32538,289.44797,55,62,0
289.4495,289.57324,60,62,0
289.5748,289.95322,52,76,0
290.3518,290.72095,41,72,0
290.3518,290.72095,53,72,0
293.3918,294.13464,76,42,0
294.13464,294.90778,77,43,0
293.3918,294.90778,67,42,0
294.90778,295.27805,72,40,0
294.90778,295.27805,76,40,0
296.01862,296.3932,72,36,0
296.3932,296.48297,71,38,0
296.3932,296.48297,74,38,0
297.48434,297.8589,69,36,0
297.8589,297.9487,67,38,0
297.8589,297.9487,71,38,0
298.9365,299.31104,65,36,0
299.31104,299.40085,64,38,0
299.31104,299.40085,67,38,0
300.3886,300.74252,64,36,0
300.3886,300.74252,60,36,0
300.74252,300.831,53,41,0
300.74252,300.831,65,41,0
301.46448,301.554,62,38,0
301.46448,301.554,55,38,0
302.18954,302.2783,60,41,0
302.18954,302.2783,64,41,0
303.2544,303.62894,72,70,0
303.62894,303.71875,71,44,0
303.98813,304.07794,71,35,0
304.34735,304.43713,71,35,0
304.7201,305.09467,72,70,0
305.09467,305.18445,71,44,0
305.45386,305.54364,71,32,0
305.81305,305.90286,71,32,0
306.18582,306.56036,69,63,0
306.56036,306.65018,67,39,0
306.91956,307.00937,67,30,0
307.27878,307.36856,67,30,0
307.65152,308.0261,69,58,0
308.0261,308.11588,67,39,0
308.38528,308.47507,67,28,0
308.74448,308.8343,67,28,0
309.11725,309.4918,65,56,0
309.4918,309.5816,64,39,0
309.85098,309.9408,64,28,0
310.2102,310.3,64,29,0
310.58295,310.95752,65,56,0
310.95752,311.0473,64,39,0
311.3167,311.4065,64,28,0
311.6759,311.76572,64,29,0
312.04868,312.42322,65,56,0
312.42322,312.51303,64,39,0
312.7824,312.87222,59,36,0
313.1416,313.2314,60,41,0
313.51437,313.60498,62,47,0
313.88687,314.25137,64,60,0
315.69897,316.06528,53,55,0
315.3284,316.06528,41,65,0
316.06528,316.42548,52,54,0
316.42548,316.78906,50,46,0
316.06528,316.78906,43,54,0
316.78906,317.50815,48,70,0
316.78906,317.50815,43,70,0
316.78906,317.50815,40,70,0
318.23062,319.01752,57,73,0
318.23062,319.01752,53,73,0
319.01752,320.8357,54,62,0
319.01752,320.8357,63,73,0
319.01752,320.8357,57,62,0
319.01752,320.8357,60,62,0
320.8357,320.95438,55,42,0
320.95438,321.0731,60,32,0
321.0731,321.19177,64,32,0
321.19177,321.31046,55,42,0
321.31046,321.42917,60,34,0
321.42917,321.54785,64,34,0
321.54785,321.66653,55,42,0
321.66653,321.78525,60,33,0
321.78525,321.90393,64,33,0
321.90393,322.02048,55,45,0
322.02048,322.137,60,34,0
322.137,322.26678,64,34,0
322.26678,322.3851,55,47,0
322.3851,322.5034,60,34,0
322.5034,322.6217,64,34,0
322.6217,322.74002,55,47,0
322.74002,322.85834,60,36,0
322.85834,322.97665,64,36,0
322.97665,323.09543,55,50,0
323.09543,323.2142,60,36,0
323.2142,323.33298,64,36,0
323.33298,323.45084,55,69,0
323.45084,323.5687,60,56,0
323.5687,323.68655,64,56,0
323.68655,323.8044,55,47,0
323.8044,323.9223,60,34,0
323.9223,324.04016,64,34,0
324.04016,324.15802,55,47,0
324.15802,324.27588,60,37,0
324.27588,324.39374,64,37,0
324.39374,324.5125,55,47,0
324.5125,324.6313,60,37,0
324.6313,324.76474,64,38,0
324.76474,324.88083,55,47,0
324.88083,324.99692,60,37,0
324.99692,325.119,64,37,0
325.119,325.23596,55,47,0
325.23596,325.35294,62,35,0
325.35294,325.4699,65,38,0
325.4699,325.58685,55,47,0
325.58685,325.70383,62,38,0
325.70383,325.8208,65,38,0
325.8208,325.93777,55,47,0
325.93777,326.05475,60,39,0
326.05475,326.17172,64,42,0
326.17172,326.2887,55,47,0
326.2887,326.40567,60,39,0
326.40567,326.5957,64,39,0
326.5957,326.71707,55,47,0
326.71707,326.83606,59,35,0
326.83606,326.9528,62,38,0
326.9528,327.06906,55,47,0
327.06906,327.18536,59,38,0
327.18536,327.30164,62,38,0
327.30164,327.4179,55,47,0
327.4179,327.53418,59,39,0
327.53418,327.65045,62,42,0
327.65045,327.76657,55,47,0
327.76657,327.88266,59,39,0
327.88266,328.0018,62,39,0
328.0018,328.117,55,47,0
328.117,328.23224,59,36,0
328.23224,328.34744,62,38,0
328.34744,328.46353,55,54,0
328.46353,328.57962,59,41,0
328.57962,328.71,62,41,0
328.71,328.82608,55,51,0
328.82608,328.94217,60,39,0
328.94217,329.05826,64,40,0
329.05826,329.17346,55,47,0
329.17346,329.2887,60,39,0
329.2887,329.41815,64,39,0
329.41815,329.53293,55,47,0
329.53293,329.64774,62,39,0
329.64774,329.7625,65,39,0
329.7625,329.87903,55,53,0
329.87903,329.99557,62,40,0
329.99557,330.1237,65,37,0
330.1237,330.23804,57,51,0
330.23804,330.35242,60,39,0
330.35242,330.48166,64,39,0
330.48166,330.59756,57,47,0
330.59756,330.71347,60,38,0
330.71347,330.84378,64,38,0
330.84378,330.959,53,47,0
330.959,331.07422,57,38,0
331.07422,331.18945,62,39,0
331.18945,331.30777,53,47,0
331.30777,331.4261,57,39,0
331.4261,331.5444,62,39,0
331.5444,331.65918,55,47,0
331.65918,331.774,62,36,0
331.774,331.88876,65,36,0
331.88876,332.0182,55,47,0
332.0182,332.14758,62,37,0
332.14758,332.277,65,38,0
332.277,332.39532,60,70,0
332.39532,332.51364,64,52,0
332.51364,332.63196,67,51,0
332.63196,332.75027,60,65,0
332.75027,332.8686,64,51,0
332.8686,332.9869,67,51,0
332.9869,333.10568,60,68,0
333.10568,333.22446,64,55,0
333.22446,333.34323,67,55,0
333.34323,333.4611,55,69,0
333.4611,333.57895,59,57,0
333.57895,333.6968,67,58,0
333.6968,333.81512,60,79,0
333.81512,333.93344,64,59,0
333.93344,334.05176,67,59,0
334.05176,334.17007,60,66,0
334.17007,334.2884,64,55,0
334.2884,334.4067,67,55,0
334.4067,334.52548,60,67,0
334.52548,334.64426,64,55,0
334.64426,334.763,67,54,0
334.763,334.8809,55,70,0
334.8809,334.99875,59,58,0
334.99875,335.1166,67,56,0
335.1166,335.23492,60,79,0
335.23492,335.35324,64,60,0
335.35324,335.47156,67,58,0
335.47156,335.58987,60,74,0
335.58987,335.7082,64,59,0
335.7082,335.82648,67,60,0
335.82648,335.94525,60,71,0
335.94525,336.06403,64,59,0
336.06403,336.1828,67,59,0
336.1828,336.30066,55,75,0
336.30066,336.41852,59,60,0
336.41852,336.5364,67,60,0
336.5364,336.65472,60,74,0
336.65472,336.773,64,55,0
336.773,336.89133,67,55,0
336.89133,337.00964,60,74,0
337.00964,337.12796,64,57,0
337.12796,337.24628,67,57,0
337.24628,337.36505,60,74,0
337.36505,337.48383,64,57,0
337.48383,337.6026,67,57,0
337.6026,337.72046,55,74,0
337.72046,337.83832,59,62,0
337.83832,337.95618,67,62,0
337.95618,338.0745,60,70,0
338.0745,338.1928,64,41,0
338.1928,338.31113,67,41,0
338.31113,338.42944,60,49,0
338.42944,338.54776,64,37,0
338.54776,338.66608,67,36,0
338.66608,338.78485,60,45,0
338.78485,338.90363,64,34,0
338.90363,339.0224,67,34,0
339.0224,339.14026,55,41,0
339.14026,339.25812,59,34,0
339.25812,339.37598,67,34,0
339.37598,339.4943,60,47,0
339.4943,339.6126,64,35,0
339.6126,339.73093,67,35,0
339.73093,339.84924,60,39,0
339.84924,339.96756,64,33,0
339.96756,340.08588,67,33,0
340.08588,340.20465,60,40,0
340.20465,340.32343,64,33,0
340.32343,340.4422,67,33,0
340.4422,340.56006,55,42,0
340.56006,340.67792,59,34,0
340.67792,340.79578,67,34,0
340.79578,340.9141,60,47,0
340.9141,341.0324,64,36,0
341.0324,341.15073,67,34,0
341.15073,341.26904,60,44,0
341.26904,341.38736,64,35,0
341.38736,341.50568,67,36,0
341.50568,341.62445,60,42,0
341.62445,341.74323,64,35,0
341.74323,341.86197,67,35,0
341.86197,341.97986,55,45,0
341.97986,342.09772,59,36,0
342.09772,342.21558,67,36,0
342.21558,342.3339,60,44,0
342.3339,342.4522,64,33,0
342.4522,342.57053,67,33,0
342.57053,342.68884,60,44,0
342.68884,342.80716,64,34,0
342.80716,342.92548,67,34,0
342.92548,343.04422,60,44,0
343.04422,343.163,64,34,0
343.163,343.28177,67,34,0
343.28177,343.39963,55,44,0
343.39963,343.51752,59,37,0
343.51752,343.63538,67,37,0
343.63538,343.7537,60,62,0
343.7537,343.872,64,44,0
343.872,343.9903,67,47,0
343.9903,344.10934,60,65,0
344.10934,344.2284,64,50,0
344.2284,344.34744,67,54,0
344.34744,344.4651,60,69,0
344.4651,344.58273,64,56,0
344.58273,344.7004,67,56,0
344.7004,344.81805,60,69,0
344.81805,344.9357,64,58,0
344.9357,345.05334,67,58,0
345.05334,345.17166,60,70,0
345.17166,345.28998,64,56,0
345.28998,345.4083,67,56,0
345.4083,345.52798,60,67,0
345.52798,345.64774,64,52,0
345.64774,345.79648,67,52,0
345.79648,345.91876,60,68,0
345.91876,346.04105,64,52,0
346.04105,346.1637,67,52,0
346.1637,346.2905,60,66,0
346.2905,346.4207,64,52,0
346.4207,346.61487,67,52,0
346.61487,347.06943,60,82,0
