start_time,end_time,note_value,velocity,instrument_program_number
1.170885,1.5151057,63,72,0
1.5151057,1.629846,60,66,0
1.629846,1.9740667,68,72,0
1.9740667,2.088807,68,65,0
2.088807,2.146177,68,72,0
2.146177,2.2035472,70,62,0
2.2035472,2.2609174,68,72,0
2.2609174,2.3182876,70,58,0
2.3182876,2.3565342,68,69,0
2.3565342,2.394781,70,59,0
2.394781,2.4330277,68,69,0
2.4330277,2.490398,67,65,0
2.490398,2.547768,68,58,0
2.547768,3.006729,70,72,0
3.006729,3.3509498,63,72,0
3.3509498,3.472417,75,68,0
3.472417,4.386077,73,82,0
4.386077,4.5573883,72,72,0
4.842907,5.1855297,68,49,0
5.1855297,5.305472,77,44,0
5.305472,6.219132,75,55,0
6.219132,6.3904433,73,49,0
6.675962,7.0185847,63,72,0
7.0185847,7.132792,75,68,0
7.132792,8.046452,73,82,0
8.046452,8.221959,72,72,0
8.514471,8.855717,80,81,0
8.855717,8.969465,72,68,0
8.969465,9.310711,70,79,0
9.310711,9.424459,70,65,0
9.424459,9.481333,70,72,0
9.481333,9.538207,72,62,0
9.538207,9.595081,70,72,0
9.595081,9.651956,72,58,0
9.651956,9.689872,70,69,0
9.689872,9.727788,72,59,0
9.727788,9.765704,70,69,0
9.765704,9.822578,69,65,0
9.822578,9.879453,70,58,0
9.879453,10.220698,73,78,0
10.220698,10.334447,70,71,0
10.334447,10.678431,67,79,0
10.678431,10.799898,63,72,0
10.799898,11.141144,68,81,0
12.16488,12.506125,63,72,0
12.506125,12.619874,60,66,0
12.619874,12.96112,68,72,0
12.96112,13.074868,68,65,0
13.074868,13.1317425,68,72,0
13.1317425,13.188617,70,62,0
13.188617,13.245491,68,72,0
13.245491,13.302365,70,58,0
13.302365,13.3402815,68,69,0
13.3402815,13.378198,70,59,0
13.378198,13.416114,68,69,0
13.416114,13.472988,67,65,0
13.472988,13.529862,68,58,0
13.529862,13.997881,70,72,0
13.997881,14.341865,63,72,0
14.341865,14.462813,75,68,0
14.462813,15.383765,73,82,0
15.383765,15.556443,72,72,0
15.844241,16.182816,68,76,0
16.182816,16.302252,80,69,0
16.302252,16.762728,79,79,0
16.762728,16.87603,77,68,0
17.102633,17.223076,80,78,0
17.223076,17.683552,77,73,0
17.683552,17.795961,75,76,0
18.020782,18.140219,80,69,0
18.140219,18.600695,75,79,0
18.600695,18.713552,73,68,0
18.939268,19.06125,80,78,0
19.06125,19.521727,73,73,0
19.521727,19.634136,72,76,0
19.858955,19.978899,80,69,0
19.978899,20.324255,72,74,0
20.324255,20.439375,70,66,0
20.439375,20.78473,73,73,0
20.78473,20.89985,77,66,0
20.89985,21.365942,75,76,0
21.365942,21.819498,67,69,0
21.819498,21.849735,67,46,0
21.849735,21.963175,68,73,0
22.275131,22.30349,67,53,0
22.30349,22.415657,68,73,0
22.724113,22.752155,67,55,0
22.752155,22.864565,68,73,0
23.169664,23.197191,69,55,0
23.197191,23.307299,70,79,0
23.652077,24.122002,71,76,0
24.122002,24.578833,72,69,0
25.471806,25.502172,71,46,0
24.578833,25.502172,68,61,0
25.502172,25.616379,72,73,0
25.93045,25.959002,71,53,0
25.959002,26.070335,72,73,0
26.376503,26.404337,71,55,0
26.404337,26.514042,72,73,0
26.843157,26.952864,75,79,0
26.952864,27.062569,73,71,0
27.062569,27.176716,72,76,0
27.176716,27.299747,73,69,0
27.299747,28.20616,75,79,0
28.20616,29.112572,72,68,0
29.112572,29.560467,80,92,0
29.560467,29.706345,80,85,0
29.706345,29.852224,84,72,0
29.852224,29.998102,87,72,0
29.998102,30.900969,78,82,0
30.900969,31.340271,77,92,0
31.340271,31.484499,77,85,0
31.484499,31.628727,82,72,0
31.628727,31.772953,85,72,0
31.772953,32.44404,75,82,0
32.44404,32.553864,77,75,0
32.553864,32.66369,79,82,0
32.66369,33.111584,80,94,0
33.111584,33.257465,80,81,0
33.257465,33.403343,82,72,0
33.403343,33.54922,84,66,0
33.54922,34.45403,73,84,0
34.45403,34.60691,72,81,0
34.60691,34.759792,75,71,0
34.759792,34.912674,73,71,0
34.912674,35.065556,72,66,0
35.065556,35.21234,84,78,0
35.21234,35.359188,82,71,0
35.359188,35.50662,80,71,0
35.50662,35.654636,79,78,0
35.654636,35.803265,77,68,0
35.803265,35.95249,75,79,0
35.95249,36.10232,73,71,0
36.10232,36.252773,72,71,0
36.252773,36.60814,75,81,0
36.60814,36.726597,72,58,0
36.726597,37.081963,70,70,0
37.65906,38.003044,70,72,0
38.003044,38.117706,67,66,0
38.117706,38.452328,75,72,0
38.452328,38.56387,75,65,0
38.56387,38.62097,75,72,0
38.62097,38.678078,77,62,0
38.678078,38.73518,75,72,0
38.73518,38.792286,77,58,0
38.792286,38.830353,75,69,0
38.830353,38.868423,77,59,0
38.868423,38.90649,75,69,0
38.90649,38.963596,74,65,0
38.963596,39.0207,75,58,0
39.0207,39.249115,77,72,0
39.477528,39.821514,74,72,0
39.821514,39.936172,70,66,0
39.936172,40.270798,77,72,0
40.270798,40.382336,77,65,0
40.382336,40.43944,77,72,0
40.43944,40.496544,79,62,0
40.496544,40.55365,77,72,0
40.55365,40.610752,79,58,0
40.610752,40.648823,77,69,0
40.648823,40.68689,79,59,0
40.68689,40.72496,77,69,0
40.72496,40.782063,75,65,0
40.782063,40.83917,77,58,0
40.83917,41.17379,79,72,0
41.17379,41.28533,79,65,0
41.28533,41.342434,79,73,0
41.342434,41.399536,80,63,0
41.399536,41.456642,79,73,0
41.456642,41.513744,80,59,0
41.513744,41.551815,79,71,0
41.551815,41.58988,80,60,0
41.58988,41.627953,79,72,0
41.627953,41.685055,77,68,0
41.685055,41.74216,79,60,0
41.74216,42.076782,80,76,0
42.076782,42.188324,80,69,0
42.188324,42.245426,80,78,0
42.245426,42.302532,82,66,0
42.302532,42.359634,80,78,0
42.359634,42.416737,82,63,0
42.416737,42.454807,80,75,0
42.454807,42.492878,82,65,0
42.492878,42.530945,80,76,0
42.530945,42.58805,79,71,0
42.58805,42.645153,80,63,0
42.645153,42.979774,82,81,0
42.979774,43.091316,82,73,0
43.091316,43.14842,82,82,0
43.14842,43.205524,84,71,0
43.205524,43.262627,82,82,0
43.262627,43.319733,84,66,0
43.319733,43.3578,82,79,0
43.3578,43.39587,84,68,0
43.39587,43.433937,82,81,0
43.433937,43.491043,80,75,0
43.491043,43.548145,82,66,0
43.548145,44.918636,84,85,0
44.918636,45.375465,76,79,0
45.375465,45.528347,77,81,0
45.528347,45.68123,80,71,0
45.68123,45.83411,79,71,0
45.83411,45.98699,77,66,0
45.98699,46.133778,84,77,0
46.133778,46.280624,82,69,0
46.280624,46.428055,80,69,0
46.428055,46.576073,79,65,0
46.576073,46.7247,77,64,0
46.7247,46.873928,75,73,0
46.873928,47.023758,74,66,0
47.023758,47.17421,72,65,0
47.17421,48.5447,82,85,0
48.5447,49.00153,74,79,0
49.00153,49.15441,75,81,0
49.15441,49.307293,79,71,0
49.307293,49.460175,77,71,0
49.460175,49.613056,75,66,0
49.613056,49.759842,82,78,0
49.759842,49.90669,80,70,0
49.90669,50.05412,79,70,0
50.05412,50.202137,77,66,0
50.202137,50.350765,75,66,0
50.350765,50.499992,74,77,0
50.499992,50.649822,72,70,0
50.649822,50.800274,70,65,0
50.800274,52.170765,80,85,0
52.170765,52.320644,79,76,0
52.320644,52.470524,77,68,0
52.470524,52.612236,75,58,0
52.63248,52.86649,75,72,0
52.86649,53.081,74,58,0
53.100502,54.030876,74,62,0
54.030876,54.50272,75,72,0
54.50272,54.655,77,85,0
54.655,54.807274,79,72,0
54.807274,54.940517,80,66,0
54.959553,55.87321,80,85,0
55.87321,56.02309,79,76,0
56.02309,56.17297,77,68,0
56.17297,56.314682,75,58,0
56.334927,56.568935,75,72,0
56.568935,56.783447,74,58,0
56.802948,57.733322,74,62,0
57.733322,58.205166,75,72,0
58.205166,58.357445,77,85,0
58.357445,58.50972,79,72,0
58.50972,58.642963,80,66,0
58.662,59.575657,80,85,0
59.575657,60.037373,79,76,0
60.037373,60.190254,77,66,0
60.190254,60.33704,84,81,0
60.33704,60.483887,82,73,0
60.483887,60.631317,80,73,0
60.631317,60.779335,79,69,0
60.779335,60.927963,77,64,0
60.927963,61.38661,75,79,0
61.38661,61.864353,74,60,0
61.864353,62.848606,74,68,0
62.848606,63.340733,75,50,0
63.832855,64.915215,56,68,0
64.915215,65.06533,60,65,0
65.06533,65.21545,58,56,0
65.21545,65.28912,56,66,0
65.3628,65.43647,56,58,0
65.51015,65.594894,56,58,0
65.67964,66.76365,56,68,0
66.76365,66.915474,65,65,0
66.915474,67.0673,62,56,0
67.0673,67.141525,56,66,0
67.215744,67.28997,56,58,0
67.36419,67.44858,56,58,0
67.53297,67.68422,55,60,0
67.68422,67.83547,58,49,0
67.83547,67.911095,63,49,0
67.986725,68.05959,63,56,0
68.13246,68.20533,63,49,0
68.278206,68.36103,63,49,0
68.44386,68.595116,62,60,0
68.595116,68.74637,65,49,0
68.74637,68.82199,68,49,0
68.89762,68.97049,68,56,0
69.04336,69.11623,68,49,0
69.1891,69.27193,68,49,0
69.35476,69.507164,67,69,0
69.507164,69.65899,70,56,0
69.65899,69.7349,75,56,0
69.810814,69.88395,75,63,0
69.957085,70.03023,75,56,0
70.10336,70.18619,75,56,0
70.26902,70.420845,74,75,0
70.420845,70.57325,77,61,0
70.57325,70.64945,80,61,0
70.725655,70.79879,80,68,0
70.871925,70.94507,80,61,0
71.0182,71.10103,80,61,0
71.18386,71.34106,79,78,0
71.34106,71.49755,80,70,0
71.49755,71.64861,82,60,0
71.64861,71.80024,80,69,0
71.80024,71.95292,79,66,0
71.95292,72.10655,77,66,0
72.10655,72.2611,75,69,0
72.2611,72.416756,74,62,0
72.416756,72.57351,72,60,0
72.57351,72.73111,70,69,0
72.73111,72.889854,68,62,0
72.889854,73.049736,67,62,0
73.049736,73.77406,65,68,0
73.77406,74.01555,72,52,0
74.01555,74.49853,63,59,0
74.49853,74.99757,62,52,0
74.99757,76.33394,75,81,0
76.33394,76.80408,74,62,0
76.33394,76.80408,77,73,0
76.80408,78.143715,75,68,0
76.80408,78.143715,79,81,0
78.143715,78.61232,77,62,0
78.143715,78.61232,80,73,0
78.61232,78.767685,82,73,0
78.61232,78.767685,79,62,0
78.767685,78.92185,77,55,0
78.767685,78.92185,80,65,0
78.92185,79.07601,79,55,0
78.92185,79.07601,82,65,0
79.07601,79.227844,84,72,0
79.07601,79.227844,80,61,0
79.227844,79.37967,82,64,0
79.227844,79.37967,79,54,0
79.37967,79.531494,80,64,0
79.37967,79.531494,77,54,0
79.531494,80.00494,75,59,0
79.531494,80.00494,79,70,0
80.00494,80.49783,74,55,0
80.00494,80.49783,77,65,0
80.49783,81.84232,75,81,0
81.84232,82.31855,74,62,0
81.84232,82.31855,77,73,0
82.31855,83.655685,75,68,0
82.31855,83.655685,79,81,0
83.655685,84.13038,77,62,0
83.655685,84.13038,80,73,0
84.13038,84.28574,82,73,0
84.13038,84.28574,79,62,0
84.28574,84.4399,77,55,0
84.28574,84.4399,80,65,0
84.4399,84.59407,79,55,0
84.4399,84.59407,82,65,0
84.59407,84.745895,84,72,0
84.59407,84.745895,80,61,0
84.745895,84.89773,82,64,0
84.745895,84.89773,79,54,0
84.89773,85.04955,80,64,0
84.89773,85.04955,77,54,0
85.04955,85.522995,75,59,0
85.04955,85.522995,79,70,0
85.522995,86.01589,74,55,0
85.522995,86.01589,77,65,0
86.01589,87.336,75,60,0
87.336,87.39294,79,68,0
87.39294,87.86639,77,54,0
87.86639,88.33247,75,60,0
88.33247,88.78796,75,54,0
88.78796,89.24343,75,54,0
89.24343,89.36179,80,58,0
89.36179,89.71687,77,52,0
89.71687,90.18297,82,58,0
90.18297,90.63844,82,53,0
90.63844,91.093925,82,52,0
91.093925,91.21229,80,57,0
91.21229,91.56737,77,51,0
91.56737,92.88748,75,57,0
92.88748,92.94441,79,60,0
92.94441,93.41786,77,50,0
93.41786,93.88396,75,55,0
93.88396,94.33943,75,50,0
94.33943,94.79491,75,50,0
94.79491,94.91327,80,54,0
94.91327,95.26836,77,49,0
95.26836,95.73445,82,54,0
95.73445,96.189926,82,49,0
96.189926,96.6454,82,48,0
96.6454,96.76376,80,53,0
96.76376,97.11885,77,48,0
97.11885,98.44771,75,52,0
98.44771,98.50486,79,50,0
98.50486,98.99776,77,41,0
98.99776,99.476875,75,48,0
99.476875,99.95599,82,43,0
99.476875,99.95599,79,36,0
99.95599,100.46563,82,43,0
99.95599,100.46563,79,36,0
102.504196,102.84842,63,72,0
102.84842,102.96316,60,66,0
102.96316,103.30738,68,72,0
103.30738,103.42212,68,65,0
103.42212,103.47949,68,72,0
103.47949,103.53686,70,62,0
103.53686,103.59423,68,72,0
103.59423,103.651596,70,58,0
103.651596,103.68985,68,69,0
103.68985,103.728096,70,59,0
103.728096,103.76634,68,69,0
103.76634,103.82371,67,65,0
103.82371,103.88108,68,58,0
103.88108,104.34004,70,72,0
104.34004,104.684265,63,72,0
104.684265,104.80573,75,68,0
104.80573,105.71939,73,82,0
105.71939,105.8907,72,72,0
106.176216,106.518845,68,49,0
106.518845,106.63879,77,44,0
106.63879,107.552444,75,55,0
107.552444,107.723755,73,49,0
108.00928,108.3519,63,72,0
108.3519,108.4661,75,68,0
108.4661,109.37976,73,82,0
109.37976,109.55527,72,72,0
109.847786,110.189026,80,81,0
110.189026,110.30278,72,68,0
110.30278,110.64402,70,79,0
110.64402,110.757774,70,65,0
110.757774,110.814644,70,72,0
110.814644,110.87152,72,62,0
110.87152,110.92839,70,72,0
110.92839,110.98527,72,58,0
110.98527,111.023186,70,69,0
111.023186,111.061104,72,59,0
111.061104,111.099014,70,69,0
111.099014,111.15589,69,65,0
111.15589,111.21277,70,58,0
111.21277,111.55401,73,78,0
111.55401,111.66776,70,71,0
111.66776,112.01174,67,79,0
112.01174,112.13321,63,72,0
112.13321,112.47446,68,81,0
113.49819,113.83944,63,72,0
113.83944,113.953186,60,66,0
113.953186,114.29443,68,72,0
114.29443,114.40818,68,65,0
114.40818,114.46506,68,72,0
114.46506,114.52193,70,62,0
114.52193,114.578804,68,72,0
114.578804,114.63567,70,58,0
114.63567,114.67359,68,69,0
114.67359,114.71151,70,59,0
114.71151,114.74943,68,69,0
114.74943,114.8063,67,65,0
114.8063,114.863174,68,58,0
114.863174,115.33119,70,72,0
115.33119,115.67518,63,72,0
115.67518,115.79613,75,68,0
115.79613,116.71708,73,82,0
116.71708,116.889755,72,72,0
117.17755,117.51613,68,76,0
117.51613,117.63557,80,69,0
117.63557,118.09604,79,79,0
118.09604,118.20934,77,68,0
118.43594,118.55639,80,78,0
118.55639,119.01686,77,73,0
119.01686,119.12927,75,76,0
119.354095,119.47353,80,69,0
119.47353,119.934006,75,79,0
119.934006,120.04687,73,68,0
120.27258,120.39456,80,78,0
120.39456,120.85504,73,73,0
120.85504,120.967445,72,76,0
121.19227,121.31221,80,69,0
121.31221,121.65757,72,74,0
121.65757,121.77269,70,66,0
121.77269,122.11804,73,73,0
122.11804,122.23316,77,66,0
122.23316,122.69926,75,76,0
122.69926,123.15281,67,69,0
123.15281,123.183044,67,46,0
123.183044,123.296486,68,73,0
123.608444,123.6368,67,53,0
123.6368,123.74897,68,73,0
124.05743,124.085464,67,55,0
124.085464,124.197876,68,73,0
124.502975,124.5305,69,55,0
124.5305,124.64061,70,79,0
124.98539,125.455315,71,76,0
125.455315,125.91215,72,69,0
126.805115,126.83548,71,46,0
125.91215,126.83548,68,61,0
126.83548,126.94969,72,73,0
127.26376,127.29231,71,53,0
127.29231,127.40365,72,73,0
127.709816,127.73765,71,55,0
127.73765,127.84735,72,73,0
128.17647,128.28618,75,79,0
128.28618,128.39587,73,71,0
128.39587,128.51003,72,76,0
128.51003,128.63306,73,69,0
128.63306,129.53947,75,79,0
129.53947,130.44588,72,68,0
130.44588,130.89378,80,92,0
130.89378,131.03966,80,85,0
131.03966,131.18553,84,72,0
131.18553,131.33142,87,72,0
131.33142,132.23428,78,82,0
132.23428,132.67358,77,92,0
132.67358,132.81781,77,85,0
132.81781,132.96204,82,72,0
132.96204,133.10626,85,72,0
133.10626,133.77734,75,82,0
133.77734,133.88718,77,75,0
133.88718,133.99701,79,82,0
133.99701,134.4449,80,94,0
134.4449,134.59077,80,81,0
134.59077,134.73665,82,72,0
134.73665,134.88254,84,66,0
134.88254,135.78734,73,84,0
135.78734,135.94022,72,81,0
135.94022,136.09311,75,71,0
136.09311,136.24599,73,71,0
136.24599,136.39886,72,66,0
136.39886,136.54565,84,78,0
136.54565,136.6925,82,71,0
136.6925,136.83994,80,71,0
136.83994,136.98795,79,78,0
136.98795,137.13658,77,68,0
137.13658,137.2858,75,79,0
137.2858,137.43564,73,71,0
137.43564,137.58609,72,71,0
137.58609,137.94145,75,81,0
137.94145,138.0599,72,58,0
138.0599,138.41527,70,70,0
138.99237,139.33635,70,72,0
139.33635,139.45102,67,66,0
139.45102,139.78564,75,72,0
139.78564,139.89719,75,65,0
139.89719,139.95428,75,72,0
139.95428,140.01138,77,62,0
140.01138,140.0685,75,72,0
140.0685,140.1256,77,58,0
140.1256,140.16367,75,69,0
140.16367,140.20174,77,59,0
140.20174,140.2398,75,69,0
140.2398,140.2969,74,65,0
140.2969,140.354,75,58,0
140.354,140.58243,77,72,0
140.81084,141.15483,74,72,0
141.15483,141.26949,70,66,0
141.26949,141.60411,77,72,0
141.60411,141.71565,77,65,0
141.71565,141.77275,77,72,0
141.77275,141.82985,79,62,0
141.82985,141.88696,77,72,0
141.88696,141.94406,79,58,0
141.94406,141.98213,77,69,0
141.98213,142.0202,79,59,0
142.0202,142.05827,77,69,0
142.05827,142.11537,75,65,0
142.11537,142.17249,77,58,0
142.17249,142.5071,79,72,0
142.5071,142.61864,79,65,0
142.61864,142.67575,79,73,0
142.67575,142.73285,80,63,0
142.73285,142.78995,79,73,0
142.78995,142.84706,80,59,0
142.84706,142.88513,79,71,0
142.88513,142.9232,80,60,0
142.9232,142.96126,79,72,0
142.96126,143.01837,77,68,0
143.01837,143.07547,79,60,0
143.07547,143.4101,80,76,0
143.4101,143.52164,80,69,0
143.52164,143.57874,80,78,0
143.57874,143.63585,82,66,0
143.63585,143.69295,80,78,0
143.69295,143.75005,82,63,0
143.75005,143.78812,80,75,0
143.78812,143.82619,82,65,0
143.82619,143.86426,80,76,0
143.86426,143.92136,79,71,0
143.92136,143.97847,80,63,0
143.97847,144.31308,82,81,0
144.31308,144.42462,82,73,0
144.42462,144.48174,82,82,0
144.48174,144.53883,84,71,0
144.53883,144.59593,82,82,0
144.59593,144.65305,84,66,0
144.65305,144.69112,82,79,0
144.69112,144.72919,84,68,0
144.72919,144.76726,82,81,0
144.76726,144.82436,80,75,0
144.82436,144.88145,82,66,0
144.88145,146.25195,84,85,0
146.25195,146.70877,76,79,0
146.70877,146.86166,77,81,0
146.86166,147.01454,80,71,0
147.01454,147.16742,79,71,0
147.16742,147.3203,77,66,0
147.3203,147.46709,84,77,0
147.46709,147.61394,82,69,0
147.61394,147.76137,80,69,0
147.76137,147.9094,79,65,0
147.9094,148.05801,77,64,0
148.05801,148.20724,75,73,0
148.20724,148.35707,74,66,0
148.35707,148.50752,72,65,0
148.50752,149.878,82,85,0
149.878,150.33484,74,79,0
150.33484,150.48772,75,81,0
150.48772,150.64061,79,71,0
150.64061,150.79349,77,71,0
150.79349,150.94637,75,66,0
150.94637,151.09315,82,78,0
151.09315,151.24,80,70,0
151.24,151.38744,79,70,0
151.38744,151.53545,77,66,0
151.53545,151.68408,75,66,0
151.68408,151.8333,74,77,0
151.8333,151.98314,72,70,0
151.98314,152.13359,70,65,0
152.13359,153.50407,80,85,0
153.50407,153.65396,79,76,0
153.65396,153.80383,77,68,0
153.80383,153.94554,75,58,0
153.96579,154.1998,75,72,0
154.1998,154.4143,74,58,0
154.4338,155.36418,74,62,0
155.36418,155.83603,75,72,0
155.83603,155.98831,77,85,0
155.98831,156.14058,79,72,0
156.14058,156.27383,80,66,0
156.29286,157.20653,80,85,0
157.20653,157.3564,79,76,0
157.3564,157.50629,77,68,0
157.50629,157.648,75,58,0
157.66824,157.90225,75,72,0
157.90225,158.11676,74,58,0
158.13626,159.06664,74,62,0
159.06664,159.53848,75,72,0
159.53848,159.69075,77,85,0
159.69075,159.84303,79,72,0
159.84303,159.97627,80,66,0
159.99532,160.90897,80,85,0
160.90897,161.37068,79,76,0
161.37068,161.52357,77,66,0
161.52357,161.67035,84,81,0
161.67035,161.8172,82,73,0
161.8172,161.96463,80,73,0
161.96463,162.11266,79,69,0
162.11266,162.26128,77,64,0
162.26128,162.71992,75,79,0
162.71992,163.19766,74,60,0
163.19766,164.18192,74,68,0
164.18192,164.67404,75,50,0
165.16617,166.24852,56,68,0
166.24852,166.39864,60,65,0
166.39864,166.54875,58,56,0
166.54875,166.62244,56,66,0
166.6961,166.76979,56,58,0
166.84346,166.9282,56,58,0
167.01295,168.09695,56,68,0
168.09695,168.2488,65,65,0
168.2488,168.40062,62,56,0
168.40062,168.47484,56,66,0
168.54906,168.62328,56,58,0
168.69751,168.78189,56,58,0
168.86627,169.01753,55,60,0
169.01753,169.16878,58,49,0
169.16878,169.24442,63,49,0
169.32004,169.3929,63,56,0
169.46577,169.53865,63,49,0
169.61151,169.69435,63,49,0
169.77718,169.92842,62,60,0
169.92842,170.07968,65,49,0
170.07968,170.1553,68,49,0
170.23093,170.3038,68,56,0
170.37666,170.44954,68,49,0
170.52242,170.60524,68,49,0
170.68806,170.84047,67,69,0
170.84047,170.9923,70,56,0
170.9923,171.0682,75,56,0
171.14412,171.21727,75,63,0
171.2904,171.36354,75,56,0
171.43668,171.5195,75,56,0
171.60233,171.75415,74,69,0
171.75415,171.90656,77,56,0
171.90656,171.98276,80,56,0
172.05896,172.13211,80,69,0
172.20525,172.27838,80,56,0
172.35152,172.43434,80,56,0
172.51717,172.67436,79,79,0
172.67436,172.83086,80,70,0
172.83086,172.98192,82,60,0
172.98192,173.13354,80,69,0
173.13354,173.28624,79,66,0
173.28624,173.43987,77,66,0
173.43987,173.59442,75,69,0
173.59442,173.75008,74,62,0
173.75008,173.90681,72,60,0
173.90681,174.06442,70,69,0
174.06442,174.22316,68,62,0
174.22316,174.38304,67,62,0
174.38304,175.10738,65,68,0
175.10738,175.34886,72,52,0
175.34886,175.83183,63,59,0
175.83183,176.33089,62,52,0
176.33089,177.66725,75,81,0
177.66725,178.13739,74,62,0
177.66725,178.13739,77,73,0
178.13739,179.47702,75,68,0
178.13739,179.47702,79,81,0
179.47702,179.94563,77,62,0
179.47702,179.94563,80,73,0
179.94563,180.101,82,73,0
179.94563,180.101,79,62,0
180.101,180.25516,77,55,0
180.101,180.25516,80,65,0
180.25516,180.40933,79,55,0
180.25516,180.40933,82,65,0
180.40933,180.56116,84,72,0
180.40933,180.56116,80,61,0
180.56116,180.71298,82,64,0
180.56116,180.71298,79,54,0
180.71298,180.8648,80,64,0
180.71298,180.8648,77,54,0
180.8648,181.33826,75,59,0
180.8648,181.33826,79,70,0
181.33826,181.83115,74,55,0
181.33826,181.83115,77,65,0
181.83115,183.17564,75,81,0
183.17564,183.65186,74,62,0
183.17564,183.65186,77,73,0
183.65186,184.989,75,68,0
183.65186,184.989,79,81,0
184.989,185.46368,77,62,0
184.989,185.46368,80,73,0
185.46368,185.61905,82,73,0
185.46368,185.61905,79,62,0
185.61905,185.77322,77,55,0
185.61905,185.77322,80,65,0
185.77322,185.92738,79,55,0
185.77322,185.92738,82,65,0
185.92738,186.07921,84,72,0
185.92738,186.07921,80,61,0
186.07921,186.23103,82,64,0
186.07921,186.23103,79,54,0
186.23103,186.38286,80,64,0
186.23103,186.38286,77,54,0
186.38286,186.85631,75,59,0
186.38286,186.85631,79,70,0
186.85631,187.3492,74,55,0
186.85631,187.3492,77,65,0
187.3492,188.66931,75,60,0
188.66931,188.72624,79,68,0
188.72624,189.19969,77,54,0
189.19969,189.66579,75,60,0
189.66579,190.12126,75,54,0
190.12126,190.57674,75,54,0
190.57674,190.6951,80,58,0
190.6951,191.05019,77,52,0
191.05019,191.51628,82,58,0
191.51628,191.97176,82,53,0
191.97176,192.42723,82,52,0
192.42723,192.5456,80,57,0
192.5456,192.90068,77,51,0
192.90068,194.2208,75,57,0
194.2208,194.27773,79,60,0
194.27773,194.75117,77,50,0
194.75117,195.21727,75,55,0
195.21727,195.67274,75,50,0
195.67274,196.12822,75,50,0
196.12822,196.24658,80,54,0
196.24658,196.60167,77,49,0
196.60167,197.06776,82,54,0
197.06776,197.52324,82,49,0
197.52324,197.97871,82,48,0
197.97871,198.09708,80,53,0
198.09708,198.45216,77,48,0
198.45216,199.78102,75,52,0
199.78102,199.83818,79,50,0
199.83818,200.33107,77,41,0
200.33107,200.81018,75,48,0
200.81018,201.2893,82,43,0
200.81018,201.2893,79,36,0
201.2893,201.79895,82,43,0
201.2893,201.79895,79,36,0
203.83751,204.18173,58,72,0
204.18173,204.29646,55,66,0
204.29646,204.64069,63,72,0
204.64069,204.75543,63,65,0
204.75543,204.8128,63,72,0
204.8128,204.87018,65,62,0
204.87018,204.92754,63,72,0
204.92754,204.98491,65,58,0
204.98491,205.02316,63,69,0
205.02316,205.0614,65,59,0
205.0614,205.09966,63,69,0
205.09966,205.15703,62,65,0
205.15703,205.21439,63,58,0
205.21439,205.67336,65,72,0
205.67336,206.01758,58,72,0
206.01758,206.13904,70,68,0
206.13904,207.0527,68,82,0
207.0527,207.22401,67,72,0
207.50954,207.85216,63,49,0
207.85216,207.97209,72,44,0
207.97209,208.88576,70,55,0
208.88576,209.05707,68,49,0
209.34259,209.68521,58,72,0
209.68521,209.79942,70,68,0
209.79942,210.71307,68,82,0
210.71307,210.88858,67,72,0
211.18109,211.52234,75,81,0
211.52234,211.6361,67,68,0
211.6361,211.97734,65,79,0
211.97734,212.0816,65,65,0
212.09108,212.14796,65,72,0
212.14796,212.20483,67,62,0
212.20483,212.2617,65,72,0
212.2617,212.31857,67,58,0
212.31857,212.35649,65,69,0
212.35649,212.39441,67,59,0
212.39441,212.43233,65,69,0
212.43233,212.4892,64,65,0
212.4892,212.54608,65,58,0
212.54608,212.88733,68,78,0
212.88733,213.00107,65,71,0
213.00107,213.34506,62,79,0
213.34506,213.46652,58,72,0
213.46652,213.80777,63,81,0
214.71776,214.8315,67,56,0
214.8315,215.17274,70,69,0
215.17274,215.2865,75,62,0
215.2865,215.6205,79,70,0
215.6205,215.73183,70,56,0
215.73183,216.06584,75,69,0
216.06584,216.17717,79,62,0
216.17717,216.51117,82,70,0
216.51117,216.6225,75,63,0
216.6225,216.9565,79,72,0
216.9565,217.07823,82,69,0
217.07823,217.98463,85,79,0
217.98463,218.04326,84,63,0
218.04326,218.10153,85,56,0
218.10153,218.15948,84,64,0
218.15948,218.21709,85,57,0
218.21709,218.27437,84,60,0
218.27437,218.33131,85,60,0
218.33131,218.38795,84,65,0
218.38795,218.44426,85,62,0
218.44426,218.51915,84,66,0
218.51915,218.59418,85,62,0
218.59418,218.66962,84,62,0
218.66962,218.8983,82,71,0
218.8983,219.35205,80,73,0
219.35205,219.80072,77,65,0
219.80072,220.24576,77,65,0
220.24576,220.71043,79,72,0
220.71043,221.18036,79,76,0
221.18036,221.63719,80,69,0
221.63719,222.56053,77,61,0
222.56053,223.02887,80,76,0
223.02887,223.49136,80,70,0
223.49136,223.83824,80,75,0
223.83824,223.94423,84,65,0
223.95387,224.01352,84,72,0
224.01352,224.07317,85,62,0
224.07317,224.13217,84,72,0
224.13217,224.19016,85,58,0
224.19016,224.22855,84,69,0
224.22855,224.26694,85,59,0
224.26694,224.30533,84,69,0
224.30533,224.36292,82,65,0
224.36292,224.42052,84,58,0
224.42052,225.34726,85,72,0
225.34726,226.2706,73,61,0
226.2706,226.72914,82,76,0
226.72914,227.18636,82,70,0
227.18636,227.64357,82,75,0
227.64357,227.70071,80,72,0
227.70071,227.75787,82,62,0
227.75787,227.81636,80,72,0
227.81636,227.87485,82,58,0
227.87485,227.91383,80,69,0
227.91383,227.95284,82,59,0
227.95284,227.99182,80,69,0
227.99182,228.05031,79,65,0
228.05031,228.1088,80,58,0
228.1088,229.03555,79,69,0
229.03555,229.9589,75,61,0
229.9589,230.4268,74,64,0
230.4268,230.88402,74,60,0
230.88402,231.22693,74,66,0
231.22693,231.33171,74,59,0
231.34123,231.39949,74,64,0
231.39949,231.45775,75,55,0
231.45775,231.51602,74,64,0
231.51602,231.57428,75,52,0
231.57428,231.61311,74,62,0
231.61311,231.65196,75,53,0
231.65196,231.6908,74,62,0
231.6908,231.74907,72,58,0
231.74907,231.80733,74,52,0
231.80733,232.27707,75,69,0
232.27707,232.73602,75,64,0
232.73602,233.08025,75,70,0
233.08025,233.18542,75,63,0
233.19499,233.25348,75,68,0
233.25348,233.31197,77,59,0
233.31197,233.37045,75,69,0
233.37045,233.42894,77,55,0
233.42894,233.46793,75,66,0
233.46793,233.50693,77,56,0
233.50693,233.54591,75,66,0
233.54591,233.6044,74,63,0
233.6044,233.6629,75,56,0
233.6629,234.12898,77,73,0
234.12607,234.12898,77,69,0
234.5862,234.92911,77,75,0
234.92625,234.92911,77,67,0
235.04341,235.10213,77,73,0
235.10213,235.16084,79,63,0
235.16084,235.21956,77,73,0
235.21956,235.27829,79,59,0
235.27829,235.31743,77,70,0
235.31743,235.35657,79,60,0
235.35657,235.39572,77,71,0
235.39572,235.45444,75,66,0
235.45444,235.51315,77,59,0
235.51315,235.97925,78,78,0
235.97925,236.43646,78,73,0
236.43646,236.77937,78,79,0
236.77937,236.88414,78,72,0
236.89368,236.9524,78,77,0
236.9524,237.01111,80,66,0
237.01111,237.06982,78,77,0
237.06982,237.12854,80,63,0
237.12854,237.1677,78,75,0
237.1677,237.20683,80,64,0
237.20683,237.24597,78,75,0
237.24597,237.3047,77,70,0
237.3047,237.36342,78,63,0
237.36342,237.8277,83,83,0
237.8277,238.28491,83,77,0
238.28491,238.62782,83,82,0
238.62782,238.7326,83,68,0
238.74213,238.8591,85,72,0
238.8591,238.97609,83,64,0
238.97609,239.09306,82,64,0
239.09306,239.21004,83,61,0
239.21004,239.67212,82,76,0
239.67212,240.1276,82,70,0
240.1276,240.58307,82,75,0
240.58307,240.6996,82,72,0
240.6996,240.81612,80,64,0
240.81612,240.93265,79,64,0
240.93265,241.04916,80,61,0
241.04916,241.97592,79,69,0
241.97592,242.89926,75,61,0
242.89926,243.36536,84,76,0
243.36536,243.82257,84,70,0
243.82257,244.27979,84,75,0
244.27979,244.39409,84,72,0
244.39409,244.5106,82,64,0
244.5106,244.62714,80,64,0
244.62714,244.74365,82,61,0
244.74365,244.89653,80,72,0
244.89653,245.04942,84,63,0
245.04942,245.2023,82,63,0
245.2023,245.35518,80,59,0
245.35518,245.50197,79,69,0
245.50197,245.6488,77,62,0
245.6488,245.79623,75,62,0
245.79623,245.94426,73,58,0
245.94426,246.09288,72,57,0
246.09288,246.24211,70,65,0
246.24211,246.39195,68,59,0
246.39195,246.5424,67,58,0
246.5424,246.69528,65,72,0
246.69528,246.84816,72,63,0
246.84816,247.00104,70,63,0
247.00104,247.15393,68,59,0
247.15393,247.3007,67,67,0
247.3007,247.44756,65,62,0
247.44756,247.59499,63,62,0
247.59499,247.74301,61,58,0
247.74301,247.89163,60,57,0
247.89163,248.04086,58,65,0
248.04086,248.19069,56,59,0
248.19069,248.34114,55,58,0
248.34114,248.79489,53,73,0
248.79489,249.24356,53,65,0
249.24356,249.6886,53,65,0
249.6886,250.15327,63,72,0
250.15327,250.21138,61,62,0
250.21138,250.26926,63,52,0
250.26926,250.32668,61,60,0
250.32668,250.38367,63,53,0
250.38367,250.44022,61,61,0
250.44022,250.49635,63,55,0
250.49635,250.55206,61,64,0
250.55206,250.60767,63,58,0
250.60767,250.68243,61,69,0
250.68243,250.75722,63,60,0
250.75722,250.83199,61,55,0
250.83199,251.05632,60,60,0
251.05165,251.49678,58,62,0
251.96603,252.4198,55,73,0
252.4198,252.86845,55,65,0
252.86845,253.31349,55,65,0
253.31349,253.77817,65,72,0
253.77817,253.92587,64,60,0
253.92587,254.07358,62,49,0
254.07358,254.14743,60,49,0
254.22127,254.29276,60,56,0
254.36423,254.4357,60,49,0
254.50717,254.59,60,49,0
254.67284,254.82053,67,60,0
254.82053,254.96823,65,49,0
254.96823,255.04208,64,49,0
255.11594,255.18767,64,56,0
255.2594,255.33112,64,49,0
255.40285,255.48569,64,49,0
255.56851,255.71677,70,65,0
255.71677,255.865,68,50,0
255.865,255.93913,67,50,0
256.01324,256.08524,67,61,0
256.15723,256.22922,67,54,0
256.3012,256.38403,67,54,0
256.46686,256.61264,79,66,0
256.61264,256.75708,77,63,0
256.75708,256.90323,76,56,0
256.90323,257.051,73,66,0
257.051,257.2006,72,60,0
257.2006,257.36624,70,57,0
257.36624,257.51395,68,71,0
257.51395,257.66165,72,55,0
257.66165,257.7355,77,55,0
257.80936,257.88107,77,71,0
257.95282,258.02454,77,57,0
258.09628,258.1791,77,57,0
258.26193,258.4091,76,78,0
258.4091,258.55624,79,67,0
258.55624,258.62982,82,67,0
258.7034,258.7754,82,76,0
258.84738,258.91937,82,62,0
258.99136,259.0742,82,63,0
259.157,259.30417,80,78,0
259.30417,259.45132,84,65,0
259.45132,259.5249,89,65,0
259.59848,259.67047,89,72,0
259.74246,259.81445,89,64,0
259.88644,259.96927,89,64,0
260.0521,260.1998,79,78,0
260.1998,260.3475,82,66,0
260.3475,260.42136,85,65,0
260.4952,260.56744,85,71,0
260.6397,260.71194,85,62,0
260.7842,260.86703,85,61,0
261.40472,261.58777,84,76,0
261.40472,261.58777,80,64,0
262.38104,262.84647,76,60,0
262.38104,262.84647,70,60,0
262.84647,263.3048,75,60,0
263.3048,263.76312,75,54,0
263.76312,264.22147,75,60,0
264.22147,264.70187,75,55,0
264.70187,265.61505,74,57,0
265.61505,266.54626,70,58,0
266.54626,267.01236,73,78,0
267.01236,267.46957,73,73,0
267.46957,267.5267,73,73,0
267.5267,267.58386,75,62,0
267.58386,267.64102,73,73,0
267.64102,267.69818,75,59,0
267.69818,267.73627,73,71,0
267.73627,267.77438,75,60,0
267.77438,267.81247,73,71,0
267.81247,267.86963,72,66,0
267.86963,267.9268,73,59,0
267.9268,268.16165,82,79,0
268.16165,268.3965,73,72,0
268.3965,268.8626,72,78,0
268.8626,269.31982,72,73,0
269.31982,269.37698,72,73,0
269.37698,269.4341,73,62,0
269.4341,269.49127,72,73,0
269.49127,269.54843,73,59,0
269.54843,269.58652,72,71,0
269.58652,269.62463,73,60,0
269.62463,269.66272,72,71,0
269.66272,269.71988,70,66,0
269.71988,269.77704,72,59,0
269.77704,270.0119,75,79,0
270.0119,270.24677,72,72,0
270.24677,270.71286,70,78,0
270.71286,271.17007,70,73,0
271.17007,271.22723,70,73,0
271.22723,271.2844,72,62,0
271.2844,271.34155,70,73,0
271.34155,271.39868,72,59,0
271.39868,271.4368,70,71,0
271.4368,271.47488,72,60,0
271.47488,271.513,70,71,0
271.513,271.57013,69,66,0
271.57013,271.6273,70,59,0
271.6273,271.86215,77,79,0
271.86215,272.09705,68,72,0
272.09705,272.2464,67,77,0
272.2464,272.39575,70,68,0
272.39575,272.5451,68,68,0
272.5451,272.695,67,66,0
272.695,272.8418,79,76,0
272.8418,272.98865,77,69,0
272.98865,273.13855,75,64,0
273.13855,273.28464,82,74,0
273.28464,273.43292,80,69,0
273.43292,273.58215,79,68,0
273.58215,273.732,77,66,0
273.732,273.88245,75,65,0
273.88245,274.0318,74,77,0
274.0318,274.18115,77,68,0
274.18115,274.3305,75,68,0
274.3305,274.4804,74,66,0
274.4804,274.6272,80,76,0
274.6272,274.77405,79,69,0
274.77405,274.92395,77,64,0
274.92395,275.07004,84,74,0
275.07004,275.21832,82,69,0
275.21832,275.36755,80,68,0
275.36755,275.5174,79,66,0
275.5174,275.67816,77,65,0
275.67816,275.91177,75,77,0
275.91177,276.14758,74,68,0
276.14758,276.3797,77,74,0
276.3797,276.6155,75,70,0
276.6155,276.84854,79,73,0
276.84854,277.08527,77,66,0
277.08527,277.3274,80,72,0
277.3274,277.5695,79,63,0
277.5695,277.8261,82,77,0
277.8261,278.09613,80,74,0
278.09613,278.6007,84,77,0
278.6007,279.10956,82,73,0
279.10956,279.6363,80,69,0
279.6363,280.17245,79,69,0
280.17245,280.7143,77,66,0
280.7143,281.27386,75,62,0
281.27386,281.91742,74,59,0
281.91742,283.29025,80,66,0
283.29025,283.57486,79,63,0
283.57486,283.85947,80,56,0
283.85947,284.14407,82,62,0
284.14407,284.4338,80,58,0
284.46017,286.1678,80,65,0
286.1678,286.77115,74,56,0
286.77115,286.8475,74,42,0
286.8475,286.92206,75,50,0
286.92206,286.99487,77,46,0
286.99487,287.066,75,50,0
287.066,287.1353,77,46,0
287.1353,287.20312,75,50,0
287.20312,287.26947,77,45,0
287.26947,287.3354,75,50,0
287.3354,287.40128,77,46,0
287.40128,287.46716,75,50,0
287.46716,287.53305,77,50,0
287.53305,287.59894,75,45,0
287.59894,287.79523,74,55,0
287.79523,288.07394,75,55,0
289.7831,290.12732,63,72,0
290.12732,290.24207,60,66,0
290.24207,290.58627,68,72,0
290.58627,290.70102,68,65,0
290.70102,290.7584,68,72,0
290.7584,290.81577,70,62,0
290.81577,290.87314,68,72,0
290.87314,290.9305,70,58,0
290.9305,290.96875,68,69,0
290.96875,291.007,70,59,0
291.007,291.04526,68,69,0
291.04526,291.1026,67,65,0
291.1026,291.15997,68,58,0
291.15997,291.61896,70,72,0
291.61896,291.96317,63,72,0
291.96317,292.08463,75,68,0
292.08463,292.9983,73,82,0
292.9983,293.16962,72,72,0
293.4551,293.79776,68,49,0
293.79776,293.9177,77,44,0
293.9177,294.83136,75,55,0
294.83136,295.00266,73,49,0
295.28818,295.6308,63,72,0
295.6308,295.745,75,68,0
295.745,296.65866,73,82,0
296.65866,296.83417,72,72,0
297.12668,297.46793,80,81,0
297.46793,297.5817,72,68,0
297.5817,297.9229,70,79,0
297.9229,298.03668,70,65,0
298.03668,298.09354,70,72,0
298.09354,298.15042,72,62,0
298.15042,298.2073,70,72,0
298.2073,298.26416,72,58,0
298.26416,298.3021,70,69,0
298.3021,298.34,72,59,0
298.34,298.37793,70,69,0
298.37793,298.43478,69,65,0
298.43478,298.49167,70,58,0
298.49167,298.83292,73,78,0
298.83292,298.94666,70,71,0
298.94666,299.29065,67,79,0
299.29065,299.4121,63,72,0
299.4121,299.75336,68,81,0
300.7771,301.11835,63,72,0
301.11835,301.2321,60,66,0
301.2321,301.57333,68,72,0
301.57333,301.68707,68,65,0
301.68707,301.74396,68,72,0
301.74396,301.80084,70,62,0
301.80084,301.8577,68,72,0
301.8577,301.91458,70,58,0
301.91458,301.95248,68,69,0
301.95248,301.99042,70,59,0
301.99042,302.02832,68,69,0
302.02832,302.0852,67,65,0
302.0852,302.1421,68,58,0
302.1421,302.6101,70,72,0
302.6101,302.95407,63,72,0
302.95407,303.07504,75,68,0
303.07504,303.99597,73,82,0
303.99597,304.16867,72,72,0
304.45645,304.79504,68,76,0
304.79504,304.91446,80,69,0
304.91446,305.37494,79,79,0
305.37494,305.48825,77,68,0
305.71484,305.8353,80,78,0
305.8353,306.29578,77,73,0
306.29578,306.40817,75,76,0
306.633,306.75244,80,69,0
306.75244,307.21292,75,79,0
307.21292,307.32578,73,68,0
307.55148,307.67346,80,78,0
307.67346,308.13394,73,73,0
308.13394,308.24634,72,76,0
308.47116,308.59113,80,69,0
308.59113,308.93646,72,74,0
308.93646,309.0516,70,66,0
309.0516,309.39694,73,73,0
309.39694,309.51205,77,66,0
309.51205,309.97815,75,76,0
309.97815,310.4317,67,69,0
310.4317,310.46194,67,46,0
310.46194,310.57538,68,73,0
310.88736,310.9157,67,53,0
310.9157,311.02786,68,73,0
311.33633,311.36438,67,55,0
311.36438,311.47678,68,73,0
311.7819,311.80942,69,55,0
311.80942,311.91953,70,79,0
312.26428,312.73422,71,76,0
312.73422,313.19104,72,69,0
314.084,314.11438,71,46,0
313.19104,314.11438,68,61,0
314.11438,314.2286,72,73,0
314.54266,314.57123,71,53,0
314.57123,314.68256,72,73,0
314.9887,315.01654,71,55,0
315.01654,315.12625,72,73,0
315.45538,315.5651,75,79,0
315.5651,315.67477,73,71,0
315.67477,315.78894,72,76,0
315.78894,315.91196,73,69,0
315.91196,316.8184,75,79,0
316.8184,317.7248,72,68,0
317.7248,318.16336,80,92,0
318.17267,318.31857,80,85,0
318.31857,318.46445,84,72,0
318.46445,318.61032,87,72,0
318.61032,319.51318,78,82,0
319.51318,319.94333,77,92,0
319.95248,320.0967,77,85,0
320.0967,320.24094,82,72,0
320.24094,320.38516,85,72,0
320.38516,321.05624,75,82,0
321.05624,321.16608,77,75,0
321.16608,321.2759,79,82,0
321.2759,321.71448,80,94,0
321.72382,321.8697,80,81,0
321.8697,322.01556,82,72,0
322.01556,322.16144,84,66,0
322.16144,323.06625,73,84,0
323.06625,323.21912,72,81,0
323.21912,323.372,75,71,0
323.372,323.5249,73,71,0
323.5249,323.67776,72,66,0
323.67776,323.82455,84,78,0
323.82455,323.9714,82,71,0
323.9714,324.11884,80,71,0
324.11884,324.26685,79,78,0
324.26685,324.41547,77,68,0
324.41547,324.5647,75,79,0
324.5647,324.71454,73,71,0
324.71454,324.865,72,71,0
324.865,325.22037,75,81,0
325.22037,325.3388,72,58,0
325.3388,326.04337,70,70,0
326.04337,326.27396,73,55,0
326.27396,326.50186,72,60,0
326.50186,326.7296,75,54,0
326.7296,326.95718,75,63,0
326.95718,327.17148,73,53,0
327.19098,328.12433,73,59,0
328.12433,328.27603,72,57,0
328.27603,328.42776,70,52,0
328.42776,328.57822,68,52,0
328.5997,328.8273,68,61,0
328.8273,329.0416,67,50,0
329.06107,329.99442,67,60,0
329.99442,330.4496,68,57,0
330.4496,330.60132,70,63,0
330.60132,330.7551,72,61,0
330.7551,330.89148,73,63,0
330.91095,331.8443,73,59,0
331.8443,331.99603,72,57,0
331.99603,332.14777,70,52,0
332.14777,332.2982,68,52,0
332.3197,332.54727,68,61,0
332.54727,332.7616,67,50,0
332.78107,333.71442,67,60,0
333.71442,334.1696,68,57,0
334.1696,334.3213,70,63,0
334.3213,334.4751,72,63,0
334.4751,334.61148,73,63,0
334.63095,335.5643,73,59,0
335.5643,336.03967,72,57,0
336.03967,336.19257,70,53,0
336.19257,336.33936,77,67,0
336.33936,336.4862,75,60,0
336.4862,336.63364,73,67,0
336.63364,336.78165,72,61,0
336.78165,336.93027,70,57,0
336.93027,337.38892,68,69,0
337.38892,337.86667,67,57,0
337.86667,338.0179,60,83,0
338.0179,338.16916,63,67,0
338.16916,338.24478,68,67,0
338.3204,338.39328,68,72,0
338.46616,338.53903,68,63,0
338.6119,338.69473,68,63,0
338.77756,338.9288,67,82,0
338.9288,339.08005,70,67,0
339.08005,339.1557,73,67,0
339.23132,339.30417,73,72,0
339.37704,339.44992,73,65,0
339.5228,339.60562,73,65,0
339.68845,339.84085,72,86,0
339.84085,339.99268,75,70,0
339.99268,340.0686,80,70,0
340.1445,340.21765,80,70,0
340.29077,340.36392,80,68,0
340.43704,340.5199,80,69,0
340.60272,340.75455,79,74,0
340.75455,340.90695,82,70,0
340.90695,340.98315,85,70,0
341.05936,341.13248,85,74,0
341.20563,341.27875,85,70,0
341.3519,341.43472,85,66,0
341.51755,341.67474,84,86,0
341.67474,341.83124,87,84,0
341.83124,341.9823,85,75,0
341.9823,342.13394,84,86,0
342.13394,342.28662,82,78,0
342.28662,342.44025,80,78,0
342.44025,342.5948,79,86,0
342.5948,342.75046,77,77,0
342.75046,342.9072,75,75,0
342.9072,343.0608,73,86,0
343.0608,343.21436,72,77,0
343.21436,343.36792,70,77,0
343.36792,343.52512,68,86,0
343.52512,343.6816,84,87,0
343.6816,343.83267,82,75,0
343.83267,343.9843,80,86,0
343.9843,344.137,79,82,0
344.137,344.29062,77,82,0
344.29062,344.44516,75,86,0
344.44516,344.60083,73,77,0
344.60083,344.75757,72,75,0
344.75757,344.91516,70,86,0
344.91516,345.0739,68,77,0
345.0739,345.2338,67,77,0
345.2338,345.59457,65,86,0
345.59457,345.71484,77,78,0
345.71484,346.07562,73,86,0
346.07562,346.1959,70,74,0
346.1959,346.6791,68,85,0
346.6791,346.74246,67,62,0
346.74246,346.80444,68,56,0
346.80444,346.86523,67,62,0
346.86523,346.92477,68,57,0
346.92477,346.98367,67,62,0
346.98367,347.04285,68,55,0
347.04285,347.1022,67,62,0
347.1022,347.18344,68,58,0
347.18344,347.34064,84,86,0
347.34064,347.49713,87,84,0
347.49713,347.6482,85,75,0
347.6482,347.79984,84,86,0
347.79984,347.9525,82,78,0
347.9525,348.10614,80,78,0
348.10614,348.26068,79,86,0
348.26068,348.41635,77,77,0
348.41635,348.5731,75,75,0
348.5731,348.72607,73,86,0
348.72607,348.87906,72,77,0
348.87906,349.03467,70,77,0
349.03467,349.19186,68,86,0
349.19186,349.34836,84,87,0
349.34836,349.49942,82,75,0
349.49942,349.65106,80,86,0
349.65106,349.80374,79,82,0
349.80374,349.95737,77,82,0
349.95737,350.1119,75,86,0
350.1119,350.26758,73,77,0
350.26758,350.42432,72,75,0
350.42432,350.5819,70,86,0
350.5819,350.74066,68,77,0
350.74066,350.90054,67,77,0
350.90054,351.26132,65,86,0
351.26132,351.3816,77,78,0
351.3816,351.74237,73,86,0
351.74237,351.86264,70,74,0
351.86264,352.34586,68,85,0
352.34586,352.4092,67,62,0
352.4092,352.4712,68,56,0
352.4712,352.53198,67,62,0
352.53198,352.59152,68,57,0
352.59152,352.65042,67,62,0
352.65042,352.7096,68,55,0
352.7096,352.76904,67,62,0
352.76904,352.82666,68,58,0
352.83664,352.99384,68,73,0
352.99384,353.15033,72,70,0
353.15033,353.30096,70,63,0
353.30096,353.45114,68,72,0
353.45114,353.60184,67,64,0
353.60184,353.75305,65,64,0
353.75305,353.90552,63,72,0
353.90552,354.05893,61,64,0
354.05893,354.21313,60,64,0
354.21313,354.32867,61,72,0
354.32867,354.4442,63,69,0
354.4442,354.56296,65,65,0
354.56296,354.68817,67,62,0
354.68817,354.84537,68,73,0
354.84537,355.00186,72,70,0
355.00186,355.1525,70,63,0
355.1525,355.30267,68,72,0
355.30267,355.45337,67,64,0
355.45337,355.60458,65,64,0
355.60458,355.75705,63,72,0
355.75705,355.91046,61,64,0
355.91046,356.06467,60,64,0
356.06467,356.1802,61,72,0
356.1802,356.29575,63,69,0
356.29575,356.4145,65,65,0
356.4145,356.53967,67,62,0
356.53967,356.69434,68,73,0
356.69434,356.84888,72,70,0
356.84888,356.99954,70,63,0
356.99954,357.1497,68,72,0
357.1497,357.30038,67,64,0
357.30038,357.4516,65,64,0
357.4516,357.6041,63,72,0
357.6041,357.75748,61,64,0
357.75748,357.9209,60,64,0
357.9209,358.06958,68,72,0
358.06958,358.21976,67,64,0
358.21976,358.37198,65,64,0
358.37198,358.52664,63,72,0
358.52664,358.6813,61,64,0
358.6813,358.84964,60,64,0
358.84964,359.00482,68,72,0
359.00482,359.15646,67,64,0
359.15646,359.30933,65,64,0
359.30933,359.46323,63,72,0
359.46323,359.61728,61,64,0
359.61728,359.77133,60,64,0
359.77133,360.12067,68,72,0
360.12067,360.23502,60,51,0
360.24515,360.32608,60,51,0
360.32608,360.40668,61,46,0
360.40668,360.48685,60,51,0
360.48685,360.56668,61,45,0
360.56668,360.64615,60,51,0
360.64615,360.72525,61,45,0
360.72525,360.7843,60,51,0
360.7843,360.8432,61,46,0
360.8432,360.9019,60,51,0
360.9019,360.96063,61,45,0
360.96063,361.08633,60,58,0
361.08633,361.21204,61,51,0
361.21204,361.7149,63,59,0
361.7149,362.26373,63,59,0
362.26373,363.58386,68,51,0
363.58386,363.64078,72,57,0
363.64078,364.11423,70,45,0
364.11423,364.58032,68,51,0
364.58032,365.0358,68,45,0
365.0358,365.49127,68,45,0
365.49127,365.60965,73,49,0
365.60965,365.96472,70,44,0
365.96472,366.43082,75,49,0
366.43082,366.8863,75,45,0
366.8863,367.34177,75,44,0
367.34177,367.46014,73,48,0
367.46014,367.81522,70,43,0
367.81522,369.1353,68,48,0
369.1353,369.19226,72,51,0
369.19226,369.6657,70,42,0
369.6657,370.1318,68,46,0
370.1318,370.58728,68,42,0
370.58728,371.04276,68,42,0
371.04276,371.16113,73,45,0
371.16113,371.5162,70,41,0
371.5162,371.9823,75,45,0
371.9823,372.43777,75,41,0
372.43777,372.89325,75,40,0
372.89325,373.0116,73,45,0
373.0116,373.3667,70,40,0
373.3667,374.69556,68,44,0
374.69556,374.75272,72,42,0
374.75272,375.2456,70,34,0
375.2456,375.72473,68,40,0
375.72473,376.20383,72,30,0
375.72473,376.20383,75,36,0
376.20383,376.71347,75,36,0
376.20383,376.71347,72,30,0
1.629846,2.088807,56,58,0
1.629846,2.088807,44,49,0
2.547768,3.006729,55,58,0
2.547768,3.006729,43,49,0
3.929247,4.386077,44,47,0
4.386077,4.5573883,56,58,0
5.762302,6.219132,58,31,0
6.219132,6.3904433,55,39,0
7.589622,8.046452,56,47,0
8.046452,8.221959,44,58,0
8.514471,8.969465,48,52,0
8.969465,9.879453,49,58,0
10.334447,10.799898,51,52,0
11.141144,11.254892,44,47,0
11.254892,11.596137,48,58,0
11.596137,11.709886,51,52,0
11.709886,12.051131,56,59,0
12.619874,13.074868,60,58,0
12.619874,13.074868,56,49,0
13.529862,13.997881,58,58,0
13.529862,13.997881,55,49,0
14.923289,15.383765,44,47,0
15.383765,15.844241,56,58,0
15.844241,16.302252,60,58,0
16.762728,16.87603,61,58,0
17.683552,17.795961,60,58,0
18.600695,18.713552,58,58,0
19.521727,19.634136,56,58,0
20.439375,20.89985,49,49,0
20.439375,20.89985,61,49,0
20.89985,21.365942,60,58,0
21.365942,21.849735,58,55,0
20.89985,21.849735,51,58,0
21.849735,22.000986,56,55,0
22.000986,22.152239,60,47,0
22.152239,22.30349,63,47,0
22.30349,22.453045,56,55,0
22.453045,22.6026,60,47,0
22.6026,22.752155,63,49,0
22.752155,22.902035,56,55,0
22.902035,23.05038,60,50,0
23.05038,23.197191,63,50,0
23.197191,23.344002,55,55,0
23.344002,23.490812,58,52,0
23.490812,23.652077,63,52,0
23.652077,23.808718,56,55,0
23.808718,23.96536,60,47,0
23.96536,24.122002,63,47,0
24.122002,24.274279,56,55,0
24.274279,24.426556,60,47,0
24.426556,24.578833,63,37,0
24.578833,24.731108,56,50,0
24.731108,24.883385,60,41,0
24.883385,25.035662,63,41,0
25.035662,25.187939,56,50,0
25.187939,25.340216,60,46,0
25.340216,25.502172,63,46,0
25.502172,25.654448,56,55,0
25.654448,25.806725,60,47,0
25.806725,25.959002,63,47,0
25.959002,26.107447,56,55,0
26.107447,26.255892,60,47,0
26.255892,26.404337,63,49,0
26.404337,26.55061,56,55,0
26.55061,26.696884,60,50,0
26.696884,26.843157,63,50,0
26.843157,26.989431,58,55,0
26.989431,27.135704,61,52,0
27.135704,27.299747,67,52,0
27.299747,27.450815,60,55,0
27.450815,27.601885,63,47,0
27.601885,27.752953,68,47,0
27.752953,27.904022,60,55,0
27.904022,28.05509,63,47,0
28.05509,28.20616,68,39,0
28.20616,28.357227,60,52,0
28.357227,28.508297,63,43,0
28.508297,28.659365,68,43,0
28.659365,28.810434,60,53,0
28.810434,28.961502,63,44,0
28.961502,29.112572,68,44,0
29.112572,29.26187,60,55,0
29.26187,29.411167,63,47,0
29.411167,29.560467,68,47,0
29.560467,29.706345,60,55,0
29.706345,29.852224,63,47,0
29.852224,29.998102,68,39,0
29.998102,30.14858,60,46,0
30.14858,30.299059,63,36,0
30.299059,30.449535,68,36,0
30.449535,30.600014,60,47,0
30.600014,30.750492,63,40,0
30.750492,30.900969,68,40,0
30.900969,31.047403,61,55,0
31.047403,31.193838,65,47,0
31.193838,31.340271,68,47,0
31.340271,31.484499,61,55,0
31.484499,31.628727,65,47,0
31.628727,31.772953,68,39,0
31.772953,31.923431,61,49,0
31.923431,32.07391,63,39,0
32.07391,32.22439,67,39,0
32.22439,32.370823,61,50,0
32.370823,32.517254,63,44,0
32.517254,32.66369,67,44,0
32.66369,32.81299,60,55,0
32.81299,32.962288,63,47,0
32.962288,33.111584,68,47,0
33.111584,33.257465,60,55,0
33.257465,33.403343,63,47,0
33.403343,33.54922,68,39,0
33.54922,33.697945,58,52,0
33.697945,33.846664,61,43,0
33.846664,33.995384,67,43,0
33.995384,34.148266,58,53,0
34.148266,34.301147,61,44,0
34.301147,34.45403,67,44,0
34.45403,34.912674,56,55,0
36.726597,37.200417,67,46,0
36.726597,37.200417,63,39,0
38.117706,38.452328,51,58,0
38.56387,38.792286,55,58,0
39.0207,39.249115,50,58,0
39.936172,40.270798,50,58,0
40.382336,40.610752,58,44,0
40.83917,41.17379,51,53,0
41.28533,41.513744,58,47,0
41.74216,42.076782,53,55,0
42.188324,42.416737,62,37,0
42.645153,42.979774,55,56,0
43.091316,43.319733,63,44,0
43.548145,43.700424,56,55,0
43.700424,43.8527,60,47,0
43.8527,44.004974,63,47,0
44.004974,44.157253,56,55,0
44.157253,44.30953,60,47,0
44.30953,44.461807,63,39,0
44.461807,44.614082,56,52,0
44.614082,44.76636,60,43,0
44.76636,44.918636,63,43,0
44.918636,45.07091,55,53,0
45.07091,45.22319,58,44,0
45.22319,45.375465,61,44,0
45.375465,45.83411,56,55,0
47.17421,47.32649,55,55,0
47.32649,47.478764,58,47,0
47.478764,47.63104,63,47,0
47.63104,47.783318,55,55,0
47.783318,47.935593,58,47,0
47.935593,48.08787,63,39,0
48.08787,48.240147,55,52,0
48.240147,48.392426,58,43,0
48.392426,48.5447,63,43,0
48.5447,48.696976,53,53,0
48.696976,48.849255,56,44,0
48.849255,49.00153,59,44,0
49.00153,49.460175,55,55,0
50.800274,50.952553,58,55,0
50.952553,51.104828,62,47,0
51.104828,51.257107,65,47,0
51.257107,51.40938,58,55,0
51.40938,51.561657,62,47,0
51.561657,51.713936,65,39,0
51.713936,51.86621,58,52,0
51.86621,52.01849,62,43,0
52.01849,52.170765,65,43,0
52.170765,52.320644,58,53,0
52.320644,52.470524,63,44,0
52.470524,52.63248,67,44,0
52.63248,52.788486,58,53,0
52.788486,52.944492,65,44,0
52.944492,53.100502,68,44,0
53.100502,53.256508,58,50,0
53.256508,53.412514,65,39,0
53.412514,53.56852,68,39,0
53.56852,53.722637,58,47,0
53.722637,53.876755,65,42,0
53.876755,54.030876,68,42,0
54.030876,54.188156,58,53,0
54.188156,54.34544,63,44,0
54.34544,54.50272,67,44,0
54.50272,54.655,58,55,0
54.655,54.807274,62,47,0
54.807274,54.959553,65,47,0
54.959553,55.111828,58,55,0
55.111828,55.264103,62,47,0
55.264103,55.41638,65,39,0
55.41638,55.568657,58,52,0
55.568657,55.720936,62,43,0
55.720936,55.87321,65,43,0
55.87321,56.02309,58,53,0
56.02309,56.17297,63,44,0
56.17297,56.334927,67,44,0
56.334927,56.490932,58,53,0
56.490932,56.64694,65,44,0
56.64694,56.802948,68,44,0
56.802948,56.958954,58,50,0
56.958954,57.11496,65,39,0
57.11496,57.270966,68,39,0
57.270966,57.425083,58,47,0
57.425083,57.579205,65,42,0
57.579205,57.733322,68,42,0
57.733322,57.890602,58,53,0
57.890602,58.047886,63,44,0
58.047886,58.205166,67,44,0
58.205166,58.357445,58,55,0
58.357445,58.50972,62,47,0
58.50972,58.662,65,47,0
58.662,58.814274,58,55,0
58.814274,58.966553,62,47,0
58.966553,59.118828,65,39,0
59.118828,59.271103,59,61,0
59.271103,59.42338,62,43,0
59.42338,59.575657,65,43,0
59.575657,59.725536,60,53,0
59.725536,59.875416,62,44,0
59.875416,60.037373,63,44,0
60.037373,60.483887,56,55,0
60.927963,61.38661,67,62,0
61.38661,61.864353,68,47,0
60.927963,61.864353,58,40,0
61.864353,62.848606,68,55,0
62.848606,63.340733,67,37,0
61.864353,63.340733,60,30,0
64.3026,64.533844,48,47,0
64.3026,64.533844,51,56,0
64.7651,64.99027,48,49,0
64.7651,64.99027,51,58,0
65.21545,65.43647,48,49,0
65.21545,65.43647,51,58,0
66.14573,66.37878,50,47,0
66.14573,66.37878,53,56,0
66.14573,66.37878,46,47,0
66.611824,66.83956,50,49,0
66.611824,66.83956,53,58,0
66.611824,66.83956,46,49,0
67.0673,67.28997,50,49,0
67.0673,67.28997,53,58,0
67.0673,67.28997,46,49,0
67.53297,67.986725,51,56,0
68.44386,68.89762,53,56,0
68.44386,68.89762,46,47,0
69.35476,69.810814,55,56,0
69.35476,69.810814,51,52,0
70.26902,70.725655,53,61,0
70.26902,70.725655,46,51,0
71.18386,71.64861,55,61,0
71.18386,71.64861,51,57,0
73.53258,74.01555,44,40,0
73.53258,74.01555,56,49,0
74.01555,74.49853,55,52,0
74.01555,74.49853,46,43,0
74.49853,74.99757,46,40,0
74.49853,74.99757,53,49,0
74.99757,75.15476,63,58,0
75.15476,75.302086,67,62,0
75.302086,75.44805,65,51,0
75.44805,75.59448,63,58,0
75.59448,75.74139,62,56,0
75.74139,75.888756,60,56,0
75.888756,76.03665,58,58,0
76.03665,76.18505,56,52,0
76.18505,76.33394,55,51,0
76.33394,76.48544,53,58,0
76.48544,76.64419,51,52,0
76.64419,76.80408,50,52,0
76.80408,76.961266,48,58,0
76.961266,77.11028,63,62,0
77.11028,77.256775,62,51,0
77.256775,77.40341,60,58,0
77.40341,77.550514,58,56,0
77.550514,77.6981,56,56,0
77.6981,77.84615,55,58,0
77.84615,77.99469,53,52,0
77.99469,78.143715,51,51,0
78.143715,78.29369,50,58,0
78.29369,78.45244,48,52,0
78.45244,78.61232,46,52,0
78.61232,79.531494,44,58,0
79.531494,80.00494,46,51,0
80.00494,80.49783,46,50,0
80.49783,80.65503,63,50,0
80.65503,80.80311,67,53,0
80.80311,80.94907,65,47,0
80.94907,81.09571,63,54,0
81.09571,81.2431,62,51,0
81.2431,81.391235,60,51,0
81.391235,81.54005,58,58,0
81.54005,81.68965,56,52,0
81.68965,81.84232,55,51,0
81.84232,81.99992,53,58,0
81.99992,82.15867,51,52,0
82.15867,82.31855,50,52,0
82.31855,82.475746,48,58,0
82.475746,82.624,63,62,0
82.624,82.768906,62,51,0
82.768906,82.91463,60,58,0
82.91463,83.061195,58,56,0
83.061195,83.20856,56,56,0
83.20856,83.35672,55,58,0
83.35672,83.50577,53,52,0
83.50577,83.655685,51,51,0
83.655685,83.81175,50,58,0
83.81175,83.9705,48,52,0
83.9705,84.13038,46,52,0
84.13038,85.04955,44,58,0
85.04955,85.522995,46,51,0
85.522995,86.01589,46,50,0
86.01589,86.17126,63,36,0
86.17126,86.32662,67,31,0
86.32662,86.48198,70,31,0
86.48198,86.63381,63,36,0
86.63381,86.78564,67,32,0
86.78564,86.93746,70,32,0
86.93746,87.08929,63,36,0
87.08929,87.24111,67,31,0
87.24111,87.39294,70,31,0
87.39294,87.55075,63,37,0
87.55075,87.708565,68,32,0
87.708565,87.86639,74,32,0
87.86639,88.02175,63,36,0
88.02175,88.17711,67,31,0
88.17711,88.33247,70,30,0
88.33247,88.4843,63,35,0
88.4843,88.63612,67,31,0
88.63612,88.78796,70,31,0
88.78796,88.93978,63,35,0
88.93978,89.091606,67,30,0
89.091606,89.24343,70,30,0
89.24343,89.401245,63,36,0
89.401245,89.55906,68,31,0
89.55906,89.71687,74,31,0
89.71687,89.87224,63,34,0
89.87224,90.0276,67,30,0
90.0276,90.18297,70,30,0
90.18297,90.33479,63,34,0
90.33479,90.48662,67,31,0
90.48662,90.63844,70,30,0
90.63844,90.79027,63,34,0
90.79027,90.9421,67,29,0
90.9421,91.093925,70,29,0
91.093925,91.25174,63,35,0
91.25174,91.40955,68,30,0
91.40955,91.56737,74,30,0
91.56737,91.72273,63,34,0
91.72273,91.8781,67,29,0
91.8781,92.03346,70,29,0
92.03346,92.18529,63,34,0
92.18529,92.33711,67,30,0
92.33711,92.48894,70,30,0
92.48894,92.64076,63,33,0
92.64076,92.79259,67,29,0
92.79259,92.94441,70,29,0
92.94441,93.102234,63,34,0
93.102234,93.26005,68,29,0
93.26005,93.41786,74,29,0
93.41786,93.57323,63,33,0
93.57323,93.72859,67,28,0
93.72859,93.88396,70,28,0
93.88396,94.03578,63,33,0
94.03578,94.18761,67,29,0
94.18761,94.33943,70,29,0
94.33943,94.49126,63,33,0
94.49126,94.64308,67,28,0
94.64308,94.79491,70,28,0
94.79491,94.95273,63,33,0
94.95273,95.11054,68,29,0
95.11054,95.26836,74,29,0
95.26836,95.42372,63,32,0
95.42372,95.57909,67,27,0
95.57909,95.73445,70,27,0
95.73445,95.88628,63,32,0
95.88628,96.0381,67,28,0
96.0381,96.189926,70,28,0
96.189926,96.34175,63,32,0
96.34175,96.493576,67,27,0
96.493576,96.6454,70,27,0
96.6454,96.803215,63,32,0
96.803215,96.96104,68,28,0
96.96104,97.11885,74,28,0
97.11885,97.27605,63,31,0
97.27605,97.43324,67,26,0
97.43324,97.59044,70,26,0
97.59044,97.74284,63,29,0
97.74284,97.89525,67,26,0
97.89525,98.047646,70,25,0
98.047646,98.20005,63,27,0
98.20005,98.352455,67,23,0
98.352455,98.50486,70,22,0
98.50486,98.66916,63,26,0
98.66916,98.83346,68,22,0
98.83346,98.99776,74,22,0
98.99776,99.476875,63,30,0
98.99776,99.476875,67,30,0
100.46563,100.97527,43,29,0
100.46563,100.97527,39,24,0
100.97527,101.48492,43,29,0
100.97527,101.48492,39,24,0
102.96316,103.42212,56,58,0
102.96316,103.42212,44,49,0
103.88108,104.34004,55,58,0
103.88108,104.34004,43,49,0
105.26256,105.71939,44,47,0
105.71939,105.8907,56,58,0
107.09561,107.552444,58,31,0
107.552444,107.723755,55,39,0
108.922935,109.37976,56,47,0
109.37976,109.55527,44,58,0
109.847786,110.30278,48,52,0
110.30278,111.21277,49,58,0
111.66776,112.13321,51,52,0
112.47446,112.5882,44,47,0
112.5882,112.92945,48,58,0
112.92945,113.0432,51,52,0
113.0432,113.384445,56,59,0
113.953186,114.40818,60,58,0
113.953186,114.40818,56,49,0
114.863174,115.33119,58,58,0
114.863174,115.33119,55,49,0
116.2566,116.71708,44,47,0
116.71708,117.17755,56,58,0
117.17755,117.63557,60,58,0
118.09604,118.20934,61,58,0
119.01686,119.12927,60,58,0
119.934006,120.04687,58,58,0
120.85504,120.967445,56,58,0
121.77269,122.23316,49,49,0
121.77269,122.23316,61,49,0
122.23316,122.69926,60,58,0
122.69926,123.183044,58,55,0
122.23316,123.183044,51,58,0
123.183044,123.3343,56,55,0
123.3343,123.48555,60,47,0
123.48555,123.6368,63,47,0
123.6368,123.786354,56,55,0
123.786354,123.93591,60,47,0
123.93591,124.085464,63,49,0
124.085464,124.235344,56,55,0
124.235344,124.38369,60,50,0
124.38369,124.5305,63,50,0
124.5305,124.677315,55,55,0
124.677315,124.82413,58,52,0
124.82413,124.98539,63,52,0
124.98539,125.14203,56,55,0
125.14203,125.298676,60,47,0
125.298676,125.455315,63,47,0
125.455315,125.60759,56,55,0
125.60759,125.759865,60,47,0
125.759865,125.91215,63,37,0
125.91215,126.06442,56,50,0
126.06442,126.2167,60,41,0
126.2167,126.36897,63,41,0
126.36897,126.52125,56,50,0
126.52125,126.67353,60,46,0
126.67353,126.83548,63,46,0
126.83548,126.98776,56,55,0
126.98776,127.14004,60,47,0
127.14004,127.29231,63,47,0
127.29231,127.44076,56,55,0
127.44076,127.5892,60,47,0
127.5892,127.73765,63,49,0
127.73765,127.88392,56,55,0
127.88392,128.0302,60,50,0
128.0302,128.17647,63,50,0
128.17647,128.32274,58,55,0
128.32274,128.46901,61,52,0
128.46901,128.63306,67,52,0
128.63306,128.78413,60,55,0
128.78413,128.9352,63,47,0
128.9352,129.08626,68,47,0
129.08626,129.23734,60,55,0
129.23734,129.3884,63,47,0
129.3884,129.53947,68,39,0
129.53947,129.69054,60,52,0
129.69054,129.84161,63,43,0
129.84161,129.99268,68,43,0
129.99268,130.14375,60,53,0
130.14375,130.29482,63,44,0
130.29482,130.44588,68,44,0
130.44588,130.59518,60,55,0
130.59518,130.74448,63,47,0
130.74448,130.89378,68,47,0
130.89378,131.03966,60,55,0
131.03966,131.18553,63,47,0
131.18553,131.33142,68,39,0
131.33142,131.48189,60,46,0
131.48189,131.63237,63,36,0
131.63237,131.78285,68,36,0
131.78285,131.93332,60,47,0
131.93332,132.0838,63,40,0
132.0838,132.23428,68,40,0
132.23428,132.38072,61,55,0
132.38072,132.52715,65,47,0
132.52715,132.67358,68,47,0
132.67358,132.81781,61,55,0
132.81781,132.96204,65,47,0
132.96204,133.10626,68,39,0
133.10626,133.25674,61,49,0
133.25674,133.40723,63,39,0
133.40723,133.5577,67,39,0
133.5577,133.70413,61,50,0
133.70413,133.85057,63,44,0
133.85057,133.99701,67,44,0
133.99701,134.1463,60,55,0
134.1463,134.2956,63,47,0
134.2956,134.4449,68,47,0
134.4449,134.59077,60,55,0
134.59077,134.73665,63,47,0
134.73665,134.88254,68,39,0
134.88254,135.03125,58,52,0
135.03125,135.17998,61,43,0
135.17998,135.32869,67,43,0
135.32869,135.48158,58,53,0
135.48158,135.63446,61,44,0
135.63446,135.78734,67,44,0
135.78734,136.24599,56,55,0
138.0599,138.53372,67,46,0
138.0599,138.53372,63,39,0
139.45102,139.78564,51,58,0
139.89719,140.1256,55,58,0
140.354,140.58243,50,58,0
141.26949,141.60411,50,58,0
141.71565,141.94406,58,44,0
142.17249,142.5071,51,53,0
142.61864,142.84706,58,47,0
143.07547,143.4101,53,55,0
143.52164,143.75005,62,37,0
143.97847,144.31308,55,56,0
144.42462,144.65305,63,44,0
144.88145,145.03374,56,55,0
145.03374,145.186,60,47,0
145.186,145.33829,63,47,0
145.33829,145.49057,56,55,0
145.49057,145.64284,60,47,0
145.64284,145.79512,63,39,0
145.79512,145.94739,56,52,0
145.94739,146.09967,60,43,0
146.09967,146.25195,63,43,0
146.25195,146.40422,55,53,0
146.40422,146.5565,58,44,0
146.5565,146.70877,61,44,0
146.70877,147.16742,56,55,0
148.50752,148.6598,55,55,0
148.6598,148.81207,58,47,0
148.81207,148.96436,63,47,0
148.96436,149.11662,55,55,0
149.11662,149.2689,58,47,0
149.2689,149.42119,63,39,0
149.42119,149.57346,55,52,0
149.57346,149.72574,58,43,0
149.72574,149.878,63,43,0
149.878,150.03029,53,53,0
150.03029,150.18257,56,44,0
150.18257,150.33484,59,44,0
150.33484,150.79349,55,55,0
152.13359,152.28586,58,55,0
152.28586,152.43814,62,47,0
152.43814,152.59042,65,47,0
152.59042,152.74269,58,55,0
152.74269,152.89497,62,47,0
152.89497,153.04724,65,39,0
153.04724,153.19952,58,52,0
153.19952,153.3518,62,43,0
153.3518,153.50407,65,43,0
153.50407,153.65396,58,53,0
153.65396,153.80383,63,44,0
153.80383,153.96579,67,44,0
153.96579,154.1218,58,53,0
154.1218,154.2778,65,44,0
154.2778,154.4338,68,44,0
154.4338,154.58981,58,50,0
154.58981,154.74582,65,39,0
154.74582,154.90182,68,39,0
154.90182,155.05595,58,47,0
155.05595,155.21007,65,42,0
155.21007,155.36418,68,42,0
155.36418,155.52147,58,53,0
155.52147,155.67876,63,44,0
155.67876,155.83603,67,44,0
155.83603,155.98831,58,55,0
155.98831,156.14058,62,47,0
156.14058,156.29286,65,47,0
156.29286,156.44514,58,55,0
156.44514,156.59741,62,47,0
156.59741,156.7497,65,39,0
156.7497,156.90196,58,52,0
156.90196,157.05424,62,43,0
157.05424,157.20653,65,43,0
157.20653,157.3564,58,53,0
157.3564,157.50629,63,44,0
157.50629,157.66824,67,44,0
157.66824,157.82425,58,53,0
157.82425,157.98026,65,44,0
157.98026,158.13626,68,44,0
158.13626,158.29227,58,50,0
158.29227,158.44827,65,39,0
158.44827,158.60428,68,39,0
158.60428,158.75839,58,47,0
158.75839,158.91252,65,42,0
158.91252,159.06664,68,42,0
159.06664,159.22392,58,53,0
159.22392,159.3812,63,44,0
159.3812,159.53848,67,44,0
159.53848,159.69075,58,55,0
159.69075,159.84303,62,47,0
159.84303,159.99532,65,47,0
159.99532,160.14758,58,55,0
160.14758,160.29987,62,47,0
160.29987,160.45213,65,39,0
160.45213,160.60442,59,61,0
160.60442,160.7567,62,43,0
160.7567,160.90897,65,43,0
160.90897,161.05885,60,53,0
161.05885,161.20872,62,44,0
161.20872,161.37068,63,44,0
161.37068,161.8172,56,55,0
162.26128,162.71992,67,62,0
162.71992,163.19766,68,47,0
162.26128,163.19766,58,40,0
163.19766,164.18192,68,55,0
164.18192,164.67404,67,37,0
163.19766,164.67404,60,30,0
165.63591,165.86716,48,47,0
165.63591,165.86716,51,56,0
166.0984,166.32358,48,49,0
166.0984,166.32358,51,58,0
166.54875,166.76979,48,49,0
166.54875,166.76979,51,58,0
167.47905,167.7121,50,47,0
167.47905,167.7121,53,56,0
167.47905,167.7121,46,47,0
167.94513,168.17288,50,49,0
167.94513,168.17288,53,58,0
167.94513,168.17288,46,49,0
168.40062,168.62328,50,49,0
168.40062,168.62328,53,58,0
168.40062,168.62328,46,49,0
168.86627,169.32004,51,56,0
169.77718,170.23093,53,56,0
169.77718,170.23093,46,47,0
170.68806,171.14412,55,56,0
170.68806,171.14412,51,52,0
171.60233,172.05896,53,56,0
171.60233,172.05896,46,47,0
172.51717,172.98192,55,61,0
172.51717,172.98192,51,57,0
174.86589,175.34886,44,40,0
174.86589,175.34886,56,49,0
175.34886,175.83183,55,52,0
175.34886,175.83183,46,43,0
175.83183,176.33089,46,40,0
175.83183,176.33089,53,49,0
176.33089,176.48808,63,58,0
176.48808,176.63539,67,62,0
176.63539,176.78136,65,51,0
176.78136,176.9278,63,58,0
176.9278,177.07469,62,56,0
177.07469,177.22208,60,56,0
177.22208,177.36996,58,58,0
177.36996,177.51837,56,52,0
177.51837,177.66725,55,51,0
177.66725,177.81876,53,58,0
177.81876,177.97751,51,52,0
177.97751,178.13739,50,52,0
178.13739,178.29459,48,58,0
178.29459,178.44359,63,62,0
178.44359,178.59009,62,51,0
178.59009,178.73672,60,58,0
178.73672,178.88382,58,56,0
178.88382,179.0314,56,56,0
179.0314,179.17946,55,58,0
179.17946,179.328,53,52,0
179.328,179.47702,51,51,0
179.47702,179.627,50,58,0
179.627,179.78575,48,52,0
179.78575,179.94563,46,52,0
179.94563,180.8648,44,58,0
180.8648,181.33826,46,51,0
181.33826,181.83115,46,50,0
181.83115,181.98834,63,50,0
181.98834,182.13643,67,53,0
182.13643,182.28238,65,47,0
182.28238,182.42902,63,54,0
182.42902,182.57642,62,51,0
182.57642,182.72455,60,51,0
182.72455,182.87335,58,58,0
182.87335,183.02296,56,52,0
183.02296,183.17564,55,51,0
183.17564,183.33324,53,58,0
183.33324,183.49197,51,52,0
183.49197,183.65186,50,52,0
183.65186,183.80905,48,58,0
183.80905,183.9573,63,62,0
183.9573,184.10222,62,51,0
184.10222,184.24794,60,58,0
184.24794,184.3945,58,56,0
184.3945,184.54187,56,56,0
184.54187,184.69003,55,58,0
184.69003,184.83908,53,52,0
184.83908,184.989,51,51,0
184.989,185.14507,50,58,0
185.14507,185.3038,48,52,0
185.3038,185.46368,46,52,0
185.46368,186.38286,44,58,0
186.38286,186.85631,46,51,0
186.85631,187.3492,46,50,0
187.3492,187.50456,63,36,0
187.50456,187.65993,67,31,0
187.65993,187.81529,70,31,0
187.81529,187.96712,63,36,0
187.96712,188.11894,67,32,0
188.11894,188.27077,70,32,0
188.27077,188.42259,63,36,0
188.42259,188.57442,67,31,0
188.57442,188.72624,70,31,0
188.72624,188.88406,63,37,0
188.88406,189.04189,68,32,0
189.04189,189.19969,74,32,0
189.19969,189.35506,63,36,0
189.35506,189.51042,67,31,0
189.51042,189.66579,70,30,0
189.66579,189.81761,63,35,0
189.81761,189.96944,67,31,0
189.96944,190.12126,70,31,0
190.12126,190.27309,63,35,0
190.27309,190.42491,67,30,0
190.42491,190.57674,70,30,0
190.57674,190.73456,63,36,0
190.73456,190.89238,68,31,0
190.89238,191.05019,74,31,0
191.05019,191.20555,63,34,0
191.20555,191.36092,67,30,0
191.36092,191.51628,70,30,0
191.51628,191.6681,63,34,0
191.6681,191.81993,67,31,0
191.81993,191.97176,70,30,0
191.97176,192.12358,63,34,0
192.12358,192.2754,67,29,0
192.2754,192.42723,70,29,0
192.42723,192.58505,63,35,0
192.58505,192.74286,68,30,0
192.74286,192.90068,74,30,0
192.90068,193.05605,63,34,0
193.05605,193.21141,67,29,0
193.21141,193.36678,70,29,0
193.36678,193.5186,63,34,0
193.5186,193.67043,67,30,0
193.67043,193.82225,70,30,0
193.82225,193.97408,63,33,0
193.97408,194.1259,67,29,0
194.1259,194.27773,70,29,0
194.27773,194.43555,63,34,0
194.43555,194.59335,68,29,0
194.59335,194.75117,74,29,0
194.75117,194.90654,63,33,0
194.90654,195.0619,67,28,0
195.0619,195.21727,70,28,0
195.21727,195.3691,63,33,0
195.3691,195.52092,67,29,0
195.52092,195.67274,70,29,0
195.67274,195.82457,63,33,0
195.82457,195.9764,67,28,0
195.9764,196.12822,70,28,0
196.12822,196.28604,63,33,0
196.28604,196.44385,68,29,0
196.44385,196.60167,74,29,0
196.60167,196.75703,63,32,0
196.75703,196.9124,67,27,0
196.9124,197.06776,70,27,0
197.06776,197.21959,63,32,0
197.21959,197.37141,67,28,0
197.37141,197.52324,70,28,0
197.52324,197.67506,63,32,0
197.67506,197.82689,67,27,0
197.82689,197.97871,70,27,0
197.97871,198.13654,63,32,0
198.13654,198.29434,68,28,0
198.29434,198.45216,74,28,0
198.45216,198.60936,63,31,0
198.60936,198.76656,67,26,0
198.76656,198.92375,70,26,0
198.92375,199.07616,63,29,0
199.07616,199.22856,67,26,0
199.22856,199.38097,70,25,0
199.38097,199.53337,63,27,0
199.53337,199.68578,67,23,0
199.68578,199.83818,70,22,0
199.83818,200.00247,63,26,0
200.00247,200.16676,68,22,0
200.16676,200.33107,74,22,0
200.33107,200.81018,63,30,0
200.33107,200.81018,67,30,0
201.79895,202.30858,43,29,0
201.79895,202.30858,39,24,0
202.30858,202.81822,43,29,0
202.30858,202.81822,39,24,0
204.29646,204.75543,51,58,0
204.29646,204.75543,39,49,0
205.21439,205.67336,50,58,0
205.21439,205.67336,38,49,0
206.59587,207.0527,39,47,0
207.0527,207.22401,51,58,0
208.42892,208.88576,53,31,0
208.88576,209.05707,50,39,0
210.25624,210.71307,51,47,0
210.71307,210.88858,39,58,0
211.18109,211.6361,43,52,0
211.6361,212.09108,44,58,0
213.00107,213.46652,46,52,0
213.80777,213.92151,51,47,0
213.92151,214.26276,55,58,0
214.26276,214.37651,58,52,0
214.37651,214.8315,63,59,0
217.41727,217.53027,68,47,0
217.53027,217.86931,67,58,0
217.86931,217.98463,65,52,0
217.98463,218.33131,64,59,0
218.33131,218.44426,67,50,0
218.44426,218.78346,60,57,0
218.78346,218.8983,64,52,0
218.8983,219.04955,65,46,0
219.04955,219.2008,68,39,0
219.2008,219.35205,72,39,0
219.35205,219.5016,65,46,0
219.5016,219.65117,68,39,0
219.65117,219.80072,72,41,0
219.80072,219.95059,65,46,0
219.95059,220.09894,68,42,0
220.09894,220.24576,72,42,0
220.24576,220.39256,64,46,0
220.39256,220.53938,67,44,0
220.53938,220.71043,72,44,0
220.71043,220.86708,65,46,0
220.86708,221.02371,68,39,0
221.02371,221.18036,72,39,0
221.18036,221.33264,65,46,0
221.33264,221.48491,68,39,0
221.48491,221.63719,72,31,0
221.63719,221.78946,65,42,0
221.78946,221.94174,68,34,0
221.94174,222.09402,72,34,0
222.09402,222.24629,65,42,0
222.24629,222.39857,68,39,0
222.39857,222.56053,72,39,0
222.56053,222.72054,63,46,0
222.72054,222.87471,66,39,0
222.87471,223.02887,72,39,0
223.02887,223.18304,63,46,0
223.18304,223.3372,66,39,0
223.3372,223.49136,72,35,0
223.49136,223.64554,63,42,0
223.64554,223.7997,66,38,0
223.7997,223.95387,72,38,0
223.95387,224.1126,63,42,0
224.1126,224.26694,66,39,0
224.26694,224.42052,72,39,0
224.42052,224.57715,61,46,0
224.57715,224.7338,65,39,0
224.7338,224.89044,68,39,0
224.89044,225.04271,61,46,0
225.04271,225.19499,65,39,0
225.19499,225.34726,68,31,0
225.34726,225.49954,61,42,0
225.49954,225.65182,65,34,0
225.65182,225.8041,68,34,0
225.8041,225.95638,61,42,0
225.95638,226.10864,65,39,0
226.10864,226.2706,68,39,0
226.2706,226.42433,62,46,0
226.42433,226.57674,65,39,0
226.57674,226.72914,70,39,0
226.72914,226.88155,62,46,0
226.88155,227.03395,65,39,0
227.03395,227.18636,70,35,0
227.18636,227.33876,62,42,0
227.33876,227.49117,65,38,0
227.49117,227.64357,70,38,0
227.64357,227.79686,62,42,0
227.79686,227.95284,65,39,0
227.95284,228.1088,70,39,0
228.1088,228.26544,63,46,0
228.26544,228.42209,67,39,0
228.42209,228.57872,70,39,0
228.57872,228.731,63,46,0
228.731,228.88329,67,39,0
228.88329,229.03555,70,31,0
229.03555,229.18784,63,42,0
229.18784,229.3401,67,34,0
229.3401,229.49239,70,34,0
229.49239,229.64467,63,42,0
229.64467,229.79694,67,39,0
229.79694,229.9589,70,39,0
229.9589,230.11487,65,39,0
230.11487,230.27083,68,33,0
230.27083,230.4268,71,33,0
230.4268,230.57921,65,39,0
230.57921,230.73161,68,33,0
230.73161,230.88402,71,30,0
230.88402,231.03642,65,37,0
231.03642,231.18883,68,33,0
231.18883,231.34123,71,34,0
231.34123,231.4966,65,38,0
231.4966,231.65196,68,36,0
231.65196,231.80733,71,36,0
231.80733,231.9639,63,43,0
231.9639,232.12048,68,37,0
232.12048,232.27707,71,37,0
232.27707,232.43005,63,44,0
232.43005,232.58304,68,38,0
232.58304,232.73602,71,34,0
232.73602,232.889,63,42,0
232.889,233.04199,68,38,0
233.04199,233.19499,71,39,0
233.19499,233.35095,63,42,0
233.35095,233.50693,68,41,0
233.50693,233.6629,71,41,0
233.6629,233.81825,61,49,0
233.81825,233.97362,68,42,0
233.97362,234.12898,71,42,0
234.12898,234.28139,61,50,0
234.28139,234.43379,68,43,0
234.43379,234.5862,71,39,0
234.5862,234.7386,61,48,0
234.7386,234.891,68,43,0
234.891,235.04341,71,44,0
235.04341,235.2,61,48,0
235.2,235.35657,68,45,0
235.35657,235.51315,71,46,0
235.51315,235.66852,61,55,0
235.66852,235.82388,66,47,0
235.8229,235.97827,70,47,0
235.97925,236.13165,61,57,0
236.13165,236.28406,66,48,0
236.2831,236.4355,70,44,0
236.43646,236.58887,61,53,0
236.58887,236.74127,66,48,0
236.74031,236.89272,70,48,0
236.89368,237.05025,61,54,0
237.05025,237.20683,66,51,0
237.20586,237.36244,70,51,0
237.36342,237.51817,61,62,0
237.51817,237.67294,65,52,0
237.67294,237.8277,68,47,0
237.8277,237.9801,61,57,0
237.9801,238.1325,65,47,0
238.1325,238.28491,68,41,0
238.28491,238.43732,61,46,0
238.43732,238.58972,65,41,0
238.58972,238.74213,68,41,0
238.74213,238.8981,61,42,0
238.8981,239.05406,65,39,0
239.05406,239.21004,68,39,0
239.21004,239.36479,62,46,0
239.36479,239.51956,65,39,0
239.51956,239.67212,70,39,0
239.67212,239.82394,62,46,0
239.82394,239.97577,65,39,0
239.97577,240.1276,70,35,0
240.1276,240.27942,62,42,0
240.27942,240.43124,65,38,0
240.43124,240.58307,70,38,0
240.58307,240.73843,62,42,0
240.73843,240.8938,65,39,0
240.8938,241.04916,70,39,0
241.04916,241.20581,63,46,0
241.20581,241.36246,70,39,0
241.36246,241.51909,73,39,0
241.51909,241.67137,63,46,0
241.67137,241.82364,70,39,0
241.82364,241.97592,73,31,0
241.97592,242.1282,63,42,0
242.1282,242.28047,70,34,0
242.28047,242.43275,73,34,0
242.43275,242.58502,63,42,0
242.58502,242.7373,67,39,0
242.7373,242.89926,70,39,0
242.89926,243.05463,64,50,0
243.05463,243.20999,67,42,0
243.20999,243.36536,72,42,0
243.36536,243.51776,64,50,0
243.51776,243.67017,67,42,0
243.67017,243.82257,72,38,0
243.82257,243.97498,64,46,0
243.97498,244.12738,67,41,0
244.12738,244.27979,72,41,0
244.27979,244.43292,64,46,0
244.43292,244.58829,67,42,0
244.58829,244.74365,72,42,0
244.74365,245.2023,65,50,0
248.34114,248.49239,45,46,0
248.49239,248.64365,48,39,0
248.64365,248.79489,51,39,0
248.79489,248.94446,45,46,0
248.94446,249.09401,48,39,0
249.09401,249.24356,51,41,0
249.24356,249.39345,45,46,0
249.39345,249.5418,48,42,0
249.5418,249.6886,51,42,0
249.6886,249.8354,45,46,0
249.8354,249.98222,48,44,0
249.98222,250.15327,53,44,0
250.15327,250.30757,46,46,0
250.31331,250.46458,49,39,0
250.45428,250.60303,53,39,0
250.60767,250.75722,46,46,0
250.75722,250.90677,49,39,0
250.90677,251.05632,53,41,0
251.05165,251.20152,46,46,0
251.20152,251.34996,49,42,0
251.35455,251.50136,53,42,0
251.50136,251.64818,46,46,0
251.64818,251.79498,49,44,0
251.79498,251.96603,53,44,0
251.96603,252.1173,47,46,0
252.1173,252.26854,50,39,0
252.26854,252.4198,53,39,0
252.4198,252.56935,47,46,0
252.56935,252.7189,50,39,0
252.7189,252.86845,53,41,0
252.86845,253.01834,47,46,0
253.01834,253.16669,50,42,0
253.16669,253.31349,53,42,0
253.31349,253.46031,47,46,0
253.46031,253.60712,50,44,0
253.60712,253.77817,55,44,0
253.77817,254.22127,48,56,0
254.67284,255.11594,52,56,0
254.67284,255.11594,48,47,0
255.56851,256.01324,52,56,0
255.56851,256.01324,48,47,0
256.46686,256.90323,52,58,0
256.46686,256.90323,48,48,0
257.36624,257.80936,56,59,0
257.36624,257.80936,53,50,0
258.26193,258.7034,55,62,0
258.26193,258.7034,48,52,0
259.157,259.59848,56,63,0
259.157,259.59848,53,53,0
260.0521,260.4952,58,65,0
260.0521,260.4952,46,54,0
260.94986,261.40472,60,66,0
261.89288,262.38104,48,56,0
262.84647,262.99924,57,40,0
262.99924,263.15204,60,32,0
263.15204,263.3048,66,32,0
263.3048,263.45758,57,39,0
263.45758,263.61035,60,33,0
263.61035,263.76312,66,33,0
263.76312,263.91592,57,38,0
263.91592,264.0687,60,33,0
264.0687,264.22147,66,33,0
264.22147,264.37723,57,40,0
264.37723,264.53296,60,32,0
264.53296,264.70187,66,32,0
264.70187,264.85464,58,38,0
264.85464,265.00742,65,33,0
265.00742,265.16022,68,33,0
265.16022,265.31183,58,38,0
265.31183,265.46344,65,33,0
265.46344,265.61505,68,33,0
265.61505,265.76666,58,38,0
265.76666,265.9183,65,32,0
265.9183,266.06992,68,32,0
266.06992,266.22327,58,40,0
266.22327,266.37665,65,34,0
266.37665,266.54626,68,34,0
266.54626,266.70163,55,47,0
266.70163,266.857,58,40,0
266.857,267.01236,63,40,0
267.01236,267.16476,55,48,0
267.16476,267.31717,58,40,0
267.31717,267.46957,63,37,0
267.46957,267.62198,55,44,0
267.62198,267.77438,58,40,0
267.77438,267.9268,63,40,0
267.9268,268.08334,55,45,0
268.08334,268.23993,58,42,0
268.23993,268.3965,63,42,0
268.3965,268.55188,56,47,0
268.55188,268.70724,60,40,0
268.70724,268.8626,63,40,0
268.8626,269.015,56,48,0
269.015,269.16742,60,40,0
269.16742,269.31982,63,37,0
269.31982,269.47223,48,44,0
269.47223,269.62463,51,40,0
269.62463,269.77704,56,40,0
269.77704,269.93362,48,45,0
269.93362,270.0902,51,42,0
270.0902,270.24677,56,42,0
270.24677,270.40213,49,47,0
270.40213,270.5575,53,40,0
270.5575,270.71286,56,40,0
270.71286,270.86526,49,48,0
270.86526,271.01767,53,40,0
271.01767,271.17007,56,37,0
271.17007,271.32248,50,44,0
271.32248,271.47488,53,40,0
271.47488,271.6273,58,40,0
271.6273,271.78387,50,45,0
271.78387,271.94046,53,42,0
271.94046,272.09705,58,42,0
272.09705,272.98865,51,55,0
273.88245,274.77405,56,55,0
273.88245,274.77405,53,47,0
281.27386,281.91742,58,29,0
281.27386,281.91742,56,24,0
281.27386,281.91742,53,24,0
288.07394,288.92853,39,36,0
290.24207,290.70102,56,58,0
290.24207,290.70102,44,49,0
291.15997,291.61896,55,58,0
291.15997,291.61896,43,49,0
292.54147,292.9983,44,47,0
292.9983,293.16962,56,58,0
294.3745,294.83136,58,31,0
294.83136,295.00266,55,39,0
296.20184,296.65866,56,47,0
296.65866,296.83417,44,58,0
297.12668,297.5817,48,52,0
297.5817,298.49167,49,58,0
298.94666,299.4121,51,52,0
299.75336,299.8671,44,47,0
299.8671,300.20834,48,58,0
300.20834,300.3221,51,52,0
300.3221,300.66336,56,59,0
301.2321,301.68707,60,58,0
301.2321,301.68707,56,49,0
302.1421,302.6101,58,58,0
302.1421,302.6101,55,49,0
303.5355,303.99597,44,47,0
303.99597,304.45645,56,58,0
304.45645,304.91446,60,58,0
305.37494,305.48825,61,58,0
306.29578,306.40817,60,58,0
307.21292,307.32578,58,58,0
308.13394,308.24634,56,58,0
309.0516,309.51205,49,49,0
309.0516,309.51205,61,49,0
309.51205,309.97815,60,58,0
309.97815,310.46194,58,55,0
309.51205,310.46194,51,58,0
310.46194,310.6132,56,55,0
310.6132,310.76447,60,47,0
310.76447,310.9157,63,47,0
310.9157,311.06525,56,55,0
311.06525,311.2148,60,47,0
311.2148,311.36438,63,49,0
311.36438,311.51425,56,55,0
311.51425,311.6626,60,50,0
311.6626,311.80942,63,50,0
311.80942,311.9562,55,55,0
311.9562,312.10303,58,52,0
312.10303,312.26428,63,52,0
312.26428,312.42093,56,55,0
312.42093,312.57758,60,47,0
312.57758,312.73422,63,47,0
312.73422,312.8865,56,55,0
312.8865,313.03876,60,47,0
313.03876,313.19104,63,37,0
313.19104,313.34332,56,50,0
313.34332,313.4956,60,41,0
313.4956,313.6479,63,41,0
313.6479,313.80014,56,50,0
313.80014,313.95242,60,46,0
313.95242,314.11438,63,46,0
314.11438,314.26666,56,55,0
314.26666,314.41895,60,47,0
314.41895,314.57123,63,47,0
314.57123,314.71967,56,55,0
314.71967,314.8681,60,47,0
314.8681,315.01654,63,49,0
315.01654,315.1628,56,55,0
315.1628,315.3091,60,50,0
315.3091,315.45538,63,50,0
315.45538,315.60165,58,55,0
315.60165,315.74792,61,52,0
315.74792,315.91196,67,52,0
315.91196,316.06302,60,55,0
316.06302,316.2141,63,47,0
316.2141,316.36517,68,47,0
316.36517,316.51624,60,55,0
316.51624,316.6673,63,47,0
316.6673,316.8184,68,39,0
316.8184,316.96945,60,52,0
316.96945,317.1205,63,43,0
317.1205,317.27158,68,43,0
317.27158,317.42264,60,53,0
317.42264,317.57373,63,44,0
317.57373,317.7248,68,44,0
317.7248,317.87408,60,55,0
317.87408,318.02338,63,47,0
318.02338,318.17267,68,47,0
318.17267,318.31857,60,55,0
318.31857,318.46445,63,47,0
318.46445,318.61032,68,39,0
318.61032,318.7608,60,46,0
318.7608,318.9113,63,36,0
318.9113,319.06174,68,36,0
319.06174,319.21222,60,47,0
319.21222,319.3627,63,40,0
319.3627,319.51318,68,40,0
319.51318,319.6596,61,55,0
319.6596,319.80606,65,47,0
319.80606,319.95248,68,47,0
319.95248,320.0967,61,55,0
320.0967,320.24094,65,47,0
320.24094,320.38516,68,39,0
320.38516,320.53564,61,49,0
320.53564,320.68613,63,39,0
320.68613,320.8366,67,39,0
320.8366,320.98303,61,50,0
320.98303,321.1295,63,44,0
321.1295,321.2759,67,44,0
321.2759,321.4252,60,55,0
321.4252,321.5745,63,47,0
321.5745,321.72382,68,47,0
321.72382,321.8697,60,55,0
321.8697,322.01556,63,47,0
322.01556,322.16144,68,39,0
322.16144,322.31015,58,52,0
322.31015,322.4589,61,43,0
322.4589,322.6076,67,43,0
322.6076,322.76047,58,53,0
322.76047,322.91336,61,44,0
322.91336,323.06625,67,44,0
323.06625,323.5249,56,55,0
325.3388,325.81262,67,46,0
325.3388,325.81262,63,39,0
326.7296,326.88132,51,42,0
326.88132,327.03513,55,35,0
327.03513,327.19098,58,35,0
327.19098,327.34683,51,40,0
327.34683,327.5027,55,31,0
327.5027,327.65854,58,31,0
327.65854,327.8138,51,37,0
327.8138,327.96906,55,33,0
327.96906,328.12433,58,33,0
328.12433,328.27603,51,42,0
328.27603,328.42776,56,35,0
328.42776,328.5997,60,35,0
328.5997,328.75143,51,42,0
328.75143,328.9052,58,35,0
328.9052,329.06107,61,35,0
329.06107,329.21695,51,40,0
329.21695,329.3728,58,31,0
329.3728,329.52866,61,31,0
329.52866,329.6839,51,37,0
329.6839,329.83917,58,33,0
329.83917,329.99442,61,33,0
329.99442,330.14615,51,42,0
330.14615,330.29788,56,35,0
330.29788,330.4496,60,35,0
330.4496,330.60132,51,42,0
330.60132,330.7551,55,35,0
330.7551,330.91095,58,35,0
330.91095,331.06683,51,40,0
331.06683,331.2227,55,31,0
331.2227,331.37854,58,31,0
331.37854,331.5338,51,37,0
331.5338,331.68906,55,33,0
331.68906,331.8443,58,33,0
331.8443,331.99603,51,42,0
331.99603,332.14777,56,35,0
332.14777,332.3197,60,35,0
332.3197,332.4714,51,42,0
332.4714,332.6252,58,35,0
332.6252,332.78107,61,35,0
332.78107,332.93692,51,40,0
332.93692,333.09277,58,31,0
333.09277,333.24866,61,31,0
333.24866,333.4039,51,37,0
333.4039,333.55917,58,33,0
333.55917,333.71442,61,33,0
333.71442,333.86615,51,42,0
333.86615,334.01785,56,35,0
334.01785,334.1696,60,35,0
334.1696,334.3213,51,42,0
334.3213,334.4751,55,35,0
334.4751,334.63095,58,35,0
334.63095,334.7868,51,40,0
334.7868,334.9427,55,31,0
334.9427,335.09854,58,31,0
335.09854,335.25378,52,41,0
335.25378,335.40906,55,33,0
335.40906,335.5643,58,33,0
335.5643,335.71603,53,42,0
335.71603,335.86774,55,35,0
335.86774,336.03967,56,35,0
336.4862,336.93027,61,38,0
336.03967,336.93027,49,52,0
336.93027,337.38892,60,50,0
337.38892,337.86667,58,39,0
336.93027,337.86667,51,50,0
337.86667,338.3204,56,70,0
338.77756,339.23132,58,70,0
338.77756,339.23132,51,58,0
339.68845,340.1445,60,70,0
339.68845,340.1445,56,65,0
340.60272,341.05936,51,68,0
340.60272,341.05936,58,68,0
341.51755,342.9072,60,70,0
341.51755,342.9072,56,65,0
342.9072,343.36792,58,54,0
342.9072,343.36792,61,54,0
343.36792,343.83267,63,70,0
343.36792,343.83267,60,65,0
345.71484,346.1959,61,58,0
345.2338,346.1959,49,65,0
346.1959,346.6791,60,65,0
346.6791,347.18344,58,61,0
346.1959,347.18344,51,55,0
347.18344,348.5731,60,70,0
347.18344,348.5731,56,65,0
348.5731,349.03467,58,54,0
348.5731,349.03467,61,54,0
349.03467,349.49942,63,70,0
349.03467,349.49942,60,65,0
351.3816,351.86264,61,58,0
350.90054,351.86264,49,65,0
351.86264,352.34586,60,65,0
352.34586,352.83664,58,61,0
351.86264,352.83664,51,55,0
352.83664,352.99384,56,58,0
352.99384,353.15033,60,56,0
353.15033,353.30096,58,50,0
353.30096,353.45114,56,57,0
353.45114,353.60184,55,51,0
353.60184,353.75305,53,51,0
353.75305,353.90552,51,57,0
353.90552,354.05893,49,51,0
354.05893,354.21313,48,51,0
354.21313,354.32867,49,57,0
354.32867,354.4442,51,55,0
354.4442,354.56296,53,52,0
354.56296,354.68817,55,49,0
354.68817,354.84537,56,58,0
354.84537,355.00186,60,56,0
355.00186,355.1525,58,50,0
355.1525,355.30267,56,57,0
355.30267,355.45337,55,51,0
355.45337,355.60458,53,51,0
355.60458,355.75705,51,57,0
355.75705,355.91046,49,51,0
355.91046,356.06467,48,51,0
356.06467,356.1802,49,57,0
356.1802,356.29575,51,55,0
356.29575,356.4145,53,52,0
356.4145,356.53967,55,49,0
356.53967,356.69434,56,58,0
356.69434,356.84888,60,56,0
356.84888,356.99954,58,50,0
356.99954,357.1497,56,57,0
357.1497,357.30038,55,51,0
357.30038,357.4516,53,51,0
357.4516,357.6041,51,57,0
357.6041,357.75748,49,51,0
357.75748,357.9209,48,51,0
357.9209,358.06958,56,57,0
358.06958,358.21976,55,51,0
358.21976,358.37198,53,51,0
358.37198,358.52664,51,57,0
358.52664,358.6813,49,51,0
358.6813,358.84964,48,51,0
358.84964,359.00482,56,57,0
359.00482,359.15646,55,51,0
359.15646,359.30933,53,51,0
359.30933,359.46323,51,57,0
359.46323,359.61728,49,51,0
359.61728,359.77133,48,51,0
359.77133,360.12067,56,57,0
360.12067,360.23502,48,40,0
360.24515,360.32608,48,40,0
360.32608,360.40668,49,36,0
360.40668,360.48685,48,40,0
360.48685,360.56668,49,36,0
360.56668,360.64615,48,40,0
360.64615,360.72525,49,36,0
360.72525,360.7843,48,40,0
360.7843,360.8432,49,36,0
360.8432,360.9019,48,40,0
360.9019,360.96063,49,36,0
360.96063,361.08633,48,46,0
361.08633,361.21204,49,40,0
361.21204,361.7149,51,47,0
361.7149,362.26373,51,47,0
362.26373,362.4191,56,30,0
362.4191,362.57446,60,26,0
362.57446,362.72983,63,26,0
362.72983,362.88165,56,30,0
362.88165,363.03348,60,27,0
363.03348,363.1853,63,27,0
363.1853,363.33713,56,30,0
363.33713,363.48895,60,26,0
363.48895,363.64078,63,26,0
363.64078,363.7986,56,31,0
363.7986,363.95642,61,27,0
363.95642,364.11423,67,27,0
364.11423,364.2696,56,30,0
364.2696,364.42496,60,26,0
364.42496,364.58032,63,25,0
364.58032,364.73215,56,29,0
364.73215,364.88397,60,26,0
364.88397,365.0358,63,26,0
365.0358,365.18762,56,29,0
365.18762,365.33945,60,25,0
365.33945,365.49127,63,25,0
365.49127,365.64908,56,30,0
365.64908,365.80692,61,26,0
365.80692,365.96472,67,26,0
365.96472,366.1201,56,28,0
366.1201,366.27545,60,25,0
366.27545,366.43082,63,25,0
366.43082,366.58264,56,28,0
366.58264,366.73447,60,26,0
366.73447,366.8863,63,25,0
366.8863,367.03812,56,28,0
367.03812,367.18994,60,24,0
367.18994,367.34177,63,24,0
367.34177,367.49957,56,29,0
367.49957,367.6574,61,25,0
367.6574,367.81522,67,25,0
367.81522,367.97058,56,28,0
367.97058,368.12595,60,24,0
368.12595,368.2813,63,24,0
368.2813,368.43314,56,28,0
368.43314,368.58496,60,25,0
368.58496,368.7368,63,25,0
368.7368,368.8886,56,28,0
368.8886,369.04044,60,24,0
369.04044,369.19226,63,24,0
369.19226,369.35007,56,28,0
369.35007,369.5079,61,24,0
369.5079,369.6657,67,24,0
369.6657,369.82108,56,28,0
369.82108,369.97644,60,23,0
369.97644,370.1318,63,23,0
370.1318,370.28363,56,28,0
370.28363,370.43546,60,24,0
370.43546,370.58728,63,24,0
370.58728,370.7391,56,28,0
370.7391,370.89093,60,23,0
370.89093,371.04276,63,23,0
371.04276,371.20056,56,28,0
371.20056,371.3584,61,24,0
371.3584,371.5162,67,24,0
371.5162,371.67157,56,27,0
371.67157,371.82693,60,22,0
371.82693,371.9823,63,22,0
371.9823,372.13412,56,27,0
372.13412,372.28595,60,23,0
372.28595,372.43777,63,23,0
372.43777,372.5896,56,27,0
372.5896,372.74142,60,22,0
372.74142,372.89325,63,22,0
372.89325,373.05106,56,27,0
373.05106,373.2089,61,23,0
373.2089,373.3667,67,23,0
373.3667,373.5239,56,26,0
373.5239,373.6811,60,22,0
373.6811,373.8383,63,22,0
373.8383,373.9907,56,24,0
373.9907,374.1431,60,22,0
374.1431,374.2955,63,21,0
374.2955,374.4479,56,22,0
374.4479,374.6003,60,19,0
374.6003,374.75272,63,18,0
374.75272,374.917,56,22,0
374.917,375.0813,61,18,0
375.0813,375.2456,67,18,0
375.2456,375.72473,56,25,0
375.2456,375.72473,60,25,0
376.71347,377.2231,48,24,0
376.71347,377.2231,44,20,0
377.2231,377.73276,44,20,0
377.2231,377.73276,48,24,0
