start_time,end_time,note_value,velocity,instrument_program_number
0.981274,1.3630502,69,50,0
1.3630502,1.490309,66,45,0
1.490309,1.6133202,74,50,0
1.982354,2.1053653,74,47,0
2.474399,2.7204216,74,47,0
2.7204216,2.781927,73,47,0
2.781927,2.8434327,74,47,0
2.8434327,2.9049385,76,47,0
2.9049385,2.966444,74,47,0
2.966444,3.3275363,73,51,0
3.3275363,3.444944,76,52,0
3.444944,4.2831597,79,56,0
4.2831597,4.404824,76,51,0
4.404824,4.7619386,78,58,0
4.7619386,4.8867307,74,53,0
4.8867307,5.2405596,81,58,0
5.2405596,5.3647523,78,54,0
5.3647523,5.7251854,83,59,0
5.7251854,5.851821,79,48,0
5.851821,6.348592,78,51,0
6.348592,6.7211704,76,39,0
6.845363,7.2271395,69,50,0
7.2271395,7.354398,66,45,0
7.354398,7.4774094,74,50,0
7.846443,7.9694543,74,47,0
8.338488,8.584511,74,47,0
8.584511,8.646016,73,47,0
8.646016,8.707521,74,47,0
8.707521,8.769028,76,47,0
8.769028,8.830533,74,47,0
8.830533,9.187648,73,58,0
9.187648,9.31244,76,53,0
9.31244,9.666268,79,58,0
9.666268,9.790462,76,54,0
9.790462,10.150894,78,59,0
10.150894,10.27753,74,48,0
10.27753,10.400541,71,58,0
10.769575,10.895848,76,56,0
11.274668,11.538288,73,45,0
11.538288,11.604194,74,55,0
11.604194,11.670098,73,48,0
11.670098,11.736004,71,48,0
11.736004,11.801909,73,48,0
11.274668,11.801909,67,45,0
11.801909,12.29456,66,49,0
11.801909,12.29456,74,58,0
12.81954,13.201316,69,50,0
13.201316,13.328575,66,45,0
13.328575,13.451587,74,50,0
13.82062,13.943631,74,47,0
14.312665,14.558687,74,47,0
14.558687,14.6201935,73,47,0
14.6201935,14.681699,74,47,0
14.681699,14.743204,76,47,0
14.743204,14.80471,74,47,0
14.80471,15.165802,73,51,0
15.165802,15.28321,76,52,0
15.28321,16.115154,79,56,0
16.115154,16.23584,76,51,0
16.23584,16.592955,78,58,0
16.592955,16.717747,74,53,0
16.717747,17.070162,81,58,0
17.070162,17.194355,78,54,0
17.194355,17.554789,83,59,0
17.554789,17.683887,79,48,0
17.683887,18.180658,78,51,0
18.180658,18.553236,76,39,0
18.67743,19.059206,69,50,0
19.059206,19.186464,66,45,0
19.186464,19.309475,74,50,0
19.678509,19.801521,74,47,0
20.170555,20.416576,74,47,0
20.416576,20.478083,73,47,0
20.478083,20.539589,74,47,0
20.539589,20.601093,76,47,0
20.601093,20.6626,74,47,0
20.6626,21.019714,73,58,0
21.019714,21.144506,76,53,0
21.144506,21.498335,79,58,0
21.498335,21.622528,76,54,0
21.622528,21.98296,78,59,0
21.98296,22.109596,74,48,0
22.109596,22.23136,71,58,0
22.59665,22.724537,76,56,0
23.108202,23.371822,73,45,0
23.371822,23.437727,74,55,0
23.437727,23.503633,73,48,0
23.503633,23.569538,71,48,0
23.569538,23.635443,73,48,0
23.108202,23.635443,67,45,0
23.635443,24.13632,66,49,0
23.635443,24.13632,74,58,0
24.6613,25.056166,81,58,0
25.056166,25.187977,78,53,0
25.187977,25.547142,86,58,0
25.547142,25.671934,81,53,0
25.671934,26.031101,83,58,0
26.031101,26.155294,80,54,0
26.155294,26.513033,81,59,0
26.513033,26.63967,76,48,0
26.63967,26.993193,79,58,0
26.993193,27.117985,74,54,0
27.117985,27.474308,78,59,0
27.474308,27.5985,73,57,0
27.5985,27.957666,76,63,0
27.957666,28.084303,71,52,0
28.084303,28.44782,74,65,0
28.44782,28.57571,69,61,0
28.57571,28.943687,79,66,0
28.943687,29.074932,76,58,0
28.57571,29.074932,73,50,0
29.074932,29.44748,78,65,0
29.44748,29.597046,81,57,0
29.074932,29.597046,74,56,0
29.597046,30.110788,78,56,0
29.597046,30.110788,74,47,0
30.110788,30.36766,76,50,0
30.110788,30.36766,73,42,0
30.624533,31.019398,81,58,0
31.019398,31.151209,78,53,0
31.151209,31.510374,86,58,0
31.510374,31.635166,81,53,0
31.635166,31.992905,83,58,0
31.992905,32.1171,80,54,0
32.1171,32.47342,81,59,0
32.47342,32.600056,76,48,0
32.600056,32.954975,79,58,0
32.954975,33.079765,74,54,0
33.079765,33.434685,78,60,0
33.434685,33.558876,73,57,0
33.558876,33.919483,76,63,0
33.919483,34.046116,71,53,0
34.046116,34.409637,74,66,0
34.409637,34.537525,69,54,0
34.537525,35.036243,78,66,0
35.036243,35.1,76,47,0
35.1,35.163197,78,44,0
35.163197,35.225845,76,47,0
35.225845,35.287956,78,45,0
35.287956,35.349533,76,47,0
35.349533,35.410942,78,43,0
35.410942,35.45326,76,43,0
35.45326,35.49571,74,43,0
35.49677,35.539234,76,43,0
35.538155,36.056335,74,66,0
36.583622,36.978485,81,58,0
36.978485,37.1103,78,53,0
37.1103,37.469463,86,58,0
37.469463,37.594257,81,53,0
37.594257,37.948055,83,58,0
37.948055,38.07225,80,54,0
38.07225,38.424667,81,59,0
38.424667,38.5513,76,48,0
38.5513,38.904827,79,58,0
38.904827,39.029617,74,54,0
39.029617,39.38594,78,59,0
39.38594,39.51013,73,57,0
39.51013,39.8693,76,63,0
39.8693,39.995934,71,52,0
39.995934,40.359455,74,65,0
40.359455,40.487343,69,61,0
40.487343,40.85532,79,66,0
40.85532,40.986565,76,58,0
40.487343,40.986565,73,50,0
40.986565,41.35911,78,65,0
41.35911,41.50868,81,57,0
40.986565,41.50868,74,56,0
41.50868,42.022423,78,56,0
41.50868,42.022423,74,47,0
42.022423,42.279293,76,50,0
42.022423,42.279293,73,42,0
42.536163,42.93103,81,58,0
42.93103,43.06284,78,53,0
43.06284,43.42201,86,58,0
43.42201,43.5468,81,53,0
43.5468,43.901997,83,58,0
43.901997,44.02619,80,54,0
44.02619,44.37999,81,59,0
44.37999,44.506626,76,48,0
44.506626,44.861546,79,58,0
44.861546,44.986336,74,54,0
44.986336,45.341255,78,60,0
45.341255,45.465446,73,57,0
45.465446,45.826054,76,63,0
45.826054,45.952686,71,53,0
45.952686,46.316208,74,66,0
46.316208,46.444096,69,54,0
46.444096,46.942814,78,66,0
46.942814,47.00657,76,47,0
47.00657,47.069767,78,44,0
47.069767,47.132416,76,47,0
47.132416,47.194527,78,45,0
47.194527,47.256104,76,47,0
47.256104,47.317513,78,43,0
47.317513,47.35983,76,43,0
47.35983,47.40228,74,43,0
47.40334,47.445805,76,43,0
47.444725,47.962906,74,66,0
48.490192,48.608498,67,58,0
48.608498,48.726803,65,58,0
48.726803,48.845108,64,61,0
48.845108,48.974655,62,65,0
48.974655,49.81271,74,76,0
49.81271,49.9369,69,59,0
49.9369,50.29464,77,65,0
50.29464,50.410725,69,56,0
50.421276,50.7748,69,63,0
50.7748,50.899593,68,54,0
50.899593,51.733856,67,64,0
51.733856,51.860493,64,56,0
51.860493,52.22401,65,65,0
52.22401,52.3519,62,61,0
52.3519,52.719875,69,66,0
52.719875,52.85112,65,58,0
52.85112,53.22367,70,65,0
53.22367,53.36077,62,49,0
53.373234,53.88698,62,50,0
53.88698,54.14385,61,45,0
54.400723,54.518562,70,58,0
54.518562,54.636402,69,58,0
54.636402,54.754246,67,61,0
54.754246,54.88379,65,65,0
54.88379,55.242958,72,76,0
55.242958,55.36268,69,63,0
55.36268,55.721848,77,73,0
55.721848,55.84604,72,64,0
55.84604,56.203777,81,74,0
56.203777,56.31986,77,68,0
56.330414,56.683937,82,80,0
56.683937,56.808727,77,70,0
56.808727,57.16505,86,82,0
57.16505,57.283825,77,68,0
57.283825,57.642994,88,81,0
57.642994,57.769627,79,68,0
57.769627,58.13315,89,80,0
58.13315,58.261036,77,61,0
58.261036,58.759754,81,66,0
58.759754,58.82351,79,47,0
58.82351,58.886707,81,44,0
58.886707,58.949356,79,47,0
58.949356,59.011467,81,45,0
59.011467,59.073044,79,47,0
59.073044,59.134453,81,43,0
59.134453,59.17677,79,43,0
59.17677,59.21922,77,43,0
59.22028,59.262745,79,43,0
59.261665,60.17531,77,66,0
60.307133,60.425438,67,58,0
60.425438,60.543743,65,58,0
60.543743,60.66205,64,61,0
60.66205,60.791595,62,65,0
60.791595,61.624283,74,76,0
61.624283,61.748478,69,59,0
61.748478,62.106216,77,65,0
62.106216,62.222298,69,56,0
62.232853,62.586376,69,63,0
62.586376,62.711166,68,54,0
62.711166,63.54572,67,64,0
63.54572,63.672356,64,56,0
63.672356,64.03587,65,65,0
64.03587,64.16376,62,61,0
64.16376,64.53174,69,66,0
64.53174,64.66299,65,58,0
64.66299,65.038956,70,65,0
65.038956,65.176056,62,49,0
65.18852,65.70226,62,50,0
65.70226,65.95914,61,45,0
66.21601,66.33385,70,58,0
66.33385,66.45169,69,58,0
66.45169,66.569534,67,61,0
66.569534,66.69907,65,65,0
66.69907,67.05824,72,76,0
67.05824,67.17796,69,63,0
67.17796,67.53177,77,73,0
67.53177,67.65596,72,64,0
67.65596,68.011154,81,74,0
68.011154,68.12724,77,68,0
68.137794,68.49132,82,80,0
68.49132,68.61611,77,70,0
68.61611,68.97243,86,82,0
68.97243,69.0912,77,68,0
69.0912,69.45037,88,81,0
69.45037,69.57701,79,68,0
69.57701,69.94053,89,80,0
69.94053,70.06841,77,61,0
70.06841,70.56713,81,66,0
70.56713,70.63089,79,47,0
70.63089,70.694084,81,44,0
70.694084,70.75674,79,47,0
70.75674,70.81885,81,45,0
70.81885,70.880424,79,47,0
70.880424,70.94183,81,43,0
70.94183,70.984146,79,43,0
70.984146,71.026596,77,43,0
71.02766,71.07012,79,43,0
71.069046,71.98269,77,66,0
72.11451,72.23282,82,49,0
72.23282,72.35112,81,49,0
72.35112,72.46943,79,51,0
72.46943,72.598976,77,55,0
72.598976,73.43703,84,64,0
73.43703,73.56122,75,46,0
73.56122,73.91896,77,55,0
73.91896,74.03504,75,47,0
74.04559,74.39912,74,53,0
74.39912,74.52391,81,45,0
74.52391,74.88023,86,60,0
74.88023,74.99901,81,47,0
74.99901,75.35818,82,58,0
75.35818,75.48481,79,50,0
75.48481,75.84833,84,60,0
75.84833,75.97622,79,51,0
75.97622,76.34419,81,56,0
76.34419,76.47544,77,49,0
76.47544,76.72381,82,55,0
76.72381,76.84449,79,48,0
76.84449,76.9686,76,41,0
76.97988,77.49363,74,42,0
77.49363,77.750496,73,38,0
78.00737,78.12521,69,47,0
78.12521,78.24305,67,49,0
78.24305,78.36089,65,50,0
78.36089,78.49044,64,52,0
78.49044,79.32849,79,64,0
79.32849,79.45268,76,64,0
79.45268,79.810425,85,74,0
79.810425,79.926506,82,68,0
79.93706,80.29058,86,80,0
80.29058,80.415375,81,70,0
80.415375,80.7717,88,82,0
80.7717,80.89047,81,68,0
80.89047,81.25399,89,81,0
81.25399,81.3759,86,68,0
81.386986,81.508156,84,80,0
81.508156,81.629326,82,61,0
81.629326,81.7505,81,68,0
81.7505,81.87839,79,61,0
81.87839,82.377106,77,66,0
82.377106,82.440865,76,47,0
82.440865,82.50406,77,44,0
82.50406,82.56671,76,47,0
82.56671,82.62882,77,45,0
82.62882,82.6904,76,47,0
82.6904,82.75181,77,43,0
82.75181,82.79412,76,43,0
82.79412,82.83657,74,43,0
82.83763,82.8801,76,43,0
82.87902,83.79266,74,66,0
83.924484,84.040596,82,49,0
84.040596,84.1567,81,49,0
84.1567,84.27281,79,51,0
84.27281,84.40235,77,55,0
84.40235,85.23644,84,64,0
85.23644,85.360634,75,46,0
85.360634,85.718376,77,55,0
85.718376,85.83446,75,47,0
85.84501,86.19853,74,53,0
86.19853,86.323326,81,45,0
86.323326,86.67574,86,60,0
86.67574,86.79321,81,47,0
86.79321,87.15238,82,58,0
87.15238,87.279015,79,50,0
87.279015,87.64253,84,60,0
87.64253,87.770424,79,51,0
87.770424,88.1384,81,56,0
88.1384,88.269646,77,49,0
88.269646,88.51801,82,55,0
88.51801,88.638695,79,48,0
88.638695,88.7628,76,41,0
88.774086,89.28783,74,42,0
89.28783,89.5447,73,38,0
89.801575,89.91941,69,47,0
89.91941,90.037254,67,49,0
90.037254,90.1551,65,50,0
90.1551,90.284645,64,52,0
90.284645,91.122696,79,64,0
91.122696,91.24689,76,64,0
91.24689,91.60209,85,74,0
91.60209,91.71817,82,68,0
91.72872,92.0784,86,80,0
92.0784,92.20319,81,70,0
92.20319,92.55952,88,82,0
92.55952,92.67829,81,68,0
92.67829,93.04181,89,81,0
93.04181,93.165474,86,68,0
93.17671,93.29789,84,80,0
93.29789,93.41906,82,61,0
93.41906,93.54023,81,68,0
93.54023,93.66812,79,61,0
93.66812,94.16684,77,66,0
94.16684,94.23059,76,47,0
94.23059,94.29379,77,44,0
94.29379,94.356445,76,47,0
94.356445,94.41855,77,45,0
94.41855,94.480125,76,47,0
94.480125,94.541534,77,43,0
94.541534,94.583855,76,43,0
94.583855,94.626305,74,43,0
94.627365,94.66983,76,43,0
94.668755,95.5824,74,66,0
95.71422,95.8349,67,50,0
95.8349,95.95559,66,45,0
95.95559,96.07627,64,45,0
96.07627,96.19696,62,45,0
96.19696,96.2573,74,50,0
96.43833,96.497955,74,50,0
96.91819,97.03888,74,47,0
97.15956,97.28025,76,53,0
97.28025,97.40093,74,48,0
97.40093,97.52162,73,48,0
97.52162,97.6423,74,48,0
97.6423,97.703224,73,51,0
97.885994,97.944695,79,52,0
98.357414,98.59403,79,56,0
98.59403,98.714714,81,51,0
98.714714,98.8354,79,51,0
98.8354,98.956085,78,51,0
98.956085,99.076775,76,51,0
99.076775,99.19581,79,58,0
99.19581,99.31485,78,53,0
99.31485,99.43388,76,53,0
99.43388,99.55457,74,49,0
99.55457,99.672516,83,62,0
99.672516,99.79046,81,56,0
99.79046,99.9084,79,56,0
99.9084,100.03259,78,54,0
100.03259,100.15274,83,65,0
100.15274,100.27288,85,49,0
100.27288,100.39303,86,46,0
100.39303,100.51966,79,43,0
100.51966,101.01643,78,51,0
100.51966,101.01643,74,51,0
101.01643,101.38901,76,39,0
101.01643,101.38901,73,39,0
101.51321,101.63341,67,50,0
101.63341,101.75361,66,45,0
101.75361,101.87381,64,45,0
101.87381,101.99401,62,45,0
101.99401,102.05435,74,50,0
102.23538,102.295006,74,50,0
102.71525,102.83593,74,47,0
102.95662,103.07539,76,49,0
103.07539,103.19417,74,43,0
103.19417,103.31294,73,43,0
103.31294,103.43172,74,43,0
103.43172,103.49087,73,51,0
103.66833,103.729904,79,52,0
103.91465,104.03296,81,56,0
104.03296,104.15126,79,51,0
104.15126,104.26957,78,51,0
104.26957,104.38787,76,48,0
104.38787,104.50856,79,58,0
104.50856,104.62924,78,54,0
104.62924,104.74993,76,53,0
104.74993,104.876205,74,53,0
104.876205,104.99524,83,69,0
104.99524,105.11428,85,56,0
105.11428,105.23332,86,53,0
105.23332,105.35811,79,56,0
105.35811,105.47605,78,61,0
105.47605,105.593994,79,51,0
105.593994,105.71194,81,51,0
105.71194,105.836136,74,51,0
105.836136,105.956276,76,59,0
105.956276,106.07642,78,48,0
106.07642,106.19656,79,53,0
106.19656,106.328384,73,48,0
106.328384,106.83562,74,58,0
107.360596,107.48128,67,50,0
107.48128,107.60197,66,45,0
107.60197,107.72265,64,45,0
107.72265,107.84334,62,45,0
107.84334,107.90208,74,50,0
108.07828,108.1379,74,50,0
108.55814,108.67883,74,47,0
108.799515,108.920204,76,53,0
108.920204,109.040886,74,48,0
109.040886,109.161575,73,48,0
109.161575,109.28226,74,48,0
109.28226,109.34193,73,51,0
109.52094,109.57964,79,52,0
109.99237,110.22898,79,56,0
110.22898,110.34966,81,51,0
110.34966,110.47035,79,51,0
110.47035,110.591034,78,51,0
110.591034,110.71172,76,51,0
110.71172,110.83076,79,58,0
110.83076,110.9498,78,53,0
110.9498,111.06883,76,53,0
111.06883,111.18952,74,49,0
111.18952,111.307465,83,59,0
111.307465,111.42541,81,54,0
111.42541,111.54335,79,54,0
111.54335,111.66754,78,61,0
111.66754,111.78769,83,68,0
111.78769,111.90783,85,60,0
111.90783,112.02798,86,54,0
112.02798,112.15461,79,43,0
112.15461,112.65138,78,51,0
112.15461,112.65138,74,51,0
112.65138,113.023964,76,39,0
112.65138,113.023964,73,39,0
113.148155,113.26836,67,50,0
113.26836,113.38856,66,45,0
113.38856,113.50876,64,45,0
113.50876,113.62896,62,45,0
113.62896,113.68816,74,50,0
113.86576,113.925385,74,50,0
114.34563,114.46631,74,47,0
114.587,114.705765,76,49,0
114.705765,114.82454,74,43,0
114.82454,114.94331,73,43,0
114.94331,115.06209,74,43,0
115.06209,115.12125,73,51,0
115.298706,115.36111,79,52,0
115.54831,115.66661,81,56,0
115.66661,115.78492,79,51,0
115.78492,115.90323,78,51,0
115.90323,116.02153,76,48,0
116.02153,116.14222,79,58,0
116.14222,116.2629,78,52,0
116.2629,116.38359,76,54,0
116.38359,116.50986,74,57,0
116.50986,116.6289,83,66,0
116.6289,116.74794,85,57,0
116.74794,116.866974,86,53,0
116.866974,116.99177,79,51,0
116.99177,117.10971,78,61,0
117.10971,117.22765,79,51,0
117.22765,117.3456,81,51,0
117.3456,117.46979,74,51,0
117.46979,117.589935,76,59,0
117.589935,117.710075,78,48,0
117.710075,117.83022,79,53,0
117.83022,117.96204,73,48,0
117.96204,118.46927,74,58,0
118.994255,119.11494,67,50,0
119.11494,119.23563,66,45,0
119.23563,119.35631,64,45,0
119.35631,119.47699,62,45,0
119.47699,119.53734,74,50,0
119.71836,119.777985,74,50,0
120.19823,120.31892,68,47,0
120.4396,120.56029,69,53,0
120.56029,120.68097,71,48,0
120.68097,120.80166,69,48,0
120.80166,120.92234,64,48,0
120.92234,120.98326,67,51,0
121.16602,121.22473,67,52,0
121.63745,121.87406,66,56,0
121.87406,121.99475,64,51,0
121.99475,122.11543,66,47,0
122.11543,122.23612,64,47,0
122.23612,122.356804,59,47,0
122.356804,122.475845,62,53,0
122.475845,122.59488,64,46,0
122.59488,122.71392,62,46,0
122.71392,122.83461,57,46,0
122.83461,122.95255,67,54,0
122.95255,123.070496,69,46,0
123.070496,123.18844,67,46,0
123.18844,123.31263,64,43,0
123.31263,123.43277,66,55,0
123.43277,123.55292,67,46,0
123.55292,123.67306,66,46,0
123.67306,123.78915,62,46,0
123.7997,124.29647,62,43,0
123.7997,124.29647,66,51,0
124.29647,124.669044,64,39,0
124.29647,124.669044,61,39,0
124.793236,124.913925,79,63,0
124.913925,125.03461,78,56,0
125.03461,125.1553,76,56,0
125.1553,125.27598,74,56,0
125.27598,125.33633,86,70,0
125.51735,125.57697,86,67,0
125.997215,126.1179,80,53,0
126.23859,126.35927,80,58,0
126.35927,126.47996,81,48,0
126.47996,126.60064,83,48,0
126.60064,126.696556,81,48,0
126.72853,126.84921,81,61,0
126.84921,126.9699,79,49,0
126.9699,127.08962,78,49,0
127.08962,127.18554,79,49,0
127.217514,127.337234,79,59,0
127.337234,127.456955,78,48,0
127.456955,127.576675,76,48,0
127.576675,127.67259,78,48,0
127.70457,127.82477,78,58,0
127.82477,127.94497,76,47,0
127.94497,128.06517,74,47,0
128.06517,128.19417,76,47,0
128.19417,128.43651,81,68,0
128.55768,128.68556,83,54,0
128.68556,129.18428,74,66,0
129.18428,129.24805,76,47,0
129.24805,129.31123,78,44,0
129.31123,129.37389,76,47,0
129.37389,129.436,78,45,0
129.436,129.49757,76,47,0
129.49757,129.55899,78,43,0
129.55899,129.6013,76,43,0
129.6013,129.64375,74,43,0
129.6448,129.68727,76,43,0
129.6862,130.20438,74,66,0
130.73166,130.85236,67,50,0
130.85236,130.97304,66,45,0
130.97304,131.09372,64,45,0
131.09372,131.2144,62,45,0
131.2144,131.27292,74,50,0
131.44844,131.50806,74,50,0
131.9283,132.04898,68,47,0
132.16966,132.29036,69,53,0
132.29036,132.41104,71,48,0
132.41104,132.53172,69,48,0
132.53172,132.6524,64,48,0
132.6524,132.71161,67,51,0
132.8892,132.9479,67,52,0
133.36064,133.59724,66,56,0
133.59724,133.71793,64,51,0
133.71793,133.83862,66,47,0
133.83862,133.9593,64,47,0
133.9593,134.07999,59,47,0
134.07999,134.19904,62,53,0
134.19904,134.31807,64,46,0
134.31807,134.4371,62,46,0
134.4371,134.55779,57,46,0
134.55779,134.67574,67,54,0
134.67574,134.79367,69,46,0
134.79367,134.91162,67,46,0
134.91162,135.03581,64,43,0
135.03581,135.15596,66,55,0
135.15596,135.27611,67,46,0
135.27611,135.39624,66,46,0
135.39624,135.51233,62,46,0
135.52287,136.01965,62,43,0
135.52287,136.01965,66,51,0
136.01965,136.39223,64,39,0
136.01965,136.39223,61,39,0
136.51642,136.6371,79,63,0
136.6371,136.7578,78,56,0
136.7578,136.87848,76,56,0
136.87848,136.99916,74,56,0
136.99916,137.05814,86,70,0
137.23503,137.29466,86,67,0
137.71489,137.83559,80,53,0
137.95627,138.07695,80,58,0
138.07695,138.19763,81,48,0
138.19763,138.31833,83,48,0
138.31833,138.41425,81,48,0
138.44621,138.5669,81,61,0
138.5669,138.68758,79,49,0
138.68758,138.8073,78,49,0
138.8073,138.90321,79,49,0
138.9352,139.05359,79,59,0
139.05359,139.172,78,48,0
139.172,139.29039,76,48,0
139.29039,139.3863,78,48,0
139.41827,139.53714,78,58,0
139.53714,139.65602,76,47,0
139.65602,139.77489,74,47,0
139.77489,139.90741,76,47,0
139.90741,140.14975,81,67,0
140.27092,140.3988,83,58,0
140.3988,140.89754,74,70,0
140.89754,140.96129,76,47,0
140.96129,141.02449,78,44,0
141.02449,141.08713,76,47,0
141.08713,141.14925,78,45,0
141.14925,141.21082,76,47,0
141.21082,141.27223,78,43,0
141.27223,141.31454,76,43,0
141.31454,141.357,74,43,0
141.35805,141.40053,76,43,0
141.39944,141.91762,74,66,0
142.4449,142.56322,67,58,0
142.56322,142.68152,65,58,0
142.68152,142.79982,64,61,0
142.79982,142.92937,62,65,0
142.92937,143.6477,74,82,0
143.6477,144.13011,76,64,0
144.13011,144.6067,77,69,0
144.6067,145.08327,69,69,0
145.08327,145.56026,68,65,0
145.56026,146.046,67,68,0
146.046,146.54037,65,70,0
146.54037,146.79103,69,69,0
146.79103,146.9224,69,70,0
146.9224,146.96637,70,55,0
146.96637,147.01035,69,43,0
147.01146,147.05545,67,39,0
147.05434,147.18924,69,59,0
147.18924,147.32634,70,49,0
147.3388,147.85254,62,50,0
147.85254,148.10942,61,45,0
148.36629,148.48413,70,58,0
148.48413,148.60197,69,58,0
148.60197,148.71982,67,61,0
148.71982,148.84935,65,65,0
148.84935,148.96808,74,81,0
148.96909,149.0888,72,63,0
149.0888,149.20853,70,63,0
149.20853,149.32825,69,63,0
149.32825,149.44557,79,78,0
149.44655,149.56485,77,64,0
149.56485,149.68317,76,64,0
149.68317,149.80736,77,64,0
149.80736,149.92421,82,79,0
149.9252,150.04305,81,66,0
150.04305,150.16087,79,67,0
150.16087,150.27696,77,67,0
150.28752,150.40437,84,86,0
150.40535,150.5232,82,70,0
150.5232,150.64104,81,70,0
150.64104,150.76584,82,70,0
150.76584,150.88362,86,86,0
150.8846,151.00337,82,69,0
151.00337,151.12215,81,69,0
151.12215,151.24092,79,69,0
151.24092,151.35965,88,85,0
151.36066,151.48038,82,68,0
151.48038,151.6001,81,68,0
151.6001,151.72673,79,68,0
151.72673,151.8469,89,80,0
151.8479,151.96907,84,61,0
151.96907,152.09026,81,61,0
152.09026,152.21814,77,61,0
152.21814,152.28389,79,45,0
152.28389,152.3489,81,39,0
152.3489,152.4128,79,46,0
152.4128,152.47583,81,40,0
152.47583,152.53857,79,48,0
152.53857,152.60052,81,45,0
152.60052,152.6616,79,51,0
152.6616,152.72206,81,46,0
152.72206,152.78194,79,51,0
152.78194,152.84183,81,47,0
152.84183,152.90228,79,47,0
152.90228,152.96342,81,45,0
152.96342,153.02475,79,47,0
153.02475,153.0864,81,43,0
153.0864,153.12871,79,43,0
153.12871,153.17116,77,43,0
153.17221,153.21468,79,43,0
153.21361,154.12724,77,66,0
154.25906,154.37738,67,58,0
154.37738,154.49568,65,58,0
154.49568,154.61398,64,61,0
154.61398,154.74353,62,65,0
154.74353,155.45828,74,82,0
155.45828,155.93721,76,64,0
155.93721,156.41296,77,69,0
156.41296,156.88953,69,69,0
156.88953,157.36652,68,65,0
157.36652,157.85225,67,68,0
157.85225,158.34663,65,70,0
158.34663,158.60054,69,69,0
158.60054,158.72745,69,70,0
158.72745,158.77104,70,50,0
158.77104,158.81464,69,42,0
158.81573,158.85936,67,39,0
158.85823,158.99315,69,59,0
158.99315,159.13025,70,49,0
159.14272,159.65645,62,50,0
159.65645,159.91333,61,45,0
160.1702,160.28804,70,58,0
160.28804,160.40588,69,58,0
160.40588,160.52371,67,61,0
160.52371,160.65326,65,65,0
160.65326,160.77113,74,81,0
160.77213,160.891,72,63,0
160.891,161.00987,70,63,0
161.00987,161.12874,69,63,0
161.12874,161.24478,79,78,0
161.24574,161.36276,77,64,0
161.36276,161.47978,76,64,0
161.47978,161.60397,77,64,0
161.60397,161.71956,82,79,0
161.72054,161.83708,81,66,0
161.83708,161.95364,79,67,0
161.95364,162.06973,77,67,0
162.08028,162.19714,84,86,0
162.19812,162.31596,82,70,0
162.31596,162.4338,81,70,0
162.4338,162.5586,82,70,0
162.5586,162.67638,86,86,0
162.67737,162.79614,82,69,0
162.79614,162.91492,81,69,0
162.91492,163.03369,79,69,0
163.03369,163.15242,88,85,0
163.15341,163.27315,82,68,0
163.27315,163.39287,81,68,0
163.39287,163.5195,79,68,0
163.5195,163.63966,89,80,0
163.64067,163.76184,84,61,0
163.76184,163.88301,81,61,0
163.88301,164.01091,77,61,0
164.01091,164.07666,79,45,0
164.07666,164.14168,81,39,0
164.14168,164.20557,79,46,0
164.20557,164.26859,81,40,0
164.26859,164.33134,79,48,0
164.33134,164.3933,81,45,0
164.3933,164.45438,79,51,0
164.45438,164.51483,81,46,0
164.51483,164.5747,79,51,0
164.5747,164.6346,81,47,0
164.6346,164.69505,79,47,0
164.69505,164.7562,81,45,0
164.7562,164.81752,79,47,0
164.81752,164.87915,81,43,0
164.87915,164.92148,79,43,0
164.92148,164.96393,77,43,0
164.96498,165.00745,79,43,0
165.00636,165.92001,77,66,0
166.05183,166.17014,82,49,0
166.17014,166.28845,81,49,0
166.28845,166.40675,79,51,0
166.40675,166.5363,77,55,0
166.5363,167.1349,84,64,0
167.1349,167.25464,75,46,0
167.25464,167.37436,74,49,0
167.37436,167.49855,75,46,0
167.49855,167.6178,77,55,0
167.6178,167.73705,75,47,0
167.73705,167.85628,74,49,0
167.85628,167.97237,75,44,0
167.98293,168.09978,74,53,0
168.10077,168.2186,81,45,0
168.2186,168.33644,82,49,0
168.33644,168.46124,81,45,0
168.46124,168.57903,86,60,0
168.58002,168.69879,84,47,0
168.69879,168.81757,82,51,0
168.81757,168.93634,81,47,0
168.93634,169.05505,82,58,0
169.05606,169.17578,79,50,0
169.17578,169.2955,81,53,0
169.2955,169.42213,82,50,0
169.42213,169.5423,84,60,0
169.5433,169.66447,82,51,0
169.66447,169.78566,81,51,0
169.78566,169.91035,79,50,0
169.91035,170.032,81,56,0
170.03302,170.15567,77,49,0
170.15567,170.27834,76,49,0
170.27834,170.40958,74,49,0
170.40958,170.53375,82,55,0
170.53375,170.65794,79,48,0
170.65794,170.77863,77,48,0
170.77863,170.90274,76,41,0
170.91402,171.42776,74,42,0
171.42776,171.68463,73,38,0
171.9415,172.05934,69,47,0
172.05934,172.17719,67,49,0
172.17719,172.29503,65,50,0
172.29503,172.42458,64,52,0
172.42458,173.02318,79,64,0
173.02318,173.14291,81,64,0
173.14291,173.26263,79,64,0
173.26263,173.38683,76,64,0
173.38683,173.5056,85,74,0
173.5056,173.62437,86,64,0
173.62437,173.74315,85,69,0
173.74315,173.85922,82,68,0
173.86978,173.98763,86,86,0
173.98763,174.10547,88,70,0
174.10547,174.2233,86,76,0
174.2233,174.3481,81,70,0
174.3481,174.46687,88,82,0
174.46687,174.58565,89,68,0
174.58565,174.70442,88,77,0
174.70442,174.8232,81,68,0
174.8232,174.94437,89,81,0
174.94437,175.06554,86,68,0
175.06554,175.1867,85,74,0
175.1867,175.3197,86,68,0
175.3197,175.44087,84,80,0
175.44087,175.56204,82,61,0
175.56204,175.68323,81,68,0
175.68323,175.81111,79,61,0
175.81111,176.30983,77,66,0
176.30983,176.37358,76,47,0
176.37358,176.43678,77,44,0
176.43678,176.49944,76,47,0
176.49944,176.56154,77,45,0
176.56154,176.62312,76,47,0
176.62312,176.68452,77,43,0
176.68452,176.72684,76,43,0
176.72684,176.76929,74,43,0
176.77036,176.81282,76,43,0
176.81174,177.72539,74,66,0
177.85721,177.97551,82,49,0
177.97551,178.09381,81,49,0
178.09381,178.21213,79,51,0
178.21213,178.34167,77,55,0
178.34167,178.94028,84,64,0
178.94028,179.06,75,46,0
179.06,179.17972,74,49,0
179.17972,179.30391,75,46,0
179.30391,179.42139,77,55,0
179.42139,179.53886,75,47,0
179.53886,179.65633,74,49,0
179.65633,179.77242,75,44,0
179.78297,179.89856,74,53,0
179.89952,180.01608,81,45,0
180.01608,180.13264,82,49,0
180.13264,180.25743,81,45,0
180.25743,180.37439,86,60,0
180.37537,180.4933,84,47,0
180.4933,180.61124,82,51,0
180.61124,180.72917,81,47,0
180.72917,180.8479,82,58,0
180.84889,180.96861,79,50,0
180.96861,181.08833,81,53,0
181.08833,181.21498,82,50,0
181.21498,181.33514,84,60,0
181.33615,181.45732,82,51,0
181.45732,181.57849,81,51,0
181.57849,181.70319,79,50,0
181.70319,181.82483,81,56,0
181.82585,181.94852,77,49,0
181.94852,182.07117,76,49,0
182.07117,182.20242,74,49,0
182.20242,182.3266,82,55,0
182.3266,182.45078,79,48,0
182.45078,182.57147,77,48,0
182.57147,182.69557,76,41,0
182.70686,183.2206,74,42,0
183.2206,183.47748,73,38,0
183.73434,183.85219,69,47,0
183.85219,183.97003,67,49,0
183.97003,184.08786,65,50,0
184.08786,184.2174,64,52,0
184.2174,184.8147,79,64,0
184.8147,184.9331,81,64,0
184.9331,185.0515,79,64,0
185.0515,185.17569,76,64,0
185.17569,185.29317,85,74,0
185.29317,185.41063,86,64,0
185.41063,185.5281,85,69,0
185.5281,185.6442,82,68,0
185.65474,185.77084,86,86,0
185.77084,185.88696,88,70,0
185.88696,186.00307,86,76,0
186.00307,186.12785,81,70,0
186.12785,186.24533,88,82,0
186.24533,186.36281,89,68,0
186.36281,186.48027,88,77,0
186.48027,186.59775,81,68,0
186.59775,186.71892,89,81,0
186.71892,186.84009,86,68,0
186.84009,186.96127,85,74,0
186.96127,187.10056,86,68,0
187.10056,187.22173,84,80,0
187.22173,187.3429,82,61,0
187.3429,187.46408,81,68,0
187.46408,187.59196,79,61,0
187.59196,188.09068,77,66,0
188.09068,188.15443,76,47,0
188.15443,188.21764,77,44,0
188.21764,188.28029,76,47,0
188.28029,188.34239,77,45,0
188.34239,188.40398,76,47,0
188.40398,188.46538,77,43,0
188.46538,188.50769,76,43,0
188.50769,188.55014,74,43,0
188.55121,188.59367,76,43,0
188.59259,189.50624,74,66,0
189.63806,190.01984,69,50,0
190.01984,190.1471,66,45,0
190.1471,190.23935,74,50,0
190.63914,190.7314,74,47,0
191.13118,191.37721,74,47,0
191.37721,191.4387,73,47,0
191.4387,191.50021,74,47,0
191.50021,191.56172,76,47,0
191.56172,191.62323,74,47,0
191.62323,191.98431,73,51,0
191.98431,192.10173,76,52,0
192.10173,192.93994,79,56,0
192.93994,193.06161,76,51,0
193.06161,193.41402,78,58,0
193.41402,193.54369,74,53,0
193.54369,193.8961,81,58,0
193.8961,194.02632,78,54,0
194.02632,194.38292,83,59,0
194.38292,194.52286,79,48,0
194.52286,195.01964,78,51,0
195.01964,195.39221,76,39,0
195.5164,195.89818,69,50,0
195.89818,196.02544,66,45,0
196.02544,196.11769,74,50,0
196.51749,196.60974,74,47,0
197.00952,197.25555,74,47,0
197.25555,197.31706,73,47,0
197.31706,197.37856,74,47,0
197.37856,197.44006,76,47,0
197.44006,197.50157,74,47,0
197.50157,197.85869,73,58,0
197.85869,197.98347,76,53,0
197.98347,198.33452,79,58,0
198.33452,198.45871,76,54,0
198.45871,198.81532,78,59,0
198.81532,198.94196,74,48,0
198.94196,199.06497,71,58,0
199.434,199.56027,76,56,0
199.93909,200.20271,73,45,0
200.20271,200.26862,74,55,0
200.26862,200.33452,73,48,0
200.33452,200.40042,71,48,0
200.40042,200.46634,73,48,0
199.93909,200.46634,67,45,0
200.46634,200.95898,66,49,0
200.46634,200.95898,74,58,0
201.48396,201.61122,66,50,0
201.61122,201.73848,62,45,0
201.73848,201.86574,69,45,0
201.86574,201.993,66,45,0
201.993,202.11601,74,56,0
202.11601,202.23901,69,45,0
202.23901,202.36203,71,45,0
202.36203,202.48505,73,45,0
202.48505,202.60805,74,55,0
202.60805,202.73106,76,45,0
202.73106,202.85408,78,45,0
202.85408,202.97708,79,45,0
202.97708,203.1001,81,61,0
203.1001,203.22311,78,52,0
203.22311,203.34612,76,52,0
203.34612,203.47566,74,50,0
203.47566,203.59764,73,54,0
203.59764,203.71881,74,45,0
203.71881,203.84,76,45,0
203.84,203.96117,78,45,0
203.96117,204.08234,79,51,0
204.08234,204.2035,76,47,0
204.2035,204.32468,79,48,0
204.32468,204.44586,81,49,0
204.44586,204.56703,83,55,0
204.56703,204.6882,79,45,0
204.6882,204.80937,78,45,0
204.80937,204.93672,76,45,0
204.93672,205.05804,78,55,0
205.05804,205.17874,74,53,0
205.17874,205.29921,76,53,0
205.29921,205.41942,78,53,0
205.41942,205.53938,79,64,0
205.53938,205.6591,81,53,0
205.6591,205.77847,83,56,0
205.77847,205.89809,85,58,0
205.89809,206.0182,86,65,0
206.0182,206.13885,83,57,0
206.13885,206.26512,81,45,0
206.26512,206.3993,79,45,0
206.3993,206.91306,78,56,0
206.3993,206.91306,74,47,0
206.91306,207.16992,76,50,0
206.91306,207.16992,73,42,0
207.42679,207.5515,66,46,0
207.5515,207.6762,62,47,0
207.6762,207.80089,69,49,0
207.80089,207.92558,66,53,0
207.92558,208.0486,74,62,0
208.0486,208.17162,69,49,0
208.17162,208.29462,71,49,0
208.29462,208.41763,73,49,0
208.41763,208.54065,74,60,0
208.54065,208.66365,76,48,0
208.66365,208.78667,78,48,0
208.78667,208.90968,79,48,0
208.90968,209.03268,81,61,0
209.03268,209.1557,78,52,0
209.1557,209.27872,76,52,0
209.27872,209.40552,74,50,0
209.40552,209.5275,73,54,0
209.5275,209.64867,74,45,0
209.64867,209.76985,76,45,0
209.76985,209.89102,78,45,0
209.89102,210.01219,79,56,0
210.01219,210.13336,78,47,0
210.13336,210.25453,76,48,0
210.25453,210.3757,74,49,0
210.3757,210.49689,73,55,0
210.49689,210.61806,71,45,0
210.61806,210.73923,69,45,0
210.73923,210.86658,67,45,0
210.86658,210.9879,66,55,0
210.9879,211.10858,69,46,0
211.10858,211.22906,67,46,0
211.22906,211.34927,66,46,0
211.34927,211.46924,64,55,0
211.46924,211.58896,71,45,0
211.58896,211.70833,69,45,0
211.70833,211.82794,67,45,0
211.82794,211.94806,66,53,0
211.94806,212.06871,64,42,0
212.06871,212.19498,62,45,0
212.19498,212.32916,61,38,0
212.32916,212.84291,62,53,0
213.35664,213.48134,78,53,0
213.48134,213.60605,74,55,0
213.60605,213.73074,81,61,0
213.73074,213.85544,78,63,0
213.85544,213.97612,86,71,0
213.97612,214.09682,81,55,0
214.09682,214.2175,78,55,0
214.2175,214.33818,74,55,0
214.33818,214.48445,71,69,0
214.4552,214.5722,74,56,0
214.5722,214.68977,76,56,0
214.68977,214.80734,80,51,0
214.80734,214.95303,73,68,0
214.9239,215.04045,76,55,0
215.04045,215.15701,85,53,0
215.15701,215.2774,88,51,0
215.2774,215.42368,71,62,0
215.39442,215.51144,74,53,0
215.51144,215.62845,79,53,0
215.62845,215.74547,83,53,0
215.74547,215.89174,69,58,0
215.86249,215.97949,73,47,0
215.97949,216.09651,78,47,0
216.09651,216.21352,81,47,0
216.21352,216.35979,67,55,0
216.33054,216.44756,71,48,0
216.44756,216.56456,76,48,0
216.56456,216.68593,79,45,0
216.68593,216.83382,66,61,0
216.80424,216.92255,69,50,0
216.92255,217.04132,74,50,0
217.04132,217.1601,78,47,0
217.1601,217.30682,64,55,0
217.27747,217.39485,67,50,0
217.39485,217.51457,73,50,0
217.51457,217.6343,79,48,0
217.6343,217.75401,62,54,0
217.75401,217.87375,69,46,0
217.87375,217.99347,78,46,0
217.99347,218.1307,86,47,0
218.1307,218.63794,78,56,0
218.1307,218.63794,74,47,0
218.63794,218.89156,76,50,0
218.63794,218.89156,73,42,0
219.14517,219.26987,78,52,0
219.26987,219.39456,74,57,0
219.39456,219.51927,81,61,0
219.51927,219.64397,78,61,0
219.64397,219.76465,86,73,0
219.76465,219.88533,81,57,0
219.88533,220.00603,78,57,0
220.00603,220.12671,74,57,0
220.12671,220.27354,71,65,0
220.24417,220.36165,74,53,0
220.36165,220.47968,76,53,0
220.47968,220.5977,80,53,0
220.5977,220.74397,73,64,0
220.71472,220.83173,76,53,0
220.83173,220.94966,85,53,0
220.94966,221.06958,88,53,0
221.06958,221.21585,71,61,0
221.18658,221.3036,74,49,0
221.3036,221.42201,79,49,0
221.42201,221.5404,83,46,0
221.5404,221.6877,69,57,0
221.65825,221.7761,73,43,0
221.7761,221.8944,78,43,0
221.8944,222.01224,81,43,0
222.01224,222.16,67,50,0
222.13008,222.2498,71,45,0
222.2498,222.36952,76,45,0
222.36952,222.49527,79,45,0
222.49527,222.64491,66,61,0
222.61499,222.73471,69,50,0
222.73471,222.85687,74,50,0
222.85687,222.97903,78,47,0
222.97903,223.12988,67,54,0
223.09972,223.2204,71,43,0
223.2204,223.34108,76,43,0
223.34108,223.47408,79,42,0
223.47408,223.59825,57,50,0
223.59825,223.72244,64,38,0
223.72244,223.85368,67,38,0
223.85368,223.9989,73,38,0
223.9989,224.50613,66,50,0
223.9989,224.50613,74,50,0
225.01337,225.13806,78,39,0
225.13806,225.26276,74,41,0
225.26276,225.38747,81,45,0
225.38747,225.51216,78,47,0
225.51216,225.63516,86,53,0
225.63516,225.75818,81,41,0
225.75818,225.8812,78,41,0
225.8812,226.0042,74,41,0
226.0042,226.14877,71,51,0
226.11986,226.23552,74,42,0
226.23552,226.35345,76,42,0
226.35345,226.47139,80,38,0
226.47139,226.61928,73,51,0
226.58969,226.70801,76,41,0
226.70801,226.82631,85,39,0
226.82631,226.94917,88,38,0
226.94917,227.09589,71,46,0
227.06654,227.18393,74,39,0
227.18393,227.3014,79,39,0
227.3014,227.42027,83,39,0
227.42027,227.56642,69,43,0
227.53719,227.65411,73,35,0
227.65411,227.77289,78,35,0
227.77289,227.89166,81,35,0
227.89166,228.03793,67,41,0
228.00859,228.12596,71,36,0
228.12596,228.2438,76,36,0
228.2438,228.36617,79,33,0
228.36617,228.5129,66,45,0
228.48355,228.60092,69,37,0
228.60092,228.7197,74,37,0
228.7197,228.83847,78,35,0
228.83847,228.9852,64,41,0
228.95586,229.07323,67,37,0
229.07323,229.19296,73,37,0
229.19296,229.31268,79,36,0
229.31268,229.43454,62,40,0
229.43454,229.5564,69,34,0
229.5564,229.67827,78,34,0
229.67827,229.8155,86,35,0
229.8155,230.32274,78,42,0
229.8155,230.32274,74,35,0
230.32274,230.57635,76,37,0
230.32274,230.57635,73,31,0
230.82997,230.95467,78,39,0
230.95467,231.07936,74,42,0
231.07936,231.20407,81,45,0
231.20407,231.32877,78,45,0
231.32877,231.44945,86,54,0
231.44945,231.57013,81,42,0
231.57013,231.69083,78,42,0
231.69083,231.81151,74,42,0
231.81151,231.9572,71,48,0
231.92807,232.04463,74,39,0
232.04463,232.16127,76,39,0
232.16127,232.27792,80,39,0
232.27792,232.4242,73,48,0
232.39494,232.51195,76,39,0
232.51195,232.62952,85,39,0
232.62952,232.74895,88,39,0
232.74895,232.89522,71,45,0
232.86597,232.98299,74,36,0
232.98299,233.1027,79,36,0
233.1027,233.22243,83,34,0
233.22243,233.37111,69,42,0
233.3413,233.46054,73,32,0
233.46054,233.57932,78,32,0
233.57932,233.69762,81,32,0
233.69762,233.84595,67,37,0
233.81602,233.93575,71,33,0
233.93575,234.05547,76,33,0
234.05547,234.18121,79,33,0
234.18121,234.33267,66,45,0
234.30238,234.42355,69,37,0
234.42355,234.5493,74,37,0
234.5493,234.67503,78,35,0
234.67503,234.82964,67,40,0
234.7987,234.92238,71,32,0
234.92238,235.04605,76,32,0
235.04605,235.17905,79,31,0
235.17905,235.3215,57,37,0
235.3215,235.46397,64,28,0
235.46397,235.61504,67,28,0
235.61504,235.80186,73,28,0
235.80186,236.44919,66,37,0
235.80186,236.44919,74,37,0
1.490309,1.6133202,62,46,0
1.982354,2.1053653,66,41,0
2.474399,2.7204216,62,41,0
2.966444,3.444944,69,47,0
3.444944,3.918167,57,38,0
3.918167,4.404824,61,38,0
4.404824,4.8867307,62,45,0
4.8867307,5.3647523,66,47,0
5.3647523,5.851821,67,48,0
5.851821,6.348592,69,39,0
6.348592,6.7211704,57,30,0
7.354398,7.4774094,62,46,0
7.846443,7.9694543,66,41,0
8.338488,8.584511,62,41,0
8.830533,9.31244,69,47,0
9.31244,9.790462,61,38,0
9.790462,10.27753,62,39,0
10.27753,11.274668,67,47,0
10.27753,11.274668,55,39,0
11.274668,11.801909,57,34,0
11.274668,11.801909,64,40,0
11.801909,12.29456,62,46,0
12.29456,12.81954,50,28,0
13.328575,13.451587,62,46,0
13.82062,13.943631,66,41,0
14.312665,14.558687,62,41,0
14.80471,15.28321,69,47,0
15.28321,15.753098,57,38,0
15.753098,16.23584,61,38,0
16.23584,16.717747,62,45,0
16.717747,17.194355,66,47,0
17.194355,17.683887,67,48,0
17.683887,18.180658,69,39,0
18.180658,18.553236,57,30,0
19.186464,19.309475,62,46,0
19.678509,19.801521,66,41,0
20.170555,20.416576,62,41,0
20.6626,21.144506,69,47,0
21.144506,21.622528,61,38,0
21.622528,22.109596,62,39,0
22.109596,23.108202,67,47,0
22.109596,23.108202,55,39,0
23.108202,23.635443,57,34,0
23.108202,23.635443,64,40,0
23.635443,24.13632,62,46,0
24.13632,24.6613,50,34,0
25.671934,26.155294,74,38,0
26.155294,26.63967,73,37,0
26.63967,27.117985,71,38,0
27.117985,27.5985,69,39,0
27.5985,28.084303,67,40,0
28.084303,28.57571,66,46,0
28.57571,29.074932,64,48,0
29.074932,29.597046,62,48,0
29.597046,30.110788,69,43,0
30.110788,30.36766,57,36,0
31.635166,32.1171,74,38,0
32.1171,32.600056,73,37,0
32.600056,33.079765,71,38,0
33.079765,33.558876,69,39,0
33.558876,34.046116,67,41,0
34.046116,34.537525,66,47,0
34.537525,35.036243,69,42,0
35.036243,35.538155,57,38,0
35.538155,36.056335,62,47,0
36.056335,36.4518,50,31,0
37.594257,38.07225,74,38,0
38.07225,38.5513,73,37,0
38.5513,39.029617,71,38,0
39.029617,39.51013,69,39,0
39.51013,39.995934,67,40,0
39.995934,40.487343,66,46,0
40.487343,40.986565,64,48,0
40.986565,41.50868,62,48,0
41.50868,42.022423,69,43,0
42.022423,42.279293,57,36,0
43.5468,44.02619,74,38,0
44.02619,44.506626,73,37,0
44.506626,44.986336,71,38,0
44.986336,45.465446,69,39,0
45.465446,45.952686,67,41,0
45.952686,46.444096,66,47,0
46.444096,46.942814,69,42,0
46.942814,47.444725,57,38,0
47.444725,47.962906,62,47,0
47.962906,48.358368,50,31,0
49.45354,49.9369,53,47,0
49.9369,50.421276,50,40,0
50.421276,51.37469,52,48,0
51.37469,51.860493,49,40,0
51.860493,52.3519,50,46,0
52.3519,52.85112,41,48,0
52.85112,53.373234,43,41,0
53.373234,53.88698,45,43,0
53.88698,54.14385,33,36,0
54.88379,55.84604,60,47,0
54.88379,55.84604,57,39,0
54.88379,55.84604,53,39,0
55.84604,56.330414,65,40,0
55.84604,56.330414,63,34,0
56.330414,56.808727,62,45,0
56.808727,57.283825,58,43,0
56.330414,57.283825,65,53,0
57.283825,57.769627,55,45,0
57.283825,57.769627,58,54,0
57.769627,58.261036,60,61,0
57.769627,58.261036,57,51,0
58.261036,58.759754,60,42,0
58.759754,59.261665,48,38,0
59.261665,59.779846,53,47,0
59.779846,60.17531,41,31,0
61.27048,61.748478,53,47,0
61.748478,62.232853,50,40,0
62.232853,63.186264,52,48,0
63.186264,63.672356,49,40,0
63.672356,64.16376,50,46,0
64.16376,64.66299,41,48,0
64.66299,65.18852,43,41,0
65.18852,65.70226,45,43,0
65.70226,65.95914,33,36,0
66.69907,67.65596,60,47,0
66.69907,67.65596,57,39,0
66.69907,67.65596,53,39,0
67.65596,68.137794,65,40,0
67.65596,68.137794,63,34,0
68.137794,68.61611,62,45,0
68.61611,69.0912,58,43,0
68.137794,69.0912,65,53,0
69.0912,69.57701,55,45,0
69.0912,69.57701,58,54,0
69.57701,70.06841,60,61,0
69.57701,70.06841,57,51,0
70.06841,70.56713,60,42,0
70.56713,71.069046,48,38,0
71.069046,71.58723,53,47,0
71.58723,71.98269,41,31,0
73.077866,73.56122,72,35,0
73.077866,73.56122,69,29,0
73.56122,74.04559,70,30,0
73.56122,74.04559,67,25,0
74.04559,74.99901,66,30,0
74.04559,74.99901,69,36,0
74.99901,75.48481,74,34,0
74.99901,75.48481,67,28,0
75.48481,75.97622,64,33,0
75.97622,76.47544,65,40,0
75.48481,76.47544,72,39,0
76.47544,76.97988,55,28,0
76.47544,76.97988,67,34,0
76.97988,77.750496,64,36,0
76.97988,77.750496,57,25,0
78.96933,79.45268,61,42,0
78.96933,79.45268,58,35,0
79.45268,79.93706,58,36,0
79.45268,79.93706,55,30,0
79.93706,80.415375,57,45,0
79.93706,80.415375,62,53,0
79.93706,80.415375,53,45,0
80.415375,80.89047,61,43,0
80.415375,80.89047,55,43,0
80.415375,80.89047,52,43,0
80.89047,81.386986,53,45,0
80.89047,81.386986,62,54,0
80.89047,81.386986,50,45,0
81.386986,81.87839,55,61,0
81.87839,82.377106,57,42,0
82.377106,82.87902,45,38,0
82.87902,83.3972,50,47,0
83.3972,83.79266,38,31,0
84.88124,85.360634,72,35,0
84.88124,85.360634,69,29,0
85.360634,85.84501,70,30,0
85.360634,85.84501,67,25,0
85.84501,86.79321,66,30,0
85.84501,86.79321,69,36,0
86.79321,87.279015,74,34,0
86.79321,87.279015,67,28,0
87.279015,87.770424,64,33,0
87.770424,88.269646,65,40,0
87.279015,88.269646,72,39,0
88.269646,88.774086,55,28,0
88.269646,88.774086,67,34,0
88.774086,89.5447,64,36,0
88.774086,89.5447,57,25,0
90.76353,91.24689,61,42,0
90.76353,91.24689,58,35,0
91.24689,91.72872,58,36,0
91.24689,91.72872,55,30,0
91.72872,92.20319,57,45,0
91.72872,92.20319,62,53,0
91.72872,92.20319,53,45,0
92.20319,92.67829,61,43,0
92.20319,92.67829,55,43,0
92.20319,92.67829,52,43,0
92.67829,93.17671,53,45,0
92.67829,93.17671,62,54,0
92.67829,93.17671,50,45,0
93.17671,93.66812,55,61,0
93.66812,94.16684,57,42,0
94.16684,94.668755,45,38,0
94.668755,95.18693,50,47,0
95.18693,95.5824,38,31,0
96.19696,96.2573,62,46,0
96.67682,96.79751,66,41,0
97.15956,97.40093,62,41,0
97.6423,97.885994,69,47,0
98.120804,98.59403,57,38,0
98.59403,99.076775,61,38,0
99.076775,99.55457,62,45,0
99.55457,100.03259,66,47,0
100.03259,100.51966,67,55,0
100.51966,101.01643,69,39,0
101.01643,101.38901,57,30,0
101.99401,102.05435,62,46,0
102.47388,102.59456,66,41,0
102.95662,103.19417,62,41,0
103.43172,103.66833,69,47,0
103.91465,104.38787,61,38,0
104.38787,104.876205,62,38,0
104.876205,105.35811,55,45,0
105.35811,105.836136,57,47,0
105.836136,106.328384,45,48,0
106.328384,106.83562,50,46,0
106.83562,107.360596,38,28,0
107.84334,107.90208,62,46,0
108.31677,108.43746,66,41,0
108.799515,109.040886,62,41,0
109.28226,109.52094,69,47,0
109.75575,110.22898,57,38,0
110.22898,110.71172,61,38,0
110.71172,111.18952,62,45,0
111.18952,111.66754,66,47,0
111.66754,112.15461,67,48,0
112.15461,112.65138,69,39,0
112.65138,113.023964,57,30,0
113.62896,113.68816,62,46,0
114.104256,114.22494,66,41,0
114.587,114.82454,62,41,0
115.06209,115.298706,69,47,0
115.54831,116.02153,61,43,0
116.02153,116.50986,62,48,0
116.50986,116.99177,55,45,0
116.99177,117.46979,57,47,0
117.46979,117.96204,45,48,0
117.96204,118.46927,50,46,0
118.46927,118.994255,38,28,0
119.956856,120.4396,62,38,0
120.4396,120.92234,61,37,0
120.92234,121.40084,59,38,0
121.40084,121.87406,57,39,0
121.87406,122.356804,55,40,0
122.356804,122.83461,54,41,0
122.83461,123.31263,52,39,0
123.31263,123.7997,50,39,0
123.7997,124.29647,57,43,0
124.29647,124.54485,45,36,0
125.755844,126.23859,74,38,0
126.23859,126.72853,73,37,0
126.72853,127.217514,71,38,0
127.217514,127.70457,69,39,0
127.70457,128.19417,67,40,0
128.19417,128.43651,66,47,0
128.55768,128.68556,67,44,0
128.68556,129.18428,69,42,0
129.18428,129.6862,57,38,0
129.6862,130.20438,62,47,0
130.20438,130.59984,50,31,0
131.68692,132.16966,62,38,0
132.16966,132.6524,61,37,0
132.6524,133.12402,59,38,0
133.12402,133.59724,57,39,0
133.59724,134.07999,55,40,0
134.07999,134.55779,54,41,0
134.55779,135.03581,52,39,0
135.03581,135.52287,50,39,0
135.52287,136.01965,57,43,0
136.01965,136.26804,45,36,0
137.47353,137.95627,74,38,0
137.95627,138.44621,73,37,0
138.44621,138.9352,71,38,0
138.9352,139.41827,69,39,0
139.41827,139.90741,67,40,0
139.90741,140.14975,66,47,0
140.27092,140.3988,67,44,0
140.3988,140.89754,69,42,0
140.89754,141.39944,57,38,0
141.39944,141.91762,62,47,0
141.91762,142.31308,50,31,0
143.40826,143.89162,53,47,0
143.89162,144.37102,50,40,0
144.37102,144.84572,52,48,0
144.84572,145.32082,47,40,0
145.32082,145.80365,49,40,0
145.80365,146.29506,50,46,0
146.29506,146.79103,41,48,0
146.79103,147.3388,43,41,0
147.3388,147.85254,45,43,0
147.85254,148.10942,33,36,0
148.84935,149.80736,60,47,0
148.84935,149.80736,57,39,0
148.84935,149.80736,53,39,0
149.80736,150.28752,65,40,0
149.80736,150.28752,63,34,0
150.28752,150.76584,62,45,0
150.76584,151.24092,58,47,0
150.28752,151.24092,65,53,0
151.24092,151.72673,58,58,0
151.24092,151.72673,55,49,0
151.72673,152.21814,57,57,0
151.72673,152.21814,60,68,0
152.21814,152.72206,60,42,0
152.72206,153.21361,48,38,0
153.21361,153.73178,53,47,0
153.73178,154.12724,41,31,0
155.22241,155.70041,53,47,0
155.70041,156.17728,50,40,0
156.17728,156.65198,52,48,0
156.65198,157.12708,47,40,0
157.12708,157.60991,49,40,0
157.60991,158.10132,50,46,0
158.10132,158.60054,41,48,0
158.60054,159.14272,43,41,0
159.14272,159.65645,45,43,0
159.65645,159.91333,33,36,0
160.65326,161.60397,60,47,0
160.65326,161.60397,57,39,0
160.65326,161.60397,53,39,0
161.60397,162.08028,65,40,0
161.60397,162.08028,63,34,0
162.08028,162.5586,62,45,0
162.5586,163.03369,58,47,0
162.08028,163.03369,65,53,0
163.03369,163.5195,58,58,0
163.03369,163.5195,55,49,0
163.5195,164.01091,57,57,0
163.5195,164.01091,60,68,0
164.01091,164.51483,60,42,0
164.51483,165.00636,48,38,0
165.00636,165.52455,53,47,0
165.52455,165.92001,41,31,0
167.01518,167.49855,72,35,0
167.01518,167.49855,69,29,0
167.49855,167.98293,70,30,0
167.49855,167.98293,67,25,0
167.98293,168.93634,66,30,0
167.98293,168.93634,69,36,0
168.93634,169.42213,74,34,0
168.93634,169.42213,67,28,0
169.42213,169.91035,64,33,0
169.91035,170.40958,65,40,0
169.42213,170.40958,72,39,0
170.40958,170.91402,55,28,0
170.40958,170.91402,67,34,0
170.91402,171.68463,64,36,0
170.91402,171.68463,57,25,0
172.90346,173.38683,61,42,0
172.90346,173.38683,58,35,0
173.38683,173.86978,58,36,0
173.38683,173.86978,55,30,0
173.86978,174.3481,57,45,0
173.86978,174.3481,62,53,0
173.86978,174.3481,53,45,0
174.3481,174.8232,61,43,0
174.3481,174.8232,55,43,0
174.3481,174.8232,52,43,0
174.8232,175.3197,53,45,0
174.8232,175.3197,62,54,0
174.8232,175.3197,50,45,0
175.3197,175.81111,55,61,0
175.81111,176.30983,57,42,0
176.30983,176.81174,45,38,0
176.81174,177.32993,50,47,0
177.32993,177.72539,38,31,0
178.82056,179.30391,72,35,0
178.82056,179.30391,69,29,0
179.30391,179.78297,70,30,0
179.30391,179.78297,67,25,0
179.78297,180.72917,66,30,0
179.78297,180.72917,69,36,0
180.72917,181.21498,74,34,0
180.72917,181.21498,67,28,0
181.21498,181.70319,64,33,0
181.70319,182.20242,65,40,0
181.21498,182.20242,72,39,0
182.20242,182.70686,55,28,0
182.20242,182.70686,67,34,0
182.70686,183.47748,64,36,0
182.70686,183.47748,57,25,0
184.6963,185.17569,61,42,0
184.6963,185.17569,58,35,0
185.17569,185.65474,58,36,0
185.17569,185.65474,55,30,0
185.65474,186.12785,57,45,0
185.65474,186.12785,62,53,0
185.65474,186.12785,53,45,0
186.12785,186.59775,61,43,0
186.12785,186.59775,55,43,0
186.12785,186.59775,52,43,0
186.59775,187.10056,53,45,0
186.59775,187.10056,62,54,0
186.59775,187.10056,50,45,0
187.10056,187.59196,55,61,0
187.59196,188.09068,57,42,0
188.09068,188.59259,45,38,0
188.59259,189.11078,50,47,0
189.11078,189.50624,38,31,0
190.1471,190.23935,62,46,0
190.63914,190.7314,66,41,0
191.13118,191.37721,62,41,0
191.62323,192.10173,69,47,0
192.10173,192.57495,57,38,0
192.57495,193.06161,61,38,0
193.06161,193.54369,62,45,0
193.54369,194.02632,66,47,0
194.02632,194.52286,67,48,0
194.52286,195.01964,69,39,0
195.01964,195.39221,57,30,0
196.02544,196.11769,62,46,0
196.51749,196.60974,66,41,0
197.00952,197.25555,62,41,0
197.50157,197.98347,69,47,0
197.98347,198.45871,61,38,0
198.45871,198.94196,62,39,0
198.94196,199.93909,67,47,0
198.94196,199.93909,55,39,0
199.93909,200.46634,57,34,0
199.93909,200.46634,64,40,0
200.46634,200.95898,62,46,0
200.95898,201.48396,50,28,0
202.48505,202.97708,66,41,0
202.97708,203.47566,62,37,0
203.47566,203.96117,64,48,0
203.96117,204.44586,61,41,0
204.44586,204.93672,57,46,0
204.93672,205.41942,62,45,0
205.41942,205.89809,59,52,0
205.89809,206.3993,55,47,0
206.3993,206.91306,57,43,0
206.91306,207.16992,45,36,0
208.41763,208.90968,66,41,0
208.90968,209.40552,62,41,0
209.40552,209.89102,64,53,0
209.89102,210.3757,57,41,0
210.3757,210.86658,61,37,0
210.86658,211.34927,62,45,0
211.34927,211.82794,55,39,0
211.82794,212.32916,45,39,0
211.82794,212.32916,57,39,0
212.32916,212.84291,50,43,0
212.84291,213.09978,38,36,0
218.1307,218.63794,57,43,0
218.63794,218.89156,45,36,0
223.9989,224.50613,62,39,0
224.50613,224.75975,50,33,0
229.8155,230.32274,57,32,0
230.32274,230.57635,45,27,0
235.80186,236.44919,62,29,0
236.44919,236.77284,50,24,0
