start_time,end_time,note_value,velocity,instrument_program_number
2.712121,3.012121,60,51,0
2.712121,3.012121,57,51,0
2.712121,3.612121,65,60,0
3.612121,3.912121,60,56,0
3.912121,4.209151,70,60,0
4.209151,4.5047245,69,54,0
4.5047245,4.7988424,67,54,0
4.7988424,5.1113424,65,54,0
5.1113424,5.411342,64,60,0
5.7113423,6.011342,65,57,0
6.3113422,6.6113424,67,60,0
6.911342,7.227132,69,55,0
7.542921,7.8459516,64,51,0
7.542921,7.8459516,67,51,0
7.542921,8.452012,70,60,0
8.452012,8.755042,67,56,0
8.755042,9.052072,76,60,0
9.052072,9.350587,74,54,0
9.350587,9.650587,72,54,0
9.650587,9.963087,70,54,0
9.963087,10.266117,69,60,0
10.569147,10.872178,70,57,0
11.175208,11.478238,72,60,0
11.781268,12.093768,73,61,0
12.406268,13.306269,74,55,0
13.306269,13.606268,76,48,0
13.606268,13.906268,79,55,0
13.906268,14.206268,77,51,0
14.206268,14.5062685,76,51,0
14.5062685,14.806269,74,51,0
14.806269,15.275019,72,55,0
15.431269,16.03127,72,49,0
16.03127,16.106268,70,49,0
16.106268,16.181269,72,44,0
16.181269,16.256268,70,49,0
16.256268,16.331268,72,42,0
16.331268,16.431269,70,49,0
16.431269,16.53127,72,45,0
16.53127,16.631268,70,45,0
16.631268,17.262848,69,49,0
17.262848,17.712847,67,54,0
17.862848,18.012848,69,49,0
18.012848,18.162848,67,43,0
18.162848,18.312847,66,44,0
18.312847,18.462847,67,44,0
18.462847,19.062847,70,49,0
19.062847,19.694426,74,44,0
19.694426,21.512608,65,44,0
21.512608,21.673899,64,42,0
21.673899,21.835188,65,38,0
21.835188,22.15777,64,42,0
22.15777,22.463892,60,51,0
22.15777,22.463892,57,51,0
22.15777,23.076138,65,60,0
23.076138,23.38226,60,56,0
23.38226,23.679289,70,60,0
23.679289,23.976318,69,54,0
23.976318,24.273348,67,54,0
24.273348,24.589138,65,54,0
24.589138,25.030315,64,60,0
25.030315,25.18821,60,53,0
25.18821,25.629387,65,57,0
25.629387,25.788961,60,53,0
25.788961,26.230137,67,60,0
26.230137,26.388033,60,53,0
26.388033,26.833664,69,55,0
26.833664,26.9985,60,53,0
26.9985,27.88959,70,60,0
27.88959,28.186619,67,56,0
28.186619,28.483648,76,60,0
28.483648,28.780678,74,54,0
28.780678,29.06914,72,54,0
29.06914,29.38164,70,54,0
29.38164,29.98164,69,60,0
29.98164,30.58164,70,57,0
30.58164,31.18164,72,60,0
31.18164,31.80664,73,61,0
32.10664,32.40664,73,55,0
32.40664,32.70664,74,58,0
32.70664,33.00664,76,55,0
33.00664,33.30664,77,57,0
33.30664,33.60664,78,59,0
33.60664,33.90664,79,61,0
33.90664,34.20664,81,63,0
34.20664,34.503086,82,65,0
34.503086,34.795612,83,68,0
34.795612,35.084305,84,70,0
35.084305,35.395805,85,68,0
35.395805,35.684265,86,75,0
35.684265,35.97273,81,63,0
35.97273,36.26119,82,66,0
36.26119,36.610027,79,61,0
36.610027,38.446762,77,71,0
38.446762,38.75604,79,41,0
38.75604,39.135784,77,35,0
39.135784,40.398945,76,39,0
41.598946,42.787064,79,60,0
42.787064,43.08118,77,55,0
43.08118,43.375298,76,50,0
43.375298,43.669415,74,55,0
43.669415,43.90878,72,49,0
43.988564,45.165035,72,55,0
45.165035,45.303925,71,55,0
45.303925,45.442814,72,51,0
45.442814,46.031048,71,57,0
46.031048,46.32517,71,51,0
46.32517,46.61643,72,55,0
46.61643,46.907692,74,52,0
46.907692,47.198956,76,54,0
47.198956,47.490215,77,55,0
47.490215,47.77868,79,59,0
47.77868,48.06714,81,61,0
48.06714,48.355602,83,64,0
48.355602,48.58756,84,66,0
48.66488,48.95334,84,66,0
48.95334,49.241802,83,64,0
49.241802,49.383312,81,61,0
49.524822,49.66633,79,59,0
49.80784,50.09086,79,57,0
50.09086,50.37388,77,55,0
50.37388,50.515385,76,52,0
50.656895,50.81647,74,50,0
50.976044,51.84143,79,64,0
51.84143,51.98566,81,59,0
51.98566,52.12989,79,55,0
52.12989,52.415604,77,62,0
52.415604,52.70132,76,55,0
52.70132,52.987034,74,57,0
52.987034,53.22141,72,55,0
53.299534,54.45338,72,61,0
54.45338,54.588516,71,55,0
54.588516,54.723648,72,51,0
54.723648,55.28969,71,55,0
55.28969,55.572704,77,52,0
55.572704,55.712894,76,60,0
55.85308,55.993267,77,55,0
56.133453,56.274963,79,60,0
56.416473,56.55666,81,61,0
56.696846,56.835735,83,70,0
56.974625,57.11481,84,65,0
57.254997,57.396507,83,68,0
57.538017,57.688015,84,66,0
57.838017,58.12373,84,73,0
58.12373,58.409443,83,66,0
58.409443,58.69516,81,67,0
58.69516,58.909443,79,64,0
58.980873,59.266586,79,69,0
59.266586,59.552303,77,64,0
59.552303,59.838017,76,62,0
59.838017,60.14414,74,61,0
60.14414,60.42985,76,62,0
60.42985,60.718315,77,62,0
60.718315,61.006775,76,69,0
61.006775,61.29249,77,68,0
61.29249,61.58095,79,76,0
61.58095,61.87798,81,74,0
61.87798,62.166443,79,83,0
62.166443,62.49253,81,78,0
62.49253,64.82426,70,75,0
62.49253,64.82426,82,89,0
65.115524,65.40124,81,70,0
65.40124,65.68695,80,75,0
65.68695,65.972664,81,68,0
66.25838,66.54409,79,67,0
66.54409,66.82981,78,76,0
66.82981,67.12684,79,67,0
67.41255,67.698265,78,70,0
67.698265,67.83463,78,69,0
67.83463,67.97099,79,63,0
67.97099,68.26225,78,68,0
68.54527,68.82829,77,72,0
68.82829,68.96465,77,72,0
68.96465,69.10102,79,65,0
69.10102,69.39805,77,75,0
69.68107,69.96409,76,67,0
69.96409,70.24711,77,70,0
70.24711,70.47438,79,72,0
70.55014,70.83585,79,72,0
70.83585,71.12157,69,66,0
71.12157,71.40728,77,72,0
71.40728,71.69299,74,65,0
71.69299,72.83673,72,72,0
72.83673,72.93349,71,68,0
72.93349,73.02909,72,60,0
73.02909,73.12348,71,68,0
73.12348,73.21664,72,61,0
73.21664,73.30923,71,68,0
73.30923,73.40191,72,61,0
73.40191,73.968925,71,68,0
74.251945,74.534966,84,72,0
74.534966,74.817986,88,78,0
74.817986,75.11798,84,72,0
75.11798,75.401,83,77,0
75.401,75.68402,81,69,0
75.68402,75.96704,79,76,0
75.96704,76.25006,77,67,0
76.25006,77.38213,76,75,0
77.38213,77.47846,74,68,0
77.47846,77.57499,76,60,0
77.57499,77.67071,74,68,0
77.67071,77.76563,76,61,0
77.76563,77.85944,74,68,0
77.85944,77.9529,76,61,0
77.93888,78.03234,74,68,0
78.034676,78.12888,76,60,0
78.126526,78.22086,74,68,0
78.22794,78.372734,72,63,0
78.372734,78.529236,74,62,0
78.5373,78.82301,72,68,0
79.10873,79.39444,72,40,0
79.10873,79.39444,76,48,0
79.68015,79.96587,72,40,0
79.68015,79.96587,76,48,0
80.25159,80.5373,72,40,0
80.25159,80.5373,76,48,0
80.82301,80.95576,77,52,0
80.95576,81.0885,76,47,0
81.0885,81.22868,74,47,0
81.22868,81.36887,76,48,0
80.82301,81.36887,72,44,0
81.36887,81.92962,76,44,0
81.36887,81.92962,79,52,0
81.92962,82.49037,76,60,0
81.92962,82.49037,72,51,0
82.49037,83.12867,69,55,0
82.49037,83.12867,72,66,0
83.12867,84.52794,65,60,0
83.12867,84.52794,69,72,0
84.52794,84.80572,69,58,0
84.52794,84.80572,65,49,0
84.80572,85.083496,71,58,0
84.80572,85.083496,67,49,0
85.083496,85.356224,72,58,0
85.083496,85.356224,69,49,0
85.38653,85.6643,72,63,0
85.38653,85.6643,69,53,0
85.6643,85.94208,71,59,0
85.6643,85.94208,67,50,0
85.94208,86.21986,65,50,0
85.94208,86.21986,69,59,0
86.21986,86.481995,67,59,0
86.21986,86.481995,64,50,0
86.51112,86.794136,67,63,0
86.51112,86.794136,64,53,0
86.794136,87.077156,65,53,0
86.794136,87.077156,62,45,0
87.077156,87.360176,64,53,0
87.077156,87.360176,60,45,0
87.360176,87.64439,59,45,0
87.360176,87.64439,62,53,0
88.2474,88.437874,72,63,0
88.437874,88.62835,76,57,0
88.62835,88.818825,84,57,0
88.818825,89.0075,72,63,0
89.0075,89.19618,76,55,0
89.19618,89.38486,84,55,0
89.38486,89.57354,72,63,0
89.57354,89.76222,76,55,0
89.76222,89.9509,84,55,0
89.9509,90.136086,72,69,0
90.136086,90.321266,76,59,0
90.321266,90.506454,84,61,0
90.506454,90.691635,76,72,0
90.691635,90.87682,79,64,0
90.87682,91.06201,88,66,0
91.06201,91.2455,72,75,0
91.2455,91.42898,76,66,0
91.42898,91.612465,84,69,0
91.612465,91.79595,69,80,0
91.79595,91.97944,72,69,0
91.97944,92.25341,81,71,0
92.25341,93.6685,65,81,0
93.6685,93.95977,69,56,0
93.6685,93.95977,72,66,0
93.95977,94.25103,67,57,0
93.95977,94.25103,71,68,0
94.25103,94.52938,69,63,0
94.25103,94.52938,65,53,0
94.56031,94.860306,69,67,0
94.56031,94.860306,65,56,0
94.860306,95.16031,64,55,0
94.860306,95.16031,67,65,0
95.16031,95.46031,65,63,0
95.16031,95.46031,62,53,0
95.46031,95.73031,60,51,0
95.46031,95.73031,64,61,0
95.76031,96.06031,64,63,0
96.06031,96.360306,62,56,0
96.360306,96.66031,60,56,0
96.66031,97.057365,59,56,0
96.66031,97.057365,53,47,0
97.10149,99.561165,59,59,0
97.10149,99.561165,53,59,0
99.68213,100.32729,60,52,0
99.68213,100.32729,52,52,0
99.68213,100.32729,55,52,0
102.243225,102.54323,57,51,0
102.243225,102.54323,60,51,0
102.243225,103.14323,65,60,0
103.14323,103.44323,60,56,0
103.44323,103.74026,70,60,0
103.74026,104.03583,69,54,0
104.03583,104.32995,67,54,0
104.32995,104.64245,65,54,0
104.64245,104.94245,64,60,0
105.24245,105.54245,65,57,0
105.842445,106.14245,67,60,0
106.44245,106.75824,69,55,0
107.07403,107.37706,64,51,0
107.07403,107.37706,67,51,0
107.07403,107.983116,70,60,0
107.983116,108.28615,67,56,0
108.28615,108.583176,76,60,0
108.583176,108.88169,74,54,0
108.88169,109.181694,72,54,0
109.181694,109.494194,70,54,0
109.494194,109.797226,69,60,0
110.10025,110.40328,70,57,0
110.706314,111.009346,72,60,0
111.31238,111.62488,73,61,0
111.93738,112.83737,74,55,0
112.83737,113.137375,76,48,0
113.137375,113.43738,79,55,0
113.43738,113.73737,77,51,0
113.73737,114.03738,76,51,0
114.03738,114.33737,74,51,0
114.33737,114.80612,72,55,0
114.96237,115.56238,72,49,0
115.56238,115.637375,70,49,0
115.637375,115.71237,72,44,0
115.71237,115.78738,70,49,0
115.78738,115.86237,72,42,0
115.86237,115.96237,70,49,0
115.96237,116.06238,72,45,0
116.06238,116.16238,70,45,0
116.16238,116.79395,69,49,0
116.79395,117.24395,67,54,0
117.39395,117.54395,69,49,0
117.54395,117.693954,67,43,0
117.693954,117.843956,66,44,0
117.843956,117.99395,67,44,0
117.99395,118.593956,70,49,0
118.593956,119.22553,74,44,0
119.22553,121.04372,65,44,0
121.04372,121.205,64,42,0
121.205,121.366295,65,38,0
121.366295,121.68887,64,42,0
121.68887,121.994995,57,51,0
121.68887,121.994995,60,51,0
121.68887,122.60725,65,60,0
122.60725,122.91337,60,56,0
122.91337,123.210396,70,60,0
123.210396,123.50742,69,54,0
123.50742,123.80446,67,54,0
123.80446,124.12025,65,54,0
124.12025,124.561424,64,60,0
124.561424,124.719315,60,53,0
124.719315,125.16049,65,57,0
125.16049,125.32007,60,53,0
125.32007,125.761246,67,60,0
125.761246,125.919136,60,53,0
125.919136,126.36477,69,55,0
126.36477,126.52961,60,53,0
126.52961,127.42069,70,60,0
127.42069,127.71773,67,56,0
127.71773,128.01476,76,60,0
128.01476,128.31178,74,54,0
128.31178,128.60025,72,54,0
128.60025,128.91275,70,54,0
128.91275,129.51274,69,60,0
129.51274,130.11275,70,57,0
130.11275,130.71275,72,60,0
130.71275,131.33775,73,61,0
131.63774,131.93774,73,55,0
131.93774,132.23775,74,58,0
132.23775,132.53775,76,55,0
132.53775,132.83775,77,57,0
132.83775,133.13774,78,59,0
133.13774,133.43774,79,61,0
133.43774,133.73775,81,63,0
133.73775,134.0342,82,65,0
134.0342,134.32672,83,68,0
134.32672,134.61542,84,70,0
134.61542,134.92691,85,68,0
134.92691,135.21538,86,75,0
135.21538,135.50383,81,63,0
135.50383,135.7923,82,66,0
135.7923,136.14113,79,61,0
136.14113,137.97786,77,71,0
137.97786,138.28714,79,41,0
138.28714,138.66689,77,35,0
138.66689,139.93005,76,39,0
141.13005,142.31818,79,60,0
142.31818,142.61229,77,55,0
142.61229,142.9064,76,50,0
142.9064,143.20052,74,55,0
143.20052,143.43988,72,49,0
143.51967,144.69614,72,55,0
144.69614,144.83504,71,55,0
144.83504,144.97392,72,51,0
144.97392,145.56215,71,57,0
145.56215,145.85628,71,51,0
145.85628,146.14754,72,55,0
146.14754,146.4388,74,52,0
146.4388,146.73006,76,54,0
146.73006,147.02132,77,55,0
147.02132,147.30978,79,59,0
147.30978,147.59825,81,61,0
147.59825,147.8867,83,64,0
147.8867,148.11867,84,66,0
148.19598,148.48445,84,66,0
148.48445,148.7729,83,64,0
148.7729,148.91441,81,61,0
149.05592,149.19743,79,59,0
149.33894,149.62196,79,57,0
149.62196,149.90498,77,55,0
149.90498,150.0465,76,52,0
150.188,150.34758,74,50,0
150.50716,151.37253,79,64,0
151.37253,151.51677,81,59,0
151.51677,151.661,79,55,0
151.661,151.94672,77,62,0
151.94672,152.23242,76,55,0
152.23242,152.51814,74,57,0
152.51814,152.75252,72,55,0
152.83064,153.98448,72,61,0
153.98448,154.11961,71,55,0
154.11961,154.25476,72,51,0
154.25476,154.8208,71,55,0
154.8208,155.1038,77,52,0
155.1038,155.244,76,60,0
155.38419,155.52437,77,55,0
155.66457,155.80608,79,60,0
155.94757,156.08777,81,61,0
156.22795,156.36684,83,70,0
156.50574,156.64592,84,65,0
156.7861,156.92761,83,68,0
157.06912,157.21912,84,66,0
157.36913,157.65483,84,73,0
157.65483,157.94055,83,66,0
157.94055,158.22627,81,67,0
158.22627,158.44055,79,64,0
158.51198,158.7977,79,69,0
158.7977,159.0834,77,64,0
159.0834,159.36913,76,62,0
159.36913,159.67525,74,61,0
159.67525,159.96095,76,62,0
159.96095,160.24942,77,62,0
160.24942,160.53789,76,69,0
160.53789,160.8236,77,68,0
160.8236,161.11206,79,76,0
161.11206,161.40909,81,74,0
161.40909,161.69756,79,83,0
161.69756,162.02364,81,78,0
162.02364,164.35536,82,89,0
162.02364,164.35536,70,75,0
164.64662,164.93234,81,70,0
164.93234,165.21806,80,75,0
165.21806,165.50377,81,68,0
165.78949,166.0752,79,67,0
166.0752,166.36092,78,76,0
166.36092,166.65794,79,67,0
166.94366,167.22937,78,70,0
167.22937,167.36574,78,69,0
167.36574,167.5021,79,63,0
167.5021,167.79337,78,68,0
168.07639,168.3594,77,72,0
168.3594,168.49576,77,72,0
168.49576,168.63213,79,65,0
168.63213,168.92915,77,75,0
169.21217,169.4952,76,67,0
169.4952,169.77821,77,70,0
169.77821,170.00548,79,72,0
170.08124,170.36696,79,72,0
170.36696,170.65266,69,66,0
170.65266,170.93839,77,72,0
170.93839,171.2241,74,65,0
171.2241,172.36783,72,72,0
172.36783,172.4646,71,68,0
172.4646,172.5602,72,60,0
172.5602,172.65459,71,68,0
172.65459,172.74774,72,61,0
172.74774,172.84033,71,68,0
172.84033,172.93301,72,61,0
172.93301,173.50003,71,68,0
173.78305,174.06607,84,72,0
174.06607,174.34909,88,78,0
174.34909,174.6491,84,72,0
174.6491,174.93211,83,77,0
174.93211,175.21512,81,69,0
175.21512,175.49814,79,76,0
175.49814,175.78116,77,67,0
175.78116,176.91324,76,75,0
176.91324,177.00957,74,68,0
177.00957,177.1061,76,60,0
177.1061,177.20181,74,68,0
177.20181,177.29674,76,61,0
177.29674,177.39055,74,68,0
177.39055,177.48401,76,61,0
177.46999,177.56345,74,68,0
177.56578,177.65999,76,60,0
177.65764,177.75197,74,68,0
177.75905,177.90384,72,63,0
177.90384,178.06033,74,62,0
178.0684,178.35413,72,68,0
178.63983,178.92555,72,40,0
178.63983,178.92555,76,48,0
179.21126,179.49698,72,40,0
179.21126,179.49698,76,48,0
179.78268,180.0684,72,40,0
179.78268,180.0684,76,48,0
180.35413,180.48686,77,52,0
180.48686,180.6196,76,47,0
180.6196,180.7598,74,47,0
180.7598,180.89998,76,48,0
180.35413,180.89998,72,44,0
180.89998,181.46072,79,52,0
180.89998,181.46072,76,44,0
181.46072,182.02147,72,51,0
181.46072,182.02147,76,60,0
182.02147,182.65977,69,55,0
182.02147,182.65977,72,66,0
182.65977,184.05905,69,72,0
182.65977,184.05905,65,60,0
184.05905,184.33682,65,49,0
184.05905,184.33682,69,58,0
184.33682,184.6146,71,58,0
184.33682,184.6146,67,49,0
184.6146,184.88733,72,58,0
184.6146,184.88733,69,49,0
184.91763,185.1954,69,53,0
184.91763,185.1954,72,63,0
185.1954,185.47319,71,59,0
185.1954,185.47319,67,50,0
185.47319,185.75096,69,59,0
185.47319,185.75096,65,50,0
185.75096,186.0131,67,59,0
185.75096,186.0131,64,50,0
186.04222,186.32524,67,63,0
186.04222,186.32524,64,53,0
186.32524,186.60826,62,45,0
186.32524,186.60826,65,53,0
186.60826,186.89128,60,45,0
186.60826,186.89128,64,53,0
186.89128,187.17549,62,53,0
186.89128,187.17549,59,45,0
187.7785,187.96898,72,63,0
187.96898,188.15945,76,57,0
188.15945,188.34993,84,57,0
188.34993,188.5386,72,63,0
188.5386,188.7273,76,55,0
188.7273,188.91597,84,55,0
188.91597,189.10464,72,63,0
189.10464,189.29332,76,55,0
189.29332,189.48201,84,55,0
189.48201,189.66719,72,69,0
189.66719,189.85237,76,59,0
189.85237,190.03757,84,61,0
190.03757,190.22275,76,72,0
190.22275,190.40793,79,64,0
190.40793,190.59311,88,66,0
190.59311,190.7766,72,75,0
190.7766,190.96008,76,66,0
190.96008,191.14357,84,69,0
191.14357,191.32706,69,80,0
191.32706,191.51054,72,69,0
191.51054,191.78452,81,71,0
191.78452,193.19962,65,81,0
193.19962,193.49088,69,56,0
193.19962,193.49088,72,66,0
193.49088,193.78214,71,68,0
193.49088,193.78214,67,57,0
193.78214,194.06049,65,53,0
193.78214,194.06049,69,63,0
194.09142,194.39142,65,56,0
194.09142,194.39142,69,67,0
194.39142,194.69142,64,55,0
194.39142,194.69142,67,65,0
194.69142,194.99141,65,63,0
194.69142,194.99141,62,53,0
194.99141,195.26141,64,61,0
194.99141,195.26141,60,51,0
195.29141,195.59142,64,63,0
195.59142,195.89142,62,56,0
195.89142,196.19142,60,56,0
196.19142,196.58847,53,47,0
196.19142,196.58847,59,56,0
196.6326,199.09227,53,59,0
196.6326,199.09227,59,59,0
199.21324,199.8584,60,52,0
199.21324,199.8584,52,52,0
199.21324,199.8584,55,52,0
201.7841,202.0841,64,51,0
201.7841,202.0841,67,51,0
201.7841,202.68411,72,60,0
202.68411,202.98412,67,56,0
202.98412,203.28114,77,60,0
203.28114,203.5767,76,54,0
203.5767,203.87083,74,54,0
203.87083,204.18333,72,54,0
204.18333,204.4746,79,60,0
206.52829,207.39368,77,60,0
207.39368,207.68213,72,56,0
207.68213,207.9706,82,60,0
207.9706,208.25917,81,54,0
208.25917,208.55328,79,54,0
208.55328,208.8594,77,54,0
208.8594,209.15352,84,60,0
210.90395,211.00104,83,60,0
211.00104,211.09813,84,62,0
211.10056,211.1976,86,64,0
211.1952,213.1952,84,67,0
213.1952,213.29045,82,60,0
213.29045,213.3857,81,60,0
213.38808,213.4833,79,60,0
213.48093,213.76665,78,68,0
213.76665,214.05235,75,63,0
214.05235,214.33807,74,63,0
214.33807,214.62378,72,64,0
214.62378,214.9095,70,68,0
214.9095,215.1952,69,70,0
215.1952,215.48093,67,71,0
215.48093,215.79672,66,73,0
215.79672,216.06506,67,74,0
216.34717,216.63289,70,77,0
216.91861,217.19383,74,82,0
217.46906,217.74944,79,84,0
218.06194,218.34232,82,86,0
220.30493,220.59064,86,90,0
220.87636,222.01382,86,90,0
222.01382,222.15533,84,72,0
222.15533,222.29684,82,73,0
222.29684,222.4531,81,74,0
222.4531,222.60934,79,74,0
222.60934,222.88971,84,84,0
223.17009,224.29158,84,84,0
224.29158,224.43176,82,70,0
224.43176,224.57196,81,72,0
224.57196,224.72502,79,73,0
224.72502,224.87808,77,75,0
224.87808,225.15845,84,77,0
225.15845,225.36873,82,68,0
225.43883,225.7192,82,72,0
225.7192,225.92947,81,67,0
225.99957,226.56032,81,72,0
227.13481,227.41258,84,61,0
227.41258,227.62093,82,57,0
227.69037,227.96814,82,61,0
227.96814,228.17648,81,54,0
228.24593,228.80148,81,60,0
229.35704,229.42712,84,69,0
229.42712,229.49722,86,63,0
229.49722,229.5673,84,69,0
229.5673,229.6374,86,61,0
229.6374,229.84769,82,68,0
229.91779,229.98787,82,68,0
229.98787,230.05797,84,61,0
230.05797,230.12807,82,68,0
230.12807,230.19815,84,62,0
230.19815,230.40843,81,67,0
230.47853,231.03928,81,72,0
231.54024,231.61377,82,62,0
231.61377,231.89154,81,70,0
231.89154,232.09988,79,65,0
232.09988,232.16933,81,62,0
232.16933,232.4471,79,70,0
232.4471,232.72488,77,62,0
232.72488,233.28044,77,69,0
233.83598,234.1217,77,65,0
234.1217,234.40742,76,57,0
234.40742,234.69313,74,61,0
234.69313,234.90742,72,54,0
234.97885,235.54489,72,60,0
235.54489,236.11092,72,54,0
236.11092,236.25655,74,54,0
236.25655,236.40219,72,54,0
236.40219,236.54782,71,54,0
236.54782,237.03325,72,60,0
238.4807,239.66882,72,60,0
239.66882,239.96294,70,55,0
239.96294,240.25706,69,50,0
240.25706,240.55118,67,55,0
240.55118,240.79054,65,49,0
240.87033,242.0468,65,55,0
242.0468,242.18568,64,55,0
242.18568,242.32457,65,51,0
242.32457,242.91281,64,57,0
242.91281,243.20692,64,51,0
243.20692,243.49818,65,55,0
243.49818,243.78946,67,52,0
243.78946,244.08072,69,54,0
244.08072,244.37198,70,55,0
244.37198,244.66043,72,59,0
244.66043,244.9489,74,61,0
244.9489,245.23737,76,64,0
245.23737,245.46931,77,66,0
245.54665,245.8351,77,66,0
245.8351,246.12357,76,64,0
246.12357,246.26508,74,61,0
246.40659,246.5481,72,59,0
246.6896,246.97263,72,57,0
246.97263,247.25563,70,55,0
247.25563,247.39714,69,52,0
247.53865,247.71307,67,50,0
247.8875,248.75288,84,72,0
248.75288,248.89711,86,64,0
248.89711,249.04134,84,60,0
249.04134,249.32706,82,68,0
249.32706,249.61276,81,60,0
249.61276,249.89848,79,62,0
249.89848,250.13286,77,60,0
250.21098,251.36482,77,70,0
251.36482,251.49997,76,60,0
251.49997,251.6351,77,56,0
251.6351,252.20114,76,60,0
252.20114,252.48416,82,57,0
252.48416,252.62434,81,66,0
252.76453,252.90471,82,60,0
253.0449,253.18642,84,66,0
253.32793,253.46811,86,67,0
253.60829,253.74718,88,77,0
253.88608,254.02626,89,71,0
254.16644,254.30795,88,74,0
254.44946,254.59947,89,72,0
254.74947,255.03517,89,80,0
255.03517,255.32089,88,72,0
255.32089,255.60661,86,73,0
255.60661,255.82089,84,70,0
255.89232,256.17804,84,75,0
256.17804,256.46375,82,70,0
256.46375,256.74945,81,68,0
256.74945,257.05557,79,67,0
257.05557,257.3413,81,68,0
257.3413,257.62976,82,68,0
257.62976,257.9182,81,75,0
257.9182,258.20395,82,74,0
258.20395,258.4924,84,83,0
258.4924,258.78943,86,81,0
258.78943,259.07788,84,91,0
259.07788,259.404,86,85,0
259.404,261.73572,75,82,0
259.404,261.73572,87,97,0
262.02698,262.31268,86,70,0
262.31268,262.5984,85,75,0
262.5984,262.88412,86,68,0
263.16983,263.45554,84,67,0
263.45554,263.74124,83,76,0
263.74124,264.0383,84,67,0
264.324,264.6097,83,70,0
264.6097,264.74606,83,69,0
264.74606,264.88245,84,63,0
264.88245,265.1737,83,68,0
265.45673,265.73975,82,72,0
265.73975,265.8761,82,72,0
265.8761,266.01248,84,65,0
266.01248,266.3095,82,75,0
266.59253,266.87555,81,67,0
266.87555,267.15857,82,70,0
267.15857,267.38583,84,72,0
267.46158,267.7473,84,72,0
267.7473,268.03302,74,66,0
268.03302,268.31873,82,72,0
268.31873,268.60443,79,65,0
268.60443,269.74817,77,72,0
269.74817,269.84494,76,68,0
269.84494,269.94055,77,60,0
269.94055,270.03494,76,68,0
270.03494,270.12808,77,61,0
270.12808,270.22067,76,68,0
270.22067,270.31335,77,61,0
270.31335,270.88037,76,68,0
271.1634,271.4464,84,72,0
271.4464,271.72943,81,75,0
271.72943,272.02942,77,67,0
272.02942,272.31244,75,77,0
272.31244,272.59546,74,69,0
272.59546,272.87848,85,82,0
272.87848,273.1615,86,76,0
273.1615,274.29358,77,75,0
274.29358,274.38992,79,68,0
274.38992,274.48645,81,60,0
274.48645,274.58215,79,68,0
274.58215,274.6771,81,61,0
274.6771,274.7709,79,68,0
274.7709,274.86435,81,61,0
274.85034,274.9438,79,68,0
274.94614,275.04034,81,60,0
275.03796,275.13232,79,68,0
275.1394,275.28418,77,63,0
275.28418,275.44067,79,62,0
275.44876,275.73447,77,68,0
276.02017,276.30588,69,48,0
276.02017,276.30588,65,40,0
276.5916,276.87732,65,40,0
276.5916,276.87732,69,48,0
277.16302,277.44876,69,48,0
277.16302,277.44876,65,40,0
277.73447,277.86722,70,52,0
277.86722,277.99994,69,47,0
277.99994,278.14014,67,47,0
278.14014,278.28033,69,48,0
277.73447,278.28033,65,44,0
278.28033,278.84106,72,52,0
278.28033,278.84106,69,44,0
278.84106,279.40182,69,60,0
278.84106,279.40182,65,51,0
279.40182,280.0401,65,66,0
279.40182,280.0401,62,55,0
280.0401,281.4394,58,60,0
280.0401,281.4394,62,72,0
281.4394,281.71716,58,49,0
281.4394,281.71716,62,58,0
281.71716,281.99493,60,49,0
281.71716,281.99493,64,58,0
281.99493,282.26767,62,49,0
281.99493,282.26767,65,58,0
282.29797,282.57574,65,63,0
282.29797,282.57574,62,53,0
282.57574,282.85352,64,59,0
282.57574,282.85352,60,50,0
282.85352,283.13132,58,50,0
282.85352,283.13132,62,59,0
283.13132,283.39343,57,50,0
283.13132,283.39343,60,59,0
283.42258,283.7056,60,63,0
283.42258,283.7056,57,53,0
283.7056,283.98862,58,53,0
283.7056,283.98862,55,45,0
283.98862,284.27164,57,53,0
283.98862,284.27164,53,45,0
284.27164,284.5874,55,53,0
284.27164,284.5874,52,45,0
285.15884,285.3493,65,50,0
285.3493,285.5398,69,46,0
285.5398,285.7303,77,46,0
285.7303,285.91895,65,52,0
285.91895,286.10764,69,46,0
286.10764,286.2963,77,46,0
286.2963,286.485,65,54,0
286.485,286.67368,69,47,0
286.67368,286.86234,77,47,0
286.86234,287.04755,65,60,0
287.04755,287.23273,69,52,0
287.23273,287.4179,77,54,0
287.4179,287.6031,69,65,0
287.6031,287.78827,72,58,0
287.78827,287.97345,81,61,0
287.97345,288.15695,65,69,0
288.15695,288.34042,69,62,0
288.34042,288.52393,77,65,0
288.52393,288.7074,62,76,0
288.7074,288.8909,65,66,0
288.8909,289.16486,74,69,0
289.16486,290.57996,58,80,0
290.57996,290.87122,77,66,0
290.57996,290.87122,74,56,0
290.87122,291.16248,72,57,0
290.87122,291.16248,76,68,0
291.16248,291.44083,74,63,0
291.16248,291.44083,70,53,0
291.47177,291.77176,74,67,0
291.47177,291.77176,70,56,0
291.77176,292.07175,72,65,0
291.77176,292.07175,69,55,0
292.07175,292.37177,70,63,0
292.07175,292.37177,67,53,0
292.37177,292.64175,65,51,0
292.37177,292.64175,69,61,0
292.67175,292.97177,69,63,0
292.97177,293.27176,67,56,0
293.27176,293.57175,65,56,0
293.57175,293.9688,64,56,0
293.57175,293.9688,58,47,0
294.01294,296.47263,64,59,0
294.01294,296.47263,58,59,0
296.59357,297.23874,60,52,0
296.59357,297.23874,65,52,0
296.59357,297.23874,57,52,0
299.16446,299.46445,64,51,0
299.16446,299.46445,67,51,0
299.16446,300.06445,72,60,0
300.06445,300.36444,67,56,0
300.36444,300.66147,77,60,0
300.66147,300.95706,76,54,0
300.95706,301.25116,74,54,0
301.25116,301.56366,72,54,0
301.56366,301.85492,79,60,0
303.90863,304.77402,77,60,0
304.77402,305.06247,72,56,0
305.06247,305.35095,82,60,0
305.35095,305.6395,81,54,0
305.6395,305.93362,79,54,0
305.93362,306.23975,77,54,0
306.23975,306.53387,84,60,0
308.2843,308.38138,83,60,0
308.38138,308.47845,84,62,0
308.4809,308.57794,86,64,0
308.57556,310.57556,84,67,0
310.57556,310.6708,82,60,0
310.6708,310.76602,81,60,0
310.7684,310.86365,79,60,0
310.86127,311.14697,78,68,0
311.14697,311.4327,75,63,0
311.4327,311.7184,74,63,0
311.7184,312.00412,72,64,0
312.00412,312.28983,70,68,0
312.28983,312.57556,69,70,0
312.57556,312.86127,67,71,0
312.86127,313.17706,66,73,0
313.17706,313.44083,67,74,0
313.7275,314.01324,70,77,0
314.29895,314.5742,74,82,0
314.8494,315.1298,79,84,0
315.4423,315.72266,82,86,0
317.68527,317.97098,86,90,0
318.25668,319.39417,86,90,0
319.39417,319.53568,84,72,0
319.53568,319.6772,82,73,0
319.6772,319.83344,81,74,0
319.83344,319.9897,79,74,0
319.9897,320.27005,84,84,0
320.5504,321.67194,84,84,0
321.67194,321.8121,82,70,0
321.8121,321.9523,81,72,0
321.9523,322.10535,79,73,0
322.10535,322.25842,77,75,0
322.25842,322.5388,84,77,0
322.5388,322.74908,82,68,0
322.81915,323.09955,82,72,0
323.09955,323.3098,81,67,0
323.3799,323.94067,81,72,0
324.51517,324.79294,84,61,0
324.79294,325.00125,82,57,0
325.0707,325.34848,82,61,0
325.34848,325.55682,81,54,0
325.62625,326.18182,81,60,0
326.73737,326.80746,84,69,0
326.80746,326.87756,86,63,0
326.87756,326.94766,84,69,0
326.94766,327.01776,86,61,0
327.01776,327.22803,82,68,0
327.29813,327.36823,82,68,0
327.36823,327.43832,84,61,0
327.43832,327.5084,82,68,0
327.5084,327.5785,84,62,0
327.5785,327.7888,81,67,0
327.85886,328.41962,81,72,0
328.9206,328.9941,82,62,0
328.9941,329.27188,81,70,0
329.27188,329.48022,79,65,0
329.48022,329.54965,81,62,0
329.54965,329.82745,79,70,0
329.82745,330.03577,77,62,0
330.10522,330.66077,77,69,0
331.21634,331.50204,77,65,0
331.50204,331.78775,76,57,0
331.78775,332.0735,74,61,0
332.0735,332.28775,72,54,0
332.3592,332.92523,72,60,0
332.92523,333.49127,72,54,0
333.49127,333.6369,74,54,0
333.6369,333.78253,72,54,0
333.78253,333.92816,71,54,0
333.92816,334.4136,72,60,0
335.86105,337.04916,72,60,0
337.04916,337.3433,70,55,0
337.3433,337.6374,69,50,0
337.6374,337.93152,67,55,0
337.93152,338.17087,65,49,0
338.25067,339.42712,65,55,0
339.42712,339.56604,64,55,0
339.56604,339.70493,65,51,0
339.70493,340.29315,64,57,0
340.29315,340.58728,64,51,0
340.58728,340.87854,65,55,0
340.87854,341.1698,67,52,0
341.1698,341.46106,69,54,0
341.46106,341.75232,70,55,0
341.75232,342.04077,72,59,0
342.04077,342.32925,74,61,0
342.32925,342.6177,76,64,0
342.6177,342.84967,77,66,0
342.92697,343.21545,77,66,0
343.21545,343.5039,76,64,0
343.5039,343.64542,74,61,0
343.78693,343.92844,72,59,0
344.06995,344.35297,72,57,0
344.35297,344.636,70,55,0
344.636,344.7775,69,52,0
344.919,345.0934,67,50,0
345.26782,346.1332,84,72,0
346.1332,346.27744,86,64,0
346.27744,346.4217,84,60,0
346.4217,346.7074,82,68,0
346.7074,346.9931,81,60,0
346.9931,347.27884,79,62,0
347.27884,347.5132,77,60,0
347.59134,348.74518,77,70,0
348.74518,348.8803,76,60,0
348.8803,349.01544,77,56,0
349.01544,349.58148,76,60,0
349.58148,349.8645,82,57,0
349.8645,350.00467,81,66,0
350.14487,350.28506,82,60,0
350.42523,350.56674,84,66,0
350.70825,350.84845,86,67,0
350.98865,351.12753,88,77,0
351.26642,351.40662,89,71,0
351.54678,351.6883,88,74,0
351.8298,351.9798,89,72,0
352.12982,352.41553,89,80,0
352.41553,352.70123,88,72,0
352.70123,352.98694,86,73,0
352.98694,353.20123,84,70,0
353.27267,353.55838,84,75,0
353.55838,353.8441,82,70,0
353.8441,354.1298,81,68,0
354.1298,354.43594,79,67,0
354.43594,354.72165,81,68,0
354.72165,355.0101,82,68,0
355.0101,355.29855,81,75,0
355.29855,355.5843,82,74,0
355.5843,355.87274,84,83,0
355.87274,356.16977,86,81,0
356.16977,356.45822,84,91,0
356.45822,356.78433,86,85,0
356.78433,359.11606,75,82,0
356.78433,359.11606,87,97,0
359.40732,359.69302,86,70,0
359.69302,359.97873,85,75,0
359.97873,360.26447,86,68,0
360.55017,360.83588,84,67,0
360.83588,361.1216,83,76,0
361.1216,361.41864,84,67,0
361.70435,361.99005,83,70,0
361.99005,362.12643,83,69,0
362.12643,362.2628,84,63,0
362.2628,362.55405,83,68,0
362.83707,363.1201,82,72,0
363.1201,363.25644,82,72,0
363.25644,363.39282,84,65,0
363.39282,363.68985,82,75,0
363.97287,364.2559,81,67,0
364.2559,364.5389,82,70,0
364.5389,364.76617,84,72,0
364.84192,365.12766,84,72,0
365.12766,365.41336,74,66,0
365.41336,365.69907,82,72,0
365.69907,365.98477,79,65,0
365.98477,367.1285,77,72,0
367.1285,367.22528,76,68,0
367.22528,367.3209,77,60,0
367.3209,367.41528,76,68,0
367.41528,367.50842,77,61,0
367.50842,367.601,76,68,0
367.601,367.6937,77,61,0
367.6937,368.2607,76,68,0
368.54373,368.82675,84,72,0
368.82675,369.10977,81,75,0
369.10977,369.40976,77,67,0
369.40976,369.69278,75,77,0
369.69278,369.9758,74,69,0
369.9758,370.25882,85,82,0
370.25882,370.54184,86,76,0
370.54184,371.67392,77,75,0
371.67392,371.77026,79,68,0
371.77026,371.8668,81,60,0
371.8668,371.9625,79,68,0
371.9625,372.05743,81,61,0
372.05743,372.15125,79,68,0
372.15125,372.2447,81,61,0
372.23068,372.32413,79,68,0
372.32648,372.4207,81,60,0
372.4183,372.51266,79,68,0
372.51974,372.66452,77,63,0
372.66452,372.821,79,62,0
372.8291,373.1148,77,68,0
373.4005,373.68622,65,40,0
373.4005,373.68622,69,48,0
373.97195,374.25766,65,40,0
373.97195,374.25766,69,48,0
374.54337,374.8291,69,48,0
374.54337,374.8291,65,40,0
375.1148,375.24756,70,52,0
375.24756,375.38028,69,47,0
375.38028,375.52048,67,47,0
375.52048,375.66068,69,48,0
375.1148,375.66068,65,44,0
375.66068,376.2214,72,52,0
375.66068,376.2214,69,44,0
376.2214,376.78217,69,60,0
376.2214,376.78217,65,51,0
376.78217,377.42047,62,55,0
376.78217,377.42047,65,66,0
377.42047,378.81973,58,60,0
377.42047,378.81973,62,72,0
378.81973,379.0975,62,58,0
378.81973,379.0975,58,49,0
379.0975,379.37527,60,49,0
379.0975,379.37527,64,58,0
379.37527,379.648,62,49,0
379.37527,379.648,65,58,0
379.6783,379.9561,62,53,0
379.6783,379.9561,65,63,0
379.9561,380.23386,60,50,0
379.9561,380.23386,64,59,0
380.23386,380.51166,58,50,0
380.23386,380.51166,62,59,0
380.51166,380.77377,57,50,0
380.51166,380.77377,60,59,0
380.80292,381.08594,60,63,0
380.80292,381.08594,57,53,0
381.08594,381.36896,55,45,0
381.08594,381.36896,58,53,0
381.36896,381.65198,53,45,0
381.36896,381.65198,57,53,0
381.65198,381.96774,52,45,0
381.65198,381.96774,55,53,0
382.53918,382.72968,65,50,0
382.72968,382.92014,69,46,0
382.92014,383.11063,77,46,0
383.11063,383.2993,65,52,0
383.2993,383.48798,69,46,0
383.48798,383.67667,77,46,0
383.67667,383.86533,65,54,0
383.86533,384.05402,69,47,0
384.05402,384.24268,77,47,0
384.24268,384.4279,65,60,0
384.4279,384.61307,69,52,0
384.61307,384.79825,77,54,0
384.79825,384.98343,69,65,0
384.98343,385.1686,72,58,0
385.1686,385.3538,81,61,0
385.3538,385.5373,65,69,0
385.5373,385.72076,69,62,0
385.72076,385.90427,77,65,0
385.90427,386.08774,62,76,0
386.08774,386.27124,65,66,0
386.27124,386.5452,74,69,0
386.5452,387.9743,58,80,0
387.9743,388.29346,74,56,0
387.9743,388.29346,77,66,0
388.29346,388.6126,72,57,0
388.29346,388.6126,76,68,0
388.6126,388.93027,70,53,0
388.6126,388.93027,74,63,0
388.96555,389.2847,70,56,0
388.96555,389.2847,74,67,0
389.2847,389.60385,72,65,0
389.2847,389.60385,69,55,0
389.60385,389.923,70,63,0
389.60385,389.923,67,53,0
389.923,390.21024,69,61,0
389.923,390.21024,65,51,0
390.24216,390.56128,69,63,0
390.56128,390.88043,67,56,0
390.88043,391.1996,65,56,0
391.1996,391.68173,64,56,0
391.1996,391.68173,58,47,0
391.7353,394.52493,64,59,0
391.7353,394.52493,58,59,0
394.66214,395.39383,57,52,0
394.66214,395.39383,65,52,0
394.66214,395.39383,60,52,0
2.712121,3.012121,53,53,0
2.5984848,3.012121,41,45,0
2.6363635,3.012121,45,48,0
2.6742423,3.012121,48,51,0
5.1113424,5.411342,58,50,0
5.1113424,5.411342,48,42,0
5.1113424,5.411342,55,42,0
7.542921,7.8459516,60,53,0
7.4245,7.8459516,52,45,0
7.463974,7.8459516,55,48,0
7.5034475,7.8459516,58,51,0
9.963087,10.266117,53,42,0
9.963087,10.266117,60,50,0
12.406268,14.806269,58,44,0
14.806269,15.431269,57,44,0
12.406268,15.431269,65,44,0
17.262848,19.694426,46,43,0
17.262848,19.694426,58,43,0
19.694426,20.906548,57,37,0
20.906548,21.996479,55,33,0
19.694426,21.996479,48,37,0
22.15777,22.463892,53,53,0
22.036802,22.463892,41,45,0
22.077124,22.463892,45,48,0
22.117447,22.463892,48,51,0
24.589138,25.18821,58,50,0
25.18821,25.788961,57,50,0
25.788961,26.388033,55,50,0
26.388033,26.9985,53,50,0
26.9985,29.38164,52,48,0
26.9985,29.38164,55,53,0
24.589138,29.38164,48,42,0
29.38164,29.68164,41,42,0
29.38164,29.68164,53,50,0
31.80664,33.00664,46,44,0
31.80664,33.00664,58,44,0
35.395805,36.610027,70,36,0
35.395805,36.610027,58,30,0
36.610027,39.135784,69,40,0
39.135784,40.398945,67,32,0
36.610027,40.398945,60,34,0
41.598946,41.895973,60,40,0
41.895973,42.193005,67,32,0
42.193005,42.490032,64,32,0
42.490032,42.787064,67,32,0
42.787064,43.08118,60,40,0
43.08118,43.375298,67,31,0
43.375298,43.669415,64,31,0
43.669415,43.988564,67,31,0
43.988564,44.282684,62,40,0
44.282684,44.5768,67,30,0
44.5768,44.87092,65,30,0
44.87092,45.165035,67,30,0
45.165035,45.442814,62,40,0
45.442814,45.73693,67,33,0
45.73693,46.031048,65,33,0
46.031048,46.32517,67,33,0
46.32517,46.61643,60,40,0
46.61643,46.907692,67,32,0
46.907692,47.198956,64,32,0
47.198956,47.490215,67,32,0
47.490215,47.77868,60,40,0
47.77868,48.06714,67,33,0
48.06714,48.355602,64,35,0
48.355602,48.66488,67,37,0
48.66488,48.95334,62,47,0
48.95334,49.241802,67,35,0
49.241802,49.383312,65,35,0
49.524822,49.66633,67,35,0
49.80784,50.09086,62,44,0
50.09086,50.37388,67,33,0
50.37388,50.515385,65,33,0
50.656895,50.81647,67,33,0
50.976044,51.264507,60,40,0
51.264507,51.552967,67,32,0
51.552967,51.84143,64,32,0
51.84143,52.12989,67,32,0
52.12989,52.415604,60,40,0
52.415604,52.70132,67,31,0
52.70132,52.987034,64,31,0
52.987034,53.299534,67,31,0
53.299534,53.587994,62,40,0
53.587994,53.876457,67,30,0
53.876457,54.164917,65,30,0
54.164917,54.45338,67,30,0
54.45338,54.723648,62,40,0
54.723648,55.006668,67,33,0
55.006668,55.28969,65,33,0
55.28969,55.572704,67,33,0
55.572704,55.712894,60,40,0
55.85308,55.993267,67,32,0
56.133453,56.274963,64,32,0
56.416473,56.55666,67,32,0
56.696846,56.835735,60,46,0
56.974625,57.11481,67,35,0
57.254997,57.396507,64,36,0
57.538017,57.688015,67,38,0
57.838017,58.12373,62,49,0
58.12373,58.409443,67,39,0
58.409443,58.69516,65,39,0
58.69516,58.980873,67,39,0
58.980873,59.266586,62,50,0
59.266586,59.552303,67,40,0
59.552303,59.838017,65,40,0
59.838017,60.14414,67,40,0
60.14414,60.42985,60,48,0
60.42985,60.718315,67,32,0
60.718315,61.006775,64,32,0
61.006775,61.29249,67,32,0
61.29249,61.58095,60,52,0
61.58095,61.87798,67,39,0
61.87798,62.166443,64,42,0
62.166443,62.49253,67,45,0
62.49253,62.78099,52,65,0
62.78099,63.069454,60,55,0
63.069454,63.357914,55,55,0
63.357914,63.646374,60,55,0
63.646374,63.934837,52,63,0
63.934837,64.2233,60,51,0
64.2233,64.51176,55,51,0
64.51176,64.82426,60,51,0
64.82426,65.115524,53,58,0
65.115524,65.40124,60,45,0
65.40124,65.68695,57,45,0
65.68695,65.972664,60,45,0
65.972664,66.25838,52,51,0
66.25838,66.54409,61,44,0
66.54409,66.82981,55,44,0
66.82981,67.12684,61,44,0
67.12684,67.41255,50,51,0
67.41255,67.698265,60,43,0
67.698265,67.97099,57,43,0
67.97099,68.26225,60,43,0
68.26225,68.54527,55,51,0
68.54527,68.82829,62,43,0
68.82829,69.10102,59,43,0
69.10102,69.39805,62,43,0
69.39805,69.68107,48,47,0
69.68107,69.96409,60,41,0
69.96409,70.24711,52,41,0
70.24711,70.55014,60,41,0
70.55014,70.83585,53,47,0
70.83585,71.12157,62,41,0
71.12157,71.40728,57,41,0
71.40728,71.69299,62,41,0
71.69299,71.97871,55,47,0
71.97871,72.26442,64,40,0
72.26442,72.55013,60,40,0
72.55013,72.83673,64,40,0
72.83673,73.12348,55,47,0
73.12348,73.40191,65,42,0
73.40191,73.68336,62,42,0
73.68336,73.968925,65,42,0
73.968925,74.251945,52,47,0
74.251945,74.534966,60,41,0
74.534966,74.817986,55,41,0
74.817986,75.11798,60,41,0
75.11798,75.401,53,47,0
75.401,75.68402,60,41,0
75.68402,75.96704,57,41,0
75.96704,76.25006,60,41,0
76.25006,76.53307,55,47,0
76.53307,76.81609,64,40,0
76.81609,77.09911,60,40,0
77.09911,77.38213,64,40,0
77.38213,77.67071,55,47,0
77.67071,77.9529,65,42,0
77.9529,78.235016,62,42,0
78.235016,78.5373,65,42,0
78.5373,79.68015,60,39,0
78.5373,79.68015,64,47,0
84.25016,84.52794,41,59,0
84.25016,84.52794,53,70,0
85.38653,85.6643,43,53,0
85.38653,85.6643,55,63,0
86.51112,86.794136,55,63,0
86.51112,86.794136,43,53,0
87.675964,88.818825,48,63,0
87.675964,88.818825,36,63,0
93.38549,93.6685,41,59,0
93.38549,93.6685,53,70,0
94.56031,94.860306,43,53,0
94.56031,94.860306,55,63,0
95.76031,96.360306,53,63,0
95.77531,96.37531,43,53,0
97.10149,99.561165,48,56,0
99.60149,100.27353,40,53,0
99.561165,100.32729,36,49,0
99.64181,100.32729,43,56,0
99.68213,100.32729,48,60,0
102.243225,102.54323,53,53,0
102.12959,102.54323,41,45,0
102.16747,102.54323,45,48,0
102.205345,102.54323,48,51,0
104.64245,104.94245,48,42,0
104.64245,104.94245,58,50,0
104.64245,104.94245,55,42,0
107.07403,107.37706,60,53,0
106.955605,107.37706,52,45,0
106.99508,107.37706,55,48,0
107.03455,107.37706,58,51,0
109.494194,109.797226,53,42,0
109.494194,109.797226,60,50,0
111.93738,114.33737,58,44,0
114.33737,114.96237,57,44,0
111.93738,114.96237,65,44,0
116.79395,119.22553,58,43,0
116.79395,119.22553,46,43,0
119.22553,120.43765,57,37,0
120.43765,121.52759,55,33,0
119.22553,121.52759,48,37,0
121.68887,121.994995,53,53,0
121.56791,121.994995,41,45,0
121.60823,121.994995,45,48,0
121.64855,121.994995,48,51,0
124.12025,124.719315,58,50,0
124.719315,125.32007,57,50,0
125.32007,125.919136,55,50,0
125.919136,126.52961,53,50,0
126.52961,128.91275,52,48,0
126.52961,128.91275,55,53,0
124.12025,128.91275,48,42,0
128.91275,129.21275,41,42,0
128.91275,129.21275,53,50,0
131.33775,132.53775,46,44,0
131.33775,132.53775,58,44,0
134.92691,136.14113,58,30,0
134.92691,136.14113,70,36,0
136.14113,138.66689,69,40,0
138.66689,139.93005,67,32,0
136.14113,139.93005,60,34,0
141.13005,141.42708,60,40,0
141.42708,141.7241,67,32,0
141.7241,142.02113,64,32,0
142.02113,142.31818,67,32,0
142.31818,142.61229,60,40,0
142.61229,142.9064,67,31,0
142.9064,143.20052,64,31,0
143.20052,143.51967,67,31,0
143.51967,143.81378,62,40,0
143.81378,144.10791,67,30,0
144.10791,144.40202,65,30,0
144.40202,144.69614,67,30,0
144.69614,144.97392,62,40,0
144.97392,145.26804,67,33,0
145.26804,145.56215,65,33,0
145.56215,145.85628,67,33,0
145.85628,146.14754,60,40,0
146.14754,146.4388,67,32,0
146.4388,146.73006,64,32,0
146.73006,147.02132,67,32,0
147.02132,147.30978,60,40,0
147.30978,147.59825,67,33,0
147.59825,147.8867,64,35,0
147.8867,148.19598,67,37,0
148.19598,148.48445,62,47,0
148.48445,148.7729,67,35,0
148.7729,148.91441,65,35,0
149.05592,149.19743,67,35,0
149.33894,149.62196,62,44,0
149.62196,149.90498,67,33,0
149.90498,150.0465,65,33,0
150.188,150.34758,67,33,0
150.50716,150.79561,60,40,0
150.79561,151.08408,67,32,0
151.08408,151.37253,64,32,0
151.37253,151.661,67,32,0
151.661,151.94672,60,40,0
151.94672,152.23242,67,31,0
152.23242,152.51814,64,31,0
152.51814,152.83064,67,31,0
152.83064,153.1191,62,40,0
153.1191,153.40756,67,30,0
153.40756,153.69603,65,30,0
153.69603,153.98448,67,30,0
153.98448,154.25476,62,40,0
154.25476,154.53778,67,33,0
154.53778,154.8208,65,33,0
154.8208,155.1038,67,33,0
155.1038,155.244,60,40,0
155.38419,155.52437,67,32,0
155.66457,155.80608,64,32,0
155.94757,156.08777,67,32,0
156.22795,156.36684,60,46,0
156.50574,156.64592,67,35,0
156.7861,156.92761,64,36,0
157.06912,157.21912,67,38,0
157.36913,157.65483,62,49,0
157.65483,157.94055,67,39,0
157.94055,158.22627,65,39,0
158.22627,158.51198,67,39,0
158.51198,158.7977,62,50,0
158.7977,159.0834,67,40,0
159.0834,159.36913,65,40,0
159.36913,159.67525,67,40,0
159.67525,159.96095,60,48,0
159.96095,160.24942,67,32,0
160.24942,160.53789,64,32,0
160.53789,160.8236,67,32,0
160.8236,161.11206,60,52,0
161.11206,161.40909,67,39,0
161.40909,161.69756,64,42,0
161.69756,162.02364,67,45,0
162.02364,162.3121,52,65,0
162.3121,162.60056,60,55,0
162.60056,162.88902,55,55,0
162.88902,163.17747,60,55,0
163.17747,163.46594,52,63,0
163.46594,163.75441,60,51,0
163.75441,164.04286,55,51,0
164.04286,164.35536,60,51,0
164.35536,164.64662,53,58,0
164.64662,164.93234,60,45,0
164.93234,165.21806,57,45,0
165.21806,165.50377,60,45,0
165.50377,165.78949,52,51,0
165.78949,166.0752,61,44,0
166.0752,166.36092,55,44,0
166.36092,166.65794,61,44,0
166.65794,166.94366,50,51,0
166.94366,167.22937,60,43,0
167.22937,167.5021,57,43,0
167.5021,167.79337,60,43,0
167.79337,168.07639,55,51,0
168.07639,168.3594,62,43,0
168.3594,168.63213,59,43,0
168.63213,168.92915,62,43,0
168.92915,169.21217,48,47,0
169.21217,169.4952,60,41,0
169.4952,169.77821,52,41,0
169.77821,170.08124,60,41,0
170.08124,170.36696,53,47,0
170.36696,170.65266,62,41,0
170.65266,170.93839,57,41,0
170.93839,171.2241,62,41,0
171.2241,171.50981,55,47,0
171.50981,171.79553,64,40,0
171.79553,172.08124,60,40,0
172.08124,172.36783,64,40,0
172.36783,172.65459,55,47,0
172.65459,172.93301,65,42,0
172.93301,173.21446,62,42,0
173.21446,173.50003,65,42,0
173.50003,173.78305,52,47,0
173.78305,174.06607,60,41,0
174.06607,174.34909,55,41,0
174.34909,174.6491,60,41,0
174.6491,174.93211,53,47,0
174.93211,175.21512,60,41,0
175.21512,175.49814,57,41,0
175.49814,175.78116,60,41,0
175.78116,176.06418,55,47,0
176.06418,176.3472,64,40,0
176.3472,176.63022,60,40,0
176.63022,176.91324,64,40,0
176.91324,177.20181,55,47,0
177.20181,177.48401,65,42,0
177.48401,177.76613,62,42,0
177.76613,178.0684,65,42,0
178.0684,179.21126,64,47,0
178.0684,179.21126,60,39,0
183.78127,184.05905,53,70,0
183.78127,184.05905,41,59,0
184.91763,185.1954,43,53,0
184.91763,185.1954,55,63,0
186.04222,186.32524,55,63,0
186.04222,186.32524,43,53,0
187.20708,188.34993,48,63,0
187.20708,188.34993,36,63,0
192.9166,193.19962,53,70,0
192.9166,193.19962,41,59,0
194.09142,194.39142,43,53,0
194.09142,194.39142,55,63,0
195.29141,195.89142,53,63,0
195.30641,195.90642,43,53,0
196.6326,199.09227,48,56,0
199.1326,199.80464,40,53,0
199.09227,199.8584,36,49,0
199.17291,199.8584,43,56,0
199.21324,199.8584,48,60,0
201.7841,202.0841,60,53,0
201.67047,202.0841,48,45,0
201.70834,202.0841,52,48,0
201.74623,202.0841,55,51,0
204.18333,204.4746,60,44,0
204.4746,204.76585,70,37,0
204.76585,205.05711,67,37,0
205.05711,205.34837,70,37,0
205.34837,205.63965,60,44,0
205.63965,205.93091,70,39,0
205.93091,206.22217,67,39,0
206.22217,206.52829,70,39,0
206.52829,206.81676,60,44,0
206.81676,207.10521,69,37,0
207.10521,207.39368,65,37,0
207.39368,207.68213,69,37,0
207.68213,207.9706,60,44,0
207.9706,208.25917,69,39,0
208.25917,208.55328,65,39,0
208.55328,208.8594,69,39,0
208.8594,209.15352,60,44,0
209.15352,209.44765,67,37,0
209.44765,209.7389,64,37,0
209.7389,210.03017,67,37,0
210.03017,210.32143,60,44,0
210.32143,210.61269,67,39,0
210.61269,210.90395,64,39,0
210.90395,211.1952,67,39,0
211.1952,211.48093,57,44,0
211.48093,211.76665,63,39,0
211.76665,212.05235,60,39,0
212.05235,212.33807,63,39,0
212.33807,212.62378,57,44,0
212.62378,212.9095,63,39,0
212.9095,213.1952,60,39,0
213.1952,213.48093,63,39,0
213.48093,213.76665,57,44,0
213.76665,214.05235,63,40,0
214.05235,214.33807,60,41,0
214.33807,214.62378,63,42,0
214.62378,214.9095,57,49,0
214.9095,215.1952,63,45,0
215.1952,215.48093,60,46,0
215.48093,215.79672,63,47,0
215.79672,216.07195,58,55,0
216.07195,216.34717,67,48,0
216.34717,216.63289,62,48,0
216.63289,216.91861,67,48,0
216.91861,217.19383,58,55,0
217.19383,217.46906,67,48,0
217.46906,217.74944,62,48,0
217.74944,218.06194,67,48,0
218.06194,218.34232,58,55,0
218.34232,218.62268,67,48,0
218.62268,218.90306,62,48,0
218.90306,219.18343,67,48,0
219.18343,219.4638,58,55,0
219.4638,219.74417,67,48,0
219.74417,220.02455,62,48,0
220.02455,220.30493,67,48,0
220.30493,220.59064,58,55,0
220.59064,220.87636,67,45,0
220.87636,221.16206,64,45,0
221.16206,221.44778,67,45,0
221.44778,221.7308,58,52,0
221.7308,222.01382,67,42,0
222.01382,222.29684,64,42,0
222.29684,222.60934,67,42,0
222.60934,222.88971,57,55,0
222.88971,223.17009,65,46,0
223.17009,223.45045,60,46,0
223.45045,223.73083,65,46,0
223.73083,224.01122,57,55,0
224.01122,224.29158,65,48,0
224.29158,224.57196,60,48,0
224.57196,224.87808,65,43,0
224.87808,225.15845,52,50,0
225.15845,225.43883,60,38,0
225.43883,225.7192,55,38,0
225.7192,225.99957,60,38,0
225.99957,226.27995,53,48,0
226.27995,226.56032,60,40,0
226.56032,226.8407,57,40,0
226.8407,227.13481,60,34,0
227.13481,227.41258,52,40,0
227.41258,227.69037,60,31,0
227.69037,227.96814,55,31,0
227.96814,228.24593,60,31,0
228.24593,228.5237,53,34,0
228.5237,228.80148,60,27,0
228.80148,229.07925,57,27,0
229.07925,229.35704,60,27,0
229.35704,229.6374,52,53,0
229.6374,229.91779,60,40,0
229.91779,230.19815,55,40,0
230.19815,230.47853,60,40,0
230.47853,230.7589,53,48,0
230.7589,231.03928,60,40,0
231.03928,231.31966,57,40,0
231.31966,231.61377,60,34,0
231.61377,231.89154,58,46,0
231.89154,232.16933,67,35,0
232.16933,232.4471,62,35,0
232.4471,232.72488,67,35,0
232.72488,233.00266,59,45,0
233.00266,233.28044,67,36,0
233.28044,233.55821,62,36,0
233.55821,233.83598,67,36,0
233.83598,234.1217,60,43,0
234.1217,234.40742,67,34,0
234.40742,234.69313,64,34,0
234.69313,234.97885,67,34,0
234.97885,235.26187,60,42,0
235.26187,235.54489,67,32,0
235.54489,235.8279,64,32,0
235.8279,236.11092,67,32,0
236.11092,236.40219,60,37,0
236.40219,236.69345,62,29,0
236.69345,236.98471,58,38,0
236.98471,237.27597,60,32,0
237.27597,237.57013,57,34,0
237.57013,237.86896,58,27,0
237.86896,238.17331,55,34,0
238.17331,238.4807,57,28,0
238.4807,238.77774,53,37,0
238.77774,239.07477,60,31,0
239.07477,239.3718,57,28,0
239.3718,239.66882,60,28,0
239.66882,239.96294,53,40,0
239.96294,240.25706,60,31,0
240.25706,240.55118,57,31,0
240.55118,240.87033,60,31,0
240.87033,241.16444,55,40,0
241.16444,241.45856,60,30,0
241.45856,241.75269,58,30,0
241.75269,242.0468,60,30,0
242.0468,242.32457,55,40,0
242.32457,242.6187,60,33,0
242.6187,242.91281,58,33,0
242.91281,243.20692,60,33,0
243.20692,243.49818,53,40,0
243.49818,243.78946,60,32,0
243.78946,244.08072,57,32,0
244.08072,244.37198,60,32,0
244.37198,244.66043,53,40,0
244.66043,244.9489,60,33,0
244.9489,245.23737,57,35,0
245.23737,245.54665,60,37,0
245.54665,245.8351,55,47,0
245.8351,246.12357,60,35,0
246.12357,246.26508,58,35,0
246.40659,246.5481,60,35,0
246.6896,246.97263,55,44,0
246.97263,247.25563,60,33,0
247.25563,247.39714,58,33,0
247.53865,247.71307,60,33,0
247.8875,248.17595,53,40,0
248.17595,248.46442,60,32,0
248.46442,248.75288,57,32,0
248.75288,249.04134,60,32,0
249.04134,249.32706,53,40,0
249.32706,249.61276,60,31,0
249.61276,249.89848,57,31,0
249.89848,250.21098,60,31,0
250.21098,250.49945,55,40,0
250.49945,250.7879,60,30,0
250.7879,251.07637,58,30,0
251.07637,251.36482,60,30,0
251.36482,251.6351,55,40,0
251.6351,251.91812,60,33,0
251.91812,252.20114,58,33,0
252.20114,252.48416,60,33,0
252.48416,252.62434,53,40,0
252.76453,252.90471,60,32,0
253.0449,253.18642,57,32,0
253.32793,253.46811,60,32,0
253.60829,253.74718,53,46,0
253.88608,254.02626,60,35,0
254.16644,254.30795,57,36,0
254.44946,254.59947,60,38,0
254.74947,255.03517,55,49,0
255.03517,255.32089,60,39,0
255.32089,255.60661,58,39,0
255.60661,255.89232,60,39,0
255.89232,256.17804,55,50,0
256.17804,256.46375,60,40,0
256.46375,256.74945,58,40,0
256.74945,257.05557,60,40,0
257.05557,257.3413,53,48,0
257.3413,257.62976,60,32,0
257.62976,257.9182,57,32,0
257.9182,258.20395,60,32,0
258.20395,258.4924,53,52,0
258.4924,258.78943,60,39,0
258.78943,259.07788,57,42,0
259.07788,259.404,60,45,0
259.404,259.69244,57,65,0
259.69244,259.9809,65,55,0
259.9809,260.26935,60,55,0
260.26935,260.55783,65,55,0
260.55783,260.84628,57,63,0
260.84628,261.13474,65,51,0
261.13474,261.42322,60,51,0
261.42322,261.73572,65,51,0
261.73572,262.02698,58,58,0
262.02698,262.31268,65,45,0
262.31268,262.5984,62,45,0
262.5984,262.88412,65,45,0
262.88412,263.16983,57,51,0
263.16983,263.45554,66,44,0
263.45554,263.74124,60,44,0
263.74124,264.0383,66,44,0
264.0383,264.324,55,51,0
264.324,264.6097,65,43,0
264.6097,264.88245,62,43,0
264.88245,265.1737,65,43,0
265.1737,265.45673,60,51,0
265.45673,265.73975,67,43,0
265.73975,266.01248,64,43,0
266.01248,266.3095,67,43,0
266.3095,266.59253,53,47,0
266.59253,266.87555,65,41,0
266.87555,267.15857,57,41,0
267.15857,267.46158,65,41,0
267.46158,267.7473,58,47,0
267.7473,268.03302,67,41,0
268.03302,268.31873,62,41,0
268.31873,268.60443,67,41,0
268.60443,268.89017,60,47,0
268.89017,269.17587,69,40,0
269.17587,269.46158,65,40,0
269.46158,269.74817,69,40,0
269.74817,270.03494,60,47,0
270.03494,270.31335,67,42,0
270.31335,270.59482,64,42,0
270.59482,270.88037,67,42,0
270.88037,271.1634,57,47,0
271.1634,271.4464,65,41,0
271.4464,271.72943,60,41,0
271.72943,272.02942,65,41,0
272.02942,272.31244,58,47,0
272.31244,272.59546,65,41,0
272.59546,272.87848,62,41,0
272.87848,273.1615,65,41,0
273.1615,273.44452,60,47,0
273.44452,273.72754,69,38,0
273.72754,274.01056,65,38,0
274.01056,274.29358,69,38,0
274.29358,274.58215,60,47,0
274.58215,274.86435,64,42,0
274.86435,275.14645,60,42,0
275.14645,275.44876,64,42,0
275.44876,276.0154,65,47,0
275.44876,276.5916,53,39,0
281.16162,281.4394,46,70,0
281.16162,281.4394,34,59,0
282.29797,282.57574,48,63,0
282.29797,282.57574,36,53,0
283.42258,283.7056,36,53,0
283.42258,283.7056,48,63,0
284.5874,285.7303,41,50,0
284.5874,285.7303,29,50,0
290.29694,290.57996,46,70,0
290.29694,290.57996,34,59,0
291.47177,291.77176,48,63,0
291.47177,291.77176,36,53,0
292.67175,293.27176,48,53,0
292.67175,293.27176,58,63,0
294.01294,296.47263,53,56,0
296.51294,297.18497,45,53,0
296.47263,297.23874,41,49,0
296.55325,297.23874,48,56,0
296.59357,297.23874,53,60,0
299.16446,299.46445,60,53,0
299.0508,299.46445,48,45,0
299.08868,299.46445,52,48,0
299.1266,299.46445,55,51,0
301.56366,301.85492,60,44,0
301.85492,302.1462,70,37,0
302.1462,302.43747,67,37,0
302.43747,302.72873,70,37,0
302.72873,303.02,60,44,0
303.02,303.31125,70,39,0
303.31125,303.6025,67,39,0
303.6025,303.90863,70,39,0
303.90863,304.19708,60,44,0
304.19708,304.48557,69,37,0
304.48557,304.77402,65,37,0
304.77402,305.06247,69,37,0
305.06247,305.35095,60,44,0
305.35095,305.6395,69,39,0
305.6395,305.93362,65,39,0
305.93362,306.23975,69,39,0
306.23975,306.53387,60,44,0
306.53387,306.82797,67,37,0
306.82797,307.11923,64,37,0
307.11923,307.4105,67,37,0
307.4105,307.70178,60,44,0
307.70178,307.99304,67,39,0
307.99304,308.2843,64,39,0
308.2843,308.57556,67,39,0
308.57556,308.86127,57,44,0
308.86127,309.14697,63,39,0
309.14697,309.4327,60,39,0
309.4327,309.7184,63,39,0
309.7184,310.00412,57,44,0
310.00412,310.28986,63,39,0
310.28986,310.57556,60,39,0
310.57556,310.86127,63,39,0
310.86127,311.14697,57,44,0
311.14697,311.4327,63,40,0
311.4327,311.7184,60,41,0
311.7184,312.00412,63,42,0
312.00412,312.28983,57,49,0
312.28983,312.57556,63,45,0
312.57556,312.86127,60,46,0
312.86127,313.17706,63,47,0
313.17706,313.4523,58,55,0
313.4523,313.7275,67,48,0
313.7275,314.01324,62,48,0
314.01324,314.29895,67,48,0
314.29895,314.5742,58,55,0
314.5742,314.8494,67,48,0
314.8494,315.1298,62,48,0
315.1298,315.4423,67,48,0
315.4423,315.72266,58,55,0
315.72266,316.00302,67,48,0
316.00302,316.2834,62,48,0
316.2834,316.56378,67,48,0
316.56378,316.84415,58,55,0
316.84415,317.1245,67,48,0
317.1245,317.4049,62,48,0
317.4049,317.68527,67,48,0
317.68527,317.97098,58,55,0
317.97098,318.25668,67,45,0
318.25668,318.54242,64,45,0
318.54242,318.82812,67,45,0
318.82812,319.11115,58,52,0
319.11115,319.39417,67,42,0
319.39417,319.6772,64,42,0
319.6772,319.9897,67,42,0
319.9897,320.27005,57,55,0
320.27005,320.5504,65,46,0
320.5504,320.8308,60,46,0
320.8308,321.11118,65,46,0
321.11118,321.39154,57,55,0
321.39154,321.67194,65,48,0
321.67194,321.9523,60,48,0
321.9523,322.25842,65,43,0
322.25842,322.5388,52,50,0
322.5388,322.81915,60,38,0
322.81915,323.09955,55,38,0
323.09955,323.3799,60,38,0
323.3799,323.66028,53,48,0
323.66028,323.94067,60,40,0
323.94067,324.22104,57,40,0
324.22104,324.51517,60,34,0
324.51517,324.79294,52,40,0
324.79294,325.0707,60,31,0
325.0707,325.34848,55,31,0
325.34848,325.62625,60,31,0
325.62625,325.90405,53,34,0
325.90405,326.18182,60,27,0
326.18182,326.4596,57,27,0
326.4596,326.73737,60,27,0
326.73737,327.01776,52,53,0
327.01776,327.29813,60,40,0
327.29813,327.5785,55,40,0
327.5785,327.85886,60,40,0
327.85886,328.13925,53,48,0
328.13925,328.41962,60,40,0
328.41962,328.69998,57,40,0
328.69998,328.9941,60,34,0
328.9941,329.27188,58,46,0
329.27188,329.54965,67,35,0
329.54965,329.82745,62,35,0
329.82745,330.10522,67,35,0
330.10522,330.383,59,45,0
330.383,330.66077,67,36,0
330.66077,330.93857,62,36,0
330.93857,331.21634,67,36,0
331.21634,331.50204,60,43,0
331.50204,331.78775,67,34,0
331.78775,332.0735,64,34,0
332.0735,332.3592,67,34,0
332.3592,332.6422,60,42,0
332.6422,332.92523,67,32,0
332.92523,333.20825,64,32,0
333.20825,333.49127,67,32,0
333.49127,333.78253,60,37,0
333.78253,334.0738,62,29,0
334.0738,334.36505,58,38,0
334.36505,334.6563,60,32,0
334.6563,334.95047,57,34,0
334.95047,335.2493,58,27,0
335.2493,335.55365,55,34,0
335.55365,335.86105,57,28,0
335.86105,336.15808,53,37,0
336.15808,336.4551,60,31,0
336.4551,336.75214,57,28,0
336.75214,337.04916,60,28,0
337.04916,337.3433,53,40,0
337.3433,337.6374,60,31,0
337.6374,337.93152,57,31,0
337.93152,338.25067,60,31,0
338.25067,338.5448,55,40,0
338.5448,338.8389,60,30,0
338.8389,339.13303,58,30,0
339.13303,339.42712,60,30,0
339.42712,339.70493,55,40,0
339.70493,339.99902,60,33,0
339.99902,340.29315,58,33,0
340.29315,340.58728,60,33,0
340.58728,340.87854,53,40,0
340.87854,341.1698,60,32,0
341.1698,341.46106,57,32,0
341.46106,341.75232,60,32,0
341.75232,342.04077,53,40,0
342.04077,342.32925,60,33,0
342.32925,342.6177,57,35,0
342.6177,342.92697,60,37,0
342.92697,343.21545,55,47,0
343.21545,343.5039,60,35,0
343.5039,343.64542,58,35,0
343.78693,343.92844,60,35,0
344.06995,344.35297,55,44,0
344.35297,344.636,60,33,0
344.636,344.7775,58,33,0
344.919,345.0934,60,33,0
345.26782,345.5563,53,40,0
345.5563,345.84476,60,32,0
345.84476,346.1332,57,32,0
346.1332,346.4217,60,32,0
346.4217,346.7074,53,40,0
346.7074,346.9931,60,31,0
346.9931,347.27884,57,31,0
347.27884,347.59134,60,31,0
347.59134,347.8798,55,40,0
347.8798,348.16824,60,30,0
348.16824,348.4567,58,30,0
348.4567,348.74518,60,30,0
348.74518,349.01544,55,40,0
349.01544,349.29846,60,33,0
349.29846,349.58148,58,33,0
349.58148,349.8645,60,33,0
349.8645,350.00467,53,40,0
350.14487,350.28506,60,32,0
350.42523,350.56674,57,32,0
350.70825,350.84845,60,32,0
350.98865,351.12753,53,46,0
351.26642,351.40662,60,35,0
351.54678,351.6883,57,36,0
351.8298,351.9798,60,38,0
352.12982,352.41553,55,49,0
352.41553,352.70123,60,39,0
352.70123,352.98694,58,39,0
352.98694,353.27267,60,39,0
353.27267,353.55838,55,50,0
353.55838,353.8441,60,40,0
353.8441,354.1298,58,40,0
354.1298,354.43594,60,40,0
354.43594,354.72165,53,48,0
354.72165,355.0101,60,32,0
355.0101,355.29855,57,32,0
355.29855,355.5843,60,32,0
355.5843,355.87274,53,52,0
355.87274,356.16977,60,39,0
356.16977,356.45822,57,42,0
356.45822,356.78433,60,45,0
356.78433,357.07278,57,65,0
357.07278,357.36124,65,55,0
357.36124,357.64972,60,55,0
357.64972,357.93817,65,55,0
357.93817,358.22662,57,63,0
358.22662,358.51508,65,51,0
358.51508,358.80356,60,51,0
358.80356,359.11606,65,51,0
359.11606,359.40732,58,58,0
359.40732,359.69302,65,45,0
359.69302,359.97873,62,45,0
359.97873,360.26447,65,45,0
360.26447,360.55017,57,51,0
360.55017,360.83588,66,44,0
360.83588,361.1216,60,44,0
361.1216,361.41864,66,44,0
361.41864,361.70435,55,51,0
361.70435,361.99005,65,43,0
361.99005,362.2628,62,43,0
362.2628,362.55405,65,43,0
362.55405,362.83707,60,51,0
362.83707,363.1201,67,43,0
363.1201,363.39282,64,43,0
363.39282,363.68985,67,43,0
363.68985,363.97287,53,47,0
363.97287,364.2559,65,41,0
364.2559,364.5389,57,41,0
364.5389,364.84192,65,41,0
364.84192,365.12766,58,47,0
365.12766,365.41336,67,41,0
365.41336,365.69907,62,41,0
365.69907,365.98477,67,41,0
365.98477,366.2705,60,47,0
366.2705,366.5562,69,40,0
366.5562,366.84192,65,40,0
366.84192,367.1285,69,40,0
367.1285,367.41528,60,47,0
367.41528,367.6937,67,42,0
367.6937,367.97516,64,42,0
367.97516,368.2607,67,42,0
368.2607,368.54373,57,47,0
368.54373,368.82675,65,41,0
368.82675,369.10977,60,41,0
369.10977,369.40976,65,41,0
369.40976,369.69278,58,47,0
369.69278,369.9758,65,41,0
369.9758,370.25882,62,41,0
370.25882,370.54184,65,41,0
370.54184,370.82486,60,47,0
370.82486,371.10788,69,38,0
371.10788,371.3909,65,38,0
371.3909,371.67392,69,38,0
371.67392,371.9625,60,47,0
371.9625,372.2447,64,42,0
372.2447,372.5268,60,42,0
372.5268,372.8291,64,42,0
372.8291,373.39575,65,47,0
372.8291,373.97195,53,39,0
378.54196,378.81973,34,59,0
378.54196,378.81973,46,70,0
379.6783,379.9561,48,63,0
379.6783,379.9561,36,53,0
380.80292,381.08594,36,53,0
380.80292,381.08594,48,63,0
381.96774,383.11063,41,50,0
381.96774,383.11063,29,50,0
387.67728,387.9743,34,59,0
387.67728,387.9743,46,70,0
388.96555,389.2847,48,63,0
388.96555,389.2847,36,53,0
390.24216,390.88043,58,63,0
390.24216,390.88043,48,53,0
391.7353,394.52493,53,56,0
394.57068,395.33286,45,53,0
394.52493,395.39383,41,49,0
394.6164,395.39383,48,56,0
394.66214,395.39383,53,60,0
