start_time,end_time,note_value,velocity,instrument_program_number
0.6646485,0.7754232,72,60,0
0.7754232,0.886198,73,55,0
0.886198,0.96927905,75,60,0
1.1077476,1.1908286,75,61,0
1.329297,1.415116,75,63,0
1.5581475,1.6472353,80,69,0
1.795715,2.4603806,75,61,0
2.4603806,2.564158,73,57,0
2.564158,2.6679356,72,54,0
2.6679356,3.1273534,70,60,0
3.1273534,3.59373,72,59,0
3.59373,3.812948,75,59,0
3.812948,3.869539,73,51,0
3.869539,3.92613,75,46,0
3.92613,4.039312,73,51,0
4.039312,4.1623034,72,59,0
4.2852945,4.39414,72,60,0
4.39414,4.5029855,73,55,0
4.5029855,4.586722,75,60,0
4.726283,4.80884,75,59,0
4.946434,5.030408,75,64,0
5.1703644,5.257466,80,66,0
5.4026346,6.068865,75,61,0
6.068865,6.1726427,73,57,0
6.1726427,6.27642,72,54,0
6.27642,6.5052705,70,60,0
6.5052705,6.6769085,73,51,0
6.734121,6.9629717,67,59,0
6.9629717,7.140472,70,50,0
7.199639,7.667658,68,60,0
7.9016676,8.012443,72,60,0
8.012443,8.123217,73,55,0
8.123217,8.208477,75,60,0
8.350576,8.433132,75,58,0
8.570727,8.655922,75,64,0
8.797914,8.887001,80,66,0
9.035481,9.700147,75,61,0
9.700147,9.803924,73,57,0
9.803924,9.9077015,72,54,0
9.9077015,10.36712,70,60,0
10.36712,10.833496,72,59,0
10.833496,11.052714,75,59,0
11.052714,11.109305,73,51,0
11.109305,11.165896,75,46,0
11.165896,11.279078,73,51,0
11.279078,11.525061,72,59,0
11.525061,11.633906,72,60,0
11.633906,11.742751,73,55,0
11.742751,11.827395,75,60,0
11.968468,12.051024,75,61,0
12.188619,12.273199,75,61,0
12.414166,12.501267,80,66,0
12.646436,13.312667,75,61,0
13.312667,13.416444,73,57,0
13.416444,13.520222,72,54,0
13.520222,13.749072,70,60,0
13.749072,13.92071,73,51,0
13.977922,14.206773,67,59,0
14.206773,14.384274,70,50,0
14.44344,14.91146,68,60,0
15.152695,15.375032,75,53,0
15.375032,15.597369,77,59,0
15.597369,15.819707,75,56,0
15.819707,15.991344,74,56,0
16.048557,16.271854,83,59,0
16.271854,16.494192,82,59,0
16.494192,16.71653,79,53,0
16.71653,16.943306,75,53,0
16.943306,17.106007,72,59,0
17.106007,17.16024,75,53,0
17.16024,17.381008,73,61,0
17.381008,17.601774,72,55,0
17.601774,17.772165,71,55,0
17.82896,18.051464,80,59,0
18.051464,18.27223,79,59,0
18.27223,18.492998,75,53,0
18.492998,18.718544,72,53,0
18.718544,18.880684,68,59,0
18.880684,18.93473,72,53,0
18.93473,19.155497,70,61,0
19.155497,19.377834,68,53,0
19.377834,19.551258,67,53,0
19.609066,19.826757,77,59,0
19.826757,20.047523,75,59,0
20.047523,20.268291,72,53,0
20.268291,20.43868,68,53,0
20.495478,20.715467,75,59,0
20.715467,20.937805,74,59,0
20.937805,21.160141,77,51,0
21.160141,21.382479,80,53,0
21.382479,21.610495,74,50,0
21.610495,21.83323,75,59,0
21.83323,21.907606,77,49,0
21.907606,21.981983,75,47,0
21.981983,22.05636,74,47,0
22.05636,22.140036,75,59,0
22.279491,22.366919,75,56,0
22.512629,22.748404,74,59,0
22.748404,22.984179,77,48,0
22.984179,23.219954,80,51,0
23.219954,23.473955,74,43,0
23.473955,23.802181,77,53,0
23.802181,24.086111,75,47,0
24.668459,24.779234,72,60,0
24.779234,24.890009,73,55,0
24.890009,24.97309,75,60,0
25.111559,25.19464,75,61,0
25.333107,25.41619,75,63,0
25.554657,25.643745,80,66,0
25.792225,26.45689,75,61,0
26.45689,26.560667,73,57,0
26.560667,26.664446,72,54,0
26.664446,26.836727,70,60,0
26.894154,27.123863,70,53,0
27.123863,27.29858,72,59,0
27.35682,27.534319,72,53,0
27.593487,27.812704,75,59,0
27.812704,27.869295,73,51,0
27.869295,27.925886,75,46,0
27.925886,28.039068,73,51,0
28.039068,28.285051,72,59,0
28.285051,28.393896,72,60,0
28.393896,28.50274,73,55,0
28.50274,28.587385,75,60,0
28.728458,28.810724,75,57,0
28.947836,29.030104,75,59,0
29.167215,29.254316,80,66,0
29.399485,30.065716,75,61,0
30.065716,30.169493,73,57,0
30.169493,30.273272,72,54,0
30.273272,30.387695,70,62,0
30.387695,30.502121,73,43,0
30.502121,30.616547,70,55,0
30.616547,30.730972,73,43,0
30.730972,30.847017,67,59,0
30.963062,31.140562,70,50,0
31.19973,31.66775,68,60,0
31.901758,32.124096,75,53,0
32.124096,32.34643,77,59,0
32.34643,32.56877,75,56,0
32.56877,32.74041,74,56,0
32.797623,33.020123,83,59,0
33.020123,33.242462,82,59,0
33.242462,33.464798,79,53,0
33.464798,33.691574,75,53,0
33.691574,33.854275,72,59,0
33.854275,33.90851,75,53,0
33.90851,34.129276,73,61,0
34.129276,34.350044,72,55,0
34.350044,34.52043,71,55,0
34.57723,34.797382,80,59,0
34.797382,35.018147,79,59,0
35.018147,35.238914,75,53,0
35.238914,35.464462,72,53,0
35.464462,35.626602,68,59,0
35.626602,35.68065,72,53,0
35.68065,35.901413,70,61,0
35.901413,36.123753,68,53,0
36.123753,36.297176,67,53,0
36.354984,36.572674,77,59,0
36.572674,36.79344,75,59,0
36.79344,37.01421,72,53,0
37.01421,37.184597,68,53,0
37.241394,37.461384,75,59,0
37.461384,37.68372,74,59,0
37.68372,37.90606,77,51,0
37.90606,38.128395,80,53,0
38.128395,38.35641,74,50,0
38.35641,38.579147,75,59,0
38.579147,38.653522,77,49,0
38.653522,38.7279,75,47,0
38.7279,38.802277,74,47,0
38.802277,38.885952,75,59,0
39.02541,39.112835,75,56,0
39.258545,39.49432,74,59,0
39.49432,39.730095,77,48,0
39.730095,39.96587,80,51,0
39.96587,40.21987,74,43,0
40.21987,40.5481,77,53,0
40.5481,40.82696,75,47,0
41.404243,41.51502,72,60,0
41.51502,41.62579,73,55,0
41.62579,41.708874,75,60,0
41.84734,41.930424,75,61,0
42.06889,42.15197,75,63,0
42.29044,42.379528,80,66,0
42.528008,43.192673,75,61,0
43.192673,43.29645,73,57,0
43.29645,43.400227,72,54,0
43.400227,43.57251,70,60,0
43.629936,43.859646,70,53,0
43.859646,44.034363,72,59,0
44.0926,44.270103,72,53,0
44.32927,44.54849,75,59,0
44.54849,44.60508,73,51,0
44.60508,44.66167,75,46,0
44.66167,44.774853,73,51,0
44.774853,45.020832,72,59,0
45.020832,45.12968,72,60,0
45.12968,45.238525,73,55,0
45.238525,45.322865,75,60,0
45.46343,45.545986,75,57,0
45.68358,45.766136,75,59,0
45.903732,45.990833,80,66,0
46.136,46.80223,75,61,0
46.80223,46.90601,73,57,0
46.90601,47.009785,72,54,0
47.009785,47.12421,70,62,0
47.12421,47.238636,73,43,0
47.238636,47.35306,70,55,0
47.35306,47.467487,73,43,0
47.467487,47.583534,67,59,0
47.699577,47.87708,70,50,0
47.936245,48.404266,68,60,0
48.638275,48.74905,60,57,0
48.74905,48.859825,61,52,0
48.859825,48.945084,63,57,0
49.08718,49.170033,63,57,0
49.308113,49.393932,63,59,0
49.53696,49.62605,68,65,0
49.77453,50.439194,63,57,0
50.439194,50.656887,72,59,0
50.656887,50.877655,70,70,0
50.877655,51.09842,75,62,0
51.09842,51.325607,79,68,0
51.325607,51.545597,67,63,0
51.545597,51.767933,70,68,0
51.767933,51.990273,68,59,0
52.21261,52.4303,65,59,0
52.4303,52.651066,67,70,0
52.651066,52.871834,70,62,0
52.871834,53.099022,72,70,0
53.099022,53.26401,63,66,0
53.31901,53.541348,63,72,0
53.541348,53.763683,62,62,0
53.986023,54.203712,70,59,0
54.203712,54.31294,68,70,0
54.31294,54.422165,70,63,0
54.422165,54.53139,67,70,0
54.53139,54.640617,70,62,0
54.640617,54.867805,65,70,0
54.867805,55.09254,74,75,0
55.09254,55.31567,75,81,0
55.31567,55.538803,77,77,0
55.538803,55.761936,79,82,0
55.761936,55.984272,70,75,0
55.984272,56.0935,68,70,0
56.0935,56.202724,70,63,0
56.202724,56.31195,67,70,0
56.31195,56.421177,70,62,0
56.421177,56.64836,65,70,0
56.64836,56.87229,74,75,0
56.87229,57.09306,75,81,0
57.09306,57.313828,77,77,0
57.313828,57.543537,79,82,0
57.543537,57.653145,79,75,0
57.653145,57.762753,80,73,0
57.762753,57.875935,82,81,0
57.989117,58.098343,79,72,0
58.098343,58.20757,80,69,0
58.20757,58.319534,82,80,0
58.4315,58.540344,79,73,0
58.540344,58.649193,80,69,0
58.649193,59.090015,82,78,0
59.307705,59.417313,75,60,0
59.417313,59.526924,77,58,0
59.526924,59.640106,79,64,0
59.75329,59.862514,75,57,0
59.862514,59.97174,77,55,0
59.97174,60.083706,79,64,0
60.19567,60.304516,75,58,0
60.304516,60.41336,77,55,0
60.41336,60.859623,79,62,0
61.082756,61.192364,79,75,0
61.192364,61.30197,80,73,0
61.30197,61.415154,82,81,0
61.528336,61.63756,79,72,0
61.63756,61.746788,80,69,0
61.746788,61.858753,82,80,0
61.97072,62.079563,79,73,0
62.079563,62.18841,80,69,0
62.18841,62.424187,82,78,0
62.424187,62.533813,84,72,0
62.533813,62.643253,82,65,0
62.643253,62.75346,80,69,0
62.75346,62.864452,79,64,0
62.864452,62.97624,77,62,0
62.97624,63.08883,75,61,0
63.08883,63.322224,77,78,0
63.322224,63.431812,82,72,0
63.431812,63.54218,80,65,0
63.54218,63.653328,79,69,0
63.653328,63.765274,77,64,0
63.765274,63.87803,75,62,0
63.87803,63.991486,74,61,0
63.991486,64.22816,75,77,0
64.22816,64.33827,84,72,0
64.33827,64.448845,82,65,0
64.448845,64.560074,80,69,0
64.560074,64.67183,79,64,0
64.67183,64.784256,77,62,0
64.784256,64.89731,75,65,0
64.89731,65.13161,77,73,0
65.13161,65.24143,82,64,0
65.24143,65.35203,80,58,0
65.35203,65.46342,79,62,0
65.46342,65.57568,77,57,0
65.57568,65.68877,75,56,0
65.68877,65.80275,74,55,0
65.80275,66.96785,75,69,0
66.96785,67.1984,79,57,0
67.1984,67.42896,82,63,0
67.42896,67.669266,75,56,0
67.669266,68.82996,74,69,0
68.82996,69.060524,77,57,0
69.060524,69.29108,80,63,0
69.29108,69.53139,74,56,0
69.53139,70.69648,75,69,0
70.69648,70.92704,79,57,0
70.92704,71.15759,82,63,0
71.15759,71.3979,75,56,0
71.3979,72.5586,74,69,0
72.5586,72.78916,77,62,0
72.78916,73.019714,80,69,0
73.019714,73.260025,74,70,0
74.446625,74.69654,79,65,0
74.69654,74.956894,82,70,0
74.956894,75.30026,79,65,0
75.30026,76.1167,85,74,0
73.260025,76.1167,73,81,0
76.52492,76.63569,72,60,0
76.63569,76.74647,73,55,0
76.74647,76.829544,75,60,0
76.96802,77.051094,75,61,0
77.18957,77.27538,75,63,0
77.41842,77.5075,80,69,0
77.65598,78.32065,75,61,0
78.32065,78.42442,73,57,0
78.42442,78.528206,72,54,0
78.528206,78.700485,70,60,0
78.75791,78.98762,70,53,0
78.98762,79.159904,72,59,0
79.21733,79.39483,72,53,0
79.453995,79.67322,75,59,0
79.67322,79.729805,73,51,0
79.729805,79.7864,75,46,0
79.7864,79.89958,73,51,0
79.89958,80.14556,72,59,0
80.14556,80.25441,72,60,0
80.25441,80.36325,73,55,0
80.36325,80.44699,75,60,0
80.58655,80.669106,75,59,0
80.8067,80.89068,75,64,0
81.03063,81.11774,80,66,0
81.2629,81.92913,75,61,0
81.92913,82.03291,73,57,0
82.03291,82.13669,72,54,0
82.13669,82.36554,70,60,0
82.36554,82.53718,73,51,0
82.59439,82.82324,67,59,0
82.82324,83.00074,70,50,0
83.059906,83.52792,68,60,0
83.76193,83.87271,72,60,0
83.87271,83.98348,73,55,0
83.98348,84.07065,75,60,0
84.215866,84.325836,80,61,0
84.325836,84.43616,84,56,0
84.43616,84.54765,82,63,0
84.54765,84.66036,80,63,0
84.66036,84.778336,79,59,0
84.778336,84.8963,77,61,0
84.8963,85.56097,75,61,0
85.56097,85.66475,73,57,0
85.66475,85.768524,72,54,0
85.768524,85.88338,70,60,0
85.88338,85.99824,75,50,0
85.99824,86.11309,70,56,0
86.11309,86.22794,75,50,0
86.22794,86.3428,72,56,0
86.3428,86.45765,75,47,0
86.45765,86.57599,72,54,0
86.57599,86.664734,75,48,0
86.69432,86.913536,75,59,0
86.913536,86.97013,73,51,0
86.97013,87.02672,75,46,0
87.02672,87.1399,73,51,0
87.1399,87.38589,72,59,0
87.38589,87.49473,72,60,0
87.49473,87.60358,73,55,0
87.60358,87.68852,75,60,0
87.82978,87.93907,80,61,0
87.93907,88.04931,84,56,0
88.04931,88.160545,82,63,0
88.160545,88.272736,80,63,0
88.272736,88.38887,79,59,0
88.38887,88.505005,77,61,0
88.505005,89.171234,75,61,0
89.171234,89.27501,73,57,0
89.27501,89.37879,72,54,0
89.37879,89.49321,70,60,0
89.49321,89.607635,73,50,0
89.607635,89.72206,70,56,0
89.72206,89.83649,73,50,0
89.83649,89.95091,67,56,0
90.06534,90.24284,70,54,0
90.30201,90.783005,68,60,0
91.023506,91.24584,75,53,0
91.24584,91.35701,77,59,0
91.35701,91.468185,80,53,0
91.468185,91.57935,77,55,0
91.57935,91.69052,75,51,0
91.69052,91.86216,74,56,0
91.91937,92.1403,83,59,0
92.36264,92.47381,82,59,0
92.47381,92.58498,79,53,0
92.58498,92.81175,75,53,0
92.81175,93.02869,72,59,0
93.02869,93.13907,73,59,0
93.13907,93.24945,77,53,0
93.24945,93.35983,73,55,0
93.35983,93.47022,72,51,0
93.47022,93.64061,71,55,0
93.6974,93.918335,80,59,0
94.1391,94.24949,79,59,0
94.24949,94.35987,75,53,0
94.35987,94.58542,72,53,0
94.58542,94.801605,68,59,0
94.801605,94.91199,70,59,0
94.91199,95.02237,73,53,0
95.02237,95.13354,70,55,0
95.13354,95.244705,68,51,0
95.244705,95.41813,67,53,0
95.47594,95.69455,77,59,0
95.91531,96.025696,75,59,0
96.025696,96.136086,72,53,0
96.136086,96.363266,68,53,0
96.363266,96.58577,75,59,0
96.815636,96.92494,74,59,0
96.92494,97.03425,77,51,0
97.03425,97.25675,80,53,0
97.25675,97.48833,74,50,0
97.71398,97.82523,75,59,0
97.82523,97.936485,79,49,0
97.936485,98.1622,82,59,0
98.1622,98.399956,75,56,0
98.635735,98.753624,74,59,0
98.753624,98.871506,77,48,0
98.871506,99.107285,80,51,0
99.107285,99.36128,74,43,0
99.36128,99.689514,77,53,0
99.689514,99.9814,75,47,0
100.5717,100.68247,72,60,0
100.68247,100.79325,73,55,0
100.79325,100.87882,75,60,0
101.02144,101.13169,80,61,0
101.13169,101.24201,84,56,0
101.24201,101.35351,82,63,0
101.35351,101.46622,80,63,0
101.46622,101.58419,79,59,0
101.58419,101.70216,77,61,0
101.70216,102.36683,75,61,0
102.36683,102.470604,73,57,0
102.470604,102.57438,72,54,0
102.57438,102.68923,70,60,0
102.68923,102.80409,75,50,0
102.80409,102.918945,70,56,0
102.918945,103.0338,75,50,0
103.0338,103.14865,72,56,0
103.14865,103.26351,75,47,0
103.26351,103.38184,72,54,0
103.38184,103.47059,75,48,0
103.500175,103.71939,75,59,0
103.71939,103.775986,73,51,0
103.775986,103.83257,75,46,0
103.83257,103.945755,73,51,0
103.945755,104.19174,72,59,0
104.19174,104.30058,72,60,0
104.30058,104.40943,73,55,0
104.40943,104.493164,75,60,0
104.63252,104.741806,84,61,0
104.741806,104.85205,80,56,0
104.85205,104.96328,82,63,0
104.96328,105.07547,79,63,0
105.07547,105.191605,80,59,0
105.191605,105.30774,77,61,0
105.30774,105.973976,75,61,0
105.973976,106.07775,73,57,0
106.07775,106.181526,72,54,0
106.181526,106.29595,70,60,0
106.29595,106.41038,73,50,0
106.41038,106.5248,70,56,0
106.5248,106.63923,73,50,0
106.63923,106.753654,67,56,0
106.86808,107.04558,70,54,0
107.104744,107.58575,68,60,0
107.82625,108.048584,75,53,0
108.048584,108.15975,77,59,0
108.15975,108.27092,80,53,0
108.27092,108.38209,77,55,0
108.38209,108.49326,75,51,0
108.49326,108.664894,74,56,0
108.72211,108.94461,83,59,0
109.166954,109.27812,82,59,0
109.27812,109.38929,79,53,0
109.38929,109.616066,75,53,0
109.616066,109.833,72,59,0
109.833,109.94338,73,59,0
109.94338,110.053764,77,53,0
110.053764,110.16415,73,55,0
110.16415,110.274536,72,51,0
110.274536,110.44492,71,55,0
110.50172,110.71925,80,59,0
110.94002,111.0504,79,59,0
111.0504,111.16079,75,53,0
111.16079,111.38633,72,53,0
111.38633,111.602516,68,59,0
111.602516,111.7129,70,59,0
111.7129,111.82329,73,53,0
111.82329,111.934456,70,55,0
111.934456,112.04562,68,51,0
112.04562,112.21905,67,53,0
112.276855,112.50095,77,59,0
112.72172,112.8321,75,59,0
112.8321,112.94249,72,53,0
112.94249,113.16967,68,53,0
113.16967,113.39217,75,59,0
113.62204,113.731346,74,59,0
113.731346,113.84065,77,51,0
113.84065,114.063156,80,53,0
114.063156,114.29472,74,50,0
114.520386,114.63164,75,59,0
114.63164,114.74289,79,49,0
114.74289,114.968605,82,59,0
114.968605,115.20636,75,56,0
115.44214,115.56002,74,59,0
115.56002,115.67791,77,48,0
115.67791,115.91369,80,51,0
115.91369,116.16769,74,43,0
116.16769,116.49592,77,53,0
116.49592,116.77985,75,47,0
117.36219,117.47297,72,60,0
117.47297,117.58374,73,55,0
117.58374,117.67058,75,60,0
117.815315,117.925285,80,61,0
117.925285,118.0356,84,56,0
118.0356,118.1471,82,63,0
118.1471,118.25981,80,63,0
118.25981,118.37778,79,59,0
118.37778,118.49575,77,61,0
118.49575,119.160416,75,61,0
119.160416,119.2642,73,57,0
119.2642,119.36797,72,54,0
119.36797,119.48283,70,60,0
119.48283,119.59768,75,50,0
119.59768,119.71254,70,56,0
119.71254,119.82739,75,50,0
119.82739,119.942245,72,56,0
119.942245,120.0571,75,47,0
120.0571,120.17543,72,54,0
120.17543,120.26418,75,48,0
120.29377,120.512985,75,59,0
120.512985,120.56957,73,51,0
120.56957,120.62617,75,46,0
120.62617,120.73935,73,51,0
120.73935,120.98533,72,59,0
120.98533,121.09418,72,60,0
121.09418,121.203026,73,55,0
121.203026,121.28891,75,60,0
121.431625,121.54091,84,61,0
121.54091,121.65115,80,56,0
121.65115,121.76238,82,63,0
121.76238,121.87458,79,63,0
121.87458,121.990715,80,59,0
121.990715,122.10685,77,61,0
122.10685,122.77308,75,61,0
122.77308,122.876854,73,57,0
122.876854,122.98063,72,54,0
122.98063,123.095055,70,60,0
123.095055,123.20948,73,50,0
123.20948,123.323906,70,56,0
123.323906,123.43833,73,50,0
123.43833,123.55276,67,56,0
123.66718,123.84468,70,54,0
123.903854,124.38485,68,60,0
124.62535,124.86129,72,53,0
124.86129,124.97615,77,60,0
124.97615,125.091,72,50,0
125.091,125.20586,76,56,0
125.20586,125.32071,72,50,0
125.32071,125.43556,77,56,0
125.43556,125.55042,72,47,0
125.55042,125.668755,80,54,0
125.668755,125.75751,72,48,0
125.78709,125.90194,79,60,0
125.90194,126.0168,72,50,0
126.0168,126.13165,83,56,0
126.13165,126.246506,72,50,0
126.246506,126.36136,84,56,0
126.36136,126.47621,72,47,0
126.47621,126.59455,82,54,0
126.59455,126.6833,72,48,0
126.71288,126.827736,80,60,0
126.827736,126.94259,72,50,0
126.94259,127.05745,79,56,0
127.05745,127.1723,72,50,0
127.1723,127.287155,77,56,0
127.287155,127.40201,72,47,0
127.40201,127.52034,79,54,0
127.52034,127.60909,72,48,0
127.63868,127.75896,76,60,0
127.75896,127.879234,72,50,0
127.879234,127.99951,77,58,0
127.99951,128.1198,72,52,0
128.1198,128.371,79,56,0
128.371,128.48991,72,68,0
128.48991,128.57909,84,55,0
128.60883,128.72635,73,70,0
128.72635,128.84387,85,58,0
128.84387,128.9614,72,69,0
128.9614,129.07893,84,60,0
129.07893,129.19646,70,70,0
129.19646,129.31398,82,59,0
129.31398,129.43707,68,69,0
129.43707,129.56017,80,61,0
129.56017,129.67813,67,74,0
129.67813,129.79611,79,64,0
129.79611,129.91408,71,75,0
129.91408,130.03204,83,64,0
130.03204,130.15002,72,75,0
130.15002,130.26799,84,64,0
130.26799,130.39108,70,75,0
130.39108,130.51418,82,64,0
130.51418,130.6291,68,75,0
130.6291,130.74489,80,64,0
130.74489,130.86069,65,72,0
130.86069,130.97647,77,64,0
130.97647,131.09488,67,74,0
131.09488,131.2133,79,64,0
131.2133,131.34525,64,71,0
131.34525,131.41121,76,64,0
131.41121,131.47717,65,60,0
131.47717,131.95818,77,80,0
132.19868,132.43462,72,53,0
132.43462,132.54947,77,60,0
132.54947,132.66432,72,50,0
132.66432,132.77919,76,56,0
132.77919,132.89404,72,50,0
132.89404,133.0089,77,56,0
133.0089,133.12375,72,47,0
133.12375,133.24208,80,54,0
133.24208,133.33083,72,48,0
133.36041,133.47527,79,60,0
133.47527,133.59012,72,50,0
133.59012,133.70497,83,56,0
133.70497,133.81984,72,50,0
133.81984,133.9347,84,56,0
133.9347,134.04955,72,47,0
134.04955,134.16788,82,54,0
134.16788,134.25662,72,48,0
134.28621,134.40106,80,60,0
134.40106,134.51591,72,50,0
134.51591,134.63077,79,56,0
134.63077,134.74562,72,50,0
134.74562,134.86049,77,56,0
134.86049,134.97534,72,47,0
134.97534,135.09367,79,54,0
135.09367,135.18242,72,48,0
135.212,135.33228,76,60,0
135.33228,135.45256,72,50,0
135.45256,135.57285,77,58,0
135.57285,135.69312,72,52,0
135.69312,135.94434,79,56,0
135.94434,136.06323,72,68,0
136.06323,136.15242,84,55,0
136.18214,136.29967,73,70,0
136.29967,136.4172,85,58,0
136.4172,136.53473,72,69,0
136.53473,136.65225,84,60,0
136.65225,136.76978,70,70,0
136.76978,136.88731,82,59,0
136.88731,137.0104,68,69,0
137.0104,137.1335,80,61,0
137.1335,137.25146,67,74,0
137.25146,137.36943,79,64,0
137.36943,137.48741,71,75,0
137.48741,137.60538,83,64,0
137.60538,137.72334,72,75,0
137.72334,137.84132,84,64,0
137.84132,137.96442,70,75,0
137.96442,138.08751,82,64,0
138.08751,138.20244,68,75,0
138.20244,138.31822,80,64,0
138.31822,138.434,65,72,0
138.434,138.54979,77,64,0
138.54979,138.66821,67,74,0
138.66821,138.78664,79,64,0
138.78664,138.91856,64,71,0
138.91856,138.98454,76,64,0
138.98454,139.0505,65,60,0
139.0505,139.53151,77,80,0
139.772,140.01251,84,63,0
140.01251,140.24222,82,69,0
140.24222,140.47192,79,60,0
140.47192,140.70163,80,66,0
140.70163,140.9383,77,57,0
140.9383,141.1708,76,68,0
141.1708,141.22893,77,55,0
141.22893,141.28705,79,55,0
141.28705,141.4033,77,55,0
141.4033,141.63756,79,62,0
141.63756,141.87805,84,63,0
141.87805,142.10776,82,69,0
142.10776,142.33748,79,60,0
142.33748,142.5726,80,66,0
142.5726,142.82281,77,57,0
142.82281,143.3396,84,68,0
143.57385,143.81435,84,63,0
143.81435,144.04407,82,69,0
144.04407,144.27377,79,60,0
144.27377,144.50348,80,66,0
144.50348,144.74014,77,57,0
144.74014,144.97266,76,68,0
144.97266,145.03078,77,55,0
145.03078,145.0889,79,53,0
145.0889,145.20515,77,55,0
145.20515,145.4394,79,62,0
145.4394,145.6799,84,63,0
145.6799,145.9096,82,69,0
145.9096,146.13931,79,60,0
146.13931,146.38083,80,66,0
146.38083,146.64934,77,57,0
146.64934,147.1579,84,68,0
147.41217,147.6509,84,56,0
147.6509,147.88602,85,57,0
147.88602,148.12204,84,54,0
148.12204,148.35805,82,57,0
148.35805,148.60628,80,53,0
148.60628,148.845,79,58,0
148.845,149.08934,83,52,0
149.08934,149.33368,84,52,0
149.45584,149.57802,72,53,0
149.69691,149.81583,73,56,0
149.93474,150.05363,72,51,0
150.17487,150.29608,70,56,0
150.41922,150.54234,68,50,0
150.67,150.78983,67,59,0
150.78983,150.90964,68,69,0
150.90964,151.02946,67,59,0
151.02946,151.14928,72,67,0
151.14928,151.26909,70,59,0
151.26909,151.38892,68,65,0
151.38892,151.51402,67,59,0
151.64168,151.76149,68,59,0
151.76149,151.88132,70,69,0
151.88132,152.00113,68,59,0
152.00113,152.12096,73,67,0
152.12096,152.24077,72,59,0
152.24077,152.36058,70,65,0
152.36058,152.48569,68,59,0
152.61334,152.73317,67,59,0
152.73317,152.85298,68,69,0
152.85298,152.97281,67,59,0
152.97281,153.09262,72,67,0
153.09262,153.21243,70,59,0
153.21243,153.33226,68,65,0
153.33226,153.45737,67,59,0
153.58502,153.70483,68,59,0
153.70483,153.82466,70,69,0
153.82466,153.94447,68,59,0
153.94447,154.06429,73,67,0
154.06429,154.18411,72,59,0
154.18411,154.30392,70,65,0
154.30392,154.42903,68,59,0
154.55669,154.67651,67,59,0
154.67651,154.79633,68,69,0
154.79633,154.91615,67,59,0
154.91615,155.03596,72,67,0
155.03596,155.15578,70,59,0
155.15578,155.2756,68,65,0
155.2756,155.40071,67,59,0
155.40071,155.52837,68,73,0
155.52837,155.64682,65,65,0
155.64682,155.76527,68,75,0
155.76527,155.88373,71,66,0
155.88373,156.00218,74,75,0
156.00218,156.12064,71,67,0
156.12064,156.23909,74,74,0
156.23909,156.35754,77,69,0
156.35754,156.47601,80,78,0
156.47601,156.59447,74,69,0
156.59447,156.71292,77,80,0
156.71292,156.83093,80,70,0
156.83093,156.94954,83,81,0
156.94954,157.0695,77,72,0
157.0695,157.19089,80,86,0
157.19089,157.31369,83,78,0
157.31369,157.78572,86,101,0
159.32948,159.4493,64,44,0
159.4493,159.56912,67,51,0
159.56912,159.68893,70,44,0
159.68893,159.80876,73,50,0
159.80876,159.92857,64,44,0
159.92857,160.04839,67,48,0
160.04839,160.16821,70,44,0
160.16821,160.28802,73,50,0
160.28802,160.40785,64,44,0
160.40785,160.52766,67,48,0
160.52766,160.64748,70,44,0
160.64748,160.7673,73,50,0
160.7673,160.88712,64,44,0
160.88712,161.00693,67,48,0
161.00693,161.13203,70,44,0
161.13203,161.2597,73,65,0
161.2597,161.37816,63,57,0
161.37816,161.49661,67,66,0
161.49661,161.61507,70,57,0
161.61507,161.73352,73,65,0
161.73352,161.85197,63,57,0
161.85197,161.97043,67,62,0
161.97043,162.09554,70,57,0
162.09554,162.22319,73,65,0
162.22319,162.34395,63,57,0
162.34395,162.4647,67,67,0
162.4647,162.58545,70,58,0
162.58545,162.70728,73,74,0
162.70728,162.832,63,65,0
162.832,162.95966,67,73,0
162.95966,163.12523,70,65,0
163.12523,163.63379,73,84,0
164.81984,164.93062,72,60,0
164.93062,165.0414,73,55,0
165.0414,165.12666,75,60,0
165.26875,165.35132,75,58,0
165.4889,165.5741,75,64,0
165.7161,165.80518,80,66,0
165.95366,166.61833,75,61,0
166.61833,166.7221,73,57,0
166.7221,166.82588,72,54,0
167.05559,167.2853,70,60,0
167.51501,167.75168,72,59,0
167.75168,167.97089,75,59,0
167.97089,168.02748,73,51,0
168.02748,168.08408,75,46,0
168.08408,168.19725,73,51,0
168.19725,168.44324,72,59,0
168.44324,168.55208,72,60,0
168.55208,168.66093,73,55,0
168.66093,168.74557,75,60,0
168.88664,168.96921,77,61,0
169.1068,169.19138,79,61,0
169.33235,169.41945,80,66,0
169.56462,170.23085,75,61,0
170.23085,170.33463,73,57,0
170.33463,170.4384,72,54,0
170.66725,170.8961,70,60,0
171.12495,171.36162,67,59,0
171.59563,171.82964,68,60,0
172.07088,172.29321,75,53,0
172.29321,172.40437,77,59,0
172.40437,172.51555,75,51,0
172.51555,172.62672,74,56,0
172.62672,172.73788,75,50,0
172.73788,172.84906,74,56,0
172.84906,172.96022,77,55,0
172.96022,173.0814,80,55,0
173.0814,173.20259,83,55,0
173.20259,173.42493,82,59,0
173.42493,173.5947,75,50,0
173.65129,173.87566,75,56,0
173.87566,174.10707,72,51,0
174.10707,174.21823,73,59,0
174.21823,174.3294,72,51,0
174.3294,174.44058,71,56,0
174.44058,174.55174,72,50,0
174.55174,174.66252,71,56,0
174.66252,174.77737,74,55,0
174.77737,174.90144,77,55,0
174.90144,175.02551,80,55,0
175.02551,175.24785,79,59,0
175.24785,175.4146,72,50,0
175.47018,175.69696,72,56,0
175.69696,175.93097,68,51,0
175.93097,176.04214,70,59,0
176.04214,176.1533,68,51,0
176.1533,176.26448,67,56,0
176.26448,176.37564,68,50,0
176.37564,176.48682,67,56,0
176.48682,176.59799,70,55,0
176.59799,176.71368,73,55,0
176.71368,176.83582,77,55,0
176.83582,177.05894,75,59,0
177.05894,177.22873,68,50,0
177.28531,177.50845,68,56,0
177.50845,177.7373,75,51,0
177.7373,177.84886,74,59,0
177.84886,177.96043,77,55,0
177.96043,178.07199,80,62,0
178.07199,178.18356,84,59,0
178.18356,178.29512,82,62,0
178.29512,178.4067,80,61,0
178.4067,178.5207,79,56,0
178.5207,178.6347,77,50,0
178.6347,178.75359,75,59,0
178.75359,178.86516,77,55,0
178.86516,178.9764,75,56,0
178.9764,179.08765,74,56,0
179.08765,179.1989,75,59,0
179.1989,179.31015,79,59,0
179.31015,179.42253,77,54,0
179.42253,179.546,75,50,0
179.546,179.65717,74,59,0
179.65717,179.76834,77,55,0
179.76834,179.8795,80,62,0
179.8795,179.99068,84,59,0
179.99068,180.10184,82,62,0
180.10184,180.21301,80,61,0
180.21301,180.32498,79,56,0
180.32498,180.44994,77,50,0
180.44994,180.56111,75,59,0
180.56111,180.67267,77,55,0
180.67267,180.78424,75,56,0
180.78424,180.8958,74,56,0
180.8958,181.00737,75,59,0
181.00737,181.11893,79,59,0
181.11893,181.2305,77,54,0
181.2305,181.35349,75,50,0
181.35349,181.46466,74,59,0
181.46466,181.57584,77,55,0
181.57584,181.687,80,62,0
181.687,181.79817,84,59,0
181.79817,181.90933,82,62,0
181.90933,182.02051,80,61,0
182.02051,182.13287,79,56,0
182.13287,182.25635,77,50,0
182.25635,182.36752,75,59,0
182.36752,182.47908,77,50,0
182.47908,182.59065,74,56,0
182.59065,182.70221,77,50,0
182.70221,182.81378,75,56,0
182.81378,182.92534,77,51,0
182.92534,183.04192,74,54,0
183.04192,183.15848,77,50,0
183.15848,184.09103,75,59,0
184.09103,184.21701,73,47,0
184.21701,184.34299,75,40,0
184.34299,184.46896,72,44,0
184.46896,184.59494,75,40,0
184.59494,184.72092,73,44,0
184.72092,184.8469,75,40,0
184.8469,184.97926,72,43,0
184.97926,185.11165,75,40,0
185.11165,186.2212,73,47,0
186.2212,186.33199,72,60,0
186.33199,186.44275,73,55,0
186.44275,186.52583,75,60,0
186.6643,186.74739,75,61,0
186.8972,187.00644,75,63,0
187.00644,187.11566,80,58,0
187.11566,187.22488,84,66,0
187.22488,187.33849,80,58,0
187.33849,188.00314,75,61,0
188.00314,188.10692,73,57,0
188.10692,188.2107,72,54,0
188.44041,188.67012,70,53,0
188.90308,189.08058,72,53,0
189.13974,189.35896,75,59,0
189.35896,189.41556,73,51,0
189.41556,189.47214,75,46,0
189.47214,189.58533,73,51,0
189.58533,189.8313,72,59,0
189.8313,189.94016,72,60,0
189.94016,190.049,73,55,0
190.049,190.13364,75,60,0
190.27472,190.35698,77,57,0
190.4941,190.57635,79,59,0
190.71347,190.80057,80,66,0
190.94574,191.61197,75,61,0
191.61197,191.71574,73,57,0
191.71574,191.81952,72,54,0
192.04837,192.22002,70,43,0
192.50932,192.68681,67,50,0
192.98,193.214,68,60,0
193.44801,193.67035,75,53,0
193.67035,193.78152,77,59,0
193.78152,193.89268,75,51,0
193.89268,194.00386,74,56,0
194.00386,194.11502,75,50,0
194.11502,194.2262,74,56,0
194.2262,194.33736,77,55,0
194.33736,194.4549,80,55,0
194.4549,194.57242,83,55,0
194.57242,194.79475,82,59,0
194.79475,194.96452,75,50,0
195.02112,195.24548,75,56,0
195.24548,195.4769,72,51,0
195.4769,195.58807,73,59,0
195.58807,195.69923,72,51,0
195.69923,195.81041,71,56,0
195.81041,195.92157,72,50,0
195.92157,196.03235,71,56,0
196.03235,196.1472,74,55,0
196.1472,196.26562,77,55,0
196.26562,196.40158,80,55,0
196.40158,196.62392,79,59,0
196.62392,196.79066,72,50,0
196.84625,197.07303,72,56,0
197.07303,197.30704,68,51,0
197.30704,197.4182,70,59,0
197.4182,197.52937,68,51,0
197.52937,197.64055,67,56,0
197.64055,197.75171,68,50,0
197.75171,197.86288,67,56,0
197.86288,197.97404,70,55,0
197.97404,198.08975,73,55,0
198.08975,198.20546,77,55,0
198.20546,198.42859,75,59,0
198.42859,198.59836,68,50,0
198.65495,198.87808,68,56,0
198.87808,199.10693,75,51,0
199.10693,199.2185,74,59,0
199.2185,199.33006,77,55,0
199.33006,199.44164,80,62,0
199.44164,199.55319,84,59,0
199.55319,199.66476,82,62,0
199.66476,199.77634,80,61,0
199.77634,199.89034,79,56,0
199.89034,200.00435,77,50,0
200.00435,200.11551,75,59,0
200.11551,200.22708,77,55,0
200.22708,200.33864,75,56,0
200.33864,200.45021,74,56,0
200.45021,200.56178,75,59,0
200.56178,200.67334,79,59,0
200.67334,200.7857,77,54,0
200.7857,200.9092,75,50,0
200.9092,201.02036,74,59,0
201.02036,201.13153,77,55,0
201.13153,201.24269,80,62,0
201.24269,201.35387,84,59,0
201.35387,201.46503,82,62,0
201.46503,201.5762,80,61,0
201.5762,201.68817,79,56,0
201.68817,201.81313,77,50,0
201.81313,201.92429,75,59,0
201.92429,202.03586,77,55,0
202.03586,202.14743,75,56,0
202.14743,202.25899,74,56,0
202.25899,202.37056,75,59,0
202.37056,202.48212,79,59,0
202.48212,202.59369,77,54,0
202.59369,202.71667,75,50,0
202.71667,202.82785,74,59,0
202.82785,202.93901,77,55,0
202.93901,203.05019,80,62,0
203.05019,203.16135,84,59,0
203.16135,203.27252,82,62,0
203.27252,203.3837,80,61,0
203.3837,203.49606,79,56,0
203.49606,203.61954,77,50,0
203.61954,203.7307,75,59,0
203.7307,203.84227,77,50,0
203.84227,203.95384,74,56,0
203.95384,204.0654,77,50,0
204.0654,204.17697,75,56,0
204.17697,204.28853,77,51,0
204.28853,204.4051,74,54,0
204.4051,204.52167,77,50,0
204.52167,205.45421,75,59,0
205.45421,205.58018,73,47,0
205.58018,205.70616,75,40,0
205.70616,205.83214,72,44,0
205.83214,205.95811,75,40,0
205.95811,206.08409,73,44,0
206.08409,206.21007,75,40,0
206.21007,206.34245,72,43,0
206.34245,206.47484,75,40,0
206.47484,207.6005,73,47,0
207.6005,207.71127,72,60,0
207.71127,207.82205,73,55,0
207.82205,207.90549,75,60,0
208.04456,208.13474,75,61,0
208.28505,208.39427,75,63,0
208.39427,208.5035,80,58,0
208.5035,208.61273,84,66,0
208.61273,208.72632,80,58,0
208.72632,209.39099,75,61,0
209.39099,209.49477,73,57,0
209.49477,209.59854,72,54,0
209.82825,210.05795,70,53,0
210.29091,210.46841,72,53,0
210.52759,210.7468,75,59,0
210.7468,210.80339,73,51,0
210.80339,210.85999,75,46,0
210.85999,210.97316,73,51,0
210.97316,211.21915,72,59,0
211.21915,211.32799,72,60,0
211.32799,211.43684,73,55,0
211.43684,211.52148,75,60,0
211.66255,211.74483,77,57,0
211.88193,211.9642,79,59,0
212.1013,212.18842,80,66,0
212.33359,212.99982,75,61,0
212.99982,213.10359,73,57,0
213.10359,213.20737,72,54,0
213.43622,213.60785,70,43,0
213.89716,214.07466,67,50,0
214.36783,214.60184,68,60,0
214.60184,214.71301,77,63,0
214.71301,214.82419,80,57,0
214.82419,214.93535,77,63,0
214.93535,215.04652,80,56,0
215.04652,215.27623,75,63,0
215.50594,215.61711,73,63,0
215.61711,215.72827,80,57,0
215.72827,215.83945,73,63,0
215.83945,215.9506,80,56,0
215.9506,216.18031,72,63,0
216.41003,216.5212,77,63,0
216.5212,216.63237,80,57,0
216.63237,216.74353,77,63,0
216.74353,216.8547,80,56,0
216.8547,217.08441,75,63,0
217.87195,217.98352,70,59,0
217.98352,218.09508,69,66,0
218.09508,218.21808,70,58,0
218.21808,218.44862,77,67,0
218.44862,218.5639,70,63,0
218.79076,218.90231,68,59,0
218.90231,219.01389,67,66,0
219.01389,219.13687,68,58,0
219.13687,219.36743,77,67,0
219.36743,219.48271,68,63,0
219.59799,219.71043,67,68,0
219.71043,219.82248,75,59,0
219.82248,219.93422,68,65,0
219.93422,220.04564,75,59,0
220.04564,220.15666,70,67,0
220.15666,220.26736,75,59,0
220.26736,220.37775,72,67,0
220.37775,220.4983,75,59,0
220.4983,220.6119,73,72,0
220.6119,220.7255,75,59,0
220.7255,220.83908,72,65,0
220.83908,220.95268,75,59,0
220.95268,221.06627,73,67,0
221.06627,221.17986,75,59,0
221.17986,221.29346,70,65,0
221.29346,221.4109,75,59,0
221.4109,221.52419,72,69,0
221.52419,221.63705,80,59,0
221.63705,221.74951,73,69,0
221.74951,221.86165,80,60,0
221.86165,221.97339,75,71,0
221.97339,222.08481,80,61,0
222.08481,222.19582,77,71,0
222.19582,222.31757,80,64,0
222.31757,222.43117,78,73,0
222.43117,222.54475,80,64,0
222.54475,222.65836,77,69,0
222.65836,222.77194,80,59,0
222.77194,222.88554,78,73,0
222.88554,222.99913,80,64,0
222.99913,223.11272,75,67,0
223.11272,223.23381,80,59,0
223.34537,223.45694,77,68,0
223.45694,223.56851,80,75,0
223.56851,223.6915,77,67,0
223.6915,223.80678,85,80,0
223.80678,223.92206,77,66,0
223.92206,224.03734,80,73,0
224.03734,224.1526,77,66,0
224.26418,224.37575,75,68,0
224.37575,224.4873,85,75,0
224.4873,224.61029,75,67,0
224.72186,224.83344,75,68,0
224.83344,224.94499,84,75,0
224.94499,225.068,75,67,0
225.17955,225.29112,73,68,0
225.29112,225.40268,77,75,0
225.40268,225.52568,73,67,0
225.52568,225.64095,82,79,0
225.64095,225.75623,73,66,0
225.75623,225.8715,77,73,0
225.8715,225.98679,73,66,0
226.09836,226.20992,72,68,0
226.20992,226.32149,82,75,0
226.32149,226.44447,72,67,0
226.55693,226.66939,71,68,0
226.66939,226.78183,80,75,0
226.78183,226.90483,71,67,0
227.0181,227.13136,70,68,0
227.13136,227.24463,80,75,0
227.24463,227.36761,70,67,0
227.4813,227.59497,70,68,0
227.59497,227.70866,78,75,0
227.70866,227.83165,70,67,0
227.94492,228.05818,68,68,0
228.05818,228.17145,78,75,0
228.17145,228.29445,68,67,0
228.40771,228.52098,68,68,0
228.52098,228.63425,77,75,0
228.63425,228.75723,68,67,0
228.8705,228.98376,66,68,0
228.98376,229.09703,77,75,0
229.09703,229.22003,66,67,0
229.3333,229.44656,66,68,0
229.44656,229.55983,75,75,0
229.55983,229.68282,66,67,0
229.79651,229.91019,65,68,0
229.91019,230.02386,75,74,0
230.02386,230.14685,65,66,0
230.26094,230.37505,65,66,0
230.37505,230.48914,73,72,0
230.48914,230.61212,65,63,0
230.7258,230.8395,63,63,0
230.8395,230.95317,73,69,0
230.95317,231.07616,63,62,0
231.19025,231.30435,63,62,0
231.30435,231.41844,72,68,0
231.41844,231.54143,63,59,0
231.6551,231.76878,62,59,0
231.76878,231.88248,71,66,0
231.88248,232.00546,62,58,0
232.11832,232.23117,62,59,0
232.23117,232.34404,71,66,0
232.34404,232.46703,62,58,0
232.5786,232.69016,62,59,0
232.69016,232.80173,71,66,0
232.80173,232.92471,62,57,0
233.03629,233.14784,62,58,0
233.14784,233.25941,71,66,0
233.25941,233.3824,62,57,0
233.49397,233.60553,62,58,0
233.60553,233.7171,71,65,0
233.7171,233.84009,62,57,0
233.95166,234.06322,62,58,0
234.06322,234.17479,71,65,0
234.17479,234.29778,62,57,0
234.40935,234.52092,62,58,0
234.52092,234.63248,71,65,0
234.63248,234.75546,62,56,0
234.86703,234.9786,62,57,0
234.9786,235.09016,71,65,0
235.09016,235.22542,62,56,0
235.3386,235.45178,61,51,0
235.45178,235.56496,70,57,0
235.56496,235.68794,61,49,0
235.80113,235.9143,61,50,0
235.9143,236.0275,70,57,0
236.0275,236.15048,61,49,0
236.2645,236.37851,61,50,0
236.37851,236.49251,70,57,0
236.49251,236.6155,61,49,0
236.72992,236.84435,61,50,0
236.84435,236.95877,70,56,0
236.95877,237.08177,61,49,0
237.19662,237.31148,61,49,0
237.31148,237.42633,70,54,0
237.42633,237.5549,61,47,0
237.67061,237.78632,61,46,0
237.78632,237.90201,70,52,0
237.90201,238.03383,61,44,0
238.15399,238.27414,61,44,0
238.27414,238.3943,70,49,0
238.3943,238.52338,61,42,0
238.64946,238.78017,61,42,0
238.78017,238.91557,70,47,0
238.91557,239.11565,61,40,0
240.66417,240.77495,60,51,0
240.77495,240.88573,61,46,0
240.88573,240.9688,63,51,0
241.10727,241.19035,63,51,0
241.32883,241.41464,63,53,0
241.55766,241.64676,68,58,0
241.79524,242.4599,63,51,0
242.4599,242.56367,61,48,0
242.56367,242.66747,60,45,0
242.66747,243.12688,58,51,0
243.12688,243.59325,60,50,0
243.59325,243.81247,63,50,0
243.81247,243.86906,61,43,0
243.86906,243.92566,63,39,0
243.92566,244.03883,61,43,0
244.03883,244.28482,60,50,0
244.28482,244.39366,60,51,0
244.39366,244.5025,61,46,0
244.5025,244.58624,63,51,0
244.7258,244.80836,63,50,0
244.94595,245.02994,63,54,0
245.16989,245.25699,68,56,0
245.40216,246.06839,63,51,0
246.06839,246.17216,61,48,0
246.17216,246.27594,60,45,0
246.27594,246.50479,58,51,0
246.50479,246.67644,61,43,0
246.73364,246.9625,55,50,0
246.9625,247.14,58,42,0
247.19916,247.66718,56,51,0
247.90118,248.01196,72,63,0
248.01196,248.12274,73,57,0
248.12274,248.20583,75,63,0
248.34428,248.42737,75,64,0
248.56584,248.65166,75,66,0
248.7947,248.88377,87,82,0
249.03226,249.69693,75,64,0
249.69693,249.8007,73,59,0
249.8007,249.90448,72,56,0
249.90448,250.13419,70,68,0
250.13419,250.36238,87,74,0
250.36238,250.59056,72,66,0
250.59056,250.82722,87,71,0
250.82722,251.04645,75,61,0
251.04645,251.10304,73,53,0
251.10304,251.15964,75,48,0
251.15964,251.27281,73,53,0
251.27281,251.5188,72,61,0
251.5188,251.62764,72,63,0
251.62764,251.73648,73,57,0
251.73648,251.82022,75,63,0
251.95978,252.04234,75,61,0
252.17993,252.26392,75,67,0
252.40387,252.49097,87,82,0
252.63614,253.30237,75,64,0
253.30237,253.40614,73,59,0
253.40614,253.50992,72,56,0
253.50992,253.73877,70,63,0
253.73877,253.91042,85,69,0
253.96762,254.19647,67,61,0
254.19647,254.37398,70,52,0
254.43314,254.90115,68,63,0
255.13516,255.35751,75,53,0
255.35751,255.57985,77,59,0
255.57985,255.80219,75,56,0
255.80219,255.97382,74,56,0
256.03104,256.47827,83,62,0
256.47827,256.70062,81,53,0
256.70062,256.9274,82,53,0
256.9274,257.14432,72,59,0
257.14432,257.36508,73,61,0
257.36508,257.58585,72,55,0
257.58585,257.75626,71,55,0
257.81305,258.26453,80,63,0
258.26453,258.4853,78,53,0
258.4853,258.59805,79,53,0
258.71085,258.92703,68,59,0
258.92703,259.1478,70,61,0
259.1478,259.37012,68,53,0
259.37012,259.54355,67,53,0
259.60135,260.04868,77,63,0
260.04868,260.26944,74,56,0
260.26944,260.38303,75,61,0
260.4966,260.94183,75,64,0
260.94183,261.16705,74,57,0
261.16705,261.28458,80,61,0
261.4021,261.86954,80,57,0
261.86954,262.09973,79,49,0
262.09973,262.32993,82,59,0
262.32993,262.83197,75,56,0
262.83197,263.1129,74,48,0
263.1129,263.2183,80,51,0
263.39386,265.90927,80,43,0
265.90927,266.27347,78,46,0
266.27347,266.6377,79,53,0
266.6377,267.04465,74,45,0
267.04465,267.471,77,50,0
267.471,267.9065,75,43,0
267.94608,269.16776,75,43,0
269.2788,269.3896,72,63,0
269.3896,269.50037,73,57,0
269.50037,269.58344,75,63,0
269.72192,269.805,75,64,0
269.94345,270.02927,75,66,0
270.1723,270.26138,87,82,0
270.40988,271.07455,75,64,0
271.07455,271.1783,73,59,0
271.1783,271.2821,72,56,0
271.2821,271.5118,70,68,0
271.5118,271.74152,87,74,0
271.74152,271.97122,72,66,0
271.97122,272.2079,87,71,0
272.2079,272.42712,75,61,0
272.42712,272.4837,73,53,0
272.4837,272.54028,75,48,0
272.54028,272.65347,73,53,0
272.65347,272.89944,72,61,0
272.89944,273.0083,72,63,0
273.0083,273.11716,73,57,0
273.11716,273.2009,75,63,0
273.34045,273.423,75,61,0
273.5606,273.64456,75,67,0
273.78452,273.87164,87,82,0
274.01678,274.683,75,64,0
274.683,274.7868,73,59,0
274.7868,274.8906,72,56,0
274.8906,275.11945,70,63,0
275.11945,275.29108,85,69,0
275.3483,275.57715,67,61,0
275.57715,275.75464,70,52,0
275.8138,276.28183,68,63,0
276.51584,276.73816,75,53,0
276.73816,276.9605,77,59,0
276.9605,277.18283,75,56,0
277.18283,277.3545,74,56,0
277.41168,277.86893,83,62,0
277.86893,278.09125,81,53,0
278.09125,278.31802,82,53,0
278.31802,278.53497,72,59,0
278.53497,278.75574,73,61,0
278.75574,278.9765,72,55,0
278.9765,279.14688,71,55,0
279.20367,279.642,80,63,0
279.642,279.86276,78,53,0
279.86276,279.97552,79,53,0
280.0883,280.30447,68,59,0
280.30447,280.52527,70,61,0
280.52527,280.7476,68,53,0
280.7476,280.92102,67,53,0
280.97882,281.42596,77,63,0
281.42596,281.64673,74,56,0
281.64673,281.7603,75,61,0
281.8739,282.31912,75,64,0
282.31912,282.54434,74,57,0
282.54434,282.66187,80,61,0
282.7794,283.24683,80,57,0
283.24683,283.47702,79,49,0
283.47702,283.7072,82,59,0
283.7072,284.20926,75,56,0
284.20926,284.4902,74,48,0
284.4902,284.59558,80,51,0
284.77118,287.31726,80,43,0
287.31726,287.6815,78,46,0
287.6815,288.0457,79,53,0
288.0457,288.45264,74,45,0
288.45264,288.879,77,50,0
288.879,289.31448,75,43,0
289.35406,290.8122,75,43,0
290.94473,291.0555,72,63,0
291.0555,291.1663,73,57,0
291.1663,291.24936,75,63,0
291.38785,291.47092,75,64,0
291.60938,291.6952,75,66,0
291.83823,291.92734,87,82,0
292.0758,292.74048,75,64,0
292.74048,292.84424,73,59,0
292.84424,292.94803,72,56,0
292.94803,293.17773,70,68,0
293.17773,293.40744,87,74,0
293.40744,293.63715,72,66,0
293.63715,293.8738,87,71,0
293.8738,294.09305,75,61,0
294.09305,294.14963,73,53,0
294.14963,294.2062,75,48,0
294.2062,294.3194,73,53,0
294.3194,294.56537,72,61,0
294.56537,294.67422,72,63,0
294.67422,294.78308,73,57,0
294.78308,294.86682,75,63,0
295.00638,295.08893,75,61,0
295.22653,295.3105,75,67,0
295.45044,295.53757,87,82,0
295.6827,296.34897,75,64,0
296.34897,296.45273,73,59,0
296.45273,296.55652,72,56,0
296.55652,296.78537,70,63,0
296.78537,296.957,85,69,0
297.01422,297.24307,67,61,0
297.24307,297.42056,70,52,0
297.47974,297.96896,68,63,0
297.96896,298.08014,77,69,0
298.08014,298.1913,80,62,0
298.1913,298.3025,77,69,0
298.3025,298.41364,80,61,0
298.41364,298.64334,75,69,0
298.87308,298.98422,73,69,0
298.98422,299.0954,80,62,0
299.0954,299.20657,73,69,0
299.20657,299.31775,80,61,0
299.31775,299.54745,72,69,0
299.77716,299.88834,77,69,0
299.88834,299.99948,80,62,0
299.99948,300.11066,77,69,0
300.11066,300.22183,80,61,0
300.22183,300.45154,75,69,0
300.83438,300.98752,84,56,0
300.98752,301.14066,82,56,0
301.14066,301.28943,80,61,0
301.28943,301.43817,79,56,0
301.43817,301.58694,77,56,0
301.58694,301.7357,75,61,0
301.7357,301.88443,73,55,0
301.88443,302.05106,72,55,0
302.05106,302.2766,70,61,0
302.65527,302.8084,70,47,0
302.8084,302.96155,68,47,0
302.96155,303.11032,67,51,0
303.11032,303.25906,65,47,0
303.25906,303.40784,63,47,0
303.40784,303.55658,61,51,0
303.55658,303.70532,60,46,0
303.70532,303.87195,58,46,0
303.87195,303.9613,56,43,0
304.11023,304.1996,56,38,0
304.3485,304.4637,56,43,0
304.4637,304.5789,60,39,0
304.5789,304.6941,63,42,0
304.6941,304.82047,60,39,0
304.82047,304.9095,56,43,0
305.05783,305.14685,56,38,0
305.29523,305.40997,56,43,0
305.40997,305.52475,60,39,0
305.52475,305.63953,63,42,0
305.63953,305.76746,60,39,0
305.76746,305.9147,56,49,0
306.35645,306.94543,60,67,0
306.35645,306.94543,63,67,0
306.35645,306.94543,68,81,0
2.016482,2.237249,60,51,0
2.237249,2.4603806,58,51,0
2.4603806,2.6679356,56,48,0
2.6679356,2.8976445,55,53,0
2.8976445,3.0699263,51,47,0
3.1273534,3.3570626,56,49,0
3.3570626,3.534563,51,45,0
3.59373,3.812948,58,49,0
3.812948,3.982721,51,45,0
4.039312,4.2852945,56,49,0
5.624184,5.8457336,60,51,0
5.8457336,6.068865,58,51,0
6.068865,6.27642,56,48,0
6.27642,6.5052705,61,53,0
6.5052705,6.6769085,58,47,0
6.734121,6.9629717,63,49,0
6.9629717,7.140472,51,45,0
7.199639,7.4336486,56,50,0
7.4336486,7.667658,51,42,0
7.667658,7.9016676,44,47,0
9.256248,9.477015,60,51,0
9.477015,9.700147,58,51,0
9.700147,9.9077015,56,48,0
9.9077015,10.13741,55,53,0
10.13741,10.309692,51,47,0
10.36712,10.596828,56,49,0
10.596828,10.774329,51,45,0
10.833496,11.052714,58,49,0
11.052714,11.222487,51,45,0
11.279078,11.525061,56,49,0
12.867986,13.089535,60,51,0
13.089535,13.312667,58,51,0
13.312667,13.520222,56,48,0
13.520222,13.749072,61,53,0
13.749072,13.92071,58,47,0
13.977922,14.206773,63,49,0
14.206773,14.384274,51,45,0
14.44344,14.67745,56,50,0
14.67745,14.91146,51,42,0
14.91146,15.152695,44,47,0
16.048557,16.271854,68,34,0
16.048557,16.271854,74,41,0
16.271854,16.71375,75,45,0
16.271854,16.71653,67,38,0
17.82896,18.051464,65,34,0
17.82896,18.051464,71,41,0
18.051464,18.490238,72,45,0
18.051464,18.492998,63,38,0
19.609066,19.826757,61,34,0
19.609066,19.826757,67,41,0
19.826757,20.26645,68,45,0
19.826757,20.268291,60,38,0
20.715467,21.160141,68,45,0
20.715467,21.160141,58,38,0
21.610495,22.05636,67,45,0
21.610495,22.05636,63,38,0
22.512629,22.984179,68,45,0
22.512629,22.984179,58,38,0
23.802181,24.37004,39,26,0
26.01299,26.233759,60,51,0
26.233759,26.45689,58,51,0
26.45689,26.664446,56,48,0
26.664446,26.894154,55,53,0
26.894154,27.066437,51,47,0
27.123863,27.35682,56,49,0
27.35682,27.534319,51,45,0
27.593487,27.812704,58,49,0
27.812704,27.982477,51,45,0
28.039068,28.285051,56,49,0
29.621035,29.842585,60,51,0
29.842585,30.065716,58,51,0
30.065716,30.273272,56,48,0
30.273272,30.502121,61,53,0
30.502121,30.67376,58,47,0
30.730972,30.963062,63,49,0
30.963062,31.140562,51,45,0
31.19973,31.433739,56,50,0
31.433739,31.66775,51,42,0
31.66775,31.901758,44,47,0
32.797623,33.020123,68,34,0
32.797623,33.020123,74,41,0
33.020123,33.46202,75,45,0
33.020123,33.464798,67,38,0
34.57723,34.797382,65,34,0
34.57723,34.797382,71,41,0
34.797382,35.236156,72,45,0
34.797382,35.238914,63,38,0
36.354984,36.572674,61,34,0
36.354984,36.572674,67,41,0
36.572674,37.012367,68,45,0
36.572674,37.01421,60,38,0
37.461384,37.90606,68,45,0
37.461384,37.90606,58,38,0
38.35641,38.802277,67,45,0
38.35641,38.802277,63,38,0
39.258545,39.730095,68,45,0
39.258545,39.730095,58,38,0
40.5481,41.105824,39,26,0
42.748775,42.96954,60,51,0
42.96954,43.192673,58,51,0
43.192673,43.400227,56,48,0
43.400227,43.629936,55,53,0
43.629936,43.80222,51,47,0
43.859646,44.0926,56,49,0
44.0926,44.270103,51,45,0
44.32927,44.54849,58,49,0
44.54849,44.71826,51,45,0
44.774853,45.020832,56,49,0
46.35755,46.5791,60,51,0
46.5791,46.80223,58,51,0
46.80223,47.009785,56,48,0
47.009785,47.238636,61,53,0
47.238636,47.410275,58,47,0
47.467487,47.699577,63,49,0
47.699577,47.87708,51,45,0
47.936245,48.170254,56,50,0
48.170254,48.404266,51,42,0
48.404266,48.638275,44,47,0
49.995296,50.216064,60,51,0
50.216064,50.439194,58,51,0
50.439194,50.656887,56,48,0
50.656887,51.09842,55,45,0
51.325607,51.545597,51,48,0
51.545597,51.767933,53,45,0
51.767933,51.990273,56,51,0
51.990273,52.21261,62,48,0
52.21261,52.4303,50,48,0
52.4303,52.651066,51,45,0
52.651066,52.871834,43,51,0
52.871834,53.099022,44,51,0
53.099022,53.31901,45,48,0
53.31901,53.763683,46,45,0
53.986023,54.203712,67,48,0
54.203712,54.422165,65,45,0
54.422165,54.640617,63,51,0
54.640617,54.867805,62,51,0
54.867805,54.98017,56,56,0
54.98017,55.09254,58,48,0
55.09254,55.204105,55,60,0
55.204105,55.31567,58,48,0
55.31567,55.42724,53,58,0
55.42724,55.538803,58,53,0
55.538803,55.761936,51,59,0
55.761936,55.984272,67,55,0
55.984272,56.202724,65,45,0
56.202724,56.421177,63,51,0
56.421177,56.64836,62,51,0
56.64836,56.760326,56,56,0
56.760326,56.87229,58,48,0
56.87229,56.982677,55,60,0
56.982677,57.09306,58,48,0
57.09306,57.20344,53,58,0
57.20344,57.313828,58,53,0
57.313828,57.543537,51,59,0
57.543537,57.653145,63,51,0
57.653145,57.762753,65,49,0
57.762753,57.875935,67,54,0
57.989117,58.098343,63,48,0
58.098343,58.20757,65,46,0
58.20757,58.319534,67,54,0
58.4315,58.540344,63,49,0
58.540344,58.649193,65,46,0
58.649193,59.090015,67,52,0
59.307705,59.417313,67,40,0
59.417313,59.526924,68,39,0
59.526924,59.640106,70,43,0
59.75329,59.862514,67,38,0
59.862514,59.97174,68,36,0
59.97174,60.083706,70,43,0
60.19567,60.304516,67,39,0
60.304516,60.41336,68,36,0
60.41336,60.859623,70,41,0
61.082756,61.192364,63,51,0
61.192364,61.30197,65,49,0
61.30197,61.415154,67,54,0
61.528336,61.63756,63,48,0
61.63756,61.746788,65,46,0
61.746788,61.858753,67,54,0
61.97072,62.079563,63,49,0
62.079563,62.18841,65,46,0
62.18841,62.643253,67,52,0
62.864452,63.08883,55,49,0
63.08883,63.54218,56,52,0
63.765274,63.991486,58,49,0
63.991486,64.448845,60,52,0
64.67183,64.89731,55,49,0
64.89731,65.35203,56,52,0
65.57568,65.80275,58,37,0
65.80275,66.034164,63,44,0
66.034164,66.26557,67,39,0
66.26557,66.49698,70,43,0
66.49698,66.73729,67,38,0
67.669266,67.899826,65,44,0
67.899826,68.13038,68,39,0
68.13038,68.36094,70,43,0
68.36094,68.59941,68,38,0
68.59941,69.53139,65,44,0
66.73729,69.53139,63,44,0
69.53139,69.762794,63,44,0
69.762794,69.99421,67,39,0
69.99421,70.22562,70,43,0
70.22562,70.46593,67,38,0
71.3979,71.628456,65,44,0
71.628456,71.85902,68,39,0
71.85902,72.08957,70,43,0
72.08957,72.32805,68,38,0
72.32805,73.260025,65,53,0
70.46593,73.260025,63,44,0
73.49058,73.942085,67,46,0
73.260025,74.191605,63,54,0
74.19671,76.1167,63,60,0
73.95169,76.1167,67,51,0
73.72114,76.1167,70,55,0
77.87675,78.09752,60,51,0
78.09752,78.32065,58,51,0
78.32065,78.528206,56,48,0
78.528206,78.75791,55,53,0
78.75791,78.93019,51,47,0
78.98762,79.21733,56,49,0
79.21733,79.39483,51,45,0
79.453995,79.67322,58,49,0
79.67322,79.84299,51,45,0
79.89958,80.14556,56,49,0
81.48445,81.706,60,51,0
81.706,81.92913,58,51,0
81.92913,82.13669,56,48,0
82.13669,82.36554,61,53,0
82.36554,82.53718,58,47,0
82.59439,82.82324,63,49,0
82.82324,83.00074,51,45,0
83.059906,83.293915,56,50,0
83.293915,83.52792,51,42,0
83.52792,83.76193,44,47,0
85.11707,85.33784,60,51,0
85.33784,85.56097,58,51,0
85.56097,85.768524,56,48,0
85.768524,85.99824,55,53,0
85.99824,86.17052,51,47,0
86.22794,86.45765,56,49,0
86.45765,86.635155,51,45,0
86.69432,86.913536,58,49,0
86.913536,87.08331,51,45,0
87.1399,87.38589,56,49,0
88.726555,88.948105,60,51,0
88.948105,89.171234,58,51,0
89.171234,89.37879,56,48,0
89.37879,89.607635,61,53,0
89.607635,89.779274,58,47,0
89.83649,90.06534,63,49,0
90.06534,90.24284,51,45,0
90.30201,90.54251,56,50,0
90.54251,90.783005,51,42,0
90.783005,91.023506,44,47,0
91.91937,92.1403,74,41,0
91.91937,92.1403,68,34,0
92.1403,92.36171,75,45,0
92.1403,92.36264,67,38,0
93.6974,93.918335,71,41,0
93.6974,93.918335,65,34,0
93.918335,94.13818,72,45,0
93.918335,94.1391,63,38,0
95.47594,95.69455,61,34,0
95.47594,95.69455,67,41,0
95.69455,95.91531,68,45,0
95.69455,95.91531,60,38,0
96.58577,97.03425,68,45,0
96.58577,97.03425,58,38,0
97.48833,97.936485,63,38,0
97.48833,97.936485,67,45,0
98.399956,98.871506,68,45,0
98.399956,98.871506,58,38,0
99.689514,100.273285,39,26,0
101.92293,102.14369,60,51,0
102.14369,102.36683,58,51,0
102.36683,102.57438,56,48,0
102.57438,102.80409,55,53,0
102.80409,102.97637,51,47,0
103.0338,103.26351,56,49,0
103.26351,103.44101,51,45,0
103.500175,103.71939,58,49,0
103.71939,103.88917,51,45,0
103.945755,104.19174,56,49,0
105.52929,105.75084,60,51,0
105.75084,105.973976,58,51,0
105.973976,106.181526,56,48,0
106.181526,106.41038,61,53,0
106.41038,106.582016,58,47,0
106.63923,106.86808,63,49,0
106.86808,107.04558,51,45,0
107.104744,107.345245,56,50,0
107.345245,107.58575,51,42,0
107.58575,107.82625,44,47,0
108.72211,108.94461,68,34,0
108.72211,108.94461,74,41,0
108.94461,109.16602,75,45,0
108.94461,109.166954,67,38,0
110.50172,110.71925,65,34,0
110.50172,110.71925,71,41,0
110.71925,110.9391,72,45,0
110.71925,110.94002,63,38,0
112.276855,112.50095,61,34,0
112.276855,112.50095,67,41,0
112.50095,112.7208,68,45,0
112.50095,112.72172,60,38,0
113.39217,113.84065,68,45,0
113.39217,113.84065,58,38,0
114.29472,114.74289,67,45,0
114.29472,114.74289,63,38,0
115.20636,115.67791,68,45,0
115.20636,115.67791,58,38,0
116.49592,117.063774,39,26,0
118.71652,118.93729,60,51,0
118.93729,119.160416,58,51,0
119.160416,119.36797,56,48,0
119.36797,119.59768,55,53,0
119.59768,119.769966,51,47,0
119.82739,120.0571,56,49,0
120.0571,120.2346,51,45,0
120.29377,120.512985,58,49,0
120.512985,120.682755,51,45,0
120.73935,120.98533,56,49,0
122.3284,122.54994,60,51,0
122.54994,122.77308,58,51,0
122.77308,122.98063,56,48,0
122.98063,123.20948,61,53,0
123.20948,123.38112,58,47,0
123.43833,123.66718,63,49,0
123.66718,123.84468,51,45,0
123.903854,124.14435,56,50,0
124.14435,124.38485,51,42,0
124.38485,124.62535,44,47,0
124.86129,125.091,68,53,0
125.091,125.26328,67,47,0
125.32071,125.55042,68,49,0
125.55042,125.72792,65,45,0
125.78709,126.246506,64,53,0
126.71288,126.94259,65,53,0
126.94259,127.1723,67,47,0
127.1723,127.40201,68,49,0
127.63868,127.879234,60,53,0
127.879234,128.1198,62,47,0
128.1198,128.371,64,49,0
129.56017,130.51418,60,53,0
129.56017,130.51418,55,42,0
129.56017,130.51418,52,42,0
130.51418,130.97647,60,53,0
130.51418,130.97647,53,45,0
130.97647,131.47717,48,39,0
130.97647,131.47717,60,46,0
131.47717,131.95818,53,53,0
131.47717,131.95818,41,45,0
132.43462,132.66432,68,53,0
132.66432,132.83661,67,47,0
132.89404,133.12375,68,49,0
133.12375,133.30125,65,45,0
133.36041,133.81984,64,53,0
134.28621,134.51591,65,53,0
134.51591,134.74562,67,47,0
134.74562,134.97534,68,49,0
135.212,135.45256,60,53,0
135.45256,135.69312,62,47,0
135.69312,135.94434,64,49,0
137.1335,138.08751,60,53,0
137.1335,138.08751,55,42,0
137.1335,138.08751,52,42,0
138.08751,138.54979,60,53,0
138.08751,138.54979,53,45,0
138.54979,139.0505,48,39,0
138.54979,139.0505,60,46,0
139.0505,139.53151,53,53,0
139.0505,139.53151,41,45,0
140.01251,140.12737,64,48,0
140.12737,140.24222,72,40,0
140.24222,140.35707,64,44,0
140.35707,140.47192,72,40,0
140.47192,140.58678,65,44,0
140.58678,140.70163,72,37,0
140.70163,140.81996,65,43,0
140.81996,140.90872,72,38,0
140.9383,141.05455,60,48,0
141.05455,141.1708,72,40,0
141.1708,141.28705,62,44,0
141.28705,141.4033,72,40,0
141.4033,141.63756,64,44,0
141.87805,141.9929,64,48,0
141.9929,142.10776,72,40,0
142.10776,142.22261,64,44,0
142.22261,142.33748,72,40,0
142.33748,142.45503,65,44,0
142.45503,142.5726,72,37,0
142.5726,142.69771,65,43,0
142.69771,142.79153,72,38,0
142.82281,142.95201,60,48,0
142.95201,143.0812,64,40,0
143.0812,143.2104,67,44,0
143.2104,143.3396,72,40,0
143.3396,143.57385,60,44,0
143.81435,143.9292,64,48,0
143.9292,144.04407,72,40,0
144.04407,144.15892,64,44,0
144.15892,144.27377,72,40,0
144.27377,144.38863,65,44,0
144.38863,144.50348,72,37,0
144.50348,144.62181,65,43,0
144.62181,144.71056,72,38,0
144.74014,144.8564,60,48,0
144.8564,144.97266,72,40,0
144.97266,145.0889,62,44,0
145.0889,145.20515,72,40,0
145.20515,145.4394,64,44,0
145.6799,145.79475,64,48,0
145.79475,145.9096,72,40,0
145.9096,146.02446,64,44,0
146.02446,146.13931,72,40,0
146.13931,146.26007,65,44,0
146.26007,146.38083,72,37,0
146.38083,146.51508,65,43,0
146.51508,146.61577,72,38,0
146.64934,147.1579,60,48,0
147.41217,147.6509,80,47,0
147.6509,147.88602,82,48,0
147.88602,148.12204,80,45,0
148.12204,148.35805,79,48,0
148.35805,148.60628,77,45,0
148.60628,148.845,76,49,0
149.33368,149.45584,68,63,0
149.57802,149.69691,70,66,0
149.81583,149.93474,68,60,0
150.05363,150.17487,67,66,0
150.29608,150.41922,65,59,0
150.54234,151.02946,64,66,0
150.54234,151.02946,60,58,0
151.51402,152.00113,65,66,0
151.51402,152.00113,60,58,0
152.48569,152.97281,60,58,0
152.48569,152.97281,64,66,0
153.45737,153.94447,60,58,0
153.45737,153.94447,65,66,0
154.42903,154.91615,60,58,0
154.42903,154.91615,64,66,0
155.40071,155.88373,59,58,0
155.40071,155.88373,62,66,0
159.20183,159.68893,46,49,0
159.20183,159.68893,34,43,0
161.13203,161.61507,43,63,0
161.13203,161.61507,31,55,0
166.17442,166.39519,60,51,0
166.39519,166.61833,58,51,0
166.61833,166.82588,56,48,0
166.82588,167.05559,55,53,0
167.05559,167.22787,51,47,0
167.2853,167.51501,56,49,0
167.51501,167.6925,51,45,0
167.75168,167.97089,58,49,0
167.97089,168.14067,51,45,0
168.19725,168.44324,56,49,0
169.78616,170.00772,60,51,0
170.00772,170.23085,58,51,0
170.23085,170.4384,56,48,0
170.4384,170.66725,61,53,0
170.66725,170.83888,58,47,0
170.8961,171.12495,63,49,0
171.12495,171.30246,51,45,0
171.36162,171.59563,56,50,0
171.59563,171.82964,51,42,0
171.82964,172.07088,44,47,0
172.96022,173.20259,68,41,0
173.20259,173.64847,67,45,0
174.77737,175.02551,65,41,0
175.02551,175.4674,63,45,0
176.59799,176.83582,61,41,0
176.83582,177.28249,60,45,0
177.7373,178.18356,68,45,0
177.7373,178.18356,58,38,0
178.6347,179.08765,67,45,0
178.6347,179.08765,63,38,0
179.546,179.99068,58,38,0
179.546,179.99068,68,45,0
180.44994,180.8958,67,45,0
180.44994,180.8958,63,38,0
181.35349,181.79817,68,45,0
181.35349,181.79817,58,38,0
182.25635,182.70221,67,45,0
182.25635,182.70221,63,38,0
183.39162,183.62476,51,36,0
183.62476,183.8579,55,38,0
183.8579,184.09103,58,35,0
184.09103,184.59494,63,36,0
187.55925,187.78001,60,51,0
187.78001,188.00314,58,51,0
188.00314,188.2107,56,48,0
188.2107,188.44041,55,53,0
188.44041,188.61269,51,47,0
188.67012,188.90308,56,49,0
188.90308,189.08058,51,45,0
189.13974,189.35896,58,49,0
189.35896,189.52873,51,45,0
189.58533,189.8313,56,49,0
191.1673,191.38884,60,51,0
191.38884,191.61197,58,51,0
191.61197,191.81952,56,48,0
191.81952,192.04837,61,53,0
192.04837,192.22002,58,47,0
192.27722,192.50932,63,49,0
192.50932,192.68681,51,45,0
192.74599,192.98,56,50,0
192.98,193.214,51,42,0
193.214,193.44801,44,47,0
194.33736,194.57242,68,41,0
194.57242,195.0183,67,45,0
196.1472,196.40158,65,41,0
196.40158,196.84348,63,45,0
197.97404,198.20546,61,41,0
198.20546,198.65213,60,45,0
199.10693,199.55319,68,45,0
199.10693,199.55319,58,38,0
200.00435,200.45021,67,45,0
200.00435,200.45021,63,38,0
200.9092,201.35387,58,38,0
200.9092,201.35387,68,45,0
201.81313,202.25899,67,45,0
201.81313,202.25899,63,38,0
202.71667,203.16135,68,45,0
202.71667,203.16135,58,38,0
203.61954,204.0654,67,45,0
203.61954,204.0654,63,38,0
204.7548,204.98795,51,36,0
204.98795,205.22108,55,38,0
205.22108,205.45421,58,35,0
205.45421,205.95811,63,36,0
208.94708,209.16785,60,51,0
209.16785,209.39099,58,51,0
209.39099,209.59854,56,48,0
209.59854,209.82825,55,53,0
209.82825,210.00053,51,47,0
210.05795,210.29091,56,49,0
210.29091,210.46841,51,45,0
210.52759,210.7468,58,49,0
210.7468,210.91656,51,45,0
210.97316,211.21915,56,49,0
212.55513,212.77667,60,51,0
212.77667,212.99982,58,51,0
212.99982,213.20737,56,48,0
213.20737,213.43622,61,53,0
213.43622,213.60785,58,47,0
213.66507,213.89716,63,49,0
213.89716,214.07466,51,45,0
214.13382,214.36783,56,50,0
214.36783,214.60184,44,42,0
214.60184,214.71301,56,44,0
214.60184,214.71301,61,52,0
214.82419,214.93535,56,37,0
214.82419,214.93535,61,45,0
215.04652,215.16138,60,51,0
215.04652,215.16138,56,43,0
215.27623,215.39108,60,44,0
215.27623,215.39108,56,36,0
215.50594,215.61711,56,44,0
215.50594,215.61711,65,52,0
215.72827,215.83945,56,37,0
215.72827,215.83945,65,45,0
215.9506,216.06546,63,51,0
215.9506,216.06546,56,43,0
216.18031,216.29518,63,44,0
216.18031,216.29518,56,36,0
216.41003,216.5212,56,44,0
216.41003,216.5212,61,52,0
216.63237,216.74353,56,37,0
216.63237,216.74353,61,45,0
216.8547,217.08441,60,51,0
216.8547,217.08441,56,43,0
217.76039,218.21808,58,51,0
217.76039,218.21808,50,44,0
218.67918,219.13687,58,51,0
218.67918,219.13687,50,44,0
219.59799,219.82248,51,48,0
219.82248,220.04564,53,48,0
220.04564,220.26736,55,48,0
220.26736,220.4983,56,56,0
220.4983,220.7255,58,61,0
220.7255,220.95268,56,51,0
220.95268,221.17986,58,58,0
221.17986,221.4109,55,51,0
221.4109,221.63705,56,53,0
221.63705,221.86165,58,58,0
221.86165,222.08481,60,59,0
222.08481,222.31757,61,59,0
222.31757,222.54475,63,64,0
222.54475,222.77194,61,56,0
222.77194,222.99913,63,67,0
222.99913,223.23381,60,57,0
223.23381,223.6915,61,71,0
224.1526,224.37575,68,71,0
224.61029,224.83344,69,74,0
225.068,225.52568,70,80,0
225.98679,226.20992,65,71,0
226.44447,226.66939,65,74,0
226.90483,227.13136,66,71,0
227.36761,227.59497,63,74,0
227.83165,228.05818,60,71,0
228.29445,228.52098,61,74,0
228.75723,228.98376,58,71,0
229.22003,229.44656,60,74,0
229.68282,229.91019,57,71,0
230.14685,230.37505,58,72,0
230.61212,230.8395,55,67,0
231.07616,231.30435,56,68,0
231.54143,231.76878,53,63,0
232.00546,232.23117,56,65,0
232.46703,232.69016,59,62,0
232.92471,233.14784,56,65,0
233.3824,233.60553,53,62,0
233.84009,234.06322,56,64,0
234.29778,234.52092,59,61,0
234.75546,234.9786,56,64,0
235.22542,235.45178,51,54,0
235.22542,235.45178,39,48,0
235.68794,235.9143,55,56,0
236.15048,236.37851,58,54,0
236.6155,236.84435,55,55,0
237.08177,237.31148,51,53,0
237.08177,237.31148,39,47,0
237.5549,237.78632,55,52,0
238.03383,238.27414,58,47,0
238.52338,238.78017,55,47,0
239.11565,239.63182,51,43,0
239.11565,239.63182,39,38,0
242.016,242.23677,48,43,0
242.23677,242.4599,46,43,0
242.4599,242.66747,44,40,0
242.66747,242.89717,43,45,0
242.89717,243.06944,39,39,0
243.12688,243.35658,44,41,0
243.35658,243.53409,39,38,0
243.59325,243.81247,46,41,0
243.81247,243.98224,39,38,0
244.03883,244.28482,44,41,0
245.6237,245.84526,48,43,0
245.84526,246.06839,46,43,0
246.06839,246.27594,44,40,0
246.27594,246.50479,49,45,0
246.50479,246.67644,46,39,0
246.73364,246.9625,51,41,0
246.9625,247.14,39,38,0
247.19916,247.43317,44,42,0
247.43317,247.66718,39,35,0
247.66718,247.90118,32,39,0
249.25302,249.47379,60,53,0
249.47379,249.69693,58,53,0
249.69693,249.90448,56,50,0
249.90448,250.13419,55,55,0
250.13419,250.30533,51,49,0
250.36238,250.59056,56,51,0
250.59056,250.76807,51,47,0
250.82722,251.04645,58,51,0
251.04645,251.21622,51,47,0
251.27281,251.5188,56,51,0
252.85768,253.07924,60,53,0
253.07924,253.30237,58,53,0
253.30237,253.50992,56,50,0
253.50992,253.73877,61,55,0
253.73877,253.91042,58,49,0
253.96762,254.19647,63,51,0
254.19647,254.37398,51,47,0
254.43314,254.66714,56,52,0
254.66714,254.90115,51,44,0
254.90115,255.13516,44,49,0
256.03104,256.25595,74,41,0
256.03104,256.25595,68,34,0
256.25595,256.47736,75,45,0
256.25595,256.47827,67,38,0
257.81305,258.04376,71,41,0
257.81305,258.04376,65,34,0
258.04376,258.48254,72,45,0
258.04376,258.4853,63,38,0
259.60135,259.8279,67,41,0
259.60135,259.8279,61,34,0
259.8279,260.26758,68,45,0
259.8279,260.26944,60,38,0
260.7166,261.16705,65,45,0
260.7166,261.16705,58,38,0
261.6393,262.09973,67,45,0
261.6393,262.09973,63,38,0
262.5699,263.1129,65,45,0
262.5699,263.1129,58,38,0
263.99005,264.09415,63,35,0
264.40643,264.53134,51,33,0
264.9061,265.18497,39,33,0
270.63065,270.8514,60,53,0
270.8514,271.07455,58,53,0
271.07455,271.2821,56,50,0
271.2821,271.5118,55,55,0
271.5118,271.68408,51,49,0
271.74152,271.97122,56,51,0
271.97122,272.1487,51,47,0
272.2079,272.42712,58,51,0
272.42712,272.5969,51,47,0
272.65347,272.89944,56,51,0
274.23834,274.4599,60,53,0
274.4599,274.683,58,53,0
274.683,274.8906,56,50,0
274.8906,275.11945,61,55,0
275.11945,275.29108,58,49,0
275.3483,275.57715,63,51,0
275.57715,275.75464,51,47,0
275.8138,276.04782,56,52,0
276.04782,276.28183,51,44,0
276.28183,276.51584,44,49,0
277.41168,277.64658,68,34,0
277.41168,277.64658,74,41,0
277.64658,278.08847,75,45,0
277.64658,278.09125,67,38,0
279.20367,279.42123,71,41,0
279.20367,279.42123,65,34,0
279.42123,279.86,72,45,0
279.42123,279.86276,63,38,0
280.97882,281.2052,67,41,0
280.97882,281.2052,61,34,0
281.2052,281.64487,68,45,0
281.2052,281.64673,60,38,0
282.0939,282.54434,65,45,0
282.0939,282.54434,58,38,0
283.0166,283.47702,67,45,0
283.0166,283.47702,63,38,0
283.94717,284.4902,65,45,0
283.94717,284.4902,58,38,0
285.36734,285.4754,63,35,0
285.79962,285.93008,51,33,0
286.32153,286.59793,39,33,0
292.29657,292.51733,60,53,0
292.51733,292.74048,58,53,0
292.74048,292.94803,56,50,0
292.94803,293.17773,55,55,0
293.17773,293.35,51,49,0
293.40744,293.63715,56,51,0
293.63715,293.81467,51,47,0
293.8738,294.09305,58,51,0
294.09305,294.26282,51,47,0
294.3194,294.56537,56,51,0
295.90427,296.12582,60,53,0
296.12582,296.34897,58,53,0
296.34897,296.55652,56,50,0
296.55652,296.78537,61,55,0
296.78537,296.957,58,49,0
297.01422,297.24307,63,51,0
297.24307,297.42056,51,47,0
297.47974,297.71375,56,52,0
297.71375,297.96896,44,44,0
297.96896,298.08014,61,57,0
297.96896,298.08014,56,48,0
298.1913,298.3025,56,40,0
298.1913,298.3025,61,49,0
298.41364,298.5285,60,56,0
298.41364,298.5285,56,47,0
298.64334,298.7582,56,39,0
298.64334,298.7582,60,48,0
298.87308,298.98422,56,48,0
298.87308,298.98422,65,57,0
299.0954,299.20657,65,49,0
299.0954,299.20657,56,40,0
299.31775,299.4326,63,56,0
299.31775,299.4326,56,47,0
299.54745,299.6623,63,48,0
299.54745,299.6623,56,39,0
299.77716,299.88834,61,57,0
299.77716,299.88834,56,48,0
299.99948,300.11066,61,49,0
299.99948,300.11066,56,40,0
300.22183,300.45154,60,56,0
300.22183,300.45154,56,47,0
301.14066,301.58694,48,30,0
301.14066,301.58694,36,25,0
302.05106,302.50214,49,30,0
302.05106,302.50214,37,25,0
302.96155,303.40784,51,30,0
302.96155,303.40784,39,25,0
303.87195,304.3485,44,30,0
303.87195,304.3485,32,25,0
306.35645,306.94543,44,59,0
306.35645,306.94543,32,50,0
