start_time,end_time,note_value,velocity,instrument_program_number
0.8028892,0.8744405,57,83,0
0.8744405,0.94599175,62,66,0
0.94599175,1.0183576,66,66,0
1.0183576,1.1462566,69,66,0
1.1462566,1.4430807,66,86,0
1.4430807,1.7513422,62,77,0
1.7513422,1.8262447,74,56,0
2.0509527,2.1307058,69,52,0
2.3699656,2.4369419,71,55,0
2.4369419,2.5039182,73,49,0
2.5039182,2.6378706,71,60,0
2.6378706,3.1423266,69,56,0
3.4285316,3.500083,57,83,0
3.500083,3.571634,62,66,0
3.571634,3.6431854,66,66,0
3.6431854,3.7638807,69,66,0
3.7638807,4.0634913,66,86,0
4.0634913,4.3793473,62,77,0
4.3793473,4.455312,81,64,0
4.3793473,4.455312,78,56,0
4.683206,4.759171,78,60,0
4.683206,4.759171,74,52,0
5.0008206,5.0677967,79,55,0
5.0677967,5.134773,81,49,0
5.134773,5.2687254,79,60,0
5.0008206,5.2687254,76,46,0
5.2687254,5.7811956,78,56,0
5.2687254,5.7811956,74,47,0
6.0686893,6.140563,74,60,0
6.140563,6.2124367,78,51,0
6.2124367,6.292505,81,52,0
6.292505,6.3725734,86,52,0
6.3725734,7.3333936,72,67,0
7.3333936,7.4059205,84,60,0
7.4059205,7.478779,81,51,0
7.478779,7.551964,78,52,0
7.551964,7.6435723,72,52,0
7.6435723,8.600612,71,67,0
8.600612,8.673138,71,60,0
8.673138,8.745665,74,51,0
8.745665,8.81885,79,52,0
8.81885,8.905505,83,52,0
8.905505,8.98147,81,64,0
8.905505,8.98147,78,54,0
9.209364,9.289118,78,53,0
9.209364,9.289118,74,44,0
9.528378,9.605072,76,49,0
9.528378,9.605072,79,59,0
9.835157,9.92783,76,44,0
9.835157,9.92783,73,44,0
10.205848,10.880839,73,42,0
10.205848,10.880839,76,50,0
10.880839,11.289392,74,33,0
10.880839,11.289392,78,40,0
11.289392,11.363546,74,60,0
11.363546,11.437701,78,51,0
11.437701,11.511856,81,52,0
11.511856,11.608456,86,52,0
11.608456,12.564479,72,67,0
12.564479,12.637006,84,60,0
12.637006,12.709864,81,51,0
12.709864,12.78305,78,52,0
12.78305,12.874658,72,52,0
12.874658,13.8316965,71,67,0
13.8316965,13.938034,83,60,0
13.938034,14.044373,85,56,0
14.044373,14.15071,86,56,0
14.15071,14.2541895,85,60,0
14.2541895,14.356943,83,55,0
14.356943,14.459996,81,51,0
14.459996,14.563249,79,59,0
14.563249,14.666834,78,51,0
14.666834,14.770578,76,51,0
14.770578,14.874711,74,55,0
14.874711,14.978965,73,49,0
14.978965,15.083219,71,49,0
15.083219,15.161408,69,52,0
15.161408,15.240902,67,49,0
15.240902,15.323336,66,49,0
15.323336,15.4089575,64,48,0
15.4089575,16.11368,62,60,0
16.46604,16.786417,57,53,0
16.786417,16.938484,62,60,0
16.938484,17.063986,61,52,0
17.10582,17.254866,64,60,0
17.254866,17.379673,62,54,0
17.421274,17.568853,66,60,0
17.568853,17.692291,64,54,0
17.733437,17.88865,67,60,0
17.88865,18.029911,66,49,0
18.076998,18.798672,62,48,0
18.076998,18.798672,66,57,0
18.798672,19.051085,61,42,0
18.798672,19.051085,64,50,0
19.135221,19.455597,57,53,0
19.455597,19.604643,64,60,0
19.604643,19.730146,63,52,0
19.77198,19.92177,66,60,0
19.92177,20.046576,64,54,0
20.088177,20.237968,67,60,0
20.237968,20.361404,66,54,0
20.40255,20.55385,69,60,0
20.55385,20.695112,67,49,0
20.742199,21.414543,64,48,0
20.742199,21.414543,67,57,0
21.414543,21.666672,62,42,0
21.414543,21.666672,66,50,0
21.750715,22.07109,62,58,0
22.07109,22.223158,67,66,0
22.223158,22.348661,66,57,0
22.390495,22.541037,69,66,0
22.541037,22.665842,67,59,0
22.707445,22.857986,71,66,0
22.857986,22.981422,69,59,0
23.022568,23.181065,74,66,0
23.181065,23.322325,73,53,0
23.369411,23.527073,71,62,0
23.678375,23.828165,71,62,0
23.828165,24.005386,74,57,0
24.005386,24.159012,69,62,0
24.633598,24.673647,67,55,0
24.673647,24.713694,66,48,0
24.713694,24.793787,67,62,0
24.945087,25.098713,67,62,0
25.098713,25.275934,71,57,0
25.275934,25.430351,66,62,0
25.908407,25.948242,71,60,0
25.948242,25.988075,69,52,0
25.988075,26.067745,71,68,0
26.219046,26.370348,71,68,0
26.370348,26.54757,74,62,0
26.54757,26.70041,69,68,0
27.175322,27.215368,67,55,0
27.215368,27.255415,66,48,0
27.255415,27.33551,67,62,0
27.487577,27.639647,67,62,0
27.639647,27.81792,71,57,0
27.81792,27.973942,66,62,0
28.47047,28.639824,63,55,0
28.639824,28.807209,64,55,0
28.807209,28.972672,66,58,0
28.972672,29.136261,67,58,0
29.136261,29.29802,69,62,0
29.29802,29.460526,71,55,0
29.460526,29.624208,67,61,0
29.624208,29.844343,64,51,0
29.844343,31.119041,62,57,0
31.119041,31.437717,61,50,0
32.075066,32.146618,64,83,0
32.146618,32.218166,69,66,0
32.218166,32.290535,73,66,0
32.290535,32.418434,76,66,0
32.418434,32.733757,73,86,0
32.733757,32.80531,69,83,0
32.80531,32.87686,73,66,0
32.87686,32.949226,76,66,0
32.949226,33.077126,81,66,0
33.077126,33.3908,76,86,0
33.3908,33.462353,76,95,0
33.462353,33.533905,81,75,0
33.533905,33.60627,85,75,0
33.60627,33.73417,88,75,0
33.73417,34.047844,85,102,0
34.659615,34.731167,69,61,0
34.731167,34.802715,64,50,0
34.802715,34.875084,61,50,0
34.875084,35.002983,57,50,0
35.002983,36.254864,55,62,0
36.254864,36.417656,54,61,0
36.417656,36.574333,59,55,0
36.574333,36.72859,58,49,0
36.72859,36.882538,59,54,0
36.882538,37.0384,61,59,0
37.0384,37.19426,59,55,0
37.19426,37.35012,58,47,0
37.35012,37.510307,59,56,0
37.510307,38.780487,57,62,0
38.780487,38.938984,56,61,0
38.938984,39.092453,64,55,0
39.092453,39.245293,63,49,0
39.245293,39.40721,64,54,0
39.40721,39.560055,66,59,0
39.560055,39.7129,64,55,0
39.7129,39.86574,63,47,0
39.86574,40.02593,64,56,0
40.02593,40.334892,63,62,0
40.334892,40.484684,69,57,0
40.969154,41.290115,63,62,0
41.290115,41.447777,64,62,0
41.59908,41.743114,64,62,0
41.743114,41.904163,71,57,0
41.904163,42.1346,64,62,0
42.211414,42.532375,64,57,0
42.532375,42.84134,63,62,0
42.84134,42.99113,69,57,0
43.45857,43.77953,63,62,0
43.77953,43.937195,64,62,0
44.088493,44.231842,64,62,0
44.231842,44.392033,71,57,0
44.392033,44.62247,64,62,0
44.699284,44.73769,62,47,0
44.73769,44.776096,64,44,0
44.776096,45.020245,62,57,0
45.020245,45.16823,61,62,0
45.325962,45.47575,76,64,0
45.94405,46.259594,69,62,0
46.259594,46.417255,68,62,0
46.568558,46.711224,68,62,0
46.711224,46.87491,76,57,0
46.87491,47.105347,68,62,0
47.18216,47.50312,68,57,0
47.50312,47.66078,69,62,0
47.812084,47.956818,69,62,0
47.956818,48.1205,76,57,0
48.1205,48.350937,69,62,0
48.42775,48.748714,69,57,0
48.748714,48.906376,71,62,0
49.05768,49.201714,71,62,0
49.201714,49.367203,76,57,0
49.367203,49.59764,71,62,0
49.674454,49.99509,74,57,0
49.99509,50.149204,73,64,0
50.149204,50.302174,74,57,0
50.302174,50.45389,76,57,0
50.45389,50.604427,73,57,0
50.604427,50.754623,71,62,0
50.754623,50.906048,69,57,0
50.906048,51.0586,68,57,0
51.0586,51.212357,66,57,0
51.212357,51.366596,64,64,0
51.366596,51.51989,63,53,0
51.51989,51.67238,64,57,0
51.67238,51.823902,66,53,0
51.823902,51.97398,64,57,0
51.97398,52.125282,62,51,0
52.125282,52.277946,61,51,0
52.277946,52.44622,59,51,0
52.44622,52.59991,61,56,0
52.59991,52.753082,62,47,0
52.753082,52.904842,64,47,0
52.904842,53.055378,61,47,0
53.055378,53.204697,59,55,0
53.204697,53.35512,57,51,0
53.35512,53.50701,56,51,0
53.50701,53.66806,54,51,0
54.909126,55.063236,73,64,0
55.063236,55.216206,74,57,0
55.216206,55.367924,76,57,0
55.367924,55.51846,73,57,0
55.51846,55.668655,71,62,0
55.668655,55.82008,69,57,0
55.82008,55.972633,68,57,0
55.972633,56.145172,69,57,0
56.145172,56.304512,78,64,0
56.304512,56.463005,80,64,0
56.463005,56.61663,81,68,0
56.61663,56.766422,78,64,0
56.766422,56.91662,76,62,0
56.91662,57.068043,74,61,0
57.068043,57.220596,73,58,0
57.220596,57.37435,71,58,0
57.37435,57.528465,70,64,0
57.528465,57.681435,71,57,0
57.681435,57.83315,73,57,0
57.83315,57.98369,71,57,0
57.98369,58.133884,74,62,0
58.133884,58.28531,73,57,0
58.28531,58.43786,76,61,0
58.43786,58.60283,74,57,0
58.60283,58.91008,78,63,0
59.2163,59.36566,76,62,0
59.36566,59.516148,74,57,0
59.516148,59.66783,73,62,0
59.66783,59.820744,71,57,0
59.820744,60.435883,69,62,0
60.435883,60.517242,71,62,0
60.517242,60.59638,73,54,0
60.59638,60.67339,71,62,0
60.67339,60.748726,73,55,0
60.748726,60.849827,71,62,0
60.849827,60.95176,73,55,0
60.95176,61.054604,71,62,0
61.054604,61.208717,73,64,0
61.208717,61.361683,74,57,0
61.361683,61.5134,76,57,0
61.5134,61.663937,73,57,0
61.663937,61.814137,71,62,0
61.814137,61.965557,69,57,0
61.965557,62.11811,68,57,0
62.11811,62.28863,69,57,0
62.28863,62.447968,78,64,0
62.447968,62.606464,80,64,0
62.606464,62.76009,81,68,0
62.76009,62.909878,78,64,0
62.909878,63.060078,76,62,0
63.060078,63.2115,74,61,0
63.2115,63.36405,73,58,0
63.36405,63.51781,71,58,0
63.51781,63.671925,70,64,0
63.671925,63.82489,71,57,0
63.82489,63.97661,73,57,0
63.97661,64.127144,71,57,0
64.127144,64.27734,74,62,0
64.27734,64.428764,73,57,0
64.428764,64.581314,76,61,0
64.581314,64.746284,74,57,0
64.746284,65.053535,78,63,0
65.366165,65.5379,74,43,0
65.5379,65.71243,73,39,0
65.71243,65.89002,76,42,0
65.89002,66.08322,74,39,0
66.08322,66.53005,78,44,0
66.982864,67.263176,74,46,0
67.263176,67.55717,73,39,0
67.55717,67.86593,76,47,0
67.86593,68.28562,74,39,0
68.28562,69.572556,78,44,0
69.64813,69.72356,65,64,0
69.72356,69.94839,77,70,0
69.94839,70.02284,66,65,0
70.02284,70.24523,78,72,0
70.24523,70.31931,70,68,0
70.31931,70.54156,82,74,0
70.54156,70.61564,71,69,0
70.61564,70.83788,83,75,0
70.83788,70.911964,73,71,0
70.911964,71.13421,85,77,0
71.13421,71.20829,74,71,0
71.20829,71.65278,86,78,0
71.65278,71.80094,83,68,0
71.80094,71.94213,86,74,0
71.94213,72.08332,83,68,0
72.08332,72.23148,86,73,0
72.23148,72.37965,83,70,0
72.37965,72.824135,76,79,0
72.824135,72.8954,81,72,0
72.8954,72.96667,85,75,0
72.96667,73.408966,88,79,0
73.408966,73.480576,81,70,0
73.480576,73.56498,83,56,0
73.60718,73.686226,83,69,0
73.686226,73.7646,85,49,0
73.7646,73.84198,83,61,0
73.84198,73.91825,85,55,0
73.91825,73.993614,83,64,0
73.993614,74.06792,85,58,0
74.06792,74.141335,83,67,0
74.141335,74.21469,85,62,0
74.21469,74.28805,83,70,0
74.28805,74.36163,85,61,0
74.36163,74.43535,83,63,0
74.43535,74.50932,85,55,0
74.50932,74.58345,83,66,0
74.58345,74.65813,85,57,0
74.65813,74.73392,83,69,0
74.73392,74.810905,85,59,0
74.810905,75.43113,81,69,0
75.741234,76.051346,76,69,0
76.051346,76.12808,78,64,0
76.12808,76.20481,80,59,0
76.20481,76.358284,78,68,0
76.358284,76.66522,76,62,0
76.66522,76.74079,78,62,0
76.74079,76.81637,80,62,0
76.81637,76.967514,78,69,0
76.967514,77.220985,76,63,0
77.39888,78.0191,86,77,0
77.220985,78.0191,76,64,0
77.28028,78.0191,80,69,0
77.339584,78.0191,83,73,0
78.32921,78.63932,85,69,0
78.63932,78.792786,83,64,0
78.792786,78.831154,85,50,0
78.831154,78.86952,83,55,0
78.86952,78.912506,82,58,0
78.912506,78.95549,83,60,0
78.95549,79.27166,86,62,0
79.27166,79.42436,76,62,0
79.42436,79.46293,78,54,0
79.46293,79.501495,76,55,0
79.501495,79.54472,75,59,0
79.54472,79.58796,76,59,0
79.58796,79.904625,74,60,0
79.58796,79.904625,80,63,0
79.904625,80.52485,81,69,0
79.904625,80.52485,73,58,0
80.83495,81.145065,76,69,0
81.145065,81.2218,78,64,0
81.2218,81.29853,80,59,0
81.29853,81.452,78,68,0
81.452,81.75894,76,62,0
81.75894,81.83451,78,62,0
81.83451,81.91009,80,62,0
81.91009,82.06123,78,69,0
82.06123,82.314705,76,63,0
82.4926,83.112816,86,77,0
82.314705,83.112816,76,64,0
82.374,83.112816,80,69,0
82.433304,83.112816,83,73,0
83.42293,83.73304,85,69,0
83.73304,83.886505,83,64,0
83.886505,83.92487,85,50,0
83.92487,83.96324,83,55,0
83.96324,84.006226,82,58,0
84.006226,84.04921,83,60,0
84.04921,84.36538,86,62,0
84.36538,84.51808,76,62,0
84.51808,84.55665,78,54,0
84.55665,84.595215,76,55,0
84.595215,84.63844,75,59,0
84.63844,84.68168,76,59,0
84.68168,84.998344,74,60,0
84.68168,84.998344,80,63,0
84.998344,85.61857,81,69,0
84.998344,85.61857,73,58,0
85.77362,85.92867,64,57,0
85.92867,86.08373,68,57,0
86.08373,86.25666,76,50,0
86.41092,86.56518,64,53,0
86.56518,86.71943,69,57,0
86.71943,86.89856,76,49,0
87.06759,87.24736,59,39,0
87.24736,87.43786,62,51,0
87.43786,87.73348,68,42,0
87.73348,88.63928,69,53,0
87.73348,88.63928,61,53,0
89.09218,89.16373,57,83,0
89.16373,89.23528,62,66,0
89.23528,89.30765,66,66,0
89.30765,89.43555,69,66,0
89.43555,89.73237,66,86,0
89.73237,90.040634,62,77,0
90.040634,90.11553,74,56,0
90.34024,90.42,69,52,0
90.659256,90.726234,71,55,0
90.726234,90.793205,73,49,0
90.793205,90.92716,71,60,0
90.92716,91.43162,69,56,0
91.71782,91.789375,57,83,0
91.789375,91.86092,62,66,0
91.86092,91.93247,66,66,0
91.93247,92.05317,69,66,0
92.05317,92.34726,66,86,0
92.34726,92.67331,62,77,0
92.67331,92.749275,81,64,0
92.67331,92.749275,78,56,0
92.97717,93.05313,78,60,0
92.97717,93.05313,74,52,0
93.294785,93.36176,79,55,0
93.36176,93.428734,81,49,0
93.428734,93.56269,79,60,0
93.294785,93.56269,76,46,0
93.56269,94.07516,78,56,0
93.56269,94.07516,74,47,0
94.362656,94.434525,74,60,0
94.434525,94.5064,78,51,0
94.5064,94.58647,81,52,0
94.58647,94.666534,86,52,0
94.666534,95.62736,72,67,0
95.62736,95.69988,84,60,0
95.69988,95.77274,81,51,0
95.77274,95.845924,78,52,0
95.845924,95.93754,72,52,0
95.93754,96.89458,71,67,0
96.89458,96.9671,71,60,0
96.9671,97.03963,74,51,0
97.03963,97.112816,79,52,0
97.112816,97.19947,83,52,0
97.19947,97.27544,81,64,0
97.19947,97.27544,78,54,0
97.50333,97.583084,78,53,0
97.50333,97.583084,74,44,0
97.82234,97.89903,76,49,0
97.82234,97.89903,79,59,0
98.12912,98.221794,76,44,0
98.12912,98.221794,73,44,0
98.49981,99.174805,73,42,0
98.49981,99.174805,76,50,0
99.174805,99.58336,74,33,0
99.174805,99.58336,78,40,0
99.58336,99.65751,74,60,0
99.65751,99.73167,78,51,0
99.73167,99.80582,81,52,0
99.80582,99.90242,86,52,0
99.90242,100.858444,72,67,0
100.858444,100.93097,84,60,0
100.93097,101.00383,81,51,0
101.00383,101.07701,78,52,0
101.07701,101.168625,72,52,0
101.168625,102.12566,71,67,0
102.12566,102.231995,83,60,0
102.231995,102.33833,85,56,0
102.33833,102.44467,86,56,0
102.44467,102.54816,85,60,0
102.54816,102.65091,83,55,0
102.65091,102.75396,81,51,0
102.75396,102.857216,79,59,0
102.857216,102.9608,78,51,0
102.9608,103.064545,76,51,0
103.064545,103.16868,74,55,0
103.16868,103.27293,73,49,0
103.27293,103.37718,71,49,0
103.37718,103.455376,69,52,0
103.455376,103.53487,67,49,0
103.53487,103.6173,66,49,0
103.6173,103.70292,64,48,0
103.70292,104.407646,62,60,0
104.76,105.08038,57,53,0
105.08038,105.232445,62,60,0
105.232445,105.35795,61,52,0
105.39979,105.54883,64,60,0
105.54883,105.67364,62,54,0
105.71524,105.862816,66,60,0
105.862816,105.98625,64,54,0
106.0274,106.18262,67,60,0
106.18262,106.323875,66,49,0
106.370964,107.092636,62,48,0
106.370964,107.092636,66,57,0
107.092636,107.34505,61,42,0
107.092636,107.34505,64,50,0
107.429184,107.749565,57,53,0
107.749565,107.898605,64,60,0
107.898605,108.02411,63,52,0
108.06594,108.21574,66,60,0
108.21574,108.34054,64,54,0
108.38214,108.53193,67,60,0
108.53193,108.655365,66,54,0
108.69651,108.84782,69,60,0
108.84782,108.989075,67,49,0
109.03616,109.7085,64,48,0
109.03616,109.7085,67,57,0
109.7085,109.96063,62,42,0
109.7085,109.96063,66,50,0
110.04468,110.36505,62,58,0
110.36505,110.51712,67,66,0
110.51712,110.642624,66,57,0
110.684456,110.835,69,66,0
110.835,110.95981,67,59,0
111.00141,111.15195,71,66,0
111.15195,111.27539,69,59,0
111.316536,111.47503,74,66,0
111.47503,111.61629,73,53,0
111.663376,111.82104,71,62,0
111.972336,112.12213,71,62,0
112.12213,112.29935,74,57,0
112.29935,112.45297,69,62,0
112.92757,112.96761,67,55,0
112.96761,113.00766,66,48,0
113.00766,113.08775,67,62,0
113.23905,113.39268,67,62,0
113.39268,113.5699,71,57,0
113.5699,113.72431,66,62,0
114.20237,114.2422,71,60,0
114.2422,114.28204,69,52,0
114.28204,114.36171,71,68,0
114.51301,114.664314,71,68,0
114.664314,114.84153,74,62,0
114.84153,114.99438,69,68,0
115.469284,115.50933,67,55,0
115.50933,115.54938,66,48,0
115.54938,115.62947,67,62,0
115.78154,115.93361,67,62,0
115.93361,116.111885,71,57,0
116.111885,116.26791,66,62,0
116.764435,116.933784,63,55,0
116.933784,117.10117,64,55,0
117.10117,117.26663,66,58,0
117.26663,117.43022,67,58,0
117.43022,117.59198,69,62,0
117.59198,117.754486,71,55,0
117.754486,117.918175,67,61,0
117.918175,118.138306,64,51,0
118.138306,119.41301,62,57,0
119.41301,119.73168,61,50,0
120.369026,120.44058,64,83,0
120.44058,120.51213,69,66,0
120.51213,120.584496,73,66,0
120.584496,120.712395,76,66,0
120.712395,121.027725,73,86,0
121.027725,121.09927,69,83,0
121.09927,121.17082,73,66,0
121.17082,121.24319,76,66,0
121.24319,121.371086,81,66,0
121.371086,121.68477,76,86,0
121.68477,121.75632,76,95,0
121.75632,121.827866,81,75,0
121.827866,121.90024,85,75,0
121.90024,122.02813,88,75,0
122.02813,122.34181,85,102,0
122.953575,123.02513,69,61,0
123.02513,123.09668,64,50,0
123.09668,123.169044,61,50,0
123.169044,123.29694,57,50,0
123.29694,124.54883,55,62,0
124.54883,124.711624,54,61,0
124.711624,124.86829,59,55,0
124.86829,125.02255,58,49,0
125.02255,125.176506,59,54,0
125.176506,125.33236,61,59,0
125.33236,125.48822,59,55,0
125.48822,125.64408,58,47,0
125.64408,125.80427,59,56,0
125.80427,127.07445,57,62,0
127.07445,127.23295,56,61,0
127.23295,127.38641,64,55,0
127.38641,127.53926,63,49,0
127.53926,127.70117,64,54,0
127.70117,127.85402,66,59,0
127.85402,128.00687,64,55,0
128.00687,128.1597,63,47,0
128.1597,128.31989,64,56,0
128.31989,128.62886,63,62,0
128.62886,128.77864,69,57,0
129.26312,129.58408,63,62,0
129.58408,129.74174,64,62,0
129.89305,130.03708,64,62,0
130.03708,130.19814,71,57,0
130.19814,130.42857,64,62,0
130.50539,130.82634,64,57,0
130.82634,131.1353,63,62,0
131.1353,131.2851,69,57,0
131.74828,132.06712,63,62,0
132.06712,132.22478,64,62,0
132.37608,132.51942,64,62,0
132.51942,132.67961,71,57,0
132.67961,132.91005,64,62,0
132.98686,133.02527,62,47,0
133.02527,133.06367,64,44,0
133.06367,133.30783,62,57,0
133.30783,133.45581,61,62,0
133.61356,133.76334,76,64,0
134.22893,134.5431,69,62,0
134.5431,134.70078,68,62,0
134.85207,134.99474,68,62,0
134.99474,135.15843,76,57,0
135.15843,135.38887,68,62,0
135.46568,135.78664,68,57,0
135.78664,135.9443,69,62,0
136.0956,136.24033,69,62,0
136.24033,136.40402,76,57,0
136.40402,136.63446,69,62,0
136.71127,137.03223,69,57,0
137.03223,137.1899,71,62,0
137.34119,137.48523,71,62,0
137.48523,137.65073,76,57,0
137.65073,137.88116,71,62,0
137.95798,138.27861,74,57,0
138.27861,138.43272,73,64,0
138.43272,138.5857,74,57,0
138.5857,138.73741,76,57,0
138.73741,138.88794,73,57,0
138.88794,139.03815,71,62,0
139.03815,139.18956,69,57,0
139.18956,139.34212,68,57,0
139.34212,139.49588,66,57,0
139.49588,139.65022,64,64,0
139.65022,139.80319,63,53,0
139.80319,139.9548,64,57,0
139.9548,140.10507,66,53,0
140.10507,140.25514,64,57,0
140.25514,140.40645,62,51,0
140.40645,140.55911,61,51,0
140.55911,140.72739,59,51,0
140.72739,140.88107,61,56,0
140.88107,141.03424,62,47,0
141.03424,141.186,64,47,0
141.186,141.33655,61,47,0
141.33655,141.48586,59,55,0
141.48586,141.63629,57,51,0
141.63629,141.78818,56,51,0
141.78818,141.94922,54,51,0
143.19029,143.3444,73,64,0
143.3444,143.49738,74,57,0
143.49738,143.64908,76,57,0
143.64908,143.79962,73,57,0
143.79962,143.94981,71,62,0
143.94981,144.10124,69,57,0
144.10124,144.2538,68,57,0
144.2538,144.42764,69,57,0
144.42764,144.58698,78,64,0
144.58698,144.74547,80,64,0
144.74547,144.8991,81,68,0
144.8991,145.04889,78,64,0
145.04889,145.19908,76,62,0
145.19908,145.35051,74,61,0
145.35051,145.50307,73,58,0
145.50307,145.65681,71,58,0
145.65681,145.81093,70,64,0
145.81093,145.9639,71,57,0
145.9639,146.11562,73,57,0
146.11562,146.26616,71,57,0
146.26616,146.41635,74,62,0
146.41635,146.56778,73,57,0
146.56778,146.72032,76,61,0
146.72032,146.8853,74,57,0
146.8853,147.19255,78,63,0
147.49876,147.64813,76,62,0
147.64813,147.79861,74,57,0
147.79861,147.9503,73,62,0
147.9503,148.10321,71,57,0
148.10321,148.71835,69,62,0
148.71835,148.79971,71,62,0
148.79971,148.87885,73,54,0
148.87885,148.95586,71,62,0
148.95586,149.03119,73,55,0
149.03119,149.1323,71,62,0
149.1323,149.23422,73,55,0
149.23422,149.33707,71,62,0
149.33707,149.49118,73,64,0
149.49118,149.64415,74,57,0
149.64415,149.79587,76,57,0
149.79587,149.94641,73,57,0
149.94641,150.0966,71,62,0
150.0966,150.24803,69,57,0
150.24803,150.40057,68,57,0
150.40057,150.57109,69,57,0
150.57109,150.73044,78,64,0
150.73044,150.88893,80,64,0
150.88893,151.04256,81,68,0
151.04256,151.19235,78,64,0
151.19235,151.34254,76,62,0
151.34254,151.49397,74,61,0
151.49397,151.64651,73,58,0
151.64651,151.80028,71,58,0
151.80028,151.95439,70,64,0
151.95439,152.10736,71,57,0
152.10736,152.25908,73,57,0
152.25908,152.4096,71,57,0
152.4096,152.55981,74,62,0
152.55981,152.71123,73,57,0
152.71123,152.86378,76,61,0
152.86378,153.02875,74,57,0
153.02875,153.336,78,63,0
153.64864,153.82037,74,43,0
153.82037,153.9949,73,39,0
153.9949,154.17249,76,42,0
154.17249,154.36569,74,39,0
154.36569,154.81252,78,44,0
155.26534,155.54564,74,46,0
155.54564,155.83963,73,39,0
155.83963,156.14839,76,47,0
156.14839,156.56808,74,39,0
156.56808,157.85503,78,44,0
157.9306,158.00603,65,64,0
158.00603,158.23087,77,70,0
158.23087,158.30531,66,65,0
158.30531,158.5277,78,72,0
158.5277,158.60178,70,68,0
158.60178,158.82402,82,74,0
158.82402,158.8981,71,69,0
158.8981,159.12035,83,75,0
159.12035,159.19443,73,71,0
159.19443,159.41667,85,77,0
159.41667,159.49075,74,71,0
159.49075,159.93524,86,78,0
159.93524,160.0834,83,68,0
160.0834,160.2246,86,74,0
160.2246,160.36578,83,68,0
160.36578,160.51395,86,73,0
160.51395,160.66211,83,70,0
160.66211,161.1066,76,79,0
161.1066,161.17787,81,72,0
161.17787,161.24913,85,75,0
161.24913,161.69144,88,79,0
161.69144,161.76305,81,70,0
161.76305,161.84744,83,56,0
161.88965,161.96869,83,69,0
161.96869,162.04707,85,49,0
162.04707,162.12445,83,61,0
162.12445,162.20071,85,55,0
162.20071,162.27608,83,64,0
162.27608,162.35039,85,58,0
162.35039,162.4238,83,67,0
162.4238,162.49716,85,62,0
162.49716,162.57051,83,70,0
162.57051,162.6441,85,61,0
162.6441,162.71782,83,63,0
162.71782,162.7918,85,55,0
162.7918,162.86592,83,66,0
162.86592,162.9406,85,57,0
162.9406,163.01639,83,69,0
163.01639,163.09337,85,59,0
163.09337,163.71964,81,69,0
164.02888,164.33812,76,69,0
164.33812,164.41486,78,64,0
164.41486,164.4916,80,59,0
164.4916,164.64507,78,68,0
164.64507,164.952,76,62,0
164.952,165.02757,78,62,0
165.02757,165.10315,80,62,0
165.10315,165.2543,78,69,0
165.2543,165.50777,76,63,0
165.68565,166.30588,86,77,0
165.50777,166.30588,76,64,0
165.56706,166.30588,80,69,0
165.62636,166.30588,83,73,0
166.61598,166.9261,85,69,0
166.9261,167.07956,83,64,0
167.07956,167.11794,85,50,0
167.11794,167.1563,83,55,0
167.1563,167.19928,82,58,0
167.19928,167.24226,83,60,0
167.24226,167.55844,86,62,0
167.55844,167.71115,76,62,0
167.71115,167.74971,78,54,0
167.74971,167.78827,76,55,0
167.78827,167.83151,75,59,0
167.83151,167.87474,76,59,0
167.87474,168.19284,74,60,0
167.87474,168.19284,80,63,0
168.19284,168.81717,81,69,0
168.19284,168.81717,73,58,0
169.12483,169.4325,76,69,0
169.4325,169.50922,78,64,0
169.50922,169.58595,80,59,0
169.58595,169.73943,78,68,0
169.73943,170.04636,76,62,0
170.04636,170.12193,78,62,0
170.12193,170.19751,80,62,0
170.19751,170.34866,78,69,0
170.34866,170.60213,76,63,0
170.78003,171.40024,86,77,0
170.60213,171.40024,76,64,0
170.66142,171.40024,80,69,0
170.72072,171.40024,83,73,0
171.71036,172.02046,85,69,0
172.02046,172.17393,83,64,0
172.17393,172.2123,85,50,0
172.2123,172.25066,83,55,0
172.25066,172.29364,82,58,0
172.29364,172.33664,83,60,0
172.33664,172.6528,86,62,0
172.6528,172.80551,76,62,0
172.80551,172.84407,78,54,0
172.84407,172.88263,76,55,0
172.88263,172.92587,75,59,0
172.92587,172.9691,76,59,0
172.9691,173.28577,74,60,0
172.9691,173.28577,80,63,0
173.28577,173.90599,81,69,0
173.28577,173.90599,73,58,0
174.06105,174.2161,64,57,0
174.2161,174.37115,68,57,0
174.37115,174.54408,76,50,0
174.69835,174.8526,64,53,0
174.8526,175.00685,69,57,0
175.00685,175.18599,76,49,0
175.35501,175.53477,59,39,0
175.53477,175.72528,62,51,0
175.72528,176.0209,68,42,0
176.0209,176.92671,69,53,0
176.0209,176.92671,61,53,0
179.71259,179.86638,54,51,0
179.86638,179.90482,55,40,0
179.90482,179.94327,54,44,0
179.94327,179.98172,53,42,0
179.98172,180.02016,54,42,0
180.02016,180.32773,58,49,0
180.32773,180.40123,59,44,0
180.40123,180.47473,58,40,0
180.47473,180.62851,59,51,0
180.62851,180.93608,62,44,0
180.93608,181.00993,61,46,0
181.00993,181.0838,59,42,0
181.0838,181.23999,61,51,0
181.23999,181.57466,64,48,0
181.57466,181.76207,62,51,0
181.76207,181.81271,64,42,0
181.81271,181.86336,62,38,0
181.86336,181.914,61,43,0
181.914,181.96466,62,39,0
181.96466,182.36984,66,49,0
182.77502,182.84657,62,70,0
182.84657,182.91814,66,56,0
182.91814,182.9905,71,56,0
182.9905,183.1184,74,56,0
183.1184,183.41522,71,73,0
183.41522,183.72348,66,65,0
183.72348,183.79839,78,56,0
184.02309,184.10284,71,52,0
184.3421,184.40909,73,55,0
184.40909,184.47606,74,49,0
184.47606,184.61002,73,60,0
184.61002,185.11447,71,56,0
185.40067,185.47223,62,70,0
185.47223,185.54378,66,56,0
185.54378,185.61533,71,56,0
185.61533,185.73602,74,56,0
185.73602,186.03563,71,73,0
186.03563,186.35149,66,65,0
186.35149,186.42744,83,64,0
186.65535,186.73131,78,60,0
186.97296,187.03993,79,55,0
187.03993,187.10692,81,49,0
187.10692,187.24086,79,60,0
187.24086,187.75334,78,56,0
188.04083,188.11238,71,70,0
188.11238,188.18393,74,56,0
188.18393,188.25548,78,56,0
188.25548,188.37617,83,56,0
188.37617,188.67578,78,73,0
188.67578,189.00008,74,65,0
189.00008,189.08714,79,64,0
189.34834,189.44373,78,60,0
189.72983,189.81303,76,55,0
189.81303,189.89624,78,49,0
189.89624,190.06265,76,60,0
190.06265,190.57512,74,56,0
191.35777,191.51155,60,34,0
191.51155,191.66534,59,41,0
191.66534,191.81912,60,34,0
191.81912,191.9729,62,40,0
191.9729,192.1236,60,34,0
192.1236,192.27429,64,41,0
192.27429,192.43552,60,37,0
192.59848,192.7507,67,39,0
192.7507,192.90292,66,47,0
192.90292,193.05516,67,39,0
193.05516,193.2066,69,46,0
193.2066,193.35806,67,39,0
193.35806,193.50952,71,47,0
193.50952,193.6716,67,42,0
193.6716,194.9067,66,39,0
194.9067,195.06879,59,52,0
195.06879,195.22025,64,44,0
195.22025,195.3717,63,53,0
195.3717,195.52315,64,44,0
195.52315,195.6746,66,52,0
195.6746,195.82455,64,44,0
195.82455,195.97449,67,53,0
195.97449,196.13747,64,48,0
196.13747,197.3641,67,56,0
196.13747,197.3641,76,66,0
197.5262,197.67766,76,57,0
197.67766,197.8291,75,72,0
197.8291,197.98056,76,59,0
197.98056,198.13356,78,72,0
198.13356,198.28656,76,60,0
198.28656,198.43956,79,76,0
198.43956,198.60432,76,68,0
198.60432,198.77946,74,78,0
198.77946,198.93016,83,72,0
198.93016,199.08086,82,80,0
199.08086,199.23155,83,76,0
199.23155,199.38225,85,84,0
199.38225,199.53294,83,78,0
199.53294,199.68362,86,94,0
199.68362,199.85115,83,86,0
199.85115,200.00494,82,88,0
200.00494,200.15872,85,72,0
200.15872,200.3125,78,78,0
200.3125,200.4791,82,64,0
200.4791,200.63928,73,72,0
200.63928,200.79947,78,55,0
200.79947,200.97775,70,62,0
200.97775,201.16728,73,50,0
201.16728,201.89333,66,62,0
202.25635,202.57672,66,53,0
202.57672,202.72879,71,60,0
202.72879,202.8543,70,52,0
202.89612,203.04517,73,60,0
203.04517,203.16998,71,54,0
203.21158,203.35916,74,60,0
203.35916,203.48259,73,54,0
203.52374,203.67896,76,60,0
203.67896,203.82022,74,49,0
203.86731,204.58897,71,48,0
203.86731,204.58897,74,57,0
204.58897,204.84138,70,42,0
204.58897,204.84138,73,50,0
204.92552,205.2459,66,53,0
205.2459,205.39494,73,60,0
205.39494,205.52045,71,52,0
205.56229,205.71208,74,60,0
205.71208,205.83688,73,54,0
205.87848,206.02827,76,60,0
206.02827,206.1517,74,54,0
206.19286,206.34416,78,60,0
206.34416,206.48541,76,49,0
206.5325,207.20485,73,48,0
206.5325,207.20485,76,57,0
207.20485,207.45697,71,42,0
207.20485,207.45697,74,50,0
207.54102,207.86139,71,53,0
207.86139,208.01044,76,60,0
208.01044,208.12625,75,52,0
208.16486,208.31262,78,60,0
208.31262,208.42784,76,54,0
208.46625,208.6133,79,60,0
208.6133,208.72911,78,54,0
208.76772,208.91902,81,64,0
208.91902,209.04124,79,58,0
209.08199,209.23044,83,68,0
209.23044,209.3789,81,65,0
209.3789,209.52736,79,64,0
209.52736,209.67581,78,63,0
209.67581,209.82445,76,61,0
209.82445,209.97397,74,59,0
209.97397,210.12439,73,58,0
210.12439,210.27588,71,55,0
210.27588,210.42493,73,60,0
210.42493,210.54134,71,52,0
210.58014,210.72993,74,60,0
210.72993,210.84634,73,54,0
210.88515,211.03365,76,60,0
211.03365,211.14844,74,54,0
211.18669,211.33519,78,64,0
211.33519,211.45407,76,58,0
211.49368,211.64215,79,68,0
211.64215,211.7906,78,65,0
211.7906,211.93906,76,64,0
211.93906,212.08751,74,63,0
212.08751,212.23615,73,61,0
212.23615,212.38567,71,59,0
212.38567,212.53609,69,58,0
212.53609,212.68758,67,55,0
212.68758,212.83662,66,60,0
212.83662,212.95303,64,52,0
212.99184,213.14163,67,60,0
213.14163,213.25745,66,54,0
213.29605,213.44583,69,60,0
213.44583,213.56226,67,54,0
213.60106,213.75235,71,64,0
213.75235,213.87459,69,58,0
213.91533,214.06378,72,68,0
214.06378,214.21223,71,65,0
214.21223,214.36069,69,64,0
214.36069,214.50916,67,63,0
214.50916,214.65779,66,61,0
214.65779,214.80731,64,59,0
214.80731,214.95773,62,58,0
214.95773,215.10922,60,55,0
215.10922,215.29073,59,68,0
215.29073,215.44295,71,62,0
215.44295,215.59517,70,68,0
215.59517,215.753,71,62,0
215.753,215.90445,69,68,0
215.90445,216.05591,67,65,0
216.05591,216.20737,66,65,0
216.20737,216.35883,64,65,0
216.35883,216.51181,63,68,0
216.51181,216.66481,64,61,0
216.66481,216.81781,66,61,0
216.81781,216.98112,64,61,0
216.98112,217.13213,67,68,0
217.13213,217.28464,66,66,0
217.28464,217.43878,64,63,0
217.43878,217.5822,62,62,0
217.59543,218.82204,62,68,0
218.82204,218.97122,61,64,0
218.97122,219.12042,57,55,0
219.12042,219.26962,64,64,0
219.26962,219.41881,61,59,0
219.41881,219.56801,67,66,0
219.56801,219.7172,64,59,0
219.7172,219.8664,73,66,0
219.8664,220.01462,67,59,0
220.01462,220.16301,76,69,0
220.16301,220.31602,73,62,0
220.31602,220.47351,79,70,0
220.47351,220.64017,76,64,0
220.64017,220.97862,83,74,0
222.11813,222.27432,82,47,0
222.27432,222.4305,83,50,0
222.4305,222.58669,82,47,0
222.58669,222.74287,83,51,0
223.36761,223.5238,82,47,0
223.5238,223.67998,83,50,0
223.67998,223.83617,82,47,0
223.83617,223.99236,83,51,0
224.6171,224.77328,82,59,0
224.77328,224.92946,83,63,0
224.92946,225.08571,82,59,0
225.08571,225.24185,83,66,0
225.24185,225.39552,85,70,0
225.39552,225.54707,86,71,0
225.54707,225.69945,85,69,0
225.69945,225.85278,83,70,0
225.85278,226.00706,81,68,0
226.00706,226.1623,79,66,0
226.1623,226.31831,78,66,0
226.31831,226.47285,79,69,0
226.47285,226.62457,81,72,0
226.62457,226.77405,83,75,0
226.77405,226.92389,81,71,0
226.92389,227.07468,79,70,0
227.07468,227.22636,78,68,0
227.22636,227.37903,76,66,0
227.37903,227.53253,75,65,0
227.53253,227.68396,76,69,0
227.68396,227.83218,78,72,0
227.83218,227.97884,79,75,0
227.97884,228.12659,78,71,0
228.12659,228.27563,76,70,0
228.27563,228.42603,74,68,0
228.42603,228.57765,73,66,0
228.57765,228.73053,71,58,0
228.73053,228.87958,69,64,0
228.87958,229.02863,71,51,0
229.02863,229.17767,68,57,0
229.17767,229.32672,71,48,0
229.32672,229.47577,69,57,0
229.47577,229.62482,71,49,0
229.62482,229.77386,68,56,0
229.77386,229.93953,71,49,0
229.93953,230.09084,69,66,0
230.09084,230.24213,71,56,0
230.24213,230.39137,68,62,0
230.39137,230.5406,71,54,0
230.5406,230.68985,69,63,0
230.68985,230.8391,71,56,0
230.8391,230.98833,66,63,0
230.98833,231.15219,69,56,0
231.15219,231.29991,67,64,0
231.29991,231.44765,69,50,0
231.44765,231.59537,66,57,0
231.59537,231.74309,69,50,0
231.74309,231.89082,67,56,0
231.89082,232.03854,69,50,0
232.03854,232.18626,66,57,0
232.18626,232.35194,69,49,0
232.35194,232.50099,67,66,0
232.50099,232.65002,69,56,0
232.65002,232.79907,66,62,0
232.79907,232.94812,69,49,0
232.94812,233.10175,67,58,0
233.10175,233.25537,69,48,0
233.25537,233.409,66,57,0
233.409,233.57286,69,50,0
233.57286,234.03186,67,59,0
234.03186,234.19753,66,47,0
234.19753,234.65652,67,49,0
234.65652,234.8269,66,41,0
234.8269,235.29546,67,46,0
235.29546,235.48341,66,36,0
235.46779,235.64444,67,40,0
235.62805,235.8117,66,35,0
235.79466,235.98592,67,37,0
235.96812,236.16745,66,33,0
236.14906,236.86354,67,35,0
237.8338,237.91069,69,35,0
237.91069,237.98758,73,38,0
237.98758,238.06448,76,40,0
238.06448,238.14137,79,45,0
239.2303,239.30185,57,83,0
239.30185,239.3734,62,66,0
239.3734,239.44577,66,66,0
239.44577,239.57367,69,66,0
239.57367,239.87048,66,86,0
239.87048,240.17876,62,77,0
240.17876,240.25365,74,56,0
240.47836,240.55812,69,52,0
240.79738,240.86435,71,55,0
240.86435,240.93132,73,49,0
240.93132,241.06528,71,60,0
241.06528,241.56973,69,56,0
241.85594,241.92749,57,83,0
241.92749,241.99904,62,66,0
241.99904,242.07059,66,66,0
242.07059,242.19128,69,66,0
242.19128,242.4909,66,86,0
242.4909,242.80676,62,77,0
242.80676,242.88272,81,64,0
242.80676,242.88272,78,56,0
243.11061,243.18658,78,60,0
243.11061,243.18658,74,52,0
243.42822,243.49521,79,55,0
243.49521,243.56218,81,49,0
243.56218,243.69614,79,60,0
243.42822,243.69614,76,46,0
243.69614,244.2086,78,56,0
243.69614,244.2086,74,47,0
244.4961,244.56798,74,60,0
244.56798,244.63985,78,51,0
244.63985,244.71991,81,52,0
244.71991,244.79999,86,52,0
244.79999,245.7608,72,67,0
245.7608,245.83333,84,60,0
245.83333,245.90619,81,51,0
245.90619,245.97937,78,52,0
245.97937,246.07098,72,52,0
246.07098,247.02802,71,67,0
247.02802,247.10054,71,60,0
247.10054,247.17308,74,51,0
247.17308,247.24626,79,52,0
247.24626,247.33292,83,52,0
247.33292,247.40887,81,64,0
247.33292,247.40887,78,54,0
247.63678,247.71652,78,53,0
247.63678,247.71652,74,44,0
247.95578,248.03249,76,49,0
247.95578,248.03249,79,59,0
248.26257,248.35524,76,44,0
248.26257,248.35524,73,44,0
248.63326,249.30824,73,42,0
248.63326,249.30824,76,50,0
249.30824,249.7168,74,33,0
249.30824,249.7168,78,40,0
249.7168,249.79095,74,60,0
249.79095,249.86511,78,51,0
249.86511,249.93927,81,52,0
249.93927,250.03586,86,52,0
250.03586,250.99188,72,67,0
250.99188,251.0644,84,60,0
251.0644,251.13727,81,51,0
251.13727,251.21046,78,52,0
251.21046,251.30206,72,52,0
251.30206,252.25911,71,67,0
252.25911,252.36545,83,60,0
252.36545,252.47179,85,56,0
252.47179,252.57812,86,56,0
252.57812,252.6816,85,60,0
252.6816,252.78435,83,55,0
252.78435,252.8874,81,51,0
252.8874,252.99066,79,59,0
252.99066,253.09424,78,51,0
253.09424,253.19798,76,51,0
253.19798,253.30212,74,55,0
253.30212,253.40637,73,49,0
253.40637,253.51062,71,49,0
253.51062,253.58882,69,52,0
253.58882,253.6683,67,49,0
253.6683,253.75075,66,49,0
253.75075,253.83636,64,48,0
253.83636,254.54109,62,60,0
254.89345,255.21382,57,53,0
255.21382,255.36589,62,60,0
255.36589,255.4914,61,52,0
255.53323,255.68228,64,60,0
255.68228,255.80708,62,54,0
255.84868,255.99626,66,60,0
255.99626,256.1197,64,54,0
256.16086,256.31607,67,60,0
256.31607,256.4573,66,49,0
256.5044,257.22607,62,48,0
256.5044,257.22607,66,57,0
257.22607,257.4785,61,42,0
257.22607,257.4785,64,50,0
257.56262,257.883,57,53,0
257.883,258.03204,64,60,0
258.03204,258.153,63,52,0
258.19333,258.3431,66,60,0
258.3431,258.4634,64,54,0
258.50354,258.65332,67,60,0
258.65332,258.77234,66,54,0
258.81204,258.96332,69,60,0
258.96332,259.11133,67,49,0
259.16068,259.833,64,48,0
259.16068,259.833,67,57,0
259.833,260.08514,62,42,0
259.833,260.08514,66,50,0
260.1692,260.48956,62,58,0
260.48956,260.64163,67,66,0
260.64163,260.76456,66,57,0
260.80554,260.9561,69,66,0
260.9561,261.07706,67,59,0
261.11737,261.2679,71,66,0
261.2679,261.39136,69,59,0
261.4325,261.59097,74,66,0
261.59097,261.73224,73,53,0
261.77933,261.93698,71,62,0
262.0883,262.2381,71,62,0
262.2381,262.4153,74,57,0
262.4153,262.56894,69,62,0
263.04352,263.08356,67,55,0
263.08356,263.12363,66,48,0
263.12363,263.2037,67,62,0
263.355,263.50864,67,62,0
263.50864,263.68585,71,57,0
263.68585,263.84027,66,62,0
264.31833,264.35815,71,60,0
264.35815,264.398,69,52,0
264.398,264.47766,71,68,0
264.62897,264.78027,71,68,0
264.78027,264.9575,74,62,0
264.9575,265.11032,69,68,0
265.58524,265.62527,67,55,0
265.62527,265.66534,66,48,0
265.66534,265.74542,67,62,0
265.8975,266.04956,67,62,0
266.04956,266.22784,71,57,0
266.22784,266.38385,66,62,0
266.8804,267.04974,63,55,0
267.04974,267.21713,64,55,0
267.21713,267.3826,66,58,0
267.3826,267.54617,67,58,0
267.54617,267.70795,69,62,0
267.70795,267.87045,71,55,0
267.87045,268.03412,67,61,0
268.03412,268.25427,64,51,0
268.25427,269.52896,62,57,0
269.52896,269.84763,61,50,0
270.485,270.55655,57,74,0
270.55655,270.62808,61,59,0
270.62808,270.70047,64,59,0
270.70047,270.82834,67,59,0
270.82834,271.14368,64,77,0
271.14368,271.21524,64,79,0
271.21524,271.28677,67,70,0
271.28677,271.35916,73,70,0
271.35916,271.48706,76,70,0
271.48706,271.80072,73,84,0
271.80072,271.87228,67,87,0
271.87228,271.94382,73,78,0
271.94382,272.0162,76,76,0
272.0162,272.1441,79,78,0
272.1441,272.45776,76,96,0
273.06955,273.14108,67,61,0
273.14108,273.21265,64,50,0
273.21265,273.285,61,50,0
273.285,273.4129,57,50,0
273.4129,274.6648,55,62,0
274.6648,274.82758,54,61,0
274.82758,274.98425,62,55,0
274.98425,275.13852,61,49,0
275.13852,275.29245,62,54,0
275.29245,275.44833,64,59,0
275.44833,275.6042,62,55,0
275.6042,275.76004,61,47,0
275.76004,275.92023,62,56,0
275.92023,277.1904,60,62,0
277.1904,277.3532,59,61,0
277.3532,277.5099,64,55,0
277.5099,277.66412,63,49,0
277.66412,277.81808,64,54,0
277.81808,277.97394,66,59,0
277.97394,278.1298,64,55,0
278.1298,278.28568,63,47,0
278.28568,278.44586,64,56,0
278.44586,279.71603,62,62,0
279.71603,279.87454,61,61,0
279.87454,280.02798,69,55,0
280.02798,280.18085,68,49,0
280.18085,280.34274,69,54,0
280.34274,280.4956,71,59,0
280.4956,280.64844,69,55,0
280.64844,280.8013,68,47,0
280.8013,280.9615,69,56,0
280.9615,281.27045,68,62,0
281.27045,281.42023,74,57,0
281.9047,282.22565,68,62,0
282.22565,282.38333,69,62,0
282.53464,282.67865,69,62,0
282.67865,282.83972,76,57,0
282.83972,283.07016,69,62,0
283.14697,283.46793,69,57,0
283.46793,283.7769,68,62,0
283.7769,283.92667,74,57,0
284.3941,284.7151,68,62,0
284.7151,284.87274,69,62,0
285.02405,285.1674,69,62,0
285.1674,285.32758,76,57,0
285.32758,285.558,69,62,0
285.63483,285.67325,67,47,0
285.67325,285.71164,69,44,0
285.71164,285.95578,67,57,0
285.95578,286.10376,66,62,0
286.2615,286.4113,81,64,0
286.8796,287.19513,74,62,0
287.19513,287.3528,73,62,0
287.5041,287.64676,73,62,0
287.64676,287.81046,81,57,0
287.81046,288.0409,73,62,0
288.1177,288.43866,73,57,0
288.43866,288.59634,74,62,0
288.74762,288.89236,74,62,0
288.89236,289.05606,81,57,0
289.05606,289.2865,74,62,0
289.3633,289.68427,74,57,0
289.68427,289.84192,76,62,0
289.99323,290.13727,76,62,0
290.13727,290.30273,81,57,0
290.30273,290.53317,76,62,0
290.61,290.93063,79,57,0
290.93063,291.08475,78,64,0
291.08475,291.23773,79,57,0
291.23773,291.38943,81,57,0
291.38943,291.53998,78,57,0
291.53998,291.6902,76,62,0
291.6902,291.84158,74,57,0
291.84158,291.99414,73,57,0
291.99414,292.14792,71,57,0
292.14792,292.30215,69,64,0
292.30215,292.45544,68,53,0
292.45544,292.6079,69,57,0
292.6079,292.75946,71,53,0
292.75946,292.90952,69,57,0
292.90952,293.06082,67,51,0
293.06082,293.2135,66,51,0
293.2135,293.38177,64,51,0
293.38177,293.53546,66,56,0
293.53546,293.68863,67,47,0
293.68863,293.8404,69,47,0
293.8404,293.99094,66,47,0
293.99094,294.14026,64,55,0
294.14026,294.29068,62,51,0
294.29068,294.44257,61,51,0
294.44257,294.6036,59,51,0
295.84467,295.99878,78,64,0
295.99878,296.15176,79,57,0
296.15176,296.30347,81,57,0
296.30347,296.454,78,57,0
296.454,296.60422,76,62,0
296.60422,296.7556,74,57,0
296.7556,296.90817,73,57,0
296.90817,297.08072,74,57,0
297.08072,297.24005,83,64,0
297.24005,297.39856,85,64,0
297.39856,297.5522,86,68,0
297.5522,297.70197,83,64,0
297.70197,297.85217,81,62,0
297.85217,298.0036,79,61,0
298.0036,298.15613,78,58,0
298.15613,298.3099,76,58,0
298.3099,298.46402,75,64,0
298.46402,298.61697,76,57,0
298.61697,298.7687,78,57,0
298.7687,298.91922,76,57,0
298.91922,299.06943,79,62,0
299.06943,299.22086,78,57,0
299.22086,299.3734,81,61,0
299.3734,299.53836,79,57,0
299.53836,299.8456,83,63,0
300.15186,300.3012,81,62,0
300.3012,300.4517,79,57,0
300.4517,300.6034,78,62,0
300.6034,300.7563,76,57,0
300.7563,301.37143,74,62,0
301.37143,301.4528,76,62,0
301.4528,301.53192,78,54,0
301.53192,301.60895,76,62,0
301.60895,301.68427,78,55,0
301.68427,301.78537,76,62,0
301.78537,301.8873,78,55,0
301.8873,301.99014,76,62,0
301.99014,302.14426,78,64,0
302.14426,302.29724,79,57,0
302.29724,302.44894,81,57,0
302.44894,302.5995,78,57,0
302.5995,302.7497,76,62,0
302.7497,302.9011,74,57,0
302.9011,303.05365,73,57,0
303.05365,303.22418,74,57,0
303.22418,303.3835,83,64,0
303.3835,303.54202,85,64,0
303.54202,303.69565,86,68,0
303.69565,303.84543,85,64,0
303.84543,303.99564,83,62,0
303.99564,304.14703,81,61,0
304.14703,304.2996,79,58,0
304.2996,304.45337,78,58,0
304.45337,304.60748,76,64,0
304.60748,304.76044,78,57,0
304.76044,304.91214,79,57,0
304.91214,305.06268,76,57,0
305.06268,305.2129,74,65,0
305.2129,305.36432,73,57,0
305.36432,305.51688,71,59,0
305.51688,305.68738,73,57,0
305.68738,305.8467,81,64,0
305.8467,306.00522,83,64,0
306.00522,306.15884,85,68,0
306.15884,306.30862,83,64,0
306.30862,306.45883,81,62,0
306.45883,306.61026,79,61,0
306.61026,306.76282,78,58,0
306.76282,306.91656,76,58,0
306.91656,307.07068,74,64,0
307.07068,307.22363,76,57,0
307.22363,307.37537,78,57,0
307.37537,307.5259,74,57,0
307.5259,307.6761,73,62,0
307.6761,307.8275,71,57,0
307.8275,307.98007,70,57,0
307.98007,308.1506,71,57,0
308.1506,308.30267,79,64,0
308.30267,308.45245,81,64,0
308.45245,308.60452,83,68,0
308.60452,308.7543,81,64,0
308.7543,308.9045,79,62,0
308.9045,309.05594,78,58,0
309.05594,309.2085,76,63,0
309.2085,309.36224,74,58,0
309.36224,309.51636,73,64,0
309.51636,309.6693,74,55,0
309.6693,309.82104,76,57,0
309.82104,309.9716,74,55,0
309.9716,310.12177,73,62,0
310.12177,310.2732,71,55,0
310.2732,310.42575,69,57,0
310.42575,310.59625,67,55,0
310.59625,310.75037,66,64,0
310.75037,310.90335,67,55,0
310.90335,311.05505,69,57,0
311.05505,311.2056,66,55,0
311.2056,311.3558,64,62,0
311.3558,311.50723,62,55,0
311.50723,311.6598,61,57,0
311.6598,311.8303,62,54,0
311.8303,311.9844,71,64,0
311.9844,312.1374,73,53,0
312.1374,312.2891,74,57,0
312.2891,312.43964,71,54,0
312.43964,312.5898,69,62,0
312.5898,312.74124,67,56,0
312.74124,312.8938,66,57,0
312.8938,313.06433,64,54,0
313.06433,313.21844,63,64,0
313.21844,313.3714,64,50,0
313.3714,313.52313,66,57,0
313.52313,313.67365,64,53,0
313.67365,313.82385,67,62,0
313.82385,313.97528,66,57,0
313.97528,314.12784,69,61,0
314.12784,314.2928,67,57,0
314.2928,314.60004,71,63,0
314.9127,315.0844,79,43,0
315.0844,315.25894,78,39,0
315.25894,315.43652,81,42,0
315.43652,315.62973,79,39,0
315.62973,316.08768,83,44,0
316.54648,316.81107,55,33,0
316.81107,317.10358,54,28,0
317.10358,317.41235,57,33,0
317.41235,317.83203,55,28,0
317.83203,318.39978,59,31,0
319.22812,319.30573,63,64,0
319.30573,319.533,75,70,0
319.533,319.60742,64,65,0
319.60742,319.82983,76,72,0
319.82983,319.9039,66,68,0
319.9039,320.12616,78,74,0
320.12616,320.20023,67,69,0
320.20023,320.4225,79,75,0
320.4225,320.49655,70,71,0
320.49655,320.7188,82,77,0
320.7188,320.79288,71,71,0
320.79288,321.01526,83,72,0
321.01526,321.08936,73,68,0
321.08936,321.31158,85,74,0
321.31158,321.38568,74,69,0
321.38568,321.6079,86,75,0
321.6079,321.682,68,71,0
321.682,321.90424,80,77,0
321.90424,321.97833,69,71,0
321.97833,322.86023,81,79,0
322.86023,322.93393,79,72,0
322.93393,323.00766,78,72,0
323.00766,323.07925,76,72,0
323.07925,323.20587,74,72,0
323.20587,323.2849,76,69,0
323.2849,323.36328,78,49,0
323.36328,323.44067,76,61,0
323.44067,323.51694,78,55,0
323.51694,323.5923,76,64,0
323.5923,323.6666,78,58,0
323.6666,323.74002,76,67,0
323.74002,323.8134,78,62,0
323.8134,323.88672,76,70,0
323.88672,323.96033,78,61,0
323.96033,324.03403,76,63,0
324.03403,324.108,78,55,0
324.108,324.18213,76,66,0
324.18213,324.2568,78,57,0
324.2568,324.3326,76,69,0
324.3326,324.40958,78,59,0
324.40958,325.02982,74,69,0
325.3399,325.65002,69,69,0
325.65002,325.72678,71,64,0
325.72678,325.8035,73,59,0
325.8035,325.95697,71,68,0
325.95697,326.26392,69,62,0
326.26392,326.33948,71,62,0
326.33948,326.41504,73,62,0
326.41504,326.5662,71,69,0
326.5662,326.81967,69,63,0
326.99756,327.61777,79,77,0
326.81967,327.61777,69,64,0
326.87897,327.61777,73,69,0
326.93826,327.61777,76,73,0
327.9279,328.238,78,69,0
328.238,328.39148,76,64,0
328.39148,328.42984,78,50,0
328.42984,328.4682,76,55,0
328.4682,328.5112,75,58,0
328.5112,328.55417,76,60,0
328.55417,328.87033,79,62,0
328.87033,329.02304,69,62,0
329.02304,329.0616,71,54,0
329.0616,329.1002,69,55,0
329.1002,329.1434,68,59,0
329.1434,329.18665,69,59,0
329.18665,329.5033,67,60,0
329.18665,329.5033,73,63,0
329.5033,330.12354,74,69,0
329.5033,330.12354,66,58,0
330.43362,330.74374,69,69,0
330.74374,330.8205,71,64,0
330.8205,330.89722,73,59,0
330.89722,331.0507,71,68,0
331.0507,331.35764,69,62,0
331.35764,331.4332,71,62,0
331.4332,331.50876,73,62,0
331.50876,331.6599,71,69,0
331.6599,331.9171,69,63,0
332.10614,332.72638,79,77,0
331.9171,332.72638,69,64,0
331.98013,332.72638,73,69,0
332.04312,332.72638,76,73,0
333.03647,333.3466,78,69,0
333.3466,333.50006,76,64,0
333.50006,333.53842,78,50,0
333.53842,333.57678,76,55,0
333.57678,333.61978,75,58,0
333.61978,333.66275,76,60,0
333.66275,333.97894,79,62,0
333.97894,334.13162,69,62,0
334.13162,334.1702,71,54,0
334.1702,334.20877,69,55,0
334.20877,334.25198,68,59,0
334.25198,334.29523,69,59,0
334.29523,334.6119,73,63,0
334.29523,334.6119,67,60,0
334.6119,334.922,74,69,0
334.6119,334.922,66,58,0
335.38718,335.54224,57,57,0
335.54224,335.69727,61,57,0
335.69727,335.8702,69,50,0
336.02448,336.1787,57,53,0
336.1787,336.33298,62,57,0
336.33298,336.52594,69,49,0
336.72662,336.92734,52,39,0
336.92734,337.13937,55,51,0
337.13937,337.53162,61,42,0
337.53162,338.43744,62,53,0
337.53162,338.43744,54,53,0
1.1462566,1.7513422,38,63,0
1.1462566,1.7513422,50,75,0
2.0509527,2.1307058,62,36,0
2.0509527,2.1307058,66,42,0
2.3699656,2.6378706,62,40,0
2.3699656,2.6378706,67,48,0
2.6378706,3.1423266,62,34,0
2.6378706,3.1423266,66,40,0
3.7638807,4.3793473,38,63,0
3.7638807,4.3793473,50,75,0
4.683206,4.759171,62,42,0
5.0008206,5.2687254,57,48,0
5.2687254,5.7811956,62,40,0
6.692847,6.7729154,54,40,0
6.692847,6.7729154,62,40,0
7.01312,7.093189,54,45,0
7.01312,7.093189,62,45,0
7.9625854,8.042338,55,40,0
7.9625854,8.042338,62,40,0
8.281598,8.361352,55,45,0
8.281598,8.361352,62,45,0
8.905505,9.528378,57,46,0
9.528378,10.205848,45,40,0
10.205848,10.880839,50,36,0
10.880839,11.289392,38,32,0
11.927131,12.006799,54,40,0
11.927131,12.006799,62,40,0
12.245805,12.325474,54,45,0
12.245805,12.325474,62,45,0
13.193671,13.273424,55,40,0
13.193671,13.273424,62,40,0
13.512684,13.592437,55,45,0
13.512684,13.592437,62,45,0
14.15071,14.459996,57,48,0
14.770578,15.083219,45,39,0
15.4089575,16.11368,38,48,0
18.437836,18.798672,56,43,0
18.798672,19.051085,57,48,0
21.078371,21.414543,49,43,0
21.414543,21.666672,50,48,0
23.369411,23.527073,55,52,0
23.527073,23.678375,62,45,0
23.678375,23.828165,55,54,0
23.828165,24.005386,62,39,0
24.005386,24.159012,54,49,0
24.159012,24.312637,62,38,0
24.312637,24.466263,54,49,0
24.466263,24.633598,62,43,0
24.633598,24.793787,59,52,0
24.793787,24.945087,62,45,0
24.945087,25.098713,59,54,0
25.098713,25.275934,62,39,0
25.275934,25.430351,57,49,0
25.430351,25.584768,62,38,0
25.584768,25.739183,57,49,0
25.739183,25.908407,62,43,0
25.908407,26.067745,55,52,0
26.067745,26.219046,62,45,0
26.219046,26.370348,55,54,0
26.370348,26.54757,62,39,0
26.54757,26.70041,54,49,0
26.70041,26.853254,62,38,0
26.853254,27.006098,54,49,0
27.006098,27.175322,62,43,0
27.175322,27.33551,59,52,0
27.33551,27.487577,62,45,0
27.487577,27.639647,59,54,0
27.639647,27.81792,62,39,0
27.81792,27.973942,57,49,0
27.973942,28.129965,62,38,0
28.129965,28.285988,57,49,0
28.285988,28.47047,62,43,0
28.47047,29.136261,55,52,0
29.460526,29.844343,43,34,0
29.460526,29.844343,55,40,0
29.844343,31.119041,54,48,0
31.119041,31.437717,52,45,0
29.844343,31.437717,45,40,0
32.418434,32.733757,52,63,0
32.418434,32.733757,45,63,0
32.418434,32.733757,49,63,0
32.418434,32.733757,57,75,0
33.077126,33.3908,52,63,0
33.077126,33.3908,45,63,0
33.077126,33.3908,49,63,0
33.077126,33.3908,57,75,0
33.73417,34.047844,52,63,0
33.73417,34.047844,45,63,0
33.73417,34.047844,49,63,0
33.73417,34.047844,57,75,0
35.002983,35.16317,45,46,0
35.16317,35.318386,52,38,0
35.318386,35.4736,50,46,0
35.4736,35.63294,52,39,0
35.63294,35.786564,49,47,0
35.786564,35.94019,52,38,0
35.94019,36.093815,45,49,0
36.093815,36.254864,49,41,0
36.254864,36.882538,50,46,0
37.510307,37.675613,51,46,0
37.675613,37.83311,54,38,0
37.83311,37.99061,52,46,0
37.99061,38.15323,54,39,0
38.15323,38.307884,51,47,0
38.307884,38.462936,54,38,0
38.462936,38.617992,47,49,0
38.617992,38.780487,51,41,0
38.780487,39.40721,52,46,0
40.02593,40.18359,54,52,0
40.18359,40.334892,60,45,0
40.334892,40.484684,54,54,0
40.484684,40.661903,60,38,0
40.661903,40.81553,54,45,0
40.81553,40.969154,60,33,0
40.969154,41.12278,54,42,0
41.12278,41.290115,60,35,0
41.290115,41.447777,56,52,0
41.447777,41.59908,59,45,0
41.59908,41.743114,56,54,0
41.743114,41.904163,59,39,0
41.904163,42.05779,56,49,0
42.05779,42.211414,59,38,0
42.211414,42.36504,56,49,0
42.36504,42.532375,59,43,0
42.532375,42.69004,54,52,0
42.69004,42.84134,60,45,0
42.84134,42.99113,54,54,0
42.99113,43.151318,60,38,0
43.151318,43.304943,54,46,0
43.304943,43.45857,60,37,0
43.45857,43.612194,54,46,0
43.612194,43.77953,60,37,0
43.77953,43.937195,56,52,0
43.937195,44.088493,59,45,0
44.088493,44.231842,56,54,0
44.231842,44.392033,59,39,0
44.392033,44.54566,56,49,0
44.54566,44.699284,59,38,0
44.699284,44.85291,56,49,0
44.85291,45.020245,59,43,0
45.020245,45.17466,57,52,0
45.17466,45.325962,61,45,0
45.325962,45.47575,57,54,0
45.47575,45.6368,61,33,0
45.6368,45.790424,57,43,0
45.790424,45.94405,61,38,0
45.94405,46.097675,57,43,0
46.097675,46.259594,61,38,0
46.259594,46.417255,59,52,0
46.417255,46.568558,62,45,0
46.568558,46.711224,59,54,0
46.711224,46.87491,62,39,0
46.87491,47.028534,59,49,0
47.028534,47.18216,62,38,0
47.18216,47.335785,59,49,0
47.335785,47.50312,62,43,0
47.50312,47.66078,61,52,0
47.66078,47.812084,64,45,0
47.812084,47.956818,61,54,0
47.956818,48.1205,64,39,0
48.1205,48.274124,61,49,0
48.274124,48.42775,64,38,0
48.42775,48.581375,61,49,0
48.581375,48.748714,64,43,0
48.748714,48.906376,56,52,0
48.906376,49.05768,64,45,0
49.05768,49.201714,56,54,0
49.201714,49.367203,64,39,0
49.367203,49.52083,56,49,0
49.52083,49.674454,64,38,0
49.674454,49.82808,56,49,0
49.82808,49.99509,64,43,0
49.99509,50.604427,57,52,0
51.212357,51.823902,59,52,0
51.212357,51.823902,56,52,0
52.44622,53.055378,57,52,0
52.44622,53.055378,45,52,0
53.66806,53.818604,52,54,0
53.818604,53.969143,51,50,0
53.969143,54.119415,52,50,0
54.119415,54.270176,54,50,0
54.270176,54.422626,52,55,0
54.422626,54.576885,50,49,0
54.576885,54.732944,49,49,0
54.732944,54.909126,47,49,0
54.909126,55.51846,45,57,0
56.145172,56.766422,62,57,0
57.37435,57.98369,38,57,0
60.127995,60.435883,49,32,0
60.435883,60.748726,50,39,0
60.127995,60.748726,57,39,0
60.748726,61.054604,56,39,0
60.748726,61.054604,52,32,0
61.054604,61.361683,45,48,0
61.054604,61.361683,57,57,0
61.663937,61.965557,61,39,0
62.28863,62.909878,62,57,0
63.51781,64.127144,50,57,0
71.20829,71.35645,71,50,0
71.20829,71.35645,66,42,0
71.20829,71.35645,62,42,0
71.504616,71.65278,71,45,0
71.504616,71.65278,66,37,0
71.504616,71.65278,62,37,0
71.80094,71.94213,71,45,0
71.80094,71.94213,66,37,0
71.80094,71.94213,62,37,0
72.08332,72.23148,71,45,0
72.08332,72.23148,66,37,0
72.08332,72.23148,62,37,0
72.37965,72.52781,73,50,0
72.37965,72.52781,69,42,0
72.37965,72.52781,64,42,0
72.67597,72.824135,73,45,0
72.67597,72.824135,69,37,0
72.67597,72.824135,64,37,0
72.96667,73.1141,73,45,0
72.96667,73.1141,69,37,0
72.96667,73.1141,64,37,0
73.261536,73.408966,73,45,0
73.261536,73.408966,69,37,0
73.261536,73.408966,64,37,0
73.60718,73.7646,68,50,0
73.60718,73.7646,64,50,0
73.91825,74.06792,68,45,0
73.91825,74.06792,64,45,0
74.21469,74.36163,68,45,0
74.21469,74.36163,64,45,0
74.50932,74.65813,68,45,0
74.50932,74.65813,64,45,0
74.810905,74.965965,57,57,0
74.965965,75.12102,69,47,0
75.12102,75.27607,68,50,0
75.27607,75.43113,69,47,0
75.43113,75.58618,61,57,0
75.58618,75.741234,69,48,0
75.741234,75.89629,68,50,0
75.89629,76.051346,69,47,0
76.051346,76.20481,62,57,0
76.20481,76.358284,69,47,0
76.358284,76.51175,61,50,0
76.51175,76.66522,69,47,0
76.66522,76.81637,62,57,0
76.81637,76.967514,69,48,0
76.967514,77.16169,61,50,0
77.16169,77.39888,69,47,0
77.39888,78.0191,68,57,0
77.39888,78.0191,59,48,0
78.63932,78.95549,66,57,0
78.63932,78.95549,62,57,0
79.27166,79.58796,64,57,0
79.27166,79.58796,52,48,0
79.904625,80.059685,57,57,0
80.059685,80.21474,69,47,0
80.21474,80.36979,68,50,0
80.36979,80.52485,69,47,0
80.52485,80.6799,61,57,0
80.6799,80.83495,69,48,0
80.83495,80.99001,68,50,0
80.99001,81.145065,69,47,0
81.145065,81.29853,62,57,0
81.29853,81.452,69,47,0
81.452,81.60547,61,50,0
81.60547,81.75894,69,47,0
81.75894,81.91009,62,57,0
81.91009,82.06123,69,48,0
82.06123,82.25541,61,50,0
82.25541,82.4926,69,47,0
82.4926,83.112816,68,57,0
82.4926,83.112816,59,48,0
83.42293,83.73304,69,58,0
83.42293,83.73304,57,49,0
83.73304,84.04921,66,57,0
83.73304,84.04921,62,48,0
84.36538,84.68168,52,33,0
84.36538,84.68168,64,39,0
84.998344,85.30846,57,45,0
84.998344,85.30846,45,38,0
85.61857,85.92867,52,34,0
85.61857,85.92867,62,41,0
86.25666,86.56518,61,45,0
86.25666,86.56518,52,38,0
86.89856,87.06055,59,39,0
86.89856,87.24736,52,33,0
87.73348,88.63928,57,43,0
87.73348,88.63928,45,36,0
89.43555,90.040634,38,63,0
89.43555,90.040634,50,75,0
90.34024,90.42,62,36,0
90.34024,90.42,66,42,0
90.659256,90.92716,62,40,0
90.659256,90.92716,67,48,0
90.92716,91.43162,62,34,0
90.92716,91.43162,66,40,0
92.05317,92.67331,38,63,0
92.05317,92.67331,50,75,0
92.97717,93.05313,62,42,0
93.294785,93.56269,57,48,0
93.56269,94.07516,62,40,0
94.98681,95.06688,54,40,0
94.98681,95.06688,62,40,0
95.30708,95.38715,54,45,0
95.30708,95.38715,62,45,0
96.256546,96.3363,55,40,0
96.256546,96.3363,62,40,0
96.57556,96.65532,55,45,0
96.57556,96.65532,62,45,0
97.19947,97.82234,57,46,0
97.82234,98.49981,45,40,0
98.49981,99.174805,50,36,0
99.174805,99.58336,38,32,0
100.22109,100.300766,54,40,0
100.22109,100.300766,62,40,0
100.53977,100.61944,54,45,0
100.53977,100.61944,62,45,0
101.48763,101.56739,55,40,0
101.48763,101.56739,62,40,0
101.80665,101.8864,55,45,0
101.80665,101.8864,62,45,0
102.44467,102.75396,57,48,0
103.064545,103.37718,45,39,0
103.70292,104.407646,38,48,0
106.7318,107.092636,56,43,0
107.092636,107.34505,57,48,0
109.37234,109.7085,49,43,0
109.7085,109.96063,50,48,0
111.663376,111.82104,55,52,0
111.82104,111.972336,62,45,0
111.972336,112.12213,55,54,0
112.12213,112.29935,62,39,0
112.29935,112.45297,54,49,0
112.45297,112.6066,62,38,0
112.6066,112.76022,54,49,0
112.76022,112.92757,62,43,0
112.92757,113.08775,59,52,0
113.08775,113.23905,62,45,0
113.23905,113.39268,59,54,0
113.39268,113.5699,62,39,0
113.5699,113.72431,57,49,0
113.72431,113.87873,62,38,0
113.87873,114.03315,57,49,0
114.03315,114.20237,62,43,0
114.20237,114.36171,55,52,0
114.36171,114.51301,62,45,0
114.51301,114.664314,55,54,0
114.664314,114.84153,62,39,0
114.84153,114.99438,54,49,0
114.99438,115.14722,62,38,0
115.14722,115.300064,54,49,0
115.300064,115.469284,62,43,0
115.469284,115.62947,59,52,0
115.62947,115.78154,62,45,0
115.78154,115.93361,59,54,0
115.93361,116.111885,62,39,0
116.111885,116.26791,57,49,0
116.26791,116.42393,62,38,0
116.42393,116.57995,57,49,0
116.57995,116.764435,62,43,0
116.764435,117.43022,55,52,0
117.754486,118.138306,43,34,0
117.754486,118.138306,55,40,0
118.138306,119.41301,54,48,0
119.41301,119.73168,52,45,0
118.138306,119.73168,45,40,0
120.712395,121.027725,52,63,0
120.712395,121.027725,45,63,0
120.712395,121.027725,49,63,0
120.712395,121.027725,57,75,0
121.371086,121.68477,52,63,0
121.371086,121.68477,45,63,0
121.371086,121.68477,49,63,0
121.371086,121.68477,57,75,0
122.02813,122.34181,52,63,0
122.02813,122.34181,45,63,0
122.02813,122.34181,49,63,0
122.02813,122.34181,57,75,0
123.29694,123.45713,45,46,0
123.45713,123.61235,52,38,0
123.61235,123.76756,50,46,0
123.76756,123.9269,52,39,0
123.9269,124.08053,49,47,0
124.08053,124.23415,52,38,0
124.23415,124.38778,45,49,0
124.38778,124.54883,49,41,0
124.54883,125.176506,50,46,0
125.80427,125.96958,51,46,0
125.96958,126.127075,54,38,0
126.127075,126.28457,52,46,0
126.28457,126.44719,54,39,0
126.44719,126.601845,51,47,0
126.601845,126.756905,54,38,0
126.756905,126.91196,47,49,0
126.91196,127.07445,51,41,0
127.07445,127.70117,52,46,0
128.31989,128.47755,54,52,0
128.47755,128.62886,60,45,0
128.62886,128.77864,54,54,0
128.77864,128.95587,60,39,0
128.95587,129.1095,54,43,0
129.1095,129.26312,60,36,0
129.26312,129.41675,54,45,0
129.41675,129.58408,60,37,0
129.58408,129.74174,56,52,0
129.74174,129.89305,59,45,0
129.89305,130.03708,56,54,0
130.03708,130.19814,59,39,0
130.19814,130.35176,56,49,0
130.35176,130.50539,59,38,0
130.50539,130.65901,56,49,0
130.65901,130.82634,59,43,0
130.82634,130.98401,54,52,0
130.98401,131.1353,60,45,0
131.1353,131.2851,54,54,0
131.2851,131.44528,60,39,0
131.44528,131.59679,54,42,0
131.59679,131.74828,60,37,0
131.74828,131.89978,54,45,0
131.89978,132.06712,60,38,0
132.06712,132.22478,56,52,0
132.22478,132.37608,59,45,0
132.37608,132.51942,56,54,0
132.51942,132.67961,59,39,0
132.67961,132.83324,56,49,0
132.83324,132.98686,59,38,0
132.98686,133.14049,56,49,0
133.14049,133.30783,59,43,0
133.30783,133.46225,57,52,0
133.46225,133.61356,61,45,0
133.61356,133.76334,57,54,0
133.76334,133.9244,61,39,0
133.9244,134.07666,57,46,0
134.07666,134.22893,61,38,0
134.22893,134.3812,57,46,0
134.3812,134.5431,61,39,0
134.5431,134.70078,59,52,0
134.70078,134.85207,62,45,0
134.85207,134.99474,59,54,0
134.99474,135.15843,62,39,0
135.15843,135.31206,59,49,0
135.31206,135.46568,62,38,0
135.46568,135.61931,59,49,0
135.61931,135.78664,62,43,0
135.78664,135.9443,61,52,0
135.9443,136.0956,64,45,0
136.0956,136.24033,61,54,0
136.24033,136.40402,64,39,0
136.40402,136.55765,61,49,0
136.55765,136.71127,64,38,0
136.71127,136.8649,61,49,0
136.8649,137.03223,64,43,0
137.03223,137.1899,56,52,0
137.1899,137.34119,64,45,0
137.34119,137.48523,56,54,0
137.48523,137.65073,64,39,0
137.65073,137.80435,56,49,0
137.80435,137.95798,64,38,0
137.95798,138.1116,56,49,0
138.1116,138.27861,64,43,0
138.27861,138.88794,57,52,0
139.49588,140.10507,59,52,0
139.49588,140.10507,56,52,0
140.72739,141.33655,57,52,0
140.72739,141.33655,45,52,0
141.94922,142.09976,52,54,0
142.09976,142.2503,51,50,0
142.2503,142.40057,52,50,0
142.40057,142.55135,54,50,0
142.55135,142.7038,52,55,0
142.7038,142.85805,50,49,0
142.85805,143.01411,49,49,0
143.01411,143.19029,47,49,0
143.19029,143.79962,45,57,0
144.42764,145.04889,62,57,0
145.65681,146.26616,38,57,0
148.41046,148.71835,49,32,0
148.71835,149.03119,50,39,0
148.41046,149.03119,57,39,0
149.03119,149.33707,56,39,0
149.03119,149.33707,52,32,0
149.33707,149.64415,45,48,0
149.35251,149.65936,57,57,0
149.94641,150.24803,61,39,0
150.57109,151.19235,62,57,0
151.80028,152.4096,50,57,0
159.49075,159.63892,71,50,0
159.49075,159.63892,66,42,0
159.49075,159.63892,62,42,0
159.78708,159.93524,71,45,0
159.78708,159.93524,66,37,0
159.78708,159.93524,62,37,0
160.0834,160.2246,71,45,0
160.0834,160.2246,66,37,0
160.0834,160.2246,62,37,0
160.36578,160.51395,71,45,0
160.36578,160.51395,66,37,0
160.36578,160.51395,62,37,0
160.66211,160.81027,73,50,0
160.66211,160.81027,69,42,0
160.66211,160.81027,64,42,0
160.95844,161.1066,73,45,0
160.95844,161.1066,69,37,0
160.95844,161.1066,64,37,0
161.24913,161.39656,73,45,0
161.24913,161.39656,69,37,0
161.24913,161.39656,64,37,0
161.544,161.69144,73,45,0
161.544,161.69144,69,37,0
161.544,161.69144,64,37,0
161.88965,162.04707,68,50,0
161.88965,162.04707,64,50,0
162.20071,162.35039,68,45,0
162.20071,162.35039,64,45,0
162.49716,162.6441,68,45,0
162.49716,162.6441,64,45,0
162.7918,162.9406,68,45,0
162.7918,162.9406,64,45,0
163.09337,163.25122,57,57,0
163.25122,163.4082,69,47,0
163.4082,163.56433,68,50,0
163.56433,163.71964,69,47,0
163.71964,163.87425,61,57,0
163.87425,164.02888,69,48,0
164.02888,164.1835,68,50,0
164.1835,164.33812,69,47,0
164.33812,164.4916,62,57,0
164.4916,164.64507,69,47,0
164.64507,164.79852,61,50,0
164.79852,164.952,69,47,0
164.952,165.10315,62,57,0
165.10315,165.2543,69,48,0
165.2543,165.44847,61,50,0
165.44847,165.68565,69,47,0
165.68565,166.30588,68,57,0
165.68565,166.30588,59,48,0
166.9261,167.24226,66,57,0
166.9261,167.24226,62,57,0
167.55844,167.87474,64,57,0
167.55844,167.87474,52,48,0
168.19284,168.35042,57,57,0
168.35042,168.50702,69,47,0
168.50702,168.66263,68,50,0
168.66263,168.81717,69,47,0
168.81717,168.971,61,57,0
168.971,169.12483,69,48,0
169.12483,169.27866,68,50,0
169.27866,169.4325,69,47,0
169.4325,169.58595,62,57,0
169.58595,169.73943,69,47,0
169.73943,169.8929,61,50,0
169.8929,170.04636,69,47,0
170.04636,170.19751,62,57,0
170.19751,170.34866,69,48,0
170.34866,170.54283,61,50,0
170.54283,170.78003,69,47,0
170.78003,171.40024,68,57,0
170.78003,171.40024,59,48,0
171.71036,172.02046,69,49,0
171.71036,172.02046,57,41,0
172.02046,172.33664,66,57,0
172.02046,172.33664,62,48,0
172.6528,172.9691,52,33,0
172.6528,172.9691,64,39,0
173.28577,173.59589,57,45,0
173.28577,173.59589,45,38,0
173.90599,174.2161,52,34,0
173.90599,174.2161,62,41,0
174.54408,174.8526,61,45,0
174.54408,174.8526,52,38,0
175.18599,175.34798,59,39,0
175.18599,175.53477,52,33,0
176.0209,176.92671,57,43,0
176.0209,176.92671,45,36,0
180.02016,180.32773,52,40,0
180.32773,180.62851,50,46,0
180.62851,180.93608,47,41,0
180.93608,181.23999,46,46,0
181.23999,181.57466,47,39,0
177.8325,181.57466,42,34,0
177.8325,181.57466,30,34,0
181.57466,182.36984,47,46,0
184.02309,184.10284,62,36,0
184.02309,184.10284,66,42,0
184.3421,184.61002,67,48,0
184.3421,184.61002,64,40,0
184.61002,185.11447,62,34,0
184.61002,185.11447,66,40,0
186.65535,186.73131,74,42,0
186.65535,186.73131,71,37,0
186.97296,187.24086,70,40,0
186.97296,187.24086,73,48,0
187.24086,187.75334,71,34,0
187.24086,187.75334,74,40,0
189.00008,189.08714,74,42,0
189.00008,189.08714,71,35,0
189.34834,189.44373,69,34,0
189.34834,189.44373,73,40,0
189.72983,190.06265,71,48,0
189.72983,190.06265,67,40,0
190.06265,190.57512,69,40,0
190.06265,190.57512,66,34,0
191.19025,193.6716,50,34,0
192.43552,193.83282,59,34,0
193.83282,193.98505,57,40,0
193.98505,194.13727,56,49,0
194.13727,194.28949,57,40,0
194.28949,194.44171,59,48,0
194.44171,194.59091,57,40,0
194.59091,194.74011,60,49,0
193.6716,194.9067,51,40,0
194.74011,195.52315,57,44,0
195.52315,196.13747,55,40,0
194.9067,196.13747,52,40,0
196.29868,196.45013,61,46,0
196.45013,196.6016,59,56,0
196.6016,196.75304,61,46,0
196.75304,196.9045,62,55,0
196.9045,197.0537,61,46,0
197.0537,197.20288,64,56,0
197.20288,197.3641,59,50,0
197.3641,198.60432,58,49,0
198.60432,199.23155,59,54,0
197.3641,199.23155,66,58,0
199.23155,199.85115,55,48,0
199.23155,199.85115,65,57,0
199.85115,200.4791,54,45,0
199.85115,200.4791,66,54,0
201.16728,201.89333,42,44,0
204.22813,204.58897,53,43,0
204.58897,204.84138,54,48,0
206.86868,207.20485,58,43,0
207.20485,207.45697,59,48,0
208.16486,208.31262,59,48,0
208.46625,208.6133,64,51,0
208.76772,208.91902,66,48,0
209.08199,209.67581,67,56,0
209.97397,210.12439,52,48,0
210.27588,210.42493,57,51,0
210.58014,210.72993,59,48,0
210.88515,211.03365,61,51,0
211.18669,211.33519,62,48,0
211.49368,212.08751,64,56,0
212.38567,212.53609,45,48,0
212.68758,212.83662,50,51,0
212.99184,213.14163,52,48,0
213.29605,213.44583,54,51,0
213.60106,213.75235,55,48,0
213.91533,214.50916,57,56,0
214.80731,215.10922,50,48,0
215.10922,215.753,55,56,0
216.35883,216.98112,43,56,0
217.59543,217.75362,45,62,0
217.75362,217.90892,47,54,0
217.90892,218.06326,49,54,0
218.06326,218.21677,50,55,0
218.21677,218.36935,52,57,0
218.36935,218.52112,54,55,0
218.52112,218.67198,55,55,0
218.67198,218.82204,54,55,0
218.82204,219.41881,55,63,0
226.31831,226.47285,71,58,0
226.47285,226.62457,73,61,0
226.62457,226.77405,74,62,0
226.77405,226.92389,73,58,0
226.92389,227.07468,71,56,0
227.07468,227.22636,69,55,0
227.22636,227.37903,67,56,0
227.37903,227.53253,66,53,0
227.53253,227.68396,67,58,0
227.68396,227.83218,69,61,0
227.83218,227.97884,71,62,0
227.97884,228.12659,69,58,0
228.12659,228.27563,67,56,0
228.27563,228.42603,66,55,0
228.42603,228.57765,64,56,0
228.57765,228.73053,62,53,0
228.73053,229.62482,61,56,0
229.62482,229.77386,62,50,0
229.93953,230.09084,61,56,0
230.24213,230.39137,62,51,0
230.5406,230.68985,61,56,0
230.8391,230.98833,63,52,0
231.15219,232.03854,64,56,0
232.03854,232.18626,63,50,0
232.35194,232.50099,64,56,0
232.65002,232.79907,63,51,0
232.94812,233.10175,64,56,0
233.25537,233.409,63,52,0
231.15219,233.57286,57,48,0
233.57286,234.03186,64,50,0
234.03186,234.19753,63,39,0
234.19753,234.65652,64,41,0
234.65652,234.8269,63,35,0
234.8269,235.29546,64,39,0
235.29546,235.48341,63,31,0
235.46779,235.64444,64,34,0
235.62805,235.8117,63,30,0
235.79466,235.98592,64,32,0
235.96812,236.16745,63,28,0
236.14906,236.86354,64,30,0
233.57286,236.86354,57,43,0
237.52623,237.60313,57,32,0
237.60313,237.68002,61,34,0
237.68002,237.75691,64,37,0
237.75691,237.8338,67,38,0
239.57367,240.17876,38,63,0
239.57367,240.17876,50,75,0
240.47836,240.55812,62,36,0
240.47836,240.55812,66,42,0
240.79738,241.06528,62,40,0
240.79738,241.06528,67,48,0
241.06528,241.56973,62,34,0
241.06528,241.56973,66,40,0
242.19128,242.80676,38,63,0
242.19128,242.80676,50,75,0
243.11061,243.18658,62,42,0
243.42822,243.69614,57,48,0
243.69614,244.2086,62,40,0
245.12025,245.20032,54,40,0
245.12025,245.20032,62,40,0
245.44054,245.5206,54,45,0
245.44054,245.5206,62,45,0
246.39,246.46974,55,40,0
246.39,246.46974,62,40,0
246.709,246.78876,55,45,0
246.709,246.78876,62,45,0
247.33292,247.95578,57,46,0
247.95578,248.63326,45,40,0
248.63326,249.30824,50,36,0
249.30824,249.7168,38,32,0
250.35454,250.4342,54,40,0
250.35454,250.4342,62,40,0
250.67322,250.75288,54,45,0
250.67322,250.75288,62,45,0
251.62108,251.70084,55,40,0
251.62108,251.70084,62,40,0
251.9401,252.01985,55,45,0
251.9401,252.01985,62,45,0
252.57812,252.8874,57,48,0
253.19798,253.51062,45,39,0
253.83636,254.54109,38,48,0
256.86523,257.22607,56,43,0
257.22607,257.4785,57,48,0
259.49686,259.833,58,43,0
259.833,260.08514,59,48,0
261.77933,261.93698,55,52,0
261.93698,262.0883,62,45,0
262.0883,262.2381,55,54,0
262.2381,262.4153,62,39,0
262.4153,262.56894,54,49,0
262.56894,262.72256,62,38,0
262.72256,262.8762,54,49,0
262.8762,263.04352,62,43,0
263.04352,263.2037,59,52,0
263.2037,263.355,62,45,0
263.355,263.50864,59,54,0
263.50864,263.68585,62,39,0
263.68585,263.84027,57,49,0
263.84027,263.9947,62,38,0
263.9947,264.1491,57,49,0
264.1491,264.31833,62,43,0
264.31833,264.47766,55,52,0
264.47766,264.62897,62,45,0
264.62897,264.78027,55,54,0
264.78027,264.9575,62,39,0
264.9575,265.11032,54,49,0
265.11032,265.26318,62,38,0
265.26318,265.41602,54,49,0
265.41602,265.58524,62,43,0
265.58524,265.74542,59,52,0
265.74542,265.8975,62,45,0
265.8975,266.04956,59,54,0
266.04956,266.22784,62,39,0
266.22784,266.38385,57,49,0
266.38385,266.5399,62,38,0
266.5399,266.69592,57,49,0
266.69592,266.8804,62,43,0
266.8804,267.54617,55,52,0
267.87045,268.25427,43,34,0
267.87045,268.25427,55,40,0
268.25427,269.52896,54,48,0
269.52896,269.84763,52,45,0
268.25427,269.84763,45,40,0
270.82834,271.14368,52,56,0
270.82834,271.14368,45,56,0
270.82834,271.14368,49,56,0
270.82834,271.14368,55,67,0
271.48706,271.80072,52,56,0
271.48706,271.80072,45,56,0
271.48706,271.80072,49,56,0
271.48706,271.80072,55,67,0
272.1441,272.45776,52,56,0
272.1441,272.45776,45,56,0
272.1441,272.45776,49,56,0
272.1441,272.45776,55,67,0
273.4129,273.5731,45,46,0
273.5731,273.7283,52,38,0
273.7283,273.8835,50,46,0
273.8835,274.04285,52,39,0
274.04285,274.19647,49,47,0
274.19647,274.3501,52,38,0
274.3501,274.50372,45,49,0
274.50372,274.6648,49,41,0
274.6648,275.29245,50,46,0
275.92023,276.08554,50,46,0
276.08554,276.24304,57,38,0
276.24304,276.40054,55,46,0
276.40054,276.56314,57,39,0
276.56314,276.7178,54,47,0
276.7178,276.87286,57,38,0
276.87286,277.02792,50,49,0
277.02792,277.1904,54,41,0
277.1904,277.81808,55,46,0
278.44586,278.61118,52,46,0
278.61118,278.76865,59,38,0
278.76865,278.92615,57,46,0
278.92615,279.08878,59,39,0
279.08878,279.24344,56,47,0
279.24344,279.3985,59,38,0
279.3985,279.55353,52,49,0
279.55353,279.71603,56,41,0
279.71603,280.34274,57,46,0
280.9615,281.11914,59,52,0
281.11914,281.27045,65,45,0
281.27045,281.42023,59,54,0
281.42023,281.59744,65,35,0
281.59744,281.75107,59,45,0
281.75107,281.9047,65,38,0
281.9047,282.05832,59,46,0
282.05832,282.22565,65,40,0
282.22565,282.38333,61,52,0
282.38333,282.53464,64,45,0
282.53464,282.67865,61,54,0
282.67865,282.83972,64,39,0
282.83972,282.99335,61,49,0
282.99335,283.14697,64,38,0
283.14697,283.3006,61,49,0
283.3006,283.46793,64,43,0
283.46793,283.62558,59,52,0
283.62558,283.7769,65,45,0
283.7769,283.92667,59,54,0
283.92667,284.08685,65,37,0
284.08685,284.24048,59,47,0
284.24048,284.3941,65,37,0
284.3941,284.54773,59,46,0
284.54773,284.7151,65,39,0
284.7151,284.87274,61,52,0
284.87274,285.02405,64,45,0
285.02405,285.1674,61,54,0
285.1674,285.32758,64,39,0
285.32758,285.4812,61,49,0
285.4812,285.63483,64,38,0
285.63483,285.78845,61,49,0
285.78845,285.95578,64,43,0
285.95578,286.1102,62,52,0
286.1102,286.2615,66,45,0
286.2615,286.4113,62,54,0
286.4113,286.57236,66,39,0
286.57236,286.72598,62,49,0
286.72598,286.8796,66,38,0
286.8796,287.03323,62,49,0
287.03323,287.19513,66,43,0
287.19513,287.3528,64,52,0
287.3528,287.5041,67,45,0
287.5041,287.64676,64,54,0
287.64676,287.81046,67,39,0
287.81046,287.96408,64,49,0
287.96408,288.1177,67,38,0
288.1177,288.27133,64,49,0
288.27133,288.43866,67,43,0
288.43866,288.59634,66,52,0
288.59634,288.74762,69,45,0
288.74762,288.89236,66,54,0
288.89236,289.05606,69,39,0
289.05606,289.2097,66,49,0
289.2097,289.3633,69,38,0
289.3633,289.51694,66,49,0
289.51694,289.68427,69,43,0
289.68427,289.84192,61,52,0
289.84192,289.99323,69,45,0
289.99323,290.13727,61,54,0
290.13727,290.30273,69,39,0
290.30273,290.45636,61,49,0
290.45636,290.61,69,38,0
290.61,290.7636,61,49,0
290.7636,290.93063,69,43,0
290.93063,291.53998,62,52,0
292.14792,292.75946,64,44,0
292.14792,292.75946,61,37,0
293.38177,293.99094,50,52,0
294.6036,294.75415,57,54,0
294.75415,294.9047,56,50,0
294.9047,295.05496,57,50,0
295.05496,295.20572,59,50,0
295.20572,295.3582,57,55,0
295.3582,295.51242,55,49,0
295.51242,295.6685,54,49,0
295.6685,295.84467,52,49,0
295.84467,296.454,50,57,0
297.08072,297.70197,67,57,0
298.3099,298.91922,55,57,0
301.06354,301.37143,54,32,0
301.37143,301.68427,55,39,0
301.06354,301.68427,62,39,0
301.68427,301.99014,61,39,0
301.68427,301.99014,57,32,0
301.99014,302.29724,62,57,0
302.5995,302.9011,66,39,0
303.22418,303.3835,67,54,0
303.3835,303.54202,69,54,0
303.54202,303.69565,71,57,0
303.69565,303.84543,69,54,0
303.84543,303.99564,67,52,0
303.99564,304.14703,66,51,0
304.14703,304.2996,64,49,0
304.2996,304.45337,62,49,0
304.45337,304.76044,61,57,0
305.06268,305.36432,64,39,0
305.68738,305.8467,66,54,0
305.8467,306.00522,67,54,0
306.00522,306.15884,69,57,0
306.15884,306.30862,67,54,0
306.30862,306.45883,66,52,0
306.45883,306.61026,64,51,0
306.61026,306.76282,62,49,0
306.76282,306.91656,61,49,0
306.91656,307.22363,59,57,0
307.5259,307.8275,62,39,0
308.1506,308.30267,64,54,0
308.30267,308.45245,66,54,0
308.45245,308.60452,67,57,0
308.60452,308.7543,66,54,0
308.7543,308.9045,64,52,0
308.9045,309.05594,62,51,0
309.05594,309.2085,61,49,0
309.2085,309.36224,59,49,0
309.36224,309.6693,57,57,0
309.9716,310.2732,61,39,0
310.59625,311.2056,62,57,0
311.8303,312.43964,55,57,0
313.06433,313.67365,43,57,0
321.97833,322.1265,66,50,0
321.97833,322.1265,57,42,0
321.97833,322.1265,62,42,0
322.27466,322.42282,66,45,0
322.27466,322.42282,62,37,0
322.27466,322.42282,57,37,0
322.56534,322.71277,66,45,0
322.56534,322.71277,62,37,0
322.56534,322.71277,57,37,0
322.86023,323.00766,66,45,0
322.86023,323.00766,62,37,0
322.86023,323.00766,57,37,0
323.20587,323.36328,61,50,0
323.20587,323.36328,57,50,0
323.51694,323.6666,61,45,0
323.51694,323.6666,57,45,0
323.8134,323.96033,61,45,0
323.8134,323.96033,57,45,0
324.108,324.2568,61,45,0
324.108,324.2568,57,45,0
324.40958,324.56464,50,57,0
324.56464,324.7197,62,47,0
324.7197,324.87476,61,50,0
324.87476,325.02982,62,47,0
325.02982,325.18488,54,57,0
325.18488,325.3399,62,48,0
325.3399,325.49496,61,50,0
325.49496,325.65002,62,47,0
325.65002,325.8035,55,57,0
325.8035,325.95697,62,47,0
325.95697,326.11044,54,50,0
326.11044,326.26392,62,47,0
326.26392,326.41504,55,57,0
326.41504,326.5662,62,48,0
326.5662,326.76038,54,50,0
326.76038,326.99756,62,47,0
326.99756,327.61777,61,57,0
326.99756,327.61777,52,48,0
327.9279,328.238,62,58,0
327.9279,328.238,50,49,0
328.238,328.55417,59,57,0
328.238,328.55417,55,57,0
328.87033,329.18665,57,57,0
328.87033,329.18665,45,48,0
329.5033,329.65836,50,57,0
329.65836,329.81342,62,47,0
329.81342,329.96848,61,50,0
329.96848,330.12354,62,47,0
330.12354,330.2786,54,57,0
330.2786,330.43362,62,48,0
330.43362,330.58868,61,50,0
330.58868,330.74374,62,47,0
330.74374,330.89722,55,57,0
330.89722,331.0507,62,47,0
331.0507,331.20416,54,50,0
331.20416,331.35764,62,47,0
331.35764,331.50876,55,57,0
331.50876,331.6599,62,48,0
331.6599,331.8541,54,50,0
331.8541,332.10614,62,47,0
332.10614,332.72638,61,57,0
332.10614,332.72638,52,48,0
333.03647,333.3466,62,58,0
333.03647,333.3466,50,49,0
333.3466,333.66275,59,57,0
333.3466,333.66275,55,48,0
333.97894,334.29523,45,33,0
333.97894,334.29523,57,39,0
334.6119,334.922,50,45,0
334.6119,334.922,38,38,0
335.23212,335.54224,45,34,0
335.23212,335.54224,55,41,0
335.8702,336.1787,54,45,0
335.8702,336.1787,45,38,0
336.52594,336.71826,52,39,0
336.52594,336.92734,45,33,0
337.53162,338.43744,50,43,0
337.53162,338.43744,38,36,0
