start_time,end_time,note_value,velocity,instrument_program_number
5.000004,5.240745,58,100,40
5.277782,5.5185227,67,100,40
5.55556,5.796301,63,100,40
5.833338,6.074079,70,100,40
6.111116,6.907413,68,100,40
6.94445,7.185191,67,100,40
7.222228,7.462969,65,100,40
7.500006,7.740747,63,100,40
7.777784,8.018525,65,100,40
8.055562,8.175933,65,100,40
8.194451,8.314821,67,100,40
8.33334,8.819451,65,100,40
9.444452,9.685193,58,100,40
9.72223,9.962971,67,100,40
10.000008,10.240749,63,100,40
10.277786,10.518527,70,100,40
10.555564,11.351861,68,100,40
11.388898,11.629639,67,100,40
11.666676,11.907417,65,100,40
11.944454,12.185195,63,100,40
12.222232,12.462973,65,100,40
12.50001,12.62038,65,100,40
12.638899,12.75927,67,100,40
12.777788,13.2639,65,100,40
13.8889,14.129641,63,100,40
14.166678,14.407419,67,100,40
14.444456,14.685197,70,100,40
14.722234,14.962975,75,100,40
15.000012,15.7963085,74,100,40
16.111124,16.351866,63,100,40
16.388903,16.629642,67,100,40
16.66668,16.907421,70,100,40
16.944458,17.1852,75,100,40
17.222237,17.708347,74,100,40
17.777792,18.018534,72,100,40
18.333347,18.57409,63,100,40
18.611126,18.851868,65,100,40
18.888905,19.129644,67,100,40
19.166681,19.407423,74,100,40
19.44446,20.240757,72,100,40
20.555573,20.796312,63,100,40
20.83335,21.074091,65,100,40
21.111128,21.35187,67,100,40
21.388906,21.629646,74,100,40
21.666683,22.46298,72,100,40
22.500017,22.740759,74,100,40
22.777796,23.574093,72,100,40
23.61113,23.851871,74,100,40
23.888908,24.685205,72,100,40
24.722242,24.962982,74,100,40
25.00002,25.24076,72,100,40
25.277798,25.51854,74,100,40
25.555576,25.796316,72,100,40
25.833355,26.074095,74,100,40
26.111132,26.351873,72,100,40
26.38891,26.62965,74,100,40
26.666689,26.907429,75,100,40
27.222244,27.462984,63,100,40
27.500023,27.740763,72,100,40
27.7778,28.018541,68,100,40
28.055578,28.296318,77,100,40
28.333357,29.129652,75,100,40
29.16669,29.40743,72,100,40
29.444468,29.68521,70,100,40
29.722246,29.962986,68,100,40
30.000025,30.240765,70,100,40
30.277802,30.398172,70,100,40
30.41669,30.537062,72,100,40
30.55558,31.04169,70,100,40
31.666693,31.907433,63,100,40
31.94447,32.18521,72,100,40
32.222248,32.46299,68,100,40
32.500027,32.74077,77,100,40
32.777805,33.5741,75,100,40
33.611137,33.85188,72,100,40
33.888916,34.129658,70,100,40
34.166695,34.407436,68,100,40
34.444473,34.68521,70,100,40
34.72225,34.84262,70,100,40
34.861137,34.98151,72,100,40
35.000027,35.48614,70,100,40
36.11114,36.35188,63,100,40
36.38892,36.629658,72,100,40
36.666695,36.907436,68,100,40
36.944473,37.185215,77,100,40
37.22225,38.018547,75,100,40
38.333363,38.574104,65,100,40
38.61114,38.851883,72,100,40
38.88892,39.12966,69,100,40
39.1667,39.287067,77,100,40
39.305588,39.425957,78,100,40
39.444477,40.240772,77,100,40
40.555588,40.79633,65,100,40
40.833366,41.07411,74,100,40
41.111145,41.351887,70,100,40
41.388924,41.62966,79,100,40
41.6667,42.462997,77,100,40
42.777813,43.018555,67,100,40
43.05559,43.29633,74,100,40
43.333366,43.57411,71,100,40
43.611145,43.731518,79,100,40
43.750034,43.870407,80,100,40
43.888924,44.685223,79,100,40
45.000034,45.120407,67,100,40
45.138924,45.259296,72,100,40
45.277813,45.398186,76,100,40
45.416702,45.537075,79,100,40
45.55559,45.796333,77,100,40
45.83337,45.95374,77,100,40
45.97226,46.09263,79,100,40
46.11115,46.907444,77,100,40
46.94448,47.185223,76,100,40
47.22226,47.463,74,100,40
47.50004,47.74078,72,100,40
47.777817,48.01856,71,100,40
48.055595,48.296333,69,100,40
48.33337,48.574112,67,100,40
48.61115,48.85189,74,100,40
48.888927,49.12967,67,100,40
49.166706,49.287075,69,100,40
49.305595,49.425964,66,100,40
49.444485,49.685226,67,100,40
49.722263,49.842632,69,100,40
49.861153,49.98152,66,100,40
50.00004,50.24078,67,100,40
50.277817,50.39819,69,100,40
50.416706,50.53708,66,100,40
50.555595,50.796337,67,100,40
50.833374,51.074116,64,100,40
51.111153,51.351894,65,100,40
51.38893,51.5093,67,100,40
51.52782,51.64819,64,100,40
51.66671,51.907448,65,100,40
51.944485,52.185226,62,100,40
52.222263,52.463005,63,100,40
52.500042,52.62041,65,100,40
52.63893,52.7593,62,100,40
52.77782,53.018562,63,100,40
53.0556,53.296337,62,100,40
53.333378,53.574116,60,100,40
54.44449,54.68523,79,100,40
54.722267,54.963005,80,100,40
55.000046,55.240784,81,100,40
55.27782,55.518562,83,100,40
55.5556,56.04171,84,100,40
56.111156,56.231525,84,100,40
56.250046,56.370415,86,100,40
56.388935,56.509304,86,100,40
56.527824,56.648193,87,100,40
56.666714,57.430603,86,100,40
57.500046,57.620415,74,100,40
57.638935,57.759304,78,100,40
57.777824,57.898193,79,100,40
57.916714,58.037083,82,100,40
58.055603,59.685234,86,100,40
59.72227,59.84264,72,100,40
59.86116,59.98153,76,100,40
60.00005,60.12042,77,100,40
60.13894,60.259308,80,100,40
60.277824,61.907455,84,100,40
61.944492,62.064865,70,100,40
62.08338,62.203754,74,100,40
62.22227,62.342644,75,100,40
62.36116,62.481533,79,100,40
62.50005,62.74079,82,100,40
64.16672,64.28709,70,100,40
64.30561,64.42598,74,100,40
64.444496,64.564865,75,100,40
64.58338,64.70376,78,100,40
64.722275,64.96301,82,100,40
66.38894,66.509315,68,100,40
66.52783,66.6482,72,100,40
66.66672,66.787094,73,100,40
66.80561,66.92598,77,100,40
66.944496,67.064865,80,100,40
67.08339,67.20376,79,100,40
67.222275,67.34264,77,100,40
67.36117,67.48154,75,100,40
67.50005,67.62042,73,100,40
67.63895,67.759315,72,100,40
67.77783,67.8982,70,100,40
67.91672,68.037094,68,100,40
68.05561,68.17598,67,100,40
68.194496,68.31487,65,100,40
68.33339,68.45376,63,100,40
68.472275,68.59264,65,100,40
68.61117,68.73154,61,100,40
68.75005,68.87042,60,100,40
68.88895,69.129684,59,100,40
69.166725,69.40746,67,100,40
69.4445,69.68524,62,100,40
69.722275,69.96302,71,100,40
70.00005,70.2408,67,100,40
70.27783,70.3982,67,100,40
70.416725,70.537094,74,100,40
70.55561,71.041725,72,100,40
71.11117,71.23154,71,100,40
71.25005,71.37043,79,100,40
71.38895,71.509315,86,100,40
71.52783,71.64821,84,100,40
71.666725,71.787094,83,100,40
71.80561,71.92599,81,100,40
71.9445,72.06487,79,100,40
72.08339,72.20376,77,100,40
72.22228,72.34265,75,100,40
72.36117,72.48154,74,100,40
72.50006,72.62043,72,100,40
72.63895,72.759315,71,100,40
72.77784,73.26395,69,100,40
73.33339,73.453766,67,100,40
73.47228,73.59265,71,100,40
73.61117,73.73154,74,100,40
73.75006,73.87043,72,100,40
73.88895,74.009315,71,100,40
74.02784,74.14821,69,100,40
74.166725,74.287094,67,100,40
74.30562,74.42599,69,100,40
74.4445,74.56487,67,100,40
74.58339,74.703766,71,100,40
74.72228,74.84265,74,100,40
74.86117,74.981544,72,100,40
75.00006,75.12043,71,100,40
75.13895,75.25932,69,100,40
75.27784,75.39821,67,100,40
75.416725,75.537094,69,100,40
75.55562,75.79636,67,100,40
75.8334,75.953766,74,100,40
75.97228,76.09265,86,100,40
76.111176,76.35191,74,100,40
76.38895,76.50932,74,100,40
76.52784,76.64821,86,100,40
76.666725,76.90747,74,100,40
76.9445,77.06487,74,100,40
77.0834,77.203766,86,100,40
77.22228,77.46303,74,100,40
77.50006,77.62043,74,100,40
77.638954,77.75932,75,100,40
77.77784,78.01858,77,100,40
78.05562,78.17599,77,100,40
78.1945,78.31488,89,100,40
78.3334,78.574135,77,100,40
78.611176,78.731544,77,100,40
78.75006,78.87043,89,100,40
78.888954,79.12969,77,100,40
79.16673,79.2871,77,100,40
79.30562,79.42599,89,100,40
79.44451,79.68525,77,100,40
79.72228,79.96303,77,100,40
80.00006,80.24081,78,100,40
80.27784,80.518585,77,100,40
80.55562,80.796364,81,100,40
80.8334,81.07414,77,100,40
81.111176,81.35191,82,100,40
81.388954,81.62969,77,100,40
81.94451,82.18525,77,100,40
82.22229,82.46303,75,100,40
82.50007,82.74081,74,100,40
82.77785,83.018585,75,100,40
83.05562,83.296364,77,100,40
83.3334,83.57414,75,100,40
83.611176,83.85192,74,100,40
84.16673,84.40748,77,100,40
84.44451,84.68525,78,100,40
84.72229,84.96303,77,100,40
85.00007,85.24081,81,100,40
85.27785,85.518585,77,100,40
85.555626,85.796364,82,100,40
85.833405,86.07414,77,100,40
86.38896,86.6297,77,100,40
86.66673,86.90748,77,100,40
86.94451,87.18526,75,100,40
87.22229,87.463036,74,100,40
87.50007,87.740814,72,100,40
87.77785,88.018585,70,100,40
88.055626,88.296364,68,100,40
97.50008,97.74082,77,100,40
97.777855,98.0186,78,100,40
98.05563,98.29637,77,100,40
98.33341,98.57415,81,100,40
98.61119,98.85193,77,100,40
98.88897,99.12971,84,100,40
99.16675,99.407486,77,100,40
99.722305,99.96304,77,100,40
100.00008,100.24082,78,100,40
100.277855,100.5186,77,100,40
100.55563,100.79638,81,100,40
100.83341,101.07416,77,100,40
101.11119,101.35194,87,100,40
101.38897,101.62971,77,100,40
101.94453,102.185265,77,100,40
102.222305,102.46304,87,100,40
102.500084,102.74082,77,100,40
103.05564,103.29638,77,100,40
103.33342,103.57416,87,100,40
103.61119,103.85194,77,100,40
104.16675,104.40749,77,100,40
104.44453,104.68527,87,100,40
104.722305,104.96304,78,100,40
105.27786,105.5186,78,100,40
105.55564,105.79638,87,100,40
105.83342,106.07416,78,100,40
106.38898,106.629715,86,100,40
106.666756,106.787125,86,100,40
106.80564,106.92601,87,100,40
106.94453,107.0649,87,100,40
107.08342,107.20379,86,100,40
107.222305,107.34268,86,100,40
107.3612,107.48157,90,100,40
107.500084,107.62045,90,100,40
107.63898,107.759346,86,100,40
107.77786,107.89823,86,100,40
107.916756,108.037125,91,100,40
108.05564,108.17601,91,100,40
108.194534,108.3149,86,100,40
108.6112,108.85194,86,100,40
108.88898,109.009346,86,100,40
109.02786,109.14824,84,100,40
109.166756,109.287125,84,100,40
109.30564,109.42601,83,100,40
109.444534,109.5649,83,100,40
109.58342,109.70379,84,100,40
109.72231,109.84268,84,100,40
109.8612,109.98157,86,100,40
110.00009,110.12046,86,100,40
110.13898,110.259346,84,100,40
110.27786,110.39824,84,100,40
110.416756,110.537125,83,100,40
110.83342,111.074165,86,100,40
111.1112,111.23157,86,100,40
111.25009,111.37046,87,100,40
111.38898,111.509346,87,100,40
111.52787,111.64824,86,100,40
111.666756,111.787125,86,100,40
111.80565,111.92602,90,100,40
111.944534,112.0649,90,100,40
112.08342,112.2038,86,100,40
112.22231,112.34268,86,100,40
112.3612,112.481575,91,100,40
112.50009,112.62046,91,100,40
112.63898,112.759346,86,100,40
113.05565,113.29639,86,100,40
113.33343,113.4538,86,100,40
113.47231,113.59268,84,100,40
113.6112,113.731575,84,100,40
113.75009,113.87046,83,100,40
113.88898,114.00935,83,100,40
114.02787,114.14824,84,100,40
114.166756,114.28713,84,100,40
114.30565,114.42602,86,100,40
114.444534,114.5649,86,100,40
114.58343,114.7038,84,100,40
114.72231,114.84268,84,100,40
114.861206,114.981575,83,100,40
115.00009,115.12046,83,100,40
115.138985,115.25935,84,100,40
115.27787,115.39824,84,100,40
115.416756,115.53713,86,100,40
115.55565,115.67602,86,100,40
115.694534,115.81491,84,100,40
115.83343,115.9538,84,100,40
115.97231,116.09268,83,100,40
116.111206,116.231575,83,100,40
116.25009,116.37046,84,100,40
116.388985,116.50935,84,100,40
116.52787,116.64824,86,100,40
116.66676,116.78713,86,100,40
116.80565,116.92602,84,100,40
116.944534,117.06491,84,100,40
117.08343,117.2038,83,100,40
117.22231,117.34269,83,100,40
117.361206,117.481575,84,100,40
117.50009,117.62047,84,100,40
117.638985,117.75935,86,100,40
117.77787,118.018616,87,100,40
118.05565,118.296394,86,100,40
118.33343,118.574165,84,100,40
118.611206,118.851944,86,100,40
118.888985,119.12972,87,100,40
119.16676,119.4075,86,100,40
119.44454,119.68528,84,100,40
119.72232,119.96306,86,100,40
120.0001,120.24084,87,100,40
120.27788,120.39825,87,100,40
120.41676,120.53713,86,100,40
120.55565,120.796394,87,100,40
120.83343,120.953804,87,100,40
120.97232,121.09269,89,100,40
121.111206,121.35195,86,100,40
121.388985,121.50935,86,100,40
121.52788,121.64825,84,100,40
121.66676,121.9075,86,100,40
121.94454,122.06491,86,100,40
122.08343,122.203804,87,100,40
122.22232,122.46306,84,100,40
122.5001,122.62047,84,100,40
122.638985,122.75936,83,100,40
122.77788,123.018616,84,100,40
123.05566,123.176025,84,100,40
123.19454,123.31491,86,100,40
123.333435,123.57417,84,100,40
123.61121,123.73158,82,100,40
123.7501,123.87047,81,100,40
123.888985,124.00936,82,100,40
124.02788,124.14825,84,100,40
124.16676,124.28714,86,100,40
124.30566,124.426025,89,100,40
124.44454,124.68529,87,100,40
124.72232,124.84269,87,100,40
124.86121,124.98158,86,100,40
125.0001,125.240845,87,100,40
125.27788,125.39825,87,100,40
125.41676,125.53714,89,100,40
125.55566,125.796394,86,100,40
125.833435,125.953804,86,100,40
125.97232,126.0927,84,100,40
126.11121,126.35195,86,100,40
126.38899,126.50936,86,100,40
126.52788,126.64825,87,100,40
126.66677,126.90751,84,100,40
126.94455,127.06492,84,100,40
127.083435,127.203804,83,100,40
127.22232,127.463066,84,100,40
127.5001,127.620476,84,100,40
127.63899,127.75936,86,100,40
127.77788,128.01862,82,100,40
128.05566,128.17603,82,100,40
128.19455,128.31491,81,100,40
128.33344,128.57417,82,100,40
128.61122,128.73158,82,100,40
128.7501,128.87047,84,100,40
128.88899,129.12973,86,100,40
129.16676,129.28714,86,100,40
129.30566,129.42603,85,100,40
129.44455,129.68529,86,100,40
129.72232,129.8427,86,100,40
129.86122,129.98158,88,100,40
130.0001,130.24084,86,100,40
130.27788,130.39825,85,100,40
130.41678,130.53714,83,100,40
130.55566,130.67603,84,100,40
130.69455,130.81493,86,100,40
130.83344,130.95381,88,100,40
130.97232,131.0927,90,100,40
131.11122,131.35196,91,100,40
131.38899,131.50937,91,100,40
131.52788,131.64825,90,100,40
131.66678,131.90752,91,100,40
131.94455,132.06493,91,100,40
132.08344,132.20381,93,100,40
132.22232,132.46307,91,100,40
132.5001,132.62048,90,100,40
132.63899,132.75937,88,100,40
132.77788,132.89825,86,100,40
132.91678,133.03714,88,100,40
133.05566,133.17603,90,100,40
133.19455,133.31493,91,100,40
133.33344,133.57419,93,100,40
133.61122,133.73158,84,100,40
133.7501,133.87048,83,100,40
133.88899,134.12973,84,100,40
134.16678,134.28714,84,100,40
134.30566,134.42604,86,100,40
134.44455,134.68529,84,100,40
134.72234,134.8427,83,100,40
134.86122,134.98158,84,100,40
135.0001,135.12048,83,100,40
135.13899,135.25937,85,100,40
135.2779,135.39825,85,100,40
135.41678,135.53714,87,100,40
135.55566,135.7964,88,100,40
135.83344,135.95381,79,100,40
135.97234,136.0927,78,100,40
136.11122,136.35196,79,100,40
136.38899,136.50937,79,100,40
136.5279,136.64825,83,100,40
136.66678,136.90752,81,100,40
136.94455,137.06493,81,100,40
137.08345,137.20381,80,100,40
137.22234,137.3427,81,100,40
137.36122,137.4816,83,100,40
137.5001,137.62048,83,100,40
137.63899,137.75937,85,100,40
137.7779,138.01863,86,100,40
138.05566,138.17604,81,100,40
138.19455,138.31493,82,100,40
138.33345,138.57419,81,100,40
138.61122,138.7316,81,100,40
138.7501,138.87048,79,100,40
138.889,139.12975,78,100,40
139.16678,139.28716,78,100,40
139.30566,139.42604,79,100,40
139.44455,139.56493,76,100,40
139.58345,139.70381,78,100,40
139.72234,139.8427,79,100,40
139.86122,139.9816,76,100,40
140.0001,140.24086,86,100,40
140.2779,140.39825,81,100,40
140.41678,140.53716,82,100,40
140.55566,140.7964,81,100,40
140.83345,140.95381,81,100,40
140.97234,141.09271,79,100,40
141.11122,141.35196,77,100,40
141.389,141.50937,77,100,40
141.5279,141.64825,79,100,40
141.66678,141.78716,76,100,40
141.80566,141.92604,77,100,40
141.94456,142.06493,79,100,40
142.08345,142.20381,76,100,40
142.22234,142.46307,73,100,40
142.5001,142.62048,74,100,40
142.639,142.75937,76,100,40
142.7779,142.89827,74,100,40
142.91678,143.03716,69,100,40
143.05566,143.17604,67,100,40
143.19456,143.31493,66,100,40
143.61122,143.7316,63,100,40
143.75012,143.87048,66,100,40
143.889,144.12975,67,100,40
144.16678,144.28716,67,100,40
144.30566,144.42604,70,100,40
144.72234,144.84271,69,100,40
144.86122,144.9816,76,100,40
145.00012,145.12048,74,100,40
145.139,145.25937,69,100,40
145.2779,145.39827,67,100,40
145.41678,145.53716,65,100,40
145.83345,145.95383,64,100,40
145.97234,146.09271,65,100,40
146.11122,146.35197,67,100,40
146.389,146.50937,67,100,40
146.5279,146.64827,70,100,40
146.66678,151.0418,74,100,40
151.11124,152.70845,75,100,40
152.7779,153.01865,74,100,40
153.05568,153.29642,70,100,40
153.33345,154.93068,67,100,40
155.00012,155.24086,62,100,40
155.27791,155.51865,58,100,40
155.55568,155.79642,55,100,40
155.83347,156.0742,63,100,40
156.11124,156.35197,58,100,40
156.389,156.62976,67,100,40
156.6668,156.90753,63,100,40
156.94456,157.18532,70,100,40
157.22235,158.01865,68,100,40
158.05568,158.29642,67,100,40
158.33347,158.5742,65,100,40
158.61124,158.85197,63,100,40
158.88902,159.12976,65,100,40
159.1668,159.28717,65,100,40
159.30568,159.42606,67,100,40
159.44456,159.93068,65,100,40
160.55568,160.79643,58,100,40
160.83347,161.0742,67,100,40
161.11124,161.35197,63,100,40
161.38902,161.62976,70,100,40
161.6668,162.46309,68,100,40
162.50014,162.74088,67,100,40
162.77791,163.01865,65,100,40
163.05568,163.29643,63,100,40
163.33347,163.5742,65,100,40
163.61124,163.73161,65,100,40
163.75014,163.8705,67,100,40
163.88902,164.37514,65,100,40
165.00014,165.24088,63,100,40
165.27791,165.51865,67,100,40
165.5557,165.79643,70,100,40
165.83347,166.0742,75,100,40
166.11124,166.90755,74,100,40
167.22235,167.4631,63,100,40
167.50014,167.74088,67,100,40
167.77791,168.01865,70,100,40
168.0557,168.29643,75,100,40
168.33347,168.81958,74,100,40
168.88902,169.12976,72,100,40
169.44458,169.68532,63,100,40
169.72235,169.9631,65,100,40
170.00014,170.24088,67,100,40
170.27791,170.51866,74,100,40
170.5557,171.35199,72,100,40
171.66681,171.90755,63,100,40
171.94458,172.18532,65,100,40
172.22237,172.4631,67,100,40
172.50014,172.74088,74,100,40
172.77792,173.57422,72,100,40
173.61125,173.85199,74,100,40
173.88902,174.68532,72,100,40
174.72237,174.9631,74,100,40
175.00014,175.79643,72,100,40
175.83348,176.07422,74,100,40
176.11125,176.35199,72,100,40
176.38902,176.62978,74,100,40
176.66681,176.90755,72,100,40
176.94458,177.18533,74,100,40
177.22237,177.4631,72,100,40
177.50014,177.74089,74,100,40
177.77792,178.01866,75,100,40
178.33348,178.57422,63,100,40
178.61125,178.85199,72,100,40
178.88904,179.12978,68,100,40
179.16681,179.40755,77,100,40
179.4446,180.24089,75,100,40
180.27792,180.51866,72,100,40
180.5557,180.79645,70,100,40
180.83348,181.07422,68,100,40
181.11125,181.35199,70,100,40
181.38904,181.5094,70,100,40
181.52792,181.6483,72,100,40
181.66681,182.15292,70,100,40
182.77792,183.01866,63,100,40
183.0557,183.29645,72,100,40
183.33348,183.57422,68,100,40
183.61125,183.852,77,100,40
183.88904,184.68533,75,100,40
184.72237,184.9631,72,100,40
185.00015,185.24089,70,100,40
185.27792,185.51866,68,100,40
185.55571,185.79645,70,100,40
185.83348,185.95386,70,100,40
185.97237,186.09274,72,100,40
186.11127,186.59737,70,100,40
187.22237,187.46312,63,100,40
187.50015,187.74089,72,100,40
187.77792,188.01866,68,100,40
188.05571,188.29645,77,100,40
188.33348,189.12978,75,100,40
189.4446,189.68533,65,100,40
189.72238,189.96312,72,100,40
190.00015,190.24089,69,100,40
190.27792,190.3983,77,100,40
190.41682,190.53719,78,100,40
190.55571,191.352,77,100,40
191.66682,191.90756,65,100,40
191.9446,192.18533,74,100,40
192.22238,192.46312,70,100,40
192.50015,192.74089,79,100,40
192.77794,193.57423,77,100,40
193.88904,194.12979,67,100,40
194.16682,194.40756,74,100,40
194.4446,194.68535,71,100,40
194.72238,194.84274,79,100,40
194.86127,194.98164,80,100,40
195.00015,195.79645,79,100,40
196.11127,196.23164,67,100,40
196.25015,196.37053,72,100,40
196.38905,196.50941,76,100,40
196.52794,196.6483,79,100,40
196.66682,196.90756,77,100,40
196.9446,197.06497,77,100,40
197.0835,197.20386,79,100,40
197.22238,198.01868,77,100,40
198.05571,198.29645,76,100,40
198.3335,198.57423,74,100,40
198.61127,198.852,72,100,40
198.88905,199.12979,71,100,40
199.16682,199.40756,69,100,40
199.44461,199.68535,67,100,40
199.72238,199.96312,74,100,40
200.00015,200.2409,67,100,40
200.27794,200.39832,69,100,40
200.41682,200.5372,66,100,40
200.55571,200.79646,67,100,40
200.8335,200.95386,69,100,40
200.97238,201.09276,66,100,40
201.11127,201.35202,67,100,40
201.38905,201.50941,69,100,40
201.52794,201.64832,66,100,40
201.66682,201.90756,67,100,40
201.94461,202.18535,64,100,40
202.22238,202.46312,65,100,40
202.50017,202.62053,67,100,40
202.63905,202.75941,64,100,40
202.77794,203.01868,65,100,40
203.05573,203.29646,62,100,40
203.3335,203.57423,63,100,40
203.61127,203.73164,65,100,40
203.75017,203.87053,62,100,40
203.88905,204.12979,63,100,40
204.16682,204.40758,62,100,40
204.44461,204.68535,60,100,40
205.55573,205.79646,79,100,40
205.8335,206.07423,80,100,40
206.11128,206.35202,81,100,40
206.38905,206.62979,83,100,40
206.66684,207.15294,84,100,40
207.22238,207.34276,84,100,40
207.36128,207.48164,86,100,40
207.50017,207.62053,86,100,40
207.63905,207.75943,87,100,40
207.77794,208.54184,86,100,40
208.61128,208.73164,74,100,40
208.75017,208.87054,78,100,40
208.88905,209.00943,79,100,40
209.02794,209.14832,82,100,40
209.16684,210.79646,86,100,40
210.8335,210.95387,72,100,40
210.9724,211.09276,76,100,40
211.11128,211.23164,77,100,40
211.25017,211.37054,80,100,40
211.38905,213.01869,84,100,40
213.05573,213.1761,70,100,40
213.19461,213.31499,74,100,40
213.33351,213.45387,75,100,40
213.4724,213.59276,79,100,40
213.61128,213.85202,82,100,40
215.27795,215.39832,70,100,40
215.41684,215.53722,74,100,40
215.55573,215.6761,75,100,40
215.69461,215.81499,78,100,40
215.83351,216.07425,82,100,40
217.50017,217.62054,68,100,40
217.63907,217.75943,72,100,40
217.77795,217.89832,73,100,40
217.91684,218.03722,77,100,40
218.05573,218.1761,80,100,40
218.19463,218.31499,79,100,40
218.33351,218.45387,77,100,40
218.4724,218.59277,75,100,40
218.61128,218.73166,73,100,40
218.75017,218.87054,72,100,40
218.88907,219.00943,70,100,40
219.02795,219.14833,68,100,40
219.16684,219.28722,67,100,40
219.30573,219.4261,65,100,40
219.44463,219.56499,63,100,40
219.58351,219.70387,65,100,40
219.7224,219.84277,61,100,40
219.86128,219.98166,60,100,40
220.00018,220.24092,59,100,40
220.27795,220.51869,67,100,40
220.55573,220.79648,62,100,40
220.83351,221.07425,71,100,40
221.11128,221.35204,67,100,40
221.38907,221.50943,67,100,40
221.52795,221.64833,74,100,40
221.66684,222.15295,72,100,40
222.2224,222.34277,71,100,40
222.36128,222.48166,79,100,40
222.50018,222.62054,86,100,40
222.63907,222.75943,84,100,40
222.77795,222.89833,83,100,40
222.91684,223.03722,81,100,40
223.05574,223.1761,79,100,40
223.19463,223.31499,77,100,40
223.33351,223.45389,75,100,40
223.4724,223.59277,74,100,40
223.6113,223.73166,72,100,40
223.75018,223.87054,71,100,40
223.88907,224.37518,69,100,40
224.44463,224.56499,67,100,40
224.58351,224.70389,71,100,40
224.7224,224.84277,74,100,40
224.8613,224.98166,72,100,40
225.00018,225.12054,71,100,40
225.13907,225.25945,69,100,40
225.27795,225.39833,67,100,40
225.41684,225.53722,69,100,40
225.55574,225.6761,67,100,40
225.69463,225.815,71,100,40
225.83351,225.95389,74,100,40
225.9724,226.09277,72,100,40
226.1113,226.23166,71,100,40
226.25018,226.37054,69,100,40
226.38907,226.50945,67,100,40
226.52795,226.64833,69,100,40
226.66685,226.9076,67,100,40
226.94463,227.065,74,100,40
227.08351,227.20389,86,100,40
227.2224,227.46315,74,100,40
227.50018,227.62056,74,100,40
227.63907,227.75945,86,100,40
227.77795,228.0187,74,100,40
228.05574,228.1761,74,100,40
228.19463,228.315,86,100,40
228.33351,228.57426,74,100,40
228.6113,228.73166,74,100,40
228.75018,228.87056,75,100,40
228.88907,229.1298,77,100,40
229.16685,229.28722,77,100,40
229.30574,229.42612,89,100,40
229.44463,229.68536,77,100,40
229.72241,229.84277,77,100,40
229.8613,229.98166,89,100,40
230.00018,230.24092,77,100,40
230.27797,230.39833,77,100,40
230.41685,230.53722,89,100,40
230.55574,230.79648,77,100,40
230.83351,231.07426,77,100,40
231.1113,231.35204,78,100,40
231.38907,231.62982,77,100,40
231.66685,231.9076,81,100,40
231.94463,232.18536,77,100,40
232.22241,232.46315,82,100,40
232.50018,232.74092,77,100,40
233.05574,233.29648,77,100,40
233.33353,233.57426,75,100,40
233.6113,233.85204,74,100,40
233.88907,234.12982,75,100,40
234.16685,234.4076,77,100,40
234.44463,234.68538,75,100,40
234.72241,234.96315,74,100,40
235.27797,235.5187,77,100,40
235.55574,235.79648,78,100,40
235.83353,236.07426,77,100,40
236.1113,236.35204,81,100,40
236.38908,236.62982,77,100,40
236.66685,236.9076,82,100,40
236.94464,237.18538,77,100,40
237.50018,237.74094,77,100,40
237.77797,238.0187,77,100,40
238.05574,238.2965,75,100,40
238.33353,238.57426,74,100,40
238.6113,238.85204,72,100,40
238.88908,239.12982,70,100,40
239.16685,239.4076,68,100,40
248.61131,248.85205,77,100,40
248.88908,249.12982,78,100,40
249.16687,249.40761,77,100,40
249.44464,249.68538,81,100,40
249.72243,249.96317,77,100,40
250.0002,250.24094,84,100,40
250.27798,250.51872,77,100,40
250.83353,251.07428,77,100,40
251.11131,251.35205,78,100,40
251.38908,251.62984,77,100,40
251.66687,251.90761,81,100,40
251.94464,252.1854,77,100,40
252.22243,252.46317,87,100,40
252.5002,252.74094,77,100,40
253.05576,253.2965,77,100,40
253.33354,253.57428,87,100,40
253.61131,253.85205,77,100,40
254.16687,254.40761,77,100,40
254.44464,254.6854,87,100,40
254.72243,254.96317,77,100,40
255.27798,255.51872,77,100,40
255.55576,255.7965,87,100,40
255.83354,256.07428,78,100,40
256.3891,256.62982,78,100,40
256.66687,256.90762,87,100,40
256.94464,257.1854,78,100,40
257.5002,257.74094,86,100,40
257.77798,257.89835,86,100,40
257.91687,258.03723,87,100,40
258.05576,258.17615,87,100,40
258.19464,258.31503,86,100,40
258.33353,258.45392,86,100,40
258.47244,258.5928,90,100,40
258.61133,258.7317,90,100,40
258.7502,258.87057,86,100,40
258.8891,259.00946,86,100,40
259.02798,259.14835,91,100,40
259.16687,259.28723,91,100,40
259.30576,259.42615,86,100,40
259.72244,259.96317,86,100,40
260.0002,260.12057,86,100,40
260.1391,260.25946,84,100,40
260.27798,260.39835,84,100,40
260.41687,260.53723,83,100,40
260.55576,260.67615,83,100,40
260.69464,260.81503,84,100,40
260.83356,260.95392,84,100,40
260.97244,261.0928,86,100,40
261.11133,261.2317,86,100,40
261.2502,261.37057,84,100,40
261.3891,261.50946,84,100,40
261.52798,261.64835,83,100,40
261.94464,262.1854,86,100,40
262.22244,262.3428,86,100,40
262.36133,262.4817,87,100,40
262.5002,262.62057,87,100,40
262.6391,262.75946,86,100,40
262.77798,262.89835,86,100,40
262.91687,263.03726,90,100,40
263.05576,263.17615,90,100,40
263.19464,263.31503,86,100,40
263.33356,263.45392,86,100,40
263.47244,263.5928,91,100,40
263.61133,263.7317,91,100,40
263.7502,263.87057,86,100,40
264.16687,264.40762,86,100,40
264.44464,264.56503,86,100,40
264.58356,264.70392,84,100,40
264.72244,264.8428,84,100,40
264.86133,264.9817,83,100,40
265.0002,265.12057,83,100,40
265.1391,265.25946,84,100,40
265.27798,265.39835,84,100,40
265.41687,265.53726,86,100,40
265.55576,265.67615,86,100,40
265.69467,265.81503,84,100,40
265.83356,265.95392,84,100,40
265.97244,266.0928,83,100,40
266.11133,266.2317,83,100,40
266.2502,266.37057,84,100,40
266.3891,266.50946,84,100,40
266.52798,266.64838,86,100,40
266.66687,266.78726,86,100,40
266.80576,266.92615,84,100,40
266.94467,267.06503,84,100,40
267.08356,267.20392,83,100,40
267.22244,267.3428,83,100,40
267.36133,267.4817,84,100,40
267.5002,267.62057,84,100,40
267.6391,267.75946,86,100,40
267.77798,267.89838,86,100,40
267.91687,268.03726,84,100,40
268.05576,268.17615,84,100,40
268.19467,268.31503,83,100,40
268.33356,268.45392,83,100,40
268.47244,268.5928,84,100,40
268.61133,268.7317,84,100,40
268.7502,268.87057,86,100,40
268.8891,269.12985,87,100,40
269.16687,269.40762,86,100,40
269.44467,269.6854,84,100,40
269.72244,269.96317,86,100,40
270.0002,270.24097,87,100,40
270.27798,270.51874,86,100,40
270.5558,270.7965,84,100,40
270.83356,271.07428,86,100,40
271.11133,271.35208,87,100,40
271.3891,271.5095,87,100,40
271.52798,271.64838,86,100,40
271.66687,271.90762,87,100,40
271.94467,272.06503,87,100,40
272.08356,272.20392,89,100,40
272.22244,272.4632,86,100,40
272.5002,272.62057,86,100,40
272.6391,272.7595,84,100,40
272.77798,273.01874,86,100,40
273.0558,273.17615,86,100,40
273.19467,273.31503,87,100,40
273.33356,273.57428,84,100,40
273.61133,273.7317,84,100,40
273.7502,273.87057,83,100,40
273.8891,274.12985,84,100,40
274.1669,274.28726,84,100,40
274.3058,274.42615,86,100,40
274.44467,274.6854,84,100,40
274.72244,274.8428,82,100,40
274.86133,274.9817,81,100,40
275.0002,275.1206,82,100,40
275.1391,275.2595,84,100,40
275.27798,275.39838,86,100,40
275.4169,275.53726,89,100,40
275.5558,275.7965,87,100,40
275.83356,275.95392,87,100,40
275.97244,276.0928,86,100,40
276.11133,276.35208,87,100,40
276.3891,276.5095,87,100,40
276.52798,276.64838,89,100,40
276.6669,276.90762,86,100,40
276.94467,277.06503,86,100,40
277.08356,277.20392,84,100,40
277.22244,277.4632,86,100,40
277.5002,277.6206,86,100,40
277.6391,277.7595,87,100,40
277.778,278.01874,84,100,40
278.0558,278.17615,84,100,40
278.19467,278.31503,83,100,40
278.33356,278.5743,84,100,40
278.61133,278.7317,84,100,40
278.7502,278.8706,86,100,40
278.8891,279.12985,82,100,40
279.1669,279.28726,82,100,40
279.3058,279.42615,81,100,40
279.44467,279.6854,82,100,40
279.72244,279.8428,82,100,40
279.86133,279.98172,84,100,40
280.0002,280.24097,86,100,40
280.278,280.39838,86,100,40
280.4169,280.53726,85,100,40
280.5558,280.7965,86,100,40
280.83356,280.95392,86,100,40
280.97244,281.0928,88,100,40
281.11133,281.35208,86,100,40
281.3891,281.5095,85,100,40
281.528,281.64838,83,100,40
281.6669,281.78726,84,100,40
281.8058,281.92615,86,100,40
281.94467,282.06503,88,100,40
282.08356,282.20392,90,100,40
282.22244,282.4632,91,100,40
282.5002,282.6206,91,100,40
282.63913,282.7595,90,100,40
282.778,283.01874,91,100,40
283.0558,283.17615,91,100,40
283.19467,283.31503,93,100,40
283.33356,283.5743,91,100,40
283.61133,283.73172,90,100,40
283.7502,283.8706,88,100,40
283.88913,284.0095,86,100,40
284.028,284.14838,88,100,40
284.1669,284.28726,90,100,40
284.3058,284.42615,91,100,40
284.44467,284.68542,93,100,40
284.72244,284.84283,84,100,40
284.86133,284.98172,83,100,40
285.0002,285.24097,84,100,40
285.278,285.39838,84,100,40
285.4169,285.53726,86,100,40
285.5558,285.79654,84,100,40
285.83356,285.95392,83,100,40
285.97244,286.09283,84,100,40
286.11133,286.23172,83,100,40
286.25024,286.3706,85,100,40
286.38913,286.5095,85,100,40
286.528,286.64838,87,100,40
286.6669,286.90762,88,100,40
286.94467,287.06503,79,100,40
287.08356,287.20392,78,100,40
287.22244,287.4632,79,100,40
287.50024,287.6206,79,100,40
287.63913,287.7595,83,100,40
287.778,288.01874,81,100,40
288.0558,288.17615,81,100,40
288.19467,288.31503,80,100,40
288.33356,288.45395,81,100,40
288.47244,288.59283,83,100,40
288.61133,288.73172,83,100,40
288.75024,288.8706,85,100,40
288.88913,289.12985,86,100,40
289.1669,289.28726,81,100,40
289.3058,289.42615,82,100,40
289.44467,289.68542,81,100,40
289.72244,289.84283,81,100,40
289.86133,289.98172,79,100,40
290.00024,290.24097,78,100,40
290.278,290.39838,78,100,40
290.4169,290.53726,79,100,40
290.5558,290.67615,76,100,40
290.69467,290.81503,78,100,40
290.83356,290.95395,79,100,40
290.97244,291.09283,76,100,40
291.11136,291.35208,86,100,40
291.38913,291.5095,81,100,40
291.528,291.64838,82,100,40
291.6669,291.90765,81,100,40
291.94467,292.06506,81,100,40
292.08356,292.20395,79,100,40
292.22244,292.4632,77,100,40
292.50024,292.6206,77,100,40
292.63913,292.7595,79,100,40
292.778,292.89838,76,100,40
292.9169,293.03726,77,100,40
293.0558,293.17615,79,100,40
293.19467,293.31506,76,100,40
293.33356,293.5743,73,100,40
293.61136,293.73172,74,100,40
293.75024,293.8706,76,100,40
293.88913,294.0095,74,100,40
294.028,294.14838,69,100,40
294.1669,294.28726,67,100,40
294.3058,294.42615,66,100,40
294.72247,294.84283,63,100,40
294.86136,294.98172,66,100,40
295.00024,295.24097,67,100,40
295.278,295.39838,67,100,40
295.4169,295.53726,70,100,40
295.83356,295.95395,69,100,40
295.97247,296.09283,76,100,40
296.11136,296.23172,74,100,40
296.25024,296.3706,69,100,40
296.38913,296.5095,67,100,40
296.528,296.64838,65,100,40
296.94467,297.06506,64,100,40
297.08356,297.20395,65,100,40
297.22247,297.4632,67,100,40
297.50024,297.6206,67,100,40
297.63913,297.7595,70,100,40
297.778,302.153,74,100,40
302.22247,302.4632,75,100,40
302.50024,302.6206,75,100,40
302.63913,302.7595,74,100,40
302.778,303.01877,75,100,40
303.0558,303.17618,75,100,40
303.1947,303.31506,74,100,40
303.3336,303.5743,75,100,40
303.61136,303.73172,75,100,40
303.75024,303.8706,74,100,40
303.88913,304.12988,75,100,40
304.1669,304.40765,75,100,40
305.00024,305.241,75,100,40
307.22247,307.4632,71,100,40
307.50024,307.741,79,100,40
307.778,308.01877,76,100,40
308.05582,308.29654,83,100,40
308.3336,309.12988,81,100,40
309.1669,309.40765,79,100,40
309.4447,309.68542,78,100,40
309.72247,309.9632,76,100,40
310.00024,310.241,78,100,40
310.278,310.3984,78,100,40
310.4169,310.5373,79,100,40
310.55582,311.0419,78,100,40
311.66693,311.90765,71,100,40
311.9447,312.18542,79,100,40
312.22247,312.46323,76,100,40
312.50024,312.741,83,100,40
312.778,313.26413,81,100,40
313.3336,313.5743,81,100,40
313.61136,313.8521,79,100,40
313.88913,314.12988,78,100,40
314.16693,314.40765,76,100,40
314.4447,314.68542,78,100,40
314.72247,314.84283,78,100,40
314.86136,314.98172,79,100,40
315.00024,315.48636,78,100,40
316.66693,316.90765,76,100,40
316.9447,317.18542,84,100,40
317.22247,317.46323,79,100,40
317.50024,317.741,88,100,40
317.77805,318.8197,83,100,40
318.88913,319.12988,76,100,40
319.16693,319.40765,84,100,40
319.4447,319.68546,79,100,40
319.72247,319.96323,88,100,40
320.00024,320.241,83,100,40
320.27805,320.3984,83,100,40
320.41693,320.5373,84,100,40
320.55582,321.04193,83,100,40
321.11136,321.3521,76,100,40
321.38916,321.62988,84,100,40
321.66693,321.90765,79,100,40
321.9447,322.18546,88,100,40
322.22247,323.26416,86,100,40
323.3336,323.57434,78,100,40
323.61136,323.8521,86,100,40
323.88916,324.12988,81,100,40
324.16693,324.40765,90,100,40
324.4447,324.68546,86,100,40
324.72247,324.84286,86,100,40
324.86136,324.98175,88,100,40
325.00027,325.48636,86,100,40
325.55582,325.79657,78,100,40
325.8336,326.07434,86,100,40
326.11136,326.3521,81,100,40
326.38916,326.62988,90,100,40
326.66693,326.90765,86,100,40
326.9447,327.06506,86,100,40
327.0836,327.20398,87,100,40
327.22247,327.7086,86,100,40
327.77805,328.01877,78,100,40
328.05582,328.29657,86,100,40
328.3336,328.57434,81,100,40
328.6114,328.8521,90,100,40
328.88916,331.04193,86,100,40
331.1114,332.15305,87,100,40
332.22247,333.26416,88,100,40
333.3336,335.4864,89,100,40
335.55582,336.5975,90,100,40
336.66693,337.70862,84,100,40
336.66693,337.70862,75,100,40
337.77805,338.8197,85,100,40
337.77805,338.8197,77,100,40
338.88916,339.93082,77,100,40
338.88916,339.93082,71,100,40
340.00027,341.04193,78,100,40
340.00027,341.04193,70,100,40
341.1114,342.15305,72,100,40
341.1114,342.15305,63,100,40
342.2225,342.46323,73,100,40
342.50027,342.62064,73,100,40
342.63916,342.75952,76,100,40
342.77805,343.57434,73,100,40
343.6114,343.73175,73,100,40
343.75027,343.87064,76,100,40
343.88916,344.44473,73,100,40
344.44473,344.68546,74,100,40
344.7225,344.84286,73,100,40
344.8614,344.98175,75,100,40
345.00027,345.24103,73,100,40
345.27805,345.39844,73,100,40
345.41693,345.53732,75,100,40
345.55585,345.79657,73,100,40
345.83362,345.95398,73,100,40
345.9725,346.09286,75,100,40
346.1114,346.35214,73,100,40
346.38916,346.50952,73,100,40
346.52805,346.64844,75,100,40
346.66693,347.70862,73,100,40
347.77805,348.81973,73,100,40
348.88916,349.93085,73,100,40
350.00027,351.04196,73,100,40
351.1114,352.15305,73,100,40
352.2225,353.26416,73,100,40
353.33362,353.81973,73,100,40
353.88916,354.37527,69,100,40
354.44473,354.93085,64,100,40
355.00027,355.4864,73,100,40
355.55585,356.04196,69,100,40
356.1114,356.5975,76,100,40
356.66696,358.2642,74,100,40
358.33362,358.81973,73,100,40
358.8892,359.37527,71,100,40
359.44473,359.93085,69,100,40
360.00027,360.7642,71,100,40
360.83362,361.07437,73,100,40
361.1114,362.70862,71,100,40
362.77808,363.2642,73,100,40
363.33362,363.81973,74,100,40
363.8892,364.3753,76,100,40
364.44473,364.93085,73,100,40
364.44473,364.93085,64,100,40
369.7225,369.96326,76,100,40
370.0003,370.24103,77,100,40
370.27808,370.51883,76,100,40
370.83362,371.07437,76,100,40
371.11142,371.35214,80,100,40
371.3892,371.6299,76,100,40
371.66696,371.9077,81,100,40
371.94473,372.1855,76,100,40
372.22253,372.46326,83,100,40
372.5003,372.74103,76,100,40
373.05585,373.2966,84,100,40
373.33362,373.57437,86,100,40
373.61142,373.85214,76,100,40
373.8892,374.12994,84,100,40
374.16696,374.4077,76,100,40
374.44473,374.6855,83,100,40
374.72253,374.96326,76,100,40
375.0003,375.24103,81,100,40
375.27808,375.51883,76,100,40
375.55585,375.7966,83,100,40
375.83365,376.07437,76,100,40
376.11142,376.35214,84,100,40
376.3892,376.62994,76,100,40
376.66696,376.9077,86,100,40
376.94473,377.1855,76,100,40
377.22253,377.46326,88,100,40
377.5003,377.74103,84,100,40
377.77808,378.01883,89,100,40
378.33365,378.454,72,100,40
378.47253,378.5929,81,100,40
378.61142,378.73178,77,100,40
378.7503,378.87067,84,100,40
378.8892,379.12994,82,100,40
379.16696,379.28735,82,100,40
379.30585,379.42624,84,100,40
379.44476,380.24106,82,100,40
380.27808,380.51883,81,100,40
380.55585,380.7966,79,100,40
380.83365,381.07437,77,100,40
381.11142,381.35214,79,100,40
381.3892,381.62994,77,100,40
381.66696,381.9077,76,100,40
381.94476,382.1855,81,100,40
382.22253,382.46326,77,100,40
382.77808,382.89847,69,100,40
382.91696,383.03735,77,100,40
383.05585,383.17624,74,100,40
383.19476,383.31512,81,100,40
383.33365,383.57437,79,100,40
383.61142,383.73178,77,100,40
383.7503,383.87067,81,100,40
383.8892,384.6855,79,100,40
384.72253,384.96326,77,100,40
385.0003,385.24106,76,100,40
385.27808,385.51883,74,100,40
385.55588,385.7966,75,100,40
385.83365,386.07437,74,100,40
386.11142,386.35217,72,100,40
386.3892,386.62994,77,100,40
386.66696,386.9077,75,100,40
386.94476,387.1855,74,100,40
387.22253,387.4633,72,100,40
387.5003,387.74106,77,100,40
387.77808,388.01883,75,100,40
388.05588,388.2966,74,100,40
388.33365,388.57437,72,100,40
388.61142,388.85217,77,100,40
388.8892,389.12994,75,100,40
389.167,389.4077,74,100,40
389.44476,389.6855,72,100,40
389.72253,389.9633,77,100,40
390.0003,390.24106,75,100,40
390.27808,390.51883,74,100,40
390.55588,390.7966,72,100,40
390.83365,391.0744,77,100,40
391.11142,391.23178,77,100,40
391.2503,391.3707,78,100,40
391.3892,391.50958,78,100,40
391.52808,391.64847,77,100,40
391.667,391.78735,77,100,40
391.80588,391.92624,81,100,40
391.94476,392.06512,81,100,40
392.08365,392.204,77,100,40
392.22253,392.3429,77,100,40
392.36142,392.48178,84,100,40
392.5003,392.6207,84,100,40
392.6392,392.75958,77,100,40
393.05588,393.2966,77,100,40
393.33365,393.454,77,100,40
393.47253,393.5929,78,100,40
393.61142,393.7318,78,100,40
393.7503,393.8707,77,100,40
393.8892,394.00958,77,100,40
394.0281,394.14847,81,100,40
394.167,394.28735,81,100,40
394.30588,394.42624,77,100,40
394.44476,394.56512,77,100,40
394.58365,394.704,84,100,40
394.72253,394.8429,84,100,40
394.86142,394.9818,77,100,40
395.0003,395.1207,77,100,40
395.1392,395.25958,85,100,40
395.2781,395.39847,85,100,40
395.417,395.53735,77,100,40
395.55588,395.67624,78,100,40
395.69476,395.81512,87,100,40
395.83365,395.954,87,100,40
395.97253,396.0929,84,100,40
396.11142,396.2318,84,100,40
396.2503,396.3707,81,100,40
396.38922,396.50958,81,100,40
396.5281,396.64847,78,100,40
396.667,396.78735,78,100,40
396.80588,396.92624,75,100,40
396.94476,397.06512,75,100,40
397.08365,397.204,72,100,40
397.22253,397.3429,72,100,40
397.36142,397.4818,69,100,40
397.5003,397.6207,69,100,40
397.63922,397.75958,74,100,40
397.7781,398.01883,67,100,40
397.7781,398.01883,55,100,40
398.33365,398.5744,67,100,40
398.61142,398.85217,71,100,40
398.88922,399.12994,74,100,40
399.167,399.4077,79,100,40
399.44476,400.24106,78,100,40
400.2781,400.51883,74,100,40
400.55588,400.79663,71,100,40
400.83365,401.0744,76,100,40
401.11142,401.35217,74,100,40
401.38922,401.62994,72,100,40
401.667,401.9077,71,100,40
401.94476,402.18552,69,100,40
402.22253,402.4633,67,100,40
402.7781,403.01883,67,100,40
403.05588,403.29663,71,100,40
403.33365,403.5744,74,100,40
403.61142,403.85217,79,100,40
403.88922,404.68552,78,100,40
404.72253,404.9633,74,100,40
405.00034,405.24106,71,100,40
405.2781,405.51883,76,100,40
405.55588,405.79663,74,100,40
405.83365,406.0744,71,100,40
406.11145,406.35217,67,100,40
406.38922,406.62994,72,100,40
406.667,406.90775,71,100,40
406.94476,407.18552,67,100,40
407.22253,407.4633,62,100,40
407.50034,407.74106,75,100,40
407.7781,408.01886,74,100,40
408.05588,408.29663,70,100,40
408.33365,408.5744,67,100,40
408.61145,408.85217,72,100,40
408.88922,409.12994,70,100,40
409.167,409.40775,67,100,40
409.44476,409.68552,62,100,40
409.72256,409.9633,75,100,40
410.00034,410.24106,74,100,40
410.2781,410.51886,70,100,40
410.55588,410.79663,67,100,40
410.83365,411.0744,79,100,40
411.11145,411.35217,77,100,40
411.38922,411.62994,74,100,40
411.667,411.90775,70,100,40
411.94476,412.18552,76,100,40
412.22256,412.4633,74,100,40
412.50034,412.74106,70,100,40
412.7781,413.01886,65,100,40
413.05588,413.29663,79,100,40
413.33368,413.5744,77,100,40
413.61145,413.85217,74,100,40
413.88922,414.12997,70,100,40
414.167,414.40775,75,100,40
414.44476,414.68552,74,100,40
414.72256,414.9633,70,100,40
415.00034,415.24106,65,100,40
415.2781,415.51886,82,100,40
415.55588,415.79663,79,100,40
415.83368,416.0744,77,100,40
416.11145,416.35217,70,100,40
416.38922,416.62997,82,100,40
416.667,416.90775,79,100,40
416.94476,417.18552,77,100,40
417.22256,417.4633,70,100,40
417.50034,417.7411,84,100,40
417.7781,418.01886,82,100,40
418.05588,418.29663,79,100,40
418.33368,418.5744,75,100,40
418.61145,418.85217,84,100,40
418.88922,419.12997,82,100,40
419.167,419.40775,79,100,40
419.4448,419.68552,75,100,40
419.72256,419.9633,84,100,40
420.00034,420.2411,83,100,40
422.50034,422.6207,70,100,40
422.63922,422.75958,82,100,40
422.7781,423.01886,70,100,40
423.0559,423.17627,70,100,40
423.1948,423.31516,82,100,40
423.33368,423.5744,70,100,40
423.61145,423.7318,70,100,40
423.75034,423.8707,82,100,40
423.88922,424.12997,70,100,40
424.167,424.40775,82,100,40
424.4448,424.68552,83,100,40
424.72256,424.96332,82,100,40
425.00034,425.2411,86,100,40
425.2781,425.51886,82,100,40
425.5559,425.79663,87,100,40
425.83368,426.0744,82,100,40
426.38922,426.62997,82,100,40
426.66702,426.90775,80,100,40
426.9448,427.18552,79,100,40
427.22256,427.46332,80,100,40
427.50034,427.7411,82,100,40
427.7781,428.01886,80,100,40
428.0559,428.29663,79,100,40
428.61145,428.8522,82,100,40
428.88922,429.12997,83,100,40
429.16702,429.40775,82,100,40
429.4448,429.68552,86,100,40
429.72256,429.96332,82,100,40
430.00034,430.2411,87,100,40
430.27814,430.51886,82,100,40
430.83368,431.07443,82,100,40
431.11145,431.3522,82,100,40
431.38922,431.62997,80,100,40
431.66702,431.90775,79,100,40
431.9448,432.18552,77,100,40
432.22256,432.46332,77,100,40
432.50034,432.7411,75,100,40
437.22256,438.01886,75,100,40
438.0559,438.29666,74,100,40
438.33368,439.12997,77,100,40
439.16702,439.40775,75,100,40
439.4448,440.2411,82,100,40
440.27814,440.51886,80,100,40
440.5559,440.79666,79,100,40
440.83368,441.07443,77,100,40
441.11145,441.3522,77,100,40
441.38925,441.62997,75,100,40
441.9448,442.18555,82,100,40
442.22256,442.46332,83,100,40
442.50037,442.7411,82,100,40
442.77814,443.01886,86,100,40
443.0559,443.29666,82,100,40
443.33368,443.57443,89,100,40
443.61148,443.8522,82,100,40
444.16702,444.40778,82,100,40
444.4448,444.68555,83,100,40
444.72256,444.96332,82,100,40
445.00037,445.2411,86,100,40
445.27814,445.51886,82,100,40
445.5559,445.79666,92,100,40
445.83368,446.07443,82,100,40
446.38925,446.62997,82,100,40
446.66702,446.90778,92,100,40
446.9448,447.18555,82,100,40
447.50037,447.7411,82,100,40
447.77814,448.0189,92,100,40
448.0559,448.29666,82,100,40
448.61148,448.8522,70,100,40
448.88925,449.12997,80,100,40
449.16702,449.40778,71,100,40
449.7226,449.96332,71,100,40
450.00037,450.2411,80,100,40
450.27814,450.5189,71,100,40
450.83368,451.07443,71,100,40
451.04202,451.07443,71,100,40
451.11148,453.26425,79,100,40
453.26425,453.32443,77,100,40
453.3337,454.37537,79,100,40
454.37537,454.43555,72,100,40
454.4448,455.48648,79,100,40
455.48648,455.54666,71,100,40
455.5559,456.5976,79,100,40
456.5976,456.65778,72,100,40
456.66702,457.7087,79,100,40
457.77814,457.89853,79,100,40
457.91702,458.0374,77,100,40
458.0559,458.1763,77,100,40
458.19482,458.3152,76,100,40
458.3337,458.45407,76,100,40
458.4726,458.59296,77,100,40
458.61148,458.73184,77,100,40
458.75037,458.87073,79,100,40
458.88925,459.0096,79,100,40
459.02814,459.14853,77,100,40
459.16702,459.2874,77,100,40
459.3059,459.4263,76,100,40
459.44482,459.5652,76,100,40
459.5837,459.70407,77,100,40
459.7226,459.84296,77,100,40
459.86148,459.98184,79,100,40
460.00037,460.12073,79,100,40
460.13925,460.2596,77,100,40
460.27814,460.39853,77,100,40
460.41702,460.5374,76,100,40
460.55594,460.6763,76,100,40
460.69482,460.8152,77,100,40
460.8337,460.95407,77,100,40
460.9726,461.09296,79,100,40
461.11148,461.23184,79,100,40
461.25037,461.37073,77,100,40
461.38925,461.50964,77,100,40
461.52814,461.64853,76,100,40
461.66702,461.7874,76,100,40
461.80594,461.9263,77,100,40
461.94482,462.0652,77,100,40
462.0837,462.20407,79,100,40
462.2226,462.34296,80,100,40
462.36148,462.48184,79,100,40
462.50037,462.62073,79,100,40
462.63925,462.75964,77,100,40
462.77814,462.89853,77,100,40
462.91702,463.0374,79,100,40
463.05594,463.1763,79,100,40
463.19482,463.3152,80,100,40
463.3337,463.45407,80,100,40
463.4726,463.59296,79,100,40
463.61148,463.73184,79,100,40
463.75037,463.87073,77,100,40
463.88925,464.00964,77,100,40
464.02814,464.14853,79,100,40
464.16705,464.2874,79,100,40
464.30594,464.4263,80,100,40
464.44482,464.68555,80,100,40
464.7226,464.84296,80,100,40
464.86148,464.98184,79,100,40
465.00037,465.24112,80,100,40
465.27814,465.39853,80,100,40
465.41705,465.5374,82,100,40
465.55594,465.79666,79,100,40
465.8337,465.95407,79,100,40
465.9726,466.09296,77,100,40
466.11148,466.35223,79,100,40
466.38925,466.50964,79,100,40
466.52814,466.64853,80,100,40
466.66705,466.90778,77,100,40
466.94482,467.0652,77,100,40
467.0837,467.20407,76,100,40
467.2226,467.46335,77,100,40
467.50037,467.62076,77,100,40
467.63925,467.75964,79,100,40
467.77814,468.0189,77,100,40
468.05594,468.1763,75,100,40
468.19482,468.3152,74,100,40
468.3337,468.45407,75,100,40
468.4726,468.59296,77,100,40
468.61148,468.73184,79,100,40
468.75037,468.87076,82,100,40
468.88925,469.13,80,100,40
469.16705,469.2874,80,100,40
469.30594,469.4263,79,100,40
469.44482,469.68555,80,100,40
469.7226,469.84296,80,100,40
469.86148,469.98187,82,100,40
470.00037,470.24112,79,100,40
470.27817,470.39853,79,100,40
470.41705,470.5374,77,100,40
470.55594,470.79666,79,100,40
470.8337,470.95407,79,100,40
470.9726,471.09296,80,100,40
471.11148,471.35223,77,100,40
471.38925,471.50964,77,100,40
471.52817,471.64853,76,100,40
471.66705,471.90778,77,100,40
471.94482,472.0652,77,100,40
472.0837,472.20407,79,100,40
472.2226,472.46335,75,100,40
472.50037,472.62076,75,100,40
472.63928,472.75964,74,100,40
472.77817,473.0189,75,100,40
473.05594,473.1763,75,100,40
473.19482,473.3152,77,100,40
473.3337,473.57446,79,100,40
473.61148,473.73187,79,100,40
473.75037,473.87076,78,100,40
473.88928,474.13,79,100,40
474.16705,474.2874,79,100,40
474.30594,474.4263,81,100,40
474.44482,474.68558,79,100,40
474.7226,474.843,78,100,40
474.86148,474.98187,76,100,40
475.00037,475.12076,78,100,40
475.13928,475.25964,79,100,40
475.27817,475.39853,81,100,40
475.41705,475.5374,83,100,40
475.55594,475.7967,84,100,40
475.8337,475.95407,84,100,40
475.9726,476.093,83,100,40
476.11148,476.35223,84,100,40
476.38928,476.50964,84,100,40
476.52817,476.64853,86,100,40
476.66705,476.90778,84,100,40
476.94482,477.0652,83,100,40
477.0837,477.20407,81,100,40
477.2226,477.343,79,100,40
477.36148,477.48187,81,100,40
477.5004,477.62076,83,100,40
477.63928,477.75964,84,100,40
477.77817,478.0189,86,100,40
478.05594,478.1763,89,100,40
478.19482,478.3152,88,100,40
478.3337,478.57446,89,100,40
478.61148,478.73187,89,100,40
478.7504,478.87076,91,100,40
478.88928,479.13,89,100,40
479.16705,479.2874,88,100,40
479.30594,479.4263,89,100,40
479.44482,479.5652,88,100,40
479.5837,479.7041,90,100,40
479.7226,479.843,90,100,40
479.86148,479.98187,92,100,40
480.0004,480.24112,93,100,40
480.27817,480.39853,84,100,40
480.41705,480.5374,83,100,40
480.55594,480.7967,84,100,40
480.8337,480.9541,84,100,40
480.9726,481.093,88,100,40
481.1115,481.35223,86,100,40
481.38928,481.50964,86,100,40
481.52817,481.64853,85,100,40
481.66705,481.7874,86,100,40
481.80594,481.9263,88,100,40
481.94482,482.0652,88,100,40
482.0837,482.2041,90,100,40
482.2226,482.46335,91,100,40
482.5004,482.62076,86,100,40
482.63928,482.75964,88,100,40
482.77817,483.0189,86,100,40
483.05594,483.1763,86,100,40
483.19482,483.31522,84,100,40
483.3337,483.57446,83,100,40
483.6115,483.73187,83,100,40
483.7504,483.87076,84,100,40
483.88928,484.00964,81,100,40
484.02817,484.14853,83,100,40
484.16705,484.2874,84,100,40
484.30594,484.4263,81,100,40
484.44482,484.68558,91,100,40
484.7226,484.843,86,100,40
484.8615,484.98187,87,100,40
485.0004,485.24112,86,100,40
485.27817,485.39853,86,100,40
485.41705,485.5374,84,100,40
485.55594,485.7967,82,100,40
485.8337,485.9541,82,100,40
485.97263,486.093,84,100,40
486.1115,486.23187,81,100,40
486.2504,486.37076,82,100,40
486.38928,486.50964,84,100,40
486.52817,486.64853,81,100,40
486.66705,486.9078,78,100,40
486.94482,487.06522,79,100,40
487.0837,487.2041,81,100,40
487.22263,487.343,79,100,40
487.3615,487.48187,74,100,40
487.5004,487.62076,72,100,40
487.63928,487.75964,71,100,40
488.05594,488.17633,69,100,40
488.19482,488.31522,71,100,40
488.3337,488.57446,72,100,40
488.6115,488.73187,72,100,40
488.7504,488.87076,75,100,40
489.16705,489.2874,74,100,40
489.30594,489.42633,81,100,40
489.44482,489.56522,79,100,40
489.58374,489.7041,74,100,40
489.72263,489.843,72,100,40
489.8615,489.98187,70,100,40
490.27817,490.39853,69,100,40
490.41705,490.5374,70,100,40
490.55594,490.7967,72,100,40
490.83374,490.9541,72,100,40
490.97263,491.093,75,100,40
491.1115,491.35223,79,100,40
491.38928,491.63004,78,100,40
491.66705,491.9078,79,100,40
491.94482,492.18558,81,100,40
492.22263,492.46335,79,100,40
492.5004,492.74115,78,100,40
492.77817,493.01892,79,100,40
493.05594,493.2967,84,100,40
493.33374,493.57446,79,100,40
493.6115,493.85223,78,100,40
493.88928,494.13004,79,100,40
494.16705,494.4078,80,100,40
494.44485,494.68558,79,100,40
494.72263,494.96335,78,100,40
495.0004,495.24115,79,100,40
495.27817,495.51892,84,100,40
495.55594,495.7967,82,100,40
495.83374,495.9541,82,100,40
495.97263,496.093,81,100,40
496.1115,496.35223,82,100,40
496.38928,496.50964,82,100,40
496.52817,496.64856,81,100,40
496.66705,496.78745,82,100,40
496.80594,496.92633,84,100,40
496.94485,497.06522,86,100,40
497.08374,497.2041,87,100,40
497.22263,497.343,89,100,40
497.3615,497.48187,91,100,40
497.5004,497.62076,89,100,40
497.63928,497.75964,86,100,40
497.77817,498.01892,82,100,40
498.05597,498.17633,82,100,40
498.19485,498.31522,81,100,40
498.33374,498.57446,82,100,40
498.6115,498.73187,82,100,40
498.7504,498.87076,81,100,40
498.88928,499.13004,82,100,40
499.16705,499.56522,82,100,40
499.58374,499.7041,84,100,40
499.72263,499.843,82,100,40
499.8615,499.98187,77,100,40
500.0004,500.24115,82,100,40
500.27817,500.39856,82,100,40
500.41705,500.53745,81,100,40
500.55597,500.7967,82,100,40
500.83374,500.9541,82,100,40
500.97263,501.093,81,100,40
501.1115,501.23187,82,100,40
501.2504,501.37076,84,100,40
501.38928,501.50967,86,100,40
501.52817,501.64856,87,100,40
501.66705,501.78745,89,100,40
501.80597,501.92633,91,100,40
501.94485,502.06522,89,100,40
502.08374,502.2041,86,100,40
502.22263,502.46338,82,100,40
502.5004,502.62076,82,100,40
502.63928,502.75967,81,100,40
502.77817,503.01892,82,100,40
503.05597,503.17633,82,100,40
503.19485,503.31522,81,100,40
503.33374,503.57446,82,100,40
503.6115,503.73187,82,100,40
503.7504,503.8708,81,100,40
503.88928,504.00967,82,100,40
504.02817,504.14856,84,100,40
504.16708,504.28745,82,100,40
504.30597,504.42633,77,100,40
504.44485,505.1208,82,100,40
505.13928,505.25967,84,100,40
505.27817,505.39856,82,100,40
505.41708,505.53745,79,100,40
505.55597,506.23187,82,100,40
506.2504,506.3708,84,100,40
506.38928,506.50967,82,100,40
506.5282,506.64856,77,100,40
506.66708,507.343,82,100,40
507.3615,507.48187,84,100,40
507.5004,507.6208,82,100,40
507.63928,507.75967,79,100,40
507.7782,508.4541,82,100,40
508.47263,508.593,84,100,40
508.6115,508.7319,82,100,40
508.7504,508.8708,77,100,40
508.88928,509.00967,82,100,40
509.0282,509.14856,84,100,40
509.16708,509.28745,82,100,40
509.30597,509.42633,80,100,40
509.44485,509.56522,79,100,40
509.58374,509.7041,80,100,40
509.72263,509.843,79,100,40
509.8615,509.9819,77,100,40
510.0004,510.1208,76,100,40
510.13928,510.25967,77,100,40
510.2782,510.39856,76,100,40
510.41708,510.53745,73,100,40
510.55597,510.67633,72,100,40
510.69485,510.81522,73,100,40
510.83374,510.9541,72,100,40
510.97263,511.093,70,100,40
511.1115,511.2319,68,100,40
511.2504,511.3708,70,100,40
511.3893,511.50967,68,100,40
511.5282,511.64856,67,100,40
511.66708,511.78745,65,100,40
511.80597,511.92633,67,100,40
511.94485,512.06525,65,100,40
512.08374,512.2041,63,100,40
512.22266,512.343,62,100,40
512.3615,512.4819,63,100,40
512.5004,512.6208,62,100,40
512.6393,512.75964,60,100,40
512.7782,512.89856,59,100,40
512.91705,513.0375,62,100,40
513.05597,513.17633,65,100,40
513.1949,513.31525,68,100,40
513.33374,513.8199,72,100,40
513.8893,514.00964,67,100,40
514.0282,514.14856,72,100,40
514.16705,514.2875,76,100,40
514.30597,514.42633,79,100,40
514.4449,514.6856,77,100,40
514.72266,514.843,77,100,40
514.8615,514.9819,79,100,40
515.0004,515.4865,77,100,40
515.55597,516.04205,76,100,40
516.1115,516.3523,74,100,40
516.3893,516.63007,72,100,40
516.66705,517.1532,74,100,40
517.22266,517.4634,71,100,40
517.5004,517.74115,67,100,40
517.7782,518.2643,72,100,40
518.33374,518.4541,67,100,40
518.47266,518.593,72,100,40
518.6115,518.7319,76,100,40
518.7504,518.8708,79,100,40
518.8893,519.13007,77,100,40
519.16705,519.2875,77,100,40
519.30597,519.42633,79,100,40
519.4449,519.93097,77,100,40
520.0004,520.24115,75,100,40
520.2782,520.5189,72,100,40
520.55597,520.67633,67,100,40
520.6949,520.81525,72,100,40
520.83374,520.9541,75,100,40
520.97266,521.093,79,100,40
521.1115,521.3523,77,100,40
521.3893,521.5097,77,100,40
521.5282,521.64856,79,100,40
521.6671,522.1532,77,100,40
522.22266,522.4634,75,100,40
522.5004,522.6208,75,100,40
522.6393,522.7597,77,100,40
522.7782,523.57446,75,100,40
523.6115,523.7319,75,100,40
523.7504,523.8708,77,100,40
523.8893,524.6856,75,100,40
524.72266,524.843,75,100,40
524.8615,524.9819,77,100,40
525.0004,525.7967,75,100,40
525.83374,525.9541,75,100,40
525.97266,526.093,77,100,40
526.1115,526.3523,79,100,40
526.3893,526.5097,79,100,40
526.5282,526.64856,80,100,40
526.6671,527.1532,82,100,40
527.22266,527.4634,80,100,40
527.5004,527.74115,79,100,40
527.7782,528.0189,84,100,40
528.05597,528.2967,82,100,40
528.33374,528.5745,80,100,40
528.6115,528.8523,79,100,40
528.8893,529.3754,80,100,40
529.4449,529.6856,79,100,40
529.72266,529.9634,77,100,40
530.0004,530.24115,82,100,40
530.2782,530.5189,80,100,40
530.55597,530.7967,79,100,40
530.83374,531.0745,77,100,40
531.1115,531.59766,75,100,40
531.6671,531.90784,76,100,40
531.9449,532.1856,78,100,40
532.22266,532.4634,78,100,40
532.5004,532.74115,76,100,40
532.7782,533.0189,75,100,40
533.05597,533.29675,73,100,40
533.33374,534.09766,75,100,40
534.1671,534.2875,75,100,40
534.30597,534.42633,77,100,40
534.4449,535.20874,75,100,40
535.2782,535.39856,75,100,40
535.4171,535.5375,77,100,40
535.55597,535.79675,75,100,40
535.83374,536.0745,72,100,40
536.1115,536.3523,70,100,40
536.38934,536.63007,68,100,40
536.6671,536.90784,79,100,40
536.9449,537.1856,75,100,40
537.22266,537.4634,74,100,40
537.5004,537.74115,72,100,40
537.7782,538.0189,79,100,40
538.05597,538.29675,75,100,40
538.33374,538.5745,74,100,40
538.6116,538.8523,72,100,40
538.88934,539.13007,84,100,40
539.1671,539.40784,82,100,40
539.4449,539.6856,81,100,40
539.72266,539.9634,80,100,40
540.0004,540.24115,79,100,40
540.2782,540.5189,78,100,40
540.55597,540.79675,77,100,40
540.83374,541.0745,76,100,40
541.1116,541.3523,75,100,40
541.38934,541.63007,74,100,40
541.6671,541.90784,73,100,40
541.9449,542.1856,72,100,40
542.22266,542.4634,71,100,40
542.5004,542.74115,70,100,40
542.7782,543.019,69,100,40
543.05597,543.29675,68,100,40
543.33374,543.5745,67,100,40
543.6116,543.8523,66,100,40
543.88934,544.13007,65,100,40
544.1671,544.40784,64,100,40
544.4449,544.93097,63,100,40
549.4449,549.6856,58,100,40
549.72266,549.9634,67,100,40
550.0004,550.2412,63,100,40
550.2782,550.519,70,100,40
550.55597,551.3523,68,100,40
551.38934,551.63007,67,100,40
551.6671,551.90784,65,100,40
551.9449,552.1856,63,100,40
552.22266,552.4634,65,100,40
552.5004,552.6208,65,100,40
552.63934,552.7597,67,100,40
552.7782,553.26434,65,100,40
553.88934,554.13007,58,100,40
554.1671,554.40784,67,100,40
554.4449,554.6856,63,100,40
554.72266,554.9634,70,100,40
555.0004,555.79675,68,100,40
555.8338,556.0745,67,100,40
556.1116,556.3523,65,100,40
556.38934,556.63007,63,100,40
556.6671,556.90784,65,100,40
556.9449,557.06525,65,100,40
557.0838,557.20416,67,100,40
557.22266,557.7088,65,100,40
558.3338,558.5745,63,100,40
558.6116,558.8523,65,100,40
558.88934,559.13007,67,100,40
559.1671,559.40784,75,100,40
559.4449,560.2412,74,100,40
560.556,560.79675,63,100,40
560.8338,561.0745,65,100,40
561.1116,561.3523,67,100,40
561.38934,561.63007,75,100,40
561.6671,562.1532,74,100,40
562.22266,562.46344,72,100,40
562.7782,563.019,63,100,40
563.056,563.29675,65,100,40
563.3338,563.5745,67,100,40
563.6116,563.8523,74,100,40
563.88934,564.6856,72,100,40
565.0004,565.2412,63,100,40
565.27826,565.519,65,100,40
565.556,565.79675,67,100,40
565.8338,566.0745,74,100,40
566.1116,566.90784,72,100,40
566.9449,568.019,71,100,40
568.056,569.13007,68,100,40
569.1671,570.2412,65,100,40
570.27826,571.0421,62,100,40
571.1116,573.26434,62,100,40
573.26434,573.3245,63,100,40
573.3338,574.3755,75,100,40
574.4449,575.4866,73,100,40
575.556,576.59766,71,100,40
576.6671,577.7088,77,100,40
577.77826,578.019,63,100,40
578.056,578.29675,67,100,40
578.3338,578.5745,70,100,40
578.6116,578.8523,75,100,40
578.88934,579.13007,76,100,40
579.1671,579.4079,79,100,40
579.4449,579.68567,82,100,40
579.72266,579.96344,85,100,40
580.0005,580.2412,84,100,40
580.27826,580.519,81,100,40
580.556,580.79675,78,100,40
580.8338,581.0745,75,100,40
581.1116,581.3523,74,100,40
581.38934,581.63007,71,100,40
581.6671,581.9079,68,100,40
581.9449,582.18567,65,100,40
582.2227,582.46344,63,100,40
582.5005,582.7412,67,100,40
582.77826,583.019,70,100,40
583.056,583.29675,75,100,40
583.3338,583.5745,74,100,40
583.6116,583.8523,71,100,40
583.88934,584.1301,68,100,40
584.1671,584.4079,65,100,40
584.4449,584.68567,67,100,40
584.7227,584.96344,70,100,40
585.0005,585.2412,75,100,40
585.27826,585.519,79,100,40
585.556,585.79675,77,100,40
585.8338,586.0745,74,100,40
586.1116,586.3523,71,100,40
586.38934,586.6301,68,100,40
586.6671,586.9079,67,100,40
586.9449,587.18567,63,100,40
587.2227,587.46344,67,100,40
587.5005,587.7412,70,100,40
587.77826,588.019,74,100,40
588.056,588.29675,75,100,40
588.3338,588.5745,79,100,40
588.6116,588.8523,82,100,40
588.88934,589.2505,86,100,40
589.306,589.3662,87,100,40
589.3755,589.43567,89,100,40
589.44495,590.2412,87,100,40
590.27826,590.519,82,100,40
590.556,590.9171,80,100,40
590.9727,591.0931,79,100,40
591.1116,591.5977,79,100,40
591.6671,592.02826,77,100,40
592.0838,592.20416,75,100,40
592.2227,592.46344,75,100,40
592.5005,592.7412,70,100,40
592.77826,592.97736,68,100,40
592.9866,593.04675,67,100,40
593.056,593.1162,68,100,40
593.1255,593.24585,67,100,40
593.3338,594.0097,67,100,40
594.02826,594.1486,65,100,40
594.1671,594.28754,67,100,40
594.306,594.4264,68,100,40
594.44495,596.5977,67,100,40
596.6671,597.7088,63,100,40
597.77826,599.931,63,100,40
0.833334,1.3518529,55,100,40
1.38889,2.462965,58,100,40
3.055558,3.574077,55,100,40
3.611114,4.685189,58,100,40
5.000004,5.4861155,55,100,40
5.55556,5.796301,58,100,40
5.833338,6.074079,63,100,40
6.111116,6.907413,62,100,40
6.111116,6.907413,56,100,40
6.94445,7.185191,63,100,40
7.222228,7.462969,62,100,40
7.500006,7.740747,60,100,40
7.777784,8.018525,62,100,40
8.055562,8.175933,62,100,40
8.194451,8.314821,60,100,40
8.33334,8.819451,62,100,40
8.888896,9.129637,63,100,40
9.444452,9.930564,55,100,40
10.000008,10.240749,58,100,40
10.277786,10.518527,63,100,40
10.555564,11.351861,62,100,40
10.555564,11.351861,56,100,40
11.388898,11.629639,63,100,40
11.666676,11.907417,62,100,40
11.944454,12.185195,60,100,40
12.222232,12.462973,62,100,40
12.50001,12.62038,62,100,40
12.638899,12.75927,60,100,40
12.777788,13.2639,62,100,40
13.333344,13.574085,63,100,40
13.8889,14.685197,63,100,40
14.722234,14.962975,67,100,40
15.000012,15.240753,70,100,40
15.27779,15.398161,67,100,40
15.416679,15.537049,68,100,40
15.555568,15.7963085,70,100,40
16.111124,16.907421,63,100,40
16.944458,17.1852,67,100,40
17.222237,17.462976,70,100,40
17.500013,17.620384,67,100,40
17.638903,17.759274,68,100,40
17.777792,18.018534,70,100,40
18.333347,19.129644,63,100,40
19.166681,19.407423,67,100,40
19.44446,19.685202,70,100,40
19.722239,19.84261,67,100,40
19.861128,19.981497,68,100,40
20.000015,20.240757,70,100,40
20.555573,21.35187,63,100,40
21.388906,21.629646,67,100,40
21.666683,21.907425,70,100,40
21.944462,22.064833,67,100,40
22.083351,22.203722,68,100,40
22.22224,22.46298,70,100,40
22.777796,23.018538,68,100,40
23.055574,23.175945,65,100,40
23.194464,23.314833,67,100,40
23.333351,23.574093,68,100,40
23.888908,24.129648,67,100,40
24.166685,24.287056,63,100,40
24.305574,24.425945,65,100,40
24.444464,24.685205,67,100,40
24.722242,24.842613,63,100,40
24.861132,24.9815,65,100,40
25.00002,25.24076,67,100,40
25.277798,25.398169,63,100,40
25.416687,25.537058,65,100,40
25.555576,25.796316,67,100,40
25.833355,25.953724,63,100,40
25.972242,26.092613,65,100,40
26.111132,26.351873,67,100,40
26.38891,26.62965,65,100,40
26.666689,26.907429,63,100,40
27.222244,27.708355,56,100,40
27.7778,28.263912,68,100,40
28.333357,28.819468,67,100,40
28.888912,29.652802,63,100,40
29.722246,29.962986,65,100,40
30.000025,30.240765,67,100,40
30.277802,30.398172,67,100,40
30.41669,30.537062,65,100,40
30.55558,31.04169,67,100,40
31.111135,31.351877,63,100,40
31.666693,32.152805,56,100,40
32.222248,32.70836,68,100,40
32.777805,33.263916,67,100,40
33.33336,34.097248,63,100,40
34.166695,34.407436,65,100,40
34.444473,34.68521,67,100,40
34.72225,34.84262,67,100,40
34.861137,34.98151,65,100,40
35.000027,35.48614,67,100,40
35.555584,37.15281,63,100,40
37.22225,37.462994,56,100,40
37.50003,37.740772,66,100,40
37.77781,39.37503,65,100,40
39.444477,39.68522,57,100,40
39.722256,39.962994,66,100,40
40.00003,41.597256,65,100,40
41.6667,41.90744,58,100,40
41.944477,42.18522,68,100,40
42.222256,43.81948,67,100,40
43.888924,44.129665,59,100,40
44.166702,44.407444,68,100,40
44.44448,44.685223,67,100,40
46.94448,47.185223,67,100,40
47.22226,47.463,67,100,40
47.50004,47.620407,64,100,40
47.638927,47.759296,66,100,40
47.777817,48.01856,67,100,40
48.055595,48.296333,67,100,40
48.33337,48.574112,67,100,40
48.61115,48.73152,64,100,40
48.75004,48.87041,66,100,40
48.888927,49.12967,67,100,40
49.166706,49.407448,60,100,40
49.444485,49.685226,59,100,40
49.722263,49.963,60,100,40
50.00004,50.24078,59,100,40
50.277817,50.51856,60,100,40
50.555595,50.796337,59,100,40
50.833374,50.953743,58,100,40
50.972263,51.092632,61,100,40
51.111153,51.351894,60,100,40
51.38893,51.62967,58,100,40
51.66671,51.907448,56,100,40
51.944485,52.185226,58,100,40
52.222263,52.463005,58,100,40
52.500042,52.740784,58,100,40
52.77782,53.018562,58,100,40
53.0556,53.296337,59,100,40
53.333378,53.574116,60,100,40
53.88893,54.009304,67,100,40
54.02782,54.148193,72,100,40
54.16671,54.28708,75,100,40
54.3056,54.42597,79,100,40
54.44449,54.68523,77,100,40
54.722267,54.842636,77,100,40
54.861156,54.981525,79,100,40
55.000046,55.79634,77,100,40
55.833378,56.07412,75,100,40
56.111156,56.3519,74,100,40
56.388935,56.629677,72,100,40
56.666714,56.90745,70,100,40
56.94449,57.18523,69,100,40
57.222267,57.46301,67,100,40
57.500046,57.740788,66,100,40
57.777824,58.018566,67,100,40
58.055603,58.175972,69,100,40
58.194492,58.31486,66,100,40
58.33338,58.57412,67,100,40
58.611156,58.73153,69,100,40
58.750046,58.87042,66,100,40
58.888935,59.129677,67,100,40
59.166714,59.287083,69,100,40
59.305603,59.425972,66,100,40
59.444492,59.685234,67,100,40
59.72227,59.963013,64,100,40
60.00005,60.240788,65,100,40
60.277824,60.398197,67,100,40
60.416714,60.537086,64,100,40
60.555603,60.796345,65,100,40
60.83338,60.95375,67,100,40
60.97227,61.09264,64,100,40
61.11116,61.351902,65,100,40
61.38894,61.509308,67,100,40
61.52783,61.648197,64,100,40
61.666718,61.907455,65,100,40
61.944492,62.185234,62,100,40
62.22227,62.463013,63,100,40
62.50005,62.620422,65,100,40
62.63894,62.759308,62,100,40
62.77783,63.01857,63,100,40
63.055607,63.175976,65,100,40
63.194496,63.314865,62,100,40
63.333385,63.574123,63,100,40
63.61116,63.731533,65,100,40
63.75005,63.870422,62,100,40
63.88894,64.129684,63,100,40
64.16672,64.28709,70,100,40
64.30561,64.42598,68,100,40
64.444496,64.685234,67,100,40
64.722275,64.84264,68,100,40
64.86116,64.98154,65,100,40
65.00005,65.24079,67,100,40
65.27783,65.3982,68,100,40
65.41672,65.53709,67,100,40
65.55561,65.79635,65,100,40
65.83339,65.95376,67,100,40
65.972275,66.09264,63,100,40
66.11116,66.351906,65,100,40
66.38894,66.509315,67,100,40
66.52783,66.6482,63,100,40
66.66672,68.819496,61,100,40
68.88895,70.2408,59,100,40
70.27783,70.67598,67,100,40
70.6945,70.81487,66,100,40
70.83339,70.95376,64,100,40
70.97228,71.09265,66,100,40
71.11117,71.59728,67,100,40
71.666725,72.89821,79,100,40
72.916725,73.037094,78,100,40
73.05561,73.17599,76,100,40
73.1945,73.31487,78,100,40
73.33339,73.574135,79,100,40
73.61117,73.73154,71,100,40
73.75006,73.87043,69,100,40
73.88895,74.009315,67,100,40
74.02784,74.14821,66,100,40
74.166725,74.287094,64,100,40
74.30562,74.42599,66,100,40
74.4445,74.68524,67,100,40
74.72228,74.84265,71,100,40
74.86117,74.981544,69,100,40
75.00006,75.12043,67,100,40
75.13895,75.25932,66,100,40
75.27784,75.39821,64,100,40
75.416725,75.537094,66,100,40
75.55562,75.79636,67,100,40
75.8334,75.953766,62,100,40
75.97228,76.09265,70,100,40
76.111176,76.35191,62,100,40
76.38895,76.50932,62,100,40
76.52784,76.64821,74,100,40
76.666725,76.90747,62,100,40
76.9445,77.06487,62,100,40
77.0834,77.203766,74,100,40
77.22228,77.46303,62,100,40
77.50006,77.62043,62,100,40
77.638954,77.75932,63,100,40
77.77784,78.01858,65,100,40
78.05562,78.29636,77,100,40
78.3334,78.574135,65,100,40
78.611176,78.85191,77,100,40
78.888954,79.12969,65,100,40
79.16673,79.40747,77,100,40
79.44451,79.68525,65,100,40
80.27784,80.763954,65,100,40
80.8334,81.31951,65,100,40
81.388954,81.87507,65,100,40
81.94451,82.46303,65,100,40
82.50007,82.986176,66,100,40
83.05562,83.54173,66,100,40
83.611176,83.85192,67,100,40
83.888954,84.1297,63,100,40
84.16673,84.40748,62,100,40
84.44451,84.68525,63,100,40
84.72229,85.208405,63,100,40
85.27785,85.763954,63,100,40
85.833405,86.07414,62,100,40
86.11118,86.35192,60,100,40
86.38896,86.6297,58,100,40
86.66673,86.90748,60,100,40
86.94451,87.18526,58,100,40
87.22229,87.463036,57,100,40
87.50007,87.740814,66,100,40
87.77785,88.26396,65,100,40
89.16674,89.65285,57,100,40
89.7223,90.208405,60,100,40
90.27785,90.76396,58,100,40
90.833405,91.35193,62,100,40
91.38896,91.6297,59,100,40
91.66674,91.90748,60,100,40
91.94452,92.18526,62,100,40
92.2223,92.463036,60,100,40
92.50008,92.740814,58,100,40
92.777855,93.57415,70,100,40
93.61118,93.85193,69,100,40
93.88896,94.685265,72,100,40
94.7223,94.963036,70,100,40
95.00008,95.79637,77,100,40
95.83341,96.07415,75,100,40
96.11119,96.35193,74,100,40
96.38897,96.907486,72,100,40
96.94452,97.185265,70,100,40
97.50008,97.74082,65,100,40
97.777855,98.0186,66,100,40
98.05563,98.29637,65,100,40
98.33341,98.57415,69,100,40
98.61119,98.85193,65,100,40
98.88897,99.12971,72,100,40
99.16675,99.407486,65,100,40
99.722305,99.96304,65,100,40
100.00008,100.24082,66,100,40
100.277855,100.5186,65,100,40
100.55563,100.79638,69,100,40
100.83341,101.07416,65,100,40
101.11119,101.35194,75,100,40
101.38897,101.62971,65,100,40
101.94453,102.185265,65,100,40
102.222305,102.46304,72,100,40
102.500084,102.74082,65,100,40
103.05564,103.29638,65,100,40
103.33342,103.57416,75,100,40
103.61119,103.85194,65,100,40
104.16675,104.40749,65,100,40
104.44453,104.68527,75,100,40
104.722305,104.96304,66,100,40
105.27786,105.5186,66,100,40
105.55564,105.79638,75,100,40
105.83342,106.07416,66,100,40
106.38898,106.629715,74,100,40
106.666756,107.15286,72,100,40
107.222305,107.46305,69,100,40
107.500084,107.74083,72,100,40
107.77786,108.26398,71,100,40
108.33342,108.57416,67,100,40
108.6112,108.85194,71,100,40
108.88898,109.375084,69,100,40
109.444534,109.68527,66,100,40
109.72231,109.96305,69,100,40
110.00009,110.12046,67,100,40
110.13898,110.259346,69,100,40
110.27786,110.39824,69,100,40
110.416756,110.537125,71,100,40
110.55564,110.79639,71,100,40
110.83342,111.074165,74,100,40
111.1112,111.59731,72,100,40
111.666756,111.90749,69,100,40
111.944534,112.18527,72,100,40
112.22231,112.70842,71,100,40
112.77787,112.89824,71,100,40
112.916756,113.037125,74,100,40
113.05565,113.17602,79,100,40
113.194534,113.3149,83,100,40
113.33343,113.574165,81,100,40
113.6112,113.851944,80,100,40
113.88898,114.12972,81,100,40
114.166756,114.4075,83,100,40
114.444534,114.68528,81,100,40
114.72231,114.96306,79,100,40
115.00009,115.24083,81,100,40
115.27787,115.51861,83,100,40
115.55565,115.79639,81,100,40
115.83343,116.074165,80,100,40
116.111206,116.351944,81,100,40
116.388985,116.62972,83,100,40
116.66676,116.9075,81,100,40
116.944534,117.18528,80,100,40
117.22231,117.46306,81,100,40
117.50009,117.74084,83,100,40
117.77787,118.018616,84,100,40
118.05565,118.296394,82,100,40
118.33343,118.574165,81,100,40
118.611206,118.851944,82,100,40
118.888985,119.12972,84,100,40
119.16676,119.4075,82,100,40
119.44454,119.68528,81,100,40
119.72232,119.96306,82,100,40
120.0001,120.24084,78,100,40
120.27788,120.518616,77,100,40
120.55565,120.796394,81,100,40
120.83343,121.07417,77,100,40
121.111206,121.35195,82,100,40
121.388985,121.62973,77,100,40
121.94454,122.18528,77,100,40
122.22232,122.46306,75,100,40
122.5001,122.74084,74,100,40
122.77788,123.018616,75,100,40
123.05566,123.296394,77,100,40
123.333435,123.57417,75,100,40
123.61121,123.85195,74,100,40
124.16676,124.40751,77,100,40
124.44454,124.68529,78,100,40
124.72232,124.963066,77,100,40
125.0001,125.240845,80,100,40
125.27788,125.518616,77,100,40
125.55566,125.796394,82,100,40
125.833435,126.07417,77,100,40
126.38899,126.62973,77,100,40
126.66677,126.90751,75,100,40
126.94455,127.18529,74,100,40
127.22232,127.463066,75,100,40
127.5001,127.740845,77,100,40
127.77788,128.01862,75,100,40
128.05566,128.2964,74,100,40
128.61122,128.85196,74,100,40
128.88899,129.12973,66,100,40
129.16676,129.40752,64,100,40
129.44455,129.68529,66,100,40
129.72232,129.96307,67,100,40
130.0001,130.24084,66,100,40
130.27788,130.51862,64,100,40
130.83344,131.07417,66,100,40
131.11122,131.35196,67,100,40
131.38899,131.62973,66,100,40
131.66678,131.90752,67,100,40
131.94455,132.18529,69,100,40
132.22232,132.46307,67,100,40
132.5001,132.74084,66,100,40
133.05566,133.17603,66,100,40
133.19455,133.31493,67,100,40
133.33344,133.57419,69,100,40
133.61122,133.85196,66,100,40
133.88899,134.12973,67,100,40
134.16678,134.40752,69,100,40
134.44455,134.93066,71,100,40
135.0001,135.48622,69,100,40
135.55566,135.7964,67,100,40
135.83344,136.07419,64,100,40
136.11122,136.35196,66,100,40
136.38899,136.62975,67,100,40
136.66678,137.1529,69,100,40
137.22234,137.70845,67,100,40
137.7779,138.01863,66,100,40
138.05566,138.2964,64,100,40
138.33345,138.57419,66,100,40
138.61122,138.85196,67,100,40
138.889,139.12975,66,100,40
139.16678,139.40752,64,100,40
139.72234,139.96307,64,100,40
140.0001,140.24086,65,100,40
140.2779,140.51863,64,100,40
140.55566,140.7964,65,100,40
140.83345,141.07419,67,100,40
141.11122,141.35196,65,100,40
141.389,141.62975,64,100,40
141.94456,142.1853,64,100,40
142.22234,142.46307,64,100,40
142.5001,142.74086,62,100,40
143.05566,143.29642,62,100,40
143.33345,143.57419,62,100,40
143.61122,143.85197,61,100,40
144.16678,144.40752,61,100,40
144.44456,144.6853,64,100,40
144.72234,144.96307,62,100,40
145.2779,145.51863,62,100,40
145.55568,145.79642,62,100,40
145.83345,146.07419,61,100,40
146.389,146.62975,61,100,40
146.66678,146.90753,62,100,40
146.94456,147.06493,62,100,40
147.08345,147.20383,61,100,40
147.22234,147.46307,62,100,40
147.50012,147.62048,62,100,40
147.639,147.75938,61,100,40
147.7779,148.01863,62,100,40
148.05568,148.17604,62,100,40
148.19456,148.31493,61,100,40
148.33345,148.57419,62,100,40
148.61124,148.85197,62,100,40
149.44456,149.6853,62,100,40
149.44456,149.6853,56,100,40
151.94456,152.46309,55,100,40
152.50012,153.5742,58,100,40
154.1668,154.6853,55,100,40
154.72235,155.79642,58,100,40
156.11124,156.59735,55,100,40
156.6668,156.90753,58,100,40
156.94456,157.18532,63,100,40
157.22235,158.01865,62,100,40
157.22235,158.01865,56,100,40
158.05568,158.29642,63,100,40
158.33347,158.5742,62,100,40
158.61124,158.85197,60,100,40
158.88902,159.12976,62,100,40
159.1668,159.28717,62,100,40
159.30568,159.42606,60,100,40
159.44456,159.93068,62,100,40
160.00012,160.24088,63,100,40
160.55568,161.0418,55,100,40
161.11124,161.35197,58,100,40
161.38902,161.62976,63,100,40
161.6668,162.46309,62,100,40
161.6668,162.46309,56,100,40
162.50014,162.74088,63,100,40
162.77791,163.01865,62,100,40
163.05568,163.29643,60,100,40
163.33347,163.5742,62,100,40
163.61124,163.73161,62,100,40
163.75014,163.8705,60,100,40
163.88902,164.37514,62,100,40
164.44458,164.68532,63,100,40
165.00014,165.79643,63,100,40
165.83347,166.0742,67,100,40
166.11124,166.35199,70,100,40
166.38902,166.5094,67,100,40
166.52791,166.64828,68,100,40
166.6668,166.90755,70,100,40
167.22235,168.01865,63,100,40
168.0557,168.29643,67,100,40
168.33347,168.5742,70,100,40
168.61125,168.73161,67,100,40
168.75014,168.8705,68,100,40
168.88902,169.12976,70,100,40
169.44458,170.24088,63,100,40
170.27791,170.51866,67,100,40
170.5557,170.79643,70,100,40
170.83347,170.95384,67,100,40
170.97237,171.09273,68,100,40
171.11125,171.35199,70,100,40
171.66681,172.4631,63,100,40
172.50014,172.74088,67,100,40
172.77792,173.01866,70,100,40
173.0557,173.17607,67,100,40
173.19458,173.31496,68,100,40
173.33347,173.57422,70,100,40
173.88902,174.12978,68,100,40
174.16681,174.28717,65,100,40
174.3057,174.42607,67,100,40
174.44458,174.68532,68,100,40
175.00014,175.24088,67,100,40
175.27792,175.39828,63,100,40
175.41681,175.53717,65,100,40
175.5557,175.79643,67,100,40
175.83348,175.95384,63,100,40
175.97237,176.09273,65,100,40
176.11125,176.35199,67,100,40
176.38902,176.5094,63,100,40
176.52792,176.64828,65,100,40
176.66681,176.90755,67,100,40
176.94458,177.06496,63,100,40
177.08348,177.20384,65,100,40
177.22237,177.4631,67,100,40
177.50014,177.74089,65,100,40
177.77792,178.01866,63,100,40
178.33348,178.81958,56,100,40
178.88904,179.37514,68,100,40
179.4446,179.9307,67,100,40
180.00014,180.76404,63,100,40
180.83348,181.07422,65,100,40
181.11125,181.35199,67,100,40
181.38904,181.5094,67,100,40
181.52792,181.6483,65,100,40
181.66681,182.15292,67,100,40
182.22237,182.4631,63,100,40
182.77792,183.26404,56,100,40
183.33348,183.8196,68,100,40
183.88904,184.37515,67,100,40
184.4446,185.20848,63,100,40
185.27792,185.51866,65,100,40
185.55571,185.79645,67,100,40
185.83348,185.95386,67,100,40
185.97237,186.09274,65,100,40
186.11127,186.59737,67,100,40
186.66681,188.26404,63,100,40
188.33348,188.57422,56,100,40
188.61127,188.852,66,100,40
188.88904,190.48627,65,100,40
190.55571,190.79645,57,100,40
190.83348,191.07423,66,100,40
191.11127,192.70848,65,100,40
192.77794,193.01868,58,100,40
193.05571,193.29645,68,100,40
193.33348,194.93071,67,100,40
195.00015,195.24089,59,100,40
195.27794,195.51868,68,100,40
195.55571,195.79645,67,100,40
198.05571,198.29645,67,100,40
198.3335,198.57423,67,100,40
198.61127,198.73164,64,100,40
198.75015,198.87053,66,100,40
198.88905,199.12979,67,100,40
199.16682,199.40756,67,100,40
199.44461,199.68535,67,100,40
199.72238,199.84276,64,100,40
199.86127,199.98164,66,100,40
200.00015,200.2409,67,100,40
200.27794,200.51868,60,100,40
200.55571,200.79646,59,100,40
200.8335,201.07423,60,100,40
201.11127,201.35202,59,100,40
201.38905,201.62979,60,100,40
201.66682,201.90756,59,100,40
201.94461,202.06497,58,100,40
202.0835,202.20387,61,100,40
202.22238,202.46312,60,100,40
202.50017,202.7409,58,100,40
202.77794,203.01868,56,100,40
203.05573,203.29646,58,100,40
203.3335,203.57423,58,100,40
203.61127,203.85202,58,100,40
203.88905,204.12979,58,100,40
204.16682,204.40758,59,100,40
204.44461,204.68535,60,100,40
205.00017,205.12053,67,100,40
205.13905,205.25943,72,100,40
205.27794,205.39832,75,100,40
205.41682,205.5372,79,100,40
205.55573,205.79646,77,100,40
205.8335,205.95387,77,100,40
205.97238,206.09276,79,100,40
206.11128,206.90758,77,100,40
206.94461,207.18535,75,100,40
207.22238,207.46313,74,100,40
207.50017,207.7409,72,100,40
207.77794,208.01869,70,100,40
208.05573,208.29646,69,100,40
208.3335,208.57423,67,100,40
208.61128,208.85202,66,100,40
208.88905,209.12979,67,100,40
209.16684,209.2872,69,100,40
209.30573,209.42609,66,100,40
209.44461,209.68535,67,100,40
209.7224,209.84276,69,100,40
209.86128,209.98164,66,100,40
210.00017,210.2409,67,100,40
210.27794,210.39832,69,100,40
210.41684,210.5372,66,100,40
210.55573,210.79646,67,100,40
210.8335,211.07425,64,100,40
211.11128,211.35202,65,100,40
211.38905,211.50943,67,100,40
211.52795,211.64832,64,100,40
211.66684,211.90758,65,100,40
211.94461,212.06499,67,100,40
212.0835,212.20387,64,100,40
212.2224,212.46313,65,100,40
212.50017,212.62054,67,100,40
212.63905,212.75943,64,100,40
212.77795,213.01869,65,100,40
213.05573,213.29646,62,100,40
213.33351,213.57425,63,100,40
213.61128,213.73166,65,100,40
213.75017,213.87054,62,100,40
213.88905,214.1298,63,100,40
214.16684,214.2872,65,100,40
214.30573,214.4261,62,100,40
214.44461,214.68536,63,100,40
214.7224,214.84276,65,100,40
214.86128,214.98166,62,100,40
215.00017,215.2409,63,100,40
215.27795,215.39832,70,100,40
215.41684,215.53722,68,100,40
215.55573,215.79646,67,100,40
215.83351,215.95387,68,100,40
215.9724,216.09276,65,100,40
216.11128,216.35202,67,100,40
216.38907,216.50943,68,100,40
216.52795,216.64832,67,100,40
216.66684,216.90758,65,100,40
216.94461,217.06499,67,100,40
217.08351,217.20387,63,100,40
217.2224,217.46313,65,100,40
217.50017,217.62054,67,100,40
217.63907,217.75943,63,100,40
217.77795,219.93073,61,100,40
220.00018,221.35204,59,100,40
221.38907,221.78722,67,100,40
221.80574,221.9261,66,100,40
221.94463,222.06499,64,100,40
222.08351,222.20389,66,100,40
222.2224,222.70851,67,100,40
222.77795,224.00945,79,100,40
224.02795,224.14833,78,100,40
224.16684,224.28722,76,100,40
224.30574,224.4261,78,100,40
224.44463,224.68536,79,100,40
224.7224,224.84277,71,100,40
224.8613,224.98166,69,100,40
225.00018,225.12054,67,100,40
225.13907,225.25945,66,100,40
225.27795,225.39833,64,100,40
225.41684,225.53722,66,100,40
225.55574,225.79648,67,100,40
225.83351,225.95389,71,100,40
225.9724,226.09277,69,100,40
226.1113,226.23166,67,100,40
226.25018,226.37054,66,100,40
226.38907,226.50945,64,100,40
226.52795,226.64833,66,100,40
226.66685,226.9076,67,100,40
226.94463,227.065,62,100,40
227.08351,227.20389,70,100,40
227.2224,227.46315,62,100,40
227.50018,227.62056,62,100,40
227.63907,227.75945,74,100,40
227.77795,228.0187,62,100,40
228.05574,228.1761,62,100,40
228.19463,228.315,74,100,40
228.33351,228.57426,62,100,40
228.6113,228.73166,62,100,40
228.75018,228.87056,63,100,40
228.88907,229.1298,65,100,40
229.16685,229.4076,77,100,40
229.44463,229.68536,65,100,40
229.72241,229.96315,77,100,40
230.00018,230.24092,65,100,40
230.27797,230.5187,77,100,40
230.55574,230.79648,65,100,40
231.38907,231.87518,65,100,40
231.94463,232.43074,65,100,40
232.50018,232.9863,65,100,40
233.05574,233.57426,65,100,40
233.6113,234.09741,66,100,40
234.16685,234.65297,66,100,40
234.72241,234.96315,67,100,40
235.00018,235.24094,63,100,40
235.27797,235.5187,62,100,40
235.55574,235.79648,63,100,40
235.83353,236.31964,63,100,40
236.38908,236.87518,63,100,40
236.94464,237.18538,62,100,40
237.22241,237.46315,60,100,40
237.50018,237.74094,58,100,40
237.77797,238.0187,60,100,40
238.05574,238.2965,58,100,40
238.33353,238.57426,57,100,40
238.6113,238.85204,66,100,40
238.88908,239.3752,65,100,40
240.27797,240.76408,57,100,40
240.83353,241.31964,60,100,40
241.38908,241.8752,58,100,40
241.94464,242.46315,62,100,40
242.5002,242.74094,59,100,40
242.77797,243.0187,60,100,40
243.05576,243.2965,62,100,40
243.33353,243.57426,60,100,40
243.61131,243.85205,58,100,40
243.88908,244.68538,70,100,40
244.72241,244.96317,69,100,40
245.0002,245.7965,72,100,40
245.83353,246.07426,70,100,40
246.11131,246.90761,77,100,40
246.94464,247.18538,75,100,40
247.22243,247.46317,74,100,40
247.5002,248.01872,72,100,40
248.05576,248.2965,70,100,40
248.61131,248.85205,65,100,40
248.88908,249.12982,66,100,40
249.16687,249.40761,65,100,40
249.44464,249.68538,69,100,40
249.72243,249.96317,65,100,40
250.0002,250.24094,72,100,40
250.27798,250.51872,65,100,40
250.83353,251.07428,65,100,40
251.11131,251.35205,66,100,40
251.38908,251.62984,65,100,40
251.66687,251.90761,69,100,40
251.94464,252.1854,65,100,40
252.22243,252.46317,75,100,40
252.5002,252.74094,65,100,40
253.05576,253.2965,65,100,40
253.33354,253.57428,72,100,40
253.61131,253.85205,65,100,40
254.16687,254.40761,65,100,40
254.44464,254.6854,75,100,40
254.72243,254.96317,65,100,40
255.27798,255.51872,65,100,40
255.55576,255.7965,75,100,40
255.83354,256.07428,66,100,40
256.3891,256.62982,66,100,40
256.66687,256.90762,75,100,40
256.94464,257.1854,66,100,40
257.5002,257.74094,74,100,40
257.77798,258.2641,72,100,40
258.33353,258.57428,69,100,40
258.61133,258.85205,72,100,40
258.8891,259.3752,71,100,40
259.44464,259.6854,67,100,40
259.72244,259.96317,71,100,40
260.0002,260.48633,69,100,40
260.55576,260.7965,66,100,40
260.83356,261.07428,69,100,40
261.11133,261.2317,67,100,40
261.2502,261.37057,69,100,40
261.3891,261.50946,69,100,40
261.52798,261.64835,71,100,40
261.66687,261.90762,71,100,40
261.94464,262.1854,74,100,40
262.22244,262.70856,72,100,40
262.77798,263.01874,69,100,40
263.05576,263.2965,72,100,40
263.33356,263.81964,71,100,40
263.8891,264.00946,71,100,40
264.02798,264.14835,74,100,40
264.16687,264.28726,79,100,40
264.30576,264.42615,83,100,40
264.44464,264.6854,81,100,40
264.72244,264.96317,80,100,40
265.0002,265.24097,81,100,40
265.27798,265.51874,83,100,40
265.55576,265.7965,81,100,40
265.83356,266.07428,79,100,40
266.11133,266.35205,81,100,40
266.3891,266.62985,83,100,40
266.66687,266.90762,81,100,40
266.94467,267.1854,80,100,40
267.22244,267.46317,81,100,40
267.5002,267.74097,83,100,40
267.77798,268.01874,81,100,40
268.05576,268.2965,80,100,40
268.33356,268.57428,81,100,40
268.61133,268.85208,83,100,40
268.8891,269.12985,84,100,40
269.16687,269.40762,82,100,40
269.44467,269.6854,81,100,40
269.72244,269.96317,82,100,40
270.0002,270.24097,84,100,40
270.27798,270.51874,82,100,40
270.5558,270.7965,81,100,40
270.83356,271.07428,82,100,40
271.11133,271.35208,78,100,40
271.3891,271.62985,77,100,40
271.66687,271.90762,81,100,40
271.94467,272.1854,77,100,40
272.22244,272.4632,82,100,40
272.5002,272.74097,77,100,40
273.0558,273.2965,77,100,40
273.33356,273.57428,75,100,40
273.61133,273.85208,74,100,40
273.8891,274.12985,75,100,40
274.1669,274.40762,77,100,40
274.44467,274.6854,75,100,40
274.72244,274.9632,74,100,40
275.27798,275.51874,77,100,40
275.5558,275.7965,78,100,40
275.83356,276.07428,77,100,40
276.11133,276.35208,80,100,40
276.3891,276.62985,77,100,40
276.6669,276.90762,82,100,40
276.94467,277.1854,77,100,40
277.5002,277.74097,77,100,40
277.778,278.01874,75,100,40
278.0558,278.2965,74,100,40
278.33356,278.5743,75,100,40
278.61133,278.85208,77,100,40
278.8891,279.12985,75,100,40
279.1669,279.40762,74,100,40
279.72244,279.9632,74,100,40
280.0002,280.24097,66,100,40
280.278,280.51874,64,100,40
280.5558,280.7965,66,100,40
280.83356,281.0743,67,100,40
281.11133,281.35208,66,100,40
281.3891,281.62985,64,100,40
281.94467,282.18542,66,100,40
282.22244,282.4632,67,100,40
282.5002,282.74097,66,100,40
282.778,283.01874,67,100,40
283.0558,283.2965,69,100,40
283.33356,283.5743,67,100,40
283.61133,283.85208,66,100,40
284.1669,284.28726,66,100,40
284.3058,284.42615,67,100,40
284.44467,284.68542,69,100,40
284.72244,284.9632,66,100,40
285.0002,285.24097,67,100,40
285.278,285.51874,69,100,40
285.5558,286.0419,71,100,40
286.11133,286.59744,69,100,40
286.6669,286.90762,67,100,40
286.94467,287.18542,64,100,40
287.22244,287.4632,66,100,40
287.50024,287.74097,67,100,40
287.778,288.26413,69,100,40
288.33356,288.81967,67,100,40
288.88913,289.12985,66,100,40
289.1669,289.40765,64,100,40
289.44467,289.68542,66,100,40
289.72244,289.9632,67,100,40
290.00024,290.24097,66,100,40
290.278,290.51874,64,100,40
290.83356,291.0743,64,100,40
291.11136,291.35208,65,100,40
291.38913,291.62985,64,100,40
291.6669,291.90765,65,100,40
291.94467,292.18542,67,100,40
292.22244,292.4632,65,100,40
292.50024,292.74097,64,100,40
293.0558,293.29654,64,100,40
293.33356,293.5743,64,100,40
293.61136,293.85208,62,100,40
294.1669,294.40765,62,100,40
294.44467,294.68542,62,100,40
294.72247,294.9632,61,100,40
295.278,295.51877,61,100,40
295.5558,295.79654,64,100,40
295.83356,296.0743,62,100,40
296.38913,296.62985,62,100,40
296.6669,296.90765,62,100,40
296.94467,297.18542,61,100,40
297.50024,297.74097,61,100,40
297.778,298.01877,62,100,40
298.0558,298.17618,62,100,40
298.19467,298.31506,61,100,40
298.33356,298.5743,62,100,40
298.61136,298.73172,62,100,40
298.75024,298.8706,61,100,40
298.88913,299.12988,62,100,40
299.1669,299.28726,62,100,40
299.3058,299.42618,61,100,40
299.44467,299.68542,62,100,40
299.72247,299.9632,62,100,40
300.5558,300.79654,62,100,40
300.5558,300.79654,56,100,40
302.22247,304.37524,63,100,40
304.4447,306.59747,63,100,40
307.22247,308.26413,71,100,40
308.3336,309.12988,76,100,40
309.4447,311.0419,72,100,40
311.11136,311.3521,71,100,40
311.66693,312.153,71,100,40
312.22247,312.7086,64,100,40
312.778,313.26413,76,100,40
313.3336,313.5743,76,100,40
313.88913,315.48636,72,100,40
315.55582,315.79654,71,100,40
315.8336,316.07434,64,100,40
316.11136,316.59747,64,100,40
316.66693,317.7086,67,100,40
317.77805,318.01877,71,100,40
318.05582,318.8197,64,100,40
318.88913,319.93082,67,100,40
320.00024,320.241,71,100,40
320.27805,321.04193,64,100,40
321.11136,322.15305,67,100,40
322.22247,322.46323,71,100,40
322.50024,323.26416,62,100,40
323.3336,324.37527,66,100,40
324.4447,324.68546,71,100,40
324.72247,325.48636,62,100,40
325.55582,326.59747,66,100,40
326.66693,326.90765,70,100,40
326.9447,327.7086,62,100,40
327.77805,328.8197,66,100,40
328.88916,329.12988,74,100,40
329.16693,329.93082,70,100,40
330.00027,330.241,77,100,40
330.27805,331.04193,74,100,40
331.1114,331.3521,75,100,40
331.38916,332.15305,70,100,40
332.22247,332.46323,79,100,40
332.50027,333.26416,76,100,40
333.3336,333.57434,77,100,40
333.6114,334.37527,72,100,40
334.4447,334.68546,80,100,40
334.7225,335.4864,77,100,40
335.55582,335.79657,78,100,40
335.8336,336.5975,70,100,40
336.66693,336.90768,72,100,40
336.9447,337.70862,78,100,40
337.77805,338.0188,77,100,40
338.05582,338.8197,73,100,40
338.88916,339.1299,71,100,40
339.16693,339.93082,74,100,40
340.00027,340.24103,70,100,40
340.27805,341.04193,73,100,40
341.1114,341.3521,72,100,40
341.38916,342.15305,68,100,40
342.2225,342.46323,65,100,40
342.50027,343.26416,68,100,40
343.33362,343.57434,65,100,40
343.6114,344.37527,68,100,40
344.44473,344.68546,65,100,40
344.7225,345.4864,68,100,40
345.55585,345.79657,65,100,40
345.83362,346.5975,68,100,40
346.66693,347.15305,65,100,40
351.1114,352.15305,69,100,40
351.1114,352.15305,64,100,40
352.2225,353.26416,69,100,40
352.2225,353.26416,64,100,40
353.33362,353.81973,69,100,40
353.33362,353.81973,64,100,40
353.88916,354.37527,64,100,40
353.88916,354.37527,61,100,40
354.44473,354.93085,64,100,40
354.44473,354.93085,61,100,40
355.00027,355.4864,69,100,40
355.00027,355.4864,61,100,40
355.55585,356.04196,69,100,40
355.55585,356.04196,61,100,40
356.1114,356.5975,73,100,40
356.1114,356.5975,69,100,40
356.66696,358.2642,71,100,40
358.33362,358.81973,69,100,40
358.8892,359.37527,68,100,40
359.44473,359.93085,66,100,40
360.00027,360.7642,68,100,40
360.83362,361.07437,69,100,40
361.1114,362.70862,68,100,40
362.77808,363.2642,69,100,40
363.33362,363.81973,71,100,40
363.8892,364.3753,73,100,40
364.44473,364.93085,69,100,40
371.66696,377.15308,57,100,40
377.22253,377.46326,60,100,40
377.5003,377.74103,58,100,40
377.77808,378.01883,57,100,40
378.33365,378.57437,69,100,40
378.33365,378.57437,65,100,40
378.8892,379.12994,73,100,40
379.16696,379.4077,74,100,40
379.44476,379.6855,75,100,40
379.72253,379.96326,76,100,40
380.0003,380.24106,77,100,40
380.27808,380.51883,69,100,40
380.55585,380.7966,71,100,40
380.83365,381.07437,72,100,40
381.11142,381.35214,73,100,40
381.3892,381.8753,74,100,40
381.94476,382.1855,73,100,40
382.22253,382.46326,74,100,40
382.77808,383.01883,69,100,40
382.77808,383.01883,65,100,40
383.33365,383.57437,69,100,40
383.61142,383.85217,70,100,40
383.8892,384.12994,71,100,40
384.16696,384.4077,73,100,40
384.44476,384.6855,74,100,40
384.72253,384.96326,65,100,40
385.0003,385.24106,67,100,40
385.27808,385.51883,68,100,40
385.55588,385.7966,69,100,40
385.83365,386.31976,70,100,40
386.3892,386.62994,69,100,40
386.66696,386.9077,72,100,40
386.94476,387.43088,65,100,40
387.5003,387.74106,65,100,40
387.77808,388.01883,69,100,40
388.05588,388.542,65,100,40
388.61142,388.85217,65,100,40
388.8892,389.12994,72,100,40
389.167,389.65308,65,100,40
389.72253,389.9633,65,100,40
390.0003,390.24106,69,100,40
390.27808,390.7642,65,100,40
390.83365,391.0744,65,100,40
391.11142,391.35217,75,100,40
391.3892,391.62994,73,100,40
391.667,391.9077,72,100,40
391.94476,392.1855,77,100,40
392.22253,392.4633,75,100,40
392.5003,392.74106,73,100,40
392.7781,393.01883,72,100,40
393.05588,393.2966,77,100,40
393.33365,393.5744,75,100,40
393.61142,393.85217,73,100,40
393.8892,394.12994,72,100,40
394.167,394.4077,77,100,40
394.44476,394.6855,75,100,40
394.72253,394.9633,73,100,40
395.0003,395.24106,72,100,40
395.2781,395.51883,77,100,40
395.55588,395.7966,75,100,40
396.38922,396.50958,69,100,40
396.5281,396.64847,66,100,40
396.667,396.78735,66,100,40
396.80588,396.92624,63,100,40
396.94476,397.06512,63,100,40
397.08365,397.204,60,100,40
397.22253,397.3429,60,100,40
397.36142,397.4818,57,100,40
397.5003,397.6207,57,100,40
397.63922,397.75958,62,100,40
397.7781,398.01883,62,100,40
398.61142,398.85217,67,100,40
398.88922,399.12994,71,100,40
399.167,399.4077,74,100,40
399.44476,400.24106,74,100,40
400.2781,400.51883,71,100,40
400.55588,400.79663,67,100,40
400.83365,401.0744,72,100,40
401.11142,401.35217,71,100,40
401.38922,401.62994,69,100,40
401.667,401.9077,62,100,40
401.94476,402.06512,64,100,40
402.08365,402.20404,66,100,40
402.22253,402.4633,67,100,40
403.05588,403.29663,67,100,40
403.33365,403.5744,71,100,40
403.61142,403.85217,74,100,40
403.88922,404.68552,74,100,40
404.72253,404.9633,71,100,40
405.00034,406.35217,67,100,40
406.38922,406.50958,67,100,40
406.5281,406.64847,66,100,40
406.667,406.90775,67,100,40
406.94476,407.06516,67,100,40
407.08365,407.20404,66,100,40
407.22253,408.5744,67,100,40
408.61145,408.7318,67,100,40
408.75034,408.8707,66,100,40
408.88922,409.12994,67,100,40
409.167,409.28735,67,100,40
409.30588,409.42624,66,100,40
409.44476,410.79663,67,100,40
410.83365,411.0744,69,100,40
411.11145,411.35217,70,100,40
411.38922,411.50958,70,100,40
411.5281,411.64847,69,100,40
411.667,413.01886,70,100,40
413.05588,413.17627,70,100,40
413.19476,413.31516,69,100,40
413.33368,413.5744,70,100,40
413.61145,413.7318,70,100,40
413.75034,413.8707,69,100,40
413.88922,415.24106,70,100,40
415.2781,415.39847,70,100,40
415.417,415.53738,69,100,40
415.55588,415.79663,70,100,40
415.83368,415.95404,70,100,40
415.97256,416.09293,69,100,40
416.11145,416.35217,70,100,40
416.38922,416.50958,70,100,40
416.5281,416.64847,69,100,40
416.667,416.90775,70,100,40
416.94476,417.06516,70,100,40
417.08368,417.20404,69,100,40
417.22256,417.4633,70,100,40
417.50034,417.6207,72,100,40
417.63922,417.75958,74,100,40
417.7781,418.01886,75,100,40
418.05588,418.17627,75,100,40
418.1948,418.31516,74,100,40
418.33368,418.5744,75,100,40
418.61145,418.7318,75,100,40
418.75034,418.8707,74,100,40
418.88922,419.12997,75,100,40
419.167,419.28738,75,100,40
419.30588,419.42627,74,100,40
419.4448,419.68552,75,100,40
419.72256,419.9633,79,100,40
420.00034,420.2411,79,100,40
420.00034,420.2411,71,100,40
420.00034,420.2411,62,100,40
420.2781,420.3985,67,100,40
420.417,420.53738,79,100,40
420.55588,420.79663,67,100,40
420.83368,420.95404,67,100,40
420.97256,421.09293,79,100,40
421.11145,421.3522,67,100,40
421.38922,421.50958,67,100,40
421.5281,421.6485,79,100,40
421.667,421.90775,67,100,40
421.9448,422.06516,67,100,40
422.08368,422.20404,69,100,40
422.22256,422.4633,70,100,40
422.7781,423.01886,70,100,40
423.0559,423.17627,70,100,40
423.1948,423.31516,69,100,40
423.33368,423.5744,70,100,40
423.88922,424.12997,70,100,40
424.167,424.40775,70,100,40
424.4448,424.68552,71,100,40
424.72256,424.96332,70,100,40
425.00034,425.2411,74,100,40
425.2781,425.51886,70,100,40
425.5559,425.79663,75,100,40
425.83368,426.0744,70,100,40
426.38922,426.62997,70,100,40
426.66702,426.90775,68,100,40
426.9448,427.18552,67,100,40
427.22256,427.46332,68,100,40
427.50034,427.7411,70,100,40
427.7781,428.01886,68,100,40
428.0559,428.29663,67,100,40
428.61145,428.8522,70,100,40
428.88922,429.12997,71,100,40
429.16702,429.40775,70,100,40
429.4448,429.68552,74,100,40
429.72256,429.96332,70,100,40
430.00034,430.2411,75,100,40
430.27814,430.51886,70,100,40
430.83368,431.07443,73,100,40
431.11145,431.3522,73,100,40
431.38922,431.62997,72,100,40
431.66702,431.90775,70,100,40
431.9448,432.18552,68,100,40
432.22256,432.46332,68,100,40
432.50034,432.7411,67,100,40
433.0559,433.29663,70,100,40
433.33368,433.57443,71,100,40
433.61145,433.8522,70,100,40
433.88922,434.12997,74,100,40
434.16702,434.40775,70,100,40
434.4448,434.68555,75,100,40
434.72256,434.96332,70,100,40
435.27814,435.79663,70,100,40
435.83368,436.07443,67,100,40
436.11145,436.3522,68,100,40
436.38925,436.62997,70,100,40
436.66702,436.90775,68,100,40
436.9448,437.18555,67,100,40
437.50034,437.7411,70,100,40
437.77814,438.01886,71,100,40
438.0559,438.29666,70,100,40
438.33368,438.57443,74,100,40
438.61145,438.8522,70,100,40
438.88925,439.12997,75,100,40
439.16702,439.40775,70,100,40
439.72256,440.2411,79,100,40
440.27814,440.51886,77,100,40
440.5559,440.79666,75,100,40
440.83368,441.07443,68,100,40
441.11145,441.3522,68,100,40
441.38925,441.62997,67,100,40
441.9448,442.18555,70,100,40
442.22256,442.46332,71,100,40
442.50037,442.7411,70,100,40
442.77814,443.01886,74,100,40
443.0559,443.29666,70,100,40
443.33368,443.57443,77,100,40
443.61148,443.8522,70,100,40
444.16702,444.40778,70,100,40
444.4448,444.68555,71,100,40
444.72256,444.96332,70,100,40
445.00037,445.2411,74,100,40
445.27814,445.51886,70,100,40
445.5559,445.79666,80,100,40
445.83368,446.07443,70,100,40
446.38925,446.62997,70,100,40
446.66702,446.90778,80,100,40
446.9448,447.18555,70,100,40
447.50037,447.7411,70,100,40
447.77814,448.0189,80,100,40
448.0559,448.29666,70,100,40
451.11148,451.5976,77,100,40
451.66702,451.90778,74,100,40
451.9448,452.0652,74,100,40
452.0837,452.20407,77,100,40
452.2226,452.7087,76,100,40
452.77814,453.0189,72,100,40
453.0559,453.1763,72,100,40
453.1948,453.3152,76,100,40
453.3337,453.8198,74,100,40
453.88925,454.13,71,100,40
454.16702,454.2874,71,100,40
454.3059,454.4263,74,100,40
454.4448,454.5652,72,100,40
454.5837,454.70407,74,100,40
454.7226,454.84296,74,100,40
454.86148,454.98184,76,100,40
455.00037,455.24112,76,100,40
455.27814,455.5189,79,100,40
455.5559,456.04202,77,100,40
456.11148,456.3522,74,100,40
456.38925,456.5096,74,100,40
456.52814,456.6485,77,100,40
456.66702,457.15314,76,100,40
457.2226,457.34296,64,100,40
457.36148,457.48184,67,100,40
457.50037,457.62073,72,100,40
457.63925,457.7596,76,100,40
457.77814,457.89853,76,100,40
457.91702,458.0374,74,100,40
458.0559,458.1763,74,100,40
458.19482,458.3152,73,100,40
458.3337,458.45407,73,100,40
458.4726,458.59296,74,100,40
458.61148,458.73184,74,100,40
458.75037,458.87073,76,100,40
458.88925,459.0096,76,100,40
459.02814,459.14853,74,100,40
459.16702,459.2874,74,100,40
459.3059,459.4263,73,100,40
459.44482,459.5652,73,100,40
459.5837,459.70407,74,100,40
459.7226,459.84296,74,100,40
459.86148,459.98184,76,100,40
460.00037,460.12073,76,100,40
460.13925,460.2596,74,100,40
460.27814,460.39853,74,100,40
460.41702,460.5374,73,100,40
460.55594,460.6763,73,100,40
460.69482,460.8152,74,100,40
460.8337,460.95407,74,100,40
460.9726,461.09296,76,100,40
461.11148,461.23184,76,100,40
461.25037,461.37073,74,100,40
461.38925,461.50964,74,100,40
461.52814,461.64853,73,100,40
461.66702,461.7874,73,100,40
461.80594,461.9263,74,100,40
461.94482,462.0652,74,100,40
462.0837,462.20407,76,100,40
462.2226,462.34296,77,100,40
462.36148,462.48184,75,100,40
462.50037,462.62073,75,100,40
462.63925,462.75964,74,100,40
462.77814,462.89853,74,100,40
462.91702,463.0374,75,100,40
463.05594,463.1763,75,100,40
463.19482,463.3152,77,100,40
463.3337,463.45407,77,100,40
463.4726,463.59296,75,100,40
463.61148,463.73184,75,100,40
463.75037,463.87073,74,100,40
463.88925,464.00964,74,100,40
464.02814,464.14853,75,100,40
464.16705,464.2874,75,100,40
464.30594,464.4263,77,100,40
464.44482,464.68555,77,100,40
464.7226,464.84296,77,100,40
464.86148,464.98184,76,100,40
465.00037,465.24112,77,100,40
465.27814,465.39853,77,100,40
465.41705,465.5374,79,100,40
465.55594,465.79666,75,100,40
465.8337,465.95407,75,100,40
465.9726,466.09296,74,100,40
466.11148,466.35223,75,100,40
466.38925,466.50964,75,100,40
466.52814,466.64853,77,100,40
466.66705,466.90778,74,100,40
466.94482,467.0652,74,100,40
467.0837,467.20407,73,100,40
467.2226,467.46335,74,100,40
467.50037,467.62076,74,100,40
467.63925,467.75964,75,100,40
467.77814,468.0189,74,100,40
468.05594,468.1763,72,100,40
468.19482,468.3152,71,100,40
468.3337,468.45407,72,100,40
468.4726,468.59296,74,100,40
468.61148,468.73184,75,100,40
468.75037,468.87076,79,100,40
468.88925,469.13,77,100,40
469.16705,469.2874,77,100,40
469.30594,469.4263,76,100,40
469.44482,469.68555,77,100,40
469.7226,469.84296,77,100,40
469.86148,469.98187,79,100,40
470.00037,470.24112,75,100,40
470.27817,470.39853,75,100,40
470.41705,470.5374,74,100,40
470.55594,470.79666,75,100,40
470.8337,470.95407,75,100,40
470.9726,471.09296,77,100,40
471.11148,471.35223,74,100,40
471.38925,471.50964,74,100,40
471.52817,471.64853,73,100,40
471.66705,471.90778,74,100,40
471.94482,472.0652,74,100,40
472.0837,472.20407,71,100,40
472.2226,472.46335,72,100,40
472.50037,472.62076,72,100,40
472.63928,472.75964,71,100,40
472.77817,473.0189,72,100,40
473.05594,473.1763,72,100,40
473.19482,473.3152,74,100,40
473.3337,473.57446,71,100,40
473.61148,473.85223,69,100,40
473.88928,474.13,71,100,40
474.16705,474.40778,72,100,40
474.44482,474.68558,71,100,40
474.7226,474.96335,69,100,40
475.27817,475.5189,71,100,40
475.55594,475.7967,72,100,40
475.8337,476.07446,71,100,40
476.11148,476.35223,72,100,40
476.38928,476.63,74,100,40
476.66705,476.90778,72,100,40
476.94482,477.18558,71,100,40
477.5004,477.62076,71,100,40
477.63928,477.75964,72,100,40
477.77817,478.0189,74,100,40
478.05594,478.2967,71,100,40
478.3337,478.57446,72,100,40
478.61148,478.85223,74,100,40
478.88928,479.3754,76,100,40
479.44482,479.93094,74,100,40
480.0004,480.24112,72,100,40
480.27817,480.5189,69,100,40
480.55594,480.7967,71,100,40
480.8337,481.07446,72,100,40
481.1115,481.5976,74,100,40
481.66705,482.15317,72,100,40
482.2226,482.46335,71,100,40
482.5004,482.74112,69,100,40
482.77817,483.0189,71,100,40
483.05594,483.2967,72,100,40
483.3337,483.57446,71,100,40
483.6115,483.85223,69,100,40
484.16705,484.4078,69,100,40
484.44482,484.68558,70,100,40
484.7226,484.96335,69,100,40
485.0004,485.24112,70,100,40
485.27817,485.51892,72,100,40
485.55594,485.7967,70,100,40
485.8337,486.07446,69,100,40
486.38928,486.63,69,100,40
486.66705,486.9078,69,100,40
486.94482,487.18558,67,100,40
487.5004,487.74112,67,100,40
487.77817,488.01892,67,100,40
488.05594,488.2967,66,100,40
488.6115,488.85223,66,100,40
488.88928,489.13004,69,100,40
489.16705,489.4078,67,100,40
489.72263,489.96335,67,100,40
490.0004,490.24112,67,100,40
490.27817,490.51892,66,100,40
490.83374,491.07446,66,100,40
491.04205,491.10223,67,100,40
491.1115,492.15317,62,100,40
492.22263,493.26428,64,100,40
493.33374,494.3754,62,100,40
494.44485,494.68558,63,100,40
494.72263,494.843,63,100,40
494.8615,494.98187,62,100,40
495.0004,495.24115,63,100,40
495.27817,495.39856,63,100,40
495.41705,495.53745,65,100,40
495.55594,496.04205,67,100,40
496.1115,496.35223,58,100,40
496.38928,496.63004,63,100,40
496.66705,496.9078,67,100,40
496.94485,497.18558,70,100,40
497.22263,498.01892,68,100,40
498.05597,498.2967,67,100,40
498.33374,498.57446,65,100,40
498.6115,498.85226,63,100,40
498.88928,499.13004,65,100,40
499.16705,499.28745,65,100,40
499.30597,499.42633,67,100,40
499.44485,499.93097,65,100,40
500.0004,500.4865,67,100,40
500.55597,500.7967,58,100,40
500.83374,501.07446,63,100,40
501.1115,501.35226,67,100,40
501.38928,501.63004,70,100,40
501.66705,502.46338,68,100,40
502.5004,502.74115,67,100,40
502.77817,503.01892,65,100,40
503.05597,503.2967,63,100,40
503.33374,503.57446,65,100,40
503.6115,503.73187,65,100,40
503.7504,503.8708,67,100,40
503.88928,504.3754,65,100,40
504.44485,504.68558,67,100,40
504.72263,504.843,67,100,40
504.8615,504.98187,68,100,40
505.0004,505.4865,67,100,40
505.55597,505.7967,65,100,40
505.83374,505.9541,65,100,40
505.97263,506.093,67,100,40
506.1115,506.59763,65,100,40
506.66708,506.9078,67,100,40
506.94485,507.06522,67,100,40
507.08374,507.2041,68,100,40
507.22263,507.70874,67,100,40
507.7782,508.01892,65,100,40
508.05597,508.17633,65,100,40
508.19485,508.31522,67,100,40
508.33374,508.81985,65,100,40
508.88928,509.13004,67,100,40
509.16708,509.28745,67,100,40
509.30597,509.42633,68,100,40
509.44485,509.93097,67,100,40
510.0004,511.04208,64,100,40
511.1115,511.35226,65,100,40
511.3893,511.50967,65,100,40
511.5282,511.64856,67,100,40
511.66708,512.1532,65,100,40
512.22266,513.2643,59,100,40
513.33374,513.57446,60,100,40
515.55597,516.04205,60,100,40
516.1115,516.2319,55,100,40
516.2504,516.3708,60,100,40
516.3893,516.50964,64,100,40
516.5282,516.64856,67,100,40
516.66705,516.90784,65,100,40
516.9449,517.06525,65,100,40
517.08374,517.2041,67,100,40
517.22266,517.70874,65,100,40
517.7782,518.2643,64,100,40
518.33374,518.57446,62,100,40
518.6115,518.8523,60,100,40
518.8893,519.13007,62,100,40
519.16705,519.40784,62,100,40
519.4449,519.6856,59,100,40
519.72266,519.9634,55,100,40
520.0004,520.4865,63,100,40
520.55597,520.7967,62,100,40
520.83374,521.07446,60,100,40
521.1115,521.3523,62,100,40
521.3893,521.63007,62,100,40
521.6671,521.90784,59,100,40
521.9449,522.1856,55,100,40
522.22266,522.70874,67,100,40
522.7782,523.0189,65,100,40
523.05597,523.2967,63,100,40
523.33374,523.8199,67,100,40
523.8893,524.13007,65,100,40
524.1671,524.40784,63,100,40
524.4449,524.93097,67,100,40
525.0004,525.24115,65,100,40
525.2782,525.5189,63,100,40
525.55597,526.0421,70,100,40
526.1115,526.3523,68,100,40
526.3893,526.63007,67,100,40
526.6671,527.1532,67,100,40
527.22266,527.4634,65,100,40
527.5004,527.74115,63,100,40
527.7782,528.0189,68,100,40
528.05597,528.2967,67,100,40
528.33374,528.5745,65,100,40
528.6115,528.8523,64,100,40
528.8893,529.3754,65,100,40
529.4449,529.6856,70,100,40
529.72266,529.9634,68,100,40
530.0004,530.24115,67,100,40
530.2782,530.5189,65,100,40
530.55597,530.7967,63,100,40
530.83374,531.0745,62,100,40
531.1115,531.3523,63,100,40
531.38934,531.63007,71,100,40
531.6671,531.90784,73,100,40
531.9449,532.1856,75,100,40
532.22266,532.4634,75,100,40
532.5004,532.74115,73,100,40
532.7782,533.0189,71,100,40
533.05597,533.29675,70,100,40
533.33374,533.8199,70,100,40
533.88934,534.13007,68,100,40
534.1671,534.40784,67,100,40
534.4449,534.6856,72,100,40
534.72266,534.9634,68,100,40
535.0004,535.24115,67,100,40
535.2782,535.5189,65,100,40
535.55597,537.70874,65,100,40
538.88934,539.93097,55,100,40
537.7782,539.93097,63,100,40
540.0004,542.70874,62,100,40
545.2782,545.79675,55,100,40
545.83374,546.59766,58,100,40
547.5004,548.019,55,100,40
548.05597,548.8199,58,100,40
548.88934,549.13007,58,100,40
549.4449,549.93097,55,100,40
550.0004,550.2412,58,100,40
550.2782,550.519,63,100,40
550.55597,551.3523,62,100,40
550.55597,551.3523,56,100,40
551.38934,551.63007,63,100,40
551.6671,551.90784,62,100,40
551.9449,552.1856,60,100,40
552.22266,552.4634,62,100,40
552.5004,552.6208,62,100,40
552.63934,552.7597,60,100,40
552.7782,553.26434,62,100,40
553.3338,553.5745,58,100,40
553.88934,554.3754,55,100,40
554.4449,554.6856,58,100,40
554.72266,554.9634,63,100,40
555.0004,555.79675,62,100,40
555.0004,555.79675,56,100,40
555.8338,556.0745,63,100,40
556.1116,556.3523,62,100,40
556.38934,556.63007,60,100,40
556.6671,556.90784,62,100,40
556.9449,557.06525,62,100,40
557.0838,557.20416,60,100,40
557.22266,557.7782,62,100,40
557.7782,558.019,63,100,40
558.3338,559.13007,63,100,40
559.1671,559.40784,67,100,40
559.4449,559.6856,70,100,40
559.72266,559.843,67,100,40
559.8616,559.98193,68,100,40
560.0004,560.2412,70,100,40
560.556,561.3523,63,100,40
561.38934,561.63007,67,100,40
561.6671,561.90784,70,100,40
561.9449,562.06525,67,100,40
562.0838,562.20416,68,100,40
562.22266,562.46344,70,100,40
562.7782,563.5745,63,100,40
563.6116,563.8523,67,100,40
563.88934,564.13007,70,100,40
564.1671,564.2875,67,100,40
564.306,564.4264,68,100,40
564.4449,564.6856,70,100,40
565.0004,565.79675,63,100,40
565.8338,566.0745,67,100,40
566.1116,566.3523,70,100,40
566.38934,566.5097,67,100,40
566.52826,566.6486,68,100,40
566.6671,566.90784,70,100,40
566.9449,567.06525,65,100,40
567.0838,567.20416,67,100,40
567.22266,568.019,68,100,40
568.056,568.1764,62,100,40
568.1949,568.31525,63,100,40
568.3338,569.13007,65,100,40
569.1671,569.2875,59,100,40
569.306,569.4264,60,100,40
569.4449,570.2412,62,100,40
570.27826,570.3986,56,100,40
570.4171,570.5375,58,100,40
570.556,572.15326,59,100,40
572.22266,572.7088,58,100,40
572.77826,573.26434,56,100,40
573.3338,575.4866,58,100,40
575.556,577.15326,56,100,40
577.22266,577.7088,62,100,40
577.77826,578.8199,63,100,40
577.77826,578.8199,55,100,40
578.88934,579.931,61,100,40
580.0005,581.0421,60,100,40
581.1116,582.15326,65,100,40
582.2227,583.26434,58,100,40
583.3338,584.3755,59,100,40
584.4449,585.4866,58,100,40
585.556,586.5977,59,100,40
586.6671,587.15326,58,100,40
589.44495,590.4866,70,100,40
591.6671,592.15326,63,100,40
593.3338,594.0097,63,100,40
594.02826,594.1486,62,100,40
594.1671,594.28754,63,100,40
594.306,594.4264,65,100,40
594.44495,596.5977,63,100,40
596.6671,597.7088,58,100,40
597.77826,599.931,58,100,40
0.555556,0.79629695,51,100,41
0.833334,1.074075,55,100,41
1.111112,1.3518529,58,100,41
1.38889,1.6296309,63,100,41
1.666668,2.462965,62,100,41
1.38889,2.462965,55,100,41
2.77778,3.0185208,51,100,41
3.055558,3.296299,55,100,41
3.333336,3.574077,58,100,41
3.611114,3.851855,63,100,41
3.888892,4.685189,62,100,41
3.611114,4.685189,55,100,41
5.000004,5.4861155,58,100,41
5.55556,6.0416713,55,100,41
6.111116,6.907413,53,100,41
6.94445,7.185191,55,100,41
7.222228,7.462969,56,100,41
7.500006,7.740747,55,100,41
7.777784,8.819451,56,100,41
8.888896,9.129637,55,100,41
9.444452,9.930564,58,100,41
10.000008,10.486119,55,100,41
10.555564,11.351861,53,100,41
11.388898,11.629639,55,100,41
11.666676,11.907417,56,100,41
11.944454,12.185195,55,100,41
12.222232,13.2639,56,100,41
13.333344,13.574085,55,100,41
13.8889,14.685197,55,100,41
13.8889,14.685197,51,100,41
15.000012,15.240753,67,100,41
15.27779,15.398161,63,100,41
15.416679,15.537049,65,100,41
15.555568,15.7963085,67,100,41
16.111124,16.907421,55,100,41
16.111124,16.907421,51,100,41
17.222237,17.462976,67,100,41
17.500013,17.620384,63,100,41
17.638903,17.759274,65,100,41
17.777792,18.018534,67,100,41
18.333347,19.129644,55,100,41
18.333347,19.129644,51,100,41
19.44446,19.685202,67,100,41
19.722239,19.84261,63,100,41
19.861128,19.981497,65,100,41
20.000015,20.240757,67,100,41
20.555573,21.35187,55,100,41
20.555573,21.35187,51,100,41
21.666683,21.907425,67,100,41
21.944462,22.064833,63,100,41
22.083351,22.203722,65,100,41
22.22224,22.46298,67,100,41
22.777796,23.018538,65,100,41
23.055574,23.175945,62,100,41
23.194464,23.314833,63,100,41
23.333351,23.574093,65,100,41
23.888908,24.129648,63,100,41
24.166685,24.287056,60,100,41
24.305574,24.425945,62,100,41
24.444464,24.685205,63,100,41
24.722242,24.842613,60,100,41
24.861132,24.9815,62,100,41
25.00002,25.24076,63,100,41
25.277798,25.398169,60,100,41
25.416687,25.537058,62,100,41
25.555576,25.796316,63,100,41
25.833355,25.953724,60,100,41
25.972242,26.092613,62,100,41
26.111132,26.351873,63,100,41
26.38891,26.62965,62,100,41
26.666689,28.018541,60,100,41
28.055578,28.296318,56,100,41
28.333357,28.574097,61,100,41
28.611134,28.731504,60,100,41
28.750023,28.870394,58,100,41
28.888912,29.93058,60,100,41
30.000025,30.486135,61,100,41
30.55558,30.796322,61,100,41
30.833359,30.953728,61,100,41
30.972246,31.092617,63,100,41
31.111135,32.46299,60,100,41
32.500027,32.74077,56,100,41
32.777805,33.018543,61,100,41
33.05558,33.175953,60,100,41
33.19447,33.314842,58,100,41
33.33336,34.375027,60,100,41
34.444473,34.930584,61,100,41
35.000027,35.24077,61,100,41
35.277805,35.39818,61,100,41
35.416695,35.537064,63,100,41
35.555584,36.319473,60,100,41
36.38892,36.50929,60,100,41
36.527805,36.64818,61,100,41
36.666695,37.430584,60,100,41
37.50003,37.6204,60,100,41
37.63892,37.75929,61,100,41
37.77781,38.5417,60,100,41
38.61114,38.731514,60,100,41
38.75003,38.870403,61,100,41
38.88892,39.65281,60,100,41
39.722256,39.842625,60,100,41
39.86114,39.981514,61,100,41
40.00003,40.76392,62,100,41
40.833366,40.953735,62,100,41
40.972256,41.092625,63,100,41
41.111145,41.875034,62,100,41
41.944477,42.06485,62,100,41
42.083366,42.20374,63,100,41
42.222256,42.986145,62,100,41
43.05559,43.17596,62,100,41
43.19448,43.31485,63,100,41
43.333366,44.097256,62,100,41
44.166702,44.28707,62,100,41
44.30559,44.42596,63,100,41
44.44448,44.56485,64,100,41
44.58337,44.70374,52,100,41
44.72226,44.84263,55,100,41
44.86115,44.981518,60,100,41
45.000034,45.240776,64,100,41
45.55559,46.907444,62,100,41
45.55559,46.907444,55,100,41
46.94448,47.185223,60,100,41
47.22226,47.463,62,100,41
47.50004,47.74078,62,100,41
47.777817,48.01856,62,100,41
48.055595,48.296333,64,100,41
48.33337,48.574112,59,100,41
48.61115,48.85189,60,100,41
48.888927,49.12967,59,100,41
49.166706,49.287075,54,100,41
49.305595,49.425964,57,100,41
49.444485,49.685226,55,100,41
49.722263,49.842632,54,100,41
49.861153,49.98152,57,100,41
50.00004,50.24078,55,100,41
50.277817,50.39819,54,100,41
50.416706,50.53708,57,100,41
50.555595,50.796337,55,100,41
50.833374,50.953743,55,100,41
50.972263,51.092632,58,100,41
51.111153,51.351894,56,100,41
51.38893,51.5093,52,100,41
51.52782,51.64819,55,100,41
51.66671,51.907448,56,100,41
51.944485,52.064857,56,100,41
52.083374,52.203747,53,100,41
52.222263,52.463005,55,100,41
52.500042,52.62041,50,100,41
52.63893,52.7593,53,100,41
52.77782,53.018562,55,100,41
53.0556,53.296337,53,100,41
53.333378,53.453747,51,100,41
53.472263,53.592636,55,100,41
53.611153,53.731525,60,100,41
53.750042,53.870415,63,100,41
53.88893,56.04171,67,100,41
56.111156,56.3519,65,100,41
56.388935,56.629677,63,100,41
56.666714,56.90745,62,100,41
56.94449,57.18523,60,100,41
57.222267,57.46301,58,100,41
57.500046,57.620415,57,100,41
57.638935,57.759304,60,100,41
57.777824,58.018566,58,100,41
58.055603,58.296345,60,100,41
58.33338,58.57412,58,100,41
58.611156,58.8519,60,100,41
58.888935,59.129677,58,100,41
59.166714,59.407455,60,100,41
59.444492,59.685234,58,100,41
59.72227,59.84264,58,100,41
59.86116,59.98153,55,100,41
60.00005,60.240788,56,100,41
60.277824,60.518566,58,100,41
60.555603,60.796345,56,100,41
60.83338,61.074123,58,100,41
61.11116,61.351902,56,100,41
61.38894,61.62968,58,100,41
61.666718,61.907455,56,100,41
61.944492,62.064865,56,100,41
62.08338,62.203754,53,100,41
62.22227,62.463013,55,100,41
62.50005,62.74079,56,100,41
62.77783,63.01857,55,100,41
63.055607,63.29635,56,100,41
63.333385,63.574123,55,100,41
63.61116,63.851902,56,100,41
63.88894,64.129684,55,100,41
64.16672,64.407455,53,100,41
64.444496,64.685234,51,100,41
64.722275,64.84264,50,100,41
64.86116,64.98154,53,100,41
65.00005,65.24079,51,100,41
65.27783,65.51857,48,100,41
65.55561,65.79635,49,100,41
65.83339,66.07413,48,100,41
66.11116,66.351906,49,100,41
66.38894,66.629684,51,100,41
66.66672,68.819496,56,100,41
66.66672,68.819496,53,100,41
68.88895,70.48617,55,100,41
70.55561,71.041725,57,100,41
71.38895,71.629684,55,100,41
71.666725,71.90746,50,100,41
71.9445,72.18524,59,100,41
72.22228,72.46302,55,100,41
72.50006,72.62043,55,100,41
72.63895,72.759315,62,100,41
72.77784,73.26395,60,100,41
73.33339,73.574135,59,100,41
73.61117,73.73154,59,100,41
73.75006,73.87043,62,100,41
73.88895,74.37506,60,100,41
74.4445,74.68524,59,100,41
74.72228,74.84265,59,100,41
74.86117,74.981544,62,100,41
75.00006,75.48617,60,100,41
75.55562,75.79636,59,100,41
75.8334,75.953766,50,100,41
75.97228,76.09265,62,100,41
76.111176,76.35191,50,100,41
76.38895,76.50932,50,100,41
76.52784,76.64821,62,100,41
76.666725,76.90747,50,100,41
76.9445,77.06487,50,100,41
77.0834,77.203766,62,100,41
77.22228,77.46303,50,100,41
77.50006,77.62043,50,100,41
77.638954,77.75932,51,100,41
77.77784,78.01858,53,100,41
78.05562,78.17599,53,100,41
78.1945,78.31488,65,100,41
78.3334,78.574135,53,100,41
78.611176,78.731544,53,100,41
78.75006,78.87043,65,100,41
78.888954,79.12969,53,100,41
79.16673,79.2871,53,100,41
79.30562,79.42599,65,100,41
79.44451,79.68525,53,100,41
80.00006,81.04173,63,100,41
81.111176,82.15285,62,100,41
82.22229,83.263954,60,100,41
83.3334,84.37507,58,100,41
84.44451,84.930626,57,100,41
85.00007,85.48618,53,100,41
85.555626,86.31951,65,100,41
86.38896,86.6297,62,100,41
86.66673,86.90748,57,100,41
86.94451,87.18526,55,100,41
87.22229,87.463036,53,100,41
87.50007,87.740814,51,100,41
87.77785,88.26396,50,100,41
88.61118,88.85192,65,100,41
88.88896,89.1297,66,100,41
89.16674,89.40748,65,100,41
89.44452,89.68526,69,100,41
89.7223,89.963036,65,100,41
90.00007,90.240814,70,100,41
90.27785,90.51859,65,100,41
90.833405,91.35193,65,100,41
91.38896,91.6297,62,100,41
91.66674,91.90748,63,100,41
91.94452,92.18526,65,100,41
92.2223,92.463036,63,100,41
92.50008,92.740814,62,100,41
93.05563,93.29637,65,100,41
93.333405,93.57415,67,100,41
93.61118,93.85193,65,100,41
93.88896,94.12971,69,100,41
94.16674,94.407486,65,100,41
94.44452,94.685265,70,100,41
94.7223,94.963036,65,100,41
95.277855,95.51859,74,100,41
95.55563,95.79637,74,100,41
95.83341,96.07415,72,100,41
96.11119,96.5973,70,100,41
96.66674,96.907486,69,100,41
96.94452,97.185265,70,100,41
97.2223,97.46304,58,100,41
98.61119,98.85193,53,100,41
98.88897,99.12971,54,100,41
99.16675,99.407486,53,100,41
99.44453,99.685265,57,100,41
99.722305,99.96304,53,100,41
100.00008,100.24082,60,100,41
100.277855,100.5186,53,100,41
100.83341,101.07416,53,100,41
101.11119,101.35194,54,100,41
101.38897,101.62971,53,100,41
101.66675,101.907486,57,100,41
101.94453,102.185265,53,100,41
102.222305,102.70841,63,100,41
102.77786,103.26397,53,100,41
103.33342,103.81953,63,100,41
103.88897,104.375084,53,100,41
104.44453,104.93064,63,100,41
105.000084,105.4862,54,100,41
105.55564,106.04175,63,100,41
106.1112,106.597305,54,100,41
106.666756,107.70842,66,100,41
107.77786,108.819534,67,100,41
108.88898,109.93064,72,100,41
110.00009,111.041756,71,100,41
111.1112,112.15287,66,100,41
112.22231,113.26398,67,100,41
113.33343,114.37509,62,100,41
114.444534,115.486206,63,100,41
115.55565,116.59731,64,100,41
116.66676,117.70843,65,100,41
118.05565,118.296394,53,100,41
118.33343,118.574165,65,100,41
118.611206,118.851944,53,100,41
119.16676,119.4075,53,100,41
119.44454,119.68528,65,100,41
119.72232,119.96306,65,100,41
120.0001,120.24084,66,100,41
120.27788,120.518616,65,100,41
120.55565,120.796394,69,100,41
120.83343,121.07417,65,100,41
121.111206,121.35195,70,100,41
121.388985,121.62973,65,100,41
121.94454,122.18528,65,100,41
122.22232,122.46306,63,100,41
122.5001,122.74084,62,100,41
122.77788,123.018616,63,100,41
123.05566,123.296394,65,100,41
123.333435,123.57417,63,100,41
123.61121,123.85195,62,100,41
124.16676,124.40751,65,100,41
124.44454,124.68529,66,100,41
124.72232,124.963066,65,100,41
125.0001,125.240845,69,100,41
125.27788,125.518616,65,100,41
125.55566,125.796394,70,100,41
125.833435,126.07417,65,100,41
126.38899,126.62973,65,100,41
126.66677,126.90751,63,100,41
126.94455,127.18529,62,100,41
127.22232,127.463066,63,100,41
127.5001,127.740845,65,100,41
127.77788,128.01862,63,100,41
128.05566,128.2964,62,100,41
128.61122,128.85196,62,100,41
128.88899,129.12973,62,100,41
129.16676,129.40752,61,100,41
129.44455,129.68529,62,100,41
129.72232,129.96307,64,100,41
130.0001,130.24084,62,100,41
130.27788,130.51862,61,100,41
130.83344,131.07417,62,100,41
131.11122,131.35196,64,100,41
131.38899,131.62973,63,100,41
131.66678,131.90752,64,100,41
131.94455,132.18529,66,100,41
132.22232,132.46307,64,100,41
132.5001,132.74084,62,100,41
133.05566,133.17603,62,100,41
133.19455,133.31493,64,100,41
133.33344,133.57419,66,100,41
133.61122,133.85196,62,100,41
133.88899,134.12973,64,100,41
134.16678,134.40752,66,100,41
134.44455,134.93066,67,100,41
135.0001,135.48622,66,100,41
135.55566,135.7964,64,100,41
135.83344,136.07419,61,100,41
136.11122,136.35196,62,100,41
136.38899,136.62975,64,100,41
136.66678,137.1529,66,100,41
137.22234,137.70845,64,100,41
137.7779,138.01863,62,100,41
138.05566,138.2964,61,100,41
138.33345,138.57419,62,100,41
138.61122,138.85196,64,100,41
138.889,139.12975,62,100,41
139.16678,139.40752,61,100,41
139.72234,139.96307,61,100,41
140.0001,140.24086,62,100,41
140.2779,140.51863,61,100,41
140.55566,140.7964,62,100,41
140.83345,141.07419,64,100,41
141.11122,141.35196,62,100,41
141.389,141.62975,61,100,41
141.94456,142.1853,58,100,41
141.94456,142.1853,55,100,41
142.22234,142.46307,58,100,41
142.22234,142.46307,55,100,41
142.5001,142.74086,57,100,41
142.5001,142.74086,54,100,41
143.05566,143.29642,57,100,41
143.05566,143.29642,54,100,41
143.33345,143.57419,57,100,41
143.33345,143.57419,54,100,41
143.61122,143.85197,58,100,41
143.61122,143.85197,55,100,41
144.16678,144.40752,58,100,41
144.16678,144.40752,55,100,41
144.44456,144.6853,58,100,41
144.44456,144.6853,55,100,41
144.72234,144.96307,57,100,41
144.72234,144.96307,53,100,41
145.2779,145.51863,57,100,41
145.2779,145.51863,53,100,41
145.55568,145.79642,57,100,41
145.55568,145.79642,53,100,41
145.83345,146.07419,58,100,41
145.83345,146.07419,55,100,41
146.389,146.62975,58,100,41
146.389,146.62975,55,100,41
146.66678,146.90753,57,100,41
146.66678,146.90753,53,100,41
147.22234,147.46307,50,100,41
147.50012,147.62048,50,100,41
147.639,147.75938,49,100,41
147.7779,148.01863,50,100,41
148.05568,148.17604,50,100,41
148.19456,148.31493,49,100,41
148.33345,148.57419,50,100,41
148.61124,148.85197,50,100,41
149.44456,149.6853,56,100,41
149.44456,149.6853,53,100,41
151.6668,151.90753,51,100,41
151.94456,152.1853,55,100,41
152.22235,152.46309,58,100,41
152.50012,152.74086,63,100,41
152.50012,153.264,55,100,41
153.33345,153.5742,55,100,41
152.7779,153.5742,62,100,41
153.889,154.12975,51,100,41
154.1668,154.40753,55,100,41
154.44456,154.6853,58,100,41
154.72235,154.96309,63,100,41
154.72235,155.48624,55,100,41
155.55568,155.79642,55,100,41
155.00012,155.79642,62,100,41
156.11124,156.59735,58,100,41
156.6668,157.15291,55,100,41
157.22235,158.01865,53,100,41
158.05568,158.29642,55,100,41
158.33347,158.5742,56,100,41
158.61124,158.85197,55,100,41
158.88902,159.93068,56,100,41
160.00012,160.24088,55,100,41
160.55568,161.0418,58,100,41
161.11124,161.59735,55,100,41
161.6668,162.46309,53,100,41
162.50014,162.74088,55,100,41
162.77791,163.01865,56,100,41
163.05568,163.29643,55,100,41
163.33347,164.37514,56,100,41
164.44458,164.68532,55,100,41
165.00014,165.79643,55,100,41
165.00014,165.79643,51,100,41
166.11124,166.35199,67,100,41
166.38902,166.5094,63,100,41
166.52791,166.64828,65,100,41
166.6668,166.90755,67,100,41
167.22235,168.01865,55,100,41
167.22235,168.01865,51,100,41
168.33347,168.5742,67,100,41
168.61125,168.73161,63,100,41
168.75014,168.8705,65,100,41
168.88902,169.12976,67,100,41
169.44458,170.24088,55,100,41
169.44458,170.24088,51,100,41
170.5557,170.79643,67,100,41
170.83347,170.95384,63,100,41
170.97237,171.09273,65,100,41
171.11125,171.35199,67,100,41
171.66681,172.4631,55,100,41
171.66681,172.4631,51,100,41
172.77792,173.01866,67,100,41
173.0557,173.17607,63,100,41
173.19458,173.31496,65,100,41
173.33347,173.57422,67,100,41
173.88902,174.12978,65,100,41
174.16681,174.28717,62,100,41
174.3057,174.42607,63,100,41
174.44458,174.68532,65,100,41
175.00014,175.24088,63,100,41
175.27792,175.39828,60,100,41
175.41681,175.53717,62,100,41
175.5557,175.79643,63,100,41
175.83348,175.95384,60,100,41
175.97237,176.09273,62,100,41
176.11125,176.35199,63,100,41
176.38902,176.5094,60,100,41
176.52792,176.64828,62,100,41
176.66681,176.90755,63,100,41
176.94458,177.06496,60,100,41
177.08348,177.20384,62,100,41
177.22237,177.4631,63,100,41
177.50014,177.74089,62,100,41
177.77792,179.12978,60,100,41
179.16681,179.40755,56,100,41
179.4446,179.68533,61,100,41
179.72237,179.84274,60,100,41
179.86125,179.98163,58,100,41
180.00014,181.04181,60,100,41
181.11125,181.59737,61,100,41
181.66681,181.90755,61,100,41
181.9446,182.06496,61,100,41
182.08348,182.20384,63,100,41
182.22237,183.57422,60,100,41
183.61125,183.852,56,100,41
183.88904,184.12978,61,100,41
184.16681,184.28719,60,100,41
184.30571,184.42607,58,100,41
184.4446,185.48627,60,100,41
185.55571,186.04181,61,100,41
186.11127,186.352,61,100,41
186.38904,186.50941,61,100,41
186.52792,186.6483,63,100,41
186.66681,187.43071,60,100,41
187.50015,187.62051,60,100,41
187.63904,187.75941,61,100,41
187.77792,188.54182,60,100,41
188.61127,188.73163,60,100,41
188.75015,188.87051,61,100,41
188.88904,189.65292,60,100,41
189.72238,189.84274,60,100,41
189.86127,189.98163,61,100,41
190.00015,190.76404,60,100,41
190.83348,190.95386,60,100,41
190.97238,191.09274,61,100,41
191.11127,191.87515,62,100,41
191.9446,192.06497,62,100,41
192.08348,192.20386,63,100,41
192.22238,192.98627,62,100,41
193.05571,193.17609,62,100,41
193.1946,193.31497,63,100,41
193.33348,194.09738,62,100,41
194.16682,194.28719,62,100,41
194.30571,194.42609,63,100,41
194.4446,195.2085,62,100,41
195.27794,195.3983,62,100,41
195.41682,195.5372,63,100,41
195.55571,195.67609,64,100,41
195.6946,195.81497,52,100,41
195.8335,195.95386,55,100,41
195.97238,196.09274,60,100,41
196.11127,196.352,64,100,41
196.66682,198.01868,62,100,41
196.66682,198.01868,55,100,41
198.05571,198.29645,60,100,41
198.3335,198.57423,62,100,41
198.61127,198.852,62,100,41
198.88905,199.12979,62,100,41
199.16682,199.40756,64,100,41
199.44461,199.68535,59,100,41
199.72238,199.96312,60,100,41
200.00015,200.2409,59,100,41
200.27794,200.39832,54,100,41
200.41682,200.5372,57,100,41
200.55571,200.79646,55,100,41
200.8335,200.95386,54,100,41
200.97238,201.09276,57,100,41
201.11127,201.35202,55,100,41
201.38905,201.50941,54,100,41
201.52794,201.64832,57,100,41
201.66682,201.90756,55,100,41
201.94461,202.06497,55,100,41
202.0835,202.20387,58,100,41
202.22238,202.46312,56,100,41
202.50017,202.62053,52,100,41
202.63905,202.75941,55,100,41
202.77794,203.01868,56,100,41
203.05573,203.17609,56,100,41
203.19461,203.31497,53,100,41
203.3335,203.57423,55,100,41
203.61127,203.73164,50,100,41
203.75017,203.87053,53,100,41
203.88905,204.12979,55,100,41
204.16682,204.40758,53,100,41
204.44461,204.56497,51,100,41
204.5835,204.70387,55,100,41
204.72238,204.84276,60,100,41
204.86128,204.98164,63,100,41
205.00017,207.15294,67,100,41
207.22238,207.46313,65,100,41
207.50017,207.7409,63,100,41
207.77794,208.01869,62,100,41
208.05573,208.29646,60,100,41
208.3335,208.57423,58,100,41
208.61128,208.73164,57,100,41
208.75017,208.87054,60,100,41
208.88905,209.12979,58,100,41
209.16684,209.40758,60,100,41
209.44461,209.68535,58,100,41
209.7224,209.96313,60,100,41
210.00017,210.2409,58,100,41
210.27794,210.51869,60,100,41
210.55573,210.79646,58,100,41
210.8335,210.95387,58,100,41
210.9724,211.09276,55,100,41
211.11128,211.35202,56,100,41
211.38905,211.6298,58,100,41
211.66684,211.90758,56,100,41
211.94461,212.18535,58,100,41
212.2224,212.46313,56,100,41
212.50017,212.7409,58,100,41
212.77795,213.01869,56,100,41
213.05573,213.1761,56,100,41
213.19461,213.31499,53,100,41
213.33351,213.57425,55,100,41
213.61128,213.85202,56,100,41
213.88905,214.1298,55,100,41
214.16684,214.40758,56,100,41
214.44461,214.68536,55,100,41
214.7224,214.96313,56,100,41
215.00017,215.2409,55,100,41
215.27795,215.51869,53,100,41
215.55573,215.79646,51,100,41
215.83351,215.95387,50,100,41
215.9724,216.09276,53,100,41
216.11128,216.35202,51,100,41
216.38907,216.6298,48,100,41
216.66684,216.90758,49,100,41
216.94461,217.18536,48,100,41
217.2224,217.46313,49,100,41
217.50017,217.74092,51,100,41
217.77795,219.93073,56,100,41
217.77795,219.93073,53,100,41
220.00018,221.5974,55,100,41
221.66684,222.15295,57,100,41
222.50018,222.74092,55,100,41
222.77795,223.01869,50,100,41
223.05574,223.29648,59,100,41
223.33351,223.57425,55,100,41
223.6113,223.73166,55,100,41
223.75018,223.87054,62,100,41
223.88907,224.37518,60,100,41
224.44463,224.68536,59,100,41
224.7224,224.84277,59,100,41
224.8613,224.98166,62,100,41
225.00018,225.4863,60,100,41
225.55574,225.79648,59,100,41
225.83351,225.95389,59,100,41
225.9724,226.09277,62,100,41
226.1113,226.5974,60,100,41
226.66685,226.9076,59,100,41
226.94463,227.065,50,100,41
227.08351,227.20389,62,100,41
227.2224,227.46315,50,100,41
227.50018,227.62056,50,100,41
227.63907,227.75945,62,100,41
227.77795,228.0187,50,100,41
228.05574,228.1761,50,100,41
228.19463,228.315,62,100,41
228.33351,228.57426,50,100,41
228.6113,228.73166,50,100,41
228.75018,228.87056,51,100,41
228.88907,229.1298,53,100,41
229.16685,229.28722,53,100,41
229.30574,229.42612,65,100,41
229.44463,229.68536,53,100,41
229.72241,229.84277,53,100,41
229.8613,229.98166,65,100,41
230.00018,230.24092,53,100,41
230.27797,230.39833,53,100,41
230.41685,230.53722,65,100,41
230.55574,230.79648,53,100,41
231.1113,232.15297,63,100,41
232.22241,233.26407,62,100,41
233.33353,234.37518,60,100,41
234.44463,235.4863,58,100,41
235.55574,236.04185,57,100,41
236.1113,236.59741,53,100,41
236.66685,237.43074,65,100,41
237.50018,237.74094,62,100,41
237.77797,238.0187,57,100,41
238.05574,238.2965,55,100,41
238.33353,238.57426,53,100,41
238.6113,238.85204,51,100,41
238.88908,239.3752,50,100,41
239.72241,239.96315,65,100,41
240.0002,240.24094,66,100,41
240.27797,240.5187,65,100,41
240.55576,240.7965,69,100,41
240.83353,241.07426,65,100,41
241.1113,241.35205,70,100,41
241.38908,241.62982,65,100,41
241.94464,242.46315,65,100,41
242.5002,242.74094,62,100,41
242.77797,243.0187,63,100,41
243.05576,243.2965,65,100,41
243.33353,243.57426,63,100,41
243.61131,243.85205,62,100,41
244.16685,244.40761,65,100,41
244.44464,244.68538,67,100,41
244.72241,244.96317,65,100,41
245.0002,245.24094,69,100,41
245.27797,245.51872,65,100,41
245.55576,245.7965,70,100,41
245.83353,246.07426,65,100,41
246.38908,246.62982,74,100,41
246.66687,246.90761,74,100,41
246.94464,247.18538,72,100,41
247.22243,247.70853,70,100,41
247.77797,248.01872,69,100,41
248.05576,248.2965,70,100,41
248.33353,248.57428,58,100,41
249.72243,249.96317,53,100,41
250.0002,250.24094,54,100,41
250.27798,250.51872,53,100,41
250.55576,250.7965,57,100,41
250.83353,251.07428,53,100,41
251.11131,251.35205,60,100,41
251.38908,251.62984,53,100,41
251.94464,252.1854,53,100,41
252.22243,252.46317,54,100,41
252.5002,252.74094,53,100,41
252.77798,253.01872,57,100,41
253.05576,253.2965,53,100,41
253.33354,253.81964,63,100,41
253.8891,254.3752,53,100,41
254.44464,254.93076,63,100,41
255.0002,255.48631,53,100,41
255.55576,256.04187,63,100,41
256.11133,256.59744,54,100,41
256.66687,257.15298,63,100,41
257.22244,257.70853,54,100,41
257.77798,258.81964,66,100,41
258.8891,259.93076,67,100,41
260.0002,261.04187,72,100,41
261.11133,262.15298,71,100,41
262.22244,263.2641,66,100,41
263.33356,264.3752,67,100,41
264.44464,265.48633,62,100,41
265.55576,266.59744,63,100,41
266.66687,267.70856,64,100,41
267.77798,268.81967,65,100,41
269.16687,269.40762,53,100,41
269.44467,269.6854,65,100,41
269.72244,269.96317,53,100,41
270.27798,270.51874,53,100,41
270.5558,270.7965,65,100,41
270.83356,271.07428,65,100,41
271.11133,271.35208,66,100,41
271.3891,271.62985,65,100,41
271.66687,271.90762,69,100,41
271.94467,272.1854,65,100,41
272.22244,272.4632,70,100,41
272.5002,272.74097,65,100,41
273.0558,273.2965,65,100,41
273.33356,273.57428,63,100,41
273.61133,273.85208,62,100,41
273.8891,274.12985,63,100,41
274.1669,274.40762,65,100,41
274.44467,274.6854,63,100,41
274.72244,274.9632,62,100,41
275.27798,275.51874,65,100,41
275.5558,275.7965,66,100,41
275.83356,276.07428,65,100,41
276.11133,276.35208,69,100,41
276.3891,276.62985,65,100,41
276.6669,276.90762,70,100,41
276.94467,277.1854,65,100,41
277.5002,277.74097,65,100,41
277.778,278.01874,63,100,41
278.0558,278.2965,62,100,41
278.33356,278.5743,63,100,41
278.61133,278.85208,65,100,41
278.8891,279.12985,63,100,41
279.1669,279.40762,62,100,41
279.72244,279.9632,62,100,41
280.0002,280.24097,62,100,41
280.278,280.51874,61,100,41
280.5558,280.7965,62,100,41
280.83356,281.0743,64,100,41
281.11133,281.35208,62,100,41
281.3891,281.62985,61,100,41
281.94467,282.18542,62,100,41
282.22244,282.4632,64,100,41
282.5002,282.74097,63,100,41
282.778,283.01874,64,100,41
283.0558,283.2965,66,100,41
283.33356,283.5743,64,100,41
283.61133,283.85208,62,100,41
284.1669,284.28726,62,100,41
284.3058,284.42615,64,100,41
284.44467,284.68542,66,100,41
284.72244,284.9632,62,100,41
285.0002,285.24097,64,100,41
285.278,285.51874,66,100,41
285.5558,286.0419,67,100,41
286.11133,286.59744,66,100,41
286.6669,286.90762,64,100,41
286.94467,287.18542,61,100,41
287.22244,287.4632,62,100,41
287.50024,287.74097,64,100,41
287.778,288.26413,66,100,41
288.33356,288.81967,64,100,41
288.88913,289.12985,62,100,41
289.1669,289.40765,61,100,41
289.44467,289.68542,62,100,41
289.72244,289.9632,64,100,41
290.00024,290.24097,62,100,41
290.278,290.51874,61,100,41
290.83356,291.0743,61,100,41
291.11136,291.35208,62,100,41
291.38913,291.62985,61,100,41
291.6669,291.90765,62,100,41
291.94467,292.18542,64,100,41
292.22244,292.4632,62,100,41
292.50024,292.74097,61,100,41
293.0558,293.29654,58,100,41
293.0558,293.29654,55,100,41
293.33356,293.5743,58,100,41
293.33356,293.5743,55,100,41
293.61136,293.85208,57,100,41
293.61136,293.85208,54,100,41
294.1669,294.40765,57,100,41
294.1669,294.40765,54,100,41
294.44467,294.68542,57,100,41
294.44467,294.68542,54,100,41
294.72247,294.9632,58,100,41
294.72247,294.9632,55,100,41
295.278,295.51877,58,100,41
295.278,295.51877,55,100,41
295.5558,295.79654,58,100,41
295.5558,295.79654,55,100,41
295.83356,296.0743,57,100,41
295.83356,296.0743,53,100,41
296.38913,296.62985,57,100,41
296.38913,296.62985,53,100,41
296.6669,296.90765,57,100,41
296.6669,296.90765,53,100,41
296.94467,297.18542,58,100,41
296.94467,297.18542,55,100,41
297.50024,297.74097,58,100,41
297.50024,297.74097,55,100,41
297.778,298.01877,57,100,41
297.778,298.01877,53,100,41
298.33356,298.5743,50,100,41
298.61136,298.73172,50,100,41
298.75024,298.8706,49,100,41
298.88913,299.12988,50,100,41
299.1669,299.28726,50,100,41
299.3058,299.42618,49,100,41
299.44467,299.68542,50,100,41
299.72247,299.9632,50,100,41
300.5558,300.79654,56,100,41
300.5558,300.79654,53,100,41
302.22247,302.4632,51,100,41
302.50024,302.6206,51,100,41
302.63913,302.7595,50,100,41
302.778,303.01877,51,100,41
303.0558,303.17618,51,100,41
303.1947,303.31506,50,100,41
303.3336,303.5743,51,100,41
303.61136,303.73172,51,100,41
303.75024,303.8706,50,100,41
303.88913,304.12988,51,100,41
304.1669,304.40765,51,100,41
305.00024,305.241,57,100,41
305.00024,305.241,54,100,41
307.22247,307.7086,64,100,41
307.778,308.26413,67,100,41
308.3336,309.12988,72,100,41
309.4447,311.0419,69,100,41
311.11136,311.3521,67,100,41
311.66693,311.90765,59,100,41
311.9447,312.18542,67,100,41
312.22247,312.46323,64,100,41
312.50024,312.741,71,100,41
312.778,313.26413,69,100,41
313.3336,313.5743,69,100,41
313.61136,313.8521,67,100,41
313.88913,314.12988,66,100,41
314.16693,314.40765,64,100,41
314.4447,314.68542,66,100,41
314.72247,314.84283,66,100,41
314.86136,314.98172,67,100,41
315.00024,315.48636,66,100,41
315.55582,315.79654,67,100,41
315.8336,316.07434,55,100,41
316.11136,316.59747,55,100,41
316.66693,316.90765,60,100,41
316.9447,317.7086,64,100,41
317.77805,318.01877,67,100,41
318.05582,318.8197,55,100,41
318.88913,319.12988,60,100,41
319.16693,319.93082,64,100,41
320.00024,320.241,67,100,41
320.27805,321.04193,55,100,41
321.11136,321.3521,60,100,41
321.38916,322.15305,64,100,41
322.22247,322.46323,67,100,41
322.50024,323.26416,59,100,41
323.3336,323.57434,57,100,41
323.61136,324.37527,60,100,41
324.4447,325.48636,59,100,41
325.55582,325.79657,57,100,41
325.8336,326.59747,60,100,41
326.66693,327.7086,58,100,41
327.77805,328.01877,57,100,41
328.05582,328.8197,60,100,41
328.88916,329.12988,58,100,41
329.16693,329.93082,62,100,41
330.00027,330.241,65,100,41
330.27805,331.04193,68,100,41
331.1114,331.3521,58,100,41
331.38916,332.15305,67,100,41
332.22247,332.46323,64,100,41
332.50027,333.26416,70,100,41
333.3336,333.57434,60,100,41
333.6114,334.37527,68,100,41
334.4447,334.68546,59,100,41
334.7225,335.4864,68,100,41
335.55582,335.79657,58,100,41
335.8336,336.07434,61,100,41
336.1114,336.3521,54,100,41
336.38916,336.6299,58,100,41
336.66693,336.90768,56,100,41
336.9447,337.0651,56,100,41
337.08362,337.20398,58,100,41
337.2225,337.70862,56,100,41
337.77805,338.0188,50,100,41
338.05582,338.29657,56,100,41
338.33362,338.57434,53,100,41
338.6114,338.8521,61,100,41
338.88916,339.1299,59,100,41
339.16693,339.28732,59,100,41
339.30582,339.4262,61,100,41
339.4447,339.93082,59,100,41
340.00027,340.24103,49,100,41
340.27805,340.5188,58,100,41
340.55582,340.79657,54,100,41
340.83362,341.07434,61,100,41
341.1114,341.3521,54,100,41
341.38916,341.50952,54,100,41
341.52805,341.6484,56,100,41
341.66693,342.15305,54,100,41
342.2225,342.9864,53,100,41
343.05582,343.1762,53,100,41
343.19473,343.3151,56,100,41
343.33362,344.0975,53,100,41
344.16693,344.28732,53,100,41
344.30582,344.4262,56,100,41
344.44473,344.68546,53,100,41
344.7225,344.84286,53,100,41
344.8614,344.98175,56,100,41
345.00027,345.24103,53,100,41
345.27805,345.39844,53,100,41
345.41693,345.53732,56,100,41
345.55585,345.79657,53,100,41
345.83362,345.95398,53,100,41
345.9725,346.09286,56,100,41
346.1114,346.35214,53,100,41
346.38916,346.50952,53,100,41
346.52805,346.64844,56,100,41
346.66693,347.15305,56,100,41
347.77805,348.0188,61,100,41
348.05585,348.1762,61,100,41
348.19473,348.3151,63,100,41
348.33362,348.57434,61,100,41
348.6114,348.73175,61,100,41
348.75027,348.87064,63,100,41
348.88916,349.37527,61,100,41
350.00027,350.4864,61,100,41
351.1114,352.15305,64,100,41
351.1114,352.15305,57,100,41
352.2225,353.26416,64,100,41
352.2225,353.26416,57,100,41
353.33362,353.81973,64,100,41
353.33362,353.81973,57,100,41
353.88916,354.37527,64,100,41
353.88916,354.37527,57,100,41
354.44473,354.93085,64,100,41
354.44473,354.93085,57,100,41
355.00027,355.4864,64,100,41
355.00027,355.4864,57,100,41
355.55585,356.04196,64,100,41
355.55585,356.04196,57,100,41
356.1114,356.5975,64,100,41
356.1114,356.5975,57,100,41
356.66696,358.2642,62,100,41
358.33362,358.81973,61,100,41
358.8892,359.37527,59,100,41
359.44473,359.93085,57,100,41
360.00027,360.7642,59,100,41
360.83362,361.07437,61,100,41
361.1114,362.70862,59,100,41
362.77808,363.2642,61,100,41
363.33362,363.81973,62,100,41
363.8892,364.3753,64,100,41
364.44473,365.4864,49,100,41
365.55585,366.5975,49,100,41
366.66696,367.15308,48,100,41
367.2225,367.70862,57,100,41
367.2225,367.70862,48,100,41
367.77808,368.2642,48,100,41
368.33362,368.81973,60,100,41
368.8892,369.3753,57,100,41
369.44473,369.93085,64,100,41
369.44473,369.93085,60,100,41
370.0003,371.59753,62,100,41
370.0003,371.59753,59,100,41
371.66696,372.15308,60,100,41
372.22253,372.70862,59,100,41
372.77808,373.2642,57,100,41
373.33362,374.09753,59,100,41
374.16696,374.4077,60,100,41
374.44473,376.04196,59,100,41
376.11142,376.59753,57,100,41
376.66696,377.15308,59,100,41
377.22253,377.46326,57,100,41
377.5003,377.74103,55,100,41
377.77808,377.89844,53,100,41
377.91696,378.03735,60,100,41
378.05585,378.17624,57,100,41
378.19473,378.31512,65,100,41
378.33365,378.57437,60,100,41
378.8892,379.3753,67,100,41
379.44476,379.93085,58,100,41
380.0003,380.24106,57,100,41
380.27808,380.51883,65,100,41
380.55585,381.04196,57,100,41
381.11142,381.59753,64,100,41
381.66696,382.15308,55,100,41
382.22253,382.3429,50,100,41
382.36142,382.48178,57,100,41
382.5003,382.62067,53,100,41
382.6392,382.75955,62,100,41
382.77808,383.01883,57,100,41
383.33365,383.81976,64,100,41
383.8892,384.3753,55,100,41
384.44476,384.6855,53,100,41
384.72253,384.96326,62,100,41
385.0003,385.48642,53,100,41
385.55588,385.7966,60,100,41
385.83365,386.07437,58,100,41
386.11142,386.35217,51,100,41
386.3892,386.62994,53,100,41
386.66696,386.9077,54,100,41
386.94476,387.1855,53,100,41
387.22253,387.4633,57,100,41
387.5003,387.74106,53,100,41
387.77808,388.01883,60,100,41
388.05588,388.2966,53,100,41
388.61142,388.85217,53,100,41
388.8892,389.12994,54,100,41
389.167,389.4077,53,100,41
389.44476,389.6855,57,100,41
389.72253,389.9633,53,100,41
390.0003,390.24106,60,100,41
390.27808,390.51883,57,100,41
390.55588,390.7966,63,100,41
390.83365,391.0744,60,100,41
391.11142,391.35217,60,100,41
391.3892,391.62994,58,100,41
391.667,391.9077,57,100,41
391.94476,392.1855,61,100,41
392.22253,392.4633,60,100,41
392.5003,392.74106,58,100,41
392.7781,393.01883,57,100,41
393.05588,393.2966,61,100,41
393.33365,393.5744,60,100,41
393.61142,393.85217,58,100,41
393.8892,394.12994,57,100,41
394.167,394.4077,61,100,41
394.44476,394.6855,60,100,41
394.72253,394.9633,58,100,41
395.0003,395.24106,57,100,41
395.2781,395.51883,61,100,41
395.55588,395.7966,60,100,41
396.667,396.9077,60,100,41
396.94476,397.06512,63,100,41
397.08365,397.204,60,100,41
397.22253,397.3429,60,100,41
397.36142,397.4818,57,100,41
397.5003,397.6207,57,100,41
397.63922,397.75958,62,100,41
397.7781,398.01883,59,100,41
398.88922,399.12994,55,100,41
399.167,399.4077,59,100,41
399.44476,399.68552,62,100,41
399.72253,399.9633,67,100,41
400.0003,400.24106,66,100,41
400.2781,400.51883,59,100,41
400.55588,400.79663,64,100,41
400.83365,400.954,64,100,41
400.97253,401.09293,66,100,41
401.11142,401.35217,67,100,41
401.38922,401.50958,64,100,41
401.5281,401.64847,66,100,41
401.667,401.9077,67,100,41
401.94476,402.18552,60,100,41
402.22253,402.4633,59,100,41
403.33365,403.5744,55,100,41
403.61142,403.85217,59,100,41
403.88922,404.12994,62,100,41
404.167,404.40775,67,100,41
404.44476,404.68552,66,100,41
404.72253,404.9633,59,100,41
405.00034,405.24106,64,100,41
405.2781,405.51883,60,100,41
405.55588,405.79663,59,100,41
405.83365,406.0744,55,100,41
406.11145,406.35217,59,100,41
406.38922,406.62994,64,100,41
406.667,406.90775,62,100,41
406.94476,407.18552,59,100,41
407.22253,407.4633,55,100,41
407.50034,407.74106,60,100,41
407.7781,408.01886,58,100,41
408.05588,408.29663,55,100,41
408.33365,408.5744,58,100,41
408.61145,408.85217,63,100,41
408.88922,409.12994,62,100,41
409.167,409.40775,58,100,41
409.44476,409.68552,55,100,41
409.72256,409.9633,60,100,41
410.00034,410.24106,58,100,41
410.2781,410.51886,55,100,41
410.55588,410.79663,58,100,41
410.83365,411.0744,60,100,41
411.11145,411.35217,62,100,41
411.38922,411.62994,58,100,41
411.667,411.90775,53,100,41
411.94476,412.18552,67,100,41
412.22256,412.4633,65,100,41
412.50034,412.74106,62,100,41
412.7781,413.01886,58,100,41
413.05588,413.29663,63,100,41
413.33368,413.5744,62,100,41
413.61145,413.85217,58,100,41
413.88922,414.12997,53,100,41
414.167,414.40775,67,100,41
414.44476,414.68552,65,100,41
414.72256,414.9633,62,100,41
415.00034,415.24106,58,100,41
415.2781,415.51886,67,100,41
415.55588,415.79663,63,100,41
415.83368,416.0744,62,100,41
416.11145,416.35217,58,100,41
416.38922,416.62997,67,100,41
416.667,416.90775,63,100,41
416.94476,417.18552,62,100,41
417.22256,417.4633,58,100,41
417.50034,417.6207,60,100,41
417.63922,417.75958,62,100,41
417.7781,418.01886,63,100,41
418.05588,418.17627,63,100,41
418.1948,418.31516,62,100,41
418.33368,418.5744,63,100,41
418.61145,418.85217,68,100,41
418.88922,419.12997,67,100,41
419.167,419.40775,63,100,41
419.4448,419.68552,58,100,41
419.72256,419.84293,63,100,41
419.86145,419.9818,65,100,41
420.00034,420.2411,67,100,41
420.00034,420.2411,55,100,41
420.55588,420.79663,55,100,41
420.83368,420.95404,55,100,41
420.97256,421.09293,54,100,41
421.11145,421.3522,55,100,41
421.667,421.90775,55,100,41
421.9448,422.06516,55,100,41
422.08368,422.20404,57,100,41
422.22256,422.4633,58,100,41
422.50034,422.6207,58,100,41
422.63922,422.75958,57,100,41
422.7781,423.01886,58,100,41
423.33368,423.5744,58,100,41
423.61145,423.7318,58,100,41
423.75034,423.8707,57,100,41
423.88922,424.12997,58,100,41
424.4448,424.68552,56,100,41
424.72256,424.84293,56,100,41
424.86145,424.9818,58,100,41
425.00034,425.2411,56,100,41
425.2781,425.3985,56,100,41
425.417,425.53738,58,100,41
425.5559,425.79663,55,100,41
425.83368,425.95404,55,100,41
425.97256,426.09293,58,100,41
426.11145,426.3522,55,100,41
426.38922,426.5096,55,100,41
426.5281,426.6485,58,100,41
426.66702,426.90775,53,100,41
426.9448,427.06516,53,100,41
427.08368,427.20404,56,100,41
427.22256,427.46332,53,100,41
427.50034,427.62073,53,100,41
427.63922,427.7596,56,100,41
427.7781,428.01886,53,100,41
428.0559,428.17627,51,100,41
428.1948,428.31516,50,100,41
428.33368,428.5744,51,100,41
428.61145,428.7318,55,100,41
428.75034,428.87073,58,100,41
428.88922,429.12997,50,100,41
429.16702,429.28738,50,100,41
429.3059,429.42627,53,100,41
429.4448,429.68552,50,100,41
429.72256,429.84293,50,100,41
429.86145,429.9818,53,100,41
430.00034,430.2411,51,100,41
430.27814,430.3985,51,100,41
430.41702,430.53738,55,100,41
430.5559,430.79663,51,100,41
430.83368,430.95404,51,100,41
430.97256,431.09293,55,100,41
431.11145,431.3522,52,100,41
431.38922,431.5096,53,100,41
431.52814,431.6485,56,100,41
431.66702,431.90775,58,100,41
431.9448,432.06516,60,100,41
432.08368,432.20404,62,100,41
432.22256,432.46332,62,100,41
432.50034,432.7411,63,100,41
433.61145,434.09756,62,100,41
434.16702,434.65314,65,100,41
434.72256,435.20868,63,100,41
435.27814,435.79663,67,100,41
435.83368,436.07443,64,100,41
436.11145,436.3522,65,100,41
436.38925,436.62997,67,100,41
436.66702,436.90775,65,100,41
436.9448,437.18555,63,100,41
437.22256,437.46332,75,100,41
443.0559,443.29666,58,100,41
443.33368,443.57443,59,100,41
443.61148,443.8522,58,100,41
443.88925,444.12997,62,100,41
444.16702,444.40778,58,100,41
444.4448,444.68555,65,100,41
444.72256,444.96332,58,100,41
445.27814,445.51886,58,100,41
445.5559,445.79666,59,100,41
445.83368,446.07443,58,100,41
446.11148,446.3522,62,100,41
446.38925,446.62997,58,100,41
446.66702,447.15314,68,100,41
447.2226,447.70868,58,100,41
447.77814,448.26425,68,100,41
448.33368,448.8198,58,100,41
448.88925,449.37537,68,100,41
449.4448,449.9309,59,100,41
450.00037,450.48648,68,100,41
450.5559,451.04202,59,100,41
451.11148,451.23184,55,100,41
451.25037,451.37073,56,100,41
451.38925,451.5096,56,100,41
451.52814,451.6485,55,100,41
451.66702,451.78738,55,100,41
451.8059,451.9263,59,100,41
451.9448,452.0652,59,100,41
452.0837,452.20407,55,100,41
452.2226,452.34296,55,100,41
452.36148,452.48184,60,100,41
452.50037,452.62073,60,100,41
452.63925,452.7596,55,100,41
453.0559,453.29666,55,100,41
453.3337,453.45407,55,100,41
453.4726,453.59296,53,100,41
453.61148,453.73184,53,100,41
453.75037,453.87073,52,100,41
453.88925,454.0096,52,100,41
454.02814,454.1485,53,100,41
454.16702,454.2874,53,100,41
454.3059,454.4263,55,100,41
454.4448,454.5652,55,100,41
454.5837,454.70407,53,100,41
454.7226,454.84296,53,100,41
454.86148,454.98184,52,100,41
455.27814,455.5189,55,100,41
455.5559,455.6763,55,100,41
455.69482,455.8152,56,100,41
455.8337,455.95407,56,100,41
455.9726,456.09296,55,100,41
456.11148,456.23184,55,100,41
456.25037,456.37073,59,100,41
456.38925,456.5096,59,100,41
456.52814,456.6485,55,100,41
456.66702,456.7874,55,100,41
456.8059,456.9263,60,100,41
456.94482,457.0652,60,100,41
457.0837,457.20407,55,100,41
457.2226,457.34296,60,100,41
457.36148,457.48184,55,100,41
457.50037,457.62073,52,100,41
457.63925,457.7596,48,100,41
458.0559,458.29666,50,100,41
458.61148,458.85223,53,100,41
458.3337,458.85223,59,100,41
459.16702,459.40778,50,100,41
459.7226,459.96332,53,100,41
459.44482,459.96332,59,100,41
460.27814,460.5189,53,100,41
460.8337,461.07443,57,100,41
460.55594,461.07443,62,100,41
461.38925,461.63,53,100,41
461.94482,462.18555,56,100,41
461.66702,462.18555,62,100,41
462.50037,462.74112,53,100,41
462.77814,463.0189,62,100,41
463.05594,463.29666,56,100,41
463.61148,463.85223,53,100,41
463.88925,464.13,62,100,41
464.16705,464.40778,56,100,41
464.44482,464.68555,60,100,41
464.7226,464.96335,58,100,41
465.00037,465.24112,62,100,41
465.27814,465.5189,58,100,41
465.55594,465.79666,63,100,41
465.8337,466.07443,58,100,41
466.38925,466.63,58,100,41
466.66705,466.90778,56,100,41
466.94482,467.18555,55,100,41
467.2226,467.46335,56,100,41
467.50037,467.74112,58,100,41
467.77814,468.0189,56,100,41
468.05594,468.29666,55,100,41
468.61148,468.85223,58,100,41
468.88925,469.13,59,100,41
469.16705,469.40778,58,100,41
469.44482,469.68555,62,100,41
469.7226,469.96335,58,100,41
470.00037,470.24112,63,100,41
470.27817,470.5189,58,100,41
470.8337,471.07446,58,100,41
471.11148,471.35223,56,100,41
471.38925,471.63,55,100,41
471.66705,471.90778,56,100,41
471.94482,472.18558,58,100,41
472.2226,472.46335,56,100,41
472.50037,472.74112,55,100,41
473.05594,473.29666,55,100,41
473.3337,473.57446,67,100,41
473.61148,473.85223,66,100,41
473.88928,474.13,67,100,41
474.16705,474.40778,69,100,41
474.44482,474.68558,67,100,41
474.7226,474.96335,66,100,41
475.27817,475.5189,67,100,41
475.55594,475.7967,69,100,41
475.8337,476.07446,68,100,41
476.11148,476.35223,69,100,41
476.38928,476.63,71,100,41
476.66705,476.90778,69,100,41
476.94482,477.18558,67,100,41
477.5004,477.62076,67,100,41
477.63928,477.75964,69,100,41
477.77817,478.0189,71,100,41
478.05594,478.2967,67,100,41
478.3337,478.57446,69,100,41
478.61148,478.85223,71,100,41
478.88928,479.3754,72,100,41
479.44482,479.93094,71,100,41
480.0004,480.24112,69,100,41
480.27817,480.5189,66,100,41
480.55594,480.7967,67,100,41
480.8337,481.07446,69,100,41
481.1115,481.5976,71,100,41
481.66705,482.15317,69,100,41
482.2226,482.46335,67,100,41
482.5004,482.74112,66,100,41
482.77817,483.0189,67,100,41
483.05594,483.2967,69,100,41
483.3337,483.57446,67,100,41
483.6115,483.85223,66,100,41
484.16705,484.4078,66,100,41
484.44482,484.68558,67,100,41
484.7226,484.96335,66,100,41
485.0004,485.24112,67,100,41
485.27817,485.51892,69,100,41
485.55594,485.7967,67,100,41
485.8337,486.07446,66,100,41
486.38928,486.63,63,100,41
486.38928,486.63,60,100,41
486.66705,486.9078,63,100,41
486.66705,486.9078,60,100,41
486.94482,487.18558,62,100,41
486.94482,487.18558,59,100,41
487.5004,487.74112,62,100,41
487.5004,487.74112,59,100,41
487.77817,488.01892,62,100,41
487.77817,488.01892,59,100,41
488.05594,488.2967,63,100,41
488.05594,488.2967,60,100,41
488.6115,488.85223,63,100,41
488.6115,488.85223,60,100,41
488.88928,489.13004,63,100,41
488.88928,489.13004,60,100,41
489.16705,489.4078,62,100,41
489.16705,489.4078,58,100,41
489.72263,489.96335,62,100,41
489.72263,489.96335,58,100,41
490.0004,490.24112,62,100,41
490.0004,490.24112,58,100,41
490.27817,490.51892,63,100,41
490.27817,490.51892,60,100,41
490.83374,491.07446,63,100,41
490.83374,491.07446,60,100,41
491.1115,491.35223,62,100,41
491.1115,491.35223,58,100,41
491.38928,491.50964,58,100,41
491.52817,491.64853,57,100,41
491.66705,491.9078,58,100,41
491.94482,492.06522,58,100,41
492.08374,492.2041,57,100,41
492.22263,492.46335,58,100,41
492.5004,492.62076,58,100,41
492.63928,492.75964,57,100,41
492.77817,493.01892,58,100,41
493.05594,493.17633,58,100,41
493.19482,493.31522,57,100,41
493.33374,493.57446,58,100,41
493.6115,493.73187,58,100,41
493.7504,493.87076,57,100,41
493.88928,494.13004,58,100,41
494.16705,494.28745,58,100,41
494.30594,494.42633,59,100,41
494.44485,494.68558,60,100,41
494.72263,494.96335,58,100,41
495.0004,495.4865,57,100,41
495.55594,496.04205,58,100,41
496.1115,497.15317,55,100,41
497.22263,498.01892,53,100,41
498.05597,498.2967,51,100,41
498.33374,498.57446,56,100,41
498.6115,498.85226,55,100,41
498.88928,499.13004,62,100,41
498.88928,499.13004,56,100,41
499.16705,499.28745,62,100,41
499.16705,499.28745,56,100,41
499.30597,499.42633,60,100,41
499.44485,499.93097,62,100,41
499.44485,499.93097,56,100,41
500.0004,500.4865,58,100,41
500.55597,501.59763,55,100,41
501.66705,502.46338,53,100,41
502.5004,502.74115,55,100,41
502.77817,503.01892,56,100,41
503.05597,503.2967,55,100,41
503.33374,503.57446,62,100,41
503.33374,503.57446,56,100,41
503.6115,503.73187,62,100,41
503.6115,503.73187,56,100,41
503.7504,503.8708,60,100,41
503.88928,504.3754,62,100,41
503.88928,504.3754,56,100,41
504.44485,504.68558,63,100,41
504.44485,504.68558,58,100,41
504.72263,504.843,63,100,41
504.72263,504.843,58,100,41
504.8615,504.98187,65,100,41
505.0004,505.4865,63,100,41
505.0004,505.4865,58,100,41
505.55597,505.7967,62,100,41
505.55597,505.7967,56,100,41
505.83374,505.9541,62,100,41
505.83374,505.9541,56,100,41
505.97263,506.093,60,100,41
506.1115,506.59763,62,100,41
506.1115,506.59763,56,100,41
506.66708,506.9078,63,100,41
506.66708,506.9078,55,100,41
506.94485,507.06522,63,100,41
506.94485,507.06522,58,100,41
507.08374,507.2041,65,100,41
507.22263,507.70874,63,100,41
507.22263,507.70874,58,100,41
507.7782,508.01892,62,100,41
507.7782,508.01892,56,100,41
508.05597,508.17633,62,100,41
508.05597,508.17633,56,100,41
508.19485,508.31522,60,100,41
508.33374,508.81985,62,100,41
508.33374,508.81985,56,100,41
508.88928,509.13004,51,100,41
509.16708,509.4078,55,100,41
509.44485,509.6856,58,100,41
509.72263,509.96338,63,100,41
510.0004,512.1532,61,100,41
512.22266,513.2643,56,100,41
512.22266,513.2643,53,100,41
513.6115,514.09766,55,100,41
513.6115,514.09766,52,100,41
514.16705,514.40784,55,100,41
514.16705,514.40784,52,100,41
514.72266,515.20874,55,100,41
514.72266,515.20874,53,100,41
515.2782,515.5189,55,100,41
515.2782,515.5189,53,100,41
515.83374,516.3199,55,100,41
515.83374,516.3199,52,100,41
516.3893,516.63007,55,100,41
516.3893,516.63007,52,100,41
516.9449,517.43097,55,100,41
516.9449,517.43097,53,100,41
517.5004,517.74115,55,100,41
517.5004,517.74115,53,100,41
518.05597,518.54205,55,100,41
518.05597,518.54205,52,100,41
518.6115,518.8523,55,100,41
518.6115,518.8523,52,100,41
519.16705,519.6532,55,100,41
519.16705,519.6532,53,100,41
519.72266,519.9634,55,100,41
519.72266,519.9634,53,100,41
520.2782,520.7643,55,100,41
520.2782,520.7643,51,100,41
520.83374,521.07446,55,100,41
520.83374,521.07446,51,100,41
521.3893,521.8754,55,100,41
521.3893,521.8754,53,100,41
521.9449,522.1856,55,100,41
521.9449,522.1856,53,100,41
522.5004,522.9865,55,100,41
522.5004,522.9865,51,100,41
523.05597,523.2967,55,100,41
523.05597,523.2967,51,100,41
523.6115,524.09766,55,100,41
523.6115,524.09766,51,100,41
524.1671,524.40784,55,100,41
524.1671,524.40784,51,100,41
524.72266,525.20874,55,100,41
524.72266,525.20874,51,100,41
525.2782,525.5189,55,100,41
525.2782,525.5189,51,100,41
525.83374,526.3199,55,100,41
525.83374,526.3199,51,100,41
526.3893,526.63007,55,100,41
526.3893,526.63007,51,100,41
526.6671,526.90784,51,100,41
526.9449,527.06525,51,100,41
527.08374,527.2041,53,100,41
527.22266,527.70874,51,100,41
527.7782,528.0189,48,100,41
528.05597,528.17633,48,100,41
528.1949,528.31525,49,100,41
528.33374,529.13007,48,100,41
529.1671,529.2875,48,100,41
529.30597,529.42633,50,100,41
529.4449,529.6856,52,100,41
529.72266,529.9634,53,100,41
530.0004,530.24115,50,100,41
530.2782,530.39856,51,100,41
530.4171,530.5375,53,100,41
530.55597,530.7967,55,100,41
530.83374,531.0745,56,100,41
531.1115,531.3523,54,100,41
531.38934,531.5097,54,100,41
531.5282,531.64856,56,100,41
531.6671,532.4634,54,100,41
532.5004,532.6208,54,100,41
532.63934,532.7597,56,100,41
532.7782,533.0189,54,100,41
533.05597,533.29675,52,100,41
533.6115,533.73193,51,100,41
533.7504,533.8708,53,100,41
533.88934,534.6856,51,100,41
534.72266,534.843,51,100,41
534.8615,534.98193,53,100,41
535.0004,535.24115,55,100,41
535.2782,535.5189,56,100,41
535.55597,537.70874,56,100,41
537.7782,538.8199,57,100,41
538.88934,539.93097,58,100,41
540.0004,542.22266,55,100,41
542.22266,542.70874,56,100,41
540.0004,542.70874,53,100,41
545.0004,545.24115,51,100,41
545.2782,545.519,55,100,41
545.55597,545.79675,58,100,41
545.83374,546.0745,63,100,41
546.1116,546.59766,62,100,41
545.83374,546.59766,55,100,41
547.22266,547.4634,51,100,41
547.5004,547.74115,55,100,41
547.7782,548.019,58,100,41
548.05597,548.29675,63,100,41
548.3338,549.13007,62,100,41
548.05597,549.13007,55,100,41
549.4449,549.93097,58,100,41
550.0004,550.4866,55,100,41
550.55597,551.3523,53,100,41
551.38934,551.63007,55,100,41
551.6671,551.90784,56,100,41
551.9449,552.1856,55,100,41
552.22266,553.26434,56,100,41
553.3338,553.5745,55,100,41
553.88934,554.3754,58,100,41
554.4449,554.93097,55,100,41
555.0004,555.79675,53,100,41
555.8338,556.0745,55,100,41
556.1116,556.3523,56,100,41
556.38934,556.63007,55,100,41
556.6671,557.7088,56,100,41
557.7782,558.019,55,100,41
558.3338,559.3754,55,100,41
558.3338,559.3754,51,100,41
559.4449,559.6856,67,100,41
559.72266,559.843,63,100,41
559.8616,559.98193,65,100,41
560.0004,560.2412,67,100,41
560.556,561.59766,55,100,41
560.556,561.59766,51,100,41
561.6671,561.90784,67,100,41
561.9449,562.06525,63,100,41
562.0838,562.20416,65,100,41
562.22266,562.46344,67,100,41
562.7782,563.8199,55,100,41
562.7782,563.8199,51,100,41
563.88934,564.13007,67,100,41
564.1671,564.2875,63,100,41
564.306,564.4264,65,100,41
564.4449,564.6856,67,100,41
565.0004,566.0421,55,100,41
565.0004,566.0421,51,100,41
566.1116,566.3523,67,100,41
566.38934,566.5097,63,100,41
566.52826,566.6486,65,100,41
566.6671,566.90784,67,100,41
566.9449,568.019,62,100,41
568.056,569.13007,59,100,41
569.1671,570.2412,56,100,41
570.27826,571.0421,53,100,41
571.1116,573.26434,56,100,41
573.3338,575.4866,55,100,41
575.556,577.15326,53,100,41
577.22266,577.7088,59,100,41
577.77826,579.931,58,100,41
580.0005,581.0421,57,100,41
581.1116,582.15326,56,100,41
582.2227,583.26434,55,100,41
583.3338,584.3755,56,100,41
583.3338,584.3755,53,100,41
584.4449,585.4866,55,100,41
585.556,586.5977,56,100,41
585.556,586.5977,53,100,41
586.6671,587.15326,55,100,41
589.44495,590.4866,67,100,41
591.6671,592.15326,58,100,41
593.88934,594.931,58,100,41
595.0005,596.5977,58,100,41
596.6671,597.7088,55,100,41
597.77826,599.931,55,100,41
0.0,0.24074094,39,100,42
0.277778,0.5185189,46,100,42
0.555556,1.907409,51,100,42
1.944446,2.1851869,46,100,42
2.222224,2.462965,39,100,42
2.500002,2.740743,46,100,42
2.77778,4.129633,51,100,42
4.16667,4.407411,46,100,42
4.444448,4.685189,39,100,42
4.722226,4.962967,46,100,42
5.000004,6.3518567,51,100,42
6.388894,6.629635,46,100,42
6.666672,6.907413,39,100,42
6.94445,7.185191,46,100,42
7.222228,8.57408,51,100,42
8.611118,8.851859,46,100,42
8.888896,9.129637,39,100,42
9.166674,9.407415,46,100,42
9.444452,10.796305,51,100,42
10.833342,11.074083,46,100,42
11.11112,11.351861,39,100,42
11.388898,11.629639,46,100,42
11.666676,13.018529,51,100,42
13.055566,13.296307,46,100,42
13.333344,13.574085,39,100,42
13.611122,13.851863,43,100,42
13.8889,14.129641,46,100,42
14.166678,14.407419,51,100,42
14.444456,14.685197,55,100,42
14.722234,15.486123,58,100,42
15.555568,15.7963085,39,100,42
15.833346,16.074087,43,100,42
16.111124,16.351866,46,100,42
16.388903,16.629642,51,100,42
16.66668,16.907421,55,100,42
16.944458,17.708347,58,100,42
17.777792,18.018534,43,100,42
18.05557,18.29631,48,100,42
18.333347,18.57409,51,100,42
18.611126,18.851868,55,100,42
18.888905,19.652794,60,100,42
19.722239,19.962978,55,100,42
20.000015,20.240757,43,100,42
20.277794,20.518536,48,100,42
20.555573,20.796312,51,100,42
20.83335,21.074091,55,100,42
21.111128,24.930576,60,100,42
25.00002,26.597244,58,100,42
26.666689,26.907429,44,100,42
26.944466,28.819468,51,100,42
28.888912,29.129652,44,100,42
29.16669,31.04169,51,100,42
31.111135,31.351877,44,100,42
31.388914,33.263916,51,100,42
33.33336,33.5741,44,100,42
33.611137,35.48614,51,100,42
35.555584,36.041695,44,100,42
36.11114,36.59725,51,100,42
36.666695,37.15281,48,100,42
37.22225,37.708363,44,100,42
37.77781,38.26392,45,100,42
38.333363,38.819477,51,100,42
38.88892,39.37503,48,100,42
39.444477,39.930588,45,100,42
40.00003,40.486145,46,100,42
40.555588,41.0417,53,100,42
41.111145,41.597256,50,100,42
41.6667,42.152813,46,100,42
42.222256,42.708366,47,100,42
42.777813,43.263924,53,100,42
43.333366,43.81948,50,100,42
43.888924,44.375034,47,100,42
44.44448,44.685223,48,100,42
45.55559,45.675964,38,100,42
45.69448,45.81485,41,100,42
45.83337,45.95374,43,100,42
45.97226,46.09263,47,100,42
46.11115,46.231518,50,100,42
46.25004,46.370407,53,100,42
46.388927,46.509296,55,100,42
46.527817,46.648186,59,100,42
46.666702,46.907444,62,100,42
46.94448,47.185223,60,100,42
47.22226,47.463,59,100,42
47.50004,47.74078,57,100,42
47.777817,48.01856,55,100,42
48.055595,48.296333,48,100,42
48.33337,48.574112,50,100,42
48.61115,48.85189,50,100,42
48.888927,49.12967,43,100,42
49.166706,49.407448,50,100,42
49.444485,49.685226,43,100,42
49.722263,49.963,50,100,42
50.00004,50.24078,43,100,42
50.277817,50.51856,50,100,42
50.555595,50.796337,43,100,42
50.833374,51.074116,48,100,42
51.111153,51.351894,41,100,42
51.38893,51.62967,48,100,42
51.66671,51.907448,41,100,42
51.944485,52.185226,46,100,42
52.222263,52.463005,39,100,42
52.500042,52.740784,46,100,42
52.77782,52.89819,39,100,42
52.91671,53.03708,41,100,42
53.0556,53.296337,43,100,42
53.333378,55.486156,36,100,42
55.5556,56.04171,48,100,42
56.111156,56.597267,45,100,42
56.666714,57.152824,50,100,42
57.222267,57.708378,38,100,42
57.777824,58.018566,43,100,42
58.611156,58.8519,38,100,42
58.888935,59.009308,43,100,42
59.027824,59.148197,46,100,42
59.166714,59.407455,50,100,42
59.444492,59.685234,43,100,42
59.72227,59.963013,48,100,42
60.00005,60.240788,41,100,42
60.83338,61.074123,36,100,42
61.11116,61.23153,41,100,42
61.25005,61.37042,44,100,42
61.38894,61.62968,48,100,42
61.666718,61.907455,41,100,42
61.944492,62.185234,46,100,42
62.22227,62.463013,39,100,42
63.055607,63.29635,46,100,42
63.333385,63.453754,51,100,42
63.472275,63.592644,55,100,42
63.61116,64.129684,58,100,42
65.27783,65.3982,44,100,42
65.41672,65.53709,48,100,42
65.55561,65.67598,49,100,42
65.694496,65.814865,53,100,42
65.83339,66.07413,56,100,42
66.66672,68.819496,41,100,42
68.88895,69.009315,43,100,42
69.02783,69.1482,55,100,42
69.166725,69.287094,62,100,42
69.30561,69.42598,60,100,42
69.4445,69.56487,59,100,42
69.58339,69.70376,57,100,42
69.722275,69.84265,55,100,42
69.86117,69.98154,53,100,42
70.00005,70.12043,51,100,42
70.13895,70.259315,50,100,42
70.27783,70.3982,48,100,42
70.416725,70.537094,47,100,42
70.55561,70.79636,45,100,42
70.83339,71.07413,38,100,42
71.11117,73.26395,43,100,42
73.33339,73.574135,43,100,42
73.88895,74.12969,38,100,42
74.166725,74.40747,50,100,42
74.4445,74.68524,43,100,42
75.00006,75.2408,38,100,42
75.27784,75.51858,50,100,42
75.55562,75.79636,43,100,42
76.111176,76.35191,38,100,42
76.38895,76.62969,50,100,42
76.666725,76.90747,38,100,42
77.22228,77.46303,38,100,42
77.50006,77.74081,39,100,42
77.77784,78.01858,41,100,42
78.3334,78.574135,41,100,42
78.611176,78.85191,53,100,42
78.888954,79.12969,41,100,42
81.388954,81.62969,53,100,42
81.66673,81.90747,41,100,42
83.611176,83.85192,53,100,42
83.888954,84.1297,41,100,42
85.833405,86.07414,53,100,42
86.11118,86.35192,41,100,42
86.94451,87.18526,41,100,42
87.22229,87.463036,53,100,42
87.50007,87.740814,41,100,42
87.77785,88.018585,46,100,42
88.055626,88.296364,53,100,42
88.333405,88.57414,58,100,42
88.88896,89.37507,51,100,42
89.44452,89.930626,53,100,42
90.00007,90.48618,50,100,42
90.555626,91.04174,46,100,42
91.11118,91.5973,44,100,42
91.66674,92.152855,45,100,42
92.2223,92.708405,46,100,42
92.777855,93.26396,41,100,42
93.333405,93.81952,39,100,42
93.88896,94.37508,41,100,42
94.44452,94.93063,38,100,42
95.00008,95.48619,44,100,42
95.55563,96.04174,42,100,42
96.11119,96.35193,43,100,42
96.38897,96.62971,39,100,42
96.66674,96.907486,41,100,42
96.94452,97.185265,46,100,42
98.61119,98.85193,41,100,42
98.88897,99.12971,42,100,42
99.16675,99.407486,41,100,42
99.44453,99.685265,45,100,42
99.722305,99.96304,41,100,42
100.00008,100.24082,48,100,42
100.277855,100.5186,41,100,42
100.83341,101.07416,41,100,42
101.11119,101.35194,42,100,42
101.38897,101.62971,41,100,42
101.66675,101.907486,45,100,42
101.94453,102.185265,41,100,42
102.500084,102.74082,41,100,42
102.77786,103.0186,51,100,42
103.05564,103.29638,41,100,42
103.61119,103.85194,41,100,42
103.88897,104.129715,51,100,42
104.16675,104.40749,41,100,42
104.722305,104.96304,42,100,42
105.000084,105.24082,51,100,42
105.27786,105.5186,42,100,42
105.83342,106.07416,42,100,42
106.1112,106.35194,51,100,42
106.38898,106.629715,42,100,42
106.94453,107.18527,50,100,42
107.222305,107.46305,60,100,42
107.500084,107.74083,50,100,42
108.05564,108.29639,50,100,42
108.33342,108.57416,59,100,42
108.6112,108.85194,50,100,42
109.166756,109.40749,50,100,42
109.444534,109.68527,57,100,42
109.72231,109.96305,50,100,42
110.27786,110.51861,50,100,42
110.55564,110.79639,59,100,42
110.83342,111.074165,50,100,42
111.38898,111.62972,50,100,42
111.666756,111.90749,60,100,42
111.944534,112.18527,50,100,42
112.50009,112.74083,50,100,42
112.77787,113.01861,59,100,42
113.05565,113.29639,50,100,42
113.6112,113.851944,38,100,42
113.88898,114.12972,50,100,42
114.166756,114.4075,38,100,42
114.72231,114.96306,39,100,42
115.00009,115.24083,51,100,42
115.27787,115.51861,39,100,42
115.83343,116.074165,40,100,42
116.111206,116.351944,52,100,42
116.388985,116.62972,40,100,42
116.944534,117.18528,41,100,42
117.22231,117.46306,53,100,42
117.50009,117.74084,41,100,42
117.77787,118.018616,53,100,42
118.05565,118.296394,41,100,42
118.611206,118.851944,41,100,42
118.888985,119.12972,53,100,42
119.16676,119.4075,41,100,42
119.72232,119.96306,41,100,42
120.27788,120.518616,41,100,42
120.55565,120.796394,48,100,42
120.83343,121.07417,41,100,42
121.388985,121.62973,41,100,42
121.66676,121.9075,46,100,42
121.94454,122.18528,41,100,42
122.5001,122.74084,41,100,42
122.77788,123.018616,45,100,42
123.05566,123.296394,41,100,42
123.333435,123.57417,46,100,42
123.61121,123.85195,41,100,42
123.888985,124.12973,50,100,42
124.16676,124.40751,46,100,42
124.72232,124.963066,41,100,42
125.0001,125.240845,48,100,42
125.27788,125.518616,41,100,42
125.833435,126.07417,41,100,42
126.11121,126.35195,46,100,42
126.38899,126.62973,41,100,42
126.94455,127.18529,41,100,42
127.22232,127.463066,45,100,42
127.5001,127.740845,41,100,42
128.05566,128.2964,41,100,42
128.33344,128.57417,50,100,42
128.61122,128.85196,46,100,42
128.88899,129.12973,45,100,42
129.44455,129.68529,57,100,42
129.72232,129.96307,45,100,42
130.27788,130.51862,45,100,42
130.55566,130.7964,55,100,42
130.83344,131.07417,54,100,42
131.11122,131.35196,52,100,42
131.38899,131.62973,52,100,42
131.94455,132.18529,45,100,42
132.22232,132.46307,47,100,42
132.5001,132.74084,59,100,42
132.77788,133.01863,47,100,42
133.33344,133.57419,50,100,42
133.61122,133.85196,38,100,42
134.16678,134.40752,38,100,42
134.44455,134.68529,43,100,42
134.72234,134.96307,55,100,42
135.0001,135.24084,47,100,42
135.2779,135.51863,59,100,42
135.55566,135.7964,52,100,42
135.83344,136.07419,40,100,42
136.38899,136.62975,52,100,42
136.66678,136.90752,45,100,42
136.94455,137.18529,57,100,42
137.5001,137.74084,45,100,42
137.7779,138.01863,38,100,42
138.33345,138.57419,50,100,42
138.61122,138.85196,38,100,42
139.16678,139.40752,45,100,42
139.44455,139.6853,57,100,42
139.72234,139.96307,45,100,42
140.0001,140.24086,50,100,42
140.55566,140.7964,50,100,42
140.83345,141.07419,38,100,42
141.389,141.62975,45,100,42
141.66678,141.90752,57,100,42
141.94456,142.1853,45,100,42
142.5001,142.74086,38,100,42
142.7779,143.01863,50,100,42
143.05566,143.29642,38,100,42
143.61122,143.85197,38,100,42
143.889,144.12975,50,100,42
144.16678,144.40752,38,100,42
144.72234,144.96307,38,100,42
145.00012,145.24086,50,100,42
145.2779,145.51863,38,100,42
145.83345,146.07419,38,100,42
146.11122,146.35197,50,100,42
146.389,146.62975,38,100,42
146.66678,146.90753,50,100,42
146.94456,147.06493,50,100,42
147.08345,147.20383,49,100,42
147.22234,147.46307,50,100,42
149.44456,149.6853,46,100,42
150.55568,151.0418,46,100,42
151.11124,151.35197,39,100,42
151.389,151.62975,46,100,42
151.6668,153.01865,51,100,42
153.05568,153.29642,46,100,42
153.33345,153.5742,39,100,42
153.61124,153.85197,46,100,42
153.889,155.24086,51,100,42
155.27791,155.51865,46,100,42
155.55568,155.79642,39,100,42
155.83347,156.0742,46,100,42
156.11124,157.46309,51,100,42
157.50012,157.74086,46,100,42
157.77791,158.01865,39,100,42
158.05568,158.29642,46,100,42
158.33347,159.68532,51,100,42
159.72235,159.96309,46,100,42
160.00012,160.24088,39,100,42
160.27791,160.51865,46,100,42
160.55568,161.90753,51,100,42
161.94458,162.18532,46,100,42
162.22235,162.46309,39,100,42
162.50014,162.74088,46,100,42
162.77791,164.12976,51,100,42
164.1668,164.40753,46,100,42
164.44458,164.68532,39,100,42
164.72235,164.96309,43,100,42
165.00014,165.24088,46,100,42
165.27791,165.51865,51,100,42
165.5557,165.79643,55,100,42
165.83347,166.59735,58,100,42
166.6668,166.90755,39,100,42
166.94458,167.18532,43,100,42
167.22235,167.4631,46,100,42
167.50014,167.74088,51,100,42
167.77791,168.01865,55,100,42
168.0557,168.81958,58,100,42
168.88902,169.12976,43,100,42
169.16681,169.40755,48,100,42
169.44458,169.68532,51,100,42
169.72235,169.9631,55,100,42
170.00014,170.76402,60,100,42
170.83347,171.0742,55,100,42
171.11125,171.35199,43,100,42
171.38902,171.62976,48,100,42
171.66681,171.90755,51,100,42
171.94458,172.18532,55,100,42
172.22237,176.04181,60,100,42
176.11125,177.70848,58,100,42
177.77792,178.01866,44,100,42
178.0557,179.9307,51,100,42
180.00014,180.24089,44,100,42
180.27792,182.15292,51,100,42
182.22237,182.4631,44,100,42
182.50015,184.37515,51,100,42
184.4446,184.68533,44,100,42
184.72237,186.59737,51,100,42
186.66681,187.15292,44,100,42
187.22237,187.70848,51,100,42
187.77792,188.26404,48,100,42
188.33348,188.8196,44,100,42
188.88904,189.37515,45,100,42
189.4446,189.93071,51,100,42
190.00015,190.48627,48,100,42
190.55571,191.04182,45,100,42
191.11127,191.59738,46,100,42
191.66682,192.15294,53,100,42
192.22238,192.70848,50,100,42
192.77794,193.26404,46,100,42
193.33348,193.8196,47,100,42
193.88904,194.37515,53,100,42
194.4446,194.93071,50,100,42
195.00015,195.48627,47,100,42
195.55571,195.79645,48,100,42
196.66682,196.7872,38,100,42
196.80571,196.92609,41,100,42
196.9446,197.06497,43,100,42
197.0835,197.20386,47,100,42
197.22238,197.34274,50,100,42
197.36127,197.48164,53,100,42
197.50015,197.62053,55,100,42
197.63905,197.75941,59,100,42
197.77794,198.01868,62,100,42
198.05571,198.29645,60,100,42
198.3335,198.57423,59,100,42
198.61127,198.852,57,100,42
198.88905,199.12979,55,100,42
199.16682,199.40756,48,100,42
199.44461,199.68535,50,100,42
199.72238,199.96312,50,100,42
200.00015,200.2409,43,100,42
200.27794,200.51868,50,100,42
200.55571,200.79646,43,100,42
200.8335,201.07423,50,100,42
201.11127,201.35202,43,100,42
201.38905,201.62979,50,100,42
201.66682,201.90756,43,100,42
201.94461,202.18535,48,100,42
202.22238,202.46312,41,100,42
202.50017,202.7409,48,100,42
202.77794,203.01868,41,100,42
203.05573,203.29646,46,100,42
203.3335,203.57423,39,100,42
203.61127,203.85202,46,100,42
203.88905,204.00943,39,100,42
204.02794,204.14832,41,100,42
204.16682,204.40758,43,100,42
204.44461,206.59738,36,100,42
206.66684,207.15294,48,100,42
207.22238,207.7085,45,100,42
207.77794,208.26405,50,100,42
208.3335,208.81961,38,100,42
208.88905,209.12979,43,100,42
209.7224,209.96313,38,100,42
210.00017,210.12054,43,100,42
210.13905,210.25943,46,100,42
210.27794,210.51869,50,100,42
210.55573,210.79646,43,100,42
210.8335,211.07425,48,100,42
211.11128,211.35202,41,100,42
211.94461,212.18535,36,100,42
212.2224,212.34276,41,100,42
212.36128,212.48166,44,100,42
212.50017,212.7409,48,100,42
212.77795,213.01869,41,100,42
213.05573,213.29646,46,100,42
213.33351,213.57425,39,100,42
214.16684,214.40758,46,100,42
214.44461,214.56499,51,100,42
214.58351,214.70387,55,100,42
214.7224,215.2409,58,100,42
216.38907,216.50943,44,100,42
216.52795,216.64832,48,100,42
216.66684,216.78722,49,100,42
216.80573,216.9261,53,100,42
216.94461,217.18536,56,100,42
217.77795,219.93073,41,100,42
220.00018,220.12054,43,100,42
220.13907,220.25943,55,100,42
220.27795,220.39833,62,100,42
220.41684,220.53722,60,100,42
220.55573,220.6761,59,100,42
220.69463,220.81499,57,100,42
220.83351,220.95389,55,100,42
220.9724,221.09277,53,100,42
221.11128,221.23166,51,100,42
221.25018,221.37054,50,100,42
221.38907,221.50943,48,100,42
221.52795,221.64833,47,100,42
221.66684,221.90758,45,100,42
221.94463,222.18536,38,100,42
222.2224,224.37518,43,100,42
224.44463,224.68536,43,100,42
225.00018,225.24092,38,100,42
225.27795,225.51869,50,100,42
225.55574,225.79648,43,100,42
226.1113,226.35204,38,100,42
226.38907,226.6298,50,100,42
226.66685,226.9076,43,100,42
227.2224,227.46315,38,100,42
227.50018,227.74092,50,100,42
227.77795,228.0187,38,100,42
228.33351,228.57426,38,100,42
228.6113,228.85204,39,100,42
228.88907,229.1298,41,100,42
229.44463,229.68536,41,100,42
229.72241,229.96315,53,100,42
230.00018,230.24092,41,100,42
232.50018,232.74092,53,100,42
232.77797,233.0187,41,100,42
234.72241,234.96315,53,100,42
235.00018,235.24094,41,100,42
236.94464,237.18538,53,100,42
237.22241,237.46315,41,100,42
238.05574,238.2965,41,100,42
238.33353,238.57426,53,100,42
238.6113,238.85204,41,100,42
238.88908,239.12982,46,100,42
239.16685,239.4076,53,100,42
239.44464,239.68538,58,100,42
240.0002,240.4863,51,100,42
240.55576,241.04185,53,100,42
241.1113,241.59741,50,100,42
241.66685,242.15297,46,100,42
242.22241,242.70853,44,100,42
242.77797,243.26408,45,100,42
243.33353,243.81964,46,100,42
243.88908,244.3752,41,100,42
244.44464,244.93076,39,100,42
245.0002,245.48631,41,100,42
245.55576,246.04187,38,100,42
246.11131,246.59741,44,100,42
246.66687,247.15297,42,100,42
247.22243,247.46317,43,100,42
247.5002,247.74094,39,100,42
247.77797,248.01872,41,100,42
248.05576,248.2965,46,100,42
249.72243,249.96317,41,100,42
250.0002,250.24094,42,100,42
250.27798,250.51872,41,100,42
250.55576,250.7965,45,100,42
250.83353,251.07428,41,100,42
251.11131,251.35205,48,100,42
251.38908,251.62984,41,100,42
251.94464,252.1854,41,100,42
252.22243,252.46317,42,100,42
252.5002,252.74094,41,100,42
252.77798,253.01872,45,100,42
253.05576,253.2965,41,100,42
253.61131,253.85205,41,100,42
253.8891,254.12984,51,100,42
254.16687,254.40761,41,100,42
254.72243,254.96317,41,100,42
255.0002,255.24095,51,100,42
255.27798,255.51872,41,100,42
255.83354,256.07428,42,100,42
256.11133,256.35205,51,100,42
256.3891,256.62982,42,100,42
256.94464,257.1854,42,100,42
257.22244,257.46317,51,100,42
257.5002,257.74094,42,100,42
258.05576,258.2965,50,100,42
258.33353,258.57428,60,100,42
258.61133,258.85205,50,100,42
259.16687,259.40762,50,100,42
259.44464,259.6854,59,100,42
259.72244,259.96317,50,100,42
260.27798,260.51874,50,100,42
260.55576,260.7965,57,100,42
260.83356,261.07428,50,100,42
261.3891,261.62985,50,100,42
261.66687,261.90762,59,100,42
261.94464,262.1854,50,100,42
262.5002,262.74094,50,100,42
262.77798,263.01874,60,100,42
263.05576,263.2965,50,100,42
263.61133,263.85205,50,100,42
263.8891,264.12985,59,100,42
264.16687,264.40762,50,100,42
264.72244,264.96317,38,100,42
265.0002,265.24097,50,100,42
265.27798,265.51874,38,100,42
265.83356,266.07428,39,100,42
266.11133,266.35205,51,100,42
266.3891,266.62985,39,100,42
266.94467,267.1854,40,100,42
267.22244,267.46317,52,100,42
267.5002,267.74097,40,100,42
268.05576,268.2965,41,100,42
268.33356,268.57428,53,100,42
268.61133,268.85208,41,100,42
268.8891,269.12985,53,100,42
269.16687,269.40762,41,100,42
269.72244,269.96317,41,100,42
270.0002,270.24097,53,100,42
270.27798,270.51874,41,100,42
270.83356,271.07428,41,100,42
271.3891,271.62985,41,100,42
271.66687,271.90762,48,100,42
271.94467,272.1854,41,100,42
272.5002,272.74097,41,100,42
272.77798,273.01874,46,100,42
273.0558,273.2965,41,100,42
273.61133,273.85208,41,100,42
273.8891,274.12985,45,100,42
274.1669,274.40762,41,100,42
274.44467,274.6854,46,100,42
274.72244,274.9632,41,100,42
275.0002,275.24097,50,100,42
275.27798,275.51874,46,100,42
275.83356,276.07428,41,100,42
276.11133,276.35208,48,100,42
276.3891,276.62985,41,100,42
276.94467,277.1854,41,100,42
277.22244,277.4632,46,100,42
277.5002,277.74097,41,100,42
278.0558,278.2965,41,100,42
278.33356,278.5743,45,100,42
278.61133,278.85208,41,100,42
279.1669,279.40762,41,100,42
279.44467,279.6854,50,100,42
279.72244,279.9632,46,100,42
280.0002,280.24097,45,100,42
280.5558,280.7965,57,100,42
280.83356,281.0743,45,100,42
281.3891,281.62985,45,100,42
281.6669,281.90762,55,100,42
281.94467,282.18542,54,100,42
282.22244,282.4632,52,100,42
282.5002,282.74097,52,100,42
283.0558,283.2965,45,100,42
283.33356,283.5743,47,100,42
283.61133,283.85208,59,100,42
283.88913,284.12985,47,100,42
284.44467,284.68542,50,100,42
284.72244,284.9632,38,100,42
285.278,285.51874,38,100,42
285.5558,285.79654,43,100,42
285.83356,286.0743,55,100,42
286.11133,286.35208,47,100,42
286.38913,286.62985,59,100,42
286.6669,286.90762,52,100,42
286.94467,287.18542,40,100,42
287.50024,287.74097,52,100,42
287.778,288.01874,45,100,42
288.0558,288.29654,57,100,42
288.61133,288.85208,45,100,42
288.88913,289.12985,38,100,42
289.44467,289.68542,50,100,42
289.72244,289.9632,38,100,42
290.278,290.51874,45,100,42
290.5558,290.79654,57,100,42
290.83356,291.0743,45,100,42
291.11136,291.35208,50,100,42
291.6669,291.90765,50,100,42
291.94467,292.18542,38,100,42
292.50024,292.74097,45,100,42
292.778,293.01874,57,100,42
293.0558,293.29654,45,100,42
293.61136,293.85208,38,100,42
293.88913,294.12985,50,100,42
294.1669,294.40765,38,100,42
294.72247,294.9632,38,100,42
295.00024,295.24097,50,100,42
295.278,295.51877,38,100,42
295.83356,296.0743,38,100,42
296.11136,296.35208,50,100,42
296.38913,296.62985,38,100,42
296.94467,297.18542,38,100,42
297.22247,297.4632,50,100,42
297.50024,297.74097,38,100,42
297.778,298.01877,50,100,42
298.0558,298.17618,50,100,42
298.19467,298.31506,49,100,42
298.33356,298.5743,50,100,42
300.5558,300.79654,46,100,42
301.6669,302.153,46,100,42
302.22247,302.4632,51,100,42
305.00024,305.241,47,100,42
306.11136,306.59747,47,100,42
306.6669,306.90765,52,100,42
306.9447,307.18542,59,100,42
307.22247,307.7086,64,100,42
308.3336,308.5743,52,100,42
308.61136,308.8521,64,100,42
308.88913,309.12988,52,100,42
310.55582,310.79654,40,100,42
310.8336,311.0743,52,100,42
311.11136,311.3521,40,100,42
311.66693,312.153,52,100,42
312.22247,312.7086,55,100,42
312.778,313.26413,60,100,42
313.3336,313.5743,59,100,42
313.61136,313.8521,52,100,42
313.88913,314.12988,57,100,42
314.16693,314.40765,52,100,42
314.4447,314.68542,57,100,42
314.72247,314.96323,52,100,42
315.00024,315.241,48,100,42
315.278,315.51877,45,100,42
315.55582,315.79654,40,100,42
315.8336,316.07434,47,100,42
316.11136,316.3521,43,100,42
316.38913,316.62988,52,100,42
316.66693,317.7086,48,100,42
317.77805,318.01877,40,100,42
318.05582,318.29654,47,100,42
318.3336,318.57434,43,100,42
318.61136,318.8521,52,100,42
318.88913,319.93082,48,100,42
320.00024,320.241,40,100,42
320.27805,320.51877,47,100,42
320.55582,320.79654,43,100,42
320.8336,321.07434,52,100,42
321.11136,322.15305,48,100,42
322.22247,322.46323,43,100,42
322.50024,322.741,50,100,42
322.77805,323.01877,47,100,42
323.05582,323.29657,55,100,42
323.3336,324.37527,50,100,42
324.4447,324.68546,43,100,42
324.72247,324.96323,50,100,42
325.00027,325.241,47,100,42
325.27805,325.51877,55,100,42
325.55582,326.59747,50,100,42
326.66693,326.90765,43,100,42
326.9447,327.18546,50,100,42
327.22247,327.46323,46,100,42
327.50027,327.741,55,100,42
327.77805,328.8197,50,100,42
328.88916,329.12988,43,100,42
329.16693,329.40768,50,100,42
329.4447,329.68546,46,100,42
329.72247,329.96323,55,100,42
330.00027,330.241,46,100,42
330.27805,330.51877,53,100,42
330.55582,330.79657,50,100,42
330.8336,331.07434,56,100,42
331.1114,331.3521,43,100,42
331.38916,331.62988,51,100,42
331.66693,331.90768,46,100,42
331.9447,332.18546,55,100,42
332.22247,332.46323,48,100,42
332.50027,332.741,55,100,42
332.77805,333.0188,52,100,42
333.05582,333.29657,58,100,42
333.3336,333.57434,36,100,42
333.6114,333.8521,44,100,42
333.88916,334.12988,41,100,42
334.16693,334.40768,48,100,42
334.4447,334.68546,37,100,42
334.7225,334.96323,44,100,42
335.00027,335.241,41,100,42
335.27805,335.5188,47,100,42
335.55582,337.46323,37,100,42
337.50027,337.741,37,100,42
337.77805,339.68546,37,100,42
339.7225,339.96323,37,100,42
340.00027,341.90768,37,100,42
341.94473,342.18546,37,100,42
342.2225,342.46323,37,100,42
342.50027,342.74103,44,100,42
342.77805,343.0188,41,100,42
343.05582,343.29657,49,100,42
343.33362,343.57434,37,100,42
343.6114,343.8521,44,100,42
343.88916,344.1299,41,100,42
344.16693,344.40768,49,100,42
344.44473,344.68546,37,100,42
344.7225,344.96323,44,100,42
345.00027,345.24103,40,100,42
345.27805,345.5188,49,100,42
345.55585,345.79657,37,100,42
345.83362,346.07434,44,100,42
346.1114,346.35214,40,100,42
346.38916,346.6299,49,100,42
346.66693,347.15305,49,100,42
350.00027,350.24103,37,100,42
350.27805,350.39844,37,100,42
350.41696,350.53732,39,100,42
350.55585,350.79657,37,100,42
350.83362,350.95398,37,100,42
350.9725,351.09286,39,100,42
351.1114,352.15305,37,100,42
356.38916,356.6299,40,100,42
356.66696,356.90768,41,100,42
356.94473,357.1855,40,100,42
357.50027,357.74103,40,100,42
357.77808,358.0188,44,100,42
358.05585,358.29657,40,100,42
358.33362,358.57437,45,100,42
358.6114,358.85214,40,100,42
358.8892,359.1299,47,100,42
359.16696,359.40768,40,100,42
359.44473,359.6855,49,100,42
359.7225,359.96326,40,100,42
360.00027,360.24103,50,100,42
360.27808,360.5188,40,100,42
360.55585,360.79657,49,100,42
360.83362,361.07437,40,100,42
361.1114,361.35214,50,100,42
361.3892,361.6299,40,100,42
361.94473,362.1855,49,100,42
362.2225,362.46326,50,100,42
362.5003,362.74103,40,100,42
362.77808,363.0188,49,100,42
363.05585,363.2966,40,100,42
363.33362,363.57437,47,100,42
363.6114,363.85214,40,100,42
363.8892,364.1299,44,100,42
364.16696,364.40768,40,100,42
364.44473,365.4864,52,100,42
364.44473,365.4864,45,100,42
365.55585,366.5975,52,100,42
365.55585,366.5975,45,100,42
366.66696,367.15308,52,100,42
366.66696,367.15308,45,100,42
367.2225,367.70862,52,100,42
367.2225,367.70862,45,100,42
367.77808,368.2642,52,100,42
367.77808,368.2642,45,100,42
368.33362,368.81973,52,100,42
368.33362,368.81973,45,100,42
368.8892,369.3753,52,100,42
368.8892,369.3753,45,100,42
369.44473,369.93085,57,100,42
370.0003,371.59753,57,100,42
371.66696,372.15308,64,100,42
372.22253,372.70862,62,100,42
372.77808,373.2642,60,100,42
373.33362,374.09753,62,100,42
374.16696,374.4077,64,100,42
374.44473,376.04196,62,100,42
376.11142,376.59753,60,100,42
376.66696,377.15308,62,100,42
377.22253,377.70865,64,100,42
377.77808,378.01883,65,100,42
378.33365,378.57437,53,100,42
379.44476,379.56512,43,100,42
379.58365,379.704,52,100,42
379.72253,379.8429,48,100,42
379.86142,379.98178,55,100,42
380.55585,380.67624,41,100,42
380.69476,380.81512,48,100,42
380.83365,380.954,45,100,42
380.97253,381.0929,53,100,42
381.66696,381.78735,40,100,42
381.80585,381.92624,50,100,42
381.94476,382.06512,45,100,42
382.08365,382.204,52,100,42
382.22253,382.46326,38,100,42
382.77808,383.01883,50,100,42
383.8892,384.00955,40,100,42
384.02808,384.14847,49,100,42
384.16696,384.28735,45,100,42
384.30588,384.42624,52,100,42
385.0003,385.12067,38,100,42
385.1392,385.25958,45,100,42
385.27808,385.39847,41,100,42
385.41696,385.53735,50,100,42
386.11142,386.23178,36,100,42
386.2503,386.37067,45,100,42
386.3892,386.50958,41,100,42
386.52808,386.64847,48,100,42
387.22253,387.4633,36,100,42
387.5003,387.74106,45,100,42
387.77808,388.01883,41,100,42
388.05588,388.2966,48,100,42
389.44476,389.6855,36,100,42
389.72253,389.9633,45,100,42
390.0003,390.24106,41,100,42
390.27808,390.51883,48,100,42
391.11142,391.35217,39,100,42
391.3892,391.62994,40,100,42
391.667,392.1531,41,100,42
393.05588,393.2966,37,100,42
393.33365,393.5744,39,100,42
393.61142,393.85217,40,100,42
393.8892,394.3753,41,100,42
395.2781,395.51883,46,100,42
395.55588,395.7966,45,100,42
396.667,396.9077,57,100,42
396.667,396.9077,50,100,42
397.22253,397.3429,48,100,42
397.36142,397.4818,45,100,42
397.5003,397.6207,45,100,42
397.63922,397.75958,50,100,42
397.7781,398.01883,43,100,42
398.05588,398.2966,50,100,42
398.33365,398.5744,55,100,42
400.83365,401.0744,45,100,42
401.11142,401.35217,47,100,42
401.38922,401.62994,48,100,42
401.667,401.9077,50,100,42
401.94476,402.18552,38,100,42
402.22253,402.4633,43,100,42
402.50034,402.74106,50,100,42
402.7781,403.01883,55,100,42
405.00034,405.24106,38,100,42
405.2781,405.51883,43,100,42
405.55588,405.79663,50,100,42
405.83365,406.0744,55,100,42
406.11145,406.59753,50,100,42
407.22253,407.4633,38,100,42
407.50034,407.74106,43,100,42
407.7781,408.01886,50,100,42
408.05588,408.29663,55,100,42
408.33365,408.81976,50,100,42
409.44476,409.68552,38,100,42
409.72256,409.9633,43,100,42
410.00034,410.24106,50,100,42
410.2781,410.51886,55,100,42
410.55588,411.042,51,100,42
411.11145,411.35217,46,100,42
411.667,411.90775,41,100,42
411.94476,412.18552,46,100,42
412.22256,412.4633,53,100,42
412.50034,412.74106,58,100,42
412.7781,413.26422,53,100,42
413.88922,414.12997,41,100,42
414.167,414.40775,46,100,42
414.44476,414.68552,53,100,42
414.72256,414.9633,58,100,42
415.00034,415.79663,53,100,42
415.83368,416.0744,58,100,42
416.11145,416.90775,53,100,42
416.94476,417.18552,58,100,42
417.22256,417.4633,53,100,42
417.50034,417.7411,56,100,42
417.7781,418.01886,55,100,42
418.05588,418.29663,51,100,42
418.33368,419.09756,46,100,42
419.167,419.40775,51,100,42
419.4448,419.68552,39,100,42
419.72256,419.84293,39,100,42
419.86145,419.9818,41,100,42
420.00034,420.2411,43,100,42
420.55588,420.79663,43,100,42
420.83368,421.0744,55,100,42
421.11145,421.3522,43,100,42
421.667,421.90775,43,100,42
421.9448,422.18552,45,100,42
422.22256,422.4633,46,100,42
423.33368,423.5744,46,100,42
424.4448,424.68552,41,100,42
424.72256,424.96332,50,100,42
425.00034,425.2411,46,100,42
425.5559,425.79663,39,100,42
425.83368,426.0744,51,100,42
426.11145,426.3522,46,100,42
426.66702,426.90775,47,100,42
426.9448,427.18552,50,100,42
427.22256,427.46332,47,100,42
427.7781,428.01886,48,100,42
428.0559,428.29663,43,100,42
428.33368,428.5744,36,100,42
428.88922,429.12997,41,100,42
429.16702,429.40775,46,100,42
429.4448,429.68552,44,100,42
430.00034,430.2411,43,100,42
430.27814,430.51886,46,100,42
430.5559,430.79663,43,100,42
431.11145,431.3522,44,100,42
431.38922,431.62997,41,100,42
431.9448,432.18552,46,100,42
432.22256,432.46332,51,100,42
432.50034,432.7411,46,100,42
432.77814,433.01886,39,100,42
433.33368,433.57443,56,100,42
433.61145,433.73184,56,100,42
433.75034,433.87073,58,100,42
433.88922,434.12997,56,100,42
434.16702,434.28738,56,100,42
434.3059,434.42627,58,100,42
434.4448,434.68555,55,100,42
434.72256,434.84293,55,100,42
434.86145,434.98184,58,100,42
435.00034,435.2411,55,100,42
435.27814,435.3985,55,100,42
435.41702,435.53738,51,100,42
435.5559,435.79663,49,100,42
435.83368,435.95404,49,100,42
435.97256,436.09296,48,100,42
436.11145,436.3522,49,100,42
436.38925,436.5096,49,100,42
436.52814,436.6485,50,100,42
436.66702,436.90775,51,100,42
436.9448,437.06516,51,100,42
437.08368,437.20404,50,100,42
437.22256,437.46332,51,100,42
437.50034,437.62073,46,100,42
437.63925,437.7596,45,100,42
437.77814,438.01886,44,100,42
438.0559,438.17627,44,100,42
438.1948,438.31516,46,100,42
438.33368,438.57443,44,100,42
438.61145,438.73184,44,100,42
438.75037,438.87073,46,100,42
438.88925,439.12997,43,100,42
439.16702,439.28738,43,100,42
439.3059,439.42627,46,100,42
439.4448,439.68555,49,100,42
439.72256,439.84296,49,100,42
439.86145,439.98184,51,100,42
440.00037,440.2411,49,100,42
440.27814,440.3985,49,100,42
440.41702,440.53738,50,100,42
440.5559,440.79666,51,100,42
440.83368,440.95407,46,100,42
440.97256,441.09296,47,100,42
441.11145,441.3522,48,100,42
441.38925,441.62997,46,100,42
441.66702,441.90778,39,100,42
443.0559,443.29666,46,100,42
443.33368,443.57443,47,100,42
443.61148,443.8522,46,100,42
443.88925,444.12997,50,100,42
444.16702,444.40778,46,100,42
444.4448,444.68555,53,100,42
444.72256,444.96332,46,100,42
445.27814,445.51886,46,100,42
445.5559,445.79666,47,100,42
445.83368,446.07443,46,100,42
446.11148,446.3522,50,100,42
446.38925,446.62997,46,100,42
446.66702,446.90778,56,100,42
446.9448,447.18555,46,100,42
447.2226,447.46332,56,100,42
447.50037,447.7411,46,100,42
448.0559,448.29666,46,100,42
448.33368,448.57443,56,100,42
448.61148,448.8522,46,100,42
449.16702,449.40778,47,100,42
449.4448,449.68555,56,100,42
449.7226,449.96332,47,100,42
450.27814,450.5189,47,100,42
450.5559,450.79666,56,100,42
450.83368,451.07443,47,100,42
451.11148,451.3522,43,100,42
451.38925,451.63,50,100,42
451.66702,451.90778,53,100,42
451.9448,452.18555,43,100,42
452.2226,452.46332,43,100,42
452.50037,452.7411,48,100,42
452.77814,453.0189,52,100,42
453.0559,453.29666,43,100,42
453.3337,453.57443,43,100,42
453.61148,453.8522,47,100,42
453.88925,454.13,55,100,42
454.16702,454.40778,43,100,42
454.4448,454.68555,52,100,42
454.7226,454.96332,48,100,42
455.00037,455.24112,43,100,42
455.27814,455.5189,55,100,42
455.5559,455.79666,43,100,42
455.8337,456.07443,50,100,42
456.11148,456.3522,53,100,42
456.38925,456.63,43,100,42
456.66702,456.90778,43,100,42
456.94482,457.18555,48,100,42
457.2226,457.46332,52,100,42
457.50037,457.74112,43,100,42
458.0559,458.81982,50,100,42
457.77814,458.81982,43,100,42
459.16702,459.93094,50,100,42
458.88925,459.93094,44,100,42
460.27814,461.04202,53,100,42
460.00037,461.04202,45,100,42
461.38925,462.15314,53,100,42
461.11148,462.15314,46,100,42
462.50037,463.26425,53,100,42
462.2226,463.26425,46,100,42
463.61148,464.37537,53,100,42
463.3337,464.37537,46,100,42
464.44482,464.68555,41,100,42
464.7226,464.96335,50,100,42
465.00037,465.24112,46,100,42
465.27814,465.5189,41,100,42
465.55594,465.79666,39,100,42
465.8337,466.07443,51,100,42
466.11148,466.35223,46,100,42
466.38925,466.63,39,100,42
466.66705,466.90778,47,100,42
466.94482,467.18555,55,100,42
467.2226,467.46335,50,100,42
467.50037,467.74112,47,100,42
467.77814,468.0189,48,100,42
468.05594,468.29666,55,100,42
468.3337,468.57446,51,100,42
468.61148,468.85223,48,100,42
468.88925,469.13,41,100,42
469.16705,469.40778,50,100,42
469.44482,469.68555,46,100,42
469.7226,469.96335,41,100,42
470.00037,470.24112,39,100,42
470.27817,470.5189,51,100,42
470.55594,470.79666,46,100,42
470.8337,471.07446,39,100,42
471.11148,471.35223,47,100,42
471.38925,471.63,55,100,42
471.66705,471.90778,50,100,42
471.94482,472.18558,43,100,42
472.2226,472.46335,48,100,42
472.50037,472.74112,55,100,42
472.77817,473.0189,51,100,42
473.05594,473.29666,48,100,42
473.3337,473.57446,50,100,42
473.88928,474.13,62,100,42
474.16705,474.40778,50,100,42
474.7226,474.96335,50,100,42
475.00037,475.24112,60,100,42
475.27817,475.5189,59,100,42
475.55594,475.7967,57,100,42
475.8337,476.07446,45,100,42
476.38928,476.63,50,100,42
476.66705,476.90778,52,100,42
476.94482,477.18558,64,100,42
477.2226,477.46335,52,100,42
477.77817,478.0189,55,100,42
478.05594,478.2967,43,100,42
478.61148,478.85223,43,100,42
478.88928,479.13,48,100,42
479.16705,479.40778,60,100,42
479.44482,479.68558,40,100,42
479.7226,479.96335,52,100,42
480.0004,480.24112,57,100,42
480.27817,480.5189,45,100,42
480.8337,481.07446,57,100,42
481.1115,481.35223,50,100,42
481.38928,481.63,62,100,42
481.94482,482.18558,50,100,42
482.2226,482.46335,43,100,42
482.77817,483.0189,55,100,42
483.05594,483.2967,43,100,42
483.6115,483.85223,50,100,42
483.88928,484.13,62,100,42
484.16705,484.4078,50,100,42
484.44482,484.68558,50,100,42
485.0004,485.24112,55,100,42
485.27817,485.51892,43,100,42
485.8337,486.07446,38,100,42
486.1115,486.35223,50,100,42
486.38928,486.63,38,100,42
486.94482,487.18558,43,100,42
487.22263,487.46335,55,100,42
487.5004,487.74112,43,100,42
488.05594,488.2967,43,100,42
488.3337,488.57446,55,100,42
488.6115,488.85223,43,100,42
489.16705,489.4078,43,100,42
489.44482,489.68558,55,100,42
489.72263,489.96335,43,100,42
490.27817,490.51892,43,100,42
490.55594,490.7967,55,100,42
490.83374,491.07446,43,100,42
491.1115,492.15317,55,100,42
492.22263,493.26428,48,100,42
493.33374,494.3754,55,100,42
494.44485,494.93094,48,100,42
495.0004,495.4865,41,100,42
495.55594,497.70874,46,100,42
497.77817,498.01892,39,100,42
498.05597,498.2967,46,100,42
498.33374,499.68558,51,100,42
499.72263,499.96335,46,100,42
500.0004,500.24115,39,100,42
500.27817,500.51892,46,100,42
500.55597,501.9078,51,100,42
501.94485,502.18558,46,100,42
502.22263,502.46338,39,100,42
502.5004,502.74115,46,100,42
502.77817,504.13004,51,100,42
504.16708,504.4078,46,100,42
504.44485,504.68558,39,100,42
504.72263,504.96338,46,100,42
505.0004,506.35226,51,100,42
506.38928,506.63004,46,100,42
506.66708,506.9078,39,100,42
506.94485,507.18558,46,100,42
507.22263,508.5745,51,100,42
508.6115,508.85226,46,100,42
508.88928,509.93097,51,100,42
510.0004,511.04208,46,100,42
511.1115,511.35226,41,100,42
511.3893,511.63004,44,100,42
511.66708,511.9078,49,100,42
511.94485,512.1856,53,100,42
512.22266,513.2643,38,100,42
513.33374,515.4865,36,100,42
515.55597,517.70874,48,100,42
517.7782,518.2643,36,100,42
518.33374,519.93097,48,100,42
520.0004,520.4865,36,100,42
520.55597,522.1532,48,100,42
522.22266,523.2643,48,100,42
523.33374,524.3754,47,100,42
524.4449,525.4865,46,100,42
525.55597,526.59766,44,100,42
526.6671,527.70874,43,100,42
527.7782,528.2643,40,100,42
528.33374,528.8199,48,100,42
528.8893,529.93097,41,100,42
530.0004,531.0421,46,100,42
531.1115,532.1532,47,100,42
532.22266,533.26434,42,100,42
533.33374,534.3754,43,100,42
534.4449,534.93097,44,100,42
535.0004,537.70874,48,100,42
537.7782,538.8199,41,100,42
538.88934,539.93097,46,100,42
540.0004,542.70874,46,100,42
544.4449,544.6856,39,100,42
544.72266,544.9634,46,100,42
545.0004,546.3523,51,100,42
546.38934,546.63007,46,100,42
546.6671,546.90784,39,100,42
546.9449,547.1856,46,100,42
547.22266,548.5745,51,100,42
548.6116,548.8523,46,100,42
548.88934,549.13007,39,100,42
549.1671,549.40784,46,100,42
549.4449,550.79675,51,100,42
550.8338,551.0745,46,100,42
551.1116,551.3523,39,100,42
551.38934,551.63007,46,100,42
551.6671,553.019,51,100,42
553.05597,553.29675,46,100,42
553.3338,553.5745,39,100,42
553.6116,553.8523,46,100,42
553.88934,555.2412,51,100,42
555.2782,555.519,46,100,42
555.556,555.79675,39,100,42
555.8338,556.0745,46,100,42
556.1116,557.4634,51,100,42
557.5004,557.7412,46,100,42
557.7782,558.019,39,100,42
558.056,558.29675,43,100,42
558.3338,558.5745,46,100,42
558.6116,558.8523,51,100,42
558.88934,559.13007,55,100,42
559.1671,559.931,58,100,42
560.0004,560.2412,39,100,42
560.2782,560.519,43,100,42
560.556,560.79675,46,100,42
560.8338,561.0745,51,100,42
561.1116,561.3523,55,100,42
561.38934,562.1532,58,100,42
562.22266,562.46344,43,100,42
562.5004,562.7412,48,100,42
562.7782,563.019,51,100,42
563.056,563.29675,55,100,42
563.3338,564.09766,60,100,42
564.1671,564.40784,55,100,42
564.4449,564.6856,43,100,42
564.72266,564.96344,48,100,42
565.0004,565.2412,51,100,42
565.27826,565.519,55,100,42
565.556,566.3199,60,100,42
566.38934,566.63007,55,100,42
566.6671,566.90784,60,100,42
566.9449,567.431,53,100,42
567.5004,567.7412,56,100,42
567.77826,568.5421,50,100,42
568.6116,568.8523,53,100,42
568.88934,569.65326,47,100,42
569.72266,569.96344,50,100,42
570.0004,570.76434,44,100,42
570.8338,571.0745,47,100,42
571.1116,571.59766,41,100,42
571.6671,573.26434,40,100,42
573.3338,573.5745,39,100,42
573.6116,573.8523,43,100,42
573.88934,574.13007,46,100,42
574.1671,574.40784,51,100,42
574.4449,574.68567,52,100,42
574.72266,574.96344,55,100,42
575.0005,575.2412,58,100,42
575.27826,575.519,61,100,42
575.556,575.79675,62,100,42
575.8338,576.0745,59,100,42
576.1116,576.3523,56,100,42
576.38934,576.63007,53,100,42
576.6671,576.9079,50,100,42
576.9449,577.18567,47,100,42
577.22266,577.46344,44,100,42
577.5005,577.7412,41,100,42
577.77826,582.15326,39,100,42
582.2227,584.3755,39,100,42
584.4449,586.5977,39,100,42
586.6671,587.15326,39,100,42
589.44495,590.4866,63,100,42
591.6671,592.15326,55,100,42
593.88934,594.931,51,100,42
595.0005,595.4866,51,100,42
595.556,596.5977,51,100,42
596.6671,597.7088,39,100,42
597.77826,599.931,39,100,42
