start_time,end_time,note_value,velocity,instrument_program_number
0.488095,1.1825387,60,49,40
0.964285,1.6587287,62,49,40
1.440475,2.1349187,63,49,40
1.916665,2.2738075,58,49,40
2.15476,2.2738075,58,49,40
2.2738075,2.392855,61,49,40
2.392855,2.4871008,60,49,40
2.63095,2.725196,58,49,40
2.869045,3.345235,56,55,40
3.345235,3.821425,55,49,40
3.821425,4.2876945,58,49,40
4.05952,4.297615,63,49,40
4.297615,4.753964,60,49,40
4.773805,5.2301536,62,49,40
5.249995,5.96428,63,49,40
5.96428,6.078367,63,49,40
6.0833273,6.202375,72,49,40
6.202375,6.296621,70,49,40
6.44047,6.4851127,69,49,40
6.5595174,6.6041603,67,49,40
6.678565,7.154755,66,55,40
7.154755,7.630945,58,49,40
7.154755,7.630945,62,49,40
8.107135,8.8015785,60,49,40
8.583325,9.277769,62,49,40
9.059515,9.753959,63,49,40
9.535705,9.892847,58,49,40
9.7738,9.892847,58,49,40
9.892847,10.011895,61,49,40
10.011895,10.106141,60,49,40
10.24999,10.344236,58,49,40
10.488085,10.964275,56,55,40
10.964275,11.440465,55,49,40
11.440465,11.906734,58,49,40
11.67856,11.916655,63,49,40
11.916655,12.373004,60,49,40
12.392845,12.849194,62,49,40
12.869035,13.58332,63,49,40
13.58332,13.697407,63,49,40
13.702368,13.821415,72,49,40
13.821415,13.915661,70,49,40
14.05951,14.104153,69,49,40
14.178557,14.2232,67,49,40
14.297605,14.773795,66,55,40
14.773795,15.249985,58,49,40
14.773795,15.249985,62,49,40
15.48808,15.532722,67,49,40
15.607127,15.651771,68,49,40
15.726175,15.96427,70,49,40
15.96427,16.44046,70,49,40
16.44046,16.678555,64,49,40
16.678555,16.91665,67,49,40
16.91665,17.39284,65,55,40
17.39284,17.511887,67,49,40
17.511887,17.630936,68,49,40
17.630936,17.86903,70,49,40
17.86903,18.34522,70,55,40
18.34522,18.583315,64,49,40
18.583315,18.82141,67,49,40
18.82141,19.2976,65,55,40
19.2976,19.416647,65,49,40
19.416647,19.535694,67,49,40
19.535694,19.77379,68,49,40
19.77379,20.24998,68,49,40
20.24998,20.488075,62,49,40
20.488075,20.72617,65,49,40
20.72617,21.20236,63,55,40
21.20236,21.321407,65,49,40
21.321407,21.440454,67,49,40
21.440454,21.67855,68,49,40
21.67855,22.15474,68,55,40
22.15474,22.392836,62,49,40
22.392836,22.63093,65,49,40
22.63093,23.10712,63,49,40
23.10712,23.226168,65,49,40
23.226168,23.345215,67,49,40
23.345215,23.464262,68,49,40
23.464262,23.58331,67,49,40
23.58331,23.702358,65,49,40
24.0595,24.178547,65,49,40
24.178547,24.297594,67,49,40
24.297594,24.416643,68,49,40
24.416643,24.53569,67,49,40
24.53569,24.654737,65,49,40
25.01188,25.130928,65,49,40
25.130928,25.249975,67,49,40
25.249975,25.369022,68,49,40
25.369022,25.48807,67,49,40
25.48807,25.607117,65,49,40
25.607117,25.726166,62,49,40
25.726166,25.845213,68,49,40
25.845213,25.96426,67,49,40
25.96426,26.083307,65,49,40
26.083307,26.202354,62,49,40
26.202354,26.321402,68,49,40
26.321402,26.44045,67,49,40
26.44045,26.559498,65,49,40
26.559498,26.678545,62,49,40
26.678545,26.797592,68,49,40
26.797592,26.91664,67,49,40
26.91664,27.035688,65,49,40
27.035688,27.154736,62,49,40
27.154736,27.630924,68,49,40
27.630924,29.29759,62,49,40
30.964254,31.440445,72,49,40
31.440445,31.67854,74,49,40
31.67854,31.916636,75,49,40
31.916636,32.15473,75,49,40
32.15473,32.392826,70,49,40
32.392826,32.63092,67,49,40
32.63092,32.869015,63,49,40
32.869015,33.10711,60,49,40
33.10711,33.345203,62,49,40
33.345203,33.5833,65,55,40
33.5833,33.702347,63,49,40
33.702347,33.821396,62,49,40
33.821396,34.05949,63,49,40
34.05949,34.297585,65,49,40
34.297585,34.53568,67,49,40
34.53568,34.773773,70,49,40
34.773773,35.01187,60,49,40
35.01187,35.249966,62,49,40
35.249966,35.48806,65,49,40
35.48806,35.60711,63,49,40
35.60711,35.726154,62,49,40
35.726154,35.96425,63,49,40
35.96425,36.202347,65,49,40
36.202347,36.44044,58,49,40
36.44044,36.678535,70,49,40
36.678535,36.91663,60,49,40
36.91663,37.154724,62,49,40
37.154724,37.39282,65,49,40
37.39282,37.511868,63,49,40
37.511868,37.630917,62,49,40
37.630917,37.86901,63,49,40
37.86901,38.107105,65,49,40
38.107105,38.3452,58,49,40
38.3452,38.389843,75,75,40
38.46425,38.508892,79,75,40
38.583294,38.82139,77,75,40
38.82139,39.059486,75,75,40
39.059486,39.29758,73,75,40
39.29758,39.535675,75,75,40
39.535675,39.77377,72,75,40
39.77377,40.011864,75,75,40
40.011864,40.24996,72,75,40
40.24996,40.488056,68,75,40
40.488056,40.72615,77,75,40
40.72615,40.964245,75,75,40
40.964245,41.20234,73,75,40
41.20234,41.440434,75,75,40
41.440434,41.67853,72,75,40
41.67853,41.916626,75,75,40
41.916626,42.15472,72,75,40
42.15472,42.199364,77,75,40
42.27377,42.31841,79,75,40
42.392815,42.511864,80,75,40
42.511864,42.63091,77,75,40
42.63091,42.749958,74,75,40
42.749958,42.869003,72,75,40
42.869003,42.988052,68,75,40
42.988052,43.1071,67,75,40
43.1071,43.226147,65,75,40
43.226147,43.345196,72,75,40
43.345196,43.43944,70,75,40
43.58329,44.05948,67,81,40
44.05948,44.104122,67,75,40
44.178528,44.22317,70,75,40
44.297577,44.391823,72,75,40
44.53567,44.629917,70,75,40
44.773766,45.249954,68,81,40
45.249954,45.48805,67,75,40
50.011856,50.1309,75,49,40
50.1309,50.24995,74,49,40
50.24995,50.368996,75,49,40
50.368996,50.488045,74,49,40
50.488045,50.72614,75,49,40
50.72614,50.820385,70,49,40
50.964233,51.05848,72,49,40
51.20233,51.296577,74,49,40
51.440426,51.53467,75,49,40
51.67852,51.772766,70,49,40
51.916615,52.01086,72,49,40
52.15471,52.248955,74,49,40
52.392803,52.48705,75,49,40
52.6309,52.725147,70,49,40
52.868996,53.345184,74,36,40
53.345184,53.821377,74,36,40
53.821377,54.297565,74,36,40
54.773754,55.48804,79,36,40
55.48804,55.726135,80,36,40
55.726135,56.44042,79,36,40
56.44042,56.678516,80,36,40
56.678516,57.3928,79,36,40
57.3928,57.630894,77,36,40
57.630894,58.34518,75,36,40
58.34518,58.583275,74,36,40
58.583275,59.29756,72,36,40
59.29756,59.535656,73,36,40
59.535656,60.24994,72,36,40
60.24994,60.488033,73,36,40
60.488033,60.964226,72,36,40
60.964226,61.440414,68,36,40
61.440414,61.916607,70,36,40
61.916607,62.392796,72,36,40
62.392796,62.51184,70,36,40
62.51184,62.63089,69,36,40
62.63089,62.74994,70,36,40
62.74994,62.868984,69,36,40
62.868984,63.10708,70,36,40
63.10708,63.201324,65,36,40
63.345177,63.439423,70,36,40
63.58327,63.677517,72,36,40
63.821365,63.91561,74,36,40
64.05946,64.15371,65,36,40
64.297554,64.3918,70,36,40
64.53565,64.6299,72,36,40
64.77374,64.86799,74,36,40
65.01184,65.10609,65,36,40
65.24993,65.36898,72,36,40
65.36898,65.48803,71,36,40
65.48803,65.60708,72,36,40
65.60708,65.72613,71,36,40
65.72613,65.96422,72,36,40
65.96422,66.058464,65,36,40
66.20232,66.29656,72,36,40
66.44041,66.53465,74,36,40
66.678505,66.77275,75,36,40
66.9166,67.01085,65,36,40
67.15469,67.24894,72,36,40
67.39279,67.48704,74,36,40
67.63088,67.72513,75,36,40
67.86898,67.96323,65,36,40
68.10708,68.22612,74,36,40
68.22612,68.34517,73,36,40
68.34517,68.46422,74,36,40
68.46422,68.58327,73,36,40
68.58327,68.82136,74,36,40
68.82136,68.9156,70,36,40
69.059456,69.1537,74,36,40
69.29755,69.39179,75,36,40
69.535645,69.62989,77,36,40
69.77374,69.86799,74,36,40
70.01183,70.10608,75,36,40
70.24993,70.34418,77,36,40
70.48802,70.58227,79,36,40
70.72612,70.820366,75,36,40
70.96422,71.20231,77,36,40
71.20231,71.44041,79,36,40
71.44041,71.6785,81,36,40
71.6785,71.916595,77,36,40
71.916595,72.392784,77,42,40
72.392784,72.48703,77,36,40
72.63088,72.72513,74,36,40
72.86897,72.96322,70,36,40
73.10707,73.20132,72,36,40
73.34516,73.43941,74,36,40
73.58326,73.677505,70,36,40
73.82136,73.9156,67,36,40
74.05945,74.153694,69,36,40
74.29755,74.39179,70,36,40
74.53564,74.62988,67,36,40
74.773735,74.86798,63,36,40
75.01183,75.10608,65,36,40
75.24992,75.34417,67,36,40
75.48802,75.58227,63,36,40
75.72611,75.96421,60,42,40
75.96421,76.20231,62,36,40
76.20231,76.4404,63,36,40
76.4404,76.6785,69,36,40
76.6785,76.79754,70,36,40
76.79754,76.91659,69,36,40
76.91659,77.03564,70,36,40
77.03564,77.154686,69,36,40
77.154686,77.39278,70,36,40
77.39278,77.48702,65,36,40
77.630875,77.72512,70,36,40
77.86897,77.96322,72,36,40
78.10706,78.20131,74,36,40
78.34516,78.43941,65,36,40
78.58325,78.6775,70,36,40
78.82135,78.915596,72,36,40
79.05945,79.153694,74,36,40
79.29754,79.391785,65,36,40
79.53564,79.654686,71,36,40
79.654686,79.77373,70,36,40
79.77373,79.89278,71,36,40
79.89278,80.011826,70,36,40
80.011826,80.24992,71,36,40
80.24992,80.34417,70,36,40
80.488014,80.58226,71,36,40
80.72611,80.82036,74,36,40
80.9642,81.05845,75,36,40
81.2023,81.29655,70,36,40
81.44039,81.53464,71,36,40
81.67849,81.772736,74,36,40
81.91659,82.01083,75,36,40
82.15468,82.248924,71,36,40
82.39278,82.48702,71,36,40
82.63087,82.72511,75,36,40
82.868965,82.96321,77,36,40
83.10706,83.20131,71,36,40
83.34515,83.4394,71,36,40
83.58325,83.6775,75,36,40
83.82134,83.91559,77,36,40
84.05944,84.15369,71,36,40
84.29754,84.391785,70,36,40
84.53563,84.629875,73,36,40
84.77373,84.86797,78,36,40
85.01182,85.106064,70,36,40
85.249916,85.34416,70,36,40
85.48801,85.58225,73,36,40
85.726105,85.82035,78,36,40
85.9642,86.05845,70,36,40
86.20229,86.44039,74,36,40
86.44039,86.67848,80,36,40
86.67848,86.91658,82,36,40
86.91658,87.15468,74,36,40
88.107056,88.583244,60,49,40
88.583244,89.05943,62,49,40
89.05943,89.53562,63,49,40
89.53562,89.77372,58,49,40
89.77372,89.89277,58,49,40
89.89277,90.01182,61,49,40
90.01182,90.106064,60,49,40
90.24991,90.344154,58,49,40
90.48801,90.964195,56,49,40
90.964195,91.083244,55,49,40
91.083244,91.20229,58,49,40
91.20229,91.321335,63,49,40
91.321335,91.440384,67,49,40
91.440384,91.55943,70,49,40
91.55943,91.67848,75,49,40
91.67848,91.79753,77,88,40
91.79753,91.91657,79,88,40
91.91657,92.03562,80,88,40
92.03562,92.15467,77,88,40
92.15467,92.27372,74,88,40
92.27372,92.39276,72,88,40
92.39276,92.51181,71,88,40
92.51181,92.63086,68,88,40
92.63086,92.74991,67,88,40
92.74991,92.86896,77,88,40
92.86896,93.345146,75,88,40
93.345146,93.58324,72,88,40
93.58324,93.67748,84,88,40
93.821335,94.05943,84,88,40
94.05943,94.178474,83,88,40
94.178474,94.29752,85,88,40
94.29752,95.01181,84,88,40
95.01181,95.13086,83,88,40
95.13086,95.24991,85,88,40
95.24991,95.96419,84,88,40
95.96419,96.08324,83,88,40
96.08324,96.202286,85,88,40
96.202286,96.44038,84,88,40
96.44038,96.559425,79,88,40
96.559425,96.678474,82,88,40
96.678474,96.91657,80,88,40
96.91657,97.035614,76,88,40
97.035614,97.15466,79,88,40
97.15466,97.86895,77,88,40
98.34514,98.82133,72,88,40
98.82133,99.29752,67,88,40
99.535614,99.77371,67,88,40
99.77371,100.2499,67,88,40
100.2499,100.48799,67,88,40
100.48799,100.72609,67,49,40
100.72609,100.96419,69,49,40
100.96419,101.20228,70,49,40
101.20228,101.32133,69,49,40
101.32133,101.44038,67,49,40
101.44038,101.916565,69,49,40
101.916565,102.39275,74,49,40
102.39275,102.86894,67,49,40
102.86894,103.34514,69,49,40
103.34514,103.82133,65,49,40
103.82133,104.297516,62,49,40
104.297516,104.53561,60,36,40
104.53561,104.773705,62,36,40
104.773705,105.0118,63,36,40
105.0118,105.130844,62,36,40
105.130844,105.24989,60,36,40
105.24989,105.72608,62,36,40
105.72608,106.20228,67,36,40
106.20228,106.67847,60,36,40
106.67847,107.154655,62,36,40
107.154655,107.630844,58,36,40
107.630844,108.10703,55,36,40
108.10703,108.58322,63,36,40
108.58322,109.05942,62,36,40
109.05942,109.53561,75,36,40
109.53561,110.48798,74,36,40
110.48798,110.96417,72,36,40
110.96417,111.44037,69,42,40
111.44037,114.29751,70,36,40
114.29751,114.7737,69,36,40
114.7737,115.249886,65,36,40
115.249886,115.726074,62,36,40
115.726074,115.96417,63,36,40
115.96417,116.20226,70,36,40
116.20226,116.44036,69,36,40
116.44036,116.67845,67,36,40
116.67845,116.91655,65,36,40
116.91655,117.15465,63,36,40
117.15465,117.39274,62,36,40
117.39274,117.63084,65,36,40
117.63084,117.86893,63,36,40
117.86893,118.107025,70,36,40
118.107025,118.34512,69,36,40
118.34512,118.58321,67,36,40
118.58321,118.82131,65,36,40
118.82131,119.0594,63,36,40
119.0594,119.2975,62,36,40
119.2975,119.5356,65,36,40
119.5356,119.77369,70,36,40
119.77369,120.01179,66,36,40
120.01179,120.24988,72,36,40
120.24988,120.487976,68,36,40
120.487976,121.44035,65,36,40
121.44035,121.67845,70,36,40
121.67845,121.91654,66,36,40
121.91654,122.15464,72,36,40
122.15464,122.39274,68,36,40
122.39274,123.345116,65,36,40
123.345116,127.15463,65,36,40
127.15463,127.39273,69,36,40
127.39273,127.63082,70,36,40
127.63082,127.86892,72,36,40
127.86892,127.98797,70,36,40
127.98797,128.10701,69,36,40
128.10701,128.34511,69,36,40
128.34511,128.5832,70,36,40
128.5832,128.8213,72,36,40
128.8213,128.94035,70,36,40
128.94035,129.0594,69,36,40
129.0594,129.29749,69,36,40
129.29749,129.53558,70,36,40
129.53558,129.77368,72,36,40
129.77368,129.89273,70,36,40
129.89273,130.01178,69,36,40
130.01178,130.24986,69,36,40
130.24986,130.48796,70,36,40
130.48796,130.72606,72,36,40
130.72606,130.84511,70,36,40
130.84511,130.96416,69,36,40
130.96416,131.20226,67,36,40
138.58319,138.82129,67,36,40
142.39272,142.48695,72,88,40
142.63081,142.72505,74,88,40
142.86891,143.107,75,88,40
143.107,143.22604,74,88,40
143.22604,143.3451,72,88,40
143.3451,143.82129,74,88,40
143.82129,144.29747,79,88,40
144.29747,144.77367,72,88,40
144.77367,145.24985,74,88,40
145.24985,145.72604,70,88,40
145.72604,146.20224,67,88,40
146.20224,146.32129,72,88,40
146.32129,146.44032,75,88,40
146.44032,146.55937,72,88,40
146.55937,146.67842,70,88,40
146.67842,146.79747,69,88,40
146.79747,146.91652,67,88,40
146.91652,147.03557,66,88,40
147.03557,147.15462,62,88,40
147.15462,147.27367,67,88,40
147.27367,147.39272,69,88,40
147.39272,147.51176,70,88,40
147.51176,147.6308,69,88,40
147.6308,147.74985,70,88,40
147.74985,147.8689,72,88,40
147.8689,147.98795,74,88,40
147.98795,148.107,79,88,40
148.107,148.58319,79,88,40
148.58319,148.70224,78,88,40
148.70224,148.82127,79,88,40
148.82127,148.94032,81,88,40
148.94032,149.05937,84,88,40
149.05937,149.29747,82,94,40
149.29747,149.53557,84,94,40
149.53557,149.77367,86,94,40
149.77367,149.8679,74,88,40
150.01175,150.1308,75,88,40
150.1308,150.24985,78,88,40
150.24985,150.3689,75,88,40
150.3689,150.48795,74,88,40
150.48795,150.607,72,88,40
150.607,150.72604,70,88,40
150.72604,150.8451,69,88,40
150.8451,150.96414,65,88,40
150.96414,151.08318,70,88,40
151.08318,151.20222,72,88,40
151.20222,151.32127,74,88,40
151.32127,151.44032,72,88,40
151.44032,151.55937,74,88,40
151.55937,151.67842,75,88,40
151.67842,151.79747,77,88,40
151.79747,151.91652,82,88,40
151.91652,152.3927,70,88,40
152.3927,152.51175,69,88,40
152.51175,152.6308,70,88,40
152.6308,152.74985,72,88,40
152.74985,152.8689,75,88,40
152.8689,153.107,74,94,40
153.107,153.34508,75,94,40
153.34508,153.58318,77,94,40
153.58318,153.67743,74,88,40
153.82127,154.29747,78,94,40
154.29747,154.53555,77,88,40
154.53555,154.77365,75,88,40
154.77365,155.24985,75,94,40
155.24985,155.48795,74,88,40
155.48795,155.72603,72,88,40
155.72603,156.20222,66,94,40
156.20222,156.44032,65,88,40
156.44032,156.67842,63,88,40
156.67842,157.1546,63,94,40
157.1546,157.3927,65,88,40
157.3927,157.6308,66,88,40
157.57127,157.6308,67,88,40
157.6308,158.10698,70,94,40
158.10698,158.34508,69,88,40
158.34508,158.58318,67,88,40
158.58318,159.05937,74,94,40
159.05937,159.29745,72,88,40
159.29745,159.53555,70,88,40
159.53555,160.01175,82,94,40
160.01175,160.24985,81,88,40
160.24985,160.48793,79,88,40
160.48793,160.96413,85,94,40
160.96413,161.20222,84,88,40
161.20222,161.4403,82,88,40
161.4403,161.6784,81,94,40
161.6784,161.9165,82,88,40
161.9165,162.1546,84,88,40
162.1546,162.27365,82,88,40
162.27365,162.3927,81,88,40
162.3927,162.86888,82,88,40
162.86888,163.34508,86,88,40
163.34508,163.82126,79,88,40
163.82126,164.29745,81,88,40
164.29745,164.77365,77,88,40
164.77365,165.24983,74,88,40
165.24983,165.48793,72,88,40
165.48793,165.72603,74,88,40
165.72603,165.96413,75,88,40
165.96413,166.08316,74,88,40
166.08316,166.20221,72,88,40
166.20221,166.6784,74,88,40
166.6784,167.1546,79,88,40
167.1546,167.63078,72,88,40
167.63078,168.10698,74,88,40
168.10698,168.58316,70,88,40
168.58316,169.05936,65,88,40
169.05936,169.53554,72,88,40
169.53554,170.01173,74,88,40
170.01173,170.48793,70,88,40
170.48793,170.96411,65,88,40
170.96411,171.08316,65,88,40
171.08316,171.20221,67,88,40
171.20221,171.32126,69,88,40
171.32126,171.4403,67,88,40
171.4403,171.55936,65,88,40
171.55936,171.6784,67,88,40
171.6784,171.79745,69,88,40
171.79745,171.91649,72,88,40
171.91649,172.03554,65,88,40
172.03554,172.15459,67,88,40
172.15459,172.27364,69,88,40
172.27364,172.39268,67,88,40
172.39268,172.51173,65,88,40
172.51173,172.63078,67,88,40
172.63078,172.74983,69,88,40
172.74983,172.86888,72,88,40
172.86888,172.98792,65,88,40
172.98792,173.10696,67,88,40
173.10696,173.22601,69,88,40
173.22601,173.34506,72,88,40
173.34506,173.46411,69,88,40
173.46411,173.58316,70,88,40
173.58316,173.70221,72,88,40
173.70221,173.82126,75,88,40
173.82126,173.9403,65,88,40
173.9403,174.05936,67,88,40
174.05936,174.17839,69,88,40
174.17839,174.29744,72,88,40
174.29744,174.41649,69,88,40
174.41649,174.53554,70,88,40
174.53554,174.65459,72,88,40
174.65459,174.77364,75,88,40
174.77364,175.01173,74,88,40
175.01173,178.58316,65,88,40
178.58316,182.39267,62,88,40
182.39267,182.63077,67,88,40
183.34506,183.58315,73,94,40
184.29744,184.53552,70,94,40
184.53552,184.77362,72,88,40
184.77362,185.01172,74,88,40
185.01172,185.13077,72,88,40
185.13077,185.24982,70,88,40
185.24982,185.48792,78,88,40
190.01172,191.2022,63,49,40
191.2022,191.44029,62,49,40
191.44029,191.67838,58,49,40
191.67838,191.91647,65,49,40
191.91647,192.86885,57,49,40
192.86885,193.10695,58,49,40
193.10695,193.34505,65,49,40
193.34505,193.58315,62,49,40
193.58315,193.7022,60,49,40
193.7022,193.82123,62,49,40
193.82123,194.29742,63,49,40
194.29742,194.77362,72,49,40
194.77362,194.86786,72,49,40
195.0117,195.4879,70,55,40
195.4879,195.60695,65,49,40
195.60695,195.726,72,49,40
195.726,195.9641,72,49,40
195.9641,196.44028,70,49,40
196.44028,196.55933,65,49,40
196.55933,196.67838,72,49,40
196.67838,196.91647,72,49,40
196.91647,197.39265,70,49,40
197.39265,197.63075,65,49,40
197.63075,198.58313,65,49,40
198.58313,199.53552,66,49,40
199.53552,200.4879,65,49,40
200.4879,201.44028,66,49,40
201.44028,202.39265,59,49,40
202.39265,203.34503,58,49,40
203.34503,204.29741,59,49,40
204.29741,205.0117,58,49,40
205.0117,205.13075,73,49,40
205.13075,205.2498,73,49,40
205.2498,205.36884,74,49,40
205.36884,205.48788,73,49,40
205.48788,205.60693,71,49,40
205.60693,205.72598,69,49,40
205.72598,205.84503,68,49,40
205.84503,205.96408,71,49,40
205.96408,206.08313,74,49,40
206.08313,206.20218,78,49,40
206.20218,206.44028,76,49,40
206.44028,206.91646,73,55,40
206.91646,207.0355,73,49,40
207.0355,207.15456,76,49,40
207.15456,207.2488,74,49,40
207.39265,207.4869,73,49,40
207.63075,208.10693,71,55,40
208.10693,208.58313,69,49,40
208.82121,208.94026,69,49,40
208.94026,209.05931,73,49,40
209.05931,209.17836,74,49,40
209.17836,209.29741,73,49,40
209.29741,209.41646,71,49,40
209.41646,209.5355,69,49,40
209.5355,209.65456,68,49,40
209.65456,209.7736,71,49,40
209.7736,209.89265,74,49,40
209.89265,210.01169,78,49,40
210.01169,210.24979,76,49,40
210.24979,210.72598,73,55,40
210.72598,210.77063,71,49,40
210.84503,210.88966,73,49,40
210.96408,211.00871,74,49,40
211.08313,211.12776,72,49,40
211.20216,211.24681,71,49,40
211.32121,211.36586,69,49,40
211.44026,211.48491,67,49,40
211.55931,211.60396,71,49,40
211.67836,211.723,74,49,40
211.79741,211.84206,77,49,40
211.91646,212.0107,76,49,40
212.15456,212.63074,72,55,40
213.58311,213.70216,65,101,40
213.70216,213.82121,66,101,40
213.82121,213.94026,67,101,40
213.94026,214.05931,65,101,40
214.05931,214.17836,63,101,40
214.17836,214.29741,62,101,40
214.29741,214.41646,63,101,40
214.41646,214.5355,67,101,40
214.5355,214.65454,70,101,40
214.65454,214.77359,75,101,40
214.77359,214.86784,74,101,40
215.01169,215.48788,70,107,40
215.48788,215.60693,65,101,40
215.60693,215.72597,66,101,40
215.72597,215.84502,67,101,40
215.84502,215.96407,65,101,40
215.96407,216.08311,63,101,40
216.08311,216.20216,62,101,40
216.20216,216.32121,63,101,40
216.32121,216.44026,67,101,40
216.44026,216.55931,70,101,40
216.55931,216.67836,75,101,40
216.67836,216.7726,72,101,40
216.91644,217.39264,68,107,40
217.39264,217.51169,68,101,40
217.51169,217.63074,68,101,40
217.63074,217.72498,68,101,40
217.86884,218.34502,65,107,40
218.34502,218.46407,72,101,40
218.46407,218.58311,72,101,40
218.58311,218.67737,71,101,40
218.82121,219.2974,68,107,40
219.2974,219.41644,77,101,40
219.41644,219.53549,77,101,40
219.53549,219.62975,74,101,40
219.77359,220.24979,71,107,40
220.24979,220.36882,77,101,40
220.36882,220.48787,77,101,40
220.48787,220.60692,77,101,40
220.60692,220.72597,77,101,40
220.72597,220.84502,74,101,40
220.84502,220.96407,72,101,40
220.96407,221.08311,71,101,40
221.08311,221.20216,74,101,40
221.20216,221.32121,77,101,40
221.32121,221.44026,80,101,40
221.44026,221.5593,79,101,40
221.5593,221.67834,77,101,40
221.67834,221.7974,74,101,40
221.7974,221.91644,72,101,40
221.91644,222.03549,71,101,40
222.03549,222.15454,74,101,40
222.15454,222.27359,77,101,40
222.27359,222.39264,80,101,40
222.39264,222.63074,79,101,40
222.63074,223.10692,76,107,40
223.10692,223.22597,78,101,40
223.22597,223.34502,78,101,40
223.34502,223.58311,77,101,40
223.58311,224.0593,74,107,40
224.0593,224.17834,76,101,40
224.17834,224.2974,76,101,40
224.2974,224.53549,75,101,40
224.53549,224.65454,74,101,40
224.65454,224.77359,74,101,40
224.77359,225.01167,73,101,40
225.01167,225.13072,72,101,40
225.13072,225.24977,72,101,40
225.24977,225.48787,71,101,40
225.48787,225.60692,70,101,40
225.60692,225.72597,70,101,40
225.72597,225.96407,69,101,40
225.96407,226.08311,68,101,40
226.08311,226.20215,68,101,40
226.20215,226.44025,67,101,40
226.44025,226.5593,68,101,40
226.5593,226.67834,68,101,40
226.67834,226.91644,67,101,40
226.91644,227.03549,68,101,40
227.03549,227.15454,68,101,40
227.15454,227.39262,67,101,40
227.39262,227.51167,68,101,40
227.51167,227.63072,68,101,40
227.63072,227.86882,67,101,40
227.86882,227.98787,68,101,40
227.98787,228.10692,68,101,40
228.10692,228.34502,67,101,40
229.77357,229.81822,74,101,40
229.89262,229.93727,74,101,40
230.01167,230.13072,76,101,40
230.13072,230.24977,71,101,40
230.24977,230.36882,68,101,40
230.36882,230.48787,66,101,40
230.48787,230.72597,64,101,40
231.67834,231.72298,79,101,40
231.7974,231.84203,79,101,40
231.91643,232.03548,80,101,40
232.03548,232.15453,77,101,40
232.15453,232.27357,73,101,40
232.27357,232.39262,72,101,40
232.39262,232.63072,71,101,40
233.5831,233.70215,77,101,40
233.70215,233.8212,77,101,40
233.8212,233.94025,78,101,40
233.94025,234.0593,75,101,40
234.0593,234.17834,71,101,40
234.17834,234.29738,70,101,40
234.29738,234.53548,69,101,40
235.48785,235.6069,77,36,40
235.6069,235.72595,77,36,40
235.72595,235.845,79,36,40
235.845,235.96405,76,36,40
235.96405,236.0831,73,36,40
236.0831,236.20215,69,36,40
236.20215,236.3212,67,36,40
236.3212,236.44025,69,36,40
236.44025,236.55928,73,36,40
236.55928,236.67833,76,36,40
236.67833,236.79738,79,36,40
236.79738,236.91643,76,36,40
236.91643,237.03548,73,36,40
237.03548,237.15453,69,36,40
237.15453,237.27357,67,36,40
237.27357,237.39262,69,36,40
237.39262,237.51167,73,36,40
237.51167,237.63072,76,36,40
237.63072,237.74976,79,36,40
237.74976,237.8688,76,36,40
237.8688,237.98785,73,36,40
237.98785,238.1069,69,36,40
238.1069,238.5831,67,36,40
239.77357,239.8182,62,36,40
239.89262,239.93726,62,36,40
240.01166,240.1307,62,36,40
240.1307,240.24976,66,36,40
240.24976,240.3688,69,36,40
240.3688,240.48785,72,36,40
241.20213,241.24678,67,36,40
241.32118,241.36583,67,36,40
241.44023,241.55928,68,36,40
241.55928,241.67833,65,36,40
241.67833,241.79738,62,36,40
241.79738,241.91643,60,36,40
241.91643,242.8688,58,36,40
242.8688,243.345,68,36,40
244.29738,244.77356,60,49,40
244.77356,245.24976,62,49,40
245.24976,245.72595,63,49,40
245.72595,245.82019,58,49,40
245.96404,246.08308,58,49,40
246.08308,246.20213,61,49,40
246.20213,246.29639,60,49,40
246.44023,246.53447,58,49,40
246.67833,247.15451,56,55,40
247.15451,247.6307,55,49,40
247.6307,247.8688,58,49,40
247.8688,248.10689,63,49,40
248.10689,248.58308,60,49,40
248.58308,249.05928,62,49,40
249.05928,249.77356,63,49,40
249.77356,249.89261,63,49,40
249.89261,250.01166,72,49,40
250.01166,250.24976,70,55,40
250.24976,250.3688,69,49,40
250.3688,250.48784,67,49,40
250.48784,250.96404,66,49,40
250.96404,251.44023,62,49,40
251.67831,251.79736,67,49,40
251.79736,251.91641,68,49,40
251.91641,252.15451,70,49,40
252.15451,252.6307,70,55,40
252.6307,252.86879,64,49,40
252.86879,253.10689,67,49,40
253.10689,253.58308,65,55,40
253.58308,253.70213,67,49,40
253.70213,253.82118,68,49,40
253.82118,254.05927,70,49,40
254.05927,254.53546,70,55,40
254.53546,254.77356,64,49,40
254.77356,255.01164,67,49,40
255.01164,255.48784,65,55,40
255.48784,255.60689,65,49,40
255.60689,255.72594,67,49,40
255.72594,255.96404,68,49,40
255.96404,256.44022,68,55,40
256.44022,256.6783,62,49,40
256.6783,256.9164,65,49,40
256.9164,257.3926,63,55,40
257.3926,257.51166,65,49,40
257.51166,257.6307,67,49,40
257.6307,257.8688,68,49,40
257.8688,258.34497,68,55,40
258.34497,258.58307,62,49,40
258.58307,258.82117,65,49,40
258.82117,259.29736,63,55,40
259.29736,259.4164,65,49,40
259.4164,259.53546,67,49,40
259.53546,259.6545,68,49,40
259.6545,259.77356,67,49,40
259.77356,259.8926,65,49,40
260.24973,260.36877,65,49,40
260.36877,260.48782,67,49,40
260.48782,260.60687,68,49,40
260.60687,260.72592,67,49,40
260.72592,260.84497,65,49,40
261.20212,261.32117,65,49,40
261.32117,261.44022,67,49,40
261.44022,261.55927,68,49,40
261.55927,261.6783,67,49,40
261.6783,261.79736,65,49,40
261.79736,261.9164,62,49,40
261.9164,262.03546,68,49,40
262.03546,262.1545,67,49,40
262.1545,262.27356,65,49,40
262.27356,262.3926,62,49,40
262.3926,262.51166,68,49,40
262.51166,262.63068,67,49,40
262.63068,262.74973,65,49,40
262.74973,262.86877,62,49,40
262.86877,262.98782,68,49,40
262.98782,263.10687,67,49,40
263.10687,263.22592,65,49,40
263.22592,263.34497,62,49,40
263.34497,263.82117,68,49,40
263.82117,265.48782,62,49,40
267.15448,267.63068,72,49,40
267.63068,267.86877,74,49,40
267.86877,268.10687,77,49,40
268.10687,268.34497,75,49,40
268.34497,268.58307,70,49,40
268.58307,268.82117,67,49,40
268.82117,269.05927,63,49,40
269.05927,269.29736,60,49,40
269.29736,269.53543,62,49,40
269.53543,269.77353,65,49,40
269.77353,269.89258,63,49,40
269.89258,270.01163,62,49,40
270.01163,270.24973,63,49,40
270.24973,270.48782,65,49,40
270.48782,270.72592,67,49,40
270.72592,270.96402,70,49,40
270.96402,271.20212,60,49,40
271.20212,271.44022,62,49,40
271.44022,271.6783,65,49,40
271.6783,271.79733,63,49,40
271.79733,271.91638,62,49,40
271.91638,272.15448,63,49,40
272.15448,272.39258,65,49,40
272.39258,272.63068,58,49,40
272.63068,272.86877,70,49,40
272.86877,273.10687,60,49,40
273.10687,273.34497,62,49,40
273.34497,273.58307,65,49,40
273.58307,273.70212,63,49,40
273.70212,273.82117,62,49,40
273.82117,274.05927,63,49,40
274.05927,274.29733,65,49,40
274.29733,274.53543,58,49,40
274.53543,274.58008,75,49,40
274.65448,274.69913,79,49,40
274.77353,275.01163,77,49,40
275.01163,275.24973,75,49,40
275.24973,275.48782,73,49,40
275.48782,275.72592,75,49,40
275.72592,275.96402,72,49,40
275.96402,276.20212,75,49,40
276.20212,276.4402,72,49,40
276.4402,276.67828,68,49,40
276.67828,276.91638,77,49,40
276.91638,277.15448,75,49,40
277.15448,277.39258,73,49,40
277.39258,277.63068,75,49,40
277.63068,277.86877,72,49,40
277.86877,278.10687,75,49,40
278.10687,278.34497,72,49,40
278.34497,278.46402,80,49,40
278.46402,278.58307,82,49,40
278.58307,278.7021,84,49,40
278.7021,278.82114,80,49,40
278.82114,278.9402,77,49,40
278.9402,279.05923,75,49,40
279.05923,279.17828,74,49,40
279.17828,279.29733,72,49,40
279.29733,279.41638,71,49,40
279.41638,279.53543,80,49,40
279.53543,280.01163,79,49,40
280.01163,280.24973,72,49,40
280.24973,280.72592,84,49,40
280.72592,280.84497,83,49,40
280.84497,280.96402,85,49,40
280.96402,281.67828,84,49,40
281.67828,281.79733,83,49,40
281.79733,281.91638,85,49,40
281.91638,282.63068,84,49,40
282.63068,282.74973,83,49,40
282.74973,282.86877,85,49,40
282.86877,283.10687,84,49,40
283.10687,283.22592,79,49,40
283.22592,283.34494,82,49,40
283.34494,283.58304,80,49,40
283.58304,283.7021,76,49,40
283.7021,283.82114,79,49,40
283.82114,284.53543,77,49,40
285.01163,285.48782,72,49,40
285.48782,285.964,67,49,40
285.964,286.4402,67,49,40
286.4402,286.91638,67,49,40
286.91638,287.15448,67,49,40
287.15448,287.63068,67,49,40
287.63068,288.10684,72,49,40
288.10684,288.58304,70,49,40
288.58304,289.05923,67,49,40
289.05923,289.53543,63,49,40
289.53543,289.77353,65,49,40
289.77353,290.01163,68,49,40
290.01163,290.4878,67,49,40
290.4878,290.964,63,49,40
290.964,291.4402,65,49,40
291.4402,291.91638,72,49,40
291.91638,292.39258,71,49,40
292.39258,292.86874,75,49,40
292.86874,293.10684,74,49,40
293.10684,293.34494,72,49,40
293.34494,293.82114,71,49,40
293.82114,295.2497,72,49,40
295.2497,296.2021,79,49,40
296.2021,296.67828,74,49,40
296.67828,296.91638,77,49,40
296.91638,297.15448,80,49,40
297.15448,297.39255,79,49,40
297.39255,297.63065,77,49,40
297.63065,297.86874,75,49,40
297.86874,298.10684,77,49,40
298.10684,298.34494,79,49,40
298.34494,298.464,80,49,40
298.464,298.58304,82,49,40
298.58304,298.82114,80,49,40
298.82114,299.05923,79,49,40
299.05923,299.29733,77,49,40
299.29733,299.7735,84,49,40
299.7735,299.89255,82,49,40
299.89255,300.0116,80,49,40
300.0116,300.4878,79,49,40
300.4878,300.7259,77,49,40
300.7259,300.964,72,49,40
300.964,301.2021,79,49,40
301.2021,301.4402,74,49,40
301.4402,301.67828,75,49,40
301.67828,301.91635,70,49,40
301.91635,302.15445,82,49,40
302.15445,302.39255,79,49,40
302.39255,302.63065,77,49,40
302.63065,302.86874,72,49,40
302.86874,303.10684,79,49,40
303.10684,303.34494,74,49,40
303.34494,303.58304,75,49,40
303.58304,303.82114,70,49,40
303.82114,304.05923,82,49,40
304.05923,304.2973,79,49,40
304.2973,304.5354,80,49,40
304.5354,304.7735,75,49,40
304.7735,305.0116,82,49,40
305.0116,305.2497,77,49,40
305.2497,305.4878,78,49,40
305.4878,305.7259,73,49,40
305.7259,305.964,85,49,40
305.964,306.2021,82,49,40
306.2021,306.44016,80,49,40
306.44016,306.67825,75,49,40
306.67825,306.91635,82,49,40
306.91635,307.15445,77,49,40
307.15445,307.39255,78,49,40
307.39255,307.63065,73,49,40
307.63065,307.86874,85,49,40
307.86874,308.10684,82,49,40
308.10684,308.34494,78,49,40
308.34494,308.58304,73,49,40
308.58304,308.8211,85,49,40
308.8211,309.0592,82,49,40
309.0592,309.2973,78,49,40
309.2973,309.5354,73,49,40
309.5354,309.7735,85,49,40
309.7735,310.0116,82,49,40
310.0116,310.2497,78,49,40
310.2497,310.4878,73,49,40
310.4878,310.7259,85,49,40
310.7259,310.964,82,49,40
310.964,311.20206,78,49,40
311.20206,311.44016,73,49,40
311.44016,311.67825,85,49,40
311.67825,311.91635,82,49,40
311.91635,312.15445,80,49,40
312.15445,312.39255,74,49,40
312.39255,312.63065,86,49,40
312.63065,312.86874,82,49,40
312.86874,313.10684,80,49,40
313.10684,313.34494,74,49,40
313.34494,313.583,86,49,40
313.583,313.8211,82,49,40
313.8211,314.0592,80,49,40
314.0592,314.2973,74,49,40
314.2973,314.5354,86,49,40
314.5354,314.7735,82,49,40
314.7735,315.0116,80,49,40
315.0116,315.2497,74,49,40
315.2497,315.4878,86,49,40
315.4878,315.72586,82,49,40
318.583,318.8211,63,55,40
318.8211,319.0592,65,55,40
319.0592,319.2973,67,49,40
319.2973,319.41635,65,49,40
319.41635,319.5354,63,49,40
319.5354,320.0116,65,49,40
320.0116,320.48776,70,49,40
320.48776,320.72586,63,55,40
320.72586,320.96396,65,55,40
320.96396,321.20206,67,49,40
321.20206,321.3211,65,49,40
321.3211,321.44016,63,49,40
321.44016,321.91635,65,49,40
321.91635,322.39255,70,49,40
322.39255,322.5116,66,55,40
322.5116,322.6306,66,49,40
322.6306,322.74966,66,49,40
322.74966,322.8687,66,49,40
322.8687,322.98776,66,49,40
322.98776,323.1068,66,49,40
323.1068,323.22586,66,49,40
323.22586,323.3449,66,49,40
323.3449,323.46396,56,55,40
323.3449,323.46396,65,55,40
323.46396,323.583,56,49,40
323.46396,323.583,65,49,40
323.583,323.70206,56,49,40
323.583,323.70206,65,49,40
323.70206,323.8211,56,49,40
323.70206,323.8211,65,49,40
323.8211,323.94016,56,49,40
323.8211,323.94016,65,49,40
323.94016,324.0592,56,49,40
323.94016,324.0592,65,49,40
324.0592,324.17825,56,49,40
324.0592,324.17825,65,49,40
324.17825,324.2973,56,49,40
324.17825,324.2973,65,49,40
324.2973,324.41635,61,55,40
324.41635,324.5354,61,49,40
324.5354,324.65445,61,49,40
324.65445,324.7735,61,49,40
324.7735,324.89255,61,49,40
324.89255,325.01157,61,49,40
325.01157,325.1306,61,49,40
325.1306,325.24966,61,49,40
325.19016,325.24966,60,49,40
325.24966,325.48776,68,49,40
325.48776,325.72586,70,49,40
325.72586,325.96396,72,55,40
325.96396,326.083,70,49,40
326.083,326.20206,68,49,40
326.20206,326.44016,68,49,40
326.44016,326.67825,67,49,40
326.67825,326.91635,68,55,40
326.91635,327.0354,67,49,40
327.0354,327.15445,65,49,40
327.15445,327.39252,65,49,40
327.39252,327.6306,63,49,40
327.6306,327.8687,65,55,40
327.8687,327.98776,63,49,40
327.98776,328.1068,61,49,40
328.1068,328.3449,61,49,40
328.3449,328.583,60,49,40
328.583,328.8211,61,55,40
328.8211,328.94016,60,49,40
328.94016,329.0592,58,49,40
329.0592,329.2973,58,49,40
329.2973,329.53537,57,49,40
329.53537,329.77347,61,55,40
329.77347,329.89252,60,49,40
329.89252,330.01157,58,49,40
330.01157,330.24966,58,49,40
330.24966,330.48776,57,49,40
330.48776,330.72586,61,55,40
330.72586,330.8449,60,49,40
330.8449,330.96396,58,49,40
330.96396,331.20206,58,49,40
331.20206,331.44016,57,49,40
331.44016,331.67825,61,49,40
331.67825,331.91632,60,49,40
331.91632,332.15442,58,49,40
332.15442,332.39252,57,49,40
332.39252,332.6306,61,49,40
332.6306,332.8687,60,49,40
332.8687,333.1068,58,49,40
333.1068,333.3449,70,49,40
333.3449,333.583,69,49,40
333.583,334.0592,57,49,40
334.0592,334.29727,69,49,40
334.29727,334.53537,68,49,40
334.53537,335.01157,56,49,40
335.01157,335.24966,68,49,40
335.24966,335.48776,67,49,40
335.48776,335.96396,55,49,40
335.96396,336.20206,67,49,40
336.20206,338.583,66,49,40
338.583,338.70206,66,49,40
338.70206,338.82108,66,49,40
338.82108,338.94012,66,49,40
338.94012,339.05917,66,49,40
339.05917,339.17822,66,49,40
339.17822,339.29727,66,49,40
339.29727,339.41632,66,49,40
339.41632,339.53537,66,49,40
339.53537,339.65442,66,49,40
339.65442,339.77347,66,49,40
339.77347,339.89252,66,49,40
339.89252,340.01157,66,49,40
340.01157,340.1306,66,49,40
340.1306,340.24966,66,49,40
340.24966,340.3687,66,49,40
340.3687,340.48776,66,49,40
343.3449,343.38953,62,49,40
343.46393,343.50858,75,49,40
343.58298,343.62762,74,49,40
343.70203,343.74667,62,49,40
343.82108,343.86572,62,49,40
343.94012,343.98477,75,49,40
344.05917,344.10382,74,49,40
344.17822,344.22287,62,49,40
344.29727,344.34192,62,49,40
344.41632,344.46097,75,49,40
344.53537,344.58002,74,49,40
344.65442,344.69907,62,49,40
344.77347,344.8181,62,49,40
344.89252,344.93716,75,49,40
345.01157,345.0562,74,49,40
345.1306,345.17526,62,49,40
345.24966,345.2943,62,49,40
345.3687,345.41333,75,49,40
345.48776,345.53238,74,49,40
345.6068,345.65143,62,49,40
345.72583,345.77048,62,49,40
345.84488,345.88953,75,49,40
345.96393,346.00858,74,49,40
346.08298,346.12762,62,49,40
346.20203,346.44012,56,49,40
346.20203,346.44012,62,49,40
348.10678,348.34488,62,49,40
348.34488,348.58298,65,49,40
348.58298,348.82108,68,49,40
348.82108,349.05917,69,49,40
349.05917,349.29727,70,49,40
349.29727,349.53537,74,49,40
349.53537,349.77347,77,49,40
349.77347,350.01157,82,49,40
350.01157,350.24966,75,49,40
354.05917,354.29727,75,49,40
354.29727,354.53537,79,49,40
354.53537,354.65442,77,49,40
354.65442,354.77347,75,49,40
354.77347,355.24963,77,49,40
355.24963,355.72583,82,49,40
355.72583,356.20203,75,49,40
356.20203,356.67822,79,49,40
356.67822,357.15442,77,49,40
357.15442,357.63058,74,49,40
357.63058,358.10678,75,49,40
358.10678,358.58298,79,49,40
358.58298,359.05917,77,49,40
359.05917,359.53537,74,49,40
359.53537,359.6544,75,49,40
359.6544,359.77344,75,49,40
359.77344,359.8925,67,49,40
359.8925,360.01154,67,49,40
360.01154,360.13058,72,49,40
360.13058,360.24963,72,49,40
360.24963,360.36868,70,49,40
360.36868,360.48773,70,49,40
360.48773,360.60678,75,49,40
360.60678,360.72583,75,49,40
360.72583,360.84488,67,49,40
360.84488,360.96393,67,49,40
360.96393,361.08298,72,49,40
361.08298,361.20203,72,49,40
361.20203,361.32108,70,49,40
361.32108,361.44012,70,49,40
361.44012,361.55917,75,49,40
361.55917,361.67822,75,49,40
361.67822,361.79727,67,49,40
361.79727,361.9163,67,49,40
361.9163,362.03534,72,49,40
362.03534,362.1544,72,49,40
362.1544,362.27344,70,49,40
362.27344,362.3925,70,49,40
362.3925,362.51154,75,49,40
362.51154,362.63058,75,49,40
362.63058,362.74963,73,49,40
362.74963,362.86868,73,49,40
362.86868,362.98773,72,49,40
362.98773,363.10678,72,49,40
363.10678,363.22583,85,49,40
363.22583,363.34488,85,49,40
363.34488,363.46393,84,49,40
363.46393,363.58298,80,49,40
363.58298,363.70203,77,49,40
363.70203,363.82108,75,49,40
363.82108,363.94012,74,49,40
363.94012,364.05917,72,49,40
364.05917,364.17822,70,49,40
364.17822,364.29724,80,49,40
364.29724,364.3915,79,49,40
364.53534,364.77344,75,49,40
364.77344,365.01154,74,49,40
365.01154,365.24963,73,49,40
365.24963,365.34387,72,49,40
365.48773,365.58197,70,49,40
365.72583,366.20203,68,55,40
366.20203,366.6782,67,49,40
367.1544,368.10678,68,49,40
368.10678,368.58298,67,49,40
368.58298,369.05914,63,49,40
369.05914,369.53534,60,49,40
369.53534,370.01154,62,49,40
370.01154,370.13058,63,49,40
370.13058,370.24963,58,49,40
370.24963,370.36868,55,49,40
370.36868,370.48773,58,49,40
370.48773,370.60678,63,49,40
370.60678,370.72583,67,49,40
370.72583,370.84488,68,49,40
370.84488,370.96393,70,49,40
370.96393,371.4401,72,49,40
371.4401,371.9163,74,49,40
371.9163,372.3925,75,49,40
372.3925,372.63058,70,49,40
372.63058,372.86868,67,49,40
372.86868,372.96292,65,49,40
373.10678,373.20102,67,49,40
373.34488,373.58295,68,49,40
373.58295,373.702,67,49,40
373.702,373.82104,65,49,40
373.82104,374.05914,63,49,40
374.05914,374.29724,67,49,40
374.29724,374.53534,68,49,40
374.53534,374.6544,67,49,40
374.6544,374.77344,65,49,40
374.77344,375.01154,63,49,40
375.01154,375.24963,67,49,40
375.24963,375.48773,68,49,40
375.48773,375.60678,67,49,40
375.60678,375.72583,65,49,40
375.72583,375.9639,63,49,40
375.9639,376.202,67,49,40
376.202,376.4401,68,49,40
376.4401,376.55914,67,49,40
376.55914,376.6782,65,49,40
376.6782,376.9163,63,49,40
376.9163,377.1544,67,49,40
377.1544,377.3925,68,49,40
377.3925,377.51154,67,49,40
377.51154,377.63058,65,49,40
377.63058,377.74963,75,49,40
377.74963,377.86868,63,49,40
377.86868,377.98773,75,49,40
377.98773,378.10675,63,49,40
378.10675,378.2258,75,49,40
378.2258,378.34485,63,49,40
378.34485,378.4639,75,49,40
378.4639,378.58295,63,49,40
378.58295,378.702,75,49,40
378.702,378.82104,63,49,40
378.82104,378.9401,75,49,40
378.9401,379.05914,63,49,40
379.05914,379.1782,75,49,40
379.1782,379.29724,63,49,40
379.29724,379.4163,75,49,40
379.4163,379.53534,63,49,40
379.53534,379.6544,75,49,40
379.6544,379.77344,63,49,40
379.77344,379.8925,75,49,40
379.8925,380.01154,63,49,40
380.01154,380.13058,75,49,40
380.13058,380.24963,63,49,40
380.24963,380.36865,75,49,40
380.36865,380.4877,63,49,40
380.4877,380.60675,75,49,40
380.60675,380.7258,63,49,40
380.7258,380.84485,75,49,40
380.84485,380.9639,63,49,40
380.9639,381.08295,74,49,40
381.08295,381.202,62,49,40
381.202,381.32104,74,49,40
381.32104,381.4401,62,49,40
381.4401,381.55914,75,49,40
381.55914,381.6782,63,49,40
381.6782,381.79724,75,49,40
381.79724,381.9163,63,49,40
381.9163,382.03534,74,49,40
382.03534,382.1544,62,49,40
382.1544,382.27344,74,49,40
382.27344,382.3925,62,49,40
382.3925,382.51154,75,49,40
382.51154,382.63058,63,49,40
382.63058,382.7496,75,49,40
382.7496,382.86865,63,49,40
382.86865,382.9877,74,49,40
382.9877,383.10675,62,49,40
383.10675,383.2258,74,49,40
383.2258,383.34485,62,49,40
383.34485,383.4639,75,49,40
383.4639,383.58295,63,49,40
383.58295,383.702,75,49,40
383.702,383.82104,63,49,40
383.82104,383.9401,77,49,40
383.9401,384.05914,65,49,40
384.05914,384.1782,77,49,40
384.1782,384.29724,65,49,40
384.29724,384.77344,63,49,40
384.29724,384.77344,70,49,40
384.29724,384.77344,79,49,40
385.2496,385.7258,58,55,40
385.2496,385.7258,63,55,40
385.7258,386.202,58,55,40
385.7258,386.202,63,55,40
386.202,387.1544,58,55,40
386.202,387.1544,63,55,40
135.01176,135.24986,67,36,45
135.48796,135.72606,71,36,45
135.96416,136.20224,69,36,45
136.44034,136.67844,74,36,45
136.91653,137.15463,67,36,45
137.39272,137.63081,71,36,45
137.86891,138.10701,69,36,45
138.3451,138.58319,66,36,45
62.392796,62.63089,46,36,45
62.63089,62.868984,50,36,45
62.868984,63.10708,58,36,45
63.10708,63.345177,50,36,45
63.345177,63.58327,46,36,45
63.58327,63.821365,50,36,45
63.821365,64.05946,58,36,45
64.05946,64.297554,50,36,45
64.297554,64.53565,46,36,45
64.53565,64.77374,50,36,45
64.77374,65.01184,58,36,45
65.01184,65.24993,50,36,45
65.24993,65.48803,45,36,45
65.48803,65.72613,48,36,45
65.72613,65.96422,57,36,45
65.96422,66.20232,45,36,45
66.20232,66.44041,45,36,45
66.44041,66.678505,48,36,45
66.678505,66.9166,57,36,45
66.9166,67.15469,45,36,45
67.15469,67.39279,45,36,45
67.39279,67.63088,48,36,45
67.63088,67.86898,57,36,45
67.86898,68.10708,45,36,45
68.10708,68.34517,44,36,45
68.34517,68.58327,46,36,45
68.58327,68.82136,53,36,45
68.82136,69.059456,46,36,45
69.059456,69.29755,44,36,45
69.29755,69.535645,46,36,45
69.535645,69.77374,53,36,45
69.77374,70.01183,46,36,45
294.77353,295.0116,48,49,45
295.0116,295.2497,55,49,45
295.2497,295.4878,60,49,45
295.4878,295.7259,55,49,45
295.7259,295.964,46,49,45
295.964,296.2021,55,49,45
296.2021,296.4402,58,49,45
296.4402,296.67828,55,49,45
296.67828,296.91638,44,49,45
296.91638,297.15448,56,49,45
297.15448,297.39255,46,49,45
297.39255,297.63065,58,49,45
297.63065,297.86874,43,49,45
297.86874,298.10684,55,49,45
298.10684,298.34494,39,49,45
298.34494,298.58304,51,49,45
298.58304,298.82114,41,49,45
298.82114,299.05923,53,49,45
299.05923,299.29733,48,49,45
299.29733,299.5354,44,49,45
299.5354,299.7735,39,49,45
299.7735,300.0116,51,49,45
300.0116,300.2497,48,49,45
300.2497,300.4878,43,49,45
300.4878,300.7259,44,49,45
300.964,301.2021,46,49,45
301.4402,301.91635,43,49,45
302.39255,302.63065,44,49,45
302.86874,303.10684,46,49,45
303.34494,303.82114,43,49,45
304.2973,304.5354,47,49,45
304.7735,305.0116,49,49,45
305.2497,305.7259,46,49,45
306.2021,306.44016,47,49,45
306.67825,306.91635,49,49,45
307.15445,307.63065,46,49,45
0.488095,1.8769825,56,49,41
1.440475,2.392855,55,49,41
2.392855,3.0872986,53,49,41
2.869045,3.3253937,50,49,41
3.345235,3.5734093,51,49,41
3.58333,3.821425,55,49,41
3.821425,4.049599,55,49,41
4.05952,4.297615,58,49,41
4.297615,5.2103124,56,49,41
5.249995,5.726185,55,49,41
5.726185,6.202375,51,49,41
6.202375,6.44047,50,49,41
6.44047,6.678565,62,55,41
6.678565,6.91666,50,55,41
6.91666,7.154755,60,49,41
7.154755,7.39285,58,88,41
7.39285,7.437493,58,88,41
7.5118976,7.5565405,57,88,41
7.630945,7.725191,55,88,41
8.107135,9.496022,56,49,41
9.059515,10.011895,55,49,41
10.011895,10.706339,53,49,41
10.488085,10.944434,50,49,41
10.964275,11.19245,51,49,41
11.20237,11.440465,55,49,41
11.440465,11.668639,55,49,41
11.67856,11.916655,58,49,41
11.916655,12.829352,56,49,41
12.869035,13.345225,55,49,41
13.345225,13.821415,51,49,41
13.821415,14.05951,50,49,41
14.05951,14.297605,62,55,41
14.297605,14.5357,50,55,41
14.5357,14.773795,60,49,41
14.773795,15.01189,58,88,41
15.01189,15.056533,58,88,41
15.130938,15.17558,57,88,41
15.249985,15.344231,55,88,41
16.44046,16.485104,58,49,41
16.559507,16.60415,60,49,41
16.678555,16.797602,61,55,41
16.797602,16.91665,60,49,41
16.91665,17.035698,56,49,41
17.035698,17.154745,55,49,41
17.154745,17.273792,53,49,41
17.273792,17.39284,55,49,41
17.39284,17.511887,56,49,41
17.511887,17.630936,60,49,41
17.630936,17.86903,52,49,41
18.34522,18.464268,58,49,41
18.464268,18.583315,60,49,41
18.583315,18.702362,61,49,41
18.702362,18.82141,60,49,41
18.82141,18.940458,56,49,41
18.940458,19.059505,55,49,41
19.059505,19.178553,53,49,41
19.178553,19.2976,55,49,41
19.2976,19.416647,56,49,41
19.416647,19.535694,60,49,41
19.535694,19.77379,50,49,41
20.24998,20.369028,56,49,41
20.369028,20.488075,58,49,41
20.488075,20.607122,59,49,41
20.607122,20.72617,58,49,41
20.72617,20.845217,55,49,41
20.845217,20.964266,53,49,41
20.964266,21.083313,51,49,41
21.083313,21.20236,53,49,41
21.20236,21.321407,55,49,41
21.321407,21.440454,58,49,41
21.440454,21.67855,50,49,41
22.15474,22.273788,56,49,41
22.273788,22.392836,58,49,41
22.392836,22.511883,59,49,41
22.511883,22.63093,58,49,41
22.63093,22.749977,55,49,41
22.749977,22.869024,53,49,41
22.869024,22.988073,51,49,41
22.988073,23.10712,53,49,41
23.10712,23.226168,55,49,41
23.226168,23.345215,58,49,41
23.345215,23.464262,50,49,41
23.464262,23.58331,51,49,41
23.58331,23.702358,53,49,41
23.702358,23.821405,56,49,41
23.821405,23.940453,59,55,41
23.940453,24.0595,56,49,41
24.0595,24.178547,53,49,41
24.178547,24.297594,51,49,41
24.297594,24.416643,50,49,41
24.416643,24.53569,51,49,41
24.53569,24.654737,53,49,41
24.654737,24.773785,56,49,41
24.773785,24.892832,59,49,41
24.892832,25.01188,56,49,41
25.01188,25.130928,53,49,41
25.130928,25.249975,51,49,41
25.249975,25.369022,50,49,41
25.369022,25.48807,51,49,41
25.48807,25.607117,53,49,41
25.607117,25.726166,56,49,41
25.726166,25.845213,50,49,41
25.845213,25.96426,51,49,41
25.96426,26.083307,53,49,41
26.083307,26.202354,56,49,41
26.202354,26.321402,50,49,41
26.321402,26.44045,51,49,41
26.44045,26.559498,53,49,41
26.559498,26.678545,56,49,41
26.678545,26.797592,50,49,41
26.797592,26.91664,51,49,41
26.91664,27.035688,53,49,41
27.035688,27.154736,56,49,41
27.154736,27.630924,50,49,41
27.630924,29.29759,56,49,41
30.72616,30.845207,65,49,41
30.845207,30.964254,67,49,41
30.964254,31.083303,68,49,41
31.083303,31.20235,65,49,41
31.20235,31.321398,62,49,41
31.321398,31.440445,60,49,41
31.440445,31.559492,56,49,41
31.559492,31.67854,55,49,41
31.67854,31.797588,53,49,41
31.797588,31.916636,60,49,41
31.916636,32.15473,58,49,41
32.15473,32.63092,55,55,41
32.63092,32.749966,55,49,41
32.749966,32.869015,58,49,41
32.869015,32.96326,56,49,41
33.10711,33.201355,55,49,41
33.345203,33.821396,53,55,41
33.821396,34.297585,55,49,41
34.53568,34.654728,55,49,41
34.654728,34.773773,58,49,41
34.773773,34.86802,56,49,41
35.01187,35.106117,55,49,41
35.249966,35.726154,53,55,41
35.726154,35.845203,55,49,41
35.845203,35.96425,56,49,41
35.96425,36.083298,55,49,41
36.083298,36.202347,53,49,41
36.202347,36.321392,51,49,41
36.321392,36.44044,53,49,41
36.44044,36.559486,55,49,41
36.559486,36.678535,58,49,41
36.678535,36.77278,56,49,41
36.91663,37.010876,55,49,41
37.154724,37.630917,53,55,41
37.630917,37.74996,55,49,41
37.74996,37.86901,56,49,41
37.86901,37.988056,55,49,41
37.988056,38.107105,53,49,41
38.107105,38.3452,51,49,41
38.583294,38.702343,51,75,41
38.702343,38.82139,55,75,41
38.82139,38.940437,61,75,41
38.940437,39.059486,55,75,41
39.059486,39.17853,51,75,41
39.17853,39.29758,55,75,41
39.29758,39.416626,61,75,41
39.416626,39.535675,55,75,41
39.535675,39.654724,51,75,41
39.654724,39.77377,56,75,41
39.77377,39.89282,60,75,41
39.89282,40.011864,56,75,41
40.011864,40.130913,51,75,41
40.130913,40.24996,56,75,41
40.24996,40.369007,60,75,41
40.369007,40.488056,56,75,41
40.488056,40.6071,51,75,41
40.6071,40.72615,55,75,41
40.72615,40.845196,61,75,41
40.845196,40.964245,55,75,41
40.964245,41.083294,51,75,41
41.083294,41.20234,55,75,41
41.20234,41.32139,61,75,41
41.32139,41.440434,55,75,41
41.440434,41.559483,51,75,41
41.559483,41.67853,56,75,41
41.67853,41.797577,60,75,41
41.797577,41.916626,56,75,41
41.916626,42.03567,51,75,41
42.03567,42.15472,56,75,41
42.15472,42.27377,60,75,41
42.27377,42.392815,56,75,41
42.392815,42.511864,53,88,41
42.511864,42.63091,56,88,41
42.63091,42.749958,60,88,41
42.749958,42.869003,56,88,41
42.869003,42.988052,53,88,41
42.988052,43.1071,56,88,41
43.1071,43.226147,62,88,41
43.226147,43.345196,56,88,41
43.345196,43.46424,55,88,41
43.46424,43.58329,58,88,41
43.58329,43.70234,63,88,41
43.70234,43.821384,58,88,41
43.821384,43.940434,55,88,41
43.940434,44.05948,58,88,41
44.05948,44.178528,55,88,41
44.178528,44.297577,51,88,41
44.297577,44.53567,53,94,41
44.297577,44.53567,56,94,41
44.773766,45.01186,58,94,41
44.773766,45.01186,62,94,41
45.249954,45.369003,63,101,41
45.369003,45.48805,62,101,41
45.48805,45.607098,63,101,41
45.607098,45.726147,62,101,41
45.726147,45.96424,63,101,41
45.96424,46.202335,58,107,41
46.202335,46.44043,60,107,41
46.44043,46.678524,62,107,41
46.678524,46.91662,63,107,41
46.91662,47.154716,58,107,41
47.154716,47.39281,60,107,41
47.39281,47.630905,62,107,41
47.630905,47.869,63,107,41
47.869,48.107094,58,107,41
48.107094,48.583286,48,107,41
48.107094,48.583286,55,107,41
48.107094,48.583286,63,107,41
48.583286,49.059475,50,107,41
48.583286,49.059475,59,107,41
48.583286,49.059475,67,107,41
49.059475,49.535664,48,107,41
49.059475,49.535664,55,107,41
49.059475,49.535664,63,107,41
52.868996,53.345184,67,36,41
52.868996,53.345184,70,36,41
53.345184,53.821377,66,36,41
53.345184,53.821377,69,36,41
53.821377,54.297565,67,36,41
53.821377,54.297565,70,36,41
54.773754,55.48804,75,36,41
55.48804,55.726135,77,36,41
55.726135,56.44042,75,36,41
56.44042,56.678516,77,36,41
56.678516,57.3928,75,36,41
57.3928,57.630894,74,36,41
57.630894,58.34518,72,36,41
58.34518,58.583275,70,36,41
58.583275,59.29756,68,36,41
59.29756,59.535656,70,36,41
59.535656,60.24994,68,36,41
60.24994,60.488033,70,36,41
60.488033,60.964226,68,36,41
60.964226,61.440414,65,36,41
61.440414,61.916607,67,36,41
61.916607,62.1547,68,36,41
62.1547,62.392796,69,36,41
62.392796,62.63089,70,36,41
62.868984,63.464222,53,42,41
63.464222,63.58327,52,36,41
63.58327,63.702316,53,36,41
63.702316,63.821365,52,36,41
63.821365,64.05946,53,36,41
64.05946,64.15371,53,36,41
64.297554,64.4166,53,36,41
64.4166,64.53565,52,36,41
64.53565,64.6547,53,36,41
64.6547,64.77374,52,36,41
64.77374,65.01184,53,36,41
65.01184,65.24993,53,36,41
65.24993,66.321365,53,36,41
66.321365,66.44041,52,36,41
66.44041,66.559456,53,36,41
66.559456,66.678505,52,36,41
66.678505,66.9166,53,36,41
66.9166,67.01085,53,36,41
67.15469,67.27374,53,36,41
67.27374,67.39279,52,36,41
67.39279,67.51184,53,36,41
67.51184,67.63088,52,36,41
67.63088,67.86898,53,36,41
67.86898,67.96323,53,36,41
68.10708,69.178505,58,36,41
69.178505,69.29755,57,36,41
69.29755,69.416595,58,36,41
69.416595,69.535645,57,36,41
69.535645,69.77374,58,36,41
69.77374,69.86799,58,36,41
70.01183,70.13088,58,36,41
70.13088,70.24993,57,36,41
70.24993,70.36898,58,36,41
70.36898,70.48802,57,36,41
70.48802,70.72612,58,36,41
70.72612,70.820366,58,36,41
70.96422,71.08326,60,36,41
71.08326,71.20231,59,36,41
71.20231,71.32136,60,36,41
71.32136,71.44041,59,36,41
71.44041,71.6785,60,36,41
71.6785,71.77274,60,36,41
71.916595,72.392784,65,88,41
72.392784,72.48703,74,88,41
72.63088,72.72513,70,88,41
72.86897,72.96322,67,88,41
73.10707,73.20132,69,88,41
73.34516,73.43941,70,88,41
73.58326,73.677505,67,88,41
73.82136,73.9156,63,88,41
74.05945,74.153694,65,88,41
74.29755,74.39179,67,88,41
74.53564,74.62988,63,88,41
74.773735,74.86798,60,88,41
75.01183,75.10608,62,88,41
75.24992,75.34417,63,88,41
75.48802,75.58227,60,88,41
75.72611,75.96421,57,94,41
75.96421,76.20231,58,88,41
76.20231,76.4404,60,88,41
76.4404,76.6785,63,88,41
76.6785,79.53564,58,49,41
76.6785,79.53564,62,49,41
79.53564,82.39278,59,49,41
79.53564,82.39278,63,49,41
82.39278,84.29754,53,49,41
82.39278,84.29754,59,49,41
84.29754,85.249916,54,49,41
84.29754,85.249916,58,49,41
85.249916,86.20229,54,49,41
85.249916,86.20229,58,49,41
86.20229,87.15468,53,36,41
86.20229,87.15468,56,36,41
88.107056,89.05943,56,49,41
89.05943,90.01182,55,49,41
90.01182,90.48801,53,49,41
90.48801,90.964195,50,49,41
90.964195,91.440384,51,49,41
91.91657,92.15467,60,94,41
92.15467,92.39276,56,88,41
92.39276,92.63086,65,94,41
92.63086,92.86896,59,88,41
92.86896,93.10705,67,88,41
93.10705,93.58324,48,94,41
93.10705,93.58324,60,94,41
93.58324,94.05943,48,88,41
93.58324,94.05943,60,88,41
94.05943,94.53562,48,88,41
94.05943,94.53562,60,88,41
94.53562,95.01181,48,88,41
94.53562,95.01181,60,88,41
95.01181,95.488,48,88,41
95.01181,95.488,60,88,41
95.488,95.96419,48,88,41
95.488,95.96419,60,88,41
97.15466,97.86895,65,88,41
98.34514,98.58324,60,88,41
98.58324,98.82133,60,88,41
98.82133,99.29752,55,88,41
99.29752,99.77371,55,88,41
99.77371,100.2499,55,88,41
100.2499,100.72609,55,88,41
100.96419,101.20228,55,49,41
101.44038,101.916565,57,49,41
103.82133,104.773705,58,36,41
104.773705,105.48799,57,36,41
105.48799,105.60704,55,36,41
105.60704,105.72608,54,36,41
105.72608,106.20228,55,36,41
106.20228,106.67847,55,36,41
106.67847,107.154655,54,36,41
107.154655,107.630844,55,36,41
107.630844,108.10703,51,36,41
108.10703,108.58322,55,36,41
108.58322,109.05942,58,36,41
109.05942,109.53561,72,36,41
109.53561,110.011795,69,36,41
110.011795,110.96417,67,36,41
110.96417,111.91656,65,42,41
111.91656,114.29751,67,36,41
114.29751,114.7737,65,36,41
114.7737,115.249886,62,36,41
115.249886,115.726074,58,36,41
115.726074,115.96417,57,36,41
115.96417,116.20226,67,36,41
116.20226,116.44036,65,36,41
116.44036,116.67845,63,36,41
116.67845,116.91655,62,36,41
116.91655,117.15465,60,36,41
117.15465,117.39274,58,36,41
117.39274,117.63084,62,36,41
117.63084,117.86893,60,36,41
117.86893,118.107025,67,36,41
118.107025,118.34512,65,36,41
118.34512,118.58321,63,36,41
118.58321,118.82131,62,36,41
118.82131,119.0594,60,36,41
119.0594,119.2975,58,36,41
119.2975,119.5356,62,36,41
119.5356,119.77369,54,36,41
119.77369,120.01179,58,36,41
120.01179,120.24988,56,36,41
120.24988,120.487976,60,36,41
120.487976,120.72607,53,36,41
120.72607,120.964165,56,36,41
120.964165,121.20226,49,36,41
121.20226,121.44035,53,36,41
121.44035,121.67845,54,36,41
121.67845,121.91654,58,36,41
121.91654,122.15464,56,36,41
122.15464,122.39274,60,36,41
122.39274,122.63083,53,36,41
122.63083,122.86893,56,36,41
122.86893,123.10702,61,36,41
123.10702,123.345116,65,36,41
123.345116,123.58321,60,36,41
123.58321,123.821304,62,36,41
123.821304,124.0594,63,36,41
124.0594,124.178444,62,36,41
124.178444,124.29749,60,36,41
124.29749,124.53559,60,36,41
124.53559,124.77368,62,36,41
124.77368,125.01178,63,36,41
125.01178,125.13083,62,36,41
125.13083,125.24988,60,36,41
125.24988,125.48797,60,36,41
125.48797,125.72607,62,36,41
125.72607,125.96416,63,36,41
125.96416,126.083206,62,36,41
126.083206,126.202255,60,36,41
126.202255,126.44035,60,36,41
126.44035,126.678444,62,36,41
126.678444,126.91654,63,36,41
126.91654,127.03559,62,36,41
127.03559,127.15463,60,36,41
127.15463,130.96416,50,36,41
127.15463,130.96416,60,36,41
130.96416,131.0832,59,36,41
131.0832,131.20226,62,36,41
131.20226,131.3213,59,36,41
131.3213,131.44034,62,36,41
131.44034,131.55939,59,36,41
131.55939,131.67844,62,36,41
131.67844,131.79749,59,36,41
131.79749,131.91653,62,36,41
131.91653,132.03558,56,36,41
132.03558,132.15463,62,36,41
132.15463,132.27368,56,36,41
132.27368,132.39273,62,36,41
132.39273,132.51178,59,36,41
132.51178,132.63081,62,36,41
132.63081,132.74986,59,36,41
132.74986,132.86891,62,36,41
132.86891,132.98796,55,36,41
132.98796,133.10701,59,36,41
133.10701,133.22606,55,36,41
133.22606,133.34511,59,36,41
133.34511,133.46416,54,36,41
133.46416,133.5832,59,36,41
133.5832,133.70224,54,36,41
133.70224,133.82129,59,36,41
133.82129,133.94034,52,36,41
133.94034,134.05939,57,36,41
134.05939,134.17844,52,36,41
134.17844,134.29749,57,36,41
134.29749,134.41653,50,36,41
134.41653,134.53558,57,36,41
134.53558,134.65463,50,36,41
134.65463,134.77368,57,36,41
134.77368,134.89272,50,36,41
134.89272,135.01176,55,36,41
135.01176,135.13081,50,36,41
135.13081,135.24986,55,36,41
135.24986,135.36891,50,36,41
135.36891,135.48796,59,36,41
135.48796,135.60701,50,36,41
135.60701,135.72606,59,36,41
135.72606,135.84511,50,36,41
135.84511,135.96416,57,36,41
135.96416,136.08319,50,36,41
136.08319,136.20224,57,36,41
136.20224,136.32129,50,36,41
136.32129,136.44034,57,36,41
136.44034,136.55939,50,36,41
136.55939,136.67844,57,36,41
136.67844,136.79749,50,36,41
136.79749,136.91653,55,36,41
136.91653,137.03558,50,36,41
137.03558,137.15463,55,36,41
137.15463,137.27367,50,36,41
137.27367,137.39272,54,36,41
137.39272,137.51176,50,36,41
137.51176,137.63081,54,36,41
137.63081,137.74986,52,36,41
137.74986,137.86891,55,36,41
137.86891,137.98796,52,36,41
137.98796,138.10701,55,36,41
138.10701,138.22606,57,36,41
138.22606,138.3451,60,36,41
138.3451,138.46414,57,36,41
138.46414,138.58319,60,36,41
138.58319,138.82129,55,88,41
138.82129,139.05939,57,88,41
139.05939,139.29749,58,88,41
139.29749,139.41653,57,88,41
139.41653,139.53557,55,88,41
139.53557,140.01176,57,94,41
140.01176,140.48796,62,94,41
140.48796,140.96414,55,94,41
140.96414,141.44034,57,94,41
141.44034,141.91652,53,94,41
141.91652,142.39272,50,94,41
142.39272,143.82129,48,94,41
143.82129,144.29747,55,94,41
144.29747,144.77367,55,88,41
144.77367,144.89272,54,88,41
144.89272,145.01176,55,88,41
145.01176,145.13081,57,88,41
145.13081,145.24985,60,88,41
145.24985,145.3441,58,88,41
145.48795,145.5822,60,88,41
145.72604,146.20224,62,94,41
146.20224,146.67842,67,88,41
146.67842,146.79747,66,88,41
146.79747,146.91652,67,88,41
146.91652,147.03557,69,88,41
147.03557,147.15462,72,88,41
147.15462,147.39272,70,94,41
147.39272,147.6308,72,94,41
147.6308,148.107,74,94,41
148.107,148.22604,72,88,41
148.22604,148.3451,75,88,41
148.3451,148.46414,72,88,41
148.46414,148.58319,70,88,41
148.58319,148.70224,69,88,41
148.70224,148.82127,67,88,41
148.82127,148.94032,66,88,41
148.94032,149.05937,62,88,41
149.05937,149.17842,67,88,41
149.17842,149.29747,69,88,41
149.29747,149.41652,70,88,41
149.41652,149.53557,69,88,41
149.53557,149.65462,70,88,41
149.65462,149.77367,67,88,41
149.77367,149.8927,62,88,41
149.8927,150.01175,58,88,41
150.01175,150.48795,58,94,41
150.48795,150.607,57,88,41
150.607,150.72604,58,88,41
150.72604,150.8451,60,88,41
150.8451,150.96414,63,88,41
150.96414,151.20222,62,94,41
151.20222,151.44032,63,94,41
151.44032,151.91652,65,94,41
151.91652,152.03557,63,88,41
152.03557,152.15462,66,88,41
152.15462,152.27365,63,88,41
152.27365,152.3927,62,88,41
152.3927,152.51175,60,88,41
152.51175,152.6308,58,88,41
152.6308,152.74985,57,88,41
152.74985,152.8689,53,88,41
152.8689,152.98795,58,88,41
152.98795,153.107,60,88,41
153.107,153.22604,62,88,41
153.22604,153.34508,60,88,41
153.34508,153.46413,62,88,41
153.46413,153.58318,63,88,41
153.58318,153.70222,65,88,41
153.70222,153.82127,70,88,41
153.82127,154.29747,75,94,41
154.29747,154.53555,74,88,41
154.53555,154.77365,72,88,41
154.77365,155.24985,72,94,41
155.24985,155.48795,70,88,41
155.48795,155.72603,68,88,41
155.72603,156.20222,63,94,41
156.20222,156.44032,62,88,41
156.44032,156.67842,60,88,41
156.67842,157.1546,60,94,41
157.1546,157.3927,62,88,41
157.3927,157.6308,63,88,41
157.6308,157.8689,58,94,41
157.6308,157.8689,62,94,41
161.4403,161.55936,57,94,41
161.55936,161.6784,58,88,41
161.6784,161.79745,60,88,41
161.79745,161.9165,58,88,41
161.9165,162.03555,57,88,41
162.03555,162.1546,58,88,41
162.1546,162.27365,60,88,41
162.27365,162.3927,63,88,41
162.3927,162.51175,58,88,41
162.51175,162.63078,60,88,41
162.63078,162.74983,62,88,41
162.74983,162.86888,60,88,41
162.86888,162.98793,58,88,41
162.98793,163.10698,60,88,41
163.10698,163.22603,62,88,41
163.22603,163.34508,65,88,41
163.34508,163.46413,57,88,41
163.46413,163.58318,58,88,41
163.58318,163.70222,60,88,41
163.70222,163.82126,58,88,41
163.82126,163.9403,57,88,41
163.9403,164.05936,58,88,41
164.05936,164.1784,60,88,41
164.1784,164.29745,63,88,41
164.29745,164.4165,58,88,41
164.4165,164.53555,60,88,41
164.53555,164.6546,62,88,41
164.6546,164.77365,60,88,41
164.77365,164.89268,58,88,41
164.89268,165.01173,60,88,41
165.01173,165.13078,62,88,41
165.13078,165.24983,65,88,41
165.24983,165.36888,57,88,41
165.36888,165.48793,58,88,41
165.48793,165.60698,60,88,41
165.60698,165.72603,58,88,41
165.72603,165.84508,57,88,41
165.84508,165.96413,58,88,41
165.96413,166.08316,60,88,41
166.08316,166.20221,63,88,41
166.20221,166.32126,58,88,41
166.32126,166.4403,60,88,41
166.4403,166.55936,62,88,41
166.55936,166.6784,60,88,41
166.6784,166.79745,58,88,41
166.79745,166.9165,60,88,41
166.9165,167.03555,62,88,41
167.03555,167.1546,65,88,41
167.1546,167.27364,53,36,41
167.27364,167.39268,55,36,41
167.39268,167.51173,57,36,41
167.51173,167.63078,55,36,41
167.63078,167.74983,53,36,41
167.74983,167.86888,55,36,41
167.86888,167.98793,57,36,41
167.98793,168.10698,60,36,41
168.10698,168.22603,58,36,41
168.22603,168.34508,60,36,41
168.34508,168.46411,62,36,41
168.46411,168.58316,60,36,41
168.58316,168.70221,58,36,41
168.70221,168.82126,60,36,41
168.82126,168.9403,62,36,41
168.9403,169.05936,65,36,41
169.05936,169.1784,53,36,41
169.1784,169.29745,55,36,41
169.29745,169.4165,57,36,41
169.4165,169.53554,55,36,41
169.53554,169.65459,53,36,41
169.65459,169.77364,55,36,41
169.77364,169.89268,57,36,41
169.89268,170.01173,60,36,41
170.01173,170.13078,58,36,41
170.13078,170.24983,60,36,41
170.24983,170.36888,62,36,41
170.36888,170.48793,60,36,41
170.48793,170.60698,58,36,41
170.60698,170.72601,60,36,41
170.72601,170.84506,62,36,41
170.84506,170.96411,65,36,41
170.96411,174.77364,57,36,41
170.96411,174.77364,63,36,41
174.77364,175.01173,58,36,41
174.77364,175.01173,62,36,41
175.01173,178.58316,53,36,41
178.58316,182.39267,50,36,41
182.39267,182.63077,55,36,41
183.34506,183.58315,55,42,41
183.58315,183.82124,57,36,41
183.82124,184.05934,58,36,41
184.05934,184.17839,57,36,41
184.17839,184.29744,55,36,41
184.29744,184.53552,62,42,41
185.24982,185.48792,60,88,41
185.24982,185.48792,63,88,41
185.24982,185.48792,69,88,41
189.77362,189.89267,63,49,41
189.89267,190.01172,65,49,41
190.01172,190.13077,66,49,41
190.13077,190.24982,63,49,41
190.24982,190.36885,60,49,41
190.36885,190.4879,58,49,41
190.4879,190.60695,57,49,41
190.60695,190.726,60,49,41
190.726,190.84505,63,49,41
190.84505,190.9641,66,49,41
190.9641,191.05833,65,49,41
191.2022,191.67838,62,55,41
191.67838,191.79742,60,49,41
191.79742,191.91647,62,49,41
191.91647,192.03552,63,49,41
192.03552,192.15457,60,49,41
192.15457,192.27362,57,49,41
192.27362,192.39267,54,49,41
192.39267,192.51172,53,49,41
192.51172,192.63075,57,49,41
192.63075,192.7498,60,49,41
192.7498,192.86885,63,49,41
192.86885,193.10695,62,49,41
193.10695,193.58315,58,49,41
193.58315,193.7022,57,49,41
193.7022,193.82123,58,49,41
193.82123,193.94028,60,49,41
193.94028,194.05933,57,49,41
194.05933,194.17838,54,49,41
194.17838,194.29742,53,49,41
194.29742,194.41647,51,49,41
194.41647,194.53552,53,49,41
194.53552,194.65457,54,49,41
194.65457,194.77362,60,49,41
194.77362,194.86786,58,49,41
195.0117,195.4879,53,55,41
195.4879,195.60695,57,36,41
195.60695,195.726,60,36,41
195.726,195.9641,58,36,41
195.9641,196.44028,53,36,41
196.44028,196.55933,57,36,41
196.55933,196.67838,60,36,41
196.67838,196.91647,58,36,41
196.91647,197.39265,53,36,41
197.39265,197.5117,57,36,41
197.5117,197.63075,60,36,41
197.63075,198.58313,59,36,41
198.58313,199.53552,58,23,41
199.53552,200.4879,59,23,41
200.4879,201.44028,58,23,41
201.44028,202.39265,53,23,41
202.39265,203.34503,54,23,41
203.34503,204.29741,53,23,41
204.29741,205.0117,54,23,41
205.2498,205.36884,56,88,41
205.36884,205.48788,56,88,41
205.48788,205.60693,59,88,41
205.60693,205.72598,59,88,41
205.72598,205.84503,52,88,41
205.84503,205.96408,52,88,41
205.96408,206.08313,56,88,41
206.08313,206.20218,56,88,41
206.20218,206.32123,57,88,41
206.32123,206.44028,57,88,41
206.44028,206.55931,61,88,41
206.55931,206.67836,61,88,41
206.67836,206.79741,52,88,41
206.79741,206.91646,52,88,41
206.91646,207.0355,57,88,41
207.0355,207.15456,57,88,41
207.15456,207.2736,56,88,41
207.2736,207.39265,56,88,41
207.39265,207.5117,59,88,41
207.5117,207.63075,59,88,41
207.63075,207.74979,52,88,41
207.74979,207.86884,52,88,41
207.86884,207.98788,56,88,41
207.98788,208.10693,56,88,41
208.10693,208.22598,57,88,41
208.22598,208.34503,57,88,41
208.34503,208.46408,61,88,41
208.46408,208.58313,61,88,41
208.58313,208.70218,52,88,41
208.70218,208.82121,52,88,41
208.82121,208.94026,57,88,41
208.94026,209.05931,57,88,41
209.05931,209.17836,56,88,41
209.17836,209.29741,56,88,41
209.29741,209.41646,59,88,41
209.41646,209.5355,59,88,41
209.5355,209.65456,52,88,41
209.65456,209.7736,52,88,41
209.7736,209.89265,56,88,41
209.89265,210.01169,56,88,41
210.01169,210.13074,57,88,41
210.13074,210.24979,57,88,41
210.24979,210.36884,61,88,41
210.36884,210.48788,61,88,41
210.48788,210.60693,52,88,41
210.60693,210.72598,52,88,41
210.72598,210.84503,57,88,41
210.84503,210.96408,57,88,41
210.96408,211.20216,50,88,41
210.96408,211.20216,59,88,41
211.44026,211.67836,55,88,41
211.44026,211.67836,65,88,41
211.44026,211.67836,71,88,41
211.91646,212.15456,48,88,41
211.91646,212.15456,55,88,41
211.91646,212.15456,64,88,41
212.39264,212.63074,55,88,41
212.39264,212.63074,64,88,41
212.39264,212.63074,72,88,41
212.63074,212.74979,67,101,41
212.74979,212.86884,67,101,41
212.86884,212.98788,68,101,41
212.98788,213.10693,67,101,41
213.10693,213.22598,65,101,41
213.22598,213.34503,63,101,41
213.34503,213.46407,62,101,41
213.46407,213.58311,65,101,41
213.58311,213.70216,68,101,41
213.70216,213.82121,72,101,41
213.82121,214.29741,70,101,41
214.5355,214.65454,67,101,41
214.65454,214.77359,67,101,41
214.77359,214.89264,68,101,41
214.89264,215.01169,67,101,41
215.01169,215.13074,65,101,41
215.13074,215.24979,63,101,41
215.24979,215.36884,62,101,41
215.36884,215.48788,65,101,41
215.48788,215.60693,68,101,41
215.60693,215.72597,72,101,41
215.72597,215.82022,70,101,41
215.96407,216.44026,67,107,41
216.44026,216.55931,67,101,41
216.55931,216.67836,67,101,41
216.67836,216.79741,68,101,41
216.79741,216.91644,67,101,41
216.91644,217.03549,65,101,41
217.03549,217.15454,63,101,41
217.15454,217.39264,62,101,41
217.39264,217.51169,65,101,41
217.51169,217.63074,65,101,41
217.63074,217.72498,65,101,41
217.86884,218.34502,62,107,41
218.34502,218.46407,68,101,41
218.46407,218.58311,68,101,41
218.58311,218.67737,68,101,41
218.82121,219.2974,65,107,41
219.2974,219.41644,74,101,41
219.41644,219.53549,74,101,41
219.53549,219.62975,71,101,41
219.77359,220.24979,68,107,41
220.24979,220.36882,74,101,41
220.36882,220.48787,74,101,41
220.48787,220.60692,74,101,41
220.60692,220.72597,65,101,41
220.72597,220.84502,62,101,41
220.84502,220.96407,60,101,41
220.96407,221.08311,59,101,41
221.08311,221.20216,62,101,41
221.20216,221.32121,65,101,41
221.32121,221.44026,68,101,41
221.44026,221.5593,67,101,41
221.5593,221.67834,65,101,41
221.67834,221.7974,62,101,41
221.7974,221.91644,60,101,41
221.91644,222.03549,59,101,41
222.03549,222.15454,62,101,41
222.15454,222.27359,65,101,41
222.27359,222.39264,68,101,41
222.39264,222.63074,67,101,41
222.63074,223.10692,64,107,41
223.10692,223.22597,66,101,41
223.22597,223.34502,66,101,41
223.34502,223.58311,65,101,41
223.58311,224.0593,62,107,41
224.0593,224.17834,64,101,41
224.17834,224.2974,64,101,41
224.2974,224.53549,63,101,41
224.53549,224.65454,71,101,41
224.65454,224.77359,71,101,41
224.77359,225.01167,70,101,41
225.01167,225.13072,69,101,41
225.13072,225.24977,69,101,41
225.24977,225.48787,69,101,41
225.48787,225.60692,67,101,41
225.60692,225.72597,67,101,41
225.72597,225.96407,66,101,41
225.96407,226.08311,65,101,41
226.08311,226.20215,65,101,41
226.20215,226.44025,63,101,41
226.44025,226.5593,65,101,41
226.5593,226.67834,65,101,41
226.67834,226.91644,63,101,41
226.91644,227.03549,65,101,41
227.03549,227.15454,65,101,41
227.15454,227.39262,64,101,41
227.39262,227.51167,65,101,41
227.51167,227.63072,65,101,41
227.63072,227.86882,64,101,41
227.86882,227.98787,65,101,41
227.98787,228.10692,65,101,41
228.10692,228.22597,64,101,41
228.22597,228.34502,60,101,41
228.34502,228.46405,55,101,41
228.46405,228.5831,52,101,41
228.5831,228.8212,48,101,41
229.0593,231.91643,56,49,41
229.0593,231.91643,59,49,41
231.91643,232.86882,53,49,41
231.91643,232.86882,59,49,41
232.86882,233.345,60,49,41
233.345,233.8212,55,49,41
233.8212,234.77357,57,49,41
234.77357,235.24977,58,49,41
235.24977,235.72595,53,49,41
235.72595,238.345,49,36,41
235.72595,238.345,55,36,41
239.53548,240.48785,54,36,41
241.67833,241.72298,55,36,41
241.79738,241.84203,55,36,41
241.91643,242.03548,56,36,41
242.03548,242.15453,53,36,41
242.15453,242.27357,50,36,41
242.27357,242.8688,48,36,41
242.8688,243.345,53,36,41
244.29738,245.24976,56,49,41
245.24976,246.20213,55,49,41
246.20213,246.67833,53,49,41
246.67833,247.15451,50,49,41
247.15451,247.39261,51,49,41
247.39261,247.6307,55,49,41
247.6307,247.8688,55,49,41
247.8688,248.10689,58,49,41
248.10689,249.05928,56,49,41
249.05928,249.53546,55,49,41
249.53546,250.01166,51,49,41
250.01166,250.24976,50,55,41
250.24976,250.48784,62,49,41
250.48784,250.72594,50,49,41
250.72594,250.96404,60,88,41
250.96404,251.05827,58,88,41
251.20213,251.32118,58,88,41
251.32118,251.44023,57,88,41
251.44023,251.67831,55,88,41
252.6307,252.74974,58,49,41
252.74974,252.86879,60,49,41
252.86879,252.98784,61,55,41
252.98784,253.10689,60,49,41
253.10689,253.22594,56,49,41
253.22594,253.34499,55,49,41
253.34499,253.46404,53,49,41
253.46404,253.58308,55,49,41
253.58308,253.70213,56,49,41
253.70213,253.82118,60,49,41
253.82118,254.05927,52,49,41
254.53546,254.65451,58,49,41
254.65451,254.77356,60,49,41
254.77356,254.89261,61,55,41
254.89261,255.01164,60,49,41
255.01164,255.13069,56,49,41
255.13069,255.24974,55,49,41
255.24974,255.36879,53,49,41
255.36879,255.48784,55,49,41
255.48784,255.60689,56,49,41
255.60689,255.72594,60,49,41
255.72594,255.96404,50,49,41
256.44022,256.55927,56,49,41
256.55927,256.6783,58,49,41
256.6783,256.79736,59,55,41
256.79736,256.9164,58,49,41
256.9164,257.03546,55,49,41
257.03546,257.1545,53,49,41
257.1545,257.27356,51,49,41
257.27356,257.3926,53,49,41
257.3926,257.51166,55,49,41
257.51166,257.6307,58,49,41
257.6307,257.8688,50,49,41
258.34497,258.46402,56,49,41
258.46402,258.58307,58,49,41
258.58307,258.70212,59,55,41
258.70212,258.82117,58,49,41
258.82117,258.94022,55,49,41
258.94022,259.05927,53,49,41
259.05927,259.1783,51,49,41
259.1783,259.29736,53,49,41
259.29736,259.4164,55,49,41
259.4164,259.53546,58,49,41
259.53546,259.6545,50,49,41
259.6545,259.77356,51,49,41
259.77356,259.8926,53,49,41
259.8926,260.01166,56,49,41
260.01166,260.1307,59,49,41
260.1307,260.24973,56,49,41
260.24973,260.36877,53,49,41
260.36877,260.48782,51,49,41
260.48782,260.60687,50,49,41
260.60687,260.72592,51,49,41
260.72592,260.84497,53,49,41
260.84497,260.96402,56,49,41
260.96402,261.08307,59,49,41
261.08307,261.20212,56,49,41
261.20212,261.32117,53,49,41
261.32117,261.44022,51,49,41
261.44022,261.55927,50,49,41
261.55927,261.6783,51,49,41
261.6783,261.79736,53,49,41
261.79736,261.9164,56,49,41
261.9164,262.03546,50,49,41
262.03546,262.1545,51,49,41
262.1545,262.27356,53,49,41
262.27356,262.3926,56,49,41
262.3926,262.51166,50,49,41
262.51166,262.63068,51,49,41
262.63068,262.74973,53,49,41
262.74973,262.86877,56,49,41
262.86877,262.98782,50,49,41
262.98782,263.10687,51,49,41
263.10687,263.22592,53,49,41
263.22592,263.34497,56,49,41
263.34497,263.82117,50,49,41
263.82117,265.48782,56,49,41
266.9164,267.03546,65,36,41
267.03546,267.15448,67,36,41
267.15448,267.27353,68,36,41
267.27353,267.39258,65,49,41
267.39258,267.51163,62,49,41
267.51163,267.63068,60,49,41
267.63068,267.74973,56,49,41
267.74973,267.86877,55,49,41
267.86877,267.98782,53,49,41
267.98782,268.10687,60,49,41
268.10687,268.34497,58,49,41
268.34497,268.82117,55,55,41
268.82117,268.8658,55,49,41
268.94022,268.98486,58,49,41
269.05927,269.1535,56,49,41
269.29736,269.3916,55,49,41
269.53543,270.01163,53,55,41
270.01163,270.48782,55,49,41
270.72592,270.77057,55,49,41
270.84497,270.88962,58,49,41
270.96402,271.05826,56,49,41
271.20212,271.29636,55,49,41
271.44022,271.91638,53,55,41
271.91638,272.03543,55,49,41
272.03543,272.15448,56,49,41
272.15448,272.27353,55,49,41
272.27353,272.39258,53,49,41
272.39258,272.51163,51,49,41
272.51163,272.63068,53,49,41
272.63068,272.74973,55,49,41
272.74973,272.86877,58,49,41
272.86877,272.963,56,49,41
273.10687,273.2011,55,49,41
273.34497,273.82117,53,55,41
273.82117,273.94022,55,49,41
273.94022,274.05927,56,49,41
274.05927,274.17828,55,49,41
274.17828,274.29733,53,49,41
274.29733,274.53543,51,49,41
274.77353,274.89258,51,75,41
274.89258,275.01163,55,75,41
275.01163,275.13068,61,75,41
275.13068,275.24973,55,75,41
275.24973,275.36877,51,75,41
275.36877,275.48782,55,75,41
275.48782,275.60687,61,75,41
275.60687,275.72592,55,75,41
275.72592,275.84497,51,75,41
275.84497,275.96402,56,75,41
275.96402,276.08307,60,75,41
276.08307,276.20212,56,75,41
276.20212,276.32117,51,75,41
276.32117,276.4402,56,75,41
276.4402,276.55923,60,75,41
276.55923,276.67828,56,75,41
276.67828,276.79733,51,75,41
276.79733,276.91638,55,75,41
276.91638,277.03543,61,75,41
277.03543,277.15448,55,75,41
277.15448,277.27353,51,75,41
277.27353,277.39258,55,75,41
277.39258,277.51163,61,75,41
277.51163,277.63068,55,75,41
277.63068,277.74973,51,75,41
277.74973,277.86877,56,75,41
277.86877,277.98782,60,75,41
277.98782,278.10687,56,75,41
278.10687,278.34497,51,75,41
278.58307,278.82114,60,101,41
278.82114,279.05923,56,101,41
279.05923,279.29733,65,101,41
279.29733,279.53543,59,101,41
279.29733,279.53543,62,101,41
279.53543,279.77353,60,101,41
279.53543,279.77353,63,101,41
279.77353,280.24973,48,101,41
279.77353,280.24973,60,101,41
280.24973,280.72592,48,101,41
280.24973,280.72592,60,101,41
280.72592,281.2021,48,101,41
280.72592,281.2021,60,101,41
281.2021,281.67828,48,101,41
281.2021,281.67828,60,101,41
281.67828,282.15448,48,101,41
281.67828,282.15448,60,101,41
282.15448,282.63068,48,101,41
282.15448,282.63068,60,101,41
283.82114,284.53543,65,101,41
285.01163,285.48782,60,101,41
285.48782,285.964,55,101,41
285.964,286.4402,55,101,41
286.4402,286.91638,55,49,41
286.91638,287.24872,55,49,41
287.39258,287.48682,55,49,41
287.86877,287.963,63,49,41
288.34494,288.82114,58,49,41
288.82114,288.91537,58,49,41
289.29733,289.53543,58,49,41
289.77353,290.01163,65,49,41
290.2497,290.4878,58,49,41
290.4878,290.7259,55,49,41
290.7259,290.82016,55,49,41
291.2021,291.4402,56,49,41
291.67828,291.91638,56,49,41
292.15448,292.39258,59,49,41
292.39258,292.63065,63,49,41
292.63065,292.7249,63,49,41
293.10684,293.34494,63,49,41
293.58304,293.82114,62,49,41
294.05923,294.29733,63,49,41
294.29733,294.53543,62,49,41
294.53543,294.62967,60,49,41
300.0116,300.4878,51,49,41
300.4878,300.7259,56,88,41
300.7259,300.964,60,88,41
300.964,301.2021,58,88,41
301.2021,301.4402,62,88,41
301.4402,301.67828,58,88,41
301.67828,301.91635,63,88,41
301.91635,302.15445,55,88,41
302.15445,302.39255,51,88,41
302.39255,302.63065,56,88,41
302.63065,302.86874,60,88,41
302.86874,303.10684,58,88,41
303.10684,303.34494,62,88,41
303.34494,303.58304,58,88,41
303.58304,303.82114,63,88,41
303.82114,304.05923,55,88,41
304.05923,304.2973,51,88,41
304.2973,304.5354,59,88,41
304.5354,304.7735,63,88,41
304.7735,305.0116,61,88,41
305.0116,305.2497,65,88,41
305.2497,305.4878,61,88,41
305.4878,305.7259,66,88,41
305.7259,305.964,58,88,41
305.964,306.2021,54,88,41
306.2021,306.44016,59,88,41
306.44016,306.67825,63,88,41
306.67825,306.91635,61,88,41
306.91635,307.15445,65,88,41
307.15445,307.39255,61,88,41
307.39255,307.63065,66,88,41
307.63065,307.86874,58,88,41
307.86874,308.10684,54,88,41
308.10684,308.34494,58,49,41
308.34494,308.58304,54,49,41
308.58304,308.8211,58,49,41
308.8211,309.0592,54,49,41
309.0592,309.2973,58,49,41
309.2973,309.5354,54,49,41
309.5354,309.7735,58,49,41
309.7735,310.0116,54,49,41
310.0116,310.2497,58,49,41
310.2497,310.4878,54,49,41
310.4878,310.7259,58,49,41
310.7259,310.964,54,49,41
310.964,311.20206,58,49,41
311.20206,311.44016,54,49,41
311.44016,311.67825,58,49,41
311.67825,311.91635,54,49,41
311.91635,312.15445,58,36,41
312.15445,312.39255,56,36,41
312.39255,312.63065,58,36,41
312.63065,312.86874,56,36,41
312.86874,313.10684,58,36,41
313.10684,313.34494,56,36,41
313.34494,313.583,58,36,41
313.583,313.8211,56,36,41
313.8211,314.0592,58,36,41
314.0592,314.2973,56,36,41
314.2973,314.5354,58,36,41
314.5354,314.7735,56,36,41
314.7735,315.0116,58,36,41
315.0116,315.2497,56,36,41
315.2497,315.4878,58,36,41
315.4878,315.72586,56,36,41
316.67825,316.91635,56,49,41
316.91635,317.15445,50,49,41
317.15445,317.39255,62,49,41
317.39255,317.63065,58,49,41
319.5354,319.7735,62,94,41
319.7735,320.0116,63,94,41
320.0116,320.2497,65,88,41
320.2497,320.3687,63,88,41
320.3687,320.48776,62,88,41
320.48776,320.72586,67,88,41
321.44016,321.67825,62,94,41
321.67825,321.91635,63,94,41
321.91635,322.15445,65,88,41
322.15445,322.2735,63,88,41
322.2735,322.39255,62,88,41
322.39255,322.5116,60,94,41
322.39255,322.5116,63,94,41
322.5116,322.6306,60,88,41
322.5116,322.6306,63,88,41
322.6306,322.74966,60,88,41
322.6306,322.74966,63,88,41
322.74966,322.8687,60,88,41
322.74966,322.8687,63,88,41
322.8687,322.98776,60,88,41
322.8687,322.98776,63,88,41
322.98776,323.1068,60,88,41
322.98776,323.1068,63,88,41
323.1068,323.22586,60,88,41
323.1068,323.22586,63,88,41
323.22586,323.3449,60,88,41
323.22586,323.3449,63,88,41
323.3449,323.46396,59,94,41
323.46396,323.583,59,88,41
323.583,323.70206,59,88,41
323.70206,323.8211,59,88,41
323.8211,323.94016,59,88,41
323.94016,324.0592,59,88,41
324.0592,324.17825,59,88,41
324.17825,324.2973,59,88,41
324.2973,324.41635,55,94,41
324.2973,324.41635,58,94,41
324.41635,324.5354,55,88,41
324.41635,324.5354,58,88,41
324.5354,324.65445,55,88,41
324.5354,324.65445,58,88,41
324.65445,324.7735,55,88,41
324.65445,324.7735,58,88,41
324.7735,324.89255,55,88,41
324.7735,324.89255,58,88,41
324.89255,325.01157,55,88,41
324.89255,325.01157,58,88,41
325.01157,325.1306,55,88,41
325.01157,325.1306,58,88,41
325.1306,325.24966,55,88,41
325.1306,325.24966,58,88,41
325.24966,325.3687,51,94,41
325.3687,325.48776,51,88,41
325.48776,325.6068,51,88,41
325.6068,325.72586,51,88,41
325.72586,325.8449,51,88,41
325.8449,325.96396,51,88,41
325.96396,326.083,51,88,41
326.083,326.20206,51,88,41
326.20206,326.3211,51,94,41
326.3211,326.44016,51,88,41
326.44016,326.5592,51,88,41
326.5592,326.67825,51,88,41
326.67825,326.7973,48,88,41
326.7973,326.91635,48,88,41
326.91635,327.0354,48,88,41
327.0354,327.15445,48,88,41
327.15445,327.27347,48,94,41
327.27347,327.39252,48,88,41
327.39252,327.51157,48,88,41
327.51157,327.6306,48,88,41
327.6306,327.74966,56,94,41
327.74966,327.8687,56,88,41
327.8687,327.98776,56,88,41
327.98776,328.1068,56,88,41
328.1068,328.22586,56,88,41
328.22586,328.3449,56,88,41
328.3449,328.46396,56,88,41
328.46396,328.583,56,88,41
328.583,328.70206,53,88,41
328.70206,328.8211,53,88,41
328.8211,328.94016,53,88,41
328.94016,329.0592,53,88,41
329.0592,329.17825,53,88,41
329.17825,329.2973,53,88,41
329.2973,329.41635,53,88,41
329.41635,329.53537,53,88,41
329.53537,329.65442,53,88,41
329.65442,329.77347,53,88,41
329.77347,329.89252,53,88,41
329.89252,330.01157,53,88,41
330.01157,330.1306,53,88,41
330.1306,330.24966,53,88,41
330.24966,330.3687,53,88,41
330.3687,330.48776,53,88,41
330.48776,330.6068,53,88,41
330.6068,330.72586,53,88,41
330.72586,330.8449,53,88,41
330.8449,330.96396,53,88,41
330.96396,331.083,53,88,41
331.083,331.20206,53,88,41
331.20206,331.3211,53,88,41
331.3211,331.44016,53,88,41
331.44016,331.5592,53,88,41
331.5592,331.67825,53,88,41
331.67825,331.7973,53,88,41
331.7973,331.91632,53,88,41
331.91632,332.03537,53,88,41
332.03537,332.15442,53,88,41
332.15442,332.27347,53,88,41
332.27347,332.39252,53,88,41
332.39252,332.51157,53,88,41
332.51157,332.6306,53,88,41
332.6306,332.74966,53,88,41
332.74966,332.8687,53,88,41
332.8687,332.98776,53,88,41
332.98776,333.1068,53,88,41
333.1068,333.22586,53,88,41
333.22586,333.3449,53,88,41
333.3449,333.46396,53,88,41
333.46396,333.583,53,49,41
333.583,333.70206,53,49,41
333.70206,333.8211,53,49,41
333.8211,333.94016,53,49,41
333.94016,334.0592,53,49,41
334.0592,334.17822,53,49,41
334.17822,334.29727,53,49,41
334.29727,334.41632,53,49,41
334.41632,334.53537,53,49,41
334.53537,334.65442,53,49,41
334.65442,334.77347,53,49,41
334.77347,334.89252,53,49,41
334.89252,335.01157,53,49,41
335.01157,335.1306,53,49,41
335.1306,335.24966,53,49,41
335.24966,335.3687,55,49,41
335.3687,335.48776,55,49,41
335.48776,335.6068,55,49,41
335.6068,335.72586,55,49,41
335.72586,335.8449,55,49,41
335.8449,335.96396,55,49,41
335.96396,336.083,55,49,41
336.083,336.20206,55,49,41
336.20206,336.3211,57,49,41
336.3211,336.44016,57,36,41
336.44016,336.55917,57,36,41
336.55917,336.67822,57,36,41
336.67822,336.79727,57,36,41
336.79727,336.91632,57,36,41
336.91632,337.03537,57,36,41
337.03537,337.15442,57,36,41
337.15442,337.27347,57,36,41
337.27347,337.39252,57,36,41
337.39252,337.51157,57,36,41
337.51157,337.6306,57,36,41
337.6306,337.74966,57,36,41
337.74966,337.8687,57,36,41
337.8687,337.98776,57,36,41
337.98776,338.1068,57,36,41
338.1068,338.22586,57,36,41
338.22586,338.3449,57,36,41
338.3449,338.46396,57,36,41
338.46396,338.583,57,36,41
338.583,338.70206,57,36,41
338.70206,338.82108,57,36,41
338.82108,338.94012,57,36,41
338.94012,339.05917,57,36,41
339.05917,339.17822,57,36,41
339.17822,339.29727,57,36,41
339.29727,339.41632,57,36,41
339.41632,339.53537,57,36,41
339.53537,339.65442,57,36,41
339.65442,339.77347,57,36,41
339.77347,339.89252,57,36,41
339.89252,340.01157,57,36,41
340.01157,340.1306,57,36,41
340.1306,340.24966,57,36,41
340.24966,340.3687,57,36,41
340.3687,340.48776,57,36,41
344.29727,344.34192,50,75,41
344.41632,344.46097,63,75,41
344.53537,344.58002,62,75,41
344.65442,344.69907,50,75,41
344.77347,344.8181,50,75,41
344.89252,344.93716,63,75,41
345.01157,345.0562,62,75,41
345.1306,345.17526,50,75,41
345.24966,345.2943,50,88,41
345.3687,345.41333,63,88,41
345.48776,345.53238,62,88,41
345.6068,345.65143,50,88,41
345.72583,345.77048,50,88,41
345.84488,345.88953,63,88,41
345.96393,346.00858,62,88,41
346.08298,346.12762,50,88,41
346.20203,346.44012,53,88,41
348.10678,348.34488,50,88,41
348.34488,348.58298,53,88,41
348.58298,348.82108,56,88,41
348.82108,349.05917,57,88,41
349.05917,349.29727,58,88,41
349.29727,349.53537,62,88,41
349.53537,349.77347,65,88,41
349.77347,350.01157,70,88,41
350.01157,350.1306,67,88,41
350.01157,350.1306,70,88,41
350.1306,350.24966,67,88,41
350.1306,350.24966,70,88,41
350.24966,350.36868,67,88,41
350.24966,350.36868,70,88,41
350.36868,350.48773,67,88,41
350.36868,350.48773,70,88,41
350.48773,350.60678,67,88,41
350.48773,350.60678,70,88,41
350.60678,350.72583,67,88,41
350.60678,350.72583,70,88,41
350.72583,350.84488,67,88,41
350.72583,350.84488,70,88,41
350.84488,350.96393,67,88,41
350.84488,350.96393,70,88,41
350.96393,351.08298,65,88,41
350.96393,351.08298,70,88,41
351.08298,351.20203,65,88,41
351.08298,351.20203,70,88,41
351.20203,351.32108,65,88,41
351.20203,351.32108,70,88,41
351.32108,351.44012,65,88,41
351.32108,351.44012,70,88,41
351.44012,351.55917,65,88,41
351.44012,351.55917,70,88,41
351.55917,351.67822,65,88,41
351.55917,351.67822,70,88,41
351.67822,351.79727,65,88,41
351.67822,351.79727,70,88,41
351.79727,351.91632,65,88,41
351.79727,351.91632,70,88,41
351.91632,352.03537,63,88,41
351.91632,352.03537,67,88,41
352.03537,352.15442,63,88,41
352.03537,352.15442,67,88,41
352.15442,352.27347,63,88,41
352.15442,352.27347,67,88,41
352.27347,352.39252,63,88,41
352.27347,352.39252,67,88,41
352.39252,352.51157,62,88,41
352.39252,352.51157,67,88,41
352.51157,352.6306,62,88,41
352.51157,352.6306,67,88,41
352.6306,352.74963,62,88,41
352.6306,352.74963,67,88,41
352.74963,352.86868,62,88,41
352.74963,352.86868,67,88,41
352.86868,352.98773,60,88,41
352.86868,352.98773,65,88,41
352.98773,353.10678,60,88,41
352.98773,353.10678,65,88,41
353.10678,353.22583,60,88,41
353.10678,353.22583,65,88,41
353.22583,353.34488,60,88,41
353.22583,353.34488,65,88,41
353.34488,353.46393,58,88,41
353.34488,353.46393,65,88,41
353.46393,353.58298,58,88,41
353.46393,353.58298,65,88,41
353.58298,353.70203,58,88,41
353.58298,353.70203,65,88,41
353.70203,353.82108,58,88,41
353.70203,353.82108,65,88,41
353.82108,353.94012,58,88,41
353.82108,353.94012,63,88,41
353.94012,354.05917,58,88,41
353.94012,354.05917,63,88,41
354.05917,354.17822,58,88,41
354.05917,354.17822,63,88,41
354.17822,354.29727,58,88,41
354.17822,354.29727,63,88,41
354.29727,354.41632,55,88,41
354.29727,354.41632,58,88,41
354.41632,354.53537,55,88,41
354.41632,354.53537,58,88,41
354.53537,354.65442,55,88,41
354.53537,354.65442,58,88,41
354.65442,354.77347,55,88,41
354.65442,354.77347,58,88,41
354.77347,354.89252,53,88,41
354.77347,354.89252,58,88,41
354.89252,355.01154,53,88,41
354.89252,355.01154,58,88,41
355.01154,355.13058,53,88,41
355.01154,355.13058,58,88,41
355.13058,355.24963,53,88,41
355.13058,355.24963,58,88,41
355.24963,355.36868,53,88,41
355.24963,355.36868,58,88,41
355.36868,355.48773,53,88,41
355.36868,355.48773,58,88,41
355.48773,355.60678,53,88,41
355.48773,355.60678,58,88,41
355.60678,355.72583,53,88,41
355.60678,355.72583,58,88,41
355.72583,355.84488,51,88,41
355.72583,355.84488,55,88,41
355.84488,355.96393,51,88,41
355.84488,355.96393,55,88,41
355.96393,356.08298,51,88,41
355.96393,356.08298,55,88,41
356.08298,356.20203,51,88,41
356.08298,356.20203,55,88,41
356.20203,356.32108,50,88,41
356.20203,356.32108,55,88,41
356.32108,356.44012,50,88,41
356.32108,356.44012,55,88,41
356.44012,356.55917,50,88,41
356.44012,356.55917,55,88,41
356.55917,356.67822,50,88,41
356.55917,356.67822,55,88,41
356.67822,356.79727,51,88,41
356.67822,356.79727,60,88,41
356.79727,356.91632,51,88,41
356.79727,356.91632,60,88,41
356.91632,357.03537,51,88,41
356.91632,357.03537,60,88,41
357.03537,357.15442,51,88,41
357.03537,357.15442,60,88,41
357.15442,357.27344,53,88,41
357.15442,357.27344,58,88,41
357.27344,357.3925,53,88,41
357.27344,357.3925,58,88,41
357.3925,357.51154,53,88,41
357.3925,357.51154,58,88,41
357.51154,357.63058,53,88,41
357.51154,357.63058,58,88,41
357.63058,357.74963,51,49,41
357.63058,357.74963,58,49,41
357.74963,357.86868,51,49,41
357.74963,357.86868,58,49,41
357.86868,357.98773,51,49,41
357.86868,357.98773,58,49,41
357.98773,358.10678,51,49,41
357.98773,358.10678,58,49,41
358.10678,358.22583,50,49,41
358.10678,358.22583,55,49,41
358.22583,358.34488,50,49,41
358.22583,358.34488,55,49,41
358.34488,358.46393,50,49,41
358.34488,358.46393,55,49,41
358.46393,358.58298,50,49,41
358.46393,358.58298,55,49,41
358.58298,358.70203,51,49,41
358.58298,358.70203,60,49,41
358.70203,358.82108,51,49,41
358.70203,358.82108,60,49,41
358.82108,358.94012,51,49,41
358.82108,358.94012,60,49,41
358.94012,359.05917,51,49,41
358.94012,359.05917,60,49,41
359.05917,359.17822,53,49,41
359.05917,359.17822,58,49,41
359.17822,359.29727,53,49,41
359.17822,359.29727,58,49,41
359.29727,359.41632,53,49,41
359.29727,359.41632,58,49,41
359.41632,359.53537,53,49,41
359.41632,359.53537,58,49,41
359.53537,359.6544,58,49,41
359.6544,359.77344,58,49,41
359.77344,359.8925,62,49,41
359.8925,360.01154,62,49,41
360.01154,360.13058,63,49,41
360.13058,360.24963,63,49,41
360.24963,360.36868,65,49,41
360.36868,360.48773,65,49,41
360.48773,360.60678,58,49,41
360.60678,360.72583,58,49,41
360.72583,360.84488,62,49,41
360.84488,360.96393,62,49,41
360.96393,361.08298,63,49,41
361.08298,361.20203,63,49,41
361.20203,361.32108,65,49,41
361.32108,361.44012,65,49,41
361.44012,361.55917,58,49,41
361.55917,361.67822,58,49,41
361.67822,361.79727,62,49,41
361.79727,361.9163,62,49,41
361.9163,362.03534,63,49,41
362.03534,362.1544,63,49,41
362.1544,362.27344,65,49,41
362.27344,362.3925,65,49,41
362.3925,362.51154,58,49,41
362.51154,362.63058,58,49,41
362.63058,362.74963,64,49,41
362.74963,362.86868,64,49,41
362.86868,362.98773,65,49,41
362.98773,363.10678,65,49,41
363.10678,363.22583,67,101,41
363.22583,363.34488,67,101,41
363.34488,363.58298,60,101,41
363.34488,363.58298,68,101,41
363.82108,364.05917,56,101,41
363.82108,364.05917,62,101,41
364.29724,364.53534,55,101,41
364.29724,364.53534,63,101,41
364.53534,365.01154,51,101,41
365.01154,365.24963,52,101,41
365.24963,365.72583,53,101,41
365.72583,365.78534,50,101,41
365.78534,365.84488,48,101,41
365.84488,365.9044,50,101,41
365.9044,365.96393,48,101,41
365.96393,366.02344,50,101,41
366.02344,366.08298,48,101,41
366.08298,366.1425,50,101,41
366.1425,366.20203,48,101,41
366.20203,366.32108,51,101,41
366.32108,366.44012,55,101,41
366.44012,366.55914,58,101,41
366.55914,366.6782,62,101,41
366.6782,366.9163,63,101,41
366.9163,367.03534,65,101,41
367.03534,367.1544,67,101,41
367.1544,367.27344,68,101,41
367.27344,367.3925,65,101,41
367.3925,367.51154,62,101,41
367.51154,367.63058,60,101,41
367.63058,367.74963,56,101,41
367.74963,367.86868,55,101,41
367.86868,367.98773,53,101,41
367.98773,368.10678,60,101,41
368.10678,368.34488,58,101,41
368.34488,368.82104,55,107,41
368.82104,368.9401,55,101,41
368.9401,369.05914,58,101,41
369.05914,369.1534,56,49,41
369.29724,369.3915,55,49,41
369.53534,370.01154,53,49,41
370.01154,370.48773,51,49,41
370.72583,370.84488,65,49,41
370.84488,370.96393,67,49,41
370.96393,371.08298,68,49,41
371.08298,371.202,65,36,41
371.202,371.32104,62,36,41
371.32104,371.4401,60,36,41
371.4401,371.55914,56,36,41
371.55914,371.6782,55,36,41
371.6782,371.79724,53,36,41
371.79724,371.9163,60,36,41
371.9163,372.1544,58,36,41
372.1544,372.63058,55,42,41
372.63058,372.74963,55,36,41
372.74963,372.86868,58,36,41
372.86868,372.96292,56,36,41
373.10678,373.20102,55,36,41
373.34488,373.82104,53,42,41
373.82104,373.9153,55,36,41
374.05914,374.15338,51,36,41
374.29724,374.77344,53,36,41
374.77344,374.86768,55,36,41
375.01154,375.10577,51,36,41
375.24963,375.72583,53,36,41
375.72583,375.82007,55,36,41
375.9639,376.05817,51,36,41
376.202,376.6782,53,36,41
376.6782,376.77243,55,36,41
376.9163,377.01053,51,36,41
377.1544,377.63058,53,36,41
377.63058,377.74963,63,49,41
377.74963,377.86868,51,49,41
377.86868,377.98773,63,49,41
377.98773,378.10675,51,49,41
378.10675,378.2258,63,49,41
378.2258,378.34485,51,49,41
378.34485,378.4639,63,49,41
378.4639,378.58295,51,49,41
378.58295,378.702,63,49,41
378.702,378.82104,51,49,41
378.82104,378.9401,63,49,41
378.9401,379.05914,51,49,41
379.05914,379.1782,63,49,41
379.1782,379.29724,51,49,41
379.29724,379.4163,63,49,41
379.4163,379.53534,51,49,41
379.53534,379.6544,63,49,41
379.6544,379.77344,51,49,41
379.77344,379.8925,63,49,41
379.8925,380.01154,51,49,41
380.01154,380.13058,63,49,41
380.13058,380.24963,51,49,41
380.24963,380.36865,63,49,41
380.36865,380.4877,51,49,41
380.4877,380.60675,63,88,41
380.60675,380.7258,51,88,41
380.7258,380.84485,63,88,41
380.84485,380.9639,51,88,41
380.9639,381.08295,62,88,41
381.08295,381.202,50,88,41
381.202,381.32104,62,88,41
381.32104,381.4401,50,88,41
381.4401,381.55914,63,88,41
381.55914,381.6782,51,88,41
381.6782,381.79724,63,88,41
381.79724,381.9163,51,88,41
381.9163,382.03534,62,88,41
382.03534,382.1544,50,88,41
382.1544,382.27344,62,88,41
382.27344,382.3925,50,88,41
382.3925,382.51154,63,88,41
382.51154,382.63058,51,88,41
382.63058,382.7496,63,88,41
382.7496,382.86865,51,88,41
382.86865,382.9877,62,88,41
382.9877,383.10675,50,88,41
383.10675,383.2258,62,88,41
383.2258,383.34485,50,88,41
383.34485,383.4639,63,88,41
383.4639,383.58295,51,88,41
383.58295,383.702,63,88,41
383.702,383.82104,51,88,41
383.82104,383.9401,65,88,41
383.9401,384.05914,53,88,41
384.05914,384.1782,65,88,41
384.1782,384.29724,53,88,41
384.29724,384.77344,55,101,41
384.29724,384.77344,63,101,41
385.2496,385.7258,51,107,41
385.2496,385.7258,55,107,41
385.7258,386.202,51,107,41
385.7258,386.202,55,107,41
386.202,387.1544,51,107,41
386.202,387.1544,55,107,41
0.25,0.2946428,77,49,40
0.3690475,0.4136903,79,49,40
0.488095,0.5327378,80,49,40
0.6071425,0.6517853,77,49,40
0.72619,0.77083284,74,49,40
0.8452375,0.8898803,72,49,40
0.964285,1.0089278,68,49,40
1.0833325,1.1279753,67,49,40
1.20238,1.2470229,65,49,40
1.3214275,1.3660703,72,49,40
1.440475,1.5347209,70,49,40
1.67857,2.15476,67,55,40
2.15476,2.2688472,67,49,40
2.2738075,2.392855,70,49,40
2.392855,2.4871008,68,49,40
2.63095,2.725196,67,49,40
2.869045,3.345235,65,55,40
3.345235,3.821425,63,55,40
4.05952,4.1785674,77,49,40
4.1785674,4.297615,79,49,40
4.297615,4.4166627,80,49,40
4.4166627,4.53571,77,49,40
4.53571,4.6547575,74,49,40
4.6547575,4.773805,72,49,40
4.773805,4.8928523,68,49,40
4.8928523,5.0119,67,49,40
5.0119,5.1309476,65,49,40
5.1309476,5.249995,72,49,40
5.249995,5.48809,70,49,40
5.48809,5.96428,67,55,40
5.96428,6.078367,72,49,40
6.0833273,6.202375,75,49,40
6.202375,6.296621,74,49,40
6.44047,6.4851127,72,49,40
6.5595174,6.6041603,70,49,40
6.678565,7.154755,69,55,40
7.154755,7.630945,67,88,40
7.86904,7.913683,77,49,40
7.9880877,8.03273,79,49,40
8.107135,8.151778,80,49,40
8.226183,8.270825,77,49,40
8.34523,8.389873,74,49,40
8.464277,8.508921,72,49,40
8.583325,8.627968,68,49,40
8.702373,8.747015,67,49,40
8.82142,8.866063,65,49,40
8.940468,8.98511,72,49,40
9.059515,9.153761,70,49,40
9.29761,9.7738,67,55,40
9.7738,9.887887,67,49,40
9.892847,10.011895,70,49,40
10.011895,10.106141,68,49,40
10.24999,10.344236,67,49,40
10.488085,10.964275,65,55,40
10.964275,11.440465,63,55,40
11.67856,11.797607,77,49,40
11.797607,11.916655,79,49,40
11.916655,12.035703,80,49,40
12.035703,12.15475,77,49,40
12.15475,12.273797,74,49,40
12.273797,12.392845,72,49,40
12.392845,12.511892,68,49,40
12.511892,12.63094,67,49,40
12.63094,12.749988,65,49,40
12.749988,12.869035,72,49,40
12.869035,13.10713,70,49,40
13.10713,13.58332,67,55,40
13.58332,13.697407,72,49,40
13.702368,13.821415,75,49,40
13.821415,13.915661,74,49,40
14.05951,14.104153,72,49,40
14.178557,14.2232,70,49,40
14.297605,14.773795,69,55,40
14.773795,15.249985,67,88,40
15.48808,15.532722,70,49,40
15.607127,15.651771,72,49,40
15.726175,15.845222,73,55,40
15.845222,15.96427,70,49,40
15.96427,16.083317,67,49,40
16.083317,16.202366,65,49,40
16.202366,16.321413,64,49,40
16.321413,16.44046,65,49,40
16.44046,16.559507,67,49,40
16.559507,16.678555,68,49,40
16.678555,16.91665,70,49,40
16.91665,17.39284,68,55,40
17.39284,17.511887,70,49,40
17.511887,17.630936,72,49,40
17.630936,17.749983,73,55,40
17.749983,17.86903,70,49,40
17.86903,17.988077,67,49,40
17.988077,18.107124,65,49,40
18.107124,18.226173,64,49,40
18.226173,18.34522,65,49,40
18.34522,18.464268,67,49,40
18.464268,18.583315,68,49,40
18.583315,18.82141,70,49,40
18.82141,19.2976,68,55,40
19.2976,19.416647,68,49,40
19.416647,19.535694,70,49,40
19.535694,19.654743,71,55,40
19.654743,19.77379,68,49,40
19.77379,19.892838,65,49,40
19.892838,20.011885,63,49,40
20.011885,20.130932,62,49,40
20.130932,20.24998,63,49,40
20.24998,20.369028,65,49,40
20.369028,20.488075,67,49,40
20.488075,20.72617,68,49,40
20.72617,21.20236,67,55,40
21.20236,21.321407,68,49,40
21.321407,21.440454,70,49,40
21.440454,21.559502,71,55,40
21.559502,21.67855,68,49,40
21.67855,21.797598,65,49,40
21.797598,21.916645,63,49,40
21.916645,22.035692,62,49,40
22.035692,22.15474,63,49,40
22.15474,22.273788,65,49,40
22.273788,22.392836,67,49,40
22.392836,22.63093,68,49,40
22.63093,23.10712,67,55,40
23.10712,23.226168,68,49,40
23.226168,23.345215,70,49,40
23.345215,23.464262,71,55,40
23.464262,23.58331,70,49,40
23.58331,23.702358,68,49,40
23.702358,23.821405,65,49,40
23.821405,23.940453,62,49,40
23.940453,24.0595,65,49,40
24.0595,24.178547,68,49,40
24.178547,24.297594,70,49,40
24.297594,24.416643,71,55,40
24.416643,24.53569,70,49,40
24.53569,24.654737,68,49,40
24.654737,24.773785,65,49,40
24.773785,24.892832,62,49,40
24.892832,25.01188,65,49,40
25.01188,25.130928,68,49,40
25.130928,25.249975,70,49,40
25.249975,25.369022,71,55,40
25.369022,25.48807,70,49,40
25.48807,25.607117,68,49,40
25.607117,25.726166,65,49,40
25.726166,25.845213,71,49,40
25.845213,25.96426,70,49,40
25.96426,26.083307,68,49,40
26.083307,26.202354,65,49,40
26.202354,26.321402,71,55,40
26.321402,26.44045,70,49,40
26.44045,26.559498,68,49,40
26.559498,26.678545,65,49,40
26.678545,26.797592,71,49,40
26.797592,26.91664,70,49,40
26.91664,27.035688,68,49,40
27.035688,27.154736,65,49,40
27.154736,27.630924,71,49,40
27.630924,29.178543,70,49,40
29.178543,29.29759,72,36,40
29.29759,29.416637,70,36,40
29.416637,29.535685,69,36,40
29.535685,29.654732,70,36,40
29.654732,29.77378,72,36,40
29.77378,29.892828,74,36,40
29.892828,30.011875,75,36,40
30.011875,30.130922,77,36,40
30.130922,30.24997,75,36,40
30.24997,30.369017,74,36,40
30.369017,30.488066,72,36,40
30.488066,30.607113,74,36,40
30.607113,30.72616,75,36,40
30.72616,30.845207,77,36,40
30.845207,30.964254,79,36,40
30.964254,31.440445,80,49,40
31.440445,31.916636,82,49,40
31.916636,32.392826,79,49,40
32.392826,32.581318,87,49,40
32.869015,33.10711,87,49,40
33.10711,33.345203,82,49,40
33.345203,33.5833,80,55,40
33.5833,33.702347,79,49,40
33.702347,33.821396,77,49,40
33.821396,34.05949,75,49,40
34.05949,34.53568,70,49,40
35.48806,35.532703,68,49,40
35.60711,35.65175,72,49,40
35.726154,35.8204,70,49,40
35.96425,36.058495,68,49,40
36.202347,36.678535,67,55,40
37.39282,37.43746,68,49,40
37.511868,37.55651,72,49,40
37.630917,37.725163,70,49,40
37.86901,37.963257,68,49,40
38.107105,38.20135,67,49,40
38.3452,38.389843,84,75,40
38.46425,38.508892,87,75,40
38.583294,38.67754,85,75,40
38.82139,38.915634,84,75,40
39.059486,39.535675,82,81,40
39.535675,39.654724,84,75,40
39.654724,39.77377,85,75,40
39.77377,39.89282,84,75,40
39.89282,40.011864,82,75,40
40.011864,40.130913,80,75,40
40.130913,40.24996,82,75,40
40.24996,40.369007,84,75,40
40.369007,40.488056,87,75,40
40.488056,40.582302,85,75,40
40.72615,40.820396,84,75,40
40.964245,41.440434,82,81,40
41.440434,41.559483,84,75,40
41.559483,41.67853,85,75,40
41.67853,41.797577,84,75,40
41.797577,41.916626,82,75,40
41.916626,42.03567,80,75,40
42.03567,42.15472,84,75,40
42.15472,42.27377,89,75,40
42.27377,42.392815,91,75,40
42.392815,42.511864,92,88,40
42.511864,42.63091,89,88,40
42.63091,42.749958,86,88,40
42.749958,42.869003,84,88,40
42.869003,42.988052,80,88,40
42.988052,43.1071,79,88,40
43.1071,43.226147,77,88,40
43.226147,43.345196,84,88,40
43.345196,43.43944,82,88,40
43.58329,44.05948,79,94,40
44.05948,44.104122,79,88,40
44.178528,44.22317,82,88,40
44.297577,44.391823,80,88,40
44.53567,44.629917,79,88,40
44.773766,45.249954,77,94,40
45.249954,45.369003,75,101,40
45.369003,45.48805,74,101,40
45.48805,45.607098,75,101,40
45.607098,45.726147,74,101,40
45.726147,45.96424,75,101,40
45.96424,46.202335,70,107,40
46.202335,46.44043,72,107,40
46.44043,46.678524,74,107,40
46.678524,46.91662,75,107,40
46.91662,47.154716,70,107,40
47.154716,47.39281,72,107,40
47.39281,47.630905,74,107,40
47.630905,47.869,75,107,40
47.869,48.107094,70,107,40
48.107094,48.583286,55,107,40
48.107094,48.583286,63,107,40
48.107094,48.583286,72,107,40
48.583286,49.059475,55,107,40
48.583286,49.059475,62,107,40
48.583286,49.059475,71,107,40
49.059475,49.535664,55,107,40
49.059475,49.535664,63,107,40
49.059475,49.535664,72,107,40
54.53566,54.629906,86,36,40
54.773754,55.01185,87,36,40
55.01185,55.249947,86,36,40
55.249947,55.48804,87,36,40
55.48804,55.726135,82,36,40
55.726135,55.96423,84,36,40
55.96423,56.202324,86,36,40
56.202324,56.44042,87,36,40
56.44042,56.678516,82,36,40
56.678516,56.91661,84,36,40
56.91661,57.154705,86,36,40
57.154705,57.3928,87,36,40
57.3928,57.630894,82,36,40
57.630894,57.86899,80,36,40
57.86899,58.107086,82,36,40
58.107086,58.34518,84,36,40
58.34518,58.583275,79,36,40
58.583275,58.82137,77,36,40
58.82137,59.059464,79,36,40
59.059464,59.29756,80,36,40
59.29756,59.535656,76,36,40
59.535656,59.77375,77,36,40
59.77375,60.011845,79,36,40
60.011845,60.24994,80,36,40
60.24994,60.488033,76,36,40
60.488033,60.72613,77,36,40
60.72613,60.964226,79,36,40
60.964226,61.20232,80,36,40
61.20232,61.440414,79,36,40
61.440414,61.67851,79,36,40
61.67851,61.916607,77,36,40
61.916607,62.1547,77,36,40
62.1547,62.392796,75,36,40
62.392796,63.10708,74,36,40
63.10708,63.345177,77,36,40
63.345177,63.439423,74,36,40
63.58327,63.677517,75,36,40
63.821365,64.297554,77,42,40
64.297554,64.3918,74,36,40
64.53565,64.6299,75,36,40
64.77374,65.24993,77,42,40
65.24993,65.96422,75,36,40
65.96422,66.20232,77,36,40
66.20232,66.29656,75,36,40
66.44041,66.53465,77,36,40
66.678505,67.15469,79,42,40
67.15469,67.24894,75,36,40
67.39279,67.48704,77,36,40
67.63088,68.10708,79,42,40
68.10708,68.22612,77,36,40
68.22612,68.34517,76,36,40
68.34517,68.46422,77,36,40
68.46422,68.58327,76,36,40
68.58327,68.82136,77,36,40
68.82136,68.9156,74,36,40
69.059456,69.1537,77,36,40
69.29755,69.39179,79,36,40
69.535645,69.62989,80,36,40
69.77374,69.86799,77,36,40
70.01183,70.10608,79,36,40
70.24993,70.34418,80,36,40
70.48802,70.58227,82,36,40
70.72612,70.820366,79,36,40
70.96422,71.20231,81,36,40
71.20231,71.44041,82,36,40
71.44041,71.6785,84,36,40
71.6785,71.916595,81,36,40
71.916595,72.01084,82,88,40
72.15469,72.24894,84,88,40
72.392784,73.34516,86,88,40
73.34516,74.29755,82,88,40
74.29755,75.24992,79,88,40
75.24992,75.96421,75,88,40
75.96421,76.05846,74,88,40
76.20231,76.296555,72,88,40
76.4404,76.534645,77,88,40
76.6785,77.39278,74,49,40
77.39278,77.630875,77,49,40
77.630875,77.72512,74,49,40
77.86897,77.96322,75,49,40
78.10706,78.20131,77,49,40
78.58325,78.82135,74,49,40
78.82135,79.05945,75,49,40
79.05945,79.29754,77,49,40
79.53564,80.24992,75,49,40
80.24992,80.488014,74,49,40
80.488014,80.58226,75,49,40
80.72611,80.82036,77,49,40
80.9642,81.05845,78,49,40
81.2023,81.29655,74,49,40
81.44039,81.53464,75,49,40
81.67849,81.772736,77,49,40
81.91659,82.01083,78,49,40
82.15468,82.248924,75,49,40
82.39278,82.48702,77,49,40
82.63087,82.72511,78,49,40
82.868965,82.96321,80,49,40
83.10706,83.20131,77,49,40
83.34515,83.4394,77,49,40
83.58325,83.6775,78,49,40
83.82134,83.91559,80,49,40
84.05944,84.15369,77,49,40
84.29754,84.391785,78,49,40
84.53563,84.629875,80,49,40
84.77373,84.86797,82,49,40
85.01182,85.106064,78,49,40
85.249916,85.34416,78,49,40
85.48801,85.58225,80,49,40
85.726105,85.82035,82,49,40
85.9642,86.05845,78,49,40
86.20229,86.44039,82,36,40
86.44039,86.67848,84,36,40
86.67848,86.91658,86,36,40
86.91658,87.15468,82,36,40
87.86896,87.98801,77,49,40
87.98801,88.107056,79,49,40
88.107056,88.226105,80,49,40
88.226105,88.34515,77,49,40
88.34515,88.464195,74,49,40
88.464195,88.583244,72,49,40
88.583244,88.70229,68,49,40
88.70229,88.82134,67,49,40
88.82134,88.940384,65,49,40
88.940384,89.05943,72,49,40
89.05943,89.29753,70,49,40
89.29753,89.77372,67,55,40
89.77372,89.89277,67,49,40
89.89277,90.01182,70,49,40
90.01182,90.106064,68,49,40
90.24991,90.344154,67,49,40
90.48801,90.964195,65,55,40
90.964195,91.440384,63,49,40
91.67848,91.79753,89,88,40
91.79753,91.91657,91,88,40
91.91657,92.03562,92,88,40
92.03562,92.15467,89,88,40
92.15467,92.27372,86,88,40
92.27372,92.39276,84,88,40
92.39276,92.51181,83,88,40
92.51181,92.63086,80,88,40
92.63086,92.74991,79,88,40
92.74991,92.86896,89,88,40
92.86896,93.10705,87,88,40
93.10705,93.58324,84,88,40
93.58324,93.702286,79,88,40
93.702286,93.821335,82,88,40
93.821335,94.05943,80,88,40
94.05943,94.53562,77,94,40
94.53562,94.65467,79,88,40
94.65467,94.77371,82,88,40
94.77371,95.01181,80,88,40
95.01181,95.488,77,94,40
95.488,95.60705,79,88,40
95.60705,95.7261,82,88,40
95.7261,95.96419,80,88,40
97.39276,97.51181,71,88,40
97.51181,97.63085,73,88,40
97.63085,97.86895,72,88,40
97.86895,97.988,67,88,40
97.988,98.10705,70,88,40
98.10705,98.34514,68,88,40
98.34514,98.46419,64,88,40
98.46419,98.58324,67,88,40
98.58324,98.82133,65,88,40
98.82133,98.94038,62,88,40
98.94038,99.059425,65,88,40
99.059425,99.29752,63,88,40
99.29752,99.416565,62,88,40
99.416565,99.535614,65,88,40
99.535614,99.77371,63,88,40
99.77371,99.89276,62,88,40
99.89276,100.0118,65,88,40
100.0118,100.2499,63,88,40
100.2499,100.36895,62,88,40
100.36895,100.48799,65,88,40
100.48799,100.72609,63,88,40
100.96419,101.20228,62,88,40
101.44038,102.63085,62,88,40
102.63085,102.86894,63,88,40
102.86894,103.10704,60,88,40
103.10704,103.58323,57,88,40
103.58323,103.70228,58,88,40
103.70228,103.82133,60,88,40
103.82133,104.297516,58,88,40
108.10703,108.20128,79,36,40
108.34513,108.43938,81,36,40
108.58322,108.82132,82,36,40
108.82132,108.94037,81,36,40
108.94037,109.05942,79,36,40
109.05942,109.53561,81,36,40
109.53561,110.011795,86,36,40
110.011795,110.48798,79,36,40
110.48798,110.96417,81,36,40
110.96417,111.44037,77,42,40
111.44037,111.91656,74,36,40
111.91656,112.0108,72,36,40
112.15465,112.24889,74,36,40
112.392746,112.63084,75,36,40
112.63084,112.749886,74,36,40
112.749886,112.868935,72,36,40
112.868935,113.34512,74,36,40
113.34512,113.82131,79,36,40
113.82131,114.29751,72,36,40
114.29751,114.7737,74,36,40
114.7737,115.249886,70,36,40
115.249886,115.726074,65,36,40
115.726074,116.20226,72,36,40
116.20226,116.67845,74,36,40
116.67845,117.15465,70,36,40
117.15465,117.63084,65,36,40
117.63084,118.107025,72,36,40
118.107025,118.58321,74,36,40
118.58321,119.0594,70,36,40
119.0594,119.5356,65,36,40
119.5356,120.01179,75,36,40
120.01179,120.487976,77,36,40
120.487976,120.964165,73,36,40
120.964165,121.44035,68,36,40
121.44035,121.91654,75,36,40
121.91654,122.39274,77,36,40
122.39274,122.86893,73,36,40
122.86893,123.345116,68,36,40
123.345116,123.821304,77,36,40
123.821304,124.29749,72,36,40
124.29749,124.77368,77,36,40
124.77368,125.24988,72,36,40
125.24988,125.72607,77,36,40
125.72607,126.202255,72,36,40
126.202255,126.678444,77,36,40
126.678444,127.15463,72,36,40
127.15463,127.63082,78,36,40
127.63082,128.10701,74,36,40
128.10701,128.5832,78,36,40
128.5832,129.0594,74,36,40
129.0594,129.53558,78,36,40
129.53558,130.01178,74,36,40
130.01178,130.48796,78,36,40
130.48796,130.96416,74,36,40
130.96416,131.0584,79,36,40
131.20226,131.2965,81,36,40
131.44034,131.67844,83,36,40
131.67844,131.79749,81,36,40
131.79749,131.91653,79,36,40
131.91653,132.39273,81,36,40
132.39273,132.86891,86,36,40
132.86891,133.34511,79,36,40
133.34511,133.82129,83,36,40
133.82129,134.29749,81,36,40
134.29749,134.77368,78,36,40
134.77368,134.86792,79,36,40
135.01176,135.10602,81,36,40
135.24986,135.48796,83,36,40
135.48796,135.60701,81,36,40
135.60701,135.72606,79,36,40
135.72606,136.20224,81,36,40
136.20224,136.67844,86,36,40
136.67844,137.15463,79,36,40
137.15463,137.63081,83,36,40
137.63081,138.10701,81,36,40
138.10701,138.58319,78,36,40
138.82129,138.94034,79,88,40
138.94034,139.05939,78,88,40
139.05939,139.17844,79,88,40
139.17844,139.29749,74,88,40
139.29749,139.41653,72,88,40
139.41653,139.53557,70,88,40
139.53557,139.65462,72,88,40
139.65462,139.77367,75,88,40
139.77367,139.89272,74,88,40
139.89272,140.01176,72,88,40
140.01176,140.13081,70,88,40
140.13081,140.24986,69,88,40
140.24986,140.36891,67,88,40
140.36891,140.48796,66,88,40
140.48796,140.60701,67,88,40
140.60701,140.72604,70,88,40
140.72604,140.8451,69,88,40
140.8451,140.96414,67,88,40
140.96414,141.08319,65,88,40
141.08319,141.20224,64,88,40
141.20224,141.32129,62,88,40
141.32129,141.44034,61,88,40
141.44034,141.55939,62,88,40
141.55939,141.67844,64,88,40
141.67844,141.79747,65,88,40
141.79747,141.91652,64,88,40
141.91652,142.03557,65,88,40
142.03557,142.15462,67,88,40
142.15462,142.27367,69,88,40
142.27367,142.39272,71,88,40
142.39272,142.63081,72,88,40
146.20224,146.67842,87,88,40
146.67842,146.91652,86,88,40
146.91652,147.15462,84,88,40
147.15462,148.107,86,88,40
148.107,148.58319,87,88,40
148.58319,148.82127,86,88,40
148.82127,149.05937,84,88,40
149.05937,149.53557,86,88,40
149.53557,150.01175,82,88,40
150.01175,150.48795,87,88,40
150.48795,150.96414,89,88,40
150.96414,151.44032,86,88,40
151.44032,151.91652,82,88,40
151.91652,152.3927,87,88,40
152.3927,152.8689,89,88,40
152.8689,153.34508,86,88,40
153.34508,153.82127,82,88,40
153.82127,153.94032,87,88,40
153.94032,154.05937,89,88,40
154.05937,154.17842,90,88,40
154.17842,154.29747,87,88,40
154.29747,154.41652,84,88,40
154.41652,154.53555,86,88,40
154.53555,154.6546,87,88,40
154.6546,154.77365,90,88,40
154.77365,154.8927,81,88,40
154.8927,155.01175,82,88,40
155.01175,155.1308,84,88,40
155.1308,155.24985,82,88,40
155.24985,155.3689,81,88,40
155.3689,155.48795,82,88,40
155.48795,155.607,84,88,40
155.607,155.72603,87,88,40
155.72603,155.84508,75,88,40
155.84508,155.96413,77,88,40
155.96413,156.08318,78,88,40
156.08318,156.20222,75,88,40
156.20222,156.32127,72,88,40
156.32127,156.44032,74,88,40
156.44032,156.55937,75,88,40
156.55937,156.67842,78,88,40
156.67842,156.79747,69,88,40
156.79747,156.9165,70,88,40
156.9165,157.03555,72,88,40
157.03555,157.1546,70,88,40
157.1546,157.27365,69,88,40
157.27365,157.3927,70,88,40
157.3927,157.51175,72,88,40
157.51175,157.6308,75,88,40
157.6308,158.10698,74,94,40
158.10698,158.34508,72,88,40
158.34508,158.58318,70,88,40
158.58318,159.05937,82,94,40
159.05937,159.29745,81,88,40
159.29745,159.53555,79,88,40
159.53555,160.01175,86,100,40
160.01175,160.24985,84,88,40
160.24985,160.48793,82,88,40
160.48793,160.96413,94,94,40
160.96413,161.20222,93,88,40
161.20222,161.4403,91,88,40
161.4403,163.34508,89,94,40
163.34508,163.82126,87,88,40
163.82126,164.29745,89,88,40
164.29745,164.77365,86,88,40
164.77365,165.24983,82,88,40
165.24983,166.20221,81,88,40
166.20221,167.1546,82,88,40
167.1546,167.63078,75,36,40
167.63078,168.10698,69,36,40
167.63078,168.10698,77,36,40
168.10698,169.05936,65,36,40
168.10698,169.05936,74,36,40
169.05936,169.53554,75,36,40
169.53554,170.01173,69,36,40
169.53554,170.01173,77,36,40
170.01173,170.96411,65,36,40
170.01173,170.96411,74,36,40
170.96411,171.4403,75,36,40
171.4403,171.91649,77,36,40
171.91649,172.39268,75,36,40
172.39268,172.86888,77,36,40
172.86888,173.10696,75,36,40
173.10696,173.34506,77,36,40
173.34506,173.58316,79,36,40
173.58316,173.82126,81,36,40
173.82126,174.05936,82,36,40
174.05936,174.29744,84,36,40
174.29744,174.53554,86,36,40
174.53554,174.77364,87,36,40
174.77364,175.01173,86,36,40
175.01173,175.24983,84,36,40
175.24983,175.48792,86,36,40
175.48792,175.60696,84,36,40
175.60696,175.72601,82,36,40
175.72601,176.20221,84,36,40
176.20221,176.67839,89,36,40
176.67839,177.15459,82,36,40
177.15459,177.63077,84,36,40
177.63077,178.10696,81,36,40
178.10696,178.58316,77,36,40
178.58316,178.82124,79,36,40
178.82124,179.05934,81,36,40
179.05934,179.29744,82,36,40
179.29744,179.41649,81,36,40
179.41649,179.53554,79,36,40
179.53554,180.01172,81,36,40
180.01172,180.48792,86,36,40
180.48792,180.96411,79,36,40
180.96411,181.44029,81,36,40
181.44029,181.91649,77,36,40
181.91649,182.39267,74,36,40
182.39267,182.63077,72,36,40
182.63077,182.86887,74,36,40
182.86887,183.10696,75,36,40
183.10696,183.22601,74,36,40
183.22601,183.34506,72,36,40
183.34506,183.58315,82,42,40
185.24982,187.15457,78,88,40
187.15457,188.10695,77,49,40
188.10695,189.05934,75,49,40
189.05934,189.53552,73,49,40
189.53552,189.77362,72,49,40
189.77362,190.01172,70,49,40
190.01172,190.9641,69,49,40
190.9641,191.91647,70,49,40
191.91647,193.10695,75,49,40
193.10695,193.34505,74,49,40
193.34505,193.58315,70,49,40
193.58315,193.82123,77,49,40
193.82123,195.0117,75,49,40
195.0117,195.13075,74,49,40
195.13075,195.2498,72,36,40
195.2498,195.4879,74,36,40
195.4879,195.9641,75,36,40
195.9641,196.08313,74,36,40
196.08313,196.20218,72,36,40
196.20218,196.44028,74,36,40
196.44028,196.91647,75,36,40
196.91647,197.03552,74,36,40
197.03552,197.15457,72,36,40
197.15457,197.39265,74,36,40
197.39265,197.7498,75,36,40
197.7498,197.86885,73,36,40
197.86885,197.9879,71,23,40
197.9879,198.10695,68,23,40
198.10695,198.226,65,23,40
198.226,198.34505,68,23,40
198.34505,198.46408,71,23,40
198.46408,198.58313,75,23,40
198.58313,198.82123,73,23,40
198.82123,199.29742,70,29,40
199.29742,199.41647,70,23,40
199.41647,199.53552,73,23,40
199.53552,199.62976,71,23,40
199.7736,199.86786,70,23,40
200.0117,200.4879,68,29,40
200.4879,200.96408,70,23,40
201.20218,201.32123,68,23,40
201.32123,201.44028,70,23,40
201.44028,201.55933,71,23,40
201.55933,201.67838,70,23,40
201.67838,201.79742,68,23,40
201.79742,201.91646,66,23,40
201.91646,202.0355,65,23,40
202.0355,202.15456,68,23,40
202.15456,202.2736,71,23,40
202.2736,202.39265,75,23,40
202.39265,202.63075,73,23,40
202.63075,203.10693,70,29,40
203.10693,203.22598,70,23,40
203.22598,203.34503,73,23,40
203.34503,203.43929,71,23,40
203.58313,203.67738,70,23,40
203.82123,204.29741,68,29,40
204.29741,204.7736,66,23,40
204.7736,205.0117,78,23,40
205.2498,205.48788,64,88,40
205.2498,205.48788,71,88,40
205.2498,205.48788,80,88,40
205.72598,205.96408,64,88,40
205.72598,205.96408,74,88,40
205.72598,205.96408,83,88,40
206.20218,206.44028,64,88,40
206.20218,206.44028,73,88,40
206.20218,206.44028,81,88,40
206.67836,206.91646,69,88,40
206.67836,206.91646,76,88,40
206.67836,206.91646,85,88,40
207.15456,207.39265,64,88,40
207.15456,207.39265,71,88,40
207.15456,207.39265,78,88,40
207.63075,207.86884,64,88,40
207.63075,207.86884,74,88,40
207.63075,207.86884,83,88,40
208.10693,208.34503,64,88,40
208.10693,208.34503,73,88,40
208.10693,208.34503,81,88,40
208.58313,208.82121,69,88,40
208.58313,208.82121,76,88,40
208.58313,208.82121,85,88,40
209.05931,209.29741,64,88,40
209.05931,209.29741,71,88,40
209.05931,209.29741,80,88,40
209.5355,209.7736,64,88,40
209.5355,209.7736,74,88,40
209.5355,209.7736,83,88,40
210.01169,210.24979,64,88,40
210.01169,210.24979,73,88,40
210.01169,210.24979,81,88,40
210.48788,210.72598,69,88,40
210.48788,210.72598,76,88,40
210.48788,210.72598,85,88,40
210.72598,210.77063,74,88,40
210.84503,210.88966,76,88,40
210.96408,211.00871,77,88,40
211.08313,211.12776,76,88,40
211.20216,211.24681,74,88,40
211.32121,211.36586,72,88,40
211.44026,211.48491,71,88,40
211.55931,211.60396,74,88,40
211.67836,211.723,77,88,40
211.79741,211.84206,81,88,40
211.91646,212.0107,79,88,40
212.15456,212.63074,76,94,40
213.58311,213.70216,77,101,40
213.70216,213.82121,78,101,40
213.82121,213.94026,79,101,40
213.94026,214.05931,77,101,40
214.05931,214.17836,75,101,40
214.17836,214.29741,74,101,40
214.29741,214.41646,75,101,40
214.41646,214.5355,79,101,40
214.5355,214.65454,82,101,40
214.65454,214.77359,87,101,40
214.77359,214.86784,86,101,40
215.01169,215.48788,82,107,40
215.48788,215.60693,77,101,40
215.60693,215.72597,78,101,40
215.72597,215.84502,79,101,40
215.84502,215.96407,77,101,40
215.96407,216.08311,75,101,40
216.08311,216.20216,74,101,40
216.20216,216.32121,75,101,40
216.32121,216.44026,79,101,40
216.44026,216.55931,82,101,40
216.55931,216.67836,87,101,40
216.67836,216.7726,84,101,40
216.91644,217.39264,80,107,40
217.39264,217.51169,75,101,40
217.51169,217.63074,75,101,40
217.63074,217.72498,74,101,40
217.86884,218.34502,70,107,40
218.34502,218.46407,79,101,40
218.46407,218.58311,79,101,40
218.58311,218.67737,77,101,40
218.82121,219.2974,74,107,40
219.2974,219.41644,82,101,40
219.41644,219.53549,82,101,40
219.53549,219.62975,80,101,40
219.77359,220.24979,77,107,40
220.24979,220.36882,84,101,40
220.36882,220.48787,84,101,40
220.48787,220.96407,83,101,40
221.20216,221.32121,84,101,40
221.32121,221.44026,84,101,40
221.44026,221.91644,83,101,40
222.15454,222.27359,84,101,40
222.27359,222.39264,84,101,40
222.39264,222.51169,82,101,40
222.51169,222.63074,84,101,40
222.63074,222.74977,85,101,40
222.74977,222.86882,82,101,40
222.86882,222.98787,79,101,40
222.98787,223.10692,84,101,40
223.10692,223.22597,85,101,40
223.22597,223.34502,87,101,40
223.34502,223.46407,86,101,40
223.46407,223.58311,84,101,40
223.58311,223.70216,82,101,40
223.70216,223.8212,77,101,40
223.8212,223.94025,76,101,40
223.94025,224.0593,79,101,40
224.0593,224.17834,82,101,40
224.17834,224.2974,85,101,40
224.2974,224.41644,84,101,40
224.41644,224.53549,75,101,40
224.53549,224.65454,80,101,40
224.65454,224.77359,83,101,40
224.77359,224.89264,82,101,40
224.89264,225.01167,73,101,40
225.01167,225.13072,78,101,40
225.13072,225.24977,81,101,40
225.24977,225.36882,80,101,40
225.36882,225.48787,71,101,40
225.48787,225.60692,76,101,40
225.60692,225.72597,79,101,40
225.72597,225.84502,78,101,40
225.84502,225.96407,69,101,40
225.96407,226.08311,74,101,40
226.08311,226.20215,77,101,40
226.20215,226.3212,76,101,40
226.3212,226.44025,67,101,40
226.44025,226.5593,74,101,40
226.5593,226.67834,77,101,40
226.67834,226.7974,76,101,40
226.7974,226.91644,67,101,40
226.91644,227.03549,74,101,40
227.03549,227.15454,77,101,40
227.15454,227.27359,76,101,40
227.27359,227.39262,67,101,40
227.39262,227.51167,74,101,40
227.51167,227.63072,77,101,40
227.63072,227.74977,76,101,40
227.74977,227.86882,67,101,40
227.86882,227.98787,74,101,40
227.98787,228.10692,77,101,40
228.10692,228.22597,76,101,40
228.70215,228.7468,84,49,40
228.8212,228.86584,84,49,40
229.0593,229.17834,86,49,40
229.17834,229.2974,83,49,40
229.2974,229.41644,80,49,40
229.41644,229.53549,77,49,40
229.53549,229.77357,74,49,40
230.72597,230.7706,88,49,40
230.845,230.88965,88,49,40
230.96405,231.0831,89,49,40
231.0831,231.20215,86,49,40
231.20215,231.3212,83,49,40
231.3212,231.44025,81,49,40
231.44025,231.67834,80,49,40
232.63072,232.74977,89,49,40
232.74977,232.86882,89,49,40
232.86882,232.98787,88,49,40
232.98787,233.1069,84,49,40
233.1069,233.22595,79,49,40
233.22595,233.345,77,49,40
233.345,233.5831,76,49,40
234.53548,234.65453,87,49,40
234.65453,234.77357,87,49,40
234.77357,234.89262,86,49,40
234.89262,235.01167,82,49,40
235.01167,235.13072,79,49,40
235.13072,235.24977,77,49,40
235.24977,235.48785,75,49,40
235.96405,236.0831,90,49,40
236.0831,236.20215,90,49,40
236.20215,236.3212,91,49,40
236.3212,236.44025,88,49,40
236.44025,236.55928,85,49,40
236.55928,236.67833,81,49,40
236.67833,236.79738,79,49,40
236.79738,236.91643,81,49,40
236.91643,237.03548,85,49,40
237.03548,237.15453,88,49,40
237.15453,237.27357,91,49,40
237.27357,237.39262,88,49,40
237.39262,237.51167,85,49,40
237.51167,237.63072,81,49,40
237.63072,237.74976,79,49,40
237.74976,237.8688,81,49,40
237.8688,237.98785,85,49,40
237.98785,238.1069,88,49,40
238.1069,238.22595,91,49,40
238.22595,238.345,88,49,40
238.345,238.46405,85,49,40
238.46405,238.5831,81,49,40
239.29738,239.41643,91,49,40
239.41643,239.53548,91,49,40
239.53548,239.65453,90,49,40
239.65453,239.77357,86,49,40
239.77357,239.89262,81,49,40
239.89262,240.01166,79,49,40
240.01166,240.48785,78,49,40
240.72595,240.7706,79,49,40
240.845,240.88963,79,49,40
240.96405,241.0831,80,49,40
241.0831,241.20213,77,49,40
241.20213,241.32118,74,49,40
241.32118,241.44023,72,49,40
241.44023,243.345,70,49,40
244.05928,244.10393,77,49,40
244.17833,244.22298,79,49,40
244.29738,244.34201,80,49,40
244.41643,244.46106,77,49,40
244.53548,244.58011,74,49,40
244.65451,244.69916,72,49,40
244.77356,244.8182,68,49,40
244.89261,244.93726,65,49,40
245.01166,245.0563,62,49,40
245.1307,245.17535,72,49,40
245.24976,245.48785,70,49,40
245.48785,245.96404,67,55,40
245.96404,246.08308,67,49,40
246.08308,246.20213,70,49,40
246.20213,246.29639,68,49,40
246.44023,246.53447,67,49,40
246.67833,247.15451,65,55,40
247.15451,247.6307,63,49,40
247.8688,247.98785,77,49,40
247.98785,248.10689,79,49,40
248.10689,248.22594,80,49,40
248.22594,248.34499,77,49,40
248.34499,248.46404,74,49,40
248.46404,248.58308,72,49,40
248.58308,248.70213,68,49,40
248.70213,248.82118,67,49,40
248.82118,248.94023,65,49,40
248.94023,249.05928,72,49,40
249.05928,249.29736,70,49,40
249.29736,249.77356,67,55,40
249.77356,249.89261,72,49,40
249.89261,250.01166,75,49,40
250.01166,250.24976,74,55,40
250.24976,250.3688,72,49,40
250.3688,250.48784,70,49,40
250.48784,250.96404,69,49,40
250.96404,251.44023,67,88,40
251.67831,251.79736,70,49,40
251.79736,251.91641,72,49,40
251.91641,252.03546,73,55,40
252.03546,252.15451,70,49,40
252.15451,252.27356,67,49,40
252.27356,252.39261,65,49,40
252.39261,252.51166,64,49,40
252.51166,252.6307,65,49,40
252.6307,252.74974,67,49,40
252.74974,252.86879,68,49,40
252.86879,253.10689,70,49,40
253.10689,253.58308,68,55,40
253.58308,253.62772,70,49,40
253.70213,253.74677,72,49,40
253.82118,253.94022,73,49,40
253.94022,254.05927,70,49,40
254.05927,254.17831,67,49,40
254.17831,254.29736,65,49,40
254.29736,254.41641,64,49,40
254.41641,254.53546,65,49,40
254.53546,254.65451,67,49,40
254.65451,254.77356,68,49,40
254.77356,255.01164,70,49,40
255.01164,255.48784,68,55,40
255.48784,255.60689,68,49,40
255.60689,255.72594,70,49,40
255.72594,255.84499,71,55,40
255.84499,255.96404,68,49,40
255.96404,256.08307,65,49,40
256.08307,256.20212,63,49,40
256.20212,256.32117,62,49,40
256.32117,256.44022,63,49,40
256.44022,256.55927,65,49,40
256.55927,256.6783,67,49,40
256.6783,256.9164,68,49,40
256.9164,257.3926,67,55,40
257.3926,257.51166,68,49,40
257.51166,257.6307,70,49,40
257.6307,257.74976,71,55,40
257.74976,257.8688,68,49,40
257.8688,257.98782,65,49,40
257.98782,258.10687,63,49,40
258.10687,258.22592,62,49,40
258.22592,258.34497,63,49,40
258.34497,258.46402,65,49,40
258.46402,258.58307,67,49,40
258.58307,258.82117,68,49,40
258.82117,259.29736,67,55,40
259.29736,259.4164,68,49,40
259.4164,259.53546,70,49,40
259.53546,259.6545,71,49,40
259.6545,259.77356,70,49,40
259.77356,259.8926,68,49,40
259.8926,260.01166,65,49,40
260.01166,260.1307,62,49,40
260.1307,260.24973,65,49,40
260.24973,260.36877,68,49,40
260.36877,260.48782,70,49,40
260.48782,260.60687,71,49,40
260.60687,260.72592,70,49,40
260.72592,260.84497,68,49,40
260.84497,260.96402,65,49,40
260.96402,261.08307,62,49,40
261.08307,261.20212,65,49,40
261.20212,261.32117,68,49,40
261.32117,261.44022,70,49,40
261.44022,261.55927,71,49,40
261.55927,261.6783,70,49,40
261.6783,261.79736,68,49,40
261.79736,261.9164,65,49,40
261.9164,262.03546,71,49,40
262.03546,262.1545,70,49,40
262.1545,262.27356,68,49,40
262.27356,262.3926,65,49,40
262.3926,262.51166,71,49,40
262.51166,262.63068,70,49,40
262.63068,262.74973,68,49,40
262.74973,262.86877,65,49,40
262.86877,262.98782,71,49,40
262.98782,263.10687,70,49,40
263.10687,263.22592,68,49,40
263.22592,263.34497,65,49,40
263.34497,263.82117,71,49,40
263.82117,265.36877,70,49,40
265.36877,265.48782,72,36,40
265.48782,265.60687,70,36,40
265.60687,265.72592,69,36,40
265.72592,265.84497,70,36,40
265.84497,265.96402,72,36,40
265.96402,266.08307,74,36,40
266.08307,266.20212,75,36,40
266.20212,266.32117,77,36,40
266.32117,266.44022,75,36,40
266.44022,266.55927,74,36,40
266.55927,266.6783,72,36,40
266.6783,266.79736,74,36,40
266.79736,266.9164,75,36,40
266.9164,267.03546,77,36,40
267.03546,267.15448,79,36,40
267.15448,267.63068,80,36,40
267.63068,268.10687,82,49,40
268.10687,268.58307,79,49,40
268.58307,269.29736,87,61,40
269.29736,269.53543,82,49,40
269.53543,269.77353,80,49,40
269.77353,269.89258,79,49,40
269.89258,270.01163,77,49,40
270.01163,270.24973,75,49,40
270.24973,270.72592,70,49,40
271.6783,271.72293,68,49,40
271.79733,271.84198,72,49,40
271.91638,272.01065,70,49,40
272.15448,272.24875,68,49,40
272.39258,272.86877,67,55,40
273.58307,273.62772,68,49,40
273.70212,273.74677,72,49,40
273.82117,273.9154,70,49,40
274.05927,274.1535,68,49,40
274.29733,274.3916,67,49,40
274.53543,274.58008,84,49,40
274.65448,274.69913,87,75,40
274.77353,274.86777,85,75,40
275.01163,275.10587,84,75,40
275.24973,275.72592,82,81,40
275.72592,275.84497,84,75,40
275.84497,275.96402,85,75,40
275.96402,276.08307,84,75,40
276.08307,276.20212,82,75,40
276.20212,276.32117,80,75,40
276.32117,276.4402,82,75,40
276.4402,276.55923,84,75,40
276.55923,276.67828,87,75,40
276.67828,276.77255,85,75,40
276.91638,277.01065,84,75,40
277.15448,277.63068,82,81,40
277.63068,277.74973,84,75,40
277.74973,277.86877,85,75,40
277.86877,277.98782,84,75,40
277.98782,278.10687,82,75,40
278.10687,278.22592,80,75,40
278.22592,278.34497,84,75,40
278.34497,278.46402,89,75,40
278.46402,278.58307,91,75,40
278.58307,278.7021,92,101,40
278.7021,278.82114,89,101,40
278.82114,278.9402,86,101,40
278.9402,279.05923,84,101,40
279.05923,279.17828,83,101,40
279.17828,279.29733,80,101,40
279.29733,279.41638,79,101,40
279.41638,279.53543,89,101,40
279.53543,279.77353,87,101,40
279.77353,280.24973,84,107,40
280.24973,280.36877,79,101,40
280.36877,280.48782,82,101,40
280.48782,280.72592,80,101,40
280.72592,281.2021,77,107,40
281.2021,281.32114,79,101,40
281.32114,281.4402,82,101,40
281.4402,281.67828,80,101,40
281.67828,282.15448,77,107,40
282.15448,282.27353,79,101,40
282.27353,282.39258,82,101,40
282.39258,282.63068,80,101,40
284.05923,284.17828,71,101,40
284.17828,284.29733,73,101,40
284.29733,284.53543,72,101,40
284.53543,284.65448,67,101,40
284.65448,284.77353,70,101,40
284.77353,285.01163,68,101,40
285.01163,285.13068,64,101,40
285.13068,285.24973,67,101,40
285.24973,285.48782,65,101,40
285.48782,285.60687,62,101,40
285.60687,285.7259,65,101,40
285.7259,285.964,63,101,40
285.964,286.08304,62,101,40
286.08304,286.2021,65,101,40
286.2021,286.4402,63,101,40
286.4402,286.55923,62,49,40
286.55923,286.67828,65,49,40
286.67828,286.91638,63,49,40
286.91638,287.03543,62,49,40
287.03543,287.15448,65,49,40
287.15448,287.24872,63,49,40
287.39258,287.48682,63,49,40
287.86877,287.963,67,49,40
288.34494,288.58304,65,49,40
288.58304,288.82114,62,49,40
288.82114,289.05923,62,49,40
289.29733,289.53543,58,49,40
289.77353,290.01163,58,49,40
290.2497,290.4878,62,49,40
290.4878,290.7259,58,49,40
290.7259,290.82016,58,49,40
291.2021,291.4402,60,49,40
291.67828,291.91638,65,49,40
292.15448,292.39258,62,49,40
292.39258,292.63065,67,49,40
292.63065,292.7249,67,49,40
293.10684,293.34494,68,49,40
293.58304,293.82114,65,49,40
294.05923,294.29733,67,49,40
294.29733,294.53543,65,49,40
294.53543,294.62967,63,49,40
294.77353,295.0116,72,49,40
295.0116,295.2497,74,49,40
295.2497,295.4878,75,49,40
295.4878,295.60684,74,49,40
295.60684,295.7259,72,49,40
295.7259,296.2021,74,49,40
296.2021,296.67828,79,49,40
296.67828,297.15448,72,49,40
297.15448,297.63065,74,49,40
297.63065,298.10684,70,49,40
298.10684,298.58304,67,49,40
298.58304,298.82114,65,49,40
298.82114,299.05923,67,49,40
299.05923,299.29733,68,49,40
299.29733,299.41638,67,49,40
299.41638,299.5354,65,49,40
299.5354,300.0116,67,49,40
300.0116,300.4878,72,49,40
300.4878,300.964,65,88,40
300.964,301.4402,67,88,40
301.4402,301.91635,63,88,40
301.91635,302.39255,58,88,40
302.39255,302.86874,65,88,40
302.86874,303.34494,67,88,40
303.34494,303.82114,63,88,40
303.82114,304.2973,58,88,40
304.2973,304.7735,68,88,40
304.7735,305.2497,70,88,40
305.2497,305.7259,66,88,40
305.7259,306.2021,61,88,40
306.2021,306.67825,68,88,40
306.67825,307.15445,70,88,40
307.15445,307.63065,66,88,40
307.63065,308.10684,61,88,40
308.10684,308.58304,66,49,40
308.58304,309.0592,61,49,40
309.0592,309.5354,66,49,40
309.5354,310.0116,61,49,40
310.0116,310.4878,66,49,40
310.4878,310.964,61,49,40
310.964,311.44016,66,49,40
311.44016,311.91635,61,49,40
311.91635,312.39255,62,36,40
312.39255,312.86874,58,36,40
312.86874,313.34494,62,36,40
313.34494,313.8211,58,36,40
313.8211,314.2973,62,36,40
314.2973,314.7735,58,36,40
314.7735,315.2497,62,36,40
315.2497,315.72586,58,36,40
318.583,318.8211,75,42,40
318.8211,319.0592,77,94,40
319.0592,319.2973,79,88,40
319.2973,319.41635,77,88,40
319.41635,319.5354,75,88,40
319.5354,320.0116,77,88,40
320.0116,320.48776,82,88,40
320.48776,320.72586,75,94,40
320.72586,320.96396,77,94,40
320.96396,321.20206,79,88,40
321.20206,321.3211,77,88,40
321.3211,321.44016,75,88,40
321.44016,321.91635,77,88,40
321.91635,322.39255,82,88,40
322.39255,322.6306,75,94,40
322.6306,322.8687,77,94,40
322.8687,323.1068,78,88,40
323.1068,323.22586,77,88,40
323.22586,323.3449,75,88,40
323.3449,323.583,77,94,40
323.583,323.8211,79,94,40
323.8211,324.0592,80,88,40
324.0592,324.17825,79,88,40
324.17825,324.2973,77,88,40
324.2973,324.5354,79,94,40
324.5354,324.7735,80,94,40
324.7735,325.01157,82,88,40
325.01157,325.1306,80,88,40
325.1306,325.24966,79,88,40
325.24966,325.48776,84,88,40
325.48776,325.72586,86,88,40
325.72586,325.96396,87,100,40
325.96396,326.083,86,88,40
326.083,326.20206,84,88,40
326.20206,326.44016,84,88,40
326.44016,326.67825,82,88,40
326.67825,326.91635,84,94,40
326.91635,327.0354,82,88,40
327.0354,327.15445,80,88,40
327.15445,327.39252,80,88,40
327.39252,327.6306,79,88,40
327.6306,327.8687,80,94,40
327.8687,327.98776,79,88,40
327.98776,328.1068,77,88,40
328.1068,328.3449,77,88,40
328.3449,328.583,75,88,40
328.583,328.8211,77,94,40
328.8211,328.94016,75,88,40
328.94016,329.0592,73,88,40
329.0592,329.2973,73,88,40
329.2973,329.53537,72,88,40
329.53537,329.77347,77,94,40
329.77347,329.89252,75,88,40
329.89252,330.01157,73,88,40
330.01157,330.24966,73,88,40
330.24966,330.48776,72,88,40
330.48776,330.72586,77,94,40
330.72586,330.8449,75,88,40
330.8449,330.96396,73,88,40
330.96396,331.20206,73,88,40
331.20206,331.44016,72,88,40
331.44016,331.67825,77,88,40
331.67825,331.91632,75,88,40
331.91632,332.15442,73,88,40
332.15442,332.39252,72,88,40
332.39252,332.6306,77,88,40
332.6306,332.8687,75,88,40
332.8687,333.3449,73,88,40
333.3449,336.20206,72,88,40
336.20206,338.583,74,49,40
338.583,338.82108,74,36,40
338.82108,339.05917,87,36,40
339.05917,339.29727,86,36,40
339.29727,339.77347,74,36,40
339.77347,340.01157,87,36,40
340.01157,340.24966,86,36,40
340.24966,340.72586,74,36,40
340.72586,340.96396,87,36,40
340.96396,341.20203,86,36,40
341.20203,341.67822,74,36,40
341.67822,341.91632,87,36,40
341.91632,342.15442,86,36,40
342.15442,342.39252,74,36,40
342.39252,342.43716,74,36,40
342.51157,342.5562,87,36,40
342.6306,342.67526,86,36,40
342.74966,342.7943,74,36,40
342.8687,342.91336,74,36,40
342.98776,343.0324,87,36,40
343.1068,343.15143,86,36,40
343.22586,343.27048,74,36,40
343.3449,343.38953,74,36,40
343.46393,343.50858,87,36,40
343.58298,343.62762,86,36,40
343.70203,343.74667,74,36,40
343.82108,343.86572,74,36,40
343.94012,343.98477,87,36,40
344.05917,344.10382,86,36,40
344.17822,344.22287,74,36,40
344.29727,344.34192,74,36,40
344.41632,344.46097,87,36,40
344.53537,344.58002,86,36,40
344.65442,344.69907,74,36,40
344.77347,344.8181,74,36,40
344.89252,344.93716,87,36,40
345.01157,345.0562,86,36,40
345.1306,345.17526,74,36,40
345.24966,345.2943,74,88,40
345.3687,345.41333,87,88,40
345.48776,345.53238,86,88,40
345.6068,345.65143,74,88,40
345.72583,345.77048,74,88,40
345.84488,345.88953,87,88,40
345.96393,346.00858,86,88,40
346.08298,346.12762,74,88,40
346.20203,346.24667,74,88,40
346.32108,346.36572,91,88,40
346.44012,346.48477,89,88,40
346.55917,346.60382,86,88,40
346.67822,346.72287,82,88,40
346.79727,346.84192,80,88,40
346.91632,346.96097,77,88,40
347.03537,347.08002,75,88,40
347.15442,347.27347,74,88,40
347.27347,347.39252,70,88,40
347.39252,347.51157,77,88,40
347.51157,347.6306,74,88,40
347.6306,347.74966,70,88,40
347.74966,347.8687,68,88,40
347.8687,347.98776,65,88,40
347.98776,348.10678,63,88,40
348.10678,348.22583,62,94,40
348.22583,348.34488,58,88,40
348.34488,348.46393,65,94,40
348.46393,348.58298,58,88,40
348.58298,348.70203,68,94,40
348.70203,348.82108,58,88,40
348.82108,348.94012,69,94,40
348.94012,349.05917,58,88,40
349.05917,349.17822,70,94,40
349.17822,349.29727,62,88,40
349.29727,349.41632,74,94,40
349.41632,349.53537,62,88,40
349.53537,349.65442,77,94,40
349.65442,349.77347,62,88,40
349.77347,349.89252,82,94,40
349.89252,350.01157,62,88,40
350.01157,350.24966,75,88,40
350.24966,350.48773,77,88,40
350.48773,350.72583,79,88,40
350.72583,350.84488,77,88,40
350.84488,350.96393,75,88,40
350.96393,351.44012,77,88,40
351.44012,351.91632,82,88,40
351.91632,352.39252,75,88,40
352.39252,352.86868,79,88,40
352.86868,353.34488,77,88,40
353.34488,353.82108,74,88,40
353.82108,354.05917,75,88,40
354.05917,354.29727,87,88,40
354.29727,354.53537,91,88,40
354.53537,354.65442,89,88,40
354.65442,354.77347,87,88,40
354.77347,355.24963,89,88,40
355.24963,355.72583,94,88,40
355.72583,356.20203,87,88,40
356.20203,356.67822,91,88,40
356.67822,357.15442,89,88,40
357.15442,357.63058,86,88,40
357.63058,358.10678,87,49,40
358.10678,358.58298,91,49,40
358.58298,359.05917,89,49,40
359.05917,359.53537,86,49,40
359.53537,359.6544,87,49,40
359.6544,359.77344,87,49,40
359.77344,359.8925,91,49,40
359.8925,360.01154,91,49,40
360.01154,360.13058,89,49,40
360.13058,360.24963,89,49,40
360.24963,360.36868,86,49,40
360.36868,360.48773,86,49,40
360.48773,360.60678,87,49,40
360.60678,360.72583,87,49,40
360.72583,360.84488,91,49,40
360.84488,360.96393,91,49,40
360.96393,361.08298,89,49,40
361.08298,361.20203,89,49,40
361.20203,361.32108,86,49,40
361.32108,361.44012,86,49,40
361.44012,361.55917,87,49,40
361.55917,361.67822,87,49,40
361.67822,361.79727,91,49,40
361.79727,361.9163,91,49,40
361.9163,362.03534,89,49,40
362.03534,362.1544,89,49,40
362.1544,362.27344,86,49,40
362.27344,362.3925,86,49,40
362.3925,362.51154,87,49,40
362.51154,362.63058,87,49,40
362.63058,362.74963,91,49,40
362.74963,362.86868,91,49,40
362.86868,362.98773,89,49,40
362.98773,363.10678,89,49,40
363.10678,363.22583,94,101,40
363.22583,363.34488,94,101,40
363.34488,363.46393,92,101,40
363.46393,363.58298,89,101,40
363.58298,363.70203,86,101,40
363.70203,363.82108,84,101,40
363.82108,363.94012,80,101,40
363.94012,364.05917,77,101,40
364.05917,364.17822,74,101,40
364.17822,364.29724,84,101,40
364.29724,364.53534,82,101,40
364.53534,365.01154,79,107,40
365.01154,365.13058,79,101,40
365.13058,365.24963,82,101,40
365.24963,365.48773,80,101,40
365.48773,365.58197,79,101,40
365.72583,366.20203,77,107,40
366.20203,366.6782,75,101,40
366.6782,366.79724,77,101,40
366.79724,366.9163,79,101,40
366.9163,367.03534,80,101,40
367.03534,367.1544,82,101,40
367.1544,367.63058,84,101,40
367.63058,368.10678,86,101,40
368.10678,368.58298,87,101,40
368.58298,368.82104,82,101,40
368.82104,369.05914,79,101,40
369.05914,369.29724,77,49,40
369.29724,369.53534,79,49,40
369.53534,369.77344,80,49,40
369.77344,369.8925,79,49,40
369.8925,370.01154,77,49,40
370.01154,370.48773,75,49,40
370.48773,373.34488,87,49,40
373.34488,373.82104,82,36,40
373.82104,374.29724,87,36,40
374.29724,374.77344,82,36,40
374.77344,375.24963,87,36,40
375.24963,375.72583,82,36,40
375.72583,376.202,87,36,40
376.202,376.6782,82,36,40
376.6782,377.1544,87,36,40
377.1544,377.63058,82,36,40
377.63058,377.74963,87,49,40
377.74963,377.86868,86,49,40
377.86868,377.98773,87,49,40
377.98773,378.10675,86,49,40
378.10675,378.34485,87,49,40
378.34485,378.43912,82,49,40
378.58295,378.82104,84,55,40
378.82104,379.05914,86,55,40
379.05914,379.29724,87,55,40
379.29724,379.53534,82,55,40
379.53534,379.77344,84,55,40
379.77344,380.01154,86,55,40
380.01154,380.24963,87,55,40
380.24963,380.4877,82,55,40
380.4877,380.9639,67,94,40
380.4877,380.9639,75,94,40
380.4877,380.9639,84,94,40
380.9639,381.4401,67,94,40
380.9639,381.4401,74,94,40
380.9639,381.4401,83,94,40
381.4401,381.9163,67,94,40
381.4401,381.9163,75,94,40
381.4401,381.9163,84,94,40
381.9163,382.3925,67,94,40
381.9163,382.3925,74,94,40
381.9163,382.3925,83,94,40
382.3925,382.86865,67,94,40
382.3925,382.86865,75,94,40
382.3925,382.86865,84,94,40
382.86865,383.34485,67,94,40
382.86865,383.34485,74,94,40
382.86865,383.34485,83,94,40
383.34485,383.82104,67,94,40
383.34485,383.82104,75,94,40
383.34485,383.82104,84,94,40
383.82104,384.29724,77,94,40
383.82104,384.29724,86,94,40
384.29724,384.77344,79,101,40
384.29724,384.77344,87,101,40
385.2496,385.7258,55,107,40
385.2496,385.7258,63,107,40
385.7258,386.202,55,107,40
385.7258,386.202,63,107,40
386.202,387.1544,55,107,40
386.202,387.1544,63,107,40
0.488095,1.1825387,41,49,42
0.964285,1.6587287,46,49,42
1.440475,2.392855,39,49,42
2.392855,3.0872986,44,49,42
2.869045,3.5634887,46,49,42
3.345235,4.297615,39,49,42
4.297615,4.753964,41,49,42
4.773805,5.2301536,46,49,42
5.249995,5.7063437,39,49,42
5.726185,6.202375,36,49,42
6.202375,7.1150727,38,49,42
7.154755,7.630945,43,88,42
8.107135,8.8015785,41,49,42
8.583325,9.277769,46,49,42
9.059515,10.011895,39,49,42
10.011895,10.706339,44,49,42
10.488085,11.1825285,46,49,42
10.964275,11.916655,39,49,42
11.916655,12.373004,41,49,42
12.392845,12.849194,46,49,42
12.869035,13.325384,39,49,42
13.345225,13.821415,36,49,42
13.821415,14.734113,38,49,42
14.773795,15.249985,43,88,42
15.726175,15.96427,36,49,42
16.202366,16.44046,48,49,42
16.678555,16.91665,41,49,42
17.39284,17.630936,53,49,42
17.630936,17.86903,36,49,42
18.107124,18.34522,48,49,42
18.583315,18.82141,41,49,42
19.2976,19.535694,53,49,42
19.535694,19.77379,46,49,42
20.011885,20.24998,58,49,42
20.488075,20.72617,51,49,42
21.20236,21.440454,51,49,42
21.440454,21.67855,46,49,42
22.15474,22.392836,46,49,42
22.392836,22.63093,51,49,42
23.10712,23.345215,51,49,42
23.345215,23.58331,46,49,42
24.0595,24.297594,46,49,42
24.297594,24.53569,46,49,42
25.01188,25.249975,46,49,42
25.249975,25.48807,46,49,42
25.726166,25.96426,46,49,42
26.202354,26.44045,46,49,42
26.678545,26.91664,46,49,42
27.154736,27.630924,46,49,42
27.630924,29.29759,53,49,42
30.964254,31.0585,41,49,42
31.20235,31.296597,53,49,42
31.440445,31.53469,46,49,42
31.67854,31.772785,50,49,42
31.916636,32.01088,39,49,42
32.15473,32.248978,51,49,42
32.392826,32.487072,46,49,42
32.63092,32.725166,43,49,42
32.869015,32.96326,41,49,42
33.10711,33.201355,46,49,42
33.345203,33.43945,38,49,42
33.5833,33.677547,46,49,42
33.821396,33.91564,39,49,42
34.05949,34.153736,46,49,42
34.297585,34.39183,43,49,42
34.53568,34.629925,39,49,42
34.773773,34.86802,41,49,42
35.01187,35.106117,46,49,42
35.249966,35.34421,38,49,42
35.48806,35.582306,46,49,42
35.726154,35.8204,39,49,42
35.96425,36.058495,46,49,42
36.202347,36.296593,39,49,42
36.44044,36.534687,46,49,42
36.678535,36.77278,41,49,42
36.91663,37.010876,46,49,42
37.154724,37.24897,38,49,42
37.39282,37.487064,46,49,42
37.630917,37.725163,39,49,42
37.86901,37.963257,46,49,42
38.107105,38.20135,39,49,42
38.583294,39.059486,46,75,42
39.29758,39.535675,39,75,42
39.535675,40.011864,44,81,42
40.011864,40.488056,48,81,42
40.488056,40.964245,46,81,42
41.20234,41.440434,39,75,42
41.440434,41.916626,44,81,42
41.916626,42.15472,48,81,42
42.15472,42.392815,44,75,42
42.392815,42.63091,41,94,42
42.63091,42.869003,53,94,42
42.869003,43.1071,46,94,42
43.1071,43.345196,58,94,42
43.345196,43.58329,39,94,42
43.58329,43.821384,51,94,42
43.821384,44.05948,46,94,42
44.05948,44.297577,43,94,42
44.297577,44.53567,41,94,42
44.773766,45.01186,46,94,42
45.249954,45.369003,51,101,42
45.369003,45.48805,50,101,42
45.48805,45.607098,51,101,42
45.607098,45.726147,50,101,42
45.726147,45.96424,51,101,42
45.96424,46.202335,46,107,42
46.202335,46.44043,48,107,42
46.44043,46.678524,50,107,42
46.678524,46.91662,51,107,42
46.91662,47.154716,46,107,42
47.154716,47.39281,48,107,42
47.39281,47.630905,50,107,42
47.630905,47.869,51,107,42
47.869,48.107094,46,107,42
48.107094,48.583286,48,107,42
48.583286,49.059475,43,107,42
49.059475,49.535664,36,107,42
50.011856,50.1309,51,49,42
50.1309,50.24995,50,49,42
50.24995,50.368996,51,49,42
50.368996,50.488045,50,49,42
50.488045,50.72614,51,49,42
50.72614,50.820385,46,49,42
50.964233,51.05848,48,49,42
51.20233,51.296577,50,49,42
51.440426,51.53467,51,49,42
51.67852,51.772766,46,49,42
51.916615,52.01086,48,49,42
52.15471,52.248955,50,49,42
52.392803,52.48705,51,49,42
52.6309,52.725147,46,49,42
52.868996,53.345184,50,36,42
53.345184,53.821377,50,36,42
53.821377,54.297565,43,36,42
70.01183,70.10608,43,36,42
70.24993,70.34418,46,36,42
70.48802,70.58227,51,36,42
70.72612,70.820366,43,36,42
70.96422,71.058464,39,36,42
71.20231,71.296555,41,36,42
71.44041,71.53465,48,36,42
71.6785,71.77274,41,36,42
71.916595,72.15469,38,88,42
72.392784,72.86897,46,88,42
72.86897,73.10707,43,94,42
73.34516,73.82136,55,88,42
73.82136,74.05945,51,94,42
74.29755,74.773735,39,88,42
74.773735,75.01183,36,88,42
75.24992,75.72611,48,88,42
75.72611,75.96421,41,94,42
76.20231,76.4404,41,88,42
76.6785,76.91659,46,49,42
76.91659,77.39278,53,55,42
77.39278,77.48702,53,49,42
77.630875,77.72512,46,49,42
77.86897,78.34516,53,55,42
78.34516,78.43941,53,49,42
78.58325,78.6775,46,49,42
78.82135,79.29754,53,55,42
79.29754,79.391785,53,49,42
79.53564,79.62988,44,49,42
79.77373,80.24992,54,55,42
80.24992,80.34417,54,49,42
80.488014,80.58226,44,49,42
80.72611,81.2023,54,55,42
81.2023,81.29655,54,49,42
81.44039,81.53464,44,49,42
81.67849,82.15468,54,55,42
82.15468,82.248924,54,49,42
82.39278,82.48702,44,49,42
82.63087,83.10706,49,55,42
83.10706,83.20131,49,49,42
83.34515,83.4394,44,49,42
83.58325,84.05944,49,55,42
84.05944,84.15369,49,49,42
84.29754,84.391785,42,49,42
84.53563,85.01182,49,49,42
85.01182,85.106064,49,49,42
85.249916,85.34416,42,49,42
85.48801,85.9642,49,49,42
85.9642,86.05845,49,49,42
86.20229,86.44039,41,36,42
86.44039,86.91658,46,36,42
86.91658,87.15468,46,36,42
88.107056,88.583244,41,49,42
88.583244,89.05943,46,49,42
89.05943,90.01182,39,49,42
90.01182,90.48801,44,49,42
90.48801,90.964195,46,49,42
90.964195,91.440384,39,49,42
91.91657,92.15467,41,88,42
92.15467,92.39276,53,88,42
92.39276,92.63086,43,88,42
92.63086,92.86896,55,88,42
92.86896,93.10705,48,88,42
93.10705,93.345146,60,88,42
93.345146,93.53364,40,88,42
93.821335,94.05943,41,88,42
94.29752,94.486015,40,88,42
94.77371,95.01181,41,88,42
95.24991,95.7261,40,94,42
95.7261,95.96419,41,88,42
97.39276,97.51181,59,88,42
97.51181,97.63085,61,88,42
97.63085,97.86895,60,88,42
97.86895,97.988,55,88,42
97.988,98.10705,58,88,42
98.10705,98.34514,56,88,42
98.34514,98.46419,52,88,42
98.46419,98.58324,55,88,42
98.58324,98.82133,53,88,42
98.82133,98.94038,47,88,42
98.94038,99.059425,50,88,42
99.059425,99.29752,48,88,42
99.29752,99.416565,47,88,42
99.416565,99.535614,50,88,42
99.535614,99.77371,48,88,42
99.77371,99.89276,47,88,42
99.89276,100.0118,50,88,42
100.0118,100.2499,48,88,42
100.2499,100.36895,47,88,42
100.36895,100.48799,50,88,42
100.48799,100.72609,48,49,42
100.96419,101.20228,43,49,42
101.44038,101.916565,41,49,42
102.39275,102.86894,39,49,42
102.86894,103.34514,41,49,42
103.34514,103.82133,38,49,42
103.82133,104.297516,46,49,42
104.297516,104.773705,51,36,42
104.773705,105.72608,48,36,42
105.72608,106.44037,46,36,42
106.44037,106.55942,45,36,42
106.55942,106.67847,43,36,42
106.67847,107.154655,45,36,42
107.154655,107.630844,43,36,42
107.630844,108.58322,48,36,42
108.58322,109.53561,55,36,42
109.53561,110.011795,53,36,42
110.011795,110.48798,51,36,42
110.48798,110.96417,63,36,42
110.96417,111.44037,62,42,42
111.44037,111.91656,58,36,42
111.91656,112.392746,63,36,42
112.392746,112.868935,60,36,42
112.868935,113.34512,58,36,42
113.34512,113.82131,55,36,42
113.82131,114.29751,51,36,42
114.29751,114.7737,53,36,42
114.7737,115.726074,46,36,42
115.726074,116.67845,41,36,42
116.67845,117.63084,46,36,42
117.63084,118.58321,41,36,42
118.58321,119.5356,46,36,42
119.5356,120.01179,42,36,42
120.01179,120.487976,44,36,42
120.487976,120.964165,37,36,42
121.44035,121.91654,42,36,42
121.91654,122.39274,44,36,42
122.39274,122.86893,37,36,42
123.345116,127.15463,45,36,42
123.345116,127.15463,53,36,42
130.96416,131.91653,55,36,42
131.91653,132.39273,54,36,42
132.39273,132.86891,53,36,42
132.86891,133.34511,52,36,42
133.34511,133.82129,50,36,42
133.82129,134.29749,49,36,42
134.29749,134.77368,48,36,42
134.77368,135.24986,47,36,42
135.24986,135.72606,43,36,42
135.72606,136.20224,42,36,42
136.20224,136.67844,41,36,42
136.67844,137.15463,40,36,42
137.15463,137.63081,38,36,42
137.63081,138.10701,37,36,42
138.10701,138.58319,38,36,42
138.58319,138.82129,43,88,42
142.63081,142.74986,60,88,42
142.74986,142.86891,59,88,42
142.86891,142.98795,60,88,42
142.98795,143.107,55,88,42
143.107,143.22604,53,88,42
143.22604,143.3451,51,88,42
143.3451,143.46414,53,88,42
143.46414,143.58319,56,88,42
143.58319,143.70224,55,88,42
143.70224,143.82129,53,88,42
143.82129,143.94034,51,88,42
143.94034,144.05939,50,88,42
144.05939,144.17842,48,88,42
144.17842,144.29747,47,88,42
144.29747,144.41652,48,88,42
144.41652,144.53557,51,88,42
144.53557,144.65462,48,88,42
144.65462,144.77367,46,88,42
144.77367,144.89272,45,88,42
144.89272,145.01176,43,88,42
145.01176,145.13081,42,88,42
145.13081,145.24985,38,88,42
145.24985,145.3689,43,88,42
145.3689,145.48795,45,88,42
145.48795,145.607,46,88,42
145.607,145.72604,45,88,42
145.72604,145.8451,46,88,42
145.8451,145.96414,48,88,42
145.96414,146.08319,50,88,42
146.08319,146.20224,43,88,42
146.20224,146.67842,48,88,42
146.67842,147.15462,50,88,42
147.15462,147.6308,46,88,42
147.6308,148.107,43,88,42
148.107,148.58319,48,88,42
148.58319,149.05937,50,88,42
149.05937,149.53557,46,88,42
149.53557,150.01175,43,88,42
150.01175,150.48795,42,88,42
150.48795,150.72604,41,88,42
150.72604,150.96414,39,88,42
150.96414,151.91652,41,88,42
151.91652,152.3927,42,88,42
152.3927,152.6308,41,88,42
152.6308,152.8689,39,88,42
152.8689,153.82127,41,88,42
153.82127,154.29747,45,94,42
154.53555,154.6546,45,88,42
154.6546,154.77365,46,88,42
154.77365,154.8927,48,94,42
154.8927,155.01175,46,88,42
155.01175,155.1308,45,88,42
155.1308,155.24985,43,88,42
155.24985,155.48795,42,88,42
155.72603,156.20222,51,94,42
156.44032,156.55937,51,88,42
156.55937,156.67842,53,88,42
156.67842,156.79747,54,94,42
156.79747,156.9165,53,88,42
156.9165,157.03555,51,88,42
157.03555,157.1546,50,88,42
157.1546,157.3927,48,88,42
157.6308,157.74985,55,88,42
157.74985,157.8689,57,88,42
157.8689,157.98793,58,88,42
157.98793,158.10698,57,88,42
158.10698,158.22603,55,88,42
158.22603,158.34508,57,88,42
158.34508,158.46413,58,88,42
158.46413,158.58318,62,88,42
158.58318,158.70222,46,88,42
158.70222,158.82127,48,88,42
158.82127,158.94032,50,88,42
158.94032,159.05937,48,88,42
159.05937,159.1784,46,88,42
159.1784,159.29745,48,88,42
159.29745,159.4165,50,88,42
159.4165,159.53555,55,88,42
159.53555,159.6546,43,88,42
159.6546,159.77365,45,88,42
159.77365,159.8927,46,88,42
159.8927,160.01175,45,88,42
160.01175,160.1308,43,88,42
160.1308,160.24985,45,88,42
160.24985,160.36888,46,88,42
160.36888,160.48793,50,88,42
160.48793,160.60698,40,88,42
160.60698,160.72603,41,88,42
160.72603,160.84508,43,88,42
160.84508,160.96413,41,88,42
160.96413,161.08318,40,88,42
161.08318,161.20222,41,88,42
161.20222,161.32127,43,88,42
161.32127,161.4403,46,88,42
161.4403,161.6784,41,94,42
161.6784,161.9165,41,88,42
162.1546,162.3927,41,88,42
162.3927,162.63078,41,88,42
162.63078,162.86888,41,88,42
163.10698,163.34508,41,88,42
163.34508,163.58318,41,88,42
163.58318,163.82126,41,88,42
164.05936,164.29745,41,88,42
164.29745,164.53555,41,88,42
164.53555,164.77365,41,88,42
165.01173,165.24983,41,88,42
165.24983,165.48793,41,88,42
165.48793,165.72603,41,88,42
165.96413,166.20221,41,88,42
166.20221,166.4403,41,88,42
166.4403,166.6784,41,88,42
166.9165,167.1546,41,88,42
167.1546,167.39268,53,36,42
167.39268,167.63078,53,36,42
167.86888,168.10698,53,36,42
168.10698,168.34508,53,36,42
168.34508,168.58316,53,36,42
168.82126,169.05936,53,36,42
169.05936,169.29745,53,36,42
169.29745,169.53554,53,36,42
169.77364,170.01173,53,36,42
170.01173,170.24983,53,36,42
170.24983,170.48793,53,36,42
170.72601,170.96411,53,36,42
170.96411,174.77364,41,36,42
174.77364,175.01173,46,36,42
175.01173,175.24983,48,36,42
175.24983,175.48792,50,36,42
175.48792,175.60696,48,36,42
175.60696,175.72601,46,36,42
175.72601,176.20221,48,36,42
176.20221,176.67839,53,36,42
176.67839,177.15459,46,36,42
177.15459,177.63077,48,36,42
177.63077,178.10696,45,36,42
178.10696,178.58316,41,36,42
178.58316,178.82124,43,36,42
178.82124,179.05934,45,36,42
179.05934,179.29744,46,36,42
179.29744,179.41649,45,36,42
179.41649,179.53554,43,36,42
179.53554,180.01172,45,36,42
180.01172,180.48792,50,36,42
180.48792,180.96411,43,36,42
180.96411,181.44029,45,36,42
181.44029,181.91649,41,36,42
181.91649,182.39267,38,36,42
182.39267,182.63077,39,36,42
183.34506,183.58315,40,42,42
184.29744,184.53552,41,42,42
185.24982,185.48792,41,88,42
190.01172,190.9641,41,49,42
190.9641,191.91647,46,49,42
191.91647,192.86885,41,49,42
192.86885,193.82123,46,49,42
193.82123,194.77362,41,49,42
194.77362,195.2498,46,49,42
195.2498,195.726,41,36,42
195.726,196.20218,46,36,42
196.20218,196.67838,41,36,42
196.67838,197.15457,46,36,42
197.15457,197.63075,41,36,42
197.63075,201.44028,49,36,42
201.44028,204.29741,37,23,42
204.29741,204.5355,42,23,42
204.5355,204.7736,46,23,42
204.7736,205.0117,49,23,42
205.0117,205.2498,54,23,42
205.2498,205.48788,40,88,42
205.48788,205.72598,52,88,42
205.72598,205.96408,40,88,42
205.96408,206.20218,52,88,42
206.20218,206.44028,40,88,42
206.44028,206.67836,52,88,42
206.67836,206.91646,40,88,42
206.91646,207.15456,52,88,42
207.15456,207.39265,40,88,42
207.39265,207.63075,52,88,42
207.63075,207.86884,40,88,42
207.86884,208.10693,52,88,42
208.10693,208.34503,40,88,42
208.34503,208.58313,52,88,42
208.58313,208.82121,40,88,42
208.82121,209.05931,52,88,42
209.05931,209.29741,40,88,42
209.29741,209.5355,52,88,42
209.5355,209.7736,40,88,42
209.7736,210.01169,52,88,42
210.01169,210.24979,40,88,42
210.24979,210.48788,52,88,42
210.48788,210.72598,40,88,42
210.72598,210.96408,52,88,42
210.96408,211.20216,43,88,42
211.20216,211.44026,55,88,42
211.44026,211.67836,43,88,42
211.67836,211.91646,55,88,42
211.91646,212.15456,43,88,42
212.15456,212.39264,55,88,42
212.39264,212.63074,43,88,42
212.63074,212.74979,55,101,42
212.74979,212.86884,55,101,42
212.86884,212.98788,56,101,42
212.98788,213.10693,55,101,42
213.10693,213.22598,53,101,42
213.22598,213.34503,51,101,42
213.34503,213.46407,50,101,42
213.46407,213.58311,53,101,42
213.58311,213.70216,56,101,42
213.70216,213.82121,60,101,42
213.82121,214.29741,58,101,42
214.5355,214.65454,55,101,42
214.65454,214.77359,55,101,42
214.77359,214.89264,56,101,42
214.89264,215.01169,55,101,42
215.01169,215.13074,53,101,42
215.13074,215.24979,51,101,42
215.24979,215.36884,50,101,42
215.36884,215.48788,53,101,42
215.48788,215.60693,56,101,42
215.60693,215.72597,60,101,42
215.72597,215.82022,58,101,42
215.96407,216.44026,55,107,42
216.44026,216.55931,55,101,42
216.55931,216.67836,55,101,42
216.67836,216.79741,56,101,42
216.79741,216.91644,55,101,42
216.91644,217.03549,53,101,42
217.03549,217.15454,51,101,42
217.15454,217.27359,50,101,42
217.27359,217.39264,53,101,42
217.39264,217.51169,56,101,42
217.51169,217.63074,60,101,42
217.63074,217.74979,58,101,42
217.74979,217.86884,55,101,42
217.86884,217.98788,56,101,42
217.98788,218.10692,55,101,42
218.10692,218.22597,53,101,42
218.22597,218.34502,56,101,42
218.34502,218.46407,60,101,42
218.46407,218.58311,63,101,42
218.58311,218.70216,62,101,42
218.70216,218.82121,60,101,42
218.82121,218.94026,59,101,42
218.94026,219.05931,56,101,42
219.05931,219.17836,55,101,42
219.17836,219.2974,59,101,42
219.2974,219.41644,62,101,42
219.41644,219.53549,67,101,42
219.53549,219.65454,65,101,42
219.65454,219.77359,63,101,42
219.77359,219.89264,62,101,42
219.89264,220.01169,60,101,42
220.01169,220.13074,59,101,42
220.13074,220.24979,62,101,42
220.24979,220.36882,65,101,42
220.36882,220.48787,68,101,42
220.48787,220.72597,67,101,42
220.72597,221.44026,43,107,42
221.44026,221.67834,55,101,42
221.67834,222.39264,43,107,42
222.63074,222.86882,48,107,42
222.86882,223.10692,60,107,42
223.10692,223.34502,57,107,42
223.58311,223.8212,46,107,42
223.8212,224.0593,58,107,42
224.0593,224.2974,55,107,42
224.2974,224.53549,56,101,42
224.53549,224.77359,53,101,42
224.77359,225.01167,54,101,42
225.01167,225.24977,51,101,42
225.24977,225.48787,52,101,42
225.48787,225.72597,49,101,42
225.72597,225.96407,50,101,42
225.96407,226.20215,47,101,42
226.20215,226.44025,48,101,42
226.44025,226.67834,47,101,42
226.67834,226.91644,48,101,42
226.91644,227.15454,47,101,42
227.15454,227.39262,48,101,42
227.39262,227.63072,47,101,42
227.63072,227.86882,48,101,42
227.86882,228.10692,47,101,42
228.10692,228.34502,48,101,42
229.0593,230.01167,53,49,42
230.01167,230.96405,52,49,42
230.96405,231.91643,50,49,42
231.91643,232.86882,49,49,42
232.86882,233.8212,48,49,42
232.86882,233.8212,52,49,42
233.8212,234.77357,47,49,42
233.8212,234.77357,51,49,42
234.77357,235.72595,46,49,42
234.77357,235.72595,50,49,42
235.72595,238.345,45,36,42
235.72595,238.345,52,36,42
239.53548,240.48785,38,36,42
239.53548,240.48785,45,36,42
242.15453,242.19916,43,36,42
242.27357,242.3182,43,36,42
242.39261,242.51166,44,36,42
242.51166,242.6307,41,36,42
242.6307,242.74976,39,36,42
242.74976,242.8688,38,36,42
242.8688,243.345,38,36,42
244.29738,244.77356,53,49,42
244.77356,245.24976,46,49,42
245.24976,245.72595,51,49,42
245.72595,246.20213,39,49,42
246.20213,246.67833,44,49,42
246.67833,247.15451,46,49,42
247.15451,247.8688,39,49,42
248.10689,248.58308,41,49,42
248.58308,249.05928,46,49,42
249.05928,249.53546,39,49,42
249.53546,250.01166,36,49,42
250.01166,250.48784,38,55,42
250.48784,250.96404,38,49,42
250.96404,251.44023,43,88,42
251.91641,252.15451,36,49,42
252.39261,252.6307,48,49,42
252.86879,253.10689,41,49,42
253.58308,253.82118,53,49,42
253.82118,254.05927,36,49,42
254.29736,254.53546,48,49,42
254.77356,255.01164,41,49,42
255.48784,255.72594,53,49,42
255.72594,255.96404,46,49,42
256.20212,256.44022,58,49,42
256.6783,256.9164,51,49,42
257.3926,257.6307,51,49,42
257.6307,257.8688,46,49,42
258.34497,258.58307,46,49,42
258.58307,258.82117,51,49,42
259.29736,259.53546,51,49,42
259.53546,259.77356,46,49,42
260.24973,260.48782,46,49,42
260.48782,260.72592,46,49,42
261.20212,261.44022,46,49,42
261.44022,261.6783,46,49,42
261.9164,262.1545,46,49,42
262.3926,262.63068,46,49,42
262.86877,263.10687,46,49,42
263.34497,263.82117,46,49,42
263.82117,265.48782,53,49,42
267.15448,267.24875,41,36,42
267.39258,267.48685,53,49,42
267.63068,267.72495,46,49,42
267.86877,267.963,50,49,42
268.10687,268.2011,39,49,42
268.34497,268.4392,51,49,42
268.58307,268.6773,46,49,42
268.82117,268.9154,43,49,42
269.05927,269.1535,41,49,42
269.29736,269.3916,46,49,42
269.53543,269.6297,38,49,42
269.77353,269.8678,46,49,42
270.01163,270.1059,39,49,42
270.24973,270.34396,46,49,42
270.48782,270.58206,43,49,42
270.72592,270.82016,39,49,42
270.96402,271.05826,41,49,42
271.20212,271.29636,46,49,42
271.44022,271.53445,38,49,42
271.6783,271.77255,46,49,42
271.91638,272.01065,39,49,42
272.15448,272.24875,46,49,42
272.39258,272.48682,39,49,42
272.63068,272.7249,46,49,42
272.86877,272.963,41,49,42
273.10687,273.2011,46,49,42
273.34497,273.4392,38,49,42
273.58307,273.6773,46,49,42
273.82117,273.9154,39,49,42
274.05927,274.1535,46,49,42
274.29733,274.3916,39,49,42
274.77353,275.01163,46,75,42
275.24973,275.48782,39,75,42
275.72592,275.96402,44,75,42
276.20212,276.4402,48,75,42
276.67828,276.91638,46,75,42
277.15448,277.39258,39,75,42
277.63068,277.86877,44,75,42
278.10687,278.34497,44,75,42
278.58307,278.82114,41,107,42
278.82114,279.05923,53,107,42
279.05923,279.29733,43,101,42
279.29733,279.53543,55,101,42
279.53543,279.62967,48,101,42
279.77353,279.86777,60,101,42
280.01163,280.48782,40,107,42
280.48782,280.72592,41,101,42
280.96402,281.4402,40,107,42
281.4402,281.67828,41,101,42
281.91638,282.39258,40,107,42
282.39258,282.63068,41,101,42
284.05923,284.17828,59,101,42
284.17828,284.29733,61,101,42
284.29733,284.53543,60,101,42
284.53543,284.65448,55,101,42
284.65448,284.77353,58,101,42
284.77353,285.01163,56,101,42
285.01163,285.13068,52,101,42
285.13068,285.24973,55,101,42
285.24973,285.48782,53,101,42
285.48782,285.60687,47,101,42
285.60687,285.7259,50,101,42
285.7259,285.964,48,101,42
285.964,286.08304,47,101,42
286.08304,286.2021,50,101,42
286.2021,286.4402,48,101,42
286.4402,286.55923,47,49,42
286.55923,286.67828,50,49,42
286.67828,286.91638,48,49,42
286.91638,287.03543,47,49,42
287.03543,287.15448,50,49,42
287.15448,287.39258,48,49,42
287.39258,287.63068,50,49,42
287.63068,287.86877,51,49,42
287.86877,287.9878,50,49,42
287.9878,288.10684,48,49,42
288.10684,288.58304,50,49,42
288.58304,289.05923,55,49,42
289.05923,289.53543,48,49,42
289.53543,290.01163,50,49,42
290.01163,290.4878,46,49,42
290.4878,290.964,43,49,42
290.964,291.2021,41,49,42
291.2021,291.4402,43,49,42
291.4402,291.67828,44,49,42
291.67828,291.79733,43,49,42
291.79733,291.91638,41,49,42
291.91638,292.39258,43,49,42
292.39258,292.86874,48,49,42
292.86874,293.34494,41,49,42
293.34494,293.82114,43,49,42
293.82114,294.29733,39,49,42
294.29733,294.77353,36,49,42
308.10684,311.91635,42,49,42
311.91635,315.72586,41,36,42
319.5354,319.7735,46,94,42
319.7735,320.0116,48,94,42
320.0116,320.2497,50,88,42
320.2497,320.3687,48,88,42
320.3687,320.48776,46,88,42
320.48776,320.72586,51,88,42
321.44016,321.67825,46,94,42
321.67825,321.91635,48,94,42
321.91635,322.15445,50,88,42
322.15445,322.2735,48,88,42
322.2735,322.39255,46,88,42
322.39255,322.6306,45,94,42
323.3449,323.583,38,94,42
324.2973,324.5354,40,94,42
325.24966,325.48776,39,88,42
325.72586,326.44016,39,88,42
326.67825,327.39252,36,88,42
327.6306,328.3449,44,94,42
328.583,329.2973,41,94,42
329.53537,335.24966,41,94,42
335.24966,336.20206,39,49,42
336.20206,336.44016,38,49,42
336.44016,336.67822,51,36,42
336.67822,336.91632,50,36,42
336.91632,337.39252,38,36,42
337.39252,337.6306,51,36,42
337.6306,337.8687,50,36,42
337.8687,338.3449,38,36,42
338.3449,338.583,51,36,42
338.583,338.70206,50,36,42
338.70206,338.82108,50,36,42
338.82108,338.94012,50,36,42
338.94012,339.05917,50,36,42
339.05917,339.17822,50,36,42
339.17822,339.29727,50,36,42
339.29727,339.41632,50,36,42
339.41632,339.53537,50,36,42
339.53537,339.65442,50,36,42
339.65442,339.77347,50,36,42
339.77347,339.89252,50,36,42
339.89252,340.01157,50,36,42
340.01157,340.1306,50,36,42
340.1306,340.24966,50,36,42
340.24966,340.3687,50,36,42
340.3687,340.48776,50,36,42
345.24966,345.2943,38,88,42
345.3687,345.41333,51,88,42
345.48776,345.53238,50,88,42
345.6068,345.65143,38,88,42
345.72583,345.77048,38,88,42
345.84488,345.88953,51,88,42
345.96393,346.00858,50,88,42
346.08298,346.12762,38,88,42
346.20203,346.44012,46,88,42
348.10678,348.34488,50,88,42
348.34488,348.58298,53,88,42
348.58298,348.82108,56,88,42
348.82108,349.05917,57,88,42
349.05917,349.29727,58,88,42
349.29727,349.53537,62,88,42
349.53537,349.77347,65,88,42
349.77347,350.01157,58,88,42
350.01157,350.1306,63,88,42
350.1306,350.24966,63,88,42
350.24966,350.36868,63,88,42
350.36868,350.48773,63,88,42
350.48773,350.60678,63,88,42
350.60678,350.72583,63,88,42
350.72583,350.84488,63,88,42
350.84488,350.96393,63,88,42
350.96393,351.08298,62,88,42
351.08298,351.20203,62,88,42
351.20203,351.32108,62,88,42
351.32108,351.44012,62,88,42
351.44012,351.55917,61,88,42
351.55917,351.67822,61,88,42
351.67822,351.79727,61,88,42
351.79727,351.91632,61,88,42
351.91632,352.03537,60,88,42
352.03537,352.15442,60,88,42
352.15442,352.27347,60,88,42
352.27347,352.39252,60,88,42
352.39252,352.51157,58,88,42
352.51157,352.6306,58,88,42
352.6306,352.74963,58,88,42
352.74963,352.86868,58,88,42
352.86868,352.98773,57,88,42
352.98773,353.10678,57,88,42
353.10678,353.22583,57,88,42
353.22583,353.34488,57,88,42
353.34488,353.46393,56,88,42
353.46393,353.58298,56,88,42
353.58298,353.70203,56,88,42
353.70203,353.82108,56,88,42
353.82108,353.94012,55,88,42
353.94012,354.05917,55,88,42
354.05917,354.17822,55,88,42
354.17822,354.29727,55,88,42
354.29727,354.41632,51,88,42
354.41632,354.53537,51,88,42
354.53537,354.65442,51,88,42
354.65442,354.77347,51,88,42
354.77347,354.89252,50,88,42
354.89252,355.01154,50,88,42
355.01154,355.13058,50,88,42
355.13058,355.24963,50,88,42
355.24963,355.36868,49,88,42
355.36868,355.48773,49,88,42
355.48773,355.60678,49,88,42
355.60678,355.72583,49,88,42
355.72583,355.84488,48,88,42
355.84488,355.96393,48,88,42
355.96393,356.08298,48,88,42
356.08298,356.20203,48,88,42
356.20203,356.32108,46,88,42
356.32108,356.44012,46,88,42
356.44012,356.55917,46,88,42
356.55917,356.67822,46,88,42
356.67822,356.79727,45,88,42
356.79727,356.91632,45,88,42
356.91632,357.03537,45,88,42
357.03537,357.15442,45,88,42
357.15442,357.27344,44,88,42
357.27344,357.3925,44,88,42
357.3925,357.51154,44,88,42
357.51154,357.63058,44,88,42
357.63058,357.74963,43,49,42
357.74963,357.86868,43,49,42
357.86868,357.98773,43,49,42
357.98773,358.10678,43,49,42
358.10678,358.22583,46,49,42
358.22583,358.34488,46,49,42
358.34488,358.46393,46,49,42
358.46393,358.58298,46,49,42
358.58298,358.70203,45,49,42
358.70203,358.82108,45,49,42
358.82108,358.94012,45,49,42
358.94012,359.05917,45,49,42
359.05917,359.17822,44,49,42
359.17822,359.29727,44,49,42
359.29727,359.41632,44,49,42
359.41632,359.53537,44,49,42
359.53537,359.6544,43,49,42
359.6544,359.77344,43,49,42
359.77344,359.8925,46,49,42
359.8925,360.01154,46,49,42
360.01154,360.13058,45,49,42
360.13058,360.24963,45,49,42
360.24963,360.36868,44,49,42
360.36868,360.48773,44,49,42
360.48773,360.60678,43,49,42
360.60678,360.72583,43,49,42
360.72583,360.84488,46,49,42
360.84488,360.96393,46,49,42
360.96393,361.08298,45,49,42
361.08298,361.20203,45,49,42
361.20203,361.32108,44,49,42
361.32108,361.44012,44,49,42
361.44012,361.55917,43,49,42
361.55917,361.67822,43,49,42
361.67822,361.79727,46,49,42
361.79727,361.9163,46,49,42
361.9163,362.03534,45,49,42
362.03534,362.1544,45,49,42
362.1544,362.27344,44,49,42
362.27344,362.3925,44,49,42
362.3925,362.51154,43,49,42
362.51154,362.63058,43,49,42
362.63058,362.74963,46,49,42
362.74963,362.86868,46,49,42
362.86868,362.98773,44,49,42
362.98773,363.10678,44,49,42
363.10678,363.22583,40,101,42
363.22583,363.34488,40,101,42
363.34488,363.58298,41,101,42
363.82108,364.05917,46,101,42
364.29724,364.53534,39,107,42
364.53534,364.77344,51,107,42
364.77344,365.01154,46,107,42
365.01154,365.24963,43,107,42
365.24963,365.72583,44,107,42
365.72583,365.96393,46,107,42
365.96393,366.20203,46,107,42
366.20203,366.6782,39,101,42
367.1544,367.63058,41,101,42
367.63058,368.10678,46,101,42
368.10678,369.05914,39,101,42
369.05914,369.53534,41,49,42
369.53534,370.01154,46,49,42
370.01154,371.4401,39,49,42
371.4401,371.9163,46,36,42
371.9163,372.3925,39,36,42
372.3925,372.86868,46,36,42
372.86868,373.34488,39,36,42
373.34488,373.82104,46,36,42
373.82104,377.63058,39,36,42
377.63058,377.74963,51,49,42
377.74963,377.86868,50,49,42
377.86868,377.98773,51,49,42
377.98773,378.10675,50,49,42
378.10675,378.34485,51,49,42
378.34485,378.58295,46,49,42
378.58295,378.82104,48,55,42
378.82104,379.05914,50,55,42
379.05914,379.29724,51,55,42
379.29724,379.53534,46,55,42
379.53534,379.77344,48,55,42
379.77344,380.01154,50,55,42
380.01154,380.24963,51,55,42
380.24963,380.4877,46,55,42
380.4877,380.9639,48,94,42
380.9639,381.4401,43,94,42
381.4401,381.9163,48,94,42
381.9163,382.3925,43,94,42
382.3925,382.86865,48,94,42
382.86865,383.34485,43,94,42
383.34485,383.82104,48,94,42
383.82104,384.29724,46,94,42
384.29724,384.77344,39,101,42
384.29724,384.77344,46,101,42
384.29724,384.77344,55,101,42
385.2496,385.7258,39,107,42
385.7258,386.202,39,107,42
386.202,387.1544,39,107,42
