start_time,end_time,note_value,velocity,instrument_program_number
9.534576,9.694151,69,80,40
9.694151,12.055853,81,80,40
12.087768,12.726066,79,80,40
12.726066,13.045215,77,80,40
13.045215,13.348407,74,80,40
13.364364,15.58245,74,80,40
15.598407,15.901599,69,80,40
15.917556,16.236706,69,80,40
16.236706,16.539896,74,80,40
16.555855,16.875004,74,80,40
16.875004,17.178194,76,80,40
17.194153,18.470749,77,80,40
18.470749,19.077131,74,80,40
19.109047,19.188833,72,80,40
19.188833,19.268621,74,80,40
19.268621,19.348408,72,80,40
19.348408,19.428196,74,80,40
19.428196,20.385641,72,80,40
20.385641,20.70479,69,70,40
20.70479,21.018621,72,70,40
21.02394,22.9016,74,70,40
23.577131,23.736706,74,80,40
23.736706,23.89628,69,80,40
23.89628,24.055855,71,80,40
24.055855,24.21543,73,80,40
24.21543,24.321814,74,92,40
24.321814,24.428196,76,92,40
24.428196,24.534578,77,92,40
24.534578,24.694153,79,92,40
24.694153,24.853727,80,92,40
24.853727,25.013302,69,120,40
25.013302,27.375006,81,80,40
27.40692,28.045218,79,80,40
28.045218,28.364367,77,80,40
28.364367,28.667559,74,80,40
28.683516,30.901602,74,80,40
30.917559,31.22075,69,80,40
31.236708,31.555857,69,80,40
31.555857,31.859049,74,92,40
31.875006,32.194157,76,92,40
32.194157,32.497345,77,92,40
32.513306,33.7899,79,92,40
33.7899,34.10905,77,92,40
34.10905,34.41224,76,92,40
34.4282,35.492027,76,92,40
35.54522,35.91756,65,92,40
35.704796,35.91756,74,92,40
35.91756,36.130325,72,92,40
36.130325,36.332455,69,92,40
36.343094,38.162243,64,70,40
36.343094,38.877552,72,70,40
40.229,40.54815,74,63,40
40.54815,41.05879,77,63,40
41.186447,41.569427,77,63,40
41.824745,42.016235,77,63,40
42.143894,42.463043,74,63,40
42.463043,42.973682,77,63,40
43.10134,43.48432,77,63,40
43.73964,43.93113,77,63,40
44.05879,44.377937,74,63,40
44.377937,44.888577,77,63,40
45.016235,45.399216,77,63,40
45.654533,45.846024,77,63,40
45.973682,46.29283,74,63,40
46.29283,46.80347,77,63,40
46.93113,47.31411,77,63,40
47.569427,47.760918,77,63,40
47.888577,48.207726,74,63,40
48.207726,48.718365,77,63,40
48.846024,49.229004,77,63,40
49.48432,49.67581,77,63,40
49.80347,50.12262,72,63,40
50.12262,50.63326,77,63,40
50.760918,51.143898,77,63,40
51.399216,51.590706,77,63,40
51.718365,52.037514,74,63,40
52.037514,52.548153,77,63,40
52.67581,53.058792,77,63,40
53.31411,53.5056,77,63,40
53.63326,53.952408,74,63,40
53.952408,54.463047,77,63,40
54.590706,54.973682,77,63,40
55.229004,55.420494,77,63,40
55.548153,55.867302,74,83,40
55.867302,56.37794,77,63,40
56.5056,56.888577,77,63,40
57.143898,57.33539,77,63,40
57.463047,57.782196,74,63,40
57.782196,58.292835,77,63,40
58.420494,58.80347,77,63,40
59.058792,59.250282,77,63,40
59.37794,59.69709,74,63,40
59.69709,60.20773,77,63,40
60.33539,60.718365,77,63,40
60.973686,61.165176,77,63,40
61.292835,61.611984,74,63,40
61.611984,62.122623,77,63,40
62.250282,62.56943,77,70,40
62.56943,62.88858,79,70,40
62.88858,63.143898,81,70,40
63.20773,63.52688,72,80,40
63.52688,64.03751,76,80,40
64.16518,64.54816,76,80,40
64.803474,64.994965,76,80,40
65.12262,65.44177,72,80,40
65.44177,65.95241,76,80,40
66.08007,66.46305,76,92,40
66.71837,66.90986,84,92,40
67.03751,67.35667,72,80,40
67.35667,67.8673,76,80,40
67.994965,68.377945,76,80,40
68.63326,68.82475,76,70,40
68.95241,69.278496,72,63,40
69.278496,69.80024,76,63,40
69.93067,70.323425,76,63,40
70.590096,70.79009,76,63,40
70.92342,72.20002,79,63,40
70.92342,72.20002,70,63,40
72.20002,72.51917,77,63,40
72.51917,72.77449,76,63,40
72.83832,74.05109,70,63,40
72.83832,74.05109,79,63,40
74.114914,74.32768,77,63,40
74.32768,74.54044,81,63,40
74.114914,74.71066,69,63,40
74.54044,74.71066,76,63,40
74.75321,76.668106,70,63,40
74.75321,76.668106,79,63,40
77.9447,78.455345,79,70,40
78.583,79.8596,79,70,40
78.583,79.8596,70,70,40
79.8596,80.17875,77,70,40
80.17875,80.43407,76,70,40
80.497894,81.71066,70,80,40
80.497894,81.71066,79,80,40
81.77449,81.92875,69,80,40
81.77449,81.93407,77,80,40
81.93407,82.08832,81,80,40
82.09364,82.25321,81,92,40
82.25321,82.40747,76,92,40
82.41279,84.29045,79,92,40
82.41279,84.29045,70,92,40
84.32768,85.60428,79,105,40
84.32768,85.60428,70,92,40
85.60428,86.21066,80,105,40
85.60428,86.21066,71,105,40
86.24258,86.84896,81,125,40
86.880875,87.48726,84,125,40
87.51917,87.822365,82,105,40
87.838326,88.14151,81,105,40
88.15747,88.31705,62,105,40
88.31705,88.79577,79,125,40
88.79577,89.40215,77,80,40
89.43407,90.04045,74,80,40
90.072365,92.29045,74,80,40
92.30641,92.6096,69,70,40
92.62556,92.94471,69,70,40
92.94471,93.247894,74,70,40
93.263855,93.58301,76,70,40
93.58301,93.88619,77,70,40
93.90215,96.12024,81,70,40
96.13619,96.439384,77,70,40
96.455345,96.77449,77,70,40
96.77449,97.07768,79,80,40
97.09364,97.41279,81,92,40
97.41279,97.71598,84,92,40
97.73194,99.551094,84,92,40
99.646835,100.28513,86,92,40
100.28513,100.92343,91,105,40
100.92343,101.529816,82,125,40
101.56173,101.880875,82,105,40
101.880875,102.20003,81,105,40
102.20003,103.779816,84,105,40
103.79577,104.109604,82,112,40
104.11492,104.42875,79,112,40
104.43407,104.7479,75,100,40
104.75322,105.06705,79,100,40
105.072365,105.37556,82,100,40
105.39152,107.26918,81,80,40
107.30641,107.94471,79,70,40
107.94471,108.58301,77,70,40
108.58301,109.18939,74,70,40
109.221306,110.81705,72,70,40
110.81705,111.12024,81,70,40
111.1362,113.01386,72,63,40
111.1362,113.01386,81,63,40
113.051094,115.59943,69,63,40
113.051094,115.59943,77,63,40
115.632034,115.96537,69,63,40
115.96537,116.282036,72,63,40
116.298706,116.632034,72,63,40
116.632034,116.9487,69,63,40
116.96537,117.04516,70,38,40
117.04516,117.12495,72,38,40
117.12495,117.204735,70,38,40
117.204735,117.284515,72,38,40
117.284515,117.3643,70,38,40
117.3643,117.44409,72,38,40
117.44409,117.52388,70,38,40
117.52388,117.60367,72,38,40
117.60367,117.68346,70,38,40
117.68346,117.763245,72,38,40
117.763245,117.84303,70,38,40
117.84303,117.92281,72,38,40
117.92281,118.0026,70,38,40
118.0026,118.08239,72,38,40
118.08239,118.16218,70,38,40
118.16218,118.24197,72,38,40
118.24197,118.321754,70,38,40
118.321754,118.40154,72,38,40
118.40154,118.48133,70,38,40
118.48133,118.56111,72,38,40
118.56111,118.6409,70,38,40
118.6409,118.72069,72,38,40
118.72069,118.800476,70,38,40
118.800476,118.880264,72,38,40
118.880264,118.96005,70,38,40
118.96005,119.03984,72,38,40
119.03984,119.11963,70,38,40
119.11963,119.19941,72,38,40
119.19941,119.2792,70,38,40
119.2792,119.358986,72,38,40
119.358986,119.438774,70,38,40
119.438774,119.51856,72,38,40
119.51856,119.59835,70,38,40
119.59835,119.67814,72,38,40
119.67814,119.75793,70,38,40
119.75793,119.83771,72,38,40
119.83771,119.917496,70,38,40
119.917496,119.997284,72,38,40
119.997284,120.07707,70,38,40
120.07707,120.15686,72,38,40
120.15686,120.23665,70,38,40
120.23665,120.31644,72,38,40
120.31644,120.396225,70,38,40
120.396225,120.476006,72,38,40
120.476006,120.63558,69,38,40
120.63558,120.79516,70,38,40
120.79516,121.43346,70,70,40
121.43346,122.071754,76,70,40
122.071754,122.3909,77,92,40
122.3909,122.69409,76,92,40
122.71005,123.34835,79,112,40
123.34835,124.30579,88,92,40
124.30579,124.608986,79,63,40
124.62495,124.704735,82,63,40
124.704735,124.78452,84,63,40
124.78452,124.86431,82,63,40
124.86431,124.94409,84,63,40
124.94409,125.02388,82,63,40
125.02388,125.10367,84,63,40
125.10367,125.18346,82,63,40
125.18346,125.263245,84,63,40
125.263245,125.34303,82,63,40
125.34303,125.42282,84,63,40
125.42282,125.50261,82,63,40
125.50261,125.58239,84,63,40
125.58239,125.66218,82,63,40
125.66218,125.74197,84,63,40
125.74197,125.821754,82,63,40
125.821754,125.90154,84,63,40
125.90154,125.98133,82,63,40
125.98133,126.06112,84,63,40
126.06112,126.14091,82,63,40
126.14091,126.22069,84,63,40
126.22069,126.300476,82,63,40
126.300476,126.380264,84,63,40
126.380264,126.46005,82,63,40
126.46005,126.53984,84,63,40
126.53984,126.61963,82,63,40
126.61963,126.69942,84,63,40
126.69942,126.779205,82,63,40
126.779205,126.858986,84,63,40
126.858986,126.938774,82,70,40
126.938774,127.01856,84,70,40
127.01856,127.09835,82,70,40
127.09835,127.17814,84,70,40
127.17814,127.25793,82,70,40
127.25793,127.337715,84,70,40
127.337715,127.4175,82,70,40
127.4175,127.497284,84,70,40
127.497284,127.57707,82,70,40
127.57707,127.65686,84,70,40
127.65686,127.73665,82,70,40
127.73665,127.81644,84,70,40
127.81644,127.896225,82,70,40
127.896225,127.97601,84,70,40
127.97601,128.0558,82,70,40
128.0558,128.13559,84,70,40
128.13559,128.29517,81,70,40
128.29517,128.45473,82,70,40
128.45473,129.09303,82,70,40
129.09303,129.69942,88,80,40
129.73132,130.05048,89,92,40
130.05048,130.35367,88,92,40
130.36963,131.00792,88,92,40
131.00792,131.9175,89,92,40
131.96538,132.26857,89,92,40
132.28452,132.92282,89,92,40
132.92282,133.5292,93,92,40
133.56111,133.88026,91,92,40
133.88026,134.18346,89,92,40
134.19942,134.8058,88,112,40
134.8377,135.44409,86,112,40
135.47601,136.0824,82,112,40
136.1143,138.63559,77,92,40
136.1143,138.63559,81,92,40
138.6675,139.27388,77,92,40
138.6675,139.27388,81,92,40
139.3058,139.91219,77,92,40
139.3058,139.91219,81,92,40
139.94409,140.5824,84,80,40
140.5824,141.18878,81,80,40
141.22069,141.82707,89,80,40
141.859,143.07176,89,92,40
143.13559,143.74197,89,92,40
143.77388,145.59303,93,92,40
145.68878,146.96538,94,92,40
146.96538,147.57176,86,112,40
147.60367,147.92282,86,112,40
147.92282,148.24197,84,92,40
148.24197,148.88026,81,92,40
148.88026,149.19942,79,92,40
149.19942,149.50261,77,92,40
149.51857,151.11432,75,92,40
151.11432,151.41751,79,92,40
151.43346,153.95474,77,80,40
153.98665,154.62495,74,70,40
154.62495,155.23134,79,70,40
155.26324,156.53984,69,70,40
156.53984,157.14622,72,63,40
157.17815,158.9973,64,38,40
157.17815,158.9973,72,38,40
159.09303,161.33159,72,38,40
159.09303,161.33159,65,38,40
161.3479,161.65768,65,63,40
161.67398,162.00731,69,63,40
162.00731,162.32397,72,63,40
162.34065,162.67398,72,63,40
162.67398,162.99065,77,63,40
163.00731,165.56941,81,80,40
165.60275,166.26942,79,92,40
166.26942,166.61032,78,92,40
166.61032,166.93419,74,92,40
166.95123,168.86613,81,112,40
168.86613,169.47252,81,80,40
170.14273,170.46187,69,70,40
170.46187,170.76506,81,70,40
170.78102,173.34312,81,70,40
173.37646,174.04312,79,70,40
174.04312,174.38403,78,92,40
174.38403,174.7079,74,92,40
174.72495,176.66759,81,112,40
176.66759,177.27397,81,80,40
177.94418,178.45482,81,80,40
178.58249,181.07185,86,80,40
181.13568,181.77397,84,92,40
181.77397,182.09312,82,105,40
182.09312,182.38036,79,105,40
182.41228,184.90164,79,105,40
185.60376,186.17824,79,70,40
186.24207,188.73143,86,63,40
188.79526,189.43355,84,63,40
189.43355,189.7527,82,63,40
189.7527,190.03993,79,63,40
190.07185,192.56122,79,63,40
193.26334,193.83781,79,63,40
193.90164,196.41028,82,63,40
196.44153,197.06653,81,70,40
197.06653,197.66028,79,70,40
197.69153,198.62903,81,70,40
198.62903,198.87903,79,70,40
198.94153,199.14987,79,70,40
199.14987,199.3582,77,70,40
199.3582,199.52487,74,70,40
199.56653,200.56653,74,70,40
200.81653,201.31653,74,80,40
201.44153,202.01154,79,80,40
202.04153,202.94153,81,80,40
202.94153,203.22653,86,80,40
203.24153,203.81152,79,80,40
203.84154,204.74153,81,92,40
204.74153,205.02654,86,92,40
205.04153,206.88007,86,92,40
206.91653,208.79419,87,116,40
208.83142,209.42717,88,127,40
209.46973,210.06546,96,127,40
210.10802,210.70377,95,127,40
210.74632,211.34206,93,127,40
211.38461,211.98036,91,127,40
212.02292,212.61865,93,127,40
212.66121,215.8527,88,116,40
216.491,217.11867,88,127,40
217.1293,217.75696,93,127,40
217.7676,218.34207,91,127,40
218.4059,219.03355,88,127,40
219.04419,219.67186,86,127,40
219.6825,220.31015,88,127,40
220.32079,220.48036,72,105,40
220.48036,222.84207,84,105,40
222.87398,223.51228,83,92,40
223.51228,224.11867,84,92,40
224.15057,226.67186,84,92,40
226.70377,227.34207,83,80,40
227.34207,227.94846,84,70,40
227.98036,230.50165,84,70,40
230.53355,231.17186,83,70,40
231.17186,231.77824,84,63,40
231.81015,234.35849,84,63,40
234.3911,235.05777,83,63,40
235.05777,235.6911,84,63,40
235.72443,238.2589,81,70,40
238.2915,238.94366,79,80,40
238.94366,239.26976,78,92,40
239.26976,239.57954,74,92,40
239.59584,242.14488,81,80,40
242.8151,243.13423,69,70,40
243.13423,243.43742,81,70,40
243.45338,246.00172,81,70,40
246.03433,246.701,79,80,40
246.701,247.03433,78,92,40
247.03433,247.351,74,92,40
247.36766,249.95824,81,92,40
250.62915,251.23553,81,116,40
251.26744,253.78873,86,116,40
253.82063,254.45894,82,116,40
254.45894,254.77809,81,116,40
254.77809,255.09723,77,116,40
255.09723,257.6185,79,105,40
258.28873,258.8951,79,70,40
258.92703,261.4483,86,70,40
261.48022,262.1185,82,63,40
262.1185,262.43765,81,63,40
262.43765,262.7568,77,63,40
262.7568,265.31,79,63,40
265.9483,266.5547,79,63,40
266.5866,269.10788,82,63,40
269.1398,269.77808,81,70,40
269.77808,270.38446,79,70,40
270.41638,271.37384,81,70,40
271.37384,271.67703,79,70,40
271.693,271.90576,79,80,40
271.90576,272.11853,77,80,40
272.11853,272.32065,74,80,40
272.33127,273.54404,74,80,40
273.60788,274.21426,74,80,40
274.2462,274.85257,79,80,40
274.88446,275.83527,81,80,40
275.83527,276.13214,86,80,40
276.14777,276.74152,79,92,40
276.77277,277.71027,81,92,40
277.71027,278.00714,86,92,40
278.02277,279.9135,79,92,40
279.95154,281.89816,80,105,40
281.93704,282.57535,81,105,40
282.57535,283.18173,89,105,40
283.21365,283.82004,88,125,40
283.85193,284.7615,86,125,40
284.8094,285.11258,84,125,40
285.12854,285.73492,86,125,40
285.76685,288.93173,81,105,40
289.59662,290.23492,81,105,40
290.23492,290.8413,86,105,40
290.87323,291.4796,84,105,40
291.5115,292.1498,81,105,40
292.1498,292.78812,80,92,40
292.78812,293.3945,81,92,40
293.42642,295.2828,81,80,40
295.3413,295.9796,77,80,40
295.9796,296.6179,76,80,40
296.6179,297.23492,77,80,40
297.2562,299.11258,77,80,40
299.17108,299.8094,77,80,40
299.8094,300.4477,76,80,40
300.4477,301.0647,77,70,40
301.086,302.94238,77,70,40
303.0009,303.6392,77,70,40
303.6392,304.27747,76,70,40
304.27747,304.8945,77,70,40
304.91577,306.77216,77,63,40
306.83066,307.46896,77,63,40
307.46896,308.10727,76,63,40
308.10727,308.72427,77,63,40
308.74557,310.65536,77,63,40
310.71786,311.43213,77,63,40
311.43213,312.16385,76,63,40
312.16385,312.90744,77,63,40
312.93307,313.37625,65,38,40
312.93307,313.37625,74,38,40
313.6149,314.05807,74,38,40
313.6149,314.05807,65,38,40
317.024,317.46716,65,38,40
317.024,317.46716,69,38,40
317.7058,318.149,65,38,40
317.7058,318.149,69,38,40
321.1149,321.55807,65,38,40
321.1149,321.55807,69,38,40
321.79672,322.2399,65,38,40
321.79672,322.2399,69,38,40
325.2058,325.649,69,38,40
325.2058,325.649,65,38,40
325.88763,326.3308,69,38,40
325.88763,326.3308,65,38,40
329.29672,329.7399,65,38,40
329.29672,329.7399,57,38,40
329.97852,330.42172,57,38,40
329.97852,330.42172,65,38,40
333.3876,333.8308,57,38,40
333.3876,333.8308,65,38,40
334.06943,334.5126,57,38,40
334.06943,334.5126,65,38,40
337.47852,339.524,59,103,40
339.524,341.52966,59,63,40
341.56943,343.63074,60,70,40
343.63074,345.68307,58,63,40
375.74042,382.1939,65,38,40
1.875,2.194149,62,63,40
2.194149,2.800532,65,63,40
2.832447,3.3111706,65,63,40
3.470745,3.6622343,65,63,40
3.789894,4.109043,62,63,40
4.109043,4.715426,65,63,40
4.747341,5.2260647,65,63,40
5.385639,5.5771284,65,63,40
5.704788,6.023937,62,63,40
6.023937,6.63032,65,63,40
6.662235,7.1409583,65,63,40
7.300533,7.4920225,65,63,40
7.619682,7.938831,62,63,40
7.938831,8.545214,65,63,40
8.577129,9.055853,65,63,40
9.215427,9.406917,65,63,40
9.534576,9.853725,62,63,40
9.853725,10.460108,65,63,40
10.492023,10.970746,65,63,40
11.130321,11.321811,65,63,40
11.44947,11.768619,62,63,40
11.768619,12.375002,65,63,40
12.406917,12.88564,65,63,40
13.045215,13.236705,65,63,40
13.364364,13.683513,62,63,40
13.683513,14.289896,65,63,40
14.321811,14.800534,65,63,40
14.960109,15.151598,65,63,40
15.279258,15.598407,62,63,40
15.598407,16.20479,65,63,40
16.236706,16.71543,65,63,40
16.875004,17.066492,65,63,40
17.194153,17.513302,62,63,40
17.513302,18.119684,65,63,40
18.1516,18.630323,65,63,40
18.789898,18.981386,65,63,40
19.109047,19.428196,60,63,40
19.428196,20.034578,65,63,40
20.066492,20.545216,65,63,40
20.70479,20.89628,65,63,40
21.02394,21.343088,62,63,40
21.343088,21.949472,65,63,40
21.981386,22.46011,65,63,40
22.619684,22.811174,65,63,40
22.938833,23.257982,62,70,40
23.257982,23.864367,65,70,40
23.89628,24.375004,65,80,40
24.534578,24.726068,65,80,40
24.853727,25.172876,62,83,40
25.172876,25.77926,65,63,40
25.811174,26.289898,65,63,40
26.449472,26.640963,65,63,40
26.768621,27.08777,62,63,40
27.08777,27.694155,65,63,40
27.726068,28.204792,65,63,40
28.364367,28.555857,65,63,40
28.683516,29.002665,62,63,40
29.002665,29.609049,65,63,40
29.640963,30.119686,65,63,40
30.27926,30.47075,65,63,40
30.59841,30.917559,62,63,40
30.917559,31.523943,65,63,40
31.555857,32.03458,65,63,40
32.194157,32.385643,65,63,40
32.513306,32.832455,60,63,40
32.832455,33.438835,64,80,40
33.470753,33.949474,64,80,40
34.10905,34.300537,64,80,40
34.4282,34.74735,60,80,40
34.74735,35.35373,64,80,40
35.385647,35.86437,64,80,40
36.023945,36.21543,65,80,40
36.343094,36.662243,60,80,40
36.662243,37.268623,64,80,40
37.300537,37.779263,64,80,40
37.938835,38.130325,64,70,40
38.257984,38.584072,60,70,40
38.584072,39.20364,64,70,40
39.236248,39.729,64,70,40
39.895668,40.09567,67,63,40
40.229,40.54815,65,38,40
40.54815,40.85134,69,38,40
40.8673,41.186447,69,38,40
41.186447,41.48964,74,38,40
41.505596,41.824745,74,38,40
41.824745,42.127937,69,38,40
42.143894,42.463043,65,38,40
42.463043,42.766235,69,38,40
42.782192,43.10134,69,38,40
43.10134,43.404533,74,38,40
43.42049,43.73964,74,38,40
43.73964,44.04283,69,38,40
44.05879,44.377937,65,38,40
44.377937,44.68113,69,38,40
44.697086,45.016235,69,38,40
45.016235,45.319427,74,38,40
45.335384,45.654533,74,38,40
45.654533,45.957726,69,38,40
45.973682,46.29283,65,38,40
46.29283,46.596024,69,38,40
46.61198,46.93113,69,38,40
46.93113,47.23432,74,38,40
47.25028,47.569427,74,38,40
47.569427,47.87262,69,38,40
47.888577,48.207726,65,38,40
48.207726,48.510918,69,38,40
48.526875,48.846024,69,38,40
48.846024,49.149216,74,38,40
49.165173,49.48432,74,38,40
49.48432,49.787514,69,38,40
49.80347,50.12262,65,38,40
50.12262,50.42581,69,38,40
50.44177,50.760918,69,38,40
50.760918,51.06411,72,38,40
51.080067,51.399216,72,38,40
51.399216,51.702408,69,38,40
51.718365,52.037514,65,38,40
52.037514,52.340706,69,38,40
52.356663,52.67581,69,38,40
52.67581,52.979004,74,38,40
52.99496,53.31411,74,38,40
53.31411,53.617302,69,38,40
53.63326,53.952408,65,38,40
53.952408,54.2556,69,38,40
54.271557,54.590706,69,38,40
54.590706,54.893898,74,38,40
54.909855,55.229004,74,38,40
55.229004,55.532196,69,38,40
55.548153,55.867302,65,58,40
55.867302,56.170494,69,38,40
56.18645,56.5056,69,38,40
56.5056,56.808792,74,38,40
56.82475,57.143898,74,38,40
57.143898,57.44709,69,38,40
57.463047,57.782196,65,38,40
57.782196,58.08539,69,38,40
58.101345,58.420494,69,38,40
58.420494,58.723686,74,38,40
58.739643,59.058792,74,38,40
59.058792,59.361984,69,38,40
59.37794,59.69709,65,38,40
59.69709,60.000282,69,38,40
60.01624,60.33539,69,38,40
60.33539,60.63858,74,38,40
60.654537,60.973686,74,38,40
60.973686,61.27688,69,38,40
61.292835,61.611984,65,38,40
61.611984,61.915176,69,38,40
61.931133,62.250282,69,38,40
62.250282,62.553474,74,70,40
62.56943,62.88858,74,70,40
62.88858,63.191772,69,70,40
63.20773,63.52688,64,70,40
63.52688,63.83007,67,70,40
63.846027,64.16518,67,70,40
64.16518,64.46837,72,70,40
64.48432,64.803474,72,70,40
64.803474,65.10667,67,70,40
65.12262,65.44177,64,70,40
65.44177,65.744965,67,70,40
65.76092,66.08007,67,80,40
66.08007,66.38326,72,80,40
66.399216,66.71837,72,80,40
66.71837,67.02156,65,80,40
67.03751,67.35667,64,80,40
67.35667,67.65986,67,80,40
67.67581,67.994965,67,80,40
67.994965,68.29816,72,70,40
68.31411,68.63326,72,70,40
68.63326,68.936455,67,70,40
68.95241,69.278496,64,70,40
69.278496,69.58828,67,63,40
69.60458,69.93067,67,63,40
69.93067,70.240456,72,63,40
70.25676,70.590096,72,63,40
70.590096,70.90676,67,63,40
70.92342,71.43407,67,63,40
74.75321,75.39151,58,70,40
75.39151,76.02981,64,80,40
76.02981,76.34896,65,92,40
76.34896,76.65215,64,92,40
76.668106,77.306404,67,112,40
77.306404,78.21598,76,92,40
78.263855,78.56705,67,92,40
78.583,79.09364,67,63,40
82.41279,83.05109,58,70,40
83.05109,83.689384,64,70,40
83.689384,84.00854,65,92,40
84.00854,84.31172,64,92,40
84.32768,84.93407,67,92,40
84.96598,85.572365,76,105,40
85.60428,86.21066,77,105,40
86.24258,87.15215,77,105,40
86.24258,87.15215,72,105,40
87.20003,87.51917,81,105,40
87.51917,87.838326,79,105,40
87.838326,88.14151,77,105,40
88.15747,89.37024,62,105,40
88.15747,89.43407,74,105,40
89.43407,90.04045,70,80,40
89.43407,90.04045,62,80,40
90.072365,92.59364,69,38,40
90.072365,92.59364,65,38,40
92.62556,93.23194,69,38,40
92.62556,93.23194,65,38,40
93.263855,93.87024,69,38,40
93.263855,93.87024,65,38,40
93.90215,95.11492,69,38,40
93.90215,95.11492,65,38,40
95.17875,96.42343,69,38,40
95.17875,96.42343,77,38,40
96.455345,97.06173,69,63,40
96.455345,97.06173,77,83,40
97.09364,97.70003,69,63,40
97.09364,97.70003,77,83,40
97.73194,99.551094,76,80,40
97.73194,99.551094,72,80,40
99.646835,100.92343,82,80,40
99.646835,100.92343,74,80,40
100.92343,101.529816,79,92,40
100.92343,101.529816,70,80,40
101.56173,101.880875,79,92,40
101.56173,101.880875,70,92,40
101.880875,102.18407,77,92,40
101.880875,102.18407,69,92,40
102.20003,103.412796,69,92,40
102.20003,103.412796,77,92,40
103.47662,105.29577,67,80,40
103.47662,105.29577,75,80,40
105.39152,107.21066,74,70,40
105.39152,107.21066,65,70,40
107.30641,108.58301,65,63,40
107.30641,108.58301,74,70,40
108.58301,109.18939,67,63,40
109.221306,110.4979,69,63,40
109.221306,110.4979,65,63,40
110.4979,111.10429,77,63,40
110.4979,111.10429,69,63,40
111.1362,112.955345,69,38,40
111.1362,112.955345,76,38,40
113.051094,116.23204,65,38,40
113.051094,116.23204,72,38,40
116.96537,117.284515,64,38,40
117.284515,117.58771,55,38,40
117.60367,117.92281,55,38,40
117.92281,118.226006,58,38,40
118.24197,118.56111,57,38,40
118.56111,118.8643,55,38,40
118.880264,119.19941,64,38,40
119.19941,119.5026,55,38,40
119.51856,119.83771,55,38,40
119.83771,120.1409,58,38,40
120.15686,120.476006,57,38,40
120.476006,120.7792,55,38,40
120.79516,121.1143,64,38,40
121.1143,121.417496,55,38,40
121.43346,121.7526,55,38,40
121.7526,122.05579,58,38,40
122.071754,122.3909,57,38,40
122.3909,122.69409,55,38,40
122.71005,123.0292,64,38,40
123.0292,123.33239,55,38,40
123.34835,123.667496,55,38,40
123.667496,123.97069,58,38,40
123.98665,124.30579,57,38,40
124.30579,124.608986,55,38,40
124.62495,124.94409,64,38,40
124.94409,125.247284,55,38,40
125.263245,125.58239,55,38,40
125.58239,125.88558,58,38,40
125.90154,126.22069,57,38,40
126.22069,126.52388,55,38,40
126.53984,126.858986,64,63,40
126.858986,127.16218,55,63,40
127.17814,127.497284,55,63,40
127.497284,127.800476,58,63,40
127.81644,128.13559,57,63,40
128.13559,128.43878,55,63,40
128.45473,128.77388,64,80,40
128.77388,129.07707,67,80,40
129.09303,129.41219,67,80,40
129.41219,129.71538,70,80,40
129.73132,130.05048,70,80,40
130.05048,130.35367,67,80,40
130.36963,130.68878,64,92,40
130.68878,130.99197,70,92,40
131.00792,131.32707,70,92,40
131.32707,131.63026,71,92,40
131.64622,131.96538,71,92,40
131.96538,132.26857,65,92,40
132.28452,132.60367,65,92,40
132.60367,132.90686,69,92,40
132.92282,133.24197,65,92,40
133.24197,133.54517,60,92,40
133.56111,133.88026,65,92,40
133.88026,134.18346,72,92,40
134.19942,134.51857,72,92,40
134.51857,134.82176,73,92,40
134.8377,135.15686,74,92,40
135.15686,135.46005,77,92,40
135.47601,135.79517,66,92,40
135.79517,136.09836,67,92,40
136.1143,136.4175,65,92,40
136.1143,136.43346,69,92,40
136.43346,136.73665,77,92,40
136.75261,137.07176,77,92,40
137.07176,137.37495,69,92,40
137.3909,137.71005,69,92,40
137.71005,138.01324,77,92,40
138.0292,138.34836,77,80,40
138.34836,138.65155,69,80,40
138.6675,138.98665,69,80,40
138.98665,139.28984,77,80,40
139.3058,139.62495,79,80,40
139.62495,139.92815,74,80,40
139.94409,140.26324,65,70,40
140.26324,140.56644,77,70,40
140.5824,140.90155,77,70,40
140.90155,141.20474,65,70,40
141.22069,141.53984,65,70,40
141.53984,141.84303,77,70,40
141.859,142.17815,77,70,40
142.17815,142.48134,69,70,40
142.49728,142.81644,69,70,40
142.81644,143.11963,81,80,40
143.13559,143.45474,72,80,40
143.45474,143.75793,69,80,40
143.77388,144.09303,64,80,40
144.09303,144.39622,76,80,40
144.41219,144.73134,76,80,40
144.73134,145.03453,64,80,40
145.05048,145.36963,64,80,40
145.36963,145.67282,76,80,40
145.68878,146.00793,64,80,40
146.00793,146.31113,67,80,40
146.32707,146.64622,67,80,40
146.64622,146.94942,64,92,40
146.96538,147.28453,64,92,40
147.28453,147.58772,67,92,40
147.60367,147.92282,60,92,40
147.92282,148.22601,65,92,40
148.24197,148.56113,65,92,40
148.56113,148.86432,60,80,40
148.88026,149.48665,69,80,40
149.51857,149.83772,58,80,40
149.83772,150.14091,63,80,40
150.15686,150.47601,63,80,40
150.47601,150.7792,58,80,40
150.79517,151.40155,70,80,40
151.43346,151.75261,57,70,40
151.75261,152.0558,62,70,40
152.07176,152.39091,62,70,40
152.39091,152.6941,57,70,40
152.71005,153.31644,69,70,40
153.34836,153.66751,62,63,40
153.66751,153.9707,65,63,40
153.98665,154.3058,65,63,40
154.3058,154.609,62,63,40
154.62495,155.23134,65,63,40
155.26324,155.5824,60,63,40
155.5824,155.88559,65,63,40
155.90155,156.2207,65,63,40
156.2207,156.5239,60,63,40
156.53984,156.859,60,63,40
156.859,157.16219,65,63,40
157.17815,157.4973,60,63,40
157.4973,157.80049,72,63,40
157.81644,158.13559,72,63,40
158.13559,158.43878,60,63,40
158.45474,158.7739,60,63,40
158.7739,159.07709,72,63,40
159.09303,159.41219,65,63,40
159.41219,159.71538,72,63,40
159.73134,160.05049,72,63,40
160.05049,160.35368,69,63,40
160.36963,160.69572,69,63,40
160.69572,161.00551,65,63,40
161.0218,161.64137,65,63,40
167.27039,167.58954,66,70,40
167.58954,168.54698,75,70,40
168.54698,168.85017,74,70,40
168.86613,169.18527,74,92,40
169.18527,169.50443,72,63,40
169.50443,170.7172,75,63,40
175.05103,175.37712,66,80,40
175.37712,176.34843,75,80,40
176.34843,176.65163,74,92,40
176.66759,176.98674,74,105,40
176.98674,177.3059,72,105,40
177.3059,178.51866,75,105,40
178.58249,179.22078,74,80,40
179.22078,180.17822,82,80,40
180.17822,180.43355,82,80,40
180.49738,181.13568,82,80,40
181.13568,181.77397,81,92,40
181.77397,182.09312,79,92,40
182.09312,182.34845,75,92,40
182.41228,184.8378,67,92,40
182.41228,184.8378,75,92,40
185.60376,186.1144,75,70,40
186.24207,188.66759,82,63,40
188.79526,189.43355,81,63,40
189.43355,189.7527,79,63,40
189.7527,190.00803,75,63,40
190.07185,192.49738,75,63,40
193.26334,193.77397,75,63,40
193.90164,194.85909,79,63,40
194.85909,195.17824,75,63,40
195.17824,195.78462,70,63,40
195.81653,196.44153,67,63,40
196.44153,197.06653,65,63,40
197.06653,197.66028,64,70,40
197.69153,198.00403,62,70,40
198.00403,198.50403,65,70,40
198.62903,199.12903,65,70,40
199.25403,199.50403,65,70,40
199.56653,199.87903,62,70,40
199.87903,200.37903,65,70,40
200.50403,201.00403,65,70,40
201.12903,201.37903,65,70,40
201.44153,201.74153,62,80,40
201.74153,202.22153,74,80,40
202.34154,202.82153,74,80,40
202.94153,203.18153,74,80,40
203.24153,203.54153,62,80,40
203.54153,204.02153,74,80,40
204.14153,204.62154,74,80,40
204.74153,204.98154,74,80,40
205.04153,205.35403,57,92,40
205.35403,205.85403,69,92,40
205.97903,206.47903,69,92,40
206.60403,206.85403,69,92,40
206.91653,207.23569,57,92,40
207.23569,207.74632,69,105,40
207.87398,208.38461,69,105,40
208.51228,208.7676,69,105,40
208.83142,209.15057,64,116,40
209.15057,209.4644,76,116,40
209.46973,212.62398,76,116,40
212.66121,213.29951,76,116,40
213.29951,213.92717,84,116,40
213.9378,214.56548,83,116,40
214.57611,215.2144,81,116,40
215.2144,215.84207,79,116,40
215.8527,216.48036,81,116,40
216.491,219.55482,72,105,40
216.491,220.95909,76,105,40
220.95909,221.59738,81,105,40
221.59738,222.20377,79,105,40
222.23569,222.87398,76,105,40
222.87398,223.51228,74,92,40
223.51228,224.11867,76,92,40
224.15057,226.67186,76,80,40
226.70377,227.34207,74,70,40
227.34207,227.94846,76,70,40
227.98036,229.89526,76,63,40
229.89526,230.50165,75,63,40
230.53355,231.17186,74,63,40
231.17186,231.77824,75,63,40
231.81015,234.35849,75,63,40
234.3911,235.05777,74,63,40
235.05777,235.6911,75,63,40
235.72443,238.2915,72,63,40
239.92194,240.24802,66,92,40
240.24802,241.21935,75,92,40
241.21935,241.47466,74,92,40
241.5385,241.85764,74,112,40
241.85764,242.17679,72,92,40
242.17679,243.19807,75,92,40
247.70099,248.03433,66,105,40
248.03433,249.01259,75,105,40
249.01259,249.27345,74,116,40
249.33868,249.66476,74,116,40
249.66476,249.99084,72,116,40
249.99084,251.01213,75,116,40
251.26744,251.90575,74,116,40
251.90575,252.81532,82,116,40
252.86319,253.05469,82,116,40
253.18234,253.82063,82,116,40
253.82063,254.42702,79,116,40
254.45894,254.77809,77,116,40
254.77809,255.08128,74,116,40
255.09723,257.6185,75,92,40
255.09723,257.6185,67,92,40
258.28873,258.8951,75,70,40
258.92703,261.4483,82,63,40
261.48022,262.1185,79,63,40
262.1185,262.43765,77,63,40
262.43765,262.74084,74,63,40
262.7568,265.27808,75,63,40
265.9483,266.5547,75,63,40
266.5866,267.54404,79,63,40
267.54404,267.8632,75,63,40
267.8632,268.46957,70,63,40
268.5015,269.1398,67,63,40
269.1398,269.77808,65,63,40
269.77808,270.38446,64,63,40
270.41638,270.73553,62,70,40
270.73553,271.34192,65,70,40
271.37384,271.98022,65,70,40
272.01215,272.2036,65,70,40
272.33127,272.65042,62,70,40
272.65042,273.2568,65,70,40
273.28873,273.8951,65,70,40
273.92703,274.11853,65,70,40
274.2462,274.56534,62,80,40
274.56534,275.17172,74,80,40
275.2036,275.80402,74,80,40
275.83527,276.02277,74,80,40
276.14777,276.46027,62,80,40
276.46027,277.05402,74,80,40
277.08527,277.67902,74,80,40
277.71027,277.89777,74,80,40
278.02277,278.34192,62,92,40
278.34192,278.9483,74,92,40
278.98022,279.59283,74,92,40
279.62546,279.8211,74,92,40
279.95154,280.27762,62,105,40
280.27762,280.90372,74,105,40
280.93704,281.57037,74,105,40
281.60373,281.8037,74,105,40
281.93704,282.2562,69,105,40
282.2562,282.5115,81,105,40
282.57535,285.7296,81,105,40
285.76685,286.40512,69,105,40
286.40512,287.0115,77,105,40
287.04343,287.6498,76,105,40
287.68173,288.6392,74,105,40
288.6392,288.94238,72,105,40
288.9583,289.5647,74,105,40
289.59662,291.41577,69,92,40
289.59662,291.41577,65,92,40
291.5115,292.1179,69,92,40
292.1498,292.7562,70,80,40
292.78812,293.3945,69,80,40
291.5115,293.3945,65,92,40
293.42642,294.0647,69,80,40
294.0647,294.703,74,80,40
294.703,295.32004,72,80,40
295.3413,295.9796,69,80,40
295.9796,296.6179,68,70,40
296.6179,297.23492,69,70,40
297.2562,299.11258,69,70,40
299.17108,299.8094,69,70,40
299.8094,300.4477,67,70,40
300.4477,301.0647,69,70,40
301.086,302.94238,69,70,40
303.0009,303.6392,69,63,40
303.6392,304.27747,67,63,40
304.27747,304.8945,69,63,40
304.91577,306.77216,69,63,40
306.83066,307.46896,68,63,40
307.46896,308.10727,67,63,40
308.10727,308.72427,68,63,40
308.74557,310.65536,69,63,40
310.71786,311.43213,69,63,40
311.43213,312.16385,67,63,40
312.16385,312.90744,69,63,40
312.93307,313.37625,57,38,40
312.93307,313.37625,69,38,40
313.6149,314.05807,69,38,40
313.6149,314.05807,57,38,40
317.024,317.46716,65,38,40
317.024,317.46716,57,38,40
317.7058,318.149,65,38,40
317.7058,318.149,57,38,40
321.1149,321.55807,65,38,40
321.1149,321.55807,57,38,40
321.79672,322.2399,65,38,40
321.79672,322.2399,57,38,40
325.2058,325.649,57,38,40
325.2058,325.649,65,38,40
325.88763,326.3308,57,38,40
325.88763,326.3308,65,38,40
329.29672,329.7399,57,38,40
329.29672,329.7399,62,38,40
329.97852,330.42172,57,38,40
329.97852,330.42172,62,38,40
333.3876,333.8308,57,38,40
333.3876,333.8308,62,38,40
334.06943,334.5126,57,38,40
334.06943,334.5126,62,38,40
337.47852,339.524,55,103,40
339.524,341.52966,56,63,40
341.56943,343.63074,57,70,40
343.63074,345.68307,55,63,40
375.74042,382.0195,57,38,40
1.875,2.194149,53,63,41
2.194149,2.4973404,57,63,41
2.513298,2.832447,57,63,41
2.832447,3.1356385,62,63,41
3.151596,3.470745,62,63,41
3.470745,3.7739365,57,63,41
3.789894,4.109043,53,63,41
4.109043,4.412235,57,63,41
4.428192,4.747341,57,63,41
4.747341,5.0505323,62,63,41
5.06649,5.385639,62,63,41
5.385639,5.6888304,57,63,41
5.704788,6.023937,53,63,41
6.023937,6.3271284,57,63,41
6.343086,6.662235,57,63,41
6.662235,6.9654264,62,63,41
6.981384,7.300533,62,63,41
7.300533,7.6037245,57,63,41
7.619682,7.938831,53,63,41
7.938831,8.2420225,57,63,41
8.25798,8.577129,57,63,41
8.577129,8.880321,62,63,41
8.896278,9.215427,62,63,41
9.215427,9.518619,57,63,41
9.534576,9.853725,53,63,41
9.853725,10.156917,57,63,41
10.172874,10.492023,57,63,41
10.492023,10.795215,62,63,41
10.811172,11.130321,62,63,41
11.130321,11.433513,57,63,41
11.44947,11.768619,53,63,41
11.768619,12.071811,57,63,41
12.087768,12.406917,57,63,41
12.406917,12.710109,62,63,41
12.726066,13.045215,62,63,41
13.045215,13.236705,57,63,41
13.364364,13.683513,53,63,41
13.683513,13.986705,57,63,41
14.002662,14.321811,57,63,41
14.321811,14.625003,62,63,41
14.64096,14.960109,62,63,41
14.960109,15.263301,57,63,41
15.279258,15.598407,53,63,41
15.598407,15.901599,57,63,41
15.917556,16.236706,57,63,41
16.236706,16.539896,62,63,41
16.555855,16.875004,62,63,41
16.875004,17.066492,57,63,41
17.194153,17.513302,53,63,41
17.513302,17.816492,57,63,41
17.83245,18.1516,57,63,41
18.1516,18.45479,62,63,41
18.470749,18.789898,62,63,41
18.789898,19.093088,57,63,41
19.109047,19.428196,53,63,41
19.428196,19.731386,57,63,41
19.747343,20.066492,57,63,41
20.066492,20.369684,60,63,41
20.385641,20.70479,60,63,41
20.70479,20.89628,57,63,41
21.02394,21.343088,53,63,41
21.343088,21.64628,57,63,41
21.662237,21.981386,57,63,41
21.981386,22.284578,62,63,41
22.300535,22.619684,62,63,41
22.619684,22.922876,57,63,41
22.938833,23.257982,53,70,41
23.257982,23.561174,57,70,41
23.577131,23.89628,57,70,41
23.89628,24.199472,62,70,41
24.21543,24.534578,62,80,41
24.534578,24.726068,57,80,41
24.853727,25.172876,53,83,41
25.172876,25.476068,57,63,41
25.492025,25.811174,57,63,41
25.811174,26.114367,62,63,41
26.130323,26.449472,62,63,41
26.449472,26.752665,57,63,41
26.768621,27.08777,53,63,41
27.08777,27.390963,57,63,41
27.40692,27.726068,57,63,41
27.726068,28.02926,62,63,41
28.045218,28.364367,62,63,41
28.364367,28.555857,57,63,41
28.683516,29.002665,53,63,41
29.002665,29.305857,57,63,41
29.321814,29.640963,57,63,41
29.640963,29.944155,62,63,41
29.960112,30.27926,62,63,41
30.27926,30.582453,57,63,41
30.59841,30.917559,53,63,41
30.917559,31.22075,57,63,41
31.236708,31.555857,57,70,41
31.555857,31.859049,62,70,41
31.875006,32.194157,62,70,41
32.194157,32.385643,57,70,41
32.513306,32.832455,52,80,41
32.832455,33.135643,55,80,41
33.151604,33.470753,55,80,41
33.470753,33.77394,60,80,41
33.7899,34.10905,60,80,41
34.10905,34.41224,55,80,41
34.4282,34.74735,52,80,41
34.74735,35.050537,55,80,41
35.066498,35.385647,55,80,41
35.385647,35.688835,60,80,41
35.704796,36.023945,60,80,41
36.023945,36.21543,55,80,41
36.343094,36.662243,52,80,41
36.662243,36.96543,55,80,41
36.98139,37.300537,55,70,41
37.300537,37.60373,64,70,41
37.619686,37.938835,64,70,41
37.938835,38.242027,55,70,41
38.257984,38.584072,52,70,41
38.584072,38.893856,55,70,41
38.91016,39.236248,55,63,41
39.236248,39.54603,64,63,41
39.562332,39.895668,55,63,41
39.895668,40.09567,52,63,41
70.92342,71.24258,52,63,41
71.24258,71.54577,55,63,41
71.56172,71.880875,55,63,41
71.880875,72.18407,58,63,41
72.20002,72.51917,57,63,41
72.51917,72.822365,55,63,41
72.83832,73.15747,52,63,41
73.15747,73.46066,55,63,41
73.476616,73.79577,55,63,41
73.79577,74.09896,58,63,41
74.114914,74.43407,57,63,41
74.43407,74.73726,55,63,41
74.75321,75.072365,52,63,41
75.072365,75.37556,55,63,41
75.39151,75.71066,55,63,41
75.71066,76.013855,58,63,41
76.02981,76.34896,57,63,41
76.34896,76.65215,55,63,41
76.668106,76.98726,52,63,41
76.98726,77.29045,55,63,41
77.306404,77.62556,55,63,41
77.62556,77.92875,58,63,41
77.9447,78.263855,57,63,41
78.263855,78.56705,55,63,41
78.583,78.90215,52,63,41
78.90215,79.205345,55,63,41
79.2213,79.54045,55,63,41
79.54045,79.84364,58,63,41
79.8596,80.17875,57,63,41
80.17875,80.48194,55,63,41
80.497894,80.81705,52,63,41
80.81705,81.12024,55,63,41
81.13619,81.455345,55,63,41
81.455345,81.75854,58,63,41
81.77449,82.09364,57,63,41
82.09364,82.396835,55,63,41
82.41279,82.73194,52,63,41
82.73194,83.03513,55,63,41
83.05109,83.37024,55,63,41
83.37024,83.67342,58,80,41
83.689384,84.00854,57,80,41
84.00854,84.31172,55,80,41
84.32768,84.646835,52,80,41
84.646835,84.95002,55,80,41
84.96598,85.28513,55,80,41
85.28513,85.58832,58,92,41
85.60428,85.92343,59,92,41
85.92343,86.226616,53,92,41
86.24258,86.56173,53,105,41
86.56173,86.864914,57,105,41
86.880875,87.20003,57,105,41
87.20003,87.50321,60,105,41
87.51917,87.838326,60,105,41
87.838326,88.14151,53,105,41
88.15747,88.47662,50,105,41
88.47662,88.77981,53,105,41
88.79577,89.11492,53,80,41
89.11492,89.418106,62,80,41
89.43407,89.75322,62,80,41
89.75322,90.056404,53,80,41
90.072365,90.39152,53,63,41
90.39152,90.6947,57,63,41
90.71066,91.029816,57,63,41
91.029816,91.333,62,63,41
91.34896,91.66811,62,63,41
91.66811,91.9713,57,63,41
91.98726,92.30641,53,63,41
92.30641,92.6096,57,63,41
92.62556,92.94471,57,63,41
92.94471,93.247894,62,63,41
93.263855,93.58301,62,63,41
93.58301,93.88619,57,63,41
93.90215,94.2213,53,63,41
94.2213,94.52449,57,63,41
94.54045,94.8596,57,63,41
94.8596,95.16279,65,63,41
95.17875,95.497894,65,63,41
95.497894,95.80109,57,63,41
95.81705,96.13619,53,63,41
96.13619,96.439384,57,70,41
96.455345,96.77449,57,70,41
96.77449,97.07768,65,70,41
97.09364,97.41279,65,70,41
97.41279,97.71598,57,70,41
97.73194,98.05109,57,80,41
98.05109,98.35428,64,80,41
98.37024,98.689384,64,80,41
98.689384,98.99258,69,80,41
99.00854,99.32768,69,80,41
99.32768,99.630875,64,80,41
99.646835,99.96598,58,80,41
99.96598,100.26917,62,80,41
100.28513,100.60428,62,80,41
100.60428,100.90747,70,80,41
100.92343,101.24258,70,80,41
101.24258,101.54577,62,80,41
101.56173,101.880875,53,92,41
101.880875,102.18407,60,92,41
102.20003,102.51917,60,92,41
102.51917,102.822365,65,92,41
102.838326,103.15747,65,92,41
103.15747,103.46066,60,92,41
103.47662,103.79577,55,92,41
103.79577,104.09896,63,92,41
104.11492,104.43407,63,80,41
104.43407,104.73726,67,80,41
104.75322,105.072365,67,80,41
105.072365,105.37556,55,80,41
105.39152,105.71066,57,70,41
105.71066,106.013855,62,70,41
106.029816,106.34896,62,70,41
106.34896,106.65215,69,70,41
106.66811,106.98726,69,70,41
106.98726,107.29045,62,63,41
107.30641,107.62556,62,63,41
107.62556,107.92875,67,63,41
107.94471,108.263855,67,63,41
108.263855,108.56705,62,63,41
108.58301,108.90215,62,63,41
108.90215,109.205345,65,63,41
109.221306,109.54045,65,63,41
109.54045,109.84364,60,63,41
109.859604,110.17875,60,63,41
110.17875,110.48194,65,63,41
110.4979,110.81705,65,63,41
110.81705,111.12024,60,63,41
111.1362,111.455345,60,63,41
111.455345,111.75854,64,63,41
111.7745,112.09364,64,63,41
112.09364,112.396835,60,63,41
112.412796,112.73194,60,63,41
112.73194,113.03513,64,63,41
113.051094,113.37024,60,63,41
113.37024,113.67343,65,63,41
113.68939,114.00854,65,63,41
114.00854,114.31173,60,63,41
114.32769,114.65378,60,63,41
114.65378,114.96356,65,63,41
114.979866,115.30595,65,63,41
115.30595,115.61573,60,63,41
115.632034,115.96537,60,63,41
115.96537,116.282036,57,63,41
116.298706,116.632034,57,63,41
116.632034,116.9487,53,63,41
116.96537,117.73133,49,63,41
118.24197,118.36963,49,63,41
118.40154,118.5292,49,63,41
118.56111,118.688774,49,63,41
118.72069,118.84835,49,63,41
118.880264,119.646225,49,63,41
120.15686,120.28452,49,63,41
120.31644,120.44409,49,63,41
120.476006,120.60367,49,63,41
120.63558,120.763245,49,63,41
120.79516,121.56112,49,63,41
122.071754,122.19942,49,63,41
122.23133,122.358986,49,63,41
122.3909,122.51856,49,63,41
122.550476,122.67814,49,63,41
122.71005,123.47601,49,63,41
123.98665,124.11431,49,63,41
124.146225,124.27388,49,63,41
124.30579,124.43346,49,63,41
124.46537,124.59303,49,63,41
124.62495,125.39091,49,63,41
125.90154,126.029205,49,63,41
126.06112,126.188774,49,63,41
126.22069,126.34835,49,63,41
126.380264,126.50793,49,63,41
126.53984,127.3058,49,63,41
127.81644,127.94409,49,70,41
127.97601,128.10367,49,70,41
128.13559,128.26324,49,70,41
128.29517,128.42282,49,70,41
128.45473,129.22069,49,70,41
129.73132,129.859,49,80,41
129.8909,130.01857,49,80,41
130.05048,130.17813,49,80,41
130.21005,130.3377,49,80,41
130.36963,131.13559,49,80,41
131.64622,131.77388,49,92,41
131.8058,131.93346,49,92,41
131.96538,132.09303,49,92,41
132.12495,132.25261,49,92,41
132.28452,133.05048,53,92,41
133.56111,133.68878,53,92,41
133.72069,133.84836,53,92,41
133.88026,134.00792,53,92,41
134.03984,134.1675,53,92,41
134.19942,134.96538,58,92,41
135.47601,135.60367,58,92,41
135.63559,135.76324,58,92,41
135.79517,135.92282,58,92,41
135.95474,136.0824,58,92,41
136.1143,136.88026,50,92,41
137.3909,137.51857,50,92,41
137.55048,137.67815,50,92,41
137.71005,137.8377,50,92,41
137.86963,137.99728,50,92,41
138.0292,138.79517,59,80,41
139.3058,139.43346,59,80,41
139.46538,139.59303,59,80,41
139.62495,139.75261,59,80,41
139.78453,139.91219,59,80,41
139.94409,140.5824,60,70,41
140.5824,140.83772,48,70,41
141.22069,141.34836,49,70,41
141.38026,141.50793,49,70,41
141.53984,141.6675,49,70,41
141.69942,141.82707,49,70,41
141.859,142.62495,50,70,41
143.13559,143.26324,51,80,41
143.29517,143.42282,51,80,41
143.45474,143.5824,51,80,41
143.61432,143.74197,51,80,41
143.77388,144.53984,52,80,41
145.05048,145.17815,52,80,41
145.21005,145.33772,52,80,41
145.36963,145.49728,52,80,41
145.5292,145.65686,52,80,41
145.68878,146.45474,52,80,41
146.96538,147.09303,52,92,41
147.12495,147.25261,52,92,41
147.28453,147.41219,52,92,41
147.4441,147.57176,52,92,41
147.60367,148.36963,53,92,41
148.88026,149.00793,53,92,41
149.03984,149.16751,53,92,41
149.19942,149.32707,53,92,41
149.359,149.48665,53,92,41
149.51857,150.28453,55,92,41
150.79517,150.92282,55,80,41
150.95474,151.0824,55,80,41
151.11432,151.24197,55,80,41
151.27388,151.40155,55,80,41
151.43346,152.19942,57,70,41
152.71005,152.83772,57,70,41
152.86963,152.9973,57,70,41
153.0292,153.15686,57,70,41
153.18878,153.31644,57,70,41
153.34836,154.11432,58,70,41
154.62495,154.75261,59,63,41
154.78453,154.91219,59,63,41
154.9441,155.07176,59,63,41
155.10367,155.23134,59,63,41
155.26324,156.0292,60,63,41
156.53984,156.66751,60,63,41
156.69942,156.82709,60,63,41
156.859,156.98665,60,63,41
157.01857,157.14622,60,63,41
157.17815,157.9441,60,63,41
158.45474,158.5824,60,63,41
158.61432,158.74197,60,63,41
158.7739,158.90155,60,63,41
158.93346,159.06113,60,63,41
159.09303,159.859,53,63,41
160.36963,160.50008,53,63,41
160.53268,160.66312,53,63,41
160.69572,160.82616,53,63,41
160.85876,160.9892,53,63,41
161.0218,161.54355,53,63,41
163.00731,163.3105,54,70,41
163.32646,163.62965,57,70,41
163.64561,163.9488,57,70,41
163.96477,164.26796,60,70,41
164.2839,164.59369,60,70,41
164.61,164.91978,57,70,41
164.93608,165.25275,54,70,41
165.26942,165.58609,57,70,41
165.60275,165.91942,57,70,41
165.93608,166.25275,60,70,41
166.26942,166.59328,60,80,41
166.61032,166.93419,57,80,41
166.95123,167.25443,54,80,41
167.27039,167.57358,57,80,41
167.58954,167.89273,57,80,41
167.90868,168.21187,60,80,41
168.22783,168.53102,60,80,41
168.54698,168.85017,57,80,41
168.86613,169.16933,54,80,41
169.18527,169.48846,57,70,41
169.50443,169.80762,57,70,41
169.82358,170.12677,60,70,41
170.14273,170.44592,60,70,41
170.46187,170.76506,57,70,41
170.78102,171.08421,54,70,41
171.10017,171.40337,57,70,41
171.41933,171.72252,57,70,41
171.73846,172.04166,60,70,41
172.05762,172.3674,60,70,41
172.38371,172.6935,57,70,41
172.7098,173.02646,54,70,41
173.04312,173.35979,57,80,41
173.37646,173.69313,57,80,41
173.7098,174.02646,60,92,41
174.04312,174.36699,60,92,41
174.38403,174.7079,57,92,41
174.72495,175.03473,54,92,41
175.05103,175.36081,57,92,41
175.37712,175.6869,57,92,41
175.7032,176.01299,60,92,41
176.0293,176.33249,60,92,41
176.34843,176.65163,57,80,41
176.66759,176.97078,54,80,41
176.98674,177.28993,57,80,41
177.3059,177.60909,57,80,41
177.62503,177.92822,60,70,41
177.94418,178.24738,60,70,41
178.26334,178.56653,57,70,41
178.58249,178.90163,53,70,41
178.90163,179.20482,58,70,41
179.22078,179.53993,58,70,41
179.53993,179.84312,62,70,41
179.85909,180.17822,62,70,41
180.17822,180.48141,53,70,41
180.49738,180.81653,53,80,41
180.81653,181.11972,58,80,41
181.13568,181.45482,58,80,41
181.45482,181.75801,62,80,41
181.77397,182.09312,62,105,41
182.09312,182.39632,53,105,41
182.41228,182.73141,55,105,41
182.73141,183.0346,58,105,41
183.05057,183.36972,58,105,41
183.36972,183.67291,60,92,41
183.68887,184.00801,60,92,41
184.00801,184.3112,58,80,41
184.32716,184.64632,58,80,41
184.64632,184.94951,60,80,41
184.96547,185.2846,60,80,41
185.2846,185.5878,58,70,41
185.60376,185.92291,58,70,41
185.92291,186.2261,55,70,41
186.24207,186.5612,53,63,41
186.5612,186.8644,58,63,41
186.88036,187.19951,58,63,41
187.19951,187.5027,62,63,41
187.51866,187.8378,62,63,41
187.8378,188.14099,53,63,41
188.15695,188.4761,53,63,41
188.4761,188.7793,58,63,41
188.79526,189.1144,58,63,41
189.1144,189.41759,62,63,41
189.43355,189.7527,62,63,41
189.7527,190.0559,53,63,41
190.07185,190.39099,55,63,41
190.39099,190.69418,58,63,41
190.71014,191.0293,58,63,41
191.0293,191.33249,60,63,41
191.34845,191.66759,60,63,41
191.66759,191.97078,58,63,41
191.98674,192.3059,58,63,41
192.3059,192.60909,60,63,41
192.62505,192.94418,60,63,41
192.94418,193.24738,58,63,41
193.26334,193.58249,58,63,41
193.58249,193.88568,55,63,41
193.90164,194.22078,55,63,41
194.22078,194.52397,58,63,41
194.53993,194.85909,58,63,41
194.85909,195.16228,55,63,41
195.17824,195.49738,55,63,41
195.49738,195.80057,58,63,41
195.81653,196.12903,58,63,41
196.12903,196.4259,55,63,41
196.44153,196.75403,55,63,41
196.75403,197.0509,58,63,41
197.06653,197.37903,58,63,41
197.37903,197.6759,55,63,41
197.69153,198.00403,53,63,41
198.00403,198.25403,57,63,41
198.00403,198.25403,62,63,41
198.31653,198.62903,62,63,41
198.31653,198.62903,57,63,41
198.62903,198.87903,53,63,41
198.94153,199.25403,53,63,41
199.25403,199.50403,57,63,41
199.56653,199.87903,53,63,41
199.87903,200.12903,57,70,41
200.19153,200.50403,57,70,41
200.50403,200.75403,62,70,41
200.81653,201.12903,62,70,41
201.12903,201.37903,57,70,41
201.44153,201.74153,50,70,41
201.74153,201.98154,55,70,41
202.04153,202.34154,57,70,41
202.34154,202.58153,62,70,41
202.64153,202.94153,62,70,41
202.94153,203.18153,57,70,41
203.24153,203.54153,50,70,41
203.54153,203.78152,55,80,41
203.84154,204.14153,57,80,41
204.14153,204.38153,62,80,41
204.44153,204.74153,62,80,41
204.74153,204.98154,57,80,41
205.04153,205.35403,53,92,41
205.35403,205.60403,57,92,41
205.66653,205.97903,57,92,41
205.97903,206.22903,53,92,41
206.29153,206.60403,53,92,41
206.60403,206.85403,57,92,41
206.91653,207.23569,57,105,41
207.23569,207.491,54,105,41
207.55482,207.87398,54,105,41
207.87398,208.1293,57,105,41
208.19313,208.51228,57,105,41
208.51228,208.7676,54,105,41
208.83142,209.15057,57,116,41
209.15057,209.4059,60,116,41
209.46973,209.78888,60,116,41
209.78888,210.04419,64,116,41
210.10802,210.42717,64,116,41
210.42717,210.6825,60,116,41
210.74632,211.06548,52,116,41
211.06548,211.32079,60,116,41
211.38461,211.70377,60,116,41
211.70377,211.95909,64,116,41
212.02292,212.34207,64,116,41
212.34207,212.59738,60,116,41
212.66121,212.98036,57,116,41
212.98036,213.23569,60,116,41
213.29951,213.61867,60,116,41
213.61867,213.87398,64,116,41
213.9378,214.25696,64,116,41
214.25696,214.51228,60,116,41
214.57611,214.89525,52,116,41
214.89525,215.15057,60,116,41
215.2144,215.53355,60,116,41
215.53355,215.78888,64,116,41
215.8527,216.17184,64,116,41
216.17184,216.42717,60,116,41
216.491,216.81015,57,116,41
216.81015,217.06548,60,116,41
217.1293,217.44844,60,116,41
217.44844,217.70377,64,116,41
217.7676,218.08675,64,116,41
218.08675,218.34207,60,116,41
218.4059,218.72504,57,105,41
218.72504,218.98036,60,105,41
219.04419,219.36334,60,105,41
219.36334,219.61867,64,105,41
219.6825,220.00163,64,105,41
220.00163,220.25696,60,105,41
220.32079,220.63994,57,92,41
220.63994,220.89526,60,92,41
220.95909,221.27823,60,92,41
221.27823,221.53355,64,92,41
221.59738,221.91653,64,92,41
221.91653,222.17186,60,92,41
222.23569,222.55482,55,92,41
222.55482,222.81015,60,92,41
222.87398,223.19313,60,80,41
223.19313,223.44846,64,80,41
223.51228,223.83142,64,80,41
223.83142,224.08675,60,80,41
224.15057,224.46973,55,70,41
224.46973,224.72505,60,70,41
224.78888,225.10802,60,70,41
225.10802,225.36334,55,70,41
225.42717,225.74632,55,70,41
225.74632,226.00165,60,70,41
226.06548,226.38461,60,70,41
226.38461,226.63994,57,63,41
226.70377,227.02292,57,63,41
227.02292,227.27824,60,63,41
227.34207,227.66121,60,63,41
227.66121,227.91653,57,63,41
227.98036,228.29951,55,63,41
228.29951,228.55484,60,63,41
228.61867,228.9378,60,63,41
228.9378,229.19313,55,63,41
229.25696,229.57611,55,63,41
229.57611,229.83144,60,63,41
229.89526,230.2144,60,63,41
230.2144,230.46973,57,63,41
230.53355,230.8527,57,63,41
230.8527,231.10803,60,63,41
231.17186,231.491,60,63,41
231.491,231.74632,57,63,41
231.81015,232.1293,55,63,41
232.1293,232.38463,60,63,41
232.44846,232.7676,60,63,41
232.7676,233.02292,55,63,41
233.08675,233.41284,55,63,41
233.41284,233.6737,60,63,41
233.73892,234.065,60,63,41
234.065,234.32588,55,63,41
234.3911,234.72443,55,63,41
234.72443,234.9911,60,63,41
235.05777,235.3911,60,63,41
235.3911,235.65776,55,63,41
235.72443,236.04358,54,63,41
236.04358,236.2989,57,63,41
236.36273,236.68187,57,63,41
236.68187,236.9372,60,63,41
237.00102,237.32018,60,63,41
237.32018,237.5755,57,63,41
237.63933,237.96541,54,70,41
237.96541,238.22629,57,70,41
238.2915,238.61758,57,70,41
238.61758,238.87845,60,80,41
238.94366,239.26976,60,80,41
239.26976,239.53062,57,80,41
239.59584,239.92194,54,100,41
239.92194,240.1828,57,92,41
240.24802,240.57411,57,92,41
240.57411,240.83498,60,92,41
240.90019,241.21935,60,80,41
241.21935,241.47466,57,80,41
241.5385,241.85764,54,70,41
241.85764,242.11296,57,70,41
242.17679,242.49594,57,70,41
242.49594,242.75125,60,70,41
242.8151,243.13423,60,63,41
243.13423,243.38956,57,63,41
243.45338,243.77254,54,63,41
243.77254,244.02785,57,63,41
244.09169,244.41083,57,63,41
244.41083,244.66615,60,63,41
244.72998,245.05608,60,70,41
245.05608,245.31694,57,70,41
245.38216,245.70824,54,70,41
245.70824,245.96912,57,70,41
246.03433,246.36766,57,70,41
246.36766,246.63432,60,80,41
246.701,247.03433,60,80,41
247.03433,247.301,57,80,41
247.36766,247.70099,54,92,41
247.70099,248.01767,57,92,41
248.03433,248.36041,57,92,41
248.36041,248.6702,60,92,41
248.68651,249.01259,60,92,41
249.01259,249.32237,57,92,41
249.33868,249.66476,54,105,41
249.66476,249.97455,57,105,41
249.99084,250.31,57,105,41
250.31,250.61319,60,105,41
250.62915,250.9483,60,105,41
250.9483,251.2515,57,105,41
251.26744,251.5866,53,105,41
251.5866,251.88979,58,105,41
251.90575,252.2249,58,105,41
252.2249,252.52809,62,105,41
252.54404,252.86319,62,105,41
252.86319,253.16638,53,105,41
253.18234,253.5015,53,105,41
253.5015,253.80469,58,105,41
253.82063,254.13979,58,105,41
254.13979,254.44298,62,105,41
254.45894,254.77809,62,105,41
254.77809,255.08128,53,105,41
255.09723,255.41638,55,105,41
255.41638,255.71957,58,105,41
255.73553,256.0547,58,105,41
256.0547,256.35788,60,105,41
256.37384,256.693,60,105,41
256.693,256.9962,58,92,41
257.01212,257.33127,58,80,41
257.33127,257.63446,60,70,41
257.65042,257.96957,60,70,41
257.96957,258.27277,58,63,41
258.28873,258.60788,58,63,41
258.60788,258.91107,55,63,41
258.92703,259.2462,53,63,41
259.2462,259.54938,58,63,41
259.5653,259.88446,58,63,41
259.88446,260.18765,62,63,41
260.2036,260.52277,62,63,41
260.52277,260.82596,53,63,41
260.84192,261.16107,53,63,41
261.16107,261.46426,58,63,41
261.48022,261.79938,58,63,41
261.79938,262.10257,62,63,41
262.1185,262.43765,62,63,41
262.43765,262.74084,53,63,41
262.7568,263.07596,55,63,41
263.07596,263.37915,58,63,41
263.3951,263.71426,58,63,41
263.71426,264.01746,60,63,41
264.03342,264.35257,60,63,41
264.35257,264.65576,58,63,41
264.6717,264.99084,58,63,41
264.99084,265.29404,60,63,41
265.31,265.62915,60,63,41
265.62915,265.93234,58,63,41
265.9483,266.26746,58,63,41
266.26746,266.57065,55,63,41
266.5866,266.90576,55,63,41
266.90576,267.16107,58,63,41
267.22488,267.54404,58,63,41
267.54404,267.79938,55,63,41
267.8632,268.18234,55,63,41
268.18234,268.43765,58,63,41
268.5015,268.82065,58,63,41
268.82065,269.07596,55,63,41
269.1398,269.45895,55,63,41
269.45895,269.71426,58,63,41
269.77808,270.09723,58,63,41
270.09723,270.35257,55,63,41
270.41638,270.73553,53,63,41
270.73553,270.99084,57,63,41
271.0547,271.37384,57,63,41
271.37384,271.62915,62,63,41
271.693,272.01215,62,63,41
272.01215,272.26746,57,63,41
272.33127,272.65042,53,70,41
272.65042,272.90576,57,70,41
272.96957,273.28873,57,70,41
273.28873,273.54404,62,70,41
273.60788,273.92703,62,70,41
273.92703,274.18234,57,70,41
274.2462,274.56534,50,70,41
274.56534,274.82065,55,70,41
274.88446,275.2036,57,70,41
275.2036,275.45895,62,70,41
275.52277,275.83527,62,70,41
275.83527,276.08527,57,70,41
276.14777,276.46027,50,80,41
276.46027,276.71027,55,80,41
276.77277,277.08527,57,80,41
277.08527,277.33527,62,80,41
277.39777,277.71027,62,80,41
277.71027,277.96027,57,80,41
278.02277,278.34192,58,80,41
278.34192,278.59723,62,80,41
278.66107,278.98022,62,80,41
278.98022,279.23553,58,80,41
279.29938,279.62546,58,80,41
279.62546,279.88632,62,80,41
279.95154,280.27762,62,92,41
280.27762,280.5385,59,92,41
280.60373,280.93704,59,92,41
280.93704,281.2037,62,92,41
281.2704,281.60373,62,92,41
281.60373,281.8704,59,92,41
281.93704,282.2562,62,112,41
282.2562,282.5115,65,92,41
282.57535,282.8945,65,92,41
282.8945,283.1498,69,92,41
283.21365,283.5328,69,92,41
283.5328,283.78812,65,92,41
283.85193,284.17108,57,92,41
284.17108,284.42642,65,92,41
284.49023,284.8094,65,92,41
284.8094,285.0647,69,92,41
285.12854,285.4477,69,92,41
285.4477,285.703,65,92,41
285.76685,286.086,62,112,41
286.086,286.3413,65,92,41
286.40512,286.72427,65,92,41
286.72427,286.9796,69,92,41
287.04343,287.36258,69,92,41
287.36258,287.6179,65,92,41
287.68173,288.0009,57,92,41
288.0009,288.2562,65,92,41
288.32004,288.6392,65,92,41
288.6392,288.8945,69,92,41
288.9583,289.27747,69,92,41
289.27747,289.5328,65,92,41
289.59662,289.91577,62,112,41
289.91577,290.17108,65,92,41
290.23492,290.55408,65,92,41
290.55408,290.8094,69,92,41
290.87323,291.19238,69,92,41
291.19238,291.4477,65,92,41
291.5115,291.83066,57,92,41
291.83066,292.086,65,92,41
292.1498,292.46896,65,92,41
292.46896,292.72427,74,92,41
292.78812,293.10727,74,92,41
293.10727,293.36258,65,92,41
293.42642,293.74557,62,92,41
293.74557,294.0009,65,92,41
294.0647,294.38385,65,92,41
294.38385,294.6392,69,92,41
294.703,295.02216,69,92,41
295.02216,295.27747,65,80,41
295.3413,295.66046,60,80,41
295.66046,295.91577,65,80,41
295.9796,296.29877,65,80,41
296.29877,296.55408,60,80,41
296.6179,296.93704,60,80,41
296.93704,297.19238,65,80,41
297.2562,297.57535,53,80,41
297.57535,297.83066,57,80,41
297.8945,298.21365,57,80,41
298.21365,298.46896,62,80,41
298.5328,298.85196,62,80,41
298.85196,299.10727,57,80,41
299.17108,299.49023,53,70,41
299.49023,299.74557,59,70,41
299.8094,300.12854,59,70,41
300.12854,300.38385,62,70,41
300.4477,300.76685,62,70,41
300.76685,301.02216,59,70,41
301.086,301.40515,53,70,41
301.40515,301.66046,57,70,41
301.72427,302.04343,57,70,41
302.04343,302.29877,60,70,41
302.36258,302.68173,60,70,41
302.68173,302.93704,57,70,41
303.0009,303.32004,53,63,41
303.32004,303.57535,55,63,41
303.6392,303.95834,55,63,41
303.95834,304.21365,62,63,41
304.27747,304.59662,62,63,41
304.59662,304.85196,55,63,41
304.91577,305.23492,53,63,41
305.23492,305.49023,57,63,41
305.55408,305.87323,57,63,41
305.87323,306.12854,60,63,41
306.19238,306.51154,60,63,41
306.51154,306.76685,57,63,41
306.83066,307.1498,53,63,41
307.1498,307.40515,59,63,41
307.46896,307.78812,59,63,41
307.78812,308.04343,53,63,41
308.10727,308.42642,53,63,41
308.42642,308.68173,59,63,41
308.74557,309.06473,53,63,41
309.06473,309.32004,57,63,41
309.38385,309.70996,57,63,41
309.70996,309.97083,60,63,41
310.03604,310.37695,60,63,41
310.37695,310.64966,57,63,41
310.71786,311.075,57,63,41
311.075,311.36072,61,63,41
311.43213,311.798,61,63,41
311.798,312.09067,57,63,41
312.16385,312.54846,57,63,41
312.54846,312.85617,49,63,41
312.93307,313.37625,50,63,41
313.6149,314.05807,50,63,41
317.024,317.46716,50,63,41
317.7058,318.149,50,63,41
321.1149,321.55807,50,63,41
321.79672,322.2399,50,63,41
325.2058,325.649,50,63,41
325.88763,326.3308,50,63,41
329.29672,329.7399,50,63,41
329.97852,330.42172,50,63,41
333.3876,333.8308,50,63,41
334.06943,334.5126,50,63,41
337.47852,339.524,50,103,41
339.524,341.52966,49,63,41
341.56943,343.63074,48,70,41
343.63074,345.68307,49,63,41
345.72375,345.79196,50,63,41
345.809,345.87717,50,63,41
345.89423,345.9624,50,63,41
345.97946,346.04764,50,63,41
346.06467,346.13287,50,63,41
346.1499,346.21808,50,63,41
346.23514,346.3033,50,63,41
346.32037,346.38855,50,63,41
346.40558,346.47375,50,63,41
346.4908,346.559,50,63,41
346.57605,346.64423,50,63,41
346.66125,346.72946,50,63,41
346.7465,346.81467,50,63,41
346.83173,346.8999,50,63,41
346.91696,346.98514,50,63,41
347.00217,347.07037,50,63,41
347.0874,347.15558,50,63,41
347.17264,347.2408,50,63,41
347.25787,347.32605,50,63,41
347.34308,347.41125,50,63,41
347.4283,347.4965,50,63,41
347.51355,347.58173,50,63,41
347.59875,347.66696,50,63,41
347.684,347.75217,50,63,41
347.76923,347.8374,55,63,41
347.85446,347.92264,55,63,41
347.93967,348.00787,55,63,41
348.0249,348.09308,55,63,41
348.11014,348.1783,55,63,41
348.19537,348.26355,55,63,41
348.28058,348.34875,55,63,41
348.3658,348.434,55,63,41
348.45105,348.51923,55,63,41
348.53625,348.60446,55,63,41
348.6215,348.68967,55,63,41
348.70673,348.7749,55,63,41
348.79196,348.86014,55,63,41
348.87717,348.94537,55,63,41
348.9624,349.03058,55,63,41
349.04764,349.1158,55,63,41
349.13287,349.20105,55,63,41
349.21808,349.28625,55,63,41
349.3033,349.3715,55,63,41
349.38855,349.45673,55,63,41
349.47375,349.54196,55,63,41
349.559,349.62717,55,63,41
349.64423,349.7124,55,63,41
349.72946,349.79764,55,63,41
349.81467,349.88287,50,63,41
349.8999,349.96808,50,63,41
349.98514,350.0533,50,63,41
350.07034,350.13855,50,63,41
350.15558,350.22375,50,63,41
350.2408,350.309,50,63,41
350.32605,350.39423,50,63,41
350.41125,350.47946,50,63,41
350.4965,350.56467,50,63,41
350.58173,350.6499,50,63,41
350.66696,350.73514,50,63,41
350.75217,350.82034,50,63,41
350.8374,350.90558,50,63,41
350.92264,350.9908,50,63,41
351.00784,351.07605,50,63,41
351.09308,351.16125,50,63,41
351.1783,351.2465,50,63,41
351.26355,351.33173,50,63,41
351.34875,351.41696,50,63,41
351.434,351.50217,50,63,41
351.51923,351.5874,50,63,41
351.60446,351.67264,50,63,41
351.68967,351.75784,50,63,41
351.7749,351.84308,50,63,41
351.86014,351.9283,55,63,41
351.94534,352.01355,55,63,41
352.03058,352.09875,55,63,41
352.1158,352.184,55,63,41
352.20105,352.26923,55,63,41
352.28625,352.35446,55,63,41
352.3715,352.43967,55,63,41
352.45673,352.5249,55,63,41
352.54196,352.61014,55,63,41
352.62717,352.69534,55,63,41
352.7124,352.78058,55,63,41
352.79764,352.8658,55,63,41
352.88284,352.95105,55,63,41
352.96808,353.03625,55,63,41
353.0533,353.1215,55,63,41
353.13855,353.20673,55,63,41
353.22375,353.29196,55,63,41
353.309,353.37717,55,63,41
353.39423,353.4624,55,63,41
353.47946,353.54764,55,63,41
353.56467,353.63284,55,63,41
353.6499,353.71808,55,63,41
353.73514,353.8033,55,63,41
353.82034,353.88855,55,63,41
353.90558,353.97375,50,63,41
353.9908,354.059,50,63,41
354.07605,354.14423,50,63,41
354.16125,354.22946,50,63,41
354.2465,354.31467,50,63,41
354.33173,354.3999,50,63,41
354.41696,354.48514,50,63,41
354.50217,354.57034,50,63,41
354.5874,354.65558,50,63,41
354.67264,354.7408,50,63,41
354.75784,354.82605,50,63,41
354.84308,354.91125,50,63,41
354.9283,354.9965,50,63,41
355.01355,355.08173,50,63,41
355.09875,355.16696,50,63,41
355.184,355.25217,50,63,41
355.26923,355.3374,50,63,41
355.35446,355.42264,50,63,41
355.43967,355.50784,50,63,41
355.5249,355.59308,50,63,41
355.61014,355.6783,50,63,41
355.69534,355.76355,50,63,41
355.78058,355.84875,50,63,41
355.8658,355.934,50,70,41
355.95105,356.01923,50,70,41
356.03625,356.10446,50,70,41
356.1215,356.18967,50,70,41
356.20673,356.2749,50,70,41
356.29196,356.36014,50,70,41
356.37717,356.44534,50,70,41
356.4624,356.53058,50,70,41
356.54764,356.6158,50,70,41
356.63284,356.70105,50,70,41
356.71808,356.78625,50,80,41
356.8033,356.8715,50,80,41
356.88855,356.95673,50,80,41
356.97375,357.04196,50,80,41
357.059,357.12717,50,80,41
357.14423,357.2124,50,80,41
357.22946,357.29764,50,80,41
357.31467,357.38284,50,80,41
357.3999,357.46808,50,80,41
357.48514,357.5533,50,80,41
357.57034,357.63855,50,80,41
357.65558,357.72375,50,80,41
357.7408,357.809,50,80,41
357.82605,357.89423,50,80,41
357.91125,357.97946,50,80,41
357.9965,358.06467,50,80,41
358.08173,358.1499,50,80,41
358.16696,358.23514,50,80,41
358.25217,358.32034,50,80,41
358.3374,358.40558,50,80,41
358.42264,358.4908,50,80,41
358.50784,358.57605,50,80,41
358.59308,358.66125,50,80,41
358.6783,358.7465,50,80,41
358.76355,358.83173,50,70,41
358.84875,358.91696,50,70,41
358.934,359.00217,50,70,41
359.01923,359.0874,50,70,41
359.10446,359.17264,50,70,41
359.18967,359.25784,50,70,41
359.2749,359.34308,50,70,41
359.36014,359.4283,50,70,41
359.44534,359.51355,50,70,41
359.53058,359.59875,50,70,41
359.6158,359.684,50,70,41
359.70105,359.76923,50,70,41
359.78625,359.85446,50,70,41
359.8715,359.93967,50,70,41
359.95673,360.0249,50,63,41
360.04196,360.11014,50,63,41
360.12717,360.19534,50,63,41
360.2124,360.28058,50,63,41
360.29764,360.3658,50,63,41
360.38284,360.45105,50,63,41
360.46808,360.53625,50,63,41
360.5533,360.6215,50,63,41
360.63855,360.70673,50,63,41
360.72375,360.79193,50,63,41
360.809,360.87717,50,63,41
360.89423,360.9624,50,63,41
360.97943,361.04764,50,63,41
361.06467,361.13284,50,63,41
361.1499,361.21808,50,63,41
361.23514,361.3033,50,63,41
361.32034,361.38855,50,63,41
361.40558,361.47375,50,63,41
361.4908,361.559,50,63,41
361.57605,361.64423,50,63,41
361.66125,361.72943,50,63,41
361.7465,361.81467,50,63,41
361.83173,361.8999,50,63,41
361.91693,361.98514,50,63,41
362.00217,362.07034,50,63,41
362.0874,362.15558,50,63,41
362.17264,362.2408,50,63,41
362.25784,362.32605,50,63,41
362.34308,362.41125,50,63,41
362.4283,362.4965,50,63,41
362.51355,362.58173,50,63,41
362.59875,362.66693,50,63,41
362.684,362.75217,50,63,41
362.76923,362.8374,50,63,41
362.85443,362.92264,50,63,41
362.93967,363.00784,50,63,41
363.0249,363.09308,50,63,41
363.11014,363.1783,50,63,41
363.19534,363.26355,50,63,41
363.28058,363.34875,50,63,41
363.3658,363.434,50,63,41
363.45105,363.51923,50,63,41
363.53625,363.60443,50,63,41
363.6215,363.68967,50,63,41
363.70673,363.7749,50,63,41
363.79193,363.86014,50,63,41
363.87717,363.94534,50,63,41
363.9624,364.03058,50,63,41
364.04764,364.1158,50,63,41
364.13284,364.20264,50,63,41
364.22006,364.28983,50,63,41
364.30728,364.37704,50,63,41
364.39447,364.46426,50,63,41
364.4817,364.55145,50,63,41
364.5689,364.63867,50,63,41
364.6561,364.7259,50,63,41
364.74332,364.81308,50,63,41
364.83054,364.9003,50,63,41
364.91772,364.98752,50,63,41
365.00494,365.0747,50,63,41
365.09216,365.16193,50,63,41
365.17935,365.24915,50,63,41
365.26657,365.33633,50,63,41
365.3538,365.42355,50,63,41
365.44098,365.51077,50,63,41
365.5282,365.59796,50,63,41
365.61542,365.68518,50,63,41
365.70264,365.7724,50,63,41
365.78983,365.8596,50,63,41
365.87704,365.9468,50,63,41
365.96426,366.03403,50,63,41
366.05145,366.12122,50,63,41
366.13867,366.20844,50,63,41
366.2259,366.92355,50,63,41
366.92355,367.62122,49,63,41
367.62122,368.3355,50,63,41
368.3355,369.0498,49,63,41
369.0498,369.7815,50,63,41
369.7815,370.501,49,63,41
370.5132,371.2632,50,63,41
371.2632,372.03244,49,63,41
372.03244,372.82248,50,63,41
372.82248,373.63327,49,63,41
373.63327,374.4666,50,63,41
374.4666,375.52612,49,63,41
375.74042,382.0195,50,63,41
40.229,42.75028,69,70,42
42.782192,43.42049,67,70,42
43.42049,43.73964,65,80,42
43.73964,44.04283,62,80,42
44.05879,46.276875,62,80,42
46.29283,46.596024,57,80,42
46.61198,46.93113,57,80,42
46.93113,47.23432,62,92,42
47.25028,47.569427,62,92,42
47.569427,47.87262,64,92,42
47.888577,49.165173,65,80,42
49.165173,49.771557,62,80,42
49.80347,49.88326,60,80,42
49.88326,49.963043,62,80,42
49.963043,50.04283,60,80,42
50.04283,50.12262,62,80,42
50.12262,51.032196,60,70,42
51.080067,51.399216,57,70,42
51.399216,51.702408,60,70,42
51.718365,53.537514,62,70,42
54.271557,54.43113,62,80,42
54.43113,54.590706,57,80,42
54.590706,54.75028,58,80,42
54.75028,54.909855,60,80,42
54.909855,55.01624,62,92,42
55.01624,55.12262,64,92,42
55.12262,55.229004,65,92,42
55.229004,55.388577,67,92,42
55.388577,55.51624,68,92,42
55.548153,56.18645,69,110,42
56.18645,58.101345,69,70,42
58.101345,58.739643,67,70,42
58.739643,59.058792,65,70,42
59.058792,59.361984,62,70,42
59.37794,61.596027,62,70,42
61.611984,61.915176,57,70,42
61.931133,62.250282,57,70,42
62.250282,62.553474,62,80,42
62.56943,62.88858,64,80,42
62.88858,63.191772,65,80,42
63.20773,64.48432,67,80,42
64.48432,64.803474,65,92,42
64.803474,65.10667,64,92,42
65.12262,66.33539,64,92,42
66.399216,66.611984,64,92,42
66.611984,66.82475,60,92,42
66.82475,67.02688,57,92,42
67.03751,68.95241,60,80,42
68.95241,69.47415,60,63,42
70.92342,71.43407,49,63,42
116.96537,118.24197,67,63,42
118.24197,118.56111,65,70,42
118.56111,118.8643,64,70,42
118.880264,120.09303,67,70,42
120.15686,120.36963,65,80,42
120.36963,120.58239,69,80,42
120.58239,120.78452,64,80,42
120.79516,123.31644,67,80,42
123.98665,124.59303,67,80,42
124.62495,125.90154,67,80,42
125.90154,126.22069,65,80,42
126.22069,126.52388,64,80,42
126.53984,127.75261,67,92,42
127.81644,127.97601,65,92,42
127.97601,128.13026,69,92,42
128.13559,128.29517,69,92,42
128.29517,128.44942,64,92,42
128.45473,130.97601,67,92,42
131.00792,132.22069,68,105,42
132.28452,132.92282,69,116,42
132.92282,133.5292,72,116,42
133.56111,133.88026,70,116,42
133.88026,134.18346,69,116,42
134.19942,134.8377,67,116,42
134.8377,135.47601,65,116,42
135.47601,136.0824,62,116,42
136.1143,138.3324,62,116,42
138.34836,138.65155,57,105,42
138.6675,138.98665,57,105,42
138.98665,139.28984,62,105,42
139.3058,139.62495,64,92,42
139.62495,139.92815,65,92,42
139.94409,142.16219,69,92,42
142.17815,142.48134,65,92,42
142.49728,142.81644,65,92,42
142.81644,143.11963,67,105,42
143.13559,143.45474,69,105,42
143.45474,143.75793,72,105,42
143.77388,145.59303,72,125,42
145.68878,146.32707,74,116,42
146.32707,146.96538,79,127,42
146.96538,147.57176,70,127,42
147.60367,147.92282,70,127,42
147.92282,148.24197,69,116,42
148.24197,149.82176,72,116,42
149.83772,150.15686,70,105,42
150.15686,150.47601,67,105,42
150.47601,150.7792,63,105,42
150.79517,151.11432,67,92,42
151.11432,151.41751,70,92,42
151.43346,153.28984,69,92,42
153.34836,153.98665,67,80,42
153.98665,154.62495,65,80,42
154.62495,155.24197,62,80,42
155.26324,156.859,60,80,42
156.859,157.16751,69,80,42
157.17815,159.03453,69,70,42
159.09303,161.65224,69,63,42
312.93307,315.63763,69,80,42
315.66034,316.34216,67,80,42
316.34216,316.68307,65,80,42
316.68307,317.01263,62,80,42
317.024,319.399,62,80,42
319.41034,319.7399,57,80,42
319.75125,320.09216,57,80,42
320.09216,320.42172,62,80,42
320.43307,320.774,62,80,42
320.774,321.10352,64,80,42
321.1149,322.47852,65,70,42
322.47852,323.13763,62,70,42
323.16034,323.24557,60,70,42
323.24557,323.3308,62,70,42
323.3308,323.41602,60,70,42
323.41602,323.50125,62,70,42
323.50125,324.524,60,70,42
324.524,324.8649,57,70,42
324.8649,325.19443,60,70,42
325.2058,327.79672,62,70,42
327.93307,328.10352,62,70,42
328.10352,328.274,57,70,42
328.274,328.44443,58,70,42
328.44443,328.6149,60,80,42
328.6149,328.72852,62,80,42
328.72852,328.84216,64,80,42
328.84216,328.9558,65,92,42
328.9558,329.12625,67,92,42
329.12625,329.29672,68,92,42
329.29672,332.00125,69,80,42
332.024,332.7058,67,80,42
332.7058,333.04672,65,80,42
333.04672,333.37625,62,80,42
333.3876,335.7626,62,80,42
335.774,336.10352,57,80,42
336.1149,336.4558,57,92,42
336.4558,336.78534,62,92,42
336.79672,337.1376,62,116,42
337.1376,337.46716,64,116,42
337.47852,341.56943,65,105,42
341.56943,344.3168,65,80,42
344.32843,345.0261,64,70,42
345.0261,345.71213,63,70,42
345.72375,348.43967,62,70,42
348.45105,349.13287,60,70,42
349.13287,349.47375,58,70,42
349.47375,349.809,60,70,42
349.81467,352.53058,62,70,42
352.54196,353.22375,60,70,42
353.22375,353.56467,58,70,42
353.56467,353.8999,60,70,42
353.90558,356.6215,62,70,42
356.63284,357.31467,57,80,42
357.31467,357.65558,55,92,42
357.65558,357.9908,53,92,42
357.9965,360.7124,50,80,42
360.72375,361.40558,45,70,42
361.40558,361.7465,43,70,42
361.7465,362.08173,41,70,42
362.0874,362.76923,38,70,42
362.76923,363.45105,45,70,42
363.45105,363.79193,43,70,42
363.79193,364.12717,41,70,42
364.13284,364.83054,38,63,42
364.83054,365.5282,45,63,42
365.5282,365.87704,43,63,42
365.87704,366.22006,41,63,42
366.2259,375.48328,38,63,42
375.74042,382.0195,38,38,42
314.97855,315.42172,74,38,45
314.97855,315.42172,65,38,45
315.66034,316.10355,65,38,45
315.66034,316.10355,74,38,45
319.06943,319.51263,65,38,45
319.06943,319.51263,69,38,45
319.75125,320.19443,69,38,45
319.75125,320.19443,65,38,45
323.16034,323.60352,69,38,45
323.16034,323.60352,65,38,45
323.84216,324.28534,69,38,45
323.84216,324.28534,65,38,45
327.25125,327.69443,69,38,45
327.25125,327.69443,65,38,45
327.93307,328.37625,65,38,45
327.93307,328.37625,69,38,45
331.34216,331.78534,65,38,45
331.34216,331.78534,57,38,45
332.024,332.46716,57,38,45
332.024,332.46716,65,38,45
335.43307,335.87625,65,38,45
335.43307,335.87625,57,38,45
336.1149,336.55807,57,38,45
336.1149,336.55807,65,38,45
345.72375,346.26923,65,63,45
346.40558,346.95105,65,63,45
347.76923,348.31467,65,63,45
348.45105,348.9965,64,63,45
349.81467,350.36014,65,63,45
350.4965,351.04196,65,63,45
351.86014,352.40558,65,63,45
352.54196,353.0874,64,63,45
353.90558,354.45105,65,63,45
354.5874,355.13284,65,63,45
355.95105,356.4965,65,63,45
356.63284,357.1783,65,70,45
357.9965,358.54196,65,70,45
358.6783,359.22375,65,63,45
360.04196,360.5874,65,63,45
360.72375,361.26923,65,63,45
362.0874,362.63284,65,63,45
362.76923,363.31467,65,63,45
364.13284,364.69098,65,63,45
364.83054,365.38867,65,63,45
366.2259,367.34216,65,63,45
368.3355,369.48883,65,63,45
370.5132,371.72476,65,63,45
372.82248,374.13327,65,38,45
314.97855,315.42172,57,38,45
314.97855,315.42172,69,38,45
315.66034,316.10355,57,38,45
315.66034,316.10355,69,38,45
319.06943,319.51263,65,38,45
319.06943,319.51263,57,38,45
319.75125,320.19443,57,38,45
319.75125,320.19443,65,38,45
323.16034,323.60352,65,38,45
323.16034,323.60352,57,38,45
323.84216,324.28534,65,38,45
323.84216,324.28534,57,38,45
327.25125,327.69443,57,38,45
327.25125,327.69443,65,38,45
327.93307,328.37625,57,38,45
327.93307,328.37625,65,38,45
331.34216,331.78534,62,38,45
331.34216,331.78534,57,38,45
332.024,332.46716,57,38,45
332.024,332.46716,62,38,45
335.43307,335.87625,62,38,45
335.43307,335.87625,57,38,45
336.1149,336.55807,62,38,45
336.1149,336.55807,57,38,45
345.72375,346.26923,57,63,45
346.40558,346.95105,57,63,45
347.76923,348.31467,58,63,45
348.45105,348.9965,58,63,45
349.81467,350.36014,57,63,45
350.4965,351.04196,57,63,45
351.86014,352.40558,58,63,45
352.54196,353.0874,58,63,45
353.90558,354.45105,57,63,45
354.5874,355.13284,57,63,45
355.95105,356.4965,57,63,45
356.63284,357.1783,57,70,45
357.9965,358.54196,57,70,45
358.6783,359.22375,57,63,45
360.04196,360.5874,57,63,45
360.72375,361.26923,57,63,45
362.0874,362.63284,57,63,45
362.76923,363.31467,57,63,45
364.13284,364.69098,57,63,45
364.83054,365.38867,57,63,45
366.2259,367.34216,57,63,45
368.3355,369.48883,57,63,45
370.5132,371.72476,57,63,45
372.82248,374.13327,57,38,45
384.11252,387.46136,62,1,45
40.229,40.73964,50,63,45
42.143894,42.654533,50,63,45
44.05879,44.569427,50,63,45
44.05879,44.569427,57,63,45
45.973682,46.48432,50,63,45
47.888577,48.399216,50,63,45
49.80347,50.31411,57,63,45
51.718365,52.229004,50,63,45
53.63326,54.143898,50,70,45
55.548153,56.058792,50,90,45
57.463047,57.973686,50,63,45
59.37794,59.88858,50,63,45
61.292835,61.803474,50,70,45
63.20773,63.71837,48,80,45
65.12262,65.63326,55,80,45
65.12262,65.63326,48,80,45
67.03751,67.54816,48,70,45
67.03751,67.54816,55,80,45
68.95241,69.47415,48,63,45
68.95241,69.47415,55,63,45
314.97855,315.42172,50,38,45
315.66034,316.10355,50,38,45
319.06943,319.51263,50,38,45
319.75125,320.19443,50,38,45
323.16034,323.60352,57,38,45
323.84216,324.28534,57,38,45
327.25125,327.69443,50,38,45
327.93307,328.37625,50,38,45
331.34216,331.78534,50,38,45
332.024,332.46716,50,38,45
335.43307,335.87625,50,38,45
336.1149,336.55807,50,38,45
1.875,2.3856385,50,80,45
3.789894,4.3005323,50,70,45
5.704788,6.2154264,50,70,45
7.619682,8.130321,50,70,45
9.534576,10.045215,50,70,45
11.44947,11.960109,50,70,45
13.364364,13.875003,50,70,45
13.364364,13.875003,57,70,45
15.279258,15.789896,50,70,45
17.194153,17.70479,57,70,45
17.194153,17.70479,50,70,45
19.109047,19.619684,45,70,45
21.02394,21.534578,50,70,45
21.02394,21.534578,57,70,45
22.938833,23.449472,57,70,45
22.938833,23.449472,50,70,45
24.853727,25.364367,50,90,45
26.768621,27.27926,50,70,45
28.683516,29.194155,57,70,45
28.683516,29.194155,50,70,45
30.59841,31.109049,50,80,45
32.513306,33.02394,48,92,45
34.4282,34.938835,36,92,45
34.4282,34.938835,43,92,45
36.343094,36.85373,36,80,45
36.343094,36.85373,43,80,45
38.257984,38.779724,48,70,45
72.83832,73.34896,49,63,45
74.75321,75.263855,49,63,45
76.668106,77.17875,49,63,45
78.583,79.09364,49,63,45
80.497894,81.00853,49,63,45
82.41279,82.92342,49,63,45
84.32768,84.83832,49,92,45
85.60428,86.114914,49,105,45
86.24258,86.75321,53,105,45
86.880875,87.39151,41,105,45
88.15747,88.668106,46,105,45
89.43407,89.9447,46,80,45
90.072365,90.583,50,63,45
91.34896,91.8596,50,63,45
91.98726,92.497894,47,63,45
93.263855,93.77449,47,63,45
93.90215,94.41279,48,63,45
95.17875,95.689384,49,63,45
95.81705,96.32768,50,70,45
97.09364,97.60428,51,70,45
97.73194,98.24258,52,80,45
99.646835,100.15747,52,80,45
100.92343,101.43407,52,92,45
101.56173,102.072365,53,105,45
103.47662,103.98726,55,92,45
105.39152,105.90215,57,80,45
107.30641,107.81705,59,70,45
108.58301,109.09364,59,70,45
109.221306,109.73194,60,70,45
110.4979,111.00854,60,70,45
111.1362,111.646835,60,70,45
112.412796,112.92343,60,63,45
113.051094,113.56173,53,63,45
114.32769,114.84943,48,63,45
115.632034,116.16537,41,63,45
163.00731,163.51796,50,80,45
164.93608,165.46942,50,80,45
166.26942,166.54214,50,92,45
166.61032,166.88306,54,92,45
166.95123,167.46187,48,105,45
168.86613,169.37677,48,80,45
170.78102,171.29166,50,70,45
172.7098,173.24313,50,70,45
174.04312,174.31586,50,92,45
174.38403,174.65677,54,92,45
174.72495,175.24669,48,112,45
176.66759,177.17822,48,80,45
178.58249,179.09312,46,70,45
180.49738,181.00801,46,80,45
182.41228,182.92291,51,105,45
184.32716,184.8378,51,80,45
186.24207,186.7527,46,63,45
188.15695,188.66759,46,63,45
190.07185,190.58249,51,63,45
191.98674,192.49738,51,63,45
193.90164,194.41228,51,63,45
195.81653,196.31653,49,63,45
197.69153,198.19153,50,70,45
199.56653,200.06653,50,70,45
200.19153,200.69153,45,80,45
200.81653,201.31653,41,80,45
201.44153,201.92152,46,80,45
202.04153,202.52153,41,80,45
202.64153,203.12154,53,80,45
203.24153,203.72153,46,92,45
203.84154,204.32153,41,92,45
204.44153,204.92152,53,92,45
205.04153,205.54153,41,92,45
205.66653,206.16653,53,92,45
206.91653,207.42717,47,105,45
207.55482,208.06546,59,105,45
208.83142,209.34206,48,116,45
208.83142,209.34206,36,116,45
210.74632,211.25696,36,116,45
210.74632,211.25696,48,116,45
212.66121,213.17184,48,116,45
212.66121,213.17184,36,116,45
214.57611,215.08675,48,116,45
214.57611,215.08675,36,116,45
216.491,217.00163,36,116,45
216.491,217.00163,48,116,45
218.4059,218.91653,36,92,45
218.4059,218.91653,48,92,45
220.32079,220.83142,48,92,45
222.23569,222.74632,48,80,45
224.15057,224.66121,48,80,45
226.06548,226.57611,45,70,45
227.98036,228.491,43,70,45
229.89526,230.4059,41,63,45
231.81015,232.32079,48,63,45
233.73892,234.26067,45,63,45
235.72443,236.23506,50,63,45
237.63933,238.16106,50,63,45
238.94366,239.20454,50,80,45
239.26976,239.53062,54,80,45
239.59584,240.11758,48,100,45
241.5385,242.04913,48,70,45
243.45338,243.96402,50,63,45
245.38216,245.9039,50,80,45
246.701,246.96767,50,92,45
247.03433,247.301,54,92,45
247.36766,247.901,48,112,45
249.33868,249.86041,48,116,45
251.26744,251.77809,46,116,45
253.18234,253.69298,46,116,45
255.09723,255.60788,51,116,45
257.01212,257.52277,51,80,45
258.92703,259.43765,46,63,45
260.84192,261.35257,46,63,45
262.7568,263.26746,51,63,45
264.6717,265.18234,51,63,45
266.5866,267.09723,51,63,45
268.5015,269.01215,49,63,45
270.41638,270.92703,50,70,45
272.33127,272.84192,50,70,45
272.96957,273.48022,45,80,45
273.60788,274.11853,41,80,45
274.2462,274.88446,46,80,45
274.88446,275.3951,41,80,45
275.52277,276.02277,53,80,45
276.14777,276.77277,46,92,45
276.77277,277.27277,41,92,45
277.39777,277.89777,53,92,45
278.02277,278.53342,46,92,45
278.66107,279.17172,58,92,45
279.95154,280.47327,40,105,45
280.60373,281.13705,52,105,45
281.93704,282.4477,41,105,45
283.85193,284.36258,53,105,45
285.76685,286.27747,41,105,45
287.68173,288.19238,53,105,45
289.59662,290.10727,41,105,45
291.5115,292.02216,53,92,45
293.42642,293.93704,41,92,45
295.3413,295.85196,53,80,45
297.2562,297.76685,50,80,45
299.17108,299.68173,43,70,45
301.086,301.59662,45,70,45
303.0009,303.51154,47,70,45
304.27747,304.78812,47,63,45
304.91577,305.42642,48,63,45
306.83066,307.3413,49,63,45
308.74557,309.2562,48,63,45
310.71786,311.28928,49,63,45
312.16385,312.77924,45,63,45
