start_time,end_time,note_value,velocity,instrument_program_number
3.964755,4.7180586,72,63,40
4.757706,5.511009,72,63,40
5.550657,6.594709,72,63,40
7.136559,7.2422857,84,105,40
7.400876,7.718056,89,125,40
7.7973514,7.903078,86,105,40
7.92951,8.035236,84,105,40
8.061668,8.167396,86,105,40
8.193827,8.405281,89,105,40
8.722461,8.828188,84,105,40
8.986778,9.303958,89,125,40
9.383253,9.48898,86,105,40
9.515412,9.621139,84,105,40
9.647571,9.753297,86,105,40
9.779729,9.991182,81,105,40
10.308363,11.0616665,84,63,40
11.101314,11.854617,84,63,40
11.894265,12.938317,84,63,40
13.480167,13.585894,84,116,40
13.612326,13.718052,86,116,40
13.744484,13.955937,89,116,40
15.066069,15.171796,72,112,40
15.198228,15.303954,74,92,40
15.330386,15.54184,77,92,40
16.651972,16.916288,93,70,40
16.916288,17.175098,89,70,40
17.312763,17.442719,84,70,40
17.444921,17.709238,84,70,40
17.709238,17.841398,91,70,40
17.841398,17.971354,89,70,40
18.105715,18.23567,93,70,40
18.237873,18.50219,93,70,40
18.50219,18.761,89,70,40
18.766506,18.898666,88,70,40
18.898666,19.030825,86,70,40
19.030825,19.289635,89,70,40
19.823774,20.088093,93,70,40
20.088093,20.346903,89,70,40
20.484568,20.614523,84,70,40
20.616726,20.881042,84,70,40
20.881042,21.0132,91,70,40
21.0132,21.143158,89,70,40
21.27752,21.407475,93,70,40
21.409678,21.673994,93,70,40
21.673994,21.932804,89,70,40
21.93831,22.070469,88,70,40
22.070469,22.202627,86,70,40
22.202627,22.46144,89,70,40
23.259895,23.339191,74,63,40
23.259895,23.339191,81,63,40
23.392054,23.47135,81,63,40
23.392054,23.47135,74,63,40
23.524214,23.603508,81,63,40
23.524214,23.603508,74,63,40
24.052847,24.132143,65,63,40
24.052847,24.132143,72,63,40
24.185005,24.264301,65,63,40
24.185005,24.264301,72,63,40
24.317163,24.39646,72,70,40
24.317163,24.39646,65,70,40
26.4317,26.510996,84,116,40
26.563858,26.643154,86,116,40
26.696016,26.960335,89,116,40
27.224651,27.303946,84,116,40
27.35681,27.436104,86,116,40
27.488968,27.753284,89,116,40
28.017603,28.096897,84,116,40
28.149761,28.229055,86,116,40
28.28192,28.546236,89,116,40
28.810553,28.889849,84,116,40
28.94271,29.022007,86,116,40
29.07487,29.339188,89,116,40
29.603504,29.682798,84,116,40
29.735662,29.814957,86,116,40
29.86782,30.132137,89,116,40
30.396456,30.47575,84,116,40
30.528614,30.607908,86,116,40
30.660772,30.925089,89,116,40
31.189405,31.321564,84,116,40
31.321564,31.453724,86,116,40
31.453724,31.665176,82,116,40
31.71804,31.91804,81,116,40
32.051373,32.251373,77,116,40
32.71804,33.102654,72,92,40
33.102654,33.679577,77,92,40
33.679577,33.86227,74,92,40
33.871883,34.06419,72,92,40
34.06419,34.2565,74,92,40
34.2565,34.621883,77,92,40
35.02573,35.410343,72,92,40
35.410343,35.987267,77,92,40
35.987267,36.16996,74,92,40
36.179573,36.371883,72,92,40
36.371883,36.56419,74,92,40
36.56419,36.929573,69,92,40
37.33342,37.429573,72,63,40
37.429573,37.525726,74,63,40
37.525726,37.62188,72,63,40
37.62188,37.718033,74,63,40
37.718033,37.81672,72,63,40
37.81672,37.9154,74,63,40
37.9154,38.014088,72,63,40
38.014088,38.11277,74,63,40
38.11277,38.214123,72,63,40
38.214123,38.31547,74,63,40
38.31547,38.416824,72,63,40
38.416824,38.518177,74,63,40
38.518177,38.62234,72,63,40
38.62234,38.72651,74,63,40
38.72651,38.830677,72,63,40
38.830677,38.93484,74,63,40
38.93484,39.041985,72,63,40
39.041985,39.149128,74,63,40
39.149128,39.25627,72,63,40
39.25627,39.363415,74,63,40
39.363415,39.47371,72,63,40
39.47371,39.584003,74,63,40
39.584003,39.694298,72,63,40
39.694298,39.80459,74,63,40
39.80459,39.91823,72,63,40
39.91823,40.031864,74,63,40
40.031864,40.1455,72,63,40
40.1455,40.259136,74,63,40
40.259136,40.376324,72,63,40
40.376324,40.49351,74,63,40
40.49351,40.6107,72,63,40
40.6107,40.727886,74,63,40
40.727886,40.848854,72,63,40
40.848854,40.969822,74,63,40
40.969822,41.09079,71,63,40
41.09079,41.211758,72,63,40
41.211758,41.505875,72,70,40
41.505875,41.79999,74,70,40
41.79999,42.11249,72,70,40
42.11249,42.419785,67,70,40
42.42499,44.113636,65,63,40
45.40851,45.672825,72,63,40
45.672825,45.93714,77,63,40
45.93714,46.201458,79,63,40
46.201458,46.465775,80,63,40
46.465775,46.73009,79,63,40
46.73009,46.981194,77,63,40
46.99441,47.258728,80,63,40
47.258728,47.523045,84,63,40
47.523045,47.78736,82,63,40
47.78736,48.051678,80,63,40
48.051678,48.315994,79,63,40
48.315994,48.567097,77,63,40
48.58031,48.844627,75,63,40
48.844627,49.108948,77,63,40
49.108948,49.373264,79,63,40
49.373264,49.63758,80,63,40
49.63758,49.901897,82,63,40
49.901897,50.153,83,63,40
50.166214,50.43053,84,63,40
50.43053,50.694847,80,63,40
50.694847,50.959164,77,63,40
50.959164,51.407764,75,63,40
51.800285,51.906013,80,112,40
51.998524,52.051388,79,92,40
52.064606,52.17033,79,92,40
52.26284,52.315704,77,92,40
52.328922,52.540375,77,92,40
52.59324,52.698963,80,112,40
52.791477,52.844337,79,92,40
52.857555,52.963284,79,92,40
53.055794,53.108658,77,92,40
53.121872,53.333324,77,92,40
53.38619,53.491917,80,112,40
53.584427,53.63729,79,92,40
53.650505,53.756233,79,92,40
53.848743,53.901608,77,92,40
53.91482,54.126278,77,92,40
54.17914,54.284866,80,112,40
54.377377,54.43024,79,92,40
54.44346,54.549183,79,92,40
54.641693,54.694557,77,92,40
54.707775,54.919228,77,92,40
54.97209,55.077816,80,112,40
55.17033,55.22319,79,92,40
55.23641,55.342136,79,92,40
55.434647,55.48751,77,92,40
55.500725,55.712177,77,92,40
55.76504,55.87077,80,125,40
55.96328,56.016144,79,105,40
56.029358,56.135086,79,105,40
56.227596,56.28046,77,105,40
56.293674,56.50513,77,105,40
56.557995,56.66372,80,125,40
56.75623,56.809093,79,105,40
56.82231,56.928036,79,105,40
57.020546,57.07341,77,105,40
57.086628,57.29808,77,105,40
57.350945,57.456673,75,105,40
57.549183,57.602047,73,105,40
57.61526,57.72099,73,105,40
57.8135,57.866364,72,105,40
57.879578,58.09103,72,105,40
58.143894,58.249622,77,105,40
58.342133,58.394997,75,105,40
58.40821,58.51394,75,105,40
58.60645,58.659313,73,92,40
58.672527,58.883984,73,92,40
58.936848,59.042572,76,92,40
59.135082,59.187946,75,92,40
59.201164,59.30689,75,92,40
59.399403,59.452263,73,92,40
59.46548,59.676933,73,92,40
59.729797,59.835526,76,92,40
59.928036,59.9809,75,92,40
59.994114,60.099842,75,92,40
60.192352,60.245216,73,80,40
60.25843,60.469883,73,80,40
60.522747,60.628475,75,80,40
60.720985,60.77385,73,80,40
60.787064,60.89279,73,80,40
60.985302,61.038166,72,70,40
61.05138,61.262836,72,70,40
61.3157,61.421425,68,70,40
61.513935,61.5668,67,70,40
61.580017,61.68574,67,70,40
61.778255,61.831116,65,70,40
61.844334,62.055786,65,70,40
62.10865,62.21438,73,120,40
62.30689,62.359753,72,80,40
62.372967,62.478695,72,80,40
62.571205,62.62407,71,70,40
62.637283,62.74301,71,70,40
62.83552,62.888386,70,70,40
62.9016,63.007328,70,70,40
63.09984,63.152702,69,70,40
63.165916,63.27354,69,70,40
63.36771,63.421524,68,70,40
63.434975,63.545067,68,70,40
63.6414,63.69644,67,63,40
63.710205,63.82449,67,63,40
63.92449,63.981632,65,63,40
63.99592,64.22449,65,63,40
70.91096,71.66426,84,105,40
71.7039,72.23254,89,105,40
72.23254,72.48364,85,105,40
72.49686,73.02549,84,105,40
73.02549,73.27659,85,105,40
73.28981,74.04311,89,105,40
74.082756,74.83606,84,105,40
74.87571,75.40434,89,105,40
75.40434,75.65545,85,105,40
75.66866,76.197296,84,105,40
76.197296,76.448395,85,105,40
76.46161,76.88452,80,105,40
77.25456,78.007866,80,105,40
78.047516,78.57615,82,92,40
78.57615,78.82725,80,92,40
78.84046,79.3691,79,80,40
79.3691,79.6202,80,80,40
79.633415,80.38672,84,70,40
80.42637,81.219315,80,70,40
81.219315,81.747955,82,70,40
81.747955,81.999054,79,70,40
82.01227,82.54325,77,63,40
82.54325,82.81352,72,63,40
82.81352,83.36275,68,63,40
83.36275,83.62786,65,63,40
87.09664,87.874176,62,70,40
87.889595,88.66712,62,70,40
88.68254,89.60765,62,70,40
89.60765,89.739815,60,70,40
89.739815,89.87197,65,70,40
89.87197,90.00413,67,70,40
90.00413,90.136284,69,70,40
90.136284,90.24201,72,70,40
90.26845,90.53276,72,70,40
90.53276,90.92924,77,90,40
90.92924,91.034966,74,70,40
91.06139,91.14069,72,70,40
91.19356,91.27285,74,70,40
91.325714,91.53717,77,80,40
91.85435,92.11867,72,80,40
92.11867,92.51514,77,100,40
92.51514,92.620865,74,80,40
92.6473,92.72659,72,80,40
92.77946,92.85875,74,80,40
92.91161,93.12307,69,80,40
93.44025,93.506325,86,63,40
93.506325,93.57241,88,63,40
93.57241,93.63849,86,63,40
93.63849,93.70457,88,63,40
93.70457,93.91602,86,63,40
93.96888,94.10104,91,63,40
94.10104,94.20677,86,63,40
94.2332,94.29928,86,63,40
94.29928,94.36536,88,63,40
94.36536,94.431435,86,63,40
94.431435,94.49752,88,63,40
94.49752,94.70897,86,63,40
94.76183,94.89399,91,63,40
94.89399,94.99972,86,63,40
95.02615,95.09223,86,63,40
95.09223,95.15831,88,63,40
95.15831,95.22439,86,63,40
95.22439,95.29047,88,63,40
95.29047,95.50192,86,63,40
95.55479,95.68694,91,63,40
95.68694,95.79267,86,63,40
95.8191,96.24201,86,63,40
96.87637,96.98209,81,70,40
97.00853,97.11426,81,70,40
97.140686,97.35214,81,70,40
97.66932,97.77505,72,92,40
97.80148,97.9072,72,92,40
97.93364,98.14509,72,92,40
98.46227,98.568,93,105,40
98.59443,98.70016,93,105,40
98.726585,98.93804,93,105,40
99.255226,99.36095,84,116,40
99.38738,99.49311,84,116,40
99.51954,99.730995,84,116,40
99.78386,100.04817,93,105,40
100.04817,100.25963,89,105,40
100.44465,100.55038,84,105,40
100.576805,100.841125,84,105,40
100.841125,100.97328,91,105,40
100.97328,101.07901,89,105,40
101.2376,101.34333,93,105,40
101.36976,101.63408,93,105,40
101.63408,101.84553,89,105,40
101.89839,102.03055,88,105,40
102.03055,102.13628,86,105,40
102.16271,102.37416,89,105,40
102.95566,103.21998,93,105,40
103.21998,103.431435,89,105,40
103.616455,103.72218,84,105,40
103.74861,104.01293,84,105,40
104.01293,104.14509,91,105,40
104.14509,104.25082,89,105,40
104.4094,104.51513,93,105,40
104.541565,104.80588,93,105,40
104.80588,105.017334,89,105,40
105.0702,105.202354,88,105,40
105.202354,105.30808,86,105,40
105.33451,105.79166,89,105,40
106.19166,106.297386,84,105,40
106.323814,106.42954,86,105,40
106.45597,106.66743,89,105,40
106.984604,107.09033,84,92,40
107.11677,107.222496,86,92,40
107.248924,107.46038,81,92,40
107.77756,107.883286,72,92,40
107.90971,108.01544,74,80,40
108.04188,108.25333,77,80,40
108.57051,108.67624,72,70,40
108.70267,108.808395,74,70,40
108.83482,109.04628,69,70,40
109.62778,109.733505,84,70,40
109.75993,109.86566,86,70,40
109.8921,110.15641,89,70,40
110.42073,110.52645,84,70,40
110.55289,110.658615,86,70,40
110.68504,110.94936,89,70,40
111.21368,111.319405,84,70,40
111.34584,111.45156,86,70,40
111.478,111.74231,89,70,40
112.00663,112.11236,84,70,40
112.13879,112.244514,86,70,40
112.27095,112.53526,89,70,40
112.79958,112.90531,84,70,40
112.93174,113.03747,86,70,40
113.063896,113.32822,89,70,40
113.59253,113.69826,84,70,40
113.72469,113.830414,86,70,40
113.85685,114.12116,89,70,40
114.40688,114.549736,84,70,40
114.549736,114.6926,86,70,40
114.6926,114.921165,82,70,40
114.97831,115.16778,81,70,40
115.2941,115.483574,77,70,40
115.925674,116.20605,84,116,40
116.20605,116.62661,89,116,40
116.62661,116.710724,86,116,40
116.7668,116.90698,84,116,40
116.90698,117.04717,86,116,40
117.04717,117.495766,89,127,40
117.60792,117.88829,84,116,40
117.88829,118.30885,89,127,40
118.30885,118.39297,86,116,40
118.44904,118.589226,84,116,40
118.589226,118.729416,86,116,40
118.729416,119.17802,81,116,40
119.29016,119.36026,86,70,40
119.36026,119.43035,88,70,40
119.43035,119.50044,86,70,40
119.50044,119.57053,88,70,40
119.57053,119.79484,86,70,40
119.850914,119.9911,91,70,40
119.9911,120.10325,86,70,40
120.13129,120.20138,86,70,40
120.20138,120.27147,88,70,40
120.27147,120.34157,86,70,40
120.34157,120.41166,88,70,40
120.41166,120.635956,86,70,40
120.69203,120.83222,91,70,40
120.83222,120.94437,86,70,40
120.972404,121.0425,86,63,40
121.0425,121.112595,88,63,40
121.112595,121.182686,86,63,40
121.182686,121.252785,88,63,40
121.252785,121.47708,86,63,40
121.53316,121.67334,91,63,40
121.67334,121.78549,86,63,40
121.81353,122.26353,86,63,40
122.28722,122.44511,88,63,40
122.44511,122.603004,89,63,40
122.603004,122.753,91,63,40
122.760895,127.95301,93,63,40
128.653,128.72777,84,63,40
128.74646,128.82123,84,63,40
128.83992,128.91469,84,63,40
128.93338,129.00815,89,63,40
129.02684,129.10161,89,63,40
129.1203,129.19507,89,63,40
129.21376,129.28853,91,63,40
129.30722,129.38197,91,63,40
129.40067,129.47543,91,63,40
129.49413,129.5689,92,63,40
129.58759,129.66235,92,63,40
129.68105,129.75581,92,63,40
129.7745,129.84927,91,63,40
129.86797,129.94273,91,63,40
129.96143,130.03618,91,63,40
130.05487,130.12964,89,63,40
130.14833,130.2231,89,63,40
130.24179,130.31656,89,63,40
130.33525,130.41002,92,63,40
130.42871,130.50348,92,63,40
130.52217,130.59694,92,63,40
130.61563,130.69038,96,63,40
130.70908,130.78384,96,63,40
130.80254,130.8773,96,63,40
130.896,130.97076,94,63,40
130.98946,131.06422,94,63,40
131.08292,131.15768,94,63,40
131.17638,131.25114,92,63,40
131.26984,131.3446,92,63,40
131.3633,131.43805,92,63,40
131.45674,131.53151,91,63,40
131.5502,131.62497,91,63,40
131.64366,131.71843,91,63,40
131.73712,131.81189,89,63,40
131.83058,131.90535,89,63,40
131.92404,131.99881,89,63,40
132.0175,132.09225,87,63,40
132.11095,132.18571,87,63,40
132.2044,132.27917,87,63,40
132.29787,132.37263,89,63,40
132.39133,132.4661,89,63,40
132.48479,132.55956,89,63,40
132.57825,132.65302,91,63,40
132.6717,132.74646,91,63,40
132.76515,132.83992,91,63,40
132.85861,132.93338,92,63,40
132.95207,133.02684,92,63,40
133.04553,133.1203,92,63,40
133.13899,133.21376,94,63,40
133.23245,133.30722,94,63,40
133.32591,133.40068,94,63,40
133.41937,133.49413,95,63,40
133.51282,133.58759,95,63,40
133.60628,133.68105,95,63,40
133.69974,133.7745,96,63,40
133.7932,133.86797,96,63,40
133.88666,133.96143,96,63,40
133.98012,134.05489,92,63,40
134.07358,134.14833,92,63,40
134.16702,134.24179,92,63,40
134.26048,134.33525,89,63,40
134.35394,134.42871,89,63,40
134.4474,134.52217,89,63,40
134.54086,134.98946,87,63,40
135.38199,136.17493,84,105,40
136.17493,136.70357,89,105,40
136.70357,136.95467,85,105,40
136.96788,137.49652,84,105,40
137.49652,137.76083,85,105,40
137.76083,138.28947,89,105,40
138.55379,139.34674,84,105,40
139.34674,139.87537,89,105,40
139.87537,140.12648,85,105,40
140.1397,140.66832,84,105,40
140.66832,140.93263,85,105,40
140.93263,141.35555,80,105,40
141.72559,142.4789,80,105,40
142.51854,143.04718,82,105,40
143.04718,143.29828,80,92,40
143.3115,143.84013,79,92,40
143.84013,144.09123,80,92,40
144.10445,144.85774,84,80,40
144.8974,145.55818,80,80,40
145.55818,145.69035,81,80,40
145.69035,146.21898,82,80,40
146.21898,146.47008,79,80,40
146.48329,147.28236,77,70,40
147.32442,147.82968,72,63,40
148.27179,148.50967,72,63,40
148.5361,148.62862,72,63,40
148.66826,148.76077,72,63,40
148.80042,148.89293,72,63,40
148.93257,149.02509,72,63,40
149.06474,149.30263,77,63,40
149.32906,149.42157,77,63,40
149.46121,149.55373,77,63,40
149.59337,149.68588,73,63,40
149.72552,149.81804,73,63,40
149.85768,150.09557,72,63,40
150.12201,150.21452,72,63,40
150.25417,150.34668,72,63,40
150.38632,150.47884,73,63,40
150.51848,150.611,73,63,40
150.65063,150.74315,77,63,40
150.78279,150.8753,77,63,40
150.91496,151.09998,77,63,40
151.44359,151.68147,72,63,40
151.7079,151.80042,72,63,40
151.84007,151.93257,72,63,40
151.97223,152.06473,72,63,40
152.10439,152.1969,72,63,40
152.23654,152.47443,77,63,40
152.50085,152.59337,77,63,40
152.63301,152.72552,77,63,40
152.76518,152.85768,73,63,40
152.89734,152.98984,73,63,40
153.0295,153.26738,72,63,40
153.29381,153.38632,72,63,40
153.42596,153.51848,72,63,40
153.55812,153.65063,73,63,40
153.69028,153.78279,73,63,40
153.82245,153.91495,68,63,40
153.9546,154.04712,68,63,40
154.08676,154.29822,68,63,40
154.61539,154.72112,72,116,40
154.74756,154.85329,72,116,40
154.87971,154.98544,77,116,40
155.01187,155.1176,77,116,40
155.14403,155.24976,79,116,40
155.27618,155.38191,79,116,40
155.40834,155.51407,80,116,40
155.5405,155.64622,80,116,40
155.67267,155.77838,79,116,40
155.80482,155.91055,79,116,40
155.93698,156.04271,77,116,40
156.06914,156.17487,77,116,40
156.2013,156.30702,80,116,40
156.33345,156.43918,80,116,40
156.4656,156.57133,84,116,40
156.59778,156.70349,84,116,40
156.72993,156.83566,82,116,40
156.86209,156.96782,82,116,40
156.99425,157.09998,80,116,40
157.1264,157.23213,80,116,40
157.25856,157.36429,79,116,40
157.39072,157.49644,79,116,40
157.52289,157.6286,77,116,40
157.65504,157.76077,77,116,40
157.7872,157.89293,76,116,40
157.91936,158.02509,76,116,40
158.05151,158.15724,77,116,40
158.18367,158.2894,77,116,40
158.31583,158.42155,79,116,40
158.448,158.55371,79,116,40
158.58015,158.68588,80,116,40
158.71231,158.81804,80,116,40
158.84447,158.9502,82,116,40
158.97662,159.08235,82,116,40
159.10878,159.21451,83,116,40
159.24094,159.34666,83,116,40
159.3731,159.47882,84,116,40
159.50526,159.611,84,116,40
159.63742,159.74315,80,116,40
159.76958,159.8753,80,116,40
159.90173,160.00746,77,116,40
160.03389,160.13962,77,116,40
160.16605,160.27177,72,116,40
160.2982,160.40393,72,116,40
160.43037,160.5361,71,116,40
160.56253,160.66826,71,116,40
160.69469,160.80042,72,116,40
160.82684,160.93257,72,116,40
160.959,161.06473,72,116,40
161.09116,161.19688,72,116,40
161.22331,161.32904,71,116,40
161.35548,161.4612,71,116,40
161.48764,161.59337,72,116,40
161.6198,161.72552,72,105,40
161.75195,161.85768,73,92,40
161.88411,161.98984,73,92,40
162.01627,162.122,72,92,40
162.14842,162.25415,72,92,40
162.2806,162.3863,80,92,40
162.41275,162.51848,80,80,40
162.5449,162.65063,77,80,40
162.67706,162.78279,77,80,40
162.80922,162.91495,76,80,40
162.94138,163.0471,76,80,40
163.07353,163.17926,75,80,40
163.2057,163.31142,75,70,40
163.33786,163.44359,73,70,40
163.47002,163.57574,73,70,40
163.60217,163.7079,72,70,40
163.73433,163.84006,72,70,40
163.86649,163.97221,71,63,40
163.99864,164.10437,71,63,40
164.13081,164.237,72,63,40
164.26355,164.36975,72,63,40
164.39629,164.50488,80,63,40
164.53204,164.64064,80,63,40
164.66779,164.77942,79,63,40
164.80733,164.91895,79,63,40
164.94685,165.054,77,63,40
165.0897,165.19685,77,63,40
165.23257,165.34286,85,63,40
165.37962,165.48993,85,63,40
165.52669,165.63976,76,63,40
165.67744,165.79051,76,63,40
165.8282,165.94417,77,63,40
165.98283,166.09882,77,63,40
166.13747,166.25716,89,63,40
166.29704,166.41673,89,63,40
166.45662,166.57957,77,63,40
166.62056,166.74352,77,63,40
166.78448,166.9109,89,63,40
166.95303,167.07944,89,63,40
167.12157,167.47041,77,63,40
171.37416,172.12747,72,63,40
172.16711,172.92043,72,63,40
172.96007,174.00412,72,63,40
174.54597,174.65169,84,105,40
174.81029,175.12747,89,125,40
175.20676,175.31248,86,105,40
175.33891,175.44464,84,105,40
175.47108,175.5768,86,105,40
175.60324,175.81468,89,105,40
176.13187,176.2376,84,105,40
176.3962,176.71336,89,125,40
176.79266,176.89839,86,105,40
176.92482,177.03055,84,105,40
177.05698,177.1627,86,105,40
177.18913,177.40059,81,105,40
177.71777,178.47107,84,63,40
178.51073,179.26402,84,63,40
179.30368,180.36806,84,63,40
180.95377,181.0595,84,116,40
181.08592,181.19165,86,116,40
181.21808,181.42953,89,116,40
182.53967,182.6454,72,112,40
182.67183,182.77756,74,92,40
182.80399,183.01544,77,92,40
184.12556,184.3899,93,70,40
184.3899,184.6487,89,70,40
184.78636,184.91632,84,70,40
184.91852,185.18285,84,70,40
185.18285,185.315,91,70,40
185.315,185.44495,89,70,40
185.57932,185.70927,93,70,40
185.71147,185.97578,93,70,40
185.97578,186.2346,89,70,40
186.24011,186.37227,88,70,40
186.37227,186.50443,86,70,40
186.50443,186.76323,89,70,40
187.29738,187.56169,93,70,40
187.56169,187.8205,89,70,40
187.95816,188.08812,84,70,40
188.09033,188.35464,84,70,40
188.35464,188.4868,91,70,40
188.4868,188.61676,89,70,40
188.75111,188.88107,93,70,40
188.88327,189.1476,93,70,40
189.1476,189.4064,89,70,40
189.41191,189.54407,88,70,40
189.54407,189.67622,86,70,40
189.67622,189.956,89,70,40
190.79768,190.87698,74,63,40
190.79768,190.87698,81,63,40
190.92984,191.00914,81,63,40
190.92984,191.00914,74,63,40
191.062,191.1413,81,63,40
191.062,191.1413,74,63,40
191.59064,191.66994,72,63,40
191.59064,191.66994,65,63,40
191.7228,191.8021,72,63,40
191.7228,191.8021,65,63,40
191.85495,191.93425,72,70,40
191.85495,191.93425,65,70,40
193.9695,194.04878,84,116,40
194.10165,194.18094,86,116,40
194.23381,194.49812,89,116,40
194.76244,194.84174,84,116,40
194.8946,194.97389,86,116,40
195.02676,195.29108,89,116,40
195.55539,195.63469,84,116,40
195.68755,195.76685,86,116,40
195.81972,196.08403,89,116,40
196.34834,196.42764,84,116,40
196.4805,196.5598,86,116,40
196.61266,196.87698,89,116,40
197.1413,197.2206,84,116,40
197.27345,197.35275,86,116,40
197.40561,197.66992,89,116,40
197.93425,198.01353,84,116,40
198.0664,198.1457,86,116,40
198.19856,198.46288,89,116,40
198.74326,198.89032,84,116,40
198.89032,199.03737,86,116,40
199.03737,199.28352,82,116,40
199.34506,199.53966,81,116,40
199.66939,199.8751,77,116,40
200.37369,200.7583,72,92,40
200.7583,201.33524,77,92,40
201.33524,201.51791,74,92,40
201.52754,201.71985,72,92,40
201.71985,201.91216,74,92,40
201.91216,202.27754,77,92,40
202.68138,203.066,72,92,40
203.066,203.64291,77,92,40
203.64291,203.8256,74,92,40
203.83522,204.02753,72,92,40
204.02753,204.21983,74,92,40
204.21983,204.58522,69,92,40
204.98907,205.08522,72,63,40
205.08522,205.18138,74,63,40
205.18138,205.27753,72,63,40
205.27753,205.37369,74,63,40
205.37369,205.47302,72,63,40
205.47302,205.57236,74,63,40
205.57236,205.67169,72,63,40
205.67169,205.77104,74,63,40
205.77104,205.87378,72,63,40
205.87378,205.97652,74,63,40
205.97652,206.07925,72,63,40
206.07925,206.18199,74,63,40
206.18199,206.28838,72,63,40
206.28838,206.39476,74,63,40
206.39476,206.50114,72,63,40
206.50114,206.60753,74,63,40
206.60753,206.71782,72,63,40
206.71782,206.82811,74,63,40
206.82811,206.93842,72,63,40
206.93842,207.0487,74,63,40
207.0487,207.16234,72,63,40
207.16234,207.27597,74,63,40
207.27597,207.38962,72,63,40
207.38962,207.50325,74,63,40
207.50325,207.62135,72,63,40
207.62135,207.73947,74,63,40
207.73947,207.85757,72,63,40
207.85757,207.9757,74,63,40
207.9757,208.09865,72,63,40
208.09865,208.22159,74,63,40
208.22159,208.34454,72,63,40
208.34454,208.4675,74,63,40
208.4675,208.5957,72,63,40
208.5957,208.7239,74,63,40
208.7239,208.85211,71,63,40
208.85211,208.98032,72,63,40
208.98032,209.25554,72,70,40
209.25554,209.53078,74,70,40
209.53078,209.8278,72,70,40
209.8278,210.11989,67,70,40
210.12483,211.79167,65,63,40
0.792951,0.8986778,72,105,40
1.057268,1.3744484,77,125,40
1.4537435,1.5594703,74,105,40
1.585902,1.6916288,72,105,40
1.7180605,1.8237873,74,105,40
1.850219,2.0616727,77,105,40
2.378853,2.4845798,72,105,40
2.64317,2.9603505,77,125,40
3.0396454,3.1453724,74,105,40
3.171804,3.277531,72,105,40
3.3039625,3.4096892,74,105,40
3.436121,3.6475747,69,105,40
3.964755,4.229072,65,63,40
4.229072,4.493389,67,83,40
4.493389,4.6255474,62,63,40
4.6255474,4.731274,64,63,40
4.757706,5.022023,65,63,40
5.022023,5.28634,67,83,40
5.28634,5.4184985,62,63,40
5.4184985,5.524225,64,63,40
5.550657,5.814974,65,63,40
5.814974,6.079291,67,83,40
6.079291,6.2114496,62,63,40
6.2114496,6.3171763,64,63,40
6.343608,6.607925,65,63,40
6.607925,6.7400837,67,63,40
6.7400837,6.872242,64,63,40
6.872242,6.9779687,65,63,40
7.136559,7.2422857,72,105,40
7.400876,7.718056,77,125,40
7.7973514,7.903078,74,105,40
7.92951,8.035236,72,105,40
8.061668,8.167396,74,105,40
8.193827,8.405281,77,105,40
8.722461,8.828188,72,105,40
8.986778,9.303958,77,125,40
9.383253,9.48898,74,105,40
9.515412,9.621139,72,105,40
9.647571,9.753297,74,105,40
9.779729,9.991182,69,105,40
10.308363,10.57268,77,63,40
10.57268,10.836997,79,83,40
10.836997,10.969155,74,63,40
10.969155,11.0748825,76,63,40
11.101314,11.365631,77,63,40
11.365631,11.629948,79,83,40
11.629948,11.762107,74,63,40
11.762107,11.867833,76,63,40
11.894265,12.158582,77,63,40
12.158582,12.422899,79,83,40
12.422899,12.555058,74,63,40
12.555058,12.660785,76,63,40
12.687216,12.951533,77,63,40
14.273118,14.378845,84,116,40
14.405276,14.5110035,86,116,40
14.537435,14.748889,81,116,40
15.85902,15.964746,72,112,40
15.9911785,16.096905,74,92,40
16.123337,16.334791,69,92,40
16.916288,17.022015,72,63,40
17.048447,17.154173,74,63,40
17.180605,17.39206,77,63,40
17.709238,17.814966,72,63,40
17.841398,17.947124,74,63,40
17.973557,18.185009,77,63,40
18.50219,18.607916,72,63,40
18.634348,18.740076,74,63,40
18.766506,18.97796,77,63,40
19.295141,19.400867,72,63,40
19.4273,19.533026,74,63,40
19.559458,19.770912,77,63,40
20.088093,20.193819,72,63,40
20.220251,20.325977,74,63,40
20.35241,20.563862,77,63,40
20.881042,20.98677,72,63,40
21.0132,21.118929,74,63,40
21.14536,21.356813,77,63,40
21.673994,21.806152,72,63,40
21.806152,21.93831,74,63,40
21.93831,22.202627,70,63,40
22.202627,22.414082,69,63,40
22.995579,23.074875,60,63,40
23.127737,23.207033,62,63,40
23.259895,23.418486,65,63,40
24.845798,24.925093,62,92,40
24.845798,24.925093,69,92,40
24.977957,25.057251,69,92,40
24.977957,25.057251,62,92,40
25.110115,25.18941,62,92,40
25.110115,25.18941,69,92,40
26.167383,26.246677,72,125,40
26.299541,26.378836,74,105,40
26.4317,26.643154,69,105,40
26.960335,27.039629,72,125,40
27.092493,27.171787,74,105,40
27.224651,27.436104,69,105,40
27.753284,27.83258,72,125,40
27.885443,27.964739,74,105,40
28.017603,28.229055,69,105,40
28.546236,28.62553,72,125,40
28.678394,28.75769,74,105,40
28.810553,29.022007,69,105,40
29.339188,29.418482,72,125,40
29.471346,29.55064,74,105,40
29.603504,29.814957,69,105,40
30.132137,30.211433,72,125,40
30.264296,30.343592,74,105,40
30.396456,30.607908,69,105,40
30.925089,31.004385,72,125,40
31.057247,31.136543,74,105,40
31.189405,31.40086,69,105,40
31.453724,31.55945,67,105,40
31.585882,31.691608,65,105,40
31.71804,31.984707,65,105,40
32.71804,33.102654,69,90,40
32.71804,33.102654,65,90,40
33.102654,33.833424,65,70,40
33.102654,33.833424,69,70,40
33.871883,34.2565,69,90,40
33.871883,34.2565,65,90,40
34.2565,34.987267,65,70,40
34.2565,34.987267,69,70,40
35.02573,35.410343,69,90,40
35.02573,35.410343,65,70,40
35.410343,36.141113,65,70,40
35.410343,36.141113,69,70,40
36.179573,36.56419,69,90,40
36.179573,36.56419,65,70,40
36.56419,37.294956,65,70,40
36.56419,37.294956,69,70,40
37.33342,37.718033,65,70,40
37.718033,38.11277,67,90,40
38.11277,38.31547,62,70,40
38.31547,38.477634,64,70,40
38.518177,38.93484,65,70,40
38.93484,39.363415,67,90,40
39.363415,39.584003,62,70,40
39.584003,39.76047,64,70,40
39.80459,40.259136,65,70,40
40.259136,40.727886,67,90,40
40.727886,40.969822,62,70,40
40.969822,41.16337,64,70,40
41.211758,42.42499,65,63,40
42.42499,43.76428,57,63,40
45.40851,46.201458,72,63,40
46.201458,46.73009,77,63,40
46.73009,46.988903,73,63,40
46.99441,47.523045,72,63,40
47.523045,47.78736,73,63,40
47.78736,48.315994,77,63,40
48.58031,49.373264,72,63,40
49.373264,49.901897,77,63,40
49.901897,50.160706,73,63,40
50.166214,50.694847,72,63,40
50.694847,50.959164,73,63,40
50.959164,51.407764,68,63,40
50.959164,51.407764,72,63,40
51.800285,51.906013,68,100,40
51.998524,52.051388,67,80,40
52.064606,52.17033,67,80,40
52.26284,52.315704,65,80,40
52.328922,52.540375,65,80,40
52.59324,52.698963,68,100,40
52.791477,52.844337,67,80,40
52.857555,52.963284,67,80,40
53.055794,53.108658,65,80,40
53.121872,53.333324,65,80,40
53.38619,53.491917,68,100,40
53.584427,53.63729,67,80,40
53.650505,53.756233,67,80,40
53.848743,53.901608,65,80,40
53.91482,54.126278,65,80,40
54.17914,54.284866,68,100,40
54.377377,54.43024,67,80,40
54.44346,54.549183,67,80,40
54.641693,54.694557,65,80,40
54.707775,54.919228,65,80,40
54.97209,55.077816,68,100,40
55.17033,55.22319,67,80,40
55.23641,55.342136,67,80,40
55.434647,55.48751,65,80,40
55.500725,55.712177,65,80,40
55.76504,55.87077,68,112,40
55.96328,56.016144,67,92,40
56.029358,56.135086,67,92,40
56.227596,56.28046,65,92,40
56.293674,56.50513,65,92,40
56.557995,56.66372,68,112,40
56.75623,56.809093,67,92,40
56.82231,56.928036,67,92,40
57.020546,57.07341,65,92,40
57.086628,57.29808,65,92,40
57.350945,57.985306,63,70,40
58.143894,58.912617,65,70,40
58.936848,60.49852,64,70,40
60.522747,61.29147,63,70,40
61.3157,62.10865,60,70,40
62.10865,62.877373,60,90,40
62.9016,63.684975,60,63,40
63.710205,64.16735,56,63,40
70.91096,71.016685,68,116,40
71.10919,71.162056,67,116,40
71.17527,71.281,67,116,40
71.37351,71.42638,65,116,40
71.43959,71.65104,65,116,40
71.7039,71.80963,68,116,40
71.902145,71.95501,67,116,40
71.96822,72.07395,67,116,40
72.16646,72.21932,65,116,40
72.23254,72.44399,65,116,40
72.49686,72.602585,68,116,40
72.69509,72.747955,67,116,40
72.76118,72.8669,67,116,40
72.95941,73.012276,65,116,40
73.02549,73.236946,65,116,40
73.28981,73.39554,68,116,40
73.488045,73.54091,67,116,40
73.55412,73.65985,67,116,40
73.752365,73.80523,65,116,40
73.81844,74.02989,65,116,40
74.082756,74.188484,68,116,40
74.281,74.33386,67,116,40
74.34708,74.452805,67,116,40
74.54531,74.598175,65,116,40
74.6114,74.822845,65,116,40
74.87571,74.98144,68,116,40
75.073944,75.12681,67,116,40
75.14003,75.24575,67,116,40
75.338264,75.39113,65,116,40
75.40434,75.6158,65,116,40
75.66866,75.77439,68,116,40
75.8669,75.91976,67,116,40
75.932976,76.038704,67,116,40
76.13122,76.18408,65,116,40
76.197296,76.408745,65,116,40
76.46161,76.56734,63,116,40
76.65985,76.712715,61,116,40
76.72593,76.83166,61,116,40
76.924164,76.97703,60,116,40
76.99025,77.2017,60,116,40
77.25456,77.36029,65,105,40
77.4528,77.50566,63,105,40
77.51888,77.6246,63,105,40
77.71712,77.76998,61,92,40
77.783195,77.99465,61,92,40
78.047516,78.153244,64,92,40
78.24575,78.298615,63,92,40
78.31183,78.41756,63,92,40
78.51007,78.562935,61,92,40
78.57615,78.787605,61,92,40
78.84046,78.94619,64,80,40
79.038704,79.09157,63,80,40
79.10478,79.21051,63,80,40
79.30302,79.35588,61,80,40
79.3691,79.58055,61,80,40
79.633415,79.73914,63,80,40
79.83166,79.884514,61,80,40
79.897736,80.003456,61,70,40
80.09597,80.148834,60,70,40
80.16205,80.373505,60,70,40
80.42637,80.5321,68,70,40
80.6246,80.67747,67,70,40
80.69068,80.79641,67,70,40
80.88892,80.94179,65,70,40
80.955,81.16646,65,70,40
81.219315,81.32504,73,70,40
81.41756,81.47042,72,70,40
81.483635,81.58936,72,70,40
81.68187,81.73473,71,70,40
81.747955,81.853676,71,70,40
81.94619,81.999054,70,70,40
82.01227,82.118,70,63,40
82.21051,82.26337,69,63,40
82.27659,82.383255,69,63,40
82.476585,82.52992,68,63,40
82.54325,82.65136,68,63,40
82.74596,82.80001,67,63,40
82.81352,82.922615,67,63,40
83.01807,83.07262,66,63,40
83.08625,83.196846,66,63,40
83.293625,83.34892,64,63,40
83.36275,83.47437,65,63,40
87.625275,87.889595,58,63,40
87.889595,88.10104,57,63,40
88.41823,88.68254,58,63,40
88.68254,88.894,57,63,40
89.211174,89.475494,58,63,40
89.475494,89.68695,57,63,40
90.53276,90.79708,69,63,40
90.79708,91.325714,70,63,40
91.325714,91.53717,69,63,40
92.11867,92.38298,69,63,40
92.38298,92.91161,70,63,40
92.91161,93.12307,69,63,40
93.44025,93.70457,77,63,40
93.70457,93.96888,79,83,40
93.96888,94.10104,74,63,40
94.10104,94.20677,76,63,40
94.2332,94.49752,77,63,40
94.49752,94.76183,79,83,40
94.76183,94.89399,74,63,40
94.89399,94.99972,76,63,40
95.02615,95.29047,77,63,40
95.29047,95.55479,79,83,40
95.55479,95.68694,74,63,40
95.68694,95.79267,76,63,40
95.8191,96.24201,77,63,40
96.87637,96.98209,74,70,40
97.00853,97.11426,74,70,40
97.140686,97.35214,74,70,40
97.66932,97.77505,65,92,40
97.80148,97.9072,65,92,40
97.93364,98.14509,65,92,40
98.46227,98.568,86,105,40
98.59443,98.70016,86,105,40
98.726585,98.93804,86,105,40
99.255226,99.36095,77,116,40
99.38738,99.49311,77,116,40
99.51954,99.730995,77,116,40
100.04817,100.12747,72,105,40
100.180336,100.25963,74,105,40
100.31249,100.52394,77,105,40
100.841125,100.92042,72,105,40
100.97328,101.05258,74,105,40
101.10544,101.316895,77,105,40
101.63408,101.71337,72,105,40
101.766235,101.84553,74,105,40
101.89839,102.10985,77,105,40
102.427025,102.506325,72,105,40
102.55919,102.63848,74,105,40
102.691345,102.902794,77,105,40
103.21998,103.29927,72,105,40
103.352135,103.431435,74,105,40
103.4843,103.69575,77,105,40
104.01293,104.092224,72,105,40
104.14509,104.22438,74,105,40
104.277245,104.4887,77,105,40
104.80588,104.93804,72,105,40
104.93804,105.0702,74,105,40
105.0702,105.33451,70,105,40
105.33451,105.56309,69,105,40
106.19166,106.297386,72,105,40
106.323814,106.42954,74,105,40
106.45597,106.66743,77,105,40
106.984604,107.09033,72,92,40
107.11677,107.222496,74,92,40
107.248924,107.46038,69,92,40
107.77756,107.883286,60,92,40
107.90971,108.01544,62,80,40
108.04188,108.25333,65,80,40
108.57051,108.67624,60,70,40
108.70267,108.808395,62,70,40
108.83482,109.04628,57,70,40
109.36346,109.469185,72,70,40
109.49562,109.60135,74,70,40
109.62778,109.83923,69,70,40
110.15641,110.26214,72,70,40
110.28857,110.394295,74,70,40
110.42073,110.63218,69,70,40
110.94936,111.05509,72,70,40
111.08152,111.18725,74,70,40
111.21368,111.42513,69,70,40
111.74231,111.84804,72,70,40
111.87447,111.9802,74,70,40
112.00663,112.21809,69,70,40
112.53526,112.64099,72,70,40
112.66742,112.77315,74,70,40
112.79958,113.01103,69,70,40
113.32822,113.433945,72,70,40
113.46037,113.5661,74,70,40
113.59253,113.803986,69,70,40
114.12116,114.23545,72,70,40
114.26402,114.37831,74,70,40
114.40688,114.63545,69,70,40
114.6926,114.83545,67,70,40
114.83545,114.94974,65,70,40
114.97831,115.23094,65,70,40
115.925674,116.20605,72,116,40
116.20605,116.62661,77,116,40
116.62661,116.710724,74,116,40
116.7668,116.90698,72,116,40
116.90698,117.04717,74,116,40
117.04717,117.495766,77,127,40
117.60792,117.88829,72,116,40
117.88829,118.30885,77,127,40
118.30885,118.39297,74,116,40
118.44904,118.589226,72,116,40
118.589226,118.729416,74,116,40
118.729416,119.17802,65,116,40
118.729416,119.17802,69,116,40
119.29016,119.57053,77,70,40
119.57053,119.850914,79,70,40
119.850914,119.9911,74,70,40
119.9911,120.10325,76,70,40
120.13129,120.41166,77,70,40
120.41166,120.69203,79,70,40
120.69203,120.83222,74,70,40
120.83222,120.94437,76,70,40
120.972404,121.252785,77,63,40
121.252785,121.53316,79,63,40
121.53316,121.67334,74,63,40
121.67334,121.78549,76,63,40
121.81353,122.12932,77,63,40
122.12932,122.44511,79,63,40
122.44511,122.603004,74,63,40
122.603004,122.72932,76,63,40
122.760895,124.58475,77,63,40
124.58475,125.65301,84,63,40
125.65301,127.65301,89,63,40
128.653,129.45207,84,63,40
129.49413,130.05487,89,63,40
130.05487,130.32123,85,63,40
130.33525,130.896,84,63,40
130.896,131.16235,85,63,40
131.17638,131.70909,89,63,40
132.0175,132.81656,84,63,40
132.85861,133.41937,89,63,40
133.41937,133.68571,85,63,40
133.69974,134.26048,84,63,40
134.26048,134.52684,85,63,40
134.54086,134.98946,84,63,40
135.38199,135.6463,60,92,40
135.6463,135.91061,70,112,40
135.91061,136.16171,68,92,40
136.17493,136.43925,60,92,40
136.43925,136.70357,70,112,40
136.70357,136.95467,68,92,40
136.96788,137.23221,60,92,40
137.23221,137.49652,70,112,40
137.49652,137.74762,68,92,40
137.76083,138.02515,72,92,40
138.02515,138.28947,82,112,40
138.28947,138.54057,80,92,40
138.55379,138.8181,72,92,40
138.8181,139.08243,82,112,40
139.08243,139.33353,80,92,40
139.34674,139.61105,72,92,40
139.61105,139.87537,82,112,40
139.87537,140.12648,80,92,40
140.1397,140.404,72,92,40
140.404,140.66832,82,112,40
140.66832,140.91942,80,92,40
140.93263,141.19696,63,92,40
141.19696,141.46127,73,112,40
141.46127,141.67273,72,92,40
141.72559,141.98991,72,92,40
141.98991,142.25423,79,112,40
142.25423,142.50533,77,92,40
142.51854,142.78285,73,92,40
142.78285,143.04718,80,112,40
143.04718,143.29828,76,80,40
143.3115,143.5758,73,80,40
143.5758,143.84013,75,80,40
143.84013,144.09123,76,80,40
144.10445,144.36876,75,80,40
144.36876,144.63307,82,70,40
144.63307,144.88419,80,70,40
144.8974,145.16171,77,70,40
145.16171,145.29387,76,70,40
145.29387,145.42603,77,70,40
145.42603,145.69035,78,70,40
145.69035,145.95467,79,70,40
145.95467,146.21898,76,63,40
146.21898,146.47008,77,63,40
146.48329,146.76367,73,63,40
146.76367,147.18423,72,63,40
147.18423,147.31741,70,63,40
147.32442,147.92442,68,63,40
148.27179,148.34227,60,39,40
148.3599,148.43037,60,39,40
148.448,148.51848,60,39,40
148.5361,148.60658,65,39,40
148.6242,148.69469,65,39,40
148.71231,148.7828,65,39,40
148.80042,148.87091,67,39,40
148.88852,148.95901,67,39,40
148.97664,149.04712,67,39,40
149.06474,149.13522,68,39,40
149.15285,149.22333,68,39,40
149.24095,149.31143,68,39,40
149.32906,149.39954,67,39,40
149.41716,149.48764,67,39,40
149.50526,149.57574,67,39,40
149.59337,149.66385,65,39,40
149.68147,149.75197,65,39,40
149.76958,149.84007,65,39,40
149.85768,149.92818,68,39,40
149.9458,150.01628,68,39,40
150.0339,150.10439,68,39,40
150.12201,150.19249,72,39,40
150.21011,150.2806,72,39,40
150.29822,150.3687,72,39,40
150.38632,150.4568,70,39,40
150.47443,150.5449,70,39,40
150.56253,150.63301,70,39,40
150.65063,150.72113,68,39,40
150.73874,150.80923,68,39,40
150.82684,150.89734,68,39,40
150.91496,150.98544,67,39,40
151.00307,151.07355,67,39,40
151.09117,151.16165,67,39,40
151.17928,151.24976,65,39,40
151.26738,151.33786,65,39,40
151.35548,151.42596,65,39,40
151.44359,151.51407,63,39,40
151.5317,151.60217,63,39,40
151.6198,151.69029,63,39,40
151.7079,151.7784,65,39,40
151.796,151.8665,65,39,40
151.88412,151.9546,65,39,40
151.97223,152.04271,67,39,40
152.06033,152.13081,67,39,40
152.14844,152.21892,67,39,40
152.23654,152.30702,68,39,40
152.32465,152.39513,68,39,40
152.41275,152.48323,68,39,40
152.50085,152.57135,70,39,40
152.58896,152.65945,70,39,40
152.67706,152.74756,70,39,40
152.76518,152.83566,71,39,40
152.85329,152.92377,71,39,40
152.94139,153.01187,71,39,40
153.0295,153.09998,72,39,40
153.1176,153.18808,72,39,40
153.2057,153.27618,72,39,40
153.29381,153.36429,68,39,40
153.38191,153.4524,68,39,40
153.47002,153.54051,68,39,40
153.55812,153.62862,65,39,40
153.64622,153.71672,65,39,40
153.73434,153.80482,65,39,40
153.82245,153.89293,60,39,40
153.91055,153.98103,60,39,40
153.99866,154.06914,60,39,40
154.08676,154.15724,59,39,40
154.17487,154.24535,59,39,40
154.26297,154.33345,59,39,40
154.35107,154.42155,60,39,40
154.43918,154.50967,60,39,40
154.52728,154.59778,60,39,40
154.61539,154.72112,60,105,40
154.74756,154.85329,60,105,40
154.87971,154.98544,65,105,40
155.01187,155.1176,65,105,40
155.14403,155.24976,67,105,40
155.27618,155.38191,67,105,40
155.40834,155.51407,68,105,40
155.5405,155.64622,68,105,40
155.67267,155.77838,67,105,40
155.80482,155.91055,67,105,40
155.93698,156.04271,65,105,40
156.06914,156.17487,65,105,40
156.2013,156.30702,68,105,40
156.33345,156.43918,68,105,40
156.4656,156.57133,72,105,40
156.59778,156.70349,72,105,40
156.72993,156.83566,70,105,40
156.86209,156.96782,70,105,40
156.99425,157.09998,68,105,40
157.1264,157.23213,68,105,40
157.25856,157.36429,67,105,40
157.39072,157.49644,67,105,40
157.52289,157.6286,65,105,40
157.65504,157.76077,65,105,40
157.7872,157.89293,64,105,40
157.91936,158.02509,64,105,40
158.05151,158.15724,65,105,40
158.18367,158.2894,65,105,40
158.31583,158.42155,67,105,40
158.448,158.55371,67,105,40
158.58015,158.68588,68,105,40
158.71231,158.81804,68,105,40
158.84447,158.9502,70,105,40
158.97662,159.08235,70,105,40
159.10878,159.21451,71,105,40
159.24094,159.34666,71,105,40
159.3731,159.47882,72,105,40
159.50526,159.611,72,105,40
159.63742,159.74315,68,105,40
159.76958,159.8753,68,105,40
159.90173,160.00746,65,105,40
160.03389,160.13962,65,105,40
160.16605,160.27177,60,105,40
160.2982,160.40393,60,105,40
160.43037,160.5361,59,105,40
160.56253,160.66826,59,105,40
160.69469,160.80042,60,105,40
160.82684,160.93257,60,105,40
160.959,161.06473,60,105,40
161.09116,161.19688,60,105,40
161.22331,161.32904,59,105,40
161.35548,161.4612,59,105,40
161.48764,161.59337,60,105,40
161.6198,161.72552,60,92,40
161.75195,161.85768,61,92,40
161.88411,161.98984,61,92,40
162.01627,162.122,60,92,40
162.14842,162.25415,60,92,40
162.2806,162.3863,68,92,40
162.41275,162.51848,68,80,40
162.5449,162.65063,65,80,40
162.67706,162.78279,65,80,40
162.80922,162.91495,64,80,40
162.94138,163.0471,64,80,40
163.07353,163.17926,63,80,40
163.2057,163.31142,63,70,40
163.33786,163.44359,61,70,40
163.47002,163.57574,61,70,40
163.60217,163.7079,60,70,40
163.73433,163.84006,60,70,40
163.86649,163.97221,59,63,40
163.99864,164.10437,59,63,40
164.13081,164.237,60,63,40
164.26355,164.36975,60,63,40
164.39629,164.50488,68,63,40
164.53204,164.64064,68,63,40
164.66779,164.77942,67,63,40
164.80733,164.91895,67,63,40
164.94685,165.054,65,63,40
165.0897,165.19685,65,63,40
165.23257,165.34286,73,63,40
165.37962,165.48993,73,63,40
165.52669,165.63976,64,63,40
165.67744,165.79051,64,63,40
165.8282,165.94417,65,63,40
165.98283,166.09882,65,63,40
166.13747,166.25716,77,63,40
166.29704,166.41673,77,63,40
166.45662,166.57957,65,63,40
166.62056,166.74352,65,63,40
166.78448,166.9109,77,63,40
166.95303,167.07944,77,63,40
167.12157,167.47041,65,63,40
168.20236,168.30809,72,105,40
168.46667,168.78386,77,125,40
168.86316,168.96887,74,105,40
168.99532,169.10104,72,105,40
169.12747,169.2332,74,105,40
169.25963,169.47108,77,105,40
169.78827,169.89398,72,105,40
170.05258,170.36977,77,125,40
170.44905,170.55478,74,105,40
170.5812,170.68694,72,105,40
170.71338,170.81909,74,105,40
170.84554,171.05698,69,105,40
171.37416,171.63847,65,63,40
171.63847,171.9028,67,83,40
171.9028,172.03496,62,63,40
172.03496,172.14069,64,63,40
172.16711,172.43143,65,63,40
172.43143,172.69576,67,83,40
172.69576,172.82791,62,63,40
172.82791,172.93364,64,63,40
172.96007,173.22438,65,63,40
173.22438,173.4887,67,83,40
173.4887,173.62086,62,63,40
173.62086,173.72658,64,63,40
173.75302,174.01733,65,63,40
174.01733,174.14949,67,63,40
174.14949,174.28165,64,63,40
174.28165,174.38737,65,63,40
174.54597,174.65169,72,105,40
174.81029,175.12747,77,125,40
175.20676,175.31248,74,105,40
175.33891,175.44464,72,105,40
175.47108,175.5768,74,105,40
175.60324,175.81468,77,105,40
176.13187,176.2376,72,105,40
176.3962,176.71336,77,125,40
176.79266,176.89839,74,105,40
176.92482,177.03055,72,105,40
177.05698,177.1627,74,105,40
177.18913,177.40059,69,105,40
177.71777,177.98209,77,63,40
177.98209,178.2464,79,83,40
178.2464,178.37857,74,63,40
178.37857,178.4843,76,63,40
178.51073,178.77504,77,63,40
178.77504,179.03935,79,83,40
179.03935,179.17151,74,63,40
179.17151,179.27724,76,63,40
179.30368,179.568,77,63,40
179.568,179.8323,79,83,40
179.8323,179.96446,74,63,40
179.96446,180.07019,76,63,40
180.09662,180.38234,77,63,40
181.74672,181.85245,84,116,40
181.87888,181.9846,86,116,40
182.01103,182.22249,81,116,40
183.33263,183.43834,72,112,40
183.46478,183.57051,74,92,40
183.59694,183.8084,69,92,40
184.3899,184.49562,72,63,40
184.52205,184.62778,74,63,40
184.6542,184.86566,77,63,40
185.18285,185.28856,72,63,40
185.315,185.42073,74,63,40
185.44716,185.65862,77,63,40
185.97578,186.08151,72,63,40
186.10796,186.21367,74,63,40
186.24011,186.45155,77,63,40
186.76874,186.87447,72,63,40
186.9009,187.00662,74,63,40
187.03305,187.2445,77,63,40
187.56169,187.66742,72,63,40
187.69385,187.79958,74,63,40
187.826,188.03746,77,63,40
188.35464,188.46037,72,63,40
188.4868,188.59253,74,63,40
188.61896,188.83041,77,63,40
189.1476,189.27975,72,63,40
189.27975,189.41191,74,63,40
189.41191,189.67622,70,63,40
189.67622,189.9048,69,63,40
190.53337,190.61267,60,63,40
190.66553,190.74483,62,63,40
190.79768,190.95628,65,63,40
192.38359,192.46289,62,92,40
192.38359,192.46289,69,92,40
192.51575,192.59505,69,92,40
192.51575,192.59505,62,92,40
192.6479,192.7272,62,92,40
192.6479,192.7272,69,92,40
193.70517,193.78447,72,125,40
193.83733,193.91663,74,105,40
193.9695,194.18094,69,105,40
194.49812,194.57742,72,125,40
194.63028,194.70958,74,105,40
194.76244,194.97389,69,105,40
195.29108,195.37038,72,125,40
195.42323,195.50253,74,105,40
195.55539,195.76685,69,105,40
196.08403,196.16331,72,125,40
196.21619,196.29549,74,105,40
196.34834,196.5598,69,105,40
196.87698,196.95627,72,125,40
197.00914,197.08842,74,105,40
197.1413,197.35275,69,105,40
197.66992,197.74922,72,125,40
197.8021,197.88138,74,105,40
197.93425,198.1457,69,105,40
198.46288,198.547,72,125,40
198.60307,198.68718,74,105,40
198.74326,198.97855,69,105,40
199.03737,199.16045,67,105,40
199.19122,199.3143,65,105,40
199.34506,199.60452,65,105,40
200.37369,200.7583,69,90,40
200.37369,200.7583,65,90,40
200.7583,201.48907,65,70,40
200.7583,201.48907,69,70,40
201.52754,201.91216,69,90,40
201.52754,201.91216,65,90,40
201.91216,202.64291,65,70,40
201.91216,202.64291,69,70,40
202.68138,203.066,69,90,40
202.68138,203.066,65,70,40
203.066,203.79677,65,70,40
203.066,203.79677,69,70,40
203.83522,204.21983,69,90,40
203.83522,204.21983,65,70,40
204.21983,204.9506,65,70,40
204.21983,204.9506,69,70,40
204.98907,205.37369,65,70,40
205.37369,205.77104,67,90,40
205.77104,205.97652,62,70,40
205.97652,206.1409,64,70,40
206.18199,206.60753,65,70,40
206.60753,207.0487,67,90,40
207.0487,207.27597,62,70,40
207.27597,207.4578,64,70,40
207.50325,207.9757,65,70,40
207.9757,208.4675,67,90,40
208.4675,208.7239,62,70,40
208.7239,208.92903,64,70,40
208.98032,210.12483,65,63,40
210.12483,211.4347,57,63,40
3.964755,4.229072,57,63,41
4.229072,4.6255474,58,83,41
4.6255474,4.731274,55,63,41
4.757706,5.022023,57,63,41
5.022023,5.4184985,58,83,41
5.4184985,5.524225,55,63,41
5.550657,5.814974,57,63,41
5.814974,6.2114496,58,83,41
6.2114496,6.3171763,55,63,41
6.343608,6.555062,57,63,41
7.136559,7.2422857,60,105,41
7.400876,7.718056,65,125,41
7.7973514,7.903078,62,105,41
7.92951,8.035236,60,105,41
8.061668,8.167396,62,105,41
8.193827,8.405281,65,105,41
8.722461,8.828188,60,105,41
8.986778,9.303958,65,125,41
9.383253,9.48898,62,105,41
9.515412,9.621139,60,105,41
9.647571,9.753297,62,105,41
9.779729,9.991182,57,105,41
10.308363,10.57268,69,63,41
10.57268,10.969155,70,83,41
10.969155,11.0748825,67,63,41
11.101314,11.365631,69,63,41
11.365631,11.762107,70,83,41
11.762107,11.867833,67,63,41
11.894265,12.158582,69,63,41
12.158582,12.555058,70,83,41
12.555058,12.660785,67,63,41
12.687216,12.898669,69,63,41
13.744484,13.830387,69,116,41
13.744484,13.830387,62,116,41
13.876642,13.962545,62,116,41
13.876642,13.962545,69,116,41
14.008801,14.094704,69,116,41
14.008801,14.094704,62,116,41
14.537435,14.623338,72,116,41
14.537435,14.623338,65,116,41
14.669594,14.755497,65,116,41
14.669594,14.755497,72,116,41
14.801752,14.887655,72,116,41
14.801752,14.887655,65,116,41
16.651972,16.737873,65,63,41
16.78413,16.870033,65,63,41
16.916288,17.002192,65,63,41
17.048447,17.13435,65,63,41
17.180605,17.312763,69,63,41
17.312763,17.398666,65,63,41
17.444921,17.530825,65,63,41
17.57708,17.662983,65,63,41
17.709238,17.795141,65,63,41
17.841398,17.927301,65,63,41
17.973557,18.105715,69,63,41
18.105715,18.191618,65,63,41
18.237873,18.323776,65,63,41
18.370031,18.455935,65,63,41
18.50219,18.588093,65,63,41
18.634348,18.720251,65,63,41
18.766506,18.898666,69,63,41
18.898666,18.984568,65,63,41
19.030825,19.162983,69,63,41
19.162983,19.248886,65,63,41
19.295141,19.381044,65,63,41
19.4273,19.513203,65,63,41
19.559458,19.691616,69,63,41
19.691616,19.77752,65,63,41
19.823774,19.909678,65,63,41
19.955933,20.041836,65,63,41
20.088093,20.173996,65,63,41
20.220251,20.306154,65,63,41
20.35241,20.484568,69,63,41
20.484568,20.57047,65,63,41
20.616726,20.70263,65,63,41
20.748884,20.834787,65,63,41
20.881042,20.966946,65,63,41
21.0132,21.099104,65,63,41
21.14536,21.27752,69,63,41
21.27752,21.363422,65,63,41
21.409678,21.49558,65,63,41
21.541836,21.627739,65,63,41
21.673994,21.759897,65,63,41
21.806152,21.892056,65,63,41
21.93831,22.070469,67,63,41
22.070469,22.156372,65,63,41
22.202627,22.361217,65,63,41
22.466946,22.625536,53,63,41
23.78853,23.867825,60,63,41
23.920689,23.999983,62,63,41
24.052847,24.211437,57,63,41
24.581482,24.660776,48,92,41
24.71364,24.792934,50,92,41
24.845798,25.004389,53,92,41
25.638748,25.718044,53,92,41
25.638748,25.718044,60,92,41
25.770908,25.850203,60,92,41
25.770908,25.850203,53,92,41
25.903067,25.98236,53,92,41
25.903067,25.98236,60,92,41
26.167383,26.246677,53,105,41
26.299541,26.378836,53,105,41
26.4317,26.510996,53,105,41
26.563858,26.643154,53,105,41
26.696016,26.828175,57,105,41
26.828175,26.90747,53,105,41
26.960335,27.039629,53,105,41
27.092493,27.171787,53,105,41
27.224651,27.303946,53,105,41
27.35681,27.436104,53,105,41
27.488968,27.621126,57,105,41
27.621126,27.700422,53,105,41
27.753284,27.83258,53,105,41
27.885443,27.964739,53,105,41
28.017603,28.096897,53,105,41
28.149761,28.229055,53,105,41
28.28192,28.414078,57,105,41
28.414078,28.493372,53,105,41
28.546236,28.678394,57,105,41
28.678394,28.75769,53,105,41
28.810553,28.889849,53,105,41
28.94271,29.022007,53,105,41
29.07487,29.20703,57,105,41
29.20703,29.286324,53,105,41
29.339188,29.418482,53,105,41
29.471346,29.55064,53,105,41
29.603504,29.682798,53,105,41
29.735662,29.814957,53,105,41
29.86782,29.999979,57,105,41
29.999979,30.079275,53,105,41
30.132137,30.211433,53,105,41
30.264296,30.343592,53,105,41
30.396456,30.47575,53,105,41
30.528614,30.607908,53,105,41
30.660772,30.79293,57,105,41
30.79293,30.872225,53,105,41
30.925089,31.004385,53,105,41
31.057247,31.136543,53,105,41
31.189405,31.268702,53,105,41
31.321564,31.40086,53,105,41
31.453724,31.585882,55,105,41
31.585882,31.665176,53,105,41
31.71804,31.984707,48,105,41
32.71804,33.102654,60,80,41
33.102654,33.48727,62,100,41
33.48727,33.852654,53,80,41
33.871883,34.641113,57,80,41
34.641113,35.006496,62,80,41
35.02573,35.410343,60,80,41
35.410343,35.79496,62,100,41
35.79496,36.160343,53,80,41
36.179573,36.371883,65,100,41
36.371883,36.56419,62,80,41
36.56419,37.294956,60,80,41
37.33342,37.718033,57,63,41
37.718033,38.31547,58,83,41
38.31547,38.477634,55,63,41
38.518177,38.93484,57,63,41
38.93484,39.584003,58,83,41
39.584003,39.76047,55,63,41
39.80459,40.259136,57,63,41
40.259136,40.969822,58,83,41
40.969822,41.16337,55,63,41
41.211758,42.388535,57,63,41
42.42499,43.76428,60,63,41
51.800285,51.87958,53,90,41
51.932446,52.01174,53,70,41
52.064606,52.27606,53,90,41
52.59324,52.672535,49,90,41
52.725395,52.80469,49,70,41
52.857555,53.069008,49,90,41
53.38619,53.465485,53,90,41
53.51835,53.59764,53,70,41
53.650505,53.86196,53,90,41
54.17914,54.258434,49,90,41
54.3113,54.390594,49,70,41
54.44346,54.65491,49,90,41
54.97209,55.051388,53,90,41
55.104248,55.183544,53,70,41
55.23641,55.44786,53,90,41
55.76504,55.844337,49,90,41
55.8972,55.976494,49,70,41
56.029358,56.240814,49,90,41
56.557995,56.637287,53,90,41
56.69015,56.769447,53,70,41
56.82231,57.033764,53,90,41
57.350945,57.43024,48,90,41
57.4831,57.562397,48,70,41
57.61526,57.826714,48,70,41
58.143894,58.22319,49,90,41
58.276054,58.35535,49,70,41
58.40821,58.619667,49,70,41
58.936848,59.01614,49,90,41
59.069004,59.1483,49,70,41
59.201164,59.412617,49,70,41
59.729797,59.809093,49,70,41
59.861954,59.94125,49,70,41
59.994114,60.205566,49,70,41
60.522747,60.602043,56,70,41
60.654907,60.734203,56,70,41
60.787064,60.99852,56,70,41
61.3157,61.394993,48,63,41
61.447857,61.527153,48,63,41
61.580017,61.79147,48,63,41
62.10865,62.187946,48,110,41
62.24081,62.320103,48,70,41
62.372967,62.58442,48,70,41
62.9016,62.980896,53,63,41
63.03376,63.113056,53,63,41
63.165916,63.381165,53,63,41
63.710205,64.16735,48,63,41
64.567345,64.72594,48,70,41
64.831665,64.99026,53,70,41
65.09598,65.25457,55,70,41
65.3603,65.51889,56,70,41
65.62462,65.7832,55,70,41
65.88893,66.04752,53,70,41
66.15325,66.31184,56,70,41
66.417564,66.57616,60,70,41
66.81404,66.89333,58,70,41
66.9462,67.10479,56,70,41
67.21052,67.36911,55,70,41
67.47483,67.63342,53,70,41
67.73915,67.89774,51,70,41
68.00347,68.162056,53,70,41
68.267784,68.42638,55,70,41
68.532104,68.69069,56,70,41
68.79642,68.95501,58,70,41
69.192894,69.27219,59,70,41
69.32505,69.48364,60,70,41
69.58937,69.74796,56,70,41
69.85368,70.012276,53,70,41
70.118004,70.276596,48,70,41
70.382324,70.54091,51,70,41
70.64664,70.80523,56,70,41
70.91096,71.016685,56,105,41
71.10919,71.162056,55,105,41
71.17527,71.281,55,105,41
71.37351,71.42638,53,105,41
71.43959,71.65104,53,105,41
71.7039,71.80963,56,105,41
71.902145,71.95501,55,105,41
71.96822,72.07395,55,105,41
72.16646,72.21932,53,105,41
72.23254,72.44399,53,105,41
72.49686,72.602585,56,105,41
72.69509,72.747955,55,105,41
72.76118,72.8669,55,105,41
72.95941,73.012276,53,105,41
73.02549,73.236946,53,105,41
73.28981,73.39554,56,105,41
73.488045,73.54091,55,105,41
73.55412,73.65985,55,105,41
73.752365,73.80523,53,105,41
73.81844,74.02989,53,105,41
74.082756,74.188484,56,105,41
74.281,74.33386,55,105,41
74.34708,74.452805,55,105,41
74.54531,74.598175,53,105,41
74.6114,74.822845,53,105,41
74.87571,74.98144,56,105,41
75.073944,75.12681,55,105,41
75.14003,75.24575,55,105,41
75.338264,75.39113,53,105,41
75.40434,75.6158,53,105,41
75.66866,75.77439,56,105,41
75.8669,75.91976,55,105,41
75.932976,76.038704,55,105,41
76.13122,76.18408,53,105,41
76.197296,76.408745,53,105,41
76.46161,76.56734,51,105,41
76.65985,76.712715,49,105,41
76.72593,76.83166,49,105,41
76.924164,76.97703,48,105,41
76.99025,77.2017,48,105,41
77.25456,77.42637,53,105,41
77.783195,77.8691,53,92,41
77.91535,78.00126,53,92,41
78.047516,78.133415,52,92,41
78.17967,78.26558,52,92,41
78.57615,78.66205,52,80,41
78.708305,78.79421,52,80,41
78.84046,78.92637,52,80,41
78.972626,79.058525,52,80,41
79.3691,79.455,52,80,41
79.50126,79.58716,52,80,41
79.633415,79.71932,51,80,41
79.76557,79.85148,51,80,41
80.16205,80.247955,51,70,41
80.294205,80.38011,51,70,41
80.42637,80.51227,53,70,41
80.558525,80.64443,53,70,41
80.955,81.0409,56,70,41
81.08716,81.173065,56,70,41
81.219315,82.27659,58,63,41
82.27659,82.54325,57,63,41
82.54325,83.47437,56,63,41
81.219315,83.47437,48,63,41
83.924835,84.03056,60,70,41
84.189156,84.50633,65,90,41
84.58563,84.69135,62,70,41
84.71779,84.82352,60,70,41
84.849945,84.95567,62,70,41
84.9821,85.19356,65,70,41
85.51074,85.61646,60,70,41
85.775055,86.09224,65,90,41
86.17153,86.27726,62,70,41
86.30369,86.40942,60,70,41
86.43585,86.54157,62,70,41
86.56801,86.77946,57,70,41
87.09664,87.360954,57,63,41
87.360954,87.625275,58,63,41
87.625275,87.75743,53,63,41
87.75743,87.86316,55,63,41
87.889595,88.15391,57,63,41
88.15391,88.41823,58,63,41
88.41823,88.550385,53,63,41
88.550385,88.65611,55,63,41
88.68254,88.94686,57,63,41
88.94686,89.211174,58,63,41
89.211174,89.34334,53,63,41
89.34334,89.44906,55,63,41
89.475494,89.68695,57,63,41
90.53276,90.79708,62,63,41
90.79708,91.325714,67,63,41
91.325714,91.53717,65,63,41
92.11867,92.38298,62,63,41
92.38298,92.91161,67,63,41
92.91161,93.12307,60,63,41
93.44025,93.70457,69,63,41
93.70457,94.10104,70,83,41
94.10104,94.20677,67,63,41
94.2332,94.49752,69,63,41
94.49752,94.89399,70,83,41
94.89399,94.99972,67,63,41
95.02615,95.29047,69,63,41
95.29047,95.68694,70,83,41
95.68694,95.79267,67,63,41
95.8191,96.24201,69,63,41
96.61205,96.71778,60,70,41
96.74421,96.84994,62,70,41
96.87637,97.08782,65,70,41
97.40501,97.510735,60,92,41
97.53716,97.64289,62,92,41
97.66932,97.880775,57,92,41
98.19795,98.30368,72,105,41
98.33012,98.43584,74,105,41
98.46227,98.67373,77,105,41
98.990906,99.096634,72,116,41
99.12306,99.22879,74,116,41
99.255226,99.466675,69,116,41
99.78386,99.86315,65,105,41
99.916016,99.99531,65,105,41
100.04817,100.12747,65,105,41
100.180336,100.25963,65,105,41
100.31249,100.391785,69,125,41
100.44465,100.52394,65,105,41
100.576805,100.656105,65,105,41
100.70897,100.78826,65,105,41
100.841125,100.92042,65,105,41
100.97328,101.05258,65,105,41
101.10544,101.18474,69,125,41
101.2376,101.316895,65,105,41
101.36976,101.44905,65,105,41
101.501915,101.581215,65,105,41
101.63408,101.71337,65,105,41
101.766235,101.84553,65,105,41
101.89839,101.97769,69,125,41
102.03055,102.10985,65,105,41
102.16271,102.242004,65,105,41
102.29487,102.37416,65,105,41
102.427025,102.506325,65,105,41
102.55919,102.63848,65,105,41
102.691345,102.77064,69,105,41
102.8235,102.902794,65,105,41
102.95566,103.03496,65,105,41
103.08782,103.167114,65,105,41
103.21998,103.29927,65,105,41
103.352135,103.431435,65,105,41
103.4843,103.56359,69,105,41
103.616455,103.69575,65,105,41
103.74861,103.8279,65,105,41
103.88077,103.96007,65,105,41
104.01293,104.092224,65,105,41
104.14509,104.22438,65,105,41
104.277245,104.356544,69,105,41
104.4094,104.4887,65,105,41
104.541565,104.62086,65,105,41
104.67372,104.75301,65,105,41
104.80588,104.88518,65,105,41
104.93804,105.017334,65,105,41
105.0702,105.202354,67,105,41
105.202354,105.281654,65,105,41
105.33451,105.50594,65,105,41
105.62023,105.79166,53,105,41
106.45597,106.5617,69,105,41
106.588135,106.693855,69,105,41
106.72029,106.93174,69,105,41
107.248924,107.35465,60,92,41
107.38108,107.48681,60,92,41
107.513245,107.72469,60,92,41
108.04188,108.1476,57,80,41
108.174034,108.27976,57,80,41
108.30619,108.51765,57,80,41
108.83482,108.94055,48,70,41
108.96699,109.07271,48,70,41
109.099144,109.3106,48,70,41
109.36346,109.469185,53,63,41
109.49562,109.60135,53,63,41
109.62778,109.733505,53,63,41
109.75993,109.86566,53,63,41
109.8921,110.024254,57,63,41
110.024254,110.12998,53,63,41
110.15641,110.26214,53,63,41
110.28857,110.394295,53,63,41
110.42073,110.52645,53,63,41
110.55289,110.658615,53,63,41
110.68504,110.8172,57,63,41
110.8172,110.92293,53,63,41
110.94936,111.05509,53,63,41
111.08152,111.18725,53,63,41
111.21368,111.319405,53,63,41
111.34584,111.45156,53,63,41
111.478,111.61015,57,63,41
111.61015,111.71588,53,63,41
111.74231,111.84804,53,63,41
111.87447,111.9802,53,63,41
112.00663,112.11236,53,63,41
112.13879,112.244514,53,63,41
112.27095,112.40311,57,63,41
112.40311,112.508835,53,63,41
112.53526,112.64099,53,63,41
112.66742,112.77315,53,63,41
112.79958,112.90531,53,63,41
112.93174,113.03747,53,63,41
113.063896,113.19606,57,63,41
113.19606,113.30178,53,63,41
113.32822,113.433945,53,63,41
113.46037,113.5661,53,63,41
113.59253,113.69826,53,63,41
113.72469,113.830414,53,63,41
113.85685,113.989006,57,63,41
113.989006,114.094734,53,63,41
114.12116,114.23545,53,63,41
114.26402,114.37831,53,63,41
114.40688,114.521164,53,63,41
114.549736,114.664024,53,63,41
114.6926,114.83545,55,63,41
114.83545,114.94974,53,63,41
114.97831,115.23094,48,63,41
115.925674,116.20605,69,105,41
115.925674,116.65465,60,105,41
116.20605,116.65465,65,105,41
116.7668,117.04717,69,105,41
117.04717,117.495766,65,105,41
116.7668,117.495766,60,105,41
117.60792,117.88829,69,105,41
117.60792,118.33689,60,105,41
117.88829,118.33689,65,105,41
118.44904,118.729416,69,105,41
118.44904,118.729416,65,105,41
118.729416,119.17802,60,105,41
119.29016,119.57053,69,70,41
119.57053,119.9911,70,70,41
119.9911,120.10325,67,70,41
120.13129,120.41166,69,70,41
120.41166,120.83222,70,70,41
120.83222,120.94437,67,70,41
120.972404,121.252785,69,63,41
121.252785,121.67334,70,63,41
121.67334,121.78549,67,63,41
121.81353,122.12932,69,63,41
122.12932,122.72932,70,63,41
122.760895,122.901085,69,63,41
122.901085,123.04127,69,63,41
123.04127,123.1855,69,63,41
123.1855,123.329735,69,63,41
123.329735,123.47899,69,63,41
123.47899,123.62077,69,63,41
123.62824,123.78208,69,63,41
123.78208,123.93593,69,63,41
123.93593,124.095505,69,63,41
124.095505,124.25508,69,63,41
124.25508,124.419914,69,63,41
124.419914,124.57651,69,63,41
124.58475,124.75618,69,63,41
124.75618,124.927605,69,63,41
124.927605,125.105125,69,63,41
125.105125,125.28264,69,63,41
125.28264,125.46782,69,63,41
125.46782,125.643745,69,63,41
125.65301,127.55301,69,63,41
128.653,129.45207,72,63,41
129.49413,130.05487,77,63,41
130.05487,130.32123,73,63,41
130.33525,130.896,72,63,41
130.896,131.16235,73,63,41
131.17638,131.70909,77,63,41
132.0175,132.81656,72,63,41
132.85861,133.41937,77,63,41
133.41937,133.68571,73,63,41
133.69974,134.26048,72,63,41
134.26048,134.52684,73,63,41
134.54086,134.98946,68,63,41
135.38199,135.6463,48,92,41
135.6463,135.91061,58,112,41
135.91061,136.16171,56,92,41
136.17493,136.43925,48,92,41
136.43925,136.70357,58,112,41
136.70357,136.95467,56,92,41
136.96788,137.23221,48,92,41
137.23221,137.49652,58,112,41
137.49652,137.74762,56,92,41
137.76083,138.02515,60,92,41
138.02515,138.28947,70,112,41
138.28947,138.54057,68,92,41
138.55379,138.8181,60,92,41
138.8181,139.08243,70,112,41
139.08243,139.33353,68,92,41
139.34674,139.61105,60,92,41
139.61105,139.87537,70,112,41
139.87537,140.12648,68,92,41
140.1397,140.404,60,92,41
140.404,140.66832,70,112,41
140.66832,140.91942,68,92,41
140.93263,141.19696,51,92,41
141.19696,141.46127,61,112,41
141.46127,141.67273,60,92,41
141.72559,141.98991,60,92,41
141.98991,142.25423,67,112,41
142.25423,142.50533,65,92,41
142.51854,142.78285,61,92,41
142.78285,143.04718,68,112,41
143.04718,143.29828,64,80,41
143.3115,143.5758,61,80,41
143.5758,143.84013,63,80,41
143.84013,144.09123,64,80,41
144.10445,144.36876,63,70,41
144.36876,144.63307,70,70,41
144.63307,144.88419,68,70,41
144.8974,145.16171,65,70,41
145.16171,145.29387,64,70,41
145.29387,145.42603,65,70,41
145.42603,145.69035,66,70,41
145.69035,145.95467,67,70,41
145.95467,146.21898,64,70,41
146.21898,146.47008,65,63,41
146.48329,146.76367,61,63,41
146.76367,147.18423,60,63,41
147.18423,147.31741,58,63,41
147.32442,147.92442,56,63,41
148.27179,148.34227,48,39,41
148.3599,148.43037,48,39,41
148.448,148.51848,48,39,41
148.5361,148.60658,53,39,41
148.6242,148.69469,53,39,41
148.71231,148.7828,53,39,41
148.80042,148.87091,55,39,41
148.88852,148.95901,55,39,41
148.97664,149.04712,55,39,41
149.06474,149.13522,56,39,41
149.15285,149.22333,56,39,41
149.24095,149.31143,56,39,41
149.32906,149.39954,55,39,41
149.41716,149.48764,55,39,41
149.50526,149.57574,55,39,41
149.59337,149.66385,53,39,41
149.68147,149.75197,53,39,41
149.76958,149.84007,53,39,41
149.85768,149.92818,56,39,41
149.9458,150.01628,56,39,41
150.0339,150.10439,56,39,41
150.12201,150.19249,60,39,41
150.21011,150.2806,60,39,41
150.29822,150.3687,60,39,41
150.38632,150.4568,58,39,41
150.47443,150.5449,58,39,41
150.56253,150.63301,58,39,41
150.65063,150.72113,56,39,41
150.73874,150.80923,56,39,41
150.82684,150.89734,56,39,41
150.91496,150.98544,55,39,41
151.00307,151.07355,55,39,41
151.09117,151.16165,55,39,41
151.17928,151.24976,53,39,41
151.26738,151.33786,53,39,41
151.35548,151.42596,53,39,41
151.44359,151.51407,51,39,41
151.5317,151.60217,51,39,41
151.6198,151.69029,51,39,41
151.7079,151.7784,53,39,41
151.796,151.8665,53,39,41
151.88412,151.9546,53,39,41
151.97223,152.04271,55,39,41
152.06033,152.13081,55,39,41
152.14844,152.21892,55,39,41
152.23654,152.30702,56,39,41
152.32465,152.39513,56,39,41
152.41275,152.48323,56,39,41
152.50085,152.57135,58,39,41
152.58896,152.65945,58,39,41
152.67706,152.74756,58,39,41
152.76518,152.83566,59,39,41
152.85329,152.92377,59,39,41
152.94139,153.01187,59,39,41
153.0295,153.09998,60,39,41
153.1176,153.18808,60,39,41
153.2057,153.27618,60,39,41
153.29381,153.36429,56,39,41
153.38191,153.4524,56,39,41
153.47002,153.54051,56,39,41
153.55812,153.62862,53,39,41
153.64622,153.71672,53,39,41
153.73434,153.80482,53,39,41
153.82245,153.89293,51,39,41
153.91055,153.98103,51,39,41
153.99866,154.06914,51,39,41
154.08676,154.15724,52,39,41
154.17487,154.24535,52,39,41
154.26297,154.33345,52,39,41
154.35107,154.42155,51,39,41
154.43918,154.50967,51,39,41
154.52728,154.59778,51,39,41
154.61539,154.87971,48,116,41
154.87971,155.14403,50,116,41
155.14403,155.39513,52,116,41
155.40834,155.67267,53,116,41
155.67267,155.93698,55,116,41
155.93698,156.06914,56,124,41
156.06914,156.19469,65,124,41
156.2013,156.72993,64,124,41
156.72993,156.98103,65,124,41
156.99425,157.25856,60,124,41
157.25856,157.52289,58,124,41
157.52289,157.77399,56,124,41
157.7872,158.31583,56,124,41
158.31583,158.56694,52,124,41
158.58015,158.84447,53,124,41
158.84447,159.10878,55,124,41
159.10878,159.24094,56,124,41
159.24094,159.36649,65,124,41
159.3731,159.90173,63,124,41
159.90173,160.03389,65,124,41
160.03389,160.15944,53,124,41
160.16605,160.66826,53,116,41
160.959,161.22331,51,124,41
161.22331,161.48764,52,124,41
161.48764,161.73874,51,124,41
161.75195,162.2806,51,105,41
162.2806,162.5317,48,105,41
162.5449,163.07353,49,92,41
163.07353,163.32465,48,92,41
163.33786,163.60217,58,80,41
163.60217,163.86649,56,80,41
163.86649,164.11758,55,70,41
164.13081,164.39629,56,70,41
164.39629,164.66779,55,70,41
164.66779,164.9329,51,70,41
164.94685,165.52669,49,63,41
165.52669,165.67744,48,63,41
165.67744,165.79805,58,63,41
165.8282,166.13747,58,63,41
166.13747,166.45662,56,63,41
166.45662,166.78448,55,63,41
166.78448,167.33087,56,63,41
165.8282,167.33087,48,63,41
171.37416,171.63847,57,63,41
171.63847,172.03496,58,83,41
172.03496,172.14069,55,63,41
172.16711,172.43143,57,63,41
172.43143,172.82791,58,83,41
172.82791,172.93364,55,63,41
172.96007,173.22438,57,63,41
173.22438,173.62086,58,83,41
173.62086,173.72658,55,63,41
173.75302,173.96448,57,63,41
174.54597,174.65169,60,105,41
174.81029,175.12747,65,125,41
175.20676,175.31248,62,105,41
175.33891,175.44464,60,105,41
175.47108,175.5768,62,105,41
175.60324,175.81468,65,105,41
176.13187,176.2376,60,105,41
176.3962,176.71336,65,125,41
176.79266,176.89839,62,105,41
176.92482,177.03055,60,105,41
177.05698,177.1627,62,105,41
177.18913,177.40059,57,105,41
177.71777,177.98209,69,63,41
177.98209,178.37857,70,83,41
178.37857,178.4843,67,63,41
178.51073,178.77504,69,63,41
178.77504,179.17151,70,83,41
179.17151,179.27724,67,63,41
179.30368,179.568,69,63,41
179.568,179.96446,70,83,41
179.96446,180.07019,67,63,41
180.09662,180.3252,69,63,41
181.21808,181.30399,69,116,41
181.21808,181.30399,62,116,41
181.35023,181.43614,62,116,41
181.35023,181.43614,69,116,41
181.4824,181.5683,69,116,41
181.4824,181.5683,62,116,41
182.01103,182.09694,65,116,41
182.01103,182.09694,72,116,41
182.14319,182.2291,72,116,41
182.14319,182.2291,65,116,41
182.27534,182.36125,72,116,41
182.27534,182.36125,65,116,41
184.12556,184.21147,65,63,41
184.25774,184.34363,65,63,41
184.3899,184.47578,65,63,41
184.52205,184.60796,65,63,41
184.6542,184.78636,69,63,41
184.78636,184.87227,65,63,41
184.91852,185.00443,65,63,41
185.05067,185.13658,65,63,41
185.18285,185.26874,65,63,41
185.315,185.4009,65,63,41
185.44716,185.57932,69,63,41
185.57932,185.66522,65,63,41
185.71147,185.79738,65,63,41
185.84363,185.92953,65,63,41
185.97578,186.06169,65,63,41
186.10796,186.19385,65,63,41
186.24011,186.37227,69,63,41
186.37227,186.45818,65,63,41
186.50443,186.63658,69,63,41
186.63658,186.72249,65,63,41
186.76874,186.85464,65,63,41
186.9009,186.9868,65,63,41
187.03305,187.16522,69,63,41
187.16522,187.25111,65,63,41
187.29738,187.38329,65,63,41
187.42953,187.51544,65,63,41
187.56169,187.6476,65,63,41
187.69385,187.77975,65,63,41
187.826,187.95816,69,63,41
187.95816,188.04407,65,63,41
188.09033,188.17622,65,63,41
188.22249,188.30838,65,63,41
188.35464,188.44055,65,63,41
188.4868,188.57271,65,63,41
188.61896,188.75111,69,63,41
188.75111,188.83702,65,63,41
188.88327,188.96918,65,63,41
189.01544,189.10133,65,63,41
189.1476,189.23349,65,63,41
189.27975,189.36566,65,63,41
189.41191,189.54407,67,63,41
189.54407,189.62997,65,63,41
189.67622,189.84766,65,63,41
189.96194,190.13338,53,63,41
191.32632,191.40561,60,63,41
191.45848,191.53778,62,63,41
191.59064,191.74922,57,63,41
192.11928,192.19856,48,92,41
192.25143,192.33072,50,92,41
192.38359,192.54218,53,92,41
193.17654,193.25583,53,92,41
193.17654,193.25583,60,92,41
193.3087,193.388,60,92,41
193.3087,193.388,53,92,41
193.44086,193.52016,53,92,41
193.44086,193.52016,60,92,41
193.70517,193.78447,53,105,41
193.83733,193.91663,53,105,41
193.9695,194.04878,53,105,41
194.10165,194.18094,53,105,41
194.23381,194.36597,57,105,41
194.36597,194.44527,53,105,41
194.49812,194.57742,53,105,41
194.63028,194.70958,53,105,41
194.76244,194.84174,53,105,41
194.8946,194.97389,53,105,41
195.02676,195.15892,57,105,41
195.15892,195.23822,53,105,41
195.29108,195.37038,53,105,41
195.42323,195.50253,53,105,41
195.55539,195.63469,53,105,41
195.68755,195.76685,53,105,41
195.81972,195.95187,57,105,41
195.95187,196.03116,53,105,41
196.08403,196.21619,57,105,41
196.21619,196.29549,53,105,41
196.34834,196.42764,53,105,41
196.4805,196.5598,53,105,41
196.61266,196.74481,57,105,41
196.74481,196.82411,53,105,41
196.87698,196.95627,53,105,41
197.00914,197.08842,53,105,41
197.1413,197.2206,53,105,41
197.27345,197.35275,53,105,41
197.40561,197.53777,57,105,41
197.53777,197.61707,53,105,41
197.66992,197.74922,53,105,41
197.8021,197.88138,53,105,41
197.93425,198.01353,53,105,41
198.0664,198.1457,53,105,41
198.19856,198.33072,57,105,41
198.33072,198.41002,53,105,41
198.46288,198.547,53,105,41
198.60307,198.68718,53,105,41
198.74326,198.83148,53,105,41
198.89032,198.97855,53,105,41
199.03737,199.19122,55,105,41
199.19122,199.28352,53,105,41
199.34506,199.60452,48,105,41
200.37369,200.7583,60,80,41
200.7583,201.14291,62,100,41
201.14291,201.5083,53,80,41
201.52754,202.29677,57,80,41
202.29677,202.66216,62,80,41
202.68138,203.066,60,80,41
203.066,203.4506,62,100,41
203.4506,203.816,53,80,41
203.83522,204.02753,65,100,41
204.02753,204.21983,62,80,41
204.21983,204.9506,60,80,41
204.98907,205.37369,57,63,41
205.37369,205.97652,58,83,41
205.97652,206.1409,55,63,41
206.18199,206.60753,57,63,41
206.60753,207.27597,58,83,41
207.27597,207.4578,55,63,41
207.50325,207.9757,57,63,41
207.9757,208.7239,58,83,41
208.7239,208.92903,55,63,41
208.98032,210.09018,57,63,41
210.12483,211.4347,60,63,41
0.792951,0.8986778,60,105,42
1.057268,1.3744484,65,125,42
1.4537435,1.5594703,62,105,42
1.585902,1.6916288,60,105,42
1.7180605,1.8237873,62,105,42
1.850219,2.0616727,65,105,42
2.378853,2.4845798,60,105,42
2.64317,2.9603505,65,125,42
3.0396454,3.1453724,62,105,42
3.171804,3.277531,60,105,42
3.3039625,3.4096892,62,105,42
3.436121,3.6475747,57,105,42
3.964755,4.466957,48,63,42
4.493389,4.7048426,36,63,42
4.757706,5.259908,48,63,42
5.28634,5.4977937,36,63,42
5.550657,6.0528593,48,63,42
6.079291,6.290745,36,63,42
6.343608,6.555062,41,63,42
8.193827,8.273122,57,125,42
8.193827,8.273122,50,125,42
8.325986,8.405281,50,105,42
8.325986,8.405281,57,105,42
8.458144,8.537439,57,105,42
8.458144,8.537439,50,105,42
9.779729,9.859024,60,125,42
9.779729,9.859024,53,125,42
9.911887,9.991182,53,105,42
9.911887,9.991182,60,105,42
10.044046,10.123342,60,105,42
10.044046,10.123342,53,105,42
10.308363,10.810565,60,63,42
10.836997,11.04845,48,63,42
11.101314,11.603517,60,63,42
11.629948,11.841402,48,63,42
11.894265,12.396467,60,63,42
12.422899,12.634353,48,63,42
12.687216,12.845806,53,70,42
12.951533,13.030828,50,70,42
13.083692,13.162987,48,70,42
13.21585,13.321577,41,70,42
15.330386,15.416289,50,92,42
15.330386,15.416289,57,92,42
15.462544,15.548448,57,92,42
15.462544,15.548448,50,92,42
15.594703,15.680606,57,92,42
15.594703,15.680606,50,92,42
16.123337,16.20924,53,92,42
16.123337,16.20924,60,92,42
16.255495,16.341398,53,92,42
16.255495,16.341398,60,92,42
16.387653,16.473557,60,92,42
16.387653,16.473557,53,92,42
16.651972,16.737873,60,83,42
16.78413,16.870033,62,63,42
16.916288,17.12774,57,63,42
17.444921,17.530825,60,83,42
17.57708,17.662983,62,63,42
17.709238,17.920692,57,63,42
18.237873,18.323776,60,83,42
18.370031,18.455935,62,63,42
18.50219,18.713644,57,63,42
19.030825,19.116728,60,83,42
19.162983,19.248886,62,63,42
19.295141,19.506594,57,63,42
19.823774,19.909678,60,83,42
19.955933,20.041836,62,63,42
20.088093,20.299545,57,63,42
20.616726,20.70263,60,83,42
20.748884,20.834787,62,63,42
20.881042,21.092497,57,63,42
21.409678,21.49558,60,83,42
21.541836,21.627739,62,63,42
21.673994,21.885448,57,63,42
21.93831,22.070469,55,63,42
22.070469,22.176197,53,63,42
22.202627,22.361217,53,63,42
22.466946,22.625536,41,63,42
25.374432,25.453728,48,92,42
25.50659,25.585886,50,92,42
25.638748,25.797338,45,92,42
26.167383,26.4317,45,116,42
26.4317,26.643154,41,116,42
26.828175,26.90747,36,116,42
26.960335,27.224651,36,116,42
27.224651,27.35681,43,116,42
27.35681,27.462536,41,116,42
27.621126,27.700422,41,116,42
27.753284,28.017603,45,116,42
28.017603,28.28192,41,116,42
28.28192,28.414078,40,116,42
28.414078,28.546236,38,116,42
28.546236,28.75769,41,116,42
29.07487,29.23346,41,116,42
29.339188,29.603504,45,116,42
29.603504,29.814957,41,116,42
29.999979,30.079275,36,116,42
30.132137,30.396456,36,116,42
30.396456,30.528614,43,116,42
30.528614,30.63434,41,116,42
30.79293,30.872225,41,116,42
30.925089,31.189405,45,116,42
31.189405,31.453724,41,116,42
31.453724,31.585882,40,116,42
31.585882,31.71804,38,116,42
31.71804,32.251373,41,116,42
32.71804,33.102654,53,80,42
33.102654,33.833424,50,100,42
33.871883,34.2565,53,80,42
34.2565,34.987267,50,100,42
35.02573,35.410343,53,100,42
35.410343,36.141113,50,80,42
36.179573,36.56419,50,80,42
36.56419,37.294956,53,100,42
37.33342,38.481014,48,63,42
38.518177,39.76415,48,63,42
39.80459,41.1674,48,63,42
41.211758,43.78511,41,63,42
51.800285,52.569008,60,105,42
52.59324,53.121872,65,105,42
53.121872,53.37848,61,105,42
53.38619,53.91482,60,105,42
53.91482,54.171432,61,105,42
54.17914,54.94786,65,105,42
54.97209,55.740814,60,105,42
55.76504,56.293674,65,105,42
56.293674,56.550285,61,105,42
56.557995,57.086628,60,105,42
57.086628,57.343235,61,105,42
57.350945,57.77385,56,105,42
58.143894,58.912617,56,105,42
58.936848,59.46548,58,105,42
59.46548,59.722088,56,92,42
59.729797,60.25843,55,92,42
60.25843,60.515038,56,92,42
60.522747,61.29147,60,92,42
61.3157,62.08442,56,70,42
62.10865,62.637283,58,70,42
62.637283,62.89389,55,70,42
62.9016,63.710205,53,63,42
63.710205,64.16735,41,63,42
64.567345,65.33607,60,63,42
65.3603,65.88893,65,63,42
65.88893,66.14554,61,63,42
66.15325,66.681885,60,63,42
66.681885,66.93849,61,63,42
66.9462,67.71492,65,63,42
67.73915,68.50787,60,63,42
68.532104,69.06074,65,63,42
69.06074,69.317345,61,63,42
69.32505,69.85368,60,63,42
69.85368,70.1103,61,63,42
70.118004,70.752365,56,63,42
70.91096,70.99686,41,125,42
71.04311,71.12901,41,105,42
71.43959,71.52549,44,125,42
71.57175,71.65765,44,105,42
71.7039,71.78981,37,125,42
71.83607,71.92197,37,105,42
72.23254,72.31844,44,125,42
72.3647,72.4506,44,105,42
72.49686,72.58276,41,125,42
72.62901,72.71492,41,105,42
73.02549,73.1114,44,125,42
73.157646,73.24355,44,105,42
73.28981,73.37571,37,125,42
73.42197,73.507866,37,105,42
73.81844,73.90434,44,125,42
73.9506,74.03651,44,105,42
74.082756,74.16866,41,125,42
74.21492,74.30082,41,105,42
74.6114,74.697296,44,125,42
74.74355,74.82945,44,105,42
74.87571,74.96162,37,125,42
75.007866,75.09377,37,105,42
75.40434,75.49025,44,125,42
75.5365,75.622406,44,105,42
75.66866,75.75456,41,125,42
75.80082,75.88672,41,105,42
76.197296,76.283195,44,125,42
76.32945,76.41536,44,105,42
76.46161,76.547516,48,125,42
76.59377,76.67967,48,105,42
76.99025,77.07615,44,125,42
77.122406,77.208305,44,105,42
77.25456,77.34047,49,125,42
77.38672,77.472626,49,105,42
77.783195,77.8691,49,105,42
77.91535,78.00126,49,105,42
78.047516,78.133415,37,92,42
78.17967,78.26558,37,92,42
78.57615,78.66205,37,92,42
78.708305,78.79421,37,92,42
78.84046,78.92637,37,80,42
78.972626,79.058525,37,80,42
79.3691,79.455,37,80,42
79.50126,79.58716,37,80,42
79.633415,79.71932,44,70,42
79.76557,79.85148,44,70,42
80.16205,80.247955,44,70,42
80.294205,80.38011,44,70,42
80.42637,80.51227,48,70,42
80.558525,80.64443,48,70,42
80.955,81.0409,48,70,42
81.08716,81.173065,48,70,42
81.219315,81.30522,36,63,42
81.35148,81.43738,36,63,42
81.747955,81.833855,36,63,42
81.88011,81.96601,36,63,42
82.01227,82.05522,41,63,42
82.07835,82.1213,41,63,42
82.27659,82.319916,41,63,42
82.343254,82.38659,41,63,42
82.54325,82.58717,41,63,42
82.61082,82.65474,41,63,42
82.81352,82.85784,41,63,42
82.88171,82.926025,41,63,42
83.08625,83.13118,41,63,42
83.15537,83.2003,41,63,42
83.36275,83.4081,41,63,42
83.43252,83.47787,41,63,42
83.924835,84.03056,48,70,42
84.189156,84.50633,53,90,42
84.58563,84.69135,50,70,42
84.71779,84.82352,48,70,42
84.849945,84.95567,50,70,42
84.9821,85.19356,53,70,42
85.51074,85.61646,48,70,42
85.775055,86.09224,53,90,42
86.17153,86.27726,50,70,42
86.30369,86.40942,48,70,42
86.43585,86.54157,50,70,42
86.56801,86.77946,45,70,42
87.09664,87.360954,41,70,42
87.360954,87.625275,43,70,42
87.625275,87.75743,38,70,42
87.75743,87.86316,40,70,42
87.889595,88.15391,41,70,42
88.15391,88.41823,43,70,42
88.41823,88.550385,38,70,42
88.550385,88.65611,40,70,42
88.68254,88.94686,41,70,42
88.94686,89.211174,43,70,42
89.211174,89.34334,38,70,42
89.34334,89.44906,40,70,42
89.475494,89.68695,41,70,42
96.61205,96.71778,48,70,42
96.74421,96.84994,50,70,42
96.87637,97.08782,53,70,42
97.40501,97.510735,48,92,42
97.53716,97.64289,50,92,42
97.66932,97.880775,45,92,42
98.19795,98.30368,60,105,42
98.33012,98.43584,62,105,42
98.46227,98.67373,65,105,42
98.990906,99.096634,60,116,42
99.12306,99.22879,62,116,42
99.255226,99.466675,57,116,42
99.78386,99.86976,60,105,42
99.916016,100.001915,62,105,42
100.04817,100.25963,57,105,42
100.576805,100.66271,60,105,42
100.70897,100.79487,62,105,42
100.841125,101.05258,57,105,42
101.36976,101.455666,60,105,42
101.501915,101.58782,62,105,42
101.63408,101.84553,57,105,42
102.16271,102.24861,60,105,42
102.29487,102.38077,62,105,42
102.427025,102.63848,57,105,42
102.95566,103.041565,60,105,42
103.08782,103.17372,62,105,42
103.21998,103.431435,57,105,42
103.74861,103.83452,60,105,42
103.88077,103.966675,62,105,42
104.01293,104.22438,57,105,42
104.541565,104.627464,60,105,42
104.67372,104.75963,62,105,42
104.80588,105.017334,57,105,42
105.0702,105.202354,55,105,42
105.202354,105.30808,53,105,42
105.33451,105.50594,53,105,42
105.62023,105.79166,41,105,42
106.45597,106.5617,62,105,42
106.588135,106.693855,62,105,42
106.72029,106.93174,62,105,42
107.248924,107.35465,53,92,42
107.38108,107.48681,53,92,42
107.513245,107.72469,53,92,42
108.04188,108.1476,50,80,42
108.174034,108.27976,50,80,42
108.30619,108.51765,50,80,42
108.83482,108.94055,41,70,42
108.96699,109.07271,41,70,42
109.099144,109.3106,41,70,42
109.36346,109.62778,45,70,42
109.62778,109.83923,41,70,42
110.024254,110.12998,36,70,42
110.15641,110.42073,36,70,42
110.42073,110.55289,43,70,42
110.55289,110.658615,41,70,42
110.8172,110.92293,41,70,42
110.94936,111.21368,45,70,42
111.21368,111.42513,41,70,42
111.478,111.61015,40,70,42
111.61015,111.74231,38,70,42
111.74231,111.953766,41,70,42
112.27095,112.4824,41,70,42
112.53526,112.79958,45,70,42
112.79958,113.01103,41,70,42
113.19606,113.30178,36,70,42
113.32822,113.59253,36,70,42
113.59253,113.72469,43,70,42
113.72469,113.830414,41,70,42
113.989006,114.094734,41,70,42
114.12116,114.40688,45,70,42
114.40688,114.63545,41,70,42
114.6926,114.83545,40,70,42
114.83545,114.97831,38,70,42
114.97831,115.483574,41,70,42
115.925674,116.20605,53,116,42
116.20605,116.65465,50,116,42
116.7668,117.04717,53,116,42
117.04717,117.495766,50,116,42
117.60792,117.88829,53,116,42
117.88829,118.33689,50,116,42
118.44904,118.729416,50,116,42
118.729416,119.17802,53,116,42
119.29016,120.089226,62,70,42
120.13129,120.93035,62,70,42
120.972404,121.77147,62,63,42
121.81353,122.12932,62,63,42
122.12932,122.72932,60,63,42
122.760895,123.04127,65,70,42
123.04127,123.47899,62,70,42
123.47899,123.62077,60,70,42
123.62824,123.93593,57,70,42
123.93593,124.25508,53,70,42
124.25508,124.747604,50,70,42
124.75618,124.91904,48,70,42
124.927605,125.46782,45,70,42
125.46782,125.65301,43,70,42
125.65301,127.55301,41,70,42
128.653,129.45207,60,63,42
129.49413,130.05487,65,63,42
130.05487,130.32123,61,63,42
130.33525,130.896,60,63,42
130.896,131.16235,61,63,42
131.17638,131.70909,65,63,42
132.0175,132.81656,60,63,42
132.85861,133.41937,65,63,42
133.41937,133.68571,61,63,42
133.69974,134.26048,60,63,42
134.26048,134.52684,61,63,42
134.54086,134.98946,56,63,42
135.38199,135.48772,44,83,42
135.58022,135.63309,43,105,42
135.6463,135.75203,43,105,42
135.84454,135.8974,41,105,42
135.91061,136.12207,41,105,42
136.17493,136.28065,44,125,42
136.37317,136.42604,43,105,42
136.43925,136.54498,43,105,42
136.63748,136.69035,41,105,42
136.70357,136.91502,41,105,42
136.96788,137.07361,44,125,42
137.16612,137.21898,43,105,42
137.23221,137.33794,43,105,42
137.43044,137.4833,41,105,42
137.49652,137.70798,41,105,42
137.76083,137.86656,44,125,42
137.95908,138.01193,43,105,42
138.02515,138.13087,43,105,42
138.22339,138.27626,41,105,42
138.28947,138.50093,41,105,42
138.55379,138.65952,44,125,42
138.75203,138.80489,43,105,42
138.8181,138.92383,43,105,42
139.01634,139.0692,41,105,42
139.08243,139.29387,41,105,42
139.34674,139.45247,44,125,42
139.54498,139.59784,43,105,42
139.61105,139.71678,43,105,42
139.8093,139.86215,41,105,42
139.87537,140.08682,41,105,42
140.1397,140.24542,44,125,42
140.33792,140.3908,43,105,42
140.404,140.50974,43,105,42
140.60225,140.6551,41,105,42
140.66832,140.87978,41,105,42
140.93263,141.03836,48,125,42
141.13087,141.18375,46,105,42
141.19696,141.30269,46,105,42
141.39519,141.44806,44,105,42
141.46127,141.67273,44,105,42
141.72559,141.83131,41,125,42
141.92383,141.97668,39,105,42
141.98991,142.09564,39,105,42
142.18814,142.24101,37,105,42
142.25423,142.46568,37,105,42
142.51854,142.62427,40,125,42
142.71678,142.76964,39,105,42
142.78285,142.88858,39,105,42
142.9811,143.03397,37,92,42
143.04718,143.25864,37,92,42
143.3115,143.41722,40,92,42
143.50974,143.56259,39,92,42
143.5758,143.68153,39,92,42
143.77405,143.8269,37,92,42
143.84013,144.05157,37,92,42
144.10445,144.21017,44,80,42
144.30269,144.35555,43,80,42
144.36876,144.47449,43,80,42
144.567,144.61986,41,80,42
144.63307,144.84453,41,80,42
144.8974,145.00313,53,80,42
145.09563,145.1485,49,80,42
145.16171,145.26744,49,80,42
145.35995,145.41281,48,80,42
145.42603,145.63748,48,80,42
145.69035,145.79607,49,80,42
145.88858,145.94145,48,80,42
145.95467,146.0604,48,80,42
146.15291,146.20576,47,70,42
146.21898,146.3247,47,70,42
146.41722,146.47008,46,70,42
146.48329,146.59544,46,70,42
146.69357,146.74965,45,70,42
146.76367,146.87582,45,70,42
146.97395,147.03003,44,70,42
147.04405,147.15619,44,70,42
147.25432,147.3104,43,63,42
147.32442,147.45073,43,63,42
147.56126,147.62442,41,63,42
147.64021,147.89284,41,63,42
148.27179,148.34227,36,39,42
148.3599,148.43037,36,39,42
148.448,148.51848,36,39,42
148.5361,148.60658,41,39,42
148.6242,148.69469,41,39,42
148.71231,148.7828,41,39,42
148.80042,148.87091,43,39,42
148.88852,148.95901,43,39,42
148.97664,149.04712,43,39,42
149.06474,149.13522,44,39,42
149.15285,149.22333,44,39,42
149.24095,149.31143,44,39,42
149.32906,149.39954,43,39,42
149.41716,149.48764,43,39,42
149.50526,149.57574,43,39,42
149.59337,149.66385,41,39,42
149.68147,149.75197,41,39,42
149.76958,149.84007,41,39,42
149.85768,149.92818,44,39,42
149.9458,150.01628,44,39,42
150.0339,150.10439,44,39,42
150.12201,150.19249,48,39,42
150.21011,150.2806,48,39,42
150.29822,150.3687,48,39,42
150.38632,150.4568,46,39,42
150.47443,150.5449,46,39,42
150.56253,150.63301,46,39,42
150.65063,150.72113,44,39,42
150.73874,150.80923,44,39,42
150.82684,150.89734,44,39,42
150.91496,150.98544,43,39,42
151.00307,151.07355,43,39,42
151.09117,151.16165,43,39,42
151.17928,151.24976,41,39,42
151.26738,151.33786,41,39,42
151.35548,151.42596,41,39,42
151.44359,151.51407,39,39,42
151.5317,151.60217,39,39,42
151.6198,151.69029,39,39,42
151.7079,151.7784,41,39,42
151.796,151.8665,41,39,42
151.88412,151.9546,41,39,42
151.97223,152.04271,43,39,42
152.06033,152.13081,43,39,42
152.14844,152.21892,43,39,42
152.23654,152.30702,44,39,42
152.32465,152.39513,44,39,42
152.41275,152.48323,44,39,42
152.50085,152.57135,46,39,42
152.58896,152.65945,46,39,42
152.67706,152.74756,46,39,42
152.76518,152.83566,47,39,42
152.85329,152.92377,47,39,42
152.94139,153.01187,47,39,42
153.0295,153.09998,48,39,42
153.1176,153.18808,48,39,42
153.2057,153.27618,48,39,42
153.29381,153.36429,44,39,42
153.38191,153.4524,44,39,42
153.47002,153.54051,44,39,42
153.55812,153.62862,41,39,42
153.64622,153.71672,41,39,42
153.73434,153.80482,41,39,42
153.82245,153.89293,44,39,42
153.91055,153.98103,44,39,42
153.99866,154.06914,44,39,42
154.08676,154.15724,44,39,42
154.17487,154.24535,44,39,42
154.26297,154.33345,44,39,42
154.35107,154.42155,44,39,42
154.43918,154.50967,44,39,42
154.52728,154.59778,44,39,42
154.61539,154.82684,48,127,42
154.87971,154.98544,48,116,42
155.01187,155.1176,48,116,42
155.14403,155.24976,48,116,42
155.27618,155.38191,48,116,42
155.40834,155.6198,53,127,42
155.67267,155.77838,53,116,42
155.80482,155.91055,53,116,42
155.93698,156.04271,49,116,42
156.06914,156.17487,49,116,42
156.2013,156.41275,48,127,42
156.4656,156.57133,48,116,42
156.59778,156.70349,48,116,42
156.72993,156.83566,49,116,42
156.86209,156.96782,49,116,42
156.99425,157.09998,53,127,42
157.1264,157.23213,53,116,42
157.25856,157.47002,53,116,42
157.7872,157.99866,48,127,42
158.05151,158.15724,48,116,42
158.18367,158.2894,48,116,42
158.31583,158.42155,48,116,42
158.448,158.55371,48,116,42
158.58015,158.7916,53,127,42
158.84447,158.9502,53,116,42
158.97662,159.08235,53,116,42
159.10878,159.21451,49,116,42
159.24094,159.34666,49,116,42
159.3731,159.58455,48,127,42
159.63742,159.74315,48,116,42
159.76958,159.8753,48,116,42
159.90173,160.00746,49,116,42
160.03389,160.13962,49,116,42
160.16605,160.27177,44,127,42
160.2982,160.40393,44,116,42
160.43037,160.64182,44,116,42
160.959,161.17046,44,127,42
161.22331,161.32904,44,116,42
161.35548,161.4612,44,116,42
161.48764,161.59337,44,105,42
161.6198,161.72552,44,105,42
161.75195,161.96341,46,125,42
162.01627,162.122,44,92,42
162.14842,162.25415,44,92,42
162.2806,162.3863,44,80,42
162.41275,162.51848,44,80,42
162.5449,162.75636,43,100,42
162.80922,162.91495,43,80,42
162.94138,163.0471,43,80,42
163.07353,163.17926,44,70,42
163.2057,163.31142,44,70,42
163.33786,163.44359,48,70,42
163.47002,163.57574,48,70,42
163.60217,163.81363,48,70,42
164.13081,164.3432,44,63,42
164.39629,164.50488,44,63,42
164.53204,164.64064,44,63,42
164.66779,164.77942,44,63,42
164.80733,164.91895,44,63,42
164.94685,165.17543,46,63,42
165.23257,165.35022,46,63,42
165.37962,165.49727,46,63,42
165.52669,165.6473,43,63,42
165.67744,165.79805,43,63,42
165.8282,166.07562,41,63,42
166.13747,166.26514,41,63,42
166.29704,166.42471,41,63,42
166.45662,166.58777,41,63,42
166.62056,166.75171,41,63,42
166.78448,167.33087,41,63,42
168.20236,168.30809,60,105,42
168.46667,168.78386,65,125,42
168.86316,168.96887,62,105,42
168.99532,169.10104,60,105,42
169.12747,169.2332,62,105,42
169.25963,169.47108,65,105,42
169.78827,169.89398,60,105,42
170.05258,170.36977,65,125,42
170.44905,170.55478,62,105,42
170.5812,170.68694,60,105,42
170.71338,170.81909,62,105,42
170.84554,171.05698,57,105,42
171.37416,171.87637,48,63,42
171.9028,172.11426,36,63,42
172.16711,172.66931,48,63,42
172.69576,172.9072,36,63,42
172.96007,173.46227,48,63,42
173.4887,173.70015,36,63,42
173.75302,173.96448,41,63,42
175.60324,175.68253,57,125,42
175.60324,175.68253,50,125,42
175.7354,175.81468,50,105,42
175.7354,175.81468,57,105,42
175.86755,175.94685,57,105,42
175.86755,175.94685,50,105,42
177.18913,177.26843,53,125,42
177.18913,177.26843,60,125,42
177.32129,177.40059,60,105,42
177.32129,177.40059,53,105,42
177.45346,177.53275,53,105,42
177.45346,177.53275,60,105,42
177.71777,178.21997,60,63,42
178.2464,178.45786,48,63,42
178.51073,179.01292,60,63,42
179.03935,179.25081,48,63,42
179.30368,179.80588,60,63,42
179.8323,180.04376,48,63,42
180.09662,180.26805,53,70,42
180.38234,180.46805,50,70,42
180.52519,180.61092,48,70,42
180.66806,180.78233,41,70,42
182.80399,182.8899,57,92,42
182.80399,182.8899,50,92,42
182.93614,183.02205,50,92,42
182.93614,183.02205,57,92,42
183.0683,183.1542,57,92,42
183.0683,183.1542,50,92,42
183.59694,183.68285,60,92,42
183.59694,183.68285,53,92,42
183.7291,183.815,60,92,42
183.7291,183.815,53,92,42
183.86125,183.94716,53,92,42
183.86125,183.94716,60,92,42
184.12556,184.21147,60,83,42
184.25774,184.34363,62,63,42
184.3899,184.60135,57,63,42
184.91852,185.00443,60,83,42
185.05067,185.13658,62,63,42
185.18285,185.39429,57,63,42
185.71147,185.79738,60,83,42
185.84363,185.92953,62,63,42
185.97578,186.18724,57,63,42
186.50443,186.59033,60,83,42
186.63658,186.72249,62,63,42
186.76874,186.9802,57,63,42
187.29738,187.38329,60,83,42
187.42953,187.51544,62,63,42
187.56169,187.77315,57,63,42
188.09033,188.17622,60,83,42
188.22249,188.30838,62,63,42
188.35464,188.5661,57,63,42
188.88327,188.96918,60,83,42
189.01544,189.10133,62,63,42
189.1476,189.35905,57,63,42
189.41191,189.54407,55,63,42
189.54407,189.6498,53,63,42
189.67622,189.84766,53,63,42
189.96194,190.13338,41,63,42
192.91222,192.99152,48,92,42
193.04439,193.12367,50,92,42
193.17654,193.33513,45,92,42
193.70517,193.9695,45,116,42
193.9695,194.18094,41,116,42
194.36597,194.44527,36,116,42
194.49812,194.76244,36,116,42
194.76244,194.8946,43,116,42
194.8946,195.00032,41,116,42
195.15892,195.23822,41,116,42
195.29108,195.55539,45,116,42
195.55539,195.81972,41,116,42
195.81972,195.95187,40,116,42
195.95187,196.08403,38,116,42
196.08403,196.29549,41,116,42
196.61266,196.77126,41,116,42
196.87698,197.1413,45,116,42
197.1413,197.35275,41,116,42
197.53777,197.61707,36,116,42
197.66992,197.93425,36,116,42
197.93425,198.0664,43,116,42
198.0664,198.17213,41,116,42
198.33072,198.41002,41,116,42
198.46288,198.74326,45,116,42
198.74326,199.03737,41,116,42
199.03737,199.19122,40,116,42
199.19122,199.34506,38,116,42
199.34506,199.8751,41,116,42
200.37369,200.7583,53,80,42
200.7583,201.48907,50,100,42
201.52754,201.91216,53,80,42
201.91216,202.64291,50,100,42
202.68138,203.066,53,100,42
203.066,203.79677,50,80,42
203.83522,204.21983,50,80,42
204.21983,204.9506,53,100,42
204.98907,206.14432,48,63,42
206.18199,207.46158,48,63,42
207.50325,208.9333,48,63,42
208.98032,211.45529,41,63,42
215.4554,216.37846,41,1,42
91.325714,91.43144,62,70,45
91.45787,91.5636,57,70,45
91.59003,91.80148,50,70,45
92.91161,93.01734,53,70,45
93.04377,93.1495,48,70,45
93.175934,93.38738,41,70,45
93.70457,93.810295,50,63,45
93.83672,93.94245,45,63,45
93.96888,94.180336,38,63,45
94.49752,94.60324,62,63,45
94.62968,94.735405,57,63,45
94.76183,94.97329,50,63,45
95.29047,95.396194,50,63,45
95.42263,95.52835,45,63,45
95.55479,95.766235,38,63,45
95.8191,96.030556,50,63,45
96.08342,96.294876,38,63,45
