start_time,end_time,note_value,velocity,instrument_program_number
3.94737,4.184212,72,110,40
4.243423,4.3026333,74,70,40
4.342107,4.460528,77,70,40
4.5394754,4.6578965,74,70,40
4.736844,4.855265,72,70,40
4.9342127,5.052634,69,70,40
5.131581,5.250002,65,70,40
5.3289495,5.4473705,62,70,40
5.526318,5.76316,62,110,40
5.8223705,5.8815813,62,70,40
5.921055,6.039476,62,70,40
6.1184235,6.2368445,62,70,40
6.315792,6.434213,62,70,40
6.5131607,6.631582,62,70,40
6.710529,6.82895,62,70,40
6.9078975,7.0263186,72,70,40
7.105266,7.3421082,72,110,40
7.4013186,7.4605293,74,70,40
7.500003,7.618424,77,70,40
7.6973715,7.8157926,74,70,40
7.89474,8.013161,72,70,40
8.092109,8.210529,69,70,40
8.289477,8.407898,65,70,40
8.486846,8.605267,62,70,40
8.684214,8.921056,62,110,40
8.980267,9.039477,62,70,40
9.078951,9.197372,62,70,40
9.2763195,9.394741,62,70,40
9.473688,9.592109,62,70,40
9.671057,9.789477,62,70,40
9.868425,9.986846,62,70,40
10.065793,10.184215,72,70,40
10.263162,10.500004,72,110,40
10.559215,10.618425,74,70,40
10.657899,10.77632,77,70,40
10.855268,10.973688,74,70,40
11.052636,11.171057,72,70,40
11.250005,11.368425,69,70,40
11.447373,11.565794,65,70,40
11.644741,11.763163,62,70,40
11.84211,12.078952,72,110,40
12.138163,12.197373,74,70,40
12.236847,12.3552685,77,70,40
12.434216,12.552636,74,70,40
12.631584,12.750005,72,70,40
12.828953,12.947373,69,80,40
13.026321,13.144742,65,80,40
13.223689,13.342111,62,80,40
13.421058,13.6579,72,120,40
13.717111,13.771387,74,80,40
13.815795,13.924348,77,80,40
14.013164,14.1217165,74,92,40
14.210532,14.447374,72,127,40
14.506585,14.560861,74,92,40
14.605269,14.713821,77,92,40
14.802637,14.91119,74,92,40
15.000006,15.236848,72,127,40
15.296059,15.350335,74,92,40
15.394743,15.503296,77,92,40
15.592112,15.7006645,74,105,40
15.78948,15.907901,77,125,40
15.986849,16.10527,74,105,40
16.184217,16.302639,77,105,40
16.381586,16.500006,74,105,40
16.578955,16.697374,77,125,40
16.776323,16.894743,72,105,40
16.973692,17.092112,70,105,40
17.171059,17.28948,67,105,40
17.368427,17.486849,77,125,40
17.565796,17.684217,72,105,40
17.763165,17.881586,70,105,40
17.960533,18.078955,67,105,40
18.157902,18.276323,77,125,40
18.35527,18.473692,72,105,40
18.552639,18.67106,70,105,40
18.750008,18.86843,67,105,40
18.947376,19.065798,77,125,40
19.144745,19.263166,72,105,40
19.342113,19.460535,70,105,40
19.539482,19.657902,67,105,40
19.73685,20.052639,65,105,40
22.894747,23.289482,81,83,40
23.289482,23.447378,84,63,40
24.473694,24.868431,81,83,40
24.868431,25.026325,84,63,40
26.447378,26.743431,84,110,40
26.743431,26.842115,86,70,40
26.842115,26.960537,84,70,40
27.039484,27.157906,81,70,40
27.236853,27.355274,77,70,40
27.434221,27.552643,74,70,40
27.63159,27.750011,72,70,40
27.828959,27.94738,69,70,40
28.026327,28.421064,72,90,40
28.421064,28.618433,69,70,40
29.01317,29.210539,77,70,40
29.210539,29.328959,79,90,40
29.407906,29.50659,77,70,40
29.605274,30.157907,74,90,40
30.19738,30.394749,72,70,40
30.394749,30.592117,70,70,40
30.592117,30.750011,77,70,40
30.789486,31.184223,72,70,40
31.184223,31.342117,69,63,40
31.973698,32.26975,84,110,40
32.26975,32.368435,86,70,40
32.368435,32.486855,84,70,40
32.565804,32.684223,81,70,40
32.763172,32.88159,77,70,40
32.96054,33.07896,74,70,40
33.15791,33.27633,72,63,40
33.355278,33.473698,69,63,40
33.552647,33.947384,72,83,40
33.947384,34.263172,69,63,40
34.539486,34.736855,77,70,40
34.736855,34.973698,76,110,40
35.03291,35.09212,77,80,40
35.13159,35.250015,76,80,40
35.32896,35.447384,71,80,40
35.52633,35.763172,76,120,40
35.822384,35.88159,77,92,40
35.921066,36.03949,76,92,40
36.118435,36.23686,72,92,40
36.315804,36.552647,76,127,40
36.61186,36.671066,77,105,40
36.71054,36.82896,76,105,40
36.90791,37.02633,71,105,40
37.105278,37.2269,69,116,40
37.30798,37.429604,64,116,40
37.51068,37.632305,69,116,40
37.713387,37.835007,64,116,40
37.91609,38.03771,69,116,40
38.11879,38.240414,64,116,40
38.32149,38.443115,69,116,40
38.524197,38.645817,64,116,40
38.7269,38.88906,69,92,40
40.743256,41.039307,84,70,40
41.039307,41.137993,86,70,40
41.137993,41.256413,84,70,40
41.33536,41.45378,81,70,40
41.53273,41.65115,77,70,40
41.7301,41.84852,74,70,40
41.927467,42.045887,72,70,40
42.124836,42.243256,69,70,40
42.322205,42.71694,72,90,40
42.71694,43.03273,69,70,40
43.309044,43.506413,77,70,40
43.506413,43.624836,79,70,40
43.70378,43.822205,77,70,40
43.90115,44.45378,74,70,40
44.493256,44.690624,72,70,40
44.690624,44.887993,70,70,40
44.887993,45.045887,77,70,40
45.08536,45.4801,72,70,40
45.4801,45.637993,69,70,40
46.269573,46.565624,84,100,40
46.565624,46.66431,86,80,40
46.66431,46.78273,84,70,40
46.86168,46.9801,81,70,40
47.059048,47.177467,77,70,40
47.256416,47.374836,74,70,40
47.453785,47.572205,72,70,40
47.651154,47.769573,69,80,40
47.848522,48.24326,72,80,40
48.24326,48.559048,69,92,40
48.835365,49.03273,81,105,40
49.03273,49.269573,79,125,40
49.328785,49.39293,81,105,40
49.427467,49.55576,79,105,40
49.624836,49.753128,74,105,40
49.822205,50.059048,79,125,40
50.11826,50.182404,81,116,40
50.21694,50.345234,79,116,40
50.41431,50.542603,76,116,40
50.61168,50.848522,79,127,40
50.907734,50.971878,81,116,40
51.006416,51.13471,79,116,40
51.203785,51.332073,74,116,40
51.401154,51.53291,72,127,40
51.603855,51.735615,67,116,40
51.80656,51.938316,72,127,40
52.009262,52.141018,67,116,40
52.211964,52.34372,72,127,40
52.414665,52.546425,67,116,40
52.61737,52.749126,72,127,40
52.820072,52.951828,67,116,40
53.022774,53.187157,72,116,40
54.678024,55.92803,80,63,40
55.92803,56.336014,77,70,40
56.344692,56.76136,75,80,40
56.76136,57.594696,72,70,40
57.594696,57.99053,75,70,40
58.01136,58.42803,75,70,40
58.42803,59.042614,77,80,40
59.05303,59.219696,75,105,40
59.261364,59.42803,77,105,40
59.261364,59.469696,85,105,40
59.573864,59.636364,84,105,40
59.573864,59.657196,75,105,40
59.67803,60.678032,84,80,40
59.67803,60.678032,75,80,40
60.928032,61.761364,84,70,40
61.761364,62.37942,79,70,40
62.386364,62.5947,77,70,40
62.5947,62.803032,75,70,40
62.803032,63.00442,72,70,40
63.011368,64.249214,79,70,40
64.26137,64.66588,79,70,40
64.67803,65.0947,84,63,40
65.0947,65.92803,87,70,40
65.92803,66.33255,84,80,40
66.3447,66.76137,82,92,40
66.76137,67.57387,77,92,40
67.5947,67.73359,77,80,40
67.73359,67.87248,79,70,40
67.87248,68.0079,80,70,40
68.01137,69.0461,82,70,40
69.26137,69.665886,75,63,40
69.67804,70.92804,80,63,40
70.92804,71.33255,77,63,40
71.3447,71.761375,75,63,40
71.761375,72.37943,72,63,40
72.5947,72.99922,75,63,40
73.011375,74.261375,84,63,40
73.011375,74.261375,75,63,40
74.261375,74.665886,80,70,40
74.261375,74.665886,72,70,40
74.67804,75.09471,79,80,40
74.67804,75.09471,75,80,40
75.09471,75.92804,77,92,40
75.09471,75.92804,73,92,40
75.92804,76.33603,77,105,40
75.92804,76.33603,73,92,40
76.34471,76.761375,72,105,40
76.34471,76.761375,80,105,40
76.761375,77.386375,75,105,40
77.386375,77.59471,72,105,40
77.59471,77.80305,75,80,40
76.761375,77.96971,63,105,40
77.80305,77.96971,72,80,40
78.011375,78.11701,75,70,40
78.011375,78.18039,63,70,40
78.22265,78.32828,68,70,40
78.433914,79.28502,72,70,40
78.433914,79.28502,63,70,40
79.28502,79.71359,70,63,40
79.28502,79.71359,61,70,40
79.71359,79.87148,60,63,40
79.71359,79.87148,68,63,40
80.10833,80.34517,63,83,40
80.40438,80.46359,65,63,40
80.50307,80.66096,63,63,40
80.897804,81.13464,63,83,40
81.193855,81.25307,65,63,40
81.29254,81.45043,63,63,40
81.68728,81.92412,63,83,40
81.98333,82.04254,65,63,40
82.08201,82.23991,63,63,40
82.476746,82.71359,63,83,40
82.772804,82.832016,65,63,40
82.87148,83.16754,67,63,40
83.16754,83.26622,68,63,40
83.26622,83.38464,67,63,40
83.46359,83.582016,62,63,40
83.66096,83.957016,67,63,40
83.957016,84.055695,68,63,40
84.055695,84.17412,67,63,40
84.25307,84.37148,62,63,40
84.45043,84.74649,67,63,40
84.74649,84.84517,68,63,40
84.84517,84.96359,67,63,40
85.04254,85.16096,62,63,40
85.23991,85.53596,67,63,40
85.53596,85.63464,68,63,40
85.63464,85.75307,67,63,40
85.832016,85.95043,62,63,40
86.02938,89.20605,61,63,40
89.229385,89.328064,65,63,40
89.328064,89.42675,67,63,40
89.42675,89.52544,65,63,40
89.52544,89.604385,60,63,40
89.62412,89.7228,65,63,40
89.7228,89.82149,67,63,40
89.82149,89.92017,65,63,40
89.92017,89.99912,60,63,40
90.01885,90.11754,68,70,40
90.11754,90.216225,70,70,40
90.216225,90.31491,68,70,40
90.31491,90.39386,65,70,40
90.41359,90.512276,68,70,40
90.512276,90.61096,70,70,40
90.61096,90.70965,68,70,40
90.70965,90.78859,65,70,40
90.80833,90.90701,72,70,40
90.90701,91.0057,73,80,40
91.0057,91.104385,72,80,40
91.104385,91.18333,68,80,40
91.203064,91.30175,72,80,40
91.30175,91.40044,73,92,40
91.40044,91.49912,72,92,40
91.49912,91.578064,68,92,40
91.5978,91.69649,77,92,40
91.69649,91.79517,79,92,40
91.79517,91.89386,77,92,40
91.89386,91.9728,72,92,40
91.99254,92.091225,80,92,40
92.091225,92.18991,82,105,40
92.18991,92.2886,80,105,40
92.2886,92.36754,77,105,40
92.387276,92.554504,67,92,40
92.41261,92.554504,84,92,40
92.41261,92.554504,76,92,40
92.79269,92.959915,68,92,40
92.81802,92.959915,77,92,40
92.81802,92.959915,84,92,40
93.22343,93.36532,76,92,40
93.19809,93.36532,67,92,40
93.22343,93.36532,84,92,40
93.60349,93.77072,68,92,40
93.62883,93.77072,84,92,40
93.62883,93.77072,77,92,40
94.03423,94.176125,76,92,40
94.008896,94.176125,67,92,40
94.03423,94.176125,84,92,40
94.439644,94.581535,77,92,40
94.439644,94.581535,84,92,40
94.41431,94.581535,68,92,40
94.84505,94.98694,76,92,40
94.81971,94.98694,67,92,40
94.84505,94.98694,84,92,40
95.25045,95.39234,77,92,40
95.25045,95.39234,84,92,40
95.22511,95.39234,68,92,40
95.630516,95.79335,67,92,40
95.65519,95.79335,76,92,40
95.65519,95.79335,84,92,40
99.18315,99.4792,84,70,40
99.4792,99.57789,86,70,40
99.57789,99.69631,84,70,40
99.77525,99.89368,81,70,40
99.972626,100.09105,77,70,40
100.16999,100.288414,74,70,40
100.36736,100.48579,72,70,40
100.56473,100.68315,69,70,40
100.7621,101.15684,72,90,40
101.15684,101.472626,69,70,40
101.74894,101.94631,77,70,40
101.94631,102.06473,79,70,40
102.14368,102.2621,77,70,40
102.34105,102.89368,74,70,40
102.93315,103.13052,72,70,40
103.13052,103.32789,70,70,40
103.32789,103.48579,77,70,40
103.52526,103.92,72,70,40
103.92,104.07789,69,70,40
104.70947,105.00552,84,70,40
105.00552,105.1042,86,70,40
105.1042,105.222626,84,70,40
105.301575,105.42,81,70,40
105.49894,105.61736,77,80,40
105.69631,105.814735,74,80,40
105.89368,106.0121,72,92,40
106.09105,106.20947,69,92,40
106.288414,106.68315,72,112,40
106.68315,106.99895,69,92,40
107.27526,107.472626,77,92,40
107.472626,108.035126,76,92,40
108.064735,108.2621,79,92,40
108.2621,108.8246,77,92,40
108.85421,109.051575,81,92,40
109.051575,109.614075,79,105,40
109.643684,109.84105,82,116,40
109.84105,110.40355,80,116,40
110.43316,110.63052,84,105,40
110.63052,111.10421,83,105,40
110.63052,111.10421,75,105,40
111.222626,111.38052,84,105,40
111.222626,111.38052,75,105,40
111.42,111.893684,75,105,40
111.42,111.893684,83,125,40
112.0121,112.17,84,105,40
112.0121,112.17,75,105,40
112.20947,112.36737,83,105,40
112.20947,112.36737,75,105,40
112.60421,112.7621,84,105,40
112.60421,112.7621,75,105,40
112.99895,113.15684,83,105,40
112.99895,113.15684,75,105,40
113.393684,113.551575,84,105,40
113.393684,113.551575,75,105,40
113.78842,113.94842,84,105,40
113.78842,113.94842,72,105,40
114.18842,114.34842,72,105,40
114.18842,114.34842,84,105,40
114.58842,114.75058,84,105,40
114.58842,114.75058,72,105,40
114.99383,115.15599,72,105,40
114.99383,115.15599,84,105,40
115.39923,115.47818,84,105,40
115.49792,115.57686,84,105,40
115.596596,115.675545,86,105,40
115.69528,115.77423,86,105,40
115.79397,115.87292,88,105,40
115.892654,115.971596,88,105,40
115.99133,116.07028,89,105,40
116.09002,116.16897,89,105,40
116.188705,116.267654,91,105,40
116.28739,116.36633,91,105,40
116.38607,116.46502,93,105,40
116.48476,116.563705,93,105,40
116.58344,116.66239,94,116,40
116.68213,116.76107,94,116,40
116.78081,116.85976,96,116,40
116.87949,116.95844,96,116,40
116.97818,117.149605,89,116,40
117.406746,117.546036,89,127,40
117.62103,117.76032,86,116,40
117.83532,117.96361,84,127,40
118.03269,118.16098,81,116,40
118.23006,118.358345,77,127,40
118.42743,118.55572,74,116,40
118.624794,118.86163,74,127,40
118.920845,118.98499,74,116,40
119.01953,119.14782,74,116,40
119.216896,119.34519,74,116,40
119.41427,119.57217,74,116,40
119.809006,119.937294,89,127,40
120.00637,120.124794,85,116,40
120.20374,120.33203,84,127,40
120.40111,120.51953,80,116,40
120.59848,120.72677,77,127,40
120.795845,120.91427,73,116,40
120.99322,121.23006,73,127,40
121.28927,121.35342,73,116,40
121.387955,121.51624,73,116,40
121.58532,121.71361,73,116,40
121.78269,121.944855,73,116,40
122.3908,122.55296,61,70,40
122.5935,122.8435,61,70,40
122.906,122.97371,61,70,40
123.01017,123.145584,61,70,40
123.2185,123.35392,61,70,40
123.426834,123.59826,61,63,40
124.28397,125.11731,61,63,40
125.11731,125.950645,65,63,40
125.950645,126.78398,66,63,40
126.78398,127.59301,65,63,40
127.61731,129.70065,68,63,40
129.70065,130.53398,66,63,40
130.53398,130.93849,65,63,40
130.95065,131.78398,61,63,40
131.78398,132.61731,66,63,40
132.61731,133.45065,66,63,40
133.45065,134.11732,67,63,40
134.28398,134.70065,68,63,40
134.70065,135.11732,69,63,40
135.11732,135.92635,69,63,40
135.95065,136.36732,70,63,40
136.36732,136.78398,71,63,40
136.78398,137.42685,74,63,40
137.42685,137.64113,72,63,40
137.64113,137.8078,65,63,40
138.0578,138.3078,77,103,40
138.3703,138.4328,74,63,40
138.47446,138.59946,72,63,40
138.6828,138.8078,69,63,40
138.89113,139.01613,65,63,40
139.09946,139.22446,62,63,40
139.3078,139.47446,65,63,40
140.76613,140.9328,65,63,40
140.97446,141.14113,69,63,40
141.59947,141.76613,65,63,40
141.8078,141.97447,69,63,40
142.4328,142.59947,65,63,40
142.64113,142.82295,69,63,40
143.09567,143.2775,69,63,40
143.55022,143.75023,69,63,40
144.05022,144.25023,69,63,40
144.55022,145.61217,69,63,40
145.61217,146.64314,74,70,40
146.67412,147.73605,76,80,40
147.73605,148.26703,74,70,40
148.26703,148.78252,69,63,40
148.798,149.32898,69,63,40
149.32898,150.39093,76,63,40
150.39093,150.90642,74,63,40
150.9219,152.51482,72,80,40
152.51482,153.0303,71,63,40
153.04579,154.10774,69,63,40
154.10774,154.62321,74,63,40
154.6387,155.15419,74,63,40
155.16968,155.70065,77,63,40
155.70065,156.7626,76,63,40
156.7626,157.02809,74,70,40
157.02809,157.28473,69,70,40
157.29358,157.82455,69,63,40
157.82455,158.88649,76,70,40
158.88649,159.40198,74,63,40
159.41747,159.59445,72,63,40
159.59445,159.77145,71,63,40
159.77145,159.94844,69,63,40
159.94844,161.02988,69,70,40
161.02988,161.29593,71,70,40
161.3051,161.57115,67,70,40
161.58034,162.6113,69,70,40
162.64227,162.78642,69,70,40
162.82245,162.9666,69,70,40
163.00264,163.14677,69,70,40
163.18282,164.25777,69,70,40
165.9252,166.08449,69,63,40
166.19067,166.34998,72,63,40
166.45616,166.61546,76,63,40
166.72165,167.14644,81,83,40
167.25262,167.41191,77,63,40
167.51811,167.6774,76,63,40
167.7836,167.94289,74,63,40
168.04909,168.36768,81,83,40
168.44731,168.52696,69,63,40
168.58006,168.73935,69,63,40
168.84555,169.31015,69,63,40
169.37653,169.57564,71,63,40
169.642,169.84113,72,63,40
169.90749,170.10661,74,63,40
170.17297,170.37209,72,70,40
170.43846,170.63757,74,70,40
170.70395,170.90306,72,70,40
170.96944,171.16855,74,70,40
171.23492,171.43404,76,70,40
171.50041,171.69952,77,70,40
171.7659,171.96501,78,80,40
172.03139,172.2305,80,80,40
172.29688,172.61545,81,100,40
172.6951,172.77475,76,80,40
172.82785,172.98714,76,80,40
173.09332,173.25262,76,80,40
173.35881,173.51811,76,80,40
173.6243,173.7836,77,80,40
173.88979,174.04909,74,70,40
174.15527,174.31456,76,70,40
174.42076,174.58005,72,63,40
174.68625,174.84554,69,63,40
174.95174,175.11102,72,63,40
175.21722,175.642,81,63,40
175.7482,175.90749,69,63,40
176.01369,176.17297,74,63,40
176.27917,176.43846,81,63,40
176.54465,176.70395,75,63,40
176.81013,176.96944,69,63,40
177.07562,177.23492,76,63,40
177.34111,177.76588,81,63,40
177.87209,178.00484,70,70,40
178.00484,178.13757,71,70,40
178.13757,178.29686,72,70,40
178.40306,178.56235,74,70,40
178.66855,178.82784,72,70,40
178.93404,179.06677,72,70,40
179.06677,179.19952,74,70,40
179.19952,179.35881,72,80,40
179.46501,179.59775,72,80,40
179.59775,179.7305,74,80,40
179.7305,179.88979,76,80,40
179.99597,180.15527,77,80,40
180.26146,180.42076,78,92,40
180.52695,180.68625,80,92,40
180.79243,181.11102,81,112,40
181.19067,181.29686,76,92,40
181.32341,181.5358,76,92,40
181.5889,181.80128,76,92,40
181.85439,182.17297,77,92,40
182.25261,182.35881,74,92,40
182.38536,182.59775,74,92,40
182.65085,182.86324,71,92,40
182.91634,183.45686,72,63,40
183.45686,184.01242,71,63,40
184.01242,184.58386,74,63,40
184.58386,185.14938,72,63,40
185.16638,187.80728,76,39,40
185.16638,187.80728,72,39,40
187.83601,187.99391,64,70,40
188.23074,188.46759,71,110,40
188.5268,188.58601,72,70,40
188.62549,188.74391,71,70,40
188.82286,188.94127,68,70,40
189.02022,189.13864,68,70,40
189.21759,189.33601,64,70,40
189.41496,189.57286,64,70,40
189.8097,190.04654,71,110,40
190.10574,190.16496,72,70,40
190.20444,190.32286,71,70,40
190.40181,190.52022,68,70,40
190.59917,190.71759,68,70,40
190.79654,190.91496,64,70,40
190.99391,191.15181,64,70,40
191.38864,191.62549,72,110,40
191.6847,191.74391,74,70,40
191.78339,191.90181,72,70,40
191.98074,192.09917,69,70,40
192.17812,192.29654,69,70,40
192.37549,192.49391,64,70,40
192.57286,192.69128,64,70,40
192.96759,193.20444,72,110,40
193.26364,193.32286,74,70,40
193.36234,193.48076,72,70,40
193.5597,193.67812,69,70,40
193.75706,193.87549,69,70,40
193.95444,194.07286,64,70,40
194.15181,194.27022,64,70,40
194.54654,194.78339,74,110,40
194.84259,194.90674,76,70,40
194.94128,195.06956,74,70,40
195.13864,195.26694,64,70,40
195.33601,195.57286,74,120,40
195.63206,195.69621,76,80,40
195.73076,195.85904,74,80,40
195.92812,196.05641,64,80,40
196.12549,196.36234,74,127,40
196.42154,196.48569,76,92,40
196.52023,196.75706,74,105,40
196.81628,196.88042,76,105,40
196.91496,197.15181,74,105,40
197.21101,197.27516,76,105,40
197.3097,197.54654,74,105,40
197.60576,197.66989,76,105,40
197.70444,197.94128,74,105,40
198.00049,198.06464,76,105,40
198.09917,198.33601,74,105,40
198.39523,198.45937,76,105,40
198.49391,198.73076,74,105,40
198.78996,198.85411,76,116,40
198.88864,199.12549,74,116,40
199.18471,199.24884,76,116,40
199.28339,199.52023,74,116,40
199.57944,199.64359,76,124,40
199.67812,199.84029,77,124,40
200.08353,200.38757,84,110,40
200.38757,200.48894,86,70,40
200.48894,200.60735,84,70,40
200.6863,200.80472,81,70,40
200.88367,201.00209,77,70,40
201.08104,201.19946,74,70,40
201.27841,201.39682,72,70,40
201.47577,201.5942,69,70,40
201.67314,202.06789,72,70,40
202.06789,202.38367,69,70,40
202.65999,202.85736,77,70,40
202.85736,202.97577,79,70,40
203.05472,203.17314,77,70,40
203.25209,203.83434,74,70,40
203.8442,204.04156,72,70,40
204.04156,204.23894,70,70,40
204.23894,204.42644,77,70,40
204.4363,204.83104,72,70,40
204.83104,205.02841,69,70,40
205.62051,205.91656,84,70,40
205.91656,206.01524,86,70,40
206.01524,206.13367,84,70,40
206.21262,206.33104,81,70,40
206.40999,206.52841,77,70,40
206.60736,206.72577,74,70,40
206.80472,206.92314,72,70,40
207.00209,207.12051,69,70,40
207.19946,207.5942,72,70,40
207.5942,207.90999,69,70,40
208.18631,208.3442,77,80,40
208.38367,208.62051,76,112,40
208.67972,208.75867,77,92,40
208.77841,208.93631,76,92,40
208.97578,209.13367,71,92,40
209.17314,209.40999,76,112,40
209.4692,209.54814,77,92,40
209.56789,209.72578,76,92,40
209.76526,209.92314,72,92,40
209.96262,210.19946,76,125,40
210.25867,210.33762,77,105,40
210.35736,210.51526,76,105,40
210.55472,210.71262,71,105,40
210.75209,210.88385,69,105,40
210.9548,211.08655,64,105,40
211.1575,211.28926,69,105,40
211.3602,211.49196,64,105,40
211.5629,211.69466,69,105,40
211.76561,211.89737,64,105,40
211.9683,212.10007,69,105,40
212.171,212.30276,64,105,40
212.37372,213.97844,69,80,40
213.99533,214.1575,68,63,40
214.40074,214.69788,80,63,40
214.69788,214.79655,82,63,40
214.79655,214.91498,80,63,40
214.99393,215.11235,77,63,40
215.1913,215.30972,73,63,40
215.38866,215.50708,70,63,40
215.58603,215.70445,68,63,40
215.7834,215.90182,65,63,40
215.98077,216.3755,68,83,40
216.3755,216.6913,65,63,40
216.9676,217.1255,73,63,40
217.16498,217.32288,75,63,40
217.36235,217.52025,73,63,40
217.55972,218.14853,70,63,40
218.15182,218.3492,68,63,40
218.3492,218.54655,66,63,40
218.54655,218.74063,73,63,40
218.74393,219.13867,68,63,40
219.13867,219.29655,65,63,40
219.92813,220.2242,80,63,40
220.2242,220.32288,82,63,40
220.32288,220.4413,80,63,40
220.52025,220.63867,77,63,40
220.7176,220.83603,73,63,40
220.91498,221.0334,70,63,40
221.11235,221.23077,68,63,40
221.30972,221.42815,65,63,40
221.50708,221.90182,68,63,40
221.90182,222.2176,65,63,40
222.49393,222.6913,73,63,40
222.6913,222.80972,72,63,40
222.88867,223.00708,70,63,40
223.08603,223.5992,66,63,40
223.67815,223.79655,65,63,40
223.8755,224.46762,63,63,40
224.46762,224.66498,70,63,40
224.66498,224.82288,63,63,40
224.86235,225.05972,70,63,40
225.05972,225.1584,72,83,40
225.2571,225.3755,70,63,40
225.45445,226.16498,66,63,40
226.4413,226.55972,70,63,40
226.63867,226.73735,73,83,40
226.83603,226.95445,72,63,40
227.0334,227.74393,66,63,40
228.02025,228.21762,73,103,40
228.21762,228.33603,73,63,40
228.41498,228.5334,69,63,40
228.61235,228.73077,67,63,40
228.80972,229.1255,73,103,40
229.20445,229.32288,69,70,40
229.40182,229.52025,67,70,40
229.5992,229.79657,73,70,40
229.79657,229.99393,76,120,40
229.99393,230.11235,74,80,40
230.1913,230.30972,69,80,40
230.38867,230.58604,74,80,40
230.58604,230.7834,76,120,40
230.7834,230.90182,74,80,40
230.98077,231.0992,67,80,40
231.17815,231.37552,76,80,40
231.37552,231.57288,77,127,40
231.57288,231.6913,74,92,40
231.77025,231.88867,67,92,40
231.96762,232.16498,76,92,40
232.16498,232.36235,77,127,40
232.36235,232.48077,74,105,40
232.55972,232.67815,68,105,40
232.7571,232.95445,77,116,40
232.95445,233.3492,79,116,40
233.3492,233.73363,77,116,40
233.75389,234.16447,74,116,40
234.16447,234.55994,72,105,40
234.58076,235.00291,69,92,40
235.00291,235.40965,65,92,40
235.43108,235.86545,62,80,40
235.86545,236.567,64,80,40
236.60683,238.4424,65,70,40
238.4424,239.05438,62,70,40
239.0674,239.6924,60,70,40
239.6924,240.9424,57,70,40
240.9424,241.55438,60,70,40
241.5674,242.1924,60,70,40
242.1924,243.14896,62,70,40
243.14896,243.46811,60,80,40
243.46811,243.79327,70,80,40
243.95631,244.05414,69,80,40
244.11935,245.92642,69,63,40
244.11935,245.92642,65,63,40
246.38107,246.64195,69,70,40
246.70717,247.36603,69,63,40
247.36603,248.30061,64,63,40
248.30582,248.61832,62,63,40
248.61832,248.93082,60,63,40
248.93082,249.23811,57,63,40
249.24332,251.1053,64,63,40
251.11832,251.7303,64,63,40
251.74332,252.36832,69,70,40
252.36832,253.61832,72,80,40
253.61832,254.2303,69,80,40
254.24332,254.86832,67,92,40
254.86832,255.99332,62,80,40
256.11832,256.32666,62,80,40
256.32666,256.45166,64,80,40
256.53497,256.65997,65,80,40
256.74332,258.31906,67,63,40
258.72815,259.8074,79,70,40
259.82385,261.00806,77,70,40
261.00806,261.3946,74,70,40
261.4028,261.79755,72,70,40
261.79755,262.587,69,70,40
262.587,262.98175,72,70,40
262.98175,264.14624,81,70,40
262.98175,264.14624,72,70,40
264.16595,264.5607,74,80,40
264.16595,264.5607,77,80,40
264.5607,264.95544,76,80,40
264.5607,264.95544,72,80,40
264.95544,265.66595,70,80,40
264.95544,265.66595,74,80,40
265.7449,266.13965,70,80,40
265.7449,266.13965,74,80,40
266.13965,266.5344,77,80,40
266.13965,266.5344,69,80,40
266.5344,267.087,72,80,40
266.5344,267.087,69,80,40
267.1265,267.32385,65,70,40
267.1265,267.32385,69,70,40
267.32385,267.52124,74,70,40
267.32385,267.52124,65,70,40
267.52124,267.7186,69,70,40
267.52124,267.7186,65,70,40
267.7186,267.837,72,70,40
267.7186,267.8765,69,70,40
267.91595,268.11334,65,70,40
268.11334,268.9028,69,70,40
268.11334,268.9028,60,70,40
268.9028,269.28934,58,63,40
268.9028,269.28934,67,70,40
269.29755,269.45544,57,63,40
269.29755,269.45544,65,63,40
269.6923,269.92914,72,110,40
269.98834,270.0673,74,70,40
270.087,270.32385,72,90,40
270.3831,270.4423,69,70,40
270.48175,270.6002,65,70,40
270.67914,270.79755,62,70,40
270.8765,271.0344,60,70,40
271.27124,271.5081,72,110,40
271.5673,271.64624,74,70,40
271.66595,271.7844,72,70,40
271.86334,271.98175,69,70,40
272.0607,272.17914,65,70,40
272.2581,272.3765,62,70,40
272.45544,272.61334,60,70,40
272.8502,273.08704,73,110,40
273.14624,273.2252,75,70,40
273.2449,273.36334,73,70,40
273.4423,273.5607,68,70,40
273.63965,273.7581,65,70,40
273.83704,273.95544,63,70,40
274.0344,274.1923,61,70,40
274.42914,274.66595,73,100,40
274.7252,274.80414,75,80,40
274.82385,274.9423,73,80,40
275.02124,275.13965,68,80,40
275.2186,275.45544,73,112,40
275.51465,275.5936,75,92,40
275.61334,275.73175,73,92,40
275.8107,275.92914,68,92,40
276.0081,276.2449,77,92,40
276.30414,276.4028,78,105,40
276.4028,276.63965,77,105,40
276.69885,276.79755,78,105,40
276.79755,277.0344,77,105,40
277.0936,277.1923,78,105,40
277.1923,277.42914,77,105,40
277.48834,277.58704,78,105,40
277.58704,277.82385,77,116,40
277.8831,277.96204,79,116,40
277.98175,278.0607,81,116,40
278.08044,278.1594,81,116,40
278.17914,278.2581,82,116,40
278.2778,278.35675,82,116,40
278.3765,278.45544,84,116,40
278.4752,278.55414,84,116,40
278.57385,278.6528,77,116,40
278.67255,278.7515,77,116,40
278.77124,278.8502,81,116,40
278.8699,278.94885,81,116,40
278.9686,279.04755,82,116,40
279.0673,279.14624,82,116,40
279.166,279.2449,84,116,40
279.26465,279.3436,84,116,40
279.36334,279.4423,77,116,40
279.46204,279.541,77,116,40
279.5607,279.63965,81,116,40
279.6594,279.73834,81,116,40
279.7581,279.83704,82,116,40
279.85675,279.9357,82,116,40
279.95544,280.0344,84,116,40
280.05414,280.1331,84,116,40
280.1528,280.23175,77,116,40
280.2515,280.33044,77,116,40
280.3502,280.42914,81,116,40
280.44885,280.5278,81,116,40
280.54755,280.6265,82,116,40
280.64624,280.7252,82,116,40
280.74493,280.82385,84,116,40
280.8436,280.92255,84,116,40
280.9423,281.02124,76,116,40
281.041,281.11993,76,116,40
281.13965,281.27124,77,110,40
281.27124,281.3502,89,70,40
281.4028,281.48175,89,70,40
281.5344,281.8502,89,90,40
281.92914,282.0607,77,70,40
282.0607,282.13965,89,70,40
282.1923,282.27124,89,70,40
282.32385,282.63965,89,90,40
282.7186,282.8502,77,70,40
282.8502,282.92914,89,70,40
282.98175,283.0607,89,70,40
283.11334,283.42914,89,90,40
283.5081,283.63965,77,70,40
283.63965,283.7186,89,70,40
283.77124,283.8502,89,70,40
283.9028,284.2186,89,90,40
284.29755,284.42914,77,70,40
284.42914,284.5081,89,70,40
284.5607,284.63965,89,70,40
284.6923,285.0081,89,90,40
285.08704,285.2186,77,70,40
285.2186,285.29755,89,80,40
285.3502,285.42914,89,80,40
285.48175,285.79755,89,100,40
285.8765,286.0081,77,92,40
286.0081,286.08704,89,92,40
286.13965,286.2186,89,92,40
286.27124,286.58704,89,112,40
286.666,286.79755,77,105,40
286.79755,286.8765,89,105,40
286.92914,287.0081,89,105,40
287.0607,287.3765,89,125,40
287.45544,287.58704,77,105,40
287.58704,287.6742,89,105,40
287.7186,287.8058,89,105,40
287.8502,287.98175,89,105,40
287.98175,288.06894,77,105,40
288.11334,288.2005,77,105,40
288.24493,288.3765,77,105,40
288.3765,288.46368,89,105,40
288.5081,288.59525,89,105,40
288.63965,288.77124,89,105,40
288.77124,288.8584,77,105,40
288.90283,288.99,77,105,40
289.0344,289.166,77,116,40
289.166,289.2482,89,116,40
289.29755,289.3798,89,116,40
289.42914,289.5607,89,116,40
289.5607,289.64294,88,116,40
289.6923,289.77454,88,116,40
289.82388,289.95544,88,116,40
289.95544,290.0377,87,116,40
290.08704,290.16925,87,116,40
290.2186,290.3502,87,116,40
290.3502,290.43243,86,116,40
290.48175,290.564,86,116,40
290.61334,290.74493,87,116,40
290.74493,290.82715,86,116,40
290.8765,290.95874,86,116,40
291.0081,291.13965,87,116,40
291.13965,291.2219,86,116,40
291.27124,291.3535,86,116,40
291.40283,291.5344,85,116,40
291.5344,291.61664,84,116,40
291.666,291.7482,84,116,40
291.79755,291.92914,84,116,40
291.92914,292.01138,82,116,40
292.0607,292.14294,82,116,40
292.1923,292.32388,82,116,40
292.32388,292.4061,81,116,40
292.45544,292.5377,81,116,40
292.58704,292.7186,82,116,40
292.7186,292.80084,81,116,40
292.8502,292.93243,81,116,40
292.98178,293.11334,82,116,40
293.11334,293.1956,81,116,40
293.24493,293.32715,81,116,40
293.3765,293.5081,82,116,40
293.5081,293.59033,81,116,40
293.63965,293.7219,81,116,40
293.77124,293.90283,82,116,40
293.90283,293.98505,81,116,40
294.0344,294.11664,81,116,40
294.166,294.29755,82,116,40
294.29755,294.3798,81,116,40
294.42914,294.51138,81,116,40
294.5607,294.6923,82,116,40
294.6923,294.77454,81,116,40
294.82388,294.9061,81,116,40
294.95544,295.08704,80,116,40
295.08704,295.16928,79,116,40
295.2186,295.30084,79,116,40
295.3502,295.666,77,116,40
295.74493,295.98178,89,116,40
296.041,296.11993,91,116,40
296.13965,296.3765,89,116,40
296.4357,296.51465,84,116,40
296.5344,296.77124,81,116,40
296.83044,296.9094,79,116,40
296.92914,297.24493,77,116,40
297.32388,297.56073,89,116,40
297.61993,297.69888,91,116,40
297.7186,297.95544,89,116,40
298.01465,298.0936,84,116,40
298.11334,298.3502,81,116,40
298.4094,298.48834,79,116,40
298.5081,298.82388,77,116,40
298.90283,299.13965,89,116,40
299.19888,299.27783,91,116,40
299.29755,299.5344,89,116,40
299.5936,299.67255,84,116,40
299.6923,299.92914,81,116,40
299.98834,300.0673,79,116,40
300.08704,300.46204,77,127,40
300.48178,300.85678,79,127,40
300.8765,301.2515,81,127,40
301.27124,301.64624,84,127,40
301.666,301.82388,77,105,40
301.96204,302.23834,65,105,40
302.06073,302.416,72,105,40
302.1594,302.416,81,105,40
302.7515,303.02783,69,105,40
302.8502,303.20544,77,105,40
302.94888,303.20544,84,105,40
303.541,303.8173,62,105,40
303.63968,303.99493,74,105,40
303.73834,303.99493,86,105,40
304.33044,304.60678,69,105,40
304.42914,304.7844,77,105,40
304.52783,304.7844,84,105,40
305.11993,305.39624,62,105,40
305.21863,305.57388,74,105,40
305.3173,305.57388,86,105,40
305.9094,306.18573,69,105,40
306.0081,306.36334,77,105,40
306.10678,306.36334,84,105,40
306.40283,306.5081,81,127,40
306.5344,306.63968,81,116,40
306.666,306.77124,81,116,40
306.79755,306.90283,82,127,40
306.92914,307.0344,82,116,40
307.06073,307.166,82,116,40
307.1923,307.29755,84,127,40
307.32388,307.42914,84,116,40
307.45544,307.56073,84,116,40
307.58704,307.6923,79,127,40
307.71863,307.82388,79,116,40
307.8502,307.95544,79,116,40
307.98178,308.08704,81,127,40
308.11334,308.21863,81,116,40
308.24493,308.3502,81,116,40
308.3765,308.48178,82,127,40
308.5081,308.61334,82,116,40
308.63968,308.74493,82,116,40
308.77124,308.8765,84,127,40
308.90283,309.0081,84,116,40
309.0344,309.13968,84,116,40
309.166,309.27124,79,127,40
309.29758,309.40283,79,116,40
309.42914,309.5344,79,116,40
309.56073,309.666,81,127,40
309.6923,309.79758,81,116,40
309.82388,309.92914,81,116,40
309.95544,310.06073,82,127,40
310.08704,310.1923,82,116,40
310.21863,310.32388,82,116,40
310.3502,310.45544,84,127,40
310.48178,310.58704,84,116,40
310.61334,310.71863,84,116,40
310.74493,310.8502,79,127,40
310.8765,310.98178,79,116,40
311.0081,311.11334,79,116,40
311.13968,311.27124,81,116,40
311.27124,311.3502,84,116,40
311.40283,311.48178,84,116,40
311.5344,311.666,84,116,40
311.666,311.74493,79,116,40
311.79758,311.8765,79,116,40
311.92914,312.06073,81,116,40
312.06073,312.13968,84,116,40
312.1923,312.27124,84,116,40
312.32388,312.45544,84,116,40
312.45544,312.5344,79,116,40
312.58704,312.666,79,116,40
312.71863,312.8502,81,116,40
312.8502,312.92914,84,116,40
312.98178,313.06073,84,116,40
313.11334,313.24493,84,116,40
313.24493,313.32388,79,116,40
313.37653,313.45544,79,116,40
313.5081,313.63968,81,116,40
313.63968,313.71863,84,116,40
313.77124,313.8502,84,116,40
313.90283,314.0344,84,116,40
314.0344,314.11334,79,116,40
314.166,314.24493,79,116,40
314.29758,314.40283,77,80,40
314.42914,314.5344,77,80,40
314.56073,314.666,77,80,40
314.6923,314.82388,77,80,40
314.82388,314.90283,78,80,40
314.95544,315.0344,78,80,40
315.08704,315.21863,78,92,40
315.21863,315.29758,79,92,40
315.3502,315.42914,79,92,40
315.48178,315.61334,79,92,40
315.61334,315.6923,80,92,40
315.74493,315.82388,80,92,40
315.87653,316.0081,80,105,40
316.0081,316.08704,81,105,40
316.13968,316.21863,81,105,40
316.27124,316.40283,81,105,40
316.40283,316.48178,82,105,40
316.5344,316.61334,82,105,40
316.666,316.79758,82,105,40
316.79758,316.87653,83,105,40
316.92914,317.0081,83,105,40
317.06073,317.1923,83,116,40
317.1923,317.27124,84,116,40
317.32388,317.40283,84,116,40
317.45547,317.58704,84,116,40
317.58704,317.666,85,116,40
317.71863,317.79758,85,124,40
317.8502,317.92914,85,124,40
317.98178,318.06073,85,124,40
318.11334,318.1923,85,124,40
318.24493,318.32388,85,124,40
318.37653,318.45547,85,124,40
318.5081,318.58704,85,124,40
318.63968,318.71863,85,124,40
318.77124,318.8502,85,124,40
318.90283,318.98178,85,124,40
319.0344,319.3502,89,127,40
319.88623,320.25546,83,124,40
319.88623,320.25546,71,124,40
320.8093,321.17853,84,124,40
320.8093,321.17853,72,124,40
321.7324,322.1247,70,124,40
321.84778,322.1247,76,124,40
321.7324,322.1247,67,124,40
322.66913,322.85962,69,124,40
322.66913,322.85962,77,124,40
323.14532,323.41766,77,127,40
323.48535,323.57556,74,124,40
323.5981,323.8688,72,127,40
323.93646,324.0267,69,124,40
324.04926,324.30154,65,127,40
324.36404,324.4474,62,124,40
324.4682,324.6349,65,124,40
324.8849,325.1588,69,124,40
324.8849,325.1588,77,124,40
325.22806,325.32034,77,124,40
325.22806,325.32034,69,124,40
325.3434,326.2987,77,124,40
325.3434,326.2987,69,124,40
326.35425,327.4623,69,124,40
326.35425,327.4623,65,124,40
327.52417,329.25397,65,124,40
327.52417,329.30396,69,124,40
0.789474,1.0263162,57,83,40
1.0855267,1.1447372,57,63,40
1.184211,1.3026321,57,63,40
1.3815795,1.6973691,57,63,40
1.7763165,1.8947376,57,63,40
1.973685,2.092106,57,63,40
2.1710534,2.2894745,57,63,40
2.368422,2.6052642,57,63,40
2.6644747,2.7236853,57,63,40
2.763159,2.88158,57,63,40
2.9605274,3.2763171,57,63,40
3.3552644,3.4736855,57,63,40
3.552633,3.6710541,57,63,40
3.7500014,3.8684225,57,63,40
3.94737,4.184212,57,63,40
4.243423,4.3026333,57,63,40
4.342107,4.460528,57,63,40
4.5394754,4.855265,57,63,40
4.9342127,5.052634,57,63,40
5.131581,5.250002,57,63,40
5.3289495,5.4473705,57,63,40
5.526318,5.76316,57,63,40
5.8223705,5.8815813,57,63,40
5.921055,6.039476,57,63,40
6.1184235,6.434213,57,63,40
6.5131607,6.631582,57,63,40
6.710529,6.82895,57,63,40
6.9078975,7.0263186,57,63,40
7.105266,7.3421082,57,63,40
7.4013186,7.4605293,57,63,40
7.500003,7.618424,57,63,40
7.6973715,8.013161,57,63,40
8.092109,8.210529,57,63,40
8.289477,8.407898,57,63,40
8.486846,8.605267,57,63,40
8.684214,8.921056,57,63,40
8.980267,9.039477,57,63,40
9.078951,9.197372,57,63,40
9.2763195,9.592109,57,63,40
9.671057,9.789477,57,63,40
9.868425,9.986846,57,63,40
10.065793,10.184215,57,63,40
10.263162,10.500004,57,63,40
10.559215,10.618425,57,63,40
10.657899,10.77632,57,63,40
10.855268,11.171057,57,63,40
11.250005,11.368425,57,63,40
11.447373,11.565794,57,63,40
11.644741,11.763163,57,63,40
11.84211,12.078952,57,63,40
12.138163,12.197373,57,63,40
12.236847,12.3552685,57,63,40
12.434216,12.750005,57,63,40
12.828953,12.947373,57,70,40
13.026321,13.144742,57,70,40
13.223689,13.342111,57,70,40
13.421058,13.6579,57,70,40
13.717111,13.776321,57,70,40
13.815795,13.9342165,57,70,40
14.013164,14.131584,57,70,40
14.210532,14.447374,65,80,40
14.506585,14.565795,65,80,40
14.605269,14.72369,65,80,40
14.802637,15.236848,65,80,40
15.296059,15.355269,65,80,40
15.394743,15.5131645,65,80,40
15.592112,16.026321,65,80,40
16.085533,16.144743,65,92,40
16.184217,16.302639,65,92,40
16.381586,16.500006,65,92,40
16.578955,16.697374,65,112,40
16.776323,16.894743,69,92,40
16.973692,17.092112,67,92,40
17.171059,17.28948,65,92,40
17.368427,17.486849,65,112,40
17.565796,17.684217,69,92,40
17.763165,17.881586,67,92,40
17.960533,18.078955,65,92,40
18.157902,18.276323,65,112,40
18.35527,18.473692,69,92,40
18.552639,18.67106,67,92,40
18.750008,18.86843,65,92,40
18.947376,19.065798,65,112,40
19.144745,19.263166,69,92,40
19.342113,19.460535,67,92,40
19.539482,19.657902,65,92,40
19.73685,19.845402,72,112,40
19.93422,20.04277,69,70,40
20.131586,20.240139,65,70,40
20.328955,20.437508,60,63,40
20.526323,20.634876,72,83,40
20.723692,20.832245,69,63,40
20.92106,21.029613,65,63,40
21.11843,21.226982,60,63,40
21.315798,21.42435,72,83,40
21.513166,21.62172,69,63,40
21.710535,21.819088,65,63,40
21.907904,22.016457,60,63,40
22.105272,22.213825,72,63,40
22.30264,22.411194,69,63,40
22.50001,22.608562,65,63,40
22.697378,22.805931,60,63,40
22.894747,23.003298,72,63,40
23.092115,23.200666,69,63,40
23.289482,23.398035,65,63,40
23.48685,23.595404,60,63,40
23.68422,23.792772,72,63,40
23.881588,23.99014,69,63,40
24.078957,24.18751,65,63,40
24.276325,24.384878,60,63,40
24.473694,24.582247,72,83,40
24.671062,24.779615,69,63,40
24.868431,24.976984,65,63,40
25.0658,25.174353,60,63,40
25.263168,25.371721,72,83,40
25.460537,25.56909,69,63,40
25.657906,25.766459,65,63,40
25.855274,25.963825,60,63,40
26.052643,26.171062,65,63,40
26.250011,26.368431,60,63,40
26.447378,26.5658,72,83,40
26.644747,26.763168,69,63,40
26.842115,26.960537,65,63,40
27.039484,27.157906,60,63,40
27.236853,27.355274,72,83,40
27.434221,27.552643,69,63,40
27.63159,27.750011,65,63,40
27.828959,27.94738,60,63,40
28.026327,28.144749,72,83,40
28.223696,28.342117,69,63,40
28.421064,28.539486,72,83,40
28.618433,28.736855,69,63,40
28.815802,28.934221,65,63,40
29.01317,29.13159,60,63,40
29.210539,29.328959,70,83,40
29.407906,29.526327,65,63,40
29.605274,29.723696,74,63,40
29.802643,29.921064,70,63,40
30.000011,30.118433,74,83,40
30.19738,30.315802,70,63,40
30.394749,30.51317,65,63,40
30.592117,30.710539,62,63,40
30.789486,30.907907,65,63,40
30.986855,31.105276,60,63,40
31.184223,31.302645,72,83,40
31.381592,31.500013,69,63,40
31.57896,31.697382,65,63,40
31.776329,31.894749,60,63,40
31.973698,32.092117,72,83,40
32.171066,32.289486,69,63,40
32.368435,32.486855,65,63,40
32.565804,32.684223,60,63,40
32.763172,32.88159,72,83,40
32.96054,33.07896,69,63,40
33.15791,33.27633,65,63,40
33.355278,33.473698,60,63,40
33.552647,33.671066,72,83,40
33.750015,33.868435,69,63,40
33.947384,34.065804,72,83,40
34.14475,34.263172,69,63,40
34.342117,34.46054,65,63,40
34.539486,34.65791,60,63,40
34.736855,34.786198,64,63,40
34.786198,35.062515,71,103,40
35.13159,35.447384,74,70,40
35.52633,36.118435,76,80,40
36.118435,36.27633,69,92,40
36.315804,36.63159,71,92,40
36.71054,36.868435,74,92,40
36.90791,37.065804,68,92,40
37.105278,37.26744,64,105,40
37.105278,37.26744,57,105,40
37.105278,37.26744,69,105,40
37.51068,37.672844,64,105,40
37.51068,37.672844,57,105,40
37.51068,37.672844,69,105,40
37.91609,38.07825,64,105,40
37.91609,38.07825,57,105,40
37.91609,38.07825,69,105,40
38.32149,38.483654,69,105,40
38.32149,38.483654,57,105,40
38.32149,38.483654,64,105,40
38.7269,38.88906,69,92,40
39.1323,39.294464,69,70,40
39.53771,39.69987,69,70,40
39.94311,40.064735,69,63,40
40.145817,40.267437,72,63,40
40.34852,40.466938,72,63,40
40.545887,40.664307,69,63,40
40.743256,40.861675,65,63,40
40.940624,41.059044,60,63,40
41.137993,41.256413,65,63,40
41.33536,41.45378,60,63,40
41.53273,41.65115,72,83,40
41.7301,41.84852,69,63,40
41.927467,42.045887,65,63,40
42.124836,42.243256,60,63,40
42.322205,42.440624,72,83,40
42.519573,42.637993,69,63,40
42.71694,42.83536,72,83,40
42.914307,43.03273,69,63,40
43.111675,43.2301,65,63,40
43.309044,43.427467,60,63,40
43.506413,43.624836,70,63,40
43.70378,43.822205,65,63,40
43.90115,44.019573,74,83,40
44.09852,44.21694,70,63,40
44.295887,44.41431,74,83,40
44.493256,44.61168,70,63,40
44.690624,44.809048,65,63,40
44.887993,45.006416,62,63,40
45.08536,45.203785,65,63,40
45.28273,45.40115,60,63,40
45.4801,45.59852,72,83,40
45.677467,45.795887,69,63,40
45.874836,45.993256,65,63,40
46.072205,46.190624,60,63,40
46.269573,46.387993,72,83,40
46.46694,46.58536,69,63,40
46.66431,46.78273,65,63,40
46.86168,46.9801,60,63,40
47.059048,47.177467,72,83,40
47.256416,47.374836,69,63,40
47.453785,47.572205,65,70,40
47.651154,47.769573,60,70,40
47.848522,47.96694,72,100,40
48.04589,48.16431,69,80,40
48.24326,48.36168,72,100,40
48.440628,48.559048,69,80,40
48.637997,48.756416,65,92,40
48.835365,48.953785,60,92,40
49.03273,49.082073,62,80,40
49.082073,49.35839,74,100,40
49.427467,49.74326,77,100,40
49.822205,50.137997,76,92,40
50.21694,50.532734,72,92,40
50.61168,50.809048,74,105,40
50.809048,50.92747,77,105,40
51.006416,51.12484,74,105,40
51.203785,51.32221,71,105,40
51.401154,51.563316,72,116,40
51.80656,51.96872,60,116,40
52.211964,52.374126,60,116,40
52.61737,52.77953,60,116,40
53.022774,53.187157,60,116,40
54.678024,54.88115,60,63,40
54.678024,54.88115,63,63,40
54.99053,55.058235,60,63,40
54.99053,55.058235,63,63,40
55.094692,55.23011,60,63,40
55.094692,55.23011,63,63,40
55.30303,55.64678,63,63,40
55.30303,55.64678,60,63,40
55.719692,55.844692,63,63,40
55.719692,55.844692,60,63,40
55.92803,56.05303,63,63,40
55.92803,56.05303,60,63,40
56.344692,56.54782,60,63,40
56.344692,56.54782,63,63,40
56.657196,56.724903,63,63,40
56.657196,56.724903,60,63,40
56.76136,56.89678,60,63,40
56.76136,56.89678,63,63,40
56.969696,57.313446,63,63,40
56.969696,57.313446,60,63,40
57.38636,57.51136,63,63,40
57.38636,57.51136,60,63,40
57.594696,57.719696,63,63,40
57.594696,57.719696,60,63,40
58.01136,58.21449,60,63,40
58.01136,58.21449,63,63,40
58.323864,58.39157,63,63,40
58.323864,58.39157,60,63,40
58.42803,58.563446,60,63,40
58.42803,58.563446,63,63,40
58.636364,58.980114,63,63,40
58.636364,58.980114,60,63,40
59.05303,59.17803,60,63,40
59.05303,59.17803,63,63,40
59.261364,59.386364,60,63,40
59.261364,59.386364,63,63,40
59.67803,59.881157,63,63,40
59.67803,59.881157,60,63,40
59.990532,60.05824,60,63,40
59.990532,60.05824,63,63,40
60.094696,60.230114,60,63,40
60.094696,60.230114,63,63,40
60.303032,60.646782,63,63,40
60.303032,60.646782,60,63,40
60.719696,60.844696,60,63,40
60.719696,60.844696,63,63,40
60.928032,61.053032,63,63,40
60.928032,61.053032,60,63,40
61.3447,61.547825,60,63,40
61.3447,61.547825,63,63,40
61.6572,61.724907,63,63,40
61.6572,61.724907,60,63,40
61.761364,61.896782,63,63,40
61.761364,61.896782,60,63,40
61.9697,62.31345,63,63,40
61.9697,62.31345,60,63,40
62.386364,62.511364,60,63,40
62.386364,62.511364,63,63,40
62.5947,62.7197,60,63,40
62.5947,62.7197,63,63,40
63.011368,63.214493,63,63,40
63.011368,63.214493,60,63,40
63.323868,63.391575,63,63,40
63.323868,63.391575,60,63,40
63.428032,63.56345,63,63,40
63.428032,63.56345,60,63,40
63.636368,63.980118,63,63,40
63.636368,63.980118,60,63,40
64.05303,64.17803,63,63,40
64.05303,64.17803,60,63,40
64.26137,64.38637,60,63,40
64.26137,64.38637,63,63,40
64.67803,64.88116,63,63,40
64.67803,64.88116,60,63,40
64.99053,65.05824,60,63,40
64.99053,65.05824,63,63,40
65.0947,65.23012,60,63,40
65.0947,65.23012,63,63,40
65.30303,65.64678,63,63,40
65.30303,65.64678,60,63,40
65.7197,65.8447,60,63,40
65.7197,65.8447,63,63,40
65.92803,66.05303,60,63,40
65.92803,66.05303,63,63,40
66.3447,66.54783,55,63,40
66.3447,66.54783,63,63,40
66.6572,66.72491,55,63,40
66.6572,66.72491,63,63,40
66.76137,66.89679,55,63,40
66.76137,66.89679,63,63,40
66.9697,67.31345,55,63,40
66.9697,67.31345,63,63,40
67.38637,67.51137,63,63,40
67.38637,67.51137,55,63,40
67.5947,67.7197,63,63,40
67.5947,67.7197,55,63,40
68.01137,68.21449,63,63,40
68.01137,68.21449,55,63,40
68.32387,68.39158,55,63,40
68.32387,68.39158,63,63,40
68.42804,68.56345,63,63,40
68.42804,68.56345,55,63,40
68.63637,68.98012,63,63,40
68.63637,68.98012,55,63,40
69.05304,69.17804,63,63,40
69.05304,69.17804,55,63,40
69.26137,69.38637,55,63,40
69.26137,69.38637,63,63,40
69.67804,69.881165,60,63,40
69.67804,69.881165,63,63,40
69.99054,70.05825,60,63,40
69.99054,70.05825,63,63,40
70.0947,70.230125,63,63,40
70.0947,70.230125,60,63,40
70.30304,70.64679,63,63,40
70.30304,70.64679,60,63,40
70.7197,70.8447,60,63,40
70.7197,70.8447,63,63,40
70.92804,71.05304,60,63,40
70.92804,71.05304,63,63,40
71.3447,71.54783,63,63,40
71.3447,71.54783,60,63,40
71.6572,71.724915,60,63,40
71.6572,71.724915,63,63,40
71.761375,71.89679,63,63,40
71.761375,71.89679,60,63,40
71.9697,72.31345,63,63,40
71.9697,72.31345,60,63,40
72.386375,72.511375,60,63,40
72.386375,72.511375,63,63,40
72.5947,72.7197,63,63,40
72.5947,72.7197,60,63,40
73.011375,73.2145,63,63,40
73.011375,73.2145,60,63,40
73.323875,73.39159,63,63,40
73.323875,73.39159,60,63,40
73.42804,73.56346,63,63,40
73.42804,73.56346,60,63,40
73.636375,73.980125,63,63,40
73.636375,73.980125,60,63,40
74.05304,74.17804,63,70,40
74.05304,74.17804,60,70,40
74.261375,74.386375,63,70,40
74.261375,74.386375,60,70,40
74.67804,74.881165,61,70,40
74.99054,75.05825,61,80,40
75.09471,75.230125,61,80,40
75.30304,75.636375,61,80,40
75.71971,75.84471,61,80,40
75.92804,76.05304,61,92,40
76.34471,76.59471,60,92,40
76.65721,76.72492,63,92,40
76.65721,76.72492,60,92,40
76.761375,76.8968,60,92,40
76.761375,76.8968,63,92,40
76.96971,77.30305,60,92,40
76.96971,77.30305,63,92,40
77.386375,77.511375,60,92,40
77.386375,77.511375,63,92,40
77.59471,77.71971,60,70,40
77.59471,77.71971,63,70,40
78.011375,78.2649,60,70,40
78.011375,78.2649,63,70,40
78.32828,78.41279,60,70,40
78.32828,78.41279,63,70,40
78.433914,78.60293,60,70,40
78.433914,78.60293,63,70,40
78.64518,78.856445,60,70,40
78.856445,78.985016,61,70,40
78.64518,78.985016,63,70,40
79.07073,79.1993,61,70,40
79.07073,79.1993,63,70,40
79.28502,79.41359,61,63,40
79.28502,79.41359,63,63,40
79.499306,79.62788,61,63,40
79.499306,79.62788,63,63,40
79.71359,79.792534,60,39,40
79.81227,79.89122,60,39,40
79.91096,79.98991,60,39,40
80.00964,80.08859,60,39,40
80.10833,80.18727,60,39,40
80.20701,80.28596,60,39,40
80.305695,80.38464,60,39,40
80.40438,80.48333,60,39,40
80.50307,80.58201,60,39,40
80.601746,80.680695,60,39,40
80.70043,80.77938,60,39,40
80.79912,80.87807,60,39,40
80.897804,80.976746,60,39,40
80.99648,81.07543,60,39,40
81.09517,81.17412,60,39,40
81.193855,81.272804,60,39,40
81.29254,81.37148,60,39,40
81.39122,81.47017,60,39,40
81.48991,81.568855,60,39,40
81.58859,81.66754,60,39,40
81.68728,81.76622,60,39,40
81.78596,81.86491,60,39,40
81.88464,81.96359,60,39,40
81.98333,82.06228,60,39,40
82.08201,82.16096,60,39,40
82.180695,82.25964,60,39,40
82.27938,82.35833,60,39,40
82.37807,82.45701,60,39,40
82.476746,82.555695,60,39,40
82.57543,82.65438,60,39,40
82.67412,82.75307,60,39,40
82.772804,82.851746,60,39,40
82.87148,82.97017,59,39,40
82.97017,83.068855,62,39,40
83.068855,83.16754,59,39,40
83.16754,83.26622,62,39,40
83.26622,83.36491,59,39,40
83.36491,83.46359,62,39,40
83.46359,83.56228,59,39,40
83.56228,83.66096,62,39,40
83.66096,83.75964,59,39,40
83.75964,83.85833,62,39,40
83.85833,83.957016,59,39,40
83.957016,84.055695,62,39,40
84.055695,84.15438,59,39,40
84.15438,84.25307,62,39,40
84.25307,84.35175,59,39,40
84.35175,84.45043,62,39,40
84.45043,84.54912,59,39,40
84.54912,84.647804,62,39,40
84.647804,84.74649,59,39,40
84.74649,84.84517,62,39,40
84.84517,84.943855,59,39,40
84.943855,85.04254,62,39,40
85.04254,85.14122,59,39,40
85.14122,85.23991,62,39,40
85.23991,85.33859,59,39,40
85.33859,85.43728,62,39,40
85.43728,85.53596,59,39,40
85.53596,85.63464,62,39,40
85.63464,85.73333,59,39,40
85.73333,85.832016,62,39,40
85.832016,85.930695,59,39,40
85.930695,86.00964,62,39,40
86.02938,89.20605,58,39,40
89.229385,89.30833,56,39,40
89.328064,89.40701,56,39,40
89.42675,89.5057,60,39,40
89.52544,89.604385,60,39,40
89.62412,89.703064,56,39,40
89.7228,89.80175,56,39,40
89.82149,89.90044,60,39,40
89.92017,89.99912,60,39,40
90.01885,90.0978,56,63,40
90.11754,90.19649,56,63,40
90.216225,90.29517,60,63,40
90.31491,90.39386,60,63,40
90.41359,90.49254,56,63,40
90.512276,90.591225,56,63,40
90.61096,90.68991,60,63,40
90.70965,90.78859,60,63,40
90.80833,90.887276,65,63,40
90.90701,90.98596,65,70,40
91.0057,91.08465,68,70,40
91.104385,91.18333,68,70,40
91.203064,91.28201,65,80,40
91.30175,91.3807,65,80,40
91.40044,91.479385,68,80,40
91.49912,91.578064,68,80,40
91.5978,91.67675,65,92,40
91.69649,91.77544,65,92,40
91.79517,91.87412,68,92,40
91.89386,91.9728,68,92,40
91.99254,92.07149,65,92,40
92.091225,92.17017,65,92,40
92.18991,92.26886,68,92,40
92.2886,92.36754,68,92,40
92.387276,92.54944,72,92,40
92.387276,92.54944,84,92,40
92.81802,92.959915,83,92,40
92.79269,92.959915,65,92,40
92.81802,92.959915,72,92,40
93.19809,93.36025,72,92,40
93.19809,93.36025,84,92,40
93.62883,93.77072,83,92,40
93.60349,93.77072,65,92,40
93.62883,93.77072,72,92,40
94.008896,94.17106,72,92,40
94.008896,94.17106,84,92,40
94.439644,94.581535,83,92,40
94.41431,94.581535,65,92,40
94.439644,94.581535,72,92,40
94.81971,94.98187,72,92,40
94.81971,94.98187,84,92,40
95.25045,95.39234,83,92,40
95.22511,95.39234,65,92,40
95.25045,95.39234,72,92,40
95.630516,95.788414,72,92,40
95.630516,95.788414,84,92,40
98.788414,98.86736,65,63,40
98.8871,98.96605,65,63,40
98.98578,99.06473,60,63,40
99.084465,99.163414,60,63,40
99.18315,99.2621,72,63,40
99.28184,99.36079,72,63,40
99.380516,99.459465,69,63,40
99.4792,99.55815,69,63,40
99.57789,99.65684,65,63,40
99.676575,99.755516,65,63,40
99.77525,99.8542,60,63,40
99.87394,99.95289,60,63,40
99.972626,100.051575,72,63,40
100.07131,100.15025,72,63,40
100.16999,100.24894,69,63,40
100.26868,100.347626,69,63,40
100.36736,100.44631,65,63,40
100.46605,100.54499,65,63,40
100.56473,100.64368,60,63,40
100.663414,100.74236,60,63,40
100.7621,100.84105,72,63,40
100.86079,100.93973,72,63,40
100.959465,101.038414,69,63,40
101.05815,101.1371,69,63,40
101.15684,101.23579,72,63,40
101.25552,101.334465,72,63,40
101.3542,101.43315,69,63,40
101.45289,101.53184,69,63,40
101.551575,101.63052,65,63,40
101.65026,101.7292,65,63,40
101.74894,101.82789,60,63,40
101.847626,101.926575,60,63,40
101.94631,102.02526,70,63,40
102.04499,102.12394,70,63,40
102.14368,102.222626,65,63,40
102.24236,102.32131,65,63,40
102.34105,102.42,74,63,40
102.43973,102.51868,74,63,40
102.538414,102.61736,70,63,40
102.6371,102.71605,70,63,40
102.73579,102.81473,74,63,40
102.834465,102.913414,74,63,40
102.93315,103.0121,70,63,40
103.03184,103.11079,70,63,40
103.13052,103.209465,65,63,40
103.2292,103.30815,65,63,40
103.32789,103.40684,62,63,40
103.426575,103.50552,62,63,40
103.52526,103.6042,65,63,40
103.62394,103.70289,65,63,40
103.722626,103.801575,60,63,40
103.82131,103.90026,60,63,40
103.92,103.99894,72,63,40
104.01868,104.097626,72,63,40
104.11736,104.19631,69,63,40
104.21605,104.295,69,63,40
104.314735,104.39368,65,63,40
104.413414,104.49236,65,63,40
104.5121,104.59105,60,63,40
104.61079,104.689735,60,63,40
104.70947,104.788414,72,63,40
104.80815,104.8871,72,63,40
104.90684,104.98579,69,63,40
105.00552,105.08447,69,63,40
105.1042,105.18315,65,70,40
105.20289,105.28184,65,70,40
105.301575,105.38052,60,70,40
105.40026,105.47921,60,70,40
105.49894,105.57789,72,70,40
105.597626,105.676575,72,70,40
105.69631,105.77526,69,70,40
105.795,105.87394,69,70,40
105.89368,105.972626,65,80,40
105.99236,106.07131,65,80,40
106.09105,106.17,60,80,40
106.189735,106.26868,60,80,40
106.288414,106.36736,72,80,40
106.3871,106.46605,72,80,40
106.48579,106.564735,69,80,40
106.58447,106.663414,69,80,40
106.68315,106.7621,72,80,40
106.78184,106.86079,72,80,40
106.88052,106.95947,69,80,40
106.97921,107.05815,69,80,40
107.07789,107.15684,65,92,40
107.176575,107.25552,65,92,40
107.27526,107.35421,69,92,40
107.37395,107.45289,69,92,40
107.472626,107.768684,69,80,40
107.768684,107.832825,70,80,40
107.86736,107.99565,69,80,40
108.064735,108.19302,64,80,40
108.2621,108.55815,69,80,40
108.55815,108.6223,70,80,40
108.65684,108.785126,69,80,40
108.85421,108.9825,65,80,40
109.051575,109.347626,72,92,40
109.347626,109.41177,74,92,40
109.44631,109.5746,72,92,40
109.643684,109.77197,67,92,40
109.84105,110.1371,72,92,40
110.1371,110.20125,73,92,40
110.23579,110.364075,72,92,40
110.43316,110.56145,68,92,40
110.63052,110.926575,75,105,40
110.926575,110.99072,77,105,40
111.02526,111.15355,75,105,40
111.222626,111.35092,72,105,40
111.42,111.71605,75,105,40
111.71605,111.7802,77,105,40
111.814735,111.94302,75,105,40
112.0121,112.140396,72,105,40
112.20947,112.36737,75,105,40
112.40684,112.564735,71,105,40
112.60421,112.7621,75,105,40
112.801575,112.95947,72,105,40
112.99895,113.15684,75,105,40
113.19631,113.35421,71,105,40
113.393684,113.551575,75,105,40
113.59105,113.74895,72,105,40
113.78842,113.94842,76,125,40
113.98842,114.14842,72,105,40
114.18842,114.34842,76,125,40
114.38842,114.54842,72,105,40
114.58842,114.75058,76,125,40
114.79112,114.953285,72,105,40
114.99383,115.15599,76,125,40
115.196526,115.35869,72,105,40
115.39923,115.44857,77,105,40
115.44857,115.49792,76,105,40
115.49792,115.54726,77,105,40
115.54726,115.596596,76,105,40
115.596596,115.64594,77,105,40
115.64594,115.69528,76,105,40
115.69528,115.74462,77,105,40
115.74462,115.79397,76,105,40
115.79397,115.84331,77,105,40
115.84331,115.892654,76,105,40
115.892654,115.94199,77,105,40
115.94199,115.99133,76,105,40
115.99133,116.04068,77,105,40
116.04068,116.09002,76,105,40
116.09002,116.13936,77,105,40
116.13936,116.188705,76,105,40
116.188705,116.238045,77,105,40
116.238045,116.28739,76,105,40
116.28739,116.33673,77,105,40
116.33673,116.38607,76,105,40
116.38607,116.43542,77,105,40
116.43542,116.48476,76,105,40
116.48476,116.534096,77,105,40
116.534096,116.58344,76,116,40
116.58344,116.63278,77,116,40
116.63278,116.68213,76,116,40
116.68213,116.73147,77,116,40
116.73147,116.78081,76,116,40
116.78081,116.830154,77,116,40
116.830154,116.87949,76,116,40
116.87949,116.92883,77,116,40
116.92883,116.97818,76,116,40
116.97818,117.149605,77,116,40
116.97818,117.149605,69,116,40
117.406746,117.546036,77,127,40
117.62103,117.76032,74,116,40
117.83532,117.96361,72,127,40
118.03269,118.16098,69,116,40
118.23006,118.358345,65,127,40
118.42743,118.55572,62,116,40
118.624794,118.86163,62,127,40
118.920845,118.98499,62,116,40
119.01953,119.14782,62,116,40
119.216896,119.34519,62,116,40
119.41427,119.57217,62,116,40
119.809006,119.937294,77,127,40
120.00637,120.124794,73,116,40
120.20374,120.33203,72,127,40
120.40111,120.51953,68,116,40
120.59848,120.72677,65,127,40
120.795845,120.91427,61,116,40
120.99322,121.23006,61,127,40
121.28927,121.35342,61,116,40
121.387955,121.51624,61,116,40
121.58532,121.71361,61,116,40
121.78269,121.944855,61,116,40
122.3908,122.55296,61,63,40
122.5935,122.8435,61,63,40
122.906,122.97371,61,63,40
123.01017,123.145584,61,63,40
123.2185,123.35392,61,63,40
123.426834,123.59826,61,39,40
125.950645,126.78398,58,63,40
126.78398,127.59301,61,63,40
127.61731,128.45065,65,63,40
128.45065,129.68849,60,63,40
129.70065,130.11731,58,63,40
130.11731,130.92635,56,63,40
130.95065,132.59302,61,63,40
132.61731,135.92635,60,63,40
135.95065,137.21255,65,63,40
137.21255,137.64113,64,63,40
137.64113,137.8078,65,63,40
139.09946,139.26613,58,63,40
139.3078,139.47446,57,63,40
140.76613,140.9328,58,63,40
140.97446,141.14113,60,63,40
141.59947,141.76613,62,63,40
141.8078,141.97447,60,63,40
142.4328,142.59947,62,63,40
142.64113,142.82295,60,63,40
144.55022,145.61217,60,63,40
145.61217,146.67412,62,70,40
146.67412,147.73605,64,80,40
147.73605,148.76703,65,63,40
148.798,149.85995,64,63,40
149.85995,150.89093,65,63,40
150.9219,152.51482,64,70,40
152.51482,153.0303,62,63,40
153.04579,153.57677,60,63,40
153.57677,154.09225,64,63,40
154.10774,154.23605,62,63,40
154.24048,154.3688,64,63,40
154.37323,154.50154,65,63,40
154.50597,154.63428,67,63,40
154.6387,156.20065,69,63,40
156.23163,157.2626,65,70,40
157.29358,157.82455,64,63,40
157.82455,158.88649,72,70,40
158.88649,159.40198,71,63,40
159.41747,159.94844,64,63,40
159.94844,160.47942,60,63,40
160.47942,161.02988,62,63,40
161.02988,161.56427,65,63,40
161.58034,162.1113,64,63,40
162.1113,162.64227,63,63,40
162.64227,163.18282,65,63,40
163.18282,163.61525,64,63,40
163.72336,164.27382,69,63,40
164.27382,164.68666,67,63,40
164.68666,164.75546,69,63,40
164.75546,164.81052,67,63,40
164.82428,164.96188,64,63,40
165.00777,165.14537,64,63,40
165.19125,165.32886,64,63,40
165.37474,166.13759,64,63,40
187.83601,188.07286,59,103,40
188.13206,188.21101,60,63,40
188.23074,188.3097,59,63,40
188.32944,188.40839,59,63,40
188.42812,188.50706,59,63,40
188.5268,188.60574,59,63,40
188.62549,188.70444,59,63,40
188.72417,188.80312,59,63,40
188.82286,188.9018,59,63,40
188.92154,189.00049,59,63,40
189.02022,189.09917,59,63,40
189.11891,189.19786,59,63,40
189.21759,189.29654,59,63,40
189.31627,189.39522,59,63,40
189.41496,189.65181,59,103,40
189.71101,189.78996,60,63,40
189.8097,189.88864,59,63,40
189.90839,189.98734,59,63,40
190.00706,190.08601,59,63,40
190.10574,190.1847,59,63,40
190.20444,190.28339,59,63,40
190.30312,190.38206,59,63,40
190.40181,190.48074,59,63,40
190.50049,190.57944,59,63,40
190.59917,190.67812,59,63,40
190.69786,190.77681,59,63,40
190.79654,190.87549,59,63,40
190.89522,190.97417,59,63,40
190.99391,191.23074,60,103,40
191.28996,191.36891,62,63,40
191.38864,191.46759,60,63,40
191.48734,191.56628,60,63,40
191.58601,191.66496,60,63,40
191.6847,191.76364,60,63,40
191.78339,191.86234,60,63,40
191.88206,191.96101,60,63,40
191.98074,192.0597,60,63,40
192.07944,192.15839,60,63,40
192.17812,192.25706,60,63,40
192.27681,192.35574,60,63,40
192.37549,192.45444,60,63,40
192.47417,192.55312,60,63,40
192.57286,192.8097,60,103,40
192.86891,192.94786,62,63,40
192.96759,193.04654,60,63,40
193.06628,193.14522,60,63,40
193.16496,193.24391,60,63,40
193.26364,193.34259,60,63,40
193.36234,193.44128,60,63,40
193.46101,193.53996,60,63,40
193.5597,193.63864,60,63,40
193.65839,193.73734,60,63,40
193.75706,193.83601,60,63,40
193.85576,193.9347,60,63,40
193.95444,194.03339,60,63,40
194.05312,194.13206,60,63,40
194.15181,194.38864,59,103,40
194.44786,194.52681,60,63,40
194.54654,194.62549,59,63,40
194.64522,194.72417,59,63,40
194.74391,194.82286,59,63,40
194.84259,194.92154,59,63,40
194.94128,195.06956,71,63,40
195.13864,195.26694,64,63,40
195.33601,195.57286,71,90,40
195.63206,195.69621,72,70,40
195.73076,195.85904,71,70,40
195.92812,196.05641,64,70,40
196.12549,196.36234,71,100,40
196.42154,196.48569,72,80,40
196.52023,196.75706,71,80,40
196.81628,196.88042,72,80,40
196.91496,197.15181,71,80,40
197.21101,197.27516,72,92,40
197.3097,197.54654,71,92,40
197.60576,197.66989,72,92,40
197.70444,197.94128,71,105,40
198.00049,198.06464,72,105,40
198.09917,198.33601,70,105,40
198.39523,198.45937,72,105,40
198.49391,198.73076,70,105,40
198.78996,198.85411,72,105,40
198.88864,199.12549,70,105,40
199.18471,199.24884,72,116,40
199.28339,199.44128,70,116,40
199.48076,199.63864,67,116,40
199.48076,199.63864,70,116,40
199.67812,199.84029,69,116,40
199.67812,199.84029,65,116,40
199.88083,200.04298,60,116,40
200.08353,200.24568,72,103,40
200.28622,200.4484,69,63,40
200.48894,200.60735,65,63,40
200.6863,200.80472,60,63,40
200.88367,201.00209,72,83,40
201.08104,201.19946,69,63,40
201.27841,201.39682,65,63,40
201.47577,201.5942,60,63,40
201.67314,201.79156,72,83,40
201.87051,201.98894,69,63,40
202.06789,202.1863,72,83,40
202.26524,202.38367,69,63,40
202.46262,202.58104,65,63,40
202.65999,202.77841,60,63,40
202.85736,202.97577,70,63,40
203.05472,203.17314,65,63,40
203.25209,203.37051,74,63,40
203.44946,203.56789,70,63,40
203.64684,203.76524,74,63,40
203.8442,203.96262,70,63,40
204.04156,204.15999,65,63,40
204.23894,204.35736,62,63,40
204.4363,204.55472,65,63,40
204.63367,204.75209,60,63,40
204.83104,204.94946,72,83,40
205.02841,205.14684,69,63,40
205.22577,205.3442,65,63,40
205.42314,205.54156,60,63,40
205.62051,205.73894,72,83,40
205.81789,205.93631,69,63,40
206.01524,206.13367,65,63,40
206.21262,206.33104,60,63,40
206.40999,206.52841,72,83,40
206.60736,206.72577,69,63,40
206.80472,206.92314,65,63,40
207.00209,207.12051,60,63,40
207.19946,207.31789,72,83,40
207.39684,207.51524,69,63,40
207.5942,207.71262,72,83,40
207.79156,207.90999,69,63,40
207.98894,208.10736,65,63,40
208.18631,208.30472,60,63,40
208.38367,208.43301,64,80,40
208.43301,208.70934,71,100,40
208.77841,209.0942,74,100,40
209.17314,209.76526,72,100,40
209.76526,209.92314,69,80,40
209.96262,210.35736,71,92,40
210.35736,210.51526,74,92,40
210.55472,210.71262,68,92,40
210.75209,210.91426,57,92,40
210.75209,210.91426,64,92,40
210.75209,210.91426,69,92,40
211.1575,211.31966,69,92,40
211.1575,211.31966,64,92,40
211.1575,211.31966,57,92,40
211.5629,211.72507,57,92,40
211.5629,211.72507,64,92,40
211.5629,211.72507,69,92,40
211.9683,212.13048,57,92,40
211.9683,212.13048,64,92,40
211.9683,212.13048,69,92,40
212.37372,213.97844,63,80,40
213.99533,214.11696,65,39,40
214.19804,214.31966,68,39,40
214.40074,214.52025,65,39,40
214.59918,214.7176,68,39,40
214.79655,214.91498,65,39,40
214.99393,215.11235,68,39,40
215.1913,215.30972,65,39,40
215.38866,215.50708,68,39,40
215.58603,215.70445,65,39,40
215.7834,215.90182,68,39,40
215.98077,216.09918,65,39,40
216.17813,216.29655,68,39,40
216.3755,216.49393,65,39,40
216.57288,216.6913,68,39,40
216.77025,216.88866,65,39,40
216.9676,217.08603,68,39,40
217.16498,217.2834,61,39,40
217.36235,217.48077,66,39,40
217.55972,217.67813,61,39,40
217.75708,217.8755,66,39,40
217.95445,218.07288,61,39,40
218.15182,218.27025,66,39,40
218.3492,218.4676,61,39,40
218.54655,218.66498,66,39,40
218.74393,218.86235,65,39,40
218.9413,219.05972,68,39,40
219.13867,219.25708,65,39,40
219.33603,219.45445,68,39,40
219.5334,219.65182,65,39,40
219.73077,219.8492,68,39,40
219.92813,220.04655,65,39,40
220.1255,220.24393,68,39,40
220.32288,220.4413,65,39,40
220.52025,220.63867,68,39,40
220.7176,220.83603,65,39,40
220.91498,221.0334,68,39,40
221.11235,221.23077,65,39,40
221.30972,221.42815,68,39,40
221.50708,221.6255,65,39,40
221.70445,221.82288,68,39,40
221.90182,222.02025,65,39,40
222.0992,222.2176,68,39,40
222.29655,222.41498,65,39,40
222.49393,222.61235,68,39,40
222.6913,222.79655,58,39,40
222.6913,222.79655,66,39,40
222.82288,222.92815,66,39,40
222.82288,222.92815,58,39,40
222.95445,223.05972,66,39,40
222.95445,223.05972,58,39,40
223.08603,223.1913,58,39,40
223.08603,223.1913,63,39,40
223.21762,223.32288,63,39,40
223.21762,223.32288,58,39,40
223.3492,223.45445,63,39,40
223.3492,223.45445,58,39,40
223.48077,223.58603,58,39,40
223.48077,223.58603,63,39,40
223.61235,223.71762,63,39,40
223.61235,223.71762,58,39,40
223.74393,223.8492,63,39,40
223.74393,223.8492,58,39,40
223.8755,223.98077,66,39,40
223.8755,223.98077,58,39,40
224.00708,224.11235,66,39,40
224.00708,224.11235,58,39,40
224.13867,224.24393,66,39,40
224.13867,224.24393,58,39,40
224.27025,224.3755,58,39,40
224.27025,224.3755,66,39,40
224.40182,224.50708,58,39,40
224.40182,224.50708,66,39,40
224.5334,224.63867,58,39,40
224.5334,224.63867,66,39,40
224.66498,224.77025,58,39,40
224.66498,224.77025,66,39,40
224.79655,224.90182,66,39,40
224.79655,224.90182,58,39,40
224.92815,225.0334,66,39,40
224.92815,225.0334,58,39,40
225.05972,225.16498,66,39,40
225.05972,225.16498,58,39,40
225.1913,225.29655,66,39,40
225.1913,225.29655,58,39,40
225.32288,225.42815,66,39,40
225.32288,225.42815,58,39,40
225.45445,225.55972,66,39,40
225.45445,225.55972,58,39,40
225.58603,225.6913,66,39,40
225.58603,225.6913,58,39,40
225.71762,225.82288,66,39,40
225.71762,225.82288,58,39,40
225.8492,225.95445,66,39,40
225.8492,225.95445,58,39,40
225.98077,226.08603,66,39,40
225.98077,226.08603,58,39,40
226.11235,226.21762,66,39,40
226.11235,226.21762,58,39,40
226.24393,226.3492,66,39,40
226.24393,226.3492,58,39,40
226.3755,226.48077,66,39,40
226.3755,226.48077,58,39,40
226.5071,226.61235,66,39,40
226.5071,226.61235,58,39,40
226.63867,226.74393,66,39,40
226.63867,226.74393,58,39,40
226.77025,226.8755,66,39,40
226.77025,226.8755,58,39,40
226.90182,227.0071,58,39,40
226.90182,227.0071,66,39,40
227.0334,227.13867,58,39,40
227.0334,227.13867,66,39,40
227.16498,227.27025,66,39,40
227.16498,227.27025,58,39,40
227.29657,227.40182,66,39,40
227.29657,227.40182,58,39,40
227.42815,227.5334,66,39,40
227.42815,227.5334,58,39,40
227.55972,227.66498,66,39,40
227.55972,227.66498,58,39,40
227.6913,227.79657,66,39,40
227.6913,227.79657,58,39,40
227.82288,227.92815,58,39,40
227.82288,227.92815,66,39,40
227.95445,228.05972,66,39,40
227.95445,228.05972,58,39,40
228.08603,228.1913,58,39,40
228.08603,228.1913,66,39,40
228.21762,228.32288,67,39,40
228.21762,228.32288,57,39,40
228.3492,228.45445,67,39,40
228.3492,228.45445,57,39,40
228.48077,228.58603,57,39,40
228.48077,228.58603,67,39,40
228.61235,228.77025,57,39,40
228.61235,228.77025,67,39,40
229.0071,229.11235,57,63,40
229.0071,229.11235,67,63,40
229.13867,229.24393,67,63,40
229.13867,229.24393,57,63,40
229.27025,229.3755,67,63,40
229.27025,229.3755,57,63,40
229.40182,229.55972,57,63,40
229.40182,229.55972,67,63,40
229.79657,229.90182,57,70,40
229.79657,229.90182,69,70,40
229.92815,230.0334,69,70,40
229.92815,230.0334,57,70,40
230.05972,230.16498,69,70,40
230.05972,230.16498,57,70,40
230.1913,230.3492,57,70,40
230.1913,230.3492,69,70,40
230.58604,230.6913,58,80,40
230.58604,230.6913,67,80,40
230.71762,230.82288,58,80,40
230.71762,230.82288,67,80,40
230.8492,230.95445,67,80,40
230.8492,230.95445,58,80,40
230.98077,231.13867,58,80,40
230.98077,231.13867,67,80,40
231.37552,231.48077,59,80,40
231.37552,231.48077,67,80,40
231.5071,231.61235,59,80,40
231.5071,231.61235,67,80,40
231.63867,231.74393,67,80,40
231.63867,231.74393,59,80,40
231.77025,231.92815,67,80,40
231.77025,231.92815,59,80,40
232.16498,232.27025,59,92,40
232.16498,232.27025,68,92,40
232.29657,232.40182,59,92,40
232.29657,232.40182,68,92,40
232.42815,232.5334,59,92,40
232.42815,232.5334,68,92,40
232.55972,232.71762,59,92,40
232.55972,232.71762,68,92,40
232.95445,233.05972,69,105,40
233.08604,233.1913,69,105,40
233.21762,233.32288,69,105,40
233.3492,233.5512,70,105,40
233.5512,233.71335,69,105,40
233.75389,233.86311,65,105,40
233.8905,234.00009,65,105,40
234.0275,234.13708,65,105,40
234.16447,234.37244,67,92,40
234.37244,234.5391,65,92,40
234.58076,234.69305,60,92,40
234.72122,234.8339,60,80,40
234.86206,234.97475,60,80,40
235.00291,235.2168,62,80,40
235.2168,235.38821,60,80,40
235.43108,235.5466,58,70,40
235.57559,235.69153,58,70,40
235.72052,235.83646,58,70,40
235.86545,236.21971,60,70,40
236.21971,236.58691,58,70,40
236.60683,240.29135,57,63,40
240.3174,240.9424,60,63,40
240.9424,242.8032,57,63,40
242.8298,243.46811,57,63,40
243.46811,243.72806,62,70,40
243.95631,244.05414,57,70,40
244.11935,246.70717,60,63,40
246.70717,247.74332,60,39,40
247.99332,251.71727,60,39,40
251.74332,252.99332,60,63,40
252.99332,253.61832,64,70,40
253.61832,254.2303,60,80,40
254.24332,254.86832,58,80,40
254.24332,254.86832,62,80,40
254.86832,256.49332,62,63,40
254.86832,256.49332,58,63,40
256.74332,257.36832,62,63,40
257.36832,259.7844,60,63,40
259.82385,260.0015,65,63,40
259.82385,260.0015,69,63,40
260.1199,260.1791,65,63,40
260.1199,260.1791,69,63,40
260.2186,260.337,65,63,40
260.2186,260.337,69,63,40
260.41595,260.73175,65,63,40
260.41595,260.73175,69,63,40
260.8107,260.9291,65,63,40
260.8107,260.9291,69,63,40
261.00806,261.1265,65,63,40
261.00806,261.1265,69,63,40
261.4028,261.58044,69,63,40
261.4028,261.58044,65,63,40
261.69885,261.75806,69,63,40
261.69885,261.75806,65,63,40
261.79755,261.91595,69,63,40
261.79755,261.91595,65,63,40
261.9949,262.3107,65,63,40
261.9949,262.3107,69,63,40
262.38965,262.50806,69,63,40
262.38965,262.50806,65,63,40
262.587,262.70544,65,63,40
262.587,262.70544,69,63,40
262.98175,263.1594,69,63,40
262.98175,263.1594,65,63,40
263.2778,263.337,65,63,40
263.2778,263.337,69,63,40
263.3765,263.4949,69,63,40
263.3765,263.4949,65,63,40
263.57385,263.88965,69,63,40
263.57385,263.88965,65,63,40
263.9686,264.087,65,70,40
263.9686,264.087,69,70,40
264.16595,264.2844,69,70,40
264.16595,264.2844,65,70,40
264.5607,264.73834,67,70,40
264.85675,264.91595,67,70,40
264.95544,265.07385,67,80,40
265.1528,265.4686,67,80,40
265.54755,265.66595,67,80,40
265.7449,265.86334,67,80,40
266.13965,266.3173,65,80,40
266.13965,266.3173,69,80,40
266.4357,266.4949,69,70,40
266.4357,266.4949,65,80,40
266.5344,266.6528,65,70,40
266.5344,266.6528,69,70,40
266.73175,267.04755,69,70,40
266.73175,267.04755,65,70,40
267.1265,267.2449,69,70,40
267.1265,267.2449,65,70,40
267.32385,267.4423,69,63,40
267.32385,267.4423,65,63,40
267.7186,267.91595,65,63,40
267.91595,268.11334,57,63,40
268.11334,268.9028,65,63,40
268.9028,269.29755,64,63,40
269.29755,269.45544,65,39,40
269.6923,269.82385,69,63,40
269.82385,269.95544,65,63,40
269.95544,270.087,69,63,40
270.087,270.2449,65,63,40
270.48175,270.61334,69,63,40
270.61334,270.7449,65,63,40
270.7449,270.8765,69,63,40
270.8765,271.0344,65,63,40
271.27124,271.4028,69,63,40
271.4028,271.5344,65,63,40
271.5344,271.66595,69,63,40
271.66595,271.82385,65,63,40
272.0607,272.1923,69,63,40
272.1923,272.32385,65,63,40
272.32385,272.45544,69,63,40
272.45544,272.61334,65,63,40
272.8502,272.98175,68,63,40
272.98175,273.11334,65,63,40
273.11334,273.2449,68,63,40
273.2449,273.4028,65,63,40
273.63965,273.77124,68,63,40
273.77124,273.9028,65,63,40
273.9028,274.0344,68,63,40
274.0344,274.1923,65,63,40
274.42914,274.5607,68,70,40
274.5607,274.6923,65,70,40
274.6923,274.82385,68,70,40
274.82385,274.98175,65,70,40
275.2186,275.3502,68,80,40
275.3502,275.48175,65,80,40
275.48175,275.61334,68,80,40
275.61334,275.77124,65,80,40
276.0081,276.11334,71,92,40
276.13965,276.2449,71,92,40
276.27124,276.3765,71,92,40
276.4028,276.5081,71,92,40
276.5344,276.63965,71,92,40
276.666,276.77124,71,92,40
276.79755,276.9028,71,92,40
276.92914,277.0344,71,92,40
277.0607,277.166,71,92,40
277.1923,277.29755,71,105,40
277.32385,277.42914,71,105,40
277.45544,277.5607,71,105,40
277.58704,277.6923,71,105,40
277.7186,277.82385,71,105,40
277.8502,277.95544,71,105,40
277.98175,278.0607,77,116,40
278.08044,278.1594,77,116,40
278.17914,278.2581,79,116,40
278.2778,278.35675,79,116,40
278.3765,278.45544,81,116,40
278.4752,278.55414,81,116,40
278.57385,278.6528,69,116,40
278.67255,278.7515,69,116,40
278.77124,278.8502,77,116,40
278.8699,278.94885,77,116,40
278.9686,279.04755,79,116,40
279.0673,279.14624,79,116,40
279.166,279.2449,81,116,40
279.26465,279.3436,81,116,40
279.36334,279.4423,69,116,40
279.46204,279.541,69,116,40
279.5607,279.63965,77,116,40
279.6594,279.73834,77,116,40
279.7581,279.83704,79,116,40
279.85675,279.9357,79,116,40
279.95544,280.0344,81,116,40
280.05414,280.1331,81,116,40
280.1528,280.23175,69,116,40
280.2515,280.33044,69,116,40
280.3502,280.42914,77,116,40
280.44885,280.5278,77,116,40
280.54755,280.6265,79,116,40
280.64624,280.7252,79,116,40
280.74493,280.82385,76,116,40
280.8436,280.92255,76,116,40
280.9423,281.02124,70,116,40
281.041,281.11993,70,116,40
281.13965,281.27124,69,110,40
281.27124,281.3502,81,70,40
281.4028,281.48175,81,70,40
281.5344,281.8502,81,90,40
281.92914,282.0607,69,70,40
282.0607,282.13965,81,70,40
282.1923,282.27124,81,70,40
282.32385,282.63965,81,90,40
282.7186,282.8502,69,70,40
282.8502,282.92914,81,70,40
282.98175,283.0607,81,70,40
283.11334,283.42914,81,90,40
283.5081,283.63965,69,70,40
283.63965,283.7186,81,70,40
283.77124,283.8502,81,70,40
283.9028,284.2186,81,90,40
284.29755,284.42914,69,70,40
284.42914,284.5081,81,70,40
284.5607,284.63965,81,70,40
284.6923,285.0081,80,90,40
285.08704,285.2186,68,70,40
285.2186,285.29755,80,80,40
285.3502,285.42914,80,80,40
285.48175,285.79755,80,100,40
285.8765,286.0081,68,80,40
286.0081,286.08704,80,92,40
286.13965,286.2186,80,92,40
286.27124,286.58704,80,112,40
286.666,286.79755,68,105,40
286.79755,286.8765,80,105,40
286.92914,287.0081,80,105,40
287.0607,287.3765,80,125,40
287.45544,287.58704,77,105,40
287.58704,287.6742,83,105,40
287.7186,287.8058,83,105,40
287.8502,287.98175,83,105,40
287.98175,288.06894,77,105,40
288.11334,288.2005,77,105,40
288.24493,288.3765,77,105,40
288.3765,288.46368,83,105,40
288.5081,288.59525,83,105,40
288.63965,288.77124,83,105,40
288.77124,288.8584,77,105,40
288.90283,288.99,77,105,40
289.0344,289.166,77,105,40
289.166,289.2482,83,105,40
289.29755,289.3798,83,105,40
289.42914,289.5607,80,105,40
289.5607,289.64294,83,105,40
289.6923,289.77454,83,105,40
289.82388,289.95544,80,105,40
289.95544,290.0377,81,105,40
290.08704,290.16925,81,105,40
290.2186,290.3502,80,105,40
290.3502,290.43243,81,105,40
290.48175,290.564,81,105,40
290.61334,290.74493,81,105,40
290.74493,290.82715,82,105,40
290.8765,290.95874,82,105,40
291.0081,291.13965,77,105,40
291.13965,291.2219,78,105,40
291.27124,291.3535,78,105,40
291.40283,291.5344,77,105,40
291.5344,291.61664,76,105,40
291.666,291.7482,76,105,40
291.79755,291.92914,76,105,40
291.92914,292.01138,77,105,40
292.0607,292.14294,77,105,40
292.1923,292.32388,76,105,40
292.32388,292.4061,77,105,40
292.45544,292.5377,77,105,40
292.58704,292.7186,73,105,40
292.7186,292.80084,72,105,40
292.8502,292.93243,72,105,40
292.98178,293.11334,76,105,40
293.11334,293.1956,77,105,40
293.24493,293.32715,77,105,40
293.3765,293.5081,73,105,40
293.5081,293.59033,72,105,40
293.63965,293.7219,72,105,40
293.77124,293.90283,76,105,40
293.90283,293.98505,77,105,40
294.0344,294.11664,77,105,40
294.166,294.29755,73,105,40
294.29755,294.3798,72,105,40
294.42914,294.51138,72,105,40
294.5607,294.6923,73,105,40
294.6923,294.77454,72,105,40
294.82388,294.9061,72,105,40
294.95544,295.08704,71,105,40
295.08704,295.16928,70,105,40
295.2186,295.30084,70,105,40
295.3502,295.5081,69,105,40
295.3502,295.5081,65,105,40
295.74493,296.0607,72,105,40
295.74493,296.0607,69,105,40
296.5344,296.8502,69,105,40
296.5344,296.8502,72,105,40
297.32388,297.63965,69,105,40
297.32388,297.63965,65,105,40
298.11334,298.42914,72,105,40
298.11334,298.42914,69,105,40
298.90283,299.2186,65,105,40
298.90283,299.2186,69,105,40
299.6923,300.0081,72,105,40
299.6923,300.0081,69,105,40
300.08704,300.1923,65,105,40
300.08704,300.1923,69,105,40
300.2186,300.32388,69,105,40
300.2186,300.32388,65,105,40
300.3502,300.45544,65,105,40
300.3502,300.45544,69,105,40
300.48178,300.58704,65,105,40
300.48178,300.58704,70,105,40
300.61334,300.7186,70,105,40
300.61334,300.7186,65,105,40
300.74493,300.8502,70,105,40
300.74493,300.8502,65,105,40
300.8765,300.98178,65,105,40
300.8765,300.98178,72,105,40
301.0081,301.11334,72,105,40
301.0081,301.11334,65,105,40
301.13968,301.24493,65,105,40
301.13968,301.24493,72,105,40
301.27124,301.3765,67,105,40
301.27124,301.3765,76,105,40
301.40283,301.5081,76,105,40
301.40283,301.5081,67,105,40
301.5344,301.63968,76,105,40
301.5344,301.63968,67,105,40
301.666,301.77124,69,105,40
301.666,301.77124,77,105,40
301.79755,301.90283,65,105,40
301.79755,301.90283,69,105,40
301.92914,302.0344,69,105,40
301.92914,302.0344,65,105,40
302.06073,302.166,65,105,40
302.06073,302.166,69,105,40
302.1923,302.29755,69,105,40
302.1923,302.29755,65,105,40
302.32388,302.42914,65,105,40
302.32388,302.42914,69,105,40
302.45544,302.56073,65,105,40
302.45544,302.56073,69,105,40
302.58704,302.6923,69,105,40
302.58704,302.6923,65,105,40
302.7186,302.82388,69,105,40
302.7186,302.82388,65,105,40
302.8502,302.95544,69,105,40
302.8502,302.95544,65,105,40
302.98178,303.08704,69,105,40
302.98178,303.08704,65,105,40
303.11334,303.2186,69,105,40
303.11334,303.2186,65,105,40
303.24493,303.3502,65,105,40
303.24493,303.3502,69,105,40
303.3765,303.48178,65,105,40
303.3765,303.48178,69,105,40
303.5081,303.61334,65,105,40
303.5081,303.61334,69,105,40
303.63968,303.74493,69,105,40
303.63968,303.74493,65,105,40
303.77124,303.8765,69,105,40
303.77124,303.8765,65,105,40
303.90283,304.0081,65,105,40
303.90283,304.0081,69,105,40
304.0344,304.13968,65,105,40
304.0344,304.13968,69,105,40
304.166,304.27124,65,105,40
304.166,304.27124,69,105,40
304.29755,304.40283,65,105,40
304.29755,304.40283,69,105,40
304.42914,304.5344,65,105,40
304.42914,304.5344,69,105,40
304.56073,304.666,69,105,40
304.56073,304.666,65,105,40
304.6923,304.79755,65,105,40
304.6923,304.79755,69,105,40
304.82388,304.92914,65,105,40
304.82388,304.92914,69,105,40
304.95544,305.06073,65,105,40
304.95544,305.06073,69,105,40
305.08704,305.1923,65,105,40
305.08704,305.1923,69,105,40
305.21863,305.32388,69,105,40
305.21863,305.32388,65,105,40
305.3502,305.45544,69,105,40
305.3502,305.45544,65,105,40
305.48178,305.58704,65,105,40
305.48178,305.58704,69,105,40
305.61334,305.71863,65,105,40
305.61334,305.71863,69,105,40
305.74493,305.8502,65,105,40
305.74493,305.8502,69,105,40
305.8765,305.98178,65,105,40
305.8765,305.98178,69,105,40
306.0081,306.11334,65,105,40
306.0081,306.11334,69,105,40
306.13968,306.24493,69,105,40
306.13968,306.24493,65,105,40
306.27124,306.3765,65,105,40
306.27124,306.3765,69,105,40
306.40283,306.5081,77,105,40
306.40283,306.5081,69,105,40
306.5344,306.63968,77,105,40
306.5344,306.63968,69,105,40
306.666,306.77124,77,105,40
306.666,306.77124,69,105,40
306.79755,306.90283,70,105,40
306.79755,306.90283,77,105,40
306.92914,307.0344,77,105,40
306.92914,307.0344,70,105,40
307.06073,307.166,77,105,40
307.06073,307.166,70,105,40
307.1923,307.29755,81,105,40
307.1923,307.29755,72,105,40
307.32388,307.42914,72,105,40
307.32388,307.42914,81,105,40
307.45544,307.56073,81,105,40
307.45544,307.56073,72,105,40
307.58704,307.6923,76,105,40
307.58704,307.6923,70,105,40
307.71863,307.82388,76,105,40
307.71863,307.82388,70,105,40
307.8502,307.95544,76,105,40
307.8502,307.95544,70,105,40
307.98178,308.08704,77,105,40
307.98178,308.08704,69,105,40
308.11334,308.21863,69,105,40
308.11334,308.21863,77,105,40
308.24493,308.3502,77,105,40
308.24493,308.3502,69,105,40
308.3765,308.48178,70,105,40
308.3765,308.48178,77,105,40
308.5081,308.61334,77,105,40
308.5081,308.61334,70,105,40
308.63968,308.74493,77,105,40
308.63968,308.74493,70,105,40
308.77124,308.8765,81,105,40
308.77124,308.8765,72,105,40
308.90283,309.0081,81,105,40
308.90283,309.0081,72,105,40
309.0344,309.13968,81,105,40
309.0344,309.13968,72,105,40
309.166,309.27124,76,105,40
309.166,309.27124,70,105,40
309.29758,309.40283,76,105,40
309.29758,309.40283,70,105,40
309.42914,309.5344,76,105,40
309.42914,309.5344,70,105,40
309.56073,309.666,77,105,40
309.56073,309.666,69,105,40
309.6923,309.79758,69,105,40
309.6923,309.79758,77,105,40
309.82388,309.92914,77,105,40
309.82388,309.92914,69,105,40
309.95544,310.06073,70,105,40
309.95544,310.06073,77,105,40
310.08704,310.1923,77,105,40
310.08704,310.1923,70,105,40
310.21863,310.32388,77,105,40
310.21863,310.32388,70,105,40
310.3502,310.45544,81,105,40
310.3502,310.45544,72,105,40
310.48178,310.58704,81,105,40
310.48178,310.58704,72,105,40
310.61334,310.71863,81,105,40
310.61334,310.71863,72,105,40
310.74493,310.8502,76,105,40
310.74493,310.8502,70,105,40
310.8765,310.98178,76,105,40
310.8765,310.98178,70,105,40
311.0081,311.11334,76,105,40
311.0081,311.11334,70,105,40
311.13968,311.27124,77,116,40
311.27124,311.3502,81,116,40
311.40283,311.48178,81,116,40
311.5344,311.666,81,116,40
311.666,311.74493,76,116,40
311.79758,311.8765,76,116,40
311.92914,312.06073,77,116,40
312.06073,312.13968,81,116,40
312.1923,312.27124,81,116,40
312.32388,312.45544,81,116,40
312.45544,312.5344,76,116,40
312.58704,312.666,76,116,40
312.71863,312.8502,77,116,40
312.8502,312.92914,81,116,40
312.98178,313.06073,81,116,40
313.11334,313.24493,81,116,40
313.24493,313.32388,76,116,40
313.37653,313.45544,76,116,40
313.5081,313.63968,77,116,40
313.63968,313.71863,81,116,40
313.77124,313.8502,81,116,40
313.90283,314.0344,81,116,40
314.0344,314.11334,76,116,40
314.166,314.24493,76,116,40
314.29758,314.40283,69,80,40
314.42914,314.5344,69,80,40
314.56073,314.666,69,80,40
314.6923,314.79758,69,80,40
314.82388,314.92914,69,80,40
314.95544,315.06073,69,80,40
315.08704,315.21863,69,92,40
315.21863,315.29758,70,92,40
315.3502,315.42914,70,92,40
315.48178,315.61334,70,92,40
315.61334,315.6923,71,92,40
315.74493,315.82388,71,92,40
315.87653,316.0081,71,105,40
316.0081,316.08704,72,105,40
316.13968,316.21863,72,105,40
316.27124,316.40283,72,105,40
316.40283,316.48178,73,105,40
316.5344,316.61334,73,105,40
316.666,316.79758,73,105,40
316.79758,316.87653,74,105,40
316.92914,317.0081,74,105,40
317.06073,317.1923,74,116,40
317.1923,317.27124,75,116,40
317.32388,317.40283,75,116,40
317.45547,317.58704,75,116,40
317.58704,317.666,77,116,40
317.71863,317.79758,77,116,40
317.8502,317.92914,73,116,40
317.8502,317.92914,80,116,40
317.98178,318.06073,73,116,40
317.98178,318.06073,80,116,40
318.11334,318.1923,80,116,40
318.11334,318.1923,73,116,40
318.24493,318.32388,80,116,40
318.24493,318.32388,73,116,40
318.37653,318.45547,80,116,40
318.37653,318.45547,73,116,40
318.5081,318.58704,80,116,40
318.5081,318.58704,73,116,40
318.63968,318.71863,80,116,40
318.63968,318.71863,73,116,40
318.77124,318.8502,73,116,40
318.77124,318.8502,80,116,40
318.90283,318.98178,80,116,40
318.90283,318.98178,73,116,40
319.0344,319.3502,83,116,40
319.0344,319.3502,71,116,40
319.88623,320.25546,77,127,40
320.8093,321.2016,69,116,40
320.92468,321.2016,77,116,40
320.8093,321.2016,65,116,40
321.7324,322.1247,70,116,40
321.84778,322.1247,76,116,40
321.7324,322.1247,67,116,40
322.66913,322.85962,77,116,40
322.66913,322.85962,69,116,40
323.14532,323.41766,77,127,40
323.48535,323.57556,74,116,40
323.5981,323.8688,72,127,40
323.93646,324.0267,69,116,40
324.04926,324.30154,65,127,40
324.36404,324.4474,62,116,40
324.4682,324.6349,65,116,40
324.8849,325.1588,69,116,40
324.8849,325.1588,65,116,40
325.22806,325.32034,69,116,40
325.22806,325.32034,65,116,40
325.3434,326.24313,69,116,40
325.3434,326.24313,65,116,40
326.35425,327.40045,65,116,40
326.35425,327.40045,60,116,40
327.52417,329.25397,65,116,40
327.52417,329.25397,60,116,40
0.789474,1.0263162,53,83,41
1.0855267,1.1447372,53,63,41
1.184211,1.3026321,53,63,41
1.3815795,1.6973691,53,63,41
1.7763165,1.8947376,53,63,41
1.973685,2.092106,53,63,41
2.1710534,2.2894745,53,63,41
2.368422,2.6052642,53,63,41
2.6644747,2.7236853,53,63,41
2.763159,2.88158,53,63,41
2.9605274,3.2763171,53,63,41
3.3552644,3.4736855,53,63,41
3.552633,3.6710541,53,63,41
3.7500014,3.8684225,53,63,41
3.94737,4.184212,53,63,41
4.243423,4.3026333,53,63,41
4.342107,4.460528,53,63,41
4.5394754,4.855265,53,63,41
4.9342127,5.052634,53,63,41
5.131581,5.250002,53,63,41
5.3289495,5.4473705,53,63,41
5.526318,5.76316,53,63,41
5.8223705,5.8815813,53,63,41
5.921055,6.039476,53,63,41
6.1184235,6.434213,53,63,41
6.5131607,6.631582,53,63,41
6.710529,6.82895,53,63,41
6.9078975,7.0263186,53,63,41
7.105266,7.3421082,53,63,41
7.4013186,7.4605293,53,63,41
7.500003,7.618424,53,63,41
7.6973715,8.013161,53,63,41
8.092109,8.210529,53,63,41
8.289477,8.407898,53,63,41
8.486846,8.605267,53,63,41
8.684214,8.921056,53,63,41
8.980267,9.039477,53,63,41
9.078951,9.197372,53,63,41
9.2763195,9.592109,53,63,41
9.671057,9.789477,53,63,41
9.868425,9.986846,53,63,41
10.065793,10.184215,53,63,41
10.263162,10.500004,53,63,41
10.559215,10.618425,53,63,41
10.657899,10.77632,53,63,41
10.855268,11.171057,53,63,41
11.250005,11.368425,53,63,41
11.447373,11.565794,53,63,41
11.644741,11.763163,53,63,41
11.84211,12.078952,53,63,41
12.138163,12.197373,53,63,41
12.236847,12.3552685,53,63,41
12.434216,12.750005,53,63,41
12.828953,12.947373,53,70,41
13.026321,13.144742,53,70,41
13.223689,13.342111,53,70,41
13.421058,13.6579,53,70,41
13.717111,13.776321,53,70,41
13.815795,13.9342165,53,70,41
14.013164,14.131584,53,70,41
14.210532,14.328953,57,100,41
14.407901,14.526321,57,80,41
14.605269,14.72369,55,100,41
14.802637,14.921059,55,80,41
15.000006,15.118427,57,100,41
15.197374,15.315796,57,80,41
15.394743,15.5131645,55,100,41
15.592112,15.710532,55,80,41
15.78948,15.907901,55,92,41
15.78948,15.907901,62,112,41
15.986849,16.10527,55,92,41
16.184217,16.302639,55,92,41
16.184217,16.302639,62,112,41
16.381586,16.500006,55,92,41
16.578955,16.697374,57,112,41
16.776323,16.894743,53,92,41
16.973692,17.28948,60,112,41
17.368427,17.486849,57,112,41
17.565796,17.684217,53,92,41
17.763165,18.078955,60,112,41
18.157902,18.276323,57,112,41
18.35527,18.473692,53,92,41
18.552639,18.86843,60,112,41
18.947376,19.065798,57,112,41
19.144745,19.263166,53,92,41
19.342113,19.657902,60,112,41
19.73685,19.845402,69,112,41
19.93422,20.04277,65,70,41
20.131586,20.240139,57,70,41
20.328955,20.437508,60,63,41
20.526323,20.634876,69,83,41
20.723692,20.832245,65,63,41
20.92106,21.029613,57,63,41
21.11843,21.226982,60,63,41
21.315798,21.42435,69,83,41
21.513166,21.62172,65,63,41
21.710535,21.819088,57,63,41
21.907904,22.016457,60,63,41
22.105272,22.213825,69,63,41
22.30264,22.411194,65,63,41
22.50001,22.608562,57,63,41
22.697378,22.805931,60,63,41
22.894747,23.003298,69,63,41
23.092115,23.200666,65,63,41
23.289482,23.398035,57,63,41
23.48685,23.595404,60,63,41
23.68422,23.792772,69,63,41
23.881588,23.99014,65,63,41
24.078957,24.18751,57,63,41
24.276325,24.384878,60,63,41
24.473694,24.582247,69,83,41
24.671062,24.779615,65,63,41
24.868431,24.976984,57,63,41
25.0658,25.174353,60,63,41
25.263168,25.371721,69,83,41
25.460537,25.56909,65,63,41
25.657906,25.766459,57,63,41
25.855274,25.963825,60,63,41
26.052643,26.171062,57,63,41
26.250011,26.368431,60,63,41
26.447378,26.5658,69,83,41
26.644747,26.763168,65,63,41
26.842115,26.960537,57,63,41
27.039484,27.157906,60,63,41
27.236853,27.355274,69,83,41
27.434221,27.552643,65,63,41
27.63159,27.750011,57,63,41
27.828959,27.94738,60,63,41
28.026327,28.144749,69,83,41
28.223696,28.342117,65,63,41
28.421064,28.539486,69,83,41
28.618433,28.736855,65,63,41
28.815802,28.934221,57,63,41
29.01317,29.13159,60,63,41
29.210539,29.328959,62,83,41
29.407906,29.526327,65,63,41
29.605274,29.723696,70,63,41
29.802643,29.921064,65,63,41
30.000011,30.118433,70,83,41
30.19738,30.315802,65,63,41
30.394749,30.51317,62,63,41
30.592117,30.710539,58,63,41
30.789486,30.907907,57,63,41
30.986855,31.105276,60,63,41
31.184223,31.302645,69,83,41
31.381592,31.500013,65,63,41
31.57896,31.697382,57,63,41
31.776329,31.894749,60,63,41
31.973698,32.092117,69,83,41
32.171066,32.289486,65,63,41
32.368435,32.486855,57,63,41
32.565804,32.684223,60,63,41
32.763172,32.88159,69,83,41
32.96054,33.07896,65,63,41
33.15791,33.27633,57,63,41
33.355278,33.473698,60,63,41
33.552647,33.671066,69,83,41
33.750015,33.868435,65,63,41
33.947384,34.065804,69,83,41
34.14475,34.263172,65,63,41
34.342117,34.46054,57,63,41
34.539486,34.65791,60,63,41
34.736855,34.855278,59,63,41
34.934223,35.052647,56,63,41
35.13159,35.250015,59,63,41
35.32896,35.447384,64,70,41
35.52633,35.644753,60,70,41
35.723698,35.84212,57,70,41
35.921066,36.03949,60,80,41
36.118435,36.23686,64,80,41
36.315804,36.434227,59,80,41
36.513172,36.63159,56,80,41
36.71054,36.82896,59,80,41
36.90791,37.02633,64,92,41
37.105278,37.26744,57,105,41
37.51068,37.672844,57,105,41
37.91609,38.07825,57,105,41
38.32149,38.483654,57,105,41
38.7269,38.84852,57,92,41
38.9296,39.051224,52,92,41
39.1323,39.253925,57,70,41
39.335007,39.456627,52,70,41
39.53771,39.65933,57,70,41
39.74041,39.862034,52,63,41
39.94311,40.064735,57,63,41
40.145817,40.267437,69,63,41
40.34852,40.466938,69,63,41
40.545887,40.664307,65,63,41
40.743256,40.861675,57,63,41
40.940624,41.059044,60,63,41
41.137993,41.256413,57,63,41
41.33536,41.45378,60,63,41
41.53273,41.65115,69,83,41
41.7301,41.84852,65,63,41
41.927467,42.045887,57,63,41
42.124836,42.243256,60,63,41
42.322205,42.440624,69,83,41
42.519573,42.637993,65,63,41
42.71694,42.83536,69,83,41
42.914307,43.03273,65,63,41
43.111675,43.2301,57,63,41
43.309044,43.427467,60,63,41
43.506413,43.624836,62,63,41
43.70378,43.822205,65,63,41
43.90115,44.019573,70,83,41
44.09852,44.21694,65,63,41
44.295887,44.41431,70,83,41
44.493256,44.61168,65,63,41
44.690624,44.809048,62,63,41
44.887993,45.006416,58,63,41
45.08536,45.203785,57,63,41
45.28273,45.40115,60,63,41
45.4801,45.59852,69,83,41
45.677467,45.795887,65,63,41
45.874836,45.993256,57,63,41
46.072205,46.190624,60,63,41
46.269573,46.387993,69,83,41
46.46694,46.58536,65,63,41
46.66431,46.78273,57,63,41
46.86168,46.9801,60,63,41
47.059048,47.177467,69,83,41
47.256416,47.374836,65,63,41
47.453785,47.572205,57,70,41
47.651154,47.769573,60,70,41
47.848522,47.96694,69,90,41
48.04589,48.16431,65,80,41
48.24326,48.36168,69,100,41
48.440628,48.559048,65,80,41
48.637997,48.756416,57,80,41
48.835365,48.953785,60,92,41
49.03273,49.161022,62,92,41
49.2301,49.35839,59,92,41
49.427467,49.55576,62,92,41
49.624836,49.753128,59,92,41
49.822205,49.950497,60,92,41
50.019573,50.147865,55,92,41
50.21694,50.345234,64,105,41
50.41431,50.542603,60,105,41
50.61168,50.73997,62,105,41
50.809048,50.93734,59,105,41
51.006416,51.13471,62,105,41
51.203785,51.332073,65,105,41
51.401154,51.563316,64,116,41
51.80656,51.96872,48,116,41
52.211964,52.374126,48,116,41
52.61737,52.77953,48,116,41
53.022774,53.156334,48,116,41
53.228252,53.361816,55,116,41
53.433735,53.546745,60,80,41
53.639214,53.752228,55,80,41
53.844692,53.959274,60,70,41
54.053024,54.16761,55,70,41
54.26136,54.375942,60,70,41
54.469692,54.584274,55,63,41
54.678024,54.88115,56,63,41
54.99053,55.058235,56,63,41
55.094692,55.23011,56,63,41
55.30303,55.64678,56,63,41
55.719692,55.844692,56,63,41
55.92803,56.05303,56,63,41
56.344692,56.54782,56,63,41
56.657196,56.724903,56,63,41
56.76136,56.89678,56,63,41
56.969696,57.313446,56,63,41
57.38636,57.51136,56,63,41
57.594696,57.719696,56,63,41
58.01136,58.21449,56,63,41
58.323864,58.39157,56,63,41
58.42803,58.563446,56,63,41
58.636364,58.980114,56,63,41
59.05303,59.17803,56,63,41
59.261364,59.386364,56,63,41
59.67803,59.881157,56,63,41
59.990532,60.05824,56,63,41
60.094696,60.230114,56,63,41
60.303032,60.646782,56,63,41
60.719696,60.844696,56,63,41
60.928032,61.053032,56,63,41
61.3447,61.547825,55,63,41
61.6572,61.724907,55,63,41
61.761364,61.896782,55,63,41
61.9697,62.31345,55,63,41
62.386364,62.511364,55,63,41
62.5947,62.7197,55,63,41
63.011368,63.214493,55,63,41
63.323868,63.391575,55,63,41
63.428032,63.56345,55,63,41
63.636368,63.980118,55,63,41
64.05303,64.17803,55,63,41
64.26137,64.38637,55,63,41
64.67803,64.88116,55,63,41
64.99053,65.05824,55,63,41
65.0947,65.23012,55,63,41
65.30303,65.64678,55,63,41
65.7197,65.8447,55,63,41
65.92803,66.05303,55,63,41
66.3447,66.54783,61,63,41
66.6572,66.72491,61,63,41
66.76137,66.89679,61,63,41
66.9697,67.31345,61,63,41
67.38637,67.51137,61,63,41
67.5947,67.7197,61,63,41
68.01137,68.21449,61,63,41
68.32387,68.39158,61,63,41
68.42804,68.56345,61,63,41
68.63637,68.98012,61,63,41
69.05304,69.17804,61,63,41
69.26137,69.38637,61,63,41
69.67804,69.881165,56,63,41
69.99054,70.05825,56,63,41
70.0947,70.230125,56,63,41
70.30304,70.64679,56,63,41
70.7197,70.8447,56,63,41
70.92804,71.05304,56,63,41
71.3447,71.54783,56,63,41
71.6572,71.724915,56,63,41
71.761375,71.89679,56,63,41
71.9697,72.31345,56,63,41
72.386375,72.511375,56,63,41
72.5947,72.7197,56,63,41
73.011375,73.2145,56,63,41
73.323875,73.39159,56,63,41
73.42804,73.56346,56,63,41
73.636375,73.980125,56,63,41
74.05304,74.17804,56,70,41
74.261375,74.386375,56,70,41
74.67804,74.881165,53,70,41
74.67804,74.881165,58,70,41
74.99054,75.05825,58,80,41
74.99054,75.05825,53,80,41
75.09471,75.230125,58,80,41
75.09471,75.230125,53,80,41
75.30304,75.636375,53,80,41
75.30304,75.636375,58,80,41
75.71971,75.84471,58,80,41
75.71971,75.84471,53,80,41
75.92804,76.05304,58,92,41
75.92804,76.05304,53,80,41
76.34471,76.59471,56,92,41
76.65721,76.72492,56,92,41
76.761375,76.8968,56,92,41
76.96971,77.30305,56,92,41
77.386375,77.511375,56,70,41
77.59471,77.71971,56,70,41
78.011375,78.433914,56,70,41
78.433914,78.856445,53,70,41
78.856445,79.28502,54,70,41
79.28502,79.70109,55,70,41
79.71359,79.792534,56,39,41
79.81227,79.89122,56,39,41
79.91096,79.98991,56,39,41
80.00964,80.08859,56,39,41
80.10833,80.18727,56,39,41
80.20701,80.28596,56,39,41
80.305695,80.38464,56,39,41
80.40438,80.48333,56,39,41
80.50307,80.58201,56,39,41
80.601746,80.680695,56,39,41
80.70043,80.77938,56,39,41
80.79912,80.87807,56,39,41
80.897804,80.976746,56,39,41
80.99648,81.07543,56,39,41
81.09517,81.17412,56,39,41
81.193855,81.272804,56,39,41
81.29254,81.37148,56,39,41
81.39122,81.47017,56,39,41
81.48991,81.568855,56,39,41
81.58859,81.66754,56,39,41
81.68728,81.76622,56,39,41
81.78596,81.86491,56,39,41
81.88464,81.96359,56,39,41
81.98333,82.06228,56,39,41
82.08201,82.16096,56,39,41
82.180695,82.25964,56,39,41
82.27938,82.35833,56,39,41
82.37807,82.45701,56,39,41
82.476746,82.555695,56,39,41
82.57543,82.65438,56,39,41
82.67412,82.75307,56,39,41
82.772804,82.851746,56,39,41
82.87148,82.97017,55,39,41
82.97017,83.068855,50,39,41
83.068855,83.16754,55,39,41
83.16754,83.26622,50,39,41
83.26622,83.36491,55,39,41
83.36491,83.46359,50,39,41
83.46359,83.56228,55,39,41
83.56228,83.66096,50,39,41
83.66096,83.75964,55,39,41
83.75964,83.85833,50,39,41
83.85833,83.957016,55,39,41
83.957016,84.055695,50,39,41
84.055695,84.15438,55,39,41
84.15438,84.25307,50,39,41
84.25307,84.35175,55,39,41
84.35175,84.45043,50,39,41
84.45043,84.54912,55,39,41
84.54912,84.647804,50,39,41
84.647804,84.74649,55,39,41
84.74649,84.84517,50,39,41
84.84517,84.943855,55,39,41
84.943855,85.04254,50,39,41
85.04254,85.14122,55,39,41
85.14122,85.23991,50,39,41
85.23991,85.33859,55,39,41
85.33859,85.43728,50,39,41
85.43728,85.53596,55,39,41
85.53596,85.63464,50,39,41
85.63464,85.73333,55,39,41
85.73333,85.832016,50,39,41
85.832016,85.930695,55,39,41
85.930695,86.00964,50,39,41
86.02938,86.329384,54,63,41
86.329384,86.42938,56,63,41
86.42938,86.549385,54,63,41
86.62938,86.74938,49,63,41
86.829384,87.12938,54,63,41
87.12938,87.229385,56,63,41
87.229385,87.34938,54,63,41
87.42938,87.549385,49,63,41
87.62938,87.92938,54,63,41
87.92938,88.02938,56,63,41
88.02938,88.14938,54,63,41
88.229385,88.34938,49,63,41
88.42938,88.729385,54,63,41
88.729385,88.829384,56,63,41
88.829384,88.94938,54,63,41
89.02938,89.14938,49,63,41
89.229385,89.30833,48,39,41
89.328064,89.40701,48,39,41
89.42675,89.5057,56,39,41
89.52544,89.604385,56,39,41
89.62412,89.703064,48,39,41
89.7228,89.80175,48,39,41
89.82149,89.90044,56,39,41
89.92017,89.99912,56,39,41
90.01885,90.0978,48,39,41
90.11754,90.19649,48,63,41
90.216225,90.29517,56,63,41
90.31491,90.39386,56,63,41
90.41359,90.49254,48,63,41
90.512276,90.591225,48,63,41
90.61096,90.68991,56,63,41
90.70965,90.78859,56,63,41
90.80833,90.887276,56,63,41
90.90701,90.98596,56,70,41
91.0057,91.08465,60,70,41
91.104385,91.18333,60,70,41
91.203064,91.28201,56,80,41
91.30175,91.3807,56,80,41
91.40044,91.479385,60,80,41
91.49912,91.578064,60,80,41
91.5978,91.67675,56,80,41
91.69649,91.77544,56,92,41
91.79517,91.87412,60,92,41
91.89386,91.9728,60,92,41
91.99254,92.07149,56,92,41
92.091225,92.17017,56,92,41
92.18991,92.26886,60,92,41
92.2886,92.36754,60,92,41
92.387276,92.48863,60,105,41
92.48863,92.58998,61,105,41
92.58998,92.69133,60,105,41
92.69133,92.772415,48,105,41
92.79269,92.894035,60,105,41
92.894035,92.995384,61,105,41
92.995384,93.09673,60,105,41
93.09673,93.17782,48,105,41
93.19809,93.29944,60,105,41
93.29944,93.40079,61,105,41
93.40079,93.502144,60,105,41
93.502144,93.58322,48,105,41
93.60349,93.70484,60,105,41
93.70484,93.8062,61,105,41
93.8062,93.90755,60,105,41
93.90755,93.988625,48,105,41
94.008896,94.11025,60,105,41
94.11025,94.2116,61,105,41
94.2116,94.31295,60,105,41
94.31295,94.394035,48,105,41
94.41431,94.515656,60,105,41
94.515656,94.617004,61,105,41
94.617004,94.71835,60,105,41
94.71835,94.79944,48,105,41
94.81971,94.92106,60,105,41
94.92106,95.02241,61,105,41
95.02241,95.123764,60,105,41
95.123764,95.20484,48,105,41
95.22511,95.32646,60,105,41
95.32646,95.42782,61,105,41
95.42782,95.52917,60,105,41
95.52917,95.610245,48,105,41
95.630516,95.709465,60,125,41
95.7292,95.80815,60,125,41
95.82789,95.90684,61,105,41
95.92657,96.005516,61,105,41
96.02525,96.1042,60,105,41
96.12394,96.20289,60,105,41
96.222626,96.301575,61,105,41
96.321304,96.40025,61,105,41
96.41999,96.49894,60,92,41
96.51868,96.597626,60,92,41
96.61736,96.696304,59,92,41
96.71604,96.79499,59,92,41
96.81473,96.89368,60,92,41
96.913414,96.99236,60,80,41
97.0121,97.09104,58,80,41
97.11078,97.18973,58,80,41
97.209465,97.288414,56,70,41
97.30815,97.3871,56,70,41
97.40684,97.48578,58,70,41
97.505516,97.584465,58,70,41
97.6042,97.68315,56,70,41
97.70289,97.78184,56,70,41
97.801575,97.880516,58,70,41
97.90025,97.9792,58,70,41
97.99894,98.07789,56,70,41
98.097626,98.176575,56,70,41
98.19631,98.27525,55,70,41
98.29499,98.37394,55,70,41
98.39368,98.472626,56,70,41
98.49236,98.57131,56,63,41
98.59105,98.66999,55,63,41
98.68973,98.76868,55,63,41
98.788414,98.86736,53,63,41
98.8871,98.96605,53,63,41
98.98578,99.06473,60,63,41
99.084465,99.163414,60,63,41
99.18315,99.2621,69,63,41
99.28184,99.36079,69,63,41
99.380516,99.459465,65,63,41
99.4792,99.55815,65,63,41
99.57789,99.65684,57,63,41
99.676575,99.755516,57,63,41
99.77525,99.8542,60,63,41
99.87394,99.95289,60,63,41
99.972626,100.051575,69,63,41
100.07131,100.15025,69,63,41
100.16999,100.24894,65,63,41
100.26868,100.347626,65,63,41
100.36736,100.44631,57,63,41
100.46605,100.54499,57,63,41
100.56473,100.64368,60,63,41
100.663414,100.74236,60,63,41
100.7621,100.84105,69,63,41
100.86079,100.93973,69,63,41
100.959465,101.038414,65,63,41
101.05815,101.1371,65,63,41
101.15684,101.23579,69,63,41
101.25552,101.334465,69,63,41
101.3542,101.43315,65,63,41
101.45289,101.53184,65,63,41
101.551575,101.63052,57,63,41
101.65026,101.7292,57,63,41
101.74894,101.82789,60,63,41
101.847626,101.926575,60,63,41
101.94631,102.02526,62,63,41
102.04499,102.12394,62,63,41
102.14368,102.222626,65,63,41
102.24236,102.32131,65,63,41
102.34105,102.42,70,63,41
102.43973,102.51868,70,63,41
102.538414,102.61736,65,63,41
102.6371,102.71605,65,63,41
102.73579,102.81473,70,63,41
102.834465,102.913414,70,63,41
102.93315,103.0121,65,63,41
103.03184,103.11079,65,63,41
103.13052,103.209465,62,63,41
103.2292,103.30815,62,63,41
103.32789,103.40684,58,63,41
103.426575,103.50552,58,63,41
103.52526,103.6042,57,63,41
103.62394,103.70289,57,63,41
103.722626,103.801575,60,63,41
103.82131,103.90026,60,63,41
103.92,103.99894,69,63,41
104.01868,104.097626,69,63,41
104.11736,104.19631,65,63,41
104.21605,104.295,65,63,41
104.314735,104.39368,57,63,41
104.413414,104.49236,57,63,41
104.5121,104.59105,60,63,41
104.61079,104.689735,60,63,41
104.70947,104.788414,69,63,41
104.80815,104.8871,69,63,41
104.90684,104.98579,65,63,41
105.00552,105.08447,65,63,41
105.1042,105.18315,57,70,41
105.20289,105.28184,57,70,41
105.301575,105.38052,60,70,41
105.40026,105.47921,60,70,41
105.49894,105.57789,69,70,41
105.597626,105.676575,69,70,41
105.69631,105.77526,65,70,41
105.795,105.87394,65,70,41
105.89368,105.972626,57,80,41
105.99236,106.07131,57,80,41
106.09105,106.17,60,80,41
106.189735,106.26868,60,80,41
106.288414,106.36736,69,80,41
106.3871,106.46605,69,80,41
106.48579,106.564735,65,80,41
106.58447,106.663414,65,80,41
106.68315,106.7621,69,80,41
106.78184,106.86079,69,80,41
106.88052,106.95947,65,80,41
106.97921,107.05815,65,80,41
107.07789,107.15684,57,92,41
107.176575,107.25552,57,92,41
107.27526,107.35421,60,92,41
107.37395,107.45289,60,92,41
107.472626,107.551575,61,80,41
107.57131,107.65026,61,80,41
107.67,107.74895,57,80,41
107.768684,107.847626,57,80,41
107.86736,107.94631,57,80,41
107.96605,108.045,57,80,41
108.064735,108.143684,61,80,41
108.163414,108.24236,61,80,41
108.2621,108.34105,62,80,41
108.36079,108.439735,62,80,41
108.45947,108.53842,57,80,41
108.55815,108.6371,57,80,41
108.65684,108.73579,57,80,41
108.75552,108.83447,57,80,41
108.85421,108.93315,62,80,41
108.95289,109.03184,62,80,41
109.051575,109.13052,64,92,41
109.15026,109.22921,64,92,41
109.24895,109.32789,60,92,41
109.347626,109.426575,60,92,41
109.44631,109.52526,60,92,41
109.545,109.62395,60,92,41
109.643684,109.722626,64,92,41
109.74236,109.82131,64,92,41
109.84105,109.92,65,92,41
109.939735,110.018684,65,92,41
110.03842,110.11736,60,92,41
110.1371,110.21605,60,92,41
110.23579,110.314735,60,92,41
110.33447,110.41342,60,105,41
110.43316,110.5121,65,105,41
110.53184,110.61079,65,105,41
110.63052,110.70947,67,105,41
110.72921,110.80816,67,105,41
110.827896,110.90684,63,105,41
110.926575,111.00552,63,105,41
111.02526,111.10421,67,105,41
111.12395,111.202896,67,105,41
111.222626,111.301575,68,105,41
111.32131,111.40026,68,105,41
111.42,111.49895,67,105,41
111.518684,111.59763,67,105,41
111.61736,111.69631,63,105,41
111.71605,111.795,63,105,41
111.814735,111.893684,67,105,41
111.91342,111.99236,67,105,41
112.0121,112.09105,68,105,41
112.11079,112.189735,68,105,41
112.20947,112.28842,67,105,41
112.30816,112.3871,67,105,41
112.40684,112.48579,63,105,41
112.50552,112.58447,63,105,41
112.60421,112.68316,68,105,41
112.702896,112.78184,68,105,41
112.801575,112.88052,63,105,41
112.90026,112.97921,63,105,41
112.99895,113.077896,67,105,41
113.09763,113.176575,67,105,41
113.19631,113.27526,63,105,41
113.295,113.37395,63,105,41
113.393684,113.47263,68,105,41
113.49237,113.57131,68,105,41
113.59105,113.67,63,105,41
113.689735,113.768684,63,105,41
113.78842,113.94842,70,105,41
113.78842,113.94842,60,105,41
114.18842,114.34842,70,105,41
114.18842,114.34842,60,105,41
114.58842,114.75058,70,105,41
114.58842,114.75058,60,105,41
114.99383,115.15599,70,105,41
114.99383,115.15599,60,105,41
115.39923,115.47818,48,105,41
115.39923,115.47818,58,105,41
115.49792,115.57686,58,105,41
115.49792,115.57686,48,105,41
115.596596,115.675545,48,105,41
115.596596,115.675545,58,105,41
115.69528,115.77423,48,105,41
115.69528,115.77423,58,105,41
115.79397,115.87292,48,105,41
115.79397,115.87292,58,105,41
115.892654,115.971596,48,105,41
115.892654,115.971596,58,105,41
115.99133,116.07028,48,105,41
115.99133,116.07028,58,105,41
116.09002,116.16897,58,105,41
116.09002,116.16897,48,105,41
116.188705,116.267654,48,105,41
116.188705,116.267654,58,105,41
116.28739,116.36633,58,105,41
116.28739,116.36633,48,105,41
116.38607,116.46502,48,105,41
116.38607,116.46502,58,105,41
116.48476,116.563705,48,105,41
116.48476,116.563705,58,105,41
116.58344,116.66239,48,105,41
116.58344,116.66239,58,105,41
116.68213,116.76107,48,116,41
116.68213,116.76107,58,116,41
116.78081,116.85976,58,116,41
116.78081,116.85976,48,116,41
116.87949,116.95844,58,116,41
116.87949,116.95844,48,116,41
116.97818,117.149605,57,116,41
116.97818,117.149605,48,116,41
117.406746,117.546036,65,125,41
117.62103,117.76032,62,105,41
117.83532,117.96361,60,125,41
118.03269,118.16098,57,105,41
118.23006,118.358345,53,125,41
118.42743,118.55572,50,105,41
118.624794,118.86163,50,125,41
118.920845,118.98499,50,105,41
119.01953,119.14782,50,105,41
119.216896,119.34519,50,105,41
119.41427,119.57217,50,105,41
119.809006,119.966896,65,125,41
120.00637,120.124794,61,105,41
120.20374,120.33203,60,125,41
120.40111,120.51953,56,105,41
120.59848,120.72677,53,125,41
120.795845,120.91427,49,105,41
120.99322,121.15111,49,105,41
121.58532,121.74322,49,105,41
121.78269,122.02593,49,125,41
122.08675,122.15262,49,105,41
122.188095,122.319855,49,80,41
122.3908,122.52255,49,80,41
122.5935,122.76017,49,70,41
123.2185,123.38517,49,70,41
123.426834,123.683975,49,70,41
123.74826,123.8179,49,70,41
123.85541,123.99469,49,70,41
124.06969,124.20898,49,63,41
124.28397,124.450645,49,63,41
127.61731,128.45065,49,63,41
128.45065,129.28398,53,63,41
129.28398,130.11731,54,63,41
130.11731,132.59302,49,63,41
132.61731,135.11732,51,63,41
135.11732,135.53398,52,63,41
135.53398,135.93849,53,63,41
135.95065,136.78398,53,63,41
136.78398,137.21255,57,63,41
137.21255,137.64113,58,63,41
137.64113,137.8078,57,63,41
139.09946,139.26613,53,63,41
139.3078,139.47446,53,63,41
139.72446,139.97446,65,103,41
140.03696,140.09946,62,63,41
140.14113,140.26613,60,63,41
140.34946,140.47446,57,63,41
140.5578,140.6828,53,63,41
140.76613,140.89113,50,63,41
140.97446,141.14113,53,63,41
141.59947,141.76613,53,63,41
141.8078,141.97447,53,63,41
142.4328,142.59947,53,63,41
142.64113,142.82295,53,63,41
144.55022,145.61217,64,63,41
145.61217,147.7051,57,70,41
147.73605,148.76703,57,63,41
148.798,149.85995,57,63,41
149.85995,150.89093,55,63,41
150.9219,151.98384,55,70,41
151.98384,153.04579,56,63,41
153.04579,154.07677,57,63,41
154.10774,154.90419,57,63,41
154.90419,155.16083,53,63,41
155.16968,155.70065,51,63,41
155.70065,156.23163,52,63,41
156.23163,156.7626,58,70,41
156.7626,157.27809,59,70,41
157.29358,157.82455,60,63,41
157.82455,158.35551,57,70,41
158.35551,159.38649,65,70,41
159.41747,160.47942,64,70,41
160.47942,161.02988,65,70,41
161.02988,161.56427,62,70,41
161.58034,162.1113,60,70,41
162.1113,162.64227,59,70,41
162.64227,163.18282,62,70,41
163.18282,164.25777,60,70,41
165.9252,166.98714,57,63,41
166.98714,168.01811,53,63,41
168.04909,169.11104,48,83,41
169.11104,170.142,53,63,41
170.17297,171.20395,52,63,41
171.23492,172.2659,52,63,41
172.29688,173.32784,52,83,41
173.35881,174.38979,52,63,41
174.42076,175.48271,57,63,41
175.48271,176.51369,53,63,41
176.54465,177.6066,48,70,41
177.6066,178.63757,53,70,41
178.66855,180.76146,52,80,41
180.79243,181.21721,52,92,41
181.32341,181.74818,60,92,41
181.85439,182.11987,62,80,41
182.11987,182.38536,65,80,41
182.38536,182.65085,62,70,41
182.65085,182.86324,65,70,41
182.91634,183.45686,64,70,41
183.45686,184.01242,63,70,41
184.01242,184.58386,65,70,41
184.58386,185.15425,64,70,41
185.16638,185.81154,69,70,41
185.81154,186.29541,67,70,41
186.29541,186.37605,69,70,41
186.37605,186.4567,67,70,41
186.4567,187.80728,64,70,41
187.83601,188.07286,56,103,41
188.13206,188.21101,57,63,41
188.23074,188.3097,56,63,41
188.32944,188.40839,56,63,41
188.42812,188.50706,56,63,41
188.5268,188.60574,56,63,41
188.62549,188.70444,56,63,41
188.72417,188.80312,56,63,41
188.82286,188.9018,56,63,41
188.92154,189.00049,56,63,41
189.02022,189.09917,56,63,41
189.11891,189.19786,56,63,41
189.21759,189.29654,56,63,41
189.31627,189.39522,56,63,41
189.41496,189.65181,56,103,41
189.71101,189.78996,57,63,41
189.8097,189.88864,56,63,41
189.90839,189.98734,56,63,41
190.00706,190.08601,56,63,41
190.10574,190.1847,56,63,41
190.20444,190.28339,56,63,41
190.30312,190.38206,56,63,41
190.40181,190.48074,56,63,41
190.50049,190.57944,56,63,41
190.59917,190.67812,56,63,41
190.69786,190.77681,56,63,41
190.79654,190.87549,56,63,41
190.89522,190.97417,56,63,41
190.99391,191.23074,57,103,41
191.28996,191.36891,59,63,41
191.38864,191.46759,57,63,41
191.48734,191.56628,57,63,41
191.58601,191.66496,57,63,41
191.6847,191.76364,57,63,41
191.78339,191.86234,57,63,41
191.88206,191.96101,57,63,41
191.98074,192.0597,57,63,41
192.07944,192.15839,57,63,41
192.17812,192.25706,57,63,41
192.27681,192.35574,57,63,41
192.37549,192.45444,57,63,41
192.47417,192.55312,57,63,41
192.57286,192.8097,57,103,41
192.86891,192.94786,59,63,41
192.96759,193.04654,57,63,41
193.06628,193.14522,57,63,41
193.16496,193.24391,57,63,41
193.26364,193.34259,57,63,41
193.36234,193.44128,57,63,41
193.46101,193.53996,57,63,41
193.5597,193.63864,57,63,41
193.65839,193.73734,57,63,41
193.75706,193.83601,57,63,41
193.85576,193.9347,57,63,41
193.95444,194.03339,57,63,41
194.05312,194.13206,57,63,41
194.15181,194.38864,56,103,41
194.44786,194.52681,57,63,41
194.54654,194.62549,56,63,41
194.64522,194.72417,56,63,41
194.74391,194.82286,56,63,41
194.84259,194.92154,56,63,41
194.94128,195.03996,56,63,41
195.03996,195.11891,64,63,41
195.13864,195.21759,64,63,41
195.23734,195.31628,64,63,41
195.33601,195.41496,64,63,41
195.4347,195.51364,64,63,41
195.53339,195.61234,64,63,41
195.63206,195.71101,64,63,41
195.73076,195.82944,56,70,41
195.82944,195.90839,64,70,41
195.92812,196.00706,64,70,41
196.02681,196.10576,64,70,41
196.12549,196.20444,64,70,41
196.22417,196.30312,64,70,41
196.32286,196.40181,64,70,41
196.42154,196.50049,64,70,41
196.52023,196.61891,64,80,41
196.61891,196.69786,65,80,41
196.71759,196.79654,65,80,41
196.81628,196.89523,65,80,41
196.91496,197.01364,65,80,41
197.01364,197.09259,66,80,41
197.11234,197.19128,66,80,41
197.21101,197.28996,66,80,41
197.3097,197.40839,66,92,41
197.40839,197.48734,67,92,41
197.50706,197.58601,67,92,41
197.60576,197.68471,67,92,41
197.70444,197.80312,66,92,41
197.80312,197.88206,67,92,41
197.90181,197.98076,67,92,41
198.00049,198.07944,67,92,41
198.09917,198.19786,65,105,41
198.19786,198.27681,67,105,41
198.29654,198.37549,67,105,41
198.39523,198.47417,67,105,41
198.49391,198.59259,65,105,41
198.59259,198.67154,67,105,41
198.69128,198.77023,67,105,41
198.78996,198.86891,67,105,41
198.88864,198.98734,65,116,41
198.98734,199.06628,67,116,41
199.08601,199.16496,67,116,41
199.18471,199.26364,67,116,41
199.28339,199.38206,67,116,41
199.38206,199.46101,60,116,41
199.48076,199.55971,60,116,41
199.57944,199.65839,60,116,41
199.67812,199.84029,60,116,41
200.08353,200.24568,69,103,41
200.28622,200.4484,65,63,41
200.48894,200.60735,57,63,41
200.6863,200.80472,60,63,41
200.88367,201.00209,69,83,41
201.08104,201.19946,65,63,41
201.27841,201.39682,57,63,41
201.47577,201.5942,60,63,41
201.67314,201.79156,69,83,41
201.87051,201.98894,65,63,41
202.06789,202.1863,69,83,41
202.26524,202.38367,65,63,41
202.46262,202.58104,57,63,41
202.65999,202.77841,60,63,41
202.85736,202.97577,62,63,41
203.05472,203.17314,65,63,41
203.25209,203.37051,70,63,41
203.44946,203.56789,65,63,41
203.64684,203.76524,70,63,41
203.8442,203.96262,65,63,41
204.04156,204.15999,62,63,41
204.23894,204.35736,58,63,41
204.4363,204.55472,57,63,41
204.63367,204.75209,60,63,41
204.83104,204.94946,69,83,41
205.02841,205.14684,65,63,41
205.22577,205.3442,57,63,41
205.42314,205.54156,60,63,41
205.62051,205.73894,69,83,41
205.81789,205.93631,65,63,41
206.01524,206.13367,57,63,41
206.21262,206.33104,60,63,41
206.40999,206.52841,69,83,41
206.60736,206.72577,65,63,41
206.80472,206.92314,57,63,41
207.00209,207.12051,60,63,41
207.19946,207.31789,69,83,41
207.39684,207.51524,65,63,41
207.5942,207.71262,69,83,41
207.79156,207.90999,65,63,41
207.98894,208.10736,60,63,41
208.18631,208.30472,57,63,41
208.38367,208.51196,59,80,41
208.58104,208.70934,56,80,41
208.77841,208.9067,59,80,41
208.97578,209.10406,64,80,41
209.17314,209.30144,60,80,41
209.37051,209.49881,57,80,41
209.56789,209.69617,60,92,41
209.76526,209.89354,64,92,41
209.96262,210.09091,59,92,41
210.15999,210.28828,56,92,41
210.35736,210.48564,59,105,41
210.55472,210.68301,64,105,41
210.75209,210.91426,57,105,41
211.1575,211.31966,57,105,41
211.5629,211.72507,57,105,41
211.9683,212.13048,57,105,41
212.37372,213.97844,60,80,41
213.99533,214.11696,61,39,41
214.19804,214.31966,65,39,41
214.40074,214.52025,61,39,41
214.59918,214.7176,65,39,41
214.79655,214.91498,61,39,41
214.99393,215.11235,65,39,41
215.1913,215.30972,61,39,41
215.38866,215.50708,65,39,41
215.58603,215.70445,61,39,41
215.7834,215.90182,65,39,41
215.98077,216.09918,61,39,41
216.17813,216.29655,65,39,41
216.3755,216.49393,61,39,41
216.57288,216.6913,65,39,41
216.77025,216.88866,61,39,41
216.9676,217.08603,65,39,41
217.16498,217.2834,58,39,41
217.36235,217.48077,61,39,41
217.55972,217.67813,58,39,41
217.75708,217.8755,61,39,41
217.95445,218.07288,58,39,41
218.15182,218.27025,61,39,41
218.3492,218.4676,58,39,41
218.54655,218.66498,61,39,41
218.74393,218.86235,61,39,41
218.9413,219.05972,65,39,41
219.13867,219.25708,61,39,41
219.33603,219.45445,65,39,41
219.5334,219.65182,61,39,41
219.73077,219.8492,65,39,41
219.92813,220.04655,61,39,41
220.1255,220.24393,65,39,41
220.32288,220.4413,61,39,41
220.52025,220.63867,65,39,41
220.7176,220.83603,61,39,41
220.91498,221.0334,65,39,41
221.11235,221.23077,61,39,41
221.30972,221.42815,65,39,41
221.50708,221.6255,61,39,41
221.70445,221.82288,65,39,41
221.90182,222.02025,61,39,41
222.0992,222.2176,65,39,41
222.29655,222.41498,61,39,41
222.49393,222.61235,65,39,41
222.6913,222.8492,61,39,41
223.08603,223.20445,60,83,41
223.2834,223.40182,58,63,41
223.48077,223.63867,51,63,41
224.27025,224.3755,51,39,41
224.27025,224.3755,60,39,41
224.40182,224.50708,60,39,41
224.40182,224.50708,51,39,41
224.5334,224.63867,51,39,41
224.5334,224.63867,60,39,41
224.66498,224.77025,51,39,41
224.66498,224.77025,60,39,41
224.79655,224.90182,51,39,41
224.79655,224.90182,60,39,41
224.92815,225.0334,51,39,41
224.92815,225.0334,60,39,41
225.05972,225.16498,51,39,41
225.05972,225.16498,60,39,41
225.1913,225.29655,51,39,41
225.1913,225.29655,60,39,41
225.32288,225.42815,51,39,41
225.32288,225.42815,60,39,41
225.45445,225.55972,60,39,41
225.45445,225.55972,51,39,41
225.58603,225.6913,60,39,41
225.58603,225.6913,51,39,41
225.71762,225.82288,51,39,41
225.71762,225.82288,60,39,41
225.8492,225.95445,51,39,41
225.8492,225.95445,60,39,41
225.98077,226.08603,51,39,41
225.98077,226.08603,60,39,41
226.11235,226.21762,51,39,41
226.11235,226.21762,60,39,41
226.24393,226.3492,60,39,41
226.24393,226.3492,51,39,41
226.3755,226.48077,51,39,41
226.3755,226.48077,60,39,41
226.5071,226.61235,51,39,41
226.5071,226.61235,60,39,41
226.63867,226.74393,51,39,41
226.77025,226.8755,51,39,41
226.90182,227.0071,51,39,41
227.0334,227.13867,51,39,41
227.16498,227.27025,51,39,41
227.29657,227.40182,51,39,41
227.42815,227.5334,51,39,41
227.42815,227.5334,61,39,41
227.55972,227.66498,61,39,41
227.55972,227.66498,51,39,41
227.6913,227.79657,61,39,41
227.6913,227.79657,51,39,41
227.82288,227.92815,51,39,41
227.82288,227.92815,61,39,41
227.95445,228.05972,51,39,41
227.95445,228.05972,61,39,41
228.08603,228.1913,51,39,41
228.08603,228.1913,61,39,41
228.21762,228.32288,61,39,41
228.3492,228.45445,61,39,41
228.48077,228.58603,61,39,41
228.61235,228.77025,61,39,41
229.0071,229.11235,61,63,41
229.13867,229.24393,61,63,41
229.27025,229.3755,61,63,41
229.40182,229.55972,61,63,41
229.79657,229.90182,62,70,41
229.92815,230.0334,62,70,41
230.05972,230.16498,62,70,41
230.1913,230.3492,62,70,41
230.58604,230.6913,62,80,41
230.58604,230.6913,65,80,41
230.71762,230.82288,65,80,41
230.71762,230.82288,62,80,41
230.8492,230.95445,62,80,41
230.8492,230.95445,65,80,41
230.98077,231.13867,62,80,41
230.98077,231.13867,65,80,41
231.37552,231.48077,62,80,41
231.37552,231.48077,65,80,41
231.5071,231.61235,62,80,41
231.5071,231.61235,65,80,41
231.63867,231.74393,62,80,41
231.63867,231.74393,65,80,41
231.77025,231.92815,62,80,41
231.77025,231.92815,65,80,41
232.16498,232.27025,62,92,41
232.16498,232.27025,65,92,41
232.29657,232.40182,62,92,41
232.29657,232.40182,65,92,41
232.42815,232.5334,65,92,41
232.42815,232.5334,62,92,41
232.55972,232.71762,65,92,41
232.55972,232.71762,62,92,41
232.95445,233.05972,60,105,41
233.08604,233.1913,60,105,41
233.21762,233.32288,60,105,41
233.3492,233.5512,62,105,41
233.5512,233.71335,60,105,41
233.75389,233.86311,57,105,41
233.8905,234.00009,57,105,41
234.0275,234.13708,57,92,41
234.16447,234.37244,58,92,41
234.37244,234.5391,57,92,41
234.58076,234.69305,53,92,41
234.72122,234.8339,53,80,41
234.86206,234.97475,53,80,41
235.00291,235.2168,58,80,41
235.2168,235.38821,57,80,41
235.43108,235.5466,53,70,41
235.57559,235.69153,53,70,41
235.72052,235.83646,53,70,41
235.86545,236.21971,57,70,41
236.21971,236.58691,55,70,41
236.60683,241.5674,48,63,41
241.5674,242.1924,53,63,41
242.1924,242.70215,48,63,41
242.8298,243.46811,53,63,41
243.46811,244.11935,48,70,41
244.11935,244.77153,53,70,41
244.77153,244.9799,48,63,41
245.0916,245.41075,48,63,41
245.41075,246.05545,53,63,41
246.05545,246.38107,48,63,41
246.38107,246.70172,53,63,41
246.70717,252.99332,52,39,41
252.99332,254.21727,52,70,41
254.24332,254.86832,53,80,41
254.86832,256.49332,53,70,41
256.74332,259.7844,58,63,41
256.74332,259.7844,48,63,41
259.82385,260.0015,60,63,41
260.1199,260.1791,60,63,41
260.2186,260.337,60,63,41
260.41595,260.73175,60,63,41
260.8107,260.9291,60,63,41
261.00806,261.1265,60,63,41
261.4028,261.58044,60,63,41
261.69885,261.75806,60,63,41
261.79755,261.91595,60,63,41
261.9949,262.3107,60,63,41
262.38965,262.50806,60,63,41
262.587,262.70544,60,63,41
262.98175,263.1594,60,63,41
263.2778,263.337,60,63,41
263.3765,263.4949,60,63,41
263.57385,263.88965,60,63,41
263.9686,264.087,60,63,41
264.16595,264.2844,60,70,41
264.5607,264.73834,62,70,41
264.5607,264.73834,58,70,41
264.85675,264.91595,62,70,41
264.85675,264.91595,58,70,41
264.95544,265.07385,58,70,41
264.95544,265.07385,62,70,41
265.1528,265.4686,58,80,41
265.1528,265.4686,62,80,41
265.54755,265.66595,58,80,41
265.54755,265.66595,62,80,41
265.7449,265.86334,62,80,41
265.7449,265.86334,58,80,41
266.13965,266.3173,60,80,41
266.4357,266.4949,60,70,41
266.5344,266.6528,60,70,41
266.73175,267.04755,60,70,41
267.1265,267.2449,60,70,41
267.32385,267.4423,60,63,41
267.7186,267.95544,48,63,41
268.01465,268.0936,48,63,41
268.11334,268.27124,48,63,41
268.3107,268.4686,48,63,41
268.5081,268.66595,48,63,41
268.70544,268.86334,48,63,41
268.9028,269.0607,48,63,41
269.29755,269.42914,57,63,41
269.42914,269.5607,53,63,41
269.5607,269.6923,57,63,41
269.6923,269.8502,53,63,41
270.087,270.2186,57,63,41
270.2186,270.3502,53,63,41
270.3502,270.48175,57,63,41
270.48175,270.63965,53,63,41
270.8765,271.0081,57,63,41
271.0081,271.13965,53,63,41
271.13965,271.27124,57,63,41
271.27124,271.42914,53,63,41
271.66595,271.79755,57,63,41
271.79755,271.92914,53,63,41
271.92914,272.0607,57,63,41
272.0607,272.2186,53,63,41
272.45544,272.58704,57,63,41
272.58704,272.7186,53,63,41
272.7186,272.8502,57,63,41
272.8502,273.0081,53,63,41
273.2449,273.3765,56,63,41
273.3765,273.5081,53,63,41
273.5081,273.63965,56,63,41
273.63965,273.79755,53,63,41
274.0344,274.16595,56,70,41
274.16595,274.29755,53,70,41
274.29755,274.42914,56,70,41
274.42914,274.58704,53,70,41
274.82385,274.95544,56,80,41
274.95544,275.08704,53,80,41
275.08704,275.2186,56,80,41
275.2186,275.3765,53,80,41
275.61334,275.7449,56,80,41
275.7449,275.8765,53,80,41
275.8765,275.9949,56,80,41
276.0081,276.11334,68,92,41
276.13965,276.2449,68,92,41
276.27124,276.3765,68,92,41
276.4028,276.5081,68,92,41
276.5344,276.63965,68,92,41
276.666,276.77124,68,92,41
276.79755,276.9028,68,92,41
276.92914,277.0344,68,92,41
277.0607,277.166,68,92,41
277.1923,277.29755,68,105,41
277.32385,277.42914,68,105,41
277.45544,277.5607,68,105,41
277.58704,277.6923,68,105,41
277.7186,277.82385,68,105,41
277.8502,277.95544,68,105,41
277.98175,278.13965,65,116,41
277.98175,278.13965,69,116,41
278.3765,278.5081,60,116,41
278.5081,278.58704,57,116,41
278.63965,278.7186,53,116,41
278.77124,278.92914,48,116,41
279.166,279.29755,60,116,41
279.29755,279.3765,57,116,41
279.42914,279.5081,53,116,41
279.5607,279.7186,48,116,41
279.95544,280.08704,60,116,41
280.08704,280.166,57,116,41
280.2186,280.29755,53,116,41
280.3502,280.5081,48,116,41
280.74493,280.8765,70,116,41
280.8765,280.95544,69,116,41
281.0081,281.08704,67,116,41
281.13965,281.29755,65,105,41
281.5344,281.77124,60,120,41
281.83044,281.88965,62,80,41
281.92914,282.04755,60,80,41
282.1265,282.24493,57,80,41
282.32385,282.4423,53,80,41
282.52124,282.63965,50,80,41
282.7186,282.8765,48,80,41
283.11334,283.3502,60,120,41
283.4094,283.4686,62,80,41
283.5081,283.6265,60,80,41
283.70544,283.82385,57,80,41
283.9028,284.02124,53,80,41
284.1002,284.2186,50,80,41
284.29755,284.45544,48,80,41
284.6923,284.92914,61,100,41
284.98834,285.0673,63,80,41
285.08704,285.24493,61,80,41
285.2844,285.4423,56,80,41
285.48175,285.63965,53,80,41
285.67914,285.83704,51,92,41
285.8765,286.0344,49,92,41
286.27124,286.5081,61,125,41
286.5673,286.64624,63,105,41
286.666,286.82388,61,105,41
286.86334,287.02124,56,105,41
287.0607,287.2186,53,105,41
287.2581,287.416,51,105,41
287.45544,288.14954,49,125,41
288.24493,288.939,56,125,41
289.0344,289.3502,56,92,41
289.42914,289.55084,62,112,41
289.6265,289.7482,56,92,41
289.82388,289.9456,60,112,41
290.02124,290.14294,57,92,41
290.2186,290.34033,60,112,41
290.416,290.5377,57,92,41
290.61334,290.73505,58,112,41
290.8107,290.93243,55,92,41
291.0081,291.1298,57,112,41
291.20544,291.32715,60,92,41
291.40283,291.52454,58,112,41
291.6002,291.7219,61,92,41
291.79755,291.91925,61,112,41
291.99493,292.11664,65,92,41
292.1923,292.314,61,112,41
292.38965,292.51138,60,92,41
292.58704,292.70874,64,112,41
292.7844,292.9061,65,92,41
292.98178,293.1035,61,112,41
293.17914,293.30084,60,92,41
293.3765,293.4982,64,112,41
293.57388,293.6956,65,92,41
293.77124,293.89294,61,112,41
293.9686,294.09033,60,92,41
294.166,294.2877,64,112,41
294.36334,294.48505,65,92,41
294.5607,294.689,64,112,41
294.7581,294.88638,65,92,41
294.95544,295.08374,62,112,41
295.15283,295.2811,64,92,41
295.3502,295.45544,57,105,41
295.3502,295.45544,65,105,41
295.48178,295.58704,57,105,41
295.48178,295.58704,53,105,41
295.61334,295.7186,53,105,41
295.61334,295.7186,57,105,41
295.74493,295.8502,53,105,41
295.74493,295.8502,57,105,41
295.8765,295.98178,53,105,41
295.8765,295.98178,57,105,41
296.0081,296.11334,53,105,41
296.0081,296.11334,57,105,41
296.13965,296.24493,53,105,41
296.13965,296.24493,57,105,41
296.27124,296.3765,57,105,41
296.27124,296.3765,53,105,41
296.40283,296.5081,53,105,41
296.40283,296.5081,57,105,41
296.5344,296.63965,53,105,41
296.5344,296.63965,57,105,41
296.666,296.77124,53,105,41
296.666,296.77124,57,105,41
296.79755,296.90283,53,105,41
296.79755,296.90283,57,105,41
296.92914,297.0344,53,105,41
296.92914,297.0344,57,105,41
297.06073,297.166,53,105,41
297.06073,297.166,57,105,41
297.1923,297.29755,57,105,41
297.1923,297.29755,53,105,41
297.32388,297.42914,53,105,41
297.32388,297.42914,57,105,41
297.45544,297.56073,57,105,41
297.45544,297.56073,53,105,41
297.58704,297.6923,53,105,41
297.58704,297.6923,57,105,41
297.7186,297.82388,57,105,41
297.7186,297.82388,53,105,41
297.8502,297.95544,53,105,41
297.8502,297.95544,57,105,41
297.98178,298.08704,57,105,41
297.98178,298.08704,53,105,41
298.11334,298.2186,57,105,41
298.11334,298.2186,53,105,41
298.24493,298.3502,53,105,41
298.24493,298.3502,57,105,41
298.3765,298.48178,57,105,41
298.3765,298.48178,53,105,41
298.5081,298.61334,57,105,41
298.5081,298.61334,53,105,41
298.63965,298.74493,53,105,41
298.63965,298.74493,57,105,41
298.77124,298.8765,57,105,41
298.77124,298.8765,53,105,41
298.90283,299.0081,53,105,41
298.90283,299.0081,57,105,41
299.0344,299.13965,53,105,41
299.0344,299.13965,57,105,41
299.166,299.27124,57,105,41
299.166,299.27124,53,105,41
299.29755,299.40283,57,105,41
299.29755,299.40283,53,105,41
299.42914,299.5344,53,105,41
299.42914,299.5344,57,105,41
299.56073,299.666,57,105,41
299.56073,299.666,53,105,41
299.6923,299.79755,57,105,41
299.6923,299.79755,53,105,41
299.82388,299.92914,53,105,41
299.82388,299.92914,57,105,41
299.95544,300.06073,57,105,41
299.95544,300.06073,53,105,41
300.08704,300.1923,53,105,41
300.08704,300.1923,57,105,41
300.2186,300.32388,53,105,41
300.2186,300.32388,57,105,41
300.3502,300.45544,57,105,41
300.3502,300.45544,53,105,41
300.48178,300.58704,65,105,41
300.48178,300.58704,55,105,41
300.61334,300.7186,65,105,41
300.61334,300.7186,55,105,41
300.74493,300.8502,55,105,41
300.74493,300.8502,65,105,41
300.8765,300.98178,65,105,41
300.8765,300.98178,57,105,41
301.0081,301.11334,57,105,41
301.0081,301.11334,65,105,41
301.13968,301.24493,65,105,41
301.13968,301.24493,57,105,41
301.27124,301.3765,64,105,41
301.27124,301.3765,55,105,41
301.40283,301.5081,64,105,41
301.40283,301.5081,55,105,41
301.5344,301.63968,55,105,41
301.5344,301.63968,64,105,41
301.666,301.82388,57,105,41
301.666,301.82388,65,105,41
302.06073,302.29755,65,127,41
302.35678,302.43573,67,116,41
302.45544,302.6923,65,127,41
302.7515,302.83044,60,116,41
302.8502,303.08704,57,127,41
303.14624,303.2252,55,116,41
303.24493,303.56073,53,116,41
303.63968,303.8765,65,127,41
303.93573,304.01468,67,116,41
304.0344,304.27124,65,127,41
304.33044,304.4094,60,116,41
304.42914,304.666,57,127,41
304.7252,304.80414,55,116,41
304.82388,305.13968,53,116,41
305.21863,305.45544,65,127,41
305.51468,305.59363,67,116,41
305.61334,305.8502,65,127,41
305.9094,305.98834,60,116,41
306.0081,306.24493,57,127,41
306.30414,306.3831,55,116,41
306.40283,306.77783,53,127,41
306.79755,307.17255,55,127,41
307.1923,307.5673,57,127,41
307.58704,307.96204,60,127,41
307.98178,308.09033,53,116,41
308.17914,308.2877,53,116,41
308.3765,308.48505,55,116,41
308.57388,308.68243,55,116,41
308.77124,309.14624,57,127,41
309.166,309.541,60,127,41
309.56073,309.66928,53,116,41
309.7581,309.86664,53,116,41
309.95544,310.064,55,116,41
310.15283,310.26138,55,116,41
310.3502,310.7252,57,127,41
310.74493,311.11993,60,127,41
311.13968,311.45544,48,116,41
311.13968,311.45544,57,116,41
311.5344,311.8502,58,116,41
311.5344,311.8502,48,116,41
311.92914,312.24493,57,116,41
311.92914,312.24493,48,116,41
312.32388,312.63968,58,116,41
312.32388,312.63968,48,116,41
312.71863,313.0344,57,116,41
312.71863,313.0344,48,116,41
313.11334,313.42914,58,116,41
313.11334,313.42914,48,116,41
313.5081,313.82388,57,116,41
313.5081,313.82388,48,116,41
313.90283,314.21863,58,116,41
313.90283,314.21863,48,116,41
314.29758,314.42914,60,80,41
314.42914,314.5081,65,80,41
314.56073,314.63968,65,80,41
314.6923,314.82388,65,80,41
314.82388,314.90283,63,80,41
314.95544,315.0344,63,80,41
315.08704,315.21863,63,92,41
315.21863,315.29758,62,92,41
315.3502,315.42914,62,92,41
315.48178,315.61334,62,92,41
315.61334,315.6923,61,92,41
315.74493,315.82388,61,92,41
315.87653,316.0081,61,105,41
316.0081,316.08704,60,105,41
316.13968,316.21863,60,105,41
316.27124,316.40283,60,105,41
316.40283,316.48178,58,105,41
316.5344,316.61334,58,105,41
316.666,316.79758,58,105,41
316.79758,316.87653,57,105,41
316.92914,317.0081,57,105,41
317.06073,317.13968,57,116,41
317.1923,317.27124,57,116,41
317.32388,317.40283,57,116,41
317.45547,317.58704,57,116,41
317.58704,317.666,56,116,41
317.71863,317.79758,56,116,41
317.8502,317.92914,65,116,41
317.8502,317.92914,56,116,41
317.98178,318.06073,56,116,41
317.98178,318.06073,65,116,41
318.11334,318.1923,56,116,41
318.11334,318.1923,65,116,41
318.24493,318.32388,65,116,41
318.24493,318.32388,56,116,41
318.37653,318.45547,56,116,41
318.37653,318.45547,65,116,41
318.5081,318.58704,56,116,41
318.5081,318.58704,65,116,41
318.63968,318.71863,56,116,41
318.63968,318.71863,65,116,41
318.77124,318.8502,56,116,41
318.77124,318.8502,65,116,41
318.90283,318.98178,65,116,41
318.90283,318.98178,56,116,41
319.0344,319.3502,56,116,41
319.0344,319.3502,65,116,41
319.88623,320.25546,68,116,41
319.88623,320.25546,56,116,41
320.8093,321.2016,65,116,41
320.8093,321.2016,57,116,41
320.92468,321.2016,69,116,41
321.7324,322.1247,58,116,41
321.7324,322.1247,48,116,41
321.84778,322.1247,64,116,41
322.66913,322.87152,57,116,41
322.72867,322.87152,65,116,41
322.66913,322.87152,48,116,41
323.14532,323.41766,65,127,41
323.48535,323.57556,62,116,41
323.5981,323.8688,60,127,41
323.93646,324.0267,57,116,41
324.04926,324.30154,53,127,41
324.36404,324.4474,50,116,41
324.4682,324.6349,53,116,41
324.8849,325.1588,60,116,41
324.8849,325.1588,53,116,41
325.22806,325.32034,60,116,41
325.22806,325.32034,53,116,41
325.3434,326.24313,60,116,41
325.3434,326.24313,53,116,41
326.35425,327.40045,53,116,41
327.52417,329.25397,53,116,41
11.052636,11.309215,50,70,42
11.644741,11.773031,50,70,42
11.84211,12.098689,48,70,42
12.631584,12.888163,48,80,42
13.223689,13.351979,48,80,42
13.421058,13.6579,46,80,42
13.815795,14.052637,45,80,42
14.210532,14.447374,45,92,42
14.605269,14.842112,47,92,42
15.000006,15.236848,48,92,42
15.394743,15.631585,47,92,42
15.78948,16.026321,47,105,42
16.184217,16.421059,47,105,42
16.578955,16.707243,48,105,42
16.973692,17.10198,48,105,42
17.171059,17.299349,36,105,42
17.368427,17.496717,48,105,42
17.763165,17.891455,48,105,42
17.960533,18.088823,36,105,42
18.157902,18.286192,48,105,42
18.552639,18.68093,48,105,42
18.750008,18.878298,36,105,42
18.947376,19.075666,48,105,42
19.342113,19.470402,48,105,42
19.539482,19.66777,36,105,42
19.73685,20.052639,41,125,42
34.539486,34.667778,45,70,42
34.736855,34.865147,44,90,42
34.934223,35.062515,40,70,42
35.13159,35.259884,44,90,42
35.32896,35.457253,40,70,42
35.52633,35.65462,45,100,42
35.723698,35.85199,40,80,42
35.921066,36.04936,45,100,42
36.118435,36.246723,40,92,42
36.315804,36.44409,44,112,42
36.513172,36.64146,40,105,42
36.71054,36.83883,44,125,42
36.90791,37.036198,40,116,42
37.105278,37.26744,45,116,42
37.105278,37.26744,52,116,42
37.105278,37.26744,57,116,42
37.51068,37.672844,45,116,42
37.51068,37.672844,52,116,42
37.51068,37.672844,57,116,42
37.91609,38.07825,52,116,42
37.91609,38.07825,45,116,42
37.91609,38.07825,57,116,42
38.32149,38.483654,52,116,42
38.32149,38.483654,45,116,42
38.32149,38.483654,57,116,42
38.7269,38.88906,45,92,42
39.1323,39.294464,45,70,42
39.53771,39.69987,45,70,42
40.34852,40.664307,41,63,42
40.940624,41.09852,48,63,42
41.137993,41.45378,53,63,42
41.7301,41.887993,60,63,42
41.927467,42.243256,53,63,42
42.519573,42.677467,48,63,42
42.71694,43.03273,41,63,42
43.309044,43.46694,48,63,42
43.506413,43.822205,41,63,42
44.09852,44.256413,46,63,42
44.295887,44.61168,41,63,42
44.887993,45.045887,46,63,42
45.08536,45.40115,41,63,42
45.677467,45.83536,48,63,42
45.874836,46.003124,41,63,42
46.072205,46.200493,41,63,42
46.46694,46.59523,48,63,42
46.66431,46.7926,53,63,42
46.86168,46.989967,53,63,42
47.256416,47.384705,48,70,42
47.453785,47.582073,41,70,42
47.651154,47.77944,41,70,42
48.04589,48.17418,36,80,42
48.24326,48.371548,41,80,42
48.440628,48.568916,41,80,42
48.835365,48.963654,53,92,42
49.03273,49.161022,47,92,42
49.2301,49.35839,43,92,42
49.427467,49.55576,47,92,42
49.624836,49.753128,55,92,42
49.822205,49.950497,48,92,42
50.019573,50.147865,52,92,42
50.21694,50.345234,55,105,42
50.41431,50.542603,60,105,42
50.61168,50.73997,59,105,42
50.809048,50.93734,55,105,42
51.006416,51.13471,59,105,42
51.203785,51.332073,55,105,42
51.401154,51.563316,60,116,42
51.80656,51.96872,36,116,42
52.211964,52.374126,36,116,42
52.61737,52.77953,36,116,42
53.022774,53.187157,36,116,42
53.433735,53.546745,48,80,42
53.844692,53.959274,48,70,42
54.26136,54.375942,48,63,42
54.678024,54.844692,44,63,42
79.28502,79.41359,51,70,42
79.499306,79.62788,51,70,42
79.71359,80.00964,44,70,42
80.00964,80.10833,46,70,42
80.10833,80.26622,44,70,42
80.305695,80.42412,39,70,42
80.50307,80.79912,44,70,42
80.79912,80.897804,46,70,42
80.897804,81.055695,44,70,42
81.09517,81.21359,39,70,42
81.29254,81.58859,44,70,42
81.58859,81.68728,46,70,42
81.68728,81.84517,44,70,42
81.88464,82.00307,39,70,42
82.08201,82.37807,44,70,42
82.37807,82.476746,46,70,42
82.476746,82.63464,44,70,42
82.67412,82.79254,39,70,42
82.87148,86.006355,43,63,42
86.02938,86.12938,46,39,42
86.12938,86.229385,49,39,42
86.229385,86.329384,46,39,42
86.329384,86.42938,49,39,42
86.42938,86.52938,46,39,42
86.52938,86.62938,49,39,42
86.62938,86.729385,46,39,42
86.729385,86.829384,49,39,42
86.829384,86.92938,46,39,42
86.92938,87.02938,49,39,42
87.02938,87.12938,46,39,42
87.12938,87.229385,49,39,42
87.229385,87.329384,46,39,42
87.329384,87.42938,49,39,42
87.42938,87.52938,46,39,42
87.52938,87.62938,49,39,42
87.62938,87.729385,46,39,42
87.729385,87.829384,49,39,42
87.829384,87.92938,46,39,42
87.92938,88.02938,49,39,42
88.02938,88.12938,46,39,42
88.12938,88.229385,49,39,42
88.229385,88.329384,46,39,42
88.329384,88.42938,49,39,42
88.42938,88.52938,46,39,42
88.52938,88.62938,49,39,42
88.62938,88.729385,46,39,42
88.729385,88.829384,49,39,42
88.829384,88.92938,46,39,42
88.92938,89.02938,49,39,42
89.02938,89.12938,46,39,42
89.12938,89.20938,49,39,42
89.229385,89.35767,48,63,42
89.42675,89.55504,36,63,42
89.82149,89.949776,48,70,42
90.01885,90.14715,48,70,42
90.216225,90.34451,36,70,42
90.61096,90.73925,48,80,42
90.80833,90.93662,48,80,42
91.0057,91.13399,36,80,42
91.40044,91.528725,48,92,42
91.5978,91.7261,48,92,42
91.79517,91.92346,36,92,42
92.18991,92.3182,48,105,42
92.387276,92.54944,36,105,42
92.387276,92.54944,48,105,42
92.79269,92.95484,36,105,42
92.79269,92.95484,48,105,42
93.19809,93.36025,48,105,42
93.19809,93.36025,36,105,42
93.60349,93.765656,48,105,42
93.60349,93.765656,36,105,42
94.008896,94.17106,48,105,42
94.008896,94.17106,36,105,42
94.41431,94.57646,36,105,42
94.41431,94.57646,48,105,42
94.81971,94.98187,48,105,42
94.81971,94.98187,36,105,42
95.22511,95.387276,36,105,42
95.22511,95.387276,48,105,42
95.630516,95.709465,48,125,42
95.7292,95.80815,48,125,42
95.82789,95.90684,49,105,42
95.92657,96.005516,49,105,42
96.02525,96.1042,48,105,42
96.12394,96.20289,48,105,42
96.222626,96.301575,49,105,42
96.321304,96.40025,49,105,42
96.41999,96.49894,48,92,42
96.51868,96.597626,48,92,42
96.61736,96.696304,47,92,42
96.71604,96.79499,47,92,42
96.81473,96.89368,48,92,42
96.913414,96.99236,48,80,42
97.0121,97.09104,46,80,42
97.11078,97.18973,46,80,42
97.209465,97.288414,44,70,42
97.30815,97.3871,44,70,42
97.40684,97.48578,46,70,42
97.505516,97.584465,46,70,42
97.6042,97.68315,44,70,42
97.70289,97.78184,44,70,42
97.801575,97.880516,46,70,42
97.90025,97.9792,46,70,42
97.99894,98.07789,44,70,42
98.097626,98.176575,44,70,42
98.19631,98.27525,43,70,42
98.29499,98.37394,43,70,42
98.39368,98.472626,44,70,42
98.49236,98.57131,44,63,42
98.59105,98.66999,43,63,42
98.68973,98.76868,43,63,42
98.788414,99.1042,41,63,42
99.380516,99.538414,48,63,42
99.57789,99.89368,53,63,42
100.16999,100.32789,48,63,42
100.36736,100.68315,53,63,42
100.959465,101.11736,48,63,42
101.15684,101.472626,41,63,42
101.74894,101.90684,45,63,42
101.94631,102.2621,41,63,42
102.538414,102.69631,46,63,42
102.73579,103.051575,41,63,42
103.32789,103.48579,46,63,42
103.52526,103.84105,41,63,42
104.11736,104.27526,48,63,42
104.314735,104.44302,53,63,42
104.5121,104.64039,53,63,42
104.90684,105.035126,48,63,42
105.1042,105.2325,53,63,42
105.301575,105.42986,53,63,42
105.69631,105.8246,48,63,42
105.89368,106.02197,53,63,42
106.09105,106.21934,53,63,42
106.48579,106.614075,48,63,42
106.68315,106.81145,53,63,42
106.88052,107.00881,53,63,42
107.27526,107.40355,53,63,42
107.472626,107.63052,49,92,42
107.86736,108.10421,49,92,42
108.163414,108.24236,45,92,42
108.2621,108.42,50,92,42
108.65684,108.893684,50,92,42
108.95289,109.03184,50,92,42
109.051575,109.20947,52,105,42
109.44631,109.68316,52,105,42
109.74236,109.82131,48,105,42
109.84105,109.99895,53,105,42
110.23579,110.472626,53,105,42
110.53184,110.61079,53,105,42
110.63052,110.78842,55,116,42
111.02526,111.2621,55,116,42
111.32131,111.40026,56,116,42
111.42,111.577896,55,116,42
111.814735,112.051575,55,116,42
112.11079,112.189735,56,116,42
112.20947,112.36737,55,116,42
112.60421,112.7621,56,116,42
112.99895,113.15684,55,116,42
113.393684,113.551575,56,116,42
113.78842,113.94842,55,116,42
114.18842,114.34842,55,116,42
114.58842,114.75058,55,116,42
114.99383,115.15599,55,116,42
115.39923,115.47818,48,105,42
115.49792,115.57686,48,105,42
115.596596,115.675545,46,105,42
115.69528,115.77423,46,105,42
115.79397,115.87292,45,105,42
115.892654,115.971596,45,105,42
115.99133,116.07028,43,105,42
116.09002,116.16897,43,105,42
116.188705,116.267654,41,105,42
116.28739,116.36633,41,105,42
116.38607,116.46502,40,105,42
116.48476,116.563705,40,105,42
116.58344,116.66239,38,116,42
116.68213,116.76107,38,116,42
116.78081,116.85976,36,116,42
116.87949,116.95844,36,116,42
116.97818,117.149605,41,116,42
117.406746,117.546036,65,127,42
117.62103,117.76032,62,116,42
117.83532,117.96361,60,127,42
118.03269,118.16098,57,116,42
118.23006,118.358345,53,127,42
118.42743,118.55572,50,116,42
118.624794,118.86163,50,127,42
118.920845,118.98499,50,116,42
119.01953,119.14782,50,116,42
119.216896,119.34519,50,116,42
119.41427,119.57217,50,116,42
119.809006,119.966896,65,127,42
120.00637,120.124794,61,116,42
120.20374,120.33203,60,127,42
120.40111,120.51953,56,116,42
120.59848,120.72677,53,127,42
120.795845,120.91427,49,116,42
120.99322,121.15111,49,116,42
121.58532,121.74322,49,116,42
121.78269,122.02593,49,127,42
122.08675,122.15262,49,116,42
122.188095,122.319855,49,80,42
122.3908,122.52255,49,80,42
122.5935,122.76017,49,80,42
123.2185,123.38517,37,70,42
123.426834,123.683975,37,70,42
123.74826,123.8179,37,70,42
123.85541,123.99469,37,70,42
124.06969,124.20898,37,63,42
124.28397,124.450645,37,63,42
130.95065,131.78398,49,63,42
131.78398,132.61731,46,63,42
132.61731,133.45065,44,63,42
133.45065,134.25967,43,63,42
134.28398,134.70065,42,63,42
134.70065,135.11732,41,63,42
135.11732,135.53398,40,63,42
135.53398,135.93849,39,63,42
135.95065,136.36732,38,63,42
136.36732,136.78398,37,63,42
136.78398,137.21255,36,63,42
137.21255,137.64113,48,63,42
137.64113,137.8078,41,63,42
139.09946,139.26613,46,63,42
139.3078,139.47446,41,63,42
140.76613,140.9328,46,63,42
140.97446,141.14113,41,63,42
141.59947,141.76613,46,63,42
141.8078,141.97447,41,63,42
142.4328,142.59947,46,63,42
142.64113,142.82295,41,63,42
144.55022,145.61217,57,63,42
145.61217,146.64314,53,70,42
146.67412,147.73605,48,70,42
147.73605,148.76703,50,63,42
148.798,149.85995,48,63,42
149.85995,150.89093,47,63,42
150.9219,151.45287,48,80,42
151.45287,151.98384,50,70,42
151.98384,153.04579,52,63,42
153.04579,154.10774,57,63,42
154.10774,155.1387,53,63,42
155.16968,156.23163,48,63,42
156.23163,157.2626,50,70,42
157.29358,158.35551,52,63,42
158.35551,159.38649,56,70,42
159.41747,160.47942,57,70,42
160.47942,161.54822,62,70,42
161.58034,161.72192,57,70,42
161.75732,161.89891,57,70,42
161.93431,162.0759,57,70,42
162.1113,163.72336,57,70,42
163.72336,164.25777,45,70,42
165.9252,166.98714,57,70,42
166.98714,168.01811,62,80,42
168.04909,169.08006,64,100,42
169.11104,169.642,62,80,42
169.642,170.15749,57,70,42
170.17297,170.70395,57,70,42
170.70395,171.7659,64,80,42
171.7659,172.28139,62,92,42
172.29688,173.88979,60,100,42
173.88979,174.40527,59,80,42
174.42076,175.45174,57,70,42
175.48271,175.9982,62,80,42
176.01369,176.52917,62,80,42
176.54465,177.07562,65,80,42
177.07562,178.12209,64,80,42
178.13757,178.40306,62,92,42
178.40306,178.6597,57,92,42
178.66855,179.19952,57,92,42
179.19952,180.26146,64,105,42
180.26146,180.78137,62,116,42
180.79243,180.96942,60,92,42
180.96942,181.14642,59,92,42
181.14642,181.31898,57,92,42
181.32341,182.3743,57,80,42
182.38536,182.65085,59,80,42
182.65085,182.91191,55,70,42
182.91634,183.02444,57,63,42
183.05147,183.15958,57,63,42
183.1866,183.29471,57,63,42
183.32173,183.42984,57,63,42
183.45686,183.56798,57,63,42
183.59576,183.70688,57,63,42
183.73465,183.84576,57,63,42
183.87354,183.98465,57,63,42
184.01242,184.12671,57,63,42
184.15529,184.26958,57,63,42
184.29814,184.41243,57,63,42
184.441,184.55528,57,63,42
184.58386,184.70036,57,63,42
184.72949,184.846,57,63,42
184.87512,184.99162,57,63,42
185.02075,185.13725,57,63,42
185.16638,185.29541,57,63,42
185.32767,185.4567,57,63,42
185.48897,185.618,57,63,42
185.65025,185.77928,57,63,42
185.81154,185.94057,57,63,42
185.97282,186.10187,57,63,42
186.13412,186.26315,57,63,42
186.29541,186.42444,57,63,42
186.4567,186.59464,57,63,42
186.62912,186.76704,57,63,42
186.80153,186.93945,57,63,42
186.97394,187.11188,57,63,42
187.14636,187.28429,57,63,42
187.31877,187.4567,57,63,42
187.49118,187.62912,57,63,42
187.6636,187.80153,57,63,42
187.83601,187.99391,52,63,42
188.23074,188.38864,52,63,42
188.62549,188.86234,40,103,42
188.92154,189.00049,40,63,42
189.02022,189.17812,40,63,42
189.41496,189.57286,52,63,42
189.8097,189.96759,52,63,42
190.20444,190.44127,40,83,42
190.50049,190.57944,40,63,42
190.59917,190.75706,40,63,42
190.99391,191.15181,52,63,42
191.38864,191.54654,52,63,42
191.78339,192.02022,40,83,42
192.07944,192.15839,40,63,42
192.17812,192.33601,40,63,42
192.57286,192.73074,52,63,42
192.96759,193.12549,52,63,42
193.36234,193.59917,40,83,42
193.65839,193.73734,40,63,42
193.75706,193.91496,40,63,42
194.15181,194.27022,52,63,42
194.54654,194.66496,52,63,42
194.74391,194.86234,40,63,42
194.94128,195.17812,52,83,42
195.23734,195.29654,52,63,42
195.33601,195.45444,52,63,42
195.53339,195.65181,40,63,42
195.73076,195.96759,52,70,42
196.02681,196.09094,52,70,42
196.12549,196.25378,52,70,42
196.32286,196.45114,52,70,42
196.52023,196.67812,53,80,42
196.71759,196.87549,53,80,42
196.91496,197.07286,54,80,42
197.11234,197.27023,54,80,42
197.3097,197.46759,55,92,42
197.50706,197.66496,43,92,42
197.70444,197.86234,55,92,42
197.90181,198.05971,43,92,42
198.09917,198.25706,55,105,42
198.29654,198.45444,43,105,42
198.49391,198.65181,55,105,42
198.69128,198.84917,43,105,42
198.88864,199.04654,55,116,42
199.08601,199.24391,43,116,42
199.28339,199.44128,55,116,42
199.48076,199.63864,43,116,42
199.67812,199.84029,41,116,42
208.18631,208.3442,45,70,42
208.38367,208.51196,44,80,42
208.58104,208.70934,40,80,42
208.77841,208.9067,44,80,42
208.97578,209.10406,40,80,42
209.17314,209.30144,45,80,42
209.37051,209.49881,40,80,42
209.56789,209.69617,45,92,42
209.76526,209.89354,40,92,42
209.96262,210.09091,44,92,42
210.15999,210.28828,40,92,42
210.35736,210.48564,44,92,42
210.55472,210.68301,40,105,42
210.75209,210.91426,45,105,42
211.1575,211.31966,45,105,42
211.1575,211.31966,52,105,42
211.5629,211.72507,45,105,42
211.5629,211.72507,52,105,42
211.9683,212.13048,52,105,42
211.9683,212.13048,45,105,42
212.37372,212.49533,53,105,42
212.57642,212.69804,48,105,42
212.77911,212.90074,53,105,42
212.98183,213.10344,48,92,42
213.18452,213.30615,53,80,42
213.38722,213.50885,48,80,42
213.58994,213.71155,53,70,42
213.79263,213.91425,48,63,42
213.99533,217.14853,49,63,42
217.16498,217.55972,46,63,42
217.55972,218.3492,42,63,42
218.3492,218.74393,46,63,42
218.74393,219.49393,49,63,42
219.5334,221.11235,37,63,42
221.11235,221.90182,49,63,42
221.90182,222.65182,61,63,42
222.6913,222.8492,51,63,42
223.8755,223.99393,48,83,42
224.07288,224.1913,46,63,42
224.27025,224.42815,39,63,42
225.45445,225.65182,60,83,42
225.65182,225.8492,58,63,42
225.8492,226.0071,51,63,42
227.0334,227.23077,61,83,42
227.23077,227.42815,60,63,42
227.42815,227.58603,51,63,42
228.21762,228.3755,52,63,42
228.61235,228.71762,52,63,42
228.74393,228.8492,52,63,42
228.8755,228.98077,52,63,42
229.0071,229.16498,52,70,42
229.40182,229.5071,52,70,42
229.5334,229.63867,52,70,42
229.66498,229.77025,52,70,42
229.79657,229.95445,53,70,42
230.1913,230.29657,53,80,42
230.32288,230.42815,53,80,42
230.45445,230.55972,53,80,42
230.58604,230.74393,46,80,42
230.98077,231.08604,46,92,42
231.11235,231.21762,46,92,42
231.24393,231.3492,46,92,42
231.37552,231.5334,47,92,42
231.77025,231.87552,47,92,42
231.90182,232.0071,47,92,42
232.0334,232.13867,47,92,42
232.16498,232.32288,47,92,42
232.55972,232.665,47,105,42
232.6913,232.79657,47,105,42
232.82288,232.92815,47,105,42
232.95445,233.15182,48,105,42
233.15182,233.3492,45,105,42
233.3492,233.47011,36,105,42
233.5512,233.6728,48,105,42
233.75389,233.959,48,105,42
233.959,234.16447,45,105,42
234.16447,234.2891,36,92,42
234.37244,234.49744,48,92,42
234.58076,234.79164,48,80,42
234.79164,235.00291,45,80,42
235.00291,235.13107,36,80,42
235.2168,235.34537,48,80,42
235.43108,235.64806,48,70,42
235.64806,235.86545,45,70,42
235.86545,236.07413,36,70,42
236.21971,236.44754,48,70,42
236.60683,246.68,41,63,42
246.70717,252.99332,45,63,42
252.99332,254.21727,45,70,42
254.24332,255.49332,43,80,42
255.49332,256.49332,43,70,42
256.74332,257.36832,53,70,42
257.36832,258.04636,52,70,42
258.04636,258.72815,50,70,42
258.72815,259.8074,52,70,42
259.82385,260.13965,53,63,42
269.6923,269.8206,53,70,42
269.88965,270.01794,41,70,42
270.087,270.2449,41,70,42
270.48175,270.61005,53,70,42
270.67914,270.8074,41,70,42
270.8765,271.0344,41,70,42
271.27124,271.3995,53,70,42
271.4686,271.5969,41,70,42
271.66595,271.82385,41,70,42
272.0607,272.189,53,70,42
272.2581,272.38635,41,70,42
272.45544,272.61334,41,70,42
272.8502,272.97845,53,70,42
273.04755,273.17584,41,70,42
273.2449,273.4028,41,70,42
273.63965,273.76794,53,70,42
273.83704,273.9653,41,70,42
274.0344,274.1923,41,70,42
274.42914,274.5574,53,80,42
274.6265,274.7548,41,80,42
274.82385,274.98175,41,80,42
275.2186,275.3469,53,92,42
275.41595,275.54425,41,92,42
275.61334,275.73175,41,105,42
275.8107,275.92914,44,105,42
276.0081,276.36334,37,125,42
276.4028,276.7581,44,125,42
276.79755,277.1528,49,125,42
277.1923,277.54755,56,125,42
277.58704,277.9423,49,127,42
277.98175,278.11334,48,116,42
278.11334,278.1923,45,116,42
278.2449,278.32385,41,116,42
278.3765,278.5344,36,116,42
278.77124,278.9028,48,116,42
278.9028,278.98175,45,116,42
279.0344,279.11334,41,116,42
279.166,279.32385,36,116,42
279.5607,279.6923,48,116,42
279.6923,279.77124,45,116,42
279.82385,279.9028,41,116,42
279.95544,280.11334,36,116,42
280.3502,280.48175,48,116,42
280.48175,280.5607,45,116,42
280.61334,280.6923,41,116,42
280.74493,280.86334,36,116,42
280.9423,281.0607,48,116,42
281.13965,281.39624,41,127,42
281.5344,281.61993,41,70,42
281.666,281.7515,41,70,42
281.79755,281.8831,41,70,42
281.92914,282.1857,41,70,42
282.32385,282.4094,41,70,42
282.45544,282.541,41,70,42
282.58704,282.67255,41,70,42
282.7186,282.9752,41,70,42
283.11334,283.19885,41,70,42
283.24493,283.33044,41,70,42
283.3765,283.46204,41,70,42
283.5081,283.76465,41,70,42
283.9028,283.98834,41,70,42
284.0344,284.11993,41,70,42
284.166,284.2515,41,70,42
284.29755,284.55414,41,70,42
284.6923,284.7778,41,70,42
284.82388,284.9094,41,70,42
284.95544,285.041,41,70,42
285.08704,285.3436,41,80,42
285.48175,285.5673,41,80,42
285.61334,285.69888,41,80,42
285.74493,285.83044,41,80,42
285.8765,286.1331,41,92,42
286.27124,286.35675,41,92,42
286.4028,286.48834,41,92,42
286.5344,286.61993,41,92,42
286.666,286.92255,41,105,42
287.0607,287.14624,41,105,42
287.1923,287.2778,41,105,42
287.32388,287.4094,41,105,42
287.45544,288.14954,37,125,42
288.24493,288.939,38,125,42
289.0344,289.3502,38,116,42
289.42914,289.74493,40,116,42
289.82388,290.13965,41,116,42
290.2186,290.5344,41,116,42
290.61334,290.92914,43,116,42
291.0081,291.32388,45,116,42
291.40283,291.7186,46,116,42
291.79755,292.11334,49,116,42
292.1923,292.3206,48,127,42
292.38965,292.51794,36,116,42
292.58704,292.71533,48,127,42
292.7844,292.9127,36,116,42
292.98178,293.11005,48,127,42
293.17914,293.30743,36,116,42
293.3765,293.5048,48,127,42
293.57388,293.70215,36,116,42
293.77124,293.89954,48,127,42
293.9686,294.0969,36,116,42
294.166,294.29428,48,127,42
294.36334,294.49164,36,116,42
294.5607,294.689,48,127,42
294.7581,294.88638,36,116,42
294.95544,295.08374,48,127,42
295.15283,295.2811,36,116,42
295.3502,295.666,41,116,42
296.13965,296.45544,45,116,42
296.92914,297.24493,50,116,42
297.7186,298.0344,45,116,42
298.5081,298.82388,50,116,42
299.29755,299.61334,45,116,42
300.08704,300.46204,50,127,42
300.48178,300.85678,49,127,42
300.8765,301.2515,48,127,42
301.27124,301.64624,36,127,42
301.666,301.98178,41,116,42
302.2581,302.416,41,116,42
302.45544,302.77124,45,116,42
303.04755,303.20544,45,116,42
303.24493,303.56073,50,116,42
303.83704,303.99493,50,116,42
304.0344,304.3502,45,116,42
304.6265,304.7844,45,116,42
304.82388,305.13968,50,116,42
305.416,305.57388,50,116,42
305.61334,305.92914,45,116,42
306.20544,306.36334,45,116,42
306.40283,306.71863,50,127,42
306.79755,307.11334,49,127,42
307.1923,307.31073,53,127,42
307.38968,307.5081,48,116,42
307.58704,307.70544,48,127,42
307.7844,307.90283,36,116,42
307.98178,308.29755,50,127,42
308.3765,308.6923,49,127,42
308.77124,308.88968,53,127,42
308.96863,309.08704,48,116,42
309.166,309.2844,48,127,42
309.36334,309.48178,36,116,42
309.56073,309.8765,50,127,42
309.95544,310.27124,49,127,42
310.3502,310.46863,53,127,42
310.54758,310.666,48,116,42
310.74493,310.86334,48,127,42
310.9423,311.06073,36,116,42
311.13968,311.2581,53,116,42
311.33704,311.45544,48,116,42
311.5344,311.65283,48,116,42
311.73178,311.8502,36,116,42
311.92914,312.04758,53,116,42
312.1265,312.24493,48,116,42
312.32388,312.4423,48,116,42
312.52124,312.63968,36,116,42
312.71863,312.83704,53,116,42
312.916,313.0344,48,116,42
313.11334,313.23178,48,116,42
313.31073,313.42914,36,116,42
313.5081,313.62653,53,116,42
313.70544,313.82388,48,116,42
313.90283,314.02124,48,116,42
314.1002,314.21863,36,116,42
314.29758,314.40283,41,80,42
314.42914,314.5344,41,80,42
314.56073,314.666,41,80,42
314.6923,314.79758,41,80,42
314.82388,314.92914,41,80,42
314.95544,315.06073,41,80,42
315.08704,315.1923,41,92,42
315.21863,315.32388,41,92,42
315.3502,315.45544,41,92,42
315.48178,315.58704,41,92,42
315.61334,315.71863,41,92,42
315.74493,315.8502,41,92,42
315.87653,315.98178,41,105,42
316.0081,316.11334,41,105,42
316.13968,316.24493,41,105,42
316.27124,316.37653,41,105,42
316.40283,316.5081,41,105,42
316.5344,316.63968,41,105,42
316.666,316.77124,41,105,42
316.79758,316.90283,41,105,42
316.92914,317.0344,41,105,42
317.06073,317.166,41,116,42
317.1923,317.29758,41,116,42
317.32388,317.42914,41,116,42
317.45547,317.56073,41,116,42
317.58704,317.6923,41,116,42
317.71863,317.82388,41,116,42
317.8502,317.95547,53,124,42
317.98178,318.08704,53,124,42
318.11334,318.21863,53,124,42
318.24493,318.3502,53,124,42
318.37653,318.48178,53,124,42
318.5081,318.61334,53,124,42
318.63968,318.74493,53,124,42
318.77124,318.87653,53,124,42
318.90283,319.0081,53,124,42
319.0344,319.3502,49,124,42
319.88623,320.25546,49,124,42
320.8093,321.17853,48,124,42
321.7324,322.10162,36,124,42
322.66913,322.85962,41,124,42
323.14532,323.41766,65,127,42
323.48535,323.57556,62,124,42
323.5981,323.8688,60,127,42
323.93646,324.0267,57,124,42
324.04926,324.30154,53,127,42
324.36404,324.4474,50,124,42
324.4682,324.6349,53,124,42
324.8849,325.1588,41,124,42
325.22806,325.32034,41,124,42
325.3434,326.2987,41,124,42
326.35425,327.4623,41,124,42
327.52417,329.25397,41,124,42
334.10397,336.02396,41,1,42
174.95174,175.37651,69,63,45
176.01369,176.43846,69,63,45
176.54465,176.96944,57,70,45
177.07562,177.50041,69,70,45
178.13757,178.56235,69,70,45
179.19952,179.6243,69,80,45
180.26146,180.68625,71,120,45
181.32341,181.74818,64,80,45
181.85439,182.06677,69,70,45
182.38536,182.59775,69,63,45
182.91634,183.13255,69,63,45
183.1866,183.40282,57,63,45
183.45686,183.6791,69,63,45
183.73465,183.95688,57,63,45
184.01242,184.241,69,63,45
184.29814,184.52672,57,63,45
184.58386,184.81686,69,63,45
184.87512,185.10812,57,63,45
185.16638,185.42444,69,63,45
185.48897,185.74702,57,63,45
185.81154,186.06961,69,63,45
186.13412,186.39218,57,63,45
186.4567,186.73256,69,63,45
186.80153,187.0774,57,63,45
187.14636,187.42223,69,63,45
187.49118,187.76704,57,63,45
1.578948,1.7368428,41,63,45
1.973685,2.1315799,53,63,45
3.157896,3.315791,41,63,45
3.552633,3.710528,53,63,45
5.526318,5.6842127,38,63,45
5.921055,6.07895,41,63,45
6.315792,6.4736867,45,63,45
6.710529,6.8388186,50,63,45
6.9078975,7.036187,53,63,45
8.684214,8.842109,38,63,45
9.078951,9.236846,41,63,45
9.473688,9.631583,45,63,45
9.868425,9.996715,50,63,45
10.065793,10.194083,53,63,45
20.328955,20.447376,48,70,45
20.526323,20.842113,41,63,45
21.11843,21.23685,48,63,45
21.315798,21.631588,41,63,45
21.907904,22.026325,48,63,45
22.105272,22.421062,41,63,45
22.697378,22.815798,48,63,45
22.894747,23.210535,41,63,45
23.48685,23.605272,48,63,45
23.68422,24.00001,41,63,45
24.276325,24.394747,48,63,45
24.473694,24.789484,41,63,45
25.0658,25.184221,48,63,45
25.263168,25.578959,41,63,45
25.855274,25.973694,48,63,45
26.052643,26.368431,41,63,45
26.644747,26.802643,48,63,45
26.842115,27.157906,53,63,45
27.434221,27.592115,48,63,45
27.63159,27.94738,53,63,45
28.223696,28.38159,48,63,45
28.421064,28.736855,53,63,45
29.01317,29.171064,48,63,45
29.210539,29.526327,41,63,45
29.802643,29.960539,46,63,45
30.000011,30.315802,41,63,45
30.592117,30.750011,46,63,45
30.789486,31.105276,45,63,45
31.184223,31.342117,41,63,45
31.381592,31.539486,45,63,45
31.57896,31.894749,53,63,45
32.171066,32.32896,48,63,45
32.368435,32.684223,53,63,45
32.96054,33.118435,48,63,45
33.15791,33.473698,53,63,45
33.750015,33.90791,48,63,45
33.947384,34.263172,53,63,45
55.094692,55.26136,48,63,45
55.51136,55.67803,51,63,45
55.92803,56.094692,44,63,45
56.13636,56.30303,44,63,45
56.344692,56.51136,48,63,45
56.76136,56.92803,51,63,45
57.17803,57.344696,44,63,45
57.594696,57.76136,56,63,45
57.80303,57.969696,56,63,45
58.01136,58.17803,48,63,45
58.42803,58.594696,51,63,45
58.844696,59.011364,44,63,45
59.261364,59.42803,56,63,45
59.469696,59.636364,56,63,45
59.67803,59.844696,51,63,45
60.094696,60.261364,44,63,45
60.511364,60.678032,51,63,45
60.928032,61.094696,56,63,45
61.136364,61.303032,51,63,45
61.3447,61.511364,48,63,45
61.761364,61.928032,51,63,45
62.178032,62.3447,55,63,45
62.5947,62.761364,48,63,45
62.803032,62.9697,48,63,45
63.011368,63.178032,51,63,45
63.428032,63.5947,55,63,45
63.8447,64.01137,48,63,45
64.26137,64.42803,48,63,45
64.4697,64.63637,36,63,45
64.67803,64.8447,48,63,45
65.0947,65.26137,55,63,45
65.51137,65.67803,48,63,45
65.92803,66.0947,48,63,45
66.13637,66.30303,36,63,45
66.3447,66.51137,39,63,45
66.76137,66.92804,46,63,45
67.17804,67.3447,51,63,45
67.5947,67.76137,39,63,45
67.80304,67.9697,51,63,45
68.01137,68.17804,46,63,45
68.42804,68.5947,51,63,45
68.8447,69.01137,39,63,45
69.26137,69.42804,46,63,45
69.4697,69.63637,51,63,45
69.67804,69.8447,44,63,45
70.0947,70.261375,48,63,45
70.511375,70.67804,51,63,45
70.92804,71.0947,44,63,45
71.136375,71.30304,44,63,45
71.3447,71.511375,48,63,45
71.761375,71.92804,51,63,45
72.17804,72.3447,44,63,45
72.5947,72.761375,56,63,45
72.80304,72.9697,56,63,45
73.011375,73.17804,51,63,45
73.42804,73.59471,48,63,45
73.84471,74.011375,44,63,45
74.261375,74.42804,56,70,45
74.67804,74.84471,46,70,45
75.09471,75.261375,49,80,45
75.511375,75.67804,46,80,45
75.92804,76.09471,37,92,45
76.136375,76.30304,37,92,45
76.34471,76.511375,39,92,45
76.761375,76.92805,51,92,45
77.17805,77.34471,48,80,45
77.59471,77.761375,44,80,45
77.80305,77.96971,48,80,45
78.011375,78.18039,39,70,45
78.433914,78.60293,51,63,45
78.856445,79.02788,39,63,45
200.28622,200.4484,48,103,45
200.48894,200.80472,53,63,45
201.08104,201.23894,48,63,45
201.27841,201.5942,53,63,45
201.87051,202.02841,48,63,45
202.06789,202.38367,53,63,45
202.65999,202.81789,48,63,45
202.85736,203.17314,41,63,45
203.44946,203.60736,46,63,45
203.64684,203.96262,41,63,45
204.23894,204.39684,46,63,45
204.4363,204.5942,45,63,45
204.83104,204.98894,41,63,45
205.02841,205.18631,48,63,45
205.22577,205.54156,53,63,45
205.81789,205.97577,48,63,45
206.01524,206.33104,53,63,45
206.60736,206.76524,48,63,45
206.80472,207.12051,53,63,45
207.39684,207.55472,48,63,45
207.5942,207.90999,53,63,45
260.61334,260.77124,41,63,45
261.00806,261.16595,45,63,45
261.20544,261.36334,48,63,45
261.4028,261.5607,53,63,45
262.1923,262.3502,53,63,45
262.587,262.7449,48,63,45
262.98175,263.13965,45,63,45
263.3765,263.5344,41,70,45
263.77124,263.9291,45,80,45
264.16595,264.32385,48,92,45
264.36334,264.52124,53,92,45
264.5607,264.7186,46,112,45
265.3502,265.50806,46,92,45
265.7449,265.9028,43,80,45
265.9423,266.1002,46,80,45
266.13965,266.29755,48,80,45
266.92914,267.087,48,70,45
267.32385,267.48175,45,70,45
267.52124,267.67914,41,70,45
267.7186,267.8765,36,70,45
268.11334,268.27124,48,63,45
268.5081,268.66595,36,63,45
268.9028,269.0607,48,63,45
269.29755,269.45544,41,63,45
